<svg xmlns="http://www.w3.org/2000/svg" width="16" height="16" viewBox="0 0 16 16">
<path fill="#0079c1" d="M15.7318 1.5695L14.43.2677c-.3606-.3596-.9382-.3642-1.3288.0264l-1.4437 1.4437-9.774 9.7743L.035 15.5156c-.063.1364-.0395.2907.0594.3896.0988.0988.2531.1223.3895.0594l4.0035-1.8485 9.7731-9.7742a.0015.0015 0 0 0-.0005-.001l.0017.0012 1.4437-1.4437c.3905-.3906.386-.9683.0264-1.3289zM.5995 15.4296l1.495-2.909 1.4096 1.4086-2.9046 1.5004zm3.4175-1.8183l-1.569-1.5696 9.7737-9.774 1.5685 1.5696-9.7732 9.774zM15.0964 2.6237l-.941.8978-1.6613-1.6613.9409-.8979a.5.5 0 0 1 .7072 0l.9542.9543a.5.5 0 0 1 0 .707z"/>
</svg>
