<?xml version="1.0" encoding="utf-8"?>
<!-- Generator: Adobe Illustrator 18.1.0, SVG Export Plug-In . SVG Version: 6.00 Build 0)  -->
<svg version="1.1" xmlns="http://www.w3.org/2000/svg" xmlns:xlink="http://www.w3.org/1999/xlink" x="0px" y="0px"
	 viewBox="0 0 32 32" enable-background="new 0 0 32 32" xml:space="preserve">
<g id="Dark_Theme_1_" display="none">
	<rect x="-288" y="-64" display="inline" fill="#333333" width="544" height="736"/>
	
		<rect x="-320" y="-96" display="inline" fill="none" stroke="#808080" stroke-width="0.25" stroke-miterlimit="10" width="612" height="792"/>
</g>
<g id="LightTheme" display="none">
	<rect x="-288" y="-64" display="inline" fill="#F8F8F8" width="544" height="736"/>
	
		<rect x="-320" y="-96" display="inline" fill="none" stroke="#808080" stroke-width="0.25" stroke-miterlimit="10" width="612" height="792"/>
</g>
<g id="Hover" display="none">
	<rect x="-288" y="-64" display="inline" fill="#C5E5F9" width="544" height="736"/>
</g>
<g id="Selected" display="none">
	<rect x="-288" y="-64" display="inline" fill="#AADBFA" width="544" height="736"/>
</g>
<g id="Icon_Name">
</g>
<g id="Icons">
	<path fill="#6D6E71" d="M31,27c0,1.1035004-0.8955002,2-2,2H3c-1.10449,0-2-0.8964996-2-2V6c0-1.1054702,0.89551-2,2-2h26
		c1.1044998,0,2,0.8945298,2,2V27z"/>
	<path fill="#F8F8F8" d="M30,27c0,0.5527-0.4473076,1-1,1H3c-0.5527301,0-1-0.4473-1-1V6c0-0.5527301,0.4472699-1,1-1h26
		c0.5526924,0,1,0.4472699,1,1V27z"/>
	<polygon fill="#6D6E71" points="29,27 29,27 3,27 3,27 3,6 3,6 29,6 29,6 	"/>
	<polygon fill="#F8F8F8" points="28,26 28,26 4,26 4,26 4,7 4,7 28,7 28,7 	"/>
	<rect x="4" y="7" fill="#939598" width="24" height="3"/>
	<rect x="8" y="10" fill="#939598" width="1" height="16"/>
	<rect x="9" y="10" fill="#F8F8F8" width="19" height="16"/>
	<path fill="#A7A9AC" d="M28,26v-6.0907993c-0.340807,0.0936985-0.6914062,0.2909985-0.8027077,0.2909985
		c-0.2265987,0-0.454092,0-0.6806927,0c-0.3574066,0-0.6982059,0.0498009-0.9785061-0.1973
		c-0.2852001-0.2489986-0.2793007-0.7089996-0.6669998-0.7089996c-0.5215015,0-0.5625,0.7979012-1.0840015,0.7979012
		c-0.2362919,0-0.4100914-0.1563015-0.646492-0.1563015c-0.2090073,0-0.4804077,0.142601-0.4804077,0.3497009
		c0,0.1805992,0,0.362299,0,0.5429001c0,0.4570999-0.5468922,0.5489006-0.5468922,1.0068989
		c0,0.1875,0.1981926,0.2568016,0.1981926,0.4443016c0,0.6239986-0.9628925,0.5409985-0.9628925,1.1669998
		c0,0.2050991-0.3085995,1.3270988,0.2314987,1.5243988c0,0.0098,0,0.0205002,0,0.0313015
		c0,0.232399-0.3340054,0.5917988-0.4492054,0.9979992H28z"/>
	<path fill="#A7A9AC" d="M14.5380936,25.8544998c0-0.3281002,0.1035061-0.5634995,0.1904068-0.8144989
		C14.79,24.8612995,14.8427935,23.6737995,14.8427935,23.4375c0-0.5897999-1.1280003-0.4237995-1.3046999-0.7772999
		c-0.4394932-0.8780003,0.7489996-1.1035995,0.7489996-1.8047009c0-0.1738987-0.0888929-0.5292988-0.3602934-0.5556984
		c-0.3799-0.0391006-0.4795065,0.1659985-0.8604069,0.1659985c-0.2362928,0-0.4725933-0.1522999-0.4725933-0.3876991
		c0-0.4179001,0.3330002-0.6112995,0.3330002-1.0293007c0-0.2705002-0.1104069-0.4228001-0.1104069-0.6933002
		c0-0.3681984,0.2695007-0.6952991,0.6377068-0.6952991c0.3485937,0,0.5010004,0.285099,0.6669931,0.5839005
		c0.1396074,0.2509995,0.3809071,0.3330002,0.6670008,0.3330002c0.5282993,0,0.8602991-0.6591015,0.8602991-1.0556011
		c0-0.2694988,0.2012005-0.5273991,0.4727011-0.5273991c0.375,0,0.5136986,0.3886986,0.8886986,0.3886986
		c0.6172085,0,0.5957012-0.8163986,1.1386013-1.1112995c0.6660995-0.3603992,0.4727001-1.1377001,0.3886986-1.5546999
		c-0.0350914-0.1835995,0.3135014-0.5409994,0.5010014-0.5282993c0.7772999,0.0555992,0.4443073-0.5830002,0.4443073-0.8887005
		c0-0.0546999,0.0087929-0.1055002,0.0243988-0.1533003c0.1202011-0.3573999,0.6415939-0.4706993,0.6415939-0.9013996
		c0-0.3056002-0.25-0.4453001-0.25-0.75c0-0.4520998,0.6679993-0.8584003,1.3692055-1.1904001
		c0.1600933-0.0752001,0.2460938-0.1475,0.2948933-0.3046999H9v16h5.5517998
		C14.5430002,25.9062996,14.5380936,25.8906002,14.5380936,25.8544998z"/>
</g>
</svg>
