<?xml version="1.0" encoding="utf-8"?>
<!-- Generator: Adobe Illustrator 18.1.0, SVG Export Plug-In . SVG Version: 6.00 Build 0)  -->
<svg version="1.1" xmlns="http://www.w3.org/2000/svg" xmlns:xlink="http://www.w3.org/1999/xlink" x="0px" y="0px"
	 viewBox="0 0 16 16" enable-background="new 0 0 16 16" xml:space="preserve">
<g id="Dark_Theme_1_" display="none">
	<rect x="-232" y="-104" display="inline" fill="#333333" width="544" height="736"/>
	
		<rect x="-264" y="-136" display="inline" fill="none" stroke="#808080" stroke-width="0.25" stroke-miterlimit="10" width="612" height="792"/>
</g>
<g id="LightTheme" display="none">
	<rect x="-232" y="-104" display="inline" fill="#F8F8F8" width="544" height="736"/>
	
		<rect x="-264" y="-136" display="inline" fill="none" stroke="#808080" stroke-width="0.25" stroke-miterlimit="10" width="612" height="792"/>
</g>
<g id="Hover" display="none">
	<rect x="-232" y="-104" display="inline" fill="#C5E5F9" width="544" height="736"/>
</g>
<g id="Selected" display="none">
	<rect x="-232" y="-104" display="inline" fill="#AADBFA" width="544" height="736"/>
</g>
<g id="Icon_Name">
</g>
<g id="Icons">
	<g>
		<rect fill="none" width="16" height="16"/>
		<path fill="#6D6E71" d="M16,14c0,0.5527-0.4473057,1-1,1H1c-0.552705,0-1-0.4473-1-1V3c0-0.5527,0.447295-1,1-1h14
			c0.5526943,0,1,0.4473,1,1V14z"/>
		<linearGradient id="SVGID_1_" gradientUnits="userSpaceOnUse" x1="3.8684301" y1="1.3439111" x2="12.1315699" y2="15.6560888">
			<stop  offset="0" style="stop-color:#8C8C8C"/>
			<stop  offset="1" style="stop-color:#404040"/>
		</linearGradient>
		<polygon fill="url(#SVGID_1_)" points="15,14 15,14 1,14 1,14 1,3 1,3 15,3 15,3 		"/>
		<polygon fill="#F8F8F8" points="15,14 15,14 1,14 1,14 1,5 1,5 15,5 15,5 		"/>
		<rect x="1" y="3" fill="#6DB5E3" width="14" height="2"/>
		<rect x="4" y="5" fill="#6DB5E3" width="1" height="9"/>
		<rect x="6" y="6" fill="none" width="10" height="10"/>
		<rect x="5" y="5" fill="#D3EAF9" width="10" height="9"/>
		<path fill="#9BC29C" d="M8.3075943,13.9678001c0-0.1973,0.0635004-0.3408003,0.1162004-0.4932003
			C8.4608946,13.3642998,8.4931946,13.25,8.4931946,13.1084003c0-0.3594007-0.6845999-0.2578001-0.7929997-0.4736004
			c-0.2666001-0.5332003,0.4550996-0.6689997,0.4550996-1.0966997c0-0.1044998-0.0536995-0.3193007-0.2187996-0.3369007
			c-0.2314-0.0224991-0.2909999,0.1006002-0.5233998,0.1006002c-0.1436005,0-0.2870951-0.0917997-0.2870951-0.2354002
			c0-0.2538996,0.203095-0.3710995,0.203095-0.6259995c0-0.1640005-0.0674-0.2558002-0.0674-0.4198999
			c0-0.2245998,0.1640997-0.4218998,0.3877001-0.4218998c0.2118998,0,0.3037,0.1728992,0.4053001,0.3525991
			c0.0839996,0.1523008,0.2313995,0.2021008,0.4043045,0.2021008c0.3212948,0,0.5233955-0.3994007,0.5233955-0.6396008
			c0-0.1640997,0.1230993-0.3212996,0.2870998-0.3212996c0.2276001,0,0.3125048,0.2363005,0.5409994,0.2363005
			c0.3741007,0,0.3614006-0.4951,0.6915054-0.6758003c0.4051952-0.2177,0.2870951-0.6914005,0.2362947-0.9443002
			c-0.0214996-0.1113,0.1893997-0.3280997,0.3037052-0.3213c0.4725952,0.0342002,0.2704945-0.3525,0.2704945-0.5390997
			c0-0.0351005,0.0059004-0.0654001,0.0146008-0.0937004c0.0732994-0.2177997,0.3906994-0.2870998,0.3906994-0.5478997
			c0-0.1845002-0.1532993-0.2695003-0.1532993-0.4549999c0-0.2745004,0.4061995-0.5215001,0.8319998-0.7227001
			C12.4940948,5.0819998,12.546895,5.0956998,12.5761948,5H5v9h3.3163948
			C8.3114948,13.9442997,8.3075943,13.9912004,8.3075943,13.9678001z"/>
		<path fill="#9BC29C" d="M15,14v-3.0361004c-0.2080002,0.0566006-0.3623056,0.5049-0.4307051,0.5049
			c-0.1377001,0-0.2754002,0-0.4140005,0c-0.2167997,0-0.4238997-0.1348-0.5948-0.2841997
			c-0.1728001-0.1504002-0.1688995-0.5127001-0.4041996-0.5127001c-0.3165007,0-0.3417997,0.4443007-0.6591997,0.4443007
			C12.3534946,11.1162004,12.2480001,11,12.104495,11c-0.1260004,0-0.2920008,0.0663996-0.2920008,0.1924
			c0,0.1093998,0,0.2207003,0,0.3290997c0,0.2783003-0.3319998,0.3340006-0.3319998,0.6122999
			c0,0.1133003,0.1201,0.1553001,0.1201,0.2695007c0,0.3808994-0.585,0.3301001-0.585,0.7089996
			c0,0.1260004,0.1407003,0.1991997,0.1407003,0.3192997c0,0.0059004,0,0.0137005,0,0.0195999
			c0,0.1416006-0.2021999,0.3017006-0.2735004,0.5488005H15z"/>
	</g>
</g>
</svg>
