<?xml version="1.0" encoding="utf-8"?>
<!-- Generator: Adobe Illustrator 18.1.0, SVG Export Plug-In . SVG Version: 6.00 Build 0)  -->
<svg version="1.1" xmlns="http://www.w3.org/2000/svg" xmlns:xlink="http://www.w3.org/1999/xlink" x="0px" y="0px"
	 viewBox="0 0 32 32" enable-background="new 0 0 32 32" xml:space="preserve">
<g id="Dark_Theme_1_" display="none">
	<rect x="-224" y="-64" display="inline" fill="#333333" width="544" height="736"/>
	
		<rect x="-256" y="-96" display="inline" fill="none" stroke="#808080" stroke-width="0.25" stroke-miterlimit="10" width="612" height="792"/>
</g>
<g id="LightTheme" display="none">
	<rect x="-224" y="-64" display="inline" fill="#F8F8F8" width="544" height="736"/>
	
		<rect x="-256" y="-96" display="inline" fill="none" stroke="#808080" stroke-width="0.25" stroke-miterlimit="10" width="612" height="792"/>
</g>
<g id="Hover" display="none">
	<rect x="-224" y="-64" display="inline" fill="#C5E5F9" width="544" height="736"/>
</g>
<g id="Selected" display="none">
	<rect x="-224" y="-64" display="inline" fill="#AADBFA" width="544" height="736"/>
</g>
<g id="Icon_Name">
</g>
<g id="Icons">
	<g>
		<path fill="#6D6E71" d="M31,27c0,1.1035004-0.8955059,2-2,2H3c-1.1045049,0-2-0.8964996-2-2V6c0-1.1054702,0.8954951-2,2-2h26
			c1.1044941,0,2,0.8945298,2,2V27z"/>
		<path fill="#F8F8F8" d="M30,27c0,0.5527-0.4473057,1-1,1H3c-0.5527048,0-1-0.4473-1-1V6c0-0.5527301,0.4472952-1,1-1h26
			c0.5526943,0,1,0.4472699,1,1V27z"/>
		<polygon fill="#939598" points="29,27 29,27 3,27 3,27 3,6 3,6 29,6 29,6 		"/>
		<polygon fill="#F8F8F8" points="28,26 28,26 4,26 4,26 4,7 4,7 28,7 28,7 		"/>
		<rect x="4" y="7" fill="#6DB5E3" width="24" height="3"/>
		<rect fill="none" width="32" height="32"/>
		<rect x="8" y="10" fill="#6DB5E3" width="1" height="16"/>
		<rect x="9" y="10" fill="#D3EAF9" width="19" height="16"/>
		<path fill="#9BC29C" d="M28,26v-6.0907993c-0.3408051,0.0936985-0.6914062,0.2909985-0.8027058,0.2909985
			c-0.2266006,0-0.4540997,0-0.6807003,0c-0.357399,0-0.6982002,0.0498009-0.9785004-0.1973
			c-0.2851982-0.2489986-0.2792988-0.7089996-0.6669998-0.7089996c-0.5214996,0-0.5625,0.7979012-1.0839996,0.7979012
			c-0.2362995,0-0.4100933-0.1563015-0.6464996-0.1563015c-0.2089996,0-0.4804001,0.142601-0.4804001,0.3497009
			c0,0.1805992,0,0.362299,0,0.5429001c0,0.4570999-0.5468998,0.5489006-0.5468998,1.0068989
			c0,0.1875,0.1982002,0.2568016,0.1982002,0.4443016c0,0.6239986-0.9629002,1.5409985-0.9629002,2.1669998
			c0,0.2050991-0.3085938,0.3270988,0.2315006,0.5243988c0,0.0098,0,0.0205002,0,0.0313015
			c0,0.232399-0.3340015,0.5917988-0.4492016,0.9979992H28z"/>
		<path fill="#9BC29C" d="M14.5380945,25.8544998c0-0.3281002,0.1035004-0.5634995,0.1904001-0.8144989
			C14.79,24.8612995,14.8427944,24.6737995,14.8427944,24.4375c0-0.5897999-1.1279993-0.4237995-1.3046999-0.7772999
			c-0.4394999-0.8780003,0.7490005-2.1035995,0.7490005-2.8047009c0-0.1738987-0.0889006-0.5292988-0.3603001-0.5556984
			c-0.3799-0.0391006-0.4794998,0.1659985-0.8604002,0.1659985c-0.2362995,0-0.4726-0.1522999-0.4726-0.3876991
			c0-0.4179001,0.3330002-0.6112995,0.3330002-1.0293007c0-0.2705002-0.1104002-0.4228001-0.1104002-0.6933002
			c0-0.3681984,0.2694998-0.6952991,0.6377001-0.6952991c0.3486004,0,0.5009995,0.285099,0.6669998,0.5839005
			c0.1395998,0.2509995,0.3809052,0.3330002,0.6669998,0.3330002c0.5283003,0,0.8603001-0.6591015,0.8603001-1.0556011
			c0-0.2694988,0.2012005-0.5273991,0.4727011-0.5273991c0.375,0,0.5136986,0.3886986,0.8886986,0.3886986
			c0.6172066,0,0.5957012-0.8163986,1.1386013-1.1112995c0.6660995-0.3603992,0.4726982-1.1377001,0.3886986-1.5546999
			c-0.0350933-0.1835995,0.3135014-0.5409994,0.5010014-0.5282993c0.7772999,0.0555992,0.4442997-0.5830002,0.4442997-0.8887005
			c0-0.0546999,0.0087986-0.1055002,0.0243988-0.1533003c0.1202068-0.3573999,0.6416016-0.4706993,0.6416016-0.9013996
			c0-0.3056002-0.25-0.4453001-0.25-0.75c0-0.4520998,0.6679993-0.8584003,1.3691998-1.1904001
			c0.160099-0.0752001,0.2460995-0.1475,0.294899-0.3046999H9v16h5.551795
			C14.5430002,25.9062996,14.5380945,25.8906002,14.5380945,25.8544998z"/>
	</g>
</g>
</svg>
