<?xml version="1.0" encoding="utf-8"?>
<!-- Generator: Adobe Illustrator 18.1.0, SVG Export Plug-In . SVG Version: 6.00 Build 0)  -->
<svg version="1.1" xmlns="http://www.w3.org/2000/svg" xmlns:xlink="http://www.w3.org/1999/xlink" x="0px" y="0px"
	 viewBox="0 0 16 16" enable-background="new 0 0 16 16" xml:space="preserve">
<g id="Dark_Theme_1_" display="none">
	<rect x="-488" y="-104" display="inline" fill="#333333" width="544" height="736"/>
	
		<rect x="-520" y="-136" display="inline" fill="none" stroke="#808080" stroke-width="0.25" stroke-miterlimit="10" width="612" height="792"/>
</g>
<g id="LightTheme" display="none">
	<rect x="-488" y="-104" display="inline" fill="#F8F8F8" width="544" height="736"/>
	
		<rect x="-520" y="-136" display="inline" fill="none" stroke="#808080" stroke-width="0.25" stroke-miterlimit="10" width="612" height="792"/>
</g>
<g id="Hover" display="none">
	<rect x="-488" y="-104" display="inline" fill="#C5E5F9" width="544" height="736"/>
</g>
<g id="Selected" display="none">
	<rect x="-488" y="-104" display="inline" fill="#AADBFA" width="544" height="736"/>
</g>
<g id="Icon_Name">
</g>
<g id="Icons">
	<g>
		<rect fill-rule="evenodd" clip-rule="evenodd" fill="none" width="16" height="16"/>
		<path fill="#E5D255" d="M16,14.4004002c0,0-3.2002058-1.6015997-8,0c-4.7998052,1.5995998-8,0-8,0L2.1327949,1.5996
			c0,0,3.2012053,1.0663999,5.8672051,0s5.8671942,0,5.8671942,0L16,14.4004002z"/>
		<path fill="#F0E498" d="M15.1036987,9.0209351C15.0679321,9.0170898,15.0368042,9,15,9h-0.4537964l-4.2053833-6.5410156
			C10.15625,2.1728516,9.8393555,2,9.4995117,2c-0.0048828,0-0.0102539,0-0.015625,0
			C9.1381836,2.0058594,8.8198242,2.1894531,8.6420898,2.4853516L6.3007812,6.3876953L5.206543,5.2929688
			C5.0180664,5.1044922,4.7631836,5,4.4995117,5C4.4619141,5,4.4243164,5.0019531,4.3862305,5.0068359
			C4.0834961,5.0410156,3.8129883,5.2119141,3.6513672,5.4697266L1.4453735,9H1
			C0.9631958,9,0.9320679,9.0170898,0.8963013,9.0209351l-0.4633179,2.7807007C0.5961914,11.9172974,0.784729,12,1,12h14
			c0.215271,0,0.4038086-0.0827026,0.5670166-0.1983643L15.1036987,9.0209351z"/>
		<polygon fill="#E89D48" points="14,10 9.4995003,3 6.4994998,8 4.4994998,6 2,10 		"/>
		<g>
			<polygon fill="#C7552E" points="11.4282837,6 7.6995239,6 6.4995117,8 12.7141724,8 			"/>
			<polygon fill="#C7552E" points="6.4995117,8 4.4995117,6 3.2497559,8 			"/>
		</g>
		<polygon fill="#F8F8F8" points="11.4282837,6 9.4995117,3 7.6995239,6 		"/>
		<rect x="1" y="10" fill="#5B945A" width="14" height="1"/>
		<g>
			<polygon fill="#A67A47" points="9.4995117,3 6.4995117,8 6.8594971,8 9.4995117,3.5999756 13.6142578,10 14,10 			"/>
			<polygon fill="#A67A47" points="2,10 2.374939,10 4.4995117,6.5999756 5.8995361,8 6.4995117,8 4.4995117,6 			"/>
		</g>
	</g>
</g>
</svg>
