<?xml version="1.0" encoding="utf-8"?>
<!-- Generator: Adobe Illustrator 18.1.0, SVG Export Plug-In . SVG Version: 6.00 Build 0)  -->
<svg version="1.1" xmlns="http://www.w3.org/2000/svg" xmlns:xlink="http://www.w3.org/1999/xlink" x="0px" y="0px"
	 viewBox="0 0 32 32" enable-background="new 0 0 32 32" xml:space="preserve">
<g id="Dark_Theme_1_" display="none">
	<rect x="-32" y="-160" display="inline" fill="#333333" width="544" height="736"/>
	
		<rect x="-64" y="-192" display="inline" fill="none" stroke="#808080" stroke-width="0.25" stroke-miterlimit="10" width="612" height="792"/>
</g>
<g id="LightTheme" display="none">
	<rect x="-32" y="-160" display="inline" fill="#F8F8F8" width="544" height="736"/>
	
		<rect x="-64" y="-192" display="inline" fill="none" stroke="#808080" stroke-width="0.25" stroke-miterlimit="10" width="612" height="792"/>
</g>
<g id="Hover" display="none">
	<rect x="-32" y="-160" display="inline" fill="#C5E5F9" width="544" height="736"/>
</g>
<g id="Selected" display="none">
	<rect x="-32" y="-160" display="inline" fill="#AADBFA" width="544" height="736"/>
</g>
<g id="Icon_Name">
</g>
<g id="Icons">
	<g>
		<rect fill-rule="evenodd" clip-rule="evenodd" fill="none" width="32" height="32"/>
		<path fill="#E5D255" d="M31,28c0,0-6-3-15,0S1,28,1,28L5,4c0,0,6,2,11,0s11,0,11,0L31,28z"/>
		<path fill="#F4EEC8" d="M16,4c-2.3579054,0.9433999-4.9316053,0.9921999-7,0.7860999v11.6182003
			c0,0.2616997,0.1029997,0.5136986,0.2865953,0.7011986l5.499999,5.5957012C14.9750948,22.8915997,15.2318945,23,15.5,23
			c0.268095,0,0.5248947-0.1084003,0.7133942-0.2987995l5.5-5.5957012C21.8969994,16.9179993,22,16.6660004,22,16.4043007V4.125
			c0-0.3436999-0.050806-0.6738-0.1387062-0.9941001C20.0287952,3.0527,17.9408951,3.2227001,16,4z"/>
		<path fill="#C7552E" d="M21,4.125C21,1.793,17.9677944,0,15.5,0C13.0321951,0,10,1.793,10,4.125v12.2793007L15.5,22l5.5-5.5956993
			V4.125z"/>
		<path fill="#E5A894" d="M11,15.8417997V4.125C11,2.7079999,13.6986952,1,15.5,1C17.3012943,1,20,2.7079999,20,4.125v11.7167997
			l-4.5,4.1953001L11,15.8417997z"/>
		<path fill="#C96B4B" d="M16,2.418v15.6845007l3-2.6709013V4.125C19,3.5801001,17.3510952,2.6229999,16,2.418z"/>
		<circle fill="#F8F8F8" cx="15.5" cy="6.4990005" r="2.5"/>
	</g>
</g>
</svg>
