<?xml version="1.0" encoding="utf-8"?>
<!-- Generator: Adobe Illustrator 18.1.0, SVG Export Plug-In . SVG Version: 6.00 Build 0)  -->
<svg version="1.1" xmlns="http://www.w3.org/2000/svg" xmlns:xlink="http://www.w3.org/1999/xlink" x="0px" y="0px"
	 viewBox="0 0 16 16" enable-background="new 0 0 16 16" xml:space="preserve">
<g id="Dark_Theme_1_" display="none">
	<rect x="-40" y="-200" display="inline" fill="#333333" width="544" height="736"/>
	
		<rect x="-72" y="-232" display="inline" fill="none" stroke="#808080" stroke-width="0.25" stroke-miterlimit="10" width="612" height="792"/>
</g>
<g id="LightTheme" display="none">
	<rect x="-40" y="-200" display="inline" fill="#F8F8F8" width="544" height="736"/>
	
		<rect x="-72" y="-232" display="inline" fill="none" stroke="#808080" stroke-width="0.25" stroke-miterlimit="10" width="612" height="792"/>
</g>
<g id="Hover" display="none">
	<rect x="-40" y="-200" display="inline" fill="#C5E5F9" width="544" height="736"/>
</g>
<g id="Selected" display="none">
	<rect x="-40" y="-200" display="inline" fill="#AADBFA" width="544" height="736"/>
</g>
<g id="Icon_Name">
</g>
<g id="Icons">
	<g>
		<rect fill-rule="evenodd" clip-rule="evenodd" fill="none" width="16" height="16"/>
		<path fill="#E5D255" d="M16,14.4004002c0,0-3.2002058-1.6015997-8,0c-4.7998052,1.5995998-8,0-8,0L2.1327949,1.5996
			c0,0,3.2012053,1.0663999,5.8672051,0s5.8671942,0,5.8671942,0L16,14.4004002z"/>
		<path fill="#F8F8F8" d="M12,2.9990001C12,2.3241999,11.835,1.709,11.5640001,1.1631C10.4911947,1.0723,9.1928949,1.1221,8,1.5996
			C6.6903949,2.1229999,5.2528949,2.1308999,4.1278949,2.0049C4.0521951,2.3223,4,2.6514001,4,2.9990001V7
			c0,0.2645998,0.105495,0.5194998,0.2930002,0.7069998l3,3C7.4882946,10.9022999,7.7440948,11,8,11
			c0.2558947,0,0.5116949-0.0977001,0.7069998-0.2930002l3-3C11.894495,7.5194998,12,7.2645998,12,7V2.9990001z"/>
		<path fill="#C7552E" d="M11,2.9990001C11,1.3047,9.7948952,0,8,0C6.2050948,0,5,1.3047,5,2.9990001V7l3,3l3-3
			C11,7,11,3.0020001,11,2.9990001z"/>
		<path fill="#E5A894" d="M6,6.5858998V2.9990001C6,1.8027,6.8036947,1,8,1c1.1962948,0,2,0.8027,2,1.9990001v3.5868998L8,8.5859003
			L6,6.5858998z"/>
		<path fill="#C96B4B" d="M8,2v5.1718998l1-1V2.9990001C9,2.3545001,8.6450005,2,8,2z"/>
		<circle fill="#F8F8F8" cx="8" cy="3" r="1.25"/>
		<circle fill="#F8F8F8" cx="8" cy="3" r="1.25"/>
	</g>
</g>
</svg>
