<?xml version="1.0" encoding="utf-8"?>
<!-- Generator: Adobe Illustrator 18.1.0, SVG Export Plug-In . SVG Version: 6.00 Build 0)  -->
<svg version="1.1" xmlns="http://www.w3.org/2000/svg" xmlns:xlink="http://www.w3.org/1999/xlink" x="0px" y="0px"
	 viewBox="0 0 32 32" enable-background="new 0 0 32 32" xml:space="preserve">
<g id="Dark_Theme_1_" display="none">
	<rect x="-352" y="-64" display="inline" fill="#333333" width="544" height="736"/>
	
		<rect x="-384" y="-96" display="inline" fill="none" stroke="#808080" stroke-width="0.25" stroke-miterlimit="10" width="612" height="792"/>
</g>
<g id="LightTheme" display="none">
	<rect x="-352" y="-64" display="inline" fill="#F8F8F8" width="544" height="736"/>
	
		<rect x="-384" y="-96" display="inline" fill="none" stroke="#808080" stroke-width="0.25" stroke-miterlimit="10" width="612" height="792"/>
</g>
<g id="Hover" display="none">
	<rect x="-352" y="-64" display="inline" fill="#C5E5F9" width="544" height="736"/>
</g>
<g id="Selected" display="none">
	<rect x="-352" y="-64" display="inline" fill="#AADBFA" width="544" height="736"/>
</g>
<g id="Icon_Name">
</g>
<g id="Icons">
	<g>
		<rect fill-rule="evenodd" clip-rule="evenodd" fill="none" width="32" height="32"/>
		<polygon fill="#6D6E71" points="28,31 4,31 4,1 21.2997952,1 28,7.6992202 		"/>
		<polygon fill="#F8F8F8" points="27,7.9902301 21.0097942,2 5,2 5,30 27,30 		"/>
		<rect x="20" y="1" fill="#6D6E71" width="1" height="8"/>
		<rect x="20" y="8" fill="#6D6E71" width="8" height="1"/>
		<rect x="7" y="20" fill="#57A6D9" width="18" height="1"/>
		<rect x="7" y="23" fill="#57A6D9" width="18" height="1"/>
		<rect x="7" y="26" fill="#57A6D9" width="18" height="1"/>
		<rect x="7" y="8" fill="#57A6D9" width="12" height="1"/>
		<rect x="7" y="11" fill="#57A6D9" width="18" height="1"/>
		<rect x="7" y="14" fill="#57A6D9" width="18" height="1"/>
		<rect x="7" y="17" fill="#57A6D9" width="18" height="1"/>
	</g>
</g>
</svg>
