<?xml version="1.0" encoding="utf-8"?>
<!-- Generator: Adobe Illustrator 18.1.0, SVG Export Plug-In . SVG Version: 6.00 Build 0)  -->
<svg version="1.1" xmlns="http://www.w3.org/2000/svg" xmlns:xlink="http://www.w3.org/1999/xlink" x="0px" y="0px"
	 viewBox="0 0 16 16" enable-background="new 0 0 16 16" xml:space="preserve">
<g id="Dark_Theme_1_" display="none">
	<rect x="-168" y="-104" display="inline" fill="#333333" width="544" height="736"/>
	
		<rect x="-200" y="-136" display="inline" fill="none" stroke="#808080" stroke-width="0.25" stroke-miterlimit="10" width="612" height="792"/>
</g>
<g id="LightTheme" display="none">
	<rect x="-168" y="-104" display="inline" fill="#F8F8F8" width="544" height="736"/>
	
		<rect x="-200" y="-136" display="inline" fill="none" stroke="#808080" stroke-width="0.25" stroke-miterlimit="10" width="612" height="792"/>
</g>
<g id="Hover" display="none">
	<rect x="-168" y="-104" display="inline" fill="#C5E5F9" width="544" height="736"/>
</g>
<g id="Selected" display="none">
	<rect x="-168" y="-104" display="inline" fill="#AADBFA" width="544" height="736"/>
</g>
<g id="Icon_Name">
</g>
<g id="Icons">
	<g>
		<rect x="2" y="2" fill="#6D6E71" width="14" height="14"/>
		<rect x="3.2727275" y="3.2727275" fill="#D3EAF9" width="11.454545" height="11.454545"/>
		<path fill="#9BC29C" d="M4,4v10.7272339h1.3425903c-0.388916-0.8966675,0.8269043-1.1505737,0.8269043-1.8928833
			c0-0.1864624-0.0957031-0.5693359-0.3897705-0.5991211c-0.4100342-0.0410156-0.5169678,0.1802368-0.9295654,0.1802368
			c-0.2548218,0-0.5102539-0.166626-0.5102539-0.4188843c0-0.4511719,0.3598633-0.6611938,0.3598633-1.1123657
			c0-0.2920532-0.1193237-0.4586792-0.1193237-0.7494507c0-0.3964844,0.2926636-0.7495728,0.6891479-0.7495728
			c0.3760986,0,0.5400391,0.3070068,0.7202759,0.6289673c0.1503296,0.2709961,0.4120483,0.3592529,0.7196655,0.3592529
			c0.5710449,0,0.9309692-0.7109375,0.9309692-1.1385498c0-0.2920532,0.2175293-0.5705566,0.5108032-0.5705566
			c0.4039307,0,0.5543823,0.420166,0.960083,0.420166c0.666748,0,0.6425781-0.8825073,1.229187-1.2018433
			c0.7203979-0.3865356,0.5109253-1.2280884,0.4207764-1.6792603c-0.0392456-0.1975098,0.3380737-0.5828857,0.5400391-0.5691528
			C12.1422729,5.6937866,11,4,11,4H4z"/>
		<rect fill="none" width="16" height="16"/>
		<path fill-rule="evenodd" clip-rule="evenodd" fill="#F8F8F8" d="M4,2v2H2v3h2v4c0,0.5526733,0.4472656,1,1,1h1
			c0.5526733,0,1-0.4473267,1-1V7h4c0.5526733,0,1-0.4473267,1-1V5c0-0.5527344-0.4473267-1-1-1H7V2H4z"/>
		<rect x="7" y="5" fill="#6D6E71" width="4" height="1"/>
		<rect x="5" y="7" fill="#6D6E71" width="1" height="4"/>
		<rect x="5" y="5" fill="#6D6E71" width="1" height="1"/>
		<path fill="#9BC29C" d="M14.727273,10.7538061c-0.150857-0.049017-0.2960434-0.1168318-0.4274797-0.2324991
			c-0.33566-0.2934017-0.328125-0.884943-0.7855883-0.884943c-0.6139145,0-0.6624651,0.9172583-1.2765341,0.9172583
			c-0.2783318,0-0.4087582-0.1963778-0.6872444-0.1963778c-0.246172,0-0.4908676,0.1565275-0.4908676,0.400135v0.6389275
			c0,0.53934-0.7197924,0.6462288-0.7197924,1.1882105c0,0.2185946,0.1963778,0.300703,0.1963778,0.5219393
			c0,0.7382812-1.3100147,0.6388493-1.3100147,1.3746443c0,0.0954704,0.0186434,0.1700439,0.0358887,0.246172h5.4652548V10.7538061z
			"/>
		<path fill="#F8F8F8" d="M3,3v12h12V3H3z M14,14H4V4h10V14z"/>
		<rect y="5" fill="#6D6E71" width="4" height="1"/>
		<rect x="5" fill="#6D6E71" width="1" height="4"/>
	</g>
</g>
</svg>
