<?xml version="1.0" encoding="utf-8"?>
<!-- Generator: Adobe Illustrator 18.1.0, SVG Export Plug-In . SVG Version: 6.00 Build 0)  -->
<svg version="1.1" xmlns="http://www.w3.org/2000/svg" xmlns:xlink="http://www.w3.org/1999/xlink" x="0px" y="0px"
	 viewBox="0 0 32 32" enable-background="new 0 0 32 32" xml:space="preserve">
<g id="Dark_Theme_1_" display="none">
	<rect x="-160" y="-64" display="inline" fill="#333333" width="544" height="736"/>
	
		<rect x="-192" y="-96" display="inline" fill="none" stroke="#808080" stroke-width="0.25" stroke-miterlimit="10" width="612" height="792"/>
</g>
<g id="LightTheme" display="none">
	<rect x="-160" y="-64" display="inline" fill="#F8F8F8" width="544" height="736"/>
	
		<rect x="-192" y="-96" display="inline" fill="none" stroke="#808080" stroke-width="0.25" stroke-miterlimit="10" width="612" height="792"/>
</g>
<g id="Hover" display="none">
	<rect x="-160" y="-64" display="inline" fill="#C5E5F9" width="544" height="736"/>
</g>
<g id="Selected" display="none">
	<rect x="-160" y="-64" display="inline" fill="#AADBFA" width="544" height="736"/>
</g>
<g id="Icon_Name">
</g>
<g id="Icons">
	<g>
		<rect x="4" y="4" fill="#6D6E71" width="28" height="28"/>
		<rect x="5" y="5" fill="#D3EAF9" width="26" height="26"/>
		<path fill="#9BC29C" d="M14.4201965,30.833334c0,0-2.436965-0.9228344-2.8197718-1.6861839
			c-0.9490595-1.895834,1.6200914-2.3834991,1.6200914-3.8987675c0-0.3760166-0.1936665-1.1415825-0.7803831-1.2008495
			c-0.8203411-0.0843506-1.0345297,0.360033-1.8593979,0.360033c-0.510417,0-1.019702-0.3303986-1.019702-0.8386002
			c0-0.9022999,0.7189121-1.3216,0.7189121-2.2216835c0-0.5855484-0.2392607-0.9159489-0.2392607-1.4992828
			c0-0.7953167,0.5844774-1.5016155,1.3797235-1.5016155c0.7508087,0,1.0800419,0.6151829,1.4400749,1.2601166
			c0.3007669,0.5422668,0.822607,0.7199497,1.4401331,0.7199497c1.1404171,0,1.8604841-1.4241505,1.8604841-2.2808342
			c0-0.5833321,0.4352837-1.1393661,1.0208321-1.1393661c0.8089676,0,1.1097336,0.8408165,1.9197502,0.8408165
			c1.3341999,0,1.2852001-1.7659836,2.4598007-2.4017c1.440134-0.7793331,1.020834-2.4586334,0.8397675-3.358716
			c-0.077467-0.3987675,0.6778316-1.1688833,1.0823154-1.1415834c1.6793003,0.1207495,0.9593506-1.2577839,0.9593506-1.9209166
			c0-0.1185341,0.0193672-0.2278509,0.0535507-0.3304005c0.2596989-0.77245,1.3864651-1.0184999,1.3864651-1.9482164
			c0-0.6608005-0.5410995-1.4788671-0.5410995-1.4788671H5.1666665V30.833334H14.4201965z"/>
		<path fill="#9BC29C" d="M30.833334,30.833334v-7.6289501c-0.7371006,0.2028828-1.3443508,0.7360497-1.9493847,0.2028828
			c-0.6151829-0.5400505-0.601532-1.5335827-1.4411831-1.5335827c-1.1257153,0-1.2146168,1.7272491-2.3402157,1.7272491
			c-0.5104179,0-0.8886509-0.3418331-1.3980179-0.3418331c-0.4499817,0-1.0378666,0.309866-1.0378666,0.7588005
			c0,0.3896656,0,0.7815495,0,1.171217c0,0.9889832-1.1814823,1.184866-1.1814823,2.1760654
			c0,0.4033165,0.4295654,0.5538177,0.4295654,0.9593506c0,1.3490162-1.3308163,1.6292496-1.5814152,2.5088005H30.833334z"/>
		<path fill="#F8F8F8" d="M5,5v26h26V5H5z M30,30H6V6h24V30z"/>
		<rect fill="none" width="32" height="32"/>
		<path fill-rule="evenodd" clip-rule="evenodd" fill="#F8F8F8" d="M8,4v4H4v3h4v7c0,0.5526733,0.4472656,1,1,1h1
			c0.5526733,0,1-0.4473267,1-1v-7h7c0.5526733,0,1-0.4473267,1-1V9c0-0.5527344-0.4473267-1-1-1h-7V4H8z"/>
		<rect x="12" y="9" fill="#6D6E71" width="6" height="1"/>
		<rect x="1" y="9" fill="#6D6E71" width="6" height="1"/>
		<rect x="9" y="12" fill="#6D6E71" width="1" height="6"/>
		<rect x="9" y="1" fill="#6D6E71" width="1" height="6"/>
		<rect x="9" y="9" fill="#6D6E71" width="1" height="1"/>
	</g>
</g>
</svg>
