<?xml version="1.0" encoding="utf-8"?>
<!-- Generator: Adobe Illustrator 18.1.0, SVG Export Plug-In . SVG Version: 6.00 Build 0)  -->
<svg version="1.1" xmlns="http://www.w3.org/2000/svg" xmlns:xlink="http://www.w3.org/1999/xlink" x="0px" y="0px"
	 viewBox="0 0 32 32" enable-background="new 0 0 32 32" xml:space="preserve">
<g id="Dark_Theme_1_" display="none">
	<rect x="-96" y="-160" display="inline" fill="#333333" width="544" height="736"/>
	
		<rect x="-128" y="-192" display="inline" fill="none" stroke="#808080" stroke-width="0.25" stroke-miterlimit="10" width="612" height="792"/>
</g>
<g id="LightTheme" display="none">
	<rect x="-96" y="-160" display="inline" fill="#F8F8F8" width="544" height="736"/>
	
		<rect x="-128" y="-192" display="inline" fill="none" stroke="#808080" stroke-width="0.25" stroke-miterlimit="10" width="612" height="792"/>
</g>
<g id="Hover" display="none">
	<rect x="-96" y="-160" display="inline" fill="#C5E5F9" width="544" height="736"/>
</g>
<g id="Selected" display="none">
	<rect x="-96" y="-160" display="inline" fill="#AADBFA" width="544" height="736"/>
</g>
<g id="Icon_Name">
</g>
<g id="Icons">
	<g>
		<rect fill-rule="evenodd" clip-rule="evenodd" fill="none" width="32" height="32"/>
		<path fill="#E5D255" d="M31,28c0,0-6-3-15,0S1,28,1,28L5,4c0,0,6,2,11,0s11,0,11,0L31,28z"/>
		<path fill="#F4EEC8" d="M8.1112947,27.3320007c-1.3636999,0-2.6898999-0.1386013-3.9408998-0.4120998
			c-0.5204999-0.1133003-0.8607998-0.6152-0.7728999-1.1406002L6.452095,7.4512
			c0.0816002-0.4892998,0.5043998-0.836,0.9853997-0.836c0.0498004,0,0.1006002,0.0039001,0.1519003,0.0117998
			C8.7290001,6.8007998,9.8515949,6.8887,10.9257946,6.8887c2.1479006,0,4.1050005-0.3477001,5.8169003-1.0323
			c1.2367992-0.4941001,2.6938-0.7451,4.3314991-0.7451c1.1148052,0,2.2847004,0.1153002,3.4771004,0.3418002
			c0.4116001,0.0781999,0.7304001,0.4052997,0.7992992,0.8183999l2.9111004,17.4647999
			c0.0523052,0.3135014-0.0478001,0.6338005-0.2700005,0.8623009c-0.1898994,0.1943989-0.4486942,0.3017998-0.7162991,0.3017998
			c-0.0463943,0-0.0928001-0.0029011-0.1392002-0.0098c-1.0609989-0.1494007-2.1537991-0.2245998-3.2474995-0.2245998
			c-2.7984009,0-5.6646004,0.4834003-8.5200005,1.4365005C12.9169998,26.9188995,10.4755945,27.3320007,8.1112947,27.3320007z"/>
		<path fill="#6D6E71" d="M8.1112947,26.3320007c-1.5096998,0-2.7704997-0.1797009-3.7274995-0.3886013L7.4384952,7.6152
			c1.0244002,0.1563001,2.2168002,0.2735,3.4872994,0.2735c2.2754002,0,4.3573999-0.3710999,6.1884995-1.1034999
			C18.2323952,6.3379002,19.5653954,6.1113,21.074194,6.1113c1.2510014,0,2.4071999,0.1563001,3.2901001,0.3242002
			l2.9111004,17.464901c-1.0009995-0.1406002-2.1348-0.2343998-3.3866997-0.2343998c-2.9032993,0-5.8770008,0.5-8.8368998,1.4883003
			C12.7040949,25.9354992,10.3690948,26.3320007,8.1112947,26.3320007z"/>
		<path fill="#6DB5E3" d="M19,17.0098v-4.5546999c-1.4199047,0.2558002-2.8437061,0.6093998-4.2646055,1.0819998
			C14.1552944,13.7305002,13.5761948,13.8984003,13,14.0410004v4.5566998
			c0.5761948-0.1445999,1.1552944-0.3106003,1.7353945-0.5039005C16.1562939,17.6191006,17.5800953,17.2656002,19,17.0098z"/>
		<path fill="#6D6E71" d="M25.2128944,17.6112995l-0.1669998-1.0077991
			c-0.3857002-0.0195007-0.7695007-0.0487995-1.1571999-0.0487995c-1.2861996,0-2.585001,0.1152-3.8886948,0.3027v-4.5566006
			C21.3036938,12.1133003,22.6024952,12,23.8886948,12c0.1317997,0,0.2607002,0.0136995,0.3925991,0.0156002l-0.1679993-1.0078001
			C24.0380955,11.0078001,23.9638939,11,23.8886948,11C22.6024952,11,21.3036938,11.1133003,20,11.3008003V7.1563001
			c-0.3477058,0.0292001-0.6797047,0.0760999-1,0.1346998v4.1641002c-1.4199047,0.2558002-2.8437061,0.6093998-4.2646055,1.0819998
			C14.1552944,12.7305002,13.5761948,12.8984003,13,13.0410004V8.7734003c-0.328105,0.0331993-0.663105,0.0527992-1,0.0703993
			v4.4082003c-1.3145056,0.2636003-2.6162052,0.4140005-3.8887053,0.4140005c-0.2245998,0-0.4424-0.0156002-0.6639996-0.0254002
			l-0.1035004,0.6210995L7.2821951,14.6348c0.2753997,0.0136003,0.5488997,0.0312004,0.8290997,0.0312004
			c1.2725,0,2.5741997-0.1504002,3.8887053-0.4140005v4.5565996c-1.3145056,0.2637005-2.6162052,0.4120998-3.8887053,0.4120998
			c-0.5370998,0-1.0614996-0.0352001-1.5799999-0.0839996l-0.1640997,0.9862995
			c0.5713,0.0586014,1.1503997,0.0977001,1.7440996,0.0977001c1.2725,0,2.5741997-0.1483994,3.8887053-0.4120998v5.1113014
			c0.3330002-0.0664005,0.665-0.1289005,1-0.2109013v-5.1112995c0.5761948-0.1445999,1.1552944-0.3106003,1.7353945-0.5039005
			C16.1562939,18.6191006,17.5800953,18.2656002,19,18.0098v5.1112995c0.3339996-0.0585995,0.6669998-0.1054993,1-0.1522999
			v-5.1113987c1.3036938-0.1875,2.6024952-0.3027,3.8886948-0.3027
			C24.3330002,17.5547009,24.7724953,17.5879002,25.2128944,17.6112995z M19,17.0098
			c-1.4199047,0.2558002-2.8437061,0.6093006-4.2646055,1.0839996C14.1552944,18.2870998,13.5761948,18.4531002,13,18.5977001
			v-4.5566998c0.5761948-0.1426001,1.1552944-0.3105001,1.7353945-0.5039005
			c1.4208994-0.4726,2.8447008-0.8261995,4.2646055-1.0819998V17.0098z"/>
		<g>
			<path fill="none" d="M8.1112947,13.6660004c-0.1561999,0-0.3085999-0.0097008-0.4618998-0.0176001l-0.1655002,0.9941998
				c0.2080002,0.0107002,0.4155002,0.0234003,0.6273999,0.0234003c1.2725,0,2.5741997-0.1504002,3.8887053-0.4140005v4.5565996
				c-1.3145056,0.2637005-2.6162052,0.4120998-3.8887053,0.4120998c-0.4686999,0-0.9247999-0.0341988-1.3783998-0.0732002
				l-0.1654997,0.9921017c0.5067997,0.0478992,1.0189996,0.0810986,1.5438995,0.0810986
				c1.2725,0,2.5741997-0.1483994,3.8887053-0.4120998V24v0.7157993c0.3330002-0.0674,0.665-0.1268997,1-0.2118988V24v-4.4022999
				c0.5761948-0.1445999,1.1552944-0.3106003,1.7353945-0.5039005C16.1562939,18.6191006,17.5800953,18.2656002,19,18.0098
				v4.9071999c0.3339996-0.0595989,0.6664944-0.1035004,1-0.1513996v-4.9081993c1.3036938-0.1875,2.6024952-0.3027,3.8886948-0.3027
				c0.3759003,0,0.7479992,0.0263996,1.1205997,0.0478001l-0.1679993-1.0078011
				c-0.3174-0.0175991-0.6332951-0.039999-0.9526005-0.039999c-1.2861996,0-2.585001,0.1152-3.8886948,0.3027v-4.5566006
				C21.3036938,12.1133003,22.6024952,12,23.8886948,12c0.0629997,0,0.1254997,0.0038996,0.1875,0.0078001l-0.1674995-1.0067997
				C23.9018936,11.0010004,23.8954945,11,23.8886948,11C22.6024952,11,21.3036938,11.1133003,20,11.3008003V7.3593998
				c-0.3486061,0.0302-0.6802044,0.0771003-1,0.1377001v3.9580002c-1.4199047,0.2558002-2.8437061,0.6093998-4.2646055,1.0819998
				C14.1552944,12.7305002,13.5761948,12.8984003,13,13.0410004V8.9756002c-0.328105,0.0331993-0.6636047,0.0507994-1,0.0682993
				v4.2081003C10.6854944,13.5156002,9.3837948,13.6660004,8.1112947,13.6660004z"/>
			<path fill="#9BC29C" d="M20,17.8574009v4.9081993c1.303194-0.1855011,2.6024952-0.2998009,3.8886948-0.2998009
				c0.6494007,0,1.299305,0.0244007,1.943306,0.0733013l-0.8227062-4.9365997
				c-0.3726006-0.0214005-0.7446995-0.0478001-1.1205997-0.0478001C22.6024952,17.5547009,21.3036938,17.6699009,20,17.8574009z"/>
			<path fill="#BDDBEE" d="M14.7353945,12.5370998c1.4208994-0.4726,2.8447008-0.8261995,4.2646055-1.0819998V7.4970999
				c-0.5176048,0.0967002-1.0029049,0.2275-1.4399052,0.4023004C16.1640949,8.4580002,14.6327944,8.8105001,13,8.9756002v4.0654001
				C13.5761948,12.8984003,14.1552944,12.7305002,14.7353945,12.5370998z"/>
			<path fill="#F4EEC8" d="M20,12.3008003v4.5566006c1.3036938-0.1875,2.6024952-0.3027,3.8886948-0.3027
				c0.3193054,0,0.6352005,0.0223999,0.9526005,0.039999l-0.7651005-4.5868998C24.0141945,12.0038996,23.9516945,12,23.8886948,12
				C22.6024952,12,21.3036938,12.1133003,20,12.3008003z"/>
			<path fill="#D3EAF9" d="M23.8886948,11c0.0067997,0,0.0131989,0.0010004,0.0200005,0.0010004L23.3212948,7.4775
				c-0.7709999-0.1103001-1.523901-0.1659999-2.2471008-0.1659999c-0.3724995,0-0.7284985,0.0186-1.074194,0.0478997v3.9414005
				C21.3036938,11.1133003,22.6024952,11,23.8886948,11z"/>
			<path fill="#F4EEC8" d="M8.1112947,13.6660004c1.2725,0,2.5741997-0.1504002,3.8887053-0.4140005V9.0438995
				c-0.3564053,0.0176001-0.7085047,0.0450001-1.0742054,0.0450001c-0.8114996,0-1.6469994-0.0458994-2.4937-0.1357994
				L7.649395,13.6484003C7.8026948,13.6562996,7.9550948,13.6660004,8.1112947,13.6660004z"/>
			<path fill="#D3EAF9" d="M12,18.8085995v-4.5565996c-1.3145056,0.2636003-2.6162052,0.4140005-3.8887053,0.4140005
				c-0.2118998,0-0.4193997-0.0127001-0.6273999-0.0234003l-0.7509999,4.504899
				c0.4535999,0.0390015,0.9096999,0.0732002,1.3783998,0.0732002C9.3837948,19.2206993,10.6854944,19.0723,12,18.8085995z"/>
			<path fill="#6DB5E3" d="M12,19.8085995c-1.3145056,0.2637005-2.6162052,0.4120998-3.8887053,0.4120998
				c-0.5249,0-1.0370998-0.0331993-1.5438995-0.0810986l-0.8052001,4.8320999
				c0.7598047,0.1063995,1.5458999,0.160099,2.3490996,0.160099c1.2715006,0,2.5733004-0.1504002,3.8887053-0.4160004V24V19.8085995
				z"/>
			<path fill="#9BC29C" d="M14.7353945,19.0937996C14.1552944,19.2870998,13.5761948,19.4531002,13,19.5977001V24v0.5039005
				c0.5556946-0.1396008,1.1132946-0.3017998,1.671895-0.4883003C16.1132946,23.5342007,17.5585957,23.1748009,19,22.9169998
				V18.0098C17.5800953,18.2656002,16.1562939,18.6191006,14.7353945,19.0937996z"/>
		</g>
	</g>
</g>
</svg>
