<?xml version="1.0" encoding="utf-8"?>
<!-- Generator: Adobe Illustrator 18.1.0, SVG Export Plug-In . SVG Version: 6.00 Build 0)  -->
<svg version="1.1" xmlns="http://www.w3.org/2000/svg" xmlns:xlink="http://www.w3.org/1999/xlink" x="0px" y="0px"
	 viewBox="0 0 32 32" enable-background="new 0 0 32 32" xml:space="preserve">
<g id="Dark_Theme_1_" display="none">
	<rect x="-288" y="-160" display="inline" fill="#333333" width="544" height="736"/>
	
		<rect x="-320" y="-192" display="inline" fill="none" stroke="#808080" stroke-width="0.25" stroke-miterlimit="10" width="612" height="792"/>
</g>
<g id="LightTheme" display="none">
	<rect x="-288" y="-160" display="inline" fill="#F8F8F8" width="544" height="736"/>
	
		<rect x="-320" y="-192" display="inline" fill="none" stroke="#808080" stroke-width="0.25" stroke-miterlimit="10" width="612" height="792"/>
</g>
<g id="Hover" display="none">
	<rect x="-288" y="-160" display="inline" fill="#C5E5F9" width="544" height="736"/>
</g>
<g id="Selected" display="none">
	<rect x="-288" y="-160" display="inline" fill="#AADBFA" width="544" height="736"/>
</g>
<g id="Icon_Name">
</g>
<g id="Icons">
	<g>
		<rect fill-rule="evenodd" clip-rule="evenodd" fill="none" width="32" height="32"/>
		<path fill="#E5D255" d="M31,28c0,0-6-3-15,0S1,28,1,28L5,4c0,0,6,2,11,0s11,0,11,0L31,28z"/>
		<path fill="#6D6E71" d="M8.1112919,27.2334003c-2.1240001,0-3.7920003-0.2392998-4.8652-0.5459003L6.6181917,6.4590001
			c1.1532998,0.2245998,2.6601,0.4296999,4.3076,0.4296999c2.1484003,0,4.1055002-0.3467002,5.817399-1.0313001
			C17.9804916,5.3622999,19.4374924,5.1113,21.074192,5.1113c1.6864986,0,3.1933994,0.2627001,4.1640987,0.4843998
			l3.2558002,19.5370998c-1.244091-0.2606983-2.7968006-0.3661995-4.6054001-0.3661995
			c-2.7959003,0-5.6630993,0.3828011-8.5214996,1.3359013C12.9180002,26.9188995,10.4765921,27.2334003,8.1112919,27.2334003z"/>
		<path fill="#D3EAF9" d="M8.1112919,25.9335995c-1.1698999,0-2.3066001-0.0098-3.3847003-0.2255993L7.6864915,7.9561
			c1.0996003,0.1543002,2.1875081,0.2324004,3.2393003,0.2324004c2.3143997,0,4.4335995-0.3780003,6.2997999-1.1240005
			c1.0830002-0.4335999,2.3768997-0.6533999,3.8486004-0.6533999c0.9755993,0,1.9931984,0.0948,3.0282993,0.2803001
			L26.9130917,23.5527c-0.9862995-0.1229992-2.0020008-0.0858994-3.0244007-0.0858994
			c-2.9384995,0-5.9443989,0.4061985-8.9325991,1.4032993C12.6405916,25.6415997,10.3368921,25.9335995,8.1112919,25.9335995z"/>
		<path fill="#6DB5E3" d="M26.6210918,21.7157993l-0.0986004-0.5936985
			C25.9091911,21.2949009,25.3056908,21.3848,24.7030907,21.3848c-0.6913986,0-1.3837986-0.1161995-2.0576-0.3456993
			c-2.0058994-0.6846008-3.160099-1.9424-4.1024914-3.1026001c-0.3409081-0.4179001-0.7549076-0.9258003-1.045908-1.1504002
			c-0.0820904-0.0039005-0.3300915-0.0048008-0.3456993-0.0048008c-0.8076-0.0088005-2.151392-0.0235004-3.4082003-0.8652992
			c-1.0987005-0.7441006-1.6220999-1.7178001-1.9667997-2.4014006c-1.1690006,0.1709003-3.1983004,1.0323-4.2891002,2.1367998
			c-0.0977001,0.0976-0.195292,0.1767006-0.2978001,0.2490005C6.9384918,16.0888996,6.625,16.1903992,6.3075919,16.2245998
			l-0.1035004,0.6240005c0.4834003-0.0165997,0.9580002-0.1767006,1.3311-0.4580002
			c0.1298084-0.0907993,0.2529001-0.1914005,0.3789001-0.3174c0.834908-0.8457003,2.4150004-1.6064005,3.5371003-1.8828001
			c0.3466997,0.6386995,0.9228077,1.5234995,1.9579992,2.2237005c1.4053001,0.9413986,2.8642006,0.9580002,3.7422009,0.9667988
			c0.0077991,0,0.0566082,0.0009003,0.1152,0.0009003c0.2383003,0.2315006,0.5634995,0.6299,0.8134995,0.9365997
			c0.9902,1.2187004,2.2050991,2.5488014,4.3719997,3.2890015c0.7364006,0.25,1.4932003,0.3769989,2.2509995,0.3769989
			C25.3427906,21.9843998,25.9784908,21.8915997,26.6210918,21.7157993z"/>
		<path fill="#5B945A" d="M25.2382908,5.5956998C24.2675915,5.3740001,22.7606907,5.1113,21.074192,5.1113
			c-1.6366997,0-3.0937004,0.2509999-4.3310013,0.7460999C15.031292,6.5419998,13.074192,6.8887,10.9257917,6.8887
			c-1.6475,0-3.1543002-0.2051001-4.3076-0.4296999l-1.4267998,8.5566006
			c1.0634999-0.5088005,2.1288996-1.0370998,2.2167997-1.0986004c1.4716997-1.0468998,3.4794998-1.8368998,4.6698999-1.8368998
			c0.2421999,0,0.4356003,0.0351,0.5361996,0.0830002c0.0859003,0.0741997,0.2734003,0.4453001,0.3642006,0.6259995
			c0.2958994,0.5869007,0.7011995,1.3924999,1.5439997,1.9647999c0.9071999,0.6074009,1.8983994,0.6191006,2.6298008,0.6279001
			c0.2158985,0.0010004,0.7217083,0.0039005,0.8613987,0.0782003c0.5459003,0.2812004,1.0664005,0.9198999,1.6152,1.5927
			c0.8721085,1.0751991,1.8612995,2.2929993,3.4834003,2.8456993c0.5429993,0.1856003,1.0741997,0.2754002,1.6259995,0.2754002
			c0.5605011,0,1.1240005-0.0966988,1.7207088-0.2967987c0.1503925-0.0499001,0.579092-0.2129002,1.088892-0.4249001
			L25.2382908,5.5956998z"/>
		<path fill="#DDEEDB" d="M26.1425915,18.9286995l-2.0401001-12.237299c-1.0351009-0.1855001-2.0527-0.2803001-3.0282993-0.2803001
			c-1.4717007,0-2.7656002,0.2198-3.8486004,0.6533999C15.3593912,7.8105001,13.2831917,8,10.968792,8
			C9.9169998,8,8.829092,7.9218998,7.7294917,7.7676001L6.8280916,13.1025c1.5908003-1.1317997,3.8008003-2.0223999,5.25-2.0223999
			c0.3985004,0,0.7372999,0.0683002,1.0225,0.2109003c0.3085995,0.1630993,0.4960995,0.5028992,0.7694998,1.0448999
			c0.2743998,0.5450001,0.585,1.1630993,1.2089996,1.5869999c0.6602001,0.4422998,1.4160013,0.4510994,2.0781012,0.4588995
			c0.5478992,0.0030003,0.9941998,0.0186005,1.3144989,0.1894999c0.7275009,0.375,1.3125,1.0898008,1.9335995,1.8515997
			c0.8261013,1.0174999,1.6806011,2.0693016,3.030201,2.5292015c0.4375076,0.1494999,0.8633003,0.2216988,1.3027992,0.2216988
			C25.2235909,19.1737995,25.6894913,19.0800991,26.1425915,18.9286995z"/>
		<path fill-rule="evenodd" clip-rule="evenodd" fill="#E89D48" d="M21.0009995,13.1953001
			c0.0223923-0.4238005,0.4560013-0.7616997,0.9677925-0.7754002c0.5135994-0.0156002,0.9540997,0.3028002,0.982399,0.7265997
			C22.9813919,13.5957003,22.5458908,13.9883003,21.9784908,14C21.4120922,14.0136995,20.9765911,13.6426001,21.0009995,13.1953001z
			"/>
		<path fill-rule="evenodd" clip-rule="evenodd" fill="#E89D48" d="M17.0009995,9.7772999
			c0.0223923-0.4237995,0.4560013-0.7616997,0.9677925-0.7753c0.5135994-0.0156994,0.9540997,0.3027,0.982399,0.7265005
			c0.030201,0.4491997-0.4053001,0.8417997-0.9727001,0.8534994C17.4120922,10.5957003,16.9765911,10.2245998,17.0009995,9.7772999z
			"/>
	</g>
</g>
</svg>
