<?xml version="1.0" encoding="utf-8"?>
<!-- Generator: Adobe Illustrator 18.1.0, SVG Export Plug-In . SVG Version: 6.00 Build 0)  -->
<svg version="1.1" xmlns="http://www.w3.org/2000/svg" xmlns:xlink="http://www.w3.org/1999/xlink" x="0px" y="0px"
	 viewBox="0 0 32 32" enable-background="new 0 0 32 32" xml:space="preserve">
<g id="Dark_Theme_1_" display="none">
	<rect x="-352" y="-160" display="inline" fill="#333333" width="544" height="736"/>
	
		<rect x="-384" y="-192" display="inline" fill="none" stroke="#808080" stroke-width="0.25" stroke-miterlimit="10" width="612" height="792"/>
</g>
<g id="LightTheme" display="none">
	<rect x="-352" y="-160" display="inline" fill="#F8F8F8" width="544" height="736"/>
	
		<rect x="-384" y="-192" display="inline" fill="none" stroke="#808080" stroke-width="0.25" stroke-miterlimit="10" width="612" height="792"/>
</g>
<g id="Hover" display="none">
	<rect x="-352" y="-160" display="inline" fill="#C5E5F9" width="544" height="736"/>
</g>
<g id="Selected" display="none">
	<rect x="-352" y="-160" display="inline" fill="#AADBFA" width="544" height="736"/>
</g>
<g id="Icon_Name">
</g>
<g id="Icons">
	<g>
		<rect fill-rule="evenodd" clip-rule="evenodd" fill="none" width="32" height="32"/>
		<rect x="1" y="1" fill="#6D6E71" width="30" height="30"/>
		<rect x="2" y="2" fill="#D3EAF9" width="28" height="28"/>
		<path fill="#9BC29C" d="M30,30v-9.5391006C29.3681908,20.6348,28.6093903,21,28.401392,21c-0.4190006,0-0.839901,0-1.2598,0
			c-0.6620998,0-1.2939014,0.0918007-1.8125-0.3652c-0.5272999-0.4629002-0.5156002-1.3134995-1.2353001-1.3134995
			c-0.964901,0-1.0411015,1.4794998-2.0059013,1.4794998c-0.4375,0-0.7616997-0.2919998-1.1982994-0.2919998
			C20.503891,20.5088005,20,20.7733994,20,21.1581993c0,0.3340015,0,0.6699009,0,1.0039005
			c0,0.8477001-1.0127087,1.0156002-1.0127087,1.8652c0,0.3456993,0.3682003,0.4747009,0.3682003,0.8223
			c0,1.1562996-1.7842007,1.0020008-1.7842007,2.1602001C17.571291,27.3906002,17,27.6172009,18,27.9824009
			C18,28,18,28.0195007,18,28.0391006C18,28.4706993,17.3817921,29.2460995,17.1669998,30H30z"/>
		<path fill="#9BC29C" d="M12.3671913,29.6191006c0-0.6074009,0.1914005-1.0429001,0.3516006-1.5078011
			c0.1152077-0.3319988,0.2128-0.6796989,0.2128-1.1152c0-1.0937996-2.0888004-0.7870998-2.4170008-1.4413986
			c-0.8133993-1.625,1.3887005-2.0430012,1.3887005-3.3418007c0-0.3223-0.1660004-0.9785004-0.6689005-1.0293007
			c-0.7030993-0.0723-0.8866997,0.3086014-1.5937996,0.3086014c-0.4375,0-0.8739996-0.2832012-0.8739996-0.7188015
			c0-0.7733994,0.6161995-1.1327991,0.6161995-1.9042988c0-0.5018997-0.2051001-0.7851009-0.2051001-1.2851009
			c0-0.6816998,0.5010004-1.2870998,1.1827002-1.2870998c0.6435003,0,0.9257002,0.5272999,1.2342997,1.080101
			c0.2578001,0.4647999,0.7051001,0.6170998,1.2344007,0.6170998c0.9775,0,1.5946999-1.2207012,1.5946999-1.9549999
			c0-0.500001,0.3730993-0.9766006,0.875-0.9766006c0.6933994,0,0.9512081,0.7207003,1.6455002,0.7207003
			c1.1435986,0,1.1015987-1.5137005,2.1083984-2.0586004c1.2344017-0.6680002,0.875-2.1073999,0.7198009-2.8788996
			c-0.0664005-0.3418007,0.5809994-1.0019007,0.9277-0.9785004c1.4393997,0.1035004,0.8223-1.0781002,0.8223-1.6464996
			c0-0.1016006,0.0165997-0.1953001,0.0459003-0.2832003c0.2226086-0.6620998,1.1884003-0.8730001,1.1884003-1.6698999
			c0-0.5664001-0.4637928-0.8242002-0.4637928-1.3887c0-0.8358998,1.2382927-1.5898001,2.5350914-2.2031
			C25.1240005,2.5352001,25.2851906,2.2909999,25.3740005,2H2v28h10.3925915
			C12.3769999,29.8262005,12.3671913,29.6854992,12.3671913,29.6191006z"/>
		<path fill="#F8F8F8" d="M2,2v28h28V2H2z M29,29H3V3h26V29z"/>
	</g>
</g>
</svg>
