<?xml version="1.0" encoding="utf-8"?>
<!-- Generator: Adobe Illustrator 18.1.0, SVG Export Plug-In . SVG Version: 6.00 Build 0)  -->
<svg version="1.1" xmlns="http://www.w3.org/2000/svg" xmlns:xlink="http://www.w3.org/1999/xlink" x="0px" y="0px"
	 viewBox="0 0 16 16" enable-background="new 0 0 16 16" xml:space="preserve">
<g id="Dark_Theme_1_" display="none">
	<rect x="-424" y="-200" display="inline" fill="#333333" width="544" height="736"/>
	
		<rect x="-456" y="-232" display="inline" fill="none" stroke="#808080" stroke-width="0.25" stroke-miterlimit="10" width="612" height="792"/>
</g>
<g id="LightTheme" display="none">
	<rect x="-424" y="-200" display="inline" fill="#F8F8F8" width="544" height="736"/>
	
		<rect x="-456" y="-232" display="inline" fill="none" stroke="#808080" stroke-width="0.25" stroke-miterlimit="10" width="612" height="792"/>
</g>
<g id="Hover" display="none">
	<rect x="-424" y="-200" display="inline" fill="#C5E5F9" width="544" height="736"/>
</g>
<g id="Selected" display="none">
	<rect x="-424" y="-200" display="inline" fill="#AADBFA" width="544" height="736"/>
</g>
<g id="Icon_Name">
</g>
<g id="Icons">
	<g>
		<rect fill="#6D6E71" width="16" height="16"/>
		<rect x="1" y="1" fill="#D3EAF9" width="14" height="14"/>
		<path fill="#57A6D9" d="M15,15v-4.7694998C14.6835909,10.3163996,14.3046913,11,14.2011909,11c-0.21,0-0.4198999,0-0.6308994,0
			c-0.3301001,0-0.6465006-0.2051001-0.9062004-0.4336004c-0.2636995-0.2304993-0.2578001-0.7811995-0.6171999-0.7811995
			c-0.4823999,0-0.5205002,0.6757002-1.0029993,0.6757002c-0.2187004,0-0.3798008-0.1757002-0.5986004-0.1757002
			C10.2519999,10.2852001,10,10.3866997,10,10.5781002c0,0.1680002,0,0.3359995,0,0.5019999
			c0,0.4237995-0.505909,0.5078001-0.505909,0.9335995c0,0.1718006,0.1836004,0.2363005,0.1836004,0.4101009
			c0,0.5800991-0.8924999,0.5019999-0.8924999,1.0800991C8.7851915,13.6953001,9,13.8086004,9,13.9902C9,14,9,14.0098,9,14.0194998
			C9,14.2363005,8.6913919,14.6230001,8.5839996,15H15z"/>
		<path fill="#57A6D9" d="M6.1835914,14.8086004c0-0.3027,0.0957003-0.5215006,0.1758003-0.7539005
			c0.0576081-0.1660004,0.1064-0.3399,0.1064-0.5566998c0-0.5468006-1.0439-0.3924999-1.2080002-0.7207003
			c-0.4071999-0.8125,0.6933999-1.0213995,0.6933999-1.6717997c0-0.1602001-0.0820999-0.4883003-0.3339996-0.5137005
			c-0.3516002-0.0352001-0.4434004,0.1543007-0.7969003,0.1543007c-0.2186999,0-0.4375-0.1426001-0.4375-0.3594007
			c0-0.3866997,0.3085999-0.5663996,0.3085999-0.9530993c0-0.25-0.1025-0.3926001-0.1025-0.6426001
			c0-0.3398008,0.2509003-0.6426001,0.5908003-0.6426001c0.3223081,0,0.4628997,0.2636995,0.6171999,0.5390997
			c0.1289001,0.2334003,0.3534999,0.3095999,0.6171999,0.3095999c0.4892001,0,0.7978001-0.6104002,0.7978001-0.9776001
			c0-0.25,0.1865001-0.4881997,0.4375-0.4881997c0.3466997,0,0.4756083,0.3593001,0.8232999,0.3593001
			c0.5712004,0,0.5507002-0.7558002,1.0536995-1.0293002c0.6172009-0.3319998,0.4375-1.0527,0.3603001-1.4394002
			c-0.0331993-0.1698999,0.2901001-0.5,0.4629002-0.4882998c0.7207003,0.0507998,0.4120998-0.5391002,0.4120998-0.8223
			c0-0.0527,0.0078001-0.0995998,0.0225-0.1424999c0.1113005-0.3321002,0.5946999-0.4375,0.5946999-0.836
			c0-0.2812002-0.2323999-0.4101-0.2323999-0.6933c0-0.418,0.6191006-0.7950001,1.2676001-1.1016001
			c0.1484003-0.0703,0.2285004-0.1934,0.2734003-0.3379H1v14h5.1962914
			C6.1884913,14.9140997,6.1835914,14.8437996,6.1835914,14.8086004z"/>
		<path fill="#F8F8F8" d="M1,1v14h14V1H1z M14,14H2V2h12V14z"/>
		<rect fill-rule="evenodd" clip-rule="evenodd" fill="none" width="16" height="16"/>
	</g>
</g>
</svg>
