<?xml version="1.0" encoding="utf-8"?>
<!-- Generator: Adobe Illustrator 18.1.0, SVG Export Plug-In . SVG Version: 6.00 Build 0)  -->
<svg version="1.1" xmlns="http://www.w3.org/2000/svg" xmlns:xlink="http://www.w3.org/1999/xlink" x="0px" y="0px"
	 viewBox="0 0 16 16" enable-background="new 0 0 16 16" xml:space="preserve">
<g id="Dark_Theme_1_" display="none">
	<rect x="-40" y="-104" display="inline" fill="#333333" width="544" height="736"/>
	
		<rect x="-72" y="-136" display="inline" fill="none" stroke="#808080" stroke-width="0.25" stroke-miterlimit="10" width="612" height="792"/>
</g>
<g id="LightTheme" display="none">
	<rect x="-40" y="-104" display="inline" fill="#F8F8F8" width="544" height="736"/>
	
		<rect x="-72" y="-136" display="inline" fill="none" stroke="#808080" stroke-width="0.25" stroke-miterlimit="10" width="612" height="792"/>
</g>
<g id="Hover" display="none">
	<rect x="-40" y="-104" display="inline" fill="#C5E5F9" width="544" height="736"/>
</g>
<g id="Selected" display="none">
	<rect x="-40" y="-104" display="inline" fill="#AADBFA" width="544" height="736"/>
</g>
<g id="Icon_Name">
</g>
<g id="Icons">
	<g>
		<polygon fill="#68AA67" points="2,0.5 13,3.5 13,15 2,15 		"/>
		<polygon fill="#DDEEDB" points="3,14 3,1.8091 12,4.2637 12,14 		"/>
		<rect fill="none" width="16" height="16"/>
		<rect x="1" fill="#5B945A" width="3" height="3"/>
		<rect x="2" y="1" fill="#9BC29C" width="1" height="1"/>
		<rect x="1" y="13" fill="#5B945A" width="3" height="3"/>
		<rect x="2" y="14" fill="#9BC29C" width="1" height="1"/>
		<rect x="11" y="2" fill="#5B945A" width="3" height="3"/>
		<rect x="12" y="3" fill="#9BC29C" width="1" height="1"/>
		<rect x="11" y="13" fill="#5B945A" width="3" height="3"/>
		<rect x="12" y="14" fill="#9BC29C" width="1" height="1"/>
		
			<rect x="0.9999995" y="6.9999995" fill-rule="evenodd" clip-rule="evenodd" fill="#F8F8F8" width="13.0010004" height="4.0019999"/>
		<path fill="#B88B55" d="M0,6v6h15V6H0z M14,11h-1V8h-1v3h-1V9h-1v2H9V8H8v3H7V9H6v2H5V8H4v3H3V9H2v2H1V7h13V11z"/>
	</g>
</g>
</svg>
