<?xml version="1.0" encoding="utf-8"?>
<!-- Generator: Adobe Illustrator 18.1.0, SVG Export Plug-In . SVG Version: 6.00 Build 0)  -->
<svg version="1.1" xmlns="http://www.w3.org/2000/svg" xmlns:xlink="http://www.w3.org/1999/xlink" x="0px" y="0px"
	 viewBox="0 0 16 16" enable-background="new 0 0 16 16" xml:space="preserve">
<g id="Dark_Theme_1_" display="none">
	<rect x="-104" y="-104" display="inline" fill="#333333" width="544" height="736"/>
	
		<rect x="-136" y="-136" display="inline" fill="none" stroke="#808080" stroke-width="0.25" stroke-miterlimit="10" width="612" height="792"/>
</g>
<g id="LightTheme" display="none">
	<rect x="-104" y="-104" display="inline" fill="#F8F8F8" width="544" height="736"/>
	
		<rect x="-136" y="-136" display="inline" fill="none" stroke="#808080" stroke-width="0.25" stroke-miterlimit="10" width="612" height="792"/>
</g>
<g id="Hover" display="none">
	<rect x="-104" y="-104" display="inline" fill="#C5E5F9" width="544" height="736"/>
</g>
<g id="Selected" display="none">
	<rect x="-104" y="-104" display="inline" fill="#AADBFA" width="544" height="736"/>
</g>
<g id="Icon_Name">
</g>
<g id="Icons">
	<g>
		<rect x="1.0000033" y="10" fill-rule="evenodd" clip-rule="evenodd" fill="#F8F8F8" width="14.0010004" height="4.0019999"/>
		<rect fill="none" width="16" height="16"/>
		<path fill="#B88B55" d="M0,9v6h16V9H0z M15,12h-1v2h-1v-3h-1v3h-1v-2h-1v2H9v-3H8v3H7v-2H6v2H5v-3H4v3H3v-2H2v2H1v-4h14V12z"/>
		<polygon fill="#6D6E71" points="5,1 3.8017964,1 0.8007966,4 0.8007966,4 3.8007965,7 5,7 5,6 4,6 4,5 7,5 7,3 4,3 4,2 5,2 		"/>
		<polygon fill="#6D6E71" points="11,7 12.1981964,7 15.1991959,4 15.1991959,4 12.1991959,1 11,1 11,2 12,2 12,3 9,3 9,5 12,5 
			12,6 11,6 		"/>
	</g>
</g>
</svg>
