<?xml version="1.0" encoding="utf-8"?>
<!-- Generator: Adobe Illustrator 18.1.0, SVG Export Plug-In . SVG Version: 6.00 Build 0)  -->
<svg version="1.1" xmlns="http://www.w3.org/2000/svg" xmlns:xlink="http://www.w3.org/1999/xlink" x="0px" y="0px"
	 viewBox="0 0 32 32" enable-background="new 0 0 32 32" xml:space="preserve">
<g id="Dark_Theme_1_" display="none">
	<rect x="-96" y="-64" display="inline" fill="#333333" width="544" height="736"/>
	
		<rect x="-128" y="-96" display="inline" fill="none" stroke="#808080" stroke-width="0.25" stroke-miterlimit="10" width="612" height="792"/>
</g>
<g id="LightTheme" display="none">
	<rect x="-96" y="-64" display="inline" fill="#F8F8F8" width="544" height="736"/>
	
		<rect x="-128" y="-96" display="inline" fill="none" stroke="#808080" stroke-width="0.25" stroke-miterlimit="10" width="612" height="792"/>
</g>
<g id="Hover" display="none">
	<rect x="-96" y="-64" display="inline" fill="#C5E5F9" width="544" height="736"/>
</g>
<g id="Selected" display="none">
	<rect x="-96" y="-64" display="inline" fill="#AADBFA" width="544" height="736"/>
</g>
<g id="Icon_Name">
</g>
<g id="Icons">
	<g>
		<rect x="1.0000038" y="19.0020008" fill-rule="evenodd" clip-rule="evenodd" fill="#F8F8F8" width="30.0009995" height="8"/>
		<polygon fill-rule="evenodd" clip-rule="evenodd" fill="#6D6E71" points="13,8 5.2948966,8 8.6933966,4.6016002 
			7.4354968,3.3438001 1.7792968,9 7.4354968,14.6582003 8.6933966,13.4004002 5.2948966,10 13,10 		"/>
		<polygon fill-rule="evenodd" clip-rule="evenodd" fill="#6D6E71" points="19,10 26.7050953,10 23.3065968,13.4004002 
			24.564497,14.6582003 30.2206955,9 24.564497,3.3438001 23.3065968,4.6016002 26.7050953,8 19,8 		"/>
		<rect fill="none" width="32" height="32"/>
		<path fill="#B88B55" d="M0,18v10h32V18H0z M31,24h-1v3h-1v-4h-1v4h-1v-3h-1v3h-1v-7h-1v7h-1v-3h-1v3h-1v-4h-1v4h-1v-3h-1v3h-1v-7
			h-1v7h-1v-3h-1v3h-1v-4h-1v4h-1v-3h-1v3H9v-7H8v7H7v-3H6v3H5v-4H4v4H3v-3H2v3H1v-8h30V24z"/>
	</g>
</g>
</svg>
