<?xml version="1.0" encoding="utf-8"?>
<!-- Generator: Adobe Illustrator 18.1.0, SVG Export Plug-In . SVG Version: 6.00 Build 0)  -->
<svg version="1.1" xmlns="http://www.w3.org/2000/svg" xmlns:xlink="http://www.w3.org/1999/xlink" x="0px" y="0px"
	 viewBox="0 0 16 16" enable-background="new 0 0 16 16" xml:space="preserve">
<g id="Dark_Theme_1_" display="none">
	<rect x="-488" y="-296" display="inline" fill="#333333" width="544" height="736"/>
	
		<rect x="-520" y="-328" display="inline" fill="none" stroke="#808080" stroke-width="0.25" stroke-miterlimit="10" width="612" height="792"/>
</g>
<g id="LightTheme" display="none">
	<rect x="-488" y="-296" display="inline" fill="#F8F8F8" width="544" height="736"/>
	
		<rect x="-520" y="-328" display="inline" fill="none" stroke="#808080" stroke-width="0.25" stroke-miterlimit="10" width="612" height="792"/>
</g>
<g id="Hover" display="none">
	<rect x="-488" y="-296" display="inline" fill="#C5E5F9" width="544" height="736"/>
</g>
<g id="Selected" display="none">
	<rect x="-488" y="-296" display="inline" fill="#AADBFA" width="544" height="736"/>
</g>
<g id="Icon_Name">
</g>
<g id="Icons">
	<path fill="#B88B55" d="M8.5145884,0c0,0-0.0107002,0.0088-0.0145884,0.0117C8.496088,0.0088,8.4853878,0,8.4853878,0
		S5.0644884,2.9677999,2,2.0039001v0.8583999C2.1084001,5.3281002,2,12,8.5,15C15,12,14.8915997,5.3281002,15,2.8622999V2.0039001
		C11.9354877,2.9677999,8.5145884,0,8.5145884,0z"/>
	<path fill="#F4EEC8" d="M8.5,13.8877001C3.3046999,11.2216997,3.1103885,5.8564,3.0156,3.2432001l-0.0019116-0.0537
		C3.1064,3.1942999,3.2002001,3.1963,3.2948999,3.1963C5.4677882,3.1963,7.5009999,1.9668,8.5,1.251
		C9.4989996,1.9668,11.5321884,3.1963,13.7051001,3.1963c0.0946999,0,0.1885004-0.0020001,0.2812004-0.0067999l-0.0019007,0.0537
		C13.8895884,5.8564,13.6953001,11.2216997,8.5,13.8877001z"/>
	<rect fill="none" width="16" height="16"/>
	<path fill="#E5D255" d="M9,2.7627001v9.6631002c3.2665997-2.21,3.8026886-5.7764001,3.943388-8.2714996
		C11.4258003,3.9902,10.0370884,3.3652,9,2.7627001z"/>
	<path fill="#F8F8F8" d="M6.7792883,7.1152C6.9189,6.7705002,7,6.3944998,7,6c0-1.6543002-1.3457117-3-3-3
		C3.2450883,3,2.5624883,3.2890999,2.0351601,3.7509999C2.15625,6.6630998,2.6640601,12.3065996,8.5,15
		c0.1103878-0.0508003,0.2040997-0.1113005,0.3104887-0.1640997C8.9296999,14.5811005,9,14.2988005,9,14v-4
		C9,8.6171999,8.0546999,7.4619002,6.7792883,7.1152z"/>
	<path fill="#5B945A" d="M6,8H2C0.89453,8,0,8.8964996,0,10v4c0,0.5527,0.44727,1,1,1h1c0,0.5527,0.4472699,1,1,1h2
		c0.5526881,0,1-0.4473,1-1h1c0.5526881,0,1-0.4473,1-1v-4C8,8.8964996,7.1034999,8,6,8z"/>
	<circle fill="#5B945A" cx="4" cy="6" r="2"/>
	<circle fill="#DDEEDB" cx="4" cy="6" r="1"/>
	<path fill="#DDEEDB" d="M6,9H2c-0.55273,0-1,0.4473-1,1v1v1v2h2v1h2v-1h2v-2v-1v-1C7,9.4473,6.5526881,9,6,9z"/>
	<rect x="5" y="11" fill="#9BC29C" width="1" height="3"/>
	<rect x="2" y="11" fill="#9BC29C" width="1" height="3"/>
	<path fill="#F8F8F8" d="M14.5557003,7.2284999C14.0801001,7.0819998,13.5546999,7,13,7c-2.2432003,0-4,1.3163996-4,3v0.4042997
		c-0.1475,0.0625-0.2891121,0.1309004-0.4238119,0.2070007c-0.0019884,0.0019999-0.0049,0.0019999-0.0078001,0.0038996
		c-0.0019999,0-0.0029993,0.0038996-0.0058994,0.0038996C7.6132998,11.1640997,7,12.0136995,7,13v1
		c0,0.3437996,0.0897884,0.6669998,0.2260885,0.9727001C7.4453001,14.9180002,7.6322999,14.7870998,7.77,14.6142998
		C8.0087881,14.7451,8.2401886,14.8799,8.5,15C12.4520884,13.1758003,13.9551001,9.9970999,14.5557003,7.2284999z"/>
	<path fill="#6D6E71" d="M8,13v1c0,1.1055002,1.3437996,2,3,2c1.6562996,0,3-0.8944998,3-2v-1H8z"/>
	<ellipse fill="#CCCCCC" cx="11" cy="13" rx="3" ry="2"/>
	<path fill="#F8F8F8" d="M11,11c-0.7421999,0-1.4131117,0.1855001-1.9375114,0.4843998C9.3651886,12.9258003,10.9785004,14,13,14
		c0.3486004,0,0.6796999-0.0430002,1-0.1015997V13C14,11.8944998,12.6562996,11,11,11z"/>
	<path fill="#6D6E71" d="M10,10v1c0,1.1055002,1.3437996,2,3,2c1.6562996,0,3-0.8944998,3-2v-1H10z"/>
	<ellipse fill="#CCCCCC" cx="13" cy="10" rx="3" ry="2"/>
</g>
</svg>
