<?xml version="1.0" encoding="utf-8"?>
<!-- Generator: Adobe Illustrator 18.1.0, SVG Export Plug-In . SVG Version: 6.00 Build 0)  -->
<svg version="1.1" xmlns="http://www.w3.org/2000/svg" xmlns:xlink="http://www.w3.org/1999/xlink" x="0px" y="0px"
	 viewBox="0 0 32 32" enable-background="new 0 0 32 32" xml:space="preserve">
<g id="Dark_Theme_1_" display="none">
	<rect x="-416" y="-256" display="inline" fill="#333333" width="544" height="736"/>
	
		<rect x="-448" y="-288" display="inline" fill="none" stroke="#808080" stroke-width="0.25" stroke-miterlimit="10" width="612" height="792"/>
</g>
<g id="LightTheme" display="none">
	<rect x="-416" y="-256" display="inline" fill="#F8F8F8" width="544" height="736"/>
	
		<rect x="-448" y="-288" display="inline" fill="none" stroke="#808080" stroke-width="0.25" stroke-miterlimit="10" width="612" height="792"/>
</g>
<g id="Hover" display="none">
	<rect x="-416" y="-256" display="inline" fill="#C5E5F9" width="544" height="736"/>
</g>
<g id="Selected" display="none">
	<rect x="-416" y="-256" display="inline" fill="#AADBFA" width="544" height="736"/>
</g>
<g id="Icon_Name">
</g>
<g id="Icons">
	<path fill="#A67A47" d="M16.5302887,0.5967c0,0-0.0219879,0.0185-0.0302887,0.0244
		c-0.0083008-0.0059-0.0303116-0.0244-0.0303116-0.0244S9.3647499,6.7607002,3,4.7588v1.7831998
		c0.2250886,5.1211004,0,18.9775009,13.5,25.2089996C30,25.5195007,29.7753887,11.6631002,30,6.5419998V4.7588
		C23.6347885,6.7607002,16.5302887,0.5967,16.5302887,0.5967z"/>
	<path fill="#F4EEC8" d="M16.5,30.6445007C4.66748,24.9160004,4.2397499,13.0888996,4.0327101,7.3710999l-0.03369-0.8730998
		L3.99951,6.0225c0.5488298,0.0907998,1.1137698,0.1367002,1.6899397,0.1367002
		c4.7500386,0,9.2031498-3.0625002,10.8105507-4.3018003c1.6074009,1.2393,6.0604877,4.3018003,10.8104877,4.3018003
		c0.5762119,0,1.1406994-0.0459003,1.6895123-0.1367002v0.5194998l-0.0332127,0.8291001
		C28.7597885,13.0888996,28.3320007,24.9160004,16.5,30.6445007z"/>
	<rect fill="none" width="32" height="32"/>
	<path fill="#E5D255" d="M17,4.0527v24.6191998c9.6728878-5.4023991,10.246088-15.3399,10.4561005-21.0137005
		c-0.048912,0.0010004-0.0967007,0.0010004-0.1456127,0.0010004C23.1542873,7.6592002,19.2998009,5.5907998,17,4.0527z"/>
	<path fill-rule="evenodd" clip-rule="evenodd" fill="#F8F8F8" d="M3.0947299,8.9160004
		C3.35059,14.2002001,4.3681598,23.1611004,12,29.0459003V29c1.6542883,0,3-1.3456993,3-3v-7c0-2.2061005-1.7944002-4-4-4
		h-0.0254116C11.6089001,14.1620998,12,13.1299,12,12c0-2.7567997-2.2431602-5-5-5
		C5.4121099,7,4.0117202,7.7578001,3.0947299,8.9160004z"/>
	<circle fill="#5B945A" cx="7" cy="12" r="4"/>
	<circle fill="#DDEEDB" cx="7" cy="12" r="3"/>
	<path fill-rule="evenodd" clip-rule="evenodd" fill="#5B945A" d="M11,16H3c-1.65625,0-3,1.3437996-3,3v7
		c0,1.1054993,0.895508,2,2,2h1v3c0,0.5527,0.4472699,1,1,1h6c0.5526886,0,1-0.4473,1-1v-3h1c1.1044998,0,2-0.8945007,2-2v-7
		C14,17.3437996,12.6562996,16,11,16z"/>
	<path fill-rule="evenodd" clip-rule="evenodd" fill="#DDEEDB" d="M11,17H3c-1.10449,0-2,0.8964996-2,2v7c0,0.5527,0.44727,1,1,1h2
		v4h6v-4h2c0.5526886,0,1-0.4473,1-1v-7C13,17.8964996,12.1044998,17,11,17z"/>
	<rect x="3" y="20" fill-rule="evenodd" clip-rule="evenodd" fill="#9BC29C" width="1" height="7"/>
	<rect x="10" y="20" fill-rule="evenodd" clip-rule="evenodd" fill="#9BC29C" width="1" height="7"/>
</g>
</svg>
