<?xml version="1.0" encoding="utf-8"?>
<!-- Generator: Adobe Illustrator 18.1.0, SVG Export Plug-In . SVG Version: 6.00 Build 0)  -->
<svg version="1.1" xmlns="http://www.w3.org/2000/svg" xmlns:xlink="http://www.w3.org/1999/xlink" x="0px" y="0px"
	 viewBox="0 0 16 16" enable-background="new 0 0 16 16" xml:space="preserve">
<g id="Dark_Theme_1_" display="none">
	<rect x="-40" y="-296" display="inline" fill="#333333" width="544" height="736"/>
	
		<rect x="-72" y="-328" display="inline" fill="none" stroke="#808080" stroke-width="0.25" stroke-miterlimit="10" width="612" height="792"/>
</g>
<g id="LightTheme" display="none">
	<rect x="-40" y="-296" display="inline" fill="#F8F8F8" width="544" height="736"/>
	
		<rect x="-72" y="-328" display="inline" fill="none" stroke="#808080" stroke-width="0.25" stroke-miterlimit="10" width="612" height="792"/>
</g>
<g id="Hover" display="none">
	<rect x="-40" y="-296" display="inline" fill="#C5E5F9" width="544" height="736"/>
</g>
<g id="Selected" display="none">
	<rect x="-40" y="-296" display="inline" fill="#AADBFA" width="544" height="736"/>
</g>
<g id="Icon_Name">
</g>
<g id="Icons">
	<g>
		<rect fill-rule="evenodd" clip-rule="evenodd" fill="none" width="16" height="16"/>
		<path fill="#E5D255" d="M16,14.4004002c0,0-3.2002068-1.6015997-8,0c-4.7998066,1.5995998-8,0-8,0L2.1327932,1.5996
			c0,0,3.2012069,1.0663999,5.8672066,0s5.8671932,0,5.8671932,0L16,14.4004002z"/>
		<polygon fill="#6D6E71" points="12,8 10,8 9,10 9,16 13,16 13,10 		"/>
		<polygon fill="#6D6E71" points="7,5 5,5 4,7 4,16 8,16 8,7 		"/>
		<polygon fill="#E0E0E0" points="5,7 5.5,6 6.5,6 7,7 		"/>
		<rect x="5" y="8" fill="#E0E0E0" width="2" height="7"/>
		<rect x="5" y="8" fill="#F8F8F8" width="1" height="7"/>
		<rect x="10" y="11" fill="#E0E0E0" width="2" height="4"/>
		<rect x="10" y="11" fill="#F8F8F8" width="1" height="4"/>
		<polygon fill="#E0E0E0" points="10,10 10.5,9 11.5,9 12,10 		"/>
	</g>
</g>
</svg>
