<?xml version="1.0" encoding="utf-8"?>
<!-- Generator: Adobe Illustrator 18.1.0, SVG Export Plug-In . SVG Version: 6.00 Build 0)  -->
<svg version="1.1" xmlns="http://www.w3.org/2000/svg" xmlns:xlink="http://www.w3.org/1999/xlink" x="0px" y="0px"
	 viewBox="0 0 32 32" enable-background="new 0 0 32 32" xml:space="preserve">
<g id="Dark_Theme_1_" display="none">
	<rect x="-96" y="-256" display="inline" fill="#333333" width="544" height="736"/>
	
		<rect x="-128" y="-288" display="inline" fill="none" stroke="#808080" stroke-width="0.25" stroke-miterlimit="10" width="612" height="792"/>
</g>
<g id="LightTheme" display="none">
	<rect x="-96" y="-256" display="inline" fill="#F8F8F8" width="544" height="736"/>
	
		<rect x="-128" y="-288" display="inline" fill="none" stroke="#808080" stroke-width="0.25" stroke-miterlimit="10" width="612" height="792"/>
</g>
<g id="Hover" display="none">
	<rect x="-96" y="-256" display="inline" fill="#C5E5F9" width="544" height="736"/>
</g>
<g id="Selected" display="none">
	<rect x="-96" y="-256" display="inline" fill="#AADBFA" width="544" height="736"/>
</g>
<g id="Icon_Name">
</g>
<g id="Icons">
	<g>
		<rect fill-rule="evenodd" clip-rule="evenodd" fill="none" width="32" height="32"/>
		<path fill="#E5D255" d="M31,28c0,0-6-3-15,0S1,28,1,28L5,4c0,0,6,2,11,0s11,0,11,0L31,28z"/>
		<path fill="#F8F8F8" d="M26.7070007,24.2929993l-4-4C22.5156002,20.1016006,22.2602997,20,22,20
			c-0.1289005,0-0.2588005,0.0244007-0.3827991,0.0762005C21.2437,20.2304993,21,20.5956993,21,21v2h-3
			c-0.1860008,0-0.3505993,0.0645008-0.5,0.1532993C17.3505993,23.0645008,17.1860008,23,17,23h-2
			c-0.2061005,0-0.3872004,0.0771008-0.5464001,0.1846008C14.3158998,23.1133003,14.1660004,23.0625,14,23.0625h-2
			c-0.1859999,0-0.3506002,0.0645008-0.5,0.1532993C11.3506002,23.1270008,11.1859999,23.0625,11,23.0625H9
			c-0.1859999,0-0.3506002,0.0645008-0.5,0.1532993C8.3506002,23.1270008,8.1859999,23.0625,8,23.0625H6c-0.5521998,0-1,0.4473-1,1
			V26c0,0.5527,0.4478002,1,1,1h2c0.1859999,0,0.3506002-0.0645008,0.5-0.1532993C8.6493998,26.9354992,8.8140001,27,9,27h2
			c0.1859999,0,0.3506002-0.0645008,0.5-0.1532993C11.6493998,26.9354992,11.8140001,27,12,27h2
			c0.1859999,0,0.3506002-0.0645008,0.5-0.1532993C14.6493998,26.9354992,14.8140001,27,15,27h2
			c0.1865005,0,0.3511009-0.0645008,0.5009995-0.1532993C17.6499004,26.9346008,17.8139992,26.9990005,18,26.9990005h2.0562
			c2.1410999-0.3535004,4.0340996-0.3866997,5.6142006-0.2558002l1.0366001-1.0361996
			C27.0977001,25.3164005,27.0977001,24.6835995,26.7070007,24.2929993z"/>
		<path fill="#F4EEC8" d="M16,4c-2.3573999,0.9433999-4.9315996,0.9921999-7,0.7860999v11.6182003
			c0,0.2616997,0.1035004,0.5136986,0.2870998,0.7011986l5.5,5.5957012C14.9745998,22.8915997,15.2323999,23,15.5,23
			s0.5254002-0.1084003,0.7129002-0.2987995l5.5-5.5957012C21.8964996,16.9179993,22,16.6660004,22,16.4043007V4.125
			c0-0.3436999-0.0508003-0.6738-0.1387005-0.9940999C20.0293007,3.0527,17.9414005,3.2227001,16,4z"/>
		<path fill="#C7552E" d="M21,4.125c0-2.3319998-3.0321999-4.125-5.5-4.125s-5.5,1.793-5.5,4.125v12.2793007L15.5,22l5.5-5.5956993
			V4.125z"/>
		<path fill="#E5A894" d="M11,15.8417997V4.125c0-1.4169998,2.6991997-3.125,4.5-3.125S20,2.7080002,20,4.125v11.7167997
			l-4.5,4.1953001L11,15.8417997z"/>
		<path fill="#C96B4B" d="M16,2.418v15.6845007l3-2.6709013V4.125C19,3.5801001,17.3516006,2.6230001,16,2.418z"/>
		<circle fill="#F8F8F8" cx="15.5" cy="6.4989929" r="2.5"/>
		<polygon fill="#57A6D9" points="26,25 22,21 22,24 18,24 18,25.9990005 22,25.9990005 22,29 		"/>
		<rect x="15" y="24" fill="#57A6D9" width="2" height="2"/>
		<rect x="12" y="24.0625" fill="#57A6D9" width="2" height="1.9375"/>
		<rect x="9" y="24.0625" fill="#57A6D9" width="2" height="1.9375"/>
		<rect x="6" y="24.0625" fill="#57A6D9" width="2" height="1.9375"/>
	</g>
</g>
</svg>
