<?xml version="1.0" encoding="utf-8"?>
<!-- Generator: Adobe Illustrator 18.1.0, SVG Export Plug-In . SVG Version: 6.00 Build 0)  -->
<svg version="1.1" xmlns="http://www.w3.org/2000/svg" xmlns:xlink="http://www.w3.org/1999/xlink" x="0px" y="0px"
	 viewBox="0 0 16 16" enable-background="new 0 0 16 16" xml:space="preserve">
<g id="Dark_Theme_1_" display="none">
	<rect x="-104" y="-296" display="inline" fill="#333333" width="544" height="736"/>
	
		<rect x="-136" y="-328" display="inline" fill="none" stroke="#808080" stroke-width="0.25" stroke-miterlimit="10" width="612" height="792"/>
</g>
<g id="LightTheme" display="none">
	<rect x="-104" y="-296" display="inline" fill="#F8F8F8" width="544" height="736"/>
	
		<rect x="-136" y="-328" display="inline" fill="none" stroke="#808080" stroke-width="0.25" stroke-miterlimit="10" width="612" height="792"/>
</g>
<g id="Hover" display="none">
	<rect x="-104" y="-296" display="inline" fill="#C5E5F9" width="544" height="736"/>
</g>
<g id="Selected" display="none">
	<rect x="-104" y="-296" display="inline" fill="#AADBFA" width="544" height="736"/>
</g>
<g id="Icon_Name">
</g>
<g id="Icons">
	<g>
		<rect fill-rule="evenodd" clip-rule="evenodd" fill="none" width="16" height="16"/>
		<path fill="#E5D255" d="M16,14.4004002c0,0-3.2002001-1.6015997-8,0c-4.7997999,1.5995998-8,0-8,0L2.1328001,1.5996001
			c0,0,3.2012,1.0664001,5.8671999,0s5.8671999,0,5.8671999,0L16,14.4004002z"/>
		<path fill="#F8F8F8" d="M15.4375,11.0234003l-2.7305002-2.7304001C12.5156002,8.1015997,12.2602997,8,12,8
			c-0.1288996,0-0.2587996,0.0243998-0.3828001,0.0762005C11.2437,8.2305002,11,8.5957003,11,9v1h-1
			c-0.1859999,0-0.3506002,0.0644999-0.5,0.1533003C9.3506002,10.0644999,9.1859999,10,9,10H7
			c-0.1859999,0-0.3505998,0.0644999-0.5,0.1533003C6.3505998,10.0644999,6.1859999,10,6,10H4
			c-0.1860001,0-0.3506,0.0644999-0.5,0.1533003C3.3506,10.0644999,3.1860001,10,3,10H1
			c-0.0981,0-0.1865,0.0292997-0.2764,0.0557003l-0.5732,3.4404001C0.3242,13.7919998,0.6323,14,1,14h2
			c0.1860001,0,0.3506-0.0644999,0.5-0.1533003C3.6494,13.9355001,3.8139999,14,4,14h2
			c0.1859999,0,0.3505998-0.0644999,0.5-0.1533003C6.6494002,13.9355001,6.8140001,14,7,14h2
			c0.1864996,0,0.3511-0.0644999,0.5010004-0.1533003c0.0658998,0.0390005,0.1362,0.0703001,0.2089996,0.0967007
			c2.0395002-0.4102001,3.6821003-0.2539005,4.7792997-0.0186005l1.2177-1.2178001
			c0.0039005-0.0038996,0.0049-0.0087996,0.0088005-0.0127001L15.4375,11.0234003z"/>
		<path fill="#F8F8F8" d="M12,2.9990001c0-0.6747999-0.165-1.29-0.4355001-1.8358999
			c-1.0732994-0.0908-2.3710995-0.041-3.5644999,0.4365C6.6904001,2.1230001,5.2529001,2.1309001,4.1279001,2.0049
			C4.0527,2.3223,4,2.6514001,4,2.9990001V7c0,0.2646003,0.1055002,0.5195003,0.2930002,0.7070003l3,2.9999995
			C7.4882998,10.9022999,7.7441001,11,8,11c0.2559004,0,0.5116997-0.0977001,0.7069998-0.2930002l3-2.9999995
			C11.8944998,7.5195003,12,7.2646003,12,7V2.9990001z"/>
		<path fill="#C7552E" d="M11,2.9990001C11,1.3047,9.7948999,0.0000001,8,0.0000001S5,1.3047,5,2.9990001V7l3,3l3-3
			C11,7,11,3.0020001,11,2.9990001z"/>
		<path fill="#E5A894" d="M6,6.5859003V2.9990001c0-1.1963,0.8037-1.999,2-1.999s2,0.8026999,2,1.999v3.5869002l-2,2L6,6.5859003z"
			/>
		<path fill="#C96B4B" d="M8,2v5.1719003l1-1V2.9990001C9,2.3545001,8.6444998,2,8,2z"/>
		<circle fill="#F8F8F8" cx="8" cy="3" r="1.25"/>
		<circle fill="#F8F8F8" cx="8" cy="3" r="1.25"/>
		<polygon fill="#57A6D9" points="15,12 12,9 12,11 10,11 10,12.9990005 12,12.9990005 12,15 		"/>
		<rect x="7" y="11" fill="#57A6D9" width="2" height="2"/>
		<rect x="4" y="11" fill="#57A6D9" width="2" height="2"/>
		<rect x="1" y="11" fill="#57A6D9" width="2" height="2"/>
	</g>
</g>
</svg>
