<?xml version="1.0" encoding="utf-8"?>
<!-- Generator: Adobe Illustrator 18.1.0, SVG Export Plug-In . SVG Version: 6.00 Build 0)  -->
<svg version="1.1" xmlns="http://www.w3.org/2000/svg" xmlns:xlink="http://www.w3.org/1999/xlink" x="0px" y="0px"
	 viewBox="0 0 16 16" enable-background="new 0 0 16 16" xml:space="preserve">
<g id="Dark_Theme_1_" display="none">
	<rect x="-168" y="-296" display="inline" fill="#333333" width="544" height="736"/>
	
		<rect x="-200" y="-328" display="inline" fill="none" stroke="#808080" stroke-width="0.25" stroke-miterlimit="10" width="612" height="792"/>
</g>
<g id="LightTheme" display="none">
	<rect x="-168" y="-296" display="inline" fill="#F8F8F8" width="544" height="736"/>
	
		<rect x="-200" y="-328" display="inline" fill="none" stroke="#808080" stroke-width="0.25" stroke-miterlimit="10" width="612" height="792"/>
</g>
<g id="Hover" display="none">
	<rect x="-168" y="-296" display="inline" fill="#C5E5F9" width="544" height="736"/>
</g>
<g id="Selected" display="none">
	<rect x="-168" y="-296" display="inline" fill="#AADBFA" width="544" height="736"/>
</g>
<g id="Icon_Name">
</g>
<g id="Icons">
	<rect fill-rule="evenodd" clip-rule="evenodd" fill="none" width="16" height="16"/>
	<path fill="#E5D255" d="M16,14.4004002c0,0-3.2002001-1.6015997-8,0c-4.7997999,1.5995998-8,0-8,0L2.1328001,1.5996
		c0,0,3.2012,1.0663999,5.8671999,0s5.8671999,0,5.8671999,0L16,14.4004002z"/>
	<g>
		<rect x="4" y="4" fill="#6D6E71" width="8" height="7"/>
		<rect x="5" y="5" fill="#F8F8F8" width="6" height="5"/>
		<rect x="5" y="5" fill="#6DB5E3" width="6" height="1"/>
		<rect x="5" y="8" fill="#808284" width="6" height="1"/>
		<rect x="5" y="6" fill="#808284" width="6" height="1"/>
		<rect x="6" y="6.997993" fill="#808284" width="1" height="3.0020001"/>
		<rect x="9" y="6.997993" fill="#808284" width="1" height="3.0020001"/>
	</g>
</g>
</svg>
