<?xml version="1.0" encoding="utf-8"?>
<!-- Generator: Adobe Illustrator 18.1.0, SVG Export Plug-In . SVG Version: 6.00 Build 0)  -->
<svg version="1.1" xmlns="http://www.w3.org/2000/svg" xmlns:xlink="http://www.w3.org/1999/xlink" x="0px" y="0px"
	 viewBox="0 0 32 32" enable-background="new 0 0 32 32" xml:space="preserve">
<g id="Dark_Theme_1_" display="none">
	<rect x="-224" y="-256" display="inline" fill="#333333" width="544" height="736"/>
	
		<rect x="-256" y="-288" display="inline" fill="none" stroke="#808080" stroke-width="0.25" stroke-miterlimit="10" width="612" height="792"/>
</g>
<g id="LightTheme" display="none">
	<rect x="-224" y="-256" display="inline" fill="#F8F8F8" width="544" height="736"/>
	
		<rect x="-256" y="-288" display="inline" fill="none" stroke="#808080" stroke-width="0.25" stroke-miterlimit="10" width="612" height="792"/>
</g>
<g id="Hover" display="none">
	<rect x="-224" y="-256" display="inline" fill="#C5E5F9" width="544" height="736"/>
</g>
<g id="Selected" display="none">
	<rect x="-224" y="-256" display="inline" fill="#AADBFA" width="544" height="736"/>
</g>
<g id="Icon_Name">
</g>
<g id="Icons">
	<g>
		<rect fill-rule="evenodd" clip-rule="evenodd" fill="none" width="32" height="32"/>
		<polygon fill="#6D6E71" points="28,31 4,31 4,1 21.2997894,1 28,7.6992202 		"/>
		<polygon fill="#F8F8F8" points="27,7.9902301 21.0097904,2 5,2 5,30 27,30 		"/>
		<rect x="20" y="1" fill="#6D6E71" width="1" height="8"/>
		<rect x="20" y="8" fill="#6D6E71" width="8" height="1"/>
		<rect y="10" fill="#7C6DA8" width="19" height="16"/>
		<rect x="1" y="11" fill="#F8F8F8" width="17" height="14"/>
		<rect x="11" y="17" fill="#7C6DA8" width="5" height="1"/>
		<rect x="8" y="21" fill="#7C6DA8" width="8" height="1"/>
		<rect x="2" y="12" fill="#7C6DA8" width="15" height="2"/>
		<g>
			
				<rect x="3.4517393" y="18.1782436" transform="matrix(0.7071468 -0.7070668 0.7070668 0.7071468 -12.8946543 8.7176466)" fill="#68AA67" width="1.2498112" height="3.4940975"/>
			
				<rect x="3.4300601" y="18.1260414" transform="matrix(0.7071068 -0.7071068 0.7071068 0.7071068 -11.2561493 10.3271446)" fill="#68AA67" width="6.815661" height="1.2498112"/>
			<rect x="2" y="15" fill="none" width="8" height="8"/>
		</g>
	</g>
</g>
</svg>
