<?xml version="1.0" encoding="utf-8"?>
<!-- Generator: Adobe Illustrator 18.1.0, SVG Export Plug-In . SVG Version: 6.00 Build 0)  -->
<svg version="1.1" xmlns="http://www.w3.org/2000/svg" xmlns:xlink="http://www.w3.org/1999/xlink" x="0px" y="0px"
	 viewBox="0 0 16 16" enable-background="new 0 0 16 16" xml:space="preserve">
<g id="Dark_Theme_1_" display="none">
	<rect x="-232" y="-296" display="inline" fill="#333333" width="544" height="736"/>
	
		<rect x="-264" y="-328" display="inline" fill="none" stroke="#808080" stroke-width="0.25" stroke-miterlimit="10" width="612" height="792"/>
</g>
<g id="LightTheme" display="none">
	<rect x="-232" y="-296" display="inline" fill="#F8F8F8" width="544" height="736"/>
	
		<rect x="-264" y="-328" display="inline" fill="none" stroke="#808080" stroke-width="0.25" stroke-miterlimit="10" width="612" height="792"/>
</g>
<g id="Hover" display="none">
	<rect x="-232" y="-296" display="inline" fill="#C5E5F9" width="544" height="736"/>
</g>
<g id="Selected" display="none">
	<rect x="-232" y="-296" display="inline" fill="#AADBFA" width="544" height="736"/>
</g>
<g id="Icon_Name">
</g>
<g id="Icons">
	<rect fill-rule="evenodd" clip-rule="evenodd" fill="none" width="16" height="16"/>
	<polygon fill="#6D6E71" points="15,16 2,16 2,0 11.4003897,0 15,3.5996001 	"/>
	<polygon fill="#F8F8F8" points="11.3104897,1 3,1 3,15 14,15 14,3.6895001 	"/>
	<rect x="10" fill="#6D6E71" width="1" height="5"/>
	<rect x="10" y="4" fill="#6D6E71" width="5" height="1"/>
	<polygon fill="#7C6DA8" points="9,6 9,4 0,4 0,13 11,13 11,6 	"/>
	<rect x="1" y="5" fill="#F8F8F8" width="9" height="7"/>
	<rect x="7" y="8" fill="#7C6DA8" width="2" height="1"/>
	<rect x="6" y="10" fill="#7C6DA8" width="3" height="1"/>
	<rect x="2" y="6" fill="#7C6DA8" width="7" height="1"/>
	<polygon fill="#68AA67" points="3.5,10.9951 6,8.4951 6,8 5.3983898,8 3.4990001,9.9004002 2.5995901,9 2,9 2,9.4951 	"/>
</g>
</svg>
