<?xml version="1.0" encoding="utf-8"?>
<!-- Generator: Adobe Illustrator 18.1.0, SVG Export Plug-In . SVG Version: 6.00 Build 0)  -->
<svg version="1.1" xmlns="http://www.w3.org/2000/svg" xmlns:xlink="http://www.w3.org/1999/xlink" x="0px" y="0px"
	 viewBox="0 0 32 32" enable-background="new 0 0 32 32" xml:space="preserve">
<g id="Dark_Theme_1_" display="none">
	<rect x="-480" y="-160" display="inline" fill="#333333" width="544" height="736"/>
	
		<rect x="-512" y="-192" display="inline" fill="none" stroke="#808080" stroke-width="0.25" stroke-miterlimit="10" width="612" height="792"/>
</g>
<g id="LightTheme" display="none">
	<rect x="-480" y="-160" display="inline" fill="#F8F8F8" width="544" height="736"/>
	
		<rect x="-512" y="-192" display="inline" fill="none" stroke="#808080" stroke-width="0.25" stroke-miterlimit="10" width="612" height="792"/>
</g>
<g id="Hover" display="none">
	<rect x="-480" y="-160" display="inline" fill="#C5E5F9" width="544" height="736"/>
</g>
<g id="Selected" display="none">
	<rect x="-480" y="-160" display="inline" fill="#AADBFA" width="544" height="736"/>
</g>
<g id="Icon_Name">
</g>
<g id="Icons">
	<g>
		<rect fill-rule="evenodd" clip-rule="evenodd" fill="none" width="32" height="32"/>
		<path fill="#E5D255" d="M31,28c0,0-6-3-15,0S1,28,1,28L5,4c0,0,6,2,11,0s11,0,11,0L31,28z"/>
		<rect x="16" y="8" fill="#6D6E71" width="9" height="9"/>
		<rect x="8" y="16" fill="#6D6E71" width="9" height="9"/>
		<rect x="16" y="16" fill="#6D6E71" width="9" height="9"/>
		<rect x="17" y="9" fill="#D3EAF9" width="7" height="7"/>
		<rect x="9" y="17" fill="#D3EAF9" width="7" height="7"/>
		<rect x="17" y="17" fill="#9BC29C" width="7" height="7"/>
		<path fill="#9BC29C" d="M14.2910004,20.7616997c0,0.4120998,0.375,0.6582012,0.375,1.0528011c0,0.0204983,0,0.0409985,0,0.0614986
			c0,0.4696999-0.6699038,1.3076-0.9023037,2.1240005H16v-4.8652
			C15.4325962,19.6767998,14.2910004,19.8183994,14.2910004,20.7616997z"/>
		<rect x="8" y="8" fill="#F4EEC8" width="8" height="8"/>
		<rect x="6" y="6" fill="#6D6E71" width="9" height="9"/>
		<rect x="7" y="7" fill="#D3EAF9" width="7" height="7"/>
		<path fill="#9BC29C" d="M7,12.6553001c0.0214968,0.0018997,0.0409999,0.0067997,0.0634966,0.0067997
			c1.0595036,0,1.7265034-1.3223,1.7265034-2.1190996c0-0.5430002,0.4062967-1.0576,0.9482965-1.0576
			c0.7518997,0,1.0312004,0.7821999,1.7832003,0.7821999c1.2382994,0,1.1932993-1.6406002,2.2851-2.2314997
			C13.8817968,7.9951,13.9335966,7.9433999,14,7.8975V7H7V12.6553001z"/>
	</g>
</g>
</svg>
