<?xml version="1.0" encoding="utf-8"?>
<!-- Generator: Adobe Illustrator 18.1.0, SVG Export Plug-In . SVG Version: 6.00 Build 0)  -->
<svg version="1.1" xmlns="http://www.w3.org/2000/svg" xmlns:xlink="http://www.w3.org/1999/xlink" x="0px" y="0px"
	 viewBox="0 0 16 16" enable-background="new 0 0 16 16" xml:space="preserve">
<g id="Dark_Theme_1_" display="none">
	<rect x="-296" y="-296" display="inline" fill="#333333" width="544" height="736"/>
	
		<rect x="-328" y="-328" display="inline" fill="none" stroke="#808080" stroke-width="0.25" stroke-miterlimit="10" width="612" height="792"/>
</g>
<g id="LightTheme" display="none">
	<rect x="-296" y="-296" display="inline" fill="#F8F8F8" width="544" height="736"/>
	
		<rect x="-328" y="-328" display="inline" fill="none" stroke="#808080" stroke-width="0.25" stroke-miterlimit="10" width="612" height="792"/>
</g>
<g id="Hover" display="none">
	<rect x="-296" y="-296" display="inline" fill="#C5E5F9" width="544" height="736"/>
</g>
<g id="Selected" display="none">
	<rect x="-296" y="-296" display="inline" fill="#AADBFA" width="544" height="736"/>
</g>
<g id="Icon_Name">
</g>
<g id="Icons">
	<g>
		<path fill="#6D6E71" d="M7.0321641,3.9784999c0,0-0.6689-0.6503999-0.6963-1.0351
			C6.3075643,2.5566001,6.1513643,2.0039001,6.1513643,2.0039001s0.7490001-0.7363,1.8573999-0.9941001
			C9.0438643,0.7676,10.1767645,0.7285,10.1767645,0.7285l-0.1504002-0.166c0,0-2.1368003-0.5215-3.8106003-0.207
			C4.5438643,0.6699,3.6688643,1.3047,3.2841642,1.6406c-0.2119,0.1875-0.6328001,0.7227001-0.6045001,0.9844
			c0.0166001,0.1503999,0.0146,0.4902-0.2119,0.6991999c-0.2275999,0.2110002-0.6894799,0.5332-0.6894799,0.5332
			s-0.56836-0.2147999-0.83301-0.0995998c-0.26465,0.1151998-0.87402,0.6444998-0.87402,0.6444998
			s-0.11231,0.4102001-0.05469,0.5508003c0.0586,0.1406999,0.23828,0.4863997,0.38867,0.7031999
			c0.15039,0.2167001,0.5742199,0.7128,0.76368,0.8045998c0.18945,0.0918002,0.30957,0.0704002,0.4541,0.0606003
			s0.51265-0.2793002,0.51265-0.2793002s0.5372-0.6191998,0.7539001-0.9745998
			c0.2158999-0.3534999,0.6445999-0.7442002,1.0302999-0.7715001c0.3857999-0.0292997,1.7403002,0.5977001,1.7403002,0.5977001
			s-0.1153002-0.0899,0.5946999-0.6406999C6.8163643,4.0176001,7.0321641,3.9784999,7.0321641,3.9784999z"/>
		<rect x="-0.0000305" fill="none" width="16" height="16"/>
		<g>
			<path fill="#A7A9AC" d="M2.2694643,12.5781002l7.7734995-6.6679001c0.1533003-0.1817002,0.4160004-0.5107999,0.4677-0.6905003
				c0.0733004-0.2557998,0.0068998-0.7880998,0.0068998-0.8427c0,0,0.2656002,0.2441001,0.6191006,0.5791001
				c0.3301001-0.1806998,0.7480993-0.1357999,1.0274,0.1434999c0.2772999,0.2774,0.3241997,0.6934004,0.1473999,1.0225
				c0.4033003,0.4306002,0.6747999,0.7744002,0.5127001,0.7811999c-0.4375,0.0186-0.625-0.0674-0.8622999-0.0546999
				C11.7636642,6.8593998,11.5077639,7.0713,11.413064,7.1553001l-6.7353997,7.8310003
				c-0.664,0.6650991-1.7422001,0.6650991-2.4072001,0C1.6054342,14.3212996,1.6054342,13.2432003,2.2694643,12.5781002z"/>
			<circle fill="#F8F8F8" cx="3.5903015" cy="13.6670074" r="0.6763831"/>
			<path fill="#6D6E71" d="M10.970664,5.9071999c0.9277,1.2129002,2.5762005,1.5157003,3.6758003,0.6739001
				c0.6864996-0.5244999,1.2305002-1.5372,1.3525-2.5156999c0.0039005-0.0273004-0.0029001-0.0508003-0.0194998-0.0722001
				c-0.0068007-0.0098-0.0176001-0.0196002-0.0303001-0.0254002C15.9120646,3.9463,15.8681641,3.9521,15.8349638,3.9775
				l-2.1054993,1.6104002c-0.0830002,0.0634999-0.1934004,0.0664001-0.2725,0.0067997l-0.9872999-0.7235999
				c-0.0195007-0.0137-0.0322008-0.0264001-0.0448999-0.0419998C12.4120646,4.8125,12.4042645,4.7958999,12.3964643,4.7793002
				l-0.4716997-1.1855001c-0.0371008-0.0928001-0.0059004-0.2012,0.0771999-0.2647002l2.1054001-1.6102999
				C14.140564,1.6934,14.1571646,1.6494,14.1454639,1.6113c-0.0018997-0.0136-0.0067997-0.0254-0.0156002-0.0371
				C14.1132641,1.5547,14.0917645,1.54,14.0644646,1.5371c-0.9756002-0.1395999-2.0938005,0.1201-2.7832003,0.6465
				C10.1815643,3.0244,10.0419645,4.6943002,10.970664,5.9071999L10.970664,5.9071999z"/>
		</g>
		<path fill="#F8F8F8" d="M8.7226639,10.2832003l2.6357002-3.0635004C10.8925638,6.75,10.4374638,6.2968998,10.0438643,5.9092002
			L10.042964,5.9102001L7.158164,8.3848C7.8612642,9.2158003,8.3974638,9.8671999,8.7226639,10.2832003z"/>
		<path fill="#D3B490" d="M15.9062643,13.6113005c-0.1524-0.2070007-2.1465006-2.4648008-3.0606003-3.4297009
			C11.9042645,9.1875,10.3212643,7.5819998,9.2938643,6.5742002C8.850564,6.1387,8.3046646,5.5272999,7.831964,4.9805002
			C7.7401643,5.0137,7.5116644,5.1210999,7.0897641,5.4492002c-0.4677,0.3613-0.5839,0.5274-0.6073999,0.6015997
			C7.6835642,7.4473,9.4726639,9.5527,9.8651638,10.1444998c0.6006002,0.9082003,2.7832003,3.5410004,3.0762005,3.9296999
			c0.3477001,0.4610004,0.7011995,0.9746008,1.0995998,1.1073999c0.3319998,0.1114006,0.6113005,0.0391006,1.1620998-0.4452991
			C16.140564,13.9082003,16.0565643,13.8184004,15.9062643,13.6113005z"/>
	</g>
</g>
</svg>
