<?xml version="1.0" encoding="utf-8"?>
<!-- Generator: Adobe Illustrator 18.1.0, SVG Export Plug-In . SVG Version: 6.00 Build 0)  -->
<svg version="1.1" xmlns="http://www.w3.org/2000/svg" xmlns:xlink="http://www.w3.org/1999/xlink" x="0px" y="0px"
	 viewBox="0 0 32 32" enable-background="new 0 0 32 32" xml:space="preserve">
<g id="Dark_Theme_1_" display="none">
	<rect x="-288" y="-256" display="inline" fill="#333333" width="544" height="736"/>
	
		<rect x="-320" y="-288" display="inline" fill="none" stroke="#808080" stroke-width="0.25" stroke-miterlimit="10" width="612" height="792"/>
</g>
<g id="LightTheme" display="none">
	<rect x="-288" y="-256" display="inline" fill="#F8F8F8" width="544" height="736"/>
	
		<rect x="-320" y="-288" display="inline" fill="none" stroke="#808080" stroke-width="0.25" stroke-miterlimit="10" width="612" height="792"/>
</g>
<g id="Hover" display="none">
	<rect x="-288" y="-256" display="inline" fill="#C5E5F9" width="544" height="736"/>
</g>
<g id="Selected" display="none">
	<rect x="-288" y="-256" display="inline" fill="#AADBFA" width="544" height="736"/>
</g>
<g id="Icon_Name">
</g>
<g id="Icons">
	<g>
		<g>
			<path fill="#A7A9AC" d="M4.5391226,25.1571999l15.5478392-13.3359003
				c0.3057003-0.3632994,0.8311005-1.0224991,0.9346008-1.3817997c0.1445007-0.5107899,0.0137005-1.5762196,0.012701-1.6846199
				c0,0,0.5321999,0.4873104,1.2391987,1.1572304c0.6592007-0.36133,1.4960995-0.2705107,2.0547009,0.2870893
				c0.5546989,0.5546999,0.6464996,1.3877001,0.294899,2.0448999c0.8077011,0.8614006,1.3487015,1.5489006,1.0254002,1.5635004
				c-0.875,0.0370998-1.25-0.1357002-1.7245998-0.1093998c-0.3964996,0.0205994-0.9092007,0.4443998-1.097599,0.6122999
				L9.3555326,29.9736004c-1.3281298,1.3290997-3.4853501,1.3290997-4.8144498,0
				C3.2100227,28.6436005,3.2110026,26.4862995,4.5391226,25.1571999z"/>
			<circle fill="#F8F8F8" cx="7.1802368" cy="27.3344574" r="1.3520696"/>
			<path fill="#6D6E71" d="M21.9414635,11.8154001c1.8554993,2.4247999,5.1523991,3.0303001,7.3515987,1.3477001
				c1.3730011-1.0497999,2.4609013-3.0742006,2.7049999-5.0312605c0.0079002-0.0546894-0.0067997-0.10254-0.0389996-0.1445398
				c-0.0146999-0.0204997-0.0352001-0.0390601-0.0615005-0.0517497c-0.0723-0.0420003-0.1611996-0.03125-0.2276001,0.0195298
				l-4.2108994,3.2207203c-0.1651001,0.1279001-0.3866997,0.1337996-0.5459003,0.0145998l-1.9736004-1.4472399
				c-0.0390987-0.0273399-0.0664997-0.05371-0.0898991-0.08496c-0.0254002-0.0332003-0.0410004-0.0654306-0.0566006-0.09863
				l-0.9433994-2.3710904c-0.0741997-0.1855497-0.0116997-0.4023499,0.1523991-0.5302801L28.2148628,3.4375
				c0.0664997-0.0507801,0.099699-0.1377001,0.0762005-0.21387C28.2871628,3.1953101,28.2764626,3.17188,28.2598629,3.14941
				c-0.0331993-0.0390601-0.0771999-0.0683601-0.1299-0.0751901C26.177763,2.7959001,23.9404621,3.31445,22.5615635,4.3681598
				C20.3633633,6.04883,20.0840626,9.3896503,21.9414635,11.8154001L21.9414635,11.8154001z"/>
		</g>
		<path fill="#6D6E71" d="M13.6533623,7.5898399c0,0-0.9375-0.9023399-0.9921999-1.6718698
			c-0.0555992-0.7714901-0.3690996-1.8808603-0.3690996-1.8808603S13.7900629,2.56445,16.0078621,2.04883
			C18.0781631,1.56836,20.3438625,1.49023,20.3438625,1.49023l-0.3008003-0.33398c0,0-4.2743998-1.042969-7.6210995-0.414062
			C9.0762329,1.36914,7.3272128,2.64063,6.5576825,3.31445C6.1338525,3.68555,5.2910829,4.7597699,5.3486929,5.2793002
			c0.0341797,0.3046799,0.0292997,0.9804697-0.4248004,1.4003897c-0.4540997,0.41992-1.3769498,1.0683603-1.3769498,1.0683603
			S2.5352228,7.6289101,2.0049427,7.85742c-0.53027,0.23242-1.748044,1.2890596-1.748044,1.2890596
			s-0.349609,0.5097704-0.233398,0.7929707c0.117187,0.28125,0.475585,0.96875,0.77539,1.4043493
			c0.300782,0.4335003,0.9628919,1.2675009,1.3408221,1.4531002c0.3788998,0.1836004,0.6191399,0.1426001,0.9081998,0.1211004
			c0.2890601-0.0215006,1.0244203-0.5586004,1.0244203-0.5586004s1.0742097-1.2382994,1.5078096-1.9491997
			c0.43262-0.7090302,1.2910104-1.4883204,2.0615201-1.5449705c0.7714901-0.0546799,3.2665997,0.9570408,3.2665997,0.9570408
			S10.6797628,9.63867,12.0986624,8.5390596C13.2227631,7.6660199,13.6533623,7.5898399,13.6533623,7.5898399z"/>
		<rect x="0.000061" fill="none" width="32" height="32"/>
		<path fill="#F8F8F8" d="M15.0557623,16.1366997c1.3232012,1.5683994,2.3573999,2.8213005,3.0351,3.6797009l3.9512005-4.5937004
			c-0.964901-0.9727001-1.9160004-1.9218998-2.7383003-2.7294998L15.0557623,16.1366997z"/>
		<path fill="#D3B490" d="M31.6836624,27.0781002c-0.3017998-0.4139996-4.174799-4.7539005-6.0019989-6.6835995
			c-1.8828011-1.9882011-5.0507011-5.1972008-7.1054001-7.2148008c-1.2686005-1.2441998-2.9727011-3.2265701-4.0235004-4.4765701
			c-0.2109003,0.0859299-0.6464005,0.3125-1.3964005,0.8925705c-1.4189997,1.1015997-1.1905003,1.2831993-1.1905003,1.2831993
			s-0.0527-0.0214996-0.1376991-0.0546999c2.1738997,2.5156002,6.9657993,8.1016006,7.8915997,9.4981003
			c1.2012005,1.8143997,5.5664005,7.0799999,6.1543007,7.8574009c0.6952991,0.9237995,1.6924,2.2811985,2.4902992,2.5487995
			c0.6639996,0.2206993,1.1718006,0.2265987,2.2313995-0.7889996
			C32.5146637,28.0977001,31.9854622,27.4922009,31.6836624,27.0781002z"/>
	</g>
</g>
</svg>
