<?xml version="1.0" encoding="utf-8"?>
<!-- Generator: Adobe Illustrator 18.1.0, SVG Export Plug-In . SVG Version: 6.00 Build 0)  -->
<svg version="1.1" xmlns="http://www.w3.org/2000/svg" xmlns:xlink="http://www.w3.org/1999/xlink" x="0px" y="0px"
	 viewBox="0 0 16 16" enable-background="new 0 0 16 16" xml:space="preserve">
<g id="Dark_Theme_1_" display="none">
	<rect x="-360" y="-296" display="inline" fill="#333333" width="544" height="736"/>
	
		<rect x="-392" y="-328" display="inline" fill="none" stroke="#808080" stroke-width="0.25" stroke-miterlimit="10" width="612" height="792"/>
</g>
<g id="LightTheme" display="none">
	<rect x="-360" y="-296" display="inline" fill="#F8F8F8" width="544" height="736"/>
	
		<rect x="-392" y="-328" display="inline" fill="none" stroke="#808080" stroke-width="0.25" stroke-miterlimit="10" width="612" height="792"/>
</g>
<g id="Hover" display="none">
	<rect x="-360" y="-296" display="inline" fill="#C5E5F9" width="544" height="736"/>
</g>
<g id="Selected" display="none">
	<rect x="-360" y="-296" display="inline" fill="#AADBFA" width="544" height="736"/>
</g>
<g id="Icon_Name">
</g>
<g id="Icons">
	<g>
		<rect fill-rule="evenodd" clip-rule="evenodd" fill="none" width="16" height="16"/>
		<polygon fill="#5B945A" points="0,16 16,16 13.5,9 2.5,9 		"/>
		<polygon fill="#9BC29C" points="1.4188901,15 3.20509,10 12.7948895,10 14.58109,15 		"/>
		<polygon fill="#6D6E71" points="7,0 4,0 3,3 3,14 8,14 8,3 		"/>
		<polygon fill="#E0E0E0" points="4,3 4.7206898,1 6.2792897,1 7,3 		"/>
		<rect x="4" y="4" fill="#E0E0E0" width="3" height="9"/>
		<rect x="4" y="4" fill="#F8F8F8" width="1" height="9"/>
		<polygon fill="#6D6E71" points="13,3 10,3 9,6 9,14 14,14 14,6 		"/>
		<polygon fill="#E0E0E0" points="10,6 10.7206898,4 12.2792902,4 13,6 		"/>
		<rect x="10" y="7" fill="#E0E0E0" width="3" height="6"/>
		<rect x="10" y="7" fill="#F8F8F8" width="1" height="6"/>
		<rect x="11" y="1" fill="#6D6E71" width="1" height="4"/>
	</g>
</g>
</svg>
