<?xml version="1.0" encoding="utf-8"?>
<!-- Generator: Adobe Illustrator 18.1.0, SVG Export Plug-In . SVG Version: 6.00 Build 0)  -->
<svg version="1.1" xmlns="http://www.w3.org/2000/svg" xmlns:xlink="http://www.w3.org/1999/xlink" x="0px" y="0px"
	 viewBox="0 0 32 32" enable-background="new 0 0 32 32" xml:space="preserve">
<g id="Dark_Theme_1_" display="none">
	<rect x="-352" y="-256" display="inline" fill="#333333" width="544" height="736"/>
	
		<rect x="-384" y="-288" display="inline" fill="none" stroke="#808080" stroke-width="0.25" stroke-miterlimit="10" width="612" height="792"/>
</g>
<g id="LightTheme" display="none">
	<rect x="-352" y="-256" display="inline" fill="#F8F8F8" width="544" height="736"/>
	
		<rect x="-384" y="-288" display="inline" fill="none" stroke="#808080" stroke-width="0.25" stroke-miterlimit="10" width="612" height="792"/>
</g>
<g id="Hover" display="none">
	<rect x="-352" y="-256" display="inline" fill="#C5E5F9" width="544" height="736"/>
</g>
<g id="Selected" display="none">
	<rect x="-352" y="-256" display="inline" fill="#AADBFA" width="544" height="736"/>
</g>
<g id="Icon_Name">
</g>
<g id="Icons">
	<rect fill-rule="evenodd" clip-rule="evenodd" fill="none" width="32" height="32"/>
	<polygon fill="#5B945A" points="0,32 32,32 26.9990005,18 5.0009999,18 	"/>
	<polygon fill="#9BC29C" points="1.4188902,31 5.70609,19 26.29389,19 30.581089,31 	"/>
	<polygon fill="#6D6E71" points="14,0 7,0 6.0009766,4 6.0009766,30 15,30 15,4 	"/>
	<polygon fill="#F8F8F8" points="7,4 7.7812901,1 13.2187901,1 14,4 	"/>
	<rect x="7" y="5" fill="#E0E0E0" width="7" height="24"/>
	<polygon fill="#6D6E71" points="25.9619141,10 24.9619141,6 17.9619141,6 16.9628906,10 17.0009766,10 17.0009766,27 26,27 26,10 	
		"/>
	<polygon fill="#F8F8F8" points="17.9618893,10 18.7431908,7 24.1806889,7 24.9618893,10 	"/>
	<rect x="18" y="11" fill="#E0E0E0" width="7" height="15"/>
	<g>
		<g>
			<rect x="19" y="12" fill="#CCCCCC" width="1" height="1"/>
			<rect x="21" y="12" fill="#CCCCCC" width="1" height="1"/>
			<rect x="23" y="12" fill="#CCCCCC" width="1" height="1"/>
		</g>
		<g>
			<rect x="19" y="14" fill="#CCCCCC" width="1" height="1"/>
			<rect x="21" y="14" fill="#CCCCCC" width="1" height="1"/>
			<rect x="23" y="14" fill="#CCCCCC" width="1" height="1"/>
		</g>
		<g>
			<rect x="19" y="16" fill="#CCCCCC" width="1" height="1"/>
			<rect x="21" y="16" fill="#CCCCCC" width="1" height="1"/>
			<rect x="23" y="16" fill="#CCCCCC" width="1" height="1"/>
		</g>
		<g>
			<rect x="19" y="18" fill="#CCCCCC" width="1" height="1"/>
			<rect x="21" y="18" fill="#CCCCCC" width="1" height="1"/>
			<rect x="23" y="18" fill="#CCCCCC" width="1" height="1"/>
		</g>
		<g>
			<rect x="19" y="20" fill="#CCCCCC" width="1" height="1"/>
			<rect x="21" y="20" fill="#CCCCCC" width="1" height="1"/>
			<rect x="23" y="20" fill="#CCCCCC" width="1" height="1"/>
		</g>
		<g>
			<rect x="19" y="22" fill="#CCCCCC" width="1" height="1"/>
			<rect x="21" y="22" fill="#CCCCCC" width="1" height="1"/>
			<rect x="23" y="22" fill="#CCCCCC" width="1" height="1"/>
		</g>
		<g>
			<rect x="19" y="24" fill="#CCCCCC" width="1" height="1"/>
			<rect x="21" y="24" fill="#CCCCCC" width="1" height="1"/>
			<rect x="23" y="24" fill="#CCCCCC" width="1" height="1"/>
		</g>
	</g>
	<g>
		<g>
			<rect x="8" y="7" fill="#CCCCCC" width="1" height="1"/>
			<rect x="10" y="7" fill="#CCCCCC" width="1" height="1"/>
			<rect x="12" y="7" fill="#CCCCCC" width="1" height="1"/>
		</g>
		<g>
			<rect x="8" y="9" fill="#CCCCCC" width="1" height="1"/>
			<rect x="10" y="9" fill="#CCCCCC" width="1" height="1"/>
			<rect x="12" y="9" fill="#CCCCCC" width="1" height="1"/>
		</g>
		<g>
			<rect x="8" y="11" fill="#CCCCCC" width="1" height="1"/>
			<rect x="10" y="11" fill="#CCCCCC" width="1" height="1"/>
			<rect x="12" y="11" fill="#CCCCCC" width="1" height="1"/>
		</g>
		<g>
			<rect x="8" y="13" fill="#CCCCCC" width="1" height="1"/>
			<rect x="10" y="13" fill="#CCCCCC" width="1" height="1"/>
			<rect x="12" y="13" fill="#CCCCCC" width="1" height="1"/>
		</g>
		<g>
			<rect x="8" y="15" fill="#CCCCCC" width="1" height="1"/>
			<rect x="10" y="15" fill="#CCCCCC" width="1" height="1"/>
			<rect x="12" y="15" fill="#CCCCCC" width="1" height="1"/>
		</g>
		<g>
			<rect x="8" y="17" fill="#CCCCCC" width="1" height="1"/>
			<rect x="10" y="17" fill="#CCCCCC" width="1" height="1"/>
			<rect x="12" y="17" fill="#CCCCCC" width="1" height="1"/>
		</g>
		<g>
			<rect x="8" y="19" fill="#CCCCCC" width="1" height="1"/>
			<rect x="10" y="19" fill="#CCCCCC" width="1" height="1"/>
			<rect x="12" y="19" fill="#CCCCCC" width="1" height="1"/>
		</g>
		<g>
			<rect x="8" y="21" fill="#CCCCCC" width="1" height="1"/>
			<rect x="10" y="21" fill="#CCCCCC" width="1" height="1"/>
			<rect x="12" y="21" fill="#CCCCCC" width="1" height="1"/>
		</g>
		<g>
			<rect x="8" y="23" fill="#CCCCCC" width="1" height="1"/>
			<rect x="10" y="23" fill="#CCCCCC" width="1" height="1"/>
			<rect x="12" y="23" fill="#CCCCCC" width="1" height="1"/>
		</g>
		<g>
			<rect x="8" y="25" fill="#CCCCCC" width="1" height="1"/>
			<rect x="10" y="25" fill="#CCCCCC" width="1" height="1"/>
			<rect x="12" y="25" fill="#CCCCCC" width="1" height="1"/>
		</g>
		<g>
			<rect x="8" y="27" fill="#CCCCCC" width="1" height="1"/>
			<rect x="10" y="27" fill="#CCCCCC" width="1" height="1"/>
			<rect x="12" y="27" fill="#CCCCCC" width="1" height="1"/>
		</g>
	</g>
	<rect x="7" y="5" fill="#F8F8F8" width="1" height="24"/>
	<rect x="18" y="11" fill="#F8F8F8" width="1" height="15"/>
	<rect x="21" y="3" fill="#6D6E71" width="1" height="5"/>
</g>
</svg>
