<?xml version="1.0" standalone="no"?><!DOCTYPE svg PUBLIC "-//W3C//DTD SVG 1.1//EN" "http://www.w3.org/Graphics/SVG/1.1/DTD/svg11.dtd"><svg t="1659337172312" class="icon" viewBox="0 0 1024 1024" version="1.1" xmlns="http://www.w3.org/2000/svg" p-id="1841" xmlns:xlink="http://www.w3.org/1999/xlink" width="128" height="128"><defs><style type="text/css">@font-face { font-family: feedback-iconfont; src: url("//at.alicdn.com/t/font_1031158_u69w8yhxdu.woff2?t=1630033759944") format("woff2"), url("//at.alicdn.com/t/font_1031158_u69w8yhxdu.woff?t=1630033759944") format("woff"), url("//at.alicdn.com/t/font_1031158_u69w8yhxdu.ttf?t=1630033759944") format("truetype"); }
</style></defs><path d="M128.085333 426.538667a85.333333 85.290667 90 1 0 170.581334 0 85.333333 85.290667 90 1 0-170.581334 0Z" fill="#FFE97C" p-id="1842"></path><path d="M469.248 426.538667a42.709333 42.666667 0 1 0 85.418667 0 42.709333 42.666667 0 1 0-85.418667 0Z" fill="#FFE97C" p-id="1843"></path><path d="M725.290667 426.538667a85.333333 85.290667 90 1 0 170.581333 0 85.333333 85.290667 90 1 0-170.581333 0Z" fill="#FFE97C" p-id="1844"></path><path d="M211.328 639.872m-42.666667 0a42.666667 42.666667 0 1 0 85.333334 0 42.666667 42.666667 0 1 0-85.333334 0Z" fill="#FFE97C" p-id="1845"></path><path d="M509.909333 639.872m-85.333333 0a85.333333 85.333333 0 1 0 170.666667 0 85.333333 85.333333 0 1 0-170.666667 0Z" fill="#FFE97C" p-id="1846"></path><path d="M808.533333 639.872m-42.666666 0a42.666667 42.666667 0 1 0 85.333333 0 42.666667 42.666667 0 1 0-85.333333 0Z" fill="#FFE97C" p-id="1847"></path><path d="M211.328 213.205333m-42.666667 0a42.666667 42.666667 0 1 0 85.333334 0 42.666667 42.666667 0 1 0-85.333334 0Z" fill="#FFE97C" p-id="1848"></path><path d="M509.909333 213.205333m-85.333333 0a85.333333 85.333333 0 1 0 170.666667 0 85.333333 85.333333 0 1 0-170.666667 0Z" fill="#FFE97C" p-id="1849"></path><path d="M808.533333 213.205333m-42.666666 0a42.666667 42.666667 0 1 0 85.333333 0 42.666667 42.666667 0 1 0-85.333333 0Z" fill="#FFE97C" p-id="1850"></path><path d="M896 789.333333a21.333333 21.333333 0 0 0-21.333333-21.333333h-725.333334a21.333333 21.333333 0 0 0 0 42.666667h725.333334a21.333333 21.333333 0 0 0 21.333333-21.333334z" fill="#8ECDFF" p-id="1851"></path><path d="M875.776 768.042667l1.066667 0.085333 1.066666 0.128 1.066667 0.170667 1.024 0.256 1.024 0.256 0.981333 0.341333 0.981334 0.384 0.938666 0.426667 0.896 0.469333 0.896 0.512 0.853334 0.554667 0.853333 0.597333 0.810667 0.64 0.768 0.682667 0.725333 0.725333 0.725333 0.725333 0.682667 0.768 0.64 0.810667 0.597333 0.853333 0.554667 0.853334 0.512 0.896 0.469333 0.896 0.426667 0.938666 0.384 0.981334 0.341333 0.981333 0.256 1.024 0.256 1.024 0.170667 1.066667 0.128 1.066666 0.085333 1.066667 0.042667 1.109333-0.042667 1.109334-0.085333 1.066666-0.128 1.066667-0.170667 1.066667-0.256 1.024-0.256 1.024-0.341333 0.981333-0.384 0.981333-0.426667 0.938667-0.469333 0.896-0.512 0.896-0.554667 0.853333-0.597333 0.853334-0.64 0.810666-0.682667 0.768-0.725333 0.725334-0.725333 0.725333-0.768 0.682667-0.810667 0.64-0.853333 0.597333-0.853334 0.554667-0.896 0.512-0.896 0.469333-0.938666 0.426667-0.981334 0.384-0.981333 0.341333-1.024 0.256-1.024 0.256-1.066667 0.170667-1.066666 0.128-1.066667 0.085333L874.666667 810.666667h-725.333334l-1.109333-0.042667-1.066667-0.085333-1.066666-0.128-1.066667-0.170667-1.024-0.256-1.024-0.256-0.981333-0.341333-0.981334-0.384-0.938666-0.426667-0.896-0.469333-0.896-0.512-0.853334-0.554667-0.853333-0.597333-0.810667-0.64-0.768-0.682667-0.725333-0.725333-0.725333-0.725334-0.682667-0.768-0.64-0.810666-0.597333-0.853334-0.554667-0.853333-0.512-0.896-0.469333-0.896-0.426667-0.938667-0.384-0.981333-0.341333-0.981333-0.256-1.024-0.256-1.024-0.170667-1.066667-0.128-1.066667-0.085333-1.066666L128 789.333333l0.042667-1.109333 0.085333-1.066667 0.128-1.066666 0.170667-1.066667 0.256-1.024 0.256-1.024 0.341333-0.981333 0.384-0.981334 0.426667-0.938666 0.469333-0.896 0.512-0.896 0.554667-0.853334 0.597333-0.853333 0.64-0.810667 0.682667-0.768 0.725333-0.725333 0.725333-0.725333 0.768-0.682667 0.810667-0.64 0.853333-0.597333 0.853334-0.554667 0.896-0.512 0.896-0.469333 0.938666-0.426667 0.981334-0.384 0.981333-0.341333 1.024-0.256 1.024-0.256 1.066667-0.170667 1.066666-0.128 1.066667-0.085333L149.333333 768h725.333334l1.109333 0.042667z" fill="#FFB28E" p-id="1852"></path><path d="M853.333333 874.666667a21.333333 21.333333 0 0 0-21.333333-21.333334h-42.666667a21.333333 21.333333 0 0 0 0 42.666667h42.666667a21.333333 21.333333 0 0 0 21.333333-21.333333z" fill="#8ECDFF" p-id="1853"></path><path d="M833.109333 853.376l1.066667 0.085333 1.066667 0.128 1.066666 0.170667 1.024 0.256 1.024 0.256 0.981334 0.341333 0.981333 0.384 0.938667 0.426667 0.896 0.469333 0.896 0.512 0.853333 0.554667 0.853333 0.597333 0.810667 0.64 0.768 0.682667 0.725333 0.725333 0.725334 0.725334 0.682666 0.768 0.64 0.810666 0.597334 0.853334 0.554666 0.853333 0.512 0.896 0.469334 0.896 0.426666 0.938667 0.384 0.981333 0.341334 0.981333 0.256 1.024 0.256 1.024 0.170666 1.066667 0.128 1.066667 0.085334 1.066666 0.042666 1.109334-0.042666 1.109333-0.085334 1.066667-0.128 1.066666-0.170666 1.066667-0.256 1.024-0.256 1.024-0.341334 0.981333-0.384 0.981334-0.426666 0.938666-0.469334 0.896-0.512 0.896-0.554666 0.853334-0.597334 0.853333-0.64 0.810667-0.682666 0.768-0.725334 0.725333-0.725333 0.725333-0.768 0.682667-0.810667 0.64-0.853333 0.597333-0.853333 0.554667-0.896 0.512-0.896 0.469333-0.938667 0.426667-0.981333 0.384-0.981334 0.341333-1.024 0.256-1.024 0.256-1.066666 0.170667-1.066667 0.128-1.066667 0.085333L832 896h-42.666667l-1.109333-0.042667-1.066667-0.085333-1.066666-0.128-1.066667-0.170667-1.024-0.256-1.024-0.256-0.981333-0.341333-0.981334-0.384-0.938666-0.426667-0.896-0.469333-0.896-0.512-0.853334-0.554667-0.853333-0.597333-0.810667-0.64-0.768-0.682667-0.725333-0.725333-0.725333-0.725333-0.682667-0.768-0.64-0.810667-0.597333-0.853333-0.554667-0.853334-0.512-0.896-0.469333-0.896-0.426667-0.938666-0.384-0.981334-0.341333-0.981333-0.256-1.024-0.256-1.024-0.170667-1.066667-0.128-1.066666-0.085333-1.066667L768 874.666667l0.042667-1.109334 0.085333-1.066666 0.128-1.066667 0.170667-1.066667 0.256-1.024 0.256-1.024 0.341333-0.981333 0.384-0.981333 0.426667-0.938667 0.469333-0.896 0.512-0.896 0.554667-0.853333 0.597333-0.853334 0.64-0.810666 0.682667-0.768 0.725333-0.725334 0.725333-0.725333 0.768-0.682667 0.810667-0.64 0.853333-0.597333 0.853334-0.554667 0.896-0.512 0.896-0.469333 0.938666-0.426667 0.981334-0.384 0.981333-0.341333 1.024-0.256 1.024-0.256 1.066667-0.170667 1.066666-0.128 1.066667-0.085333L789.333333 853.333333h42.666667l1.109333 0.042667zM810.666667 874.666667v0.554666-1.109333 0.554667z" fill="#FFB28E" p-id="1854"></path><path d="M725.76 874.666667a21.333333 21.333333 0 0 0-21.333333-21.333334H192a21.333333 21.333333 0 0 0 0 42.666667h512.426667a21.333333 21.333333 0 0 0 21.333333-21.333333z" fill="#8ECDFF" p-id="1855"></path><path d="M705.493333 853.376l1.109334 0.085333 1.066666 0.128 1.024 0.170667 1.066667 0.256 0.981333 0.256 1.024 0.341333 0.938667 0.384 0.938667 0.426667 0.938666 0.469333 0.896 0.512 0.853334 0.554667 0.853333 0.597333 0.810667 0.64 0.768 0.682667 0.725333 0.725333 0.725333 0.725334 0.64 0.768 0.64 0.810666 0.597334 0.853334 0.554666 0.853333 0.512 0.896 0.469334 0.896 0.426666 0.938667 0.384 0.981333 0.341334 0.981333 0.298666 1.024 0.256 1.024 0.170667 1.066667 0.128 1.066667 0.085333 1.066666 0.042667 1.109334-0.042667 1.109333-0.085333 1.066667-0.128 1.066666-0.170667 1.066667-0.256 1.024-0.298666 1.024-0.341334 0.981333-0.384 0.981334-0.426666 0.938666-0.469334 0.896-0.512 0.896-0.554666 0.853334-0.597334 0.853333-0.64 0.810667-0.64 0.768-0.725333 0.725333-0.725333 0.725333-0.768 0.682667-0.810667 0.64-0.853333 0.597333-0.853334 0.554667-0.896 0.512-0.938666 0.469333-0.938667 0.426667-0.938667 0.384-1.024 0.341333-0.981333 0.256-1.066667 0.256-1.024 0.170667-1.066666 0.128-1.109334 0.085333-1.066666 0.042667H192l-1.109333-0.042667-1.066667-0.085333-1.066667-0.128-1.066666-0.170667-1.024-0.256-1.024-0.256-0.981334-0.341333-0.981333-0.384-0.938667-0.426667-0.896-0.469333-0.896-0.512-0.853333-0.554667-0.853333-0.597333-0.810667-0.64-0.768-0.682667-0.725333-0.725333-0.725334-0.725333-0.682666-0.768-0.64-0.810667-0.597334-0.853333-0.554666-0.853334-0.512-0.896-0.469334-0.896-0.426666-0.938666-0.384-0.981334-0.341334-0.981333-0.256-1.024-0.256-1.024-0.170666-1.066667-0.128-1.066666-0.085334-1.066667L170.666667 874.666667l0.042666-1.109334 0.085334-1.066666 0.128-1.066667 0.170666-1.066667 0.256-1.024 0.256-1.024 0.341334-0.981333 0.384-0.981333 0.426666-0.938667 0.469334-0.896 0.512-0.896 0.554666-0.853333 0.597334-0.853334 0.64-0.810666 0.682666-0.768 0.725334-0.725334 0.725333-0.725333 0.768-0.682667 0.810667-0.64 0.853333-0.597333 0.853333-0.554667 0.896-0.512 0.896-0.469333 0.938667-0.426667 0.981333-0.384 0.981334-0.341333 1.024-0.256 1.024-0.256 1.066666-0.170667 1.066667-0.128 1.066667-0.085333L192 853.333333h512.426667l1.066666 0.042667z" fill="#FFB28E" p-id="1856"></path></svg>