<?xml version="1.0" standalone="no"?><!DOCTYPE svg PUBLIC "-//W3C//DTD SVG 1.1//EN" "http://www.w3.org/Graphics/SVG/1.1/DTD/svg11.dtd"><svg t="1659336984708" class="icon" viewBox="0 0 1024 1024" version="1.1" xmlns="http://www.w3.org/2000/svg" p-id="9544" xmlns:xlink="http://www.w3.org/1999/xlink" width="128" height="128"><defs><style type="text/css">@font-face { font-family: feedback-iconfont; src: url("//at.alicdn.com/t/font_1031158_u69w8yhxdu.woff2?t=1630033759944") format("woff2"), url("//at.alicdn.com/t/font_1031158_u69w8yhxdu.woff?t=1630033759944") format("woff"), url("//at.alicdn.com/t/font_1031158_u69w8yhxdu.ttf?t=1630033759944") format("truetype"); }
</style></defs><path d="M509.014999 512.046737m-262.543634 0a262.543634 262.543634 0 1 0 525.087268 0 262.543634 262.543634 0 1 0-525.087268 0Z" fill="#FFD54F" p-id="9545"></path><path d="M510.601314 0.11053c0 1.705715 67.222223 48.391131 67.222223 91.886861a62.224479 62.224479 0 0 1-67.222223 65.618851 62.224479 62.224479 0 0 1-67.222224-65.635908c0-43.495729 67.222223-93.575518 67.222224-91.869804z" fill="#FFD54F" p-id="9546"></path><path d="M869.21081 155.364698c-1.228115 1.194 11.940004 81.9596-19.342807 112.184868a62.224479 62.224479 0 0 1-93.933718-2.695029 62.224479 62.224479 0 0 1 0.460543-93.950776c31.282811-30.225268 114.044097-16.716006 112.815982-15.539063z" fill="#FFD54F" p-id="9547"></path><path d="M1022.571634 513.411308c-1.705715-0.034114-49.53396 66.40348-93.029689 65.670023a62.241536 62.241536 0 0 1-64.527194-68.347995 62.241536 62.241536 0 0 1 66.778738-66.113509c43.495729 0.750515 92.483861 68.825595 90.778145 68.791481z" fill="#FFD54F" p-id="9548"></path><path d="M869.176695 868.660546c-1.228115-1.176943-81.499057 14.754434-112.781867-15.453777a62.224479 62.224479 0 0 1-0.545829-93.984889 62.224479 62.224479 0 0 1 93.899604-2.763259c31.299868 30.225268 20.656207 113.395925 19.44515 112.218982z" fill="#FFD54F" p-id="9549"></path><path d="M510.601314 1023.948829c0-1.705715 67.222223-48.391131 67.222223-91.886861a62.224479 62.224479 0 0 0-67.222223-65.584737 62.224479 62.224479 0 0 0-67.222224 65.584737c0 43.495729 67.222223 93.558461 67.222224 91.886861z" fill="#FFD54F" p-id="9550"></path><path d="M154.891533 155.330584c1.228115 1.194-11.940004 81.976657 19.342807 112.201925a62.224479 62.224479 0 0 0 93.916661-2.729144 62.224479 62.224479 0 0 0-0.4776-93.933718c-31.299868-30.259382-113.975868-16.698949-112.781868-15.522006z" fill="#FFD54F" p-id="9551"></path><path d="M1.445423 513.34308c1.705715-0.034114 49.53396 66.40348 93.029689 65.670023a62.241536 62.241536 0 0 0 64.49308-68.347995 62.241536 62.241536 0 0 0-66.778738-66.113509c-43.529844 0.750515-92.415632 68.825595-90.744031 68.791481z" fill="#FFD54F" p-id="9552"></path><path d="M154.942705 868.660546c1.228115-1.176943 81.516114 14.720319 112.781867-15.522005a62.224479 62.224479 0 0 0 0.477601-93.933719 62.224479 62.224479 0 0 0-93.916662-2.729143c-31.299868 30.259382-20.536807 113.361811-19.342806 112.201924z" fill="#FFD54F" p-id="9553"></path></svg>