<?xml version="1.0" standalone="no"?><!DOCTYPE svg PUBLIC "-//W3C//DTD SVG 1.1//EN" "http://www.w3.org/Graphics/SVG/1.1/DTD/svg11.dtd"><svg t="1659337193411" class="icon" viewBox="0 0 1024 1024" version="1.1" xmlns="http://www.w3.org/2000/svg" p-id="2643" xmlns:xlink="http://www.w3.org/1999/xlink" width="128" height="128"><defs><style type="text/css">@font-face { font-family: feedback-iconfont; src: url("//at.alicdn.com/t/font_1031158_u69w8yhxdu.woff2?t=1630033759944") format("woff2"), url("//at.alicdn.com/t/font_1031158_u69w8yhxdu.woff?t=1630033759944") format("woff"), url("//at.alicdn.com/t/font_1031158_u69w8yhxdu.ttf?t=1630033759944") format("truetype"); }
</style></defs><path d="M254.506667 350.976A231.338667 231.338667 0 0 1 480 170.666667a231.253333 231.253333 0 0 1 230.912 240.426666 160.042667 160.042667 0 1 1 106.88 291.925334v0.981333h-533.333333A177.877333 177.877333 0 0 1 106.666667 526.208a177.92 177.92 0 0 1 147.84-175.232z" fill="#EDEDED" p-id="2644"></path><path d="M174.762667 383.530667c24.021333 9.813333-0.512 82.176-35.968 133.546666-19.157333 27.776-37.205333 19.669333-30.805334-21.930666 6.4-41.642667 43.861333-120.96 66.773334-111.616z" fill="#D4D4D4" p-id="2645"></path><path d="M451.584 85.376l3.584 0.042667 3.541333 0.128 3.541334 0.128 3.541333 0.213333 3.541333 0.256 3.498667 0.298667 3.498667 0.341333 3.498666 0.341333 3.456 0.426667 3.498667 0.469333 3.413333 0.512 3.456 0.554667 3.413334 0.597333 3.413333 0.597334 3.370667 0.682666 3.370666 0.725334 3.370667 0.768 3.370667 0.768 3.328 0.853333 3.285333 0.853333 3.328 0.938667 3.285333 0.938667 3.242667 0.981333 3.242667 1.066667 3.242666 1.066666 3.2 1.109334 3.2 1.152 3.157334 1.152 3.157333 1.237333 3.157333 1.28 3.114667 1.28 3.114667 1.322667 3.072 1.408 3.072 1.408 3.029333 1.408 3.029333 1.493333 2.986667 1.536 2.986667 1.536 2.944 1.578667 2.944 1.621333 2.901333 1.664 2.901333 1.664 2.858667 1.749333 2.858667 1.749334 2.816 1.792 2.816 1.792 2.773333 1.877333 2.773333 1.877333 2.730667 1.92 2.688 1.962667 2.688 1.962667 2.645333 2.005333 2.645334 2.048 2.602666 2.090667 2.602667 2.090666 2.56 2.133334 2.517333 2.176 2.474667 2.176 2.474667 2.218666 2.474666 2.261334 2.432 2.304 2.389334 2.304 2.346666 2.346666 2.346667 2.346667 2.304 2.389333 2.304 2.432 2.261333 2.474667 2.218667 2.474667 2.176 2.474666 2.176 2.517334 2.133333 2.56 2.090667 2.602666 2.090667 2.602667 2.048 2.645333 2.005333 2.645334 1.962667 2.688 1.962666 2.688 1.92 2.730666 1.877334 2.773334 1.877333 2.773333 1.792 2.816 1.792 2.816 1.749333 2.858667 1.749334 2.858666 1.664 2.901334 1.664 2.901333 1.621333 2.944 1.578667 2.944 1.536 2.986667 1.536 2.986666 1.493333 3.029334 1.408 3.029333 1.408 3.072 1.408 3.072 1.322667 3.114667 1.28 3.114666 1.28 3.157334 1.237333 3.157333 1.152 3.157333 1.152 3.2 1.109333 3.2 1.066667 3.242667 1.066667 3.242667 0.981333 3.242666 0.938667 3.285334 0.938666 3.328 0.853334 3.285333 0.853333 3.328 0.768 3.370667 0.768 3.370666 0.725333 3.370667 0.682667 3.370667 0.597333 3.413333 0.597334 3.413333 0.554666 3.456 0.512 3.413334 0.469334 3.498666 0.426666 3.456 0.341334 3.498667 0.341333 3.498667 0.298667 3.498666 0.256 3.541334 0.213333 3.541333 0.128 3.541333 0.128 3.541334 0.042667 3.584L725.333333 362.666667l-0.042666 5.589333-0.170667 5.589333 2.858667-1.877333 2.944-1.877333 2.944-1.792 2.986666-1.749334 3.029334-1.664 3.072-1.664 3.072-1.578666 3.114666-1.536 3.157334-1.493334 3.2-1.408 3.2-1.365333 3.242666-1.28 3.242667-1.28 3.328-1.194667 3.328-1.109333 3.328-1.066667 3.413333-1.024 3.370667-0.938666 3.456-0.896 3.456-0.853334 3.456-0.768 3.498667-0.682666 3.541333-0.64 3.541333-0.597334 3.584-0.512 3.584-0.426666 3.626667-0.384 3.626667-0.298667 3.626666-0.256 3.669334-0.170667 3.669333-0.085333L832 341.333333l4.949333 0.042667 4.906667 0.213333 4.906667 0.298667 4.864 0.426667 4.821333 0.554666 4.778667 0.682667 4.736 0.768 4.693333 0.896 4.693333 1.024 4.608 1.152 4.565334 1.237333 4.565333 1.322667 4.48 1.493333 4.437333 1.536 4.352 1.664 4.352 1.792 4.266667 1.877334 4.224 1.962666 4.181333 2.090667 4.096 2.133333 4.053334 2.304 4.010666 2.346667 3.925334 2.432 3.84 2.56 3.797333 2.645333 3.754667 2.688 3.669333 2.816 3.584 2.901334 3.498667 2.986666 3.456 3.072 3.370666 3.114667 3.285334 3.242667 3.242666 3.285333 3.114667 3.370667 3.072 3.456 2.986667 3.498666 2.901333 3.584 2.816 3.669334 2.688 3.754666 2.645333 3.797334 2.56 3.84 2.432 3.925333 2.346667 4.010667 2.304 4.053333 2.133333 4.096 2.090667 4.181333 1.962667 4.224 1.877333 4.266667 1.792 4.352 1.664 4.352 1.536 4.437333 1.493333 4.48 1.322667 4.565334 1.237333 4.565333 1.152 4.608 1.024 4.693333 0.896 4.693334 0.768 4.736 0.682667 4.778666 0.554667 4.821334 0.426666 4.864 0.298667 4.906666 0.213333 4.906667 0.042667 4.949333-0.042667 4.608-0.170666 4.608-0.256 4.565334-0.384 4.522666-0.469334 4.48-0.597333 4.48-0.682667 4.437334-0.810666 4.437333-0.853334 4.352-0.981333 4.309333-1.109333 4.309334-1.152 4.266666-1.28 4.224-1.365334 4.181334-1.450666 4.096-1.578667 4.096-1.621333 4.053333-1.749334 4.010667-1.792 3.925333-1.92 3.925333-1.962666 3.84-2.090667 3.797334-2.133333 3.754666-2.261334 3.712-2.304 3.626667-2.389333 3.584-2.474667 3.541333-2.56 3.456-2.602666 3.413334-2.688 3.328-2.773334 3.285333-2.858666 3.242667-2.901334 3.157333-2.986666 3.072-3.029334 3.029333-3.114666 2.986667-3.2 2.858667-3.242667 2.816-3.285333 2.773333-3.370667 2.645333-3.456 2.602667-3.456 2.517333-3.541333 2.474667-3.626667 2.346667-3.669333 2.304-3.712 2.176-3.754667 2.133333-3.797333 2.048-3.882667 1.962667-3.925333 1.877333-3.968 1.792-4.010667 1.706667-4.053333 1.578666-4.096 1.536-4.138667 1.408-4.224 1.365334-4.224 1.237333-4.266667 1.152-4.309333 1.024-4.352 0.981333-4.352 0.853334-4.437333 0.725333-4.437334 0.682667-4.48 0.512V725.333333H213.333333h-2.773333l-2.730667-0.085333-2.730666-0.085333-2.730667-0.128-2.730667-0.128-2.688-0.213334-2.730666-0.213333-2.688-0.256-2.688-0.298667-2.645334-0.298666-2.688-0.384-2.645333-0.384-2.645333-0.426667-2.645334-0.426667-2.602666-0.512-2.602667-0.512-2.602667-0.554666-2.602666-0.554667-2.56-0.597333-2.56-0.682667-2.56-0.64-2.517334-0.725333-2.517333-0.725334-2.517333-0.768-2.517334-0.810666-2.474666-0.810667-2.474667-0.853333-2.432-0.896-2.474667-0.896-2.432-0.938667-4.778666-1.962667-4.778667-2.090666-4.693333-2.176-4.608-2.304-4.565334-2.432-4.522666-2.517334-4.437334-2.602666-4.352-2.730667-4.309333-2.816-4.224-2.944-4.138667-3.029333-4.053333-3.114667-4.010667-3.2-3.882666-3.328-3.84-3.413333-3.754667-3.456-3.669333-3.584-3.584-3.669334-3.456-3.754666-3.413334-3.84-3.328-3.882667-3.2-4.010667-3.114666-4.053333-3.029334-4.138667-2.944-4.224-2.816-4.309333-2.730666-4.352-2.602667-4.437333-2.517333-4.522667-2.432-4.565333-2.304-4.608-2.176-4.693334-2.090667-4.778666-1.962667-4.778667-0.938666-2.432-0.896-2.474667-0.896-2.432-0.853334-2.474666-0.810666-2.474667-0.810667-2.517333-0.768-2.517334-0.725333-2.517333-0.725334-2.517333-0.64-2.56-0.682666-2.56-0.597334-2.56-0.554666-2.602667-0.554667-2.602667-0.512-2.602666-0.512-2.602667-0.426667-2.645333-0.426666-2.645334-0.384-2.645333-0.384-2.688-0.298667-2.645333-0.298667-2.688-0.256-2.688-0.213333-2.730667-0.213333-2.688-0.128-2.730667-0.128-2.730666-0.085334-2.730667L0 514.773333V512l0.042667-4.949333 0.170666-4.906667 0.298667-4.864 0.384-4.821333 0.469333-4.821334 0.597334-4.778666 0.725333-4.778667 0.810667-4.693333 0.896-4.693334 1.024-4.650666 1.109333-4.608 1.237333-4.565334 1.28-4.522666 1.408-4.48 1.493334-4.437334 1.621333-4.394666 1.706667-4.352 1.749333-4.309334 1.877333-4.266666 1.962667-4.181334 2.048-4.181333 2.133333-4.096 2.218667-4.053333 2.346667-4.010667 2.389333-3.925333 2.474667-3.882667 2.517333-3.84 2.645333-3.754667 2.730667-3.712 2.773333-3.669333 2.858667-3.584 2.944-3.541333 3.029333-3.456 3.072-3.370667 3.157334-3.328 3.242666-3.285333 3.285334-3.157334 3.370666-3.114666 3.456-3.072 3.498667-2.944 3.541333-2.901334 3.626667-2.858666 3.669333-2.730667 3.754667-2.645333 3.797333-2.602667 3.882667-2.517333 3.925333-2.432 3.968-2.346667 4.010667-2.261333 4.096-2.176 4.138667-2.090667 4.181333-1.962667 4.224-1.92 4.309333-1.834666 4.309334-1.706667 4.394666-1.664 4.437334-1.536 4.437333-1.450667 4.522667-1.365333 4.522666-1.237333 4.608-1.152 4.608-1.066667 4.693334-0.938667 4.693333-0.853333 0.682667-2.901333 0.682666-2.901334 1.493334-5.717333 1.578666-5.674667 1.749334-5.632 1.834666-5.589333 1.92-5.546667 2.090667-5.461333 2.176-5.418667 2.261333-5.376 2.389334-5.290666 2.517333-5.248 2.602667-5.162667 2.688-5.12 2.816-5.077333 2.944-4.992 2.986666-4.906667 3.114667-4.864 3.242667-4.778667 3.285333-4.736 3.413333-4.650666 3.498667-4.565334 3.584-4.48 3.669333-4.437333 3.797334-4.309333 3.84-4.266667 3.925333-4.181333 4.053333-4.096 4.096-4.010667 4.181334-3.925333 4.266666-3.882667 4.352-3.754667 4.437334-3.626666 4.522666-3.584 4.565334-3.498667 4.650666-3.370667 4.736-3.285333 4.821334-3.2 4.864-3.114667 4.906666-2.986666 4.992-2.901334 5.077334-2.816 5.12-2.688 5.205333-2.602666 5.248-2.474667 5.333333-2.389333 5.376-2.261334 5.418667-2.176 5.461333-2.048 5.546667-1.92 5.589333-1.834666 5.632-1.664 5.717334-1.621334 5.717333-1.450666 2.901333-0.682667 2.901334-0.682667 2.901333-0.597333 2.944-0.597333 2.901333-0.597334 2.944-0.512 2.944-0.512 2.986667-0.469333 2.986667-0.426667 2.986666-0.426666 2.986667-0.384 2.986667-0.341334 3.029333-0.298666 3.029333-0.298667 3.029334-0.256 3.029333-0.213333 3.072-0.170667 3.029333-0.170667 3.072-0.085333 3.072-0.085333 3.114667-0.085334h3.072l3.584 0.042667zM445.354667 128l-2.602667 0.042667-2.602667 0.085333-2.602666 0.085333-2.602667 0.128-2.56 0.170667-2.602667 0.170667-2.56 0.213333-2.56 0.256-2.56 0.256-2.517333 0.298667-2.56 0.298666-2.517333 0.384-2.517334 0.341334-2.517333 0.426666-2.474667 0.426667-2.474666 0.426667-2.517334 0.512-2.432 0.469333-2.474666 0.554667-2.432 0.554666-2.346667 0.554667-4.949333 1.28-4.821334 1.322667-4.778666 1.450666-4.693334 1.536-4.693333 1.621334-4.650667 1.749333-4.565333 1.792-4.522667 1.92-4.522666 2.005333-4.437334 2.133334-4.394666 2.176-4.309334 2.261333-4.309333 2.389333-4.224 2.432-4.181333 2.56-4.096 2.602667-4.096 2.730667-3.968 2.773333-3.968 2.858667-3.882667 2.986666-3.797333 3.029334-3.754667 3.072-3.712 3.2-3.584 3.242666-3.584 3.328-3.456 3.413334-3.413333 3.456-3.328 3.541333-3.285334 3.626667-3.2 3.669333-3.114666 3.754667-3.029334 3.797333-2.944 3.882667-2.901333 3.925333-2.816 3.968-2.688 4.053333-2.645333 4.138667-2.56 4.138667-2.474667 4.224-2.389333 4.309333-2.261334 4.309333-2.218666 4.394667-2.133334 4.437333-2.005333 4.48-1.92 4.522667-1.834667 4.608-1.749333 4.608-1.664 4.693333-1.536 4.693334-1.450667 4.778666-1.365333 4.778667-1.28 4.949333-0.554667 2.346667-0.64 2.645333-1.109333 4.010667-1.493333 3.84-1.877334 3.712-2.218666 3.498667-2.56 3.242666-2.858667 2.986667-3.114667 2.730667-3.370666 2.389333-3.626667 2.048-3.754667 1.706667-3.925333 1.322666-4.053333 0.938667-4.224 0.768-3.712 0.768-3.712 0.810667-3.626667 0.938666-3.669333 0.981334-3.584 1.109333-3.541334 1.152-3.541333 1.237333-3.498667 1.28-3.456 1.408-3.413333 1.450667-3.413333 1.536-3.328 1.578667-3.285334 1.664-3.285333 1.749333-3.242667 1.792-3.157333 1.877333-3.157333 1.962667-3.072 2.005333-3.029334 2.048-3.029333 2.133334-2.944 2.218666-2.901333 2.261334-2.858667 2.304-2.816 2.389333-2.730667 2.432-2.688 2.517333-2.645333 2.56-2.602667 2.602667-2.517333 2.688-2.474667 2.688-2.432 2.773333-2.346666 2.858667-2.304 2.858667-2.218667 2.901333-2.176 2.986667-2.133333 3.029333-2.048 3.072-1.962667 3.114667-1.92 3.157333-1.834667 3.2-1.792 3.242667-1.706666 3.285333-1.621334 3.285333-1.578666 3.370667-1.493334 3.413333-1.408 3.413334-1.365333 3.498666-1.28 3.498667-1.194667 3.541333-1.109333 3.584-1.066667 3.626667-0.981333 3.626667-0.853333 3.669333-0.810667 3.712-0.725333 3.754667-0.682667 3.754666-0.554667 3.797334-0.469333 3.84-0.384 3.84-0.341333 3.882666-0.213334 3.925334-0.128 3.925333-0.042666 4.053333v2.133334l0.042666 2.218666 0.085334 2.176 0.085333 2.176 0.128 2.218667 0.170667 2.176 0.170666 2.133333 0.213334 2.176 0.213333 2.133334 0.256 2.133333 0.298667 2.133333 0.298666 2.133334 0.341334 2.090666 0.384 2.133334 0.384 2.090666 0.384 2.048 0.469333 2.090667 0.426667 2.048 0.512 2.090667 0.512 2.048 0.554666 2.005333 0.554667 2.048 0.554667 2.005333 0.64 2.005334 0.64 2.005333 0.64 1.962667 0.682666 1.962666 0.725334 1.962667 0.725333 1.962667 0.682667 1.834666 1.621333 3.968 1.664 3.797334 1.749333 3.754666 1.834667 3.669334 1.962667 3.669333 2.005333 3.584 2.090667 3.541333 2.176 3.498667 2.261333 3.456 2.346667 3.370667 2.432 3.328 2.474666 3.242666 2.602667 3.2 2.645333 3.157334 2.730667 3.029333 2.773333 3.029333 2.858667 2.944 2.944 2.858667 3.029333 2.773333 3.029334 2.730667 3.157333 2.645333 3.2 2.602667 3.242667 2.474667 3.328 2.432 3.370666 2.346666 3.456 2.261334 3.498667 2.176 3.541333 2.090666 3.584 2.005334 3.669334 1.962666 3.669333 1.834667 3.754667 1.749333 3.797333 1.664 3.968 1.621334 1.834667 0.682666 1.962666 0.725334 1.962667 0.725333 1.962667 0.682667 1.962666 0.64 2.005334 0.64 2.005333 0.64 2.005333 0.554666 2.048 0.554667 2.005334 0.554667 2.048 0.512 2.090666 0.512 2.048 0.426666 2.090667 0.469334 2.048 0.384 2.090667 0.384 2.133333 0.384 2.090667 0.341333 2.133333 0.298667 2.133333 0.298666 2.133334 0.256 2.133333 0.213334 2.176 0.213333 2.133333 0.170667 2.176 0.170666 2.218667 0.128 2.176 0.085334 2.176 0.085333 2.218667 0.042667h632.362666l0.597334-0.170667 4.053333-0.682667 4.010667-0.512 3.456-0.469333 3.413333-0.597333 3.413333-0.682667 3.370667-0.725333 3.328-0.810667 3.328-0.896 3.285333-0.981333 3.242667-1.024 3.2-1.109334 3.2-1.152 3.157333-1.28 3.114667-1.322666 3.072-1.365334 3.029333-1.450666 3.029334-1.536 2.944-1.578667 2.944-1.664 2.901333-1.706667 2.816-1.792 2.816-1.834666 2.773333-1.92 2.688-1.962667 2.688-2.005333 2.645334-2.090667 2.56-2.133333 2.517333-2.218667 2.474667-2.218667 2.432-2.304 2.389333-2.389333 2.304-2.389333 2.261333-2.474667 2.218667-2.517333 2.176-2.56 2.090667-2.602667 2.048-2.645333 1.962666-2.688 1.962667-2.773334 1.834667-2.773333 1.792-2.816 1.749333-2.901333 1.664-2.901334 1.621333-2.944 1.536-2.986666 1.493334-3.072 1.408-3.029334 1.322666-3.114666 1.28-3.157334 1.194667-3.157333 1.152-3.2 1.066667-3.242667 0.981333-3.285333 0.896-3.285333 0.853333-3.328 0.768-3.370667 0.682667-3.413333 0.597333-3.413334 0.554667-3.456 0.426667-3.456 0.384-3.498666 0.298666-3.541334 0.213334-3.584 0.128-3.541333L981.333333 533.333333l-0.042666-3.882666-0.170667-3.84-0.213333-3.797334-0.341334-3.797333-0.426666-3.754667-0.512-3.712-0.64-3.669333-0.682667-3.669333-0.810667-3.626667-0.853333-3.584-0.981333-3.541333-1.024-3.498667-1.152-3.498667-1.194667-3.456-1.322667-3.370666-1.365333-3.370667-1.450667-3.328-1.536-3.285333-1.621333-3.242667-1.664-3.2-1.749333-3.114667-1.834667-3.114666-1.92-3.072-2.005333-2.986667-2.048-2.986667-2.090667-2.901333-2.218667-2.858667-2.218666-2.773333-2.346667-2.730667-2.389333-2.688-2.432-2.645333-2.517334-2.56-2.56-2.517333-2.645333-2.432-2.688-2.389334-2.730667-2.346666-2.773333-2.218667-2.858667-2.218667-2.901333-2.090666-2.986667-2.048-2.986666-2.005334-3.072-1.92-3.114667-1.834666-3.114667-1.749334-3.2-1.664-3.242666-1.621333-3.285334-1.536-3.328-1.450667-3.370666-1.365333-3.413334-1.322667-3.413333-1.194666-3.498667-1.152-3.498666-1.024-3.541334-0.981334-3.584-0.853333-3.626666-0.810667-3.669334-0.682666-3.669333-0.64-3.712-0.512-3.754667-0.426667-3.797333-0.341333-3.797333-0.213334-3.84-0.170666L831.914667 384l-2.816 0.042667-2.858667 0.085333-2.858667 0.128-2.858666 0.170667-2.816 0.256-2.816 0.298666-2.773334 0.341334-2.773333 0.384-2.773333 0.469333-2.730667 0.469333-2.730667 0.554667-2.688 0.597333-2.688 0.64-2.645333 0.682667-2.645333 0.725333-2.645334 0.810667-2.602666 0.810667-2.56 0.896-2.56 0.938666-2.56 0.938667-2.517334 1.024-2.474666 1.066667-2.474667 1.109333-2.432 1.152-2.432 1.194667-2.432 1.237333-2.346667 1.237333-2.346666 1.322667-2.346667 1.365333-2.304 1.408-2.261333 1.450667-2.56 1.664-3.498667 2.090667-3.626667 1.706666-3.84 1.365334-3.925333 1.024-3.968 0.597333-4.053333 0.256-4.053334-0.128-4.010666-0.512-3.968-0.896-3.84-1.28-3.712-1.621333-3.498667-2.005334-3.370667-2.304-3.072-2.602666-2.858666-2.858667-2.56-3.157333-2.218667-3.370667-1.92-3.584-1.578667-3.712-1.194666-3.882667-0.810667-3.925333-0.469333-4.053333-0.085334-4.053334 0.170667-5.12 0.042667-4.864v-2.944l-0.085334-3.029333-0.085333-3.029333-0.128-3.029334-0.170667-2.986666-0.213333-2.986667-0.256-2.986667-0.256-2.944-0.341333-2.944-0.341334-2.944-0.384-2.944-0.426666-2.901333-0.469334-2.901333-0.512-2.901334-0.554666-2.858666-0.554667-2.901334-0.597333-2.816-0.64-2.858666-0.682667-2.816-0.682667-2.816-0.768-2.816-0.768-2.773334-0.810666-2.773333-0.810667-2.773333-0.896-2.730667-0.896-2.730667-0.938667-2.730666-0.981333-2.688-0.981333-2.688-1.024-2.645334-1.066667-2.645333-1.109333-2.645333-1.152-2.645334-1.152-2.602666-1.194667-2.56-1.194667-2.602667-1.237333-2.56-1.28-2.517333-1.322667-2.517334-1.365333-2.517333-1.365333-2.474667-1.408-2.474666-1.408-2.432-1.450667-2.432-1.493333-2.389334-1.493334-2.389333-1.536-2.389333-1.578666-2.346667-1.621334-2.346667-1.621333-2.304-1.621333-2.304-1.706667-2.261333-1.706667-2.261333-1.706666-2.218667-1.792-2.218667-1.749334-2.176-1.834666-2.176-1.834667-2.133333-1.834667-2.133333-1.877333-2.090667-1.92-2.090667-1.92-2.048-1.962667-2.005333-2.005333-2.005333-2.005333-2.005334-2.005334-1.962666-2.048-1.92-2.090666-1.92-2.090667-1.877334-2.133333-1.834666-2.133334-1.834667-2.176-1.834667-2.176-1.792-2.218666-1.749333-2.218667-1.706667-2.261333-1.706666-2.261334-1.706667-2.304-1.621333-2.304-1.621334-2.346666-1.621333-2.346667-1.536-2.389333-1.578667-2.389334-1.493333-2.389333-1.493333-2.432-1.450667-2.432-1.408-2.474667-1.408-2.474666-1.365333-2.517334-1.365334-2.517333-1.28-2.517333-1.322666-2.56-1.237334-2.602667-1.194666-2.56-1.194667-2.602667-1.152-2.645333-1.152-2.602667-1.109333-2.688-1.066667-2.645333-1.024-2.688-0.981333-2.688-0.981334-2.730667-0.938666-2.730666-0.896-2.730667-0.896-2.773333-0.810667-2.773334-0.810667-2.773333-0.768-2.816-0.768-2.816-0.682666-2.816-0.682667-2.858667-0.64-2.816-0.597333-2.901333-0.554667-2.858667-0.554667-2.901333-0.512-2.901333-0.469333-2.901334-0.426667-2.944-0.384-2.944-0.341333-2.944-0.341333-2.944-0.256-2.986666-0.256-2.986667-0.213334-2.986667-0.170666-3.029333-0.128-3.029333-0.085334L451.029333 128h-5.674666z" fill="#D4D4D4" p-id="2646"></path><path d="M85.76 576a21.333333 21.12 90 1 0 42.24 0 21.333333 21.12 90 1 0-42.24 0Z" fill="#D4D4D4" p-id="2647"></path><path d="M513.066667 769.152l1.024 1.152 0.981333 1.194667 0.938667 1.152 0.853333 1.194666 0.810667 1.237334 0.768 1.194666 0.725333 1.237334 0.64 1.237333 0.597333 1.237333 0.554667 1.237334 0.512 1.28 0.469333 1.28 0.384 1.28 0.341334 1.322666 0.298666 1.28 0.213334 1.322667 0.213333 1.322667 0.128 1.365333 0.085333 1.365333 0.042667 1.365334-0.042667 1.365333-0.085333 1.365333-0.128 1.408-0.170667 1.408-0.213333 1.408-0.298667 1.408-0.341333 1.450667-0.384 1.450667-0.469333 1.450666-0.469334 1.493334-0.554666 1.450666 0.853333 0.341334 0.810667 0.384 0.810666 0.426666 0.768 0.426667 0.810667 0.469333 0.725333 0.512 0.768 0.512 0.725334 0.554667 0.981333-1.237333 1.024-1.152 1.066667-1.109334 1.024-1.066666 1.066666-1.024 1.109334-0.938667 1.109333-0.896 1.109333-0.896 1.152-0.768 1.152-0.768 1.194667-0.725333 1.194667-0.64 1.194666-0.597334 1.237334-0.554666 1.237333-0.512 1.28-0.469334 1.28-0.384 1.28-0.341333 1.322667-0.341333 1.322666-0.213334 1.365334-0.213333 1.365333-0.170667 1.365333-0.085333 1.408-0.042667h1.408l1.450667 0.042667 1.450667 0.128 1.450666 0.170667 1.493334 0.170666 1.493333 0.256 1.536 0.341334 1.536 0.341333-0.469333 1.493333-0.469334 1.493334-0.554666 1.408-0.554667 1.408-0.597333 1.322666-0.64 1.322667-0.64 1.28-0.725334 1.237333-0.725333 1.194667-0.810667 1.109333-0.810666 1.109334-0.810667 1.066666-0.896 1.066667-0.938667 0.981333-0.938666 0.938667-0.981334 0.896-1.024 0.853333-1.066666 0.853334-1.109334 0.768-1.109333 0.768-1.152 0.682666-1.194667 0.682667-1.237333 0.64-1.28 0.554667-1.322667 0.554666-1.322666 0.512-1.408 0.469334-1.408 0.426666-1.450667 0.384-1.493333 0.341334-1.493334 0.298666-1.578666 0.256 0.128 0.896 0.085333 0.938667 0.085333 0.896v1.792l-0.085333 0.896-0.085333 0.938667-0.128 0.896 1.578666 0.256 1.493334 0.298666 1.493333 0.341334 1.450667 0.384 1.408 0.426666 1.408 0.469334 1.322666 0.512 1.322667 0.554666 1.28 0.554667 1.237333 0.64 1.194667 0.682667 1.152 0.682666 1.109333 0.768 1.109334 0.768 1.066666 0.853334 1.024 0.853333 0.981334 0.896 0.938666 0.938667 0.938667 0.981333 0.896 1.066667 0.810667 1.066666 0.810666 1.109334 0.810667 1.109333 0.725333 1.194667 0.725334 1.237333 0.64 1.28 0.64 1.322667 0.597333 1.322666 0.554667 1.408 0.554666 1.408 0.469334 1.493334 0.469333 1.493333-1.536 0.341333-1.536 0.341334-1.493333 0.256-1.493334 0.170666-1.450666 0.170667-1.450667 0.128-1.450667 0.042667h-1.408l-1.408-0.042667-1.365333-0.085333-1.365333-0.170667-1.365334-0.213333-1.322666-0.213334-1.322667-0.341333-1.28-0.341333-1.28-0.384-1.28-0.469334-1.237333-0.512-1.237334-0.554666-1.194666-0.597334-1.194667-0.64-1.194667-0.725333-1.152-0.768-1.152-0.768-1.109333-0.896-1.109333-0.896-1.109334-0.938667-1.066666-1.024-1.024-1.066666-1.066667-1.109334-1.024-1.152-0.981333-1.237333-0.725334 0.554667-0.768 0.512-0.725333 0.512-0.810667 0.469333-0.768 0.426667-0.810666 0.426666-0.810667 0.384-0.853333 0.341334 0.554666 1.450666 0.469334 1.493334 0.469333 1.450666 0.384 1.450667 0.341333 1.450667 0.298667 1.408 0.213333 1.408 0.170667 1.408 0.128 1.408 0.085333 1.365333 0.042667 1.365333-0.042667 1.365334-0.085333 1.365333-0.128 1.365333-0.213333 1.322667-0.213334 1.322667-0.298666 1.28-0.341334 1.322666-0.384 1.28-0.469333 1.28-0.512 1.28-0.554667 1.237334-0.597333 1.237333-0.64 1.237333-0.725333 1.237334-0.768 1.194666-0.810667 1.237334-0.853333 1.194666-0.938667 1.152-0.981333 1.194667-1.024 1.152L512 896l-1.066667-1.152-1.024-1.152-0.981333-1.194667-0.938667-1.152-0.853333-1.194666-0.810667-1.237334-0.768-1.194666-0.725333-1.237334-0.64-1.237333-0.597333-1.237333-0.554667-1.237334-0.512-1.28-0.469333-1.28-0.384-1.28-0.341334-1.322666-0.298666-1.28-0.213334-1.322667-0.213333-1.322667-0.128-1.365333-0.085333-1.365333-0.042667-1.365334 0.042667-1.365333 0.085333-1.365333 0.128-1.408 0.170667-1.408 0.213333-1.408 0.298667-1.408 0.341333-1.450667 0.384-1.450667 0.469333-1.450666 0.469334-1.493334 0.554666-1.450666-0.853333-0.341334-0.810667-0.384-0.810666-0.426666-0.768-0.426667-0.810667-0.469333-0.725333-0.512-0.768-0.512-0.725334-0.554667-0.981333 1.237333-1.024 1.152-1.066667 1.109334-1.024 1.066666-1.066666 1.024-1.109334 0.938667-1.109333 0.896-1.109333 0.896-1.152 0.768-1.152 0.768-1.194667 0.725333-1.194667 0.64-1.194666 0.597334-1.237334 0.554666-1.237333 0.512-1.28 0.469334-1.28 0.384-1.28 0.341333-1.322667 0.341333-1.322666 0.213334-1.365334 0.213333-1.365333 0.170667-1.365333 0.085333-1.408 0.042667h-1.408l-1.450667-0.042667-1.450667-0.128-1.450666-0.170667-1.493334-0.170666-1.493333-0.256-1.536-0.341334-1.536-0.341333 0.469333-1.493333 0.469334-1.493334 0.554666-1.408 0.554667-1.408 0.597333-1.322666 0.64-1.322667 0.64-1.28 0.725334-1.237333 0.725333-1.194667 0.810667-1.109333 0.810666-1.109334 0.810667-1.066666 0.896-1.066667 0.938667-0.981333 0.938666-0.938667 0.981334-0.896 1.024-0.853333 1.066666-0.853334 1.109334-0.768 1.109333-0.768 1.152-0.682666 1.194667-0.682667 1.237333-0.64 1.28-0.554667 1.322667-0.554666 1.322666-0.512 1.408-0.469334 1.408-0.426666 1.450667-0.384 1.493333-0.341334 1.493334-0.298666 1.578666-0.256-0.128-0.896-0.085333-0.938667-0.085333-0.896v-1.792l0.085333-0.896 0.085333-0.938667 0.128-0.896-1.578666-0.256-1.493334-0.298666-1.493333-0.341334-1.450667-0.384-1.408-0.426666-1.408-0.469334-1.322666-0.512-1.322667-0.554666-1.28-0.554667-1.237333-0.64-1.194667-0.682667-1.152-0.682666-1.109333-0.768-1.109334-0.768-1.066666-0.853334-1.024-0.853333-0.981334-0.896-0.938666-0.938667-0.938667-0.981333-0.896-1.066667-0.810667-1.066666-0.810666-1.109334-0.810667-1.109333-0.725333-1.194667-0.725334-1.237333-0.64-1.28-0.64-1.322667-0.597333-1.322666-0.554667-1.408-0.554666-1.408-0.469334-1.493334-0.469333-1.493333 1.536-0.341333 1.536-0.341334 1.493333-0.256 1.493334-0.170666 1.450666-0.170667 1.450667-0.128 1.450667-0.042667h1.408l1.408 0.042667 1.365333 0.085333 1.365333 0.170667 1.365334 0.213333 1.322666 0.213334 1.322667 0.341333 1.28 0.341333 1.28 0.384 1.28 0.469334 1.237333 0.512 1.237334 0.554666 1.194666 0.597334 1.194667 0.64 1.194667 0.725333 1.152 0.768 1.152 0.768 1.109333 0.896 1.109333 0.896 1.109334 0.938667 1.066666 1.024 1.024 1.066666 1.066667 1.109334 1.024 1.152 0.981333 1.237333 0.725334-0.554667 0.768-0.512 0.725333-0.512 0.810667-0.469333 0.768-0.426667 0.810666-0.426666 0.810667-0.384 0.853333-0.341334-0.554666-1.450666-0.469334-1.493334-0.469333-1.450666-0.384-1.450667-0.341333-1.450667-0.298667-1.408-0.213333-1.408-0.170667-1.408-0.128-1.408-0.085333-1.365333-0.042667-1.365333 0.042667-1.365334 0.085333-1.365333 0.128-1.365333 0.213333-1.322667 0.213334-1.322667 0.298666-1.28 0.341334-1.322666 0.384-1.28 0.469333-1.28 0.512-1.28 0.554667-1.237334 0.597333-1.237333 0.64-1.237333 0.725333-1.237334 0.768-1.194666 0.810667-1.237334 0.853333-1.194666 0.938667-1.152 0.981333-1.194667 1.024-1.152L512 768l1.066667 1.152z" fill="#D4D4D4" p-id="2648"></path><path d="M288 776.576s7.082667 73.045333-5.717333 95.232a42.666667 42.666667 0 0 1-73.898667-42.666667c12.8-22.186667 79.616-52.565333 79.616-52.565333zM800 776.576s7.082667 73.045333-5.717333 95.232a42.666667 42.666667 0 0 1-73.898667-42.666667c12.8-22.186667 79.616-52.565333 79.616-52.565333z" fill="#8ECDFF" p-id="2649"></path></svg>