<svg xmlns="http://www.w3.org/2000/svg" viewBox="0 0 64 64"><defs><style>.cls-1{isolation:isolate;}.cls-2{fill:#f2f4f5;}.cls-3{fill:#0a7be0;}.cls-4{fill:#53baf9;}.cls-5,.cls-6{fill:#a2a2ba;}.cls-6{mix-blend-mode:multiply;}.cls-7,.cls-8,.cls-9{fill:#fff;}.cls-8{opacity:0.8;}.cls-9{opacity:0.6;}</style></defs><title>【icon】插件管理-导出</title><g class="cls-1"><g id="图层_1" data-name="图层 1"><circle class="cls-2" cx="32" cy="32" r="32"/><path class="cls-3" d="M25.76,44.82l6.79-11.56H44.4V12.36A2.36,2.36,0,0,0,42,10H13.87a2.58,2.58,0,0,0-2.58,2.57V44.7A3.68,3.68,0,0,0,15,48.37H27.84Z"/><path class="cls-4" d="M25.76,44.82,27,42.73H14.11a2.83,2.83,0,0,0-2.82,2.82h0a2.83,2.83,0,0,0,2.82,2.82H27.84Z"/><polygon class="cls-5" points="33.96 54 28.57 44.82 33.96 35.64 52.71 35.64 52.71 54 33.96 54"/><polygon class="cls-6" points="33.96 54 28.57 44.82 52.71 44.75 52.71 54 33.96 54"/><path class="cls-7" d="M23.93,24.42a2.51,2.51,0,0,0-1,.52A1,1,0,0,0,22.58,26c.06.24,0,.35-.28.35-1.37,0-2.75,0-4.12-.06a.3.3,0,0,1-.3-.24.93.93,0,0,1,.15-1,1.07,1.07,0,0,1,1.11-.43c.42.09.83.22,1.24.34a.77.77,0,0,0,.45,0,.53.53,0,0,0,.38-.37c.07-.21-.09-.31-.22-.4a3.44,3.44,0,0,1-1.36-1.76,3.15,3.15,0,0,1,2.61-4.08c.39,0,.78-.08,1.17-.14.16,0,.36-.05.32-.28s-.23-.21-.4-.18a3.88,3.88,0,0,1-.76,0,.91.91,0,0,1-.71-.32.51.51,0,0,1-.08-.62,1.76,1.76,0,0,0,.15-.6,1.52,1.52,0,0,0,1.64.28c.46-.14.51-.41.21-.79a1,1,0,0,0-1.41-.32c-.1.08-.21.16-.18.31s-.08.21-.21.14a2.66,2.66,0,0,1-1-1c-.12-.24-.11-.49.18-.57a14.71,14.71,0,0,1,3-.92,9,9,0,0,1,1,0,.59.59,0,0,0,.58-.24c.12-.2-.05-.32-.14-.46s-.12-.29,0-.4a.43.43,0,0,1,.58,0,.77.77,0,0,1,.25.76,1.27,1.27,0,0,0,.34,1.22,2.8,2.8,0,0,1-.4,4.1,4.11,4.11,0,0,1-2.26.81,6.76,6.76,0,0,0-1.27.23,2,2,0,0,0-1.48,2,1.93,1.93,0,0,0,1.51,1.89c.11.06.22,0,.31,0a.3.3,0,0,1-.16-.08,1.8,1.8,0,0,1-1-2.24,2,2,0,0,1,1.74-1.32L25,19.53a3.52,3.52,0,0,0,2.83-2.82,4.93,4.93,0,0,0,0-.67c0-.09,0-.24.09-.27s.17.11.22.19a3.38,3.38,0,0,1,.11,3.71,3.16,3.16,0,0,1-3.48,1.5,2.48,2.48,0,0,0-.86-.1.53.53,0,0,0-.48.55.54.54,0,0,0,.53.5.33.33,0,0,0,.36-.26c0-.18-.06-.25-.22-.29s-.19-.09-.14-.22a.19.19,0,0,1,.26-.12.6.6,0,0,1,.31.15.73.73,0,0,0,.54.27c.28,0,.29.28.29.48a2.29,2.29,0,0,1-1.1,2.1A.56.56,0,0,1,23.93,24.42Z"/><path class="cls-7" d="M34,30.37a7.14,7.14,0,0,1-1.56,1.47A9.17,9.17,0,0,1,19,28.73l-.18-.37a.68.68,0,0,1,.23-.95.66.66,0,0,1,1,.3,15.13,15.13,0,0,0,1.06,1.55,8.56,8.56,0,0,0,6.13,3.22,9.15,9.15,0,0,0,6.1-1.7l.52-.34Z"/><path class="cls-7" d="M28.05,14.44a5.9,5.9,0,0,1,2.54.28,9,9,0,0,1,5.57,5c.21.45.06.83-.35.91a.62.62,0,0,1-.71-.48,8,8,0,0,0-3.77-4.58,9,9,0,0,0-3.15-1.1Z"/><path class="cls-7" d="M24.36,24.28a.93.93,0,0,1,.92.36.65.65,0,0,0,.5.22c.12,0,.25,0,.38.06a.81.81,0,0,1-.87.26c-.13,0-.28-.14-.36.05a.36.36,0,0,0,.13.4,1,1,0,0,0,.16.13.24.24,0,0,1,.1.28c0,.12-.15.13-.25.13H23.6c-.22,0-.4-.09-.37-.35s.22-.27.42-.22.32,0,.23-.28A.84.84,0,0,1,24,24.5C24.07,24.34,24.22,24.31,24.36,24.28Z"/><path class="cls-7" d="M35.71,23a1.11,1.11,0,0,0-1.17.26,1,1,0,0,0-.13,1.05c.08.17.21.3.41.2s.13-.25,0-.4a.33.33,0,0,1,.21-.54.57.57,0,0,1,.67.25,1,1,0,0,1-.55,1.52,1.34,1.34,0,0,1-1.65-1.19c-.09-.45-.15-.92-.22-1.38A3.21,3.21,0,0,0,29.19,20a2.18,2.18,0,0,1-.76.07c-.08,0-.18,0-.22.05s0,.17.1.24c.27.32.64.29,1,.32a1.73,1.73,0,1,1-.19,3.45,1.63,1.63,0,0,1-1.54-1.49A.6.6,0,0,1,28,22a.53.53,0,0,1,.61.47c.06.27.16.48.48.4s.32-.33.21-.64a1.37,1.37,0,0,0-2.12-.59,2,2,0,0,0-.43,2.75,4.68,4.68,0,0,0,.55.63c.15.14.12.21-.08.28a1.52,1.52,0,0,1-.79,0,.73.73,0,0,0-.86.36c-.18.36,0,.76.36.75,1.26,0,2.52.08,3.77,0a.52.52,0,0,0,.38-.15h0A1.15,1.15,0,0,1,31,24.91c-.34.34-.5.64,0,.92-.17.12-.28,0-.4,0-.31-.12-.38-.06-.35.3a.72.72,0,0,0,.33.07h1.61c.37,0,.38,0,.2-.34a.75.75,0,0,0-.07-.12c-.06-.12-.12-.27,0-.36s.21,0,.3.1a5.28,5.28,0,0,0,1.54.81,1.86,1.86,0,0,0,2.56-1.62A1.54,1.54,0,0,0,35.71,23Z"/><path class="cls-7" d="M23.44,28.66h-.52l-.13.42h-.24l.5-1.49h.27l.5,1.49h-.25Zm-.05-.19-.06-.2-.15-.5h0c-.05.17-.09.34-.14.5l-.06.2Z"/><path class="cls-7" d="M24,28h.2v.12h0a.58.58,0,0,1,.34-.15c.29,0,.45.22.45.57s-.23.6-.49.6a.44.44,0,0,1-.29-.13v.56H24Zm.76.54c0-.23-.07-.38-.26-.38a.4.4,0,0,0-.26.14v.55a.38.38,0,0,0,.24.1C24.63,28.92,24.75,28.77,24.75,28.51Z"/><path class="cls-7" d="M25.18,28.79c0-.24.2-.37.67-.42,0-.13-.05-.24-.22-.24a.65.65,0,0,0-.32.11l-.09-.16a.92.92,0,0,1,.45-.14c.28,0,.41.18.41.47v.67h-.19l0-.12h0a.58.58,0,0,1-.35.15A.31.31,0,0,1,25.18,28.79Zm.67,0v-.28c-.33,0-.45.13-.45.25s.08.16.18.16A.4.4,0,0,0,25.85,28.8Z"/><path class="cls-7" d="M26.33,28.53a.55.55,0,0,1,.56-.59.47.47,0,0,1,.32.13l-.11.15a.28.28,0,0,0-.2-.09c-.19,0-.33.16-.33.4s.13.39.32.39a.35.35,0,0,0,.24-.1l.1.15a.54.54,0,0,1-.36.14A.53.53,0,0,1,26.33,28.53Z"/><path class="cls-7" d="M27.46,27.47h.23v.65a.49.49,0,0,1,.36-.18c.24,0,.34.16.34.44v.7h-.23v-.67c0-.19-.06-.27-.19-.27a.38.38,0,0,0-.28.15v.79h-.23Z"/><path class="cls-7" d="M28.64,28.53a.54.54,0,0,1,.51-.59c.3,0,.46.21.46.53a.45.45,0,0,1,0,.12h-.73a.35.35,0,0,0,.35.34.46.46,0,0,0,.27-.09l.08.15a.69.69,0,0,1-.38.12A.54.54,0,0,1,28.64,28.53Zm.77-.1c0-.2-.09-.31-.25-.31a.31.31,0,0,0-.29.31Z"/><path class="cls-7" d="M30.35,27.59h.24v.71h0l.57-.71h.26l-.46.58.54.91h-.26l-.43-.73-.22.28v.45h-.24Z"/><path class="cls-7" d="M32.11,29.15c-.08.24-.2.4-.44.4l-.14,0,0-.18h.08c.12,0,.19-.09.23-.21l0-.07L31.47,28h.24l.21.57c0,.1.06.21.1.32h0l.09-.32L32.3,28h.22Z"/><path class="cls-7" d="M32.73,28.82V27.47H33v1.36c0,.07,0,.09,0,.09h0l0,.17-.12,0C32.79,29.11,32.73,29,32.73,28.82Z"/><path class="cls-7" d="M33.3,27.62a.14.14,0,0,1,.15-.14.14.14,0,1,1,0,.28A.14.14,0,0,1,33.3,27.62Zm0,.35h.23v1.11h-.23Z"/><path class="cls-7" d="M33.91,28h.2v.15h0a.53.53,0,0,1,.37-.18c.24,0,.34.16.34.44v.7h-.23v-.67c0-.19-.06-.27-.19-.27a.38.38,0,0,0-.27.15v.79h-.24Z"/><path class="cls-7" d="M35.11,27.48H35v-.09h.39v.09h-.14v.42h-.11Z"/><path class="cls-7" d="M35.44,27.39h.11l.09.24,0,.1h0l0-.1.09-.24h.11v.51h-.09v-.21c0-.05,0-.12,0-.17h0l0,.12-.08.21h-.06l-.08-.21,0-.12h0c0,.05,0,.12,0,.17v.21h-.09Z"/><polygon class="cls-7" points="49 42.53 42.87 45.82 36.74 42.53 42.87 39.23 49 42.53"/><polygon class="cls-8" points="43.14 46.32 42.87 46.47 42.6 46.32 38.29 44.01 36.74 44.84 42.87 48.14 49 44.84 47.44 44.01 43.14 46.32"/><polygon class="cls-9" points="43.14 48.59 42.87 48.73 42.6 48.59 38.29 46.27 36.74 47.11 42.87 50.41 49 47.11 47.44 46.27 43.14 48.59"/></g></g></svg>