<svg xmlns="http://www.w3.org/2000/svg" viewBox="0 0 64 64"><path fill="#6E6E6E" d="M16 16v32h32V16H16zm17.028 11.947l.022.106c.175.863.272 1.67-.46 2.066-.52.28-.792.764-1.014 1.155-.28.497-.414.684-.715.684-.158 0-.283-.085-.486-.24-.25-.192-.558-.426-1.03-.426-.692 0-1.255.606-1.255 1.35 0 .475-.422 1.353-1.022 1.353-.49 0-.652-.172-.763-.37-.296-.53-.665-1.193-1.51-1.193-.85 0-1.542.735-1.542 1.635 0 .286.06.508.11.702.044.165.083.31.083.478 0 .244-.102.428-.23.666-.152.278-.34.62-.34 1.09 0 .613.563 1.113 1.255 1.113.393 0 .654-.104.865-.186.195-.078.332-.125.56-.103.103.01.21.3.21.5 0 .323-.274.598-.59.914-.514.512-1.22 1.212-.638 2.368.22.444.758.57 1.277.69.24.057.416.095.56.132 0 0 .254.34.318.536a.616.616 0 00.013.23.92.92 0 01-.17.506c-.253.382-.548.597-.862.825-.623.458-1.14.536-1.156 1.47H18V18h21.48c.03.578-.903 1.22-.903 1.22l-.98.58c-1.054.672-2.254 1.703-2.254 2.56 0 .377.15.646.27.86.1.177.157.283.157.417 0 .19-.126.316-.41.56-.25.215-.534.453-.663.84a1.27 1.27 0 00-.064.4c0 .138.03.307.063.488.028.153.09.472.042.547 0 0-.054.04-.258.04l-.174-.006c-.37 0-.75.303-.98.582-.172.206-.363.528-.298.86zM46 46h-9.23c-.207-1.22-1.35-1.258-2.168-1.556-.288-.107-.585-.213-.858-.353-.354-.184-.35-.585-.296-.89 0 0 .102-.303.09-.37l.003-.002c-.006-.036-.013-.067-.013-.11 0-.23.213-.34.7-.574.507-.25 1.2-.577 1.2-1.39 0-.293-.13-.488-.216-.62-.053-.08-.07-.11-.07-.132 0-.172.068-.286.332-.524.283-.253.628-.6.628-1.19v-.93c0-.092.27-.195.605-.03.165.078.41.188.715.188.672 0 1.04-.494 1.3-.853.24-.332.33-.516.565-.48.235.042.15.05.324.41.12.25.26.538.52.763.454.397.98.528 1.506.57a6.126 6.126 0 001.996.005l.168-.027a4.14 4.14 0 01.98-.067s.09.022.14.006c.39.044.717.177.98.458l.1.248c.003.005-.003.01 0 .015V46z"/><path clip-rule="evenodd" fill="none" d="M16 16h32v32H16z"/><path fill="none" d="M0 0h64v64H0z"/></svg>