<svg data-name="Layer 1" xmlns="http://www.w3.org/2000/svg" viewBox="0 0 28 28"><defs><linearGradient id="b" x1="10.4" y1="4.8" x2="10.4" y2="27.2" gradientUnits="userSpaceOnUse"><stop offset="0"/><stop offset=".86" stop-opacity=".5"/></linearGradient><linearGradient id="c" x1="21.6" y1="27.2" x2="21.6" y2="6.72" gradientUnits="userSpaceOnUse"><stop offset=".52" stop-opacity=".5"/><stop offset="1" stop-opacity="0"/></linearGradient><linearGradient id="d" x1="9" y1="2" x2="9" y2="30" gradientUnits="userSpaceOnUse"><stop offset="0" stop-color="#fff"/><stop offset=".86" stop-color="#fff" stop-opacity=".5"/></linearGradient><linearGradient id="e" x1="23" y1="30" x2="23" y2="4.4" gradientUnits="userSpaceOnUse"><stop offset=".52" stop-color="#fff" stop-opacity=".5"/><stop offset="1" stop-color="#fff" stop-opacity="0"/></linearGradient><clipPath id="a" transform="translate(-2 -2)"><path d="M22.06 7a2.74 2.74 0 00.17 3.36A8.4 8.4 0 1114 7.85a2.74 2.74 0 002-2.69 2.79 2.79 0 00-3.42-2.73A14 14 0 1026.46 6.7a2.8 2.8 0 00-4.4.3z" fill="none"/></clipPath></defs><g clip-path="url(#a)"><path d="M16 24.4a8.4 8.4 0 010-16.8V4.8a11.2 11.2 0 000 22.4v-2.8z" transform="translate(-2 -2)" fill="url(#b)"/><path d="M16 27.2a11.2 11.2 0 006.27-20.48L20.7 9A8.4 8.4 0 0116 24.4v2.8z" transform="translate(-2 -2)" fill="url(#c)"/><path d="M16 27.2a11.2 11.2 0 010-22.4V2a14 14 0 000 28v-2.8z" transform="translate(-2 -2)" fill="url(#d)"/><path d="M16 30a14 14 0 007.83-25.6l-1.56 2.32A11.2 11.2 0 0116 27.2V30z" transform="translate(-2 -2)" fill="url(#e)"/></g></svg>