<svg xmlns="http://www.w3.org/2000/svg" width="16" height="16"><circle fill-rule="evenodd" clip-rule="evenodd" fill="#F8F8F8" cx="6" cy="6" r="5"/><path clip-rule="evenodd" fill="none" d="M0 0h16v16H0z"/><path fill="#6D6E71" d="M10.964 11.904L9.55 10.49l.919-.92 1.414 1.415z"/><path fill="#6D6E71" d="M14.9 15.8c-.3.3-.7.3-.9 0l-3.1-3.1c-.3-.3-.3-.7 0-.9l.9-.9c.3-.3.7-.3.9 0l3.1 3.1c.3.3.3.7 0 .9l-.9.9zm-4.7-14C7.9-.5 4.1-.5 1.7 1.8c-2.3 2.3-2.3 6.1 0 8.5 2.3 2.3 6.1 2.3 8.5 0s2.4-6.2 0-8.5zM9 9c-1.7 1.7-4.4 1.7-6 0S1.3 4.7 3 3c1.7-1.7 4.4-1.7 6 0 1.7 1.7 1.7 4.3 0 6z"/></svg>