<?xml version="1.0" encoding="utf-8"?>
<!-- Generator: Adobe Illustrator 16.0.4, SVG Export Plug-In . SVG Version: 6.00 Build 0)  -->
<!DOCTYPE svg PUBLIC "-//W3C//DTD SVG 1.1//EN" "http://www.w3.org/Graphics/SVG/1.1/DTD/svg11.dtd">
<svg version="1.1" id="Layer_1" xmlns="http://www.w3.org/2000/svg" xmlns:xlink="http://www.w3.org/1999/xlink" x="0px" y="0px"
	 width="171px" height="186px" viewBox="0 0 171 186" enable-background="new 0 0 171 186" xml:space="preserve">
<path fill="#EFEFEF" d="M47.111,116.039H75.9v47.983h19.193v-47.983h28.79L85.497,77.652L47.111,116.039z M138.663,62.265
	c-3.131-22.783-21.518-40.287-43.804-40.287c-16.697,0-31.21,9.812-38.78,24.289c-2.082-0.562-4.229-0.955-6.449-0.955
	c-12.299,0-21.452,9.16-22.293,20.758C16.915,71.421,9.681,82.23,9.681,94.729c0,16.967,13.87,30.912,27.834,30.912v-11.513
	c-7.395,0-16.314-8.655-16.314-19.399c0-7.749,4.365-14.801,11.396-18.413l5.752-2.957l0.48-6.455
	c0.431-5.93,4.875-10.074,10.805-10.074c0.928,0,2.055,0.178,3.442,0.551l8.929,2.413l4.285-8.191
	c5.839-11.169,16.794-18.108,28.574-18.108c16.096,0,30.018,13.043,32.397,30.341l0.976,7.12l6.831,2.247
	c8.81,2.905,14.728,11.178,14.728,20.595c0,11.26-8.917,20.322-16.311,20.322v11.514c13.616,0,27.834-14.091,27.834-31.841
	c0-14.732-9.508-27.209-22.652-31.531L138.663,62.265z"/>
</svg>
