<?xml version="1.0" encoding="utf-8"?>
<!-- Generator: Adobe Illustrator 23.0.0, SVG Export Plug-In . SVG Version: 6.00 Build 0)  -->
<svg version="1.1" id="图层_1" xmlns="http://www.w3.org/2000/svg" xmlns:xlink="http://www.w3.org/1999/xlink" x="0px" y="0px"
     preserveAspectRatio="none meet" viewBox="0 0 480 300" style="enable-background:new 0 0 480 300;" xml:space="preserve">
<style type="text/css">
	.st0{fill:#1094E5;}
	.st1{opacity:0.8;fill:#1094E5;}
	.st2{opacity:0.65;fill:#1094E5;}
	.st3{opacity:0.35;fill:#1094E5;}
</style>
<polygon class="st0" points="0,86.7 1.1,87.8 1.1,92.3 0.6,92.7 0.6,134.6 0,134.6 "/>
<polygon class="st0" points="4.7,31.2 4.7,26.6 8,23.5 8,28.1 "/>
<polygon class="st1" points="4.7,35.9 4.7,32.2 8,29.1 8,32.8 "/>
<polygon class="st2" points="4.7,39.7 4.7,37 8,33.9 8,36.6 "/>
<polygon class="st3" points="4.7,42.8 4.7,40.9 8,37.8 8,44.1 "/>
<polygon class="st0" points="472.9,7.5 466.1,7.5 458.7,0 345,0 340.5,0 21.3,0 13.9,7.5 7.2,7.5 0,14.6 0,84.9 1.4,86.3 1.4,62.2
	3.5,60.1 3.5,22.8 4.1,23.3 4.1,25.6 7.7,22.2 7.7,18.5 22,4.4 37.8,4.4 40.6,1.3 340.5,1.3 345,1.3 439.4,1.3 442.2,4.4 458,4.4
	472.3,18.5 472.3,22.2 475.9,25.6 475.9,23.3 476.5,22.8 476.5,60.1 478.6,62.2 478.6,86.3 480,84.9 480,14.6 "/>
<polygon class="st0" points="480,86.7 478.9,87.8 478.9,92.3 479.4,92.7 479.4,134.6 480,134.6 "/>
<polygon class="st0" points="475.3,31.2 475.3,26.6 472,23.5 472,28.1 "/>
<polygon class="st1" points="475.3,35.9 475.3,32.2 472,29.1 472,32.8 "/>
<polygon class="st2" points="475.3,39.7 475.3,37 472,33.9 472,36.6 "/>
<polygon class="st3" points="475.3,42.8 475.3,40.9 472,37.8 472,44.1 "/>
<polygon class="st0" points="480,213.3 478.9,212.2 478.9,207.7 479.4,207.3 479.4,165.4 480,165.4 "/>
<polygon class="st0" points="475.3,268.8 475.3,273.4 472,276.5 472,271.9 "/>
<polygon class="st1" points="475.3,264.1 475.3,267.8 472,270.9 472,267.2 "/>
<polygon class="st2" points="475.3,260.3 475.3,263 472,266.1 472,263.4 "/>
<polygon class="st3" points="475.3,257.2 475.3,259.1 472,262.2 472,255.9 "/>
<polygon class="st0" points="478.6,213.7 478.6,237.8 476.5,239.9 476.5,277.2 475.9,276.7 475.9,274.4 472.3,277.8 472.3,281.5
	458,295.6 442.2,295.6 439.4,298.7 353.7,298.7 340.5,298.7 40.6,298.7 37.8,295.6 22,295.6 7.7,281.5 7.7,277.8 4.1,274.4
	4.1,276.7 3.5,277.2 3.5,239.9 1.4,237.8 1.4,213.7 0,215.1 0,285.4 7.2,292.5 13.9,292.5 21.3,300 340.5,300 353.7,300 458.7,300
	466.1,292.5 472.9,292.5 480,285.4 480,215.1 "/>
<polygon class="st0" points="0,213.3 1.1,212.2 1.1,207.7 0.6,207.3 0.6,165.4 0,165.4 "/>
<polygon class="st0" points="4.7,268.8 4.7,273.4 8,276.5 8,271.9 "/>
<polygon class="st1" points="4.7,264.1 4.7,267.8 8,270.9 8,267.2 "/>
<polygon class="st2" points="4.7,260.3 4.7,263 8,266.1 8,263.4 "/>
<polygon class="st3" points="4.7,257.2 4.7,259.1 8,262.2 8,255.9 "/>
</svg>
