<?xml version="1.0" encoding="utf-8"?>
<!-- Generator: Adobe Illustrator 23.0.0, SVG Export Plug-In . SVG Version: 6.00 Build 0)  -->
<svg version="1.1" id="图层_1" xmlns="http://www.w3.org/2000/svg" xmlns:xlink="http://www.w3.org/1999/xlink" x="0px" y="0px"
     preserveAspectRatio="none meet" viewBox="0 0 480 300" style="enable-background:new 0 0 480 300;" xml:space="preserve">
<style type="text/css">
	.st0{fill:#1094E5;}
	.st1{fill:none;stroke:#231815;stroke-miterlimit:10;}
	.st2{fill:none;stroke:#231815;stroke-width:3;stroke-miterlimit:10;}
</style>
<g>
	<path class="st0" d="M476.5,296.5H3.5V3.5h473V296.5z M4.5,295.5h471V4.5H4.5V295.5z"/>
</g>
<g>
	<polygon class="st0" points="5.5,13.8 2.5,13.8 2.5,2.5 13.8,2.5 13.8,5.5 5.5,5.5 	"/>
</g>
<g>
	<polygon class="st0" points="13.8,297.5 2.5,297.5 2.5,286.2 5.5,286.2 5.5,294.5 13.8,294.5 	"/>
</g>
<g>
	<polygon class="st0" points="477.5,297.5 466.2,297.5 466.2,294.5 474.5,294.5 474.5,286.2 477.5,286.2 	"/>
</g>
<g>
	<polygon class="st0" points="477.5,13.8 474.5,13.8 474.5,5.5 466.2,5.5 466.2,2.5 477.5,2.5 	"/>
</g>
</svg>
