<svg xml:space="preserve" style="enable-background:new 0 0 3000 3000;" viewBox="0 0 3000 3000" y="0px" x="0px" xmlns:xlink="http://www.w3.org/1999/xlink" xmlns="http://www.w3.org/2000/svg" id="Layer_1" version="1.1">
<style type="text/css">
	.st0{fill:none;}
	.st1{fill:#FFFFFF;stroke:#1A1A1A;stroke-width:3.5108;stroke-linecap:round;stroke-linejoin:round;stroke-miterlimit:10;}
	.st2{fill:none;stroke:#1A1A1A;stroke-width:5.2662;stroke-linecap:round;stroke-linejoin:round;stroke-miterlimit:10;}
	.st3{fill:#1C0311;stroke:#1A1A1A;stroke-width:1.7554;stroke-linecap:round;stroke-linejoin:round;stroke-miterlimit:10;}
	.st4{fill:none;stroke:#1A1A1A;stroke-width:3.5108;stroke-linecap:round;stroke-linejoin:round;stroke-miterlimit:10;}
	
		.st5{fill:none;stroke:#1A1A1A;stroke-width:3.5108;stroke-linecap:round;stroke-linejoin:round;stroke-miterlimit:10;stroke-dasharray:21.0648;}
	.st6{fill:none;stroke:#FFFFFF;stroke-width:5.2662;stroke-linecap:round;stroke-linejoin:round;stroke-miterlimit:10;}
	.st7{fill:#54CAFA;stroke:#1A1A1A;stroke-width:3.5108;stroke-linecap:round;stroke-linejoin:round;stroke-miterlimit:10;}
</style>
<g>
	<rect height="3000" width="3000" class="st0"></rect>
	<g>
		<path d="M193.4,2407.5H2068c0,0-114.1,165.5-487.4,107.3s-311.2-93.9-517.9-28.2c-206.8,65.7-444.1,137-650.6,105.1
			C205.5,2559.8,193.4,2407.5,193.4,2407.5z" class="st1"></path>
		<path d="M1086,2337.4c-49.1-105.7,45.3-304.2,166.1-387.8c149.4-103.3,417.7-19.8,440.3-6.8
			c8.6-18.3,144.3-294.6,420.8-304.9c213.9-8,312.7,61.5,396,322c7.1-2.9,113.3,3.4,181.6,69.7c82,79.4,74.3,261.6-0.3,378
			c-505.9,0-1011.8,0-1517.8,0C1118.7,2390.1,1096.3,2359.6,1086,2337.4z" class="st2"></path>
		<g>
			<g>
				<path d="M2399.1,503.4c0-56.8-46.1-102.9-102.9-102.9H851.7c-56.8,0-102.9,46.1-102.9,102.9v1.1h1650.3V503.4z" class="st3"></path>
				<rect height="85.7" width="285.9" class="st3" y="602.9" x="2113.2"></rect>
				<rect height="495.5" width="285.9" class="st1" y="688.6" x="2113.2"></rect>
				<path d="M2113.2,1184.1v328h183c56.8,0,102.9-46.1,102.9-102.9v-225.1H2113.2z" class="st3"></path>
				<path d="M2399.1,504.5v98.4h-285.9v909.2H851.7c-56.9,0-102.9-46.1-102.9-102.9V504.5H2399.1z" class="st1"></path>
				<line y2="602.9" x2="748.8" y1="602.9" x1="2113.2" class="st4"></line>
				<line y2="1512.1" x2="1025.4" y1="602.9" x1="1025.4" class="st1"></line>
				<rect height="355.3" width="857" class="st5" y="669.2" x="1117.4"></rect>
				
					<rect height="807.8" width="306.2" class="st1" transform="matrix(-1.836970e-16 1 -1 -1.836970e-16 2392.7898 -699.0839)" y="442.9" x="1392.9"></rect>
				<rect height="355.3" width="857" class="st5" y="1080.3" x="1117.4"></rect>
				
					<rect height="807.8" width="306.2" class="st1" transform="matrix(-1.836970e-16 1 -1 -1.836970e-16 2803.9094 -287.9643)" y="854.1" x="1392.9"></rect>
			</g>
			<path d="M1491,1512.1v895.5h352.3v-895.5H1491z M1667.2,1871.8c-47.7,0-86.3-38.7-86.3-86.3
				c0-47.7,38.7-86.3,86.3-86.3c47.7,0,86.3,38.7,86.3,86.3C1753.5,1833.1,1714.9,1871.8,1667.2,1871.8z" class="st1"></path>
		</g>
		<g>
			<path d="M2272.4,2406c40.3,1.7,82.1,3.1,119.4-12.3s68.8-52.6,64.1-92.6c-2.5-21.3-14.5-40.1-23-59.8
				c-8.5-19.7-13.3-43.6-2-61.8c15.5-24.9,53.3-27.4,70-51.4c15.1-21.7,7.1-51.7-5.6-74.9c-7.2-13-16.1-25.8-29.2-33
				c-13-7.2-31-7.1-41.4,3.5c-10.7,11-10.3,28.7-18.5,41.6c-8,12.6-23.1,18.9-37.9,20.5s-29.7-1-44.5-2.3
				c-74.9-6.7-156.4,22.5-195.9,86.5c-16.8,27.2-25.2,58.8-38.9,87.7c-13.7,28.9-35.2,57-66,65.7c-11.9,3.3-24.4,3.6-36.5,6.1
				c-12.1,2.5-24.5,7.9-31,18.4c-11.3,18.3,1.5,43.7,20.6,53.6c19.1,9.9,42.2,2.4,63.2,7C2044.4,2409.6,2272.4,2406,2272.4,2406z" class="st3"></path>
			<path d="M2113.3,2408.7c34.8-16.7,78.7-56.7,102.9-86.8c23.3-29,40.1-62.6,62.1-92.5c22-30,51.2-57.2,87.5-65" class="st6"></path>
			<path d="M2278.4,2180.2c0,0-9.4,15.3-0.1,49.2" class="st6"></path>
			<path d="M2298,2275.7c0,0-10.4,13.8-58.8,13.8" class="st6"></path>
			<path d="M2375.7,2193.3c0,0-28.7,12.6-58.4-5.2" class="st6"></path>
			<path d="M1874,2141.1c2-22.4,5.9-45.4,18.2-64.3c12.2-18.9,34.6-32.7,56.8-28.9c24.6,4.2,46.5,28.6,70.2,20.8
				c15-4.9,23.3-21.6,24-37.3c0.7-15.7-4.5-31-8.4-46.3c-5.2-20.3-8.2-41.7-4-62.2s16.3-40.3,35.1-49.6
				c28.7-14.2,64.7-0.3,86.6,23.1c7.9,8.4,14.6,18.1,23.4,25.6c8.8,7.5,20.5,12.8,31.8,10.4c11.8-2.6,20.6-13.2,24-24.9
				c3.4-11.6,2.2-24.1,0.1-36c-2.8-16-6-35.6,6.7-45.7c8.5-6.8,20.6-5.9,31.3-4.2c24.9,4.1,49.8,11.4,70.2,26.2
				c20.4,14.9,35.6,38.4,35.7,63.6s-17.7,50.8-42.5,55.1c-16.4,2.9-34.7-2.9-49.2,5.3c-15.2,8.7-19,29.9-13.9,46.7
				s16.9,30.5,27,44.9c10.1,14.4,19,31.1,17.1,48.6c-2.5,23.1-24.4,40.7-47.4,44.4c-23,3.7-46.3-3.9-67.1-14.4
				c-11.8-6-24.4-13.1-37.3-10.6c-19.1,3.7-28.2,26.8-26.6,46.2s10.2,37.7,11.8,57.1c3.7,45-31.9,85.7-73.7,102.9
				c-41.8,17.1-88.5,15.9-133.6,14.5c-20.2-25.6-55.1-55.8-61.8-88.7C1870.5,2224.1,1870.5,2180.8,1874,2141.1z" class="st1"></path>
			<path d="M1906.5,2259c55.8-27.6,104-70.5,137.7-122.7c21.3-33,36.9-69.5,58.4-102.4c21.5-32.9,50.4-63.2,88-74.9" class="st1"></path>
			<path d="M2101.9,1970.7c0,0-7.9,43.3-4.4,71.2" class="st1"></path>
			<path d="M2219.2,2015.3c-2-1.3-75.5,20.2-112.6,12.6" class="st1"></path>
			<path d="M2101.9,2143.5c0,0-40.6,36.4-78,20.9" class="st1"></path>
			<path d="M1965.9,2136.2c0,2-21.2,53.5,5.4,81.2" class="st1"></path>
		</g>
		<path d="M284.4,2407.7c595.1,0,1190.2,0,1785.3,0c-37.2-190.4-195.6-332.7-383.2-347.8
			c-170.7-13.8-335.8,80.1-415,236.8c-16.4-24.1-72.4-140.8-334-140.8c-251,0-329.9,44-375.1,73.5
			c-54.8-117.8-226.3-156.4-292.1-76.5C211.7,2224,215.2,2335,284.4,2407.7z" class="st1"></path>
		<path d="M42,2407.6c10.3,0,2648.8,0,2648.8,0" class="st2"></path>
		<g>
			<line y2="2407.6" x2="619.9" y1="400.4" x1="1872" class="st2"></line>
			<line y2="2407.6" x2="919.9" y1="400.4" x1="2172" class="st2"></line>
			<line y2="2111.6" x2="1099.3" y1="2042.5" x1="847.7" class="st2"></line>
			<line y2="1772.5" x2="1310.4" y1="1703.4" x1="1058.8" class="st2"></line>
			<line y2="1433.1" x2="1521.9" y1="1363.9" x1="1270.3" class="st2"></line>
			<line y2="1096" x2="1733.3" y1="1026.9" x1="1481.7" class="st2"></line>
			<line y2="757.4" x2="1944.1" y1="688.3" x1="1692.4" class="st2"></line>
		</g>
		<g>
			<path d="M1168.5,984.9c0,0,49.8,17.2,104.1,83.5c54.3,66.3,150.4,31.5,182.4-23.4c32-54.9,84.1-160.7,134.4-142.4
				c26.3,11.8,45,41.2,27.1,46.9s-38.1-13.7-43.5-5.7s25.2,14.5,19.8,23.3c-5.3,8.8-26.3-9.1-34.7,15.6
				c-8.4,24.8-56.4,196.7-167.7,227.2c-111.3,30.5-171.6-51.8-173.8-57.2s-57.9-161.9-57.9-161.9L1168.5,984.9z" class="st1"></path>
			<path d="M359.6,2358.2c-2.5-4-3.1-8.2-1.4-12.4c6.3-14.9-88.1-41.7-88.1-41.7s-7,9.3-15.2,22.9
				C278,2358,319,2363.5,359.6,2358.2z" class="st3"></path>
			<path d="M406.8,2383.6c-22.2-5.8-40.8-15-47.2-25.3c-40.6,5.2-81.6-0.2-104.7-31.3c-13.5,22.4-30.3,56.4-24.2,79.5
				c9.7,37.2,204.7,41.2,224.2,30.3C474.3,2425.9,437.7,2391.6,406.8,2383.6z" class="st1"></path>
			<path d="M741.4,1533.8c0,0-110.4,288.2-172.9,386.6s-310.3,356.8-307.3,378.9c3,22.1,37.4,36.6,72.4,46.5
				s48.8,18.3,135-67.9s417.1-344.6,510.1-588.6C966.5,1553.6,741.4,1533.8,741.4,1533.8z" class="st1"></path>
			<path d="M985.5,1982.5c8.8,1.5,17.5,2.9,26.2,3.8c3.8-6.3,8.2-11,8.2-11l-36-52.9c0,0-14.4,12.1-29.8,28.1
				C958.7,1966.4,970.2,1980,985.5,1982.5z" class="st3"></path>
			<path d="M1098.8,2082.8c-5.1-19.4-26.1-58.9-90.3-74.3c-4.2-6.6-0.9-15.3,3.1-22.1c-8.7-0.8-17.4-2.2-26.2-3.8
				c-15.2-2.5-26.8-16.1-31.4-32c-16,16.6-33.1,37.4-36,52.8c-5.7,30.3,50.9,76.6,102.9,87.5S1103.9,2102.2,1098.8,2082.8z" class="st1"></path>
			<path d="M1085.1,1705.8c-67.4,77.4-115.5,220.7-114.8,223c0,0,27.1,64,53.8,53.8c26.7-10.3,118.9-82.7,118.9-82.7
				s223-177.7,250.5-295.8c27.4-118.2-24.4-208.9-240.2-174.6c-66.3-3-224.2-51.1-224.2-51.1l-135-86.2c0,0-61.6,105.5-65.6,146.6
				c0,0-45,269.7,143.3,285.8s278.3-47.3,278.3-47.3" class="st1"></path>
			<path d="M728.6,1438.7c0,0,308.6,20.5,377.7,8.6c52.3-8.6,38.4-17.9,38.4-17.9l-382.3-28.2L728.6,1438.7z" class="st3"></path>
			<path d="M1171.6,911.1c-16.3-9.2-22.6-17.8-23.1-18.4L1171.6,911.1z" class="st1"></path>
			<path d="M1295.5,810.4l-16.3,49.2c0,0-51.2,80.6-94.7,57.8c-4.9-2.1-9.2-4.2-12.9-6.3l1.5,1.2c0,0,0,0-21.7,38.3
				c7,12.3,31.5,39.2,34.6,42.5c0.1,0.1,0.2,0.2,0.2,0.2c0,0.1,0.1,0.1,0.1,0.1s-61.2,21.8-97.2,9.8c-36-12-55.5-48-55.5-48
				l89.8-101.2l33.2-75.5c0,0,90.3,2.3,103.5,8C1273.2,792.2,1295.5,810.4,1295.5,810.4z" class="st1"></path>
			<path d="M1153.3,896.9c0,0,13.1,27.2,13.4,26.7c0.3-0.5,5-10,5-10L1153.3,896.9z" class="st3"></path>
			<path d="M757.1,1212.1c-13.4-9.3-18.9-26.4-21.1-42.5c-2.2-16.1-2.1-32.9-7.7-48.1c-9.8-26.4-35-43.6-51.3-66.5
				c-32.1-45-23.6-114.1,18.5-150c34.4-29.4,83.4-35.3,128.5-31.5c45.1,3.8,89.4,16,134.7,17.4c45.3,1.5,94.2-9.9,123.6-44.4
				c16.8-19.6,25.6-44.9,41.7-65.2c24-30.3,64.1-46.9,102.4-42.6c38.4,4.4,73.7,29.6,90.2,64.5c4.9,10.4,8.3,21.8,6.8,33.2
				c-1.5,11.4-8.8,22.4-19.7,25.9c-14.1,4.5-28.8-4.2-41.1-12.6c-17.9-12.2-35.8-24.5-53.7-36.7c-10.1-6.9-21.2-14.1-33.4-13
				c-11.8,1-22.3,10.8-24.1,22.5s5.2,24.2,16.2,28.7c0,0-84.6,76.4-106.4,89S790,1243.3,790,1243.3L757.1,1212.1z" class="st3"></path>
			<path d="M1238.3,1127.8c0,161.3-76.6,306.5-76.6,306.5s-141.8,14.9-172.7-10.3c-30.9-25.2-94.2-19.8-121.6-41.2
				c-27.5-21.3-54.9-86.9-54.9-86.9s84.6-312.6,221.1-340.8c0,0,19.4,36,55.5,48c36,12,97.2-9.8,97.2-9.8s0,0-0.1-0.1
				C1214.3,1019.5,1238.3,1061.3,1238.3,1127.8z" class="st7"></path>
			<polygon points="550.6,1453.5 588.7,1154.9 1081.4,1220.6 1026.1,1524" class="st1"></polygon>
			<polygon points="597.8,1166.7 562.4,1444.6 1017.6,1512.1 1069,1229.6" class="st1"></polygon>
			<path d="M999.1,968.6c0,0-96.8,31.9-181.2,162.4c16.9,31.7,48.7,56.3,83.6,65.4c17.6-17.5,37.7-34.1,60.4-49.2" class="st7"></path>
			<path d="M901.5,1196.4c-34.9-9.1-66.7-33.7-83.6-65.4c-6.3,9.8-12.6,20.1-18.8,31.1
				c-88.1,156.7-107.5,259.6,68.6,379.1c40,20.6,98.9-15.9,86.6-38.5c-23.4-3.5-53.5,2.2-49.8-7.4c3.7-9.6,39.2-11.6,24.6-28.4
				c-13.4-12.3-36.6,5.1-58,2.6c-21.4-2.6-65.8-54-55.5-119.8C823.3,1301.2,852.3,1245.4,901.5,1196.4z" class="st1"></path>
			<path d="M1155.2,895.8c0,0,12.3,13.1,16.4,15.3" class="st7"></path>
		</g>
		<circle r="60.1" cy="1458.6" cx="2624.4" class="st1"></circle>
		<circle r="42.5" cy="2022.4" cx="193.4" class="st1"></circle>
		<path d="M518.9,833.5v-39.9h-41.2c-1.6-5.9-4-11.5-6.9-16.7l29.1-29.1l-28.2-28.2l-29.1,29.1
			c-5.2-2.9-10.8-5.3-16.7-6.9v-41.2h-39.9v41.2c-5.9,1.6-11.5,4-16.7,6.9l-29.1-29.1l-28.2,28.2l29.1,29.1
			c-2.9,5.2-5.3,10.8-6.9,16.7h-41.2v39.9h41.2c1.6,5.9,4,11.5,6.9,16.7l-29.1,29.1l28.2,28.2l29.1-29.1c5.2,2.9,10.8,5.3,16.7,6.9
			v41.2h39.9v-41.2c5.9-1.6,11.5-4,16.7-6.9l29.1,29.1l28.2-28.2l-29.1-29.1c2.9-5.2,5.3-10.8,6.9-16.7H518.9z M440.5,833.5
			c-3.5,6.1-8.5,11.1-14.6,14.6c-3,1.7-6.2,3.1-9.6,4c-3.3,0.9-6.8,1.4-10.3,1.4c-3.6,0-7-0.5-10.3-1.4c-3.4-0.9-6.6-2.3-9.6-4
			c-6.1-3.5-11.1-8.5-14.6-14.6c-1.7-3-3.1-6.2-4-9.6c-0.9-3.3-1.3-6.8-1.3-10.3c0-3.6,0.5-7,1.4-10.3c0.9-3.4,2.3-6.7,4-9.6
			c3.5-6.1,8.5-11.1,14.6-14.6c3-1.7,6.2-3.1,9.6-4c3.3-0.9,6.8-1.4,10.3-1.4c3.6,0,7,0.5,10.3,1.4c3.4,0.9,6.7,2.3,9.6,4
			c6.1,3.5,11.1,8.6,14.6,14.6c1.7,3,3.1,6.2,4,9.6c0.9,3.3,1.4,6.8,1.4,10.3c0,3.6-0.5,7-1.3,10.3
			C443.6,827.2,442.2,830.5,440.5,833.5z" class="st1"></path>
		<g>
			<rect height="152.1" width="152.1" class="st1" y="824.4" x="2576.6"></rect>
			<line y2="950.5" x2="2652.6" y1="850.4" x1="2652.6" class="st1"></line>
			<line y2="900.4" x2="2701.2" y1="900.4" x1="2602.7" class="st1"></line>
		</g>
		<circle r="27.5" cy="552.7" cx="896.9" class="st1"></circle>
		<path d="M1508.7,572.2h-471.9c-6.3,0-11.4-5.1-11.4-11.4v-17.2c0-6.3,5.1-11.4,11.4-11.4h471.9
			c6.3,0,11.4,5.1,11.4,11.4v17.2C1520.1,567.1,1515,572.2,1508.7,572.2z" class="st1"></path>
		<g>
			<g>
				<rect height="148.7" width="229.4" class="st1" y="1142.2" x="2728.6"></rect>
				<polygon points="2843.3,1214.5 2728.6,1142.2 2958,1142.2" class="st1"></polygon>
			</g>
			<line y2="1196" x2="2814.1" y1="1290.9" x1="2728.6" class="st1"></line>
			<line y2="1290.9" x2="2958" y1="1196" x1="2875.8" class="st1"></line>
		</g>
	</g>
</g>
</svg>
