<svg xmlns="http://www.w3.org/2000/svg" viewBox="0 0 32 32"><path d="M23 24a2.977 2.977 0 002-.78V24h1v-9h-1v3.78A2.995 2.995 0 1023 24zm0-5a2 2 0 11-2 2 2.002 2.002 0 012-2zm-6.75 4.993a3.212 3.212 0 001.75-.546v.403h1v-4.2c0-.842-.713-1.75-2.28-1.75a2.318 2.318 0 00-1.895.733l.782.623a1.442 1.442 0 011.114-.356c.944 0 1.279.405 1.279.75v.343h-1.5c-1.465 0-2.488.825-2.488 2.006a2.08 2.08 0 002.238 1.994zm.25-3H18v.792c0 .61-.867 1.208-1.75 1.208-.596 0-1.238-.311-1.238-.994 0-.695.747-1.006 1.488-1.006zM28 13V8.699L20.3 1H4v12H1v15h3v3h24v-3h3V13zM20 2l7 7h-7zM5 2h14v8h8v3H5zm22 28H5v-2h22zm3-3H2V14h28zM8.889 23.214a3.1 3.1 0 114.384-4.385l-.707.707a2.1 2.1 0 100 2.97l.707.708a3.104 3.104 0 01-4.384 0zM4.5 23.5a1 1 0 111 1 1.002 1.002 0 01-1-1z"/></svg>