<svg xmlns="http://www.w3.org/2000/svg" viewBox="0 0 32 32"><path d="M31.113 13h-3V8.699L20.413 1h-16.3v12h-3v15h3v3h24v-3h3zm-11-11l7 7h-7zm-15 0h14v8h8v3h-22zm22 28h-22v-2h22zm3-3h-28V14h28zm-21.15-3.731a3.179 3.179 0 014.496-4.496l-.707.707a2.179 2.179 0 10-3.081 3.081 2.229 2.229 0 003.08 0l.708.707a3.177 3.177 0 01-4.495 0zm9.117-.808a.838.838 0 00-.04-.684 1.334 1.334 0 00-.947-.477c-1.289-.198-1.953-.784-1.974-1.743a1.665 1.665 0 01.48-1.202 1.81 1.81 0 011.3-.555 2.108 2.108 0 011.903 1.102l-.852.526a1.122 1.122 0 00-1.051-.628.798.798 0 00-.58.248.672.672 0 00-.2.478c.004.205.013.615 1.126.785a2.187 2.187 0 011.652.952 1.826 1.826 0 01.126 1.53A2.134 2.134 0 0116.92 24.1a2.32 2.32 0 01-2.146-1.24l.863-.505a1.343 1.343 0 001.283.745 1.164 1.164 0 001.16-.64zm4.074 1.523L19.78 18h1.076l1.767 4.453L24.417 18h1.078l-2.412 5.986zm-16.54.516a1 1 0 111-1 1.002 1.002 0 01-1 1z"/></svg>