<svg xmlns="http://www.w3.org/2000/svg" viewBox="0 0 32 32"><path d="M17 22.22a3 3 0 100-4.44V17h-1v9h1zM19 18a2 2 0 11-2 2 2.002 2.002 0 012-2zm9-5V8.699L20.3 1H4v12H1v15h3v3h24v-3h3V13zM20 2l7 7h-7zM5 2h14v8h8v3H5zm22 28H5v-2h22zm3-3H2V14h28zm-7.577-4l2.444-3.143L22.645 17h1.266l1.589 2.043L27.09 17h1.265l-2.222 2.857L28.578 23H27.31l-1.81-2.329L23.689 23zM11 23a2.978 2.978 0 002.01-.79v.637a2.237 2.237 0 01-3.935 1.493l-.75.662a3.252 3.252 0 002.436 1.098 3.12 3.12 0 003.25-3.25V17h-1v.79A2.995 2.995 0 1011 23zm0-5a2 2 0 11-2 2 2.002 2.002 0 012-2zm-6.5 5.5a1 1 0 111 1 1.002 1.002 0 01-1-1z"/></svg>