<svg xmlns="http://www.w3.org/2000/svg" viewBox="0 0 32 32"><path d="M19.5 16a1.5 1.5 0 111.5-1.5 1.502 1.502 0 01-1.5 1.5zm.5-1.5a.5.5 0 10-.5.5.5.5 0 00.5-.5zm4 9.5H8v1h16zM8 21.32l1-.96a.485.485 0 01.667 0 .485.485 0 00.666 0l3.84-3.243a.488.488 0 01.64.009c.753.672 2.486 2.18 3.251 2.832a.488.488 0 00.652-.015l1.79-1.684a.49.49 0 01.696.025L24 21.32V23H8zM23 22v-.29l-2.185-2.37-1.414 1.331a1.488 1.488 0 01-1.985.049c-.672-.573-2.085-1.8-2.937-2.553l-3.453 2.914a1.486 1.486 0 01-1.63.285l-.396.38V22zM20.3 1H4v30h24V8.699zM27 30H5V2h14v8h8zM20 9V2l7 7z"/></svg>