<svg xmlns="http://www.w3.org/2000/svg" viewBox="0 0 32 32"><path d="M20.3 1H4v30h24V8.699zM27 30H5V2h14v8h8zM20 9V2l7 7zM8.916 28.052a2.35 2.35 0 01-.41-.034 1.579 1.579 0 01-1.24-.943c-.707-1.695.773-2.972 3.212-4.369a14.028 14.028 0 012.517-1.053 103.91 103.91 0 001.992-5.82 7.936 7.936 0 01-.76-1.19c-1.42-2.72-1.577-4.965-.42-6.003a2.058 2.058 0 011.37-.539 1.847 1.847 0 01.615.105 2.114 2.114 0 011.327 1.759c.204 1.207-.579 4.147-1.064 5.792a39.292 39.292 0 003.722 4.356 22.562 22.562 0 013.794-.437l.23.004a2.34 2.34 0 012.061 1.406 2.251 2.251 0 01-.175 2.322 1.792 1.792 0 01-1.454.65 2.926 2.926 0 01-.597-.066c-1.331-.28-3.046-1.722-4.251-2.884a56.048 56.048 0 00-5.726 1.384 17.044 17.044 0 01-2.253 4.423 3.588 3.588 0 01-2.49 1.137zm3.53-5.146a10.492 10.492 0 00-1.47.667c-3.044 1.744-3.035 2.523-2.788 3.116a.588.588 0 00.49.343 1.327 1.327 0 00.245.022 2.61 2.61 0 001.762-.832 12.37 12.37 0 001.761-3.316zm8.205-1.959a8.198 8.198 0 003.19 2.067 1.927 1.927 0 00.39.043.816.816 0 00.675-.274 1.29 1.29 0 00.047-1.281 1.357 1.357 0 00-1.192-.823l-.219-.004a22.182 22.182 0 00-2.891.272zm-4.948-4.036a76.705 76.705 0 01-1.53 4.383 48.435 48.435 0 014.387-1.012 35.776 35.776 0 01-2.857-3.37zM15.17 9.1a1.052 1.052 0 00-.696.285c-.586.526-.77 2.097.64 4.794q.103.198.233.42a14.053 14.053 0 00.785-4.47 1.142 1.142 0 00-.674-.98.865.865 0 00-.288-.049z"/></svg>