<svg xmlns="http://www.w3.org/2000/svg" viewBox="0 0 32 32"><path d="M15 14.57v8.86a.34.34 0 01-.538.277L11.112 21H8.918A.917.917 0 018 20.083v-2.166A.917.917 0 018.917 17h2.195l3.35-2.707a.34.34 0 01.538.277zm-1 7.48v-6.098L11.466 18H9v2h2.466zm4.304 1.415l.032-.038A6.739 6.739 0 0020 19a6.485 6.485 0 00-1.734-4.432l-.682.663A5.732 5.732 0 0119 19a6.08 6.08 0 01-1.41 3.84zM28 8.7V31H4V1h16.3zM27 10h-8V2H5v28h22zm0-1l-7-7v7zm-5.69 17.095l.033-.038A10.727 10.727 0 0024 19a10.468 10.468 0 00-2.728-7.062l-.684.664A9.728 9.728 0 0123 19a10.07 10.07 0 01-2.407 6.468z"/></svg>