<svg xmlns="http://www.w3.org/2000/svg" width="16" height="16" viewBox="0 0 16 16">
<path fill="#FFF" d="M8.5099 4.8923a3.1433 3.1433 0 0 0-.5123-.0423c-1.5484 0-2.8541 1.11-3.1058 2.6402-.281 1.7134.8846 3.3357 2.5983 3.6175.1727.0285.3438.0423.5123.0423 1.5484 0 2.8541-1.11 3.1058-2.6402.281-1.7135-.8846-3.3357-2.5983-3.6175zm1.6114 3.4557c-.1922 1.1716-1.2978 1.9655-2.4693 1.7733-1.1716-.1922-1.9655-1.2978-1.7733-2.4694.1922-1.1716 1.2978-1.9654 2.4694-1.7732 1.1716.1922 1.9654 1.2978 1.7732 2.4693zm3.7093 1.593L16 9.1371l-.0085-2.3328-2.1794-.7893a6.1574 6.1574 0 0 0-.3176-.7638l.9665-2.104-1.6556-1.6435-2.0992.9829c-.246-.1206-.4997-.2293-.7653-.3173L9.1372 0 6.8044.0085l-.7893 2.1793a6.1613 6.1613 0 0 0-.7638.3176l-2.104-.9665-1.6435 1.6556.9829 2.0993c-.1206.246-.2293.4997-.3173.7653L0 6.8628l.0085 2.3327 2.1794.7894c.0896.2619.1941.5174.3176.7638l-.9664 2.104 1.6554 1.6435 2.0993-.9829c.246.1206.4997.2293.7653.3173L6.8628 16l2.3328-.0084.7893-2.1794a6.1537 6.1537 0 0 0 .7638-.3176l2.104.9664 1.6435-1.6555-.9829-2.0992c.1206-.246.2293-.4997.3173-.7653zm-1.1958 3.3197l-1.9053-.876-.4287.2159a5.223 5.223 0 0 1-.6397.2656l-.453.1553-.715 1.9726-.9355.003-.7275-1.963-.4541-.1513c-.2237-.0752-.4365-.167-.6436-.2676l-.4297-.21-1.8994.8887-.664-.6591.876-1.9053-.2159-.4287a5.223 5.223 0 0 1-.2656-.6397l-.1553-.453-1.9726-.715-.003-.9355 1.963-.7275.1513-.4541c.0752-.2237.167-.4365.2676-.6436l.21-.4297-.8887-1.8994.6591-.664 1.9053.876.4287-.2159a5.223 5.223 0 0 1 .6397-.2656l.453-.1553.715-1.9726.9345-.003.7275 1.963.4551.1513c.2246.0752.4365.167.6436.2676l.4297.21 1.8994-.8887.664.6591-.876 1.9053.2159.4287a5.223 5.223 0 0 1 .2656.6397l.1553.453 1.9726.715.003.9355-1.962.7265-.1523.4541c-.0752.2237-.167.4375-.2676.6446l-.21.4297.8887 1.8994-.6591.664z"/>
</svg>
