<?xml version="1.0" standalone="no"?><!DOCTYPE svg PUBLIC "-//W3C//DTD SVG 1.1//EN" "http://www.w3.org/Graphics/SVG/1.1/DTD/svg11.dtd"><svg t="1657100581155" class="icon" viewBox="0 0 1024 1024" version="1.1" xmlns="http://www.w3.org/2000/svg" p-id="1229" xmlns:xlink="http://www.w3.org/1999/xlink" width="128" height="128"><defs><style type="text/css">@font-face { font-family: feedback-iconfont; src: url("//at.alicdn.com/t/font_1031158_u69w8yhxdu.woff2?t=1630033759944") format("woff2"), url("//at.alicdn.com/t/font_1031158_u69w8yhxdu.woff?t=1630033759944") format("woff"), url("//at.alicdn.com/t/font_1031158_u69w8yhxdu.ttf?t=1630033759944") format("truetype"); }
</style></defs><path d="M227.968 446.72A42.666667 42.666667 0 0 1 167.68 386.389333l270.506667-270.464a104.533333 104.533333 0 0 1 147.754666 0l270.464 270.506667a42.666667 42.666667 0 1 1-60.373333 60.288L554.666667 205.397333v481.152a42.666667 42.666667 0 1 1-85.333334 0V205.397333L227.968 446.72z" p-id="1230"></path><path d="M128 643.84a42.666667 42.666667 0 0 1 42.666667 42.666667V810.666667a42.666667 42.666667 0 0 0 42.666666 42.666666h597.333334a42.666667 42.666667 0 0 0 42.666666-42.666666v-124.16a42.666667 42.666667 0 1 1 85.333334 0V810.666667a128 128 0 0 1-128 128H213.333333a128 128 0 0 1-128-128v-124.16a42.666667 42.666667 0 0 1 42.666667-42.666667z" p-id="1231"></path></svg>