<?xml version="1.0" standalone="no"?><!DOCTYPE svg PUBLIC "-//W3C//DTD SVG 1.1//EN" "http://www.w3.org/Graphics/SVG/1.1/DTD/svg11.dtd"><svg t="1657100563884" class="icon" viewBox="0 0 1024 1024" version="1.1" xmlns="http://www.w3.org/2000/svg" p-id="907" xmlns:xlink="http://www.w3.org/1999/xlink" width="128" height="128"><defs><style type="text/css">@font-face { font-family: feedback-iconfont; src: url("//at.alicdn.com/t/font_1031158_u69w8yhxdu.woff2?t=1630033759944") format("woff2"), url("//at.alicdn.com/t/font_1031158_u69w8yhxdu.woff?t=1630033759944") format("woff"), url("//at.alicdn.com/t/font_1031158_u69w8yhxdu.ttf?t=1630033759944") format("truetype"); }
</style></defs><path d="M512 241.664a40.96 40.96 0 0 1 40.96 40.96v229.376a40.96 40.96 0 0 1-40.96 40.96H389.12a40.96 40.96 0 1 1 0-81.92h81.92V282.624a40.96 40.96 0 0 1 40.96-40.96z" p-id="908"></path><path d="M512 921.6c226.22208 0 409.6-183.37792 409.6-409.6s-183.37792-409.6-409.6-409.6-409.6 183.37792-409.6 409.6 183.37792 409.6 409.6 409.6z m0-81.92a327.68 327.68 0 1 1 0-655.36 327.68 327.68 0 0 1 0 655.36z" p-id="909"></path></svg>