<?xml version="1.0" standalone="no"?><!DOCTYPE svg PUBLIC "-//W3C//DTD SVG 1.1//EN" "http://www.w3.org/Graphics/SVG/1.1/DTD/svg11.dtd"><svg t="1657100593330" class="icon" viewBox="0 0 1024 1024" version="1.1" xmlns="http://www.w3.org/2000/svg" p-id="1708" xmlns:xlink="http://www.w3.org/1999/xlink" width="128" height="128"><defs><style type="text/css">@font-face { font-family: feedback-iconfont; src: url("//at.alicdn.com/t/font_1031158_u69w8yhxdu.woff2?t=1630033759944") format("woff2"), url("//at.alicdn.com/t/font_1031158_u69w8yhxdu.woff?t=1630033759944") format("woff"), url("//at.alicdn.com/t/font_1031158_u69w8yhxdu.ttf?t=1630033759944") format("truetype"); }
</style></defs><path d="M280.28928 830.58688L222.4128 772.66944 801.5872 193.41312l57.91744 57.91744-76.22656 76.26752C840.41728 375.808 887.88992 438.8864 921.6 512c-78.6432 170.8032-232.57088 286.80192-409.6 286.80192a403.94752 403.94752 0 0 1-164.70016-35.2256l-67.01056 67.01056zM829.76768 512c-28.22144-50.54464-63.8976-93.184-104.61184-126.23872l-62.2592 62.2592a163.84 163.84 0 0 1-214.87616 214.87616l-37.39648 37.39648a319.8976 319.8976 0 0 0 101.376 16.5888c127.63136 0 246.49728-77.2096 317.76768-204.88192z m-236.01152 5.12l-76.5952 76.63616a81.92 81.92 0 0 0 76.5952-76.5952zM634.75712 244.40832A401.48992 401.48992 0 0 0 512 225.19808c-177.02912 0-330.9568 116.03968-409.6 286.80192a541.24544 541.24544 0 0 0 108.1344 156.672l57.87648-57.87648A447.2832 447.2832 0 0 1 194.23232 512C265.50272 384.36864 384.36864 307.11808 512 307.11808c18.6368 0 37.0688 1.6384 55.21408 4.87424l67.584-67.584z" p-id="1709"></path><path d="M530.0224 349.14304a163.84 163.84 0 0 0-180.92032 180.92032l180.96128-180.92032z" p-id="1710"></path></svg>