<?xml version="1.0" standalone="no"?><!DOCTYPE svg PUBLIC "-//W3C//DTD SVG 1.1//EN" "http://www.w3.org/Graphics/SVG/1.1/DTD/svg11.dtd"><svg t="1657100590170" class="icon" viewBox="0 0 1024 1024" version="1.1" xmlns="http://www.w3.org/2000/svg" p-id="1550" xmlns:xlink="http://www.w3.org/1999/xlink" width="128" height="128"><defs><style type="text/css">@font-face { font-family: feedback-iconfont; src: url("//at.alicdn.com/t/font_1031158_u69w8yhxdu.woff2?t=1630033759944") format("woff2"), url("//at.alicdn.com/t/font_1031158_u69w8yhxdu.woff?t=1630033759944") format("woff"), url("//at.alicdn.com/t/font_1031158_u69w8yhxdu.ttf?t=1630033759944") format("truetype"); }
</style></defs><path d="M742.07232 150.85568a40.96 40.96 0 0 1 10.0352 57.05728l-161.42336 230.56384H737.28a40.96 40.96 0 0 1 0 81.92H552.96v122.88h184.32a40.96 40.96 0 1 1 0 81.92H552.96v114.36032a40.96 40.96 0 1 1-81.92 0v-114.36032H286.72a40.96 40.96 0 1 1 0-81.92H471.04v-122.88H286.72a40.96 40.96 0 1 1 0-81.92h146.59584L271.89248 207.91296A40.96 40.96 0 1 1 338.98496 160.9728L512 407.9616l173.01504-247.07072a40.96 40.96 0 0 1 57.05728-10.07616z" p-id="1551"></path></svg>