<?xml version="1.0" standalone="no"?><!DOCTYPE svg PUBLIC "-//W3C//DTD SVG 1.1//EN" "http://www.w3.org/Graphics/SVG/1.1/DTD/svg11.dtd"><svg t="1657100598672" class="icon" viewBox="0 0 1024 1024" version="1.1" xmlns="http://www.w3.org/2000/svg" p-id="1869" xmlns:xlink="http://www.w3.org/1999/xlink" width="128" height="128"><defs><style type="text/css">@font-face { font-family: feedback-iconfont; src: url("//at.alicdn.com/t/font_1031158_u69w8yhxdu.woff2?t=1630033759944") format("woff2"), url("//at.alicdn.com/t/font_1031158_u69w8yhxdu.woff?t=1630033759944") format("woff"), url("//at.alicdn.com/t/font_1031158_u69w8yhxdu.ttf?t=1630033759944") format("truetype"); }
</style></defs><path d="M128 128a42.666667 42.666667 0 0 1 42.666667-42.666667h597.333333a42.666667 42.666667 0 1 1 0 85.333334H170.666667a42.666667 42.666667 0 0 1-42.666667-42.666667zM597.589333 427.093333a213.162667 213.162667 0 1 0 117.546667 391.04l108.074667 108.074667a42.666667 42.666667 0 0 0 60.330666-60.330667l-108.074666-108.074666a213.162667 213.162667 0 0 0-177.877334-330.709334z m-127.829333 213.162667a127.829333 127.829333 0 1 1 255.701333 0 127.829333 127.829333 0 0 1-255.701333 0zM170.666667 341.333333a42.666667 42.666667 0 0 0 0 85.333334h213.333333a42.666667 42.666667 0 0 0 0-85.333334H170.666667z" p-id="1870"></path></svg>