<?xml version="1.0" standalone="no"?><!DOCTYPE svg PUBLIC "-//W3C//DTD SVG 1.1//EN" "http://www.w3.org/Graphics/SVG/1.1/DTD/svg11.dtd"><svg t="1657684098750" class="icon" viewBox="0 0 1024 1024" version="1.1" xmlns="http://www.w3.org/2000/svg" p-id="5698" xmlns:xlink="http://www.w3.org/1999/xlink" width="128" height="128"><defs><style type="text/css">@font-face { font-family: feedback-iconfont; src: url("//at.alicdn.com/t/font_1031158_u69w8yhxdu.woff2?t=1630033759944") format("woff2"), url("//at.alicdn.com/t/font_1031158_u69w8yhxdu.woff?t=1630033759944") format("woff"), url("//at.alicdn.com/t/font_1031158_u69w8yhxdu.ttf?t=1630033759944") format("truetype"); }
</style></defs><path d="M385.150849 385.662338l-128.895105 0 0-150.377622q0-49.102897 19.436563-91.556444t53.706294-74.677323 80.815185-50.637363 101.786214-18.413586q49.102897 0 94.625375 18.413586t80.815185 50.637363 56.263736 74.677323 20.971029 91.556444l0 150.377622-123.78022 0 0-121.734266q0-64.447552-35.804196-99.74026t-97.182817-35.292707q-55.240759 0-88.999001 35.292707t-33.758242 99.74026l0 121.734266zM826.053946 447.040959q27.62038 0 47.568432 19.948052t19.948052 47.568432l0 317.122877q0 27.62038-9.718282 51.66034t-26.597403 41.942058-39.896104 28.131868-50.637363 10.22977l-516.603397 0q-27.62038 0-50.125874-10.22977t-38.361638-27.108891-24.551449-39.384615-8.695305-48.07992l0-324.283716q0-27.62038 19.436563-47.568432t47.056943-19.948052l61.378621 0 128.895105 0 255.744256 0 123.78022 0 61.378621 0z" p-id="5699"></path></svg>
