<?xml version="1.0" standalone="no"?><!DOCTYPE svg PUBLIC "-//W3C//DTD SVG 1.1//EN" "http://www.w3.org/Graphics/SVG/1.1/DTD/svg11.dtd"><svg t="1657100586233" class="icon" viewBox="0 0 1024 1024" version="1.1" xmlns="http://www.w3.org/2000/svg" p-id="1390" xmlns:xlink="http://www.w3.org/1999/xlink" width="128" height="128"><defs><style type="text/css">@font-face { font-family: feedback-iconfont; src: url("//at.alicdn.com/t/font_1031158_u69w8yhxdu.woff2?t=1630033759944") format("woff2"), url("//at.alicdn.com/t/font_1031158_u69w8yhxdu.woff?t=1630033759944") format("woff"), url("//at.alicdn.com/t/font_1031158_u69w8yhxdu.ttf?t=1630033759944") format("truetype"); }
</style></defs><path d="M458.17856 921.6c47.59552 0 91.62752-7.61856 132.13696-22.85568a313.67168 313.67168 0 0 0 106.496-66.27328 308.34688 308.34688 0 0 0 72.13056-104.52992c6.3488-14.7456 5.69344-25.88672-1.96608-33.54624-6.30784-6.30784-15.7696-6.9632-28.38528-1.96608-16.30208 6.30784-33.792 11.0592-52.4288 14.21312a362.16832 362.16832 0 0 1-60.37504 4.75136c-59.392 0-111.2064-11.71456-155.40224-35.10272a252.23168 252.23168 0 0 1-102.15424-99.81952c-24.1664-42.84416-36.29056-93.5936-36.29056-152.20736 0-22.36416 1.96608-44.8512 5.9392-67.46112 3.93216-22.60992 9.17504-40.7552 15.7696-54.43584 7.08608-14.21312 7.20896-25.23136 0.4096-33.13664-6.84032-8.15104-18.30912-9.05216-34.32448-2.74432a294.25664 294.25664 0 0 0-106.0864 71.76192 348.69248 348.69248 0 0 0-71.02464 111.616 363.88864 363.88864 0 0 0-25.23136 135.70048c0 48.128 8.27392 92.5696 24.86272 133.3248a321.86368 321.86368 0 0 0 179.07712 177.47968c41.53344 16.7936 87.12192 25.23136 136.8064 25.23136z m296.5504-360.48896c7.94624 0 12.41088-4.21888 13.43488-12.61568 3.15392-26.58304 6.5536-47.22688 10.24-61.93152 3.6864-14.99136 9.37984-26.29632 16.9984-33.91488 7.86432-7.61856 19.456-13.43488 34.69312-17.36704 15.23712-3.93216 36.29056-8.02816 63.0784-12.20608 8.97024-1.59744 13.43488-6.06208 13.43488-13.43488 0-7.3728-3.93216-11.83744-11.83744-13.39392a1128.52992 1128.52992 0 0 1-63.8976-13.43488c-15.48288-4.17792-27.19744-9.99424-35.10272-17.32608-7.86432-7.3728-13.68064-18.26816-17.32608-32.768-3.6864-14.70464-7.12704-35.34848-10.24-61.89056-1.06496-8.43776-5.57056-12.61568-13.43488-12.61568-7.90528 0-12.36992 4.096-13.43488 12.20608-3.39968 26.8288-6.9632 47.84128-10.6496 63.0784-3.39968 15.03232-9.05216 26.46016-16.95744 34.32448-7.61856 7.65952-19.16928 13.43488-34.69312 17.36704-15.52384 3.6864-36.94592 7.3728-64.3072 11.0592a15.23712 15.23712 0 0 0-8.64256 4.34176 13.14816 13.14816 0 0 0-3.15392 9.05216c0 7.3728 3.93216 11.8784 11.79648 13.43488 27.36128 4.99712 48.78336 9.58464 64.3072 13.80352 15.52384 4.17792 27.07456 10.11712 34.69312 17.73568 7.90528 7.3728 13.55776 18.432 16.9984 33.13664 3.6864 14.7456 7.20896 35.2256 10.6496 61.52192a15.19616 15.19616 0 0 0 4.3008 8.68352 13.1072 13.1072 0 0 0 9.09312 3.15392z m-188.49792-267.0592c4.5056 0 7.08608-2.33472 7.90528-7.08608 3.15392-16.30208 5.89824-29.04064 8.27392-38.25664 2.62144-9.4208 6.144-16.54784 10.6496-21.2992 4.7104-4.95616 11.83744-8.8064 21.2992-11.42784 9.70752-2.8672 23.1424-6.02112 40.22272-9.4208 4.99712-0.8192 7.49568-3.60448 7.49568-8.31488 0-4.5056-2.49856-7.08608-7.49568-7.90528a741.7856 741.7856 0 0 1-39.85408-9.4208c-9.17504-2.90816-16.13824-6.71744-20.8896-11.4688a53.82144 53.82144 0 0 1-10.6496-21.2992 1412.17792 1412.17792 0 0 1-9.05216-38.25664c-0.8192-4.99712-3.44064-7.49568-7.90528-7.49568-4.5056 0-7.20896 2.49856-8.27392 7.49568-3.44064 16.30208-6.43072 29.0816-9.09312 38.25664a47.67744 47.67744 0 0 1-10.6496 21.2992c-4.46464 4.75136-11.42784 8.56064-20.8896 11.4688-9.216 2.58048-22.36416 5.7344-39.44448 9.4208-4.99712 0.8192-7.49568 3.44064-7.49568 7.90528 0 4.7104 2.49856 7.49568 7.49568 8.27392 17.08032 3.6864 30.39232 6.9632 39.85408 9.8304 9.4208 2.6624 16.54784 6.3488 21.2992 11.0592 4.7104 4.75136 8.27392 11.8784 10.6496 21.2992 2.33472 9.216 5.12 21.95456 8.27392 38.25664 1.06496 4.75136 3.80928 7.12704 8.27392 7.12704z" p-id="1391"></path></svg>