<?xml version="1.0" standalone="no"?><!DOCTYPE svg PUBLIC "-//W3C//DTD SVG 1.1//EN" "http://www.w3.org/Graphics/SVG/1.1/DTD/svg11.dtd"><svg t="1657093864643" class="icon" viewBox="0 0 1024 1024" version="1.1" xmlns="http://www.w3.org/2000/svg" p-id="1754" xmlns:xlink="http://www.w3.org/1999/xlink" width="200" height="200"><defs><style type="text/css">@font-face { font-family: feedback-iconfont; src: url("//at.alicdn.com/t/font_1031158_u69w8yhxdu.woff2?t=1630033759944") format("woff2"), url("//at.alicdn.com/t/font_1031158_u69w8yhxdu.woff?t=1630033759944") format("woff"), url("//at.alicdn.com/t/font_1031158_u69w8yhxdu.ttf?t=1630033759944") format("truetype"); }
</style></defs><path d="M981.333333 512a469.333333 469.333333 0 1 0-762.24 366.506667l4.48 3.2a466.56 466.56 0 0 0 576 0l4.48-3.2A469.333333 469.333333 0 0 0 981.333333 512zM113.066667 512a398.933333 398.933333 0 1 1 693.76 266.026667 271.146667 271.146667 0 0 0-170.666667-188.16 196.48 196.48 0 1 0-277.333333-21.333334 192 192 0 0 0 23.04 22.613334 272.64 272.64 0 0 0-166.826667 186.666666A396.8 396.8 0 0 1 113.066667 512z m396.16 56.106667a128 128 0 1 1 125.226666-129.28v2.133333a126.72 126.72 0 0 1-125.226666 128zM277.333333 833.92c8.32-116.48 101.973333-196.266667 234.666667-196.266667s224.426667 79.786667 234.666667 196.266667a396.373333 396.373333 0 0 1-469.333334 0z" p-id="1755"></path></svg>