<?xml version="1.0" standalone="no"?><!DOCTYPE svg PUBLIC "-//W3C//DTD SVG 1.1//EN" "http://www.w3.org/Graphics/SVG/1.1/DTD/svg11.dtd"><svg t="1657100576057" class="icon" viewBox="0 0 1024 1024" version="1.1" xmlns="http://www.w3.org/2000/svg" p-id="1068" xmlns:xlink="http://www.w3.org/1999/xlink" width="128" height="128"><defs><style type="text/css">@font-face { font-family: feedback-iconfont; src: url("//at.alicdn.com/t/font_1031158_u69w8yhxdu.woff2?t=1630033759944") format("woff2"), url("//at.alicdn.com/t/font_1031158_u69w8yhxdu.woff?t=1630033759944") format("woff"), url("//at.alicdn.com/t/font_1031158_u69w8yhxdu.ttf?t=1630033759944") format("truetype"); }
</style></defs><path d="M512 670.293333a34.133333 34.133333 0 0 1-34.133333-34.133333V546.133333H387.84a34.133333 34.133333 0 0 1 0-68.266666h90.026667V387.882667a34.133333 34.133333 0 0 1 68.266666 0v90.026666h89.984a34.133333 34.133333 0 1 1 0 68.266667h-90.026666v89.941333a34.133333 34.133333 0 0 1-34.133334 34.133334z" p-id="1069"></path><path d="M256 179.2A119.466667 119.466667 0 0 0 136.533333 298.666667v426.666666A119.466667 119.466667 0 0 0 256 844.8h512a119.466667 119.466667 0 0 0 119.466667-119.466667V298.666667A119.466667 119.466667 0 0 0 768 179.2H256zM204.8 298.666667A51.2 51.2 0 0 1 256 247.466667h512A51.2 51.2 0 0 1 819.2 298.666667v426.666666a51.2 51.2 0 0 1-51.2 51.2H256A51.2 51.2 0 0 1 204.8 725.333333V298.666667z" p-id="1070"></path></svg>