<?xml version="1.0" standalone="no"?><!DOCTYPE svg PUBLIC "-//W3C//DTD SVG 1.1//EN" "http://www.w3.org/Graphics/SVG/1.1/DTD/svg11.dtd"><svg t="1657099195409" class="icon" viewBox="0 0 1024 1024" version="1.1" xmlns="http://www.w3.org/2000/svg" p-id="2682" xmlns:xlink="http://www.w3.org/1999/xlink" width="128" height="128"><defs><style type="text/css">@font-face { font-family: feedback-iconfont; src: url("//at.alicdn.com/t/font_1031158_u69w8yhxdu.woff2?t=1630033759944") format("woff2"), url("//at.alicdn.com/t/font_1031158_u69w8yhxdu.woff?t=1630033759944") format("woff"), url("//at.alicdn.com/t/font_1031158_u69w8yhxdu.ttf?t=1630033759944") format("truetype"); }
</style></defs><path d="M552.63 875.9c-11.25 0-21.29-7.13-25.06-17.75l-81.25-293.38-291.81-80.71c-12.21-4.25-19.31-14.46-19.17-25.83 0.15-11.17 7.35-21 17.94-24.46L802.7 175.06c9.33-3.21 19.73-0.71 26.85 6.33 7.17 7.08 9.71 17.38 6.69 26.92l-259.3 650.92c-3 9.29-12.83 16.5-24 16.67h-0.31z m-15.02-33.09a12.7 12.7 0 0 0-0.75 1.88l0.75-1.88zM212.74 455.98l254.1 70.29c9.25 3.25 15.15 9.25 17.75 16.96l70.69 255.21 226.77-569.25-569.31 226.79z m-43.55 17.33l-1.4 0.58c0.49-0.16 0.95-0.33 1.4-0.58z" p-id="2683"></path></svg>