<?xml version="1.0" standalone="no"?><!DOCTYPE svg PUBLIC "-//W3C//DTD SVG 1.1//EN" "http://www.w3.org/Graphics/SVG/1.1/DTD/svg11.dtd"><svg t="1657099200115" class="icon" viewBox="0 0 1024 1024" version="1.1" xmlns="http://www.w3.org/2000/svg" p-id="2842" xmlns:xlink="http://www.w3.org/1999/xlink" width="128" height="128"><defs><style type="text/css">@font-face { font-family: feedback-iconfont; src: url("//at.alicdn.com/t/font_1031158_u69w8yhxdu.woff2?t=1630033759944") format("woff2"), url("//at.alicdn.com/t/font_1031158_u69w8yhxdu.woff?t=1630033759944") format("woff"), url("//at.alicdn.com/t/font_1031158_u69w8yhxdu.ttf?t=1630033759944") format("truetype"); }
</style></defs><path d="M745.14 457.14h-42.67v-72.88c0-117.96-85.46-213.92-190.48-213.92-105.04 0-190.5 95.96-190.5 213.92v64.92h-42.67v-64.92c0-141.5 104.6-256.58 233.17-256.58s233.15 115.08 233.15 256.58v72.88z" p-id="2843"></path><path d="M787.6 896.3H236.39c-35.29 0-64-28.71-64-64V513.14c0-35.29 28.71-64 64-64H787.6c35.29 0 64 28.71 64 64V832.3c0 35.29-28.71 64-64 64zM236.39 491.8c-11.77 0-21.33 9.58-21.33 21.33V832.3c0 11.75 9.56 21.33 21.33 21.33H787.6c11.77 0 21.33-9.58 21.33-21.33V513.14c0-11.75-9.56-21.33-21.33-21.33H236.39z" p-id="2844"></path><path d="M490.66 576.93h42.67v189.46h-42.67z" p-id="2845"></path></svg>