<?xml version="1.0" standalone="no"?><!DOCTYPE svg PUBLIC "-//W3C//DTD SVG 1.1//EN" "http://www.w3.org/Graphics/SVG/1.1/DTD/svg11.dtd"><svg t="1657099223101" class="icon" viewBox="0 0 1024 1024" version="1.1" xmlns="http://www.w3.org/2000/svg" p-id="3329" xmlns:xlink="http://www.w3.org/1999/xlink" width="128" height="128"><defs><style type="text/css">@font-face { font-family: feedback-iconfont; src: url("//at.alicdn.com/t/font_1031158_u69w8yhxdu.woff2?t=1630033759944") format("woff2"), url("//at.alicdn.com/t/font_1031158_u69w8yhxdu.woff?t=1630033759944") format("woff"), url("//at.alicdn.com/t/font_1031158_u69w8yhxdu.ttf?t=1630033759944") format("truetype"); }
</style></defs><path d="M824.3 819.67l-30.17-30.17 57.06-57.04-113.43-113.41-120.4 120.38-17.54-8.63c-58.4-37.5-114.33-82.88-166.44-135-52.15-52.13-97.56-108.08-134.94-166.29l-9.27-14.46 12.5-15.29 108.42-108.42-122.1-122.08-51.94 51.96-30.17-30.17 80.17-80.21 18.63 14.75 163.83 163.83-14.77 18.63-111.09 111.08c34.1 51.13 74.71 100.33 120.9 146.5 46.17 46.17 95.35 86.79 146.44 120.83l125.85-125.83 18.6 14.75 155.48 155.46-15.42 18.63-70.2 70.2z" p-id="3330"></path><path d="M748.96 895.01l-30.17-30.17 132.4-132.38-113.43-113.41-120.4 120.38-17.54-8.63c-58.4-37.5-114.33-82.88-166.44-135-52.15-52.13-97.56-108.08-134.94-166.29l-9.27-14.46 12.5-15.29 108.42-108.42-122.1-122.08-127.36 127.37-30.17-30.17 155.58-155.63 18.63 14.75L468.5 289.41l-14.77 18.63-111.08 111.09c34.1 51.13 74.71 100.33 120.9 146.5 46.17 46.17 95.35 86.79 146.44 120.83l125.85-125.83 18.6 14.75 155.48 155.46-15.42 18.63-145.54 145.54z" p-id="3331"></path><path d="M741.13 902.84l-14.52-2.79c-66.1-18.42-133.67-49.67-200.69-92.88-58.88-37.63-115.4-83.38-167.96-135.96-52.65-52.63-98.42-109.17-136.04-168-45.98-71.38-79.44-145.79-96.73-215.13l-2.92-11.71 9.21-10.96 154.56-154.58 18.63 14.75L468.5 289.41l-14.77 18.63-111.08 111.09c34.1 51.13 74.71 100.33 120.9 146.5 46.17 46.17 95.35 86.79 146.44 120.83l125.85-125.83 18.6 14.75 155.48 155.46-15.42 18.63-153.37 153.37zM169.26 287.97c16.92 62.13 47.38 128.25 88.58 192.21 36 56.33 79.81 110.42 130.29 160.87 50.4 50.42 104.5 94.21 160.77 130.21l0.08 0.04c58.98 38 120.52 67.17 178.71 84.67l123.5-123.5-113.41-113.42-120.42 120.37-17.54-8.63c-58.4-37.5-114.33-82.88-166.44-135-52.15-52.13-97.56-108.08-134.94-166.29l-9.27-14.46 12.5-15.29 108.42-108.42-122.1-122.08-118.73 118.72z" p-id="3332"></path><path d="M741.13 902.84l-14.52-2.79c-66.13-18.42-133.71-49.67-200.75-92.92-58.81-37.58-115.31-83.33-167.9-135.92-52.65-52.63-98.42-109.17-136.04-168-45.98-71.38-79.44-145.79-96.73-215.13l-2.92-11.71 9.21-10.96 154.56-154.58 18.63 14.75L468.5 289.41l-14.77 18.63-111.08 111.09c34.1 51.13 74.71 100.33 120.9 146.5 46.17 46.17 95.35 86.79 146.44 120.83l125.85-125.83 18.6 14.75 155.48 155.46-15.27 18.46h0.02L741.13 902.84zM169.26 287.97c16.92 62.13 47.38 128.25 88.58 192.21 36 56.33 79.81 110.42 130.29 160.87 50.4 50.42 104.5 94.21 160.77 130.21 59.06 38.04 120.6 67.21 178.79 84.71l123.5-123.5-113.41-113.42-120.42 120.37-17.54-8.63c-58.4-37.5-114.33-82.88-166.44-135-52.15-52.13-97.56-108.08-134.94-166.29l-9.27-14.46 12.5-15.29 108.42-108.42-122.1-122.08-118.73 118.72z" p-id="3333"></path><path d="M617.36 739.42l-17.54-8.63c-58.4-37.5-114.33-82.88-166.44-135-52.15-52.13-97.56-108.08-134.94-166.29l-9.27-14.46 12.5-15.29 123.5-123.5 30.17 30.17-112.69 112.71c34.1 51.13 74.71 100.33 120.9 146.5 46.17 46.17 95.35 86.79 146.44 120.83L722.67 573.8l30.17 30.17-135.48 135.45z" p-id="3334"></path><path d="M728.21 900.51c-66.75-18.42-134.83-49.79-202.35-93.38-58.81-37.58-115.31-83.33-167.9-135.92-52.65-52.63-98.42-109.17-136.04-168-46.29-71.92-79.9-146.79-97.08-216.54l41.42-10.25c16.08 65.25 47.75 135.71 91.58 203.75 36 56.33 79.81 110.42 130.29 160.87 50.4 50.42 104.5 94.21 160.77 130.21 63.06 40.67 128.96 71.13 190.65 88.08l-11.34 41.18z" p-id="3335"></path></svg>