<?xml version="1.0" standalone="no"?><!DOCTYPE svg PUBLIC "-//W3C//DTD SVG 1.1//EN" "http://www.w3.org/Graphics/SVG/1.1/DTD/svg11.dtd"><svg t="1657099204015" class="icon" viewBox="0 0 1024 1024" version="1.1" xmlns="http://www.w3.org/2000/svg" p-id="3004" xmlns:xlink="http://www.w3.org/1999/xlink" width="128" height="128"><defs><style type="text/css">@font-face { font-family: feedback-iconfont; src: url("//at.alicdn.com/t/font_1031158_u69w8yhxdu.woff2?t=1630033759944") format("woff2"), url("//at.alicdn.com/t/font_1031158_u69w8yhxdu.woff?t=1630033759944") format("woff"), url("//at.alicdn.com/t/font_1031158_u69w8yhxdu.ttf?t=1630033759944") format("truetype"); }
</style></defs><path d="M666.41 514.82H379.43c-25.98 0-47.13-24.13-47.13-53.75l20.98-114.58c-0.35-25.71 20.79-49.79 46.77-49.79h245.73c25.98 0 47.13 24.08 47.13 53.71l20.27 106.75c0.36 33.53-20.79 57.66-46.77 57.66zM379.5 472.15h286.92c1.15-0.38 4.46-4.33 4.46-11.08L650.6 354.32c-0.35-10.63-3.67-14.58-4.94-14.96h-245.6c-1.15 0.38-4.46 4.33-4.46 11.04l-20.98 114.58c0.36 2.8 3.58 6.71 4.88 7.17z" p-id="3005"></path><path d="M321.74 620.62m-40.45 0a40.45 40.45 0 1 0 80.9 0 40.45 40.45 0 1 0-80.9 0Z" p-id="3006"></path><path d="M700.38 620.62m-40.45 0a40.45 40.45 0 1 0 80.9 0 40.45 40.45 0 1 0-80.9 0Z" p-id="3007"></path><path d="M693.23 840.82c-41.56 0-79.81-23.5-100.88-60.96H431.68c-29.6 52.63-95.29 76.08-149.96 49.38-11.56-3.79-23.67-12.5-33.58-24.88-6.69-6.67-12.96-15.04-18.25-24.5H194.1c-35.29 0-64-32.25-64-71.92V477.11c0-39.67 28.71-71.92 64-71.92 9.67-1 21.96-2.5 30.69-3.75l30.96-147.92c1.17-37 29.42-66.71 63.96-66.71h406.44c34.54 0 62.79 29.71 63.96 66.71l31.27 149.58c4.25 0.92 8.73 1.71 11.08 2.13 34.35 1.17 62 32.96 62 71.88v230.83c0 39.67-28.71 71.92-64 71.92h-36.33c-21.07 37.46-59.32 60.96-100.9 60.96zM404.27 737.19h215.52l5.5 13.04c12.27 29.13 38.94 47.92 67.94 47.92 29.02 0 55.69-18.79 67.96-47.92l5.5-13.04h63.77c11.56 0 21.33-13.38 21.33-29.25V477.11c0-15.88-9.77-29.25-21.33-29.25l-3.67-0.33c-23.04-4-43.1-7.5-45.04-25.5L747.48 255.9c0-14.58-9.56-26.42-21.33-26.42H319.7c-11.77 0-21.33 11.83-21.33 26.42l-0.46 4.37-33.77 161.46c-1.4 19.5-19.19 21.25-67.96 26.04-13.65 0.08-23.42 13.46-23.42 29.33v230.83c0 15.88 9.77 29.25 21.33 29.25h63.25l5.5 13.04c4.1 9.75 9.85 18.46 17.13 25.79 6.25 7.63 11.81 11.71 18.04 13.88 12.29 5.79 22.5 8.25 32.77 8.25 29 0 55.69-18.79 67.98-47.92l5.51-13.03z" p-id="3008"></path></svg>