<?xml version="1.0" standalone="no"?><!DOCTYPE svg PUBLIC "-//W3C//DTD SVG 1.1//EN" "http://www.w3.org/Graphics/SVG/1.1/DTD/svg11.dtd"><svg t="1657099255097" class="icon" viewBox="0 0 1024 1024" version="1.1" xmlns="http://www.w3.org/2000/svg" p-id="3655" xmlns:xlink="http://www.w3.org/1999/xlink" width="128" height="128"><defs><style type="text/css">@font-face { font-family: feedback-iconfont; src: url("//at.alicdn.com/t/font_1031158_u69w8yhxdu.woff2?t=1630033759944") format("woff2"), url("//at.alicdn.com/t/font_1031158_u69w8yhxdu.woff?t=1630033759944") format("woff"), url("//at.alicdn.com/t/font_1031158_u69w8yhxdu.ttf?t=1630033759944") format("truetype"); }
</style></defs><path d="M510.8 691.6L161.38 530.93l17.84-38.75 331.62 152.5L844.8 491.89l17.75 38.83z" p-id="3656"></path><path d="M510.8 843.89L163.26 678.31l18.33-38.5 329.25 156.83 331.54-157.12 18.29 38.58zM511.97 548.52c-4.58 0-9.21-1.08-13.46-3.29l-0.1-0.08-288.19-152.76c-9.4-4.96-15.27-14.71-15.31-25.38-0.02-10.67 5.79-20.42 15.17-25.46l288.29-155.71c8.4-4.54 18.4-4.58 26.83-0.29l288.25 148.71c9.5 4.92 15.48 14.58 15.6 25.25a28.74 28.74 0 0 1-14.92 25.63L525.86 544.89c-4.27 2.42-9.06 3.63-13.89 3.63z m-6.73-41c-0.06 0.04-0.15 0.08-0.21 0.13l0.21-0.13zM253.07 366.81l258.67 137.13 259.15-143.63-258.7-133.46-259.12 139.96z m540.46-19.04c-0.02 0-0.06 0.04-0.08 0.04l0.08-0.04z" p-id="3657"></path></svg>