<?xml version="1.0" standalone="no"?><!DOCTYPE svg PUBLIC "-//W3C//DTD SVG 1.1//EN" "http://www.w3.org/Graphics/SVG/1.1/DTD/svg11.dtd"><svg t="1657099275474" class="icon" viewBox="0 0 1024 1024" version="1.1" xmlns="http://www.w3.org/2000/svg" p-id="4140" xmlns:xlink="http://www.w3.org/1999/xlink" width="128" height="128"><defs><style type="text/css">@font-face { font-family: feedback-iconfont; src: url("//at.alicdn.com/t/font_1031158_u69w8yhxdu.woff2?t=1630033759944") format("woff2"), url("//at.alicdn.com/t/font_1031158_u69w8yhxdu.woff?t=1630033759944") format("woff"), url("//at.alicdn.com/t/font_1031158_u69w8yhxdu.ttf?t=1630033759944") format("truetype"); }
</style></defs><path d="M633.33 271.49H354.5c-16.48 0-29.88-13.42-29.88-29.88v-81.33c0-16.46 13.4-29.83 29.88-29.83h278.83c16.48 0 29.88 13.38 29.88 29.83v81.33c0 16.46-13.4 29.88-29.88 29.88z m-266.04-42.67h253.25v-55.71H367.29v55.71z" p-id="4141"></path><path d="M812.23 425.11h-42.67v-167c0-12.17-9.29-22.08-20.71-22.08h-99.29v-42.67h99.29c34.94 0 63.38 29.04 63.38 64.75v167zM419.4 893.57H227.9c-35.29 0-64-29.04-64-64.75V258.11c0-35.71 28.71-64.75 64-64.75h115.94v42.67H227.9c-11.77 0-21.33 9.92-21.33 22.08v570.71c0 12.17 9.56 22.08 21.33 22.08h191.5v42.67z" p-id="4142"></path><path d="M282.13 342.07h235.73v42.67H282.13zM282.13 491.11h321.44v42.67H282.13zM282.13 640.11h171.44v42.67H282.13zM486.44 869.99c-7.83 0-15.73-3.29-21.67-9.25-6.88-6.88-10.25-16.38-9.02-25.38 21.04-93.33 22.6-94.88 27.81-100.04l268.58-268.58 12.54-1.33c7.88 0.04 15.73 3.46 21.58 9.38l64.56 64.54c11.79 11.92 12.44 29.63 1.58 40.42L590.13 842.03c-5.21 5.17-6.77 6.71-98.19 27.38l-1.81 0.33c-1.23 0.16-2.46 0.25-3.69 0.25z m30.62-107.84c-2.67 9.42-8.75 34.71-14.85 61.17 26.44-6.13 51.73-12.21 61.17-14.88l248.1-248.13-46.29-46.29-248.13 248.13z m305.25-212.66c-0.04 0.04-0.08 0.08-0.1 0.13l0.1-0.13zM756 504.86c0.02 0.04 0.06 0.04 0.08 0.08l-0.08-0.08z" p-id="4143"></path></svg>