<?xml version="1.0" standalone="no"?><!DOCTYPE svg PUBLIC "-//W3C//DTD SVG 1.1//EN" "http://www.w3.org/Graphics/SVG/1.1/DTD/svg11.dtd"><svg t="1657099262252" class="icon" viewBox="0 0 1024 1024" version="1.1" xmlns="http://www.w3.org/2000/svg" p-id="3816" xmlns:xlink="http://www.w3.org/1999/xlink" width="128" height="128"><defs><style type="text/css">@font-face { font-family: feedback-iconfont; src: url("//at.alicdn.com/t/font_1031158_u69w8yhxdu.woff2?t=1630033759944") format("woff2"), url("//at.alicdn.com/t/font_1031158_u69w8yhxdu.woff?t=1630033759944") format("woff"), url("//at.alicdn.com/t/font_1031158_u69w8yhxdu.ttf?t=1630033759944") format("truetype"); }
</style></defs><path d="M509.28 902.81c-98 0-191.85-36.25-264.27-102.08l28.71-31.58c64.54 58.67 148.21 91 235.56 91 193.19 0 350.38-157.17 350.38-350.38S702.47 159.4 509.28 159.4 158.9 316.56 158.9 509.77c0 14.79 0.92 29.58 2.73 44.04l-42.33 5.33c-2.04-16.21-3.06-32.83-3.06-49.38 0-216.71 176.31-393.04 393.04-393.04s393.04 176.33 393.04 393.04-176.31 393.05-393.04 393.05z" p-id="3817"></path><path d="M604.65 826.61c-6.06 0-12.1-0.13-18.19-0.46-93.73-4.71-181.54-46.63-247.25-117.92l31.38-28.92c58.1 63.04 135.52 100.08 218.04 104.25 70.56 3.42 139.13-16.67 198.27-58.63l24.67 34.83c-61.98 43.93-133.19 66.85-206.92 66.85zM739.57 694.02l-40.29-14.08c18.1-51.79 27.67-110.67 27.67-170.17 0-193.21-97.65-350.38-217.67-350.38-120.04 0-217.69 157.17-217.69 350.38l0.08 8.75-42.67 0.58-0.08-9.33c0-216.71 116.79-393.04 260.35-393.04 143.54 0 260.33 176.33 260.33 393.04 0.01 64.25-10.38 127.96-30.03 184.25z" p-id="3818"></path><path d="M492.8 331.61c-87.21 0-170.33-41.83-222.35-111.92l34.25-25.42c44.69 60.17 113.23 94.67 188.1 94.67 77.92 0 150.5-38.58 194.19-103.25l35.33 23.92c-51.6 76.37-137.42 122-229.52 122zM144.78 415.61h740.81v42.67H144.78zM210.2 929.19l-52.82-323.54 338.21 51.96-92.35 87.91-29.42-30.91 29.44-28-194.29-29.88 30.31 185.88 46.52-44.25 29.42 30.91z" p-id="3819"></path></svg>