<?xml version="1.0" standalone="no"?><!DOCTYPE svg PUBLIC "-//W3C//DTD SVG 1.1//EN" "http://www.w3.org/Graphics/SVG/1.1/DTD/svg11.dtd"><svg t="1657099268053" class="icon" viewBox="0 0 1024 1024" version="1.1" xmlns="http://www.w3.org/2000/svg" p-id="3978" xmlns:xlink="http://www.w3.org/1999/xlink" width="128" height="128"><defs><style type="text/css">@font-face { font-family: feedback-iconfont; src: url("//at.alicdn.com/t/font_1031158_u69w8yhxdu.woff2?t=1630033759944") format("woff2"), url("//at.alicdn.com/t/font_1031158_u69w8yhxdu.woff?t=1630033759944") format("woff"), url("//at.alicdn.com/t/font_1031158_u69w8yhxdu.ttf?t=1630033759944") format("truetype"); }
</style></defs><path d="M404.24 585.35c-73.63 0-133.54-59.92-133.54-133.54s59.92-133.54 133.54-133.54 133.54 59.92 133.54 133.54-59.91 133.54-133.54 133.54z m0-224.41c-50.1 0-90.88 40.75-90.88 90.88s40.77 90.87 90.88 90.87 90.88-40.75 90.88-90.87-40.77-90.88-90.88-90.88z" p-id="3979"></path><path d="M633.83 792.9c-7.04-110.63-99.44-197.33-210.38-197.33h-48.31c-110.85 0-203.27 86.63-210.38 197.25l-42.58-2.75c8.56-133 119.67-237.17 252.96-237.17h48.31c133.38 0 244.5 104.25 252.96 237.33l-42.58 2.67zM640.16 341.69h195.19v42.67H640.16zM640.16 461.94h195.19v42.67H640.16zM640.16 580.23h195.19v42.67H640.16z" p-id="3980"></path><path d="M872.54 838.02H151.47c-35.29 0-64-28.71-64-64V249.94c0-35.29 28.71-64 64-64h721.06c35.29 0 64 28.71 64 64v524.08c0.01 35.29-28.7 64-63.99 64zM151.47 228.6c-11.77 0-21.33 9.58-21.33 21.33v524.08c0 11.75 9.56 21.33 21.33 21.33h721.06c11.77 0 21.33-9.58 21.33-21.33V249.94c0-11.75-9.56-21.33-21.33-21.33H151.47z" p-id="3981"></path></svg>