<?xml version="1.0" standalone="no"?><!DOCTYPE svg PUBLIC "-//W3C//DTD SVG 1.1//EN" "http://www.w3.org/Graphics/SVG/1.1/DTD/svg11.dtd"><svg t="1657099212559" class="icon" viewBox="0 0 1024 1024" version="1.1" xmlns="http://www.w3.org/2000/svg" p-id="3167" xmlns:xlink="http://www.w3.org/1999/xlink" width="128" height="128"><defs><style type="text/css">@font-face { font-family: feedback-iconfont; src: url("//at.alicdn.com/t/font_1031158_u69w8yhxdu.woff2?t=1630033759944") format("woff2"), url("//at.alicdn.com/t/font_1031158_u69w8yhxdu.woff?t=1630033759944") format("woff"), url("//at.alicdn.com/t/font_1031158_u69w8yhxdu.ttf?t=1630033759944") format("truetype"); }
</style></defs><path d="M831.41 868.09H195.04c-35.29 0-64-28.71-64-64v-584.2c0-35.29 28.71-64 64-64h636.38c35.29 0 64 28.71 64 64V804.1c-0.01 35.29-28.72 63.99-64.01 63.99zM195.04 198.55c-11.77 0-21.33 9.58-21.33 21.33v584.21c0 11.75 9.56 21.33 21.33 21.33h636.38c11.77 0 21.33-9.58 21.33-21.33v-584.2c0-11.75-9.56-21.33-21.33-21.33H195.04z" p-id="3168"></path><path d="M744.97 553.22l-42.42-4.75c0.77-6.88 1.17-13.92 1.17-21.04 0-104.46-84.98-189.42-189.44-189.42-23.4 0-46.25 4.21-67.94 12.54l-15.29-39.83c26.6-10.21 54.6-15.38 83.23-15.38 127.98 0 232.1 104.13 232.1 232.08 0.01 8.72-0.47 17.34-1.41 25.8zM514.29 759.55c-127.98 0-232.08-104.13-232.08-232.13 0-11.5 0.83-22.87 2.46-33.96l42.21 6.17c-1.33 9.08-2 18.38-2 27.79 0 104.46 84.98 189.46 189.42 189.46 22.69 0 44.9-4 66.02-11.83l14.88 40c-25.91 9.63-53.14 14.5-80.91 14.5z" p-id="3169"></path><path d="M358.43 513.64c-69.29 0-125.65-56.38-125.65-125.63 0-69.29 56.35-125.67 125.65-125.67s125.65 56.38 125.65 125.67c0 69.25-56.36 125.63-125.65 125.63z m0-208.63c-45.75 0-82.98 37.25-82.98 83s37.23 82.96 82.98 82.96 82.98-37.21 82.98-82.96-37.23-83-82.98-83zM759.1 761.68H607.97c-16.46 0-29.85-13.42-29.85-29.88V579.18c0-16.46 13.4-29.88 29.85-29.88H759.1c16.46 0 29.85 13.42 29.85 29.88V731.8c0 16.46-13.39 29.88-29.85 29.88z m-138.31-42.67h125.5V591.97h-125.5v127.04z" p-id="3170"></path></svg>