<?xml version="1.0" standalone="no"?><!DOCTYPE svg PUBLIC "-//W3C//DTD SVG 1.1//EN" "http://www.w3.org/Graphics/SVG/1.1/DTD/svg11.dtd"><svg t="1657097789069" class="icon" viewBox="0 0 1024 1024" version="1.1" xmlns="http://www.w3.org/2000/svg" p-id="1602" width="128" height="128" xmlns:xlink="http://www.w3.org/1999/xlink"><defs><style type="text/css">@font-face { font-family: feedback-iconfont; src: url("//at.alicdn.com/t/font_1031158_u69w8yhxdu.woff2?t=1630033759944") format("woff2"), url("//at.alicdn.com/t/font_1031158_u69w8yhxdu.woff?t=1630033759944") format("woff"), url("//at.alicdn.com/t/font_1031158_u69w8yhxdu.ttf?t=1630033759944") format("truetype"); }
</style></defs><path d="M257.67 430.23H215V185.07c0-31.58 28.88-57.29 64.35-57.29h465.38c35.48 0 64.33 25.71 64.33 57.29v232.62H766.4V185.07c0-6.92-8.9-14.63-21.67-14.63H279.36c-12.77 0-21.69 7.71-21.69 14.63v245.16z" p-id="1603" ></path><path d="M385.42 418.86h-42.67v-118.5c0-21.71 19.5-38.75 44.4-38.75h249.77c24.92 0 44.42 17.04 44.42 38.75v112.42h-42.67V305.07l-251.52-0.79c-0.96 0.13-1.46 0.04-1.73-0.25v114.83z" p-id="1604" ></path><path d="M872.86 894.15H830.2V461.52c0-11.75-10.13-21.33-22.56-21.33H216.38c-12.44 0-22.56 9.58-22.56 21.33v432.63h-42.67V461.52c0-35.29 29.27-64 65.23-64h591.25c35.96 0 65.23 28.71 65.23 64v432.63z" p-id="1605" ></path><path d="M319.34 703.52h42.67v168.33h-42.67zM659.97 705.94h42.67v167.75h-42.67z" p-id="1606" ></path><path d="M172.49 685.98h681.23v42.67H172.49z" p-id="1607" ></path></svg>
