<?xml version="1.0" standalone="no"?><!DOCTYPE svg PUBLIC "-//W3C//DTD SVG 1.1//EN" "http://www.w3.org/Graphics/SVG/1.1/DTD/svg11.dtd"><svg t="1657684078778" class="icon" viewBox="0 0 1024 1024" version="1.1" xmlns="http://www.w3.org/2000/svg" p-id="4791" xmlns:xlink="http://www.w3.org/1999/xlink" width="128" height="128"><defs><style type="text/css">@font-face { font-family: feedback-iconfont; src: url("//at.alicdn.com/t/font_1031158_u69w8yhxdu.woff2?t=1630033759944") format("woff2"), url("//at.alicdn.com/t/font_1031158_u69w8yhxdu.woff?t=1630033759944") format("woff"), url("//at.alicdn.com/t/font_1031158_u69w8yhxdu.ttf?t=1630033759944") format("truetype"); }
</style></defs><path d="M768.25422 0q48.810328 0 94.061569 18.303873t80.333664 50.33565 56.436941 74.740814 21.354518 91.519364l0 150.49851-123.042701 0 0-122.025819q0-64.063555-36.099305-99.654419t-97.112214-35.590864q-54.911619 0-88.468719 35.590864t-33.5571 99.654419l0 124.059583-128.12711 0 0-152.532274q0-48.810328 19.320755-91.519364t53.386296-74.740814 80.333664-50.33565 101.179742-18.303873zM766.220457 693.513406l0 87.451837 0 47.793446q0 27.455809-9.660377 51.860973t-26.438928 41.692155-39.658391 27.455809-50.33565 10.168818l-514.542205 0q-27.455809 0-49.82721-9.660377t-38.641509-26.438928-24.913605-39.14995-8.643496-47.793446l0-323.368421q0-28.472691 19.829196-47.793446t46.268123-19.320755l629.449851 0q28.472691 0 47.793446 19.320755t19.320755 47.793446l0 179.988083z" p-id="4792" ></path></svg>
