<svg width="24" height="24" viewBox="0 0 24 24" xmlns="http://www.w3.org/2000/svg">
<path fill-rule="evenodd" clip-rule="evenodd" d="M11.4233 2.68303C11.769 2.43899 12.231 2.43899 12.5767 2.68303L21.0767 8.68303C21.3421 8.87041 21.5 9.17508 21.5 9.5V20.5C21.5 21.0523 21.0523 21.5 20.5 21.5H13V15.5C13 14.9477 12.5523 14.5 12 14.5C11.4477 14.5 11 14.9477 11 15.5V21.5H3.5C2.94772 21.5 2.5 21.0523 2.5 20.5V9.5C2.5 9.17508 2.65786 8.87041 2.92332 8.68303L11.4233 2.68303ZM15 19.5H19.5V10.0181L12 4.724L4.5 10.0181V19.5H9V15.5C9 13.8431 10.3431 12.5 12 12.5C13.6569 12.5 15 13.8431 15 15.5V19.5Z"/>
</svg>
