<svg width="24" height="24" viewBox="0 0 24 24" xmlns="http://www.w3.org/2000/svg">
<path d="M9 13H15C17.7614 13 21 14.9286 21 18.4V21.1C21 21.5971 20.5523 22 20 22H4C3.44772 22 3 21.5971 3 21.1V18.4C3 14.9315 6.23858 13 9 13ZM19 20V18.3333C19 16.2318 16.871 15 15 15H9C7.16997 15 5 16.1717 5 18.3333V20H19ZM12 12C9.23858 12 7 9.76142 7 7C7 4.23858 9.23858 2 12 2C14.7614 2 17 4.23858 17 7C17 9.76142 14.7614 12 12 12ZM12 10C13.6569 10 15 8.65685 15 7C15 5.34315 13.6569 4 12 4C10.3431 4 9 5.34315 9 7C9 8.65685 10.3431 10 12 10Z" />
</svg>
