<svg width="24" height="24" viewBox="0 0 24 24" xmlns="http://www.w3.org/2000/svg">
<path d="M2.50005 20V11.5455C2.50005 10.9681 2.97975 10.5 3.57148 10.5H8.00005V3.05263C8.00005 2.47128 8.51173 2 9.14291 2H14.8572C15.4884 2 16.0001 2.47128 16.0001 3.05263V8H20.4286C21.0204 8 21.5001 8.44772 21.5001 9V20H22.4999C22.776 20 22.9999 20.2239 22.9999 20.5V21.5C22.9999 21.7761 22.776 22 22.4999 22H1.49988C1.22374 22 0.999878 21.7761 0.999878 21.5V20.5C0.999878 20.2239 1.22374 20 1.49988 20H2.50005ZM19.5001 20V10H16.0001V20H19.5001ZM14.0001 20V4H10.0001V20H14.0001ZM8.00005 20V12.5H4.50005V20H8.00005Z"/>
</svg>
