<svg xmlns="http://www.w3.org/2000/svg" width="32" height="32" viewBox="0 0 32 32">
<path fill="#808284" d="M25 13.999v.281h-8.016l-.584-.35c-.2-.121-.605-.121-.805 0l-.583.35H7v-.281H6v6.864c-.001.01-.001.02 0 .03v.105h.034c.033.074.087.145.184.203l9.378 5.627c.2.121.604.121.805 0l9.379-5.627c.097-.059.15-.129.184-.203H26v-7h-1z"/>
<path fill="#939598" d="M25.15 20.588L15.963 26.1l.035-.03a.199.199 0 0 1-.039-.003L6.85 20.59v-5.46h8.398l.785-.472.514.351.202.121h8.401v5.458z"/>
<path fill="#808284" d="M6 15h1v6H6zm19 0h1v6h-1zM3 12.999h1v12H3z"/>
<path fill="#808284" d="M5 28.999H2l1-4h1z"/>
<path fill="#939598" d="M31.422 11.026L16.619 2.144c-.316-.191-.955-.191-1.271 0L.545 11.026c-.467.277-.467.734 0 1.016l14.803 8.883c.316.191.955.191 1.271 0l14.803-8.883c.469-.281.469-.734 0-1.016zm-15.318 9.041c.007-.004.006-.005-.002-.005-.016 0-.061.006-.119.006-.085 0-.143-.014-.155-.019L1.643 11.534l14.22-8.533c-.007.004-.006.005.002.005.015 0 .06-.006.118-.006.085 0 .143.014.155.019l14.186 8.516-14.22 8.532z"/>
<path fill="#FFF" d="M16.104 20.067c.007-.004.006-.005-.002-.005-.016 0-.061.006-.119.006-.085 0-.143-.014-.155-.019L1.643 11.534l14.22-8.533c-.007.004-.006.005.002.005.015 0 .06-.006.118-.006.085 0 .143.014.155.019l14.186 8.516-14.22 8.532z"/>
<path fill="#E6E7E8" d="M15.985 4.093L3.586 11.534l12.395 7.441 12.4-7.441z"/>
</svg>
