<svg xmlns="http://www.w3.org/2000/svg" width="32" height="32" viewBox="0 0 32 32">
<path fill="#808284" d="M3.086 29C2.486 29 2 28.578 2 28.059V9.999C2 9.481 2.486 9 3.086 9h24.732c.598 0 1.182.481 1.182.999v18.06c0 .519-.584.941-1.183.941H3.086z"/>
<path fill="#FFF" d="M28 28.005c-.005-.006.012-.008 0-.008L3 28s-.012-18 0-18h25c.066 0-.009-.009 0 0v18.005z"/>
<path fill="#E6E7E8" d="M4 11.061l22.929-.002-.025 15.938L4 27z"/>
<path fill="#808284" d="M30 16h-6.85c-2.27 0-4.033 1.336-4.033 2.988 0 1.65 1.764 3.012 4.033 3.012H30v-6z"/>
<circle cx="21.999" cy="19" r="1.5" fill="#FFF"/>
<path fill="#939598" d="M5 25h1v1H5zm2 0h2v1H7zm3 0h2v1h-2zm3 0h2v1h-2zm3 0h2v1h-2zm3 0h2v1h-2zm3 0h2v1h-2zm3 0h1v1h-1zM5 12h1v1H5zm2 0h2v1H7zm3 0h2v1h-2zm3 0h2v1h-2zm3 0h2v1h-2zm3 0h2v1h-2zm3 0h2v1h-2zm3 0h1v1h-1z"/>
<path fill="#CCC" d="M24.392 8L21 2l-8.571 6z"/>
</svg>
