<svg xmlns="http://www.w3.org/2000/svg" width="32" height="32" viewBox="0 0 32 32">
<path fill="#808284" d="M28 21h-6c-1.105 0-2 .895-2 2v6c0 .553.448 1 1 1h1v1c0 .553.447 1 1 1h4c.553 0 1-.447 1-1v-1h1c.552 0 1-.447 1-1v-6c0-1.105-.896-2-2-2z"/>
<path fill="#E6E7E8" d="M28 22h-6c-.551 0-1 .448-1 1v6h2v2h4v-2h2v-6c0-.552-.449-1-1-1z"/>
<circle cx="25" cy="18" r="3" fill="#939598"/>
<circle cx="25" cy="18" r="2" fill="#E6E7E8"/>
<path fill="#939598" d="M22 24h1v5h-1zm5 0h1v5h-1z"/>
<path fill="#808284" d="M10 21H4c-1.105 0-2 .895-2 2v6c0 .553.448 1 1 1h1v1c0 .553.447 1 1 1h4c.553 0 1-.447 1-1v-1h1c.552 0 1-.447 1-1v-6c0-1.105-.896-2-2-2z"/>
<path fill="#FFF" d="M10 22H4c-.551 0-1 .448-1 1v6h2v2h4v-2h2v-6c0-.552-.449-1-1-1z"/>
<circle cx="7" cy="18" r="3" fill="#808284"/>
<circle cx="7" cy="18" r="2" fill="#FFF"/>
<path fill="#939598" d="M4 24h1v5H4zm5 0h1v5H9z"/>
<path fill="#808284" d="M19 6h-6c-1.105 0-2 .894-2 2v6c0 .553.448 1 1 1h1v1c0 .553.447 1 1 1h4c.553 0 1-.447 1-1v-1h1c.552 0 1-.447 1-1V8c0-1.106-.896-2-2-2z"/>
<path fill="#CCC" d="M19 7h-6c-.551 0-1 .448-1 1v6h2v2h4v-2h2V8c0-.552-.449-1-1-1z"/>
<circle cx="16" cy="3" r="3" fill="#808284"/>
<circle cx="16" cy="3" r="2" fill="#CCC"/>
<path fill="#939598" d="M13 9h1v5h-1zm5 0h1v5h-1z"/>
</svg>
