<svg xmlns="http://www.w3.org/2000/svg" width="32" height="32" viewBox="0 0 32 32">
<path fill="#808284" d="M10.32 6.577c-.194-.735-.676-1.838-1.385-3.192 0 0-1.179 2.927-1.423 3.577-.335.893.359 1.685.97 1.945v-.71h1v.76c.645-.079 1.359-.408.838-2.38zm5.616-3.192s-1.179 2.927-1.423 3.577c-.335.893.359 1.685.97 1.945v-.71h1v.76c.644-.079 1.358-.407.837-2.379-.194-.736-.675-1.839-1.384-3.193zm8.384 3.192c-.194-.735-.676-1.838-1.385-3.192 0 0-1.179 2.927-1.423 3.577-.335.893.359 1.685.97 1.945v-.71h1v.76c.644-.079 1.359-.408.838-2.38z"/>
<path fill="#CCC" d="M8 10h2v7H8zm7 0h2v8h-2zm7 0h2v8h-2z"/>
<path fill="#CCC" d="M6 22c.951 0 1.813-.346 2.5-.901.687.555 1.549.901 2.5.901s1.814-.346 2.5-.901c.686.555 1.549.901 2.5.901.951 0 1.813-.346 2.5-.901.687.555 1.549.901 2.5.901s1.813-.346 2.5-.901c.687.555 1.549.901 2.5.901 2.209 0 4-1.791 4-4 0-1.657-1.343-3-3-3H5c-1.657 0-3 1.343-3 3 0 2.209 1.791 4 4 4z"/>
<path fill="#939598" d="M26 23c-.885 0-1.737-.235-2.5-.686-.763.451-1.615.686-2.5.686s-1.737-.235-2.5-.686c-.763.451-1.615.686-2.5.686s-1.737-.235-2.5-.686c-.763.451-1.615.686-2.5.686s-1.737-.235-2.5-.686C7.737 22.765 6.885 23 6 23c-.712 0-1.386-.154-2-.424V30h24v-7.424c-.614.27-1.288.424-2 .424z"/>
<path fill="#808284" d="M2 31h28v1H2z"/>
</svg>
