<svg xmlns="http://www.w3.org/2000/svg" width="32" height="32" viewBox="0 0 32 32">
<path fill="#808284" d="M18.968 23.792c-5.686-1.092-9.423-6.605-8.332-12.291.023-.117.052-.233.081-.348l.257-1.026-.07-.019.015-.081 20.624 3.959-.053-.01-.164 1.04c-.028.208-.043.326-.066.443-1.093 5.687-6.606 9.425-12.292 8.333z"/>
<path fill="#E6E7E8" d="M20.952 23.132c-.608 0-1.222-.059-1.824-.175-5.225-1.003-8.66-6.07-7.657-11.296.017-.089.039-.177.061-.263l.093-.37 18.897 3.628-.036.229c-.032.233-.043.324-.061.415-.872 4.538-4.856 7.832-9.473 7.832z"/>
<path fill="#FFF" d="M28.669 20.574c-.28-.173-.618-.331-1.039-.457-.399-.12-.821-.181-1.253-.181-1.462 0-2.809.676-3.998 1.272-.542.271-1.054.528-1.481.671-.083.027-.216.062-.415.095.593-.758.829-1.774.6-2.831-.337-1.557-1.577-2.644-3.014-2.644-.709 0-1.404.251-2.064.746-.94.705-1.964 1.049-3.127 1.049-.416 0-.851-.045-1.31-.131 1.414 2.823 4.067 4.988 7.4 5.628 3.699.711 7.318-.632 9.701-3.217z"/>
<path fill="#939598" d="M5.833 21.36c.194 0 1.533-1.761 3.885-1.294 2.41.479 4.855.128 7.186-1.62 2.331-1.748 3.885 2.137 1.748 3.107-2.137.972-2.913 1.749-2.913 1.749s3.885.582 5.633 0c1.748-.583 3.885-2.331 5.827-1.749 1.942.583 1.166 1.749.194 2.331-.971.583-6.951 5.671-21.518 4.506l-.042-.232V21.36z"/>
<path fill="#939598" d="M9.181 25.363L6.43 20.952s-.019.012-.054.032c-.338.195-2.577 1.356-5.331 1.356v5.568s2.849.538 6.349.538 1.877-3.106 1.787-3.083z"/>
<circle cx="22.5" cy="8.5" r="1.5" fill="#939598"/>
<circle cx="26.6" cy="7.601" r="1.5" fill="#939598"/>
<circle cx="30.5" cy="4.5" r="1.5" fill="#939598"/>
<circle cx="25.5" cy="2.5" r="1.5" fill="#939598"/>
</svg>
