<svg xmlns="http://www.w3.org/2000/svg" width="32" height="32" viewBox="0 0 32 32">
<path fill="#808284" d="M1.999 28c-.715 0-1.376-.32-1.73-.938a2.005 2.005 0 0 1 0-2.002L12.271 1.191c.355-.617 1.016-1 1.731-1 .715 0 1.376.383 1.733 1L27.734 25.06a2.01 2.01 0 0 1-.002 2.002c-.355.618-1.016.938-1.731.938H1.999z"/>
<path fill="#FFF" d="M26.001 27.06H2c-.357 0-.686-.19-.866-.498a1.0087 1.0087 0 0 1 0-1.003L13.135 1.691c.18-.309.509-.5.866-.5s.685.191.866.5l12 23.868c.177.311.177.691 0 1.003-.179.308-.509.498-.866.498z"/>
<path fill="#E6E7E8" d="M2 26.06L14.028 2.141 26.001 26.06z"/>
<path fill="#FFF" d="M13.001 20c-.552 0-1-.447-1-1V9c0-.553.448-1 1-1h2c.552 0 1 .447 1 1v10c0 .553-.448 1-1 1h-2z"/>
<path fill="#808284" d="M13.001 9h2v10h-2z"/>
<path fill="#FFF" d="M13.001 24c-.552 0-1-.447-1-1v-2c0-.553.448-1 1-1h2c.552 0 1 .447 1 1v2c0 .553-.448 1-1 1h-2z"/>
<path fill="#808284" d="M13.001 21h2v2h-2z"/>
<path fill="#FFF" d="M26.001 28c.715 0 1.376-.32 1.731-.938a2.01 2.01 0 0 0 .002-2.002l-5.602-11.144C20.847 14.822 20 16.312 20 18c0 .5.096.974.233 1.43C18.916 20.084 18 21.431 18 23v5h8.001z"/>
<path fill="#808284" d="M28 21h-6c-1.104 0-2 .895-2 2v6c0 .553.447 1 1 1h1v1c0 .553.447 1 1 1h4c.553 0 1-.447 1-1v-1h1c.553 0 1-.447 1-1v-6c0-1.105-.896-2-2-2z"/>
<path fill="#E6E7E8" d="M28 22h-6c-.551 0-1 .448-1 1v6h2v2h4v-2h2v-6c0-.552-.449-1-1-1z"/>
<circle cx="25" cy="18" r="3" fill="#808284"/>
<circle cx="25" cy="18" r="2" fill="#E6E7E8"/>
<path fill="#939598" d="M22 24h1v5h-1zm5 0h1v5h-1z"/>
</svg>
