<svg xmlns="http://www.w3.org/2000/svg" width="32" height="32" viewBox="0 0 32 32">
<path fill="#939598" d="M25.685 19.479l-1.389 2.106L6.299 10.316l-.695 1.056L23.6 22.64l-1.392 2.104 5.25-.316z"/>
<path fill="#FFF" d="M18.514 19.455l1.19-.745-4.959-3.104-1.189.745z"/>
<path fill="#939598" d="M3 27h25v1H3z"/>
<path fill="#808284" d="M25.685 15.582l-1.389-2.106L6.299 24.744l-.695-1.056L23.6 12.421l-1.392-2.105 5.25.317z"/>
<path fill="#CCC" d="M1 26h3v1H1zm0-3h3v1H1zm0-3h3v1H1zm0-3h3v1H1zm0-3h3v1H1zm0-3h3v1H1zm0-3h3v1H1z"/>
<path fill="#939598" d="M3 7h1v21H3z"/>
</svg>
