<svg xmlns="http://www.w3.org/2000/svg" width="32" height="32" viewBox="0 0 32 32">
<path fill="#808284" d="M9 6H4c-1.105 0-2 .894-2 2v4c0 .553.447 1 1 1h1v1c0 .553.447 1 1 1h3c.553 0 1-.447 1-1v-1h1c.553 0 1-.447 1-1V8c0-1.106-.896-2-2-2z"/>
<path fill="#E6E7E8" d="M9 7H4c-.551 0-1 .448-1 1v4h2v2h3v-2h2V8c0-.552-.449-1-1-1z"/>
<path fill="#939598" d="M4 9h1v3H4zm4 0h1v3H8z"/>
<circle cx="6.5" cy="3.5" r="2.35" fill="#808284"/>
<circle cx="6.5" cy="3.5" r="1.75" fill="#E6E7E8"/>
<path fill="#FFF" d="M11 12V8c0-.711-.373-1.33-.931-1.686C10.03 6.538 10 6.766 10 7c0 .749.22 1.442.579 2.043C9.125 9.249 8 10.49 8 12v3c.553 0 1-.447 1-1v-1h1c.553 0 1-.447 1-1z"/>
<path fill="#808284" d="M17 10h-6c-1.105 0-2 .894-2 2v6c0 .553.447 1 1 1h1v1c0 .553.447 1 1 1h4c.553 0 1-.447 1-1v-1h1c.553 0 1-.447 1-1v-6c0-1.106-.896-2-2-2z"/>
<path fill="#E6E7E8" d="M17 11h-6c-.551 0-1 .448-1 1v6h2v2h4v-2h2v-6c0-.552-.449-1-1-1z"/>
<circle cx="14" cy="7" r="3" fill="#808284"/>
<circle cx="14" cy="7" r="2" fill="#E6E7E8"/>
<path fill="#939598" d="M11 13h1v5h-1zm5 0h1v5h-1z"/>
<path fill="#FFF" d="M16 19v2c.553 0 1-.447 1-1v-1h1c.553 0 1-.447 1-1v-2.858c-1.721.447-3 2-3 3.858z"/>
<circle cx="24" cy="11" r="4" fill="#808284"/>
<circle cx="24" cy="11" r="3" fill="#E6E7E8"/>
<path fill="#808284" d="M28 16h-8c-1.657 0-3 1.343-3 3v8c0 1.104.895 2 2 2h1v2c0 .553.447 1 1 1h6c.553 0 1-.447 1-1v-2h1c1.104 0 2-.896 2-2v-8c0-1.657-1.343-3-3-3z"/>
<path fill="#E6E7E8" d="M28 17h-8c-1.105 0-2 .896-2 2v8c0 .553.447 1 1 1h2v3h6v-3h2c.553 0 1-.447 1-1v-8c0-1.104-.896-2-2-2z"/>
<path fill="#939598" d="M20 20h1v8h-1zm7 0h1v8h-1z"/>
</svg>
