<svg xmlns="http://www.w3.org/2000/svg" width="32" height="32" viewBox="-1 0 31 32">
<path fill="#939598" d="M24 18v4c0 3.859-3.141 7-7 7s-7-3.141-7-7v-4H7v4l.051 1c.504 5.046 4.773 9 9.949 9s9.445-3.954 9.949-9L27 22v-4h-3z"/>
<circle cx="25.5" cy="17.5" r="3.5" fill="#808284"/>
<path fill="#E6E7E8" d="M25.5 20.149c-1.461 0-2.65-1.189-2.65-2.649 0-1.462 1.189-2.65 2.65-2.65 1.461 0 2.65 1.188 2.65 2.65 0 1.461-1.189 2.649-2.65 2.649z"/>
<path fill="#808284" d="M13 5h1v3h-1zM3 5h1v3H3z"/>
<path fill="#808284" d="M15 5v7c-.257 3.351-3.084 6-6.499 6C5.086 18 2.257 15.351 2 12V5H1v7c.258 3.908 3.528 7 7.501 7 3.973 0 7.241-3.092 7.499-7V5h-1z"/>
</svg>
