<svg xmlns="http://www.w3.org/2000/svg" width="32" height="32" viewBox="0 0 32 32">
<path fill="#808284" d="M8.485 2.2L0 10.686l13.435 13.435 8.485-8.485L8.485 2.2zm-7.283 8.486l7.283-7.283 12.233 12.233-7.283 7.283L1.202 10.686z"/>
<path fill="#FFF" d="M19.351 13.065c-.326.054-.642.138-.936.266l2.304 2.304L16 20.354v1.202l5.92-5.92-2.569-2.571z"/>
<circle cx="8.5" cy="7.5" r=".864" fill="#808284"/>
<circle cx="5.5" cy="10.5" r=".864" fill="#808284"/>
<circle cx="16.5" cy="15.5" r=".864" fill="#808284"/>
<circle cx="13.5" cy="18.5" r=".768" fill="#808284"/>
<ellipse cx="10.928" cy="12.992" fill="#808284" rx="2.303" ry="2.879" transform="rotate(45 10.9281 12.9924)"/>
<circle cx="24" cy="9" r="4" fill="#808284"/>
<circle cx="24" cy="9" r="3" fill="#E6E7E8"/>
<path fill="#808284" d="M28 14h-8c-1.657 0-3 1.343-3 3v8c0 1.104.895 2 2 2h1v2c0 .553.447 1 1 1h6c.553 0 1-.447 1-1v-2h1c1.104 0 2-.896 2-2v-8c0-1.657-1.343-3-3-3z"/>
<path fill="#E6E7E8" d="M28 15h-8c-1.105 0-2 .896-2 2v8c0 .553.447 1 1 1h2v3h6v-3h2c.553 0 1-.447 1-1v-8c0-1.104-.896-2-2-2z"/>
<path fill="#939598" d="M20 18h1v8h-1zm7 0h1v8h-1z"/>
</svg>
