<svg xmlns="http://www.w3.org/2000/svg" width="32" height="32" viewBox="0 0 32 32">
<circle cx="16.064" cy="5" r="5" fill="#808284"/>
<path fill="#E6E7E8" d="M20.064 5c0 2.207-1.792 4-3.997 4-2.211 0-4.003-1.793-4.003-4 0-2.209 1.792-4 4.003-4 2.205 0 3.997 1.791 3.997 4z"/>
<path fill="#808284" d="M22 11H10c-1.656 0-3 1.343-3 3v12c0 1.104.895 2 2 2h1v3c0 .553.447 1 1 1h10c.553 0 1-.447 1-1v-3h1c1.104 0 2-.896 2-2V14c0-1.657-1.344-3-3-3z"/>
<path fill="#E6E7E8" d="M22 12H10c-1.105 0-2 .896-2 2v12c0 .553.447 1 1 1h2v4h10v-4h2c.553 0 1-.447 1-1V14c0-1.104-.896-2-2-2z"/>
<path fill="#939598" d="M10 15h1v12h-1zm11 0h1v12h-1z"/>
</svg>
