<svg xmlns="http://www.w3.org/2000/svg" width="32" height="32" viewBox="0 0 32 32">
<path fill="#FFF" d="M1.623 17h18.942L10.292 6.707 0 17z"/>
<path fill="#E6E7E8" d="M10.237 8.282s1.639 2.162 1.639 4.273c0 1.815-1.44 3.4-4.551 4.445h8.148c1.737-.256 2.922-.539 2.922-.539h.376l-8.534-8.532v.353z"/>
<path fill="#808284" d="M2.312 16l7.953-7.982L18.248 16h1.311l-9.294-9.293L1.001 16z"/>
<path fill="#FFF" d="M31.598 21L16.789 6.188 2 21z"/>
<path fill="#E6E7E8" d="M16.745 6.147v.897s3.36 3.933 3.36 6.935c0 3.359-2.87 5.902-7.439 7.02.005.001 18.932 0 18.932 0L16.745 6.147z"/>
<path fill="#808284" d="M3.246 21L16.789 7.434 30.352 21h1.246L16.789 6.188 2 21z"/>
<path fill="#FFF" d="M30 25.999L18.868 14.868 7.772 25.999z"/>
<path fill="#E6E7E8" d="M18.926 14.926v1.309s2.505 2.293 2.505 4.531c0 2.504-2.139 4.401-5.546 5.233.003.001 14.115 0 14.115 0L18.926 14.926z"/>
<path fill="#808284" d="M9.085 25.999l9.783-9.819 9.821 9.819H30L18.868 14.868 7.772 25.999z"/>
</svg>
