<svg xmlns="http://www.w3.org/2000/svg" width="32" height="32" viewBox="0 0 32 32">
<path fill="#CCC" d="M20 17h2v2h-2zm-9-9h2v2h-2zM8 8h2v2H8zm9 9h2v2h-2zm-3-9h2v2h-2zm6 3h2v2h-2zm0 3h2v2h-2zM8 5h2v2H8zm9 3h2v2h-2zM5 20h2v2H5zm.405-13H7V5.405A12.783 12.783 0 0 0 5.405 7zM5 17h2v2H5zm3 3h2v2H8zm-1 4.595V23H5.405A12.783 12.783 0 0 0 7 24.595zM5 8h2v2H5z"/>
<path fill="#808284" d="M5 11h2v2H5z"/>
<path fill="#CCC" d="M5 14h2v2H5zm3 9h2v2H8zM20 8h2v2h-2zm-6 6h2v2h-2zm-3 0h2v2h-2z"/>
<path fill="#808284" d="M20 5h2v2h-2z"/>
<path fill="#CCC" d="M17 14h2v2h-2zm7.595-7A12.783 12.783 0 0 0 23 5.405V7h1.595zM14 17h2v2h-2z"/>
<path fill="#808284" d="M4 14H2.55c-.026.331-.051.662-.051 1s.024.669.051 1H4v-2z"/>
<path fill="#CCC" d="M26 16h1.45c.026-.331.051-.662.051-1s-.024-.669-.051-1H26v2zm-15 1h2v2h-2zm-3-3h2v2H8zm3-3h2v2h-2zm-3 0h2v2H8zm6 0h2v2h-2zm3 0h2v2h-2zm9-1h.45c-.14-.317-.286-.63-.45-.933V10zM13 26h-2v.833c.644.219 1.313.381 2 .492V26zm-3 0h-.933c.303.164.616.31.933.45V26zm1-3h2v2h-2zm-7-3h-.45c.14.317.286.63.45.933V20zm0-7v-2h-.833c-.219.644-.381 1.314-.492 2H4zm0-3v-.933c-.164.303-.311.616-.45.933H4zm0 9v-2H2.675c.111.687.273 1.355.492 2H4zm10 4h2v2h-2zm6 3v.45c.317-.14.63-.286.933-.45H20zM14 4h2V2.55c-.331-.026-.662-.051-1-.051-.338 0-.669.024-1 .051V4z"/>
<path fill="#808284" d="M26 11v2h1.325c-.111-.686-.273-1.356-.492-2H26z"/>
<path fill="#CCC" d="M16 26h-2v1.45c.331.026.662.051 1 .051.338 0 .669-.024 1-.051V26zm1-3h2v2h-2zm9-6v2h.833c.219-.645.381-1.313.492-2H26zm0 3v.933c.164-.303.31-.615.45-.933H26zm-7 6.833V26h-2v1.325c.686-.111 1.355-.273 2-.492zM10 4v-.45c-.317.14-.63.286-.933.45H10zm7 0h2v-.833c-.645-.219-1.314-.381-2-.492V4zm6 16h2v2h-2zm1.595 3H23v1.595A12.783 12.783 0 0 0 24.595 23zM20 23h2v2h-2zm3-6h2v2h-2zm0-3h2v2h-2zM11 3.167V4h2V2.675c-.687.111-1.356.273-2 .492zM20 20h2v2h-2zm-3 0h2v2h-2zm-3 0h2v2h-2zm3-15h2v2h-2zm-3 0h2v2h-2zm-3 0h2v2h-2zm12 6h2v2h-2zm0-3h2v2h-2zM11 20h2v2h-2zm9-16h.933c-.303-.164-.616-.31-.933-.45V4z"/>
<path fill="#808284" d="M15 .199C6.827.199.199 6.827.199 15S6.827 29.801 15 29.801 29.801 23.173 29.801 15 23.173.199 15 .199zm0 28.752C7.308 28.951 1.049 22.692 1.049 15S7.308 1.049 15 1.049 28.951 7.308 28.951 15 22.692 28.951 15 28.951z"/>
<path fill="#808284" d="M8 17h5v5H8zm6-6h5v5h-5zM8 5h5v5H8zm12 3h2v2h-2zm-6 15h2v2h-2zm3-18h2v2h-2z"/>
<path fill="#FFF" d="M25 13c-2.757 0-5 2.243-5 5 0 .5.096.974.233 1.43C18.916 20.084 18 21.431 18 23v5.618C24.254 27.24 28.951 21.662 28.951 15c0-.01-.002-.019-.002-.03C28.035 13.78 26.613 13 25 13z"/>
<path fill="#808284" d="M28 21h-6c-1.105 0-2 .895-2 2v6c0 .553.447 1 1 1h1v1c0 .553.447 1 1 1h4c.553 0 1-.447 1-1v-1h1c.553 0 1-.447 1-1v-6c0-1.105-.896-2-2-2z"/>
<path fill="#E6E7E8" d="M28 22h-6c-.551 0-1 .448-1 1v6h2v2h4v-2h2v-6c0-.552-.449-1-1-1z"/>
<circle cx="25" cy="18" r="3" fill="#808284"/>
<circle cx="25" cy="18" r="2" fill="#E6E7E8"/>
<path fill="#939598" d="M22 24h1v5h-1zm5 0h1v5h-1z"/>
</svg>
