<svg xmlns="http://www.w3.org/2000/svg" width="32" height="32" viewBox="0 0 32 32">
<path fill="#808284" d="M7 3h5v11H7z"/>
<path fill="#CCC" d="M8 4h3v10H8z"/>
<path fill="#808284" d="M2 16h28v15H2z"/>
<path fill="#FFF" d="M29 16L16.5 4 3 16v15h26z"/>
<path fill="#808284" d="M16.5 5L4.207 16H1L16.5 1.5 31 16h-3.207zM0 31h32v1H0z"/>
<g fill="#939598">
<path d="M9 22H6c-1.104 0-2 .896-2 2v4c0 .553.447 1 1 1 0 .553.447 1 1 1h3c.553 0 1-.447 1-1 .553 0 1-.447 1-1v-4c0-1.104-.896-2-2-2zm.596-2.5c0 1.156-.939 2.1-2.096 2.1s-2.096-.943-2.096-2.1c0-1.156.939-2.1 2.096-2.1s2.096.944 2.096 2.1zM26 22h-3c-1.104 0-2 .896-2 2v4c0 .553.447 1 1 1 0 .553.447 1 1 1h3c.553 0 1-.447 1-1 .553 0 1-.447 1-1v-4c0-1.104-.896-2-2-2zm.596-2.5c0 1.156-.939 2.1-2.096 2.1s-2.096-.943-2.096-2.1c0-1.156.939-2.1 2.096-2.1s2.096.944 2.096 2.1zM18 20h-4c-1.104 0-2 .896-2 2v6c0 .553.447 1 1 1v1c0 .553.447 1 1 1h4c.553 0 1-.447 1-1v-1c.553 0 1-.447 1-1v-6c0-1.104-.896-2-2-2z"/>
<circle cx="16" cy="17" r="2.5"/>
</g>
</svg>
