<svg xmlns="http://www.w3.org/2000/svg" width="32" height="32" viewBox="0 0 32 32">
<path fill="#808284" d="M30.876 20.869c.256.998-.346 2.016-1.344 2.271L6.935 28.937c-.997.257-2.014-.346-2.27-1.343L.955 13.131c-.257-.999.345-2.016 1.343-2.271l22.598-5.797c.997-.257 2.014.345 2.271 1.343l3.709 14.463z"/>
<path fill="#FFF" d="M6.703 28.032c-.498.129-1.008-.173-1.136-.671l-3.71-14.462c-.127-.499.174-1.007.673-1.136l22.597-5.795c.498-.129 1.008.173 1.136.671l3.71 14.462c.128.498-.174 1.008-.673 1.137L6.703 28.032z"/>
<path fill="#E6E7E8" d="M28.2271 20.9924L7.0458 26.4266l-3.4423-13.417L24.785 7.5754z"/>
<path fill="#808284" d="M2.3216 14.7051l24.403-6.2607 1.3913 5.4232-24.403 6.2607zm20.9815 3.2147l2.779-.7129.7129 2.779-2.779.7129z"/>
</svg>
