<?xml version="1.0" standalone="no"?><!DOCTYPE svg PUBLIC "-//W3C//DTD SVG 1.1//EN" "http://www.w3.org/Graphics/SVG/1.1/DTD/svg11.dtd"><svg t="1688528329391" class="icon" viewBox="0 0 1024 1024" version="1.1" xmlns="http://www.w3.org/2000/svg" p-id="3817" xmlns:xlink="http://www.w3.org/1999/xlink" width="200" height="200"><path d="M0 396.8c409.6 0 550.4 275.2 979.2 288 12.8-108.8 0-96 0-185.6-390.4 0-422.4-288-979.2-288v185.6z" fill="#CCCCCC" p-id="3818"></path><path d="M0 672c409.6 0 550.4-467.2 979.2-473.6v147.2c-390.4 0-422.4 473.6-979.2 473.6v-147.2z" fill="#DDDDDD" p-id="3819"></path><path d="M0 524.8c403.2-6.4 422.4 268.8 979.2 294.4v-44.8c-524.8-38.4-544-294.4-979.2-294.4v44.8z" fill="#CCCCCC" p-id="3820"></path><path d="M0 902.4h44.8V121.6h-44.8v780.8z m979.2 0h44.8V121.6h-44.8v780.8z" fill="#CCCCCC" p-id="3821"></path></svg>
