<?xml version="1.0" standalone="no"?><!DOCTYPE svg PUBLIC "-//W3C//DTD SVG 1.1//EN" "http://www.w3.org/Graphics/SVG/1.1/DTD/svg11.dtd"><svg t="1574649142168" class="icon" viewBox="0 0 1024 1024" version="1.1" xmlns="http://www.w3.org/2000/svg" p-id="1910" xmlns:xlink="http://www.w3.org/1999/xlink" width="200" height="200"><defs><style type="text/css"></style></defs><path d="M468.693333 16.725333a85.333333 85.333333 0 0 1 82.56 0l381.952 211.072a85.333333 85.333333 0 0 1 44.074667 74.666667v419.029333a85.333333 85.333333 0 0 1-44.074667 74.666667l-381.952 211.114667a85.333333 85.333333 0 0 1-82.56 0l-381.952-211.072A85.333333 85.333333 0 0 1 42.666667 721.493333V302.506667a85.333333 85.333333 0 0 1 44.074666-74.666667L468.693333 16.682667z m423.253334 285.781334l-381.994667-211.072L128 302.506667v418.986666l381.952 211.072 381.994667-211.072V302.506667z m-684.714667 42.197333a42.666667 42.666667 0 0 1 57.984-16.725333l244.736 135.253333 244.778667-135.253333a42.666667 42.666667 0 0 1 41.258666 74.666666l-243.370666 134.528v268.16a42.666667 42.666667 0 0 1-85.333334 0V537.173333L223.914667 402.688a42.666667 42.666667 0 0 1-16.682667-58.026667z" fill="#bfbfbf" p-id="1911"></path></svg>