<svg xmlns="http://www.w3.org/2000/svg" xmlns:xlink="http://www.w3.org/1999/xlink" width="200" height="200" class="icon" p-id="6717" t="1547360688278" version="1.1" viewBox="0 0 1024 1024"><defs><style type="text/css"/></defs><path fill="#bfbfbf" d="M890 120H134a70 70 0 0 0-70 70v500a70 70 0 0 0 70 70h756a70 70 0 0 0 70-70V190a70 70 0 0 0-70-70z m-10 520a40 40 0 0 1-40 40H712V448a40 40 0 0 0-80 0v232h-80V368a40 40 0 0 0-80 0v312h-80V512a40 40 0 0 0-80 0v168H184a40 40 0 0 1-40-40V240a40 40 0 0 1 40-40h656a40 40 0 0 1 40 40zM696 824H328a40 40 0 0 0 0 80h368a40 40 0 0 0 0-80z" p-id="6718"/></svg>