<?xml version="1.0" standalone="no"?><!DOCTYPE svg PUBLIC "-//W3C//DTD SVG 1.1//EN" "http://www.w3.org/Graphics/SVG/1.1/DTD/svg11.dtd"><svg t="1583751668311" class="icon" viewBox="0 0 1024 1024" version="1.1" xmlns="http://www.w3.org/2000/svg" p-id="2803" xmlns:xlink="http://www.w3.org/1999/xlink" width="200" height="200"><defs><style type="text/css"></style></defs><path d="M263.456 759.36c0 27.04 22.88 40.576 68.672 40.576 40.064 0 60.096-14.048 60.096-42.144 0-26.528-21.856-39.808-65.536-39.808C284.544 718.016 263.456 731.808 263.456 759.36zM853.344 0 170.688 0C76.8 0 0 76.8 0 170.688l0 682.624C0 947.264 76.8 1024 170.688 1024l682.656 0C947.232 1024 1024 947.264 1024 853.312L1024 170.688C1024 76.8 947.232 0 853.344 0zM475.744 408.992c-7.296 2.592-17.696 5.472-31.2 8.576 4.16 11.968 6.24 23.168 6.24 33.568 0 33.28-10.016 62.304-30.048 87.008-20.032 24.704-45.92 39.392-77.632 44.096-20.8 3.136-31.2 14.304-31.2 33.568 0 6.752 3.392 13.536 10.144 20.288 8.832 9.888 21.856 16.128 39.008 18.72 74.4 11.456 111.584 42.4 111.584 92.864 0 80.64-48.128 120.96-144.352 120.96-39.552 0-72.064-7.04-97.536-21.056-32.256-17.696-48.384-45.536-48.384-83.488 0-43.712 24.192-73.6 72.576-89.728l0-1.568c-17.696-10.912-26.528-27.584-26.528-49.952 0-29.12 8.32-47.36 24.96-54.624l0-1.568c-16.64-5.728-31.488-18.72-44.48-39.04-14.56-21.856-21.856-45.248-21.856-70.24 0-37.472 13.28-68.672 39.808-93.632 25.504-23.424 55.936-35.104 91.296-35.104 25.504 0 49.152 6.24 71.008 18.72 24.96 0 53.856-6.24 86.624-18.72L475.744 408.992 475.744 408.992zM602.176 679.008l-88.192 0c1.056-10.4 1.568-28.096 1.568-53.056L515.552 383.232c0-24.448-0.512-41.376-1.568-50.72l88.192 0c-1.056 9.888-1.568 26.272-1.568 49.152l0 239.552C600.608 647.776 601.152 667.04 602.176 679.008zM596.32 254.496c-10.656 11.456-23.296 17.152-37.856 17.152-15.072 0-27.968-5.728-38.624-17.152-10.656-11.456-16-24.96-16-40.576 0-16.128 5.344-29.92 16-41.376 10.656-11.456 23.552-17.152 38.624-17.152 14.56 0 27.2 5.728 37.856 17.152 10.656 11.456 16 25.216 16 41.376C612.32 229.504 606.976 243.04 596.32 254.496zM841.696 668.832c-19.264 10.4-42.4 15.616-69.472 15.616-37.984 0-64.256-13.504-78.816-40.576-10.944-20.288-16.384-52.288-16.384-95.968l0-139.68 0.768 0 0-1.568-11.712-0.768c-6.752 0-15.616 0.768-26.528 2.336L639.584 332.512l38.24 0 0-30.432c0-14.56-0.768-26.272-2.336-35.104l90.528 0c-1.536 9.888-2.336 21.056-2.336 33.536l0 32 67.872 0 0 75.68c-2.592 0-7.424-0.256-14.432-0.768-7.04-0.512-13.664-0.8-19.904-0.8l-33.568 0 0 145.152c0 34.848 11.456 52.288 34.336 52.288 16.128 0 30.688-4.416 43.712-13.248L841.696 668.832 841.696 668.832zM321.216 400.416c-32.768 0-49.152 19.264-49.152 57.76 0 35.904 16.384 53.856 49.152 53.856 31.744 0 47.616-18.208 47.616-54.624 0-15.104-3.648-28.096-10.912-39.008C349.056 406.4 336.832 400.416 321.216 400.416z" p-id="2804"></path></svg>