<svg xmlns="http://www.w3.org/2000/svg" xmlns:xlink="http://www.w3.org/1999/xlink" width="200" height="200" class="icon" p-id="983" t="1552025141027" version="1.1" viewBox="0 0 1024 1024"><defs><style type="text/css"/></defs><path fill="#bfbfbf" d="M895.318 192H128.682C93.008 192 64 220.968 64 256.616v510.698C64 802.986 93.008 832 128.682 832h766.636C930.992 832 960 802.986 960 767.312V256.616C960 220.968 930.992 192 895.318 192zM568.046 704h-112.096v-192l-84.08 107.756L287.826 512v192H175.738V320h112.088l84.044 135.96 84.08-135.96h112.096v384z m167.314 0l-139.27-192h84v-192h112.086v192h84.054l-140.906 192h0.036z" p-id="984"/></svg>