<?xml version="1.0" standalone="no"?><!DOCTYPE svg PUBLIC "-//W3C//DTD SVG 1.1//EN" "http://www.w3.org/Graphics/SVG/1.1/DTD/svg11.dtd"><svg t="1574572606408" class="icon" viewBox="0 0 1024 1024" version="1.1" xmlns="http://www.w3.org/2000/svg" p-id="1870" xmlns:xlink="http://www.w3.org/1999/xlink" width="200" height="200"><defs><style type="text/css"></style></defs><path d="M870.4 793.6H153.6C68.9024 793.6 0 724.6976 0 640V153.6C0 68.9024 68.9024 0 153.6 0h716.8c84.6976 0 153.6 68.9024 153.6 153.6v486.4c0 84.6976-68.9024 153.6-153.6 153.6zM153.6 51.2c-56.4608 0-102.4 45.9392-102.4 102.4v486.4c0 56.4608 45.9392 102.4 102.4 102.4h716.8c56.4608 0 102.4-45.9392 102.4-102.4V153.6c0-56.4608-45.9392-102.4-102.4-102.4H153.6zM793.6 1024H230.4a25.6 25.6 0 0 1 0-51.2h563.2a25.6 25.6 0 0 1 0 51.2zM633.6 908.8h-243.2a25.6 25.6 0 0 1 0-51.2h243.2a25.6 25.6 0 0 1 0 51.2z" fill="#bfbfbf" p-id="1871"></path><path d="M349.0688 404.3008A25.664 25.664 0 0 1 330.9568 396.8l-54.2976-54.3104a25.6 25.6 0 0 1 36.2112-36.2112l44.2624 44.2752 88.2688-20.3648 20.3648-88.256-44.2752-44.2752a25.6 25.6 0 1 1 36.1984-36.1984L512 215.7824c6.2464 6.2336 8.8192 15.2576 6.848 23.8592l-27.1616 117.6704a25.6 25.6 0 0 1-19.1872 19.1872l-117.6832 27.1488a25.7792 25.7792 0 0 1-5.7472 0.6528zM584.4096 639.6288a25.4976 25.4976 0 0 1-18.0992-7.5008L512 577.8304a25.5616 25.5616 0 0 1-6.848-23.8464l27.1488-117.6832a25.6256 25.6256 0 0 1 19.2-19.1872l117.6704-27.1488a25.536 25.536 0 0 1 23.8464 6.848l54.2976 54.3104a25.6 25.6 0 0 1-36.1984 36.2112l-44.2752-44.2752-88.256 20.3648-20.3648 88.256 44.2752 44.2752a25.6 25.6 0 0 1-18.0864 43.6736z" fill="#bfbfbf" p-id="1872"></path><path d="M557.248 467.648a25.4976 25.4976 0 0 1-18.0992-7.5008l-90.496-90.496a25.6 25.6 0 1 1 36.1984-36.1984l90.496 90.496a25.6 25.6 0 0 1-18.0992 43.6992z" fill="#bfbfbf" p-id="1873"></path></svg>