<?xml version="1.0" standalone="no"?><!DOCTYPE svg PUBLIC "-//W3C//DTD SVG 1.1//EN" "http://www.w3.org/Graphics/SVG/1.1/DTD/svg11.dtd"><svg t="1574576420335" class="icon" viewBox="0 0 1024 1024" version="1.1" xmlns="http://www.w3.org/2000/svg" p-id="9530" xmlns:xlink="http://www.w3.org/1999/xlink" width="200" height="200"><defs><style type="text/css"></style></defs><path d="M915.94 827.89h-91.42a12.5 12.5 0 0 1 0-25h78.92v-535h-78.92a12.5 12.5 0 1 1 0-25h91.42a12.5 12.5 0 0 1 12.5 12.5v560a12.5 12.5 0 0 1-12.5 12.5z" fill="#cdcdcd" p-id="9531"></path><path d="M915.94 547.91h-91.42a12.5 12.5 0 0 1 0-25h91.42a12.5 12.5 0 0 1 0 25z" fill="#cdcdcd" p-id="9532"></path><path d="M774.6 231.51a90.63 90.63 0 0 1-90.37 90.37H215.94a90.62 90.62 0 0 1-81.18-50.81 88.92 88.92 0 0 0 15.4 1.33h468.29a90.26 90.26 0 0 0 81.18-129.92c42.44 7.35 74.97 44.57 74.97 89.03z" fill="#cdcdcd" p-id="9533"></path><path d="M684.23 334.38H215.94a102.23 102.23 0 0 1-55.12-16.11 103.66 103.66 0 0 1-37.28-41.69 12.5 12.5 0 0 1 13.38-17.82 76.71 76.71 0 0 0 13.24 1.14h468.29a77.76 77.76 0 0 0 70-111.91 12.5 12.5 0 0 1 13.35-17.83 103.18 103.18 0 0 1 85.3 101.35 103.13 103.13 0 0 1-102.87 102.87zM159.46 284.9a78.31 78.31 0 0 0 56.48 24.48h468.29a77.75 77.75 0 0 0 59.28-128.2 78.73 78.73 0 0 0-24.14-19.08 103.06 103.06 0 0 1-100.92 122.8z" fill="#cdcdcd" p-id="9534"></path><path d="M618.45 284.91H150.16a102.86 102.86 0 1 1 0-205.73h468.29a102.86 102.86 0 0 1 0 205.73zM150.16 104.18a77.86 77.86 0 1 0 0 155.73h468.29a77.86 77.86 0 0 0 0-155.73z" fill="#cdcdcd" p-id="9535"></path><path d="M176.2 235.43A53.39 53.39 0 1 1 229.59 182a53.45 53.45 0 0 1-53.39 53.43z m0-81.78A28.39 28.39 0 1 0 204.59 182a28.43 28.43 0 0 0-28.39-28.35zM551.12 194.54H423a12.5 12.5 0 0 1 0-25h128.12a12.5 12.5 0 0 1 0 25z" fill="#cdcdcd" p-id="9536"></path><path d="M774.6 534.74a90.63 90.63 0 0 1-90.37 90.37H215.94a90.62 90.62 0 0 1-81.18-50.81 88.92 88.92 0 0 0 15.4 1.33h468.29a90.26 90.26 0 0 0 81.18-129.92c42.44 7.35 74.97 44.57 74.97 89.03z" fill="#cdcdcd" p-id="9537"></path><path d="M684.23 637.61H215.94a102.23 102.23 0 0 1-55.12-16.11 103.66 103.66 0 0 1-37.28-41.69A12.5 12.5 0 0 1 136.92 562a76.71 76.71 0 0 0 13.24 1.14h468.29a77.76 77.76 0 0 0 70-111.91 12.5 12.5 0 0 1 13.35-17.83 103.18 103.18 0 0 1 85.3 101.34 103.13 103.13 0 0 1-102.87 102.87z m-524.77-49.48a78.31 78.31 0 0 0 56.48 24.48h468.29a77.75 77.75 0 0 0 59.28-128.2 78.73 78.73 0 0 0-24.14-19.08 103.06 103.06 0 0 1-100.92 122.8z" fill="#cdcdcd" p-id="9538"></path><path d="M618.45 588.13H150.16a102.86 102.86 0 1 1 0-205.73h468.29a102.86 102.86 0 0 1 0 205.73zM150.16 407.4a77.86 77.86 0 1 0 0 155.73h468.29a77.86 77.86 0 0 0 0-155.73z" fill="#cdcdcd" p-id="9539"></path><path d="M176.2 538.66a53.39 53.39 0 1 1 53.39-53.39 53.45 53.45 0 0 1-53.39 53.39z m0-81.78a28.39 28.39 0 1 0 28.39 28.39 28.43 28.43 0 0 0-28.39-28.39zM551.12 497.77H423a12.5 12.5 0 0 1 0-25h128.12a12.5 12.5 0 0 1 0 25z" fill="#cdcdcd" p-id="9540"></path><path d="M774.6 869.33a90.63 90.63 0 0 1-90.37 90.37H215.94a90.62 90.62 0 0 1-81.18-50.81 88.92 88.92 0 0 0 15.4 1.33h468.29a90.26 90.26 0 0 0 81.18-129.92c42.44 7.35 74.97 44.57 74.97 89.03z" fill="#cdcdcd" p-id="9541"></path><path d="M684.23 972.2H215.94a102.23 102.23 0 0 1-55.12-16.11 103.66 103.66 0 0 1-37.28-41.69 12.5 12.5 0 0 1 13.38-17.82 76.71 76.71 0 0 0 13.24 1.14h468.29a77.76 77.76 0 0 0 70-111.91A12.5 12.5 0 0 1 701.76 768a102.73 102.73 0 0 1 55.14 174 102.16 102.16 0 0 1-72.67 30.2z m-524.77-49.48a78.31 78.31 0 0 0 56.48 24.48h468.29A77.75 77.75 0 0 0 743.51 819a78.71 78.71 0 0 0-24.14-19.08 103.06 103.06 0 0 1-100.92 122.8z" fill="#cdcdcd" p-id="9542"></path><path d="M618.45 922.72H150.16a102.86 102.86 0 1 1 0-205.73h468.29a102.86 102.86 0 0 1 0 205.73zM150.16 742a77.86 77.86 0 1 0 0 155.73h468.29a77.86 77.86 0 1 0 0-155.73z" fill="#cdcdcd" p-id="9543"></path><path d="M176.2 873.25a53.39 53.39 0 1 1 53.39-53.39 53.45 53.45 0 0 1-53.39 53.39z m0-81.78a28.39 28.39 0 1 0 28.39 28.39 28.42 28.42 0 0 0-28.39-28.4zM551.12 832.35H423a12.5 12.5 0 0 1 0-25h128.12a12.5 12.5 0 0 1 0 25z" fill="#cdcdcd" p-id="9544"></path></svg>