<?xml version="1.0" standalone="no"?><!DOCTYPE svg PUBLIC "-//W3C//DTD SVG 1.1//EN" "http://www.w3.org/Graphics/SVG/1.1/DTD/svg11.dtd"><svg t="1574679314986" class="icon" viewBox="0 0 1024 1024" version="1.1" xmlns="http://www.w3.org/2000/svg" p-id="2155" xmlns:xlink="http://www.w3.org/1999/xlink" width="200" height="200"><defs><style type="text/css"></style></defs><path d="M546.26 538.81v257.63c0 18.38-14.9 33.29-33.29 33.29-18.01 0.37-32.91-13.93-33.29-31.94-0.01-0.45-0.01-0.9 0-1.35V538.81l-233-134.47c-15.73-9.25-21.07-29.45-11.98-45.27 8.82-15.71 28.7-21.3 44.41-12.48 0.29 0.16 0.57 0.33 0.86 0.5l233 133.14 231-133.14c15.43-9.29 35.48-4.31 44.77 11.13 0.17 0.28 0.34 0.57 0.5 0.86 9.09 15.82 3.74 36.01-11.98 45.27l-231 133.14v1.32z" fill="#515151" p-id="2156"></path><path d="M512 1006.74c-18.08 0-36.14-4.65-52.27-13.96L121.77 797.65c-32.24-18.61-52.27-53.3-52.27-90.53V316.87c0-37.23 20.03-71.92 52.27-90.53L459.73 31.22c32.24-18.61 72.29-18.61 104.53 0l337.97 195.13c32.24 18.61 52.27 53.3 52.27 90.53v390.25c0 37.23-20.03 71.92-52.27 90.53L564.27 992.78c-16.12 9.3-34.2 13.96-52.27 13.96z m0-940.77c-9.65 0-19.29 2.48-27.9 7.45L146.13 268.55c-17.21 9.94-27.9 28.45-27.9 48.32v390.25c0 19.87 10.69 38.39 27.9 48.32L484.1 950.57c17.21 9.94 38.59 9.93 55.8 0l337.97-195.13c17.21-9.94 27.9-28.45 27.9-48.32V316.87c0-19.87-10.69-38.39-27.9-48.32L539.9 73.43a55.757 55.757 0 0 0-27.9-7.46z" fill="#515151" p-id="2157"></path></svg>