<svg xmlns="http://www.w3.org/2000/svg" xmlns:xlink="http://www.w3.org/1999/xlink" width="200" height="200" class="icon" p-id="1381" t="1545700997954" version="1.1" viewBox="0 0 1024 1024"><defs><style type="text/css"/></defs><path d="M880 512H320V288c0-106.032 85.968-192 192-192s192 85.968 192 192a48 48 0 1 0 96 0c0-159.056-128.944-288-288-288S224 128.944 224 288v224H144a48 48 0 0 0-48 48v416a48 48 0 0 0 48 48h736a48 48 0 0 0 48-48V560a48 48 0 0 0-48-48zM560 786.688V880a48 48 0 1 1-96 0v-93.312c-28.576-16.624-48-47.248-48-82.688a96 96 0 1 1 192 0c0 35.44-19.424 66.064-48 82.688z" p-id="1382"/></svg>