<svg xmlns="http://www.w3.org/2000/svg" xmlns:xlink="http://www.w3.org/1999/xlink" width="200" height="200" class="icon" p-id="2702" t="1561614445035" version="1.1" viewBox="0 0 1024 1024"><defs><style type="text/css"/></defs><path fill="#8a8a8a" d="M914.285769 802.889143q0 68.534857-41.691429 108.251429t-110.884571 39.716571l-499.419429 0q-69.12 0-110.884571-39.716571t-41.691429-108.251429q0-30.281143 1.974857-59.172571t7.972571-62.317714 15.140571-62.025143 24.576-55.734857 35.401143-46.299429 48.859429-30.573714 63.707429-11.410286q5.12 0 23.990857 12.288t42.569143 27.428571 61.732571 27.428571 76.288 12.288 76.288-12.288 61.732571-27.428571 42.569143-27.428571 23.990857-12.288q34.889143 0 63.707429 11.410286t48.859429 30.573714 35.401143 46.299429 24.576 55.734857 15.140571 62.025143 7.972571 62.317714 1.974857 59.172571zM731.428626 292.571429q0 90.843429-64.292571 155.136t-155.136 64.292571-155.136-64.292571-64.292571-155.136 64.292571-155.136 155.136-64.292571 155.136 64.292571 64.292571 155.136z" p-id="2703"/></svg>