<svg xmlns="http://www.w3.org/2000/svg" xmlns:xlink="http://www.w3.org/1999/xlink" width="200" height="200" class="icon" p-id="4263" t="1553934943780" version="1.1" viewBox="0 0 1024 1024"><defs><style type="text/css"/></defs><path fill="#8a8a8a" d="M512 256s-97.2-4.8-144-96c16.8 113.6 108 192 144 192s127.2-78.8 144-192c-46.8 91.2-144 96-144 96z" p-id="4264"/><path fill="#8a8a8a" d="M928 448C928 218.4 741.6 32 512 32S96 218.4 96 448c0 186.8 122.8 344.4 292.4 397.2-42 35.2-68.4 88-68.4 146.8h64c0-70.8 57.2-128 128-128s128 57.2 128 128h64c0-58.8-26.4-111.6-68.4-146.8 169.6-52.8 292.4-210.4 292.4-397.2z m-416 352c-194.4 0-352-157.6-352-352s157.6-352 352-352 352 157.6 352 352-157.6 352-352 352z" p-id="4265"/></svg>