<svg xmlns="http://www.w3.org/2000/svg" xmlns:xlink="http://www.w3.org/1999/xlink" width="200" height="200" class="icon" p-id="1777" t="1561614261684" version="1.1" viewBox="0 0 1024 1024"><defs><style type="text/css"/></defs><path fill="#8a8a8a" d="M963.801169 218.170758a72.850542 72.850542 0 0 0-57.513586-63.903984 1357.959666 1357.959666 0 0 1-185.960594-42.815669A690.80207 690.80207 0 0 1 554.17663 14.317049a76.045741 76.045741 0 0 0-88.826539 0 435.825173 435.825173 0 0 1-167.428438 96.495016 624.341926 624.341926 0 0 1-180.848276 44.732789 67.738223 67.738223 0 0 0-56.874546 63.903984S58.281712 379.847839 58.281712 521.075644c0 255.615937 301.626806 502.924356 452.440208 502.924356s406.42934-174.457877 447.32789-499.090117c10.224637-191.711953 3.195199-306.100085 3.195199-306.100085zM799.567929 415.63407l-315.046642 297.153527a42.815669 42.815669 0 0 1-52.401267 5.112318l-8.307518-7.029438L249.993665 530.022202a42.815669 42.815669 0 0 1 63.903984-58.791666L457.042574 621.404899l283.73369-268.396734a42.815669 42.815669 0 1 1 58.791665 63.903984" p-id="1778"/></svg>