<svg xmlns="http://www.w3.org/2000/svg" xmlns:xlink="http://www.w3.org/1999/xlink" width="200" height="200" class="icon" p-id="2023" t="1564885435527" version="1.1" viewBox="0 0 1024 1024"><defs><style type="text/css"/></defs><path fill="#bfbfbf" d="M1024 659.2c0-147.2-147.2-262.4-307.2-262.4-172.8 0-307.2 115.2-307.2 262.4 0 147.2 134.4 262.4 307.2 262.4 38.4 0 70.4-6.4 108.8-19.2l102.4 51.2L896 870.4C972.8 812.8 1024 742.4 1024 659.2zM614.4 614.4c-19.2 0-38.4-19.2-38.4-38.4 0-19.2 19.2-38.4 38.4-38.4 25.6 0 44.8 19.2 44.8 38.4C659.2 595.2 646.4 614.4 614.4 614.4zM812.8 614.4c-19.2 0-38.4-19.2-38.4-38.4 0-19.2 19.2-38.4 38.4-38.4 25.6 0 44.8 19.2 44.8 38.4C864 595.2 844.8 614.4 812.8 614.4z" p-id="2024"/><path fill="#bfbfbf" d="M364.8 128C166.4 128 0 262.4 0 435.2c0 102.4 51.2 179.2 147.2 243.2l-38.4 108.8 128-64c44.8 6.4 83.2 19.2 128 19.2 12.8 0 25.6 0 32 0C390.4 716.8 384 691.2 384 665.6c0-160 134.4-288 307.2-288 12.8 0 25.6 0 32 0C697.6 236.8 537.6 128 364.8 128zM243.2 371.2C217.6 371.2 192 352 192 326.4c0-25.6 25.6-44.8 57.6-44.8s44.8 19.2 44.8 44.8C288 352 268.8 371.2 243.2 371.2zM499.2 371.2c-25.6 0-57.6-19.2-57.6-44.8 0-25.6 25.6-44.8 57.6-44.8 25.6 0 44.8 19.2 44.8 44.8C544 352 524.8 371.2 499.2 371.2z" p-id="2025"/></svg>