<?xml version="1.0" standalone="no"?><!DOCTYPE svg PUBLIC "-//W3C//DTD SVG 1.1//EN" "http://www.w3.org/Graphics/SVG/1.1/DTD/svg11.dtd"><svg t="1668585692554" class="icon" viewBox="0 0 1024 1024" version="1.1" xmlns="http://www.w3.org/2000/svg" p-id="3050" xmlns:xlink="http://www.w3.org/1999/xlink" width="200" height="200"><path d="M785.066667 134.4h32v160h-32V134.4z m19.2 132.266667h34.133333c8.533333 0 12.8-2.133333 17.066667-4.266667 4.266667-2.133333 6.4-8.533333 6.4-14.933333v-64c0-6.4-2.133333-10.666667-6.4-14.933334s-10.666667-4.266667-17.066667-4.266666h-34.133333V134.4h34.133333c12.8 0 21.333333 2.133333 29.866667 6.4s14.933333 8.533333 19.2 14.933333c4.266667 6.4 8.533333 14.933333 8.533333 23.466667v66.133333c0 8.533333-2.133333 17.066667-6.4 25.6s-10.666667 12.8-19.2 17.066667-19.2 6.4-32 6.4h-34.133333v-27.733333zM750.933333 202.666667c6.4 2.133333 10.666667 6.4 14.933334 10.666666s4.266667 14.933333 4.266666 34.133334c0 12.8-2.133333 23.466667-4.266666 29.866666-2.133333 6.4-8.533333 12.8-17.066667 14.933334-8.533333 4.266667-19.2 6.4-32 6.4s-25.6-2.133333-34.133333-6.4c-8.533333-4.266667-12.8-10.666667-17.066667-14.933334s-4.266667-17.066667-4.266667-32v-12.8h44.8v27.733334c0 6.4 0 12.8 2.133334 12.8 2.133333 2.133333 2.133333 2.133333 6.4 2.133333s6.4-2.133333 6.4-4.266667c2.133333-2.133333 2.133333-8.533333 2.133333-19.2v-10.666666c0-6.4-2.133333-10.666667-2.133333-12.8l-6.4-6.4c-2.133333-2.133333-8.533333-2.133333-17.066667-2.133334V194.133333c10.666667 0 17.066667 0 19.2-2.133333 2.133333-2.133333 4.266667-2.133333 4.266667-4.266667 2.133333-2.133333 2.133333-6.4 2.133333-12.8v-8.533333c0-6.4-2.133333-10.666667-2.133333-10.666667-2.133333-2.133333-4.266667-2.133333-6.4-2.133333s-4.266667 2.133333-6.4 2.133333c-2.133333 2.133333-2.133333 6.4-2.133334 12.8v12.8h-42.666666v-12.8c0-14.933333 4.266667-27.733333 10.666666-32 10.666667-6.4 21.333333-8.533333 40.533334-8.533333 21.333333 0 36.266667 4.266667 44.8 10.666667s10.666667 19.2 10.666666 32c0 10.666667-2.133333 14.933333-4.266666 19.2-2.133333 4.266667-8.533333 8.533333-14.933334 12.8z" fill="#515151" p-id="3051"></path><path d="M213.333333 642.133333m-42.666666 0a42.666667 42.666667 0 1 0 85.333333 0 42.666667 42.666667 0 1 0-85.333333 0Z" fill="#515151" p-id="3052"></path><path d="M213.333333 832m-64 0a64 64 0 1 0 128 0 64 64 0 1 0-128 0Z" fill="#515151" p-id="3053"></path><path d="M524.8 808.533333m-42.666667 0a42.666667 42.666667 0 1 0 85.333334 0 42.666667 42.666667 0 1 0-85.333334 0Z" fill="#515151" p-id="3054"></path><path d="M693.333333 377.6m-42.666666 0a42.666667 42.666667 0 1 0 85.333333 0 42.666667 42.666667 0 1 0-85.333333 0Z" fill="#515151" p-id="3055"></path><path d="M213.333333 213.333333m-85.333333 0a85.333333 85.333333 0 1 0 170.666667 0 85.333333 85.333333 0 1 0-170.666667 0Z" fill="#515151" p-id="3056"></path><path d="M789.333333 484.266667m-64 0a64 64 0 1 0 128 0 64 64 0 1 0-128 0Z" fill="#515151" p-id="3057"></path><path d="M524.8 471.466667m-85.333333 0a85.333333 85.333333 0 1 0 170.666666 0 85.333333 85.333333 0 1 0-170.666666 0Z" fill="#515151" p-id="3058"></path><path d="M277.333333 448m-64 0a64 64 0 1 0 128 0 64 64 0 1 0-128 0Z" fill="#515151" p-id="3059"></path><path d="M853.333333 853.333333m-42.666666 0a42.666667 42.666667 0 1 0 85.333333 0 42.666667 42.666667 0 1 0-85.333333 0Z" fill="#515151" p-id="3060"></path><path d="M704 712.533333m-85.333333 0a85.333333 85.333333 0 1 0 170.666666 0 85.333333 85.333333 0 1 0-170.666666 0Z" fill="#515151" p-id="3061"></path><path d="M413.866667 684.8m-64 0a64 64 0 1 0 128 0 64 64 0 1 0-128 0Z" fill="#515151" p-id="3062"></path><path d="M460.8 234.666667m-64 0a64 64 0 1 0 128 0 64 64 0 1 0-128 0Z" fill="#515151" p-id="3063"></path></svg>