<?xml version="1.0" standalone="no"?><!DOCTYPE svg PUBLIC "-//W3C//DTD SVG 1.1//EN" "http://www.w3.org/Graphics/SVG/1.1/DTD/svg11.dtd"><svg xmlns:xlink="http://www.w3.org/1999/xlink" version="1.1" class="highcharts-root" style="font-family: &quot;Lucida Grande&quot;, &quot;Lucida Sans Unicode&quot;, Arial, Helvetica, sans-serif; font-size: 12px;" xmlns="http://www.w3.org/2000/svg" width="600" height="400" viewBox="0 0 600 400" role="img" aria-label="3D柱状图"><desc>Created with Highcharts 10.1.0</desc><defs><clipPath id="highcharts-694bt3b-34-"><rect x="0" y="0" width="600" height="400" fill="none"></rect></clipPath></defs><rect fill="#ffffff" class="highcharts-background" x="0" y="0" width="600" height="400" rx="0" ry="0"></rect><g stroke-linejoin="round" class="highcharts-3d-frame highcharts-3d-frame-bottom" data-z-index="-1000"><path fill="none" d="M 105.96822301522377 283.40864210756433 L 541.594305721786 325.81392147096716 L 544.2795725112272 309.9677734534266 L 123.16759966983452 270.5396396084284 Z" visibility="hidden"></path><path fill="none" d="M 123.50384092908325 270.1309956499158 L 544.2751279708499 309.47993330290274 L 541.6417843465256 325 L 106.64695179076443 282.73833260890444 Z"></path><path fill="none" d="M 105.96822301522377 283.40864210756433 L 123.16759966983452 270.5396396084284 L 123.50384092908325 270.1309956499158 L 106.64695179076443 282.73833260890444 Z" visibility="hidden"></path><path fill="none" d="M 544.2795725112272 309.9677734534266 L 541.594305721786 325.81392147096716 L 541.6417843465256 325 L 544.2751279708499 309.47993330290274 Z"></path><path fill="none" d="M 541.594305721786 325.81392147096716 L 105.96822301522377 283.40864210756433 L 106.64695179076443 282.73833260890444 L 541.6417843465256 325 Z"></path><path fill="none" d="M 123.16759966983452 270.5396396084284 L 544.2795725112272 309.9677734534266 L 544.2751279708499 309.47993330290274 L 123.50384092908325 270.1309956499158 Z" visibility="hidden"></path></g><g stroke-linejoin="round" class="highcharts-3d-frame highcharts-3d-frame-left" data-z-index="-1000"><path fill="none" d="M 105.96822301522377 283.40864210756433 L 106.64695179076443 282.73833260890444 L 123.50384092908325 270.1309956499158 L 123.16759966983452 270.5396396084284 Z" visibility="hidden"></path><path fill="none" d="M 112.83486882849854 64.3261682395656 L 113.21759221031027 64.46867621014637 L 95.06323594289475 70.29757474791836 L 94.30685351515626 70.26520958389344 Z"></path><path fill="none" d="M 123.16759966983452 270.5396396084284 L 112.83486882849854 64.3261682395656 L 94.30685351515626 70.26520958389344 L 105.96822301522377 283.40864210756433 Z" visibility="hidden"></path><path fill="none" d="M 113.21759221031027 64.46867621014637 L 123.50384092908325 270.1309956499158 L 106.64695179076443 282.73833260890444 L 95.06323594289475 70.29757474791836 Z"></path><path fill="none" d="M 105.96822301522377 283.40864210756433 L 94.30685351515626 70.26520958389344 L 95.06323594289475 70.29757474791836 L 106.64695179076443 282.73833260890444 Z"></path><path fill="none" d="M 112.83486882849854 64.3261682395656 L 123.16759966983452 270.5396396084284 L 123.50384092908325 270.1309956499158 L 113.21759221031027 64.46867621014637 Z" visibility="hidden"></path></g><g stroke-linejoin="round" class="highcharts-3d-frame highcharts-3d-frame-back" data-z-index="-1000"><path fill="none" d="M 544.2795725112272 309.9677734534266 L 123.16759966983452 270.5396396084284 L 123.50384092908325 270.1309956499158 L 544.2751279708499 309.47993330290274 Z" visibility="hidden"></path><path fill="none" d="M 112.83486882849854 64.3261682395656 L 557.6471172291087 82.59256218845987 L 557.6038430867408 82.73200468156192 L 113.21759221031027 64.46867621014637 Z"></path><path fill="none" d="M 123.16759966983452 270.5396396084284 L 112.83486882849854 64.3261682395656 L 113.21759221031027 64.46867621014637 L 123.50384092908325 270.1309956499158 Z" visibility="hidden"></path><path fill="none" d="M 557.6471172291087 82.59256218845987 L 544.2795725112272 309.9677734534266 L 544.2751279708499 309.47993330290274 L 557.6038430867408 82.73200468156192 Z"></path><path fill="none" d="M 113.21759221031027 64.46867621014637 L 557.6038430867408 82.73200468156192 L 544.2751279708499 309.47993330290274 L 123.50384092908325 270.1309956499158 Z"></path><path fill="none" d="M 123.16759966983452 270.5396396084284 L 544.2795725112272 309.9677734534266 L 557.6471172291087 82.59256218845987 L 112.83486882849854 64.3261682395656 Z" visibility="hidden"></path></g><rect fill="none" class="highcharts-plot-background" x="46" y="53" width="544" height="272"></rect><g class="highcharts-grid highcharts-xaxis-grid" data-z-index="1"><path fill="none" stroke="#e6e6e6" stroke-width="1" stroke-dasharray="none" data-z-index="1" class="highcharts-grid-line" d="M 132.75059397550595 65.27144098193429 L 142.09989138926298 271.87002788116394 M 125.80361133204471 284.5994866118184 L 142.09989138926298 271.87002788116394" opacity="1"></path><path fill="none" stroke="#e6e6e6" stroke-width="1" stroke-dasharray="none" data-z-index="1" class="highcharts-grid-line" d="M 199.80658560101057 68.027299424039 L 205.8683449579854 277.8334122207755 M 191.54208635908788 290.98626953075023 L 205.8683449579854 277.8334122207755" opacity="1"></path><path fill="none" stroke="#e6e6e6" stroke-width="1" stroke-dasharray="none" data-z-index="1" class="highcharts-grid-line" d="M 269.1938189962887 70.87896693787735 L 271.7381735252857 283.99330919409334 M 259.5243690330269 297.59104826334624 L 271.7381735252857 283.99330919409334" opacity="1"></path><path fill="none" stroke="#e6e6e6" stroke-width="1" stroke-dasharray="none" data-z-index="1" class="highcharts-grid-line" d="M 341.0360153089388 73.83152819911834 L 339.8149877616656 290.359595111163 M 329.8673335394422 304.4251776524412 L 339.8149877616656 290.359595111163" opacity="1"></path><path fill="none" stroke="#e6e6e6" stroke-width="1" stroke-dasharray="none" data-z-index="1" class="highcharts-grid-line" d="M 415.4658080085912 76.89043416088514 L 410.21159594217454 296.942819374756 M 402.6961143856746 311.5008150675774 L 410.21159594217454 296.942819374756" opacity="1"></path><path fill="none" stroke="#e6e6e6" stroke-width="1" stroke-dasharray="none" data-z-index="1" class="highcharts-grid-line" d="M 492.62556010930166 80.06153563985536 L 483.0486277408148 303.75426281526063 M 478.144849296125 318.8309925805612 L 483.0486277408148 303.75426281526063" opacity="1"></path></g><g class="highcharts-grid highcharts-zaxis-grid" data-z-index="1"></g><g class="highcharts-grid highcharts-yaxis-grid" data-z-index="1"><path fill="none" stroke="#e6e6e6" stroke-width="1" stroke-dasharray="none" data-z-index="1" class="highcharts-grid-line" d="M 123.52179803759844 270.49002844103717 L 544.2519919845817 309.87352240112534 M 106.66713705037424 283.1085222704463 L 123.52179803759844 270.49002844103717" opacity="1"></path><path fill="none" stroke="#e6e6e6" stroke-width="1" stroke-dasharray="none" data-z-index="1" class="highcharts-grid-line" d="M 121.56307851172099 231.32756874970826 L 546.7783204851861 266.8956547260822 M 104.46461927123997 242.71521908978957 L 121.56307851172099 231.32756874970826" opacity="1"></path><path fill="none" stroke="#e6e6e6" stroke-width="1" stroke-dasharray="none" data-z-index="1" class="highcharts-grid-line" d="M 119.52710816022491 190.62056309126118 L 549.4100947748645 222.12394465539265 M 102.17361524718709 200.69911324566513 L 119.52710816022491 190.62056309126118" opacity="1"></path><path fill="none" stroke="#e6e6e6" stroke-width="1" stroke-dasharray="none" data-z-index="1" class="highcharts-grid-line" d="M 117.48667373661323 149.82430318177097 L 552.0535999697656 177.15266857725442 M 99.87592927533152 158.56046312698817 L 117.48667373661323 149.82430318177097" opacity="1"></path><path fill="none" stroke="#e6e6e6" stroke-width="1" stroke-dasharray="none" data-z-index="1" class="highcharts-grid-line" d="M 115.36487047735653 107.40116218799152 L 554.8088738180468 130.27998561793066 M 97.48485265388916 114.7090655069128 L 115.36487047735653 107.40116218799152" opacity="1"></path><path fill="none" stroke="#e6e6e6" stroke-width="1" stroke-dasharray="none" data-z-index="1" class="highcharts-grid-line" d="M 113.19768171973968 64.07058767623221 L 557.629790458529 82.29058832934919 M 95.04077303739379 69.88561396339567 L 113.19768171973968 64.07058767623221" opacity="1"></path></g><rect fill="none" class="highcharts-plot-border" data-z-index="1" x="46" y="53" width="544" height="272"></rect><g class="highcharts-axis highcharts-xaxis" data-z-index="2"><path fill="none" class="highcharts-axis-line" stroke="#ccd6eb" stroke-width="1" data-z-index="7" d="M 0 0"></path></g><g class="highcharts-axis highcharts-zaxis" data-z-index="2"><path fill="none" class="highcharts-axis-line" data-z-index="7" d="M 0 0"></path></g><g class="highcharts-axis highcharts-yaxis" data-z-index="2"><path fill="none" class="highcharts-axis-line" data-z-index="7" d="M 0 0"></path></g><g class="highcharts-series-group" data-z-index="3"><g class="highcharts-markers highcharts-series-0 highcharts-column-series highcharts-color-0" transform="translate(46,53) scale(1 1)" visibility="visible" data-z-index="10" opacity="1" clip-path="none"><g stroke-linejoin="round" data-z-index="15600225" stroke="#7cb5ec" stroke-width="1" opacity="1" class="highcharts-point highcharts-color-0"><path fill="#7cb5ec" d="M 72.18989664927133 230.93348658897148 L 88.16061666431574 232.485413559304 L 86.98710889677594 207.7603182080775 L 70.91966383349859 206.29974300725112 Z" class="highcharts-3d-front" data-z-index="0"></path><path fill="rgb(149,206,255)" d="M 86.98710889677594 207.7603182080775 L 95.21299897917726 201.6471740997332 L 79.38664612009035 200.23612216901944 L 70.91966383349859 206.29974300725112 Z" class="highcharts-3d-top" data-z-index="0"></path><path fill="rgb(99,156,211)" d="M 86.98710889677594 207.7603182080775 L 88.16061666431574 232.485413559304 L 96.31523808278257 225.9893851442126 L 95.21299897917726 201.6471740997332 Z" class="highcharts-3d-side" data-z-index="0"></path></g><g stroke-linejoin="round" data-z-index="60600675" stroke="#7cb5ec" stroke-width="1" opacity="1" class="highcharts-point highcharts-color-0"><path fill="#7cb5ec" d="M 104.99737085748612 234.12149589626978 L 121.23777454537674 235.69962890896943 L 118.92348976909452 176.29034963838504 L 102.44446332606753 174.93551406283592 Z" class="highcharts-3d-front" data-z-index="0"></path><path fill="rgb(149,206,255)" d="M 118.92348976909452 176.29034963838504 L 126.73354090176889 170.62105901710953 L 110.5085592640211 169.3129388093748 L 102.44446332606753 174.93551406283592 Z" class="highcharts-3d-top" data-z-index="0"></path><path fill="rgb(99,156,211)" d="M 118.92348976909452 176.29034963838504 L 121.23777454537674 235.69962890896943 L 128.89204464552455 229.09462883050236 L 126.73354090176889 170.62105901710953 Z" class="highcharts-3d-side" data-z-index="0"></path></g><g stroke-linejoin="round" data-z-index="105601055" stroke="#7cb5ec" stroke-width="1" opacity="1" class="highcharts-point highcharts-color-0"><path fill="#7cb5ec" d="M 138.3600417772225 237.36345547942528 L 154.87701814167116 238.96846396145907 L 152.15964581867917 149.25242689245118 L 135.2725813102984 147.99004082933544 Z" class="highcharts-3d-front" data-z-index="0"></path><path fill="rgb(149,206,255)" d="M 152.15964581867917 149.25242689245118 L 159.5062198176149 143.9711311732185 L 142.88637101524273 142.75296181790517 L 135.2725813102984 147.99004082933544 Z" class="highcharts-3d-top" data-z-index="0"></path><path fill="rgb(99,156,211)" d="M 152.15964581867917 149.25242689245118 L 154.87701814167116 238.96846396145907 L 162.01285100174726 232.25172695257902 L 159.5062198176149 143.9711311732185 Z" class="highcharts-3d-side" data-z-index="0"></path></g><g stroke-linejoin="round" data-z-index="149601305" stroke="#7cb5ec" stroke-width="1" opacity="1" class="highcharts-point highcharts-color-0"><path fill="#7cb5ec" d="M 171.53178613792758 240.586862105918 L 188.3260772629048 242.21881816800635 L 185.93407538618058 131.7679235660087 L 168.67200392307112 130.5633427692046 Z" class="highcharts-3d-front" data-z-index="0"></path><path fill="rgb(149,206,255)" d="M 185.93407538618058 131.7679235660087 L 192.77333764247066 126.72938995263995 L 175.79089634786445 125.56756191342707 L 168.67200392307112 130.5633427692046 Z" class="highcharts-3d-top" data-z-index="0"></path><path fill="rgb(99,156,211)" d="M 185.93407538618058 131.7679235660087 L 188.3260772629048 242.21881816800635 L 194.93682580030475 235.39006295472453 L 192.77333764247066 126.72938995263995 Z" class="highcharts-3d-side" data-z-index="0"></path></g><g stroke-linejoin="round" data-z-index="194601465" stroke="#7cb5ec" stroke-width="1" opacity="1" class="highcharts-point highcharts-color-0"><path fill="#7cb5ec" d="M 206.03483684150768 243.93963611330122 L 223.1200322606436 245.59986029476465 L 221.5451402333501 121.22359492617129 L 203.9186954998849 120.05016175523966 Z" class="highcharts-3d-front" data-z-index="0"></path><path fill="rgb(149,206,255)" d="M 221.5451402333501 121.22359492617129 L 227.8196891076216 116.31616362811184 L 210.48520697338722 115.18487113921397 L 203.9186954998849 120.05016175523966 Z" class="highcharts-3d-top" data-z-index="0"></path><path fill="rgb(99,156,211)" d="M 221.5451402333501 121.22359492617129 L 223.1200322606436 245.59986029476465 L 229.17445399380125 238.65361730516798 L 227.8196891076216 116.31616362811184 Z" class="highcharts-3d-side" data-z-index="0"></path></g><g stroke-linejoin="round" data-z-index="238601805" stroke="#7cb5ec" stroke-width="1" opacity="1" class="highcharts-point highcharts-color-0"><path fill="#7cb5ec" d="M 240.35020606681283 247.2741724991062 L 257.72721146894304 248.96275280868372 L 257.1588367997526 95.3720177311398 L 239.09539930404958 94.29398280016372 Z" class="highcharts-3d-front" data-z-index="0"></path><path fill="rgb(149,206,255)" d="M 257.1588367997526 95.3720177311398 L 262.8747833621277 90.86454603289735 L 245.1183030232075 89.82582499585294 L 239.09539930404958 94.29398280016372 Z" class="highcharts-3d-top" data-z-index="0"></path><path fill="rgb(99,156,211)" d="M 257.1588367997526 95.3720177311398 L 257.72721146894304 248.96275280868372 L 263.2180504773643 241.8986764190986 L 262.8747833621277 90.86454603289735 Z" class="highcharts-3d-side" data-z-index="0"></path></g><g stroke-linejoin="round" data-z-index="283601375" stroke="#7cb5ec" stroke-width="1" opacity="1" class="highcharts-point highcharts-color-0"><path fill="#7cb5ec" d="M 276.05312160844204 250.74354128751168 L 293.7363704758859 252.46188027377133 L 294.4071557442395 133.54556671087178 L 276.17764932288003 132.29902673234784 Z" class="highcharts-3d-front" data-z-index="0"></path><path fill="rgb(149,206,255)" d="M 294.4071557442395 133.54556671087178 L 299.4365997561016 128.33355006786448 L 281.52010242480435 127.13247333568489 L 276.17764932288003 132.29902673234784 Z" class="highcharts-3d-top" data-z-index="0"></path><path fill="rgb(99,156,211)" d="M 294.4071557442395 133.54556671087178 L 293.7363704758859 252.46188027377133 L 298.6299564288441 245.27416373592737 L 299.4365997561016 128.33355006786448 Z" class="highcharts-3d-side" data-z-index="0"></path></g><g stroke-linejoin="round" data-z-index="327601515" stroke="#7cb5ec" stroke-width="1" opacity="1" class="highcharts-point highcharts-color-0"><path fill="#7cb5ec" d="M 311.57229308657855 254.19505506577963 L 329.5628752463117 255.94325863076432 L 331.5304858163576 124.34532360743053 L 312.9189127130418 123.12505725869595 Z" class="highcharts-3d-front" data-z-index="0"></path><path fill="rgb(149,206,255)" d="M 331.5304858163576 124.34532360743053 L 335.9260161486212 119.24401534532322 L 317.64097359780175 118.06876865459256 L 312.9189127130418 123.12505725869595 Z" class="highcharts-3d-top" data-z-index="0"></path><path fill="rgb(99,156,211)" d="M 331.5304858163576 124.34532360743053 L 329.5628752463117 255.94325863076432 L 333.8512726119892 248.63148390449214 L 335.9260161486212 119.24401534532322 Z" class="highcharts-3d-side" data-z-index="0"></path></g><g stroke-linejoin="round" data-z-index="372602245" stroke="#7cb5ec" stroke-width="1" opacity="1" class="highcharts-point highcharts-color-0"><path fill="#7cb5ec" d="M 348.5387688320308 257.7872081217137 L 366.8520313041379 259.56676758543665 L 371.67375157643914 64.043324589157 L 352.41174714153544 63.06838289561486 Z" class="highcharts-3d-front" data-z-index="0"></path><path fill="rgb(149,206,255)" d="M 371.67375157643914 64.043324589157 L 375.4102828688854 59.969050090808 L 356.4981816670306 59.030955541691114 L 352.41174714153544 63.06838289561486 Z" class="highcharts-3d-top" data-z-index="0"></path><path fill="rgb(99,156,211)" d="M 371.67375157643914 64.043324589157 L 366.8520313041379 259.56676758543665 L 370.498922094471 252.12476314761443 L 375.4102828688854 59.969050090808 Z" class="highcharts-3d-side" data-z-index="0"></path></g><g stroke-linejoin="round" data-z-index="416602005" stroke="#7cb5ec" stroke-width="1" opacity="1" class="highcharts-point highcharts-color-0"><path fill="#7cb5ec" d="M 385.3262172763312 261.361964510696 L 403.9634572254317 263.1730059228753 L 410.010808340289 87.07778030173377 L 390.4956409221728 85.99311777009535 Z" class="highcharts-3d-front" data-z-index="0"></path><path fill="rgb(149,206,255)" d="M 410.010808340289 87.07778030173377 L 413.0260939687435 82.54524810331455 L 393.8702907987245 81.50173916064257 L 390.4956409221728 85.99311777009535 Z" class="highcharts-3d-top" data-z-index="0"></path><path fill="rgb(99,156,211)" d="M 410.010808340289 87.07778030173377 L 403.9634572254317 263.1730059228753 L 406.9601463301187 255.60027220753656 L 413.0260939687435 82.54524810331455 Z" class="highcharts-3d-side" data-z-index="0"></path></g><g stroke-linejoin="round" data-z-index="461600935" stroke="#7cb5ec" stroke-width="1" opacity="1" class="highcharts-point highcharts-color-0"><path fill="#7cb5ec" d="M 423.62453810917486 265.083537299083 L 442.60209286508774 266.92764821135995 L 446.4030687139026 181.39689696428476 L 426.9873891866594 179.89949460600826 Z" class="highcharts-3d-front" data-z-index="0"></path><path fill="rgb(149,206,255)" d="M 446.4030687139026 181.39689696428476 L 448.68878434632063 175.13838470564144 L 429.6290597618013 173.6970461351492 L 426.9873891866594 179.89949460600826 Z" class="highcharts-3d-top" data-z-index="0"></path><path fill="rgb(99,156,211)" d="M 446.4030687139026 181.39689696428476 L 442.60209286508774 266.92764821135995 L 444.90937098346916 259.2176184943019 L 448.68878434632063 175.13838470564144 Z" class="highcharts-3d-side" data-z-index="0"></path></g><g stroke-linejoin="round" data-z-index="505600485" stroke="#7cb5ec" stroke-width="1" opacity="1" class="highcharts-point highcharts-color-0"><path fill="#7cb5ec" d="M 461.74942611780295 268.78825705409474 L 481.0688264330576 270.66558621468675 L 483.7099349415116 222.21651901484853 L 464.1356208132423 220.53502628241176 Z" class="highcharts-3d-front" data-z-index="0"></path><path fill="rgb(149,206,255)" d="M 483.7099349415116 222.21651901484853 L 485.2881906538048 215.1885322036462 L 466.0757791750925 213.56996306677428 L 464.1356208132423 220.53502628241176 Z" class="highcharts-3d-top" data-z-index="0"></path><path fill="rgb(99,156,211)" d="M 483.7099349415116 222.21651901484853 L 481.0688264330576 270.66558621468675 L 482.67714837558384 262.81766910289025 L 485.2881906538048 215.1885322036462 Z" class="highcharts-3d-side" data-z-index="0"></path></g></g></g><text x="300" text-anchor="middle" class="highcharts-title" data-z-index="4" style="color: rgb(51, 51, 51); font-size: 18px; fill: rgb(51, 51, 51);" y="24">3D柱状图</text><text x="300" text-anchor="middle" class="highcharts-subtitle" data-z-index="4" style="color: rgb(102, 102, 102); fill: rgb(102, 102, 102);" y="52"></text><text x="10" text-anchor="start" class="highcharts-caption" data-z-index="4" style="color: rgb(102, 102, 102); fill: rgb(102, 102, 102);" y="397"></text><g class="highcharts-legend highcharts-no-tooltip" data-z-index="7" transform="translate(266,359)"><rect fill="none" class="highcharts-legend-box" rx="0" ry="0" x="0" y="0" width="68" height="26"></rect><g data-z-index="1"><g><g class="highcharts-legend-item highcharts-column-series highcharts-color-0 highcharts-series-0" data-z-index="1" transform="translate(8,3)"><text x="21" text-anchor="start" data-z-index="2" y="15" style="color: rgb(51, 51, 51); cursor: pointer; font-size: 12px; font-weight: bold; fill: rgb(51, 51, 51);">图例1</text><rect x="2" y="4" width="12" height="12" fill="#7cb5ec" rx="6" ry="6" class="highcharts-point" data-z-index="3"></rect></g></g></g></g><g class="highcharts-axis-labels highcharts-xaxis-labels" data-z-index="7"><text x="126.27984139511244" text-anchor="middle" transform="translate(0,0)" style="color: rgb(102, 102, 102); cursor: default; font-size: 11px; fill: rgb(102, 102, 102);" y="299.6379397110495" z="87.19394685854044" opacity="1">0</text><text x="192.06025292414827" text-anchor="middle" transform="translate(0,0)" style="color: rgb(102, 102, 102); cursor: default; font-size: 11px; fill: rgb(102, 102, 102);" y="306.28049271041" z="68.25235975684325" opacity="1">2</text><text x="260.087082520825" text-anchor="middle" transform="translate(0,0)" style="color: rgb(102, 102, 102); cursor: default; font-size: 11px; fill: rgb(102, 102, 102);" y="313.14989061277686" z="49.310772655144575" opacity="1">4</text><text x="330.4774028531352" text-anchor="middle" transform="translate(0,0)" style="color: rgb(102, 102, 102); cursor: default; font-size: 11px; fill: rgb(102, 102, 102);" y="320.257955499889" z="30.369185553448045" opacity="1">6</text><text x="403.3565654376991" text-anchor="middle" transform="translate(0,0)" style="color: rgb(102, 102, 102); cursor: default; font-size: 11px; fill: rgb(102, 102, 102);" y="327.61734545754064" z="11.427598451751502" opacity="1">8</text><text x="478.8589456133606" text-anchor="middle" transform="translate(0,0)" style="color: rgb(102, 102, 102); cursor: default; font-size: 11px; fill: rgb(102, 102, 102);" y="335.2416298035471" z="-7.513988649947173" opacity="1">10</text></g><g class="highcharts-axis-labels highcharts-zaxis-labels" data-z-index="7"></g><g class="highcharts-axis-labels highcharts-yaxis-labels" data-z-index="7"><text x="95.04068841154495" text-anchor="end" transform="translate(0,0)" style="color: rgb(102, 102, 102); cursor: default; font-size: 11px; fill: rgb(102, 102, 102);" y="285.69787134730814" z="93.85212885696477" opacity="1">0</text><text x="92.71856801420327" text-anchor="end" transform="translate(0,0)" style="color: rgb(102, 102, 102); cursor: default; font-size: 11px; fill: rgb(102, 102, 102);" y="245.35880356754217" z="81.95865676947432" opacity="1">50</text><text x="90.30319064309805" text-anchor="end" transform="translate(0,0)" style="color: rgb(102, 102, 102); cursor: default; font-size: 11px; fill: rgb(102, 102, 102);" y="203.39970807952574" z="69.8449351988822" opacity="1">100</text><text x="87.88080371610656" text-anchor="end" transform="translate(0,0)" style="color: rgb(102, 102, 102); cursor: default; font-size: 11px; fill: rgb(102, 102, 102);" y="161.31884502496914" z="57.95146311139174" opacity="1">150</text><text x="85.35999496834964" text-anchor="end" transform="translate(0,0)" style="color: rgb(102, 102, 102); cursor: default; font-size: 11px; fill: rgb(102, 102, 102);" y="117.5282323366671" z="45.83774154079961" opacity="1">200</text><text x="82.83070432442852" text-anchor="end" transform="translate(0,0)" style="color: rgb(102, 102, 102); cursor: default; font-size: 11px; fill: rgb(102, 102, 102);" y="73.59027509867731" z="33.944269453309175" opacity="1">250</text></g><text x="590" class="highcharts-credits" text-anchor="end" data-z-index="8" y="395" style="cursor: pointer; color: rgb(153, 153, 153); font-size: 9px; fill: rgb(153, 153, 153);">Highcharts.com.cn</text><g stroke-linejoin="round" class="highcharts-3d-frame highcharts-3d-frame-top" data-z-index="1000"><path fill="none" d="M 112.83486882849854 64.3261682395656 L 557.6471172291087 82.59256218845987 L 555.3504892183056 89.99299852366507 L 94.30685351515626 70.26520958389344 Z" visibility="hidden"></path><path fill="none" d="M 95.06323594289475 70.29757474791836 L 555.3504892183056 89.99299852366507 L 557.6038430867408 82.73200468156192 L 113.21759221031027 64.46867621014637 Z" visibility="hidden"></path><path fill="none" d="M 112.83486882849854 64.3261682395656 L 94.30685351515626 70.26520958389344 L 95.06323594289475 70.29757474791836 L 113.21759221031027 64.46867621014637 Z" visibility="hidden"></path><path fill="none" d="M 555.3504892183056 89.99299852366507 L 557.6471172291087 82.59256218845987 L 557.6038430867408 82.73200468156192 L 555.3504892183056 89.99299852366507 Z" visibility="hidden"></path><path fill="none" d="M 94.30685351515626 70.26520958389344 L 555.3504892183056 89.99299852366507 L 555.3504892183056 89.99299852366507 L 95.06323594289475 70.29757474791836 Z" visibility="hidden"></path><path fill="none" d="M 557.6471172291087 82.59256218845987 L 112.83486882849854 64.3261682395656 L 113.21759221031027 64.46867621014637 L 557.6038430867408 82.73200468156192 Z" visibility="hidden"></path></g><g stroke-linejoin="round" class="highcharts-3d-frame highcharts-3d-frame-right" data-z-index="1000"><path fill="none" d="M 544.2795725112272 309.9677734534266 L 544.2751279708499 309.47993330290274 L 541.6417843465256 325 L 541.594305721786 325.81392147096716 Z" visibility="hidden"></path><path fill="none" d="M 555.3504892183056 89.99299852366507 L 555.3504892183056 89.99299852366507 L 557.6038430867408 82.73200468156192 L 557.6471172291087 82.59256218845987 Z" visibility="hidden"></path><path fill="none" d="M 555.3504892183056 89.99299852366507 L 541.6417843465256 325 L 544.2751279708499 309.47993330290274 L 557.6038430867408 82.73200468156192 Z" visibility="hidden"></path><path fill="none" d="M 541.594305721786 325.81392147096716 L 555.3504892183056 89.99299852366507 L 557.6471172291087 82.59256218845987 L 544.2795725112272 309.9677734534266 Z" visibility="hidden"></path><path fill="none" d="M 555.3504892183056 89.99299852366507 L 541.594305721786 325.81392147096716 L 541.6417843465256 325 L 555.3504892183056 89.99299852366507 Z" visibility="hidden"></path><path fill="none" d="M 544.2795725112272 309.9677734534266 L 557.6471172291087 82.59256218845987 L 557.6038430867408 82.73200468156192 L 544.2751279708499 309.47993330290274 Z" visibility="hidden"></path></g><g stroke-linejoin="round" class="highcharts-3d-frame highcharts-3d-frame-front" data-z-index="1000"><path fill="none" d="M 105.96822301522377 283.40864210756433 L 541.594305721786 325.81392147096716 L 541.6417843465256 325 L 106.64695179076443 282.73833260890444 Z" visibility="hidden"></path><path fill="none" d="M 555.3504892183056 89.99299852366507 L 94.30685351515626 70.26520958389344 L 95.06323594289475 70.29757474791836 L 555.3504892183056 89.99299852366507 Z" visibility="hidden"></path><path fill="none" d="M 94.30685351515626 70.26520958389344 L 105.96822301522377 283.40864210756433 L 106.64695179076443 282.73833260890444 L 95.06323594289475 70.29757474791836 Z" visibility="hidden"></path><path fill="none" d="M 541.594305721786 325.81392147096716 L 555.3504892183056 89.99299852366507 L 555.3504892183056 89.99299852366507 L 541.6417843465256 325 Z" visibility="hidden"></path><path fill="none" d="M 555.3504892183056 89.99299852366507 L 95.06323594289475 70.29757474791836 L 106.64695179076443 282.73833260890444 L 541.6417843465256 325 Z" visibility="hidden"></path><path fill="none" d="M 541.594305721786 325.81392147096716 L 105.96822301522377 283.40864210756433 L 94.30685351515626 70.26520958389344 L 555.3504892183056 89.99299852366507 Z" visibility="hidden"></path></g></svg>