<?xml version="1.0" standalone="no"?><!DOCTYPE svg PUBLIC "-//W3C//DTD SVG 1.1//EN" "http://www.w3.org/Graphics/SVG/1.1/DTD/svg11.dtd"><svg xmlns:xlink="http://www.w3.org/1999/xlink" version="1.1" class="highcharts-root" style="font-family: &quot;Lucida Grande&quot;, &quot;Lucida Sans Unicode&quot;, Arial, Helvetica, sans-serif; font-size: 12px;" xmlns="http://www.w3.org/2000/svg" width="600" height="400" viewBox="0 0 600 400" role="img" aria-label="堆叠3D柱状图"><desc>Created with Highcharts 10.1.0</desc><defs><clipPath id="highcharts-23r47ax-30-"><rect x="0" y="-80" width="640" height="480" fill="none"></rect></clipPath></defs><rect fill="#ffffff" class="highcharts-background" x="0" y="0" width="600" height="400" rx="0" ry="0"></rect><g stroke-linejoin="round" class="highcharts-3d-frame highcharts-3d-frame-bottom" data-z-index="-1000"><path fill="none" d="M 101.89339075237413 284.35478303003447 L 513.8952156079147 325.8075534701369 L 514.6268572506359 312.5427558558027 L 116.40337213980516 274.0072832683389 Z" visibility="hidden"></path><path fill="none" d="M 116.69538148917047 273.61672601779225 L 514.6650589061475 312.0733718183967 L 513.9525442719055 325 L 102.54266682469128 283.7032523422264 Z"></path><path fill="none" d="M 101.89339075237413 284.35478303003447 L 116.40337213980516 274.0072832683389 L 116.69538148917047 273.61672601779225 L 102.54266682469128 283.7032523422264 Z" visibility="hidden"></path><path fill="none" d="M 514.6268572506359 312.5427558558027 L 513.8952156079147 325.8075534701369 L 513.9525442719055 325 L 514.6650589061475 312.0733718183967 Z" visibility="hidden"></path><path fill="none" d="M 513.8952156079147 325.8075534701369 L 101.89339075237413 284.35478303003447 L 102.54266682469128 283.7032523422264 L 513.9525442719055 325 Z"></path><path fill="none" d="M 116.40337213980516 274.0072832683389 L 514.6268572506359 312.5427558558027 L 514.6650589061475 312.0733718183967 L 116.69538148917047 273.61672601779225 Z" visibility="hidden"></path></g><g stroke-linejoin="round" class="highcharts-3d-frame highcharts-3d-frame-left" data-z-index="-1000"><path fill="none" d="M 101.89339075237413 284.35478303003447 L 102.54266682469128 283.7032523422264 L 116.69538148917047 273.61672601779225 L 116.40337213980516 274.0072832683389 Z" visibility="hidden"></path><path fill="none" d="M 105.5414783276511 91.77485339160336 L 105.88297619213003 91.90170657806799 L 90.47300548703652 96.05245360799367 L 89.73745197061413 96.0236530044025 Z"></path><path fill="none" d="M 116.40337213980516 274.0072832683389 L 105.5414783276511 91.77485339160336 L 89.73745197061413 96.0236530044025 L 101.89339075237413 284.35478303003447 Z" visibility="hidden"></path><path fill="none" d="M 105.88297619213003 91.90170657806799 L 116.69538148917047 273.61672601779225 L 102.54266682469128 283.7032523422264 L 90.47300548703652 96.05245360799367 Z"></path><path fill="none" d="M 101.89339075237413 284.35478303003447 L 89.73745197061413 96.0236530044025 L 90.47300548703652 96.05245360799367 L 102.54266682469128 283.7032523422264 Z"></path><path fill="none" d="M 105.5414783276511 91.77485339160336 L 116.40337213980516 274.0072832683389 L 116.69538148917047 273.61672601779225 L 105.88297619213003 91.90170657806799 Z" visibility="hidden"></path></g><g stroke-linejoin="round" class="highcharts-3d-frame highcharts-3d-frame-right" data-z-index="-1000"><path fill="none" d="M 514.6268572506359 312.5427558558027 L 514.6650589061475 312.0733718183967 L 513.9525442719055 325 L 513.8952156079147 325.8075534701369 Z" visibility="hidden"></path><path fill="none" d="M 528.9867478677165 113.22246256264181 L 528.9867478677165 113.22246256264181 L 529.1514957792508 107.81731892443149 L 529.1554473568801 107.68767330716655 Z" visibility="hidden"></path><path fill="none" d="M 528.9867478677165 113.22246256264181 L 513.9525442719055 325 L 514.6650589061475 312.0733718183967 L 529.1514957792508 107.81731892443149 Z" visibility="hidden"></path><path fill="none" d="M 513.8952156079147 325.8075534701369 L 528.9867478677165 113.22246256264181 L 529.1554473568801 107.68767330716655 L 514.6268572506359 312.5427558558027 Z" visibility="hidden"></path><path fill="none" d="M 528.9867478677165 113.22246256264181 L 513.8952156079147 325.8075534701369 L 513.9525442719055 325 L 528.9867478677165 113.22246256264181 Z" visibility="hidden"></path><path fill="none" d="M 514.6268572506359 312.5427558558027 L 529.1554473568801 107.68767330716655 L 529.1514957792508 107.81731892443149 L 514.6650589061475 312.0733718183967 Z" visibility="hidden"></path></g><g stroke-linejoin="round" class="highcharts-3d-frame highcharts-3d-frame-back" data-z-index="-1000"><path fill="none" d="M 514.6268572506359 312.5427558558027 L 116.40337213980516 274.0072832683389 L 116.69538148917047 273.61672601779225 L 514.6650589061475 312.0733718183967 Z" visibility="hidden"></path><path fill="none" d="M 105.5414783276511 91.77485339160336 L 529.1554473568801 107.68767330716655 L 529.1514957792508 107.81731892443149 L 105.88297619213003 91.90170657806799 Z"></path><path fill="none" d="M 116.40337213980516 274.0072832683389 L 105.5414783276511 91.77485339160336 L 105.88297619213003 91.90170657806799 L 116.69538148917047 273.61672601779225 Z" visibility="hidden"></path><path fill="none" d="M 529.1554473568801 107.68767330716655 L 514.6268572506359 312.5427558558027 L 514.6650589061475 312.0733718183967 L 529.1514957792508 107.81731892443149 Z" visibility="hidden"></path><path fill="none" d="M 105.88297619213003 91.90170657806799 L 529.1514957792508 107.81731892443149 L 514.6650589061475 312.0733718183967 L 116.69538148917047 273.61672601779225 Z"></path><path fill="none" d="M 116.40337213980516 274.0072832683389 L 514.6268572506359 312.5427558558027 L 529.1554473568801 107.68767330716655 L 105.5414783276511 91.77485339160336 Z" visibility="hidden"></path></g><rect fill="none" class="highcharts-plot-background" x="39" y="80" width="521" height="245"></rect><g class="highcharts-grid highcharts-xaxis-grid" data-z-index="1"><path fill="none" stroke="#e6e6e6" stroke-width="1" stroke-dasharray="none" data-z-index="1" class="highcharts-grid-line" d="M 181.57921845717175 94.74801333658148 L 188.3179804085729 280.53776818321404 M 176.31653019977762 291.1085694883392 L 188.3179804085729 280.53776818321404" opacity="1"></path><path fill="none" stroke="#e6e6e6" stroke-width="1" stroke-dasharray="none" data-z-index="1" class="highcharts-grid-line" d="M 261.5087114758376 97.75349748448683 L 263.73187339615373 287.8251710574521 M 254.12214531918363 298.91858823140205 L 263.73187339615373 287.8251710574521" opacity="1"></path><path fill="none" stroke="#e6e6e6" stroke-width="1" stroke-dasharray="none" data-z-index="1" class="highcharts-grid-line" d="M 346.44887413821704 100.94739128714944 L 343.6333300957095 295.54621663858984 M 336.69966766939166 307.20760434317066 L 343.6333300957095 295.54621663858984" opacity="1"></path><path fill="none" stroke="#e6e6e6" stroke-width="1" stroke-dasharray="none" data-z-index="1" class="highcharts-grid-line" d="M 435.1214675577544 104.28163080013921 L 426.7831560061521 303.58115895925675 M 422.78992212586826 315.84922358708104 L 426.7831560061521 303.58115895925675" opacity="1"></path><path fill="none" stroke="#e6e6e6" stroke-width="1" stroke-dasharray="none" data-z-index="1" class="highcharts-grid-line" d="M 529.6139412950141 107.83470765810672 L 515.0965281012006 312.11506559294685 M 514.4005599297345 325.0449711846562 L 515.0965281012006 312.11506559294685" opacity="1"></path><path fill="none" stroke="#e6e6e6" stroke-width="1" stroke-dasharray="none" data-z-index="1" class="highcharts-grid-line" d="M 105.52616132824673 91.88828973559052 L 116.35730035680302 273.5840565278861 M 102.19470831919776 283.668324754474 L 116.35730035680302 273.5840565278861" opacity="1"></path></g><g class="highcharts-grid highcharts-zaxis-grid" data-z-index="1"></g><g class="highcharts-grid highcharts-yaxis-grid" data-z-index="1"><path fill="none" stroke="#e6e6e6" stroke-width="1" stroke-dasharray="none" data-z-index="1" class="highcharts-grid-line" d="M 116.71621298075456 273.96682341001696 L 514.6373632243216 312.4638757567718 M 102.56587375023011 284.064057669874 L 116.71621298075456 273.96682341001696" opacity="1"></path><path fill="none" stroke="#e6e6e6" stroke-width="1" stroke-dasharray="none" data-z-index="1" class="highcharts-grid-line" d="M 114.99211482580085 244.9913530001939 L 516.9323400623407 280.10513119293734 M 100.64456673932347 254.19289682085108 L 114.99211482580085 244.9913530001939" opacity="1"></path><path fill="none" stroke="#e6e6e6" stroke-width="1" stroke-dasharray="none" data-z-index="1" class="highcharts-grid-line" d="M 113.2351820353017 215.46405843353233 L 519.2768081579657 247.0485691450741 M 98.68540149279343 223.73314214515415 L 113.2351820353017 215.46405843353233" opacity="1"></path><path fill="none" stroke="#e6e6e6" stroke-width="1" stroke-dasharray="none" data-z-index="1" class="highcharts-grid-line" d="M 111.48855312809877 186.109932583918 L 521.6133359802409 214.10396346767922 M 96.73645635524306 193.43228269936782 L 111.48855312809877 186.109932583918" opacity="1"></path><path fill="none" stroke="#e6e6e6" stroke-width="1" stroke-dasharray="none" data-z-index="1" class="highcharts-grid-line" d="M 109.66393324234693 155.4450778267386 L 524.06040456947 179.6007536325015 M 94.69913288109217 161.7573776204896 L 109.66393324234693 155.4450778267386" opacity="1"></path><path fill="none" stroke="#e6e6e6" stroke-width="1" stroke-dasharray="none" data-z-index="1" class="highcharts-grid-line" d="M 107.80355102279984 124.17919554586872 L 526.5619935432035 144.32881656379772 M 92.62045270790315 129.43948701033543 L 107.80355102279984 124.17919554586872" opacity="1"></path><path fill="none" stroke="#e6e6e6" stroke-width="1" stroke-dasharray="none" data-z-index="1" class="highcharts-grid-line" d="M 105.85960208451942 91.50887757266598 L 529.1830547410007 107.37234346104249 M 90.44686079427584 95.64597389477294 L 105.85960208451942 91.50887757266598" opacity="1"></path></g><rect fill="none" class="highcharts-plot-border" data-z-index="1" x="39" y="80" width="521" height="245"></rect><g class="highcharts-axis highcharts-xaxis" data-z-index="2"><path fill="none" class="highcharts-axis-line" stroke="#ccd6eb" stroke-width="1" data-z-index="7" d="M 0 0"></path></g><g class="highcharts-axis highcharts-zaxis" data-z-index="2"><path fill="none" class="highcharts-axis-line" data-z-index="7" d="M 0 0"></path></g><g class="highcharts-axis highcharts-yaxis" data-z-index="2"><path fill="none" class="highcharts-axis-line" data-z-index="7" d="M 0 0"></path></g><g class="highcharts-series-group" data-z-index="3"><g class="highcharts-markers highcharts-series-3 highcharts-column-series highcharts-color-3" transform="translate(39,80) scale(1 1)" visibility="visible" data-z-index="19" opacity="1" clip-path="none"><g stroke-linejoin="round" data-z-index="23600505" stroke="#434348" stroke-width="1" opacity="1" class="highcharts-point highcharts-color-1"><path fill="#434348" d="M 80.36133534078124 205.452818158044 L 98.74617352370066 207.2986292772871 L 96.36186220548939 162.21429443452354 L 77.7220417792856 160.6133924106688 Z" class="highcharts-3d-front" data-z-index="0"></path><path fill="rgb(92,92,97)" d="M 96.36186220548939 162.21429443452354 L 109.75556351998367 153.27812008784048 L 91.66161621512154 151.78290706033434 L 77.7220417792856 160.6133924106688 Z" class="highcharts-3d-top" data-z-index="0"></path><path fill="rgb(42,42,47)" d="M 96.36186220548939 162.21429443452354 L 98.74617352370066 207.2986292772871 L 111.87261916214973 196.99124299524905 L 109.75556351998367 153.27812008784048 Z" class="highcharts-3d-side" data-z-index="0"></path></g><g stroke-linejoin="round" data-z-index="23601525" stroke="#7cb5ec" stroke-width="1" opacity="1" class="highcharts-point highcharts-color-0"><path fill="#7cb5ec" d="M 77.7220417792856 160.6133924106688 L 96.36186220548939 162.21429443452354 L 92.21397648646763 83.7829808650404 L 73.1316762733386 82.62685985512287 Z" class="highcharts-3d-front" data-z-index="0"></path><path fill="rgb(149,206,255)" d="M 92.21397648646763 83.7829808650404 L 106.07754217461812 77.3340608369768 L 87.56671958064442 76.25608934079762 L 73.1316762733386 82.62685985512287 Z" class="highcharts-3d-top" data-z-index="0"></path><path fill="rgb(99,156,211)" d="M 92.21397648646763 83.7829808650404 L 96.36186220548939 162.21429443452354 L 109.75556351998367 153.27812008784048 L 106.07754217461812 77.3340608369768 Z" class="highcharts-3d-side" data-z-index="0"></path></g><g stroke-linejoin="round" data-z-index="54600505" stroke="#f7a35c" stroke-width="1" opacity="1" class="highcharts-point highcharts-color-3"><path fill="#f7a35c" d="M 102.30695909473985 207.6561269900693 L 120.95602401132408 209.52846609058412 L 118.88410219124253 164.1486424459586 L 99.97241052182216 162.5243904534056 Z" class="highcharts-3d-front" data-z-index="0"></path><path fill="rgb(255,188,117)" d="M 118.88410219124253 164.1486424459586 L 131.608429121502 155.08395541968935 L 113.25952606948695 153.56767384654427 L 99.97241052182216 162.5243904534056 Z" class="highcharts-3d-top" data-z-index="0"></path><path fill="rgb(222,138,67)" d="M 118.88410219124253 164.1486424459586 L 120.95602401132408 209.52846609058412 L 133.43114870051699 199.0749880900231 L 131.608429121502 155.08395541968935 Z" class="highcharts-3d-side" data-z-index="0"></path></g><g stroke-linejoin="round" data-z-index="54600915" stroke="#90ed7d" stroke-width="1" opacity="1" class="highcharts-point highcharts-color-2"><path fill="#90ed7d" d="M 99.97241052182216 162.5243904534056 L 118.88410219124253 164.1486424459586 L 117.45657565186622 132.8825483409361 L 98.3641791254976 131.43389333935366 Z" class="highcharts-3d-front" data-z-index="0"></path><path fill="rgb(169,255,150)" d="M 117.45657565186622 132.8825483409361 L 130.35365150150537 124.80010709173729 L 111.83461623736054 123.44866836136332 L 98.3641791254976 131.43389333935366 Z" class="highcharts-3d-top" data-z-index="0"></path><path fill="rgb(119,212,100)" d="M 117.45657565186622 132.8825483409361 L 118.88410219124253 164.1486424459586 L 131.608429121502 155.08395541968935 L 130.35365150150537 124.80010709173729 Z" class="highcharts-3d-side" data-z-index="0"></path></g><g stroke-linejoin="round" data-z-index="127600715" stroke="#434348" stroke-width="1" opacity="1" class="highcharts-point highcharts-color-1"><path fill="#434348" d="M 155.24420922318836 212.9709502121754 L 174.53844802955592 214.9080638365538 L 172.78362342635086 152.6257263557492 L 153.10886141652972 151.03629610644873 Z" class="highcharts-3d-front" data-z-index="0"></path><path fill="rgb(92,92,97)" d="M 172.78362342635086 152.6257263557492 L 183.919973577618 143.76099400613768 L 164.85611458785763 142.2794954394426 L 153.10886141652972 151.03629610644873 Z" class="highcharts-3d-top" data-z-index="0"></path><path fill="rgb(42,42,47)" d="M 172.78362342635086 152.6257263557492 L 174.53844802955592 214.9080638365538 L 185.39994337293854 204.098045009896 L 183.919973577618 143.76099400613768 Z" class="highcharts-3d-side" data-z-index="0"></path></g><g stroke-linejoin="round" data-z-index="127601325" stroke="#7cb5ec" stroke-width="1" opacity="1" class="highcharts-point highcharts-color-0"><path fill="#7cb5ec" d="M 153.10886141652972 151.03629610644873 L 172.78362342635086 152.6257263557492 L 171.43101542930884 104.61888419207216 L 151.46331073088345 103.30795311186174 Z" class="highcharts-3d-front" data-z-index="0"></path><path fill="rgb(149,206,255)" d="M 171.43101542930884 104.61888419207216 L 182.78062165832762 97.31063057114166 L 163.44179517357378 96.09001629646376 L 151.46331073088345 103.30795311186174 Z" class="highcharts-3d-top" data-z-index="0"></path><path fill="rgb(99,156,211)" d="M 171.43101542930884 104.61888419207216 L 172.78362342635086 152.6257263557492 L 183.919973577618 143.76099400613768 L 182.78062165832762 97.31063057114166 Z" class="highcharts-3d-side" data-z-index="0"></path></g><g stroke-linejoin="round" data-z-index="158599895" stroke="#f7a35c" stroke-width="1" opacity="1" class="highcharts-point highcharts-color-3"><path fill="#f7a35c" d="M 178.27601676583808 215.2833103230186 L 197.85440234680584 217.24895187192024 L 197.85440234680584 217.24895187192024 L 178.27601676583808 215.2833103230186 Z" class="highcharts-3d-front" data-z-index="0"></path><path fill="rgb(255,188,117)" d="M 197.85440234680584 217.24895187192024 L 207.99509203792738 206.28198478707657 L 189.0227269146039 204.4482060642916 L 178.27601676583808 215.2833103230186 Z" class="highcharts-3d-top" data-z-index="0"></path><path fill="rgb(247,163,92)" d="M 197.85440234680584 217.24895187192024 L 197.85440234680584 217.24895187192024 L 207.99509203792738 206.28198478707657 L 207.99509203792738 206.28198478707657 Z" class="highcharts-3d-side" data-z-index="0"></path></g><g stroke-linejoin="round" data-z-index="158600915" stroke="#90ed7d" stroke-width="1" opacity="1" class="highcharts-point highcharts-color-2"><path fill="#90ed7d" d="M 178.27601676583808 215.2833103230186 L 197.85440234680584 217.24895187192024 L 196.24360824503066 138.86059455783158 L 176.17510810550675 137.3378767019968 Z" class="highcharts-3d-front" data-z-index="0"></path><path fill="rgb(169,255,150)" d="M 196.24360824503066 138.86059455783158 L 206.69239610649822 130.37097698942895 L 187.26007662131252 128.95289074472447 L 176.17510810550675 137.3378767019968 Z" class="highcharts-3d-top" data-z-index="0"></path><path fill="rgb(119,212,100)" d="M 196.24360824503066 138.86059455783158 L 197.85440234680584 217.24895187192024 L 207.99509203792738 206.28198478707657 L 206.69239610649822 130.37097698942895 Z" class="highcharts-3d-side" data-z-index="0"></path></g><g stroke-linejoin="round" data-z-index="231600715" stroke="#434348" stroke-width="1" opacity="1" class="highcharts-point highcharts-color-1"><path fill="#434348" d="M 233.86634597867652 220.86449884165194 L 254.13916792010426 222.89986079510595 L 254.00598678909319 159.18729397135615 L 233.31225195005706 157.51554576379218 Z" class="highcharts-3d-front" data-z-index="0"></path><path fill="rgb(92,92,97)" d="M 254.00598678909319 159.18729397135615 L 262.5335523953699 149.87024525499692 L 242.51773919371632 148.31476802526007 L 233.31225195005706 157.51554576379218 Z" class="highcharts-3d-top" data-z-index="0"></path><path fill="rgb(42,42,47)" d="M 254.00598678909319 159.18729397135615 L 254.13916792010426 222.89986079510595 L 262.49329936748154 211.54952272350388 L 262.5335523953699 149.87024525499692 Z" class="highcharts-3d-side" data-z-index="0"></path></g><g stroke-linejoin="round" data-z-index="231601525" stroke="#7cb5ec" stroke-width="1" opacity="1" class="highcharts-point highcharts-color-0"><path fill="#7cb5ec" d="M 233.31225195005706 157.51554576379218 L 254.00598678909319 159.18729397135615 L 253.8688387755749 93.57700886797343 L 232.741805211382 92.29700556082544 Z" class="highcharts-3d-front" data-z-index="0"></path><path fill="rgb(149,206,255)" d="M 253.8688387755749 93.57700886797343 L 262.5749431548145 86.44763407913504 L 242.15402502997932 85.25842881542366 L 232.741805211382 92.29700556082544 Z" class="highcharts-3d-top" data-z-index="0"></path><path fill="rgb(99,156,211)" d="M 253.8688387755749 93.57700886797343 L 254.00598678909319 159.18729397135615 L 262.5335523953699 149.87024525499692 L 262.5749431548145 86.44763407913504 Z" class="highcharts-3d-side" data-z-index="0"></path></g><g stroke-linejoin="round" data-z-index="263600715" stroke="#f7a35c" stroke-width="1" opacity="1" class="highcharts-point highcharts-color-3"><path fill="#f7a35c" d="M 258.85373003170054 223.37319600107105 L 279.4426626033696 225.44029500384826 L 279.8424333506815 161.27449734789127 L 258.8192098574782 159.5761313223596 Z" class="highcharts-3d-front" data-z-index="0"></path><path fill="rgb(255,188,117)" d="M 279.8424333506815 161.27449734789127 L 287.5108929373928 151.81129476825325 L 267.1877971309875 150.23193786448218 L 258.8192098574782 159.5761313223596 Z" class="highcharts-3d-top" data-z-index="0"></path><path fill="rgb(222,138,67)" d="M 279.8424333506815 161.27449734789127 L 279.4426626033696 225.44029500384826 L 286.9722081088907 213.91553780466035 L 287.5108929373928 151.81129476825325 Z" class="highcharts-3d-side" data-z-index="0"></path></g><g stroke-linejoin="round" data-z-index="263601935" stroke="#90ed7d" stroke-width="1" opacity="1" class="highcharts-point highcharts-color-2"><path fill="#90ed7d" d="M 258.8192098574782 159.5761313223596 L 279.8424333506815 161.27449734789127 L 280.4694544674794 60.63354155759144 L 258.76508508520817 59.54762118254809 Z" class="highcharts-3d-front" data-z-index="0"></path><path fill="rgb(169,255,150)" d="M 280.4694544674794 60.63354155759144 L 288.3541910018605 54.58860503060656 L 267.395261266074 53.58110182843414 L 258.76508508520817 59.54762118254809 Z" class="highcharts-3d-top" data-z-index="0"></path><path fill="rgb(119,212,100)" d="M 280.4694544674794 60.63354155759144 L 279.8424333506815 161.27449734789127 L 287.5108929373928 151.81129476825325 L 288.3541910018605 54.58860503060656 Z" class="highcharts-3d-side" data-z-index="0"></path></g><g stroke-linejoin="round" data-z-index="336600305" stroke="#434348" stroke-width="1" opacity="1" class="highcharts-point highcharts-color-1"><path fill="#434348" d="M 317.33024558977036 229.24415344751492 L 338.6685731140373 231.3864906178761 L 339.49973095400645 199.1212622937498 L 317.93060516667964 197.1650785922348 Z" class="highcharts-3d-front" data-z-index="0"></path><path fill="rgb(92,92,97)" d="M 339.49973095400645 199.1212622937498 L 345.07427443075625 188.2239625010958 L 324.2430293098776 186.4058436393701 L 317.93060516667964 197.1650785922348 Z" class="highcharts-3d-top" data-z-index="0"></path><path fill="rgb(42,42,47)" d="M 339.49973095400645 199.1212622937498 L 338.6685731140373 231.3864906178761 L 344.21621656930154 219.4484718399944 L 345.07427443075625 188.2239625010958 Z" class="highcharts-3d-side" data-z-index="0"></path></g><g stroke-linejoin="round" data-z-index="336601735" stroke="#7cb5ec" stroke-width="1" opacity="1" class="highcharts-point highcharts-color-0"><path fill="#7cb5ec" d="M 317.93060516667964 197.1650785922348 L 339.49973095400645 199.1212622937498 L 342.5423064497081 81.00964938295701 L 320.1276125247232 79.77215907039442 Z" class="highcharts-3d-front" data-z-index="0"></path><path fill="rgb(149,206,255)" d="M 342.5423064497081 81.00964938295701 L 348.20977706304797 74.12381189102894 L 326.5909479714637 72.97682837659889 L 320.1276125247232 79.77215907039442 Z" class="highcharts-3d-top" data-z-index="0"></path><path fill="rgb(99,156,211)" d="M 342.5423064497081 81.00964938295701 L 339.49973095400645 199.1212622937498 L 345.07427443075625 188.2239625010958 L 348.20977706304797 74.12381189102894 Z" class="highcharts-3d-side" data-z-index="0"></path></g><g stroke-linejoin="round" data-z-index="367600715" stroke="#f7a35c" stroke-width="1" opacity="1" class="highcharts-point highcharts-color-3"><path fill="#f7a35c" d="M 342.8036676763988 231.80164812137912 L 364.472660936273 233.97718365255608 L 366.72516322846553 168.29333899591825 L 344.57497202863374 166.50393062069992 Z" class="highcharts-3d-front" data-z-index="0"></path><path fill="rgb(255,188,117)" d="M 366.72516322846553 168.29333899591825 L 371.4012306947183 158.33061571024086 L 350.0290532518163 156.66973213646816 L 344.57497202863374 166.50393062069992 Z" class="highcharts-3d-top" data-z-index="0"></path><path fill="rgb(222,138,67)" d="M 366.72516322846553 168.29333899591825 L 364.472660936273 233.97718365255608 L 369.13411009446406 221.85691710583475 L 371.4012306947183 158.33061571024086 Z" class="highcharts-3d-side" data-z-index="0"></path></g><g stroke-linejoin="round" data-z-index="367601115" stroke="#90ed7d" stroke-width="1" opacity="1" class="highcharts-point highcharts-color-2"><path fill="#90ed7d" d="M 344.57497202863374 166.50393062069992 L 366.72516322846553 168.29333899591825 L 367.85973943191016 135.20865475098785 L 345.4669832932267 133.6206491624203 Z" class="highcharts-3d-front" data-z-index="0"></path><path fill="rgb(169,255,150)" d="M 367.85973943191016 135.20865475098785 L 372.5418343566597 126.37010509899159 L 350.94393929920284 124.89730581566025 L 345.4669832932267 133.6206491624203 Z" class="highcharts-3d-top" data-z-index="0"></path><path fill="rgb(119,212,100)" d="M 367.85973943191016 135.20865475098785 L 366.72516322846553 168.29333899591825 L 371.4012306947183 158.33061571024086 L 372.5418343566597 126.37010509899159 Z" class="highcharts-3d-side" data-z-index="0"></path></g><g stroke-linejoin="round" data-z-index="440600915" stroke="#434348" stroke-width="1" opacity="1" class="highcharts-point highcharts-color-1"><path fill="#434348" d="M 404.3662742435715 237.98244463428222 L 426.84496625772783 240.23927274736934 L 431.4375143363598 156.70617135225606 L 408.3113998672769 154.9514538998642 Z" class="highcharts-3d-front" data-z-index="0"></path><path fill="rgb(92,92,97)" d="M 431.4375143363598 156.70617135225606 L 433.79300965814326 146.94379303884847 L 411.5146386788231 145.3180143218877 L 408.3113998672769 154.9514538998642 Z" class="highcharts-3d-top" data-z-index="0"></path><path fill="rgb(42,42,47)" d="M 431.4375143363598 156.70617135225606 L 426.84496625772783 240.23927274736934 L 429.3075399493271 227.67299510283618 L 433.79300965814326 146.94379303884847 Z" class="highcharts-3d-side" data-z-index="0"></path></g><g stroke-linejoin="round" data-z-index="440601325" stroke="#7cb5ec" stroke-width="1" opacity="1" class="highcharts-point highcharts-color-0"><path fill="#7cb5ec" d="M 408.3113998672769 154.9514538998642 L 431.4375143363598 156.70617135225606 L 433.35579289177815 121.81491832011214 L 409.9588303761635 120.27884765963928 Z" class="highcharts-3d-front" data-z-index="0"></path><path fill="rgb(149,206,255)" d="M 433.35579289177815 121.81491832011214 L 435.6638827798538 113.27193611340826 L 413.13428361382614 111.8499289214773 L 409.9588303761635 120.27884765963928 Z" class="highcharts-3d-top" data-z-index="0"></path><path fill="rgb(99,156,211)" d="M 433.35579289177815 121.81491832011214 L 431.4375143363598 156.70617135225606 L 433.79300965814326 146.94379303884847 L 435.6638827798538 113.27193611340826 Z" class="highcharts-3d-side" data-z-index="0"></path></g><g stroke-linejoin="round" data-z-index="471600505" stroke="#f7a35c" stroke-width="1" opacity="1" class="highcharts-point highcharts-color-3"><path fill="#f7a35c" d="M 431.2019299654131 240.6767055916386 L 454.0382554027809 242.96943958230867 L 457.22423352843657 193.207366651667 L 433.99306559161073 191.21213156269098 Z" class="highcharts-3d-front" data-z-index="0"></path><path fill="rgb(255,188,117)" d="M 457.22423352843657 193.207366651667 L 458.6071038179316 182.10584678177844 L 436.2314736699394 180.25681223269765 L 433.99306559161073 191.21213156269098 Z" class="highcharts-3d-top" data-z-index="0"></path><path fill="rgb(222,138,67)" d="M 457.22423352843657 193.207366651667 L 454.0382554027809 242.96943958230867 L 455.5170274192838 230.20627970626285 L 458.6071038179316 182.10584678177844 Z" class="highcharts-3d-side" data-z-index="0"></path></g><g stroke-linejoin="round" data-z-index="471600715" stroke="#90ed7d" stroke-width="1" opacity="1" class="highcharts-point highcharts-color-2"><path fill="#90ed7d" d="M 433.99306559161073 191.21213156269098 L 457.22423352843657 193.207366651667 L 458.3454552581649 175.6949057101207 L 434.97518805315394 173.80693320954677 Z" class="highcharts-3d-front" data-z-index="0"></path><path fill="rgb(169,255,150)" d="M 458.3454552581649 175.6949057101207 L 459.6936838198577 165.19203567904913 L 437.18904653523026 163.44314591338963 L 434.97518805315394 173.80693320954677 Z" class="highcharts-3d-top" data-z-index="0"></path><path fill="rgb(119,212,100)" d="M 458.3454552581649 175.6949057101207 L 457.22423352843657 193.207366651667 L 458.6071038179316 182.10584678177844 L 459.6936838198577 165.19203567904913 Z" class="highcharts-3d-side" data-z-index="0"></path></g></g></g><text x="300" text-anchor="middle" class="highcharts-title" data-z-index="4" style="color: rgb(51, 51, 51); font-size: 18px; fill: rgb(51, 51, 51);" y="24">堆叠3D柱状图</text><text x="300" text-anchor="middle" class="highcharts-subtitle" data-z-index="4" style="color: rgb(102, 102, 102); fill: rgb(102, 102, 102);" y="52"></text><text x="10" text-anchor="start" class="highcharts-caption" data-z-index="4" style="color: rgb(102, 102, 102); fill: rgb(102, 102, 102);" y="397"></text><g class="highcharts-legend highcharts-no-tooltip" data-z-index="7" transform="translate(157,359)"><rect fill="none" class="highcharts-legend-box" rx="0" ry="0" x="0" y="0" width="286" height="26"></rect><g data-z-index="1"><g><g class="highcharts-legend-item highcharts-column-series highcharts-color-0 highcharts-series-0" data-z-index="1" transform="translate(8,3)"><text x="21" text-anchor="start" data-z-index="2" y="15" style="color: rgb(51, 51, 51); cursor: pointer; font-size: 12px; font-weight: bold; fill: rgb(51, 51, 51);">图例1</text><rect x="2" y="4" width="12" height="12" fill="#7cb5ec" rx="6" ry="6" class="highcharts-point" data-z-index="3"></rect></g><g class="highcharts-legend-item highcharts-column-series highcharts-color-1 highcharts-series-1" data-z-index="1" transform="translate(80.60000038146973,3)"><text x="21" y="15" text-anchor="start" data-z-index="2" style="color: rgb(51, 51, 51); cursor: pointer; font-size: 12px; font-weight: bold; fill: rgb(51, 51, 51);">图例2</text><rect x="2" y="4" width="12" height="12" fill="#434348" rx="6" ry="6" class="highcharts-point" data-z-index="3"></rect></g><g class="highcharts-legend-item highcharts-column-series highcharts-color-2 highcharts-series-2" data-z-index="1" transform="translate(153.20000076293945,3)"><text x="21" y="15" text-anchor="start" data-z-index="2" style="color: rgb(51, 51, 51); cursor: pointer; font-size: 12px; font-weight: bold; fill: rgb(51, 51, 51);">图例3</text><rect x="2" y="4" width="12" height="12" fill="#90ed7d" rx="6" ry="6" class="highcharts-point" data-z-index="3"></rect></g><g class="highcharts-legend-item highcharts-column-series highcharts-color-3 highcharts-series-3" data-z-index="1" transform="translate(225.80000114440918,3)"><text x="21" y="15" text-anchor="start" data-z-index="2" style="color: rgb(51, 51, 51); cursor: pointer; font-size: 12px; font-weight: bold; fill: rgb(51, 51, 51);">图例4</text><rect x="2" y="4" width="12" height="12" fill="#f7a35c" rx="6" ry="6" class="highcharts-point" data-z-index="3"></rect></g></g></g></g><g class="highcharts-axis-labels highcharts-xaxis-labels" data-z-index="7"><text x="139.23931585216386" text-anchor="middle" transform="translate(0,0)" style="color: rgb(102, 102, 102); cursor: default; font-size: 11px; fill: rgb(102, 102, 102);" y="302.1341080240937" z="74.86915326710752" opacity="1">value1</text><text x="215.34043795274556" text-anchor="middle" transform="translate(0,0)" style="color: rgb(102, 102, 102); cursor: default; font-size: 11px; fill: rgb(102, 102, 102);" y="310.1357635974366" z="52.92825665865181" opacity="1">value2</text><text x="295.2796001757655" text-anchor="middle" transform="translate(0,0)" style="color: rgb(102, 102, 102); cursor: default; font-size: 11px; fill: rgb(102, 102, 102);" y="318.5409700552965" z="30.987360050196123" opacity="1">value3</text><text x="379.35466180755725" text-anchor="middle" transform="translate(0,0)" style="color: rgb(102, 102, 102); cursor: default; font-size: 11px; fill: rgb(102, 102, 102);" y="327.38104582442935" z="9.046463441740427" opacity="1">value4</text><text x="467.8951219665925" text-anchor="middle" transform="translate(0,0)" style="color: rgb(102, 102, 102); cursor: default; font-size: 11px; fill: rgb(102, 102, 102);" y="336.69063610302624" z="-12.894433166715267" opacity="1">value5</text></g><g class="highcharts-axis-labels highcharts-zaxis-labels" data-z-index="7"></g><g class="highcharts-axis-labels highcharts-yaxis-labels" data-z-index="7"><text x="91.23449014952277" text-anchor="end" transform="translate(0,0)" style="color: rgb(102, 102, 102); cursor: default; font-size: 11px; fill: rgb(102, 102, 102);" y="286.5873162157801" z="86.71157422529217" opacity="1">0</text><text x="89.20432394058719" text-anchor="end" transform="translate(0,0)" style="color: rgb(102, 102, 102); cursor: default; font-size: 11px; fill: rgb(102, 102, 102);" y="256.7656091225824" z="77.77385452223498" opacity="1">2</text><text x="87.13418810507713" text-anchor="end" transform="translate(0,0)" style="color: rgb(102, 102, 102); cursor: default; font-size: 11px; fill: rgb(102, 102, 102);" y="226.3567764575563" z="68.83613481917783" opacity="1">4</text><text x="85.0748849417561" text-anchor="end" transform="translate(0,0)" style="color: rgb(102, 102, 102); cursor: default; font-size: 11px; fill: rgb(102, 102, 102);" y="196.10706809261703" z="60.116408279609864" opacity="1">6</text><text x="82.92223497204753" text-anchor="end" transform="translate(0,0)" style="color: rgb(102, 102, 102); cursor: default; font-size: 11px; fill: rgb(102, 102, 102);" y="164.48616110072706" z="51.17868857655269" opacity="1">8</text><text x="80.72592505906607" text-anchor="end" transform="translate(0,0)" style="color: rgb(102, 102, 102); cursor: default; font-size: 11px; fill: rgb(102, 102, 102);" y="132.2239203922869" z="42.24096887349552" opacity="1">10</text><text x="78.48461333161998" text-anchor="end" transform="translate(0,0)" style="color: rgb(102, 102, 102); cursor: default; font-size: 11px; fill: rgb(102, 102, 102);" y="99.30063482765863" z="33.30324917043835" opacity="1">12</text></g><text x="590" class="highcharts-credits" text-anchor="end" data-z-index="8" y="395" style="cursor: pointer; color: rgb(153, 153, 153); font-size: 9px; fill: rgb(153, 153, 153);">Highcharts.com.cn</text><g stroke-linejoin="round" class="highcharts-3d-frame highcharts-3d-frame-top" data-z-index="1000"><path fill="none" d="M 105.5414783276511 91.77485339160336 L 529.1554473568801 107.68767330716655 L 528.9867478677165 113.22246256264181 L 89.73745197061413 96.0236530044025 Z" visibility="hidden"></path><path fill="none" d="M 90.47300548703652 96.05245360799367 L 528.9867478677165 113.22246256264181 L 529.1514957792508 107.81731892443149 L 105.88297619213003 91.90170657806799 Z" visibility="hidden"></path><path fill="none" d="M 105.5414783276511 91.77485339160336 L 89.73745197061413 96.0236530044025 L 90.47300548703652 96.05245360799367 L 105.88297619213003 91.90170657806799 Z" visibility="hidden"></path><path fill="none" d="M 528.9867478677165 113.22246256264181 L 529.1554473568801 107.68767330716655 L 529.1514957792508 107.81731892443149 L 528.9867478677165 113.22246256264181 Z" visibility="hidden"></path><path fill="none" d="M 89.73745197061413 96.0236530044025 L 528.9867478677165 113.22246256264181 L 528.9867478677165 113.22246256264181 L 90.47300548703652 96.05245360799367 Z" visibility="hidden"></path><path fill="none" d="M 529.1554473568801 107.68767330716655 L 105.5414783276511 91.77485339160336 L 105.88297619213003 91.90170657806799 L 529.1514957792508 107.81731892443149 Z" visibility="hidden"></path></g><g stroke-linejoin="round" class="highcharts-3d-frame highcharts-3d-frame-front" data-z-index="1000"><path fill="none" d="M 101.89339075237413 284.35478303003447 L 513.8952156079147 325.8075534701369 L 513.9525442719055 325 L 102.54266682469128 283.7032523422264 Z" visibility="hidden"></path><path fill="none" d="M 528.9867478677165 113.22246256264181 L 89.73745197061413 96.0236530044025 L 90.47300548703652 96.05245360799367 L 528.9867478677165 113.22246256264181 Z" visibility="hidden"></path><path fill="none" d="M 89.73745197061413 96.0236530044025 L 101.89339075237413 284.35478303003447 L 102.54266682469128 283.7032523422264 L 90.47300548703652 96.05245360799367 Z" visibility="hidden"></path><path fill="none" d="M 513.8952156079147 325.8075534701369 L 528.9867478677165 113.22246256264181 L 528.9867478677165 113.22246256264181 L 513.9525442719055 325 Z" visibility="hidden"></path><path fill="none" d="M 528.9867478677165 113.22246256264181 L 90.47300548703652 96.05245360799367 L 102.54266682469128 283.7032523422264 L 513.9525442719055 325 Z" visibility="hidden"></path><path fill="none" d="M 513.8952156079147 325.8075534701369 L 101.89339075237413 284.35478303003447 L 89.73745197061413 96.0236530044025 L 528.9867478677165 113.22246256264181 Z" visibility="hidden"></path></g></svg>