<?xml version="1.0" standalone="no"?><!DOCTYPE svg PUBLIC "-//W3C//DTD SVG 1.1//EN" "http://www.w3.org/Graphics/SVG/1.1/DTD/svg11.dtd"><svg xmlns:xlink="http://www.w3.org/1999/xlink" version="1.1" class="highcharts-root" style="font-family: &quot;Lucida Grande&quot;, &quot;Lucida Sans Unicode&quot;, Arial, Helvetica, sans-serif; font-size: 12px;" xmlns="http://www.w3.org/2000/svg" width="600" height="400" viewBox="0 0 600 400" role="img" aria-label="Highcharts 3D 圆柱图"><desc>Created with Highcharts 10.1.0</desc><defs><clipPath id="highcharts-j6vo76p-19-"><rect x="0" y="0" width="600" height="400" fill="none"></rect></clipPath></defs><rect fill="#ffffff" class="highcharts-background" x="0" y="0" width="600" height="400" rx="0" ry="0"></rect><g stroke-linejoin="round" class="highcharts-3d-frame highcharts-3d-frame-bottom" data-z-index="-1000"><path fill="none" d="M 125.11821677768992 321.03097135733253 L 549.2311280154272 363.83147766217303 L 552.512655148179 347.03591861360997 L 142.46945681177087 307.22861444001387 Z" visibility="hidden"></path><path fill="none" d="M 142.82776566897712 306.82252075210886 L 552.4953486224083 346.548807215039 L 549.2768289958627 363 L 125.82268910637691 320.3453510013411 Z"></path><path fill="none" d="M 125.11821677768992 321.03097135733253 L 142.46945681177087 307.22861444001387 L 142.82776566897712 306.82252075210886 L 125.82268910637691 320.3453510013411 Z" visibility="hidden"></path><path fill="none" d="M 552.512655148179 347.03591861360997 L 549.2311280154272 363.83147766217303 L 549.2768289958627 363 L 552.4953486224083 346.548807215039 Z"></path><path fill="none" d="M 549.2311280154272 363.83147766217303 L 125.11821677768992 321.03097135733253 L 125.82268910637691 320.3453510013411 L 549.2768289958627 363 Z"></path><path fill="none" d="M 142.46945681177087 307.22861444001387 L 552.512655148179 347.03591861360997 L 552.4953486224083 346.548807215039 L 142.82776566897712 306.82252075210886 Z" visibility="hidden"></path></g><g stroke-linejoin="round" class="highcharts-3d-frame highcharts-3d-frame-left" data-z-index="-1000"><path fill="none" d="M 125.11821677768992 321.03097135733253 L 125.82268910637691 320.3453510013411 L 142.82776566897712 306.82252075210886 L 142.46945681177087 307.22861444001387 Z" visibility="hidden"></path><path fill="none" d="M 130.91449051958898 64.01860197375734 L 131.3213878982852 64.15305371792789 L 112.82629272782339 69.65375627416512 L 112.03801749330202 69.62320630314696 Z"></path><path fill="none" d="M 142.46945681177087 307.22861444001387 L 130.91449051958898 64.01860197375734 L 112.03801749330202 69.62320630314696 L 125.11821677768992 321.03097135733253 Z" visibility="hidden"></path><path fill="none" d="M 131.3213878982852 64.15305371792789 L 142.82776566897712 306.82252075210886 L 125.82268910637691 320.3453510013411 L 112.82629272782339 69.65375627416512 Z"></path><path fill="none" d="M 125.11821677768992 321.03097135733253 L 112.03801749330202 69.62320630314696 L 112.82629272782339 69.65375627416512 L 125.82268910637691 320.3453510013411 Z"></path><path fill="none" d="M 130.91449051958898 64.01860197375734 L 142.46945681177087 307.22861444001387 L 142.82776566897712 306.82252075210886 L 131.3213878982852 64.15305371792789 Z" visibility="hidden"></path></g><g stroke-linejoin="round" class="highcharts-3d-frame highcharts-3d-frame-back" data-z-index="-1000"><path fill="none" d="M 552.512655148179 347.03591861360997 L 142.46945681177087 307.22861444001387 L 142.82776566897712 306.82252075210886 L 552.4953486224083 346.548807215039 Z" visibility="hidden"></path><path fill="none" d="M 130.91449051958898 64.01860197375734 L 567.3351493491523 80.24816424611241 L 567.2805658789073 80.37832267163897 L 131.3213878982852 64.15305371792789 Z"></path><path fill="none" d="M 142.46945681177087 307.22861444001387 L 130.91449051958898 64.01860197375734 L 131.3213878982852 64.15305371792789 L 142.82776566897712 306.82252075210886 Z" visibility="hidden"></path><path fill="none" d="M 567.3351493491523 80.24816424611241 L 552.512655148179 347.03591861360997 L 552.4953486224083 346.548807215039 L 567.2805658789073 80.37832267163897 Z"></path><path fill="none" d="M 131.3213878982852 64.15305371792789 L 567.2805658789073 80.37832267163897 L 552.4953486224083 346.548807215039 L 142.82776566897712 306.82252075210886 Z"></path><path fill="none" d="M 142.46945681177087 307.22861444001387 L 552.512655148179 347.03591861360997 L 567.3351493491523 80.24816424611241 L 130.91449051958898 64.01860197375734 Z" visibility="hidden"></path></g><rect fill="none" class="highcharts-plot-background" x="75" y="53" width="515" height="310"></rect><g class="highcharts-grid highcharts-xaxis-grid" data-z-index="1"><path fill="none" stroke="#e6e6e6" stroke-width="1" stroke-dasharray="none" data-z-index="1" class="highcharts-grid-line" d="M 150.90071861471142 64.88174558371031 L 161.33467612492498 308.6171729455199 M 144.88890941731117 322.26589648309323 L 161.33467612492498 308.6171729455199" opacity="1"></path><path fill="none" stroke="#e6e6e6" stroke-width="1" stroke-dasharray="none" data-z-index="1" class="highcharts-grid-line" d="M 216.76051188690275 67.33287613227881 L 223.51196280696544 314.64662903382174 M 208.98918292819855 328.72273421300304 L 223.51196280696544 314.64662903382174" opacity="1"></path><path fill="none" stroke="#e6e6e6" stroke-width="1" stroke-dasharray="none" data-z-index="1" class="highcharts-grid-line" d="M 284.7911520882179 69.86479996852515 L 287.61730954691893 320.8630529696311 M 275.14805003805986 335.38693462784977 L 287.61730954691893 320.8630529696311" opacity="1"></path><path fill="none" stroke="#e6e6e6" stroke-width="1" stroke-dasharray="none" data-z-index="1" class="highcharts-grid-line" d="M 355.9529968948435 72.51325911228716 L 354.5415534414565 327.3528310113846 M 344.2930434519701 342.35192834559837 L 354.5415534414565 327.3528310113846" opacity="1"></path><path fill="none" stroke="#e6e6e6" stroke-width="1" stroke-dasharray="none" data-z-index="1" class="highcharts-grid-line" d="M 428.6894265901518 75.22032021834221 L 422.80793087015877 333.97275843148367 M 414.9058084447479 349.46477108785564 L 422.80793087015877 333.97275843148367" opacity="1"></path><path fill="none" stroke="#e6e6e6" stroke-width="1" stroke-dasharray="none" data-z-index="1" class="highcharts-grid-line" d="M 503.9485937586013 78.02127106469567 L 493.29488219761197 340.80801935241266 M 487.9015681462744 356.8176535257783 L 493.29488219761197 340.80801935241266" opacity="1"></path></g><g class="highcharts-grid highcharts-zaxis-grid" data-z-index="1"></g><g class="highcharts-grid highcharts-yaxis-grid" data-z-index="1"><path fill="none" stroke="#e6e6e6" stroke-width="1" stroke-dasharray="none" data-z-index="1" class="highcharts-grid-line" d="M 142.84526126852654 307.1915028855575 L 552.4730055308773 346.95103813230094 M 125.84240899883247 320.7257342355499 L 142.84526126852654 307.1915028855575" opacity="1"></path><path fill="none" stroke="#e6e6e6" stroke-width="1" stroke-dasharray="none" data-z-index="1" class="highcharts-grid-line" d="M 140.6509082202476 260.91260475420825 L 555.2786001629153 296.4433946065585 M 123.36810130560843 272.99803161764316 L 140.6509082202476 260.91260475420825" opacity="1"></path><path fill="none" stroke="#e6e6e6" stroke-width="1" stroke-dasharray="none" data-z-index="1" class="highcharts-grid-line" d="M 138.40518234156573 213.55025380891735 L 558.1566859777392 244.63073047053015 M 120.8338259356818 224.11359354270792 L 138.40518234156573 213.55025380891735" opacity="1"></path><path fill="none" stroke="#e6e6e6" stroke-width="1" stroke-dasharray="none" data-z-index="1" class="highcharts-grid-line" d="M 136.10625820136335 165.06595171378717 L 561.1101092967256 191.46180489854999 M 118.23737606880536 174.02985195795978 L 136.10625820136335 165.06595171378717" opacity="1"></path><path fill="none" stroke="#e6e6e6" stroke-width="1" stroke-dasharray="none" data-z-index="1" class="highcharts-grid-line" d="M 133.75222284782419 115.41935432168533 L 564.1418674294634 136.88265890361762 M 115.5764352581819 122.70212418946764 L 133.75222284782419 115.41935432168533" opacity="1"></path><path fill="none" stroke="#e6e6e6" stroke-width="1" stroke-dasharray="none" data-z-index="1" class="highcharts-grid-line" d="M 131.30170144491507 63.737866485044634 L 567.3060184551354 79.92011333795293 M 112.80401039863625 69.22394538848246 L 131.30170144491507 63.737866485044634" opacity="1"></path></g><rect fill="none" class="highcharts-plot-border" data-z-index="1" x="75" y="53" width="515" height="310"></rect><g class="highcharts-axis highcharts-xaxis" data-z-index="2"><path fill="none" class="highcharts-axis-line" stroke="#ccd6eb" stroke-width="1" data-z-index="7" d="M 0 0"></path></g><g class="highcharts-axis highcharts-zaxis" data-z-index="2"><path fill="none" class="highcharts-axis-line" data-z-index="7" d="M 0 0"></path></g><g class="highcharts-axis highcharts-yaxis" data-z-index="2"><text x="79.03698302796838" data-z-index="7" text-anchor="middle" transform="translate(0,0) rotate(270 79.03698302796838 198.8204514367811)" class="highcharts-axis-title" style="color: rgb(102, 102, 102); fill: rgb(102, 102, 102);" y="198.8204514367811" z="61.068754265161616">Values</text><path fill="none" class="highcharts-axis-line" data-z-index="7" d="M 0 0"></path></g><g class="highcharts-series-group" data-z-index="3"><g class="highcharts-markers highcharts-series-0 highcharts-cylinder-series" transform="translate(75,53) scale(1 1)" visibility="visible" data-z-index="10" opacity="1" clip-path="none"><g stroke-linejoin="round" data-z-index="15600265" stroke="#7cb5ec" stroke-width="1" opacity="1" class="highcharts-point highcharts-color-0"><path fill="rgb(99,156,211)" d="M 83.29504328005916 265.90462180216264 C 82.57635594229077 267.5762865609583 78.16691785432042 268.94372852439074 73.46013438438092 268.94372852439074 C 68.75335091444148 268.94372852439074 65.57683578081662 267.5762865609583 66.36536696361804 265.9046218021627 C 67.1474451760904 264.24663716575657 71.54280509140497 262.9104295140802 76.1800278201398 262.91042951408014 C 80.8172505488746 262.9104295140802 84.00784921685354 264.24663716575657 83.29504328005916 265.90462180216264" class="highcharts-3d-bottom" data-z-index="0"></path><path fill="#7cb5ec" d="M 65.0123638383294 237.6736414607086 C 65.805530610987 236.12029755361948 70.23624741708278 234.86848773333563 74.9060518318704 234.86848773333566 C 79.57585624665799 234.86848773333563 82.7847942161871 236.12029755361948 82.0618818841441 237.6736414607086 L 83.29504328005916 265.90462180216264 C 84.00784921685354 264.24663716575657 80.8172505488746 262.9104295140802 76.1800278201398 262.91042951408014 C 71.54280509140497 262.9104295140802 67.1474451760904 264.24663716575657 66.36536696361804 265.9046218021627 Z" class="highcharts-3d-back" data-z-index="1"></path><path fill="#7cb5ec" d="M 82.0618818841441 237.6736414607086 C 81.3329623637429 239.23989319772582 76.88786629871706 240.52117406293544 72.14751278889932 240.52117406293542 C 67.40715927908167 240.52117406293544 64.21260608362371 239.23989319772582 65.0123638383294 237.6736414607086 L 66.36536696361804 265.9046218021627 C 65.57683578081662 267.5762865609583 68.75335091444148 268.94372852439074 73.46013438438092 268.94372852439074 C 78.16691785432042 268.94372852439074 82.57635594229077 267.5762865609583 83.29504328005916 265.90462180216264 Z" class="highcharts-3d-front" data-z-index="2"></path><path fill="rgb(149,206,255)" d="M 82.0618818841441 237.6736414607086 C 81.3329623637429 239.23989319772582 76.88786629871706 240.52117406293544 72.14751278889932 240.52117406293542 C 67.40715927908167 240.52117406293544 64.21260608362371 239.23989319772582 65.0123638383294 237.6736414607086 C 65.805530610987 236.12029755361948 70.23624741708278 234.86848773333563 74.9060518318704 234.86848773333566 C 79.57585624665799 234.86848773333563 82.7847942161871 236.12029755361948 82.0618818841441 237.6736414607086" class="highcharts-3d-top" data-z-index="3"></path></g><g stroke-linejoin="round" data-z-index="57600785" stroke="#434348" stroke-width="1" opacity="1" class="highcharts-point highcharts-color-1"><path fill="rgb(42,42,47)" d="M 114.90165608854522 269.0517692752072 C 114.30877449080626 270.74955656482587 109.97231288102131 272.1384479820729 105.22869598826662 272.1384479820729 C 100.48507909551199 272.1384479820728 97.17667189781756 270.74955656482587 97.84048876635856 269.0517692752072 C 98.49883124953737 267.3679833500111 102.8234643779015 266.0110597285846 107.49643573032526 266.0110597285846 C 112.16940708274905 266.0110597285846 115.48964829209444 267.3679833500111 114.90165608854522 269.0517692752072" class="highcharts-3d-bottom" data-z-index="0"></path><path fill="#434348" d="M 95.07289181931498 199.97504369696927 C 95.75420732682534 198.55194153921934 100.16255301911784 197.40524487108974 104.91591382751773 197.40524487108974 C 109.66927463591765 197.40524487108974 113.03831405579106 198.55194153921934 112.4298037183768 199.97504369696927 L 114.90165608854522 269.0517692752072 C 115.48964829209444 267.3679833500111 112.16940708274905 266.0110597285846 107.49643573032526 266.0110597285846 C 102.8234643779015 266.0110597285846 98.49883124953737 267.3679833500111 97.84048876635856 269.0517692752072 Z" class="highcharts-3d-back" data-z-index="1"></path><path fill="#434348" d="M 112.4298037183768 199.97504369696927 C 111.81614528702332 201.41018552461918 107.39534528970847 202.58437111847482 102.56886837767908 202.58437111847482 C 97.74239146564972 202.58437111847482 94.38581227458238 201.41018552461918 95.07289181931498 199.97504369696927 L 97.84048876635856 269.0517692752072 C 97.17667189781756 270.74955656482587 100.48507909551199 272.1384479820728 105.22869598826662 272.1384479820729 C 109.97231288102131 272.1384479820729 114.30877449080626 270.74955656482587 114.90165608854522 269.0517692752072 Z" class="highcharts-3d-front" data-z-index="2"></path><path fill="rgb(92,92,97)" d="M 112.4298037183768 199.97504369696927 C 111.81614528702332 201.41018552461918 107.39534528970847 202.58437111847482 102.56886837767908 202.58437111847482 C 97.74239146564972 202.58437111847482 94.38581227458238 201.41018552461918 95.07289181931498 199.97504369696927 C 95.75420732682534 198.55194153921934 100.16255301911784 197.40524487108974 104.91591382751773 197.40524487108974 C 109.66927463591765 197.40524487108974 113.03831405579106 198.55194153921934 112.4298037183768 199.97504369696927" class="highcharts-3d-top" data-z-index="3"></path></g><g stroke-linejoin="round" data-z-index="99601215" stroke="#90ed7d" stroke-width="1" opacity="1" class="highcharts-point highcharts-color-2"><path fill="rgb(119,212,100)" d="M 147.00308250094545 272.24818654481686 C 146.54005789272372 273.97271349656387 142.27942700578592 275.38356303344364 137.4983956557199 275.38356303344364 C 132.71736430565394 275.38356303344364 129.2732885418979 273.97271349656387 129.80836563106084 272.2481865448169 C 130.3389956323947 270.5379923368432 134.5901594399113 269.15986722724034 139.29943487458638 269.15986722724034 C 144.00871030926146 269.15986722724034 147.462258857875 270.5379923368432 147.00308250094545 272.24818654481686" class="highcharts-3d-bottom" data-z-index="0"></path><path fill="#90ed7d" d="M 126.47117206008124 168.18571141765415 C 127.02983962551366 166.8747033549168 131.4026674185643 165.8184614075965 136.23407121827472 165.8184614075965 C 141.06547501798508 165.8184614075965 144.5987076151416 166.8747033549168 144.1152691801019 168.18571141765412 L 147.00308250094545 272.24818654481686 C 147.462258857875 270.5379923368432 144.00871030926146 269.15986722724034 139.29943487458638 269.15986722724034 C 134.5901594399113 269.15986722724034 130.3389956323947 270.5379923368432 129.80836563106084 272.2481865448169 Z" class="highcharts-3d-back" data-z-index="1"></path><path fill="#90ed7d" d="M 144.1152691801019 168.18571141765412 C 143.62767281618773 169.5079951214735 139.24461615577195 170.5899816170461 134.3376565496803 170.5899816170461 C 129.4306969435887 170.5899816170461 125.90769953949183 169.5079951214735 126.47117206008124 168.18571141765415 L 129.80836563106084 272.2481865448169 C 129.2732885418979 273.97271349656387 132.71736430565394 275.38356303344364 137.4983956557199 275.38356303344364 C 142.27942700578592 275.38356303344364 146.54005789272372 273.97271349656387 147.00308250094545 272.24818654481686 Z" class="highcharts-3d-front" data-z-index="2"></path><path fill="rgb(169,255,150)" d="M 144.1152691801019 168.18571141765412 C 143.62767281618773 169.5079951214735 139.24461615577195 170.5899816170461 134.3376565496803 170.5899816170461 C 129.4306969435887 170.5899816170461 125.90769953949183 169.5079951214735 126.47117206008124 168.18571141765415 C 127.02983962551366 166.8747033549168 131.4026674185643 165.8184614075965 136.23407121827472 165.8184614075965 C 141.06547501798508 165.8184614075965 144.5987076151416 166.8747033549168 144.1152691801019 168.18571141765412" class="highcharts-3d-top" data-z-index="3"></path></g><g stroke-linejoin="round" data-z-index="141601495" stroke="#f7a35c" stroke-width="1" opacity="1" class="highcharts-point highcharts-color-3"><path fill="rgb(222,138,67)" d="M 179.61103393475707 275.4950397453764 C 179.28206332104122 277.2469430839903 175.1002262764209 278.6802756181655 170.2811855768199 278.6802756181655 C 165.46214487721892 278.68027561816547 161.87849334514763 277.2469430839903 162.28066025294777 275.49503974537646 C 162.6794584451858 273.7578110702558 166.85430693626043 272.35798366258007 171.60045495910347 272.35798366258007 C 176.3466029819465 272.35798366258007 179.9372489551996 273.7578110702558 179.61103393475707 275.4950397453764" class="highcharts-3d-bottom" data-z-index="0"></path><path fill="#f7a35c" d="M 159.2227372678697 147.72698152322852 C 159.64750404705788 146.4864334561962 163.96598209523265 145.48706501658526 168.86336088007045 145.48706501658526 C 173.76073966490821 145.48706501658526 177.45712470885962 146.4864334561962 177.109667508067 147.72698152322852 L 179.61103393475707 275.4950397453764 C 179.9372489551996 273.7578110702558 176.3466029819465 272.35798366258007 171.60045495910347 272.35798366258007 C 166.85430693626043 272.35798366258007 162.6794584451858 273.7578110702558 162.28066025294777 275.49503974537646 Z" class="highcharts-3d-back" data-z-index="1"></path><path fill="#f7a35c" d="M 177.109667508067 147.72698152322852 C 176.75918060972649 148.97834670796087 172.4330189176814 150.00241283626036 167.4579901584632 150.00241283626036 C 162.48296139924497 150.00241283626036 158.79426668036666 148.97834670796087 159.2227372678697 147.72698152322852 L 162.28066025294777 275.49503974537646 C 161.87849334514763 277.2469430839903 165.46214487721892 278.68027561816547 170.2811855768199 278.6802756181655 C 175.1002262764209 278.6802756181655 179.28206332104122 277.2469430839903 179.61103393475707 275.4950397453764 Z" class="highcharts-3d-front" data-z-index="2"></path><path fill="rgb(255,188,117)" d="M 177.109667508067 147.72698152322852 C 176.75918060972649 148.97834670796087 172.4330189176814 150.00241283626036 167.4579901584632 150.00241283626036 C 162.48296139924497 150.00241283626036 158.79426668036666 148.97834670796087 159.2227372678697 147.72698152322852 C 159.64750404705788 146.4864334561962 163.96598209523265 145.48706501658526 168.86336088007045 145.48706501658526 C 173.76073966490821 145.48706501658526 177.45712470885962 146.4864334561962 177.109667508067 147.72698152322852" class="highcharts-3d-top" data-z-index="3"></path></g><g stroke-linejoin="round" data-z-index="183601685" stroke="#8085e9" stroke-width="1" opacity="1" class="highcharts-point highcharts-color-4"><path fill="rgb(103,108,208)" d="M 212.73759433294032 278.79353210453894 C 212.54702671621476 280.5734689320049 208.4470603119612 282.0298262040331 203.58940106866507 282.0298262040331 C 198.73174182536897 282.02982620403304 195.0044711245721 280.5734689320049 195.26940630291077 278.79353210453894 C 195.5321047020994 277.02862282309025 199.62768390716602 275.6065764091914 204.41128648330402 275.6065764091914 C 209.19488905944206 275.6065764091914 212.92655303659348 277.02862282309025 212.73759433294032 278.79353210453894" class="highcharts-3d-bottom" data-z-index="0"></path><path fill="#8085e9" d="M 193.0065224368101 134.24322255512365 C 193.2886298304704 133.0467088239762 197.539899461075 132.08290485737086 202.49607385961465 132.08290485737086 C 207.45224825815427 132.08290485737086 211.31282373816305 133.0467088239762 211.109904163618 134.24322255512365 L 212.73759433294032 278.79353210453894 C 212.92655303659348 277.02862282309025 209.19488905944206 275.6065764091914 204.41128648330402 275.6065764091914 C 199.62768390716602 275.6065764091914 195.5321047020994 277.02862282309025 195.26940630291077 278.79353210453894 Z" class="highcharts-3d-back" data-z-index="1"></path><path fill="#8085e9" d="M 211.109904163618 134.24322255512365 C 210.90519369989912 135.45029625069168 206.64904075762803 136.43821080885476 201.61332559427328 136.43821080885476 C 196.57761043091855 136.43821080885476 192.72192527311012 135.45029625069168 193.0065224368101 134.24322255512365 L 195.26940630291077 278.79353210453894 C 195.0044711245721 280.5734689320049 198.73174182536897 282.02982620403304 203.58940106866507 282.0298262040331 C 208.4470603119612 282.0298262040331 212.54702671621476 280.5734689320049 212.73759433294032 278.79353210453894 Z" class="highcharts-3d-front" data-z-index="2"></path><path fill="rgb(153,158,255)" d="M 211.109904163618 134.24322255512365 C 210.90519369989912 135.45029625069168 206.64904075762803 136.43821080885476 201.61332559427328 136.43821080885476 C 196.57761043091855 136.43821080885476 192.72192527311012 135.45029625069168 193.0065224368101 134.24322255512365 C 193.2886298304704 133.0467088239762 197.539899461075 132.08290485737086 202.49607385961465 132.08290485737086 C 207.45224825815427 132.08290485737086 211.31282373816305 133.0467088239762 211.109904163618 134.24322255512365" class="highcharts-3d-top" data-z-index="3"></path></g><g stroke-linejoin="round" data-z-index="225602075" stroke="#f15c80" stroke-width="1" opacity="1" class="highcharts-point highcharts-color-5"><path fill="rgb(216,67,103)" d="M 246.39523509460784 282.144905429911 C 246.34757803217516 283.95355404720453 242.33267779603207 285.4334953432169 237.43577605079258 285.4334953432169 C 232.53887430555312 285.4334953432169 228.6637990644085 283.95355404720453 228.78702329608424 282.14490542991103 C 228.90919887356986 280.3516486468787 232.92244210721822 278.90684998444385 237.74409508922548 278.90684998444385 C 242.5657480712327 278.90684998444385 246.44248658925952 280.3516486468787 246.39523509460784 282.144905429911" class="highcharts-3d-bottom" data-z-index="0"></path><path fill="#f15c80" d="M 227.4945627686367 103.35891682672427 C 227.62795935263756 102.2801361116963 231.8250093436209 101.4112800242157 236.86195792091206 101.4112800242157 C 241.89890649820322 101.4112800242157 245.94696626010082 102.2801361116963 245.89537503290805 103.35891682672427 L 246.39523509460784 282.144905429911 C 246.44248658925952 280.3516486468787 242.5657480712327 278.90684998444385 237.74409508922548 278.90684998444385 C 232.92244210721822 278.90684998444385 228.90919887356986 280.3516486468787 228.78702329608424 282.14490542991103 Z" class="highcharts-3d-back" data-z-index="1"></path><path fill="#f15c80" d="M 245.89537503290805 103.35891682672427 C 245.84332096729824 104.4473755662085 241.64438013754452 105.33832863956596 236.52525551342333 105.33832863956596 C 231.40613088930218 105.33832863956596 227.3599694489282 104.4473755662085 227.4945627686367 103.35891682672427 L 228.78702329608424 282.14490542991103 C 228.6637990644085 283.95355404720453 232.53887430555312 285.4334953432169 237.43577605079258 285.4334953432169 C 242.33267779603207 285.4334953432169 246.34757803217516 283.95355404720453 246.39523509460784 282.144905429911 Z" class="highcharts-3d-front" data-z-index="2"></path><path fill="rgb(255,117,153)" d="M 245.89537503290805 103.35891682672427 C 245.84332096729824 104.4473755662085 241.64438013754452 105.33832863956596 236.52525551342333 105.33832863956596 C 231.40613088930218 105.33832863956596 227.3599694489282 104.4473755662085 227.4945627686367 103.35891682672427 C 227.62795935263756 102.2801361116963 231.8250093436209 101.4112800242157 236.86195792091206 101.4112800242157 C 241.89890649820322 101.4112800242157 245.94696626010082 102.2801361116963 245.89537503290805 103.35891682672427" class="highcharts-3d-top" data-z-index="3"></path></g><g stroke-linejoin="round" data-z-index="267601575" stroke="#e4d354" stroke-width="1" opacity="1" class="highcharts-point highcharts-color-6"><path fill="rgb(203,186,59)" d="M 280.5968307296176 285.5504416678186 C 280.6967572247341 287.3885024367378 276.77024272730426 288.8926053045541 271.833459276814 288.8926053045541 C 266.89667582632376 288.8926053045541 262.8694626377304 287.3885024367378 262.8463321813115 285.55044166781863 C 262.8234001518848 283.7281488916882 266.75112302790416 282.26004753756536 271.61143660120683 282.26004753756536 C 276.47175017450945 282.26004753756536 280.4977614641864 283.7281488916882 280.5968307296176 285.5504416678186" class="highcharts-3d-bottom" data-z-index="0"></path><path fill="#e4d354" d="M 263.03143067855115 148.1561042791932 C 263.00688691991934 146.8806393438781 267.0688457755113 145.85335664784404 272.0960831026203 145.85335664784404 C 277.1233204297293 145.85335664784404 281.2904474924193 146.8806393438781 281.39647963171825 148.1561042791932 L 280.5968307296176 285.5504416678186 C 280.4977614641864 283.7281488916882 276.47175017450945 282.26004753756536 271.61143660120683 282.26004753756536 C 266.75112302790416 282.26004753756536 262.8234001518848 283.7281488916882 262.8463321813115 285.55044166781863 Z" class="highcharts-3d-back" data-z-index="1"></path><path fill="#e4d354" d="M 281.39647963171825 148.1561042791932 C 281.5034611560367 149.44298940569104 277.442840714134 150.49634681772258 272.3337464807853 150.49634681772258 C 267.2246522474366 150.49634681772258 263.05619419580444 149.44298940569104 263.03143067855115 148.1561042791932 L 262.8463321813115 285.55044166781863 C 262.8694626377304 287.3885024367378 266.89667582632376 288.8926053045541 271.833459276814 288.8926053045541 C 276.77024272730426 288.8926053045541 280.6967572247341 287.3885024367378 280.5968307296176 285.5504416678186 Z" class="highcharts-3d-front" data-z-index="2"></path><path fill="rgb(253,236,109)" d="M 281.39647963171825 148.1561042791932 C 281.5034611560367 149.44298940569104 277.442840714134 150.49634681772258 272.3337464807853 150.49634681772258 C 267.2246522474366 150.49634681772258 263.05619419580444 149.44298940569104 263.03143067855115 148.1561042791932 C 263.00688691991934 146.8806393438781 267.0688457755113 145.85335664784404 272.0960831026203 145.85335664784404 C 277.1233204297293 145.85335664784404 281.2904474924193 146.8806393438781 281.39647963171825 148.1561042791932" class="highcharts-3d-top" data-z-index="3"></path></g><g stroke-linejoin="round" data-z-index="310601735" stroke="#2b908f" stroke-width="1" opacity="1" class="highcharts-point highcharts-color-7"><path fill="rgb(18,119,118)" d="M 316.1901706806776 289.09455727941355 C 316.44621622223025 290.9634800489172 312.61376635586066 292.49293796107054 307.6354729772626 292.49293796107054 C 302.65717959866464 292.49293796107054 298.46955545338415 290.9634800489172 298.2915953961401 289.0945572794136 C 298.11517466789707 287.24180042412956 301.9519135566957 285.7492525983784 306.852455815802 285.7492525983784 C 311.7529980749083 285.74925259837846 315.93633989637914 287.24180042412956 316.1901706806776 289.09455727941355" class="highcharts-3d-bottom" data-z-index="0"></path><path fill="#2b908f" d="M 299.85692684391574 136.94542840970078 C 299.66673799838884 135.70506535614118 303.6438780135113 134.70615037445486 308.7309486503208 134.70615037445486 C 313.8180192871302 134.70615037445486 318.16869967059523 135.70506535614118 318.44233975986197 136.94542840970078 L 316.1901706806776 289.09455727941355 C 315.93633989637914 287.24180042412956 311.7529980749083 285.74925259837846 306.852455815802 285.7492525983784 C 301.9519135566957 285.7492525983784 298.11517466789707 287.24180042412956 298.2915953961401 289.0945572794136 Z" class="highcharts-3d-back" data-z-index="1"></path><path fill="#2b908f" d="M 318.44233975986197 136.94542840970078 C 318.7184594856743 138.19703122555393 314.7461216162378 139.22160900626434 309.5752177380232 139.22160900626432 C 304.4043138598086 139.22160900626434 300.04883911824714 138.19703122555393 299.85692684391574 136.94542840970078 L 298.2915953961401 289.0945572794136 C 298.46955545338415 290.9634800489172 302.65717959866464 292.49293796107054 307.6354729772626 292.49293796107054 C 312.61376635586066 292.49293796107054 316.44621622223025 290.9634800489172 316.1901706806776 289.09455727941355 Z" class="highcharts-3d-front" data-z-index="2"></path><path fill="rgb(68,169,168)" d="M 318.44233975986197 136.94542840970078 C 318.7184594856743 138.19703122555393 314.7461216162378 139.22160900626434 309.5752177380232 139.22160900626432 C 304.4043138598086 139.22160900626434 300.04883911824714 138.19703122555393 299.85692684391574 136.94542840970078 C 299.66673799838884 135.70506535614118 303.6438780135113 134.70615037445486 308.7309486503208 134.70615037445486 C 313.8180192871302 134.70615037445486 318.16869967059523 135.70506535614118 318.44233975986197 136.94542840970078" class="highcharts-3d-top" data-z-index="3"></path></g><g stroke-linejoin="round" data-z-index="352602575" stroke="#f45b5b" stroke-width="1" opacity="1" class="highcharts-point highcharts-color-8"><path fill="rgb(219,66,66)" d="M 351.5337607543818 292.6138046869977 C 351.9473834806495 294.5136282669356 348.21044033355946 296.06847559831255 343.19092290028976 296.0684755983126 C 338.1714054670201 296.06847559831255 333.82239392717173 294.5136282669356 333.4881477523383 292.6138046869977 C 333.1568164066766 290.73054871982265 336.9012084032016 289.2135286733868 341.84169193011246 289.21352867338686 C 346.78217545702313 289.21352867338686 351.12374506891047 290.73054871982265 351.5337607543818 292.6138046869977" class="highcharts-3d-bottom" data-z-index="0"></path><path fill="#f45b5b" d="M 337.84858720079103 65.29644511707968 C 337.4782318303792 64.35340710339891 341.41958868188266 63.594104279143565 346.64121381588063 63.59410427914358 C 351.86283894987855 63.594104279143565 356.4714072516649 64.35340710339891 356.9297143604118 65.2964451170797 L 351.5337607543818 292.6138046869977 C 351.12374506891047 290.73054871982265 346.78217545702313 289.21352867338686 341.84169193011246 289.21352867338686 C 336.9012084032016 289.2135286733868 333.1568164066766 290.73054871982265 333.4881477523383 292.6138046869977 Z" class="highcharts-3d-back" data-z-index="1"></path><path fill="#f45b5b" d="M 356.9297143604118 65.2964451170797 C 357.3922857833591 66.2482576191252 353.4597354076364 67.02759456319515 348.1497450360829 67.02759456319515 C 342.83975466452944 67.02759456319515 338.22238853927774 66.24825761912521 337.84858720079103 65.29644511707968 L 333.4881477523383 292.6138046869977 C 333.82239392717173 294.5136282669356 338.1714054670201 296.06847559831255 343.19092290028976 296.0684755983126 C 348.21044033355946 296.06847559831255 351.9473834806495 294.5136282669356 351.5337607543818 292.6138046869977 Z" class="highcharts-3d-front" data-z-index="2"></path><path fill="rgb(255,116,116)" d="M 356.9297143604118 65.2964451170797 C 357.3922857833591 66.2482576191252 353.4597354076364 67.02759456319515 348.1497450360829 67.02759456319515 C 342.83975466452944 67.02759456319515 338.22238853927774 66.24825761912521 337.84858720079103 65.29644511707968 C 337.4782318303792 64.35340710339891 341.41958868188266 63.594104279143565 346.64121381588063 63.59410427914358 C 351.86283894987855 63.594104279143565 356.4714072516649 64.35340710339891 356.9297143604118 65.2964451170797" class="highcharts-3d-top" data-z-index="3"></path></g><g stroke-linejoin="round" data-z-index="394602305" stroke="#91e8e1" stroke-width="1" opacity="1" class="highcharts-point highcharts-color-9"><path fill="rgb(120,207,200)" d="M 387.46285963748096 296.1913526338107 C 388.0392784635816 298.1228497814247 384.40157192888796 299.7037240272682 379.34014200715234 299.7037240272682 C 374.27871208541677 299.7037240272682 369.7634919833745 298.1228497814247 369.2677730624134 296.19135263381077 C 368.7764127609678 294.2768382173489 372.42488454434135 292.7347390981631 377.4059657619461 292.7347390981631 C 382.38704697955075 292.7347390981631 386.8915089865868 294.2768382173489 387.46285963748096 296.1913526338107" class="highcharts-3d-bottom" data-z-index="0"></path><path fill="#91e8e1" d="M 375.0520203044731 91.36489139868601 C 374.5086095029168 90.29861098921212 378.32288855160675 89.44009830367769 383.55960141155276 89.4400983036777 C 388.79631427149866 89.44009830367769 393.5568711046307 90.29861098921212 394.1887457478582 91.36489139868601 L 387.46285963748096 296.1913526338107 C 386.8915089865868 294.2768382173489 382.38704697955075 292.7347390981631 377.4059657619461 292.7347390981631 C 372.42488454434135 292.7347390981631 368.7764127609678 294.2768382173489 369.2677730624134 296.19135263381077 Z" class="highcharts-3d-back" data-z-index="1"></path><path fill="#91e8e1" d="M 394.1887457478582 91.36489139868601 C 394.8265168736435 92.44112204734648 391.0247627716029 93.32235336417543 385.6991689329107 93.32235336417541 C 380.37357509421855 93.32235336417543 375.6005020680427 92.44112204734648 375.0520203044731 91.36489139868601 L 369.2677730624134 296.19135263381077 C 369.7634919833745 298.1228497814247 374.27871208541677 299.7037240272682 379.34014200715234 299.7037240272682 C 384.40157192888796 299.7037240272682 388.0392784635816 298.1228497814247 387.46285963748096 296.1913526338107 Z" class="highcharts-3d-front" data-z-index="2"></path><path fill="rgb(170,255,250)" d="M 394.1887457478582 91.36489139868601 C 394.8265168736435 92.44112204734648 391.0247627716029 93.32235336417543 385.6991689329107 93.32235336417541 C 380.37357509421855 93.32235336417543 375.6005020680427 92.44112204734648 375.0520203044731 91.36489139868601 C 374.5086095029168 90.29861098921212 378.32288855160675 89.44009830367769 383.55960141155276 89.4400983036777 C 388.79631427149866 89.44009830367769 393.5568711046307 90.29861098921212 394.1887457478582 91.36489139868601" class="highcharts-3d-top" data-z-index="3"></path></g><g stroke-linejoin="round" data-z-index="436601085" stroke="#7cb5ec" stroke-width="1" opacity="1" class="highcharts-point highcharts-color-0"><path fill="rgb(99,156,211)" d="M 423.9921383310799 299.82866194719065 C 424.73676914210705 301.7926314026816 421.2021775191915 303.40019158049705 416.09812928492033 303.4001915804971 C 410.99408105064924 303.40019158049705 406.30765547263445 301.7926314026816 405.64508129262583 299.8286619471907 C 404.9883812528394 297.882104326211 408.5372189785506 296.3142990504475 413.5595706259885 296.3142990504475 C 418.58192227342636 296.3142990504476 423.2541091443385 297.882104326211 423.9921383310799 299.82866194719065" class="highcharts-3d-bottom" data-z-index="0"></path><path fill="#7cb5ec" d="M 409.36573060743325 200.51980010451746 C 408.67570725344217 198.97580081819507 412.2993897603501 197.7324758090163 417.4468426560213 197.7324758090163 C 422.59429555169254 197.7324758090163 427.3980927663901 198.97580081819507 428.17357219980727 200.51980010451746 L 423.9921383310799 299.82866194719065 C 423.2541091443385 297.882104326211 418.58192227342636 296.3142990504476 413.5595706259885 296.3142990504475 C 408.5372189785506 296.3142990504475 404.9883812528394 297.882104326211 405.64508129262583 299.8286619471907 Z" class="highcharts-3d-back" data-z-index="1"></path><path fill="#7cb5ec" d="M 428.17357219980727 200.51980010451746 C 428.95616325880553 202.07795881834818 425.34782757270455 203.35361290330067 420.114522671502 203.35361290330067 C 414.88121777029954 203.35361290330067 410.06208190195275 202.07795881834818 409.36573060743325 200.51980010451746 L 405.64508129262583 299.8286619471907 C 406.30765547263445 301.7926314026816 410.99408105064924 303.40019158049705 416.09812928492033 303.4001915804971 C 421.2021775191915 303.40019158049705 424.73676914210705 301.7926314026816 423.9921383310799 299.82866194719065 Z" class="highcharts-3d-front" data-z-index="2"></path><path fill="rgb(149,206,255)" d="M 428.17357219980727 200.51980010451746 C 428.95616325880553 202.07795881834818 425.34782757270455 203.35361290330067 420.114522671502 203.35361290330067 C 414.88121777029954 203.35361290330067 410.06208190195275 202.07795881834818 409.36573060743325 200.51980010451746 C 408.67570725344217 198.97580081819507 412.2993897603501 197.7324758090163 417.4468426560213 197.7324758090163 C 422.59429555169254 197.7324758090163 427.3980927663901 198.97580081819507 428.17357219980727 200.51980010451746" class="highcharts-3d-top" data-z-index="3"></path></g><g stroke-linejoin="round" data-z-index="478600565" stroke="#434348" stroke-width="1" opacity="1" class="highcharts-point highcharts-color-1"><path fill="rgb(42,42,47)" d="M 461.1367621098494 303.5272426704993 C 462.0552266561489 305.5245102583339 458.62778354093905 307.15943782387325 453.48039318909457 307.1594378238733 C 448.3330028372502 307.15943782387325 443.47019131212704 305.5245102583339 442.6351746265068 303.5272426704993 C 441.8076229668645 301.5478305994285 445.2529658220236 299.95367100128465 450.31727749995014 299.95367100128465 C 455.38158917787655 299.95367100128465 460.2265086110847 301.5478305994285 461.1367621098494 303.5272426704993" class="highcharts-3d-bottom" data-z-index="0"></path><path fill="#434348" d="M 445.24674537268845 247.80059134488948 C 444.3957353310809 246.0459789445441 447.8797915363833 244.633027160707 453.01495729686917 244.633027160707 C 458.1501230573549 244.633027160707 463.07326543559816 246.0459789445441 464.00932164288304 247.80059134488948 L 461.1367621098494 303.5272426704993 C 460.2265086110847 301.5478305994285 455.38158917787655 299.95367100128465 450.31727749995014 299.95367100128465 C 445.2529658220236 299.95367100128465 441.8076229668645 301.5478305994285 442.6351746265068 303.5272426704993 Z" class="highcharts-3d-back" data-z-index="1"></path><path fill="#434348" d="M 464.00932164288304 247.80059134488948 C 464.9539413096337 249.57125572165614 461.48855317890536 251.02085767309904 456.2679481882175 251.02085767309904 C 451.0473431975297 251.02085767309904 446.10554083352554 249.57125572165614 445.24674537268845 247.80059134488948 L 442.6351746265068 303.5272426704993 C 443.47019131212704 305.5245102583339 448.3330028372502 307.15943782387325 453.48039318909457 307.1594378238733 C 458.62778354093905 307.15943782387325 462.0552266561489 305.5245102583339 461.1367621098494 303.5272426704993 Z" class="highcharts-3d-front" data-z-index="2"></path><path fill="rgb(92,92,97)" d="M 464.00932164288304 247.80059134488948 C 464.9539413096337 249.57125572165614 461.48855317890536 251.02085767309904 456.2679481882175 251.02085767309904 C 451.0473431975297 251.02085767309904 446.10554083352554 249.57125572165614 445.24674537268845 247.80059134488948 C 444.3957353310809 246.0459789445441 447.8797915363833 244.633027160707 453.01495729686917 244.633027160707 C 458.1501230573549 244.633027160707 463.07326543559816 246.0459789445441 464.00932164288304 247.80059134488948" class="highcharts-3d-top" data-z-index="3"></path></g></g></g><text x="300" text-anchor="middle" class="highcharts-title" data-z-index="4" style="color: rgb(51, 51, 51); font-size: 18px; fill: rgb(51, 51, 51);" y="24">Highcharts 3D 圆柱图</text><text x="300" text-anchor="middle" class="highcharts-subtitle" data-z-index="4" style="color: rgb(102, 102, 102); fill: rgb(102, 102, 102);" y="52"></text><text x="10" text-anchor="start" class="highcharts-caption" data-z-index="4" style="color: rgb(102, 102, 102); fill: rgb(102, 102, 102);" y="397"></text><g class="highcharts-legend highcharts-no-tooltip" data-z-index="7"><rect fill="none" class="highcharts-legend-box" rx="0" ry="0" x="0" y="0" width="8" height="8" visibility="hidden"></rect><g data-z-index="1"><g></g></g></g><g class="highcharts-axis-labels highcharts-xaxis-labels" data-z-index="7"><text x="145.04506229067118" text-anchor="middle" transform="translate(0,0)" style="color: rgb(102, 102, 102); cursor: default; font-size: 11px; fill: rgb(102, 102, 102);" y="337.74253190472956" z="90.67083217833877" opacity="1">0</text><text x="209.37362630525234" text-anchor="middle" transform="translate(0,0)" style="color: rgb(102, 102, 102); cursor: default; font-size: 11px; fill: rgb(102, 102, 102);" y="344.46756773609553" z="72.15567647622063" opacity="1">2</text><text x="275.77551069090464" text-anchor="middle" transform="translate(0,0)" style="color: rgb(102, 102, 102); cursor: default; font-size: 11px; fill: rgb(102, 102, 102);" y="351.409352596434" z="53.64052077410251" opacity="1">4</text><text x="344.3525923963619" text-anchor="middle" transform="translate(0,0)" style="color: rgb(102, 102, 102); cursor: default; font-size: 11px; fill: rgb(102, 102, 102);" y="358.5785369042817" z="35.125365071984376" opacity="1">6</text><text x="415.21353409765675" text-anchor="middle" transform="translate(0,0)" style="color: rgb(102, 102, 102); cursor: default; font-size: 11px; fill: rgb(102, 102, 102);" y="365.986480471583" z="16.61020936986625" opacity="1">8</text><text x="488.4743587371682" text-anchor="middle" transform="translate(0,0)" style="color: rgb(102, 102, 102); cursor: default; font-size: 11px; fill: rgb(102, 102, 102);" y="373.6453125671426" z="-1.9049463322518712" opacity="1">10</text></g><g class="highcharts-axis-labels highcharts-zaxis-labels" data-z-index="7"></g><g class="highcharts-axis-labels highcharts-yaxis-labels" data-z-index="7"><text x="113.84147601292878" text-anchor="end" transform="translate(0,0)" style="color: rgb(102, 102, 102); cursor: default; font-size: 11px; fill: rgb(102, 102, 102);" y="323.3863857756662" z="97.22761145206002" opacity="1">0</text><text x="111.22524965280124" text-anchor="end" transform="translate(0,0)" style="color: rgb(102, 102, 102); cursor: default; font-size: 11px; fill: rgb(102, 102, 102);" y="275.72275466193247" z="83.12793129113106" opacity="1">50</text><text x="108.54565940104126" text-anchor="end" transform="translate(0,0)" style="color: rgb(102, 102, 102); cursor: default; font-size: 11px; fill: rgb(102, 102, 102);" y="226.90473063987602" z="69.02825113020214" opacity="1">100</text><text x="105.80037506974" text-anchor="end" transform="translate(0,0)" style="color: rgb(102, 102, 102); cursor: default; font-size: 11px; fill: rgb(102, 102, 102);" y="176.8898612601953" z="54.92857096927321" opacity="1">150</text><text x="102.98695079709236" text-anchor="end" transform="translate(0,0)" style="color: rgb(102, 102, 102); cursor: default; font-size: 11px; fill: rgb(102, 102, 102);" y="125.63358667263748" z="40.82889080834427" opacity="1">200</text><text x="100.10281777942441" text-anchor="end" transform="translate(0,0)" style="color: rgb(102, 102, 102); cursor: default; font-size: 11px; fill: rgb(102, 102, 102);" y="73.08910721468965" z="26.729210647415336" opacity="1">250</text></g><text x="590" class="highcharts-credits" text-anchor="end" data-z-index="8" y="395" style="cursor: pointer; color: rgb(153, 153, 153); font-size: 9px; fill: rgb(153, 153, 153);">Highcharts.com.cn</text><g stroke-linejoin="round" class="highcharts-3d-frame highcharts-3d-frame-top" data-z-index="1000"><path fill="none" d="M 130.91449051958898 64.01860197375734 L 567.3351493491523 80.24816424611241 L 564.4381897985376 87.15618405923101 L 112.03801749330202 69.62320630314696 Z" visibility="hidden"></path><path fill="none" d="M 112.82629272782339 69.65375627416512 L 564.4381897985376 87.15618405923101 L 567.2805658789073 80.37832267163897 L 131.3213878982852 64.15305371792789 Z" visibility="hidden"></path><path fill="none" d="M 130.91449051958898 64.01860197375734 L 112.03801749330202 69.62320630314696 L 112.82629272782339 69.65375627416512 L 131.3213878982852 64.15305371792789 Z" visibility="hidden"></path><path fill="none" d="M 564.4381897985376 87.15618405923101 L 567.3351493491523 80.24816424611241 L 567.2805658789073 80.37832267163897 L 564.4381897985376 87.15618405923101 Z" visibility="hidden"></path><path fill="none" d="M 112.03801749330202 69.62320630314696 L 564.4381897985376 87.15618405923101 L 564.4381897985376 87.15618405923101 L 112.82629272782339 69.65375627416512 Z" visibility="hidden"></path><path fill="none" d="M 567.3351493491523 80.24816424611241 L 130.91449051958898 64.01860197375734 L 131.3213878982852 64.15305371792789 L 567.2805658789073 80.37832267163897 Z" visibility="hidden"></path></g><g stroke-linejoin="round" class="highcharts-3d-frame highcharts-3d-frame-right" data-z-index="1000"><path fill="none" d="M 552.512655148179 347.03591861360997 L 552.4953486224083 346.548807215039 L 549.2768289958627 363 L 549.2311280154272 363.83147766217303 Z" visibility="hidden"></path><path fill="none" d="M 564.4381897985376 87.15618405923101 L 564.4381897985376 87.15618405923101 L 567.2805658789073 80.37832267163897 L 567.3351493491523 80.24816424611241 Z" visibility="hidden"></path><path fill="none" d="M 564.4381897985376 87.15618405923101 L 549.2768289958627 363 L 552.4953486224083 346.548807215039 L 567.2805658789073 80.37832267163897 Z" visibility="hidden"></path><path fill="none" d="M 549.2311280154272 363.83147766217303 L 564.4381897985376 87.15618405923101 L 567.3351493491523 80.24816424611241 L 552.512655148179 347.03591861360997 Z" visibility="hidden"></path><path fill="none" d="M 564.4381897985376 87.15618405923101 L 549.2311280154272 363.83147766217303 L 549.2768289958627 363 L 564.4381897985376 87.15618405923101 Z" visibility="hidden"></path><path fill="none" d="M 552.512655148179 347.03591861360997 L 567.3351493491523 80.24816424611241 L 567.2805658789073 80.37832267163897 L 552.4953486224083 346.548807215039 Z" visibility="hidden"></path></g><g stroke-linejoin="round" class="highcharts-3d-frame highcharts-3d-frame-front" data-z-index="1000"><path fill="none" d="M 125.11821677768992 321.03097135733253 L 549.2311280154272 363.83147766217303 L 549.2768289958627 363 L 125.82268910637691 320.3453510013411 Z" visibility="hidden"></path><path fill="none" d="M 564.4381897985376 87.15618405923101 L 112.03801749330202 69.62320630314696 L 112.82629272782339 69.65375627416512 L 564.4381897985376 87.15618405923101 Z" visibility="hidden"></path><path fill="none" d="M 112.03801749330202 69.62320630314696 L 125.11821677768992 321.03097135733253 L 125.82268910637691 320.3453510013411 L 112.82629272782339 69.65375627416512 Z" visibility="hidden"></path><path fill="none" d="M 549.2311280154272 363.83147766217303 L 564.4381897985376 87.15618405923101 L 564.4381897985376 87.15618405923101 L 549.2768289958627 363 Z" visibility="hidden"></path><path fill="none" d="M 564.4381897985376 87.15618405923101 L 112.82629272782339 69.65375627416512 L 125.82268910637691 320.3453510013411 L 549.2768289958627 363 Z" visibility="hidden"></path><path fill="none" d="M 549.2311280154272 363.83147766217303 L 125.11821677768992 321.03097135733253 L 112.03801749330202 69.62320630314696 L 564.4381897985376 87.15618405923101 Z" visibility="hidden"></path></g></svg>