<?xml version="1.0" standalone="no"?><!DOCTYPE svg PUBLIC "-//W3C//DTD SVG 1.1//EN" "http://www.w3.org/Graphics/SVG/1.1/DTD/svg11.dtd"><svg xmlns:xlink="http://www.w3.org/1999/xlink" version="1.1" class="highcharts-root" style="font-family: &quot;Lucida Grande&quot;, &quot;Lucida Sans Unicode&quot;, Arial, Helvetica, sans-serif; font-size: 12px;" xmlns="http://www.w3.org/2000/svg" width="600" height="400" viewBox="0 0 600 400" role="img" aria-label="3D 漏斗图"><desc>Created with Highcharts 10.1.0</desc><defs><clipPath id="highcharts-n3lj49h-132-"><rect x="0" y="0" width="600" height="400" fill="none"></rect></clipPath><linearGradient x1="57.5670166015625" x2="522.4330444335938" y1="230.72878646850586" y2="230.72878646850586" id="highcharts-n3lj49h-139" gradientUnits="userSpaceOnUse"><stop offset="0" stop-color="rgb(73,130,185)" stop-opacity="1"></stop><stop offset="0.5" stop-color="#7cb5ec" stop-opacity="1"></stop><stop offset="1" stop-color="rgb(73,130,185)" stop-opacity="1"></stop></linearGradient><linearGradient x1="0" x2="0" y1="0" y2="0" id="highcharts-n3lj49h-140" gradientUnits="userSpaceOnUse"><stop offset="0" stop-color="rgb(73,130,185)" stop-opacity="1"></stop><stop offset="0.5" stop-color="#7cb5ec" stop-opacity="1"></stop><stop offset="1" stop-color="rgb(73,130,185)" stop-opacity="1"></stop></linearGradient><filter id="group-opacity-1-1"><feComponentTransfer><feFuncA type="table" tableValues="0 1"></feFuncA></feComponentTransfer></filter><linearGradient x1="199.622314453125" x2="380.377685546875" y1="235.65480041503906" y2="235.65480041503906" id="highcharts-n3lj49h-141" gradientUnits="userSpaceOnUse"><stop offset="0" stop-color="rgb(16,16,21)" stop-opacity="1"></stop><stop offset="0.5" stop-color="#434348" stop-opacity="1"></stop><stop offset="1" stop-color="rgb(16,16,21)" stop-opacity="1"></stop></linearGradient><linearGradient x1="204.275390625" x2="375.7338562011719" y1="275.50067138671875" y2="275.50067138671875" id="highcharts-n3lj49h-142" gradientUnits="userSpaceOnUse"><stop offset="0" stop-color="rgb(16,16,21)" stop-opacity="1"></stop><stop offset="0.5" stop-color="#434348" stop-opacity="1"></stop><stop offset="1" stop-color="rgb(16,16,21)" stop-opacity="1"></stop></linearGradient><filter id="group-opacity-1-1"><feComponentTransfer><feFuncA type="table" tableValues="0 1"></feFuncA></feComponentTransfer></filter><linearGradient x1="204.51222229003906" x2="375.4969787597656" y1="297.7465515136719" y2="297.7465515136719" id="highcharts-n3lj49h-143" gradientUnits="userSpaceOnUse"><stop offset="0" stop-color="rgb(93,186,74)" stop-opacity="1"></stop><stop offset="0.5" stop-color="#90ed7d" stop-opacity="1"></stop><stop offset="1" stop-color="rgb(93,186,74)" stop-opacity="1"></stop></linearGradient><linearGradient x1="0" x2="0" y1="0" y2="0" id="highcharts-n3lj49h-144" gradientUnits="userSpaceOnUse"><stop offset="0" stop-color="rgb(93,186,74)" stop-opacity="1"></stop><stop offset="0.5" stop-color="#90ed7d" stop-opacity="1"></stop><stop offset="1" stop-color="rgb(93,186,74)" stop-opacity="1"></stop></linearGradient><filter id="group-opacity-1-1"><feComponentTransfer><feFuncA type="table" tableValues="0 1"></feFuncA></feComponentTransfer></filter><linearGradient x1="204.64447021484375" x2="375.36468505859375" y1="308.6475524902344" y2="308.6475524902344" id="highcharts-n3lj49h-145" gradientUnits="userSpaceOnUse"><stop offset="0" stop-color="rgb(196,112,41)" stop-opacity="1"></stop><stop offset="0.5" stop-color="#f7a35c" stop-opacity="1"></stop><stop offset="1" stop-color="rgb(196,112,41)" stop-opacity="1"></stop></linearGradient><linearGradient x1="0" x2="0" y1="0" y2="0" id="highcharts-n3lj49h-146" gradientUnits="userSpaceOnUse"><stop offset="0" stop-color="rgb(196,112,41)" stop-opacity="1"></stop><stop offset="0.5" stop-color="#f7a35c" stop-opacity="1"></stop><stop offset="1" stop-color="rgb(196,112,41)" stop-opacity="1"></stop></linearGradient><filter id="group-opacity-1-1"><feComponentTransfer><feFuncA type="table" tableValues="0 1"></feFuncA></feComponentTransfer></filter><linearGradient x1="204.70925903320312" x2="375.29986572265625" y1="318.08270263671875" y2="318.08270263671875" id="highcharts-n3lj49h-147" gradientUnits="userSpaceOnUse"><stop offset="0" stop-color="rgb(77,82,182)" stop-opacity="1"></stop><stop offset="0.5" stop-color="#8085e9" stop-opacity="1"></stop><stop offset="1" stop-color="rgb(77,82,182)" stop-opacity="1"></stop></linearGradient><linearGradient x1="0" x2="0" y1="0" y2="0" id="highcharts-n3lj49h-148" gradientUnits="userSpaceOnUse"><stop offset="0" stop-color="rgb(77,82,182)" stop-opacity="1"></stop><stop offset="0.5" stop-color="#8085e9" stop-opacity="1"></stop><stop offset="1" stop-color="rgb(77,82,182)" stop-opacity="1"></stop></linearGradient><filter id="group-opacity-1-1"><feComponentTransfer><feFuncA type="table" tableValues="0 1"></feFuncA></feComponentTransfer></filter></defs><rect fill="#ffffff" class="highcharts-background" x="0" y="0" width="600" height="400" rx="0" ry="0"></rect><g stroke-linejoin="round" class="highcharts-3d-frame highcharts-3d-frame-bottom" data-z-index="-1000"><path fill="none" d="M 15.652632529784057 383.94502138899503 L 583.370228750387 383.94502138899503 L 577.8529773635757 372.248412863182 L 21.188908921377504 372.248412863182 Z" visibility="hidden"></path><path fill="none" d="M 22.022187578589296 371.5397327211517 L 577.9778124214107 371.5397327211517 L 583.3896841586968 382.99398619792964 L 16.610315841303247 382.99398619792964 Z"></path><path fill="none" d="M 15.652632529784057 383.94502138899503 L 21.188908921377504 372.248412863182 L 22.022187578589296 371.5397327211517 L 16.610315841303247 382.99398619792964 Z" visibility="hidden"></path><path fill="none" d="M 577.8529773635757 372.248412863182 L 583.370228750387 383.94502138899503 L 583.3896841586968 382.99398619792964 L 577.9778124214107 371.5397327211517 Z" visibility="hidden"></path><path fill="none" d="M 583.370228750387 383.94502138899503 L 15.652632529784057 383.94502138899503 L 16.610315841303247 382.99398619792964 L 583.3896841586968 382.99398619792964 Z"></path><path fill="none" d="M 21.188908921377504 372.248412863182 L 577.8529773635757 372.248412863182 L 577.9778124214107 371.5397327211517 L 22.022187578589296 371.5397327211517 Z" visibility="hidden"></path></g><g stroke-linejoin="round" class="highcharts-3d-frame highcharts-3d-frame-left" data-z-index="-1000"><path fill="none" d="M 15.652632529784057 383.94502138899503 L 16.610315841303247 382.99398619792964 L 22.022187578589296 371.5397327211517 L 21.188908921377504 372.248412863182 Z" visibility="hidden"></path><path fill="none" d="M 14.795721798177624 54.35290348060545 L 15.664766355597635 54.458836406504275 L 10.000000000000057 59.86311744164675 L 9.000000000000057 59.86311744164675 Z"></path><path fill="none" d="M 21.188908921377504 372.248412863182 L 14.795721798177624 54.35290348060545 L 9.000000000000057 59.86311744164675 L 15.652632529784057 383.94502138899503 Z" visibility="hidden"></path><path fill="none" d="M 15.664766355597635 54.458836406504275 L 22.022187578589296 371.5397327211517 L 16.610315841303247 382.99398619792964 L 10.000000000000057 59.86311744164675 Z"></path><path fill="none" d="M 15.652632529784057 383.94502138899503 L 9.000000000000057 59.86311744164675 L 10.000000000000057 59.86311744164675 L 16.610315841303247 382.99398619792964 Z"></path><path fill="none" d="M 14.795721798177624 54.35290348060545 L 21.188908921377504 372.248412863182 L 22.022187578589296 371.5397327211517 L 15.664766355597635 54.458836406504275 Z" visibility="hidden"></path></g><g stroke-linejoin="round" class="highcharts-3d-frame highcharts-3d-frame-right" data-z-index="-1000"><path fill="none" d="M 577.8529773635757 372.248412863182 L 577.9778124214107 371.5397327211517 L 583.3896841586968 382.99398619792964 L 583.370228750387 383.94502138899503 Z" visibility="hidden"></path><path fill="none" d="M 590 59.86311744164675 L 590 59.86311744164675 L 584.3352336444024 54.458836406504275 L 584.2241947715755 54.35290348060545 Z" visibility="hidden"></path><path fill="none" d="M 590 59.86311744164675 L 583.3896841586968 382.99398619792964 L 577.9778124214107 371.5397327211517 L 584.3352336444024 54.458836406504275 Z" visibility="hidden"></path><path fill="none" d="M 583.370228750387 383.94502138899503 L 590 59.86311744164675 L 584.2241947715755 54.35290348060545 L 577.8529773635757 372.248412863182 Z" visibility="hidden"></path><path fill="none" d="M 590 59.86311744164675 L 583.370228750387 383.94502138899503 L 583.3896841586968 382.99398619792964 L 590 59.86311744164675 Z" visibility="hidden"></path><path fill="none" d="M 577.8529773635757 372.248412863182 L 584.2241947715755 54.35290348060545 L 584.3352336444024 54.458836406504275 L 577.9778124214107 371.5397327211517 Z" visibility="hidden"></path></g><g stroke-linejoin="round" class="highcharts-3d-frame highcharts-3d-frame-back" data-z-index="-1000"><path fill="none" d="M 577.8529773635757 372.248412863182 L 21.188908921377504 372.248412863182 L 22.022187578589296 371.5397327211517 L 577.9778124214107 371.5397327211517 Z" visibility="hidden"></path><path fill="none" d="M 14.795721798177624 54.35290348060545 L 584.2241947715755 54.35290348060545 L 584.3352336444024 54.458836406504275 L 15.664766355597635 54.458836406504275 Z"></path><path fill="none" d="M 21.188908921377504 372.248412863182 L 14.795721798177624 54.35290348060545 L 15.664766355597635 54.458836406504275 L 22.022187578589296 371.5397327211517 Z" visibility="hidden"></path><path fill="none" d="M 584.2241947715755 54.35290348060545 L 577.8529773635757 372.248412863182 L 577.9778124214107 371.5397327211517 L 584.3352336444024 54.458836406504275 Z" visibility="hidden"></path><path fill="none" d="M 15.664766355597635 54.458836406504275 L 584.3352336444024 54.458836406504275 L 577.9778124214107 371.5397327211517 L 22.022187578589296 371.5397327211517 Z"></path><path fill="none" d="M 21.188908921377504 372.248412863182 L 577.8529773635757 372.248412863182 L 584.2241947715755 54.35290348060545 L 14.795721798177624 54.35290348060545 Z" visibility="hidden"></path></g><rect fill="none" class="highcharts-plot-background" x="10" y="53" width="580" height="332"></rect><g class="highcharts-grid highcharts-xaxis-grid" data-z-index="1"></g><g class="highcharts-grid highcharts-zaxis-grid" data-z-index="1"></g><g class="highcharts-grid highcharts-yaxis-grid" data-z-index="1"><path fill="none" stroke-dasharray="none" data-z-index="1" class="highcharts-grid-line" d="M 22.031547619309833 372.0065713963164 L 577.9684523806902 372.0065713963164 M 16.620043879385094 383.4695201167568 L 22.031547619309833 372.0065713963164" opacity="1"></path><path fill="none" stroke-dasharray="none" data-z-index="1" class="highcharts-grid-line" d="M 20.469099821056602 294.0783783542556 L 579.5309001789434 294.0783783542556 M 14.995990563268322 304.08121681294847 L 20.469099821056602 294.0783783542556" opacity="1"></path><path fill="none" stroke-dasharray="none" data-z-index="1" class="highcharts-grid-line" d="M 18.888987839813126 215.2691716466316 L 581.1110121601869 215.2691716466316 M 13.353215018816002 223.77771822160145 L 18.888987839813126 215.2691716466316" opacity="1"></path><path fill="none" stroke-dasharray="none" data-z-index="1" class="highcharts-grid-line" d="M 17.290910420231057 135.56392594909522 L 582.7090895797689 135.56392594909522 M 11.691391621893729 142.54310691728557 L 17.290910420231057 135.56392594909522" opacity="1"></path><path fill="none" stroke-dasharray="none" data-z-index="1" class="highcharts-grid-line" d="M 15.674559417415026 54.94727231625396 L 584.325440582585 54.94727231625396 M 10.010187153161837 60.36109419954113 L 15.674559417415026 54.94727231625396" opacity="1"></path></g><rect fill="none" class="highcharts-plot-border" data-z-index="1" x="10" y="53" width="580" height="332"></rect><g class="highcharts-axis highcharts-xaxis" data-z-index="2"><path fill="none" class="highcharts-axis-line" data-z-index="7" d="M 0 0"></path></g><g class="highcharts-axis highcharts-zaxis" data-z-index="2"><path fill="none" class="highcharts-axis-line" data-z-index="7" d="M 0 0"></path></g><g class="highcharts-axis highcharts-yaxis" data-z-index="2"><path fill="none" class="highcharts-axis-line" data-z-index="7" d="M 0 0"></path></g><g class="highcharts-series-group" data-z-index="3"><g class="highcharts-markers highcharts-series-0 highcharts-funnel3d-series" transform="translate(10,53) scale(1 1)" visibility="visible" data-z-index="10" opacity="1" clip-path="none"><g stroke-linejoin="round" data-z-index="290100328" class="highcharts-point highcharts-color-4"><path fill="rgb(77,82,182)" d="M 373.3923728749184 294.79617157214386 C 383.2171697569962 305.3435758988917 352.98688889434595 315.79186698973876 305.30245710495586 317.7624701466889 C 257.2960123069981 319.7463807884396 212.39024672223525 312.29202124244176 205.618842060754 301.490619935798 C 199.09416117031782 291.08277987621807 230.70260354698559 281.4903949717872 275.68739945304964 279.7552250067497 C 320.38990812692805 278.03094352785365 363.92143428810687 284.6286515889956 373.3923728749184 294.79617157214386" class="highcharts-3d-bottom" data-z-index="0" opacity="1"></path><g class="highcharts-funnel3d-lower-group" data-z-index="0" filter="url(#group-opacity-1-1)"><path fill="url(#highcharts-n3lj49h-148)" class="highcharts-3d-frontLower" data-z-index="0" stroke="none" stroke-width="1"></path><path fill="url(#highcharts-n3lj49h-148)" class="highcharts-3d-backLower" data-z-index="0" stroke="none" stroke-width="1"></path><path fill="url(#highcharts-n3lj49h-148)" class="highcharts-3d-rightLower" data-z-index="0" stroke="none" stroke-width="1"></path></g><g class="highcharts-funnel3d-upper-group" data-z-index="2" filter="url(#group-opacity-1-1)"><path fill="url(#highcharts-n3lj49h-147)" d="M 205.56304140253232 292.31095579677867 C 199.03514168408748 282.06370286361414 230.6647642733226 272.6195417126369 275.6782949600981 270.9112063953831 C 320.4091789806902 269.21359797012775 363.96887425316976 275.7092821788022 373.4468730199619 285.71977068017895 L 373.3923728749184 294.79617157214386 C 363.92143428810687 284.6286515889956 320.38990812692805 278.03094352785365 275.68739945304964 279.7552250067497 C 230.70260354698559 281.4903949717872 199.09416117031782 291.08277987621807 205.618842060754 301.490619935798 Z" class="highcharts-3d-backUpper" data-z-index="1" stroke="none" stroke-width="1"></path><path fill="url(#highcharts-n3lj49h-147)" d="M 373.4468730199619 285.71977068017895 C 383.2792296270821 296.1045254347236 353.02958508213675 306.3919453768459 305.312864933064 308.3322352737465 C 257.2736938290537 310.28563689182477 212.33795293409128 302.94595863965895 205.56304140253232 292.31095579677867 L 205.618842060754 301.490619935798 C 212.39024672223525 312.29202124244176 257.2960123069981 319.7463807884396 305.30245710495586 317.7624701466889 C 352.98688889434595 315.79186698973876 383.2171697569962 305.3435758988917 373.3923728749184 294.79617157214386 Z" class="highcharts-3d-frontUpper" data-z-index="2" stroke="none" stroke-width="1"></path><path fill="url(#highcharts-n3lj49h-147)" d="M 375.23389063967704 288.995927664309 C 376.8620010595877 299.66990041373015 338.69434294325066 308.64101579979734 290 308.64101579979734 C 241.30565705674937 308.64101579979734 203.13799894041227 299.66990041373015 204.76610936032296 288.995927664309 L 204.8221047067666 298.1236686536239 C 203.19615319859648 308.9647336074331 241.33877122916363 318.07607393935905 290 318.07607393935905 C 338.6612287708364 318.07607393935905 376.80384680140355 308.9647336074331 375.1778952932334 298.1236686536239 Z" class="highcharts-3d-rightUpper" data-z-index="2" stroke="none" stroke-width="1"></path></g><path fill="rgb(153,158,255)" d="M 373.4468730199619 285.71977068017895 C 383.2792296270821 296.1045254347236 353.02958508213675 306.3919453768459 305.312864933064 308.3322352737465 C 257.2736938290537 310.28563689182477 212.33795293409128 302.94595863965895 205.56304140253232 292.31095579677867 C 199.03514168408748 282.06370286361414 230.6647642733226 272.6195417126369 275.6782949600981 270.9112063953831 C 320.4091789806902 269.21359797012775 363.96887425316976 275.7092821788022 373.4468730199619 285.71977068017895" class="highcharts-3d-top" data-z-index="3" opacity="1"></path></g><g stroke-linejoin="round" data-z-index="290100438" class="highcharts-point highcharts-color-3"><path fill="rgb(196,112,41)" d="M 373.4468730199619 285.71977068017895 C 383.2792296270821 296.1045254347236 353.02958508213675 306.3919453768459 305.312864933064 308.3322352737465 C 257.2736938290537 310.28563689182477 212.33795293409128 302.94595863965895 205.56304140253232 292.31095579677867 C 199.03514168408748 282.06370286361414 230.6647642733226 272.6195417126369 275.6782949600981 270.9112063953831 C 320.4091789806902 269.21359797012775 363.96887425316976 275.7092821788022 373.4468730199619 285.71977068017895" class="highcharts-3d-bottom" data-z-index="0" opacity="1"></path><g class="highcharts-funnel3d-lower-group" data-z-index="0" filter="url(#group-opacity-1-1)"><path fill="url(#highcharts-n3lj49h-146)" class="highcharts-3d-frontLower" data-z-index="0" stroke="none" stroke-width="1"></path><path fill="url(#highcharts-n3lj49h-146)" class="highcharts-3d-backLower" data-z-index="0" stroke="none" stroke-width="1"></path><path fill="url(#highcharts-n3lj49h-146)" class="highcharts-3d-rightLower" data-z-index="0" stroke="none" stroke-width="1"></path></g><g class="highcharts-funnel3d-upper-group" data-z-index="2" filter="url(#group-opacity-1-1)"><path fill="url(#highcharts-n3lj49h-145)" d="M 205.4985744216983 281.70561078881275 C 198.96695773401046 271.64415609954995 230.62105041591698 262.37147992661414 275.6677770313618 260.6941895892959 C 320.43144146095716 259.02743891833876 364.02367974765514 265.405091389964 373.5098364551309 275.2339017219849 L 373.4468730199619 285.71977068017895 C 363.96887425316976 275.7092821788022 320.4091789806902 269.21359797012775 275.6782949600981 270.9112063953831 C 230.6647642733226 272.6195417126369 199.03514168408748 282.06370286361414 205.56304140253232 292.31095579677867 Z" class="highcharts-3d-backUpper" data-z-index="1" stroke="none" stroke-width="1"></path><path fill="url(#highcharts-n3lj49h-145)" d="M 373.5098364551309 275.2339017219849 C 383.35092861847926 285.4304682890608 353.0789141155004 295.53174752661084 305.3248896746337 297.4369614365733 C 257.2479079249135 299.3550601821985 212.27753584233477 292.14808107378275 205.4985744216983 281.70561078881275 L 205.56304140253232 292.31095579677867 C 212.33795293409128 302.94595863965895 257.2736938290537 310.28563689182477 305.312864933064 308.3322352737465 C 353.02958508213675 306.3919453768459 383.2792296270821 296.1045254347236 373.4468730199619 285.71977068017895 Z" class="highcharts-3d-frontUpper" data-z-index="2" stroke="none" stroke-width="1"></path><path fill="url(#highcharts-n3lj49h-145)" d="M 375.2985820020794 278.4506584989707 C 376.9291884275509 288.93129936470274 338.73260161479976 297.7401608458273 290 297.7401608458273 C 241.26739838520024 297.7401608458273 203.07081157244906 288.93129936470274 204.7014179979206 278.4506584989707 L 204.76610936032296 288.995927664309 C 203.13799894041227 299.66990041373015 241.30565705674937 308.64101579979734 290 308.64101579979734 C 338.69434294325066 308.64101579979734 376.8620010595877 299.66990041373015 375.23389063967704 288.995927664309 Z" class="highcharts-3d-rightUpper" data-z-index="2" stroke="none" stroke-width="1"></path></g><path fill="rgb(255,188,117)" d="M 373.5098364551309 275.2339017219849 C 383.35092861847926 285.4304682890608 353.0789141155004 295.53174752661084 305.3248896746337 297.4369614365733 C 257.2479079249135 299.3550601821985 212.27753584233477 292.14808107378275 205.4985744216983 281.70561078881275 C 198.96695773401046 271.64415609954995 230.62105041591698 262.37147992661414 275.6677770313618 260.6941895892959 C 320.43144146095716 259.02743891833876 364.02367974765514 265.405091389964 373.5098364551309 275.2339017219849" class="highcharts-3d-top" data-z-index="3" opacity="1"></path></g><g stroke-linejoin="round" data-z-index="290100662" class="highcharts-point highcharts-color-2"><path fill="rgb(93,186,74)" d="M 373.5098364551309 275.2339017219849 C 383.35092861847926 285.4304682890608 353.0789141155004 295.53174752661084 305.3248896746337 297.4369614365733 C 257.2479079249135 299.3550601821985 212.27753584233477 292.14808107378275 205.4985744216983 281.70561078881275 C 198.96695773401046 271.64415609954995 230.62105041591698 262.37147992661414 275.6677770313618 260.6941895892959 C 320.43144146095716 259.02743891833876 364.02367974765514 265.405091389964 373.5098364551309 275.2339017219849" class="highcharts-3d-bottom" data-z-index="0" opacity="1"></path><g class="highcharts-funnel3d-lower-group" data-z-index="0" filter="url(#group-opacity-1-1)"><path fill="url(#highcharts-n3lj49h-144)" class="highcharts-3d-frontLower" data-z-index="0" stroke="none" stroke-width="1"></path><path fill="url(#highcharts-n3lj49h-144)" class="highcharts-3d-backLower" data-z-index="0" stroke="none" stroke-width="1"></path><path fill="url(#highcharts-n3lj49h-144)" class="highcharts-3d-rightLower" data-z-index="0" stroke="none" stroke-width="1"></path></g><g class="highcharts-funnel3d-upper-group" data-z-index="2" filter="url(#group-opacity-1-1)"><path fill="url(#highcharts-n3lj49h-143)" d="M 205.3670239493024 260.0644833826418 C 198.82782835107403 250.3830659144725 230.53185574759533 241.46112046182066 275.6463161811304 239.84732201817803 C 320.47686565211285 238.2436794107152 364.13550745094153 244.37993686925006 373.63831531472766 253.83715800849893 L 373.5098364551309 275.2339017219849 C 364.02367974765514 265.405091389964 320.43144146095716 259.02743891833876 275.6677770313618 260.6941895892959 C 230.62105041591698 262.37147992661414 198.96695773401046 271.64415609954995 205.4985744216983 281.70561078881275 Z" class="highcharts-3d-backUpper" data-z-index="1" stroke="none" stroke-width="1"></path><path fill="url(#highcharts-n3lj49h-143)" d="M 373.63831531472766 253.83715800849893 C 383.4972389286716 263.6487865448758 353.17958014560594 273.36928195215216 305.34942882763954 275.20273792494703 C 257.19528564205405 277.0486133613743 212.15424410512568 270.11310645712234 205.3670239493024 260.0644833826418 L 205.4985744216983 281.70561078881275 C 212.27753584233477 292.14808107378275 257.2479079249135 299.3550601821985 305.3248896746337 297.4369614365733 C 353.0789141155004 295.53174752661084 383.35092861847926 285.4304682890608 373.5098364551309 275.2339017219849 Z" class="highcharts-3d-frontUpper" data-z-index="2" stroke="none" stroke-width="1"></path><path fill="url(#highcharts-n3lj49h-143)" d="M 375.43058853728644 256.93241566643707 C 377.0662942529823 267.01758544141427 338.81067702181065 275.4945194569409 290 275.4945194569409 C 241.1893229781894 275.4945194569409 202.9337057470177 267.01758544141427 204.5694114627136 256.93241566643707 L 204.7014179979206 278.4506584989707 C 203.07081157244906 288.93129936470274 241.26739838520024 297.7401608458273 290 297.7401608458273 C 338.73260161479976 297.7401608458273 376.9291884275509 288.93129936470274 375.2985820020794 278.4506584989707 Z" class="highcharts-3d-rightUpper" data-z-index="2" stroke="none" stroke-width="1"></path></g><path fill="rgb(169,255,150)" d="M 373.63831531472766 253.83715800849893 C 383.4972389286716 263.6487865448758 353.17958014560594 273.36928195215216 305.34942882763954 275.20273792494703 C 257.19528564205405 277.0486133613743 212.15424410512568 270.11310645712234 205.3670239493024 260.0644833826418 C 198.82782835107403 250.3830659144725 230.53185574759533 241.46112046182066 275.6463161811304 239.84732201817803 C 320.47686565211285 238.2436794107152 364.13550745094153 244.37993686925006 373.63831531472766 253.83715800849893" class="highcharts-3d-top" data-z-index="3" opacity="1"></path></g><g stroke-linejoin="round" data-z-index="290101121" class="highcharts-point highcharts-color-1"><path fill="rgb(16,16,21)" d="M 373.63831531472766 253.83715800849893 C 383.4972389286716 263.6487865448758 353.17958014560594 273.36928195215216 305.34942882763954 275.20273792494703 C 257.19528564205405 277.0486133613743 212.15424410512568 270.11310645712234 205.3670239493024 260.0644833826418 C 198.82782835107403 250.3830659144725 230.53185574759533 241.46112046182066 275.6463161811304 239.84732201817803 C 320.47686565211285 238.2436794107152 364.13550745094153 244.37993686925006 373.63831531472766 253.83715800849893" class="highcharts-3d-bottom" data-z-index="0" opacity="1"></path><g class="highcharts-funnel3d-upper-group" data-z-index="2" filter="url(#group-opacity-1-1)"><path fill="url(#highcharts-n3lj49h-141)" d="M 200.51170378364952 215.74692847424961 C 193.6983052561983 206.3761190447117 227.24661820959702 197.75777466535882 274.856007003573 196.2006658380363 C 322.1493421616637 194.6538938354202 368.2557046137518 200.5754384510061 378.37698548344144 209.7171411692026 L 373.8684005064522 215.51899504343726 C 364.33575756631683 206.7301462107061 320.5582027653814 201.02802497182 275.6078876152305 202.51817542693004 C 230.3721384745936 204.01778832049916 198.57867681276596 212.30891353978043 205.13142597643184 221.30669213593288 Z" class="highcharts-3d-backUpper" data-z-index="1" stroke="none" stroke-width="1"></path><path fill="url(#highcharts-n3lj49h-141)" d="M 378.37698548344144 209.7171411692026 C 388.8994746533627 219.2212216393865 356.9005094232386 228.65696648370823 306.2566574066669 230.43894354781816 C 255.24940526989778 232.23370736991546 207.59865030436822 225.49396220718236 200.51170378364952 215.74692847424961 L 205.13142597643184 221.30669213593288 C 211.93341879997536 230.6467147600589 257.1010295969736 237.09372461691746 305.3933822335051 235.37781609977 C 353.3598858170351 233.67348554755537 383.7592784594465 224.63812723980442 373.8684005064522 215.51899504343726 Z" class="highcharts-3d-frontUpper" data-z-index="2" stroke="none" stroke-width="1"></path><path fill="url(#highcharts-n3lj49h-141)" d="M 379.4882962163505 215.74692847424961 C 372.4013496956317 225.49396220718236 324.75059473010225 232.23370736991546 273.7433425933331 230.43894354781816 C 223.0994905767614 228.65696648370823 191.10052534663728 219.2212216393865 201.6230145165586 209.7171411692026 L 206.13159949354784 215.51899504343726 C 196.2407215405535 224.63812723980442 226.64011418296488 233.67348554755537 274.60661776649494 235.37781609977 C 322.8989704030264 237.09372461691746 368.0665812000247 230.6467147600589 374.86857402356816 221.30669213593288 Z" class="highcharts-3d-rightUpper" data-z-index="2" stroke="none" stroke-width="1"></path></g><g class="highcharts-funnel3d-lower-group" data-z-index="2" filter="url(#group-opacity-1-1)"><path fill="url(#highcharts-n3lj49h-142)" d="M 205.13142597643184 221.30669213593288 C 198.57867681276596 212.30891353978043 230.3721384745936 204.01778832049916 275.6078876152305 202.51817542693004 C 320.5582027653814 201.02802497182 364.33575756631683 206.7301462107061 373.8684005064522 215.51899504343726 L 373.63831531472766 253.83715800849893 C 364.13550745094153 244.37993686925006 320.47686565211285 238.2436794107152 275.6463161811304 239.84732201817803 C 230.53185574759533 241.46112046182066 198.82782835107403 250.3830659144725 205.3670239493024 260.0644833826418 Z" class="highcharts-3d-backLower" data-z-index="1" stroke="none" stroke-width="1"></path><path fill="url(#highcharts-n3lj49h-142)" d="M 375.43058853728644 256.93241566643707 C 377.0662942529823 267.01758544141427 338.81067702181065 275.4945194569409 290 275.4945194569409 C 241.1893229781894 275.4945194569409 202.9337057470177 267.01758544141427 204.5694114627136 256.93241566643707 L 204.33300277454208 218.39569055795292 C 202.6881445350301 227.76937601469209 241.0494775544368 235.6490512643066 290 235.6490512643066 C 338.95052244556325 235.6490512643066 377.3118554649699 227.76937601469209 375.6669972254579 218.39569055795292 Z" class="highcharts-3d-rightLower" data-z-index="1" stroke="none" stroke-width="1"></path><path fill="url(#highcharts-n3lj49h-142)" d="M 373.8684005064522 215.51899504343726 C 383.7592784594465 224.63812723980442 353.3598858170351 233.67348554755537 305.3933822335051 235.37781609977 C 257.1010295969736 237.09372461691746 211.93341879997536 230.6467147600589 205.13142597643184 221.30669213593288 L 205.3670239493024 260.0644833826418 C 212.15424410512568 270.11310645712234 257.19528564205405 277.0486133613743 305.34942882763954 275.20273792494703 C 353.17958014560594 273.36928195215216 383.4972389286716 263.6487865448758 373.63831531472766 253.83715800849893 Z" class="highcharts-3d-frontLower" data-z-index="2" stroke="none" stroke-width="1"></path></g><path fill="rgb(92,92,97)" d="M 378.37698548344144 209.7171411692026 C 388.8994746533627 219.2212216393865 356.9005094232386 228.65696648370823 306.2566574066669 230.43894354781816 C 255.24940526989778 232.23370736991546 207.59865030436822 225.49396220718236 200.51170378364952 215.74692847424961 C 193.6983052561983 206.3761190447117 227.24661820959702 197.75777466535882 274.856007003573 196.2006658380363 C 322.1493421616637 194.6538938354202 368.2557046137518 200.5754384510061 378.37698548344144 209.7171411692026" class="highcharts-3d-top" data-z-index="3" opacity="1"></path></g><g stroke-linejoin="round" data-z-index="290102888" class="highcharts-point highcharts-color-0"><path fill="rgb(73,130,185)" d="M 378.37698548344144 209.7171411692026 C 388.8994746533627 219.2212216393865 356.9005094232386 228.65696648370823 306.2566574066669 230.43894354781816 C 255.24940526989778 232.23370736991546 207.59865030436822 225.49396220718236 200.51170378364952 215.74692847424961 C 193.6983052561983 206.3761190447117 227.24661820959702 197.75777466535882 274.856007003573 196.2006658380363 C 322.1493421616637 194.6538938354202 368.2557046137518 200.5754384510061 378.37698548344144 209.7171411692026" class="highcharts-3d-bottom" data-z-index="0" opacity="1"></path><g class="highcharts-funnel3d-lower-group" data-z-index="0" filter="url(#group-opacity-1-1)"><path fill="url(#highcharts-n3lj49h-140)" class="highcharts-3d-frontLower" data-z-index="0" stroke="none" stroke-width="1"></path><path fill="url(#highcharts-n3lj49h-140)" class="highcharts-3d-backLower" data-z-index="0" stroke="none" stroke-width="1"></path><path fill="url(#highcharts-n3lj49h-140)" class="highcharts-3d-rightLower" data-z-index="0" stroke="none" stroke-width="1"></path></g><g class="highcharts-funnel3d-upper-group" data-z-index="2" filter="url(#group-opacity-1-1)"><path fill="url(#highcharts-n3lj49h-139)" d="M 58.43991105386803 44.765740080860255 C 48.21771012030655 29.523503632667655 136.63976463601912 16.283942301481005 253.16736846490656 13.966705002144124 C 367.8224381600289 11.68670442437761 482.9243436890465 20.534240401466604 514.2629710254962 34.85282438352988 L 378.37698548344144 209.7171411692026 C 368.2557046137518 200.5754384510061 322.1493421616637 194.6538938354202 274.856007003573 196.2006658380363 C 227.24661820959702 197.75777466535882 193.6983052561983 206.3761190447117 200.51170378364952 215.74692847424961 Z" class="highcharts-3d-backUpper" data-z-index="1" stroke="none" stroke-width="1"></path><path fill="url(#highcharts-n3lj49h-139)" d="M 514.2629710254962 34.85282438352988 C 548.8530227463121 50.65698055128773 470.7413504775974 67.36200466031895 334.1885121209504 70.6383667882447 C 194.9557485155567 73.97902934153198 69.75903947998765 61.64359573833683 58.43991105386803 44.765740080860255 L 200.51170378364952 215.74692847424961 C 207.59865030436822 225.49396220718236 255.24940526989778 232.23370736991546 306.2566574066669 230.43894354781816 C 356.9005094232386 228.65696648370823 388.8994746533627 219.2212216393865 378.37698548344144 209.7171411692026 Z" class="highcharts-3d-frontUpper" data-z-index="2" stroke="none" stroke-width="1"></path><path fill="url(#highcharts-n3lj49h-139)" d="M 521.5600889461319 44.76574008086024 C 510.2409605200123 61.64359573833683 385.04425148444335 73.97902934153198 245.81148787904962 70.6383667882447 C 109.25864952240258 67.36200466031895 31.146977253687794 50.65698055128773 65.73702897450383 34.85282438352988 L 201.6230145165586 209.7171411692026 C 191.10052534663728 219.2212216393865 223.0994905767614 228.65696648370823 273.7433425933331 230.43894354781816 C 324.75059473010225 232.23370736991546 372.4013496956317 225.49396220718236 379.4882962163505 215.74692847424961 Z" class="highcharts-3d-rightUpper" data-z-index="2" stroke="none" stroke-width="1"></path></g><path fill="rgb(149,206,255)" d="M 514.2629710254962 34.85282438352988 C 548.8530227463121 50.65698055128773 470.7413504775974 67.36200466031895 334.1885121209504 70.6383667882447 C 194.9557485155567 73.97902934153198 69.75903947998765 61.64359573833683 58.43991105386803 44.765740080860255 C 48.21771012030655 29.523503632667655 136.63976463601912 16.283942301481005 253.16736846490656 13.966705002144124 C 367.8224381600289 11.68670442437761 482.9243436890465 20.534240401466604 514.2629710254962 34.85282438352988" class="highcharts-3d-top" data-z-index="3" opacity="1"></path></g></g></g><text x="300" text-anchor="middle" class="highcharts-title" data-z-index="4" style="color: rgb(51, 51, 51); font-size: 18px; fill: rgb(51, 51, 51);" y="24">3D 漏斗图</text><text x="300" text-anchor="middle" class="highcharts-subtitle" data-z-index="4" style="color: rgb(102, 102, 102); fill: rgb(102, 102, 102);" y="52"></text><text x="10" text-anchor="start" class="highcharts-caption" data-z-index="4" style="color: rgb(102, 102, 102); fill: rgb(102, 102, 102);" y="397"></text><g class="highcharts-legend highcharts-no-tooltip" data-z-index="7"><rect fill="none" class="highcharts-legend-box" rx="0" ry="0" x="0" y="0" width="8" height="8" visibility="hidden"></rect><g data-z-index="1"><g></g></g></g><g class="highcharts-axis-labels highcharts-xaxis-labels" data-z-index="7"></g><g class="highcharts-axis-labels highcharts-zaxis-labels" data-z-index="7"></g><g class="highcharts-axis-labels highcharts-yaxis-labels" data-z-index="7"></g><text x="590" class="highcharts-credits" text-anchor="end" data-z-index="8" y="395" style="cursor: pointer; color: rgb(153, 153, 153); font-size: 9px; fill: rgb(153, 153, 153);">Highcharts.com</text><g stroke-linejoin="round" class="highcharts-3d-frame highcharts-3d-frame-top" data-z-index="1000"><path fill="none" d="M 14.795721798177624 54.35290348060545 L 584.2241947715755 54.35290348060545 L 590 59.86311744164675 L 9.000000000000057 59.86311744164675 Z" visibility="hidden"></path><path fill="none" d="M 10.000000000000057 59.86311744164675 L 590 59.86311744164675 L 584.3352336444024 54.458836406504275 L 15.664766355597635 54.458836406504275 Z" visibility="hidden"></path><path fill="none" d="M 14.795721798177624 54.35290348060545 L 9.000000000000057 59.86311744164675 L 10.000000000000057 59.86311744164675 L 15.664766355597635 54.458836406504275 Z" visibility="hidden"></path><path fill="none" d="M 590 59.86311744164675 L 584.2241947715755 54.35290348060545 L 584.3352336444024 54.458836406504275 L 590 59.86311744164675 Z" visibility="hidden"></path><path fill="none" d="M 9.000000000000057 59.86311744164675 L 590 59.86311744164675 L 590 59.86311744164675 L 10.000000000000057 59.86311744164675 Z" visibility="hidden"></path><path fill="none" d="M 584.2241947715755 54.35290348060545 L 14.795721798177624 54.35290348060545 L 15.664766355597635 54.458836406504275 L 584.3352336444024 54.458836406504275 Z" visibility="hidden"></path></g><g stroke-linejoin="round" class="highcharts-3d-frame highcharts-3d-frame-front" data-z-index="1000"><path fill="none" d="M 15.652632529784057 383.94502138899503 L 583.370228750387 383.94502138899503 L 583.3896841586968 382.99398619792964 L 16.610315841303247 382.99398619792964 Z" visibility="hidden"></path><path fill="none" d="M 590 59.86311744164675 L 9.000000000000057 59.86311744164675 L 10.000000000000057 59.86311744164675 L 590 59.86311744164675 Z" visibility="hidden"></path><path fill="none" d="M 9.000000000000057 59.86311744164675 L 15.652632529784057 383.94502138899503 L 16.610315841303247 382.99398619792964 L 10.000000000000057 59.86311744164675 Z" visibility="hidden"></path><path fill="none" d="M 583.370228750387 383.94502138899503 L 590 59.86311744164675 L 590 59.86311744164675 L 583.3896841586968 382.99398619792964 Z" visibility="hidden"></path><path fill="none" d="M 590 59.86311744164675 L 10.000000000000057 59.86311744164675 L 16.610315841303247 382.99398619792964 L 583.3896841586968 382.99398619792964 Z" visibility="hidden"></path><path fill="none" d="M 583.370228750387 383.94502138899503 L 15.652632529784057 383.94502138899503 L 9.000000000000057 59.86311744164675 L 590 59.86311744164675 Z" visibility="hidden"></path></g></svg>