<svg t="1652707150671" class="icon" viewBox="0 0 1024 1024" version="1.1" xmlns="http://www.w3.org/2000/svg" p-id="3556" width="128" height="128"><path d="M903.52 861.248c74.72-84.64 120.448-195.456 120.448-317.216H544.032l359.488 317.216z" fill="#EACA44" p-id="3557"></path><path d="M1024 480.032c0-265.088-214.912-480-480-480v480h480z" fill="#EF4D4D" p-id="3558"></path><path d="M1024 480.032c0-265.088-214.912-480-480-480v64c229.76 0 416 186.24 416 416h64z" fill="" p-id="3559"></path><path d="M543.968 960.032v64-64z" fill="" p-id="3560"></path><path d="M480 576V64.032c-265.088 0-480 214.912-480 480s214.912 480 480 480c130.048 0 247.424-52.384 333.856-136.48L480 576z" fill="#469FCC" p-id="3561"></path><path d="M766.752 843.648c-74.624 71.584-175.136 116.384-286.752 116.384-229.76 0-416-186.24-416-416s186.24-416 416-416v-64c-265.088 0-480 214.912-480 480s214.912 480 480 480c130.048 0 247.168-52.672 333.568-136.704l-46.816-43.68z" fill="" p-id="3562"></path><path d="M903.552 861.248c74.688-84.64 120.416-195.456 120.416-317.216h-64c0 105.536-39.584 201.6-104.352 274.912l47.936 42.304z" fill="" p-id="3563"></path></svg>