<?xml version="1.0" standalone="no"?><!DOCTYPE svg PUBLIC "-//W3C//DTD SVG 1.1//EN" "http://www.w3.org/Graphics/SVG/1.1/DTD/svg11.dtd"><svg xmlns:xlink="http://www.w3.org/1999/xlink" version="1.1" class="highcharts-root" style="font-family: &quot;Lucida Grande&quot;, &quot;Lucida Sans Unicode&quot;, Arial, Helvetica, sans-serif; font-size: 12px;" xmlns="http://www.w3.org/2000/svg" width="600" height="400" viewBox="0 0 600 400" role="img" aria-label="3D 金字塔图"><desc>Created with Highcharts 10.1.0</desc><defs><clipPath id="highcharts-fkj8q2x-300-"><rect x="0" y="0" width="600" height="400" fill="none"></rect></clipPath><linearGradient x1="119.00867462158203" x2="460.99132537841797" y1="322.52447509765625" y2="322.52447509765625" id="highcharts-fkj8q2x-307" gradientUnits="userSpaceOnUse"><stop offset="0" stop-color="rgb(73,130,185)" stop-opacity="1"></stop><stop offset="0.5" stop-color="#7cb5ec" stop-opacity="1"></stop><stop offset="1" stop-color="rgb(73,130,185)" stop-opacity="1"></stop></linearGradient><linearGradient x1="0" x2="0" y1="0" y2="0" id="highcharts-fkj8q2x-308" gradientUnits="userSpaceOnUse"><stop offset="0" stop-color="rgb(73,130,185)" stop-opacity="1"></stop><stop offset="0.5" stop-color="#7cb5ec" stop-opacity="1"></stop><stop offset="1" stop-color="rgb(73,130,185)" stop-opacity="1"></stop></linearGradient><filter id="group-opacity-1-1"><feComponentTransfer><feFuncA type="table" tableValues="0 1"></feFuncA></feComponentTransfer></filter><linearGradient x1="232.1988525390625" x2="347.8011474609375" y1="119.9714126586914" y2="119.9714126586914" id="highcharts-fkj8q2x-309" gradientUnits="userSpaceOnUse"><stop offset="0" stop-color="rgb(16,16,21)" stop-opacity="1"></stop><stop offset="0.5" stop-color="#434348" stop-opacity="1"></stop><stop offset="1" stop-color="rgb(16,16,21)" stop-opacity="1"></stop></linearGradient><linearGradient x1="0" x2="0" y1="0" y2="0" id="highcharts-fkj8q2x-310" gradientUnits="userSpaceOnUse"><stop offset="0" stop-color="rgb(16,16,21)" stop-opacity="1"></stop><stop offset="0.5" stop-color="#434348" stop-opacity="1"></stop><stop offset="1" stop-color="rgb(16,16,21)" stop-opacity="1"></stop></linearGradient><filter id="group-opacity-1-1"><feComponentTransfer><feFuncA type="table" tableValues="0 1"></feFuncA></feComponentTransfer></filter><linearGradient x1="261.9520263671875" x2="318.0479736328125" y1="69.63716125488281" y2="69.63716125488281" id="highcharts-fkj8q2x-311" gradientUnits="userSpaceOnUse"><stop offset="0" stop-color="rgb(93,186,74)" stop-opacity="1"></stop><stop offset="0.5" stop-color="#90ed7d" stop-opacity="1"></stop><stop offset="1" stop-color="rgb(93,186,74)" stop-opacity="1"></stop></linearGradient><linearGradient x1="0" x2="0" y1="0" y2="0" id="highcharts-fkj8q2x-312" gradientUnits="userSpaceOnUse"><stop offset="0" stop-color="rgb(93,186,74)" stop-opacity="1"></stop><stop offset="0.5" stop-color="#90ed7d" stop-opacity="1"></stop><stop offset="1" stop-color="rgb(93,186,74)" stop-opacity="1"></stop></linearGradient><filter id="group-opacity-1-1"><feComponentTransfer><feFuncA type="table" tableValues="0 1"></feFuncA></feComponentTransfer></filter><linearGradient x1="276.5632019042969" x2="303.4367980957031" y1="45.34918212890625" y2="45.34918212890625" id="highcharts-fkj8q2x-313" gradientUnits="userSpaceOnUse"><stop offset="0" stop-color="rgb(196,112,41)" stop-opacity="1"></stop><stop offset="0.5" stop-color="#f7a35c" stop-opacity="1"></stop><stop offset="1" stop-color="rgb(196,112,41)" stop-opacity="1"></stop></linearGradient><linearGradient x1="0" x2="0" y1="0" y2="0" id="highcharts-fkj8q2x-314" gradientUnits="userSpaceOnUse"><stop offset="0" stop-color="rgb(196,112,41)" stop-opacity="1"></stop><stop offset="0.5" stop-color="#f7a35c" stop-opacity="1"></stop><stop offset="1" stop-color="rgb(196,112,41)" stop-opacity="1"></stop></linearGradient><filter id="group-opacity-1-1"><feComponentTransfer><feFuncA type="table" tableValues="0 1"></feFuncA></feComponentTransfer></filter><linearGradient x1="283.8493347167969" x2="296.1506652832031" y1="33.48371124267578" y2="33.48371124267578" id="highcharts-fkj8q2x-315" gradientUnits="userSpaceOnUse"><stop offset="0" stop-color="rgb(77,82,182)" stop-opacity="1"></stop><stop offset="0.5" stop-color="#8085e9" stop-opacity="1"></stop><stop offset="1" stop-color="rgb(77,82,182)" stop-opacity="1"></stop></linearGradient><linearGradient x1="0" x2="0" y1="0" y2="0" id="highcharts-fkj8q2x-316" gradientUnits="userSpaceOnUse"><stop offset="0" stop-color="rgb(77,82,182)" stop-opacity="1"></stop><stop offset="0.5" stop-color="#8085e9" stop-opacity="1"></stop><stop offset="1" stop-color="rgb(77,82,182)" stop-opacity="1"></stop></linearGradient><filter id="group-opacity-1-1"><feComponentTransfer><feFuncA type="table" tableValues="0 1"></feFuncA></feComponentTransfer></filter></defs><rect fill="#ffffff" class="highcharts-background" x="0" y="0" width="600" height="400" rx="0" ry="0"></rect><g stroke-linejoin="round" class="highcharts-3d-frame highcharts-3d-frame-bottom" data-z-index="-1000"><path fill="none" d="M 15.652632529784057 383.94502138899503 L 583.370228750387 383.94502138899503 L 577.8529773635757 372.248412863182 L 21.188908921377504 372.248412863182 Z" visibility="hidden"></path><path fill="none" d="M 22.022187578589296 371.5397327211517 L 577.9778124214107 371.5397327211517 L 583.3896841586968 382.99398619792964 L 16.610315841303247 382.99398619792964 Z"></path><path fill="none" d="M 15.652632529784057 383.94502138899503 L 21.188908921377504 372.248412863182 L 22.022187578589296 371.5397327211517 L 16.610315841303247 382.99398619792964 Z" visibility="hidden"></path><path fill="none" d="M 577.8529773635757 372.248412863182 L 583.370228750387 383.94502138899503 L 583.3896841586968 382.99398619792964 L 577.9778124214107 371.5397327211517 Z" visibility="hidden"></path><path fill="none" d="M 583.370228750387 383.94502138899503 L 15.652632529784057 383.94502138899503 L 16.610315841303247 382.99398619792964 L 583.3896841586968 382.99398619792964 Z"></path><path fill="none" d="M 21.188908921377504 372.248412863182 L 577.8529773635757 372.248412863182 L 577.9778124214107 371.5397327211517 L 22.022187578589296 371.5397327211517 Z" visibility="hidden"></path></g><g stroke-linejoin="round" class="highcharts-3d-frame highcharts-3d-frame-left" data-z-index="-1000"><path fill="none" d="M 15.652632529784057 383.94502138899503 L 16.610315841303247 382.99398619792964 L 22.022187578589296 371.5397327211517 L 21.188908921377504 372.248412863182 Z" visibility="hidden"></path><path fill="none" d="M 14.795721798177624 54.35290348060545 L 15.664766355597635 54.458836406504275 L 10.000000000000057 59.86311744164675 L 9.000000000000057 59.86311744164675 Z"></path><path fill="none" d="M 21.188908921377504 372.248412863182 L 14.795721798177624 54.35290348060545 L 9.000000000000057 59.86311744164675 L 15.652632529784057 383.94502138899503 Z" visibility="hidden"></path><path fill="none" d="M 15.664766355597635 54.458836406504275 L 22.022187578589296 371.5397327211517 L 16.610315841303247 382.99398619792964 L 10.000000000000057 59.86311744164675 Z"></path><path fill="none" d="M 15.652632529784057 383.94502138899503 L 9.000000000000057 59.86311744164675 L 10.000000000000057 59.86311744164675 L 16.610315841303247 382.99398619792964 Z"></path><path fill="none" d="M 14.795721798177624 54.35290348060545 L 21.188908921377504 372.248412863182 L 22.022187578589296 371.5397327211517 L 15.664766355597635 54.458836406504275 Z" visibility="hidden"></path></g><g stroke-linejoin="round" class="highcharts-3d-frame highcharts-3d-frame-right" data-z-index="-1000"><path fill="none" d="M 577.8529773635757 372.248412863182 L 577.9778124214107 371.5397327211517 L 583.3896841586968 382.99398619792964 L 583.370228750387 383.94502138899503 Z" visibility="hidden"></path><path fill="none" d="M 590 59.86311744164675 L 590 59.86311744164675 L 584.3352336444024 54.458836406504275 L 584.2241947715755 54.35290348060545 Z" visibility="hidden"></path><path fill="none" d="M 590 59.86311744164675 L 583.3896841586968 382.99398619792964 L 577.9778124214107 371.5397327211517 L 584.3352336444024 54.458836406504275 Z" visibility="hidden"></path><path fill="none" d="M 583.370228750387 383.94502138899503 L 590 59.86311744164675 L 584.2241947715755 54.35290348060545 L 577.8529773635757 372.248412863182 Z" visibility="hidden"></path><path fill="none" d="M 590 59.86311744164675 L 583.370228750387 383.94502138899503 L 583.3896841586968 382.99398619792964 L 590 59.86311744164675 Z" visibility="hidden"></path><path fill="none" d="M 577.8529773635757 372.248412863182 L 584.2241947715755 54.35290348060545 L 584.3352336444024 54.458836406504275 L 577.9778124214107 371.5397327211517 Z" visibility="hidden"></path></g><g stroke-linejoin="round" class="highcharts-3d-frame highcharts-3d-frame-back" data-z-index="-1000"><path fill="none" d="M 577.8529773635757 372.248412863182 L 21.188908921377504 372.248412863182 L 22.022187578589296 371.5397327211517 L 577.9778124214107 371.5397327211517 Z" visibility="hidden"></path><path fill="none" d="M 14.795721798177624 54.35290348060545 L 584.2241947715755 54.35290348060545 L 584.3352336444024 54.458836406504275 L 15.664766355597635 54.458836406504275 Z"></path><path fill="none" d="M 21.188908921377504 372.248412863182 L 14.795721798177624 54.35290348060545 L 15.664766355597635 54.458836406504275 L 22.022187578589296 371.5397327211517 Z" visibility="hidden"></path><path fill="none" d="M 584.2241947715755 54.35290348060545 L 577.8529773635757 372.248412863182 L 577.9778124214107 371.5397327211517 L 584.3352336444024 54.458836406504275 Z" visibility="hidden"></path><path fill="none" d="M 15.664766355597635 54.458836406504275 L 584.3352336444024 54.458836406504275 L 577.9778124214107 371.5397327211517 L 22.022187578589296 371.5397327211517 Z"></path><path fill="none" d="M 21.188908921377504 372.248412863182 L 577.8529773635757 372.248412863182 L 584.2241947715755 54.35290348060545 L 14.795721798177624 54.35290348060545 Z" visibility="hidden"></path></g><rect fill="none" class="highcharts-plot-background" x="10" y="53" width="580" height="332"></rect><g class="highcharts-grid highcharts-xaxis-grid" data-z-index="1"></g><g class="highcharts-grid highcharts-zaxis-grid" data-z-index="1"></g><g class="highcharts-grid highcharts-yaxis-grid" data-z-index="1"><path fill="none" stroke-dasharray="none" data-z-index="1" class="highcharts-grid-line" d="M 22.031547619309833 372.0065713963164 L 577.9684523806902 372.0065713963164 M 16.620043879385094 383.4695201167568 L 22.031547619309833 372.0065713963164" opacity="1"></path><path fill="none" stroke-dasharray="none" data-z-index="1" class="highcharts-grid-line" d="M 20.469099821056602 294.0783783542556 L 579.5309001789434 294.0783783542556 M 14.995990563268322 304.08121681294847 L 20.469099821056602 294.0783783542556" opacity="1"></path><path fill="none" stroke-dasharray="none" data-z-index="1" class="highcharts-grid-line" d="M 18.888987839813126 215.2691716466316 L 581.1110121601869 215.2691716466316 M 13.353215018816002 223.77771822160145 L 18.888987839813126 215.2691716466316" opacity="1"></path><path fill="none" stroke-dasharray="none" data-z-index="1" class="highcharts-grid-line" d="M 17.290910420231057 135.56392594909522 L 582.7090895797689 135.56392594909522 M 11.691391621893729 142.54310691728557 L 17.290910420231057 135.56392594909522" opacity="1"></path><path fill="none" stroke-dasharray="none" data-z-index="1" class="highcharts-grid-line" d="M 15.674559417415026 54.94727231625396 L 584.325440582585 54.94727231625396 M 10.010187153161837 60.36109419954113 L 15.674559417415026 54.94727231625396" opacity="1"></path></g><rect fill="none" class="highcharts-plot-border" data-z-index="1" x="10" y="53" width="580" height="332"></rect><g class="highcharts-axis highcharts-xaxis" data-z-index="2"><path fill="none" class="highcharts-axis-line" data-z-index="7" d="M 0 0"></path></g><g class="highcharts-axis highcharts-zaxis" data-z-index="2"><path fill="none" class="highcharts-axis-line" data-z-index="7" d="M 0 0"></path></g><g class="highcharts-axis highcharts-yaxis" data-z-index="2"><path fill="none" class="highcharts-axis-line" data-z-index="7" d="M 0 0"></path></g><g class="highcharts-series-group" data-z-index="3"><g class="highcharts-markers highcharts-series-0 highcharts-pyramid3d-series" transform="translate(10,53) scale(1 1)" visibility="visible" data-z-index="10" opacity="1" clip-path="none"><g stroke-linejoin="round" data-z-index="290102165" class="highcharts-point highcharts-color-0"><path fill="rgb(73,130,185)" d="M 456.0005819293033 275.812405482336 C 479.0563926822417 296.4846389619236 420.17685821865564 317.7458216581889 321.7399754817184 321.84683603638587 C 221.9192775279637 326.0055020380715 130.61776158112767 310.5344276570603 120.0348154282172 288.8433422696316 C 110.21447796476991 268.71531975348034 174.6555397223095 250.80044718618055 262.24190955203517 247.62256899190584 C 348.76547130987103 244.48325244372882 434.56878735879764 256.5962926335791 456.0005819293033 275.812405482336" class="highcharts-3d-bottom" data-z-index="0" opacity="1"></path><g class="highcharts-funnel3d-lower-group" data-z-index="0" filter="url(#group-opacity-1-1)"><path fill="url(#highcharts-fkj8q2x-308)" class="highcharts-3d-frontLower" data-z-index="0" stroke="none" stroke-width="1"></path><path fill="url(#highcharts-fkj8q2x-308)" class="highcharts-3d-backLower" data-z-index="0" stroke="none" stroke-width="1"></path><path fill="url(#highcharts-fkj8q2x-308)" class="highcharts-3d-rightLower" data-z-index="0" stroke="none" stroke-width="1"></path></g><g class="highcharts-funnel3d-upper-group" data-z-index="2" filter="url(#group-opacity-1-1)"><path fill="url(#highcharts-fkj8q2x-307)" d="M 232.87375977807096 112.52445076210876 C 228.09224612111393 107.78105355246853 249.39638949982975 103.35930189066043 280.1897805663485 102.55426334567863 C 310.8505934592513 101.75269082169315 340.5266756168419 104.81125728757151 346.67132642889874 109.47987028958543 L 456.0005819293033 275.812405482336 C 434.56878735879764 256.5962926335791 348.76547130987103 244.48325244372882 262.24190955203517 247.62256899190584 C 174.6555397223095 250.80044718618055 110.21447796476991 268.71531975348034 120.0348154282172 288.8433422696316 Z" class="highcharts-3d-backUpper" data-z-index="1" stroke="none" stroke-width="1"></path><path fill="url(#highcharts-fkj8q2x-307)" d="M 346.67132642889874 109.47987028958543 C 352.97106541999534 114.266316950707 332.30024534088307 118.95195324356996 300.26535989457096 119.82954061730123 C 268.08551365230966 120.71109915442011 237.77693773190674 117.38854240613328 232.87375977807096 112.52445076210876 L 120.0348154282172 288.8433422696316 C 130.61776158112767 310.5344276570603 221.9192775279637 326.0055020380715 321.7399754817184 321.84683603638587 C 420.17685821865564 317.7458216581889 479.0563926822417 296.4846389619236 456.0005819293033 275.812405482336 Z" class="highcharts-3d-frontUpper" data-z-index="2" stroke="none" stroke-width="1"></path><path fill="url(#highcharts-fkj8q2x-307)" d="M 347.12624022192904 112.52445076210876 C 342.22306226809326 117.38854240613328 311.91448634769034 120.71109915442011 279.73464010542904 119.82954061730123 C 247.69975465911693 118.95195324356996 227.0289345800047 114.266316950707 233.32867357110123 109.47987028958543 L 123.99941807069675 275.812405482336 C 100.94360731775825 296.4846389619236 159.8231417813444 317.7458216581889 258.2600245182816 321.84683603638587 C 358.08072247203637 326.0055020380715 449.38223841887236 310.5344276570603 459.9651845717828 288.8433422696316 Z" class="highcharts-3d-rightUpper" data-z-index="2" stroke="none" stroke-width="1"></path></g><path fill="rgb(149,206,255)" d="M 346.67132642889874 109.47987028958543 C 352.97106541999534 114.266316950707 332.30024534088307 118.95195324356996 300.26535989457096 119.82954061730123 C 268.08551365230966 120.71109915442011 237.77693773190674 117.38854240613328 232.87375977807096 112.52445076210876 C 228.09224612111393 107.78105355246853 249.39638949982975 103.35930189066043 280.1897805663485 102.55426334567863 C 310.8505934592513 101.75269082169315 340.5266756168419 104.81125728757151 346.67132642889874 109.47987028958543" class="highcharts-3d-top" data-z-index="3" opacity="1"></path></g><g stroke-linejoin="round" data-z-index="290102624" class="highcharts-point highcharts-color-1"><path fill="rgb(16,16,21)" d="M 346.67132642889874 109.47987028958546 C 352.97106541999534 114.26631695070702 332.30024534088307 118.95195324356999 300.26535989457096 119.82954061730126 C 268.08551365230966 120.71109915442014 237.77693773190674 117.38854240613331 232.87375977807096 112.52445076210878 C 228.09224612111393 107.78105355246856 249.39638949982975 103.35930189066046 280.1897805663485 102.55426334567866 C 310.8505934592513 101.75269082169318 340.5266756168419 104.81125728757154 346.67132642889874 109.47987028958546" class="highcharts-3d-bottom" data-z-index="0" opacity="1"></path><g class="highcharts-funnel3d-lower-group" data-z-index="0" filter="url(#group-opacity-1-1)"><path fill="url(#highcharts-fkj8q2x-310)" class="highcharts-3d-frontLower" data-z-index="0" stroke="none" stroke-width="1"></path><path fill="url(#highcharts-fkj8q2x-310)" class="highcharts-3d-backLower" data-z-index="0" stroke="none" stroke-width="1"></path><path fill="url(#highcharts-fkj8q2x-310)" class="highcharts-3d-rightLower" data-z-index="0" stroke="none" stroke-width="1"></path></g><g class="highcharts-funnel3d-upper-group" data-z-index="2" filter="url(#group-opacity-1-1)"><path fill="url(#highcharts-fkj8q2x-309)" d="M 262.3304875324223 66.49621454445199 C 259.8214618454531 64.46229947699692 270.08720159677847 62.54257259537658 285.1835831509783 62.190563433513034 C 300.2480192639525 61.839299157962216 314.73022798843624 63.17549813083494 317.5623487389786 65.19373631864923 L 346.67132642889874 109.47987028958546 C 340.5266756168419 104.81125728757154 310.8505934592513 101.75269082169318 280.1897805663485 102.55426334567866 C 249.39638949982975 103.35930189066046 228.09224612111393 107.78105355246856 232.87375977807096 112.52445076210878 Z" class="highcharts-3d-backUpper" data-z-index="1" stroke="none" stroke-width="1"></path><path fill="url(#highcharts-fkj8q2x-309)" d="M 317.5623487389786 65.19373631864923 C 320.42901089854 67.23658955535566 310.3123504122662 69.21108877450332 294.92359315129016 69.57815121021619 C 279.50147574766925 69.94600937329078 264.87023376832946 68.55503289914319 262.3304875324223 66.49621454445199 L 232.87375977807096 112.52445076210878 C 237.77693773190674 117.38854240613331 268.08551365230966 120.71109915442014 300.26535989457096 119.82954061730126 C 332.30024534088307 118.95195324356999 352.97106541999534 114.26631695070702 346.67132642889874 109.47987028958546 Z" class="highcharts-3d-frontUpper" data-z-index="2" stroke="none" stroke-width="1"></path><path fill="url(#highcharts-fkj8q2x-309)" d="M 317.6695124675777 66.49621454445199 C 315.12976623167054 68.55503289914319 300.49852425233075 69.94600937329078 285.07640684870984 69.57815121021619 C 269.6876495877338 69.21108877450332 259.57098910146 67.23658955535568 262.4376512610214 65.19373631864923 L 233.32867357110123 109.47987028958546 C 227.0289345800047 114.26631695070702 247.69975465911693 118.95195324356999 279.73464010542904 119.82954061730126 C 311.91448634769034 120.71109915442014 342.22306226809326 117.38854240613331 347.12624022192904 112.52445076210878 Z" class="highcharts-3d-rightUpper" data-z-index="2" stroke="none" stroke-width="1"></path></g><path fill="rgb(92,92,97)" d="M 317.5623487389786 65.19373631864923 C 320.42901089854 67.23658955535566 310.3123504122662 69.21108877450332 294.92359315129016 69.57815121021619 C 279.50147574766925 69.94600937329078 264.87023376832946 68.55503289914319 262.3304875324223 66.49621454445199 C 259.8214618454531 64.46229947699692 270.08720159677847 62.54257259537658 285.1835831509783 62.190563433513034 C 300.2480192639525 61.839299157962216 314.73022798843624 63.17549813083494 317.5623487389786 65.19373631864923" class="highcharts-3d-top" data-z-index="3" opacity="1"></path></g><g stroke-linejoin="round" data-z-index="290102848" class="highcharts-point highcharts-color-2"><path fill="rgb(93,186,74)" d="M 317.56234873897864 65.19373631864926 C 320.42901089854 67.2365895553557 310.31235041226626 69.21108877450335 294.92359315129016 69.57815121021622 C 279.50147574766925 69.94600937329082 264.8702337683294 68.55503289914321 262.33048753242224 66.49621454445202 C 259.8214618454531 64.46229947699695 270.0872015967784 62.54257259537661 285.1835831509783 62.19056343351305 C 300.2480192639525 61.839299157962245 314.7302279884363 63.17549813083497 317.56234873897864 65.19373631864926" class="highcharts-3d-bottom" data-z-index="0" opacity="1"></path><g class="highcharts-funnel3d-lower-group" data-z-index="0" filter="url(#group-opacity-1-1)"><path fill="url(#highcharts-fkj8q2x-312)" class="highcharts-3d-frontLower" data-z-index="0" stroke="none" stroke-width="1"></path><path fill="url(#highcharts-fkj8q2x-312)" class="highcharts-3d-backLower" data-z-index="0" stroke="none" stroke-width="1"></path><path fill="url(#highcharts-fkj8q2x-312)" class="highcharts-3d-rightLower" data-z-index="0" stroke="none" stroke-width="1"></path></g><g class="highcharts-funnel3d-upper-group" data-z-index="2" filter="url(#group-opacity-1-1)"><path fill="url(#highcharts-fkj8q2x-311)" d="M 276.7571578646252 43.95351409847977 C 275.51062864168125 43.042445800200184 280.4108023491984 42.17722321760836 287.6793342952872 42.01800984591503 C 294.94045127104664 41.85895889524919 301.89733011387744 42.463055360235145 303.21824496872443 43.37074727281744 L 317.56234873897864 65.19373631864926 C 314.7302279884363 63.17549813083497 300.2480192639525 61.839299157962245 285.1835831509783 62.19056343351305 C 270.0872015967784 62.54257259537661 259.8214618454531 64.46229947699695 262.33048753242224 66.49621454445202 Z" class="highcharts-3d-backUpper" data-z-index="1" stroke="none" stroke-width="1"></path><path fill="url(#highcharts-fkj8q2x-311)" d="M 303.21824496872443 43.37074727281744 C 304.54686148770764 44.28373153124947 299.6808996556634 45.1606940954977 292.34526353372803 45.32313374901604 C 285.0020569010211 45.48574104323063 278.0109686064049 44.869904342569 276.7571578646252 43.95351409847977 L 262.33048753242224 66.49621454445202 C 264.8702337683294 68.55503289914321 279.50147574766925 69.94600937329082 294.92359315129016 69.57815121021622 C 310.31235041226626 69.21108877450335 320.42901089854 67.2365895553557 317.56234873897864 65.19373631864926 Z" class="highcharts-3d-frontUpper" data-z-index="2" stroke="none" stroke-width="1"></path><path fill="url(#highcharts-fkj8q2x-311)" d="M 303.2428421353748 43.95351409847977 C 301.9890313935951 44.869904342569 294.9979430989789 45.48574104323063 287.65473646627197 45.32313374901604 C 280.3191003443366 45.1606940954977 275.45313851229236 44.28373153124947 276.78175503127557 43.37074727281744 L 262.43765126102136 65.19373631864926 C 259.57098910146 67.2365895553557 269.68764958773374 69.21108877450335 285.07640684870984 69.57815121021622 C 300.49852425233075 69.94600937329082 315.1297662316706 68.55503289914321 317.66951246757776 66.49621454445202 Z" class="highcharts-3d-rightUpper" data-z-index="2" stroke="none" stroke-width="1"></path></g><path fill="rgb(169,255,150)" d="M 303.21824496872443 43.37074727281744 C 304.54686148770764 44.28373153124947 299.6808996556634 45.1606940954977 292.34526353372803 45.32313374901604 C 285.0020569010211 45.48574104323063 278.0109686064049 44.869904342569 276.7571578646252 43.95351409847977 C 275.51062864168125 43.042445800200184 280.4108023491984 42.17722321760836 287.6793342952872 42.01800984591503 C 294.94045127104664 41.85895889524919 301.89733011387744 42.463055360235145 303.21824496872443 43.37074727281744" class="highcharts-3d-top" data-z-index="3" opacity="1"></path></g><g stroke-linejoin="round" data-z-index="290102958" class="highcharts-point highcharts-color-3"><path fill="rgb(196,112,41)" d="M 303.21824496872443 43.37074727281744 C 304.54686148770764 44.28373153124947 299.6808996556634 45.1606940954977 292.34526353372803 45.32313374901604 C 285.0020569010211 45.48574104323063 278.0109686064049 44.869904342569 276.7571578646252 43.95351409847977 C 275.51062864168125 43.042445800200184 280.4108023491984 42.17722321760836 287.6793342952872 42.01800984591503 C 294.94045127104664 41.85895889524919 301.89733011387744 42.463055360235145 303.21824496872443 43.37074727281744" class="highcharts-3d-bottom" data-z-index="0" opacity="1"></path><g class="highcharts-funnel3d-lower-group" data-z-index="0" filter="url(#group-opacity-1-1)"><path fill="url(#highcharts-fkj8q2x-314)" class="highcharts-3d-frontLower" data-z-index="0" stroke="none" stroke-width="1"></path><path fill="url(#highcharts-fkj8q2x-314)" class="highcharts-3d-backLower" data-z-index="0" stroke="none" stroke-width="1"></path><path fill="url(#highcharts-fkj8q2x-314)" class="highcharts-3d-rightLower" data-z-index="0" stroke="none" stroke-width="1"></path></g><g class="highcharts-funnel3d-upper-group" data-z-index="2" filter="url(#group-opacity-1-1)"><path fill="url(#highcharts-fkj8q2x-313)" d="M 283.8493324239082 32.87148595761417 L 288.9185889715667 32.00141367087869 L 296.1453562935114 32.61011875577853 L 303.21824496872443 43.37074727281744 C 301.89733011387744 42.463055360235145 294.94045127104664 41.85895889524919 287.6793342952872 42.01800984591503 C 280.4108023491984 42.17722321760836 275.51062864168125 43.042445800200184 276.7571578646252 43.95351409847977 Z" class="highcharts-3d-backUpper" data-z-index="1" stroke="none" stroke-width="1"></path><path fill="url(#highcharts-fkj8q2x-313)" d="M 296.1453562935114 32.61011875577853 L 291.0867223418965 33.48370934975108 L 283.8493324239082 32.87148595761417 L 276.7571578646252 43.95351409847977 C 278.0109686064049 44.869904342569 285.0020569010211 45.48574104323063 292.34526353372803 45.32313374901604 C 299.6808996556634 45.1606940954977 304.54686148770764 44.28373153124947 303.21824496872443 43.37074727281744 Z" class="highcharts-3d-frontUpper" data-z-index="2" stroke="none" stroke-width="1"></path><path fill="url(#highcharts-fkj8q2x-313)" d="M 296.1506675760918 32.87148595761417 L 288.9132776581035 33.48370934975108 L 283.8546437064886 32.61011875577853 L 276.78175503127557 43.37074727281744 C 275.45313851229236 44.28373153124947 280.3191003443366 45.1606940954977 287.65473646627197 45.32313374901604 C 294.9979430989789 45.48574104323063 301.9890313935951 44.869904342569 303.2428421353748 43.95351409847977 Z" class="highcharts-3d-rightUpper" data-z-index="2" stroke="none" stroke-width="1"></path></g><path fill="rgb(255,188,117)" d="M 296.1453562935114 32.61011875577853 L 291.0867223418965 33.48370934975108 L 283.8493324239082 32.87148595761417 L 288.9185889715667 32.00141367087869 Z" class="highcharts-3d-top" data-z-index="3" opacity="1"></path></g><g stroke-linejoin="round" data-z-index="290103054" class="highcharts-point highcharts-color-4"><path fill="rgb(77,82,182)" d="M 296.1453562935114 32.610118755778586 L 291.0867223418965 33.48370934975114 L 283.8493324239082 32.871485957614226 L 288.9185889715667 32.00141367087875 Z" class="highcharts-3d-bottom" data-z-index="0" opacity="1"></path><g class="highcharts-funnel3d-lower-group" data-z-index="0" filter="url(#group-opacity-1-1)"><path fill="url(#highcharts-fkj8q2x-316)" class="highcharts-3d-frontLower" data-z-index="0" stroke="none" stroke-width="1"></path><path fill="url(#highcharts-fkj8q2x-316)" class="highcharts-3d-backLower" data-z-index="0" stroke="none" stroke-width="1"></path><path fill="url(#highcharts-fkj8q2x-316)" class="highcharts-3d-rightLower" data-z-index="0" stroke="none" stroke-width="1"></path></g><g class="highcharts-funnel3d-upper-group" data-z-index="2" filter="url(#group-opacity-1-1)"><path fill="url(#highcharts-fkj8q2x-315)" d="M 290 23.26062957025414 L 290 23.26062957025414 L 290 23.26062957025414 L 296.1453562935114 32.610118755778586 L 288.9185889715667 32.00141367087875 L 283.8493324239082 32.871485957614226 Z" class="highcharts-3d-backUpper" data-z-index="1" stroke="none" stroke-width="1"></path><path fill="url(#highcharts-fkj8q2x-315)" d="M 290 23.26062957025414 L 290 23.26062957025414 L 290 23.26062957025414 L 283.8493324239082 32.871485957614226 L 291.0867223418965 33.48370934975114 L 296.1453562935114 32.610118755778586 Z" class="highcharts-3d-frontUpper" data-z-index="2" stroke="none" stroke-width="1"></path><path fill="url(#highcharts-fkj8q2x-315)" d="M 290 23.26062957025414 L 290 23.26062957025414 L 290 23.26062957025414 L 283.8546437064886 32.610118755778586 L 288.9132776581035 33.48370934975114 L 296.1506675760918 32.871485957614226 Z" class="highcharts-3d-rightUpper" data-z-index="2" stroke="none" stroke-width="1"></path></g><path fill="rgb(153,158,255)" d="M 290 23.26062957025414 L 290 23.26062957025414 L 290 23.26062957025414 L 290 23.26062957025414 Z" class="highcharts-3d-top" data-z-index="3" opacity="1"></path></g></g></g><text x="300" text-anchor="middle" class="highcharts-title" data-z-index="4" style="color: rgb(51, 51, 51); font-size: 18px; fill: rgb(51, 51, 51);" y="24">3D 金字塔图</text><text x="300" text-anchor="middle" class="highcharts-subtitle" data-z-index="4" style="color: rgb(102, 102, 102); fill: rgb(102, 102, 102);" y="52"></text><text x="10" text-anchor="start" class="highcharts-caption" data-z-index="4" style="color: rgb(102, 102, 102); fill: rgb(102, 102, 102);" y="397"></text><g class="highcharts-legend highcharts-no-tooltip" data-z-index="7"><rect fill="none" class="highcharts-legend-box" rx="0" ry="0" x="0" y="0" width="8" height="8" visibility="hidden"></rect><g data-z-index="1"><g></g></g></g><g class="highcharts-axis-labels highcharts-xaxis-labels" data-z-index="7"></g><g class="highcharts-axis-labels highcharts-zaxis-labels" data-z-index="7"></g><g class="highcharts-axis-labels highcharts-yaxis-labels" data-z-index="7"></g><text x="590" class="highcharts-credits" text-anchor="end" data-z-index="8" y="395" style="cursor: pointer; color: rgb(153, 153, 153); font-size: 9px; fill: rgb(153, 153, 153);">Highcharts.com</text><g stroke-linejoin="round" class="highcharts-3d-frame highcharts-3d-frame-top" data-z-index="1000"><path fill="none" d="M 14.795721798177624 54.35290348060545 L 584.2241947715755 54.35290348060545 L 590 59.86311744164675 L 9.000000000000057 59.86311744164675 Z" visibility="hidden"></path><path fill="none" d="M 10.000000000000057 59.86311744164675 L 590 59.86311744164675 L 584.3352336444024 54.458836406504275 L 15.664766355597635 54.458836406504275 Z" visibility="hidden"></path><path fill="none" d="M 14.795721798177624 54.35290348060545 L 9.000000000000057 59.86311744164675 L 10.000000000000057 59.86311744164675 L 15.664766355597635 54.458836406504275 Z" visibility="hidden"></path><path fill="none" d="M 590 59.86311744164675 L 584.2241947715755 54.35290348060545 L 584.3352336444024 54.458836406504275 L 590 59.86311744164675 Z" visibility="hidden"></path><path fill="none" d="M 9.000000000000057 59.86311744164675 L 590 59.86311744164675 L 590 59.86311744164675 L 10.000000000000057 59.86311744164675 Z" visibility="hidden"></path><path fill="none" d="M 584.2241947715755 54.35290348060545 L 14.795721798177624 54.35290348060545 L 15.664766355597635 54.458836406504275 L 584.3352336444024 54.458836406504275 Z" visibility="hidden"></path></g><g stroke-linejoin="round" class="highcharts-3d-frame highcharts-3d-frame-front" data-z-index="1000"><path fill="none" d="M 15.652632529784057 383.94502138899503 L 583.370228750387 383.94502138899503 L 583.3896841586968 382.99398619792964 L 16.610315841303247 382.99398619792964 Z" visibility="hidden"></path><path fill="none" d="M 590 59.86311744164675 L 9.000000000000057 59.86311744164675 L 10.000000000000057 59.86311744164675 L 590 59.86311744164675 Z" visibility="hidden"></path><path fill="none" d="M 9.000000000000057 59.86311744164675 L 15.652632529784057 383.94502138899503 L 16.610315841303247 382.99398619792964 L 10.000000000000057 59.86311744164675 Z" visibility="hidden"></path><path fill="none" d="M 583.370228750387 383.94502138899503 L 590 59.86311744164675 L 590 59.86311744164675 L 583.3896841586968 382.99398619792964 Z" visibility="hidden"></path><path fill="none" d="M 590 59.86311744164675 L 10.000000000000057 59.86311744164675 L 16.610315841303247 382.99398619792964 L 583.3896841586968 382.99398619792964 Z" visibility="hidden"></path><path fill="none" d="M 583.370228750387 383.94502138899503 L 15.652632529784057 383.94502138899503 L 9.000000000000057 59.86311744164675 L 590 59.86311744164675 Z" visibility="hidden"></path></g></svg>