<?xml version="1.0" standalone="no"?><!DOCTYPE svg PUBLIC "-//W3C//DTD SVG 1.1//EN" "http://www.w3.org/Graphics/SVG/1.1/DTD/svg11.dtd"><svg xmlns:xlink="http://www.w3.org/1999/xlink" version="1.1" class="highcharts-root" style="font-family: &quot;Lucida Grande&quot;, &quot;Lucida Sans Unicode&quot;, Arial, Helvetica, sans-serif; font-size: 12px;" xmlns="http://www.w3.org/2000/svg" width="600" height="500" viewBox="0 0 600 500" role="img" aria-label="3D散点图"><desc>Created with Highcharts 10.1.0</desc><defs><clipPath id="highcharts-5hae8ku-119-"><rect x="-100" y="-100" width="800" height="700" fill="none"></rect></clipPath><clipPath id="highcharts-5hae8ku-220-"><rect x="-100" y="-100" width="800" height="700" fill="none"></rect></clipPath><radialGradient cx="0.4" cy="0.3" r="0.5" id="highcharts-5hae8ku-221"><stop offset="0" stop-color="#7cb5ec" stop-opacity="1"></stop><stop offset="1" stop-color="rgb(73,130,185)" stop-opacity="1"></stop></radialGradient><radialGradient cx="0.4" cy="0.3" r="0.5" id="highcharts-5hae8ku-222"><stop offset="0" stop-color="#434348" stop-opacity="1"></stop><stop offset="1" stop-color="rgb(16,16,21)" stop-opacity="1"></stop></radialGradient><radialGradient cx="0.4" cy="0.3" r="0.5" id="highcharts-5hae8ku-223"><stop offset="0" stop-color="#90ed7d" stop-opacity="1"></stop><stop offset="1" stop-color="rgb(93,186,74)" stop-opacity="1"></stop></radialGradient><radialGradient cx="0.4" cy="0.3" r="0.5" id="highcharts-5hae8ku-224"><stop offset="0" stop-color="#f7a35c" stop-opacity="1"></stop><stop offset="1" stop-color="rgb(196,112,41)" stop-opacity="1"></stop></radialGradient><radialGradient cx="0.4" cy="0.3" r="0.5" id="highcharts-5hae8ku-225"><stop offset="0" stop-color="#8085e9" stop-opacity="1"></stop><stop offset="1" stop-color="rgb(77,82,182)" stop-opacity="1"></stop></radialGradient><radialGradient cx="0.4" cy="0.3" r="0.5" id="highcharts-5hae8ku-226"><stop offset="0" stop-color="#f15c80" stop-opacity="1"></stop><stop offset="1" stop-color="rgb(190,41,77)" stop-opacity="1"></stop></radialGradient><radialGradient cx="0.4" cy="0.3" r="0.5" id="highcharts-5hae8ku-227"><stop offset="0" stop-color="#e4d354" stop-opacity="1"></stop><stop offset="1" stop-color="rgb(177,160,33)" stop-opacity="1"></stop></radialGradient><radialGradient cx="0.4" cy="0.3" r="0.5" id="highcharts-5hae8ku-228"><stop offset="0" stop-color="#2b908f" stop-opacity="1"></stop><stop offset="1" stop-color="rgb(0,93,92)" stop-opacity="1"></stop></radialGradient><radialGradient cx="0.4" cy="0.3" r="0.5" id="highcharts-5hae8ku-229"><stop offset="0" stop-color="#f45b5b" stop-opacity="1"></stop><stop offset="1" stop-color="rgb(193,40,40)" stop-opacity="1"></stop></radialGradient><radialGradient cx="0.4" cy="0.3" r="0.5" id="highcharts-5hae8ku-230"><stop offset="0" stop-color="#91e8e1" stop-opacity="1"></stop><stop offset="1" stop-color="rgb(94,181,174)" stop-opacity="1"></stop></radialGradient></defs><rect fill="#ffffff" class="highcharts-background" x="0" y="0" width="600" height="500" rx="0" ry="0"></rect><g stroke-linejoin="round" class="highcharts-3d-frame highcharts-3d-frame-bottom" data-z-index="-1000"><path fill="rgb(25,25,25)" fill-opacity="0.02" d="M 134.38814831498834 355.04426728235234 L 390.29255469475885 400.7814462427367 L 463.40727193778423 351.77967456168875 L 232.5982089868283 318.1511542643605 Z" visibility="hidden"></path><path fill="rgb(25,25,25)" fill-opacity="0.02" d="M 232.756794166639 317.7615061490484 L 463.18015309593807 351.2761390443809 L 390.3056648032152 400 L 134.91550961445662 354.4655612795353 Z"></path><path fill="rgb(0,0,0)" fill-opacity="0.02" d="M 134.38814831498834 355.04426728235234 L 232.5982089868283 318.1511542643605 L 232.756794166639 317.7615061490484 L 134.91550961445662 354.4655612795353 Z" visibility="hidden"></path><path fill="rgb(0,0,0)" fill-opacity="0.02" d="M 463.40727193778423 351.77967456168875 L 390.29255469475885 400.7814462427367 L 390.3056648032152 400 L 463.18015309593807 351.2761390443809 Z"></path><path fill="rgb(0,0,0)" fill-opacity="0.02" d="M 390.29255469475885 400.7814462427367 L 134.38814831498834 355.04426728235234 L 134.91550961445662 354.4655612795353 L 390.3056648032152 400 Z"></path><path fill="rgb(0,0,0)" fill-opacity="0.02" d="M 232.5982089868283 318.1511542643605 L 463.40727193778423 351.77967456168875 L 463.18015309593807 351.2761390443809 L 232.756794166639 317.7615061490484 Z" visibility="hidden"></path></g><g stroke-linejoin="round" class="highcharts-3d-frame highcharts-3d-frame-left" data-z-index="-1000"><path fill="rgb(25,25,25)" fill-opacity="0.06" d="M 134.38814831498834 355.04426728235234 L 134.91550961445662 354.4655612795353 L 232.756794166639 317.7615061490484 L 232.5982089868283 318.1511542643605 Z" visibility="hidden"></path><path fill="rgb(25,25,25)" fill-opacity="0.06" d="M 230.33320177341685 134.51423767060626 L 230.50267375902942 134.5631781919573 L 128.50155821184973 143.56119781172262 L 127.9346294387538 143.53712218894825 Z"></path><path fill="rgb(0,0,0)" fill-opacity="0.06" d="M 232.5982089868283 318.1511542643605 L 230.33320177341685 134.51423767060626 L 127.9346294387538 143.53712218894825 L 134.38814831498834 355.04426728235234 Z" visibility="hidden"></path><path fill="rgb(0,0,0)" fill-opacity="0.06" d="M 230.50267375902942 134.5631781919573 L 232.756794166639 317.7615061490484 L 134.91550961445662 354.4655612795353 L 128.50155821184973 143.56119781172262 Z"></path><path fill="rgb(0,0,0)" fill-opacity="0.06" d="M 134.38814831498834 355.04426728235234 L 127.9346294387538 143.53712218894825 L 128.50155821184973 143.56119781172262 L 134.91550961445662 354.4655612795353 Z"></path><path fill="rgb(0,0,0)" fill-opacity="0.06" d="M 230.33320177341685 134.51423767060626 L 232.5982089868283 318.1511542643605 L 232.756794166639 317.7615061490484 L 230.50267375902942 134.5631781919573 Z" visibility="hidden"></path></g><g stroke-linejoin="round" class="highcharts-3d-frame highcharts-3d-frame-back" data-z-index="-1000"><path fill="rgb(25,25,25)" fill-opacity="0.04" d="M 463.40727193778423 351.77967456168875 L 232.5982089868283 318.1511542643605 L 232.756794166639 317.7615061490484 L 463.18015309593807 351.2761390443809 Z" visibility="hidden"></path><path fill="rgb(25,25,25)" fill-opacity="0.04" d="M 230.33320177341685 134.51423767060626 L 469.696967488255 142.73493191552802 L 469.4441738822206 142.77562847476645 L 230.50267375902942 134.5631781919573 Z"></path><path fill="rgb(0,0,0)" fill-opacity="0.04" d="M 232.5982089868283 318.1511542643605 L 230.33320177341685 134.51423767060626 L 230.50267375902942 134.5631781919573 L 232.756794166639 317.7615061490484 Z" visibility="hidden"></path><path fill="rgb(0,0,0)" fill-opacity="0.04" d="M 469.696967488255 142.73493191552802 L 463.40727193778423 351.77967456168875 L 463.18015309593807 351.2761390443809 L 469.4441738822206 142.77562847476645 Z"></path><path fill="rgb(0,0,0)" fill-opacity="0.04" d="M 230.50267375902942 134.5631781919573 L 469.4441738822206 142.77562847476645 L 463.18015309593807 351.2761390443809 L 232.756794166639 317.7615061490484 Z"></path><path fill="rgb(0,0,0)" fill-opacity="0.04" d="M 232.5982089868283 318.1511542643605 L 463.40727193778423 351.77967456168875 L 469.696967488255 142.73493191552802 L 230.33320177341685 134.51423767060626 Z" visibility="hidden"></path></g><rect fill="none" class="highcharts-plot-background" x="100" y="100" width="400" height="300"></rect><g class="highcharts-grid highcharts-xaxis-grid" data-z-index="1"><path fill="none" stroke="#e6e6e6" stroke-width="1" stroke-dasharray="none" data-z-index="1" class="highcharts-grid-line" d="M 230.2418929387049 134.55421512141274 L 232.5041249033436 317.7247558922922 M 134.6414611976588 354.4167001915584 L 232.5041249033436 317.7247558922922" opacity="1"></path><path fill="none" stroke="#e6e6e6" stroke-width="1" stroke-dasharray="none" data-z-index="1" class="highcharts-grid-line" d="M 273.04502933816104 136.02536445900205 L 273.94114485127807 323.751690480368 M 179.7571222405415 362.4605353251877 L 273.94114485127807 323.751690480368" opacity="1"></path><path fill="none" stroke="#e6e6e6" stroke-width="1" stroke-dasharray="none" data-z-index="1" class="highcharts-grid-line" d="M 318.13364211668033 137.57506591552388 L 317.51524507795676 330.08945927094294 M 227.57703735875998 370.9865217437284 L 317.51524507795676 330.08945927094294" opacity="1"></path><path fill="none" stroke="#e6e6e6" stroke-width="1" stroke-dasharray="none" data-z-index="1" class="highcharts-grid-line" d="M 365.69580205024045 139.20978350788855 L 363.3961289809111 336.7627452957018 M 278.35186010224595 380.0393493793391 L 363.3961289809111 336.7627452957018" opacity="1"></path><path fill="none" stroke="#e6e6e6" stroke-width="1" stroke-dasharray="none" data-z-index="1" class="highcharts-grid-line" d="M 415.94079690098647 140.93671048356674 L 411.7719564635683 343.7989160494953 M 332.3642085763354 389.66940724090415 L 411.7719564635683 343.7989160494953" opacity="1"></path><path fill="none" stroke="#e6e6e6" stroke-width="1" stroke-dasharray="none" data-z-index="1" class="highcharts-grid-line" d="M 469.78626165328666 142.78738607573064 L 463.50849773871084 351.32389613904706 M 390.6775541096732 400.06630549569616 L 463.50849773871084 351.32389613904706" opacity="1"></path></g><g class="highcharts-grid highcharts-zaxis-grid" data-z-index="1"><path fill="none" stroke="#e6e6e6" stroke-width="1" stroke-dasharray="none" data-z-index="1" class="highcharts-grid-line" d="M 128.26504045434916 143.5820622053226 L 134.68980440101785 354.55023204643305 M 134.68980440101785 354.55023204643305 L 390.1338702288615 400.1148618007459" opacity="1"></path><path fill="none" stroke="#e6e6e6" stroke-width="1" stroke-dasharray="none" data-z-index="1" class="highcharts-grid-line" d="M 183.0555309135608 138.74872381011144 L 187.11940377904833 334.8818587738578 M 187.11940377904833 334.8818587738578 L 429.5802955514384 373.7409936935255" opacity="1"></path><path fill="none" stroke="#e6e6e6" stroke-width="1" stroke-dasharray="none" data-z-index="1" class="highcharts-grid-line" d="M 230.6786382634066 134.5476554983644 L 232.92645452432535 317.6978599781045 M 232.92645452432535 317.6978599781045 L 463.3038119056648 351.1934608013878" opacity="1"></path></g><g class="highcharts-grid highcharts-yaxis-grid" data-z-index="1"><path fill="none" stroke="#e6e6e6" stroke-width="1" stroke-dasharray="none" data-z-index="1" class="highcharts-grid-line" d="M 232.760428984874 318.05691744155894 L 463.1700996284512 351.6107728483722 M 134.9257990947515 354.803901275552 L 232.760428984874 318.05691744155894" opacity="1"></path><path fill="none" stroke="#e6e6e6" stroke-width="1" stroke-dasharray="none" data-z-index="1" class="highcharts-grid-line" d="M 232.32142675270197 282.37804481707497 L 464.3854264994679 311.1581176351502 M 133.68183427290666 313.89969223821646 L 232.32142675270197 282.37804481707497" opacity="1"></path><path fill="none" stroke="#e6e6e6" stroke-width="1" stroke-dasharray="none" data-z-index="1" class="highcharts-grid-line" d="M 231.87665442116207 246.2302209543336 L 465.6189932701586 270.09833985249037 M 132.41897857334615 272.37431096400604 L 231.87665442116207 246.2302209543336" opacity="1"></path><path fill="none" stroke="#e6e6e6" stroke-width="1" stroke-dasharray="none" data-z-index="1" class="highcharts-grid-line" d="M 231.42599747729304 209.6041390820631 L 466.87121366797044 228.41766841199745 M 131.13679838773734 230.2134994887338 L 231.42599747729304 209.6041390820631" opacity="1"></path><path fill="none" stroke="#e6e6e6" stroke-width="1" stroke-dasharray="none" data-z-index="1" class="highcharts-grid-line" d="M 230.96933835780027 172.49024452034894 L 468.1425140282017 186.101912567763 M 129.8348467350985 187.40256012706905 L 230.96933835780027 172.49024452034894" opacity="1"></path><path fill="none" stroke="#e6e6e6" stroke-width="1" stroke-dasharray="none" data-z-index="1" class="highcharts-grid-line" d="M 230.49879073738654 134.24759475196237 L 469.45501537364896 142.41476496947632 M 128.49045224320477 143.196009942228 L 230.49879073738654 134.24759475196237" opacity="1"></path></g><rect fill="none" class="highcharts-plot-border" data-z-index="1" x="100" y="100" width="400" height="300"></rect><g class="highcharts-axis highcharts-xaxis" data-z-index="2"><path fill="none" class="highcharts-axis-line" stroke="#ccd6eb" stroke-width="1" data-z-index="7" d="M 0 0"></path></g><g class="highcharts-axis highcharts-zaxis" data-z-index="2"><path fill="none" class="highcharts-axis-line" data-z-index="7" d="M 0 0"></path></g><g class="highcharts-axis highcharts-yaxis" data-z-index="2"><path fill="none" class="highcharts-axis-line" data-z-index="7" d="M 0 0"></path></g><g class="highcharts-series-group" data-z-index="3"><g class="highcharts-series highcharts-series-0 highcharts-scatter3d-series" data-z-index="0.1" opacity="1" transform="translate(100,100) scale(1 1)" clip-path="url(#highcharts-5hae8ku-220-)"></g><g class="highcharts-markers highcharts-series-0 highcharts-scatter3d-series" data-z-index="0.1" opacity="1" transform="translate(100,100) scale(1 1)" clip-path="none"><path fill="url(#highcharts-5hae8ku-227)" d="M 123 152 A 4 4 0 1 1 123.00399999933333 151.99999800000018 Z" opacity="1" data-z-index="1229.9148352169884" class="highcharts-point highcharts-color-6"></path><path fill="url(#highcharts-5hae8ku-230)" d="M 105 213 A 4 4 0 1 1 105.00399999933333 212.99999800000018 Z" opacity="1" data-z-index="1253.5327147279968" class="highcharts-point highcharts-color-9"></path><path fill="url(#highcharts-5hae8ku-224)" d="M 187 140 A 4 4 0 1 1 187.00399999933333 139.99999800000018 Z" opacity="1" data-z-index="1277.8339052028339" class="highcharts-point highcharts-color-3"></path><path fill="url(#highcharts-5hae8ku-228)" d="M 187 140 A 4 4 0 1 1 187.00399999933333 139.99999800000018 Z" opacity="1" data-z-index="1277.8339052028339" class="highcharts-point highcharts-color-7"></path><path fill="url(#highcharts-5hae8ku-222)" d="M 148 181 A 4 4 0 1 1 148.00399999933333 180.99999800000018 Z" opacity="1" data-z-index="1288.7936056124715" class="highcharts-point highcharts-color-1"></path><path fill="url(#highcharts-5hae8ku-222)" d="M 86 220 A 4 4 0 1 1 86.00399999933333 219.99999800000018 Z" opacity="1" data-z-index="1288.5359197612636" class="highcharts-point highcharts-color-1"></path><path fill="url(#highcharts-5hae8ku-228)" d="M 179 161 A 4 4 0 1 1 179.00399999933333 160.99999800000018 Z" opacity="1" data-z-index="1290.4580827225377" class="highcharts-point highcharts-color-7"></path><path fill="url(#highcharts-5hae8ku-226)" d="M 170 222 A 4 4 0 1 1 170.00399999933333 221.99999800000018 Z" opacity="1" data-z-index="1296.8491819507217" class="highcharts-point highcharts-color-5"></path><path fill="url(#highcharts-5hae8ku-226)" d="M 139 223 A 4 4 0 1 1 139.00399999933333 222.99999800000018 Z" opacity="1" data-z-index="1299.2061606962345" class="highcharts-point highcharts-color-5"></path><path fill="url(#highcharts-5hae8ku-230)" d="M 139 203 A 4 4 0 1 1 139.00399999933333 202.99999800000018 Z" opacity="1" data-z-index="1302.394752285909" class="highcharts-point highcharts-color-9"></path><path fill="url(#highcharts-5hae8ku-226)" d="M 178 83 A 4 4 0 1 1 178.00399999933333 82.99999800000016 Z" opacity="1" data-z-index="1308.6445904331267" class="highcharts-point highcharts-color-5"></path><path fill="url(#highcharts-5hae8ku-230)" d="M 76 204 A 4 4 0 1 1 76.00399999933333 203.99999800000018 Z" opacity="1" data-z-index="1309.3676681517816" class="highcharts-point highcharts-color-9"></path><path fill="url(#highcharts-5hae8ku-225)" d="M 193 226 A 4 4 0 1 1 193.00399999933333 225.99999800000018 Z" opacity="1" data-z-index="1312.0600365631128" class="highcharts-point highcharts-color-4"></path><path fill="url(#highcharts-5hae8ku-229)" d="M 178 63 A 4 4 0 1 1 178.00399999933333 62.99999800000017 Z" opacity="1" data-z-index="1313.9447549104557" class="highcharts-point highcharts-color-8"></path><path fill="url(#highcharts-5hae8ku-229)" d="M 161 226 A 4 4 0 1 1 161.00399999933333 225.99999800000018 Z" opacity="1" data-z-index="1313.8764167806607" class="highcharts-point highcharts-color-8"></path><path fill="url(#highcharts-5hae8ku-224)" d="M 201 124 A 4 4 0 1 1 201.00399999933333 123.99999800000016 Z" opacity="1" data-z-index="1314.108889183314" class="highcharts-point highcharts-color-3"></path><path fill="url(#highcharts-5hae8ku-223)" d="M 98 227 A 4 4 0 1 1 98.00399999933333 226.99999800000018 Z" opacity="1" data-z-index="1319.7910298491583" class="highcharts-point highcharts-color-2"></path><path fill="url(#highcharts-5hae8ku-229)" d="M 170 104 A 4 4 0 1 1 170.00399999933333 103.99999800000016 Z" opacity="1" data-z-index="1320.3756474683107" class="highcharts-point highcharts-color-8"></path><path fill="url(#highcharts-5hae8ku-221)" d="M 106 125 A 4 4 0 1 1 106.00399999933333 124.99999800000016 Z" opacity="1" data-z-index="1321.2016830646285" class="highcharts-point highcharts-color-0"></path><path fill="url(#highcharts-5hae8ku-223)" d="M 233 84 A 4 4 0 1 1 233.00399999933333 83.99999800000016 Z" opacity="1" data-z-index="1322.919307169921" class="highcharts-point highcharts-color-2"></path><path fill="url(#highcharts-5hae8ku-221)" d="M 129 187 A 4 4 0 1 1 129.00399999933333 186.99999800000018 Z" opacity="1" data-z-index="1323.0239456384923" class="highcharts-point highcharts-color-0"></path><path fill="url(#highcharts-5hae8ku-226)" d="M 170 84 A 4 4 0 1 1 170.00399999933333 83.99999800000016 Z" opacity="1" data-z-index="1325.3489592107223" class="highcharts-point highcharts-color-5"></path><path fill="url(#highcharts-5hae8ku-223)" d="M 97 187 A 4 4 0 1 1 97.00399999933333 186.99999800000018 Z" opacity="1" data-z-index="1326.3735302141502" class="highcharts-point highcharts-color-2"></path><path fill="url(#highcharts-5hae8ku-221)" d="M 138 84 A 4 4 0 1 1 138.00399999933333 83.99999800000016 Z" opacity="1" data-z-index="1327.7168230351313" class="highcharts-point highcharts-color-0"></path><path fill="url(#highcharts-5hae8ku-226)" d="M 281 209 A 4 4 0 1 1 281.00399999933336 208.99999800000018 Z" opacity="1" data-z-index="1330.5785825115242" class="highcharts-point highcharts-color-5"></path><path fill="url(#highcharts-5hae8ku-228)" d="M 193 126 A 4 4 0 1 1 193.00399999933333 125.99999800000016 Z" opacity="1" data-z-index="1330.7146892429541" class="highcharts-point highcharts-color-7"></path><path fill="url(#highcharts-5hae8ku-227)" d="M 193 126 A 4 4 0 1 1 193.00399999933333 125.99999800000016 Z" opacity="1" data-z-index="1330.7146892429541" class="highcharts-point highcharts-color-6"></path><path fill="url(#highcharts-5hae8ku-223)" d="M 249 169 A 4 4 0 1 1 249.00399999933333 168.99999800000018 Z" opacity="1" data-z-index="1337.3796959468423" class="highcharts-point highcharts-color-2"></path><path fill="url(#highcharts-5hae8ku-223)" d="M 258 65 A 4 4 0 1 1 258.00399999933336 64.99999800000016 Z" opacity="1" data-z-index="1344.2929665795166" class="highcharts-point highcharts-color-2"></path><path fill="url(#highcharts-5hae8ku-223)" d="M 258 65 A 4 4 0 1 1 258.00399999933336 64.99999800000016 Z" opacity="1" data-z-index="1344.2929665795166" class="highcharts-point highcharts-color-2"></path><path fill="url(#highcharts-5hae8ku-228)" d="M 193 65 A 4 4 0 1 1 193.00399999933333 64.99999800000016 Z" opacity="1" data-z-index="1345.5697991859658" class="highcharts-point highcharts-color-7"></path><path fill="url(#highcharts-5hae8ku-229)" d="M 160 65 A 4 4 0 1 1 160.00399999933333 64.99999800000016 Z" opacity="1" data-z-index="1347.3819946031635" class="highcharts-point highcharts-color-8"></path><path fill="url(#highcharts-5hae8ku-230)" d="M 152 129 A 4 4 0 1 1 152.00399999933333 128.99999800000018 Z" opacity="1" data-z-index="1349.4108142021591" class="highcharts-point highcharts-color-9"></path><path fill="url(#highcharts-5hae8ku-225)" d="M 217 108 A 4 4 0 1 1 217.00399999933333 107.99999800000016 Z" opacity="1" data-z-index="1350.7506784889022" class="highcharts-point highcharts-color-4"></path><path fill="url(#highcharts-5hae8ku-225)" d="M 282 108 A 4 4 0 1 1 282.00399999933336 107.99999800000016 Z" opacity="1" data-z-index="1350.63577288669" class="highcharts-point highcharts-color-4"></path><path fill="url(#highcharts-5hae8ku-222)" d="M 110 234 A 4 4 0 1 1 110.00399999933333 233.99999800000018 Z" opacity="1" data-z-index="1351.1938690617499" class="highcharts-point highcharts-color-1"></path><path fill="url(#highcharts-5hae8ku-228)" d="M 110 193 A 4 4 0 1 1 110.00399999933333 192.99999800000018 Z" opacity="1" data-z-index="1357.566122913956" class="highcharts-point highcharts-color-7"></path><path fill="url(#highcharts-5hae8ku-222)" d="M 110 193 A 4 4 0 1 1 110.00399999933333 192.99999800000018 Z" opacity="1" data-z-index="1357.566122913956" class="highcharts-point highcharts-color-1"></path><path fill="url(#highcharts-5hae8ku-227)" d="M 53 129 A 4 4 0 1 1 53.00399999933334 128.99999800000018 Z" opacity="1" data-z-index="1360.252988667305" class="highcharts-point highcharts-color-6"></path><path fill="url(#highcharts-5hae8ku-225)" d="M 232 236 A 4 4 0 1 1 232.00399999933333 235.99999800000018 Z" opacity="1" data-z-index="1360.3588327897446" class="highcharts-point highcharts-color-4"></path><path fill="url(#highcharts-5hae8ku-221)" d="M 241 130 A 4 4 0 1 1 241.00399999933333 129.99999800000018 Z" opacity="1" data-z-index="1362.000477989771" class="highcharts-point highcharts-color-0"></path><path fill="url(#highcharts-5hae8ku-223)" d="M 265 216 A 4 4 0 1 1 265.00399999933336 215.99999800000018 Z" opacity="1" data-z-index="1363.2588357195586" class="highcharts-point highcharts-color-2"></path><path fill="url(#highcharts-5hae8ku-222)" d="M 307 109 A 4 4 0 1 1 307.00399999933336 108.99999800000016 Z" opacity="1" data-z-index="1367.6857779431625" class="highcharts-point highcharts-color-1"></path><path fill="url(#highcharts-5hae8ku-225)" d="M 308 88 A 4 4 0 1 1 308.00399999933336 87.99999800000016 Z" opacity="1" data-z-index="1372.6119361431392" class="highcharts-point highcharts-color-4"></path><path fill="url(#highcharts-5hae8ku-226)" d="M 108 110 A 4 4 0 1 1 108.00399999933333 109.99999800000016 Z" opacity="1" data-z-index="1374.0179161494214" class="highcharts-point highcharts-color-5"></path><path fill="url(#highcharts-5hae8ku-227)" d="M 166 154 A 4 4 0 1 1 166.00399999933333 153.99999800000018 Z" opacity="1" data-z-index="1376.6760385805758" class="highcharts-point highcharts-color-6"></path><path fill="url(#highcharts-5hae8ku-228)" d="M 308 67 A 4 4 0 1 1 308.00399999933336 66.99999800000016 Z" opacity="1" data-z-index="1377.8619912086679" class="highcharts-point highcharts-color-7"></path><path fill="url(#highcharts-5hae8ku-229)" d="M 132 154 A 4 4 0 1 1 132.00399999933333 153.99999800000018 Z" opacity="1" data-z-index="1379.168408115013" class="highcharts-point highcharts-color-8"></path><path fill="url(#highcharts-5hae8ku-226)" d="M 224 220 A 4 4 0 1 1 224.00399999933333 219.99999800000018 Z" opacity="1" data-z-index="1379.9527030117342" class="highcharts-point highcharts-color-5"></path><path fill="url(#highcharts-5hae8ku-226)" d="M 124 262 A 4 4 0 1 1 124.00399999933333 261.9999980000002 Z" opacity="1" data-z-index="1380.146282118987" class="highcharts-point highcharts-color-5"></path><path fill="url(#highcharts-5hae8ku-224)" d="M 90 241 A 4 4 0 1 1 90.00399999933333 240.99999800000018 Z" opacity="1" data-z-index="1386.2967765771393" class="highcharts-point highcharts-color-3"></path><path fill="url(#highcharts-5hae8ku-230)" d="M 74 68 A 4 4 0 1 1 74.00399999933333 67.99999800000016 Z" opacity="1" data-z-index="1388.0619779322851" class="highcharts-point highcharts-color-9"></path><path fill="url(#highcharts-5hae8ku-227)" d="M 249 265 A 4 4 0 1 1 249.00399999933333 264.9999980000002 Z" opacity="1" data-z-index="1390.7262200608952" class="highcharts-point highcharts-color-6"></path><path fill="url(#highcharts-5hae8ku-228)" d="M 334 90 A 4 4 0 1 1 334.00399999933336 89.99999800000016 Z" opacity="1" data-z-index="1390.1490355157005" class="highcharts-point highcharts-color-7"></path><path fill="url(#highcharts-5hae8ku-225)" d="M 132 91 A 4 4 0 1 1 132.00399999933333 90.99999800000016 Z" opacity="1" data-z-index="1392.8302502087513" class="highcharts-point highcharts-color-4"></path><path fill="url(#highcharts-5hae8ku-226)" d="M 233 69 A 4 4 0 1 1 233.00399999933333 68.99999800000016 Z" opacity="1" data-z-index="1393.0188599871622" class="highcharts-point highcharts-color-5"></path><path fill="url(#highcharts-5hae8ku-221)" d="M 165 69 A 4 4 0 1 1 165.00399999933333 68.99999800000016 Z" opacity="1" data-z-index="1395.5400016964609" class="highcharts-point highcharts-color-0"></path><path fill="url(#highcharts-5hae8ku-224)" d="M 30 113 A 4 4 0 1 1 30.003999999333335 112.99999800000016 Z" opacity="1" data-z-index="1400.3921688377075" class="highcharts-point highcharts-color-3"></path><path fill="url(#highcharts-5hae8ku-228)" d="M 122 136 A 4 4 0 1 1 122.00399999933333 135.99999800000018 Z" opacity="1" data-z-index="1400.5062236736317" class="highcharts-point highcharts-color-7"></path><path fill="url(#highcharts-5hae8ku-230)" d="M 225 92 A 4 4 0 1 1 225.00399999933333 91.99999800000016 Z" opacity="1" data-z-index="1404.1664835477948" class="highcharts-point highcharts-color-9"></path><path fill="url(#highcharts-5hae8ku-229)" d="M 88 136 A 4 4 0 1 1 88.00399999933333 135.99999800000018 Z" opacity="1" data-z-index="1404.0848992588205" class="highcharts-point highcharts-color-8"></path><path fill="url(#highcharts-5hae8ku-227)" d="M 293 92 A 4 4 0 1 1 293.00399999933336 91.99999800000016 Z" opacity="1" data-z-index="1404.5428669954802" class="highcharts-point highcharts-color-6"></path><path fill="url(#highcharts-5hae8ku-230)" d="M 181 181 A 4 4 0 1 1 181.00399999933333 180.99999800000018 Z" opacity="1" data-z-index="1404.5944521157514" class="highcharts-point highcharts-color-9"></path><path fill="url(#highcharts-5hae8ku-227)" d="M 147 181 A 4 4 0 1 1 147.00399999933333 180.99999800000018 Z" opacity="1" data-z-index="1406.7360189704905" class="highcharts-point highcharts-color-6"></path><path fill="url(#highcharts-5hae8ku-221)" d="M 225 70 A 4 4 0 1 1 225.00399999933333 69.99999800000016 Z" opacity="1" data-z-index="1409.3601647176251" class="highcharts-point highcharts-color-0"></path><path fill="url(#highcharts-5hae8ku-221)" d="M 250 137 A 4 4 0 1 1 250.00399999933333 136.99999800000018 Z" opacity="1" data-z-index="1410.822534806653" class="highcharts-point highcharts-color-0"></path><path fill="url(#highcharts-5hae8ku-230)" d="M 207 248 A 4 4 0 1 1 207.00399999933333 247.99999800000018 Z" opacity="1" data-z-index="1410.5773527072033" class="highcharts-point highcharts-color-9"></path><path fill="url(#highcharts-5hae8ku-221)" d="M 172 249 A 4 4 0 1 1 172.00399999933333 248.99999800000018 Z" opacity="1" data-z-index="1412.1145524126484" class="highcharts-point highcharts-color-0"></path><path fill="url(#highcharts-5hae8ku-222)" d="M 137 249 A 4 4 0 1 1 137.00399999933333 248.99999800000018 Z" opacity="1" data-z-index="1414.4978209662277" class="highcharts-point highcharts-color-1"></path><path fill="url(#highcharts-5hae8ku-229)" d="M 172 184 A 4 4 0 1 1 172.00399999933333 183.99999800000018 Z" opacity="1" data-z-index="1421.4506495251187" class="highcharts-point highcharts-color-8"></path><path fill="url(#highcharts-5hae8ku-224)" d="M 172 184 A 4 4 0 1 1 172.00399999933333 183.99999800000018 Z" opacity="1" data-z-index="1421.4506495251187" class="highcharts-point highcharts-color-3"></path><path fill="url(#highcharts-5hae8ku-222)" d="M 146 94 A 4 4 0 1 1 146.00399999933333 93.99999800000016 Z" opacity="1" data-z-index="1424.0174938231426" class="highcharts-point highcharts-color-1"></path><path fill="url(#highcharts-5hae8ku-225)" d="M 251 71 A 4 4 0 1 1 251.00399999933333 70.99999800000016 Z" opacity="1" data-z-index="1425.3280756271256" class="highcharts-point highcharts-color-4"></path><path fill="url(#highcharts-5hae8ku-221)" d="M 197 274 A 4 4 0 1 1 197.00399999933333 273.9999980000002 Z" opacity="1" data-z-index="1425.0556771597" class="highcharts-point highcharts-color-0"></path><path fill="url(#highcharts-5hae8ku-224)" d="M 197 274 A 4 4 0 1 1 197.00399999933333 273.9999980000002 Z" opacity="1" data-z-index="1425.0556771597" class="highcharts-point highcharts-color-3"></path><path fill="url(#highcharts-5hae8ku-229)" d="M 102 185 A 4 4 0 1 1 102.00399999933333 184.99999800000018 Z" opacity="1" data-z-index="1427.0895633294358" class="highcharts-point highcharts-color-8"></path><path fill="url(#highcharts-5hae8ku-222)" d="M 321 71 A 4 4 0 1 1 321.00399999933336 70.99999800000016 Z" opacity="1" data-z-index="1427.025331768879" class="highcharts-point highcharts-color-1"></path><path fill="url(#highcharts-5hae8ku-227)" d="M 268 209 A 4 4 0 1 1 268.00399999933336 208.99999800000018 Z" opacity="1" data-z-index="1432.3060855886258" class="highcharts-point highcharts-color-6"></path><path fill="url(#highcharts-5hae8ku-225)" d="M 312 117 A 4 4 0 1 1 312.00399999933336 116.99999800000016 Z" opacity="1" data-z-index="1432.8894881591746" class="highcharts-point highcharts-color-4"></path><path fill="url(#highcharts-5hae8ku-223)" d="M 207 118 A 4 4 0 1 1 207.00399999933333 117.99999800000016 Z" opacity="1" data-z-index="1432.2569420424072" class="highcharts-point highcharts-color-2"></path><path fill="url(#highcharts-5hae8ku-230)" d="M 127 210 A 4 4 0 1 1 127.00399999933333 209.99999800000018 Z" opacity="1" data-z-index="1437.6431071110799" class="highcharts-point highcharts-color-9"></path><path fill="url(#highcharts-5hae8ku-221)" d="M 207 96 A 4 4 0 1 1 207.00399999933333 95.99999800000016 Z" opacity="1" data-z-index="1437.056600491829" class="highcharts-point highcharts-color-0"></path><path fill="url(#highcharts-5hae8ku-222)" d="M 294 256 A 4 4 0 1 1 294.00399999933336 255.99999800000018 Z" opacity="1" data-z-index="1443.6247985802413" class="highcharts-point highcharts-color-1"></path><path fill="url(#highcharts-5hae8ku-222)" d="M 188 213 A 4 4 0 1 1 188.00399999933333 212.99999800000018 Z" opacity="1" data-z-index="1450.0570859355137" class="highcharts-point highcharts-color-1"></path><path fill="url(#highcharts-5hae8ku-224)" d="M 260 190 A 4 4 0 1 1 260.00399999933336 189.99999800000018 Z" opacity="1" data-z-index="1452.0343685597934" class="highcharts-point highcharts-color-3"></path><path fill="url(#highcharts-5hae8ku-228)" d="M 151 168 A 4 4 0 1 1 151.00399999933333 167.99999800000018 Z" opacity="1" data-z-index="1459.0680325371152" class="highcharts-point highcharts-color-7"></path><path fill="url(#highcharts-5hae8ku-223)" d="M 297 122 A 4 4 0 1 1 297.00399999933336 121.99999800000016 Z" opacity="1" data-z-index="1464.8432926495495" class="highcharts-point highcharts-color-2"></path><path fill="url(#highcharts-5hae8ku-224)" d="M 251 216 A 4 4 0 1 1 251.00399999933333 215.99999800000018 Z" opacity="1" data-z-index="1465.138601940456" class="highcharts-point highcharts-color-3"></path><path fill="url(#highcharts-5hae8ku-228)" d="M 188 99 A 4 4 0 1 1 188.00399999933333 98.99999800000016 Z" opacity="1" data-z-index="1470.1932998536668" class="highcharts-point highcharts-color-7"></path><path fill="url(#highcharts-5hae8ku-224)" d="M 261 76 A 4 4 0 1 1 261.00399999933336 75.99999800000016 Z" opacity="1" data-z-index="1474.0151947569736" class="highcharts-point highcharts-color-3"></path><path fill="url(#highcharts-5hae8ku-229)" d="M 188 76 A 4 4 0 1 1 188.00399999933333 75.99999800000016 Z" opacity="1" data-z-index="1475.302278910642" class="highcharts-point highcharts-color-8"></path><path fill="url(#highcharts-5hae8ku-229)" d="M 251 148 A 4 4 0 1 1 251.00399999933333 147.99999800000018 Z" opacity="1" data-z-index="1476.0329990838209" class="highcharts-point highcharts-color-8"></path><path fill="url(#highcharts-5hae8ku-230)" d="M 252 78 A 4 4 0 1 1 252.00399999933333 77.99999800000016 Z" opacity="1" data-z-index="1490.1958042974506" class="highcharts-point highcharts-color-9"></path><path fill="url(#highcharts-5hae8ku-227)" d="M 232 294 A 4 4 0 1 1 232.00399999933333 293.9999980000002 Z" opacity="1" data-z-index="1490.914667420286" class="highcharts-point highcharts-color-6"></path><path fill="url(#highcharts-5hae8ku-224)" d="M 205 127 A 4 4 0 1 1 205.00399999933333 126.99999800000016 Z" opacity="1" data-z-index="1497.3279553630198" class="highcharts-point highcharts-color-3"></path><path fill="url(#highcharts-5hae8ku-223)" d="M 270 224 A 4 4 0 1 1 270.00399999933336 223.99999800000018 Z" opacity="1" data-z-index="1498.2438748290517" class="highcharts-point highcharts-color-2"></path><path fill="url(#highcharts-5hae8ku-226)" d="M 271 201 A 4 4 0 1 1 271.00399999933336 200.99999800000018 Z" opacity="1" data-z-index="1501.4018583925115" class="highcharts-point highcharts-color-5"></path><path fill="url(#highcharts-5hae8ku-225)" d="M 271 154 A 4 4 0 1 1 271.00399999933336 153.99999800000018 Z" opacity="1" data-z-index="1508.8205347661544" class="highcharts-point highcharts-color-4"></path><path fill="url(#highcharts-5hae8ku-225)" d="M 261 276 A 4 4 0 1 1 261.00399999933336 275.9999980000002 Z" opacity="1" data-z-index="1509.5841440963447" class="highcharts-point highcharts-color-4"></path><path fill="url(#highcharts-5hae8ku-227)" d="M 263 83 A 4 4 0 1 1 263.00399999933336 82.99999800000016 Z" opacity="1" data-z-index="1538.9229337757845" class="highcharts-point highcharts-color-6"></path></g></g><text x="300" text-anchor="middle" class="highcharts-title" data-z-index="4" style="color: rgb(51, 51, 51); font-size: 18px; fill: rgb(51, 51, 51);" y="24">3D散点图</text><text x="300" text-anchor="middle" class="highcharts-subtitle" data-z-index="4" style="color: rgb(102, 102, 102); fill: rgb(102, 102, 102);" y="52"></text><text x="10" text-anchor="start" class="highcharts-caption" data-z-index="4" style="color: rgb(102, 102, 102); fill: rgb(102, 102, 102);" y="497"></text><g class="highcharts-axis-labels highcharts-xaxis-labels" data-z-index="7"><text x="134.91550961445662" text-anchor="middle" transform="translate(0,0)" style="color: rgb(102, 102, 102); cursor: default; font-size: 11px; fill: rgb(102, 102, 102);" y="367.7728913856712" z="138.98548841320576" opacity="1">0</text><text x="180.04735279584753" text-anchor="middle" transform="translate(0,0)" style="color: rgb(102, 102, 102); cursor: default; font-size: 11px; fill: rgb(102, 102, 102);" y="376.20690091881" z="108.24117740657822" opacity="1">2</text><text x="227.88492683882896" text-anchor="middle" transform="translate(0,0)" style="color: rgb(102, 102, 102); cursor: default; font-size: 11px; fill: rgb(102, 102, 102);" y="385.1465436872023" z="77.49686639995068" opacity="1">4</text><text x="278.679070611901" text-anchor="middle" transform="translate(0,0)" style="color: rgb(102, 102, 102); cursor: default; font-size: 11px; fill: rgb(102, 102, 102);" y="394.6386951840494" z="46.75255539332312" opacity="1">6</text><text x="332.7126175468491" text-anchor="middle" transform="translate(0,0)" style="color: rgb(102, 102, 102); cursor: default; font-size: 11px; fill: rgb(102, 102, 102);" y="404.7362098839711" z="16.008244386695594" opacity="1">8</text><text x="390.30566480321517" text-anchor="middle" transform="translate(0,0)" style="color: rgb(102, 102, 102); cursor: default; font-size: 11px; fill: rgb(102, 102, 102);" y="415.49890591768826" z="-14.736066619931961" opacity="1">10</text></g><g class="highcharts-axis-labels highcharts-zaxis-labels" data-z-index="7"><text x="390.30566480321517" text-anchor="middle" transform="translate(0,0)" style="color: rgb(102, 102, 102); cursor: default; font-size: 11px; fill: rgb(102, 102, 102);" y="415.49890591768826" z="-14.736066619931961" opacity="1">0</text><text x="429.72511562426496" text-anchor="middle" transform="translate(0,0)" style="color: rgb(102, 102, 102); cursor: default; font-size: 11px; fill: rgb(102, 102, 102);" y="387.87456481738985" z="68.46816573503362" opacity="1">5</text><text x="463.18015309593807" text-anchor="middle" transform="translate(0,0)" style="color: rgb(102, 102, 102); cursor: default; font-size: 11px; fill: rgb(102, 102, 102);" y="364.42996202887855" z="151.6723980899992" opacity="1">10</text></g><g class="highcharts-axis-labels highcharts-yaxis-labels" data-z-index="7"><text x="124.49723883307297" text-anchor="end" transform="translate(0,0)" style="color: rgb(102, 102, 102); cursor: default; font-size: 11px; fill: rgb(102, 102, 102);" y="357.1711008207846" z="139.52759356658183" opacity="1">0</text><text x="123.17526767401901" text-anchor="end" transform="translate(0,0)" style="color: rgb(102, 102, 102); cursor: default; font-size: 11px; fill: rgb(102, 102, 102);" y="316.3026957612416" z="131.39601626594083" opacity="1">2</text><text x="121.8332299192711" text-anchor="end" transform="translate(0,0)" style="color: rgb(102, 102, 102); cursor: default; font-size: 11px; fill: rgb(102, 102, 102);" y="274.81393695542374" z="123.26443896529983" opacity="1">4</text><text x="120.47066517934587" text-anchor="end" transform="translate(0,0)" style="color: rgb(102, 102, 102); cursor: default; font-size: 11px; fill: rgb(102, 102, 102);" y="232.69059157853587" z="115.13286166465885" opacity="1">6</text><text x="119.08709887255282" text-anchor="end" transform="translate(0,0)" style="color: rgb(102, 102, 102); cursor: default; font-size: 11px; fill: rgb(102, 102, 102);" y="189.9179880572775" z="107.00128436401785" opacity="1">8</text><text x="117.68204167387654" text-anchor="end" transform="translate(0,0)" style="color: rgb(102, 102, 102); cursor: default; font-size: 11px; fill: rgb(102, 102, 102);" y="146.48099903217565" z="98.86970706337686" opacity="1">10</text></g><text x="590" class="highcharts-credits" text-anchor="end" data-z-index="8" y="495" style="cursor: pointer; color: rgb(153, 153, 153); font-size: 9px; fill: rgb(153, 153, 153);">Highcharts.com.cn</text><g stroke-linejoin="round" class="highcharts-3d-frame highcharts-3d-frame-top" data-z-index="1000"><path fill="rgb(25,25,25)" fill-opacity="0.02" d="M 230.33320177341685 134.51423767060626 L 469.696967488255 142.73493191552802 L 394.4184147242697 154.8538226184952 L 127.9346294387538 143.53712218894825 Z" visibility="hidden"></path><path fill="rgb(25,25,25)" fill-opacity="0.02" d="M 128.50155821184973 143.56119781172262 L 394.4184147242697 154.8538226184952 L 469.4441738822206 142.77562847476645 L 230.50267375902942 134.5631781919573 Z" visibility="hidden"></path><path fill="rgb(0,0,0)" fill-opacity="0.02" d="M 230.33320177341685 134.51423767060626 L 127.9346294387538 143.53712218894825 L 128.50155821184973 143.56119781172262 L 230.50267375902942 134.5631781919573 Z" visibility="hidden"></path><path fill="rgb(0,0,0)" fill-opacity="0.02" d="M 394.4184147242697 154.8538226184952 L 469.696967488255 142.73493191552802 L 469.4441738822206 142.77562847476645 L 394.4184147242697 154.8538226184952 Z" visibility="hidden"></path><path fill="rgb(0,0,0)" fill-opacity="0.02" d="M 127.9346294387538 143.53712218894825 L 394.4184147242697 154.8538226184952 L 394.4184147242697 154.8538226184952 L 128.50155821184973 143.56119781172262 Z" visibility="hidden"></path><path fill="rgb(0,0,0)" fill-opacity="0.02" d="M 469.696967488255 142.73493191552802 L 230.33320177341685 134.51423767060626 L 230.50267375902942 134.5631781919573 L 469.4441738822206 142.77562847476645 Z" visibility="hidden"></path></g><g stroke-linejoin="round" class="highcharts-3d-frame highcharts-3d-frame-right" data-z-index="1000"><path fill="rgb(25,25,25)" fill-opacity="0.06" d="M 463.40727193778423 351.77967456168875 L 463.18015309593807 351.2761390443809 L 390.3056648032152 400 L 390.29255469475885 400.7814462427367 Z" visibility="hidden"></path><path fill="rgb(25,25,25)" fill-opacity="0.06" d="M 394.4184147242697 154.8538226184952 L 394.4184147242697 154.8538226184952 L 469.4441738822206 142.77562847476645 L 469.696967488255 142.73493191552802 Z" visibility="hidden"></path><path fill="rgb(0,0,0)" fill-opacity="0.06" d="M 394.4184147242697 154.8538226184952 L 390.3056648032152 400 L 463.18015309593807 351.2761390443809 L 469.4441738822206 142.77562847476645 Z" visibility="hidden"></path><path fill="rgb(0,0,0)" fill-opacity="0.06" d="M 390.29255469475885 400.7814462427367 L 394.4184147242697 154.8538226184952 L 469.696967488255 142.73493191552802 L 463.40727193778423 351.77967456168875 Z" visibility="hidden"></path><path fill="rgb(0,0,0)" fill-opacity="0.06" d="M 394.4184147242697 154.8538226184952 L 390.29255469475885 400.7814462427367 L 390.3056648032152 400 L 394.4184147242697 154.8538226184952 Z" visibility="hidden"></path><path fill="rgb(0,0,0)" fill-opacity="0.06" d="M 463.40727193778423 351.77967456168875 L 469.696967488255 142.73493191552802 L 469.4441738822206 142.77562847476645 L 463.18015309593807 351.2761390443809 Z" visibility="hidden"></path></g><g stroke-linejoin="round" class="highcharts-3d-frame highcharts-3d-frame-front" data-z-index="1000"><path fill="rgb(25,25,25)" fill-opacity="0.04" d="M 134.38814831498834 355.04426728235234 L 390.29255469475885 400.7814462427367 L 390.3056648032152 400 L 134.91550961445662 354.4655612795353 Z" visibility="hidden"></path><path fill="rgb(25,25,25)" fill-opacity="0.04" d="M 394.4184147242697 154.8538226184952 L 127.9346294387538 143.53712218894825 L 128.50155821184973 143.56119781172262 L 394.4184147242697 154.8538226184952 Z" visibility="hidden"></path><path fill="rgb(0,0,0)" fill-opacity="0.04" d="M 127.9346294387538 143.53712218894825 L 134.38814831498834 355.04426728235234 L 134.91550961445662 354.4655612795353 L 128.50155821184973 143.56119781172262 Z" visibility="hidden"></path><path fill="rgb(0,0,0)" fill-opacity="0.04" d="M 390.29255469475885 400.7814462427367 L 394.4184147242697 154.8538226184952 L 394.4184147242697 154.8538226184952 L 390.3056648032152 400 Z" visibility="hidden"></path><path fill="rgb(0,0,0)" fill-opacity="0.04" d="M 394.4184147242697 154.8538226184952 L 128.50155821184973 143.56119781172262 L 134.91550961445662 354.4655612795353 L 390.3056648032152 400 Z" visibility="hidden"></path><path fill="rgb(0,0,0)" fill-opacity="0.04" d="M 390.29255469475885 400.7814462427367 L 134.38814831498834 355.04426728235234 L 127.9346294387538 143.53712218894825 L 394.4184147242697 154.8538226184952 Z" visibility="hidden"></path></g></svg>