<?xml version="1.0" standalone="no"?><!DOCTYPE svg PUBLIC "-//W3C//DTD SVG 1.1//EN" "http://www.w3.org/Graphics/SVG/1.1/DTD/svg11.dtd"><svg t="1625194186074" class="icon" viewBox="0 0 1024 1024" version="1.1" xmlns="http://www.w3.org/2000/svg" p-id="5368" xmlns:xlink="http://www.w3.org/1999/xlink" width="128" height="128"><defs><style type="text/css"></style></defs><path d="M542.865473 179.373297c-11.667737-5.553483-25.564235-3.748371-35.536354 4.592598l-191.97122 160.771637-153.038512-0.632403-0.141216 0c-8.810666 0-17.328667 3.467985-23.538089 9.771551-6.291287 6.28003-9.853415 14.809287-9.853415 23.736611l-0.704035 268.632203c0 8.904811 3.479241 17.48114 9.760295 23.784706 6.26775 6.349615 14.774495 9.864672 23.654746 9.864672l154.842601 0 190.986799 160.16277c6.139837 5.131881 13.766538 7.756661 21.383006 7.756661 4.802376 0 9.619078-1.031493 14.152325-3.186576 11.7056-5.482875 19.21462-17.339924 19.21462-30.369681L562.077024 209.742978C562.104653 196.784852 554.617122 184.927803 542.865473 179.373297zM495.321644 742.55498l-0.022513 0L349.757361 620.517529c-6.010901-4.991688-13.568017-7.733125-21.35947-7.733125L194.938296 612.784404l0.550539-201.38052 131.750673 0.562818 0.116657 0c7.814989 0 15.394618-2.717901 21.370727-7.756661l146.594753-122.786511L495.321644 742.55498zM776.185426 248.66443c-15.349593-9.958816-35.805484-5.41329-45.834908 10.051937-10.004865 15.418154-5.600555 36.20355 9.677407 46.373167 3.609201 2.412956 89.137133 60.994166 89.137133 206.910467 0 146.195663-82.013899 204.871017-85.282339 207.120244-15.383362 10.310833-19.507286 31.142278-9.268084 46.583968 6.4192 9.700943 17.036002 14.926968 27.815509 14.926968 6.374174 0 12.793374-1.852184 18.48705-5.624091 4.686742-3.139503 114.996081-79.225389 114.996081-263.008112C895.950114 327.842747 781.130042 251.827469 776.185426 248.66443zM672.284031 347.292728c-16.448624-7.826246-35.991726-0.704035-44.00626 15.770172-7.990998 16.542768-1.077541 36.531008 15.255449 44.802392 2.084475 1.101077 52.114938 27.228131 52.114938 101.673657 0 79.531358-46.795792 105.891725-48.307216 106.759489-16.48444 8.29492-23.186072 28.493961-14.938224 45.084824 5.881964 11.762905 17.643845 18.582217 29.933753 18.582217 4.968152 0 10.077519-1.14815 14.869662-3.538593 3.467985-1.780553 85.22401-44.358277 85.22401-166.887938C762.383072 391.322523 675.962817 349.026208 672.284031 347.292728z" p-id="5369"></path></svg>