<svg t="1625568065890" class="icon" viewBox="0 0 1024 1024" version="1.1" xmlns="http://www.w3.org/2000/svg" p-id="3115" width="128" height="128"><path d="M844.8 650.24v-256c0-66.56-28.16-176.64-79.36-227.84-48.64-48.64-135.68-97.28-199.68-99.84v-25.6c0-23.04-17.92-40.96-40.96-40.96h-5.12c-23.04 0-40.96 17.92-40.96 40.96v25.6c-64 7.68-138.24 53.76-184.32 99.84-51.2 51.2-71.68 161.28-71.68 227.84v256l-151.04 148.48v56.32h304.64c0 87.04 71.68 158.72 158.72 158.72 87.04 0 156.16-71.68 158.72-158.72h281.6v-56.32L844.8 650.24zM535.04 949.76c-51.2 0-92.16-43.52-92.16-94.72h186.88c-2.56 53.76-43.52 94.72-94.72 94.72z" fill="" p-id="3116"></path></svg>