<?xml version="1.0" standalone="no"?><!DOCTYPE svg PUBLIC "-//W3C//DTD SVG 1.1//EN" "http://www.w3.org/Graphics/SVG/1.1/DTD/svg11.dtd"><svg t="1669017893403" class="icon" viewBox="0 0 1024 1024" version="1.1" xmlns="http://www.w3.org/2000/svg" p-id="34069" data-spm-anchor-id="a313x.7781069.0.i87" xmlns:xlink="http://www.w3.org/1999/xlink" width="200" height="200"><path d="M512 85.333333C277.333333 85.333333 85.333333 277.333333 85.333333 512s192 426.666667 426.666667 426.666667 426.666667-192 426.666667-426.666667S746.666667 85.333333 512 85.333333z m0 810.666667c-211.2 0-384-172.8-384-384S300.8 128 512 128s384 172.8 384 384-172.8 384-384 384z" fill="#515151" p-id="34070" data-spm-anchor-id="a313x.7781069.0.i80" class=""></path><path d="M597.333333 268.8l-27.733333 81.066667c49.066667 17.066667 89.6 55.466667 106.666667 106.666666l81.066666-27.733333c-25.6-74.666667-85.333333-134.4-160-160z" fill="#8a8a8a" opacity=".6" p-id="34071" data-spm-anchor-id="a313x.7781069.0.i90" class="selected"></path><path d="M569.6 352L516.266667 512l160-53.333333c-17.066667-51.2-55.466667-89.6-106.666667-106.666667zM409.6 829.866667l27.733333-81.066667c-74.666667-25.6-134.4-85.333333-160-160l-81.066666 27.733333c34.133333 100.266667 113.066667 179.2 213.333333 213.333334z" fill="#515151" p-id="34072" data-spm-anchor-id="a313x.7781069.0.i83" class=""></path><path d="M437.333333 750.933333l27.733334-81.066666c-49.066667-17.066667-89.6-55.466667-106.666667-106.666667L277.333333 590.933333c25.6 74.666667 85.333333 134.4 160 160z" fill="#8a8a8a" opacity=".6" p-id="34073" data-spm-anchor-id="a313x.7781069.0.i88" class="selected"></path><path d="M462.933333 667.733333l53.333334-160-160 53.333334c17.066667 51.2 57.6 89.6 106.666666 106.666666zM238.933333 305.066667l68.266667 51.2c46.933333-64 121.6-106.666667 206.933333-106.666667v-85.333333c-113.066667 0-213.333333 55.466667-275.2 140.8z" fill="#515151" p-id="34074" data-spm-anchor-id="a313x.7781069.0.i85" class=""></path><path d="M309.333333 356.266667l68.266667 51.2c29.866667-44.8 81.066667-72.533333 138.666667-72.533334v-85.333333c-85.333333 0-160 42.666667-206.933334 106.666667z" fill="#8a8a8a" opacity=".6" p-id="34075" data-spm-anchor-id="a313x.7781069.0.i89" class="selected"></path><path d="M516.266667 512v-177.066667c-57.6 0-108.8 29.866667-138.666667 72.533334l138.666667 104.533333zM622.933333 832l-27.733333-81.066667c74.666667-25.6 134.4-85.333333 160-160l81.066667 27.733334c-34.133333 98.133333-113.066667 179.2-213.333334 213.333333z" fill="#515151" p-id="34076" data-spm-anchor-id="a313x.7781069.0.i82" class=""></path><path d="M595.2 753.066667l-27.733333-81.066667c49.066667-17.066667 89.6-55.466667 106.666666-106.666667l81.066667 27.733334c-25.6 74.666667-83.2 134.4-160 160z" fill="#8a8a8a" opacity=".6" p-id="34077" data-spm-anchor-id="a313x.7781069.0.i91" class="selected"></path><path d="M569.6 669.866667l-53.333333-160 160 53.333333c-17.066667 49.066667-57.6 89.6-106.666667 106.666667z" fill="#515151" p-id="34078" data-spm-anchor-id="a313x.7781069.0.i84" class=""></path><path d="M520.533333 507.733333l17.066667-6.4V85.333333h-42.666667v409.6l21.333334 17.066667h6.4z" fill="#515151" p-id="34079" data-spm-anchor-id="a313x.7781069.0.i81" class=""></path></svg>