<?xml version="1.0" standalone="no"?><!DOCTYPE svg PUBLIC "-//W3C//DTD SVG 1.1//EN" "http://www.w3.org/Graphics/SVG/1.1/DTD/svg11.dtd"><svg t="1669017172470" class="icon" viewBox="0 0 1024 1024" version="1.1" xmlns="http://www.w3.org/2000/svg" p-id="13000" xmlns:xlink="http://www.w3.org/1999/xlink" width="200" height="200"><path d="M512 170.666667v85.333333c140.8 0 256 113.066667 256 256v14.933333C759.466667 661.333333 648.533333 768 512 768s-247.466667-106.666667-256-241.066667H170.666667C179.2 708.266667 328.533333 853.333333 512 853.333333s332.8-145.066667 341.333333-326.4V512c0-187.733333-153.6-341.333333-341.333333-341.333333z" fill="#515151" p-id="13001"></path><path d="M512 300.8v85.333333c70.4 0 125.866667 55.466667 128 125.866667 0 70.4-57.6 128-128 128s-128-57.6-128-128h-85.333333c0 117.333333 96 213.333333 213.333333 213.333333s213.333333-96 213.333333-213.333333c-2.133333-117.333333-96-211.2-213.333333-211.2z" fill="#515151" opacity=".6" p-id="13002"></path><path d="M512 85.333333C277.333333 85.333333 85.333333 277.333333 85.333333 512s192 426.666667 426.666667 426.666667 426.666667-192 426.666667-426.666667S746.666667 85.333333 512 85.333333z m0 810.666667c-211.2 0-384-172.8-384-384 0-204.8 162.133333-371.2 362.666667-381.866667V384h42.666666V130.133333c200.533333 10.666667 362.666667 179.2 362.666667 381.866667 0 211.2-172.8 384-384 384z" fill="#515151" p-id="13003"></path></svg>