<?xml version="1.0" standalone="no"?><!DOCTYPE svg PUBLIC "-//W3C//DTD SVG 1.1//EN" "http://www.w3.org/Graphics/SVG/1.1/DTD/svg11.dtd"><svg t="1669017342721" class="icon" viewBox="0 0 1024 1024" version="1.1" xmlns="http://www.w3.org/2000/svg" p-id="20449" xmlns:xlink="http://www.w3.org/1999/xlink" width="200" height="200"><path d="M384.6 813.2c-15.6 32.9-32.7 55-50.8 64.1H161c76.5-40.9 135.9-344 135.9-711.7-0.1 285.9 35.8 532.6 87.7 647.6z" fill="#515151" p-id="20450"></path><path d="M432.7 877.3h-98.9c18.1-9.1 35.2-31.3 50.8-64.1 14.9 32.9 31.1 55 48.1 64.1z" fill="#515151" p-id="20451"></path><path d="M557.7 823.7c-15.4 27-32.3 45.5-50.2 53.6h-74.9c-17-9.1-33.2-31.2-48-64.1 49.8-104.9 83.9-318.8 83.9-565.7 0 255.4 36.6 475.5 89.2 576.2z" fill="#515151" p-id="20452"></path><path d="M603.3 877.3h-95.8c17.9-8.1 34.8-26.6 50.2-53.6 14.2 27.1 29.5 45.5 45.6 53.6z" fill="#515151" p-id="20453"></path><path d="M732.6 839.4c-14.9 18.4-31.3 31.5-48.7 37.9h-80.6c-16.1-8.1-31.5-26.5-45.6-53.6 49.1-86.2 82.6-259 82.6-458.1 0 212.1 38 394.2 92.3 473.8z" fill="#515151" p-id="20454"></path><path d="M773 877.3h-89.1c17.4-6.5 33.8-19.5 48.7-37.9 12.7 18.5 26.2 31.4 40.4 37.9z" fill="#515151" p-id="20455"></path><path d="M940 877.3H773c-14.2-6.5-27.7-19.4-40.4-37.9 47.3-58.5 79.4-171.2 79.4-300.7 0 170.2 55.4 311.5 128 338.6z" fill="#515151" p-id="20456"></path><path d="M932 862H162V92c0-11-9-20-20-20s-20 9-20 20v66.9H92c-11 0-20 9-20 20s9 20 20 20h30v112.4H92c-11 0-20 9-20 20s9 20 20 20h30v112.5H92c-11 0-20 9-20 20s9 20 20 20h30v112.4H92c-11 0-20 9-20 20s9 20 20 20h30v112.4H92c-11 0-20 9-20 20s9 20 20 20h30V882c0 11 9 20 20 20h66.9v30c0 11 9 20 20 20s20-9 20-20v-30h112.4v30c0 11 9 20 20 20s20-9 20-20v-30h112.5v30c0 11 9 20 20 20s20-9 20-20v-30h112.4v30c0 11 9 20 20 20s20-9 20-20v-30h112.4v30c0 11 9 20 20 20s20-9 20-20v-30H932c11 0 20-9 20-20s-9-20-20-20z" fill="#515151" p-id="20457"></path></svg>