<?xml version="1.0" standalone="no"?><!DOCTYPE svg PUBLIC "-//W3C//DTD SVG 1.1//EN" "http://www.w3.org/Graphics/SVG/1.1/DTD/svg11.dtd"><svg t="1669017649108" class="icon" viewBox="0 0 1024 1024" version="1.1" xmlns="http://www.w3.org/2000/svg" p-id="31035" data-spm-anchor-id="a313x.7781069.0.i55" xmlns:xlink="http://www.w3.org/1999/xlink" width="200" height="200"><path d="M534.9 160.5h211.9c6.6 0 12 5.4 12 12V245c0 6.6-5.4 12-12 12H534.9c-6.6 0-12-5.4-12-12v-72.5c0-6.6 5.4-12 12-12zM535 309.8h403.9c6.6 0 12 5.4 12 12v72.5c0 6.6-5.4 12-12 12H535c-6.6 0-12-5.4-12-12v-72.5c0-6.6 5.4-12 12-12zM534.9 462.2h329.7c6.6 0 12 5.4 12 12v72.5c0 6.6-5.4 12-12 12H534.9c-6.6 0-12-5.4-12-12v-72.5c0-6.6 5.4-12 12-12zM534.9 614.7h165c6.6 0 12 5.4 12 12v72.5c0 6.6-5.4 12-12 12h-165c-6.6 0-12-5.4-12-12v-72.5c0-6.6 5.4-12 12-12z" fill="#515151" p-id="31036"></path><path d="M277.2 160.4h211.9c6.6 0 12 5.4 12 12v72.5c0 6.6-5.4 12-12 12H277.2c-6.6 0-12-5.4-12-12v-72.5c0-6.6 5.4-12 12-12zM85.1 309.8H489c6.6 0 12 5.4 12 12v72.5c0 6.6-5.4 12-12 12H85.1c-6.6 0-12-5.4-12-12v-72.5c0-6.6 5.4-12 12-12zM159.4 462.2h329.7c6.6 0 12 5.4 12 12v72.5c0 6.6-5.4 12-12 12H159.4c-6.6 0-12-5.4-12-12v-72.5c0-6.6 5.4-12 12-12zM324.1 614.7h165c6.6 0 12 5.4 12 12v72.5c0 6.6-5.4 12-12 12h-165c-6.6 0-12-5.4-12-12v-72.5c0-6.6 5.4-12 12-12zM195.1 767H489c6.6 0 12 5.4 12 12v72.5c0 6.6-5.4 12-12 12H195.1c-6.6 0-12-5.4-12-12V779c0-6.6 5.4-12 12-12z" fill="#707070" p-id="31037" data-spm-anchor-id="a313x.7781069.0.i56" class=""></path><path d="M535 767h293.9c6.6 0 12 5.4 12 12v72.5c0 6.6-5.4 12-12 12H535c-6.6 0-12-5.4-12-12V779c0-6.6 5.4-12 12-12z" fill="#515151" p-id="31038"></path><path d="M512 927c-11 0-20-9-20-20V117c0-11 9-20 20-20s20 9 20 20v790c0 11-9 20-20 20z" fill="#707070" p-id="31039" data-spm-anchor-id="a313x.7781069.0.i58" class="selected"></path></svg>