<?xml version="1.0" standalone="no"?><!DOCTYPE svg PUBLIC "-//W3C//DTD SVG 1.1//EN" "http://www.w3.org/Graphics/SVG/1.1/DTD/svg11.dtd"><svg t="1669017766559" class="icon" viewBox="0 0 1024 1024" version="1.1" xmlns="http://www.w3.org/2000/svg" p-id="32636" xmlns:xlink="http://www.w3.org/1999/xlink" width="200" height="200"><path d="M257.611425 695.574627v191.134836h13.310225v-191.134836h-13.310225z" fill="#707070" p-id="32637"></path><path d="M257.611425 637.187106v60.605892h13.310225v-60.605892h-13.310225z" fill="#707070" p-id="32638"></path><path d="M257.611425 608.525754v28.661352h13.310225v-28.661352h-13.310225z" fill="#707070" p-id="32639"></path><path d="M257.611425 567.70773v40.818024h13.310225v-40.818024h-13.310225z" fill="#707070" p-id="32640"></path><path d="M213.079847 567.885199v319.001733h40.108146v-319.001733h-40.108146z" fill="#707070" p-id="32641"></path><path d="M168.471958 727.359445v67.615945h40.108146v-67.615945h-40.108146z" fill="#707070" p-id="32642"></path><path d="M168.471958 659.743501v67.615944h40.108146v-67.615944h-40.108146z" fill="#707070" p-id="32643"></path><path d="M168.471958 795.064125v91.840554h40.108146V795.064125h-40.108146z" fill="#707070" p-id="32644"></path><path d="M123.901338 826.547244v60.339688h40.108146v-60.339688h-40.108146z" fill="#2c2c2c" p-id="32645" data-spm-anchor-id="a313x.7781069.0.i62" class="selected"></path><path d="M466.745234 525.57643v361.15078h13.310225v-361.15078h-13.310225z" fill="#707070" p-id="32646"></path><path d="M466.745234 415.279029v114.467938h13.310225V415.279029h-13.310225z" fill="#707070" p-id="32647"></path><path d="M466.745234 361.15078v54.128249h13.310225v-54.128249h-13.310225z" fill="#707070" p-id="32648"></path><path d="M466.745234 283.951473v77.199307h13.310225v-77.199307h-13.310225z" fill="#707070" p-id="32649"></path><path d="M422.214544 284.128943v602.775736h40.108146V284.128943h-40.108146z" fill="#707070" p-id="32650"></path><path d="M377.605768 597.615806v129.819064h40.108145v-129.819064h-40.108145z" fill="#707070" p-id="32651"></path><path d="M377.605768 703.21026v91.840555h40.108145v-91.840555h-40.108145z" fill="#707070" p-id="32652"></path><path d="M377.605768 795.050815v91.840554h40.108145v-91.840554h-40.108145z" fill="#707070" p-id="32653"></path><path d="M333.036035 826.564991v60.339688h40.108145v-60.339688h-40.108145z" fill="#2c2c2c" p-id="32654" data-spm-anchor-id="a313x.7781069.0.i63" class="selected"></path><path d="M675.879043 627.515009v259.194454h13.310226v-259.194454h-13.310226z" fill="#707070" p-id="32655"></path><path d="M675.879043 548.363536v82.168457h13.310226v-82.168457h-13.310226z" fill="#707070" p-id="32656"></path><path d="M675.879043 509.497678v38.865858h13.310226v-38.865858h-13.310226z" fill="#707070" p-id="32657"></path><path d="M675.879043 454.12714v55.370538h13.310226v-55.370538h-13.310226z" fill="#707070" p-id="32658"></path><path d="M631.348354 454.30461v432.582322h40.108145v-432.582322h-40.108145z" fill="#707070" p-id="32659"></path><path d="M586.739577 782.552513v44.278683h40.108146v-44.278683h-40.108146z" fill="#707070" p-id="32660"></path><path d="M586.739577 738.27383v44.278683h40.108146V738.27383h-40.108146z" fill="#707070" p-id="32661"></path><path d="M586.739577 826.831196v60.073483h40.108146v-60.073483h-40.108146z" fill="#707070" p-id="32662"></path><path d="M542.169844 826.547244v60.339688h40.108146v-60.339688H542.169844z" fill="#2c2c2c" p-id="32663" data-spm-anchor-id="a313x.7781069.0.i64" class="selected"></path><path d="M885.01374 583.076603v303.650607h13.310225V583.076603h-13.310225z" fill="#707070" p-id="32664"></path><path d="M885.01374 490.3487v96.277297h13.310225V490.3487h-13.310225z" fill="#707070" p-id="32665"></path><path d="M885.01374 444.82773v45.52097h13.310225v-45.52097h-13.310225z" fill="#707070" p-id="32666"></path><path d="M885.01374 379.962565v64.865165h13.310225v-64.865165h-13.310225z" fill="#707070" p-id="32667"></path><path d="M840.482163 380.140035v506.764644h40.108145V380.140035h-40.108145z" fill="#707070" p-id="32668"></path><path d="M795.873386 639.864236v104.79584h40.108146v-104.79584h-40.108146z" fill="#707070" p-id="32669"></path><path d="M795.873386 535.068395v104.795841h40.108146v-104.795841h-40.108146z" fill="#707070" p-id="32670"></path><path d="M795.873386 744.660076v142.241941h40.108146v-142.241941h-40.108146z" fill="#707070" p-id="32671"></path><path d="M751.303653 826.564991v60.339688h40.108146v-60.339688h-40.108146z" fill="#2c2c2c" p-id="32672" data-spm-anchor-id="a313x.7781069.0.i65" class="selected"></path><path d="M941.032929 913.612977l-5.67903-6.743847 18.279377-15.351127H75.513345v-765.426689l-15.351127 17.835702-6.743847-5.8565 26.97539-31.145927 26.088041 31.234662-6.832582 5.67903-15.262392-18.279376v757.085615H953.012132l-17.746967-15.262392 5.767764-6.743847 31.234662 26.886655z" fill="#707070" p-id="32673"></path></svg>