<?xml version="1.0" standalone="no"?><!DOCTYPE svg PUBLIC "-//W3C//DTD SVG 1.1//EN" "http://www.w3.org/Graphics/SVG/1.1/DTD/svg11.dtd"><svg t="1669016925002" class="icon" viewBox="0 0 1024 1024" version="1.1" xmlns="http://www.w3.org/2000/svg" p-id="10788" xmlns:xlink="http://www.w3.org/1999/xlink" width="200" height="200"><path d="M498.7 646.7l-5.9 59.7c-21.4-2.1-42-7.6-61.2-16.3l24.7-54.7c13.2 6 27.5 9.8 42.4 11.3z" fill="#515151" p-id="10789"></path><path d="M512 512l-7.4 74.9-5.9 59.7c-14.8-1.4-29.1-5.3-42.4-11.3l24.7-54.7 31-68.6z" fill="#515151" p-id="10790"></path><path d="M433.1 622l-35 48.8-35 48.8c-11.2-8-21.7-17-31.6-26.9s-18.9-20.5-26.9-31.6l48.8-35 48.8-35c4.3 5.9 9 11.5 14.3 16.8s10.7 9.8 16.6 14.1z" fill="#515151" p-id="10791"></path><path d="M468.1 573.2l-35 48.8c-5.9-4.3-11.5-9-16.8-14.3s-10-10.9-14.3-16.8l48.8-35c2.4 3.3 5 6.4 8 9.3 2.9 3 6 5.6 9.3 8z" fill="#515151" p-id="10792"></path><path d="M512 512l-43.9 61.2c-3.3-2.4-6.4-5-9.3-7.9s-5.6-6-8-9.3l61.2-44z" fill="#515151" p-id="10793"></path><path d="M617.3 744.7c-25.2 11.4-52.1 18.6-80.1 21.3l-5.9-59.7-5.9-59.7c14.8-1.4 29.1-5.3 42.4-11.3l24.7 54.7 24.8 54.7z" fill="#515151" p-id="10794"></path><path d="M567.8 635.3c-13.3 6-27.6 9.9-42.4 11.3l-5.9-59.7c8.2-0.8 16.2-2.9 23.6-6.3l24.7 54.7z" fill="#515151" p-id="10795"></path><path d="M543 580.6c-7.4 3.4-15.4 5.5-23.6 6.3L512 512l31 68.6zM622 590.9c-4.3 5.9-9 11.5-14.3 16.8s-10.9 10-16.8 14.3l-35-48.8L512 512l61.2 43.9 48.8 35z" fill="#515151" p-id="10796"></path><path d="M719.5 660.9c-8 11.2-17 21.7-26.9 31.6-9.9 9.9-20.5 18.9-31.6 26.9l-35-48.8-35-48.8c5.9-4.3 11.5-9 16.8-14.3s10-10.9 14.3-16.8l48.8 35 48.6 35.2z" fill="#515151" p-id="10797"></path><path d="M816.9 730.8c-1.5 2.1-3 4.1-4.5 6.2-3.1 4.1-6.2 8.1-9.4 12-7.2 8.9-14.9 17.4-22.9 25.6l-5.4 5.4c-8.2 8-16.7 15.7-25.6 22.9-3.9 3.2-8 6.4-12 9.4-2 1.5-4.1 3-6.2 4.5l-35-48.7-35-48.8c11.2-8 21.7-17 31.6-26.9 9.9-9.9 18.9-20.5 26.9-31.6l48.8 35 48.7 35z" fill="#515151" p-id="10798"></path><path d="M646.7 525.3c-1.4 14.8-5.3 29.1-11.3 42.4L580.6 543 512 512l74.9 7.4 59.8 5.9z" fill="#515151" p-id="10799"></path><path d="M706.4 531.3c-2.1 21.4-7.6 42-16.3 61.2l-54.7-24.7c6-13.3 9.9-27.6 11.3-42.4l59.7 5.9z" fill="#515151" p-id="10800"></path><path d="M825.8 543.1c-3.3 34.5-12.3 67.8-26.4 98.9l-54.7-24.7-54.7-24.8c8.7-19.2 14.3-39.9 16.3-61.2l59.7 5.9 59.8 5.9z" fill="#515151" p-id="10801"></path><path d="M443.4 543l-54.7 24.7-54.7 24.8c-8.7-19.2-14.3-39.9-16.3-61.2l59.7-5.9 59.7-5.9c0.8 8.2 2.9 16.1 6.3 23.5z" fill="#515151" p-id="10802"></path><path d="M512 512l-68.6 31c-3.4-7.4-5.5-15.4-6.3-23.6L512 512zM586.9 504.6L512 512l68.6-31c3.4 7.4 5.5 15.3 6.3 23.6z" fill="#515151" p-id="10803"></path><path d="M706.4 492.7l-59.7 5.9-59.7 5.9c-0.8-8.2-2.9-16.2-6.3-23.6l54.7-24.7 54.7-24.7c8.7 19.2 14.2 39.8 16.3 61.2z" fill="#515151" p-id="10804"></path><path d="M766.1 486.8l-59.7 5.9c-2.1-21.4-7.6-42-16.3-61.2l54.7-24.7c11.3 25.1 18.6 52.1 21.3 80z" fill="#515151" p-id="10805"></path><path d="M617.3 279.3L592.5 334c-19.2-8.7-39.9-14.3-61.2-16.3l5.9-59.7c27.9 2.6 54.9 9.9 80.1 21.3z" fill="#515151" p-id="10806"></path><path d="M592.5 334l-24.7 54.7-24.8 54.7c-7.4-3.4-15.4-5.5-23.6-6.3l5.9-59.7 5.9-59.7c21.5 2 42.1 7.5 61.3 16.3z" fill="#515151" p-id="10807"></path><path d="M543 443.4L512 512l7.4-74.9c8.3 0.8 16.2 2.9 23.6 6.3z" fill="#515151" p-id="10808"></path><path d="M622 433.1l-48.8 35c-2.4-3.3-5-6.4-8-9.3-2.9-2.9-6-5.6-9.3-7.9l35-48.8c5.9 4.3 11.5 9 16.8 14.3s10 10.8 14.3 16.7z" fill="#515151" p-id="10809"></path><path d="M573.2 468.1L512 512l43.9-61.2c3.3 2.4 6.4 5 9.3 7.9 3 3 5.6 6.1 8 9.4z" fill="#515151" p-id="10810"></path><path d="M498.7 377.3c-14.8 1.4-29.1 5.3-42.4 11.3L431.5 334l-24.7-54.7-24.8-54.7c31.1-14.1 64.4-23 98.9-26.4l5.9 59.7 5.9 59.7 6 59.7z" fill="#515151" p-id="10811"></path><path d="M504.6 437.1c-8.2 0.8-16.2 2.9-23.6 6.3l-24.7-54.7c13.3-6 27.6-9.9 42.4-11.3l5.9 59.7z" fill="#515151" p-id="10812"></path><path d="M512 512l-31-68.6c7.4-3.4 15.4-5.5 23.6-6.3L512 512z" fill="#515151" p-id="10813"></path><path d="M224.6 382c-14.1 31.1-23 64.4-26.4 98.9l-59.7-5.9 0.3-2.7c0.1-0.7 0.1-1.3 0.2-2l0.3-2.4 0.3-2.4 0.3-2.4c0-0.2 0-0.3 0.1-0.5 0.1-0.4 0.1-0.9 0.2-1.3 0-0.2 0.1-0.4 0.1-0.5l0.3-2.4c0.2-1.3 0.4-2.7 0.6-4 0.3-2 0.6-4 1-6l0.3-1.8c0.3-1.5 0.5-3 0.8-4.5 0-0.3 0.1-0.6 0.2-0.9 0.2-0.9 0.4-1.8 0.5-2.7 0.4-2 0.8-3.9 1.2-5.9 0.3-1.2 0.5-2.4 0.8-3.6s0.6-2.5 0.9-3.7c0.3-1.2 0.6-2.5 0.9-3.7 0.3-1.1 0.5-2.2 0.8-3.3 0.3-1.1 0.5-2.1 0.8-3.2 0.4-1.5 0.8-3.1 1.2-4.6 1.2-4.5 2.6-8.9 4-13.3 0.2-0.8 0.5-1.6 0.8-2.3 0.4-1.3 0.8-2.5 1.3-3.8 0.4-1.1 0.7-2.2 1.1-3.2 1-2.9 2.1-5.8 3.2-8.7 0.4-1.1 0.8-2.1 1.2-3.2 0.5-1.3 1-2.6 1.6-3.9 0.5-1.3 1.1-2.6 1.6-3.9s1.1-2.6 1.7-3.9c0.5-1.2 1-2.3 1.5-3.5 0.5-1.1 1-2.3 1.5-3.4l54.5 24.6z" fill="#515151" p-id="10814"></path><path d="M334 431.5c-8.7 19.2-14.3 39.9-16.3 61.2l-59.7-5.9-59.7-5.9c3.3-34.5 12.3-67.8 26.4-98.9l54.7 24.7 54.6 24.8z" fill="#515151" p-id="10815"></path><path d="M512 512l-74.9-7.4-59.7-5.9-59.7-5.9c2.1-21.4 7.6-42 16.3-61.2l54.7 24.7 54.7 24.7 68.6 31z" fill="#515151" p-id="10816"></path><path d="M468.1 450.8c-3.3 2.4-6.4 5-9.3 7.9s-5.6 6-7.9 9.3l-48.8-35-48.8-35c6.2-8.5 13-16.6 20.6-24.2s15.7-14.5 24.2-20.6l35 48.8 35 48.8z" fill="#515151" p-id="10817"></path><path d="M512 512l-61.2-43.9c2.4-3.3 5-6.4 7.9-9.3s6-5.6 9.3-7.9l44 61.1z" fill="#515151" p-id="10818"></path><path d="M932 492h-25.2c-2.3-46.3-12.5-91.2-30.6-133.9-3.8-8.9-7.9-17.7-12.3-26.3l21.7-12.5c9.6-5.5 12.9-17.7 7.3-27.3s-17.7-12.9-27.3-7.3l-21.8 12.6c-15.1-23.2-32.6-44.9-52.4-64.7-19.9-19.9-41.5-37.4-64.7-52.4l12.6-21.8c5.5-9.6 2.2-21.8-7.3-27.3-9.6-5.5-21.8-2.2-27.3 7.3L692.2 160c-8.6-4.4-17.3-8.5-26.3-12.3-42.6-18-87.6-28.3-133.9-30.6V92c0-11-9-20-20-20s-20 9-20 20v25.2c-46.3 2.3-91.2 12.5-133.9 30.6-8.9 3.8-17.7 7.9-26.3 12.3l-12.5-21.7c-5.5-9.6-17.7-12.9-27.3-7.3-9.6 5.5-12.9 17.7-7.3 27.3l12.6 21.8c-23.2 15.1-44.9 32.6-64.7 52.4-19.9 19.9-37.4 41.5-52.4 64.7l-21.8-12.6c-9.6-5.5-21.8-2.2-27.3 7.3-5.5 9.6-2.2 21.8 7.3 27.3l21.7 12.5c-4.4 8.6-8.5 17.3-12.3 26.3-18 42.6-28.3 87.6-30.6 133.9H92c-11 0-20 9-20 20s9 20 20 20h25.2c2.3 46.3 12.5 91.2 30.6 133.9 3.8 8.9 7.9 17.7 12.3 26.3l-21.7 12.5c-9.6 5.5-12.9 17.7-7.3 27.3 3.7 6.4 10.4 10 17.3 10 3.4 0 6.8-0.9 10-2.7l21.8-12.6c15.1 23.2 32.6 44.9 52.4 64.7 19.9 19.9 41.5 37.4 64.7 52.4l-12.6 21.8c-5.5 9.6-2.2 21.8 7.3 27.3 3.1 1.8 6.6 2.7 10 2.7 6.9 0 13.6-3.6 17.3-10l12.5-21.7c8.6 4.4 17.3 8.5 26.3 12.3 42.6 18 87.6 28.3 133.9 30.6V932c0 11 9 20 20 20s20-9 20-20v-25.2c46.3-2.3 91.2-12.5 133.9-30.6 8.9-3.8 17.7-7.9 26.3-12.3l12.5 21.7c3.7 6.4 10.4 10 17.3 10 3.4 0 6.8-0.9 10-2.7 9.6-5.5 12.9-17.7 7.3-27.3l-12.6-21.8c23.2-15.1 44.9-32.6 64.7-52.4 19.9-19.9 37.4-41.5 52.4-64.7l21.8 12.6c3.1 1.8 6.6 2.7 10 2.7 6.9 0 13.6-3.6 17.3-10 5.5-9.6 2.2-21.8-7.3-27.3L864 692.2c4.4-8.6 8.5-17.3 12.3-26.3 18-42.6 28.3-87.6 30.6-133.9H932c11 0 20-9 20-20s-9-20-20-20zM820.9 687.9c-0.4 0.6-0.8 1.2-1.2 1.9-0.3 0.6-0.7 1.2-0.9 1.8-15.2 25.8-33.7 49.9-55.5 71.7-21.8 21.7-45.8 40.3-71.7 55.5l-1.8 0.9c-0.7 0.4-1.3 0.8-1.9 1.2-53 30.3-113.2 46.4-175.9 46.4s-122.9-16.1-175.9-46.4c-0.6-0.4-1.2-0.8-1.9-1.2-0.6-0.3-1.2-0.7-1.8-0.9-25.8-15.2-49.9-33.7-71.7-55.5-21.7-21.7-40.3-45.8-55.5-71.7l-0.9-1.8c-0.4-0.7-0.8-1.3-1.2-1.9-30.3-53-46.4-113.2-46.4-175.9s16.1-122.9 46.4-175.9l1.2-1.8c0.3-0.6 0.7-1.2 0.9-1.8 15.2-25.8 33.7-49.9 55.5-71.7 21.8-21.8 45.9-40.3 71.8-55.5l1.8-0.9c0.7-0.4 1.3-0.8 1.9-1.2 53-30.3 113.2-46.4 175.9-46.4S635 172.9 688 203.2c0.6 0.4 1.2 0.8 1.9 1.2l1.8 0.9c25.9 15.2 50 33.8 71.7 55.5 21.7 21.7 40.3 45.8 55.5 71.7l0.9 1.8c0.4 0.6 0.8 1.3 1.2 1.8 30.3 53 46.4 113.2 46.4 175.9-0.1 62.7-16.2 122.9-46.5 175.9z" fill="#515151" p-id="10819"></path></svg>