<?xml version="1.0" standalone="no"?><!DOCTYPE svg PUBLIC "-//W3C//DTD SVG 1.1//EN" "http://www.w3.org/Graphics/SVG/1.1/DTD/svg11.dtd"><svg t="1669017124027" class="icon" viewBox="0 0 1024 1024" version="1.1" xmlns="http://www.w3.org/2000/svg" p-id="12564" xmlns:xlink="http://www.w3.org/1999/xlink" width="200" height="200"><path d="M512 85.333333C277.333333 85.333333 85.333333 277.333333 85.333333 512s192 426.666667 426.666667 426.666667 426.666667-192 426.666667-426.666667S746.666667 85.333333 512 85.333333z m0 810.666667c-211.2 0-384-172.8-384-384S300.8 128 512 128s384 172.8 384 384-172.8 384-384 384z" fill="#515151" p-id="12565"></path><path d="M512 725.333333c117.333333 0 213.333333-96 213.333333-213.333333h-85.333333c0 70.4-57.6 128-128 128s-128-57.6-128-128h-85.333333c0 117.333333 96 213.333333 213.333333 213.333333z" fill="#515151" p-id="12566"></path><path d="M768 512v14.933333h85.333333V512c0-187.733333-153.6-341.333333-341.333333-341.333333v85.333333c140.8 0 256 113.066667 256 256z" fill="#515151" opacity=".6" p-id="12567"></path><path d="M768 526.933333C759.466667 661.333333 648.533333 768 512 768s-247.466667-106.666667-256-241.066667H170.666667C179.2 708.266667 328.533333 853.333333 512 853.333333s332.8-145.066667 341.333333-326.4h-85.333333z" fill="#515151" p-id="12568"></path><path d="M640 512h85.333333c-2.133333-117.333333-96-211.2-213.333333-211.2v85.333333c70.4 0 125.866667 55.466667 128 125.866667z" fill="#515151" opacity=".6" p-id="12569"></path></svg>