<?xml version="1.0" standalone="no"?><!DOCTYPE svg PUBLIC "-//W3C//DTD SVG 1.1//EN" "http://www.w3.org/Graphics/SVG/1.1/DTD/svg11.dtd"><svg t="1616054813530" class="icon" viewBox="0 0 1024 1024" version="1.1" xmlns="http://www.w3.org/2000/svg" p-id="853" xmlns:xlink="http://www.w3.org/1999/xlink" width="200" height="200"><defs><style type="text/css"></style></defs><path d="M95.743954 952.636499h914.090232a14.360374 14.360374 0 0 1 14.165326 13.775231v43.812551a14.019041 14.019041 0 0 1-14.140945 13.775231H38.521886a14.238469 14.238469 0 0 1-14.140945-14.140945V38.521886A14.360374 14.360374 0 0 1 38.156172 24.380941h43.812551c7.631234 0 13.775232 6.436568 13.775231 14.140945v914.114613zM163.839922 402.529332c0-20.284943 14.969898-36.79084 35.206078-36.790839h69.071206c19.455991 0 35.206078 16.993516 35.206078 36.81522v438.369315c0.097524 9.801138-3.535236 19.309705-10.215614 26.209511a33.840746 33.840746 0 0 1-24.990464 10.60571H199.070381c-19.382848-0.219428-35.011031-16.505897-35.206078-36.815221V402.529332z m209.212853-269.482538c0-19.6998 14.994279-35.49865 35.206078-35.49865h69.071205a35.596174 35.596174 0 0 1 35.206079 35.49865v709.192805c0.097524 9.508567-3.63276 18.627039-10.215614 25.307416A34.303984 34.303984 0 0 1 477.37882 877.713868h-69.071205c-19.358467 0-35.108555-15.920754-35.206078-35.596174V133.022413z m232.594175 415.378088c0-20.089895 14.945517-36.400745 35.157316-36.400745h69.022444c19.455991 0 35.181698 15.701326 35.181697 36.400745v292.912622c0.097524 9.801138-3.63276 19.1878-10.288757 25.990083A33.621317 33.621317 0 0 1 709.729186 877.713868h-68.998063a33.645698 33.645698 0 0 1-24.89294-10.410662 37.205316 37.205316 0 0 1-10.313138-25.990083V548.400501h0.097524z m209.115329-196.388478c0-19.334086 14.969898-35.059793 35.206078-35.059793h69.071205c19.455991 0 35.206078 16.091421 35.206079 35.059793v490.642052c0 19.334086-14.994279 35.059793-35.206079 35.059793h-69.071205a35.376745 35.376745 0 0 1-35.206078-35.059793V352.012023z" p-id="854"></path></svg>
