<svg t="1680772592602" class="icon" viewBox="0 0 1024 1024" version="1.1" xmlns="http://www.w3.org/2000/svg" p-id="1804" width="200" height="200"><path d="M488.704 139.636364h23.272727v744.727272h-23.272727z" opacity=".502" p-id="1805"></path><path d="M977.454545 139.636364a46.545455 46.545455 0 0 1 46.545455 46.545454v93.090909a46.545455 46.545455 0 0 1-46.545455 46.545455H605.090909a46.545455 46.545455 0 0 1-46.545454-46.545455V186.181818a46.545455 46.545455 0 0 1 46.545454-46.545454h372.363636zM395.636364 139.636364a46.545455 46.545455 0 0 1 46.545454 46.545454v93.090909a46.545455 46.545455 0 0 1-46.545454 46.545455H46.545455a46.545455 46.545455 0 0 1-46.545455-46.545455V186.181818a46.545455 46.545455 0 0 1 46.545455-46.545454h349.090909z" p-id="1806"></path><path d="M395.636364 884.363636h-139.636364a46.545455 46.545455 0 0 1-46.545455-46.545454v-93.090909a46.545455 46.545455 0 0 1 46.545455-46.545455h139.636364a46.545455 46.545455 0 0 1 46.545454 46.545455v93.090909a46.545455 46.545455 0 0 1-46.545454 46.545454zM395.636364 605.090909H116.363636a46.545455 46.545455 0 0 1-46.545454-46.545454v-93.09091a46.545455 46.545455 0 0 1 46.545454-46.545454h279.272728a46.545455 46.545455 0 0 1 46.545454 46.545454v93.09091a46.545455 46.545455 0 0 1-46.545454 46.545454zM605.090909 418.909091h279.272727a46.545455 46.545455 0 0 1 46.545455 46.545454v93.09091a46.545455 46.545455 0 0 1-46.545455 46.545454H605.090909a46.545455 46.545455 0 0 1-46.545454-46.545454v-93.09091a46.545455 46.545455 0 0 1 46.545454-46.545454zM605.090909 698.181818h139.636364a46.545455 46.545455 0 0 1 46.545454 46.545455v93.090909a46.545455 46.545455 0 0 1-46.545454 46.545454h-139.636364a46.545455 46.545455 0 0 1-46.545454-46.545454v-93.090909a46.545455 46.545455 0 0 1 46.545454-46.545455z" p-id="1807"></path></svg>
