<?xml version="1.0" standalone="no"?><!DOCTYPE svg PUBLIC "-//W3C//DTD SVG 1.1//EN" "http://www.w3.org/Graphics/SVG/1.1/DTD/svg11.dtd"><svg preserveAspectRatio="none meet" t="1660276547221" class="icon" viewBox="0 0 1638 1024" version="1.1" xmlns="http://www.w3.org/2000/svg" p-id="3460" xmlns:xlink="http://www.w3.org/1999/xlink" width="319.921875" height="200"><defs><style type="text/css">@font-face { font-family: feedback-iconfont; src: url("//at.alicdn.com/t/font_1031158_u69w8yhxdu.woff2?t=1630033759944") format("woff2"), url("//at.alicdn.com/t/font_1031158_u69w8yhxdu.woff?t=1630033759944") format("woff"), url("//at.alicdn.com/t/font_1031158_u69w8yhxdu.ttf?t=1630033759944") format("truetype"); }
</style></defs><path d="M1624.064 1009.664H14.677333V18.090667h1609.386667v991.573333z m-1604.266667-5.12h1599.146667V23.210667H19.797333v981.333333z" p-id="3461"></path><path d="M148.48 16.042667H11.264v137.216h10.922667V90.794667l6.485333-4.437334V33.450667h52.906667l4.437333-6.485334h62.464zM11.264 874.154667v137.216h137.216v-10.922667H86.016l-4.437333-6.485333H28.672v-52.906667l-6.485333-4.437333v-62.464zM1490.602667 1011.370667h137.216v-137.216h-10.922667v62.464l-6.826667 4.437333v52.906667h-52.906666l-4.096 6.485333h-62.464zM1627.818667 153.258667V16.042667h-137.216v10.922666H1553.066667l4.096 6.485334h52.906666v52.906666l6.826667 4.437334v62.464z" p-id="3462"></path></svg>
