<?xml version="1.0" standalone="no"?><!DOCTYPE svg PUBLIC "-//W3C//DTD SVG 1.1//EN" "http://www.w3.org/Graphics/SVG/1.1/DTD/svg11.dtd"><svg preserveAspectRatio="none meet" t="1660276540214" class="icon" viewBox="0 0 1638 1024" version="1.1" xmlns="http://www.w3.org/2000/svg" p-id="3305" xmlns:xlink="http://www.w3.org/1999/xlink" width="319.921875" height="200"><defs><style type="text/css">@font-face { font-family: feedback-iconfont; src: url("//at.alicdn.com/t/font_1031158_u69w8yhxdu.woff2?t=1630033759944") format("woff2"), url("//at.alicdn.com/t/font_1031158_u69w8yhxdu.woff?t=1630033759944") format("woff"), url("//at.alicdn.com/t/font_1031158_u69w8yhxdu.ttf?t=1630033759944") format("truetype"); }
</style></defs><path d="M1453.672972 11.602085H704.997267L694.077658 0.682476H1463.910105z" p-id="3306"></path><path d="M1637.600139 170.960131h-2.047427v-163.794137h-166.182802l-11.602085 12.625798H700.902414l-12.28456-12.625798h-651.764173L3.412378 41.63101v12.28456H1.364951v-13.308273L35.829968 4.777329h653.811599l12.28456 12.625798h754.817985l11.602084-12.625798h169.253943zM1027.797977 1024h-900.52652v-10.919609h900.52652z" p-id="3307"></path><path d="M1599.722744 1019.959745H2.047427v-120.798177h2.388664v118.409512h1594.26294l33.441303-34.465016v-21.497981l-6.824756-13.990749v-9.895896l12.284561-12.28456v3.412378L1627.704243 938.403914v8.872182l6.824756 13.990749v22.862932l-0.341238 0.341238zM3.753616 204.060196H1.364951V78.825929l8.189707-8.189707v-27.640261L38.55987 13.649511l1.364951 1.706189-27.981498 28.663974V71.659935l-8.189707 8.189707z" p-id="3308"></path><path d="M14.673225 63.128991H6.824756L3.07114 69.612508 6.824756 76.096026h7.848469l3.753615-6.483518zM1579.248477 1010.405087H1170.104371l-9.21342-9.213421h-140.248731l-13.308274 7.848469-1.364951-2.047426 13.99075-8.189707h141.954919l9.21342 9.21342h407.09668l36.171205-35.829968v-34.465016l20.13303-20.133029v-55.962997h2.047426v56.645472l-20.133029 20.474267v34.465017l-0.341238 0.341238zM1633.505285 966.72665l-51.868143 52.209381h17.744365l34.465016-36.171205z" p-id="3309"></path></svg>
