<?xml version="1.0" standalone="no"?><!DOCTYPE svg PUBLIC "-//W3C//DTD SVG 1.1//EN" "http://www.w3.org/Graphics/SVG/1.1/DTD/svg11.dtd"><svg preserveAspectRatio="none meet" t="1660276532569" class="icon" viewBox="0 0 1638 1024" version="1.1" xmlns="http://www.w3.org/2000/svg" p-id="2998" xmlns:xlink="http://www.w3.org/1999/xlink" width="319.921875" height="200"><defs><style type="text/css">@font-face { font-family: feedback-iconfont; src: url("//at.alicdn.com/t/font_1031158_u69w8yhxdu.woff2?t=1630033759944") format("woff2"), url("//at.alicdn.com/t/font_1031158_u69w8yhxdu.woff?t=1630033759944") format("woff"), url("//at.alicdn.com/t/font_1031158_u69w8yhxdu.ttf?t=1630033759944") format("truetype"); }
</style></defs><path d="M10.581333 109.226667h-10.24V53.589333L53.930667 0h68.266666v10.24H58.026667L10.581333 58.026667zM1638.058667 122.197333h-10.24V58.026667L1580.373333 10.24h-51.541333V0h55.637333l53.589334 53.589333zM1584.469333 1024h-68.266666v-10.24H1580.373333l47.445334-47.786667v-51.2h10.24v55.637334zM109.568 1024H53.930667L0.341333 970.410667v-68.266667h10.24V965.973333L58.026667 1013.76h51.541333z" p-id="2999"></path><path d="M1569.109333 1001.472h-335.189333L1225.386667 986.453333H419.84l-8.533333 14.677334h-344.746667L24.576 959.488V70.314667L66.56 28.330667h344.746667l8.533333 14.677333h805.546667l8.533333-14.677333h338.602667L1611.093333 70.314667V959.146667l-41.984 42.325333z m-333.141333-3.413333h331.776l39.936-39.936V71.68L1571.157333 31.744h-335.189333l-8.533333 14.677333H417.792l-8.533333-14.677333h-341.333334L27.989333 71.68v886.101333l39.936 39.936h341.333334l8.533333-14.677333h809.642667l8.533333 15.018667z" p-id="3000"></path><path d="M418.816 20.821333l8.533333 14.677334h790.528l8.533334-14.677334zM1226.410667 1008.981333l-8.533334-14.677333H427.349333l-8.533333 14.677333z" p-id="3001"></path></svg>
