<?xml version="1.0" standalone="no"?><!DOCTYPE svg PUBLIC "-//W3C//DTD SVG 1.1//EN" "http://www.w3.org/Graphics/SVG/1.1/DTD/svg11.dtd"><svg preserveAspectRatio="none meet" t="1660276507591" class="icon" viewBox="0 0 1638 1024" version="1.1" xmlns="http://www.w3.org/2000/svg" p-id="2220" xmlns:xlink="http://www.w3.org/1999/xlink" width="319.921875" height="200"><defs><style type="text/css">@font-face { font-family: feedback-iconfont; src: url("//at.alicdn.com/t/font_1031158_u69w8yhxdu.woff2?t=1630033759944") format("woff2"), url("//at.alicdn.com/t/font_1031158_u69w8yhxdu.woff?t=1630033759944") format("woff"), url("//at.alicdn.com/t/font_1031158_u69w8yhxdu.ttf?t=1630033759944") format("truetype"); }
</style></defs><path d="M1596.416 1018.88H8.533333V85.333333l41.301334-44.373333h344.746666l33.450667-34.133333h1205.248v965.632l-36.864 46.421333z m-1584.469333-3.413333h1582.762666l35.157334-44.373334V10.24H429.397333L395.946667 44.373333H51.2L11.946667 86.698667v928.768z" p-id="2221"></path><path d="M243.712 3.413333l-30.72 30.72h27.306667l30.72-30.72z" p-id="2222"></path><path d="M281.258667 3.413333l-30.72 30.72h27.306666l30.72-30.72z" p-id="2223"></path><path d="M318.805333 3.413333l-30.72 30.72h27.306667l30.72-30.72z" p-id="2224"></path><path d="M356.352 3.413333l-30.72 30.72h27.306667l30.72-30.72z" p-id="2225"></path><path d="M393.898667 3.413333l-30.72 30.72h27.306666l30.72-30.72z" p-id="2226"></path><path d="M15.018667 126.976h-10.24V83.968L47.786667 37.205333h92.842666v10.24H52.224L15.018667 88.064zM70.997333 1022.293333H4.437333v-57.002666h10.24v46.762666h56.32zM1597.781333 1021.610667h-74.752v-10.24h69.973334l33.450666-41.984v-51.882667h10.24V972.8zM1636.693333 51.882667h-10.24V12.288h-41.984v-10.24h52.224z" p-id="2227"></path></svg>
