<?xml version="1.0" standalone="no"?><!DOCTYPE svg PUBLIC "-//W3C//DTD SVG 1.1//EN" "http://www.w3.org/Graphics/SVG/1.1/DTD/svg11.dtd"><svg t="1666776587380" class="icon" viewBox="0 0 1024 1024" version="1.1" xmlns="http://www.w3.org/2000/svg" p-id="15431" xmlns:xlink="http://www.w3.org/1999/xlink" width="200" height="200"><path d="M101.085 885.391V100.05H64.012v828.169h895.769v-42.828z" fill="#333333" p-id="15432"></path><path d="M206.022 747.816H180.15v10.707h25.872v0.324h9.268v-0.324h25.872v-10.707H215.29v-48.942h79.358V496.906l-79.358-0.612v-50.401h25.872v-10.707H180.15v10.707h25.872v50.329l-79.358-0.612v203.264h79.358v48.942zM145.2 517.167l130.911 1.011V677.46H145.2V517.167z" fill="#333333" p-id="15433"></path><path d="M415.013 456.228h-25.872v10.707h25.872v0.324h9.268v-0.324h25.872v-10.707h-25.872v-49.267h79.358V269.13l-79.358-0.395v-50.183h25.872v-10.707h-61.012v10.707h25.872v50.137l-79.358-0.395v138.667h79.358v49.267z m-60.822-166.429l130.911 0.652v95.096H354.191v-95.748z" fill="#333333" p-id="15434"></path><path d="M622.159 750.814h9.268v10.511h79.357V431.609l-79.357-1.046v15.33h-9.268v-15.452l-79.358-1.046v331.929h79.358v-10.51z m-70.09-103.993h9.268V451.055l130.911 1.726v194.041h9.268v21.414h-9.268v71.676H561.337v-71.676h-9.268v-21.415z" fill="#333333" p-id="15435"></path><path d="M631.427 445.893v-87.456h25.871V347.73h-61.012v10.707h25.873v87.456zM622.159 750.814v59.452h-25.873v10.707h25.873v0.324h9.268v-0.324h25.871v-10.707h-25.871v-59.452z" fill="#333333" p-id="15436"></path><path d="M824.67 436.674h9.268v6.051h79.358V339.758l-79.358-0.277v11.199h-9.268v-11.232l-79.357-0.277v103.552h79.357v-6.049z m-60.821-76.023l130.911 0.456v60.203H763.849v-60.659z" fill="#333333" p-id="15437"></path><path d="M833.938 350.68V289.416h25.872v-10.707h-61.012v10.707h25.872v61.264zM824.67 436.674V591.339h-25.872v10.707h25.872v0.324h9.268v-0.324h25.872v-10.707h-25.872V436.674z" fill="#333333" p-id="15438"></path><path d="M692.248 668.235h9.268v-21.414H552.069v21.414h9.268z" fill="#333333" p-id="15439"></path></svg>