<?xml version="1.0" standalone="no"?><!DOCTYPE svg PUBLIC "-//W3C//DTD SVG 1.1//EN" "http://www.w3.org/Graphics/SVG/1.1/DTD/svg11.dtd"><svg t="1644388374047" class="icon" viewBox="0 0 1303 1024" version="1.1" xmlns="http://www.w3.org/2000/svg" p-id="4486" xmlns:xlink="http://www.w3.org/1999/xlink" width="254.4921875" height="200"><defs><style type="text/css"></style></defs><path d="M1303.272727 188.881455V82.106182h-8.704l-30.394182 32.861091c-4.328727 4.096-8.704 4.096-13.032727 4.096h-13.032727c-4.328727 0-13.032727-4.096-13.032727-8.192l-21.736728-16.430546c-4.328727-4.096-8.657455-8.238545-13.032727-8.238545h-26.065454c-4.328727 0-13.032727-4.096-17.361455-8.192L1099.077818 12.334545c-4.328727-4.142545-8.657455-8.238545-13.032727-8.238545L1055.650909 0h-8.704l-47.755636 16.430545v24.669091l-8.704 53.341091c0 4.096-4.328727 8.192-4.328728 8.192L977.454545 110.871273c-4.328727 4.096-8.704 4.096-13.032727 4.096h-8.704c-8.657455 0-17.361455 4.096-17.361454 12.334545l-8.704 20.48a18.199273 18.199273 0 0 0 17.408 24.669091h21.690181l17.408-12.334545 13.032728 8.238545c8.657455 8.192 4.328727 24.669091-8.704 28.718546l-39.098182 12.334545v24.669091h-39.098182l-8.704 24.622545-34.722909-4.142545c-8.704 0-13.032727 4.142545-17.408 8.238545l-8.657455 12.288 13.032728 12.334546-34.769455 36.957091c-4.328727 4.096-8.704 4.096-13.032727 4.096h-52.130909c-4.328727 0-8.704 0-13.032727 4.096l-13.032728 12.334545c-4.328727 4.096-8.704 4.096-13.032727 4.096h-39.098182c-4.328727 0-8.704 0-13.032727-4.096l-26.065455-20.526545c-4.328727 0-4.328727-4.096-8.704-4.096l-95.557818-4.096c-4.328727 0-8.704-4.142545-13.032727-8.238546l-52.130909-65.675636c-4.328727-4.142545-8.704-8.238545-13.032727-8.238546h-4.328728c-8.704 0-17.408-8.192-17.408-16.430545v-28.718545l-4.328727-24.669091c0-4.096-4.328727-8.192-8.704-12.288H390.981818c-4.328727 0-8.704-4.096-8.704-8.238546l-8.657454-24.622545H351.883636l-13.032727 16.430545h-21.736727v20.526546H273.687273c-4.328727 0-13.032727 4.096-13.032728 8.238545l-17.361454 24.622546c-4.375273 4.096-8.704 8.192-17.408 8.192h-21.690182c-8.704 0-17.408 8.238545-17.408 16.430545v24.669091c0 4.096 0 8.192-4.328727 8.192l-13.032727 20.48c-4.328727 4.189091-4.328727 8.238545-13.032728 8.238545l-47.802182 12.334546H34.769455c-4.375273 0-8.704 4.096-13.032728 4.096l-13.032727 16.430545C0 320.279273 0 324.421818 0 328.471273v20.526545h17.361455V414.72c0 4.096 4.375273 8.192 8.704 12.288l30.394181 24.669091c4.375273 4.096 4.375273 4.096 4.375273 8.192l8.657455 28.765091v53.341091H52.130909v32.861091c0 4.096 4.328727 8.192 4.328727 12.334545l39.098182 32.814546h21.736727l86.900364 82.152727 4.328727 4.096 73.867637 28.718545 13.032727-16.384h26.065455c8.657455 0 13.032727 4.096 17.361454 8.192l13.032727 24.669091c4.328727 4.049455 8.704 8.192 17.361455 8.192H390.981818c4.328727 0 4.328727 0 8.704-4.142545l43.426909-24.622546c4.328727-4.096 13.032727-4.096 17.361455 0l39.098182 16.430546v-16.430546h21.736727l8.704 24.669091v36.910546c0 4.142545 0 8.238545-4.375273 12.334545l-21.690182 20.526546v20.526545l17.361455 4.096c4.328727 0 13.032727 4.142545 13.032727 12.334545l4.328727 12.334546v28.718545l43.473455 28.765091a13.824 13.824 0 0 0 8.657455 4.096h8.704c8.704 0 17.361455-8.238545 17.361454-16.430545s8.704-16.430545 17.408-16.430546h43.426909c4.328727 0 8.704 0 13.032727-4.096l13.032728-8.192c8.704-4.142545 17.361455-4.142545 26.065454 4.096l30.394182 32.814546c4.375273 4.142545 8.704 8.238545 13.032727 8.238545h52.130909l4.375273 20.526546-30.440727 32.861091v20.48l21.736727 12.334545c8.704 4.142545 21.736727 0 26.065455-8.192l21.736727-28.765091c4.328727-4.096 4.328727-8.192 4.328727-12.288l-4.328727-28.765091c0-8.192 4.328727-20.48 13.032727-20.48l30.394182-8.238545h8.704l17.361455 4.096 21.736727-8.192 4.328727-20.526546c0-8.238545 8.704-12.334545 13.032727-12.334545l26.065455-8.238546c4.328727 0 4.328727 0 8.704-4.096l82.525091-69.818181c4.328727-4.096 4.328727-4.096 4.328727-8.192l13.032727-61.579637c0-4.096 4.375273-8.192 8.704-12.334545l21.736728-12.288c4.328727-4.142545 8.657455-12.334545 8.657454-16.430546l-8.657454-73.914181c0-4.096-4.375273-8.192-8.704-12.334546l-17.361455-12.288c-4.375273-4.142545-8.704-8.238545-8.704-12.334545l-4.328727-16.430546c0-4.096-4.375273-8.192-8.704-12.288l-30.394182-24.669091c-8.704-4.096-8.704-16.430545-4.375273-24.622545l17.408-28.765091c0-4.096 4.328727-4.096 8.657455-8.192l34.769454-12.334546v-20.48h-34.769454c-4.328727 0-13.032727 4.096-17.361455 8.192l-13.032727 16.430546-13.032727 12.288-4.328727-20.48-30.440728-8.238546L1081.716364 344.901818l8.704 12.334546v24.622545c0 4.096 0 12.334545 4.328727 12.334546l4.328727 4.096a29.090909 29.090909 0 0 0 26.065455 0l60.834909-57.483637c4.328727-4.096 4.328727-8.238545 4.328727-16.430545l-4.328727-16.430546 39.098182-4.096c4.328727 0 8.704-4.096 13.032727-4.096l34.769454-32.861091c4.328727-4.096 8.657455-12.334545 4.328728-20.526545l-21.736728-45.149091 17.408-16.430545H1303.272727v4.096z"  p-id="4487"></path><path d="M407.272727 551.377455a22.481455 22.481455 0 0 1-17.221818-8.378182c-0.791273-0.930909-1.768727-1.954909-2.792727-3.211637a482.397091 482.397091 0 0 1-29.323637-37.236363 302.917818 302.917818 0 0 1-18.01309-28.392728C330.565818 457.122909 325.818182 442.973091 325.818182 432.128c0-10.472727 2.141091-20.619636 6.376727-30.208 4.096-9.216 10.007273-17.547636 17.454546-24.669091 7.447273-7.121455 16.197818-12.706909 25.879272-16.616727a84.526545 84.526545 0 0 1 63.488 0c9.681455 3.909818 18.385455 9.495273 25.879273 16.616727 7.447273 7.121455 13.358545 15.453091 17.454545 24.669091 4.189091 9.588364 6.376727 19.735273 6.376728 30.254545 0 10.798545-4.747636 24.948364-14.103273 41.984a298.542545 298.542545 0 0 1-17.966545 28.392728 469.504 469.504 0 0 1-29.323637 37.236363l-2.699636 3.025455a22.714182 22.714182 0 0 1-17.268364 8.564364H407.272727zM672.023273 787.688727a16.523636 16.523636 0 0 1-12.939637-6.702545l-2.094545-2.56a384.186182 384.186182 0 0 1-22.016-29.789091 245.154909 245.154909 0 0 1-13.498182-22.714182c-6.981818-13.637818-10.565818-24.948364-10.565818-33.652364a62.510545 62.510545 0 0 1 37.282909-57.204363c7.540364-3.258182 15.546182-4.887273 23.784727-4.933818h0.046546a59.950545 59.950545 0 0 1 43.194182 18.245818 61.998545 61.998545 0 0 1 17.873454 43.892363c0 8.704-3.537455 20.014545-10.565818 33.652364-3.630545 6.981818-8.145455 14.615273-13.498182 22.714182a373.946182 373.946182 0 0 1-22.016 29.789091l-2.001454 2.420363a16.663273 16.663273 0 0 1-12.939637 6.842182h-0.093091zM896 669.556364a34.676364 34.676364 0 0 1-25.786182-11.729455l-4.235636-4.514909a682.961455 682.961455 0 0 1-44.032-52.130909 421.143273 421.143273 0 0 1-26.996364-39.749818c-14.010182-23.877818-21.131636-43.659636-21.131636-58.833455 0-14.661818 3.258182-28.858182 9.588363-42.263273a108.916364 108.916364 0 0 1 26.158546-34.583272c11.217455-9.960727 24.296727-17.826909 38.865454-23.272728a134.795636 134.795636 0 0 1 47.569455-8.610909h0.046545c16.523636 0 32.488727 2.885818 47.569455 8.610909 14.568727 5.445818 27.601455 13.312 38.818909 23.272728 11.170909 10.007273 20.014545 21.597091 26.205091 34.583272 6.330182 13.358545 9.541818 27.601455 9.541818 42.263273 0 15.173818-7.121455 34.955636-21.131636 58.833455-7.214545 12.241455-16.290909 25.6-26.996364 39.703272a664.715636 664.715636 0 0 1-44.032 52.177455l-3.956363 4.235636a35.002182 35.002182 0 0 1-25.925819 12.008728h-0.139636z" fill="#8A90A2" p-id="4488"></path><path d="M1066.356364 850.385455c0 2.932364-7.447273 2.932364-7.447273 5.864727v23.319273c0 2.932364 0 5.864727 7.447273 8.750545l29.556363 17.547636 22.248728-11.682909c0-2.932364 7.400727-2.932364 7.400727-5.864727l14.801454-61.253818h-37.050181l-37.003637 23.365818z" fill="#C1CADC" p-id="4489"></path></svg>