<?xml version="1.0" standalone="no"?><!DOCTYPE svg PUBLIC "-//W3C//DTD SVG 1.1//EN" "http://www.w3.org/Graphics/SVG/1.1/DTD/svg11.dtd"><svg t="1658301542532" class="icon" viewBox="0 0 1024 1024" version="1.1" xmlns="http://www.w3.org/2000/svg" p-id="957" xmlns:xlink="http://www.w3.org/1999/xlink" width="200" height="200"><defs><style type="text/css">@font-face { font-family: feedback-iconfont; src: url("//at.alicdn.com/t/font_1031158_u69w8yhxdu.woff2?t=1630033759944") format("woff2"), url("//at.alicdn.com/t/font_1031158_u69w8yhxdu.woff?t=1630033759944") format("woff"), url("//at.alicdn.com/t/font_1031158_u69w8yhxdu.ttf?t=1630033759944") format("truetype"); }
</style></defs><path d="M-15.88624103 59.48859927h301.64928058c249.87872281 0 452.47392089 202.59519808 452.4739209 452.4739209S535.64176236 964.43644107 285.76303955 964.43644107H-15.88624103V59.48859927z" fill="#e6e6e6" p-id="958"></path><path d="M285.76303955 97.19475935H-15.88624103v829.53552164h301.64928058c229.06492245 0 414.76776082-185.70283837 414.76776081-414.76776082S514.82796201 97.19475935 285.76303955 97.19475935zM-15.88624103 59.48859927v904.9478418h301.64928058c249.87872281 0 452.47392089-202.59519808 452.4739209-452.4739209S535.64176236 59.48859927 285.76303955 59.48859927H-15.88624103z" fill="#e7e3e3" p-id="959"></path><path d="M113.40818187 377.31382255l134.46016681 134.46016682-134.46016681 134.42246066a9.42654002 9.42654002 0 0 0 0 13.34798068l13.31027449 13.3102745a9.42654002 9.42654002 0 0 0 13.34798065 0l147.8081475-147.77044133a18.85308003 18.85308003 0 0 0 0-26.65825517l-147.8081475-147.8081475a9.42654002 9.42654002 0 0 0-13.34798065 0l-13.31027449 13.34798069a9.42654002 9.42654002 0 0 0 0 13.34798065z" fill="#646A73" p-id="960"></path><path d="M280.93665106 377.31382255l134.42246066 134.46016682-134.42246066 134.42246066a9.42654002 9.42654002 0 0 0 0 13.34798068l13.3102745 13.3102745a9.42654002 9.42654002 0 0 0 13.34798068 0l147.80814749-147.77044133a18.85308003 18.85308003 0 0 0 0-26.65825517l-147.80814749-147.8081475a9.42654002 9.42654002 0 0 0-13.34798068 0l-13.3102745 13.34798069a9.42654002 9.42654002 0 0 0 0 13.34798065z" fill="#646A73" p-id="961"></path></svg>