<?xml version="1.0" standalone="no"?><!DOCTYPE svg PUBLIC "-//W3C//DTD SVG 1.1//EN" "http://www.w3.org/Graphics/SVG/1.1/DTD/svg11.dtd"><svg t="1668586329359" class="icon" viewBox="0 0 1024 1024" version="1.1" xmlns="http://www.w3.org/2000/svg" p-id="4239" xmlns:xlink="http://www.w3.org/1999/xlink" width="200" height="200"><path d="M320 64m0 0l128 0q0 0 0 0l0 128q0 0 0 0l-128 0q0 0 0 0l0-128q0 0 0 0Z" fill="#515151" p-id="4240"></path><path d="M448 64m0 0l128 0q0 0 0 0l0 128q0 0 0 0l-128 0q0 0 0 0l0-128q0 0 0 0Z" fill="#515151" p-id="4241"></path><path d="M576 64m0 0l128 0q0 0 0 0l0 128q0 0 0 0l-128 0q0 0 0 0l0-128q0 0 0 0Z" fill="#515151" p-id="4242"></path><path d="M704 64m0 0l128 0q0 0 0 0l0 128q0 0 0 0l-128 0q0 0 0 0l0-128q0 0 0 0Z" fill="#515151" p-id="4243"></path><path d="M832 64m0 0l128 0q0 0 0 0l0 128q0 0 0 0l-128 0q0 0 0 0l0-128q0 0 0 0Z" fill="#515151" p-id="4244"></path><path d="M192 192m0 0l128 0q0 0 0 0l0 128q0 0 0 0l-128 0q0 0 0 0l0-128q0 0 0 0Z" fill="#515151" p-id="4245"></path><path d="M320 192m0 0l128 0q0 0 0 0l0 128q0 0 0 0l-128 0q0 0 0 0l0-128q0 0 0 0Z" fill="#515151" p-id="4246"></path><path d="M64 192m0 0l128 0q0 0 0 0l0 128q0 0 0 0l-128 0q0 0 0 0l0-128q0 0 0 0Z" fill="#515151" p-id="4247"></path><path d="M448 192m0 0l128 0q0 0 0 0l0 128q0 0 0 0l-128 0q0 0 0 0l0-128q0 0 0 0Z" fill="#515151" p-id="4248"></path><path d="M576 192m0 0l128 0q0 0 0 0l0 128q0 0 0 0l-128 0q0 0 0 0l0-128q0 0 0 0Z" fill="#515151" p-id="4249"></path><path d="M832 192m0 0l128 0q0 0 0 0l0 128q0 0 0 0l-128 0q0 0 0 0l0-128q0 0 0 0Z" fill="#515151" p-id="4250"></path><path d="M704 192m0 0l128 0q0 0 0 0l0 128q0 0 0 0l-128 0q0 0 0 0l0-128q0 0 0 0Z" fill="#515151" p-id="4251"></path><path d="M64 320m0 0l128 0q0 0 0 0l0 128q0 0 0 0l-128 0q0 0 0 0l0-128q0 0 0 0Z" fill="#515151" p-id="4252"></path><path d="M192 320m0 0l128 0q0 0 0 0l0 128q0 0 0 0l-128 0q0 0 0 0l0-128q0 0 0 0Z" fill="#515151" p-id="4253"></path><path d="M320 320m0 0l128 0q0 0 0 0l0 128q0 0 0 0l-128 0q0 0 0 0l0-128q0 0 0 0Z" fill="#515151" p-id="4254"></path><path d="M448 320m0 0l128 0q0 0 0 0l0 128q0 0 0 0l-128 0q0 0 0 0l0-128q0 0 0 0Z" fill="#515151" p-id="4255"></path><path d="M704 320m0 0l128 0q0 0 0 0l0 128q0 0 0 0l-128 0q0 0 0 0l0-128q0 0 0 0Z" fill="#515151" p-id="4256"></path><path d="M576 320m0 0l128 0q0 0 0 0l0 128q0 0 0 0l-128 0q0 0 0 0l0-128q0 0 0 0Z" fill="#515151" p-id="4257"></path><path d="M832 320m0 0l128 0q0 0 0 0l0 128q0 0 0 0l-128 0q0 0 0 0l0-128q0 0 0 0Z" fill="#515151" p-id="4258"></path><path d="M192 448m0 0l128 0q0 0 0 0l0 128q0 0 0 0l-128 0q0 0 0 0l0-128q0 0 0 0Z" fill="#515151" p-id="4259"></path><path d="M320 448m0 0l128 0q0 0 0 0l0 128q0 0 0 0l-128 0q0 0 0 0l0-128q0 0 0 0Z" fill="#515151" p-id="4260"></path><path d="M64 448m0 0l128 0q0 0 0 0l0 128q0 0 0 0l-128 0q0 0 0 0l0-128q0 0 0 0Z" fill="#515151" p-id="4261"></path><path d="M448 448m0 0l128 0q0 0 0 0l0 128q0 0 0 0l-128 0q0 0 0 0l0-128q0 0 0 0Z" fill="#515151" p-id="4262"></path><path d="M576 448m0 0l128 0q0 0 0 0l0 128q0 0 0 0l-128 0q0 0 0 0l0-128q0 0 0 0Z" fill="#515151" p-id="4263"></path><path d="M832 448m0 0l128 0q0 0 0 0l0 128q0 0 0 0l-128 0q0 0 0 0l0-128q0 0 0 0Z" fill="#515151" p-id="4264"></path><path d="M704 448m0 0l128 0q0 0 0 0l0 128q0 0 0 0l-128 0q0 0 0 0l0-128q0 0 0 0Z" fill="#515151" p-id="4265"></path><path d="M64 576m0 0l128 0q0 0 0 0l0 128q0 0 0 0l-128 0q0 0 0 0l0-128q0 0 0 0Z" fill="#515151" p-id="4266"></path><path d="M192 576m0 0l128 0q0 0 0 0l0 128q0 0 0 0l-128 0q0 0 0 0l0-128q0 0 0 0Z" fill="#515151" p-id="4267"></path><path d="M320 576m0 0l128 0q0 0 0 0l0 128q0 0 0 0l-128 0q0 0 0 0l0-128q0 0 0 0Z" fill="#515151" p-id="4268"></path><path d="M448 576m0 0l128 0q0 0 0 0l0 128q0 0 0 0l-128 0q0 0 0 0l0-128q0 0 0 0Z" fill="#515151" p-id="4269"></path><path d="M704 576m0 0l128 0q0 0 0 0l0 128q0 0 0 0l-128 0q0 0 0 0l0-128q0 0 0 0Z" fill="#515151" p-id="4270"></path><path d="M576 576m0 0l128 0q0 0 0 0l0 128q0 0 0 0l-128 0q0 0 0 0l0-128q0 0 0 0Z" fill="#515151" p-id="4271"></path><path d="M832 576m0 0l128 0q0 0 0 0l0 128q0 0 0 0l-128 0q0 0 0 0l0-128q0 0 0 0Z" fill="#515151" p-id="4272"></path><path d="M192 704m0 0l128 0q0 0 0 0l0 128q0 0 0 0l-128 0q0 0 0 0l0-128q0 0 0 0Z" fill="#515151" p-id="4273"></path><path d="M320 704m0 0l128 0q0 0 0 0l0 128q0 0 0 0l-128 0q0 0 0 0l0-128q0 0 0 0Z" fill="#515151" p-id="4274"></path><path d="M64 704m0 0l128 0q0 0 0 0l0 128q0 0 0 0l-128 0q0 0 0 0l0-128q0 0 0 0Z" fill="#515151" p-id="4275"></path><path d="M448 704m0 0l128 0q0 0 0 0l0 128q0 0 0 0l-128 0q0 0 0 0l0-128q0 0 0 0Z" fill="#515151" p-id="4276"></path><path d="M576 704m0 0l128 0q0 0 0 0l0 128q0 0 0 0l-128 0q0 0 0 0l0-128q0 0 0 0Z" fill="#515151" p-id="4277"></path><path d="M832 704m0 0l128 0q0 0 0 0l0 128q0 0 0 0l-128 0q0 0 0 0l0-128q0 0 0 0Z" fill="#515151" p-id="4278"></path><path d="M704 704m0 0l128 0q0 0 0 0l0 128q0 0 0 0l-128 0q0 0 0 0l0-128q0 0 0 0Z" fill="#515151" p-id="4279"></path><path d="M64 832m0 0l128 0q0 0 0 0l0 128q0 0 0 0l-128 0q0 0 0 0l0-128q0 0 0 0Z" fill="#515151" p-id="4280"></path><path d="M192 832m0 0l128 0q0 0 0 0l0 128q0 0 0 0l-128 0q0 0 0 0l0-128q0 0 0 0Z" fill="#515151" p-id="4281"></path><path d="M320 832m0 0l128 0q0 0 0 0l0 128q0 0 0 0l-128 0q0 0 0 0l0-128q0 0 0 0Z" fill="#515151" p-id="4282"></path><path d="M448 832m0 0l128 0q0 0 0 0l0 128q0 0 0 0l-128 0q0 0 0 0l0-128q0 0 0 0Z" fill="#515151" p-id="4283"></path></svg>