<?xml version="1.0" standalone="no"?><!DOCTYPE svg PUBLIC "-//W3C//DTD SVG 1.1//EN" "http://www.w3.org/Graphics/SVG/1.1/DTD/svg11.dtd"><svg t="1667963626005" class="icon" viewBox="0 0 1024 1024" version="1.1" xmlns="http://www.w3.org/2000/svg" p-id="2132" xmlns:xlink="http://www.w3.org/1999/xlink" width="200" height="200"><path d="M512 128l448 0 0 128-448 0L512 128zM512 448l377.6 0 70.4-128-448 0L512 448zM512 640l204.8 0 115.2-128-320 0L512 640zM512 832l89.6 0 70.4-128-160 0L512 832zM448 128l-448 0 0 128 448 0L448 128zM448 320l-448 0 64 128 384 0L448 320zM448 512l-358.4 0 102.4 128 256 0L448 512zM448 704l-211.2 0 64 128 147.2 0L448 704z" p-id="2133" fill="#515151"></path></svg>