<?xml version="1.0" encoding="UTF-8"?>
<svg width="30px" height="34px" viewBox="0 0 30 34" version="1.1" xmlns="http://www.w3.org/2000/svg" xmlns:xlink="http://www.w3.org/1999/xlink">
    <title>形状结合</title>
    <g id="看板" stroke="none" stroke-width="1" fill="none" fill-rule="evenodd">
        <path d="M29.9590958,13.6583467 C29.9859336,13.7074012 30,13.762419 30,13.8183352 L30,25.4349817 C30,25.8004712 29.8006048,26.1368467 29.4799655,26.312269 L15.7999425,33.7966342 C15.3015074,34.0693289 14.6984926,34.0693289 14.2000575,33.7966342 L0.520034507,26.312269 C0.199395169,26.1368467 -6.21374258e-16,25.8004712 0,25.4349817 L0,13.8183352 C-2.2545125e-17,13.6342402 0.149238417,13.4850018 0.333333333,13.4850018 C0.389249517,13.4850018 0.444267269,13.4990682 0.493321831,13.525906 L14.2000575,21.0248857 C14.6984926,21.2975805 15.3015074,21.2975805 15.7999425,21.0248857 L29.5066782,13.525906 C29.6681823,13.4375468 29.8707366,13.4968425 29.9590958,13.6583467 Z M15.7999425,0.204521054 L29.4654941,7.68096888 C29.6269983,7.76932809 29.686294,7.97188236 29.5979348,8.1333865 C29.5673531,8.18928398 29.5213916,8.23524551 29.4654941,8.26582712 L15.7999425,15.742275 C15.3015074,16.0149697 14.6984926,16.0149697 14.2000575,15.742275 L0.534505873,8.26582712 C0.373001729,8.17746792 0.313706041,7.97491365 0.402065249,7.8134095 C0.432646859,7.75751203 0.478608396,7.71155049 0.534505873,7.68096888 L14.2000575,0.204521054 C14.6984926,-0.0681736847 15.3015074,-0.0681736847 15.7999425,0.204521054 Z" id="形状结合" fill="#FFFFFF"></path>
    </g>
</svg>