<?xml version="1.0" encoding="UTF-8"?>
<svg width="807px" height="924px" viewBox="0 0 807 924" version="1.1" xmlns="http://www.w3.org/2000/svg" xmlns:xlink="http://www.w3.org/1999/xlink">
    <title>datains</title>
    <defs>
        <radialGradient cx="50%" cy="0%" fx="50%" fy="0%" r="113.337184%" gradientTransform="translate(0.500000,0.000000),scale(1.000000,0.882323),rotate(90.000000),translate(-0.500000,-0.000000)" id="radialGradient-1">
            <stop stop-color="#000000" offset="0%"></stop>
            <stop stop-color="#0871FF" offset="100%"></stop>
        </radialGradient>
        <path d="M909.049762,413.284766 C909.0766,413.33382 909.090666,413.388838 909.090666,413.444754 L909.090666,750.35386 C909.090666,750.71935 908.891271,751.055725 908.570632,751.231147 L512.845275,967.7332 C512.34684,968.005895 511.743826,968.005895 511.245391,967.7332 L115.520035,751.231147 C115.199395,751.055725 115,750.71935 115,750.35386 L115,413.444754 C115,413.260659 115.149238,413.111421 115.333333,413.111421 C115.38925,413.111421 115.444267,413.125487 115.493322,413.152325 L511.245391,629.668992 C511.743826,629.941687 512.34684,629.941687 512.845275,629.668992 L908.597344,413.152325 C908.758848,413.063966 908.961403,413.123262 909.049762,413.284766 Z M512.845275,56.2668001 L908.55616,272.760935 C908.717664,272.849294 908.77696,273.051849 908.688601,273.213353 C908.658019,273.26925 908.612058,273.315212 908.55616,273.345793 L512.845275,489.839929 C512.34684,490.112623 511.743826,490.112623 511.245391,489.839929 L115.534506,273.345793 C115.373002,273.257434 115.313706,273.05488 115.402065,272.893376 C115.432647,272.837478 115.478608,272.791517 115.534506,272.760935 L511.245391,56.2668001 C511.743826,55.9941053 512.34684,55.9941053 512.845275,56.2668001 Z" id="path-2"></path>
    </defs>
    <g id="管理" stroke="none" stroke-width="1" fill="none" fill-rule="evenodd">
        <g id="形状结合" transform="translate(-109.000000, -50.000000)">
            <use fill="url(#radialGradient-1)" fill-rule="evenodd" style="mix-blend-mode: lighten;" xlink:href="#path-2"></use>
            <use stroke="#979797" stroke-width="1.66666667" xlink:href="#path-2"></use>
            <path stroke="#0000FF" stroke-width="6" d="M911.589949,408.095433 L912.090666,750.35386 C912.090666,751.084839 911.891271,751.786704 911.531556,752.393536 C911.171841,753.000367 910.651807,753.512165 910.010528,753.86301 L910.010528,753.86301 L514.285172,970.365062 C512.889554,971.128607 511.201112,971.128607 509.805494,970.365062 L509.805494,970.365062 L114.080138,753.86301 C113.438859,753.512165 112.918825,753.000367 112.55911,752.393536 C112.199395,751.786704 112,751.084839 112,750.35386 L112,750.35386 L112,408.390115 L512.044504,626.687464 L911.589949,408.095433 Z M509.805494,53.634938 C511.201112,52.8713927 512.889554,52.8713927 514.285172,53.634938 L514.285172,53.634938 L914.800122,272.757386 L514.285172,492.471791 C512.889554,493.235336 511.201112,493.235336 509.805494,492.471791 L509.805494,492.471791 L109.290544,273.349343 Z"></path>
        </g>
    </g>
</svg>