<svg width="16" height="16" viewBox="0 0 16 16" xmlns="http://www.w3.org/2000/svg">
<path d="M12 2.00033C11.5933 2.00033 5.23004 2.00033 3.99954 2.00033C3.26316 2.00033 2.66666 2.59728 2.66666 3.33366V10.0003H10.6667V1.00033H12V11.0003C12 11.1844 11.8508 11.3337 11.6667 11.3337H3.99999C3.26362 11.3337 2.66666 11.9306 2.66666 12.667C2.66666 13.4034 3.26164 14.0003 3.99802 14.0003C6.32365 14.0003 12.2815 14.0003 13 14.0003C13.1841 14.0003 13.3333 13.8511 13.3333 13.667V5.33366H14.6667V14.667C14.6667 15.0352 14.3682 15.3337 14 15.3337H3.99999C2.52724 15.3337 1.33333 14.1437 1.33333 12.6709C1.33333 10.0477 1.33333 6.0493 1.33333 3.33243C1.33333 1.85967 2.52688 0.666992 3.99964 0.666992C5.02765 0.666992 9.06402 0.666992 11.0023 0.666992C11.5546 0.666992 12 1.11471 12 1.66699V2.00033Z" />
<path d="M4.33333 12.0003C4.14923 12.0003 3.99999 12.1496 3.99999 12.3337V13.0003C3.99999 13.1844 4.14923 13.3337 4.33333 13.3337H11.6667C11.8508 13.3337 12 13.1844 12 13.0003V12.3337C12 12.1496 11.8508 12.0003 11.6667 12.0003H4.33333Z"/>
</svg>
