<?xml version="1.0" standalone="no"?><!DOCTYPE svg PUBLIC "-//W3C//DTD SVG 1.1//EN" "http://www.w3.org/Graphics/SVG/1.1/DTD/svg11.dtd"><svg t="1574649229600" class="icon" viewBox="0 0 1024 1024" version="1.1" xmlns="http://www.w3.org/2000/svg" p-id="3752" xmlns:xlink="http://www.w3.org/1999/xlink" width="200" height="200"><defs><style type="text/css"></style></defs><path d="M942 191.9C939.8 128.9 748.1 78 512 78S84.2 128.9 82 191.9V831c0 63.5 192.5 115 430 115s430-51.5 430-115V191.9z m-56.7 393.8c-4.6 3.3-11.6 7.4-21.9 12.2-21.3 9.8-50.5 19.1-84.4 26.8-74 16.8-168.8 26-267 26s-193-9.2-267-26c-33.9-7.7-63.1-16.9-84.4-26.8-10.3-4.8-17.3-8.9-21.9-12.2 0.1-0.1 0.2-0.1 0.3-0.2h-7v-123c72.2 36.4 215.3 61.1 380 61.1s307.8-24.8 380-61.1v122.9h-7l0.3 0.3z m0-177c-4.6 3.3-11.6 7.4-21.9 12.2-21.3 9.8-50.5 19.1-84.4 26.8-74 16.8-168.8 26-267 26s-193-9.2-267-26c-33.9-7.7-63.1-16.9-84.4-26.8-10.3-4.8-17.3-8.9-21.9-12.2 0.1-0.1 0.2-0.1 0.3-0.2h-7V246.9c72.2 36.4 215.3 61.1 380 61.1s307.8-24.8 380-61.1v161.6h-7c0.1 0 0.2 0.1 0.3 0.2zM160.7 180.8C182 171 211.2 161.7 245 154c74-16.8 168.8-26 267-26s193 9.2 267 26c33.9 7.7 63.1 16.9 84.4 26.8 10.3 4.8 17.3 8.9 21.9 12.2-4.6 3.3-11.6 7.4-21.9 12.2C842 215 812.8 224.3 779 232c-74 16.8-168.8 26-267 26s-193-9.2-267-26c-33.9-7.7-63.1-16.9-84.4-26.8-10.3-4.8-17.3-8.9-21.9-12.2 4.7-3.3 11.7-7.4 22-12.2zM885.3 831c-4.6 3.3-11.6 7.4-21.9 12.2C842 853 812.8 862.3 779 870c-74 16.8-168.8 26-267 26s-193-9.2-267-26c-33.9-7.7-63.1-16.9-84.4-26.8-10.3-4.8-17.3-8.9-21.9-12.2 0.1-0.1 0.2-0.1 0.3-0.2h-7V639.5c72.2 36.4 215.3 61.1 380 61.1s307.8-24.8 380-61.1v191.3h-7c0.1 0.1 0.2 0.1 0.3 0.2z" fill="#cdcdcd" p-id="3753"></path></svg>