<?xml version="1.0" standalone="no"?><!DOCTYPE svg PUBLIC "-//W3C//DTD SVG 1.1//EN" "http://www.w3.org/Graphics/SVG/1.1/DTD/svg11.dtd"><svg class="icon" width="200px" height="200.00px" viewBox="0 0 1024 1024" version="1.1" xmlns="http://www.w3.org/2000/svg"><path d="M226.6 402.8L8.2 280.9 512 0l503.7 280.9-218.3 121.9 217.9 124-185.1 105.3 185.1 105.4L512 1024 8.8 737.5l185.1-105.3L8.8 526.8l217.8-124zM725.2 443L512 561.9 298.8 443l-147.2 83.7L512 731.9l360.4-205.2c0 0.1-147.2-83.7-147.2-83.7zM265.3 672.8l-113.7 64.7L512 942.7l360.4-205.2-113.7-64.7L512 813.3 265.3 672.8z" /></svg>