<?xml version="1.0" standalone="no"?><!DOCTYPE svg PUBLIC "-//W3C//DTD SVG 1.1//EN" "http://www.w3.org/Graphics/SVG/1.1/DTD/svg11.dtd"><svg class="icon" width="200px" height="200.00px" viewBox="0 0 1024 1024" version="1.1" xmlns="http://www.w3.org/2000/svg"><path d="M685 447.3c0-1.9 0.2-3.8 0.2-5.6 0-1.8-0.2-3.6-0.2-5.6V348c0-2 0.2-3.8 0.2-5.6 0-15.5-4.3-38.8-24.6-61.5-12.3-13.8-29.2-25.8-50.2-35.7-39.4-18.6-91.1-28.8-145.6-28.8s-106.3 10.2-145.6 28.8c-21 9.9-37.9 21.9-50.2 35.7-20.3 22.7-24.7 45.9-24.7 61.5 0 0.8-0.2 1.5-0.2 2.3v299h0.5c0.8 15.4 5.9 36.5 24.4 57.2 12.3 13.8 29.2 25.8 50.2 35.7 39.4 18.6 91.1 28.8 145.6 28.8s106.3-10.2 145.6-28.8c19-9 34.7-19.7 46.7-31.9H539.2c-11.9 0-22.5-5.4-29.6-13.9-14.4 1.8-29.5 2.7-44.9 2.7-46.4 0-89.8-8.2-122.2-23.1-30.3-13.6-38.5-27.6-38.5-30.4v-0.5c0-1 1.4-3.6 4.3-7.1 3.5 1.9 7.1 3.7 10.8 5.5 39.4 18.6 91.1 28.8 145.6 28.8 12.1 0 24-0.5 35.7-1.5 0.2-12.9 6.7-24.3 16.6-31.2-6-4.2-10.8-10-13.7-17.1-3.2-7.8-3.7-16.1-1.9-23.9-11.9 1.2-24.3 1.8-36.8 1.8-46.4 0-89.8-8.2-122.2-23.1-30.2-13.9-38.4-27.9-38.4-30.7v-0.5c0-1 1.4-3.6 4.3-7.1 3.5 1.9 7.1 3.7 10.8 5.5 39.4 18.6 91.1 28.8 145.6 28.8 19.8 0 39.3-1.4 57.9-4l61.4-61.3c7.3-7.3 17-11.3 27.4-11.3 10.4 0 20.1 4 27.4 11.4 15.2 15.2 15.2 40-0.1 55.2l-6.3 6.3H685v-17.7c0-1.9 0.2-3.8 0.2-5.6 0-1.8-0.2-3.6-0.2-5.6v-87.8zM342.5 311.5c32.5-14.9 75.9-23.1 122.3-23.1 46.4 0 89.8 8.2 122.3 23.1 29.6 13.6 37.6 27.2 38.4 30.5h-0.5v1.2c0 1.3-1.5 3.7-4.2 6.8-5.1 6-15.1 14.7-33.9 23.3-18.7 8.6-41 14.9-65.4 18.8-18 2.8-37.1 4.3-56.8 4.3-19.7 0-38.8-1.5-56.8-4.3-24.4-3.9-46.7-10.2-65.4-18.8-18.8-8.6-28.9-17.3-34-23.3-3.3-3.9-4.5-6.7-4.5-7.6 0.1-2.2 7.4-16.6 38.5-30.9zM587 472.8c-32.5 14.9-75.9 23.2-122.3 23.2-46.4 0-89.8-8.3-122.2-23.2-30.3-13.9-38.5-28-38.5-30.8v-0.2V441.5c0-1.1 1.4-3.7 4.5-7.3-0.8-0.4-1.6-0.9-2.4-1.3l2.6 1.3h0.2c3 1.9 6.7 3.7 10.4 5.4 39.4 18.6 91 28.8 145.5 28.8s106.2-10.2 145.6-28.8c3.6-1.7 7.1-3.5 10.5-5.3l-0.1-0.1c0.8-0.4 1.7-0.9 2.5-1.3-0.8 0.4-1.6 0.9-2.3 1.3 3.3 3.9 4.5 6.7 4.5 7.6-0.1 2.2-7.4 16.7-38.5 31z"  /><path d="M642 448.2s-0.1 0-0.1 0.1c0-0.1 0.1-0.1 0.1-0.1z"  /><path d="M748.8 768.5c-6.1 0-12.1-2.3-16.8-6.9-9.3-9.3-9.3-24.2 0-33.4l38.3-38.2H541.2c-13.1 0-23.7-10.9-23.7-24s10.6-24 23.7-24h286.4c9.6 0 18.3 5.9 21.9 14.8 3.7 8.9 1.6 19.1-5.1 25.9l-78.8 78.9c-4.7 4.6-10.7 6.9-16.8 6.9zM826.1 626h-285c-9.6 0-18.3-5.9-21.9-14.8-3.7-8.9-1.6-19.2 5.2-25.9l72.3-72.1c9.3-9.3 24.3-9.3 33.6 0s9.2 24.7 0 33.9L598.5 579H826c13.1 0 23.7 10.4 23.7 23.5S839.2 626 826.1 626z"  /></svg>