<svg width="16" height="16" viewBox="0 0 16 16" xmlns="http://www.w3.org/2000/svg">
<path d="M3.33333 5.33301V13.333H10V5.33301H3.33333ZM11.3333 4.66634V14.0737C11.3333 14.401 11.0548 14.6663 10.7111 14.6663H2.62222C2.27858 14.6663 2 14.401 2 14.0737V4.59227C2 4.26499 2.27858 3.99967 2.62222 3.99967H10.6667C11.0349 3.99967 11.3333 4.29815 11.3333 4.66634ZM13.8047 1.52827C13.9254 1.64891 14 1.81558 14 1.99967V10.333C14 10.5171 13.8508 10.6663 13.6667 10.6663H13C12.8159 10.6663 12.6667 10.5171 12.6667 10.333V2.66634H6.33333C6.14924 2.66634 6 2.5171 6 2.33301V1.66634C6 1.48225 6.14924 1.33301 6.33333 1.33301H13.3333C13.5174 1.33301 13.6841 1.40763 13.8047 1.52827Z"/>
</svg>
