<svg width="18" height="18" viewBox="0 0 18 18" fill="none" xmlns="http://www.w3.org/2000/svg">
<path fill-rule="evenodd" clip-rule="evenodd" d="M16.5 13.5C16.5 14.139 16.1108 14.6283 15.6838 14.9649C15.2483 15.3081 14.6646 15.5844 14.0101 15.8025C12.6934 16.2414 10.9221 16.5 9 16.5C7.07786 16.5 5.30656 16.2414 3.98986 15.8025C3.33543 15.5844 2.75172 15.3081 2.31622 14.9649C1.88917 14.6283 1.5 14.139 1.5 13.5V4.5C1.5 3.86104 1.88917 3.37169 2.31622 3.03514C2.75172 2.69192 3.33543 2.41564 3.98986 2.1975C5.30656 1.7586 7.07786 1.5 9 1.5C10.9221 1.5 12.6934 1.7586 14.0101 2.1975C14.6646 2.41564 15.2483 2.69192 15.6838 3.03514C16.1108 3.37169 16.5 3.86104 16.5 4.5V13.5ZM3 4.49995C3 4.49928 2.99999 4.49609 3.00229 4.48853C3.00484 4.48017 3.01112 4.46366 3.02631 4.43893C3.05814 4.38707 3.12306 4.3091 3.24468 4.21326C3.49231 4.0181 3.89712 3.80955 4.4642 3.62052C5.59052 3.24508 7.19422 3 9 3C10.8058 3 12.4095 3.24508 13.5358 3.62052C14.1029 3.80955 14.5077 4.0181 14.7553 4.21326C14.8769 4.3091 14.9419 4.38707 14.9737 4.43893C14.9889 4.46366 14.9952 4.48017 14.9977 4.48853C15 4.49609 15 4.49928 15 4.49995C15 4.49998 15 4.49991 15 4.49995C15 4.50083 14.9999 4.50429 14.9977 4.51147C14.9952 4.51983 14.9889 4.53634 14.9737 4.56107C14.9419 4.61293 14.8769 4.6909 14.7553 4.78674C14.5077 4.9819 14.1029 5.19045 13.5358 5.37948C12.4095 5.75492 10.8058 6 9 6C7.19422 6 5.59052 5.75492 4.4642 5.37948C3.89712 5.19045 3.49231 4.9819 3.24468 4.78674C3.12306 4.6909 3.05814 4.61293 3.02631 4.56107C3.01112 4.53634 3.00484 4.51983 3.00229 4.51147C3.00012 4.50435 3 4.50086 3 4.49995ZM15 6.39495C14.6991 6.54883 14.365 6.68421 14.0101 6.8025C12.6934 7.2414 10.9221 7.5 9 7.5C7.07786 7.5 5.30656 7.2414 3.98986 6.8025C3.63499 6.68421 3.30092 6.54883 3 6.39495V9C3 9.00091 3.00012 9.00435 3.00229 9.01147C3.00484 9.01983 3.01112 9.03634 3.02631 9.06107C3.05814 9.11293 3.12306 9.1909 3.24468 9.28674C3.49231 9.4819 3.89712 9.69045 4.4642 9.87948C5.59052 10.2549 7.19422 10.5 9 10.5C10.8058 10.5 12.4095 10.2549 13.5358 9.87948C14.1029 9.69045 14.5077 9.4819 14.7553 9.28674C14.8769 9.1909 14.9419 9.11293 14.9737 9.06107C14.9889 9.03634 14.9952 9.01983 14.9977 9.01147C14.9999 9.00429 15 9.00104 15 9.00017C15 9.00012 15 9.0002 15 9.00017V6.39495ZM15 10.8949C14.6991 11.0488 14.365 11.1842 14.0101 11.3025C12.6934 11.7414 10.9221 12 9 12C7.07786 12 5.30656 11.7414 3.98986 11.3025C3.63499 11.1842 3.30092 11.0488 3 10.8949V13.5C3 13.5007 2.99999 13.5039 3.00229 13.5115C3.00484 13.5198 3.01112 13.5363 3.02631 13.5611C3.05814 13.6129 3.12306 13.6909 3.24468 13.7867C3.49231 13.9819 3.89712 14.1905 4.4642 14.3795C5.59052 14.7549 7.19422 15 9 15C10.8058 15 12.4095 14.7549 13.5358 14.3795C14.1029 14.1905 14.5077 13.9819 14.7553 13.7867C14.8769 13.6909 14.9419 13.6129 14.9737 13.5611C14.9889 13.5363 14.9952 13.5198 14.9977 13.5115C15 13.5039 15 13.5007 15 13.5V10.8949Z" fill="#1F2329"/>
</svg>
