<svg width="20" height="20" viewBox="0 0 20 20" fill="none" xmlns="http://www.w3.org/2000/svg">
<path fill-rule="evenodd" clip-rule="evenodd" d="M9 1.5C7.07786 1.5 5.30656 1.7586 3.98986 2.1975C3.33543 2.41564 2.75172 2.69192 2.31622 3.03514C1.88917 3.37169 1.5 3.86104 1.5 4.5V13.5C1.5 14.139 1.88917 14.6283 2.31622 14.9649C2.75172 15.3081 3.33543 15.5844 3.98986 15.8025C5.30656 16.2414 7.07786 16.5 9 16.5C10.9221 16.5 12.6934 16.2414 14.0101 15.8025C14.6646 15.5844 15.2483 15.3081 15.6838 14.9649C16.1108 14.6283 16.5 14.139 16.5 13.5V4.5C16.5 3.86104 16.1108 3.37169 15.6838 3.03514C15.2483 2.69192 14.6646 2.41564 14.0101 2.1975C12.6934 1.7586 10.9221 1.5 9 1.5ZM15 6.39495C14.6991 6.54883 14.365 6.68421 14.0101 6.8025C12.6934 7.2414 10.9221 7.5 9 7.5C7.07786 7.5 5.30656 7.2414 3.98986 6.8025C3.63499 6.68421 3.30092 6.54883 3 6.39495V9C3 9.00091 3.00012 9.00435 3.00229 9.01147C3.00484 9.01983 3.01112 9.03634 3.02631 9.06107C3.05814 9.11293 3.12306 9.1909 3.24468 9.28674C3.49231 9.4819 3.89712 9.69045 4.4642 9.87948C5.59052 10.2549 7.19422 10.5 9 10.5C10.8058 10.5 12.4095 10.2549 13.5358 9.87948C14.1029 9.69045 14.5077 9.4819 14.7553 9.28674C14.8769 9.1909 14.9419 9.11293 14.9737 9.06107C14.9889 9.03634 14.9952 9.01983 14.9977 9.01147C14.9999 9.00429 15 9.00105 15 9.00017C15 9.0002 15 9.00012 15 9.00017V6.39495ZM15 10.8949C14.6991 11.0488 14.365 11.1842 14.0101 11.3025C12.6934 11.7414 10.9221 12 9 12C7.07786 12 5.30656 11.7414 3.98986 11.3025C3.63499 11.1842 3.30092 11.0488 3 10.8949V13.5C3 13.5007 2.99999 13.5039 3.00229 13.5115C3.00484 13.5198 3.01112 13.5363 3.02631 13.5611C3.05814 13.6129 3.12306 13.6909 3.24468 13.7867C3.49231 13.9819 3.89712 14.1905 4.4642 14.3795C5.59052 14.7549 7.19422 15 9 15C10.8058 15 12.4095 14.7549 13.5358 14.3795C14.1029 14.1905 14.5077 13.9819 14.7553 13.7867C14.8769 13.6909 14.9419 13.6129 14.9737 13.5611C14.9889 13.5363 14.9952 13.5198 14.9977 13.5115C15 13.5039 15 13.5007 15 13.5V10.8949Z" fill="#1F2329"/>
<g clip-path="url(#clip0_3097_94188)">
<path d="M15 19.5832C17.5313 19.5832 19.5834 17.5311 19.5834 14.9998C19.5834 12.4685 17.5313 10.4165 15 10.4165C12.4687 10.4165 10.4167 12.4685 10.4167 14.9998C10.4167 17.5311 12.4687 19.5832 15 19.5832Z" fill="#F54A45"/>
<path d="M14.7916 12.9165C14.6766 12.9165 14.5833 13.0098 14.5833 13.1248V15.6248C14.5833 15.7399 14.6766 15.8332 14.7916 15.8332H15.2083C15.3234 15.8332 15.4166 15.7399 15.4166 15.6248V13.1248C15.4166 13.0098 15.3234 12.9165 15.2083 12.9165H14.7916Z" fill="white"/>
<path d="M14.7916 16.2498C14.6766 16.2498 14.5833 16.3431 14.5833 16.4582V16.8748C14.5833 16.9899 14.6766 17.0832 14.7916 17.0832H15.2083C15.3234 17.0832 15.4166 16.9899 15.4166 16.8748V16.4582C15.4166 16.3431 15.3234 16.2498 15.2083 16.2498H14.7916Z" fill="white"/>
</g>
<defs>
<clipPath id="clip0_3097_94188">
<rect width="10" height="10" fill="white" transform="translate(10 10)"/>
</clipPath>
</defs>
</svg>
