<svg width="18" height="18" viewBox="0 0 18 18" fill="none" xmlns="http://www.w3.org/2000/svg">
<path d="M2.59281 0.75H13.2551C13.4256 0.75 13.5891 0.817729 13.7096 0.938288L15.9045 3.13314C16.025 3.2537 16.0928 3.41721 16.0928 3.58771V16.6072C16.0928 16.9622 15.805 17.25 15.4499 17.25H2.59281C2.23776 17.25 1.94995 16.9622 1.94995 16.6072V1.39286C1.94995 1.03782 2.23776 0.75 2.59281 0.75ZM3.49278 15.7073H14.5499V4.60714H12.4607C12.3364 4.60714 12.2357 4.50641 12.2357 4.38215V2.29296H3.49278V15.7073ZM12.9381 6.24172C13.0143 6.14312 12.944 6 12.8194 6H11.3236C11.2771 6 11.2333 6.02152 11.2049 6.05828L8.88122 8.75813L9.93744 10.125L12.9381 6.24172ZM8.88122 8.75813L8.88332 8.76083L9.93744 10.125L8.88332 11.4892L8.88122 11.4918L6.79494 14.1917C6.76654 14.2285 6.7227 14.25 6.67625 14.25H5.18038C5.05578 14.25 4.9855 14.1069 5.06169 14.0083L7.99157 10.2167C8.03327 10.1627 8.03327 10.0873 7.99157 10.0333L5.06172 6.24172C4.98553 6.14312 5.05581 6 5.18041 6H6.67626C6.72271 6 6.76655 6.02152 6.79495 6.05828L8.88122 8.75813ZM11.2049 14.1917L8.88122 11.4918L9.93744 10.125L12.9381 14.0083C13.0143 14.1069 12.944 14.25 12.8195 14.25H11.3236C11.2771 14.25 11.2333 14.2285 11.2049 14.1917Z" fill="#1F2329"/>
</svg>
