<svg width="18" height="18" viewBox="0 0 18 18" fill="none" xmlns="http://www.w3.org/2000/svg">
<path d="M5.21318 11.7122H4.45313L4.4668 11.9124C4.48915 12.2398 4.64051 12.5153 4.89014 12.7055C5.13666 12.8933 5.46792 12.9902 5.84478 12.9902C6.23004 12.9902 6.56838 12.8907 6.81441 12.6917C7.06466 12.4893 7.20342 12.1962 7.20342 11.8491C7.20342 11.584 7.12388 11.3529 6.93138 11.1707C6.74715 10.9964 6.47735 10.8845 6.13314 10.809L5.78149 10.7321C5.57894 10.6879 5.46467 10.6307 5.40295 10.5757C5.3497 10.5282 5.32696 10.4752 5.32696 10.3989C5.32696 10.3047 5.36831 10.2302 5.44967 10.1729C5.53606 10.1119 5.67056 10.0701 5.84039 10.0701C6.01573 10.0701 6.14422 10.1152 6.22867 10.1807C6.31044 10.2441 6.36403 10.3362 6.37674 10.4618L6.39382 10.6304H7.15252L7.14619 10.4368C7.12447 9.77132 6.55718 9.33911 5.85137 9.33911C5.48931 9.33911 5.16604 9.4402 4.92907 9.62872C4.68928 9.81948 4.54546 10.0949 4.54546 10.4165C4.54546 10.6839 4.62894 10.9195 4.81821 11.1056C5.00153 11.2858 5.26764 11.4034 5.6027 11.4764L5.95402 11.5533C6.15976 11.5985 6.27693 11.6572 6.34096 11.715C6.39663 11.7653 6.42193 11.8232 6.42193 11.9084C6.42193 11.9954 6.38051 12.0769 6.28953 12.1428C6.19597 12.2107 6.05107 12.2593 5.86675 12.2593C5.45897 12.2593 5.26332 12.0822 5.23517 11.8745L5.21318 11.7122Z" fill="#1F2329"/>
<path fill-rule="evenodd" clip-rule="evenodd" d="M10.8414 11.1658C10.8414 11.7443 10.6663 12.232 10.3312 12.5595L10.8658 13.2957H9.95861L9.68874 12.9251C9.5336 12.969 9.36786 12.9902 9.19268 12.9902C8.69703 12.9902 8.27821 12.8148 7.98519 12.4865C7.69434 12.1606 7.544 11.7028 7.544 11.1658C7.544 10.6287 7.69433 10.1705 7.98507 9.8441C8.278 9.51523 8.69683 9.33911 9.19268 9.33911C9.68854 9.33911 10.1074 9.51523 10.4003 9.8441C10.691 10.1705 10.8414 10.6287 10.8414 11.1658ZM8.76559 11.655L9.19776 12.2505L9.19268 12.2505C8.92003 12.2505 8.71099 12.1491 8.56667 11.9748C8.41912 11.7966 8.32549 11.525 8.32549 11.1658C8.32549 10.8053 8.41918 10.5331 8.56675 10.3547C8.71105 10.1803 8.92005 10.0789 9.19268 10.0789C9.46531 10.0789 9.67431 10.1803 9.81861 10.3547C9.96618 10.5331 10.0599 10.8053 10.0599 11.1658C10.0599 11.4879 9.98492 11.7392 9.86334 11.916L9.67231 11.655H8.76559Z" fill="#1F2329"/>
<path d="M13.6334 12.9375V12.2065H12.1041V9.39185H11.3336V12.9375H13.6334Z" fill="#1F2329"/>
<path fill-rule="evenodd" clip-rule="evenodd" d="M2.59256 0.75H13.2548C13.4254 0.75 13.5889 0.817729 13.7094 0.938288L15.9043 3.13314C16.0248 3.2537 16.0925 3.41721 16.0925 3.58771V16.6072C16.0925 16.9622 15.8048 17.25 15.4497 17.25H2.59256C2.23752 17.25 1.94971 16.9622 1.94971 16.6072V1.39286C1.94971 1.03782 2.23752 0.75 2.59256 0.75ZM3.49253 15.7073H14.5497V4.60714H12.4604C12.3362 4.60714 12.2354 4.50641 12.2354 4.38215V2.29296H3.49253V15.7073Z" fill="#1F2329"/>
</svg>
