<svg width="20" height="20" viewBox="0 0 20 20" xmlns="http://www.w3.org/2000/svg">
<path d="M5.25341 13.7501H14.7467C14.9551 13.6251 15.1792 13.5251 15.4167 13.4543V12.0835C15.4167 11.8624 15.3289 11.6505 15.1727 11.4942C15.0164 11.3379 14.8044 11.2501 14.5834 11.2501H5.41674C5.19572 11.2501 4.98376 11.3379 4.82748 11.4942C4.6712 11.6505 4.58341 11.8624 4.58341 12.0835V13.4543C4.82091 13.5251 5.04549 13.6251 5.25341 13.7501ZM2.91674 13.4543V12.0835C2.91674 11.4204 3.18013 10.7845 3.64897 10.3157C4.11781 9.84686 4.7537 9.58346 5.41674 9.58346H9.16674V7.8118C8.38119 7.60897 7.69658 7.12661 7.24124 6.45512C6.78589 5.78364 6.59108 4.96914 6.69331 4.1643C6.79553 3.35945 7.18779 2.61952 7.79654 2.08319C8.4053 1.54687 9.18876 1.25098 10.0001 1.25098C10.8114 1.25098 11.5948 1.54687 12.2036 2.08319C12.8124 2.61952 13.2046 3.35945 13.3068 4.1643C13.4091 4.96914 13.2142 5.78364 12.7589 6.45512C12.3036 7.12661 11.619 7.60897 10.8334 7.8118V9.58346H14.5834C15.2464 9.58346 15.8823 9.84686 16.3512 10.3157C16.82 10.7845 17.0834 11.4204 17.0834 12.0835V13.4543C17.7246 13.6454 18.2805 14.0512 18.6581 14.6035C19.0357 15.1558 19.2118 15.8212 19.1571 16.488C19.1024 17.1548 18.8201 17.7825 18.3575 18.2659C17.895 18.7493 17.2803 19.059 16.6166 19.143C15.9528 19.227 15.2804 19.0803 14.7119 18.7274C14.1435 18.3746 13.7137 17.837 13.4945 17.2049C13.2753 16.5728 13.2801 15.8845 13.5081 15.2555C13.7361 14.6265 14.1734 14.095 14.7467 13.7501H5.25341C5.82671 14.095 6.26402 14.6265 6.49201 15.2555C6.72001 15.8845 6.72482 16.5728 6.50565 17.2049C6.28647 17.837 5.85664 18.3746 5.28822 18.7274C4.71979 19.0803 4.04733 19.227 3.38358 19.143C2.71983 19.059 2.10516 18.7493 1.6426 18.2659C1.18005 17.7825 0.897749 17.1548 0.843028 16.488C0.788306 15.8212 0.964493 15.1558 1.34205 14.6035C1.7196 14.0512 2.27557 13.6454 2.91674 13.4543ZM10.0001 6.25013C10.4421 6.25013 10.866 6.07453 11.1786 5.76197C11.4911 5.44941 11.6667 5.02549 11.6667 4.58346C11.6667 4.14144 11.4911 3.71751 11.1786 3.40495C10.866 3.09239 10.4421 2.9168 10.0001 2.9168C9.55804 2.9168 9.13412 3.09239 8.82156 3.40495C8.509 3.71751 8.3334 4.14144 8.3334 4.58346C8.3334 5.02549 8.509 5.44941 8.82156 5.76197C9.13412 6.07453 9.55804 6.25013 10.0001 6.25013ZM16.2501 17.5001C16.5816 17.5001 16.8995 17.3684 17.134 17.134C17.3684 16.8996 17.5001 16.5816 17.5001 16.2501C17.5001 15.9186 17.3684 15.6007 17.134 15.3662C16.8995 15.1318 16.5816 15.0001 16.2501 15.0001C15.9185 15.0001 15.6006 15.1318 15.3662 15.3662C15.1318 15.6007 15.0001 15.9186 15.0001 16.2501C15.0001 16.5816 15.1318 16.8996 15.3662 17.134C15.6006 17.3684 15.9185 17.5001 16.2501 17.5001ZM3.75007 17.5001C4.08159 17.5001 4.39953 17.3684 4.63396 17.134C4.86838 16.8996 5.00007 16.5816 5.00007 16.2501C5.00007 15.9186 4.86838 15.6007 4.63396 15.3662C4.39953 15.1318 4.08159 15.0001 3.75007 15.0001C3.41855 15.0001 3.10061 15.1318 2.86619 15.3662C2.63177 15.6007 2.50007 15.9186 2.50007 16.2501C2.50007 16.5816 2.63177 16.8996 2.86619 17.134C3.10061 17.3684 3.41855 17.5001 3.75007 17.5001Z"/>
</svg>
