<?xml version="1.0" standalone="no"?><!DOCTYPE svg PUBLIC "-//W3C//DTD SVG 1.1//EN" "http://www.w3.org/Graphics/SVG/1.1/DTD/svg11.dtd"><svg t="1669016100142" class="icon" viewBox="0 0 1024 1024" version="1.1" xmlns="http://www.w3.org/2000/svg" p-id="5812" data-spm-anchor-id="a313x.7781069.0.i17" xmlns:xlink="http://www.w3.org/1999/xlink" width="200" height="200"><path d="M102.4 921.6V102.4h819.2v819.2H102.4z m261.2736-255.9488H204.8v158.9248h158.976V665.6l-0.1024 0.0512z m460.8 0H665.6v158.9248h158.976V665.6l-0.1024 0.0512zM363.776 435.2H204.8v158.8736h158.976V435.2z m230.2976 0H435.2v158.8736h158.7968v-158.8224l0.0768-0.0512z m0-230.3488H435.2v158.8736h158.7968V204.8l0.0768 0.0512z m230.4 0H665.6v158.8736h158.976V204.8l-0.1024 0.0512z" fill="#515151" p-id="5813" data-spm-anchor-id="a313x.7781069.0.i13" class=""></path><path d="M824.4736 435.2512H665.6v158.8736h158.976V435.2zM594.0736 665.6512H435.2v158.8736h158.976V665.6z" fill="#d81e06" p-id="5814" data-spm-anchor-id="a313x.7781069.0.i15" class="selected"></path><path d="M363.6736 204.8512H204.8v158.8736h158.976V204.8z" fill="#f4ea2a" p-id="5815" data-spm-anchor-id="a313x.7781069.0.i16" class=""></path></svg>