<svg width="18" height="18" viewBox="0 0 18 18" fill="none" xmlns="http://www.w3.org/2000/svg">
<path d="M0.75 4C0.75 1.79086 2.54086 0 4.75 0H13.25C15.4591 0 17.25 1.79086 17.25 4V14C17.25 16.2091 15.4591 18 13.25 18H4.75C2.54086 18 0.75 16.2091 0.75 14V4Z" fill="#04B49C"/>
<path fill-rule="evenodd" clip-rule="evenodd" d="M7.90482 9.24762H7.48922L6.7168 11.2531H7.16284L7.33872 10.7701H8.0527L8.22858 11.2531H8.67725L7.90482 9.24762ZM7.91818 10.4026H7.47351L7.69678 9.79659L7.91818 10.4026Z" fill="white"/>
<path fill-rule="evenodd" clip-rule="evenodd" d="M9.7607 9.24762H8.91807V11.2531H9.33545V10.5234H9.75545C9.98769 10.5234 10.1744 10.474 10.3036 10.364C10.4349 10.2523 10.4957 10.0877 10.4957 9.88286C10.4957 9.67946 10.4356 9.51611 10.3052 9.40532C10.1769 9.29626 9.99151 9.24762 9.7607 9.24762ZM10.0783 9.88286C10.0783 9.98527 10.0486 10.0477 10.0053 10.084C9.9568 10.1225 9.8726 10.148 9.73707 10.148H9.33545V9.62299H9.73707C9.87028 9.62299 9.95464 9.64862 10.0031 9.68743L10.0059 9.68937C10.0479 9.71964 10.0783 9.779 10.0783 9.88286Z" fill="white"/>
<path d="M10.8545 9.24762H11.2692V11.2531H10.8545V9.24762Z" fill="white"/>
<path fill-rule="evenodd" clip-rule="evenodd" d="M9 4.625C7.41512 4.625 6.11143 5.82891 5.95354 7.37209C4.68028 7.74342 3.75 8.91932 3.75 10.3125C3.75 12.0039 5.12113 13.375 6.8125 13.375H11.1875C12.8789 13.375 14.25 12.0039 14.25 10.3125C14.25 8.91932 13.3197 7.74342 12.0465 7.3721C11.8886 5.82891 10.5849 4.625 9 4.625ZM9 5.5C7.79188 5.5 6.8125 6.47938 6.8125 7.6875V8.125C5.60438 8.125 4.625 9.10438 4.625 10.3125C4.625 11.5206 5.60438 12.5 6.8125 12.5H11.1875C12.3956 12.5 13.375 11.5206 13.375 10.3125C13.375 9.10438 12.3956 8.125 11.1875 8.125V7.6875C11.1875 6.47938 10.2081 5.5 9 5.5Z" fill="white"/>
<path fill-rule="evenodd" clip-rule="evenodd" d="M7.90482 9.24762H7.48922L6.7168 11.2531H7.16284L7.33872 10.7701H8.0527L8.22858 11.2531H8.67725L7.90482 9.24762ZM7.91818 10.4026H7.47351L7.69678 9.79659L7.91818 10.4026Z" fill="white"/>
<path fill-rule="evenodd" clip-rule="evenodd" d="M9.7607 9.24762H8.91807V11.2531H9.33545V10.5234H9.75545C9.98769 10.5234 10.1744 10.474 10.3036 10.364C10.4349 10.2523 10.4957 10.0877 10.4957 9.88286C10.4957 9.67946 10.4356 9.51611 10.3052 9.40532C10.1769 9.29626 9.99151 9.24762 9.7607 9.24762ZM10.0783 9.88286C10.0783 9.98527 10.0486 10.0477 10.0053 10.084C9.9568 10.1225 9.8726 10.148 9.73707 10.148H9.33545V9.62299H9.73707C9.87028 9.62299 9.95464 9.64862 10.0031 9.68743L10.0059 9.68937C10.0479 9.71964 10.0783 9.779 10.0783 9.88286Z" fill="white"/>
<path d="M10.8545 9.24762H11.2692V11.2531H10.8545V9.24762Z" fill="white"/>
<path fill-rule="evenodd" clip-rule="evenodd" d="M9 4.625C7.41512 4.625 6.11143 5.82891 5.95354 7.37209C4.68028 7.74342 3.75 8.91932 3.75 10.3125C3.75 12.0039 5.12113 13.375 6.8125 13.375H11.1875C12.8789 13.375 14.25 12.0039 14.25 10.3125C14.25 8.91932 13.3197 7.74342 12.0465 7.3721C11.8886 5.82891 10.5849 4.625 9 4.625ZM9 5.5C7.79188 5.5 6.8125 6.47938 6.8125 7.6875V8.125C5.60438 8.125 4.625 9.10438 4.625 10.3125C4.625 11.5206 5.60438 12.5 6.8125 12.5H11.1875C12.3956 12.5 13.375 11.5206 13.375 10.3125C13.375 9.10438 12.3956 8.125 11.1875 8.125V7.6875C11.1875 6.47938 10.2081 5.5 9 5.5Z" fill="white"/>
</svg>