<?xml version="1.0" standalone="no"?><!DOCTYPE svg PUBLIC "-//W3C//DTD SVG 1.1//EN" "http://www.w3.org/Graphics/SVG/1.1/DTD/svg11.dtd"><svg t="1645342109651" class="icon" viewBox="0 0 1024 1024" version="1.1" xmlns="http://www.w3.org/2000/svg" p-id="7289" xmlns:xlink="http://www.w3.org/1999/xlink" width="200" height="200"><defs><style type="text/css"></style></defs><path d="M512 170.666667H398.222222v682.666666h56.888889V512h56.888889c91.022222 0 170.666667-73.955556 170.666667-170.666667s-73.955556-170.666667-170.666667-170.666666z m113.777778 170.666666c0 62.577778-51.2 113.777778-113.777778 113.777778H455.111111V227.555556h56.888889c62.577778 0 113.777778 51.2 113.777778 113.777777zM910.222222 227.555556V170.666667h-170.666666v56.888889h56.888888v568.888888h-56.888888v56.888889h170.666666v-56.888889h-56.888889V227.555556zM199.111111 170.666667C119.466667 170.666667 56.888889 233.244444 56.888889 312.888889V853.333333h56.888889V512h170.666666v341.333333h56.888889V312.888889C341.333333 233.244444 278.755556 170.666667 199.111111 170.666667zM284.444444 455.111111H113.777778V312.888889C113.777778 267.377778 153.6 227.555556 199.111111 227.555556h5.688889C244.622222 227.555556 284.444444 267.377778 284.444444 312.888889V455.111111z" fill="#13227a" p-id="7290"></path></svg>