<?xml version="1.0" standalone="no"?><!DOCTYPE svg PUBLIC "-//W3C//DTD SVG 1.1//EN" "http://www.w3.org/Graphics/SVG/1.1/DTD/svg11.dtd"><svg t="1617776943065" class="icon" viewBox="0 0 1024 1024" version="1.1" xmlns="http://www.w3.org/2000/svg" p-id="10538" xmlns:xlink="http://www.w3.org/1999/xlink" width="200" height="200"><defs><style type="text/css"></style></defs><path d="M923.136 576.512V312.32c0-20.992-13.312-44.032-32.768-55.808l-346.624-199.168c-18.944-11.776-46.592-11.776-65.536 0l-347.136 199.68c-18.944 11.776-32.256 34.816-32.256 55.808v264.192h-20.48V829.44H235.52l242.688 140.288 0.512 0.512c9.216 4.608 20.48 7.168 31.744 7.168 11.776 0 23.04-2.56 31.744-7.168l241.664-140.288h159.232v-252.416h-19.968z m-408.064-465.408h3.584L841.728 296.96 517.12 476.672l-324.608-179.2 322.56-186.368zM167.936 356.352l317.44 174.592v45.568h-317.44v-220.16z m215.552 423.936c-14.848 16.384-34.816 22.016-50.176 22.016-21.504 0-38.4-5.12-50.688-14.336-17.92-13.824-22.528-35.84-24.064-55.808l-1.024-11.776H296.96l1.536 9.216c2.048 14.336 5.12 21.504 10.24 25.088l0.512 0.512c7.168 5.632 15.872 8.192 24.576 7.68 11.776 0 19.968-2.048 25.088-6.144l1.024-0.512c4.096-2.56 6.656-7.68 6.144-13.312-0.512-7.168-4.608-13.824-10.752-16.896l-1.024-0.512c-1.536-1.024-8.192-3.072-13.824-5.12-5.12-1.536-11.264-3.584-17.92-6.144-14.336-4.608-25.6-9.728-32.256-12.8-2.048-1.024-3.584-1.536-4.608-2.048l-1.024-0.512c-15.872-8.192-25.088-25.6-24.064-44.032-0.512-17.408 7.68-33.28 20.992-43.008 13.824-9.728 30.208-14.848 47.104-14.336 21.504 0 36.864 5.632 49.664 17.408 12.8 11.776 20.992 29.696 21.504 48.128l0.512 10.752h-38.4l-1.536-8.704c-2.048-11.264-4.608-18.432-9.216-22.016a36.352 36.352 0 0 0-22.528-7.68H327.68c-7.68 0-15.36 1.536-22.528 4.608-3.584 2.56-6.144 7.168-5.632 11.776v1.024c0 4.608 2.56 8.192 5.632 9.728l1.536 0.512c8.704 4.096 17.408 7.168 26.624 9.216h0.512c14.848 4.096 29.184 9.728 43.008 16.896 15.872 8.704 26.112 27.136 25.6 46.592 0 17.92-7.168 30.72-18.944 44.544z m102.4 116.224l-111.616-67.584h111.616v67.584z m62.464 0v-67.584h116.736l-116.736 67.584z m54.272-111.104l3.584 6.656-26.112 29.184-7.168-13.312c-2.56-4.096-5.12-8.192-8.192-12.288-1.536-2.048-3.072-4.096-4.608-6.656-12.288 6.656-25.6 10.24-39.424 10.24h-3.584c-15.36 0.512-30.72-4.608-43.52-14.336-6.656-4.608-12.8-10.24-18.432-15.872l-0.512-0.512c-14.848-18.432-22.528-43.52-22.528-72.704 0-31.744 7.168-54.784 23.04-72.704 5.12-6.656 11.776-12.288 19.456-16.896 13.312-7.168 27.136-11.776 40.96-13.824h5.12c28.16 0 49.664 10.24 64 30.72 14.848 18.432 22.528 43.52 22.528 72.192 0.512 24.064-6.656 48.128-19.456 68.096 5.632 6.656 10.24 14.336 14.848 22.016z m37.888 3.584v-193.536h39.936v154.624l93.696 5.12v33.792h-133.632z m225.792-212.48h-317.44v-45.568l317.44-174.592v220.16z" p-id="10539"></path><path d="M518.144 632.32h-3.072c-11.264 1.536-22.016 6.656-30.208 15.36l-1.024 1.024c-8.704 13.824-13.312 30.208-12.8 47.104v1.024c-0.512 16.384 3.584 33.28 12.8 46.592l2.048 2.56c7.168 9.216 17.408 14.848 28.16 14.336h4.096c6.144 0 12.288-1.024 18.432-3.584-5.632-8.192-11.776-16.384-18.432-24.064l-6.144-7.168 26.112-28.672 7.68 10.24c4.096 5.12 7.68 9.728 11.776 14.336 2.048 2.56 4.096 4.608 5.632 7.168 3.072-8.704 4.608-18.944 4.608-31.232 0.512-16.896-3.584-33.28-12.8-47.104-9.728-11.776-23.04-17.92-36.864-17.92z" p-id="10540"></path></svg>
