<svg width="18" height="18" viewBox="0 0 18 18" fill="none" xmlns="http://www.w3.org/2000/svg">
<path d="M0.75 4C0.75 1.79086 2.54086 0 4.75 0H13.25C15.4591 0 17.25 1.79086 17.25 4V14C17.25 16.2091 15.4591 18 13.25 18H4.75C2.54086 18 0.75 16.2091 0.75 14V4Z" fill="#D136D1"/>
<path d="M9.40825 7.54199C9.5049 7.54199 9.58325 7.62034 9.58325 7.71699V8.24199C9.58325 8.33864 9.5049 8.41699 9.40825 8.41699H8.27075C8.19916 8.41699 8.13962 8.46858 8.12727 8.53661L8.12492 8.56283V12.0628C8.12492 12.1344 8.17651 12.194 8.24454 12.2063L8.27075 12.2087H12.9374C13.009 12.2087 13.0686 12.1571 13.0809 12.089L13.0833 12.0628V8.56283C13.0833 8.49123 13.0317 8.43169 12.9636 8.41934L12.9374 8.41699H11.7999C11.7033 8.41699 11.6249 8.33864 11.6249 8.24199V7.71699C11.6249 7.62034 11.7033 7.54199 11.7999 7.54199H12.9374C13.4824 7.54199 13.9277 7.96907 13.9567 8.50682L13.9583 8.56283V12.0628C13.9583 12.6078 13.5312 13.0531 12.9934 13.0821L12.9374 13.0837H8.27075C7.72575 13.0837 7.28051 12.6566 7.25143 12.1188L7.24992 12.0628V8.56283C7.24992 8.01783 7.677 7.57258 8.21474 7.5435L8.27075 7.54199H9.40825ZM10.0208 4.91699C10.5657 4.91699 11.011 5.34407 11.0401 5.88182L11.0416 5.93783V9.43783C11.0416 9.98282 10.6145 10.4281 10.0768 10.4571L10.0208 10.4587H8.88325C8.7866 10.4587 8.70825 10.3803 8.70825 10.2837V9.75866C8.70825 9.66201 8.7866 9.58366 8.88325 9.58366H10.0208C10.0923 9.58366 10.1519 9.53207 10.1642 9.46404L10.1666 9.43783V5.93783C10.1666 5.86623 10.115 5.80669 10.047 5.79434L10.0208 5.79199H5.35409C5.28249 5.79199 5.22295 5.84358 5.2106 5.91161L5.20825 5.93783V9.43783C5.20825 9.50942 5.25984 9.56896 5.32787 9.58131L5.35409 9.58366H6.49158C6.58823 9.58366 6.66658 9.66201 6.66658 9.75866V10.2837C6.66658 10.3803 6.58823 10.4587 6.49158 10.4587H5.35409C4.80909 10.4587 4.36384 10.0316 4.33476 9.49384L4.33325 9.43783V5.93783C4.33325 5.39283 4.76033 4.94758 5.29807 4.9185L5.35409 4.91699H10.0208Z" fill="white"/>
</svg>
