<svg t="1637288020248" class="icon" viewBox="0 0 1024 1024" version="1.1" xmlns="http://www.w3.org/2000/svg" p-id="3387" width="200" height="200"><path d="M686.3 630.3V513.2c0-19.9-16.1-36-36-36s-36 16.1-36 36v101.1H136.7V136.7h477.6v98.8c0 19.9 16.1 36 36 36s36-16.1 36-36V120.7c0-30.9-25.1-56-56-56H120.7c-30.9 0-56 25.1-56 56v509.6c0 30.9 25.1 56 56 56h509.6c30.9 0 56-25.1 56-56z" p-id="3388"></path><path d="M903.8 337.8H394.2c-30.9 0-56 25.1-56 56v118c0 19.9 16.1 36 36 36s36-16.1 36-36v-102h477.6v477.6H410.2V784.6c0-19.9-16.1-36-36-36s-36 16.1-36 36v118.7c0 30.9 25.1 56 56 56h509.6c30.9 0 56-25.1 56-56V393.8c0-30.9-25.1-56-56-56z" p-id="3389"></path></svg>
