<?xml version="1.0" standalone="no"?><!DOCTYPE svg PUBLIC "-//W3C//DTD SVG 1.1//EN" "http://www.w3.org/Graphics/SVG/1.1/DTD/svg11.dtd"><svg t="1625718978594" class="icon" viewBox="0 0 1024 1024" version="1.1" xmlns="http://www.w3.org/2000/svg" p-id="2291" xmlns:xlink="http://www.w3.org/1999/xlink" width="200" height="200"><defs><style type="text/css"></style></defs><path d="M512 1.92c223.850667 0 405.333333 179.072 405.333333 400 0 162.837333-118.058667 355.221333-354.197333 577.130667a74.666667 74.666667 0 0 1-102.272 0l-10.666667-10.069334C221.205333 751.317333 106.666667 562.304 106.666667 401.898667 106.666667 180.992 288.149333 1.92 512 1.92z m0 64c-188.693333 0-341.333333 150.613333-341.333333 336 0 141.034667 109.546667 319.530667 334.037333 530.474667a10.666667 10.666667 0 0 0 14.592 0l10.282667-9.706667C747.136 715.968 853.333333 540.8 853.333333 401.898667c0-185.386667-152.64-336-341.333333-336z m0 170.666667a170.666667 170.666667 0 1 1 0 341.333333 170.666667 170.666667 0 0 1 0-341.333333z m0 64a106.666667 106.666667 0 1 0 0 213.333333 106.666667 106.666667 0 0 0 0-213.333333z" p-id="2292"></path></svg>
