<svg width="16" height="16" viewBox="0 0 16 16" fill="none" xmlns="http://www.w3.org/2000/svg">
<path d="M4.83301 1.33301C5.10915 1.33301 5.33301 1.55687 5.33301 1.83301V1.99967H10.6663V1.83301C10.6663 1.55687 10.8902 1.33301 11.1663 1.33301H11.4997C11.7758 1.33301 11.9997 1.55687 11.9997 1.83301V1.99967H13.9997C14.3679 1.99967 14.6663 2.29815 14.6663 2.66634V13.9997C14.6663 14.3679 14.3679 14.6663 13.9997 14.6663H1.99967C1.63148 14.6663 1.33301 14.3679 1.33301 13.9997L1.33301 2.66634C1.33301 2.29815 1.63148 1.99967 1.99967 1.99967H3.99967V1.83301C3.99967 1.55687 4.22353 1.33301 4.49967 1.33301H4.83301ZM10.6663 3.33301H5.33301V3.49967C5.33301 3.77582 5.10915 3.99967 4.83301 3.99967H4.49967C4.22353 3.99967 3.99967 3.77582 3.99967 3.49967V3.33301H2.66634V13.333H13.333V3.33301H11.9997V3.49967C11.9997 3.77582 11.7758 3.99967 11.4997 3.99967H11.1663C10.8902 3.99967 10.6663 3.77582 10.6663 3.49967V3.33301ZM5.99967 6.83301C5.99967 6.55687 5.77582 6.33301 5.49967 6.33301H4.49967C4.22353 6.33301 3.99967 6.55687 3.99967 6.83301V7.83301C3.99967 8.10915 4.22353 8.33301 4.49967 8.33301H5.49967C5.77582 8.33301 5.99967 8.10915 5.99967 7.83301V6.83301ZM6.99967 6.83301C6.99967 6.55687 7.22353 6.33301 7.49967 6.33301H8.49967C8.77582 6.33301 8.99967 6.55687 8.99967 6.83301V7.83301C8.99967 8.10915 8.77582 8.33301 8.49967 8.33301H7.49967C7.22353 8.33301 6.99967 8.10915 6.99967 7.83301V6.83301ZM5.99967 9.83301C5.99967 9.55687 5.77582 9.33301 5.49967 9.33301H4.49967C4.22353 9.33301 3.99967 9.55687 3.99967 9.83301V10.833C3.99967 11.1092 4.22353 11.333 4.49967 11.333H5.49967C5.77582 11.333 5.99967 11.1092 5.99967 10.833V9.83301ZM6.99967 9.83301C6.99967 9.55687 7.22353 9.33301 7.49967 9.33301H8.49967C8.77582 9.33301 8.99967 9.55687 8.99967 9.83301V10.833C8.99967 11.1092 8.77582 11.333 8.49967 11.333H7.49967C7.22353 11.333 6.99967 11.1092 6.99967 10.833V9.83301ZM11.9997 6.83301C11.9997 6.55687 11.7758 6.33301 11.4997 6.33301H10.4997C10.2235 6.33301 9.99967 6.55687 9.99967 6.83301V7.83301C9.99967 8.10915 10.2235 8.33301 10.4997 8.33301H11.4997C11.7758 8.33301 11.9997 8.10915 11.9997 7.83301V6.83301Z" fill="#3370FF"/>
<path d="M11.9997 9.83301C11.9997 9.55687 11.7758 9.33301 11.4997 9.33301H10.4997C10.2235 9.33301 9.99967 9.55687 9.99967 9.83301V10.833C9.99967 11.1092 10.2235 11.333 10.4997 11.333H11.4997C11.7758 11.333 11.9997 11.1092 11.9997 10.833V9.83301Z" fill="#3370FF"/>
</svg>