<?xml version="1.0" standalone="no"?><!DOCTYPE svg PUBLIC "-//W3C//DTD SVG 1.1//EN" "http://www.w3.org/Graphics/SVG/1.1/DTD/svg11.dtd"><svg t="1687676106978" filter="currentColor" class="icon" viewBox="0 0 1024 1024" version="1.1" xmlns="http://www.w3.org/2000/svg" p-id="3283" xmlns:xlink="http://www.w3.org/1999/xlink" width="200" height="200"><path d="M854.6 288.6L639.4 73.4c-6-6-14.1-9.4-22.6-9.4H192c-17.7 0-32 14.3-32 32v832c0 17.7 14.3 32 32 32h640c17.7 0 32-14.3 32-32V311.3c0-8.5-3.4-16.7-9.4-22.7zM790.2 326H602V137.8L790.2 326z m1.8 562H232V136h302v216a42 42 0 0 0 42 42h216v494zM514.1 580.1l-61.8-102.4c-2.2-3.6-6.1-5.8-10.3-5.8h-38.4c-2.3 0-4.5 0.6-6.4 1.9-5.6 3.5-7.3 10.9-3.7 16.6l82.3 130.4-83.4 132.8a12.04 12.04 0 0 0 10.2 18.4h34.5c4.2 0 8-2.2 10.2-5.7L510 664.8l62.3 101.4c2.2 3.6 6.1 5.7 10.2 5.7H620c2.3 0 4.5-0.7 6.5-1.9 5.6-3.6 7.2-11 3.6-16.6l-84-130.4 85.3-132.5a12.04 12.04 0 0 0-10.1-18.5h-35.7c-4.2 0-8.1 2.2-10.3 5.8l-61.2 102.3z" p-id="3284"></path></svg>
