<?xml version="1.0" standalone="no"?><!DOCTYPE svg PUBLIC "-//W3C//DTD SVG 1.1//EN" "http://www.w3.org/Graphics/SVG/1.1/DTD/svg11.dtd"><svg t="1676619734624" class="icon" viewBox="0 0 1024 1024" version="1.1" xmlns="http://www.w3.org/2000/svg" p-id="23822" xmlns:xlink="http://www.w3.org/1999/xlink" width="200" height="200"><path d="M907.411655 277.568736c2.943029 5.656837 5.427616 11.980869 7.264451 18.327414 3.611248 11.062963 5.176906 23.294542 5.176906 35.047214l0 509.329171c0 32.56365-12.879332 62.184271-34.588773 83.914178-21.709441 21.458731-51.579749 34.58775-84.373643 34.58775L210.172767 958.774463c-32.79287 0-62.643736-13.129019-83.914178-34.58775-21.709441-21.729907-35.297924-51.350528-35.297924-83.914178L90.960665 330.943364c0-32.56365 13.589506-62.643736 35.297924-84.352153 21.270443-21.500687 51.120284-34.609239 83.914178-34.609239l287.437501 0c10.165524-32.584116 28.492938-61.954027 51.559283-84.791152l1.378393-1.37737c37.530778-37.093826 90.00899-60.159148 146.994865-60.159148 57.904805 0 110.361527 23.524786 148.374282 61.536518l0 0c37.969776 37.530778 61.494563 90.217744 61.494563 147.664108L907.411655 277.568736 907.411655 277.568736zM697.54281 173.990706 697.54281 173.990706c28.263717 0 54.064336 11.522428 72.829725 29.849842 18.536168 18.995633 29.849842 44.795229 29.849842 72.829725 0 28.263717-11.313673 54.273091-29.849842 72.579015-18.765389 18.786878-44.566008 30.080086-72.829725 30.080086-28.034497 0-54.042847-11.293207-72.370261-30.080086-18.765389-18.305925-30.309306-44.315298-30.309306-72.579015 0-28.034497 11.543917-53.834092 30.309306-72.829725C643.499963 185.513134 669.509337 173.990706 697.54281 173.990706L697.54281 173.990706zM743.216036 230.977605 743.216036 230.977605c-11.752672-11.522428-28.034497-18.786878-45.673226-18.786878s-33.920554 7.264451-45.234227 18.786878c-11.751648 11.773138-19.224854 27.595498-19.224854 45.693692 0 17.86795 7.473205 33.900088 19.224854 45.441958 11.313673 11.774161 27.595498 19.246343 45.234227 19.246343s33.920554-7.473205 45.673226-19.246343c11.772115-11.542894 18.786878-27.574009 18.786878-45.441958C762.002914 258.573103 754.98815 242.750743 743.216036 230.977605L743.216036 230.977605zM488.134453 275.772834 488.134453 275.772834l-277.960663 0c-15.175631 0-28.952402 5.866614-39.139415 16.281825-9.936303 9.498328-16.281825 23.734564-16.281825 38.889729l0 509.329171c0 14.904455 6.345522 28.723182 16.281825 38.888705 10.187013 9.956769 23.963785 16.281825 39.139415 16.281825l590.717829 0c15.155165 0 29.181623-6.325056 39.139415-16.281825 9.956769-10.165524 16.281825-23.984251 16.281825-38.888705L856.31286 412.373978c-21.709441 24.861224-49.074695 44.774763-80.07371 57.216119l-63.770396 78.466096c-6.78452 8.141424-18.556635 9.05933-26.677593 2.505054-1.37737-0.710175-2.27481-1.607614-3.173273-2.505054l0 0-0.229221-0.437975-63.561641-78.027098c-37.969776-15.613606-70.554916-41.393759-93.850481-75.314313C501.70247 360.585475 488.134453 319.629691 488.134453 275.772834L488.134453 275.772834zM818.759569 153.86739 818.759569 153.86739c-30.747281-30.996968-73.727165-49.972135-121.215736-49.972135-46.590108 0-89.571015 18.515702-120.318296 49.054229l-0.918929 0.917906c-30.976502 31.207769-50.202379 74.396407-50.202379 120.987538 0 36.634362 11.334139 70.115917 30.309306 97.69095 19.893072 28.952402 47.948035 51.120284 80.740906 63.352887 3.402493 1.106194 5.886057 3.151783 8.350179 5.636371l52.039213 64.22986 52.456722-63.791885c1.816369-2.463098 4.550643-4.968152 7.93267-6.074346 33.023114-12.232602 61.266365-34.400484 80.72044-63.352887 19.455097-27.575032 30.768771-61.056588 30.768771-97.69095C869.420389 228.263797 849.75756 185.075159 818.759569 153.86739L818.759569 153.86739 818.759569 153.86739 818.759569 153.86739zM568.18565 516.619204 568.18565 516.619204c7.222495-7.451716 19.433608-7.451716 26.906813 0 7.451716 7.473205 7.451716 19.684318 0 27.157523l-52.707432 52.685943 109.464087 109.464087 122.134665-122.134665c7.242961-7.473205 19.455097-7.473205 26.906813 0 7.473205 7.68196 7.473205 19.684318 0 26.906813L679.006641 733.063815l40.913828 40.705074c7.473205 7.68196 7.473205 19.683295 0 27.136034-7.451716 7.68196-19.663852 7.68196-27.136034 0l-53.124941-53.834092-0.710175 0-0.208754-0.437975-0.459464-0.229221-0.229221-0.459464-0.437975-0.229221-0.229221-0.208754L515.708462 623.599727 295.882847 842.986343c-7.243985 7.222495-19.455097 7.222495-27.136034 0-7.264451-7.264451-7.264451-19.913539 0-26.906813L488.571405 596.46267l-90.468454-90.468454L251.086595 652.78135c-7.222495 7.451716-19.663852 7.451716-27.136034 0-7.222495-7.451716-7.222495-19.684318 0-27.157523l147.016355-146.765645-93.182262-92.973508c-7.68196-7.890714-7.68196-19.663852 0-27.115568 7.473205-7.473205 19.433608-7.473205 27.136034 0l105.85284 105.60213 0.229221 0.479931 0.208754 0.437975 0.459464 0.459464 0.437975 0.437975 103.598496 103.57803L568.18565 516.619204 568.18565 516.619204z" fill="#231815" p-id="23823"></path></svg>
