<svg viewBox="0 0 1024 1024" version="1.1" xmlns="http://www.w3.org/2000/svg" p-id="1271" xmlns:xlink="http://www.w3.org/1999/xlink" width="200" height="200"><path d="M935.04 887.893333L874.666667 768a147.413333 147.413333 0 1 0-189.653334 0l-59.946666 119.893333a33.92 33.92 0 0 0-1.706667 26.24A34.773333 34.773333 0 0 0 655.786667 938.666667a34.56 34.56 0 0 0 30.933333-19.2L746.666667 798.72a153.386667 153.386667 0 0 0 66.773333 0l59.946667 120.106667a34.986667 34.986667 0 0 0 30.933333 18.986666 32.853333 32.853333 0 0 0 15.36-3.84 34.346667 34.346667 0 0 0 15.36-46.08z m-76.373333-232.746666A78.506667 78.506667 0 1 1 780.16 576a78.506667 78.506667 0 0 1 78.506667 79.146667z" p-id="1272" ></path><path d="M543.146667 869.76h-362.666667a25.813333 25.813333 0 0 1-25.813333-25.813333V180.053333a25.813333 25.813333 0 0 1 25.386666-25.813333H507.733333v146.56a64 64 0 0 0 64 64h147.2v64a34.56 34.56 0 0 0 68.906667 0v-144.853333a34.773333 34.773333 0 0 0-10.026667-24.32l-163.413333-164.266667A34.773333 34.773333 0 0 0 590.08 85.333333H149.333333a64 64 0 0 0-64 64v725.333334a64 64 0 0 0 64 64h393.813334a34.56 34.56 0 0 0 0-68.906667zM576 270.506667V160l136.32 136.533333h-109.866667A25.813333 25.813333 0 0 1 576 270.506667z" p-id="1273" ></path><path d="M635.946667 512a34.346667 34.346667 0 0 0-34.346667-34.346667h-362.666667a34.346667 34.346667 0 1 0 0 68.693334h362.666667A34.346667 34.346667 0 0 0 635.946667 512zM239.573333 296.533333a34.56 34.56 0 1 0 0 68.906667h180.906667a34.56 34.56 0 1 0 0-68.906667zM542.08 727.466667a34.56 34.56 0 1 0 0-68.906667H239.573333a34.56 34.56 0 1 0 0 68.906667z" p-id="1274" ></path></svg>
