<?xml version="1.0" standalone="no"?><!DOCTYPE svg PUBLIC "-//W3C//DTD SVG 1.1//EN" "http://www.w3.org/Graphics/SVG/1.1/DTD/svg11.dtd"><svg t="1620973439943" class="icon" viewBox="0 0 1024 1024" version="1.1" xmlns="http://www.w3.org/2000/svg" p-id="859" xmlns:xlink="http://www.w3.org/1999/xlink" width="200" height="200"><defs><style type="text/css"></style></defs><path d="M284.281905 870.936381c-85.162667-74.532571-134.339048-184.58819-134.339048-300.592762 0-215.79581 168.082286-391.168 374.881524-391.168s374.808381 175.37219 374.808381 391.168c0.073143 116.150857-49.371429 226.304-134.924191 300.592762L839.68 975.238095C952.124952 879.420952 1024 733.988571 1024 570.343619 1024 282.160762 800.329143 48.761905 524.166095 48.761905 248.003048 48.761905 24.380952 282.185143 24.380952 570.343619 24.84419 727.405714 92.696381 876.007619 209.334857 975.238095l74.971429-104.301714z" p-id="860"></path><path d="M148.821333 570.343619c0-215.79581 167.375238-391.168 373.321143-391.168 77.141333 0 148.699429 24.746667 208.432762 66.486857L804.571429 140.678095C723.72419 82.651429 626.639238 48.761905 522.142476 48.761905 247.125333 48.761905 24.380952 282.185143 24.380952 570.343619 24.380952 733.379048 95.963429 879.420952 207.945143 975.238095l74.654476-104.301714c-84.821333-74.532571-133.802667-184.58819-133.778286-300.592762z" p-id="861"></path><path d="M569.61219 627.492571c5.022476-7.119238 8.777143-15.11619 11.093334-23.576381L731.428571 268.190476 470.503619 523.873524a80.700952 80.700952 0 0 0-18.285714 18.139428c-23.113143 32.914286-15.408762 79.09181 16.822857 102.64381 32.256 23.576381 77.507048 15.725714 100.62019-17.164191h-0.048762z" p-id="862"></path></svg>
