<?xml version="1.0" standalone="no"?><!DOCTYPE svg PUBLIC "-//W3C//DTD SVG 1.1//EN" "http://www.w3.org/Graphics/SVG/1.1/DTD/svg11.dtd"><svg t="1669015593157" class="icon" viewBox="0 0 1024 1024" version="1.1" xmlns="http://www.w3.org/2000/svg" p-id="3368" xmlns:xlink="http://www.w3.org/1999/xlink" width="200" height="200"><path d="M736 256m-64 0a64 64 0 1 0 128 0 64 64 0 1 0-128 0Z" fill="#515151" p-id="3369"></path><path d="M800 512m-64 0a64 64 0 1 0 128 0 64 64 0 1 0-128 0Z" fill="#515151" p-id="3370"></path><path d="M528 592m-112 0a112 112 0 1 0 224 0 112 112 0 1 0-224 0Z" fill="#515151" p-id="3371"></path><path d="M704 832m-64 0a64 64 0 1 0 128 0 64 64 0 1 0-128 0Z" fill="#515151" p-id="3372"></path><path d="M864 704m-32 0a32 32 0 1 0 64 0 32 32 0 1 0-64 0Z" fill="#515151" p-id="3373"></path><path d="M272 784m-80 0a80 80 0 1 0 160 0 80 80 0 1 0-160 0Z" fill="#515151" p-id="3374"></path><path d="M192 544m-64 0a64 64 0 1 0 128 0 64 64 0 1 0-128 0Z" fill="#515151" p-id="3375"></path><path d="M368 368m-80 0a80 80 0 1 0 160 0 80 80 0 1 0-160 0Z" fill="#515151" p-id="3376"></path><path d="M208 240m-48 0a48 48 0 1 0 96 0 48 48 0 1 0-96 0Z" fill="#515151" p-id="3377"></path><path d="M528 176m-48 0a48 48 0 1 0 96 0 48 48 0 1 0-96 0Z" fill="#515151" p-id="3378"></path><path d="M496 816m-48 0a48 48 0 1 0 96 0 48 48 0 1 0-96 0Z" fill="#515151" p-id="3379"></path><path d="M592 368m-48 0a48 48 0 1 0 96 0 48 48 0 1 0-96 0Z" fill="#515151" p-id="3380"></path></svg>