<?xml version="1.0" standalone="no"?><!DOCTYPE svg PUBLIC "-//W3C//DTD SVG 1.1//EN" "http://www.w3.org/Graphics/SVG/1.1/DTD/svg11.dtd"><svg t="1657093221261" class="icon" viewBox="0 0 1024 1024" version="1.1" xmlns="http://www.w3.org/2000/svg" p-id="1599" xmlns:xlink="http://www.w3.org/1999/xlink" width="200" height="200"><defs><style type="text/css">@font-face { font-family: feedback-iconfont; src: url("//at.alicdn.com/t/font_1031158_u69w8yhxdu.woff2?t=1630033759944") format("woff2"), url("//at.alicdn.com/t/font_1031158_u69w8yhxdu.woff?t=1630033759944") format("woff"), url("//at.alicdn.com/t/font_1031158_u69w8yhxdu.ttf?t=1630033759944") format("truetype"); }
</style></defs><path d="M395.306667 577.706667a34.346667 34.346667 0 0 0-68.266667-3.2 193.92 193.92 0 0 0 223.573333 234.666666h5.12a34.346667 34.346667 0 0 0-6.613333-66.986666 299.946667 299.946667 0 0 1-66.346667-1.92 125.013333 125.013333 0 0 1-87.68-153.6z" p-id="1600"></path><path d="M512 168.96c68.48 67.413333 240 256 240 457.813333a240.853333 240.853333 0 0 1-481.706667 0c0-195.84 165.333333-382.293333 241.706667-457.813333M512 85.333333a39.04 39.04 0 0 0-21.333333 6.613334l-6.4 5.546666C418.133333 159.573333 200.106667 381.013333 200.106667 626.773333a311.893333 311.893333 0 0 0 623.786666 0c0-248.746667-216.746667-468.266667-282.88-529.493333l-1.92-1.706667A38.613333 38.613333 0 0 0 512 85.333333z" p-id="1601"></path></svg>