<?xml version="1.0" standalone="no"?><!DOCTYPE svg PUBLIC "-//W3C//DTD SVG 1.1//EN" "http://www.w3.org/Graphics/SVG/1.1/DTD/svg11.dtd"><svg t="1658388788428" class="icon" viewBox="0 0 1024 1024" version="1.1" xmlns="http://www.w3.org/2000/svg" p-id="2374" xmlns:xlink="http://www.w3.org/1999/xlink" width="200" height="200"><defs><style type="text/css">@font-face { font-family: feedback-iconfont; src: url("//at.alicdn.com/t/font_1031158_u69w8yhxdu.woff2?t=1630033759944") format("woff2"), url("//at.alicdn.com/t/font_1031158_u69w8yhxdu.woff?t=1630033759944") format("woff"), url("//at.alicdn.com/t/font_1031158_u69w8yhxdu.ttf?t=1630033759944") format("truetype"); }
</style></defs><path d="M96 0a32 32 0 0 1 32 32v960a32 32 0 0 1-64 0V32A32 32 0 0 1 96 0z m832 0a32 32 0 0 1 32 32v960a32 32 0 0 1-64 0V32a32 32 0 0 1 32-32zM384 800v-576a32 32 0 0 1 32-32h192a32 32 0 0 1 32 32v576a32 32 0 0 1-32 32h-192a32 32 0 0 1-32-32z" fill="#515151" p-id="2375"></path></svg>