<svg width="16" height="16" viewBox="0 0 16 16" fill="none" xmlns="http://www.w3.org/2000/svg">
<path d="M1.33325 14.0174C1.33325 14.4122 1.65143 14.7322 2.04393 14.7322H6.66337V13.392H2.66578V2.67414L11.9935 2.67414V7.36471H13.326V2.04874C13.326 1.65399 13.0078 1.33398 12.6153 1.33398H2.04393C1.65143 1.33398 1.33325 1.65399 1.33325 2.04874V14.0174Z" fill="#1F2329"/>
<path d="M3.99831 4.85966C3.99831 4.76097 4.07786 4.68097 4.17598 4.68097H10.4833C10.5814 4.68097 10.661 4.76097 10.661 4.85966V5.84244C10.661 5.94113 10.5814 6.02113 10.4833 6.02113H4.17598C4.07786 6.02113 3.99831 5.94113 3.99831 5.84244V4.85966Z" fill="#1F2329"/>
<path d="M4.17598 7.36471C4.07786 7.36471 3.99831 7.44471 3.99831 7.54339V8.52618C3.99831 8.62487 4.07786 8.70487 4.17598 8.70487H6.88546C6.98359 8.70487 7.06313 8.62487 7.06313 8.52618V7.54339C7.06313 7.44471 6.98359 7.36471 6.88546 7.36471H4.17598Z" fill="#1F2329"/>
<path d="M13.9301 11.3328L8.46535 11.3328C8.28125 11.3328 8.13201 11.1836 8.13201 10.9995V10.3328C8.13201 10.1487 8.28125 9.99951 8.46535 9.99951H11.4654V9.0813C11.4654 8.79271 11.8072 8.64048 12.0217 8.83354L14.1531 10.7517C14.3802 10.9561 14.2356 11.3328 13.9301 11.3328Z" fill="#1F2329"/>
<path d="M10.7986 13.9995V14.9177C10.7986 15.2063 10.4568 15.3585 10.2423 15.1655L8.11093 13.2473C7.88386 13.0429 8.02843 12.6662 8.33392 12.6662L13.7986 12.6662C13.9827 12.6662 14.132 12.8154 14.132 12.9995V13.6662C14.132 13.8503 13.9827 13.9995 13.7986 13.9995H10.7986Z" fill="#1F2329"/>
</svg>
