<svg width="20" height="20" viewBox="0 0 20 20" fill="none" xmlns="http://www.w3.org/2000/svg">
<path fill-rule="evenodd" clip-rule="evenodd" d="M13.75 14.1667H17.7992C17.9849 14.1667 18.0523 14.1861 18.1202 14.2224C18.1881 14.2587 18.2414 14.312 18.2777 14.3799C18.314 14.4478 18.3333 14.5152 18.3333 14.7009V15.2993C18.3333 15.485 18.314 15.5524 18.2777 15.6203C18.2414 15.6882 18.1881 15.7414 18.1202 15.7778C18.0523 15.8141 17.9849 15.8334 17.7992 15.8334H13.75V17.7993C13.75 17.985 13.7307 18.0524 13.6943 18.1203C13.658 18.1882 13.6047 18.2414 13.5368 18.2778C13.4689 18.3141 13.4016 18.3334 13.2159 18.3334H12.6175C12.4317 18.3334 12.3644 18.3141 12.2965 18.2778C12.2286 18.2414 12.1753 18.1882 12.139 18.1203C12.1027 18.0524 12.0833 17.985 12.0833 17.7993V15.8334H2.20081C2.01508 15.8334 1.94773 15.8141 1.87983 15.7778C1.81192 15.7414 1.75863 15.6882 1.72232 15.6203C1.68601 15.5524 1.66667 15.485 1.66667 15.2993V14.7009C1.66667 14.5152 1.68601 14.4478 1.72232 14.3799C1.75863 14.312 1.81192 14.2587 1.87983 14.2224C1.94773 14.1861 2.01508 14.1667 2.20081 14.1667H12.0833V12.2009C12.0833 12.0152 12.1027 11.9478 12.139 11.8799C12.1753 11.812 12.2286 11.7587 12.2965 11.7224C12.3644 11.6861 12.4317 11.6667 12.6175 11.6667H13.2159C13.4016 11.6667 13.4689 11.6861 13.5368 11.7224C13.6047 11.7587 13.658 11.812 13.6943 11.8799C13.7307 11.9478 13.75 12.0152 13.75 12.2009V14.1667ZM6.25 4.16675V2.20089C6.25 2.01516 6.26934 1.94781 6.30565 1.87991C6.34197 1.812 6.39526 1.75871 6.46316 1.7224C6.53106 1.68609 6.59841 1.66675 6.78414 1.66675H7.38253C7.56826 1.66675 7.63561 1.68609 7.70351 1.7224C7.77141 1.75871 7.8247 1.812 7.86102 1.87991C7.89733 1.94781 7.91667 2.01516 7.91667 2.20089V4.16675H17.7992C17.9849 4.16675 18.0523 4.18609 18.1202 4.2224C18.1881 4.25871 18.2414 4.312 18.2777 4.37991C18.314 4.44781 18.3333 4.51516 18.3333 4.70089V5.29927C18.3333 5.48501 18.314 5.55236 18.2777 5.62026C18.2414 5.68816 18.1881 5.74145 18.1202 5.77776C18.0523 5.81408 17.9849 5.83341 17.7992 5.83341H7.91667V7.79927C7.91667 7.98501 7.89733 8.05236 7.86102 8.12026C7.8247 8.18816 7.77141 8.24145 7.70351 8.27776C7.63561 8.31408 7.56826 8.33342 7.38253 8.33342H6.78414C6.59841 8.33342 6.53106 8.31408 6.46316 8.27776C6.39526 8.24145 6.34197 8.18816 6.30565 8.12026C6.26934 8.05236 6.25 7.98501 6.25 7.79927V5.83341H2.20081C2.01508 5.83341 1.94773 5.81408 1.87983 5.77776C1.81192 5.74145 1.75863 5.68816 1.72232 5.62026C1.68601 5.55236 1.66667 5.48501 1.66667 5.29927V4.70089C1.66667 4.51516 1.68601 4.44781 1.72232 4.37991C1.75863 4.312 1.81192 4.25871 1.87983 4.2224C1.94773 4.18609 2.01508 4.16675 2.20081 4.16675H6.25Z" fill="#646A73"/>
</svg>
