<svg width="16" height="16" viewBox="0 0 16 16" fill="none" xmlns="http://www.w3.org/2000/svg">
<path d="M8.17896 1.78051L14.8914 6.05207C15.0972 6.18305 15.0972 6.48353 14.8914 6.61451L8.17896 10.8861C8.06977 10.9556 7.93023 10.9556 7.82104 10.8861L1.10858 6.61451C0.902751 6.48353 0.90275 6.18305 1.10858 6.05207L7.82104 1.78051C7.93023 1.71102 8.06977 1.71102 8.17896 1.78051ZM3.15017 6.33329L8 9.41954L12.8498 6.33329L8 3.24704L3.15017 6.33329Z" fill="#646A73"/>
<path d="M1.73096 9.25737C1.57401 9.16114 1.36878 9.21035 1.27255 9.3673L0.924074 9.93564C0.827845 10.0926 0.877063 10.2978 1.03401 10.394L7.13744 14.1363C7.56569 14.3989 8.10095 14.3989 8.52919 14.1363L14.6326 10.394C14.7896 10.2978 14.8388 10.0926 14.7426 9.93564L14.3941 9.3673C14.2979 9.21035 14.0926 9.16114 13.9357 9.25737L7.92044 12.9456C7.86698 12.9784 7.79965 12.9784 7.7462 12.9456L1.73096 9.25737Z" fill="#646A73"/>
</svg>
