<svg width="16" height="16" viewBox="0 0 16 16" fill="none" xmlns="http://www.w3.org/2000/svg">
<path d="M6 5.99996H3C2.44772 5.99996 2 6.44767 2 6.99996V14.6666C2 15.0348 2.29848 15.3333 2.66667 15.3333H13.3333C13.7015 15.3333 14 15.0348 14 14.6666V6.99996C14 6.44767 13.5523 5.99996 13 5.99996H10V1.33329C10 0.965103 9.70152 0.666626 9.33333 0.666626H6.66667C6.29848 0.666626 6 0.965103 6 1.33329V5.99996ZM7.33333 7.33329V1.99996H8.66667V7.33329H12.6667V9.33329H3.33333V7.33329H7.33333ZM3.33333 14V10.6666H12.6667V14H11.3333V12.6666H10V14H8.66667V12H7.33333V14H6V12.6666H4.66667V14H3.33333Z" fill="#646A73"/>
</svg>
