<svg width="20" height="20" viewBox="0 0 20 20" fill="none" xmlns="http://www.w3.org/2000/svg">
<path d="M6.43791 2.26348L2.3524 6.34898C2.17884 6.52255 2.17884 6.80395 2.3524 6.97752L6.83075 11.4559C7.00431 11.6294 7.28572 11.6294 7.45929 11.4559L8.00926 10.9059C8.18283 10.7323 8.18283 10.4509 8.00926 10.2774L4.9589 7.22552L12.2222 7.22219V7.22698C14.5234 7.22698 16.3889 9.09246 16.3889 11.3937C16.3889 13.6948 14.5234 15.5603 12.2222 15.5603V15.5555L8.9696 15.5597C8.72436 15.5601 8.52573 15.759 8.52573 16.0042V16.782C8.52573 16.9967 8.67808 17.1759 8.8806 17.2174L8.97075 17.2264L12 17.2214L12.2222 17.227C15.4439 17.227 18.0556 14.6153 18.0556 11.3937C18.0556 8.17199 15.4439 5.56032 12.2222 5.56032V5.55552L5.4989 5.55886L7.61642 3.44199C7.78999 3.26842 7.78999 2.98701 7.61642 2.81345L7.06645 2.26348C6.89288 2.08991 6.61148 2.08991 6.43791 2.26348Z" fill="#1F2329"/>
</svg>
