<svg width="16" height="16" viewBox="0 0 16 16" fill="none" xmlns="http://www.w3.org/2000/svg">
<path d="M11.0036 1.80702L14.272 5.07542C14.4108 5.21428 14.4108 5.4394 14.272 5.57826L10.6893 9.16093C10.5505 9.29978 10.3253 9.29978 10.1865 9.16093L9.7465 8.72095C9.60765 8.5821 9.60765 8.35698 9.7465 8.21812L12.1858 5.77755L6.44444 5.77783C4.60349 5.77783 3.1111 7.27021 3.1111 9.11116C3.1111 10.9521 4.60349 12.4445 6.44444 12.4445H8.97777C9.17414 12.4445 9.33333 12.6037 9.33333 12.8V13.4223C9.33333 13.6186 9.17414 13.7778 8.97777 13.7778H6.22222C3.74827 13.6568 1.77777 11.6141 1.77777 9.11116C1.77777 6.6082 3.74827 4.56548 6.22259 4.44967L6.22222 4.44449L11.7555 4.44421L10.0608 2.74983C9.92192 2.61098 9.92192 2.38585 10.0608 2.247L10.5008 1.80702C10.6396 1.66817 10.8647 1.66817 11.0036 1.80702Z" fill="#1F2329"/>
</svg>
