<svg width="24" height="24" viewBox="0 0 24 24" xmlns="http://www.w3.org/2000/svg">
<path d="M12 23C18.0751 23 23 18.0751 23 12C23 5.92487 18.0751 1 12 1C5.92487 1 1 5.92487 1 12C1 18.0751 5.92487 23 12 23Z"/>
<path d="M12 5.5C12.6903 5.5 13.25 6.05965 13.25 6.75C13.25 7.44035 12.6903 8 12 8C11.3097 8 10.75 7.44035 10.75 6.75C10.75 6.05965 11.3097 5.5 12 5.5Z" fill="white"/>
<path d="M12.25 9H10.75C10.4739 9 10.25 9.22386 10.25 9.5V10.5C10.25 10.7761 10.4739 11 10.75 11H11.25V16H10C9.72386 16 9.5 16.2239 9.5 16.5V17.5C9.5 17.7761 9.72386 18 10 18H14.5C14.7761 18 15 17.7761 15 17.5V16.5C15 16.2239 14.7761 16 14.5 16H13.25V10C13.25 9.44772 12.8023 9 12.25 9Z" fill="white"/>
</svg>
