<svg width="24" height="24" viewBox="0 0 24 24" xmlns="http://www.w3.org/2000/svg">
<path d="M13 6C13 6.38511 13.0544 6.7575 13.156 7.10992L8.82562 9.66877C8.10199 8.94656 7.10314 8.5 6 8.5C3.79086 8.5 2 10.2909 2 12.5C2 14.7091 3.79086 16.5 6 16.5C7.22712 16.5 8.32519 15.9474 9.05894 15.0775L14.575 17.7252C14.5258 17.9759 14.5 18.2349 14.5 18.5C14.5 20.7091 16.2909 22.5 18.5 22.5C20.7091 22.5 22.5 20.7091 22.5 18.5C22.5 16.2909 20.7091 14.5 18.5 14.5C17.2729 14.5 16.1748 15.0526 15.4411 15.9225L9.92502 13.2748C9.97422 13.0241 10 12.7651 10 12.5C10 12.1149 9.94558 11.7425 9.844 11.3901L14.1744 8.83123C14.898 9.55344 15.8969 10 17 10C19.2091 10 21 8.20914 21 6C21 3.79086 19.2091 2 17 2C14.7909 2 13 3.79086 13 6ZM19 6C19 7.10457 18.1046 8 17 8C15.8954 8 15 7.10457 15 6C15 4.89543 15.8954 4 17 4C18.1046 4 19 4.89543 19 6ZM18.5 20.5C17.3954 20.5 16.5 19.6046 16.5 18.5C16.5 17.3954 17.3954 16.5 18.5 16.5C19.6046 16.5 20.5 17.3954 20.5 18.5C20.5 19.6046 19.6046 20.5 18.5 20.5ZM8 12.5C8 13.6046 7.10457 14.5 6 14.5C4.89543 14.5 4 13.6046 4 12.5C4 11.3954 4.89543 10.5 6 10.5C7.10457 10.5 8 11.3954 8 12.5Z"/>
</svg>
