<svg width="16" height="16" viewBox="0 0 16 16" fill="none" xmlns="http://www.w3.org/2000/svg">
<path fill-rule="evenodd" clip-rule="evenodd" d="M2.66634 2.66732V9.33398H9.33301V2.66732H2.66634ZM1.99967 1.33398C1.63148 1.33398 1.33301 1.63246 1.33301 2.00065V10.0007C1.33301 10.3688 1.63148 10.6673 1.99967 10.6673H9.99967C10.3679 10.6673 10.6663 10.3688 10.6663 10.0007V2.00065C10.6663 1.63246 10.3679 1.33398 9.99967 1.33398H1.99967Z" fill="#3370FF"/>
<path fill-rule="evenodd" clip-rule="evenodd" d="M6.66634 6.66732V13.334H13.333V6.66732H6.66634ZM5.99967 5.33398C5.63148 5.33398 5.33301 5.63246 5.33301 6.00065V14.0007C5.33301 14.3688 5.63148 14.6673 5.99967 14.6673H13.9997C14.3679 14.6673 14.6663 14.3688 14.6663 14.0007V6.00065C14.6663 5.63246 14.3679 5.33398 13.9997 5.33398H5.99967Z" fill="#3370FF"/>
<path fill-rule="evenodd" clip-rule="evenodd" d="M9.99967 5.33398C10.3679 5.33398 10.6663 5.63246 10.6663 6.00065V10.0007C10.6663 10.3688 10.3679 10.6673 9.99967 10.6673H5.99967C5.63148 10.6673 5.33301 10.3688 5.33301 10.0007V6.00065C5.33301 5.63246 5.63148 5.33398 5.99967 5.33398H9.99967Z" fill="#3370FF" fill-opacity="0.6"/>
</svg>
