<?xml version="1.0" standalone="no"?><!DOCTYPE svg PUBLIC "-//W3C//DTD SVG 1.1//EN" "http://www.w3.org/Graphics/SVG/1.1/DTD/svg11.dtd"><svg t="1621224495563" class="icon" viewBox="0 0 1024 1024" version="1.1" xmlns="http://www.w3.org/2000/svg" p-id="7328" xmlns:xlink="http://www.w3.org/1999/xlink" width="200" height="200"><defs><style type="text/css"></style></defs><path d="M376.795429 691.2c15.616 0 27.008-10.733714 27.008-27.337143v-46.848h1.316571c20.809143 45.878857 63.451429 74.514286 117.449143 74.514286 88.832 0 147.072-70.619429 147.072-179.620572s-58.569143-179.620571-146.413714-179.620571c-53.028571 0-96 28.964571-116.169143 74.203429h-1.627429v-166.290286c0-17.554286-11.062857-28.946286-27.337143-28.946286-16.274286 0-27.318857 11.373714-27.318857 28.946286v423.68c0 16.914286 10.422857 27.318857 26.020572 27.318857z m490.697142 0.329143c64.091429 0 118.765714-35.145143 137.325715-84.937143 1.938286-5.522286 2.925714-10.733714 2.925714-15.286857 0-13.988571-9.764571-23.753143-23.442286-23.753143-12.361143 0-18.870857 4.882286-26.020571 19.2-17.261714 37.101714-46.537143 57.270857-90.459429 57.270857-63.451429 0-105.106286-50.432-105.106285-131.785143 0-80.694857 41.654857-132.443429 105.106285-132.443428 41.965714 0 72.228571 19.858286 89.782857 57.929143 6.857143 13.659429 13.348571 18.541714 25.398858 18.541714 13.988571 0 23.753143-9.106286 23.753142-23.424 0-3.913143-0.969143-8.777143-2.267428-13.019429-16.274286-49.792-71.917714-87.533714-137.984-87.533714-96.950857 0-160.091429 71.259429-160.091429 180.278857 0 109.659429 63.780571 178.962286 161.078857 178.962286zM116.169143 691.2c49.444571 0 96.310857-27.008 115.84-68.662857h0.969143v42.313143c0.658286 15.926857 11.392 26.678857 26.697143 26.678857 15.597714 0 26.331429-10.733714 26.331428-27.977143v-215.405714c0-70.290286-51.401143-115.529143-133.394286-115.529143-60.854857 0-111.286857 26.697143-130.157714 68.022857-3.584 8.118857-5.851429 15.926857-5.851428 22.765714 0 14.317714 10.404571 23.424 24.722285 23.424 10.093714 0 17.554286-3.584 22.784-12.690285 17.554286-37.412571 45.220571-54.674286 87.204572-54.674286 50.102857 0 79.725714 27.977143 79.725714 73.216v27.337143l-103.808 5.851428C45.531429 491.428571 0 528.201143 0 588.068571 0 650.203429 47.506286 691.2 116.169143 691.2z m394.057143-47.177143c-61.184 0-104.777143-52.388571-104.777143-131.785143 0-79.725714 43.593143-132.114286 104.777143-132.114285 63.104 0 102.802286 51.090286 102.802285 131.785142 0 81.353143-39.68 132.114286-102.820571 132.114286z m-381.037715 1.956572c-43.611429 0-72.905143-23.771429-72.905142-58.898286 0-34.176 27.337143-56.630857 77.769142-60.196572l96.969143-6.180571v33.828571c0 51.419429-45.220571 91.428571-101.851428 91.428572z m700.891429 249.892571a39.168 39.168 0 0 0 39.04-39.058286 39.168 39.168 0 0 0-39.058286-39.04c-21.467429 0-39.04 17.572571-39.04 39.058286 0 21.467429 17.554286 39.04 39.058286 39.04z m154.88 0A39.168 39.168 0 0 0 1024 856.813714c0-21.467429-17.554286-39.04-39.04-39.04-21.485714 0-39.058286 17.572571-39.058286 39.058286 0 21.467429 17.572571 39.04 39.058286 39.04z m-309.76 0a38.948571 38.948571 0 0 0 39.04-39.058286 38.948571 38.948571 0 0 0-39.058286-39.04c-21.467429 0-39.04 17.572571-39.04 39.058286 0 21.467429 17.554286 39.04 39.04 39.04z m-154.898286 0a38.948571 38.948571 0 0 0 39.04-39.058286 38.948571 38.948571 0 0 0-39.04-39.04c-21.485714 0-39.058286 17.572571-39.058285 39.058286 0 21.467429 17.572571 39.04 39.058285 39.04z m-154.88 0a38.948571 38.948571 0 0 0 39.04-39.058286 38.948571 38.948571 0 0 0-39.058285-39.04c-21.467429 0-39.04 17.572571-39.04 39.058286 0 21.467429 17.572571 39.04 39.058285 39.04z m-154.88 0a39.241143 39.241143 0 0 0 39.350857-39.058286 39.222857 39.222857 0 0 0-78.409142 0c0 21.485714 17.554286 39.058286 39.04 39.058286z m-155.227428 0a38.948571 38.948571 0 0 0 39.04-39.058286 38.948571 38.948571 0 0 0-39.04-39.04c-21.467429 0-39.04 17.572571-39.04 39.058286 0 21.467429 17.554286 39.04 39.04 39.04z" p-id="7329"></path></svg>

