<svg t="1637222082620" class="icon" viewBox="0 0 1509 1024" version="1.1" xmlns="http://www.w3.org/2000/svg" p-id="7099" width="200" height="200"><path d="M29.563081 516.459501a478.33617 478.33617 0 0 0 470.958234 485.406692A478.33617 478.33617 0 0 0 970.557308 516.459501 478.33617 478.33617 0 0 0 500.521315 31.052809 478.028756 478.028756 0 0 0 29.563081 516.152087z" p-id="7100"></path><path d="M1011.443368 0.003996a482.94738 482.94738 0 0 0-256.075854 72.242288 3.07414 3.07414 0 0 0-1.53707 0h-1.844484A483.869622 483.869622 0 0 0 496.832348 0.003996 504.773773 504.773773 0 0 0 0.051338 511.848291a505.081187 505.081187 0 0 0 498.010666 512.151709 483.254794 483.254794 0 0 0 255.153612-73.471944 3.07414 3.07414 0 0 0 1.53707 0h0.614828a483.254794 483.254794 0 0 0 255.153612 72.549702A505.081187 505.081187 0 0 0 1509.454034 511.848291 505.081187 505.081187 0 0 0 1011.443368 0.003996z m-304.954679 916.401107a430.379587 430.379587 0 0 1-208.426685 53.490035 450.976325 450.976325 0 0 1-443.905803-458.046847A451.283739 451.283739 0 0 1 498.062004 53.801445a428.227689 428.227689 0 0 1 208.426685 53.797448 522.603784 522.603784 0 0 0 0 808.80621z m304.954679 53.490035a430.379587 430.379587 0 0 1-208.426685-53.490035 522.603784 522.603784 0 0 0 0-808.80621 428.227689 428.227689 0 0 1 208.426685-53.797448 451.283739 451.283739 0 0 1 443.905803 458.046846 450.976325 450.976325 0 0 1-443.905803 458.046847z" p-id="7101"></path></svg>
