<?xml version="1.0" standalone="no"?><!DOCTYPE svg PUBLIC "-//W3C//DTD SVG 1.1//EN" "http://www.w3.org/Graphics/SVG/1.1/DTD/svg11.dtd"><svg t="1669016705897" class="icon" viewBox="0 0 1024 1024" version="1.1" xmlns="http://www.w3.org/2000/svg" p-id="9524" data-spm-anchor-id="a313x.7781069.0.i22" xmlns:xlink="http://www.w3.org/1999/xlink" width="200" height="200"><path d="M512 85.333333C277.333333 85.333333 85.333333 277.333333 85.333333 512s192 426.666667 426.666667 426.666667 426.666667-192 426.666667-426.666667S746.666667 85.333333 512 85.333333z m0 810.666667c-211.2 0-384-172.8-384-384 0-204.8 162.133333-371.2 362.666667-381.866667V384h42.666666V130.133333c200.533333 10.666667 362.666667 179.2 362.666667 381.866667 0 211.2-172.8 384-384 384z" fill="#515151" p-id="9525"></path><path d="M695.466667 748.8l-27.733334-202.666667 68.266667-128-87.466667-104.533333-151.466666-59.733333 29.866666-81.066667 172.8 70.4 136.533334 164.266667-78.933334 153.6 21.333334 177.066666z" fill="#515151" p-id="9526"></path><path d="M341.333333 748.8L198.4 526.933333l98.133333-232.533333 76.8 32-78.933333 192 91.733333 140.8 164.266667-12.8v-183.466667h85.333333V725.333333z" fill="#515151" opacity=".6" p-id="9527" data-spm-anchor-id="a313x.7781069.0.i23" class="selected"></path></svg>