<svg width="12" height="14" viewBox="0 0 12 14" fill="none" xmlns="http://www.w3.org/2000/svg">
  <path d="M12 11.3327V12.9994C12 13.3675 11.7015 13.666 11.3333 13.666H0.666667C0.298477 13.666 0 13.3675 0 12.9994V11.3327C0 11.1486 0.149238 10.9994 0.333333 10.9994H1C1.18409 10.9994 1.33333 11.1486 1.33333 11.3327V12.3327H10.6667V11.3327C10.6667 11.1486 10.8159 10.9994 11 10.9994H11.6667C11.8508 10.9994 12 11.1486 12 11.3327ZM6.66667 8.35649L8.67365 6.34952C8.80382 6.21934 9.01488 6.21934 9.14505 6.34952L9.61646 6.82092C9.74663 6.95109 9.74663 7.16215 9.61646 7.29232L6.31663 10.5922C6.25154 10.6572 6.16623 10.6898 6.08092 10.6898C5.99562 10.6898 5.91031 10.6572 5.84522 10.5922L2.54539 7.29232C2.41521 7.16215 2.41521 6.95109 2.54539 6.82092L3.01679 6.34952C3.14697 6.21934 3.35802 6.21934 3.4882 6.34952L5.33334 8.19465V0.999349C5.33334 0.815254 5.48257 0.666016 5.66667 0.666016H6.33334C6.51743 0.666016 6.66667 0.815254 6.66667 0.999349V8.35649Z" fill="#1F2329" />
</svg>
  