<?xml version="1.0" standalone="no"?><!DOCTYPE svg PUBLIC "-//W3C//DTD SVG 1.1//EN" "http://www.w3.org/Graphics/SVG/1.1/DTD/svg11.dtd"><svg t="1620789091905" class="icon" viewBox="0 0 1024 1024" version="1.1" xmlns="http://www.w3.org/2000/svg" p-id="11831" xmlns:xlink="http://www.w3.org/1999/xlink" width="200" height="200"><defs><style type="text/css"></style></defs><path d="M295.424 831.36512l450.56 0c11.30496 0 20.48-9.17504 20.48-20.48l0-350.4128c0-11.30496-9.17504-20.48-20.48-20.48l-9.70752 0c0-21.0944 0-50.95424 0-51.36384-1.26976-117.248-97.95584-212.62336-215.552-212.62336-117.94432 0-214.6304 95.66208-215.57248 213.4016l0 50.5856-9.70752 0c-11.30496 0-20.48 9.17504-20.48 20.48l0 350.4128C274.944 822.19008 284.09856 831.36512 295.424 831.36512zM725.504 790.40512l-409.6 0 0-309.4528 409.6 0L725.504 790.40512zM346.09152 389.57056c0.75776-95.17056 79.07328-172.60544 174.61248-172.60544 95.25248 0 173.58848 77.2096 174.592 172.01152 0 1.3312 0 30.35136 0 51.01568L346.07104 439.99232 346.09152 389.57056z" p-id="11832"></path><path d="M476.01664 721.69472c0 11.30496 9.17504 20.48 20.48 20.48l48.37376 0c11.30496 0 20.48-9.17504 20.48-20.48l0-66.17088c16.6912-13.37344 26.64448-33.56672 26.64448-55.1936 0-39.23968-31.98976-71.168-71.31136-71.168s-71.31136 31.92832-71.31136 71.168c0 21.62688 9.95328 41.82016 26.64448 55.1936L476.01664 721.69472zM520.704 570.14272c16.73216 0 30.35136 13.55776 30.35136 30.208 0 10.87488-6.10304 20.97152-15.95392 26.3168-6.59456 3.584-10.69056 10.48576-10.69056 17.98144l0 56.56576-7.41376 0 0-56.56576c0-7.49568-4.096-14.41792-10.69056-17.98144-9.8304-5.34528-15.95392-15.44192-15.95392-26.3168C490.33216 583.68 503.95136 570.14272 520.704 570.14272z" p-id="11833"></path></svg>