<?xml version="1.0" standalone="no"?><!DOCTYPE svg PUBLIC "-//W3C//DTD SVG 1.1//EN" "http://www.w3.org/Graphics/SVG/1.1/DTD/svg11.dtd"><svg t="1620789052806" class="icon" viewBox="0 0 1024 1024" version="1.1" xmlns="http://www.w3.org/2000/svg" p-id="11539" xmlns:xlink="http://www.w3.org/1999/xlink" width="200" height="200"><defs><style type="text/css"></style></defs><path d="M476.01664 721.69472c0 11.30496 9.17504 20.48 20.48 20.48l48.37376 0c11.30496 0 20.48-9.17504 20.48-20.48l0-66.17088c16.6912-13.37344 26.64448-33.56672 26.64448-55.1936 0-39.23968-31.98976-71.168-71.31136-71.168s-71.31136 31.92832-71.31136 71.168c0 21.62688 9.95328 41.82016 26.64448 55.1936L476.01664 721.69472zM520.704 570.14272c16.73216 0 30.35136 13.55776 30.35136 30.208 0 10.87488-6.10304 20.97152-15.95392 26.3168-6.59456 3.584-10.69056 10.48576-10.69056 17.98144l0 56.56576-7.41376 0 0-56.56576c0-7.49568-4.096-14.41792-10.69056-17.98144-9.8304-5.34528-15.95392-15.44192-15.95392-26.3168C490.33216 583.68 503.95136 570.14272 520.704 570.14272z" p-id="11540" fill="#1296db"></path><path d="M295.424 831.22176l450.56 0c11.30496 0 20.48-9.17504 20.48-20.48L766.464 463.72864c0-11.30496-9.17504-20.48-20.48-20.48L338.1248 443.24864c-20.7872-61.56288-5.2224-129.59744 41.69728-175.9232 67.42016-66.53952 177.664-67.11296 245.71904-1.37216 1.47456 1.4336 50.72896 50.05312 50.72896 50.05312l28.7744-29.16352c0 0-50.50368-49.84832-50.97472-50.29888-83.98848-81.16224-219.91424-80.42496-303.0016 1.6384-54.84544 54.14912-75.48928 132.34176-56.0128 205.12768-11.12064 0.2048-20.09088 9.23648-20.09088 20.39808l0 347.01312C274.944 822.04672 284.09856 831.22176 295.424 831.22176zM725.504 790.26176l-409.6 0L315.904 484.20864l409.6 0L725.504 790.26176z" p-id="11541" fill="#1296db"></path></svg>