<?xml version="1.0" standalone="no"?><!DOCTYPE svg PUBLIC "-//W3C//DTD SVG 1.1//EN" "http://www.w3.org/Graphics/SVG/1.1/DTD/svg11.dtd"><svg t="1669089160022" class="icon" viewBox="0 0 1024 1024" version="1.1" xmlns="http://www.w3.org/2000/svg" p-id="20998" xmlns:xlink="http://www.w3.org/1999/xlink" width="200" height="200"><path d="M224 96c-70.4 0-128 57.6-128 128v352L576 96H224zM96 768v32c0 70.4 57.6 128 128 128h199.385L211.478 652.522 96 768zM800 96h-32L301.913 562.087 583.385 928H800c70.4 0 128-57.6 128-128V224c0-70.4-57.6-128-128-128zM688 672c-79.529 0-144-64.471-144-144s64.471-144 144-144 144 64.471 144 144-64.471 144-144 144z" p-id="20999" fill="#515151"></path><path d="M688 528m-80 0a80 80 0 1 0 160 0 80 80 0 1 0-160 0Z" p-id="21000" fill="#515151"></path></svg>