<?xml version="1.0" standalone="no"?><!DOCTYPE svg PUBLIC "-//W3C//DTD SVG 1.1//EN" "http://www.w3.org/Graphics/SVG/1.1/DTD/svg11.dtd"><svg t="1669111521366" class="icon" viewBox="0 0 1024 1024" version="1.1" xmlns="http://www.w3.org/2000/svg" p-id="32022" xmlns:xlink="http://www.w3.org/1999/xlink" width="200" height="200"><path d="M544.096 512V199.488L720 96l176.192 102.144V664l-53.184 31.392L945.824 928H64l170.304-385.28v-103.584l61.056-119.04h181.344L478.912 512h65.184z m0 32h-64.832l0.352 32.096-62.944 127.072h-182.4v-81.28L113.152 896h783.552l-81.408-184.224L720 768l-175.904-104V544z m-89.504 320.64l66.56-172.48 185.696 110.688h42.56l42.4-24.448 35.936 86.24h-373.12zM219.392 736h189.12l-54.88 128.64H162.688L219.392 736z m226.048-351.808L416 444.544v187.904l31.552-63.68-2.112-184.576z m-179.136 62.976v224H384v-224H266.304z m18.88-32h109.536l30.784-63.072H315.488l-30.304 63.072zM864.192 241.28l-128.064 70.496V721.28l128.064-75.584V241.28z m-10.496-30.784l-133.568-77.44-131.136 77.12 131.2 73.824 133.504-73.504z m-277.6 29.152v406.08l128.032 75.712V311.68l-128.032-72z" p-id="32023" fill="#515151"></path></svg>