<?xml version="1.0" standalone="no"?><!DOCTYPE svg PUBLIC "-//W3C//DTD SVG 1.1//EN" "http://www.w3.org/Graphics/SVG/1.1/DTD/svg11.dtd"><svg t="1669014247311" class="icon" viewBox="0 0 1024 1024" version="1.1" xmlns="http://www.w3.org/2000/svg" p-id="2764" xmlns:xlink="http://www.w3.org/1999/xlink" width="200" height="200"><path d="M129.28 911.36a40.94976 40.94976 0 0 1-40.96-40.96V256a40.96512 40.96512 0 0 1 25.74848-38.03136l256-102.4A40.96 40.96 0 0 1 426.24 153.6v614.4a40.96512 40.96512 0 0 1-25.74848 38.03136l-256 102.4a40.86784 40.86784 0 0 1-15.21152 2.92864z m40.96-627.63008v526.17216l174.08-69.632V214.09792l-174.08 69.632z" p-id="2765" fill="#515151"></path><path d="M638.71488 911.36a40.8576 40.8576 0 0 1-15.2064-2.92864l-256-102.4A40.96 40.96 0 0 1 341.76 768V153.6a40.97024 40.97024 0 0 1 56.17152-38.03136l256 102.4A40.96 40.96 0 0 1 679.68 256v614.4a40.96 40.96 0 0 1-40.96512 40.96zM423.68 740.27008l174.08 69.632V283.72992l-174.08-69.632v526.17216z" p-id="2766" fill="#515151"></path><path d="M638.72512 911.36a40.97024 40.97024 0 0 1-40.96512-40.96V256a40.96 40.96 0 0 1 25.74848-38.03136l256-102.4A40.97024 40.97024 0 0 1 935.68 153.6v614.4a40.96 40.96 0 0 1-25.74848 38.03136l-256 102.4a40.8576 40.8576 0 0 1-15.2064 2.92864z m40.95488-627.63008v526.17216l174.08-69.632V214.09792l-174.08 69.632z" p-id="2767" fill="#515151"></path></svg>