<svg t="1629878140490" class="icon" viewBox="0 0 1027 1024" version="1.1" xmlns="http://www.w3.org/2000/svg" p-id="7553" width="200" height="200"><path d="M892.8 854.4c-3.2 0 0-6.4-6.4-6.4v-3.2h-6.4s0-3.2-3.2-3.2-3.2-3.2-3.2-3.2l-3.2-3.2c0-3.2 3.2-6.4 3.2-12.8 0 0 0-3.2-3.2-3.2 0-6.4 3.2-12.8 6.4-19.2v-9.6l3.2-3.2v-6.4c0-3.2 6.4-3.2 6.4-6.4 3.2 0 3.2 0 6.4-3.2h6.4s3.2 3.2 6.4 3.2c3.2 12.8 0 28.8 0 44.8-3.2 6.4 0 16-6.4 22.4-3.2 3.2 0 6.4 0 12.8 0 3.2 0 3.2-3.2 6.4 0-6.4 0-6.4-3.2-6.4zM646.4 960s-3.2-3.2-6.4-3.2h-6.4l-3.2-3.2v-6.4-9.6s3.2-3.2 3.2-6.4c3.2-3.2 9.6-9.6 16-12.8 3.2 0 6.4 0 9.6-3.2 3.2 0 3.2 3.2 6.4 3.2h3.2v-3.2s-3.2 0-6.4-3.2l-3.2-3.2c0-3.2-3.2-6.4-3.2-9.6l-6.4-3.2v-6.4H643.2l-3.2-3.2c-3.2 0-6.4-3.2-12.8 0-3.2 0-3.2 3.2-6.4 3.2H611.2c-3.2 0-6.4-3.2-12.8-6.4h-9.6l-9.6-9.6s0-3.2-3.2-6.4v-12.8h-3.2-6.4c-6.4-3.2-12.8-6.4-16-9.6 0 3.2-3.2 3.2-6.4 6.4 0 3.2-6.4 3.2-6.4 6.4-3.2 3.2-6.4 0-9.6 0-3.2 0-3.2 3.2-6.4 3.2-6.4-3.2-16 0-22.4-3.2-3.2 0-3.2 0-6.4 3.2v3.2H483.2h-3.2c0 6.4 3.2 16 0 25.6-3.2 0-3.2 3.2-6.4 3.2h-6.4c-3.2 0-3.2-3.2-6.4-6.4 0-3.2 0-3.2-3.2-6.4-3.2 0-3.2 3.2-6.4 3.2h-6.4c0-3.2-3.2-3.2-3.2-3.2s0-3.2-3.2-3.2c0 0-3.2 0-3.2-3.2 0 0-3.2-3.2-6.4-3.2l-3.2-3.2s-3.2-3.2-3.2-6.4v-9.6c3.2 0 0-3.2 3.2-6.4 0-3.2-3.2-3.2-6.4-3.2 0-3.2-3.2-3.2-6.4-6.4v-12.8c-3.2-3.2-12.8 0-19.2 0h-3.2c0-6.4-3.2-12.8 0-22.4 0-3.2 3.2-3.2 6.4-6.4v-3.2c3.2-3.2 3.2-6.4 9.6-9.6 3.2-3.2 3.2-6.4 6.4-6.4V768c0-3.2 3.2-3.2 3.2-6.4v-9.6c3.2-6.4 0-6.4 0-9.6l-3.2-3.2h-3.2c-3.2-6.4-6.4-12.8-6.4-16h-3.2s-3.2 6.4-6.4 6.4c-3.2 3.2-9.6 0-12.8 0-6.4-3.2-9.6-6.4-16-9.6h-6.4l-3.2 3.2c-3.2 0-3.2 3.2-6.4 3.2h-6.4c-3.2 0-3.2 3.2-9.6 6.4-3.2 3.2-9.6 3.2-12.8 6.4-3.2 0-3.2 3.2-6.4 3.2h3.2c-3.2 0-3.2 3.2-6.4 3.2H291.2l-3.2-3.2v-9.6c-3.2-3.2-6.4-6.4-9.6-6.4 0-3.2-3.2-3.2-6.4-6.4v-3.2l-3.2-12.8-3.2-3.2c-3.2-3.2-6.4-3.2-12.8-3.2l-3.2-3.2h-6.4c-3.2 3.2-6.4 3.2-6.4 6.4s-3.2 3.2-3.2 6.4c0 0-3.2 0-6.4 3.2 0 0-3.2 0-6.4-3.2s0-12.8-3.2-16c-3.2 0-3.2 3.2-9.6 3.2-3.2 0-3.2-3.2-6.4-3.2h-3.2l-6.4-3.2c-3.2 0-9.6-3.2-16-6.4-3.2 0-3.2-3.2-6.4-3.2h-12.8c0-3.2-3.2-3.2-3.2-6.4-3.2 0-6.4-3.2-9.6-3.2 0 0 0-3.2-3.2-3.2v-3.2c-3.2 0-3.2 0-6.4-3.2l-3.2-3.2-3.2-3.2V640h-3.2c-3.2 0-6.4 0-9.6-3.2-6.4-12.8-12.8-22.4-25.6-28.8h-6.4c-3.2 0-3.2 3.2-6.4 6.4 0 0-3.2 0-6.4-3.2-3.2-6.4-6.4-9.6-9.6-12.8-3.2-3.2-3.2-6.4-3.2-9.6-3.2-3.2-6.4-6.4-9.6-12.8h-3.2c0-3.2-3.2-6.4-6.4-6.4-3.2-9.6 0-19.2 0-28.8v-6.4c3.2 0 3.2-3.2 6.4-3.2s3.2 3.2 6.4 3.2l3.2-3.2c0-9.6-3.2-16-3.2-25.6 0-3.2 3.2-3.2 3.2-9.6-3.2-9.6-6.4-16-6.4-25.6 0-3.2-3.2 0-6.4-3.2h3.2c-6.4-3.2-9.6-9.6-12.8-12.8-3.2 0-3.2-3.2-6.4-3.2-3.2-6.4 0-16-3.2-25.6-3.2 0-3.2-6.4-6.4-6.4s-6.4-3.2-9.6-6.4v-6.4c3.2-3.2 6.4-3.2 9.6-3.2v-6.4c0-3.2 3.2-3.2 3.2-9.6v-6.4s0-3.2-3.2-6.4-6.4 0-12.8-3.2l-3.2-3.2v-6.4l6.4-6.4v-12.8c3.2 0 3.2 0 3.2-3.2 3.2 0 6.4-3.2 9.6-6.4 3.2-3.2 9.6 0 12.8 0l3.2-3.2c3.2 0 9.6 3.2 12.8 3.2 3.2 0 3.2 3.2 6.4 3.2h9.6c3.2 0 3.2-3.2 9.6-3.2v-3.2s3.2 0 3.2-3.2c3.2 0 9.6 0 9.6-3.2 9.6-3.2 19.2 0 28.8 0 9.6-3.2 12.8-3.2 19.2-3.2h3.2c3.2-3.2 6.4-9.6 6.4-16l3.2-3.2c3.2 0 3.2-3.2 3.2-3.2V262.4c3.2 0 0-3.2 3.2-6.4 3.2 0 3.2-3.2 6.4-3.2 6.4 0 16-3.2 22.4 3.2H195.2v-3.2c0-3.2 0-6.4 3.2-12.8l3.2-3.2v-3.2c0-3.2 3.2-3.2 3.2-3.2 3.2-6.4 6.4-6.4 6.4-9.6 3.2 0 0-3.2 3.2-6.4 3.2 0 3.2-3.2 6.4-3.2 6.4 0 6.4 3.2 12.8 3.2 3.2 0 3.2 3.2 6.4 3.2h6.4c3.2 0 6.4 0 9.6-3.2 3.2 0 0-3.2 3.2-6.4 0-3.2 0-9.6 3.2-16 0 0 3.2 0 3.2-3.2h6.4c3.2 3.2 6.4 3.2 6.4 3.2v-3.2s0-3.2 3.2-3.2c9.6-3.2 19.2-6.4 25.6-3.2 3.2 6.4 0 12.8 3.2 19.2 3.2 0 3.2 3.2 6.4 6.4 3.2 0 3.2 3.2 3.2 6.4 0 0 3.2 3.2 6.4 3.2h3.2c3.2 0 3.2 3.2 6.4 3.2 0 0 0 3.2 3.2 3.2v16h3.2c3.2 6.4 0 12.8 3.2 19.2 0 3.2-3.2 9.6-6.4 12.8v12.8c6.4 3.2 9.6 3.2 16 3.2v3.2c6.4 0 12.8 3.2 19.2 6.4h3.2c3.2 0 6.4 6.4 12.8 6.4v6.4c3.2 0 3.2 6.4 6.4 6.4 0 0 3.2 0 3.2 3.2 3.2 3.2 0 6.4 3.2 12.8l3.2 3.2c0 3.2 3.2 3.2 3.2 6.4 0 0 0 3.2 3.2 3.2v6.4s3.2 0 3.2 3.2c0 0 3.2 3.2 6.4 3.2s3.2 3.2 6.4 3.2c6.4 0 16 0 22.4 3.2l3.2 3.2c12.8 0 22.4 3.2 38.4 3.2 3.2 0 3.2 3.2 6.4 3.2h6.4c3.2 3.2 3.2 3.2 6.4 3.2v3.2c3.2 3.2 9.6 0 12.8 3.2 0 3.2 6.4 3.2 6.4 9.6h19.2c3.2 0 3.2 3.2 6.4 3.2 6.4-3.2 9.6-3.2 16-9.6h6.4V384c3.2 0 6.4 0 9.6-3.2l3.2-3.2c9.6-3.2 16-3.2 25.6-6.4h32c3.2 0 3.2-3.2 3.2-6.4 3.2-3.2 6.4-6.4 9.6-6.4h3.2c3.2 0 3.2-3.2 3.2-6.4 3.2 0 3.2-3.2 3.2-3.2v-3.2l-3.2-3.2c-3.2-3.2-6.4-6.4-6.4-12.8v-12.8c3.2 0 3.2 0 3.2-3.2 3.2 0 3.2-3.2 6.4-3.2 9.6 0 19.2 3.2 28.8 0 3.2 0 3.2 0 6.4-3.2v-3.2h3.2l9.6-9.6c3.2 0 6.4 0 9.6-3.2l3.2-3.2c3.2 0 6.4 0 9.6-3.2 0-3.2 3.2-6.4 3.2-12.8l3.2-3.2h6.4c3.2-3.2 6.4-6.4 12.8-9.6h3.2l3.2-3.2h16l3.2-3.2c0-3.2-3.2-3.2-3.2-6.4-3.2 0-3.2-3.2-3.2-3.2-3.2 0-3.2-3.2-6.4-6.4h-3.2l-3.2-3.2h-9.6l-3.2 3.2c-3.2 0-3.2 3.2-6.4 3.2h-6.4l-3.2-3.2H739.2v12.8c-3.2 0-6.4 3.2-9.6 3.2l-3.2-3.2-3.2-3.2c0-6.4 0-12.8 3.2-19.2h3.2c0-6.4 3.2-9.6 3.2-12.8h3.2c0-6.4 3.2-9.6 6.4-12.8h19.2c3.2 0 3.2 0 3.2-3.2l9.6-9.6c3.2-3.2 0-9.6 3.2-12.8 3.2-3.2 3.2-9.6 6.4-12.8h3.2v-6.4l3.2-3.2 3.2-3.2v-9.6h-9.6l-3.2-3.2v-16c0-3.2 3.2-3.2 3.2-6.4h3.2c3.2 0 3.2 0 3.2-3.2 0 0 0-3.2 3.2-3.2h3.2c3.2 0 6.4-3.2 9.6 0 3.2 0 3.2-3.2 6.4-3.2s3.2-3.2 6.4-3.2h9.6c6.4-6.4 6.4-6.4 12.8-6.4 3.2 0 6.4 3.2 9.6 6.4 3.2 0 3.2 0 3.2-3.2h9.6c0 3.2 3.2 3.2 6.4 3.2 0 0 0 3.2 3.2 3.2 3.2 3.2 3.2 6.4 6.4 9.6 0 3.2 0 6.4 3.2 6.4h3.2s0 6.4 3.2 6.4c3.2 3.2 6.4 3.2 6.4 6.4s3.2 3.2 3.2 6.4h6.4s0 3.2 3.2 3.2c0 3.2 3.2 9.6 3.2 12.8l3.2 3.2 3.2 3.2c6.4 3.2 16 0 22.4 3.2 3.2 3.2 6.4 3.2 9.6 6.4h9.6c0 3.2 3.2 3.2 6.4 6.4 0 0 0 3.2 3.2 3.2-6.4 6.4-6.4 9.6-6.4 12.8v3.2h3.2c3.2 0 3.2 3.2 6.4 3.2 6.4 0 9.6-3.2 16-3.2 3.2-3.2 3.2-6.4 6.4-6.4 0-3.2 3.2-3.2 3.2-6.4 3.2-3.2 3.2-3.2 9.6-3.2l9.6-9.6h3.2l3.2-3.2 3.2 3.2v6.4l-3.2 3.2V192c3.2 3.2 3.2 9.6 0 12.8h-3.2c-3.2 16 0 35.2-3.2 51.2 0 0 0 3.2-3.2 6.4 0 0-3.2 0-3.2 3.2-6.4 0-12.8 0-19.2 3.2v3.2c-3.2 3.2-6.4 3.2-6.4 6.4v6.4c6.4 3.2 9.6 6.4 9.6 12.8 3.2 6.4 3.2 12.8 3.2 22.4-3.2 3.2-3.2 6.4-6.4 6.4 0 3.2 0 9.6-3.2 12.8h-3.2v-3.2s-3.2-3.2-6.4-3.2c-3.2 3.2-3.2 6.4-6.4 12.8-3.2 3.2-9.6 6.4-12.8 12.8 0 3.2 3.2 3.2 3.2 3.2 0 3.2-3.2 3.2-3.2 6.4l-3.2 3.2c-6.4 3.2-16 0-22.4 0-3.2 0-3.2 0-3.2 3.2s-3.2 3.2-3.2 6.4l-3.2 3.2-3.2 3.2c0 3.2-3.2 3.2-6.4 9.6v3.2c-3.2 3.2-3.2 6.4-3.2 6.4-3.2 0-6.4 3.2-6.4 6.4-6.4 6.4-12.8 9.6-22.4 6.4-3.2 0-3.2 0-6.4 3.2 0 3.2 0 3.2-3.2 6.4 0 0 0 3.2-3.2 3.2v6.4l-6.4 9.6s0 3.2-3.2 3.2h-3.2l-3.2 3.2c-3.2 0-6.4 3.2-9.6 3.2 0-3.2-3.2-3.2-3.2-6.4v-6.4l3.2-3.2c3.2-6.4 0-16 3.2-25.6l3.2-3.2c3.2 0 0-3.2 3.2-6.4v-9.6c-3.2 0-3.2 3.2-6.4 3.2h-6.4c-3.2 3.2-3.2 6.4-3.2 9.6 0 3.2-3.2 3.2-3.2 3.2s0 3.2-3.2 6.4c-3.2 0-6.4 3.2-9.6 6.4-3.2 3.2-6.4 9.6-9.6 12.8 0 3.2-3.2 3.2 0 3.2l-6.4 6.4c-3.2 0-3.2 0-6.4 3.2h-6.4-3.2c-3.2 0 0 3.2 0 6.4s3.2 6.4 6.4 6.4h12.8c3.2 0 9.6 3.2 12.8 6.4v6.4h-3.2l3.2 3.2h6.4l9.6-9.6h3.2c3.2-3.2 12.8-9.6 19.2-9.6l3.2 3.2c3.2 0 3.2 0 9.6 3.2h3.2c3.2 0 3.2 3.2 9.6 3.2h3.2c3.2 0 3.2 0 6.4 3.2v3.2c-3.2 6.4-9.6 9.6-19.2 12.8 0 0-6.4 0-9.6 3.2 0 3.2 0 6.4-3.2 6.4h-3.2c0 3.2-3.2 3.2-3.2 6.4-3.2 3.2-9.6 6.4-12.8 12.8-3.2 0-3.2 3.2-3.2 6.4-3.2 0-3.2 3.2-3.2 6.4s3.2 3.2 3.2 6.4c3.2 3.2 6.4 0 9.6 0 3.2 3.2 6.4 0 6.4 3.2h3.2c3.2 0 0 6.4 3.2 9.6l3.2 3.2c0 6.4 3.2 16 3.2 22.4 3.2 3.2 6.4 3.2 9.6 6.4 3.2 3.2 3.2 6.4 6.4 9.6l3.2 3.2c0 3.2 3.2 6.4 3.2 9.6 3.2 3.2 3.2 6.4 6.4 6.4l3.2 3.2-9.6 9.6c-3.2 0-3.2 3.2-6.4 3.2h-3.2l-3.2 3.2h12.8l9.6 9.6c0 6.4 3.2 12.8 3.2 19.2l-3.2 3.2c-3.2 3.2 0 9.6 0 16 0 0-3.2 3.2-6.4 3.2-3.2 3.2-3.2 6.4-6.4 9.6 0 6.4-3.2 9.6-6.4 16 0 3.2-3.2 3.2-3.2 9.6 0 3.2-3.2 3.2-3.2 6.4v6.4s-3.2 0-3.2 3.2c0 0 0 3.2-3.2 3.2v12.8c0 3.2-3.2 6.4-3.2 9.6v6.4l-3.2 3.2c-3.2 0-3.2 6.4-6.4 9.6l-3.2 3.2h-6.4l-3.2 3.2v6.4l-3.2 3.2c-3.2 3.2-3.2 6.4-9.6 9.6h-3.2c0 3.2 3.2 0 3.2 3.2h-6.4c0 3.2-6.4 3.2-6.4 6.4s-3.2 6.4-6.4 9.6h-3.2c-3.2 3.2-9.6 6.4-16 6.4l-3.2 3.2h-12.8c-3.2 0-6.4 6.4-12.8 6.4h-3.2c-3.2 0-3.2 3.2-6.4 3.2v-3.2h-3.2s0 3.2-3.2 3.2l-12.8 22.4h-6.4c-3.2 0-6.4 3.2-6.4 3.2 0 3.2-3.2 3.2-3.2 6.4-3.2 3.2-9.6 0-12.8 3.2v3.2h-6.4c-3.2 0-3.2 3.2-9.6 6.4h-9.6c-3.2 0-3.2 3.2-3.2 3.2h-6.4l-3.2 6.4h3.2s3.2 3.2 3.2 6.4-3.2 6.4-3.2 9.6c0 0-3.2 0-6.4 3.2 6.4 3.2 12.8 0 19.2 3.2l3.2 3.2v6.4h-3.2c-3.2 0-3.2 3.2-6.4 6.4 0 3.2 3.2 9.6 0 12.8H675.2v3.2c-3.2 3.2-6.4 3.2-9.6 3.2 0 3.2-3.2 0-3.2 3.2l-16 3.2z m0 0" p-id="7554"></path></svg>
