<svg t="1634698675666" class="icon" viewBox="0 0 1024 1024" version="1.1" xmlns="http://www.w3.org/2000/svg" p-id="2280" width="200" height="200"><path d="M437.333333 224C437.333333 183.466667 471.466667 149.333333 512 149.333333s74.666667 34.133333 74.666667 74.666667S552.533333 298.666667 512 298.666667s-74.666667-34.133333-74.666667-74.666667zM439.466667 512c0-40.533333 34.133333-74.666667 74.666666-74.666667s74.666667 34.133333 74.666667 74.666667-34.133333 74.666667-74.666667 74.666667-74.666667-34.133333-74.666666-74.666667zM437.333333 800c0-40.533333 34.133333-74.666667 74.666667-74.666667s74.666667 34.133333 74.666667 74.666667S552.533333 874.666667 512 874.666667s-74.666667-34.133333-74.666667-74.666667z" p-id="2281"></path></svg>
