<svg t="1657091922432" class="icon" viewBox="0 0 1024 1024" version="1.1" xmlns="http://www.w3.org/2000/svg" p-id="1088" xmlns:xlink="http://www.w3.org/1999/xlink" width="200" height="200"><defs><style type="text/css">@font-face { font-family: feedback-iconfont; src: url("//at.alicdn.com/t/font_1031158_u69w8yhxdu.woff2?t=1630033759944") format("woff2"), url("//at.alicdn.com/t/font_1031158_u69w8yhxdu.woff?t=1630033759944") format("woff"), url("//at.alicdn.com/t/font_1031158_u69w8yhxdu.ttf?t=1630033759944") format("truetype"); }
</style></defs><path d="M0 0h1024v1024H0z"  p-id="1089"></path><path d="M725.333333 117.333333a32 32 0 0 1 27.157334 15.082667l1.472 2.624L835.690667 298.666667H928v64h-60.352l56.810667 113.706666a32 32 0 0 1 3.221333 11.306667l0.149333 2.986667 0.170667 298.666666v85.333334a32 32 0 0 1-28.928 31.850666L896 906.666667h-170.666667a32 32 0 0 1-31.850666-28.928L693.333333 874.666667l-0.021333-53.333334h-362.666667L330.666667 874.666667a32 32 0 0 1-25.92 31.424l-2.986667 0.426666L298.666667 906.666667H128a32 32 0 0 1-31.850667-28.928L96 874.666667V490.666667c0-3.968 0.746667-7.893333 2.176-11.584l1.194667-2.730667L156.224 362.666667H96v-64h92.224l81.813333-163.626667a32 32 0 0 1 25.621334-17.557333L298.666667 117.333333h426.666666zM482.858667 345.152c-13.184-20.394667-44.202667-19.2-55.402667 3.2l-114.752 229.504 57.258667 28.608 86.784-173.610667 91.370666 174.165334 1.578667 2.709333c13.418667 20.693333 45.098667 18.986667 55.786667-4.138667l106.24-229.482666-58.090667-26.88-78.997333 170.602666-90.218667-172.032z" p-id="1090"></path></svg>
