<svg width="1285" height="1024" xmlns="http://www.w3.org/2000/svg" t="1621433305409" class="icon" version="1.1" p-id="2359">
 <g>
  <title>Layer 1</title>
  <path d="m100.39216,67.77451a30.11765,30.11765 0 0 0 -30.11765,30.11765l0,823.21568a30.11765,30.11765 0 0 0 30.11765,30.11765l1084.23529,0a30.11765,30.11765 0 0 0 30.11765,-30.11765l0,-823.21568a30.11765,30.11765 0 0 0 -30.11765,-30.11765l-1084.23529,0zm0,-60.23529l1084.23529,0a90.35294,90.35294 0 0 1 90.35294,90.35294l0,823.21568a90.35294,90.35294 0 0 1 -90.35294,90.35294l-1084.23529,0a90.35294,90.35294 0 0 1 -90.35294,-90.35294l0,-823.21568a90.35294,90.35294 0 0 1 90.35294,-90.35294z" fill="#0069F6" p-id="2360" id="svg_1"/>
  <path d="m261.01961,261.01961m-60.2353,0a60.23529,60.23529 0 1 0 120.47059,0a60.23529,60.23529 0 1 0 -120.47059,0z" fill="#5ED7BC" p-id="2361" id="svg_2"/>
  <path d="m331.29412,839.47922a30.11765,30.11765 0 0 1 -60.2353,0a189.94196,189.94196 0 0 1 189.94196,-189.94197l186.58887,0a102.46023,102.46023 0 0 0 98.4847,-130.71058a162.69553,162.69553 0 0 1 156.37083,-207.61098l241.14196,0a30.11765,30.11765 0 0 1 0,60.23529l-241.14196,0a102.46023,102.46023 0 0 0 -98.46463,130.73067a162.69553,162.69553 0 0 1 -156.3909,207.61098l-186.58887,0a129.70667,129.70667 0 0 0 -129.70666,129.70666l0,-0.02007z" fill="#5ED7BC" p-id="2362" id="svg_3"/>
  <path stroke="#000" fill="#f90c0c" d="m498.85771,115.35598c-213.99809,0.08971 -387.42406,169.58622 -387.51584,378.76548c0,209.17926 173.48715,378.67577 387.51584,378.73557c213.99809,-0.05981 387.42406,-169.55631 387.48525,-378.70566c-0.0306,-209.20916 -173.45656,-378.79539 -387.48525,-378.79539zm295.6625,378.76548c-0.0918,58.10369 -17.83827,112.08061 -48.0073,157.41524l-408.71983,-399.39931c46.35503,-29.54527 101.5833,-46.91955 161.09522,-47.03916c163.26763,0.32894 295.35653,129.45489 295.6319,289.02324l0.00001,0zm-591.3862,0c0.12239,-58.10369 17.86887,-112.14042 48.12968,-157.47505l408.62804,399.42922c-46.38564,29.48545 -101.5833,46.82984 -161.06461,46.91955c-163.23704,-0.14952 -295.35653,-129.30538 -295.69311,-288.87371z" id="svg_4"/>
 </g>

</svg>