<?xml version="1.0" standalone="no"?><!DOCTYPE svg PUBLIC "-//W3C//DTD SVG 1.1//EN" "http://www.w3.org/Graphics/SVG/1.1/DTD/svg11.dtd"><svg t="1630573390175" class="icon" viewBox="0 0 1024 1024" version="1.1" xmlns="http://www.w3.org/2000/svg" p-id="2229" xmlns:xlink="http://www.w3.org/1999/xlink" width="200" height="200"><defs><style type="text/css"></style></defs><path d="M1024 140.8V128c0-19.2-25.6-38.4-44.8-38.4H608V0h-70.4L0 96v832c179.2 32 352 64 531.2 96h70.4v-96h352c19.2 0 44.8 0 57.6-12.8 12.8-19.2 12.8-44.8 12.8-70.4v-704zM326.4 537.6c-25.6 12.8-51.2 12.8-83.2 12.8v128l-64-6.4V313.6c57.6 0 128-25.6 179.2 19.2 51.2 64 38.4 172.8-32 204.8zM985.6 896h-384V128h384v768z" fill="#A33639" p-id="2230"></path><path d="M953.6 832v-51.2h-352V832zM652.8 697.6h300.8v44.8H652.8z m0-160h300.8v44.8H652.8z m0 83.2h300.8v44.8H652.8z m128-332.8c-6.4 25.6-19.2 57.6-32 83.2-64 25.6-64 44.8-64 51.2 0 6.4 6.4 12.8 12.8 19.2h12.8c19.2 0 38.4-19.2 57.6-57.6 25.6-12.8 51.2-19.2 76.8-25.6 12.8 12.8 32 19.2 51.2 19.2 12.8 0 32 0 32-25.6 0-6.4-6.4-25.6-32-25.6-12.8 0-25.6 0-38.4 6.4-19.2-12.8-32-32-38.4-51.2 12.8-38.4 12.8-64 6.4-70.4-6.4-6.4-12.8-6.4-19.2-6.4-6.4 0-19.2 6.4-19.2 12.8-32 19.2-12.8 57.6-6.4 70.4zM704 422.4c6.4-6.4 12.8-12.8 25.6-19.2-6.4 6.4-19.2 12.8-25.6 19.2zM883.2 352c12.8 0 19.2 6.4 19.2 6.4h-12.8c-6.4 0-12.8 0-19.2-6.4h12.8z m-70.4-6.4c-12.8 6.4-25.6 6.4-38.4 12.8 6.4-12.8 12.8-25.6 19.2-44.8 6.4 12.8 12.8 25.6 19.2 32zM787.2 224s6.4 0 0 0c6.4 12.8 6.4 25.6 6.4 32-6.4-12.8-6.4-19.2-6.4-32z m-544 153.6v115.2c19.2 0 51.2 0 64-25.6 12.8-25.6 12.8-51.2 0-76.8-12.8-19.2-38.4-12.8-64-12.8z" fill="#A33639" p-id="2231"></path></svg>