<?xml version="1.0" standalone="no"?><!DOCTYPE svg PUBLIC "-//W3C//DTD SVG 1.1//EN" "http://www.w3.org/Graphics/SVG/1.1/DTD/svg11.dtd"><svg t="1669018156957" class="icon" viewBox="0 0 1024 1024" version="1.1" xmlns="http://www.w3.org/2000/svg" p-id="37904" xmlns:xlink="http://www.w3.org/1999/xlink" width="200" height="200"><path d="M713.344 116.48l-88.608 56.64v215.328l-171.008-48.064-85.728 56.192v90.56l-170.784-50.496L112 495.424v187.84L268.224 764.8l99.776-61.888v79.36l153.6 63.968 103.136-57.92v45.504l168 72.128 119.264-59.008V176.256L713.344 116.48z" fill="#FFFFFF" p-id="37905"></path><path d="M352.64 520.192L288 558.848v174.848l64.64-40.096v-173.408z m-18.336-26.304L200 454.176l-55.808 38.496 117.504 44.64 72.64-43.424zM128 520.768v152.832l128 66.752v-170.976l-128-48.64zM96 487.04l98.432-67.904 190.208 56.256v236l-115.712 71.808L96 692.96V487.04z" fill="#515151" p-id="37906" data-spm-anchor-id="a313x.7781069.0.i101" class=""></path><path d="M610.4 417.792l-67.36 36.352v361.728l67.36-37.824V417.792z m-23.904-23.488l-130.112-36.544-58.24 38.208 120.736 34.848 67.616-36.48zM384 425.184v346.4l127.04 52.928V461.856L384 425.184z m-32-37.248l99.04-64.928 191.36 53.76V796.8L522.656 864 352 792.96V387.904z" fill="#515151" p-id="37907" data-spm-anchor-id="a313x.7781069.0.i100" class=""></path><path d="M800 884.48l96-47.456V207.104l-91.104 49.184L800 254.72v629.76z m-32-6.56V244.8L640.736 205.44v617.888L768 877.92zM651.264 175.168l150.272 46.56 73.728-39.808-159.488-48-64.512 41.248z m-42.528-10.784l102.208-65.344L928 164.384v692.48l-134.784 66.688-184.48-79.168V164.384z" fill="#515151" p-id="37908" data-spm-anchor-id="a313x.7781069.0.i99" class=""></path></svg>