<?xml version="1.0" standalone="no"?><!DOCTYPE svg PUBLIC "-//W3C//DTD SVG 1.1//EN" "http://www.w3.org/Graphics/SVG/1.1/DTD/svg11.dtd"><svg t="1617857636853" class="icon" viewBox="0 0 1024 1024" version="1.1" xmlns="http://www.w3.org/2000/svg" p-id="859" xmlns:xlink="http://www.w3.org/1999/xlink" width="200" height="200"><defs><style type="text/css"></style></defs><path d="M172.860952 769.462857c55.832381 66.072381 132.291048 92.769524 208.725334 88.064l4.412952-251.562667c-10.288762-4.705524-24.990476-4.705524-35.279238-15.725714L172.860952 769.487238z m239.616-404.041143l-5.90019-169.813333c-55.832381 0-97.01181 15.725714-142.57981 59.733333l76.434286 136.801524c24.990476-15.725714 45.592381-26.721524 72.045714-26.721524z m122.002286 125.781334h357.229714c0-273.554286-199.92381-490.544762-449.828571-490.544762v371.053714c47.030857 4.705524 92.598857 59.733333 92.598857 119.466667z m-5.875809 22.016c-4.412952 26.721524-24.990476 55.02781-45.592381 77.043809l361.642666 386.755048C951.978667 862.232381 1024 698.733714 1024 517.924571H528.579048v-4.705523z m-111.713524 97.475047h-4.412953V997.424762c111.713524-4.705524 219.014095-55.02781 301.348572-125.781333L463.920762 604.40381c-16.164571 6.290286-30.866286 6.290286-47.055238 6.290285z m-224.914286-92.769524c0 55.02781 20.577524 92.769524 51.44381 130.486858l91.136-77.04381c-14.701714-15.701333-24.990476-33.01181-30.866286-59.733333l-111.713524 6.290285z m113.176381-33.011809c0-33.01181 14.701714-55.02781 30.866286-77.04381L172.860952 186.197333C90.526476 245.930667 39.082667 338.70019 24.380952 447.146667l280.771048 37.741714c0 6.290286 0 0 0 0z" p-id="860"></path></svg>
