<?xml version="1.0" standalone="no"?><!DOCTYPE svg PUBLIC "-//W3C//DTD SVG 1.1//EN" "http://www.w3.org/Graphics/SVG/1.1/DTD/svg11.dtd"><svg t="1665371243997" class="icon" viewBox="0 0 1059 1024" version="1.1" xmlns="http://www.w3.org/2000/svg" p-id="3181" data-darkreader-inline-fill="" xmlns:xlink="http://www.w3.org/1999/xlink" width="206.8359375" height="200"><path d="M562.95611883 904.32134819c-3.18646431-3.18646431-3.18646431-3.18646431-3.18646431-6.37292862V765.08251381l-3.1864643-249.99260902c0-3.18646431 3.18646431-6.37292861 6.37292861-9.46283341 3.18646431 0 9.4628334 0 9.46283341 3.18646431l272.10474013 272.10474014c3.18646431 3.18646431 3.18646431 9.4628334 1e-8 12.64929771-72.8058815 72.8058815-174.00026321 113.94023896-278.47766877 113.94023896l-3.08990478-3.18646431M793.92650152 214.59666443c0 3.18646431 0 3.18646431-3.18646431 6.37292862L714.74769141 296.86537933 575.60541656 439.1941185c-3.18646431 3.18646431-6.37292861 3.18646431-9.46283342 3.18646431-3.18646431 0-6.27636909-3.18646431-6.2763691-6.37292861V125.9550209c0-3.18646431 3.18646431-9.4628334 9.46283342-9.4628334 82.26871491 0 161.3509655 31.67152404 221.50754927 91.73154832 3.08990479 3.18646431 3.08990479 3.18646431 3.08990479 6.37292861" p-id="3182" data-darkreader-inline-fill="" style="--darkreader-inline-fill:#1c2081;"></path><path d="M812.85216833 717.67178726c-3.18646431 0-3.18646431 0-6.37292861-3.18646431l-75.89578629-75.89578628-145.51520348-142.42529869c-3.18646431-3.18646431-3.18646431-6.37292861-3.1864643-9.46283341 0-3.18646431 3.18646431-6.37292861 6.37292861-6.37292861h313.2390976c3.18646431 0 9.4628334 3.18646431 9.46283341 9.4628334 0 85.45517922-34.76142883 164.53742981-94.91801264 224.69401359 0 3.18646431-3.18646431 3.18646431-3.1864643 3.18646431M781.2772038 464.49271393H588.25471426c-3.18646431 0-3.18646431 0-3.1864643-3.18646431v-6.37292862l136.05237005-136.05237007c3.18646431-3.18646431 6.37292861-3.18646431 6.37292863 0 37.94789314 37.94789314 56.97011948 85.45517922 56.97011948 139.23883437l-3.18646431 6.37292863" p-id="3183" data-darkreader-inline-fill="" style="--darkreader-inline-fill:#795706;"></path><path d="M540.7474282 182.92514038l3.1864643 3.18646431V436.10421372c0 3.18646431 0 6.37292861-3.1864643 6.37292862h-6.37292863L357.28433157 265.19385528c-3.18646431-3.18646431-3.18646431-6.37292861 0-9.4628334C404.69505811 208.22373582 467.94154669 179.73867607 537.56096388 179.73867607l3.18646431 3.18646431M354.09786726 689.18672752c0-3.18646431 0-3.18646431 3.18646432-3.18646431l63.24648856-63.24648857 113.94023894-117.03014373c3.18646431-3.18646431 3.18646431-3.18646431 6.37292864 0 3.18646431 0 3.18646431 3.18646431 3.18646431 6.37292862v249.99260902c0 3.18646431-3.18646431 6.37292861-6.37292862 6.37292862-66.43295288 0-132.86590576-25.29859543-180.37319184-75.89578629-3.18646431-0.19311905-3.18646431-3.37958335-3.1864643-3.37958336" p-id="3184" data-darkreader-inline-fill="" style="--darkreader-inline-fill:#368565;"></path><path d="M199.02327085 486.70140457s3.18646431-3.18646431 6.37292863-3.18646431H312.96350982l202.48532295-3.1864643c3.18646431 0 6.37292861 3.18646431 6.37292861 6.37292861s0 6.27636909-3.18646431 9.4628334L297.12774777 717.67178726c-3.18646431 3.18646431-9.4628334 3.18646431-12.64929769 0-60.15658379-60.15658379-91.73154832-139.23883438-91.73154833-224.6940136 3.08990479-3.08990479 3.08990479-6.27636909 6.2763691-6.27636909M240.1576283 179.73867607c3.18646431 0 6.37292861 0 6.37292863 3.18646431l94.91801262 94.91801262 174.00026321 174.00026321c3.18646431 3.18646431 3.18646431 6.37292861 3.18646431 9.46283341 0 3.18646431-6.37292861 6.37292861-9.4628334 6.37292862H129.40385366c-6.37292861 0-9.4628334-3.18646431-9.46283339-9.46283341C119.94102026 356.9254036 161.07537771 258.91748619 233.88125921 186.11160469c3.08990479-3.18646431 3.08990479-6.37292861 6.2763691-6.37292862" p-id="3185" data-darkreader-inline-fill="" style="--darkreader-inline-fill:#1c2081;"></path></svg>
