<?xml version="1.0" standalone="no"?><!DOCTYPE svg PUBLIC "-//W3C//DTD SVG 1.1//EN" "http://www.w3.org/Graphics/SVG/1.1/DTD/svg11.dtd"><svg t="1669015865976" class="icon" viewBox="0 0 1024 1024" version="1.1" xmlns="http://www.w3.org/2000/svg" p-id="3819" xmlns:xlink="http://www.w3.org/1999/xlink" width="200" height="200"><path d="M578.52 480.17H821V470a264.79 264.79 0 0 0-71.15-181.32L847.56 191l-7.19-7.19C763.86 107.41 662.15 65.31 554 65.31h-10.18v67.15a335.52 335.52 0 0 0-221.52 91.69l-99.77-99.69a10.17 10.17 0 0 0-14.37 0C115.8 216.76 64.93 339.48 64.93 470a10.16 10.16 0 0 0 10.16 10.16h74c2.55 104.3 44.41 202 118.5 276l7.18 7.18 47.52-47.48a335.53 335.53 0 0 0 221.52 91.68v151.15H554c130.63 0 253.43-50.83 345.81-143.13l7.19-7.18z m221.91-20.32h-221.9l43-42.94 113.91-113.85a244.39 244.39 0 0 1 65 156.79zM564.14 85.76a382 382 0 0 1 254.57 105.36L564.14 445.49V85.76z m-20.32 67v292.73L379.56 281.36l-42.89-42.86a315.34 315.34 0 0 1 207.15-85.72z m-328.39-6.69l92.38 92.31L501.58 432l27.85 27.83H85.36a464.73 464.73 0 0 1 130.07-313.75z m-46 334.09h360l-45.55 45.51L307.8 701.62l-32.93 32.91a381.38 381.38 0 0 1-105.45-254.36z m167.24 221.36l207.15-207v292.72a315.34 315.34 0 0 1-207.15-85.72z m227.47 236.74V494.53l314 313.77a465.48 465.48 0 0 1-314 129.96z" fill="#515151" p-id="3820"></path><path d="M552.66 471.45l182.92 180 50.19 50.15 47.4 47.4c71.45-71.4 115.74-168.59 115.74-277.54z" fill="#515151" p-id="3821"></path><path d="M833.18 759.15a10.13 10.13 0 0 1-7.18-3l-97.6-97.49-182.87-180a10.16 10.16 0 0 1 7.12-17.4h396.26a10.16 10.16 0 0 1 10.16 10.16c0 107.12-42.16 208.24-118.71 284.73a10.13 10.13 0 0 1-7.18 3zM577.47 481.61l165.24 162.62 90.38 90.31c65.85-69.25 103-158.36 105.53-252.93z" fill="#515151" p-id="3822"></path></svg>