<?xml version="1.0" standalone="no"?><!DOCTYPE svg PUBLIC "-//W3C//DTD SVG 1.1//EN" "http://www.w3.org/Graphics/SVG/1.1/DTD/svg11.dtd"><svg t="1665372916044" class="icon" viewBox="0 0 1024 1024" version="1.1" xmlns="http://www.w3.org/2000/svg" p-id="1445" data-darkreader-inline-fill="" xmlns:xlink="http://www.w3.org/1999/xlink" width="200" height="200"><path d="M847.872 789.248A438.1184 438.1184 0 0 0 947.2 528.5888l-201.0624 5.632a233.1392 233.1392 0 0 1-44.4416 116.864l146.176 138.1632z" p-id="1446" data-darkreader-inline-fill="" style="--darkreader-inline-fill:#218c6c;"></path><path d="M744.2944 476.416l201.0624-5.632a412.7488 412.7488 0 0 0-5.9136-41.0112 433.7152 433.7152 0 0 0-119.6032-226.0736 436.224 436.224 0 0 0-279.0144-126.7968v201.6a235.3152 235.3152 0 0 1 203.4688 197.888z" p-id="1447" data-darkreader-inline-fill="" style="--darkreader-inline-fill:#0954b8;"></path><path d="M276.9664 511.9744a235.2384 235.2384 0 0 1 206.1824-233.5744V76.8A434.176 434.176 0 0 0 204.0576 203.4944c-169.7024 169.8304-169.7024 446.4384 0.1024 616.3712 161.6384 161.7664 422.656 170.496 594.2272 19.9168 3.3024-2.7136 6.5024-5.632 9.8048-8.6528l-146.304-138.0608a234.0864 234.0864 0 0 1-150.0928 54.016c-129.5872 0.1024-234.8288-105.1136-234.8288-235.1104z" p-id="1448" data-darkreader-inline-fill="" style="--darkreader-inline-fill:#4a5a75;"></path></svg>
