<svg width="20" height="20" viewBox="0 0 20 20" xmlns="http://www.w3.org/2000/svg">
<path d="M9.85103 1.25893C9.3872 0.976318 8.85366 0.828834 8.31052 0.833098C7.76738 0.837361 7.23623 0.993202 6.77689 1.28307C6.31754 1.57293 5.94827 1.9853 5.71065 2.47372C5.47304 2.96214 5.37653 3.50721 5.432 4.04752L5.43343 4.06152L5.43534 4.07545C5.48403 4.43111 5.57372 4.73895 5.6761 4.99967H3.33341C2.41294 4.99967 1.66675 5.74587 1.66675 6.66634V9.99967H3.32153C3.32153 9.99968 3.32152 9.99967 3.32153 9.99967H1.66675C1.66675 10.1184 1.67195 10.2876 1.71774 10.4529C1.7632 10.617 1.91405 10.9893 2.35356 11.1181C2.69408 11.2179 2.97951 11.0876 3.05198 11.0545L3.0544 11.0534C3.15855 11.0059 3.26153 10.9422 3.32532 10.9028L3.35696 10.8833C3.63086 10.7137 3.95868 10.5108 4.46895 10.438C4.69619 10.4171 4.9249 10.4588 5.13025 10.5587C5.33958 10.6605 5.51631 10.8188 5.64053 11.0156C5.76476 11.2125 5.83155 11.4401 5.83338 11.6729C5.8352 11.9057 5.772 12.1343 5.65087 12.3331C5.52975 12.5319 5.35553 12.6929 5.14783 12.798C4.94668 12.8998 4.72188 12.9453 4.49725 12.9297C3.87835 12.8364 3.48959 12.6675 3.22901 12.5532L3.21342 12.5463C3.1519 12.5193 3.07487 12.4855 3.00541 12.4592C2.94699 12.4371 2.7944 12.3795 2.61345 12.3741C2.51034 12.371 2.36139 12.383 2.20183 12.4559C2.03198 12.5336 1.90207 12.6566 1.81483 12.7958C1.67726 13.0152 1.66748 13.2408 1.6668 13.333L1.66675 13.3494V16.6663C1.66675 17.5868 2.41294 18.333 3.33342 18.333H13.3334C14.2539 18.333 15.0001 17.5868 15.0001 16.6663V14.3722C15.2634 14.4525 15.5784 14.5287 15.9497 14.5828L15.9737 14.5863L15.9978 14.5884C16.5389 14.6354 17.0824 14.5303 17.5671 14.2851C18.0517 14.0398 18.4582 13.6641 18.7408 13.2003C19.0234 12.7364 19.1709 12.2029 19.1667 11.6598C19.1624 11.1166 19.0066 10.5855 18.7167 10.1261C18.4268 9.6668 18.0145 9.29752 17.526 9.05991C17.0376 8.82229 16.4925 8.72578 15.9522 8.78125L15.9382 8.78269L15.9243 8.78459C15.5685 8.8333 15.2606 8.92244 15.0001 9.02375V6.66634C15.0001 5.74587 14.2539 4.99967 13.3334 4.99967H11.023C11.1032 4.73631 11.1794 4.42135 11.2336 4.05006L11.2371 4.02608L11.2392 4.00194C11.2861 3.46082 11.1811 2.91733 10.9358 2.4327C10.6906 1.94807 10.3149 1.54155 9.85103 1.25893ZM3.33341 14.3723C3.59677 14.4525 3.91174 14.5287 4.28303 14.5829L4.30701 14.5864L4.33115 14.5885C4.87227 14.6354 5.41575 14.5304 5.90039 14.2851C6.38502 14.0399 6.79154 13.6642 7.07415 13.2003C7.35677 12.7365 7.50425 12.203 7.49999 11.6598C7.49573 11.1167 7.33989 10.5855 7.05002 10.1262C6.76016 9.66685 6.34779 9.29757 5.85937 9.05996C5.37095 8.82234 4.82588 8.72583 4.28557 8.7813L4.27157 8.78274L4.25764 8.78465C3.90186 8.83335 3.59395 8.92249 3.33341 9.0238V6.66634H6.66675C6.78484 6.66634 6.95497 6.66126 7.12105 6.61484C7.28688 6.56849 7.66674 6.41234 7.78778 5.96108C7.87881 5.62172 7.74477 5.34039 7.71132 5.27019L7.7097 5.26678C7.66171 5.16581 7.59801 5.06506 7.55807 5.00189L7.54186 4.97625C7.36919 4.70337 7.16175 4.37555 7.08867 3.86411C7.06777 3.63689 7.10948 3.40818 7.20937 3.20284C7.31121 2.99351 7.46947 2.81678 7.66633 2.69256C7.86319 2.56833 8.09083 2.50154 8.3236 2.49971C8.55638 2.49789 8.78504 2.56109 8.98382 2.68221C9.18261 2.80334 9.34363 2.97756 9.44873 3.18526C9.55053 3.38641 9.59597 3.61121 9.58044 3.83584C9.48714 4.45474 9.3182 4.8435 9.20389 5.10407L9.19704 5.11967C9.17002 5.1812 9.13619 5.2582 9.10988 5.32768C9.08776 5.3861 9.0302 5.53869 9.02476 5.71964C9.02166 5.82274 9.0337 5.9717 9.10664 6.13126C9.1843 6.30111 9.30734 6.43102 9.4465 6.51826C9.68034 6.66486 9.92116 6.66634 10.0001 6.66634H11.5069H13.3334L13.3334 9.99965C13.3334 10.1183 13.3386 10.2875 13.3844 10.4528C13.4299 10.6169 13.5807 10.9893 14.0202 11.1181C14.3607 11.2178 14.6462 11.0875 14.7186 11.0544L14.7211 11.0533C14.8252 11.0058 14.9282 10.9422 14.992 10.9028L15.0236 10.8832C15.2975 10.7137 15.6253 10.5108 16.1356 10.4379C16.3629 10.417 16.5916 10.4587 16.7969 10.5586C17.0062 10.6605 17.183 10.8187 17.3072 11.0156C17.4314 11.2124 17.4982 11.4401 17.5 11.6729C17.5019 11.9056 17.4387 12.1343 17.3175 12.3331C17.1964 12.5319 17.0222 12.6929 16.8145 12.798C16.6133 12.8998 16.3885 12.9452 16.1639 12.9297C15.545 12.8364 15.1563 12.6675 14.8957 12.5531L14.8801 12.5463C14.8185 12.5193 14.7415 12.4854 14.6721 12.4591C14.6137 12.437 14.4611 12.3795 14.2801 12.374C14.177 12.3709 14.0281 12.3829 13.8685 12.4559C13.6986 12.5335 13.5687 12.6566 13.4815 12.7957C13.3439 13.0152 13.3341 13.2409 13.3334 13.333V16.6663H3.33341V14.3723Z"/>
</svg>
