<?xml version="1.0" standalone="no"?><!DOCTYPE svg PUBLIC "-//W3C//DTD SVG 1.1//EN" "http://www.w3.org/Graphics/SVG/1.1/DTD/svg11.dtd"><svg class="icon" width="200px" height="199.03px" viewBox="0 0 1029 1024" version="1.1" xmlns="http://www.w3.org/2000/svg"><path d="M643.645496 1023.99488 113.833257 1023.99488c-30.396199 0-58.031151-11.271775-79.914779-32.597638C11.728384 969.774108-2.3e-05 942.054369-2.3e-05 911.233205l0-124.322548 1.166609-4.899351c5.90149-24.79198 17.650329-44.099262 34.923705-57.386553 11.227848-8.634135 24.849187-13.195352 39.399113-13.195352 15.645028 0 31.811045 5.112854 49.416425 15.631747 3.524345 2.049228 5.667556 3.097338 6.73916 3.581552l4.203675 0.700782 5.771753 2.885877c12.707051 6.354036 25.061669 9.44218 37.76872 9.44218 13.633597 0 25.891167-2.395533 37.475536-7.323486 11.839756-5.038281 21.822336-11.714105 30.51572-20.408512 8.781238-8.782259 15.500988-18.690266 20.545399-30.295066 4.838058-11.128758 7.190685-23.107445 7.190685-36.626628 0-13.638705-2.395533-25.895253-7.321443-37.470428-5.040324-11.844864-11.716148-21.827444-20.411576-30.522871-8.697471-8.697471-18.680051-15.374317-30.522871-20.412598-11.576196-4.927953-23.831724-7.322465-37.47145-7.322465-12.730547 0-25.006505 2.678503-37.527634 8.188739l-1.820401 0.800895-1.886802 0.628253c-3.394608 1.131876-4.863596 1.838789-5.123069 1.968525-9.249108 4.623532-18.446116 8.92834-27.345853 12.796948-15.133231 6.58082-29.98145 9.13878-43.887801 7.592154-19.025334-2.107456-35.750139-12.615112-47.064819-29.582024-8.90178-13.350627-13.566174-30.509591-14.68375-54.005225l-0.049035-2.039013 0-112.840335c0-30.608681 11.592541-58.379499 33.52214-80.310119 21.935728-21.931641 49.704502-33.521118 80.31114-33.521118l96.492482 0c-6.217149-19.393092-9.363521-39.975267-9.363521-61.338927 0-29.5003 5.734977-57.534677 17.047615-83.324711 11.066444-25.231246 26.191502-47.537796 44.954298-66.301613 18.766882-18.764839 41.073433-33.889898 66.301613-44.955319 25.785947-11.310593 53.459718-17.046593 82.250041-17.046593 28.789302 0 56.462051 5.734977 82.252085 17.046593 25.231246 11.066444 47.538818 26.192524 66.301613 44.955319 18.763817 18.763817 33.888877 41.072411 44.953276 66.305699 11.310593 25.782882 17.047615 53.819303 17.047615 83.320624 0 21.575121-2.948191 42.052077-8.809841 61.338927l30.38394 0c30.821164 0 58.540903 11.727385 80.161994 33.916458 21.325863 21.889759 32.595595 49.522666 32.595595 79.914779l0 69.794291c20.424857-7.043583 42.091917-10.607768 64.562937-10.607768 27.951631 0 54.97161 5.50615 80.307054 16.365219 25.004462 10.716052 47.241547 25.709331 66.09424 44.562023 18.853714 18.850649 33.848014 41.089778 44.565088 66.095261 10.858048 25.338508 16.364198 52.356444 16.364198 80.303989 0 28.763763-5.543948 56.051388-16.476569 81.104884-10.71503 24.553959-25.672556 46.524419-44.456804 65.303559-18.845542 18.847585-41.082627 33.840864-66.08811 44.55998-25.344638 10.860091-52.362573 16.365219-80.309097 16.365219-22.474085 0-44.140123-3.564185-64.560893-10.607768l0 61.19591c0 30.601531-11.402533 58.184383-32.975611 79.766655C701.84418 1012.587239 674.257242 1023.99488 643.645496 1023.99488zM85.810117 803.534327l0 107.699899c0 7.753559 2.316873 13.1739 7.994645 18.707632 5.930093 5.777883 11.920458 8.243903 20.028496 8.243903l529.812238 0c7.986472 0 13.519183-2.274991 19.095821-7.85265 5.574594-5.577659 7.851628-11.112413 7.851628-19.098886L670.592944 684.116237l70.693255 60.092638c10.82638 9.203138 23.426168 16.797335 37.448976 22.574196 13.158576 5.417276 26.971966 8.051852 42.228805 8.051852 16.490871 0 31.70276-3.084058 46.507053-9.426857 15.132209-6.48786 27.961847-15.1128 39.217277-26.36823 11.325917-11.323874 19.986612-24.061572 26.482644-38.944523 6.267205-14.361961 9.313464-29.66477 9.313464-46.783893 0-16.490871-3.084058-31.701739-9.426857-46.501945-6.486838-15.135274-15.111778-27.964912-26.367209-39.21932-11.258495-11.257473-24.087111-19.882414-39.223407-26.369252-14.799185-6.341778-30.011075-9.425835-46.503988-9.425835-15.257861 0-29.073293 2.634576-42.237999 8.054916-14.014635 5.770732-26.615445 13.365951-37.444889 22.571131l-70.69019 60.079357L670.589879 386.798402c0-8.109058-2.46602-14.099424-8.245946-20.03156-5.528624-5.674707-10.947943-7.989537-18.701502-7.989537L448.509149 358.777305l60.409317-70.762719c18.397081-21.550604 27.340745-46.536678 27.340745-76.386348 0-17.810712-3.212773-33.790807-9.821175-48.855595-6.857661-15.638898-15.703255-28.752526-27.046539-40.093767-11.343283-11.343283-24.456912-20.191943-40.091724-27.049604-15.065809-6.608402-30.696535-9.819132-47.78399-9.819132s-32.717159 3.211751-47.780925 9.819132c-15.633791 6.856639-28.74844 15.704277-40.093767 27.049604-11.342261 11.342261-20.1899 24.454869-27.046539 40.089681-6.609424 15.067852-9.821175 31.049991-9.821175 48.85866 0 14.848219 2.390425 28.228472 7.30612 40.904876 5.194578 13.39864 12.227945 25.6889 20.904984 36.53571l55.770462 69.70848L113.833257 358.776283c-7.986472 0-13.676502 2.431287-19.637242 8.391006-5.956654 5.955632-8.38692 11.643619-8.38692 19.631113l0 105.644542c2.926738-1.393393 5.875952-2.832756 8.83538-4.312981 4.231257-2.11665 8.981461-4.082111 14.468203-5.981171 22.750924-9.734343 46.382424-14.668427 70.274419-14.668427 25.064734 0 48.978181 4.769613 71.075314 14.176039 21.832552 9.290991 41.212363 22.308593 57.594949 38.692201 16.382586 16.381564 29.40121 35.761376 38.694245 57.600057 9.403361 22.097133 14.172975 46.009559 14.172975 71.070206 0 25.174039-4.81354 49.007806-14.306797 70.840357-9.284862 21.357531-22.258538 40.454374-38.560421 56.756257-16.3785 16.380543-35.759333 29.400189-57.601078 38.694245-22.107348 9.405404-46.017731 14.172975-71.069185 14.172975-24.391532 0-48.470471-5.489806-71.650446-16.327422C101.166046 811.214335 94.074451 808.097589 85.810117 803.534327z" /></svg>