<?xml version="1.0" standalone="no"?><!DOCTYPE svg PUBLIC "-//W3C//DTD SVG 1.1//EN" "http://www.w3.org/Graphics/SVG/1.1/DTD/svg11.dtd"><svg t="1654002783423" class="icon" viewBox="0 0 1024 1024" version="1.1" xmlns="http://www.w3.org/2000/svg" p-id="2867" xmlns:xlink="http://www.w3.org/1999/xlink" width="200" height="200"><defs><style type="text/css">@font-face { font-family: feedback-iconfont; src: url("//at.alicdn.com/t/font_1031158_u69w8yhxdu.woff2?t=1630033759944") format("woff2"), url("//at.alicdn.com/t/font_1031158_u69w8yhxdu.woff?t=1630033759944") format("woff"), url("//at.alicdn.com/t/font_1031158_u69w8yhxdu.ttf?t=1630033759944") format("truetype"); }
</style></defs><path d="M800 938.666667h-576C147.2 938.666667 85.333333 876.8 85.333333 800v-576C85.333333 147.2 147.2 85.333333 224 85.333333h573.866667c76.8 0 138.666667 61.866667 138.666666 138.666667v573.866667c2.133333 78.933333-59.733333 140.8-136.533333 140.8z m-576-789.333334C183.466667 149.333333 149.333333 183.466667 149.333333 224v573.866667c0 40.533333 34.133333 74.666667 74.666667 74.666666h573.866667c40.533333 0 74.666667-34.133333 74.666666-74.666666V224C874.666667 183.466667 840.533333 149.333333 800 149.333333h-576z" p-id="2868"></path><path d="M874.666667 405.333333H121.6c-17.066667 0-32-14.933333-32-32S104.533333 341.333333 121.6 341.333333H874.666667c17.066667 0 32 14.933333 32 32 0 19.2-12.8 32-32 32z" p-id="2869"></path></svg>