<?xml version="1.0" standalone="no"?><!DOCTYPE svg PUBLIC "-//W3C//DTD SVG 1.1//EN" "http://www.w3.org/Graphics/SVG/1.1/DTD/svg11.dtd"><svg t="1669018326438" class="icon" viewBox="0 0 1024 1024" version="1.1" xmlns="http://www.w3.org/2000/svg" p-id="41323" xmlns:xlink="http://www.w3.org/1999/xlink" width="200" height="200"><path d="M853.333333 725.333333H170.666667c-46.933333 0-85.333333-38.4-85.333334-85.333333s38.4-85.333333 85.333334-85.333333h682.666666c46.933333 0 85.333333 38.4 85.333334 85.333333s-38.4 85.333333-85.333334 85.333333z" fill="#8a8a8a" opacity=".6" p-id="41324" data-spm-anchor-id="a313x.7781069.0.i112" class="selected"></path><path d="M337.066667 454.4c-6.4-4.266667-12.8-8.533333-14.933334-17.066667s-6.4-17.066667-6.4-27.733333h32c0 6.4 2.133333 10.666667 4.266667 14.933333s4.266667 2.133333 10.666667 2.133334c4.266667 0 8.533333-2.133333 10.666666-4.266667s4.266667-6.4 4.266667-12.8v-27.733333c0-4.266667-2.133333-8.533333-4.266667-10.666667s-6.4-4.266667-8.533333-4.266667c-4.266667 0-6.4 0-8.533333 2.133334s-4.266667 4.266667-4.266667 8.533333H320v-102.4h85.333333v32h-55.466666V341.333333c2.133333-2.133333 6.4-4.266667 8.533333-6.4s8.533333-2.133333 10.666667-2.133333c8.533333 0 14.933333 2.133333 19.2 6.4 4.266667 4.266667 10.666667 8.533333 12.8 17.066667 2.133333 6.4 4.266667 14.933333 4.266666 25.6v27.733333c0 10.666667-2.133333 19.2-6.4 25.6-4.266667 6.4-8.533333 12.8-17.066666 17.066667s-14.933333 6.4-25.6 6.4c-4.266667 0-12.8-2.133333-19.2-4.266667zM448 445.866667c-8.533333-8.533333-12.8-19.2-12.8-34.133334v-89.6c0-14.933333 4.266667-27.733333 12.8-34.133333s19.2-12.8 36.266667-12.8 27.733333 4.266667 36.266666 12.8 12.8 19.2 12.8 34.133333v89.6c0 14.933333-4.266667 27.733333-12.8 36.266667s-19.2 12.8-36.266666 12.8c-14.933333-2.133333-27.733333-6.4-36.266667-14.933333z m49.066667-23.466667c2.133333-4.266667 4.266667-8.533333 4.266666-14.933333v-81.066667c0-6.4-2.133333-10.666667-4.266666-14.933333s-6.4-4.266667-10.666667-4.266667-8.533333 2.133333-12.8 4.266667-4.266667 8.533333-4.266667 14.933333v81.066667c0 6.4 2.133333 10.666667 4.266667 14.933333s6.4 4.266667 10.666667 4.266667 8.533333 0 12.8-4.266667zM567.466667 345.6c-4.266667-6.4-8.533333-12.8-8.533334-23.466667v-14.933333c0-10.666667 2.133333-17.066667 8.533334-23.466667s12.8-8.533333 21.333333-8.533333 17.066667 2.133333 21.333333 8.533333 8.533333 12.8 8.533334 23.466667v14.933333c0 10.666667-2.133333 17.066667-8.533334 23.466667-6.4 6.4-12.8 8.533333-21.333333 8.533333s-17.066667-4.266667-21.333333-8.533333z m32-10.666667c2.133333-2.133333 4.266667-6.4 4.266666-12.8v-19.2c0-4.266667-2.133333-8.533333-4.266666-10.666666s-6.4-4.266667-10.666667-4.266667-8.533333 2.133333-10.666667 4.266667-4.266667 6.4-4.266666 10.666666v19.2c0 4.266667 2.133333 8.533333 4.266666 12.8s6.4 4.266667 10.666667 4.266667 8.533333-2.133333 10.666667-4.266667z m72.533333-59.733333h17.066667l-98.133334 181.333333H576l96-181.333333z m-14.933333 174.933333c-4.266667-6.4-8.533333-12.8-8.533334-23.466666v-14.933334c0-10.666667 2.133333-17.066667 8.533334-23.466666s12.8-8.533333 21.333333-8.533334 17.066667 2.133333 21.333333 8.533334 8.533333 12.8 8.533334 23.466666v14.933334c0 10.666667-2.133333 17.066667-8.533334 23.466666s-12.8 8.533333-21.333333 8.533334-17.066667-2.133333-21.333333-8.533334z m32-10.666666c2.133333-2.133333 4.266667-6.4 4.266666-12.8v-19.2c0-4.266667-2.133333-8.533333-4.266666-10.666667s-6.4-4.266667-10.666667-4.266667-8.533333 2.133333-10.666667 4.266667-4.266667 6.4-4.266666 10.666667v19.2c0 4.266667 2.133333 8.533333 4.266666 12.8s6.4 4.266667 10.666667 4.266666 8.533333 0 10.666667-4.266666zM469.333333 725.333333H170.666667c-46.933333 0-85.333333-38.4-85.333334-85.333333s38.4-85.333333 85.333334-85.333333h298.666666c46.933333 0 85.333333 38.4 85.333334 85.333333s-38.4 85.333333-85.333334 85.333333z" fill="#515151" p-id="41325" data-spm-anchor-id="a313x.7781069.0.i111" class=""></path></svg>