<?xml version="1.0" standalone="no"?><!DOCTYPE svg PUBLIC "-//W3C//DTD SVG 1.1//EN" "http://www.w3.org/Graphics/SVG/1.1/DTD/svg11.dtd"><svg t="1669018229275" class="icon" viewBox="0 0 1024 1024" version="1.1" xmlns="http://www.w3.org/2000/svg" p-id="38939" xmlns:xlink="http://www.w3.org/1999/xlink" width="200" height="200"><path d="M904.416 815.904q-61.632 70.912-145.024 113.28-86.336 43.84-183.744 50.656-97.408 6.816-189.024-24.64-88.48-30.304-159.36-91.936-70.912-61.632-113.28-145.024-43.84-86.368-50.656-183.744-6.816-97.408 24.608-189.024 30.336-88.48 91.968-159.36 61.632-70.912 145.024-113.28Q411.264 29.024 508.672 22.208q97.408-6.816 189.024 24.608 88.48 30.336 159.36 91.968l-41.984 48.32q-61.44-53.44-138.144-79.744-79.36-27.2-163.776-21.312-84.48 5.92-159.264 43.904-72.256 36.704-125.696 98.176-53.44 61.44-79.712 138.112-27.2 79.36-21.312 163.84 5.92 84.416 43.904 159.232 36.704 72.256 98.176 125.696 61.44 53.44 138.144 79.712 79.36 27.2 163.776 21.312 84.48-5.92 159.264-43.904 72.256-36.704 125.696-98.176l48.32 41.984z" fill="#515151" p-id="38940" data-spm-anchor-id="a313x.7781069.0.i105" class=""></path><path d="M288 496a240 240 0 1 0 480 0 240 240 0 1 0-480 0Z" fill="#515151" p-id="38941" data-spm-anchor-id="a313x.7781069.0.i104" class=""></path><path d="M451.68 579.712h28.448c2.496-56.256 6.88-85.888 39.936-126.688v-17.312h-94.496v23.808h63.936c-27.072 38.208-35.328 70.144-37.824 120.192z m132.96 4c28.608 0 47.808-16.512 47.808-38.72 0-20.288-10.752-32.32-24-39.712v-1.056c9.184-7.04 18.24-19.2 18.24-33.824 0-23.488-16.128-38.688-41.312-38.688-24.736 0-42.816 14.624-42.816 38.432 0 15.616 7.872 26.88 18.816 35.136v0.992c-13.248 7.2-24.384 19.616-24.384 38.72 0 23.04 20.16 38.72 47.648 38.72z m8.8-86.688c-14.752-6.176-25.92-12.992-25.92-26.88 0-12 7.68-18.624 17.28-18.624 11.872 0 18.816 8.64 18.816 20.64 0 8.8-3.232 17.44-10.176 24.864z m-8.256 66.752c-13.248 0-23.808-8.64-23.808-22.08 0-11.2 5.376-21.056 13.056-27.616 18.432 8.192 31.68 14.432 31.68 29.824 0 12.864-8.8 19.872-20.928 19.872zM685.568 569.248c6.752 0 11.584-5.568 11.584-15.424 0-9.792-4.8-15.264-11.584-15.264s-11.52 5.44-11.52 15.264c0 9.856 4.736 15.424 11.52 15.424z m0-5.312c-2.752 0-4.928-2.88-4.928-10.112 0-7.136 2.176-9.92 4.928-9.92s4.896 2.784 4.896 9.92c0 7.2-2.144 10.112-4.896 10.112z m1.536 25.28h5.632l25.728-50.656h-5.568l-25.792 50.688z m32.96 0c6.72 0 11.52-5.536 11.52-15.68 0-9.472-4.8-15.008-11.52-15.008-6.784 0-11.584 5.536-11.584 15.296 0 9.856 4.8 15.424 11.584 15.424z m0-5.344c-2.816 0-4.928-2.976-4.928-10.336 0-6.976 2.112-9.632 4.928-9.632 2.752 0 4.864 2.656 4.864 9.92 0 7.04-2.112 10.048-4.864 10.048z" fill="#e6e6e6" p-id="38942" data-spm-anchor-id="a313x.7781069.0.i106" class="selected"></path></svg>