<?xml version="1.0" standalone="no"?><!DOCTYPE svg PUBLIC "-//W3C//DTD SVG 1.1//EN" "http://www.w3.org/Graphics/SVG/1.1/DTD/svg11.dtd"><svg t="1616397690155" class="icon" viewBox="0 0 1024 1024" version="1.1" xmlns="http://www.w3.org/2000/svg" p-id="859" xmlns:xlink="http://www.w3.org/1999/xlink" width="200" height="200"><defs><style type="text/css"></style></defs><path d="M499.809524 24.380952L0 405.74781 190.927238 1024h617.764572L999.619048 405.74781 499.809524 24.380952z m396.361143 378.343619l-63.975619 15.018667-302.908953-194.438095v-100.449524l366.884572 279.893333z m-443.830857 144.944762l-139.946667 226.913524L269.897143 504.685714l182.418286 43.008z m-159.939048-100.449523l177.93219-150.430477v192.414477l-177.956571-41.984zM499.809524 584.167619l64.487619 103.960381-185.953524 92.476952L499.809524 584.167619z m47.494095-36.498286l195.413333-46.470095-131.462095 149.455238-63.951238-102.985143z m-18.505143-57.977904v-201.411048l229.424762 146.944-229.424762 54.491429zM470.820571 122.831238v103.960381L226.913524 432.249905l-123.465143-28.988953 367.37219-280.380952zM77.970286 459.702857l136.435809 32.012191 55.491048 351.841523-48.981333 78.994286-142.945524-462.823619z m187.928381 502.808381l57.977904-93.45219 269.409524-133.461334 140.434286 227.425524H265.898667v-0.487619z m512.804571-39.984762l-138.435048-223.914666 192.902096-217.916953 88.478476-20.967619-142.945524 462.823619z" p-id="860"></path></svg>
