<?xml version="1.0" standalone="no"?><!DOCTYPE svg PUBLIC "-//W3C//DTD SVG 1.1//EN" "http://www.w3.org/Graphics/SVG/1.1/DTD/svg11.dtd"><svg t="1625194105498" class="icon" viewBox="0 0 1024 1024" version="1.1" xmlns="http://www.w3.org/2000/svg" p-id="4691" xmlns:xlink="http://www.w3.org/1999/xlink" width="128" height="128"><defs><style type="text/css"></style></defs><path d="M897.2 341v1.8L567.8 87.2c-32.6-25.3-78.3-25.4-111.1-0.3L123.5 343.1c-35.3 19.8-59.1 56.8-59.1 99.2v405.5c0 63.1 52.8 114.4 117.7 114.4h660.4c64.9 0 117.7-51.3 117.7-114.4V442.3c0-43.9-25.6-82.2-63-101.3zM484.9 123.2c16.1-12.4 38.6-12.3 54.7 0.1l323.7 251.1-330 229.5c-12.7 8.8-29.8 9-42.6 0.4L153.5 377.9l331.4-254.7zM108.2 847.8V442.3c0-12.3 3.2-23.8 8.8-33.9 0.8 0.7 1.7 1.5 2.6 2.1L465 642.3c1.8 1.2 3.7 2.4 5.7 3.5-5.1 2.2-10 5-14.7 8.1L118.3 884c-6.4-10.6-10.1-23-10.1-36.2z m734.3 71.9H182.1c-9.6 0-18.8-1.8-27.2-5.1l327-222.9c15.3-10.4 35.9-10.4 51.2 0l330.1 225.1c-6.5 1.9-13.5 2.9-20.7 2.9z m74-71.9c0 15.2-4.9 29.2-13.1 40.8L559.1 653.9c-3.3-2.2-6.7-4.3-10.2-6 3.7-1.8 7.3-4 10.8-6.4l342.2-238c0.7-0.5 1.3-1 1.9-1.5 8 11.5 12.7 25.4 12.7 40.3v405.5z" p-id="4692"></path></svg>