<svg width="16" height="16" viewBox="0 0 16 16"  xmlns="http://www.w3.org/2000/svg">
<path d="M8.66668 4.66634H11C11.1841 4.66634 11.3333 4.81558 11.3333 4.99967V5.66634C11.3333 5.85044 11.1841 5.99967 11 5.99967H8.66668V10.9997C8.66668 11.1838 8.51744 11.333 8.33334 11.333H7.66668C7.48258 11.333 7.33334 11.1838 7.33334 10.9997V5.99967H5.00001C4.81592 5.99967 4.66668 5.85044 4.66668 5.66634V4.99967C4.66668 4.81558 4.81592 4.66634 5.00001 4.66634H7.33334C7.33334 4.66634 8.66668 4.68523 8.66668 4.66634Z"/>
<path fill-rule="evenodd" clip-rule="evenodd" d="M1.33334 1.99967C1.33334 1.63148 1.63182 1.33301 2.00001 1.33301H14C14.3682 1.33301 14.6667 1.63148 14.6667 1.99967V13.9997C14.6667 14.3679 14.3682 14.6663 14 14.6663H2.00001C1.63182 14.6663 1.33334 14.3679 1.33334 13.9997V1.99967ZM2.66668 13.333V2.66634H13.3333V13.333H2.66668Z" fill="#646A73"/>
</svg>
