<?xml version="1.0" standalone="no"?><!DOCTYPE svg PUBLIC "-//W3C//DTD SVG 1.1//EN" "http://www.w3.org/Graphics/SVG/1.1/DTD/svg11.dtd"><svg t="1669016557891" class="icon" viewBox="0 0 1024 1024" version="1.1" xmlns="http://www.w3.org/2000/svg" p-id="8421" xmlns:xlink="http://www.w3.org/1999/xlink" width="200" height="200"><path d="M960 672H64a32 32 0 0 1-32-32v-256a32 32 0 0 1 32-32h896a32 32 0 0 1 32 32v256a32 32 0 0 1-32 32zM96 608h832v-192H96z" fill="#515151" p-id="8422"></path><path d="M896 928H128a32 32 0 0 1-32-32v-256a32 32 0 0 1 64 0v224h704v-224a32 32 0 0 1 64 0v256a32 32 0 0 1-32 32zM896 416a32 32 0 0 1-32-32V160H160v224a32 32 0 0 1-64 0V128a32 32 0 0 1 32-32h768a32 32 0 0 1 32 32v256a32 32 0 0 1-32 32z" fill="#515151" p-id="8423"></path><path d="M448 288H256a32 32 0 0 1 0-64h192a32 32 0 0 1 0 64zM768 288h-192a32 32 0 0 1 0-64h192a32 32 0 0 1 0 64zM448 800H256a32 32 0 0 1 0-64h192a32 32 0 0 1 0 64zM768 800h-192a32 32 0 0 1 0-64h192a32 32 0 0 1 0 64zM448 544H192a32 32 0 0 1 0-64h256a32 32 0 0 1 0 64zM832 544h-256a32 32 0 0 1 0-64h256a32 32 0 0 1 0 64z" fill="#515151" p-id="8424"></path></svg>