<?xml version="1.0" standalone="no"?><!DOCTYPE svg PUBLIC "-//W3C//DTD SVG 1.1//EN" "http://www.w3.org/Graphics/SVG/1.1/DTD/svg11.dtd"><svg t="1620974835472" class="icon" viewBox="0 0 1024 1024" version="1.1" xmlns="http://www.w3.org/2000/svg" p-id="863" xmlns:xlink="http://www.w3.org/1999/xlink" width="200" height="200"><defs><style type="text/css"></style></defs><path d="M84.94909 930.182095V70.265905A40.521143 40.521143 0 0 0 44.671756 28.769524 40.521143 40.521143 0 0 0 4.370042 70.290286v901.193143c0 22.869333 17.16419 43.641905 39.936 43.641904h906.044952a42.130286 42.130286 0 0 0 41.155048-42.422857c0-22.869333-18.407619-42.398476-41.155048-42.398476H84.94909v-0.121905z" p-id="864"></path><path d="M44.306042 1019.367619c-24.380952 0-44.30019-21.528381-44.300191-48.030476V70.265905a45.348571 45.348571 0 0 1 12.702477-32.182857A45.543619 45.543619 0 0 1 44.647375 24.380952c12.092952 0.121905 23.771429 5.12 32.109715 13.677715 8.338286 8.582095 12.921905 20.406857 12.678095 32.329143V925.988571h861.037714c25.112381 0 45.519238 20.894476 45.519238 46.762667a46.665143 46.665143 0 0 1-45.397333 46.738286L44.306042 1019.367619z m0.243809-986.282667c-9.581714 0.121905-19.017143 4.096-25.746285 11.068953a36.425143 36.425143 0 0 0-10.191238 26.112v901.217524c0 21.625905 15.920762 39.277714 35.547428 39.277714h906.069334a37.936762 37.936762 0 0 0 36.815238-37.912381c0-21.016381-16.554667-38.058667-36.815238-38.058667H80.60928V70.265905c0.24381-9.703619-3.486476-19.260952-10.191238-26.233905a37.156571 37.156571 0 0 0-25.868191-10.947048zM877.939566 781.897143c-40.521143 0-73.362286-33.206857-73.362286-73.996191C804.57728 666.989714 837.418423 633.904762 877.963947 633.904762c40.521143 0 73.362286 33.084952 73.362285 73.99619 0 40.911238-32.841143 73.99619-73.386666 73.996191zM661.119756 394.630095c-63.146667 0-114.395429-51.736381-114.395428-115.395047 0-63.536762 51.346286-115.273143 114.395428-115.273143 63.049143 0 114.41981 51.736381 114.41981 115.273143 0 63.658667-51.370667 115.395048-114.41981 115.395047z" p-id="865"></path><path d="M479.115947 469.577143c-78.57981 0-142.506667 64.414476-142.506667 143.62819a143.262476 143.262476 0 0 0 142.384762 143.628191 140.921905 140.921905 0 0 0 86.479238-29.574095 143.896381 143.896381 0 0 0 55.905524-114.054096c0.121905-79.238095-63.780571-143.62819-142.262857-143.62819zM195.29728 855.04C154.727375 855.04 121.910613 821.833143 121.910613 781.04381 121.910613 740.132571 154.751756 707.047619 195.29728 707.047619c40.521143 0 73.362286 33.084952 73.362286 73.996191 0 40.911238-32.963048 73.99619-73.386667 73.99619z" p-id="866"></path></svg>
