<?xml version="1.0" standalone="no"?><!DOCTYPE svg PUBLIC "-//W3C//DTD SVG 1.1//EN" "http://www.w3.org/Graphics/SVG/1.1/DTD/svg11.dtd"><svg t="1618223542845" class="icon" viewBox="0 0 1024 1024" version="1.1" xmlns="http://www.w3.org/2000/svg" p-id="6672" xmlns:xlink="http://www.w3.org/1999/xlink" width="200" height="200"><defs><style type="text/css"></style></defs><path d="M592 336H176c-52.928 0-96 43.072-96 96v416c0 52.928 43.072 96 96 96h416c52.928 0 96-43.072 96-96V432c0-52.928-43.072-96-96-96z m32 512a32 32 0 0 1-32 32H176c-17.632 0-32-14.336-32-32V432c0-17.632 14.368-32 32-32h416c17.664 0 32 14.368 32 32v416z" p-id="6673"></path><path d="M720 208H304a32 32 0 0 0 0 64h416c17.664 0 32 14.368 32 32v416a32 32 0 1 0 64 0V304c0-52.928-43.072-96-96-96zM528 752H240a32 32 0 1 0 0 64h288a32 32 0 1 0 0-64z" p-id="6674"></path><path d="M848 80H432a32 32 0 0 0 0 64h416c17.664 0 32 14.368 32 32v416a32 32 0 1 0 64 0V176c0-52.928-43.072-96-96-96z" p-id="6675"></path></svg>
