<svg width="18" height="18" viewBox="0 0 18 18" xmlns="http://www.w3.org/2000/svg">
<path d="M1 3.66667C1 3.29848 1.32561 3 1.72727 3H7.82325C8.09872 3 8.35055 3.14267 8.47374 3.36852L9 4.33333H16.2727C16.6744 4.33333 17 4.63181 17 5V14.3333C17 14.7015 16.6744 15 16.2727 15H1.72727C1.32561 15 1 14.7015 1 14.3333V3.66667ZM2.81818 5.66667C2.61735 5.66667 2.45455 5.81591 2.45455 6V6.66667C2.45455 6.85076 2.61735 7 2.81818 7H15.1818C15.3826 7 15.5455 6.85076 15.5455 6.66667V6C15.5455 5.81591 15.3826 5.66667 15.1818 5.66667H2.81818Z"/>
</svg>
