<?xml version="1.0" standalone="no"?><!DOCTYPE svg PUBLIC "-//W3C//DTD SVG 1.1//EN" "http://www.w3.org/Graphics/SVG/1.1/DTD/svg11.dtd"><svg class="icon" width="200px" height="200.00px" viewBox="0 0 1024 1024" version="1.1" xmlns="http://www.w3.org/2000/svg"><path d="M992.6 404.1 897.9 404.1C889.2 372.8 876.9 343.1 861.3 315.4L928.2 248.5C940.4 236.3 940.4 216.3 928.2 204L820 95.9C813.9 89.8 805.8 86.7 797.8 86.7 789.8 86.7 781.7 89.8 775.6 95.9L708.7 162.8C681 147.2 651.3 134.9 620 126.2L620 31.4C620 14.1 605.8 0 588.6 0L435.6 0C418.3 0 404.2 14.2 404.2 31.4L404.2 126.1C372.9 134.8 343.2 147.1 315.5 162.7L248.6 95.8C242.5 89.7 234.4 86.6 226.4 86.6 218.4 86.6 210.3 89.7 204.2 95.8L95.9 204C83.7 216.2 83.7 236.2 95.9 248.5L162.8 315.4C147.2 343.1 134.9 372.8 126.2 404.1L31.4 404.1C14.2 404.1 0 418.3 0 435.6L0 588.5C0 605.8 14.2 619.9 31.4 619.9L126.1 619.9C134.8 651.2 147.1 680.9 162.7 708.6L95.8 775.5C83.6 787.7 83.6 807.7 95.8 820L204 928.1C210.1 934.2 218.2 937.3 226.2 937.3 234.2 937.3 242.3 934.2 248.4 928.1L315.3 861.2C343 876.8 372.7 889.1 404 897.8L404 992.5C404 1009.8 418.2 1023.9 435.4 1023.9L588.3 1023.9C605.6 1023.9 619.7 1009.7 619.7 992.5L619.7 897.8C651 889.1 680.7 876.8 708.4 861.2L775.3 928.1C781.4 934.2 789.5 937.3 797.5 937.3 805.5 937.3 813.6 934.2 819.7 928.1L928.1 820C940.3 807.8 940.3 787.8 928.1 775.5L861.2 708.6C876.8 680.9 889.1 651.2 897.8 619.9L992.5 619.9C1009.8 619.9 1023.9 605.7 1023.9 588.5L1023.9 435.6C1024 418.3 1009.9 404.1 992.6 404.1L992.6 404.1ZM960 555.9 897.8 555.9 849.2 555.9 836.1 602.7C828.8 629 818.4 654.1 805.4 677.2L781.5 719.5 815.9 753.9 859.8 797.8 797.7 859.9 753.8 816 719.4 781.6 677.1 805.5C654 818.5 628.9 828.9 602.6 836.2L555.8 849.3 555.8 897.9 555.8 960 468 960 468 897.8 468 849.2 421.2 836.1C394.9 828.8 369.8 818.4 346.7 805.4L304.4 781.5 270 815.9 226.1 859.8 164 797.7 207.9 753.8 242.3 719.4 218.4 677.1C205.4 654 195 628.9 187.7 602.6L174.6 555.8 126 555.8 64 555.8 64 468 126.2 468 174.8 468 187.9 421.2C195.2 394.9 205.6 369.8 218.6 346.7L242.5 304.4 208.1 270 164.2 226.1 226.3 164 270.2 207.9 304.6 242.3 346.9 218.4C370 205.4 395.1 195 421.4 187.7L468.2 174.6 468.2 126 468.2 64 556 64 556 126.2 556 174.8 602.8 187.9C629.1 195.2 654.2 205.6 677.3 218.6L719.6 242.5 754 208.1 797.9 164.2 860 226.3 816.1 270.2 781.7 304.6 805.6 346.9C818.6 370 829 395.1 836.3 421.4L849.4 468.2 898 468.2 960 468.2 960 555.9 960 555.9Z"  /><path d="M512 320C406 320 320 406 320 512 320 618 406 704 512 704 618 704 704 618 704 512 704 406 618 320 512 320L512 320ZM512 640C477.8 640 445.7 626.7 421.5 602.5 397.3 578.3 384 546.2 384 512 384 477.8 397.3 445.7 421.5 421.5 445.7 397.3 477.8 384 512 384 546.2 384 578.3 397.3 602.5 421.5 626.7 445.7 640 477.8 640 512 640 546.2 626.7 578.3 602.5 602.5 578.3 626.7 546.2 640 512 640Z"  /></svg>