<?xml version="1.0" standalone="no"?><!DOCTYPE svg PUBLIC "-//W3C//DTD SVG 1.1//EN" "http://www.w3.org/Graphics/SVG/1.1/DTD/svg11.dtd"><svg t="1574576079728" class="icon" viewBox="0 0 1024 1024" version="1.1" xmlns="http://www.w3.org/2000/svg" p-id="6611" xmlns:xlink="http://www.w3.org/1999/xlink" width="200" height="200"><defs><style type="text/css"></style></defs><path d="M981.917808 277.742466H813.589041V122.038356c0-19.638356-15.430137-35.068493-35.068493-35.068493H252.493151c-19.638356 0-35.068493 15.430137-35.068493 35.068493v155.70411H42.082192c-19.638356 0-35.068493 15.430137-35.068493 35.068493V911.780822c0 19.638356 15.430137 35.068493 35.068493 35.068493h939.835616c19.638356 0 35.068493-15.430137 35.068493-35.068493V312.810959c0-19.638356-15.430137-35.068493-35.068493-35.068493z m-694.356164-120.635617H743.452055v120.635617H287.561644v-120.635617zM252.493151 347.879452h694.356164v133.260274h-74.345205v-50.49863c0-19.638356-15.430137-35.068493-35.068494-35.068493h-117.830137c-19.638356 0-35.068493 15.430137-35.068493 35.068493v50.49863h-336.657534v-50.49863c0-19.638356-15.430137-35.068493-35.068493-35.068493h-117.830137c-19.638356 0-35.068493 15.430137-35.068493 35.068493v50.49863H77.150685v-133.260274H252.493151z m549.873972 119.232877v140.273972h-47.69315v-140.273972h47.69315z m-526.027397 0v140.273972h-47.693151v-140.273972h47.693151zM77.150685 876.712329V551.276712h81.358904v89.775343c0 19.638356 15.430137 35.068493 35.068493 35.068493h117.830137c19.638356 0 35.068493-15.430137 35.068493-35.068493v-89.775343h336.657535v89.775343c0 19.638356 15.430137 35.068493 35.068493 35.068493h117.830137c19.638356 0 35.068493-15.430137 35.068493-35.068493v-89.775343h74.345205v324.032877H77.150685z" p-id="6612" fill="#bfbfbf"></path></svg>