<svg width="20" height="20" viewBox="0 0 20 20" xmlns="http://www.w3.org/2000/svg">
<path fill-rule="evenodd" clip-rule="evenodd" d="M3.60685 16.4438L3.34758 16.1614C2.43988 15.1727 1.75886 13.9935 1.35962 12.7056L1.24707 12.3425L2.95378 9.99911L1.24707 7.6557L1.35962 7.29264C1.75886 6.00477 2.43988 4.82552 3.34758 3.83682L3.60685 3.55441L6.47503 3.86791L7.64 1.21222L8.01356 1.12812C8.66085 0.98239 9.32584 0.908203 9.99989 0.908203C10.6739 0.908203 11.3389 0.98239 11.9862 1.12812L12.3598 1.21222L13.5247 3.86791L16.3929 3.55441L16.6522 3.83682C17.5599 4.82552 18.2409 6.00477 18.6402 7.29264L18.7527 7.6557L17.046 9.99911L18.7527 12.3425L18.6402 12.7056C18.2409 13.9935 17.5599 15.1727 16.6522 16.1614L16.3929 16.4438L13.5247 16.1303L12.3598 18.786L11.9862 18.8701C11.3389 19.0158 10.6739 19.09 9.99989 19.09C9.32584 19.09 8.66085 19.0158 8.01356 18.8701L7.64 18.786L6.47503 16.1303L3.60685 16.4438ZM6.5111 14.6022C7.04953 14.5433 7.56387 14.8407 7.78145 15.3367L8.71516 17.4652C9.13628 17.5379 9.56554 17.5748 9.99989 17.5748C10.4342 17.5748 10.8635 17.5379 11.2846 17.4652L12.2183 15.3367C12.4359 14.8407 12.9502 14.5433 13.4887 14.6022L15.7839 14.853C16.3382 14.1858 16.7753 13.4276 17.0736 12.6106L15.7033 10.7291C15.3864 10.294 15.3864 9.70413 15.7033 9.26901L17.0736 7.38749C16.7753 6.57049 16.3382 5.81233 15.7839 5.14511L13.4887 5.39598C12.9502 5.45483 12.4359 5.15742 12.2183 4.66141L11.2846 2.53292C10.8635 2.4602 10.4342 2.42331 9.99989 2.42331C9.56554 2.42331 9.13628 2.4602 8.71516 2.53292L7.78145 4.66141C7.56387 5.15742 7.04953 5.45483 6.5111 5.39598L4.21592 5.14511C3.66159 5.81233 3.22453 6.57049 2.92617 7.38749L4.29648 9.26901C4.61338 9.70413 4.61338 10.294 4.29648 10.7291L2.92617 12.6106C3.22453 13.4276 3.66159 14.1858 4.21592 14.853L6.5111 14.6022ZM9.99989 13.787C7.91506 13.787 6.22644 12.0903 6.22644 9.9991C6.22644 7.90792 7.91506 6.21122 9.99989 6.21122C12.0847 6.21122 13.7733 7.90792 13.7733 9.9991C13.7733 12.0903 12.0847 13.787 9.99989 13.787ZM9.99989 12.2719C11.2463 12.2719 12.2582 11.2552 12.2582 9.99916C12.2582 8.74316 11.2463 7.72643 9.99989 7.72643C8.75348 7.72643 7.74159 8.74316 7.74159 9.99916C7.74159 11.2552 8.75348 12.2719 9.99989 12.2719Z"/>
</svg>
