<svg t="1625478118793" class="icon" viewBox="0 0 1024 1024" version="1.1" xmlns="http://www.w3.org/2000/svg" p-id="1202" width="200" height="200"><path d="M585.142857 804.571429h365.714286v-73.142858H585.142857v73.142858z m-219.428571-292.571429h585.142857v-73.142857H365.714286v73.142857z m365.714285-292.571429h219.428572V146.285714h-219.428572v73.142857z m292.571429 475.428572v146.285714c0 20.004571-16.566857 36.571429-36.571429 36.571429H36.571429c-20.004571 0-36.571429-16.566857-36.571429-36.571429v-146.285714c0-20.004571 16.566857-36.571429 36.571429-36.571429h950.857142c20.004571 0 36.571429 16.566857 36.571429 36.571429z m0-292.571429v146.285715c0 20.004571-16.566857 36.571429-36.571429 36.571428H36.571429c-20.004571 0-36.571429-16.566857-36.571429-36.571428v-146.285715c0-20.004571 16.566857-36.571429 36.571429-36.571428h950.857142c20.004571 0 36.571429 16.566857 36.571429 36.571428z m0-292.571428v146.285714c0 20.004571-16.566857 36.571429-36.571429 36.571429H36.571429c-20.004571 0-36.571429-16.566857-36.571429-36.571429V109.714286c0-20.004571 16.566857-36.571429 36.571429-36.571429h950.857142c20.004571 0 36.571429 16.566857 36.571429 36.571429z" fill="" p-id="1203"></path></svg>
