<?xml version="1.0" standalone="no"?><!DOCTYPE svg PUBLIC "-//W3C//DTD SVG 1.1//EN" "http://www.w3.org/Graphics/SVG/1.1/DTD/svg11.dtd"><svg t="1620975566611" class="icon" viewBox="0 0 1024 1024" version="1.1" xmlns="http://www.w3.org/2000/svg" p-id="10896" xmlns:xlink="http://www.w3.org/1999/xlink" width="200" height="200"><defs><style type="text/css"></style></defs><path d="M324.004571 749.44h278.729143c17.097143 0 27.830857-10.733714 27.830857-26.843429 0-16.091429-10.733714-27.172571-27.830857-27.172571H379.355429v-1.664l131.145142-128.457143c79.488-77.494857 103.314286-117.741714 103.314286-169.051428 0-77.147429-68.096-135.844571-158.994286-135.844572-71.442286 0-132.498286 38.912-152.96 97.938286-3.675429 11.062857-5.686857 20.790857-5.686857 29.184 0 16.768 10.057143 27.830857 26.496 27.830857 15.762286 0 22.473143-7.369143 27.501715-24.137143 2.688-10.404571 6.363429-20.114286 11.739428-28.525714 17.773714-30.171429 50.980571-48.969143 92.891429-48.969143 54.345143 0 97.609143 38.253714 97.609143 85.869714 0 38.582857-15.762286 64.402286-82.176 130.139429l-156.964572 156.982857c-14.08 13.750857-18.450286 22.454857-18.450286 34.541714 0 17.444571 11.410286 28.16 29.184 28.16z m523.574858 7.369143c102.637714 0 176.420571-60.032 176.420571-141.878857 0-66.413714-47.616-110.006857-124.105143-115.035429v-1.353143c63.725714-10.733714 103.314286-53.321143 103.314286-113.024 0-72.448-65.737143-125.110857-157.312-125.110857-68.754286 0-124.763429 30.537143-148.571429 80.493714a76.928 76.928 0 0 0-9.069714 36.900572c0 15.762286 10.733714 26.496 26.148571 26.496 15.104 0 22.162286-6.363429 27.190858-21.796572 14.409143-43.940571 51.309714-69.101714 102.290285-69.101714 60.050286 0 98.614857 31.524571 98.614857 79.835429 0 50.304-41.252571 83.510857-101.302857 83.510857h-36.882285c-15.762286 0-26.514286 9.728-26.514286 25.161143 0 15.085714 10.752 25.142857 26.514286 25.142857h37.558857c74.459429 0 118.729143 31.542857 118.729143 87.552 0 51.657143-46.262857 87.881143-112.694858 87.881143-57.691429 0-99.273143-25.490286-114.377142-69.778286-5.028571-14.409143-13.403429-21.12-27.501715-21.12-17.444571 0-28.836571 11.062857-28.836571 28.507429 0 11.739429 3.017143 22.473143 9.380571 34.194285 27.849143 53.010286 86.198857 82.523429 161.005715 82.523429z m-676.516572-0.658286c18.450286 0 30.848-12.068571 30.848-30.537143V296.96c0-21.796571-13.750857-33.865143-34.870857-33.865143-15.104 0-23.826286 4.699429-37.906286 13.750857L17.444571 349.293714C4.352 358.016 0 365.714286 0 376.795429c0 13.750857 10.057143 23.808 25.161143 23.808 8.722286 0 13.074286-2.669714 19.456-6.710858l95.250286-60.032h1.334857v391.753143c0 18.468571 11.410286 30.537143 29.860571 30.537143z" p-id="10897"></path></svg>
