<svg t="1631170441004" class="icon" viewBox="0 0 1024 1024" version="1.1" xmlns="http://www.w3.org/2000/svg" p-id="826" width="200" height="200"><path d="M64 104.1c0-1.3 0.5-2.6 1.5-3.6s2.3-1.5 3.6-1.5H101c1.3 0 2.6 0.5 3.6 1.5s1.5 2.3 1.5 3.6V883H955c1.3 0 2.6 0.5 3.6 1.5s1.5 2.3 1.5 3.6V920c0 1.3-0.5 2.6-1.5 3.6s-2.3 1.5-3.6 1.5H64v-821z" p-id="827"></path><path d="M524.9 640.7H387c-8.3 0-15-6.7-15-15V300.3c0-8.3 6.7-15 15-15h137.9c8.3 0 15 6.7 15 15v325.3c0 8.3-6.7 15.1-15 15.1zM314.9 827H177c-8.3 0-15-6.7-15-15V300.3c0-8.3 6.7-15 15-15h137.9c8.3 0 15 6.7 15 15V812c0 8.3-6.7 15-15 15zM734.9 640.7H597c-8.3 0-15-6.7-15-15V114c0-8.3 6.7-15 15-15h137.9c8.3 0 15 6.7 15 15v511.7c0 8.2-6.7 15-15 15zM944.9 463H807c-8.3 0-15-6.7-15-15V104.2c0-8.3 6.7-15 15-15h137.9c8.3 0 15 6.7 15 15V448c0 8.3-6.7 15-15 15z" p-id="828"></path></svg>
