<?xml version="1.0" standalone="no"?><!DOCTYPE svg PUBLIC "-//W3C//DTD SVG 1.1//EN" "http://www.w3.org/Graphics/SVG/1.1/DTD/svg11.dtd"><svg t="1625193768947" class="icon" viewBox="0 0 1024 1024" version="1.1" xmlns="http://www.w3.org/2000/svg" p-id="1789" width="128" height="128" xmlns:xlink="http://www.w3.org/1999/xlink"><defs><style type="text/css"></style></defs><path d="M862.528 225.536c29.12 0 52.864 23.68 52.864 52.8v467.264a52.992 52.992 0 0 1-52.864 52.864H161.472a52.992 52.992 0 0 1-52.864-52.864V278.336c0-29.12 23.744-52.8 52.864-52.8h701.056m0-64H161.472A116.864 116.864 0 0 0 44.608 278.336v467.264c0 64.64 52.288 116.864 116.864 116.864h700.992a116.8 116.8 0 0 0 116.864-116.864V278.336a116.8 116.8 0 0 0-116.8-116.8z" fill="#231815" p-id="1790"></path><path d="M512 607.872a32.064 32.064 0 0 1-19.52-6.592L83.584 287.36a32 32 0 0 1 38.976-50.752L512 535.552l388.288-298.88a32 32 0 0 1 38.976 50.688L531.52 601.28A32.064 32.064 0 0 1 512 607.872z" fill="#231815" p-id="1791"></path></svg>