<svg t="1635820237435" class="icon" viewBox="0 0 1024 1024" version="1.1" xmlns="http://www.w3.org/2000/svg" p-id="861" width="200" height="200"><path d="M881.371429 610.377143H785.066667v295.033905h101.814857c36.59581 2.779429 72.679619-10.410667 100.205714-36.571429 25.35619-30.841905 37.64419-71.68 33.913905-112.713143 2.82819-40.350476-11.142095-79.969524-38.107429-108.129524-26.965333-28.16-64.146286-41.935238-101.473524-37.619809z m-29.013334 66.072381h26.819048c48.201143 0 70.631619 26.575238 71.728762 80.847238 1.097143 54.296381-21.894095 84.382476-71.168 84.382476h-27.355429v-165.229714z m-437.930666-266.727619L191.073524 1019.928381h120.441905l54.735238-154.624h218.965333l54.759619 154.624h122.075429L533.211429 409.746286h-118.784z m59.123809 138.678857v11.215238s8.777143 23.015619 72.801524 201.825524h-147.260952c59.684571-167.594667 71.192381-198.875429 73.362285-203.580953l1.097143-9.459809zM199.826286 619.812571c-109.470476-6.485333-168.594286-74.361905-174.616381-201.825523 4.388571-133.948952 63.488-200.630857 174.08-208.286477 71.119238-2.608762 135.070476 46.470095 156.013714 119.783619l5.461333 17.115429-82.115047 23.015619-4.388572-15.36c-7.558095-37.64419-38.692571-64.316952-74.435047-63.707428-34.474667 0-83.21219 18.870857-88.673524 126.268952 3.82781 106.22781 54.735238 122.733714 89.234286 126.293333 43.008 0.975238 78.726095-35.669333 79.920762-82.041905l3.291428-17.700571 81.017905 25.356191-3.291429 14.774857c-11.337143 85.26019-83.090286 145.700571-162.596571 136.899047l1.097143-0.585143z m783.384381-240.152381c-2.876952-52.49219-34.54781-98.011429-80.457143-115.687619 37.571048-22.162286 60.269714-65.365333 58.563047-111.518476-4.388571-56.07619-36.132571-123.928381-164.230095-128.048762H597.820952v505.124572h214.064762c141.775238 0 171.324952-81.432381 171.324953-149.894095z m-103.472762-4.729904c0 31.865905-8.752762 69.022476-78.823619 69.022476h-106.203429v-128.633905h101.814857c71.728762 1.77981 82.115048 35.401143 83.772953 59.611429h-0.560762z m-91.428572-149.894096h-93.598476V112.90819h93.622857c65.145905 0 73.874286 30.110476 74.435048 51.931429 0.560762 21.845333-9.849905 60.196571-74.435048 60.196571z" p-id="862"></path></svg>
