<?xml version="1.0" standalone="no"?><!DOCTYPE svg PUBLIC "-//W3C//DTD SVG 1.1//EN" "http://www.w3.org/Graphics/SVG/1.1/DTD/svg11.dtd"><svg t="1658389421894" class="icon" viewBox="0 0 1170 1024" version="1.1" xmlns="http://www.w3.org/2000/svg" p-id="8357" xmlns:xlink="http://www.w3.org/1999/xlink" width="228.515625" height="200"><defs><style type="text/css">@font-face { font-family: feedback-iconfont; src: url("//at.alicdn.com/t/font_1031158_u69w8yhxdu.woff2?t=1630033759944") format("woff2"), url("//at.alicdn.com/t/font_1031158_u69w8yhxdu.woff?t=1630033759944") format("woff"), url("//at.alicdn.com/t/font_1031158_u69w8yhxdu.ttf?t=1630033759944") format("truetype"); }
</style></defs><path d="M1170.285714 36.571429a36.571429 36.571429 0 0 1-36.571428 36.571428H36.571429a36.571429 36.571429 0 0 1 0-73.142857h1097.142857a36.571429 36.571429 0 0 1 36.571428 36.571429z m0 950.857142a36.571429 36.571429 0 0 1-36.571428 36.571429H36.571429a36.571429 36.571429 0 0 1 0-73.142857h1097.142857a36.571429 36.571429 0 0 1 36.571428 36.571428zM256 365.714286h658.285714a36.571429 36.571429 0 0 1 36.571429 36.571428v219.428572a36.571429 36.571429 0 0 1-36.571429 36.571428h-658.285714a36.571429 36.571429 0 0 1-36.571429-36.571428v-219.428572a36.571429 36.571429 0 0 1 36.571429-36.571428z" fill="#515151" p-id="8358"></path></svg>