<?xml version="1.0" encoding="utf-8"?>
<!-- Generator: Adobe Illustrator 16.0.4, SVG Export Plug-In . SVG Version: 6.00 Build 0)  -->
<!DOCTYPE svg PUBLIC "-//W3C//DTD SVG 1.1//EN" "http://www.w3.org/Graphics/SVG/1.1/DTD/svg11.dtd">
<svg version="1.1" xmlns="http://www.w3.org/2000/svg" xmlns:xlink="http://www.w3.org/1999/xlink" x="0px" y="0px" width="16px"
	 height="16px" viewBox="0 0 16 16" enable-background="new 0 0 16 16" xml:space="preserve">
<g id="Dark_Theme_1_" display="none">
	<rect x="-296" y="-200" display="inline" fill="#333333" width="544" height="736"/>
	
		<rect x="-328" y="-232" display="inline" fill="none" stroke="#808080" stroke-width="0.25" stroke-miterlimit="10" width="612" height="792"/>
</g>
<g id="LightTheme" display="none">
	<rect x="-296" y="-200" display="inline" fill="#F8F8F8" width="544" height="736"/>
	
		<rect x="-328" y="-232" display="inline" fill="none" stroke="#808080" stroke-width="0.25" stroke-miterlimit="10" width="612" height="792"/>
</g>
<g id="Hover" display="none">
	<rect x="-296" y="-200" display="inline" fill="#C5E5F9" width="544" height="736"/>
</g>
<g id="Selected" display="none">
	<rect x="-296" y="-200" display="inline" fill="#AADBFA" width="544" height="736"/>
</g>
<g id="Icon_Name">
</g>
<g id="Icons">
	<circle fill-rule="evenodd" clip-rule="evenodd" fill="#F8F8F8" cx="6" cy="6" r="5"/>
	<rect y="0" fill-rule="evenodd" clip-rule="evenodd" fill="none" width="16" height="16"/>
	
		<rect x="9.7" y="10.1" transform="matrix(-0.7071 -0.7071 0.7071 -0.7071 10.6811 25.9047)" fill="#6D6E71" width="2" height="1.3"/>
	<path fill="#6D6E71" d="M14.9,15.8c-0.3,0.3-0.7,0.3-0.9,0l-3.1-3.1c-0.3-0.3-0.3-0.7,0-0.9l0.9-0.9c0.3-0.3,0.7-0.3,0.9,0l3.1,3.1
		c0.3,0.3,0.3,0.7,0,0.9L14.9,15.8z"/>
	<path fill="#6D6E71" d="M10.2,1.8c-2.3-2.3-6.1-2.3-8.5,0c-2.3,2.3-2.3,6.1,0,8.5c2.3,2.3,6.1,2.3,8.5,0S12.6,4.1,10.2,1.8z M9,9
		c-1.7,1.7-4.4,1.7-6,0S1.3,4.7,3,3c1.7-1.7,4.4-1.7,6,0C10.7,4.7,10.7,7.3,9,9z"/>
</g>
</svg>
