<svg t="1692090628247" class="icon" viewBox="0 0 1024 1024" version="1.1" xmlns="http://www.w3.org/2000/svg" p-id="27928" width="200" height="200"><path d="M896 853.333333H170.666667v-85.333333h128a42.666667 42.666667 0 0 0 0-85.333333H170.666667v-85.333334h298.666666a42.666667 42.666667 0 0 0 0-85.333333H170.666667v-85.333333h469.333333a42.666667 42.666667 0 0 0 0-85.333334H170.666667V256h640a42.666667 42.666667 0 0 0 0-85.333333H170.666667V128a42.666667 42.666667 0 0 0-85.333334 0v768a42.666667 42.666667 0 0 0 42.666667 42.666667h768a42.666667 42.666667 0 0 0 0-85.333334z" p-id="27929"></path></svg>
