<?xml version="1.0" encoding="utf-8"?>
<!-- Generator: Adobe Illustrator 23.0.0, SVG Export Plug-In . SVG Version: 6.00 Build 0)  -->
<svg version="1.1" id="图层_1" xmlns="http://www.w3.org/2000/svg" xmlns:xlink="http://www.w3.org/1999/xlink" x="0px" y="0px" preserveAspectRatio="none meet"
	 viewBox="0 0 454.2 286.6" style="enable-background:new 0 0 454.2 286.6;" xml:space="preserve">
<style type="text/css">
	.st0{fill:#0B101E;}
	.st1{opacity:0.1;fill:#006CE2;}
	.st2{fill:none;stroke:#31ECFF;stroke-width:0.6677;stroke-miterlimit:10;}
	.st3{fill:#31ECFF;}
	.st4{opacity:0.75;fill:#31ECFF;}
	.st5{opacity:0.5;fill:#31ECFF;}
	.st6{opacity:0.25;fill:#31ECFF;}
	.st7{opacity:0.25;fill:#006CE2;}
</style>
<rect x="2743.8" y="-1694.6" class="st0" width="1920" height="1080"/>
<g>
	<polygon class="st1" points="63,-472.9 -388.8,-472.9 -388.8,-756.4 -353.3,-756.4 -312.8,-712.4 63,-712.4 	"/>
	<polygon class="st1" points="-345.9,-756.4 -309,-717 63,-717 63,-756.4 	"/>
	<polygon class="st2" points="63,-472.9 -388.8,-472.9 -388.8,-756.4 -353.3,-756.4 -312.8,-712.4 63,-712.4 	"/>
	<polygon class="st2" points="-345.9,-756.4 -309,-717 63,-717 63,-756.4 	"/>
	<g>
		<rect x="52.2" y="-474.1" class="st3" width="12" height="2.4"/>
		
			<rect x="57" y="-478.9" transform="matrix(-1.836970e-16 1 -1 -1.836970e-16 -414.7073 -540.6516)" class="st3" width="12" height="2.4"/>
	</g>
	<g>
		
			<rect x="-394.8" y="-478.9" transform="matrix(-1.836970e-16 1 -1 -1.836970e-16 -866.4924 -88.8664)" class="st3" width="12" height="2.4"/>
		
			<rect x="-390" y="-474.1" transform="matrix(-1 -1.224647e-16 1.224647e-16 -1 -768.0378 -945.7705)" class="st3" width="12" height="2.4"/>
	</g>
	<g>
		
			<rect x="56.6" y="-752.7" transform="matrix(6.123234e-17 -1 1 6.123234e-17 814.0578 -688.874)" class="st3" width="12" height="2.4"/>
		<rect x="51.8" y="-757.4" class="st3" width="12" height="2.4"/>
	</g>
	<g>
		
			<rect x="-389.7" y="-757.4" transform="matrix(-1 -1.224647e-16 1.224647e-16 -1 -767.3794 -1512.5201)" class="st3" width="12" height="2.4"/>
		
			<rect x="-394.5" y="-752.7" transform="matrix(6.123234e-17 -1 1 6.123234e-17 362.9821 -1139.9497)" class="st3" width="12" height="2.4"/>
	</g>
</g>
<g>
	<polygon class="st1" points="84.6,-1179.5 -367.2,-1179.5 -367.2,-1447.9 -352.5,-1463 84.6,-1463 	"/>
	<polygon class="st2" points="84.6,-1179.5 -367.2,-1179.5 -367.2,-1447.9 -352.5,-1463 84.6,-1463 	"/>
	<polyline class="st2" points="-367.2,-1419 63.9,-1419 84.6,-1434.2 	"/>
	<polygon class="st3" points="20,-1421.6 12,-1421.6 24.3,-1431.5 32.3,-1431.5 	"/>
	<polygon class="st4" points="34.1,-1421.6 26.1,-1421.6 38.4,-1431.5 46.4,-1431.5 	"/>
	<polygon class="st5" points="48.2,-1421.6 40.2,-1421.6 52.5,-1431.5 60.5,-1431.5 	"/>
	<polygon class="st6" points="62.3,-1421.6 54.3,-1421.6 66.6,-1431.5 74.6,-1431.5 	"/>
	<polygon class="st3" points="-367.5,-1450.9 -367.5,-1463 -355.9,-1463 	"/>
</g>
<g>
	<polygon class="st1" points="15.6,-844.6 -436.1,-844.6 -436.1,-1128.1 -110.9,-1128.1 -88.4,-1111 15.6,-1111 	"/>
	<polygon class="st2" points="15.6,-844.6 -436.1,-844.6 -436.1,-1128.1 -110.9,-1128.1 -88.4,-1111 15.6,-1111 	"/>
	<g>
		<rect x="4.9" y="-845.7" class="st3" width="12" height="2.4"/>
		
			<rect x="9.7" y="-850.5" transform="matrix(-1.836970e-16 1 -1 -1.836970e-16 -833.7073 -864.9849)" class="st3" width="12" height="2.4"/>
	</g>
	<g>
		
			<rect x="-442.1" y="-850.5" transform="matrix(-1.836970e-16 1 -1 -1.836970e-16 -1285.4924 -413.1997)" class="st3" width="12" height="2.4"/>
		
			<rect x="-437.3" y="-845.7" transform="matrix(-1 -1.224647e-16 1.224647e-16 -1 -862.7045 -1689.1039)" class="st3" width="12" height="2.4"/>
	</g>
	<g>
		
			<rect x="-437" y="-1129.1" transform="matrix(-1 -1.224647e-16 1.224647e-16 -1 -862.0461 -2255.8535)" class="st3" width="12" height="2.4"/>
		
			<rect x="-441.8" y="-1124.3" transform="matrix(6.123234e-17 -1 1 6.123234e-17 687.3154 -1558.9497)" class="st3" width="12" height="2.4"/>
	</g>
	<polygon class="st3" points="-54.9,-1114.3 -76.3,-1114.3 -89.6,-1124.2 -68.2,-1124.2 	"/>
	<polygon class="st4" points="-28.8,-1114.3 -47.5,-1114.3 -60.8,-1124.2 -42.1,-1124.2 	"/>
	<polygon class="st5" points="-5.4,-1114.3 -21.4,-1114.3 -34.7,-1124.2 -18.7,-1124.2 	"/>
	<polygon class="st6" points="15.4,-1114.3 2,-1114.3 -11.2,-1124.2 15.4,-1124.2 	"/>
	<rect x="-436.1" y="-1081.9" class="st3" width="451.8" height="1.8"/>
</g>
<g>
	<polygon class="st1" points="2182.7,-1069.2 1731,-1069.2 1731,-1337.6 1745.7,-1352.8 2182.7,-1352.8 	"/>
	<polygon class="st2" points="2182.7,-1069.2 1731,-1069.2 1731,-1337.6 1745.7,-1352.8 2182.7,-1352.8 	"/>
	<polyline class="st2" points="1731,-1308.7 2162.1,-1308.7 2182.7,-1323.9 	"/>
	<polygon class="st3" points="2118.2,-1311.3 2110.2,-1311.3 2122.5,-1321.3 2130.5,-1321.3 	"/>
	<polygon class="st4" points="2132.3,-1311.3 2124.3,-1311.3 2136.6,-1321.3 2144.6,-1321.3 	"/>
	<polygon class="st5" points="2146.4,-1311.3 2138.4,-1311.3 2150.7,-1321.3 2158.7,-1321.3 	"/>
	<polygon class="st6" points="2160.5,-1311.3 2152.4,-1311.3 2164.8,-1321.3 2172.8,-1321.3 	"/>
	<polygon class="st3" points="1730.7,-1340.6 1730.7,-1352.8 1742.3,-1352.8 	"/>
</g>
<g>
	<polygon class="st1" points="2182.6,-750.6 1730.8,-750.6 1730.8,-1034.2 2056,-1034.2 2078.6,-1017.1 2182.6,-1017.1 	"/>
	<polygon class="st2" points="2182.6,-750.6 1730.8,-750.6 1730.8,-1034.2 2056,-1034.2 2078.6,-1017.1 2182.6,-1017.1 	"/>
	<g>
		<rect x="2171.8" y="-751.8" class="st3" width="12" height="2.4"/>
		
			<rect x="2176.6" y="-756.6" transform="matrix(-1.836970e-16 1 -1 -1.836970e-16 1427.1624 -2938.0291)" class="st3" width="12" height="2.4"/>
	</g>
	<g>
		
			<rect x="1724.8" y="-756.6" transform="matrix(-1.836970e-16 1 -1 -1.836970e-16 975.3772 -2486.2439)" class="st3" width="12" height="2.4"/>
		
			<rect x="1729.6" y="-751.8" transform="matrix(-1 -1.224647e-16 1.224647e-16 -1 3471.2095 -1501.2784)" class="st3" width="12" height="2.4"/>
	</g>
	<g>
		
			<rect x="1730" y="-1035.2" transform="matrix(-1 -1.224647e-16 1.224647e-16 -1 3471.8679 -2068.0281)" class="st3" width="12" height="2.4"/>
		
			<rect x="1725.2" y="-1030.4" transform="matrix(6.123234e-17 -1 1 6.123234e-17 2760.3596 701.9199)" class="st3" width="12" height="2.4"/>
	</g>
	<polygon class="st3" points="2112,-1020.3 2090.6,-1020.3 2077.4,-1030.3 2098.7,-1030.3 	"/>
	<polygon class="st4" points="2138.1,-1020.3 2119.4,-1020.3 2106.2,-1030.3 2124.9,-1030.3 	"/>
	<polygon class="st5" points="2161.6,-1020.3 2145.5,-1020.3 2132.3,-1030.3 2148.3,-1030.3 	"/>
	<polygon class="st6" points="2182.3,-1020.3 2169,-1020.3 2155.7,-1030.3 2182.3,-1030.3 	"/>
	<rect x="1730.8" y="-988" class="st3" width="451.8" height="1.8"/>
</g>
<g>
	<polygon class="st1" points="1682.5,-750.7 850.3,-750.7 850.3,-1034.3 1555.9,-1034.3 1578.5,-1017.2 1682.5,-1017.2 	"/>
	<polygon class="st2" points="1682.5,-750.7 850.3,-750.7 850.3,-1034.3 1555.9,-1034.3 1578.5,-1017.2 1682.5,-1017.2 	"/>
	<g>
		<rect x="1671.7" y="-751.9" class="st3" width="12" height="2.4"/>
		
			<rect x="1676.5" y="-756.7" transform="matrix(-1.836970e-16 1 -1 -1.836970e-16 926.9837 -2438.0081)" class="st3" width="12" height="2.4"/>
	</g>
	<g>
		
			<rect x="844.3" y="-756.7" transform="matrix(-1.836970e-16 1 -1 -1.836970e-16 94.7936 -1605.818)" class="st3" width="12" height="2.4"/>
		
			<rect x="849.1" y="-751.9" transform="matrix(-1 -1.224647e-16 1.224647e-16 -1 1710.2 -1501.436)" class="st3" width="12" height="2.4"/>
	</g>
	<g>
		
			<rect x="849.4" y="-1035.3" transform="matrix(-1 -1.224647e-16 1.224647e-16 -1 1710.8583 -2068.1858)" class="st3" width="12" height="2.4"/>
		
			<rect x="844.7" y="-1030.5" transform="matrix(6.123234e-17 -1 1 6.123234e-17 1879.9337 -178.6637)" class="st3" width="12" height="2.4"/>
	</g>
	<polygon class="st3" points="1611.9,-1020.4 1590.5,-1020.4 1577.3,-1030.4 1598.6,-1030.4 	"/>
	<polygon class="st4" points="1638,-1020.4 1619.3,-1020.4 1606.1,-1030.4 1624.8,-1030.4 	"/>
	<polygon class="st5" points="1661.5,-1020.4 1645.4,-1020.4 1632.2,-1030.4 1648.2,-1030.4 	"/>
	<polygon class="st6" points="1682.2,-1020.4 1668.9,-1020.4 1655.6,-1030.4 1682.2,-1030.4 	"/>
	<rect x="850.2" y="-988.1" class="st3" width="832.3" height="1.8"/>
</g>
<g>
	<polygon class="st1" points="444.4,285.1 2.4,285.1 2.4,11.8 12.1,1.6 454.2,1.6 454.2,275 	"/>
	<polygon class="st3" points="414.3,3.2 194.9,3.2 191.7,0 417.3,0 	"/>
	<polyline class="st2" points="454.2,50 454.2,1.6 418.8,1.6 415.3,5.3 193.8,5.3 190.3,1.6 12.4,1.6 2.4,11.9 2.4,18.5 	"/>
	
		<rect x="25.5" y="283.4" transform="matrix(-1 -1.224647e-16 1.224647e-16 -1 314.9124 570.0419)" class="st3" width="263.9" height="3.2"/>
	<polyline class="st2" points="2.4,249.9 2.4,285 444.2,285 454.2,274.7 454.2,268.2 	"/>
	<polygon class="st7" points="454.2,50 454.2,1.6 418.8,1.6 415.3,5.3 193.8,5.3 190.2,1.6 12.1,1.6 2.4,11.8 2.4,50 	"/>
</g>
</svg>
