<?xml version="1.0" encoding="utf-8"?>
<!-- Generator: Adobe Illustrator 19.0.0, SVG Export Plug-In . SVG Version: 6.00 Build 0)  -->
<svg version="1.1" id="图层_1" xmlns="http://www.w3.org/2000/svg" xmlns:xlink="http://www.w3.org/1999/xlink" x="0px" y="0px"
	 viewBox="947.2 183.1 174 35" style="enable-background:new 947.2 183.1 174 35;" xml:space="preserve">
<style type="text/css">
	.st0{fill:#FFFFFF;}
</style>
<g>
	<g id="XMLID_140_">
		<path id="XMLID_166_" class="st0" d="M998.3,209.6l-1.1-11.2l-3.1,11.2h-3.6l-3-11.2l-1.1,11.2l-5,0l2.4-16.5h6.3l2.2,7.8l2.2-7.8
			h6.2l2.5,16.5H998.3z"/>
		<path id="XMLID_163_" class="st0" d="M1015.2,202.7v2.1h-6.5l0,0.4c0,0.8,0.3,1.3,0.8,1.4c0.4,0.1,0.8,0.2,1.3,0.2h0.3
			c1.3,0,3.1-0.3,4.5-0.6h0l-0.5,2.9c0,0-0.6,0.3-1.8,0.5c-0.8,0.1-1.6,0.1-2.6,0.1c-2.6,0-4.2-0.9-4.9-2.6
			c-0.3-0.7-0.5-1.4-0.5-2.2v-2.8c0-2.1,1-3.4,2.7-4.1c0.8-0.3,1.6-0.4,2.4-0.4c2.4,0,4,0.8,4.7,2.4
			C1015.1,200.7,1015.2,201.6,1015.2,202.7z M1011.8,202.1c0-0.8-0.2-1.4-0.6-1.5c-0.3-0.2-0.7-0.2-1-0.2c-1,0-1.4,0.5-1.4,1.4
			l-0.1,0.6h3.1V202.1z"/>
		<path id="XMLID_160_" class="st0" d="M1037.3,202.7v2.1h-6.5l0,0.4c0,0.8,0.3,1.3,0.8,1.4c0.4,0.1,0.8,0.2,1.3,0.2h0.3
			c1.3,0,3.1-0.3,4.5-0.6h0l-0.5,2.9c0,0-0.6,0.3-1.8,0.5c-0.8,0.1-1.6,0.1-2.6,0.1c-2.6,0-4.2-0.9-4.9-2.6
			c-0.3-0.7-0.5-1.4-0.5-2.2v-2.8c0-2.1,1-3.4,2.7-4.1c0.8-0.3,1.6-0.4,2.4-0.4c2.4,0,4,0.8,4.7,2.4
			C1037.2,200.7,1037.3,201.6,1037.3,202.7z M1033.9,202.1c0-0.8-0.2-1.4-0.6-1.5c-0.3-0.2-0.7-0.2-1-0.2c-1,0-1.4,0.5-1.4,1.4
			l-0.1,0.6h3.1V202.1L1033.9,202.1z"/>
		<path id="XMLID_157_" class="st0" d="M1098.2,202.7v2.1h-6.5l0,0.4c0,0.8,0.3,1.3,0.8,1.4c0.4,0.1,0.8,0.2,1.3,0.2h0.3
			c1.3,0,3.1-0.3,4.5-0.6h0l-0.5,2.9c0,0-0.6,0.3-1.8,0.5c-0.8,0.1-1.6,0.1-2.6,0.1c-2.6,0-4.2-0.9-4.9-2.6
			c-0.3-0.7-0.5-1.4-0.5-2.2v-2.8c0-2.1,1-3.4,2.7-4.1c0.8-0.3,1.6-0.4,2.4-0.4c2.4,0,4,0.8,4.7,2.4
			C1098.1,200.7,1098.2,201.6,1098.2,202.7z M1094.8,202.1c0-0.8-0.2-1.4-0.6-1.5c-0.3-0.2-0.7-0.2-1-0.2c-1,0-1.4,0.5-1.4,1.4
			l-0.1,0.6h3.1V202.1z"/>
		<path id="XMLID_154_" class="st0" d="M1120.3,202.7v2.1h-6.5l0,0.4c0,0.8,0.3,1.3,0.8,1.4c0.4,0.1,0.8,0.2,1.3,0.2h0.3
			c1.3,0,3.1-0.3,4.5-0.6h0l-0.5,2.9c0,0-0.6,0.3-1.8,0.5c-0.8,0.1-1.6,0.1-2.6,0.1c-2.6,0-4.2-0.9-4.9-2.6
			c-0.3-0.7-0.5-1.4-0.5-2.2v-2.8c0-2.1,1-3.4,2.7-4.1c0.8-0.3,1.6-0.4,2.4-0.4c2.4,0,4,0.8,4.7,2.4
			C1120.2,200.7,1120.3,201.6,1120.3,202.7z M1116.9,202.1c0-0.8-0.2-1.4-0.6-1.5c-0.3-0.2-0.7-0.2-1-0.2c-1,0-1.4,0.5-1.4,1.4
			l-0.1,0.6h3.1V202.1z"/>
		<path id="XMLID_152_" class="st0" d="M1025.7,209.6h-2.1c-0.4,0-0.7,0-0.9,0c-0.7-0.1-1.3-0.2-1.7-0.4c-0.5-0.3-1-0.7-1.2-1.2
			c-0.3-0.6-0.5-1.4-0.5-2.5l0-4.6h-1.7v-3h1.7v-2.3l1.7,0l1.8-0.2v2.6h2.7l-0.4,3h-2.3v4.4c0,0.1,0,0.2,0,0.3c0,0.2,0,0.3,0.1,0.5
			c0.1,0.3,0.3,0.5,0.7,0.6c0.3,0.1,1.9,0.1,1.9,0.1L1025.7,209.6z"/>
		<path id="XMLID_150_" class="st0" d="M1047.7,197.9l-0.1,2.8c-0.3,0-1.2,0-2.1,0.2c-0.8,0.2-1.7,0.6-2.1,0.8v8h-3.5v-11.8h3.3
			c0,0-0.1,0.6,0,0.9l0.8-0.3c0.5-0.2,1-0.3,1.7-0.4C1046.7,197.8,1047.3,197.9,1047.7,197.9z"/>
		<path id="XMLID_148_" class="st0" d="M1108.9,197.9l-0.1,2.8c-0.3,0-1.2,0-2.1,0.2c-0.8,0.2-1.7,0.6-2.1,0.8v8h-3.5v-11.8h3.3
			c0,0-0.1,0.6,0,0.9l0.8-0.3c0.5-0.2,1-0.3,1.7-0.4C1107.9,197.8,1108.5,197.9,1108.9,197.9z"/>
		<path id="XMLID_146_" class="st0" d="M1054.6,210.1c-0.8,0-1.8-0.1-2.7-0.2c-0.4,0-0.8-0.1-1.2-0.2l-1.6-0.2l0-4.1l2.4,0.4
			c0,0,1,0.1,1.4,0.2c0.5,0.1,1,0.1,1.4,0.1c1.5,0,2.4-0.4,2.7-1.1c0.1-0.3,0.1-0.6,0-0.9c-0.2-0.3-0.5-0.6-0.9-0.8
			c-0.2-0.1-0.5-0.2-0.8-0.3l-0.9-0.3c-0.4-0.1-0.8-0.2-1.1-0.3c-0.4-0.1-0.8-0.3-1.1-0.4c-0.8-0.4-1.5-0.8-2-1.3
			c-0.4-0.5-0.7-1.1-0.9-1.8c-0.1-0.5-0.1-1.1,0-1.7c0.2-1.8,1-3.1,2.3-3.8c0.5-0.3,1.1-0.5,1.8-0.6c0.3,0,0.6-0.1,0.9-0.1l0.9-0.1
			h0.6c0.7,0,1.5,0,2.3,0.1l1,0.1l1.2,0.2l0,3.6c-0.5-0.1-1-0.2-1.7-0.3c-0.9-0.1-1.7-0.2-2.4-0.2c-1.6,0-2.2,0.3-2.5,1.1
			c-0.1,0.3-0.1,0.6-0.1,0.9c0,0.4,0,0.5,0.7,0.8c0.2,0.1,0.5,0.2,0.8,0.3l2.1,0.6c0.4,0.1,0.8,0.3,1.1,0.4c0.8,0.3,1.4,0.7,1.8,1.1
			c0.5,0.5,0.8,1.1,0.9,1.8c0.1,0.5,0.1,1.1,0,1.7c-0.2,1.8-1.1,3.4-2.4,4.1c-0.5,0.3-1.1,0.5-1.8,0.6c-0.3,0-0.6,0.1-0.9,0.1
			l-0.8,0.1L1054.6,210.1L1054.6,210.1z"/>
		<path id="XMLID_143_" class="st0" d="M1063.6,197.8h3.2l-0.1,0.8c0.3-0.2,0.6-0.3,1-0.4c0.4-0.2,0.8-0.3,1.1-0.3
			c0.9-0.2,1.8-0.2,2.7,0.1c0.5,0.2,1,0.5,1.4,1c0.2,0.2,0.3,0.4,0.4,0.6l0.1,0.2c0,0.1,0.1,0.1,0.1,0.2c0.2,0.4,0.3,0.9,0.4,1.4
			c0.1,0.6,0.2,1.3,0.2,2.2v0.7c0,1.8-0.1,2.7-0.4,3.4c-0.5,1.1-1.6,1.6-3.7,1.7c-0.3,0-0.7,0-1.2,0l-0.8,0c-0.3,0-0.5,0-0.7,0v5.1
			l-3.6,0.2V197.8L1063.6,197.8z M1067.2,206.1c0.7,0.1,1.1,0.1,1.7,0.1l0.6-0.1c0.7-0.2,1-0.6,1-1.3v-2.3c0-0.3,0-0.6-0.1-0.7
			c-0.2-0.7-0.8-1-1.8-0.9l-0.4,0.1l-0.7,0.2l-0.3,0.1L1067.2,206.1L1067.2,206.1z"/>
		<path id="XMLID_141_" class="st0" d="M1086.5,203.2v6.4h-3.6v-7c0-0.4-0.3-1.1-0.8-1.4c-0.4-0.2-1-0.2-1.2-0.1
			c-0.5,0.1-1,0.4-1.3,0.6v7.9h-3.6v-17l3.6,0v6c0.4-0.2,0.9-0.3,1.4-0.4c0.4-0.1,0.8-0.1,1.2-0.1c2.1,0,3.2,0.6,3.7,1.7
			C1086.2,200.2,1086.5,201.4,1086.5,203.2z"/>
	</g>
	<g id="XMLID_136_">
		<path id="XMLID_137_" class="st0" d="M961.7,184.4l13.7,8v16.1l-13.7,8l-13.7-8v-16.1L961.7,184.4 M961.7,183.9l-14.1,8.3v16.5
			l14.1,8.3l14.1-8.3v-16.5L961.7,183.9L961.7,183.9z"/>
	</g>
	<polygon id="XMLID_132_" class="st0" points="949.8,193.2 961.7,186.3 973.6,193.2 961.7,200.2 	"/>
	<g id="XMLID_278_">
		<g id="XMLID_42_">
			<path id="XMLID_43_" class="st0" d="M949.6,193.6v13.9l11.9,6.9v-13.9L949.6,193.6z M957.8,209.4v-4.9l-1.8,3.9l-1.5-0.9
				l-0.8-5.4l-0.9,4.3l-2.1-1.3l1.7-6.2l2.6,1.6l0.6,3.8l1.2-2.7l2.6,1.5l0.4,7.5L957.8,209.4z"/>
		</g>
	</g>
	<g id="XMLID_129_">
		<g id="XMLID_37_">
			<path id="XMLID_38_" class="st0" d="M961.9,200.6v13.9l11.9-6.9v-13.9L961.9,200.6z M971.3,205.3c-0.1,0.9-0.5,1.9-1.1,2.5
				c-0.2,0.2-0.5,0.5-0.9,0.7c-0.1,0.1-0.3,0.2-0.5,0.2l-0.4,0.2l-0.3,0.1c-0.4,0.2-0.9,0.3-1.4,0.5c-0.2,0.1-0.4,0.1-0.6,0.2
				l-0.8,0.2l0-2l1.2-0.3c0,0,0.5-0.1,0.7-0.2c0.3-0.1,0.5-0.2,0.7-0.3c0.8-0.3,1.2-0.7,1.3-1.1c0.1-0.2,0.1-0.3,0-0.4
				c-0.1-0.1-0.2-0.2-0.5-0.2c-0.1,0-0.2,0-0.4,0l-0.5,0c-0.2,0-0.4,0.1-0.5,0.1c-0.2,0-0.4,0-0.6,0c-0.4,0-0.8-0.1-1-0.2
				c-0.2-0.1-0.4-0.4-0.5-0.7c-0.1-0.2-0.1-0.5,0-0.8c0.1-0.9,0.4-1.7,1.1-2.3c0.3-0.2,0.5-0.5,0.9-0.7c0.1-0.1,0.3-0.2,0.5-0.2
				l0.5-0.2l0.3-0.1c0.4-0.1,0.7-0.3,1.2-0.4l0.5-0.2l0.6-0.2l0.1,1.8c-0.2,0-0.5,0.1-0.9,0.2c-0.4,0.1-0.9,0.3-1.2,0.4
				c-0.8,0.3-1.1,0.6-1.2,1c0,0.2,0,0.3,0,0.5c0,0.2,0,0.2,0.4,0.3c0.1,0,0.3,0,0.4,0l1.1-0.1c0.2,0,0.4,0,0.5,0
				c0.4,0,0.7,0.1,0.9,0.2c0.2,0.1,0.4,0.4,0.5,0.7C971.3,204.7,971.3,205,971.3,205.3z"/>
		</g>
	</g>
</g>
</svg>
