<svg t="1690278352718" class="icon" viewBox="0 0 1024 1024" version="1.1" xmlns="http://www.w3.org/2000/svg" p-id="2644" width="200" height="200"><path d="M96.895 958.136c-16.617 0-30.03-13.413-30.03-30.03V91.29c0-16.616 13.413-30.03 30.03-30.03s30.029 13.414 30.029 30.03v836.817c0 16.617-13.513 30.03-30.03 30.03z m154.15-159.156c-16.616 0-30.03-13.413-30.03-30.03v-206.2c0-16.617 13.414-30.03 30.03-30.03s30.03 13.413 30.03 30.03v206.2c0 16.617-13.514 30.03-30.03 30.03z m192.989 0c-16.617 0-30.03-13.513-30.03-30.03l0.3-281.274c0-16.616 13.414-30.03 30.03-30.03s30.03 13.514 30.03 30.03l-0.301 281.275c0 16.616-13.413 30.03-30.03 30.03z m386.577 0c-16.616 0-30.03-13.413-30.03-30.03V409.6c0-16.616 13.414-30.03 30.03-30.03s30.03 13.414 30.03 30.03v359.35c0 16.617-13.514 30.03-30.03 30.03z m-193.189 0c-16.616 0-30.029-13.413-30.029-30.03V566.754c0-16.616 13.413-30.029 30.03-30.029s30.029 13.413 30.029 30.03V768.95c0 16.616-13.513 30.03-30.03 30.03z" fill="#515151" p-id="2645"></path><path d="M933.712 958.136H96.895c-16.617 0-30.03-13.413-30.03-30.03s13.413-30.029 30.03-30.029h836.817c16.616 0 30.03 13.413 30.03 30.03s-13.514 30.029-30.03 30.029zM244.038 448.638c-8.908 0-17.717-4.004-23.723-11.511-10.21-13.013-7.908-31.931 5.105-42.141l188.084-147.144c21.12-16.516 51.65-14.915 70.97 3.704l124.821 120.517 202.197-165.862c12.813-10.51 31.731-8.608 42.242 4.204s8.608 31.731-4.204 42.242L642.127 423.013c-20.42 16.817-50.249 15.615-69.268-2.803L446.636 298.291l-184.08 144.041c-5.505 4.304-12.011 6.306-18.518 6.306z" fill="#515151" p-id="2646"></path></svg>
