<svg xmlns="http://www.w3.org/2000/svg" viewBox="0 0 64 64"><defs><style>.cls-1{isolation:isolate;}.cls-2,.cls-9{fill:#f2f4f5;}.cls-3{fill:#0a7be0;}.cls-4{fill:#53baf9;}.cls-5,.cls-6{fill:#a2a2ba;}.cls-6{mix-blend-mode:multiply;}.cls-7,.cls-8{fill:#fff;}.cls-7{opacity:0.65;}.cls-9{opacity:0.8;}.cls-10{fill:none;stroke:#0a7be0;stroke-miterlimit:10;}</style></defs><title>【icon】插件管理-导出</title><g class="cls-1"><g id="图层_1" data-name="图层 1"><circle class="cls-2" cx="32" cy="32" r="32"/><path class="cls-3" d="M25.76,44.82l6.79-11.56H44.4V12.36A2.36,2.36,0,0,0,42,10H13.87a2.58,2.58,0,0,0-2.58,2.57V44.7A3.68,3.68,0,0,0,15,48.37H27.84Z"/><path class="cls-4" d="M25.76,44.82,27,42.73H14.11a2.83,2.83,0,0,0-2.82,2.82h0a2.83,2.83,0,0,0,2.82,2.82H27.84Z"/><polygon class="cls-5" points="33.96 54 28.57 44.82 33.96 35.64 52.71 35.64 52.71 54 33.96 54"/><polygon class="cls-6" points="33.96 54 28.57 44.82 52.71 44.75 52.71 54 33.96 54"/><path class="cls-7" d="M47,42.9c0,2.9-5.24,8-5.24,8s-5.24-5.05-5.24-8A5.24,5.24,0,1,1,47,42.9Z"/><circle class="cls-8" cx="41.76" cy="42.9" r="2.71"/><polygon class="cls-2" points="25.69 30.72 19.31 32.66 19.31 15.55 25.69 13.61 25.69 30.72"/><polygon class="cls-9" points="25.69 30.72 31.5 32.66 31.5 15.55 25.69 13.61 25.69 30.72"/><polygon class="cls-2" points="36.8 30.72 31.5 32.66 31.5 15.55 36.8 13.61 36.8 30.72"/><polyline class="cls-10" points="18.09 26.22 25.69 20.79 31.5 26.7 39.05 20.28"/><line class="cls-10" x1="18.48" y1="16.91" x2="22.74" y2="22.89"/><polyline class="cls-10" points="29.07 24.23 25.69 24.77 22.16 32.79"/></g></g></svg>