<?xml version="1.0" standalone="no"?><!DOCTYPE svg PUBLIC "-//W3C//DTD SVG 1.1//EN" "http://www.w3.org/Graphics/SVG/1.1/DTD/svg11.dtd"><svg t="1676880491070" class="icon" viewBox="0 0 1024 1024" version="1.1" xmlns="http://www.w3.org/2000/svg" p-id="4150" xmlns:xlink="http://www.w3.org/1999/xlink" width="200" height="200"><path d="M512 160a115.936 115.936 0 0 1 114.816 99.328 313.28 313.28 0 0 1 192.224 355.392A115.52 115.52 0 0 1 864 706.304a115.904 115.904 0 0 1-115.968 115.84c-20.48 0-39.712-5.344-56.416-14.624A312.16 312.16 0 0 1 512 864a312.576 312.576 0 0 1-179.648-56.448c-16.64 9.28-35.904 14.56-56.384 14.56A115.904 115.904 0 0 1 160 706.272c0-37.248 17.6-70.4 44.992-91.584-4.352-26.112-6.56-47.424-6.56-63.84a313.28 313.28 0 0 1 198.784-291.52A115.904 115.904 0 0 1 512 160z m105.12 164.704c-20.384 41.856-59.68 66.944-105.12 66.944a116 116 0 0 1-105.152-66.88 249.28 249.28 0 0 0-144.416 226.08c-0.736 15.488 3.2 40.128 3.2 40.128 73.248-5.312 126.304 51.36 126.304 115.328a115.2 115.2 0 0 1-13.824 54.88A248.192 248.192 0 0 0 512 800.096c48.288 0 94.4-13.728 133.92-38.88a115.04 115.04 0 0 1-13.856-54.912c0-64 54.144-121.76 126.24-115.328 0 0 3.264-26.56 3.264-40.128a249.344 249.344 0 0 0-144.448-226.144z m130.912 329.696A51.936 51.936 0 1 0 800 706.304c0-28.672-23.264-51.904-51.968-51.904z m-472.064 0a51.936 51.936 0 1 0 51.968 51.904c0-28.672-23.264-51.904-51.968-51.904zM512 223.904a51.936 51.936 0 1 0 51.968 51.904c0-28.64-23.264-51.904-51.968-51.904z" fill="#686C78" p-id="4151"></path></svg>