<?xml version="1.0" standalone="no"?><!DOCTYPE svg PUBLIC "-//W3C//DTD SVG 1.1//EN" "http://www.w3.org/Graphics/SVG/1.1/DTD/svg11.dtd"><svg t="1676880438895" class="icon" viewBox="0 0 1024 1024" version="1.1" xmlns="http://www.w3.org/2000/svg" p-id="2075" xmlns:xlink="http://www.w3.org/1999/xlink" width="200" height="200"><path d="M913.408 202.752c0 12.288-8.192 20.48-20.48 20.48s-20.48-8.192-20.48-20.48v-18.432c0-45.056-36.864-81.92-81.92-81.92h-573.44c-45.056 0-81.92 36.864-81.92 81.92v655.36c0 45.056 36.864 81.92 81.92 81.92h573.44c45.056 0 81.92-36.864 81.92-81.92v-464.896c0-12.288 8.192-20.48 20.48-20.48s20.48 8.192 20.48 20.48V839.68c0 67.584-55.296 122.88-122.88 122.88h-573.44c-67.584 0-122.88-55.296-122.88-122.88v-655.36c0-67.584 55.296-122.88 122.88-122.88h573.44c67.584 0 122.88 55.296 122.88 122.88v18.432z m-665.6 73.728h102.4v552.96h-102.4v-552.96z m204.8 122.88h102.4v430.08h-102.4v-430.08z m204.8 102.4h102.4v327.68h-102.4v-327.68z" fill="#32373B" p-id="2076"></path></svg>