<svg xmlns="http://www.w3.org/2000/svg" viewBox="0 0 64 64"><defs><style>.cls-1{isolation:isolate;}.cls-2{fill:#f2f4f5;}.cls-3{fill:#0a7be0;}.cls-4{fill:#53baf9;}.cls-5,.cls-6{fill:#a2a2ba;}.cls-6{mix-blend-mode:multiply;}.cls-7{fill:#fff;}.cls-8{fill:#cdeaf9;}</style></defs><title>【icon】插件管理-导出</title><g class="cls-1"><g id="图层_1" data-name="图层 1"><circle class="cls-2" cx="32" cy="32" r="32"/><path class="cls-3" d="M26,44.24l6.48-11H43.84V13.26A2.26,2.26,0,0,0,41.58,11H14.69a2.46,2.46,0,0,0-2.46,2.46V44.12a3.51,3.51,0,0,0,3.51,3.5H28Z"/><path class="cls-4" d="M26,44.24l1.17-2H14.93a2.71,2.71,0,0,0-2.7,2.69h0a2.71,2.71,0,0,0,2.7,2.69H28Z"/><polygon class="cls-5" points="33.87 53 28.73 44.24 33.87 35.47 51.77 35.47 51.77 53 33.87 53"/><polygon class="cls-6" points="33.87 53 28.73 44.24 51.77 44.17 51.77 53 33.87 53"/><circle class="cls-7" cx="35.56" cy="38.09" r="0.51"/><circle class="cls-7" cx="37.56" cy="40.14" r="0.64"/><circle class="cls-7" cx="39.61" cy="42.15" r="0.73"/><circle class="cls-7" cx="41.65" cy="44.21" r="0.8"/><circle class="cls-7" cx="43.7" cy="46.21" r="0.9"/><circle class="cls-7" cx="45.7" cy="48.23" r="1"/><circle class="cls-7" cx="43.64" cy="50.26" r="0.62"/><circle class="cls-7" cx="41.62" cy="48.23" r="0.59"/><circle class="cls-7" cx="39.61" cy="46.21" r="0.63"/><circle class="cls-7" cx="37.56" cy="48.23" r="0.63"/><circle class="cls-7" cx="35.52" cy="50.31" r="0.66"/><circle class="cls-7" cx="39.63" cy="50.24" r="0.64"/><circle class="cls-7" cx="39.61" cy="38.09" r="0.68"/><circle class="cls-7" cx="41.61" cy="40.08" r="0.73"/><circle class="cls-7" cx="43.66" cy="42.14" r="0.84"/><circle class="cls-7" cx="45.71" cy="44.21" r="0.93"/><circle class="cls-7" cx="47.78" cy="46.21" r="1"/><circle class="cls-7" cx="49.79" cy="44.17" r="0.97"/><circle class="cls-7" cx="47.73" cy="42.13" r="0.81"/><circle class="cls-7" cx="45.7" cy="40.14" r="0.8"/><circle class="cls-7" cx="43.66" cy="38.08" r="0.71"/><polygon class="cls-7" points="34.52 29.06 24.45 20.87 16.22 28.34 15.25 27.27 24.4 18.97 34.49 27.17 40.59 21.9 41.53 22.99 34.52 29.06"/><circle class="cls-8" cx="15.73" cy="27.8" r="1.91"/><circle class="cls-8" cx="24.43" cy="19.92" r="3.94"/><circle class="cls-8" cx="34.51" cy="28.11" r="2.86"/><circle class="cls-8" cx="40.95" cy="22.53" r="1.73"/></g></g></svg>
