<?xml version="1.0" standalone="no"?><!DOCTYPE svg PUBLIC "-//W3C//DTD SVG 1.1//EN" "http://www.w3.org/Graphics/SVG/1.1/DTD/svg11.dtd"><svg class="icon" width="200px" height="200.00px" viewBox="0 0 1024 1024" version="1.1" xmlns="http://www.w3.org/2000/svg"><path d="M447.872 534.72l331.904 332.864c-55.936 41.984-121.856 72.896-193.728 85.76-0.32 0.064-0.64 0.064-1.024 0.128C561.28 957.76 536.832 960 511.872 960 265.088 960 65.024 757.184 64 510.08c0.96-224.768 167.488-409.92 383.872-441.024L447.872 534.72zM547.904 530.048l288.96 289.792c76.032-80.32 123.072-188.48 123.072-307.904L565.888 511.936 547.904 530.048zM512 192l128 0 0 64L512 256l0 64 128 0 0 64L512 384l0 64 128 0 64 0L704 192 704 128 512 128 512 192zM832 192l64 0L896 128l-128 0 0 64 0 256 64 0 64 0L896 384l-64 0L832 192zM896 192l0 192 64 0L960 192 896 192z" /></svg>