<svg xmlns="http://www.w3.org/2000/svg" viewBox="0 0 64 64"><defs><style>.cls-1{isolation:isolate;}.cls-2{fill:#f2f4f5;}.cls-3{fill:#0a7be0;}.cls-4{fill:#53baf9;}.cls-5,.cls-7{fill:#a2a2ba;}.cls-6{fill:#fff;}.cls-7{mix-blend-mode:multiply;}</style></defs><title>【icon】插件管理-导出</title><g class="cls-1"><g id="图层_1" data-name="图层 1"><circle class="cls-2" cx="32" cy="32" r="32"/><path class="cls-3" d="M26,44.24l6.48-11H43.84V13.26A2.26,2.26,0,0,0,41.58,11H14.69a2.46,2.46,0,0,0-2.46,2.46V44.12a3.51,3.51,0,0,0,3.51,3.5H28Z"/><path class="cls-4" d="M26,44.24l1.17-2H14.93a2.71,2.71,0,0,0-2.7,2.69h0a2.71,2.71,0,0,0,2.7,2.69H28Z"/><polygon class="cls-5" points="33.87 53 28.73 44.24 33.87 35.47 51.77 35.47 51.77 53 33.87 53"/><rect class="cls-4" x="34.84" y="20.18" width="7.26" height="1.63" rx="0.81"/><rect class="cls-6" x="34.84" y="23.68" width="4.06" height="1.63" rx="0.81"/><path class="cls-6" d="M24,24.23h9.27a9.27,9.27,0,1,1-14.4-7.71Z"/><path class="cls-4" d="M24.55,23.34l-4.23-7.66a8.68,8.68,0,0,1,4.23-1.09,8.79,8.79,0,0,1,8.73,8.24Z"/><polygon class="cls-7" points="33.87 53 28.73 44.24 51.77 44.17 51.77 53 33.87 53"/><path class="cls-6" d="M39.3,46.72a2.17,2.17,0,0,1-.59.8,2.63,2.63,0,0,1-.87.48,3.6,3.6,0,0,1-1.05.15,3.86,3.86,0,0,1-1-.14,2.6,2.6,0,0,1-.87-.46,2.28,2.28,0,0,1-.61-.78,2.83,2.83,0,0,1-.24-1.15h1.57a1.47,1.47,0,0,0,.11.5,1,1,0,0,0,.25.35,1,1,0,0,0,.37.2,1.31,1.31,0,0,0,.44.07,1.24,1.24,0,0,0,.85-2.06,1.22,1.22,0,0,0-.9-.32h-.22V43h.22a1.05,1.05,0,0,0,.84-.31,1.17,1.17,0,0,0,.25-.77,1,1,0,0,0-.31-.82,1.12,1.12,0,0,0-.74-.28,1,1,0,0,0-1.06,1H34.15a2.59,2.59,0,0,1,.22-1,2.3,2.3,0,0,1,1.39-1.25,3.12,3.12,0,0,1,1-.17,3,3,0,0,1,1,.18,2.41,2.41,0,0,1,.83.51,2.26,2.26,0,0,1,.55.78,2.46,2.46,0,0,1,.19,1A2,2,0,0,1,39.12,43a2.1,2.1,0,0,1-.71.65,2,2,0,0,1,1.11,2A2.68,2.68,0,0,1,39.3,46.72Z"/><path class="cls-6" d="M47.34,44.71a5.53,5.53,0,0,1-.07.92,3.69,3.69,0,0,1-.25.86,2.44,2.44,0,0,1-.55.77,2.52,2.52,0,0,1-1,.62,4,4,0,0,1-1.26.2H41.1v-8.6h3.11a4,4,0,0,1,1.26.2,2.54,2.54,0,0,1,1,.63,2.41,2.41,0,0,1,.55.76,3.32,3.32,0,0,1,.25.83,5.29,5.29,0,0,1,.07.9v1.91Zm-1.69-1.8a5.23,5.23,0,0,0,0-.62,2.11,2.11,0,0,0-.11-.45,1.38,1.38,0,0,0-.2-.33,1.42,1.42,0,0,0-.51-.4,2,2,0,0,0-.74-.13H42.78v5.6h1.27a1.85,1.85,0,0,0,.74-.13,1.32,1.32,0,0,0,.51-.4,1.5,1.5,0,0,0,.3-.81,13.29,13.29,0,0,0,.07-1.49C45.67,43.42,45.66,43.14,45.65,42.91Z"/></g></g></svg>
