<svg
   xmlns="http://www.w3.org/2000/svg"
   viewBox="0 0 200 110"
   width ="200"
   height="110">
  <defs>
    <style>
      .cls-1{fill:#fff}.cls-1,.cls-2,.cls-3,.cls-4,.cls-7{stroke:#949494;stroke-miterlimit:10}.cls-2{fill:#d6d6d6}.cls-3{fill:#e7e7e7}.cls-4{fill:#f4f4f4}.cls-7{fill:none}
    </style>
  </defs>
  <path
     d="M 40.680984,19.858141 121.85,13.47 l 6.48071,82.345371 -81.169005,6.388139 z"
     class="cls-1"
     style="fill:#ffffff;stroke:#949494;stroke-miterlimit:10" />
  <path
     d="M117.03 19.0431l4.2389 58.8476-71.794 5.1714-4.2389-58.8475z"
     class="cls-2"/>
  <path
     d="M45.7003 29.2649l17.2852-1.2451 3.8797 53.8604-17.2853 1.2451z"
     class="cls-3" />
  <path
     d="m 54.009956,34.826124 20.940013,-1.832012 3.747697,42.83637 -20.940013,1.832012 z"
     class="cls-4"
     style="fill:#f4f4f4;stroke:#949494;stroke-miterlimit:10" />
  <path
     d="M49.029 76.9965l71.6244-5.1592.4376 6.0742-71.6244 5.1593z"
     class="cls-4" />
  <path
     d="M49.2436 79.9809l71.6244-5.1593.222 3.082-71.6244 5.1593z"
     class="cls-2" />
  <path
     fill="#f4f4f4"
     d="M121.85 13.47l-52.91 3.8-6.53 72.26 65.34 5.9-5.9-81.96z" />
  <path
     fill="#e7e7e7"
     d="M63.04 82.59l58.75-4.23-4.31-59.85-48.97 3.53-5.47 60.55z" />
  <path
     d="M74.7321 3.185l81.09 7.3227-7.4288 82.2652-81.09-7.3227z"
     class="cls-1"/>
  <path
     d="M150.6922 14.7907l-5.3063 58.7609-71.6883-6.4737 5.3063-58.761z"
     class="cls-1"/>
  <path
     d="M74.93 53.77l71.65 6.96-1.16 12.54-71.72-6.19 1.23-13.31z"
     class="cls-3" />
  <path
     d="M95.72 14.61c-2.24-.22-3.5.62-3.65 2.19L88.06 58l45.76 4.45 4-41.15a2.61 2.61 0 0 0-2.12-2.76z"
     class="cls-3" />
  <path
     d="M137.69 22.66l-.09.87 4.58 11.3-56.91-5.53L92 18.47l.06-.58"
     class="cls-1" />
  <path
     d="M104.12 31l2.93-10.97.15-1.63m17.15 14.56l-.76-11.32.16-1.63"
     class="cls-7"/>
  <path
     d="M90.2 18.27a1.87 1.87 0 0 1 2-1.66l26.58 2.58m2.02.2l5.3.51"
     class="cls-7" />
  <path
     d="M97.9091 58.9076l2.3473-24.1563 13.2376 1.2863-2.3472 24.1563z"
     class="cls-4" />
  <path
     d="M111.1427 60.2043l2.3472-24.1562 13.2377 1.2863-2.3473 24.1562z"
     class="cls-4"/>
  <path
     d="M105.3176 37.9174l5.295.5145-.7717 7.9426-5.2951-.5145zm10.5807 1.0294l5.295.5145-.7717 7.9426-5.295-.5145z"
     class="cls-1" />
  <path
     d="M139.36 23.05a1.87 1.87 0 0 0-1.68-2l-9.6-.93"
     class="cls-7" />
  <path
     d="M74.32 60.08l71.65 6.96-.59 6.6-71.68-6.56.62-7z"
     class="cls-4"/>
  <path
     d="M74.05 62.85l71.65 6.97-.33 3.98-71.67-6.72.35-4.23z"
     class="cls-2" />
</svg>
