<svg xmlns="http://www.w3.org/2000/svg" width="52" height="13" viewBox="0 0 52 13">
<path fill="none" stroke="#BCBCBC" d="M6.5 1.168L8.105 4.42l3.589.521-2.597 2.532.613 3.574L6.5 9.359l-3.21 1.688.613-3.574-2.597-2.532 3.589-.521L6.5 1.168z"/>
<path fill="#F7F12D" stroke="#BCBCBC" d="M19.5 1.168l1.605 3.252 3.589.521-2.597 2.532.613 3.574-3.21-1.688-3.21 1.688.613-3.574-2.597-2.532 3.589-.521L19.5 1.168z"/>
<path fill="none" stroke="#999" d="M32.5 1.168l1.605 3.252 3.589.521-2.597 2.532.613 3.574-3.21-1.688-3.21 1.688.613-3.574-2.597-2.532 3.589-.521L32.5 1.168z"/>
<path fill="#E0DB29" stroke="#999" d="M45.5 1.168l1.605 3.252 3.589.521-2.597 2.532.613 3.574-3.21-1.688-3.21 1.688.613-3.574-2.597-2.532 3.589-.521L45.5 1.168z"/>
</svg>
