<svg xmlns="http://www.w3.org/2000/svg" width="52" height="13" viewBox="0 0 52 13">
<path fill="#6e6e6e" d="M12.779 5.1381H7.9882L6.5064.5653 5.0238 5.1381H.2l3.9079 2.8192-1.4887 4.5698 3.8872-2.8277 3.8864 2.8277-1.4895-4.5698zM6.5064 8.7274L4.1179 10.465l.9152-2.8093-2.3993-1.7313h2.9613l.9113-2.8092.9098 2.8092h2.9459L7.979 7.658l.9144 2.8062zM25.679 5.1381h-4.7908L19.4064.5653l-1.4826 4.5728H13.1l3.9079 2.8192-1.4887 4.5698 3.8872-2.8277 3.8864 2.8277-1.4895-4.5698zm-6.2726 3.5893l-2.3885 1.7375.9152-2.8093-2.3993-1.7313h2.9613l.9113-2.8092.9098 2.8092h2.9459L20.879 7.658l.9144 2.8062zM38.779 5.1381h-4.7908L32.5064.5653l-1.4826 4.5728H26.2l3.9079 2.8192-1.4887 4.5698 3.8872-2.8277 3.8864 2.8277-1.4895-4.5698zm-6.2726 3.5893l-2.3885 1.7375.9152-2.8093-2.3993-1.7313h2.9613l.9113-2.8092.9098 2.8092h2.9459L33.979 7.658l.9144 2.8062zM51.78 5.1381h-4.7908L45.5074.5653l-1.4826 4.5728H39.201l3.9079 2.8192-1.4887 4.5698 3.8872-2.8277 3.8864 2.8277-1.4895-4.5698zm-6.2726 3.5893l-2.3885 1.7375.9152-2.8093-2.3993-1.7313h2.9613l.9113-2.8092.9098 2.8092h2.9459L46.98 7.658l.9144 2.8062z"/>
<path fill="#f7f12d" d="M19.4064 8.7274l-2.3885 1.7375.9152-2.8093-2.3993-1.7313h2.9613l.9113-2.8092.9098 2.8092h2.9459L20.879 7.658l.9144 2.8062z"/>
<path fill="#e0db29" d="M45.5074 8.7274l-2.3885 1.7375.9152-2.8093-2.3993-1.7313h2.9613l.9113-2.8092.9098 2.8092h2.9459L46.98 7.658l.9144 2.8062z"/>
</svg>
