<svg xmlns="http://www.w3.org/2000/svg" width="135" height="16" viewBox="0 0 135 16">
<path fill="none" stroke="#5D5D5D" stroke-miterlimit="10" stroke-width=".952" d="M1.56 2.077h12v12h-12z"/>
<path fill="#5D5D5D" d="M3.8743 7.4456l3.1678 3.1678-1.0104 1.0104L2.8639 8.456z"/>
<path fill="#5D5D5D" d="M12.4866 5.1728l-6.3569 6.3568-1.0175-1.0175 6.3569-6.3568z"/>
<path fill="none" stroke="#5D5D5D" stroke-miterlimit="10" stroke-width=".952" d="M16.602 2.077h12v12h-12z"/>
<path fill="#9B9B9B" stroke="#5D5D5D" stroke-miterlimit="10" stroke-width=".952" d="M31.635 2.119h12v12h-12z"/>
<path fill="none" stroke="#5D5D5D" stroke-miterlimit="10" stroke-width=".952" d="M46.486 2.119h12v12h-12z"/>
<path fill="#5D5D5D" d="M48.8003 7.4868l3.1678 3.1678-1.0104 1.0104-3.1678-3.1678z"/>
<path fill="#5D5D5D" d="M57.4123 5.2135l-6.3568 6.3568-1.0176-1.0175 6.3569-6.3568z"/>
<path fill="none" stroke="#5D5D5D" stroke-miterlimit="10" stroke-width=".952" d="M61.504 2.119h12v12h-12z"/>
<path fill="#9B9B9B" stroke="#5D5D5D" stroke-miterlimit="10" stroke-width=".952" d="M76.537 2.119h12v12h-12z"/>
<path fill="none" stroke="#9B9B9B" stroke-miterlimit="10" stroke-width=".952" d="M91.458 2.119h12v12h-12z"/>
<path fill="#E0E0E0" d="M93.771 7.4864l3.1678 3.1678-1.0104 1.0104-3.1678-3.1678z"/>
<path fill="#E0E0E0" d="M102.3855 5.2145L96.028 11.572l-1.0176-1.0175 6.3576-6.3576z"/>
<path fill="none" stroke="#9B9B9B" stroke-miterlimit="10" stroke-width=".952" d="M106.5 2.119h12v12h-12z"/>
<path fill="#E5E5E5" stroke="#9B9B9B" stroke-miterlimit="10" stroke-width=".952" d="M121.533 2.119h12v12h-12z"/>
</svg>
