<svg xmlns="http://www.w3.org/2000/svg" width="200" height="110"><defs><style>.cls-1{fill:#fff}.cls-1,.cls-2,.cls-3,.cls-4,.cls-7{stroke:#949494;stroke-miterlimit:10}.cls-2{fill:#d6d6d6}.cls-3{fill:#e7e7e7}.cls-4{fill:#f4f4f4}.cls-7{fill:none}</style></defs><path d="M40.681 19.858l81.169-6.388 6.48 82.345-81.168 6.389z" class="cls-1" fill="#fff" stroke="#949494" stroke-miterlimit="10"/><path d="M117.03 19.043l4.239 58.848-71.794 5.171-4.239-58.847z" class="cls-2"/><path d="M45.7 29.265l17.285-1.245 3.88 53.86-17.285 1.245z" class="cls-3"/><path d="M54.01 34.826l20.94-1.832 3.748 42.836-20.94 1.832z" class="cls-4" fill="#f4f4f4" stroke="#949494" stroke-miterlimit="10"/><path d="M49.029 76.996l71.624-5.159.438 6.074-71.624 5.16z" class="cls-4"/><path d="M49.244 79.98l71.624-5.158.222 3.082-71.624 5.159z" class="cls-2"/><path fill="#f4f4f4" d="M121.85 13.47l-52.91 3.8-6.53 72.26 65.34 5.9-5.9-81.96z"/><path fill="#e7e7e7" d="M63.04 82.59l58.75-4.23-4.31-59.85-48.97 3.53-5.47 60.55z"/><path d="M74.732 3.185l81.09 7.323-7.429 82.265-81.09-7.323z" class="cls-1"/><path d="M150.692 14.79l-5.306 58.762-71.688-6.474 5.306-58.761z" class="cls-1"/><path d="M74.93 53.77l71.65 6.96-1.16 12.54-71.72-6.19 1.23-13.31z" class="cls-3"/><path d="M95.72 14.61c-2.24-.22-3.5.62-3.65 2.19L88.06 58l45.76 4.45 4-41.15a2.61 2.61 0 00-2.12-2.76z" class="cls-3"/><path d="M137.69 22.66l-.09.87 4.58 11.3-56.91-5.53L92 18.47l.06-.58" class="cls-1"/><path d="M104.12 31l2.93-10.97.15-1.63m17.15 14.56l-.76-11.32.16-1.63" class="cls-7"/><path d="M90.2 18.27a1.87 1.87 0 012-1.66l26.58 2.58m2.02.2l5.3.51" class="cls-7"/><path d="M97.91 58.908l2.346-24.157 13.238 1.287-2.347 24.156z" class="cls-4"/><path d="M111.143 60.204l2.347-24.156 13.238 1.286-2.348 24.157z" class="cls-4"/><path d="M105.318 37.917l5.295.515-.772 7.942-5.295-.514zm10.58 1.03l5.295.514-.771 7.943-5.295-.515z" class="cls-1"/><path d="M139.36 23.05a1.87 1.87 0 00-1.68-2l-9.6-.93" class="cls-7"/><path d="M74.32 60.08l71.65 6.96-.59 6.6-71.68-6.56.62-7z" class="cls-4"/><path d="M74.05 62.85l71.65 6.97-.33 3.98-71.67-6.72.35-4.23z" class="cls-2"/></svg>