<svg xmlns="http://www.w3.org/2000/svg" viewBox="0 0 32 32" width="32px" height="32px">
  <path d="M29 7c0 1.1-.9 2-2 2s-2-.9-2-2 .9-2 2-2 2 .9 2 2zm1 18.5C30 23 23.7 21 16 21S2 23 2 25.5c0 2.1 4.7 4 11 4.5v-1c-6.1-.5-10-2.3-10-3.5C3 24.1 8.2 22 16 22s13 2.2 13 3.5c0 1.1-3.1 2.6-8 3.3V27l-4 2.5 4 2.5v-2.2c5.3-.7 9-2.4 9-4.3zm2-6.5l-.9-.3C22.3 16 7.7 16.4 0 19V0c4.5 1.6 11 2.1 16 2.1S27.5 1.6 32 0v19zM31 1.2C26.1 2.4 21.1 3 16 3S5.9 2.4 1 1.2v16.4c.3-.1.6-.2.9-.2l8.6-8.1 2 1.5L16 7.4l4 5 3-3 6.9 8c.4.1.8.2 1.1.3V1.2z" fill="#fff"/>
</svg>