<svg xmlns="http://www.w3.org/2000/svg" viewBox="0 0 64 64"><defs><style>.cls-1{isolation:isolate;}.cls-2{fill:#f2f4f5;}.cls-3{fill:#0a7be0;}.cls-4{fill:#53baf9;}.cls-5,.cls-6{fill:#a2a2ba;}.cls-6{mix-blend-mode:multiply;}.cls-7{fill:#fff;}.cls-8{fill:#cdeaf9;}</style></defs><title>【icon】插件管理-导出</title><g class="cls-1"><g id="图层_1" data-name="图层 1"><circle class="cls-2" cx="32" cy="32" r="32"/><path class="cls-3" d="M25.27,44.24l6.49-11H43.07V13.26A2.26,2.26,0,0,0,40.82,11H13.93a2.46,2.46,0,0,0-2.46,2.46V44.12a3.5,3.5,0,0,0,3.5,3.5H27.26Z"/><path class="cls-4" d="M25.27,44.24l1.18-2H14.16a2.7,2.7,0,0,0-2.69,2.69h0a2.7,2.7,0,0,0,2.69,2.69h13.1Z"/><polygon class="cls-5" points="33.11 53 27.96 44.24 33.11 35.47 51 35.47 51 53 33.11 53"/><polygon class="cls-6" points="33.11 53 27.96 44.24 51 44.17 51 53 33.11 53"/><path class="cls-7" d="M40.52,48.9a7.21,7.21,0,0,1-1.45-1.52,6,6,0,0,1-1-2.17c0-.19-.11-1-.12-1.31,0-.14,0-.76.07-.95a7,7,0,0,1,2-4.1l.24-.21a.9.9,0,0,0,.39-.71,6,6,0,0,0,.36.72,4.07,4.07,0,0,0,.52.58A7.44,7.44,0,0,1,43.48,43a5.42,5.42,0,0,1,.07,1.56,6.11,6.11,0,0,1-.34,1.58,5.65,5.65,0,0,1-2,2.66.27.27,0,0,1-.2-.16,2.49,2.49,0,0,1-.25-1.15c0,.17,0,.37-.07.57s-.06.4-.1.6S40.62,48.84,40.52,48.9Z"/><path class="cls-7" d="M40.52,48.9c.1-.06.09-.16.11-.25s.07-.4.1-.6,0-.4.07-.57a2.49,2.49,0,0,0,.25,1.15.27.27,0,0,0,.2.16,1,1,0,0,0-.2.61,6.76,6.76,0,0,0,0,.9c0,.09,0,.12-.12.09s-.22,0-.22-.27A4.15,4.15,0,0,0,40.52,48.9Z"/><polygon class="cls-2" points="27.84 21.57 27.84 17.47 26.32 17.47 26.32 21.57 16.67 21.57 16.67 27.8 18.19 27.8 18.19 23.09 35.96 23.09 35.96 27.8 37.48 27.8 37.48 21.57 27.84 21.57"/><rect class="cls-8" x="23.24" y="14" width="7.61" height="5.39" rx="1.06"/><rect class="cls-8" x="13.63" y="25.1" width="7.61" height="5.39" rx="1.06"/><rect class="cls-8" x="32.91" y="25.1" width="7.61" height="5.39" rx="1.06"/></g></g></svg>
