<?xml version="1.0" standalone="no"?><!DOCTYPE svg PUBLIC "-//W3C//DTD SVG 1.1//EN" "http://www.w3.org/Graphics/SVG/1.1/DTD/svg11.dtd"><svg class="icon" width="200px" height="200.00px" viewBox="0 0 1024 1024" version="1.1" xmlns="http://www.w3.org/2000/svg"><path d="M511.5 957.9C264.9 957.9 65 758.2 65 511.9s199.9-446 446.5-446S958 265.6 958 511.9c0.1 246.3-199.8 446-446.5 446zM509 149.1c-200.4 0-355.8 162.2-355.8 362.3 0 200.1 155.4 356.8 355.8 356.8s362.9-156.7 362.9-356.8c0-200.1-162.5-362.3-362.9-362.3zM690.5 556h-134v133.8c0 24.6-20 44.6-44.6 44.6h-0.1c-24.6 0-44.6-19.9-44.6-44.6V556h-134c-24.7 0-44.6-19.9-44.6-44.5v-0.1c0-24.6 20-44.6 44.6-44.6h134V333c0-24.6 20-44.6 44.6-44.6h0.1c24.7 0 44.6 19.9 44.6 44.6v133.8h134c24.7 0 44.6 19.9 44.6 44.6v0.1c0 24.6-19.9 44.5-44.6 44.5z m0 0" /></svg>