<svg width="20" height="20" viewBox="0 0 20 20" xmlns="http://www.w3.org/2000/svg">
<path fill-rule="evenodd" clip-rule="evenodd" d="M8.33342 2.30014V1.66667C8.33342 1.43655 8.51996 1.25 8.75008 1.25H11.2501C11.4802 1.25 11.6667 1.43655 11.6667 1.66667V2.30014C14.5421 3.06408 16.6667 5.75845 16.6667 8.96505V13.75H17.9167C18.1469 13.75 18.3334 13.9365 18.3334 14.1667V15C18.3334 15.2301 18.1469 15.4167 17.9167 15.4167H2.08341C1.8533 15.4167 1.66675 15.2301 1.66675 15V14.1667C1.66675 13.9365 1.8533 13.75 2.08341 13.75H3.33341V8.96505C3.33341 5.75845 5.45804 3.06408 8.33342 2.30014ZM5.00008 13.75H15.0001V8.96739C15.0001 6.08591 12.7615 3.75 10.0001 3.75C7.23866 3.75 5.00008 6.08591 5.00008 8.96739V13.75ZM7.91675 16.6667H12.0834C12.3135 16.6667 12.5001 16.8532 12.5001 17.0833V17.9167C12.5001 18.1468 12.3135 18.3333 12.0834 18.3333H7.91675C7.68663 18.3333 7.50008 18.1468 7.50008 17.9167V17.0833C7.50008 16.8532 7.68663 16.6667 7.91675 16.6667Z"/>
</svg>
