<svg width="24" height="24" viewBox="0 0 24 24" fill="none" xmlns="http://www.w3.org/2000/svg">
<path fill-rule="evenodd" clip-rule="evenodd" d="M14.1289 17.5005V21.7435H15.1706V19.7935L15.3855 19.7975V21.7435H16.4389V17.5006H15.3855V19.0748H15.1706V17.5006L14.1289 17.5005Z" fill="black"/>
<path fill-rule="evenodd" clip-rule="evenodd" d="M14.0723 17.444L15.2268 17.444V19.0183H15.3288V17.444H16.4951V21.7998H15.3288V19.8527L15.2268 19.8508V21.7998H14.0723V17.444ZM14.1851 17.5569V21.6869H15.1139V19.7359L15.4417 19.742V21.687H16.3823V17.5569H15.4417V19.1311H15.1139V17.5569L14.1851 17.5569Z" fill="#FDEE21"/>
<path fill-rule="evenodd" clip-rule="evenodd" d="M17.7373 17.5005H16.7227V21.7435H17.7373V17.5005Z" fill="black"/>
<path fill-rule="evenodd" clip-rule="evenodd" d="M16.6621 17.444H17.7895V21.7997H16.6621V17.444ZM16.7749 17.5568V21.6869H17.6767V17.5568H16.7749Z" fill="#FDEE21"/>
<path fill-rule="evenodd" clip-rule="evenodd" d="M17.9023 17.5006L18.7038 21.7435H19.9135L20.715 17.5006H19.638L19.3725 19.316C19.3504 19.3856 19.2757 19.3856 19.2623 19.316L18.997 17.5005L17.9023 17.5006Z" fill="black"/>
<path fill-rule="evenodd" clip-rule="evenodd" d="M19.0455 17.4439L19.3171 19.3025C19.3172 19.3025 19.3172 19.3024 19.3172 19.3023L19.589 17.444H20.7828L19.96 21.7997H18.6568L17.834 17.444L19.0455 17.4439ZM17.9701 17.5568L18.7503 21.6869H19.8665L20.6466 17.5568H19.6865L19.4274 19.3286L19.426 19.333C19.4095 19.3848 19.3676 19.4244 19.3139 19.4244C19.2576 19.4244 19.2172 19.3814 19.2066 19.3265L19.2064 19.3253L18.948 17.5567L17.9701 17.5568Z" fill="#FDEE21"/>
<path fill-rule="evenodd" clip-rule="evenodd" d="M22.9436 17.5005H20.9297V21.7435H22.9436V20.6309L21.8238 20.6213L21.8238 20.1444H22.3573V19.0398H21.8238L21.8238 18.6131H22.9436V17.5005Z" fill="black"/>
<path fill-rule="evenodd" clip-rule="evenodd" d="M20.8711 17.444H22.9979V18.6693H21.8781L21.8781 18.9833H22.4115V20.2006H21.8781L21.8781 20.5652L22.9979 20.5748V21.7997H20.8711V17.444ZM20.9839 17.5568V21.6869H22.885V20.6867L21.7652 20.6771L21.7652 20.0878H22.2987V19.0961H21.7652L21.7652 18.5565H22.885V17.5568H20.9839Z" fill="#FDEE21"/>
<path fill-rule="evenodd" clip-rule="evenodd" d="M12.0646 4.63333C11.895 4.16878 6.06011 1.90036 5.98552 2.14941C4.91407 2.42871 4.47801 3.66365 3.74097 4.44588L2.10425 4.35213C1.38325 5.2793 1.00492 6.2266 1.26253 7.21117C2.18662 8.46317 3.25935 9.52854 3.92796 11.1012C3.98081 11.8424 7.13616 11.1789 7.81247 11.0322C6.8886 11.6935 6.08404 12.7186 6.42979 15.6709C6.74542 17.0573 6.96131 18.6052 9.76075 20.1732C10.1293 20.3796 10.8918 20.6178 11.3633 20.7914C11.8142 20.9982 12.3415 21.0832 13.8289 20.6283C14.6897 20.2573 15.619 20.0338 16.4614 19.6637L15.4489 19.7112C14.0547 19.7415 12.9784 19.8455 12.6464 19.456L11.3633 17.2409L12.1114 15.788C13.1466 15.8941 13.4903 16.7337 14.4028 17.0534L15.4783 16.2566C18.6022 18.1007 19.8451 15.0879 20.2013 12.7415C20.1633 11.7869 18.1342 13.041 18.2572 12.5946C18.3049 11.5684 17.4684 10.2257 16.9279 9.17958L17.5534 6.75925C17.8372 6.50645 16.2395 3.81418 14.9348 3.47845C13.7901 3.18383 12.0646 4.63333 12.0646 4.63333L12.0646 4.63333Z" fill="#FDEE21"/>
<path fill-rule="evenodd" clip-rule="evenodd" d="M17.1968 9.7773C17.208 10.0373 17.2068 10.3534 17.2319 10.5506C17.2276 10.7011 17.1148 10.7066 17.0215 10.7381L17.6294 10.9607C17.7501 11.1638 17.8471 11.3669 17.945 11.57C18.0587 12.0696 17.9739 12.0839 17.8983 12.1207C17.6777 12.123 17.4577 12.1234 17.2524 12.0797C17.3444 12.1283 17.3646 12.1637 17.3743 12.2259C17.3923 12.3405 17.3184 12.4971 17.1968 12.648C17.3766 12.7478 17.7044 12.8454 17.948 12.938L18.2256 12.3199C18.0999 11.4119 17.7186 10.5751 17.1968 9.7773Z" fill="#C8C037"/>
<path fill-rule="evenodd" clip-rule="evenodd" d="M18.332 12.823C18.6692 12.9635 19.135 12.9223 19.7808 12.5895C19.8768 12.5212 19.9663 12.562 19.7944 12.6743C18.9474 13.4344 18.5419 13.0542 18.332 12.823Z" fill="#C8C037"/>
<path fill-rule="evenodd" clip-rule="evenodd" d="M19.8478 12.4899C19.948 12.6816 19.8873 12.8376 19.8537 12.9996C19.7491 13.8235 19.4923 14.4749 18.9886 15.1555C17.35 17.7899 15.6957 16.1416 14.3767 15.0687L13.8311 16.4358C13.8022 16.5556 13.6817 16.649 14.5338 17.0241L15.4018 16.411C18.712 18.9297 21.0578 12.8855 19.8477 12.4899L19.8478 12.4899Z" fill="#C8C037"/>
<path fill-rule="evenodd" clip-rule="evenodd" d="M14.775 14.844C14.5517 14.8599 13.887 15.0859 13.8574 15.2168L14.1633 14.7611L14.775 14.844Z" fill="#C8C037"/>
<path fill-rule="evenodd" clip-rule="evenodd" d="M14.3418 12.0504C14.3827 12.0504 14.5791 12.1032 14.5581 12.0914C14.5279 12.0747 14.5547 12.3669 14.6165 12.5191L14.3769 13.0406C14.8359 12.5111 15.5618 12.5464 16.2356 12.4781L15.9142 12.2789C15.97 12.0927 15.9043 11.9453 15.8733 11.7868L14.3418 12.0504Z" fill="#C8C037"/>
<path fill-rule="evenodd" clip-rule="evenodd" d="M15.468 10.4804C14.9755 10.6314 14.504 10.8781 14.1875 11.4039C14.429 10.5372 14.4782 10.5701 14.5562 10.5273C14.8939 10.3763 15.1705 10.4704 15.468 10.4804Z" fill="#C8C037"/>
<path fill-rule="evenodd" clip-rule="evenodd" d="M12.8408 20.6392C12.2452 21.2963 10.9164 20.5894 9.8128 20.2291C7.00854 18.4459 6.46072 16.7672 6.42266 15.1204C6.27847 12.7615 7.00282 11.3908 7.91904 11.0663C7.31266 12.2352 7.02997 14.3334 7.31113 15.8938C7.53807 16.7618 7.54277 18.2259 8.9952 19.0096C9.70642 19.4099 9.51378 19.7217 9.99473 20.0967C10.5218 20.5076 11.9913 20.8983 12.8408 20.6392L12.8408 20.6392Z" fill="#FCF6A0"/>
<path fill-rule="evenodd" clip-rule="evenodd" d="M13.7309 9.73731C12.7226 8.30744 11.3044 7.7707 9.70514 7.71205C10.0257 7.60757 10.3462 7.55316 10.6667 7.39862C10.7452 7.31615 10.7195 7.17104 10.6901 7.02368C9.15065 6.62172 8.17908 6.12493 6.94922 5.66443L10.2694 6.4612C12.5115 6.54639 12.319 7.09993 13.731 9.73738L13.7309 9.73731Z" fill="#FCF6A0"/>
<path fill-rule="evenodd" clip-rule="evenodd" d="M14.8096 9.04782C14.0644 7.98407 13.3417 6.69305 12.3607 5.87197C9.99248 4.80307 7.64981 4.00922 4.9043 3.28684L5.78053 2.16003C8.69391 2.82506 11.4304 3.9379 13.8815 5.77239C14.2962 6.82096 14.5728 7.87092 14.8094 9.04769L14.8096 9.04782Z" fill="#FCF6A0"/>
<path fill-rule="evenodd" clip-rule="evenodd" d="M16.3116 7.16812C16.3116 7.16812 15.8938 6.2309 15.6904 5.873C15.2186 5.35013 14.98 4.37574 14.0137 3.91663C14.3193 3.99916 14.5285 3.90082 15.1524 4.46648L16.1352 6.33072L16.3116 7.16812Z" fill="#FCF6A0"/>
<path fill-rule="evenodd" clip-rule="evenodd" d="M16.8306 8.79174C16.9269 7.97972 17.1099 6.67722 16.8999 6.16261C16.3158 5.37885 15.7275 4.56872 15.139 3.81664C15.0415 3.72593 14.9713 3.60282 14.8945 3.50677C15.722 3.72115 16.5855 4.29648 17.75 6.56778L16.8306 8.79174Z" fill="#FCF6A0"/>
<path fill-rule="evenodd" clip-rule="evenodd" d="M13.3512 8.88783C13.0216 8.62844 12.7279 7.71099 12.2285 7.52024C11.7662 7.48157 11.5967 7.33613 10.9889 7.45999C11.2093 7.34952 11.4175 7.20817 11.6518 7.1325C11.8106 7.09503 11.9595 7.13655 12.1109 7.15744C12.1483 7.13976 12.1729 7.11777 12.1637 7.08454C11.5518 6.70641 10.2966 6.70102 9.44922 6.48517C10.4326 6.51809 11.5208 6.46357 12.2599 6.70059C12.8542 7.22802 13.0472 8.22128 13.3512 8.88783Z" fill="black"/>
<path fill-rule="evenodd" clip-rule="evenodd" d="M15.1523 4.46356C15.2888 4.47596 16.023 5.63739 16.0575 5.83064C16.1186 6.25311 16.2692 6.7267 16.3096 7.16873C16.1887 6.74479 16.0569 6.32087 15.8922 5.89693C15.844 5.78019 15.7223 5.51627 15.3838 5.14298C15.2262 4.87987 15.1922 4.67306 15.1524 4.46358L15.1523 4.46356Z" fill="black"/>
<path fill-rule="evenodd" clip-rule="evenodd" d="M17.6403 10.7894H17.3262L17.6734 10.8805L17.6403 10.7894Z" fill="black"/>
<path fill-rule="evenodd" clip-rule="evenodd" d="M15.4994 10.4756C15.1835 10.4368 14.8594 10.4316 14.5435 10.5011C14.4147 10.674 14.4059 10.8499 14.3496 11.0125C14.7336 10.5893 14.886 10.5634 15.4994 10.4756Z" fill="black"/>
<path fill-rule="evenodd" clip-rule="evenodd" d="M19.805 12.66C19.6292 12.8003 19.6117 12.9323 19.0919 13.0906C18.7129 13.1802 18.4987 13.0283 18.3203 12.824C18.5908 12.9015 18.634 13.1058 19.3593 12.8767L19.805 12.66Z" fill="black"/>
<path fill-rule="evenodd" clip-rule="evenodd" d="M18.2309 12.7477C18.1043 13.0956 17.968 13.4471 17.8305 13.7729C17.503 14.1569 17.6426 13.9381 17.1524 14.5345C17.3092 14.2926 17.5132 14.0601 17.62 13.8081C17.695 13.6421 17.7884 13.4661 17.8297 13.3187C17.6998 13.2538 17.4337 13.2486 17.3977 13.2719C16.9619 13.529 16.8832 13.801 16.6263 14.0659C16.8125 13.7682 16.9716 13.4433 17.1875 13.1753C17.2121 13.1406 17.3719 13.1338 17.4701 13.1133C17.3175 13.0871 17.0348 13.0323 17.0121 13.0347C16.7278 13.1031 16.5685 13.3507 16.3574 13.5152C16.5113 13.293 16.653 13.0617 16.8484 12.8707C16.8677 12.8482 17.3959 12.8945 17.6696 13.0037L17.675 13.1126L17.8304 13.1753L17.9473 12.8824L18.2309 12.7477Z" fill="black"/>
<path fill-rule="evenodd" clip-rule="evenodd" d="M14.7813 14.845C14.7112 14.8211 14.0916 14.7414 14.0916 14.7601C13.8537 14.9294 13.8176 15.0914 13.8227 15.2317C14.2185 14.8423 14.2037 14.8412 14.7813 14.845Z" fill="black"/>
<path fill-rule="evenodd" clip-rule="evenodd" d="M14.3125 12.0447C14.3125 12.0447 14.7596 11.9795 14.7509 12.0213C14.7185 12.1764 14.8056 12.5544 14.8152 12.5017L14.5639 12.7067C15.0903 12.4421 15.6444 12.4953 16.2064 12.4548C16.2064 12.4548 15.7332 12.3242 15.7621 12.3201C15.8677 12.3051 15.734 11.8266 15.6978 11.8162C15.7879 11.7858 15.8758 11.7628 15.9667 11.7401C15.2901 11.563 14.8988 11.6673 14.3125 12.0447L14.3125 12.0447Z" fill="black"/>
<path fill-rule="evenodd" clip-rule="evenodd" d="M18.1832 12.3786L18.0838 12.4284C18.0697 12.1373 17.7571 12.1586 17.4934 12.1559L17.2772 12.1032C17.3429 12.1641 17.5462 12.1593 17.4642 12.2907C17.3952 12.3276 17.3635 12.4858 17.3239 12.6188L17.207 12.6246C17.4135 12.7053 17.6051 12.7761 17.8325 12.8707L17.9669 12.8912L18.2884 12.7184L18.1832 12.3786Z" fill="black"/>
<path fill-rule="evenodd" clip-rule="evenodd" d="M15.2165 12.1822C15.1662 12.0826 14.9131 12.0968 14.8585 12.1612C14.8141 12.2135 14.8557 12.5493 14.9126 12.4927C14.9948 12.4204 15.1022 12.3902 15.2312 12.396C15.2474 12.334 15.2417 12.267 15.2165 12.1822Z" fill="white"/>
<path fill-rule="evenodd" clip-rule="evenodd" d="M17.6462 12.6825C17.67 12.6651 17.7203 12.4968 17.7041 12.4464C17.6708 12.3275 17.4354 12.3525 17.4354 12.3525C17.378 12.3863 17.3276 12.5717 17.3486 12.6328C17.3586 12.6846 17.6084 12.7011 17.6462 12.6825Z" fill="white"/>
<path fill-rule="evenodd" clip-rule="evenodd" d="M7.58008 18.4916L7.7288 18.5061C8.6104 18.939 10.062 19.5808 12.1636 19.2359L12.4933 19.7548C11.5678 20.2045 10.5723 20.101 9.63954 20.1326L7.58008 18.4916Z" fill="black"/>
<path fill-rule="evenodd" clip-rule="evenodd" d="M6.31445 15.0697L6.75608 16.9237C7.93842 17.6627 9.95812 18.5093 11.6416 18.441L11.2696 17.5873C7.75537 16.841 7.45813 15.8976 6.31452 15.0695L6.31445 15.0697Z" fill="black"/>
<path fill-rule="evenodd" clip-rule="evenodd" d="M7.41368 11.272C7.62952 12.7087 7.91766 13.798 9.16694 14.7104C9.93267 15.261 10.6927 15.8094 11.6172 16.262C11.6172 16.262 11.5362 16.6837 11.4684 16.6762C8.71717 16.3706 6.70298 14.0893 6.45898 13.0474C6.6953 12.2481 7.03429 11.7488 7.41359 11.272H7.41368Z" fill="black"/>
<path fill-rule="evenodd" clip-rule="evenodd" d="M8.73443 10.4578C9.10106 12.0502 9.97522 13.663 10.8441 15.126C11.1626 15.5302 11.246 15.7085 11.7369 15.9546C12.4004 16.1647 12.8696 16.111 13.3512 16.0794C13.2193 15.8352 13.102 15.5799 12.9504 15.3503C11.872 14.4975 12.3704 13.7209 12.6569 13.2293C12.0572 13.0778 11.2627 12.7557 11.1532 12.3321C10.9772 10.9621 11.0666 10.5275 11.2427 9.82379C10.4307 9.99501 9.60784 10.1647 8.73438 10.4579L8.73443 10.4578Z" fill="black"/>
<path fill-rule="evenodd" clip-rule="evenodd" d="M5.75608 2C5.48918 2.17435 5.23206 2.42365 4.95544 2.707C4.49687 3.18168 4.19202 3.64471 3.72525 3.98799C3.63189 4.06849 3.36991 4.19813 3.04055 4.21736C2.8854 4.2251 2.78433 4.25078 2.49924 4.21498C2.24781 4.07884 2.00895 4.16737 1.77582 4.44621C1.52019 4.81383 1.19645 5.51188 1.06182 5.9513C0.784366 7.07197 1.49174 7.99531 2.1701 8.70694C2.77357 9.29648 3.1215 9.66491 3.36927 10.2054C3.55687 10.5559 3.69585 11.037 3.84632 11.3743C3.90058 11.4812 3.8893 11.4807 4.03534 11.5129C4.35068 11.5802 4.7881 11.5807 5.17752 11.6142C5.34601 11.6165 5.57739 11.6103 5.79663 11.5874C6.09873 11.5304 6.45365 11.4745 6.75113 11.3716C7.04183 11.3 7.30082 11.2009 7.5343 11.1096C7.50419 11.2118 7.28177 11.3102 7.19839 11.4397C6.40701 12.5725 6.19023 13.5806 6.328 15.1711C6.40594 15.876 6.56773 16.4604 6.81185 17.1291C6.92356 17.4351 7.16127 17.9197 7.38907 18.2416C8.06648 19.1988 9.58196 20.4279 11.6916 20.9011C12.0597 20.9514 12.4774 20.9245 12.8702 20.8199C13.9114 20.5043 16.0335 19.7578 16.0335 19.7578C16.0335 19.7578 14.1498 19.9136 13.2871 19.8283C13.0874 19.7971 12.8673 19.7865 12.7282 19.6504C12.7049 19.6203 12.6201 19.4495 12.6748 19.448C12.7495 19.4459 12.964 19.3569 13.2951 19.3274C12.5882 19.2513 12.5983 19.2522 12.5467 19.1234C12.4664 18.9235 12.3436 18.6503 12.2172 18.4113C12.5278 18.4375 13.2155 18.4761 13.4489 18.2352C13.4489 18.2352 13.0419 18.2822 12.6823 18.24C12.5611 18.2258 12.3547 18.1521 12.2926 18.1294C12.1312 18.0665 11.9983 18.047 11.9673 18.006C11.9112 17.8633 11.8732 17.8153 11.8056 17.6241C11.7139 17.371 11.7067 17.0887 11.6892 16.8303C11.9245 17.1202 12.2242 17.3643 12.6211 17.489C12.6262 17.4783 13.1359 17.7106 13.5061 17.5911L13.5828 17.5664C13.5828 17.5732 13.3376 17.5878 13.2476 17.5433C12.4948 17.2233 12.3814 16.9432 12.2599 16.8041L11.9348 16.3172C12.0336 16.12 12.0896 16.1125 12.2205 16.1107C12.6168 16.1547 12.7892 16.1886 13.0303 16.1304C13.1933 16.4657 13.2373 16.803 13.6082 17.047C14.8439 17.4138 15.1124 16.9381 15.4117 16.5177C16.3008 17.1702 17.7482 17.3714 18.7534 16.5291C20.0314 15.0503 20.436 12.7191 20.3227 12.586C20.163 12.3153 19.9537 12.036 19.7738 12.0746C19.1329 12.2496 18.8966 12.5747 18.2616 12.5005C18.3372 12.4963 18.4644 12.4942 18.4654 12.487C18.5143 11.9493 18.4615 11.6891 18.4378 11.6444C18.2451 11.2194 17.9921 10.7722 17.8157 10.437C17.7702 10.3674 17.6367 9.83932 17.4129 9.63068C17.3169 9.54874 17.082 9.33266 17.082 9.33266L17.0621 9.56233C17.0621 9.56233 17.154 9.57619 17.1889 9.71847C17.3214 10.2579 17.9961 11.5332 18.0456 11.5943C18.2847 11.9804 18.0699 12.4612 18.2517 12.731C18.2691 12.7653 18.6225 12.728 18.8965 12.7448C19.3469 12.6479 19.3279 12.4494 19.717 12.4196C19.9791 12.3995 20.0054 12.8917 20.0019 12.9299C19.9531 13.4734 19.7877 14.1054 19.5347 14.6825C19.0086 15.6961 18.4194 16.6064 17.5838 16.7333C16.5646 16.9114 16.035 16.4659 15.4825 16.1821L15.2711 16.3624C14.5531 17.0774 13.7005 17.0139 13.3518 16.0796C13.1782 15.7172 12.952 15.4951 12.7583 15.1842L11.7311 15.924C11.6456 16.0994 11.5404 16.3759 11.4127 16.6848C11.3239 16.8996 11.2495 17.2684 11.2543 17.5749C11.1227 17.7992 11.7104 18.7089 12.0818 19.2622C12.1914 19.4255 12.3959 19.7107 12.4028 19.7285C12.4764 19.9195 12.6377 20.0882 12.6475 20.1087C13.337 21.008 11.7778 20.8009 11.4558 20.7466C10.8205 20.6453 10.1991 20.38 9.61495 20.0251C9.58105 20.0045 9.54728 19.9836 9.51364 19.9625C8.81948 19.5254 8.18079 18.9662 7.63774 18.4131C7.31393 18.0464 7.0056 17.2948 6.77787 16.762C6.43657 15.481 5.94676 13.2605 7.2736 11.5779C7.35771 11.4817 7.44846 11.3216 7.52573 11.2899C7.91995 11.0233 8.34802 10.8415 8.80835 10.7406L8.76188 10.4422C8.53199 10.4944 7.7579 10.7776 7.53904 10.8961C7.04131 11.0404 6.62846 11.191 5.99412 11.3498C5.78792 11.3751 5.58508 11.3755 5.38736 11.3487C4.93103 11.2867 4.15323 11.3421 4.10362 11.296C3.79463 10.8651 3.71004 10.093 3.42812 9.67986L3.42479 9.67574L3.42122 9.67182C3.25687 9.45092 3.06531 9.27074 2.87665 9.08329C2.20104 8.41203 1.62279 7.763 1.46092 7.07525C1.42022 6.87218 1.31541 6.66185 1.37112 6.061L1.37214 6.05806L1.37312 6.05512C1.53567 5.4938 1.8001 5.03625 2.2489 4.57768C2.71593 4.58522 3.17822 4.59548 3.53831 4.66426C3.70352 4.6919 4.04706 4.73678 4.4019 4.86896C5.30003 5.20353 6.48672 5.7536 6.48672 5.7536C5.59594 5.26439 4.59989 4.62902 3.9709 4.5008C3.87731 4.48755 3.8198 4.44486 3.792 4.37033C4.73803 3.81449 4.91109 3.16007 5.53332 2.57315C5.81769 2.44937 5.92857 2.38618 6.17019 2.35992C8.40484 2.71326 9.81158 3.60331 10.9244 4.19846C11.3761 4.44408 11.7866 4.62982 12.1788 4.8535C12.5225 4.96657 13.5598 5.74969 13.8634 6.17192C14.1718 6.82304 14.3969 7.52637 14.6023 8.20506C14.7495 8.89534 14.8787 9.17535 14.8787 9.17535C14.8787 9.17535 14.7536 8.59797 14.7744 8.49424C14.9042 8.54272 15.2109 8.63851 15.3381 8.62363C15.3381 8.62363 14.7701 8.33 14.6957 8.0705C14.4568 7.23782 14.2173 5.94156 14.1527 5.87398C13.9706 5.64492 13.2115 5.06399 12.7459 4.79526C12.5698 4.69361 12.4746 4.63055 12.4671 4.58586C12.6159 4.43559 12.7996 4.23681 12.9643 4.11051C13.1222 3.98943 13.266 3.8529 13.486 3.77118C14.4533 3.33556 15.0063 3.93878 15.1376 3.81663C15.1376 3.81663 14.9295 3.57812 15.0219 3.61738C15.1165 3.66865 15.425 3.72911 15.4589 3.76059C15.8114 4.03635 16.733 5.04422 17.2885 6.10767C17.4219 6.36816 17.4761 6.53968 17.4143 6.85335C17.3522 7.1673 17.3042 7.33995 17.2366 7.54962C17.1754 7.68979 16.8296 8.64941 16.8309 8.77833C16.7613 9.30486 17.0567 9.96404 17.0567 9.96404C17.0595 9.78511 17.0457 9.68977 17.062 9.56181L17.0818 9.33315C17.0818 9.33315 17.0692 9.27233 17.0715 9.24823C17.0865 9.09012 17.1253 8.95718 17.1367 8.86662C17.2478 8.17898 17.4408 7.68395 17.6598 7.08053C17.7248 6.92825 17.81 6.84356 17.8056 6.72761C17.8092 6.52186 17.6251 6.2457 17.4921 5.97599C17.3579 5.7034 17.1975 5.39952 16.9869 5.07923C16.5069 4.38892 16.0977 3.84882 15.3483 3.51079C15.1386 3.41878 14.3136 3.32882 14.0287 3.38228C13.683 3.45428 13.3858 3.52529 13.1489 3.67705C12.7759 3.91585 12.4829 4.28558 12.1392 4.50343C11.3789 4.12321 11.0119 3.83865 10.9435 3.79942C10.4916 3.55727 9.94902 3.27628 9.36534 3.0098C9.08548 2.74882 7.34762 2.12463 5.75628 2.00013L5.75608 2ZM15.4823 16.1817C15.0137 15.8154 14.6192 15.4383 14.3592 15.0499C14.2743 15.5066 13.9661 15.8319 13.728 16.1518C13.6806 16.2268 13.6464 16.3292 13.8798 16.6552C13.9428 16.742 14.1704 16.7569 14.3241 16.7489C14.1677 16.6307 13.9299 16.5057 13.8915 16.3974C14.1666 16.5847 14.4212 16.6385 14.6514 16.6083C14.704 16.6024 14.7693 16.5466 14.8198 16.4608C14.9225 16.2403 15.0028 16.1872 15.084 16.1279L15.271 16.3622L15.4823 16.1817Z" fill="black"/>
</svg>
