<svg width="24" height="24" viewBox="0 0 24 24" fill="none" xmlns="http://www.w3.org/2000/svg">
<path d="M13.4349 7.85999C14.1823 7.82791 14.931 7.86003 15.6729 7.95599C15.8972 7.99083 16.118 8.04504 16.3329 8.11799C17.7129 8.59799 18.2829 9.79199 17.8689 11.31C17.6863 12.001 17.2929 12.6179 16.7434 13.0749C16.1939 13.532 15.5156 13.8064 14.8029 13.86C14.3501 13.901 13.8953 13.915 13.4409 13.902C13.2789 13.902 13.2069 13.902 13.1889 14.112C13.1529 14.508 13.0809 14.898 13.0329 15.312C13.0329 15.462 12.9609 15.522 12.7989 15.516C12.0909 15.516 11.3829 15.516 10.6749 15.516C10.4769 15.516 10.4589 15.444 10.4829 15.282C10.8189 12.882 11.1529 10.482 11.4849 8.08199C11.4849 7.92599 11.5809 7.90199 11.7189 7.90199L13.4349 7.85999ZM14.2449 9.65999H14.1189C13.8489 9.59999 13.7829 9.74399 13.7589 9.97799C13.6989 10.512 13.6209 11.046 13.5429 11.58C13.4649 12.114 13.4709 12.072 13.9689 12.066C14.2793 12.1038 14.5921 12.019 14.8409 11.8296C15.0897 11.6402 15.2547 11.3612 15.3009 11.052C15.5529 10.14 15.1989 9.67199 14.2449 9.67199V9.65999Z" fill="#0B7BDF"/>
<path d="M7.12866 15.492C6.76866 15.492 6.40866 15.492 6.04266 15.492C5.88666 15.492 5.82666 15.462 5.82066 15.288C5.82066 14.934 5.82066 14.934 5.43666 14.934C4.96866 14.934 4.49466 14.934 4.02666 14.934C3.82266 14.934 3.70266 14.982 3.67866 15.186C3.65466 15.39 3.50466 15.51 3.25266 15.504C2.58666 15.504 1.92066 15.504 1.25466 15.504C1.06266 15.504 1.05066 15.45 1.12266 15.288C2.14866 12.858 3.18066 10.44 4.20066 8.02199C4.2135 7.97006 4.24516 7.92475 4.28949 7.89482C4.33383 7.86489 4.3877 7.85248 4.44066 7.85999H7.14066C7.27866 7.85999 7.32666 7.90199 7.35066 8.03999C7.69466 10.44 8.04466 12.84 8.40066 15.24C8.40066 15.402 8.40066 15.468 8.21466 15.462C7.85466 15.48 7.48866 15.492 7.12866 15.492ZM5.51466 9.62999H5.46666L4.38666 12.972C4.33866 13.116 4.41666 13.122 4.52466 13.122H5.50266C5.66466 13.122 5.70066 13.074 5.69466 12.924C5.62866 11.82 5.57466 10.722 5.51466 9.62999Z" fill="#0B7BDF"/>
<path d="M20.8132 15.492C20.4592 15.492 20.1052 15.492 19.7572 15.492C19.5772 15.492 19.5412 15.438 19.5652 15.276C19.7272 14.16 19.8772 13.05 20.0332 11.934C20.2132 10.656 20.3932 9.37198 20.5672 8.09398C20.5672 7.91998 20.6332 7.84798 20.8252 7.85398H22.9432C23.1112 7.85398 23.1532 7.88998 23.1232 8.06398C22.7872 10.44 22.4572 12.818 22.1332 15.198C22.1332 15.426 22.0372 15.51 21.7972 15.492C21.5572 15.474 21.1432 15.492 20.8132 15.492Z" fill="#0B7BDF"/>
<path d="M7.19919 16.092C6.82119 16.092 6.44319 16.092 6.06519 16.092C5.91519 16.092 5.88519 16.032 5.87919 15.906C5.87319 15.78 5.96319 15.768 6.05919 15.768H8.32719C8.49519 15.768 8.51319 15.858 8.52519 15.978C8.53719 16.098 8.41119 16.086 8.33319 16.086L7.19919 16.092Z" fill="#0B7BDF"/>
<path d="M0.804688 16.092C0.804688 15.828 0.954687 15.762 1.19469 15.762C1.87869 15.762 2.56869 15.762 3.25869 15.762C3.32469 15.762 3.45669 15.696 3.45069 15.834C3.44469 15.972 3.45069 16.092 3.24069 16.08C2.95869 16.08 2.64069 16.08 2.38269 16.08L0.804688 16.092Z" fill="#0B7BDF"/>
<path d="M11.6399 16.092H10.5539C10.4819 16.092 10.3619 16.134 10.3859 15.984C10.4099 15.834 10.3859 15.768 10.5599 15.768H12.8039C12.8819 15.768 12.9599 15.768 12.9479 15.882C12.9359 15.996 12.9479 16.098 12.7739 16.092C12.3959 16.086 11.9999 16.092 11.6399 16.092Z" fill="#0B7BDF"/>
<path d="M20.7728 15.768H21.8348C21.9188 15.768 22.0508 15.708 22.0328 15.894C22.0148 16.08 21.9908 16.092 21.8408 16.086C21.1028 16.086 20.3648 16.086 19.6208 16.086C19.5548 16.086 19.4528 16.116 19.4708 15.984C19.4888 15.852 19.4708 15.756 19.6388 15.762L20.7728 15.768Z" fill="#0B7BDF"/>
<path d="M7.20086 16.632H6.05486C5.95286 16.632 5.88086 16.632 5.88086 16.488C5.88086 16.344 5.96486 16.368 6.04886 16.368H8.40086C8.52086 16.368 8.58086 16.398 8.58086 16.53C8.58086 16.662 8.47286 16.626 8.40686 16.626C7.99886 16.638 7.60286 16.632 7.20086 16.632Z" fill="#0B7BDF"/>
<path d="M0.599609 16.632C0.599609 16.446 0.671609 16.368 0.857609 16.368C1.60761 16.368 2.35161 16.368 3.10161 16.368C3.16161 16.368 3.27561 16.32 3.26961 16.446C3.26361 16.572 3.26961 16.632 3.09561 16.632H0.599609Z" fill="#0B7BDF"/>
<path d="M11.5615 16.632C11.1955 16.632 10.8355 16.632 10.4755 16.632C10.3975 16.632 10.3015 16.662 10.3135 16.518C10.3255 16.374 10.3615 16.374 10.4695 16.374H12.7135C12.7795 16.374 12.8635 16.374 12.8575 16.482C12.8515 16.59 12.8095 16.638 12.6955 16.638L11.5615 16.632Z" fill="#0B7BDF"/>
<path d="M20.6946 16.374H21.7806C21.8526 16.374 21.9546 16.344 21.9486 16.488C21.9426 16.632 21.8826 16.638 21.7746 16.638H19.5546C19.4886 16.638 19.3986 16.674 19.4046 16.542C19.4106 16.41 19.4046 16.374 19.5606 16.38C19.9386 16.38 20.3166 16.374 20.6946 16.374Z" fill="#0B7BDF"/>
</svg>
