<svg width="20" height="18" viewBox="0 0 20 18" xmlns="http://www.w3.org/2000/svg">
<path d="M9.95726 1.23333C11.4233 1.23457 12.8609 1.51873 14.1729 2.05389L13.1429 3.32519C12.2617 3.01761 11.3219 2.83764 10.3607 2.79745L9.94757 2.78882L9.49901 2.79781C8.53045 2.83976 7.57718 3.02841 6.65719 3.36221C5.66532 3.72182 4.77176 4.23108 4.00197 4.87724C3.24804 5.51138 2.65546 6.24102 2.24341 7.04406C1.82608 7.85528 1.61387 8.70826 1.61387 9.57233C1.61387 10.431 1.82461 11.2681 2.23896 12.0591C2.64719 12.8333 3.2358 13.5348 3.98639 14.1423C4.7512 14.7593 5.64606 15.246 6.64414 15.5873C7.68565 15.9445 8.79675 16.1254 9.94525 16.1254C10.408 16.1254 10.8685 16.0949 11.3262 16.0342L11.7829 15.9635L12.3423 15.8523L12.4003 15.8342C12.4771 15.7999 12.5508 15.7262 12.6066 15.6291C12.6884 15.4854 12.7223 15.3108 12.7047 15.1387L12.6817 15.0106L12.651 14.9021L12.5942 14.6742C12.3973 13.7598 12.5669 12.8154 13.0728 12.0449C13.6183 11.2128 14.4944 10.6932 15.4454 10.6276L15.6502 10.6206H17.1259L17.2402 10.613C17.7291 10.5473 18.1333 10.0663 18.2324 9.46279L18.2498 9.32148L18.2555 9.13883L18.2533 9.06724L18.2273 8.83713L18.1767 8.53908C18.0392 7.84688 17.7674 7.17788 17.3654 6.54416C17.2547 6.36867 17.135 6.19746 17.0068 6.03077L18.0055 4.7969C18.2503 5.08855 18.4734 5.39348 18.674 5.71071C19.1866 6.51849 19.5329 7.38228 19.7044 8.27682L19.7605 8.61367L19.8021 8.97437L19.8065 9.17431L19.8016 9.35663C19.7205 10.8619 18.6411 12.0669 17.2955 12.1609L17.1259 12.1668H15.6526C15.1451 12.1692 14.6684 12.4395 14.3708 12.8932C14.1395 13.2476 14.0363 13.6795 14.0739 14.1046L14.0986 14.2861L14.1734 14.577C14.344 15.1868 14.2646 15.8522 13.9571 16.3921C13.7119 16.8225 13.3408 17.1393 12.9124 17.2941L12.7492 17.3444L12.1473 17.4676C11.7126 17.5482 11.2765 17.6047 10.8394 17.637L10.4019 17.6612L9.94757 17.6693C8.6295 17.6693 7.34817 17.4602 6.14481 17.0483C4.97646 16.648 3.92476 16.0741 3.01601 15.3415C2.09989 14.6012 1.37819 13.7363 0.871722 12.7719C0.339851 11.7567 0.0700073 10.6779 0.0700073 9.56535C0.0700073 8.45066 0.338542 7.36257 0.869617 6.32813C1.37661 5.33962 2.09646 4.44912 3.00985 3.68141C3.91954 2.91754 4.97084 2.31763 6.13865 1.89593C7.08885 1.55695 8.07089 1.34725 9.06283 1.27079L9.4885 1.24619L9.93698 1.23735L9.95726 1.23333ZM4.58435 9.90916C5.2159 9.90916 5.72717 10.4226 5.72931 11.0541C5.72931 11.6857 5.2159 12.1991 4.58435 12.1991C3.95064 12.1991 3.43938 11.6857 3.43938 11.0541C3.43938 10.4226 3.95279 9.90916 4.58435 9.90916ZM17.3743 0.531281C17.5539 0.306834 17.8814 0.270444 18.1058 0.450001L18.5122 0.775118C18.7367 0.954675 18.7731 1.28218 18.5935 1.50663L10.5916 11.509L9.39997 12.0359C9.36039 12.0534 9.31635 12.0581 9.27396 12.0494C9.16133 12.0263 9.08876 11.9163 9.11187 11.8036L9.3724 10.5337L17.3743 0.531281ZM5.62523 5.74564C6.25679 5.74564 6.7702 6.25905 6.7702 6.89061C6.7702 7.52217 6.25679 8.03558 5.62523 8.03558C4.99152 8.03558 4.48026 7.52217 4.48026 6.89061C4.48026 6.25905 4.99367 5.74564 5.62523 5.74564ZM9.99693 4.18432C10.6306 4.18432 11.1419 4.69773 11.1419 5.32929C11.1419 5.96085 10.6285 6.47426 9.99693 6.47426C9.36322 6.47426 8.85196 5.96085 8.85196 5.32929C8.85196 4.69773 9.36537 4.18432 9.99693 4.18432Z" />
</svg>
