<svg width="80" height="56" viewBox="0 0 80 56" fill="none" xmlns="http://www.w3.org/2000/svg">
<path d="M40.0625 18.7687L31.1375 24.475C30.9125 24.6375 30.5875 24.6375 30.3312 24.5062L19.0875 18.4812C18.8 18.3187 18.4125 18.35 18.1875 18.575C18.1875 18.575 10 26.9187 10 27.1125V49H73V14L40.2625 18.675L40.0625 18.7687Z" fill="#ADC6FF"/>
<path d="M73.7934 14.049C73.6773 13.2288 72.9182 12.6579 72.098 12.774L39.8299 17.3404L39.3375 17.5713L30.6768 23.1085L19.807 17.2839C19.024 16.8517 17.8919 16.8687 17.1272 17.6334L17.1246 17.636L15.8368 18.9426C15.0658 19.7249 14.0354 20.7705 12.9982 21.8233C12.5516 22.2767 12.1029 22.7283 11.6542 23.1801C10.8964 23.943 10.1384 24.7061 9.38962 25.4778C8.81042 26.0747 8.83799 27.0282 9.44271 27.5993C10.0426 28.1658 10.9868 28.1443 11.5648 27.5554C11.7731 27.3433 11.9816 27.1314 12.1901 26.9195L12.2565 26.852C13.0546 26.0411 14.0983 24.9814 15.1353 23.9287C16.1723 22.8761 17.2025 21.8307 17.9735 21.0484L18.84 20.1693L29.6313 25.952L29.6478 25.9604C30.2859 26.2873 31.2072 26.3649 31.9715 25.8415L40.7275 20.2433L72.5183 15.7444C73.3386 15.6283 73.9094 14.8693 73.7934 14.049Z" fill="#3370FF"/>
<path fill-rule="evenodd" clip-rule="evenodd" d="M7 2.00391V51.0016L76 51.0016L76 54.0016H4V2.00391H7Z" fill="#DEE0E3"/>
</svg>
