<svg width="80" height="56" viewBox="0 0 80 56" fill="none" xmlns="http://www.w3.org/2000/svg">
<path fill-rule="evenodd" clip-rule="evenodd" d="M7 2V50.9977L76 50.9977L76 53.9977H4V2H7Z" fill="#434343"/>
<path d="M40.0625 18.7687L31.1375 24.475C30.9125 24.6375 30.5875 24.6375 30.3312 24.5062L19.0875 18.4812C18.8 18.3187 18.4125 18.35 18.1875 18.575C18.1875 18.575 10 26.9187 10 27.1125V49H73V14L40.2625 18.675L40.0625 18.7687Z" fill="#1F4399"/>
<path d="M73.7934 14.0488C73.6773 13.2285 72.9182 12.6577 72.098 12.7738L39.8299 17.3402L39.3375 17.571L30.6768 23.1083L19.807 17.2837C19.024 16.8514 17.8919 16.8684 17.1272 17.6332L17.1246 17.6357L15.8368 18.9423C15.0658 19.7247 14.0354 20.7702 12.9982 21.823C12.5516 22.2764 12.1029 22.7281 11.6542 23.1798C10.8964 23.9427 10.1384 24.7058 9.38962 25.4775C8.81042 26.0745 8.83799 27.0279 9.44271 27.599C10.0426 28.1655 10.9868 28.144 11.5648 27.5552C11.7731 27.343 11.9816 27.1311 12.1901 26.9192L12.2565 26.8518C13.0546 26.0408 14.0983 24.9811 15.1353 23.9285C16.1723 22.8758 17.2025 21.8304 17.9735 21.0482L18.84 20.1691L29.6313 25.9517L29.6478 25.9602C30.2859 26.287 31.2072 26.3647 31.9715 25.8413L40.7275 20.2431L72.5183 15.7442C73.3386 15.6281 73.9094 14.8691 73.7934 14.0488Z" fill="#3370FF"/>
</svg>
