<svg width="80" height="56" viewBox="0 0 80 56" fill="none" xmlns="http://www.w3.org/2000/svg">
<path fill-rule="evenodd" clip-rule="evenodd" d="M7 2V50.9977L76 50.9977L76 53.9977H4V2H7Z" fill="#434343"/>
<path d="M40.0625 10.2219L31.1375 15.9281C30.9125 16.0906 30.5875 16.0906 30.3312 15.9594L19.0875 9.93437C18.8 9.77187 18.4125 9.80312 18.1875 10.0281C18.1875 10.0281 10 17.8438 10 18.0375V35L18.6667 26.6667L30.6667 33.3333L40.0625 28L73 24V5.45312L40.2625 10.1281L40.0625 10.2219Z" fill="#1F4399"/>
<path d="M40.0625 31.5559L31.1375 37.2621C30.9125 37.4246 30.5875 37.4246 30.3312 37.2934L19.0875 31.2684C18.8 31.1059 18.4125 31.1371 18.1875 31.3621C18.1875 31.3621 10 39.7406 10 39.9344V49L73.0007 48.9652V26.7871L40.2625 31.4621L40.0625 31.5559Z" fill="#00806F"/>
<path d="M73.7954 5.40508C73.6906 4.5745 72.9262 3.99051 72.0972 4.10775L39.8361 8.67085L39.3367 8.90497L30.676 14.4422L19.8062 8.61761C19.0233 8.18537 17.8911 8.20238 17.1264 8.96712L17.1238 8.96979L13.1223 13.0319C12.7026 13.458 12.2826 13.8839 11.8626 14.3097C11.0435 15.1403 10.2244 15.9708 9.40739 16.8034C8.82718 17.3947 8.83875 18.3445 9.43159 18.9231C10.0244 19.5018 10.974 19.4902 11.5543 18.8989C12.3682 18.0694 13.1843 17.2419 14.0004 16.4144C14.4202 15.9887 14.8401 15.563 15.2597 15.137L18.8393 11.5031L29.6305 17.2857L29.647 17.2941C30.2851 17.621 31.2064 17.6986 31.9707 17.1752L40.7221 11.5799L72.5176 7.07807C73.3291 6.96318 73.8981 6.21821 73.7954 5.40508Z" fill="#3370FF"/>
<path d="M73.7954 27.3123C73.6906 26.4817 72.9262 25.8977 72.0972 26.015L39.8361 30.5781L39.3367 30.8122L30.676 36.3494L19.8062 30.5248C19.0233 30.0926 17.8911 30.1096 17.1264 30.8743L17.1238 30.877L13.1223 34.9391C12.7026 35.3652 12.2826 35.7911 11.8626 36.217C11.0435 37.0475 10.2244 37.878 9.40739 38.7106C8.82718 39.3019 8.83875 40.2517 9.43159 40.8303C10.0244 41.409 10.974 41.3974 11.5543 40.8061C12.3682 39.9766 13.1843 39.1491 14.0004 38.3217C14.4202 37.896 14.8401 37.4702 15.2597 37.0442L18.8393 33.4103L29.6305 39.1929L29.647 39.2013C30.2851 39.5282 31.2064 39.6058 31.9707 39.0824L40.7221 33.4871L72.5176 28.9853C73.3291 28.8704 73.8981 28.1254 73.7954 27.3123Z" fill="#00D6B9"/>
</svg>
