<svg width="24" height="24" viewBox="0 0 24 24" xmlns="http://www.w3.org/2000/svg">
<path d="M0.713135 21.4739V1.80273C0.713135 1.52659 0.936992 1.30273 1.21313 1.30273H2.26008C2.53623 1.30273 2.76008 1.52659 2.76008 1.80273V20.0523C2.76008 20.3284 2.98394 20.5523 3.26008 20.5523H22.5686C22.8447 20.5523 23.0686 20.7761 23.0686 21.0523V22.0992C23.0686 22.3754 22.8447 22.5992 22.5686 22.5992H1.83907C1.54045 22.5992 1.25407 22.4806 1.04291 22.2694C0.83176 22.0583 0.713135 21.7725 0.713135 21.4739Z"/>
<path d="M20.3191 3.08223C20.0955 3.03386 19.8676 3.14342 19.7657 3.34825L15.4336 12.0575C15.2883 12.3496 14.9067 12.4266 14.6595 12.2136L10.2302 8.39734C9.98614 8.18705 9.60981 8.25909 9.46066 8.54466L4.38204 18.2685C4.20817 18.6014 4.44967 19 4.82523 19H21.5C21.7761 19 22 18.7761 22 18.5V3.84923C22 3.61382 21.8358 3.4103 21.6057 3.36053L20.3191 3.08223Z"/>
</svg>
