<svg width="18" height="18" viewBox="0 0 18 18" fill="" xmlns="http://www.w3.org/2000/svg">
<path d="M3.55055 8.44446C4.20381 7.54988 4.78204 5.96571 5.35886 3.66363C5.68818 2.34934 6.08868 1.7778 6.43613 1.7778C6.74295 1.7778 6.99168 1.52907 6.99168 1.22224C6.99168 0.915418 6.74295 0.666687 6.43613 0.666687C5.39921 0.666687 4.72228 1.63271 4.28107 3.39357C3.78639 5.36783 3.28341 6.7504 2.84258 7.51417C2.65364 7.39943 2.43186 7.33335 2.19466 7.33335H1.36133C0.670972 7.33335 0.111328 7.893 0.111328 8.58335V9.41669C0.111328 10.107 0.670972 10.6667 1.36133 10.6667H2.19466C2.4011 10.6667 2.59585 10.6166 2.76745 10.528C3.17348 11.3576 3.6237 12.6971 4.06629 14.5236C4.50649 16.3404 5.17939 17.3334 6.22238 17.3334C6.52921 17.3334 6.77794 17.0846 6.77794 16.7778C6.77794 16.471 6.52921 16.2222 6.22238 16.2222C5.88102 16.2222 5.47648 15.6253 5.14615 14.262C4.61474 12.0688 4.08324 10.5087 3.49219 9.55558H7.08353C7.2216 9.55558 7.33353 9.44365 7.33353 9.30558V8.69446C7.33353 8.55639 7.2216 8.44446 7.08353 8.44446H3.55055Z" fill=""/>
<path d="M9.00024 1.63891C9.00024 1.40879 9.18679 1.22224 9.41691 1.22224H17.4725C17.7026 1.22224 17.8891 1.40879 17.8891 1.63891V3.0278C17.8891 3.25792 17.7026 3.44447 17.4725 3.44447H9.41691C9.18679 3.44447 9.00024 3.25792 9.00024 3.0278V1.63891Z" fill=""/>
<path d="M9.41691 7.88891C9.18679 7.88891 9.00024 8.07546 9.00024 8.30558V9.69447C9.00024 9.92458 9.18679 10.1111 9.41691 10.1111H17.4725C17.7026 10.1111 17.8891 9.92458 17.8891 9.69446V8.30558C17.8891 8.07546 17.7026 7.88891 17.4725 7.88891H9.41691Z" fill=""/>
<path d="M9.00024 14.9722C9.00024 14.7421 9.18679 14.5556 9.41691 14.5556H17.4725C17.7026 14.5556 17.8891 14.7421 17.8891 14.9722V16.3611C17.8891 16.5913 17.7026 16.7778 17.4725 16.7778H9.41691C9.18679 16.7778 9.00024 16.5913 9.00024 16.3611V14.9722Z" fill=""/>
</svg>
