<svg width="20" height="20" viewBox="0 0 20 20" xmlns="http://www.w3.org/2000/svg">
<path d="M8.16681 13.6781L14.3453 7.49956L13.1668 6.32105L8.16681 11.321L5.25015 8.40438L4.07164 9.58289L8.16681 13.6781Z" />
<path fill-rule="evenodd" clip-rule="evenodd" d="M9.35405 0.48374C9.12527 0.416909 8.88215 0.416878 8.65336 0.48365L1.56649 2.55188C1.03326 2.7075 0.666687 3.19635 0.666687 3.75183V7.92815C0.666687 12.9583 3.85436 17.4295 8.59609 19.0755C8.85824 19.1665 9.14404 19.1665 9.40619 19.0755C14.1467 17.4294 17.3334 12.9592 17.3334 7.93024V3.75174C17.3334 3.19638 16.9669 2.70761 16.4339 2.55189L9.35405 0.48374ZM2.33335 4.06428L9.00349 2.11766L15.6667 4.06411V7.93024C15.6667 12.1985 12.9935 15.9981 9.00106 17.4507C5.00748 15.9981 2.33335 12.1976 2.33335 7.92815V4.06428Z" />
</svg>
