<svg width="20" height="20" viewBox="0 0 20 20" xmlns="http://www.w3.org/2000/svg">
<path fill-rule="evenodd" clip-rule="evenodd" d="M5.41675 6.66699V6.25033C5.41675 3.71699 7.46883 1.66699 10.0001 1.66699C12.5313 1.66699 14.5834 3.71699 14.5834 6.25033V6.66699H17.5001C17.9605 6.66699 18.3334 7.04199 18.3334 7.50033V17.5003C18.3334 17.9587 17.9605 18.3337 17.5001 18.3337H2.50008C2.03966 18.3337 1.66675 17.9587 1.66675 17.5003V7.50033C1.66675 7.04199 2.03966 6.66699 2.50008 6.66699H5.41675ZM12.9167 6.25033C12.9167 4.63783 11.6109 3.33366 10.0001 3.33366C8.38925 3.33366 7.08342 4.63783 7.08342 6.25033V6.66699H12.9167V6.25033ZM3.33341 8.33366V16.667H16.6667V8.33366H3.33341ZM10.0001 15.0003C8.61925 15.0003 7.50008 13.8795 7.50008 12.5003C7.50008 11.1212 8.61925 10.0003 10.0001 10.0003C11.3809 10.0003 12.5001 11.1212 12.5001 12.5003C12.5001 13.8795 11.3809 15.0003 10.0001 15.0003ZM10.0001 13.3337C10.4605 13.3337 10.8334 12.9587 10.8334 12.5003C10.8334 12.042 10.4605 11.667 10.0001 11.667C9.53967 11.667 9.16675 12.042 9.16675 12.5003C9.16675 12.9587 9.53967 13.3337 10.0001 13.3337Z"/>
</svg>
