<svg width="80" height="56" viewBox="0 0 80 56" fill="none" xmlns="http://www.w3.org/2000/svg">
<path d="M37.5 6C37.7761 6 38 6.22386 38 6.5V13.5C38 13.7761 37.7761 14 37.5 14L9.5 14C9.22386 14 9 13.7761 9 13.5V6.5C9 6.22386 9.22386 6 9.5 6L37.5 6Z" fill="#3370FF"/>
<path d="M71.5 18C71.7761 18 72 18.2239 72 18.5V25.5C72 25.7761 71.7761 26 71.5 26H9.5C9.22386 26 9 25.7761 9 25.5V18.5C9 18.2239 9.22386 18 9.5 18L71.5 18Z" fill="#3370FF"/>
<path d="M50.5 30C50.7761 30 51 30.2239 51 30.5V37.5C51 37.7761 50.7761 38 50.5 38H9.5C9.22386 38 9 37.7761 9 37.5V30.5C9 30.2239 9.22386 30 9.5 30H50.5Z" fill="#3370FF"/>
<path d="M29.5 42C29.7761 42 30 42.2239 30 42.5V49.5C30 49.7761 29.7761 50 29.5 50H9.5C9.22386 50 9 49.7761 9 49.5V42.5C9 42.2239 9.22386 42 9.5 42H29.5Z" fill="#3370FF"/>
<path fill-rule="evenodd" clip-rule="evenodd" d="M7 2.00391V53.0016V54.0016H4V2.00391H7Z" fill="#434343"/>
</svg>
