<?xml version="1.0" standalone="no"?><!DOCTYPE svg PUBLIC "-//W3C//DTD SVG 1.1//EN" "http://www.w3.org/Graphics/SVG/1.1/DTD/svg11.dtd"><svg t="1616055514308" class="icon" viewBox="0 0 1024 1024" version="1.1" xmlns="http://www.w3.org/2000/svg" p-id="4523" xmlns:xlink="http://www.w3.org/1999/xlink" width="200" height="200"><defs><style type="text/css"></style></defs><path d="M1004.202667 396.168533H19.677867c-8.97024 0-16.264533 7.294293-16.264534 16.145067v199.48544c0 8.973653 7.294293 16.145067 16.264534 16.145067h984.64768c8.97024 0 16.264533-7.294293 16.264533-16.145067v-199.48544a16.366933 16.366933 0 0 0-16.387413-16.145067z m-81.926827 150.21056H369.261227c-19.131733 0-34.679467-15.547733-34.679467-34.679466s15.547733-34.686293 34.679467-34.686294h553.018026c19.131733 0 34.679467 15.55456 34.679467 34.686294 0 19.135147-15.54432 34.679467-34.68288 34.679466zM1004.202667 94.306987H19.677867A16.2816 16.2816 0 0 0 3.413333 110.574933v199.48544c0 8.97024 7.294293 16.145067 16.264534 16.145067h984.64768c8.97024 0 16.264533-7.30112 16.264533-16.145067V110.452053c-0.12288-8.850773-7.417173-16.145067-16.387413-16.145066z m-81.926827 150.575786h-205.71136c-19.12832 0-34.68288-15.55456-34.68288-34.686293s15.55456-34.679467 34.68288-34.679467h205.71136c19.131733 0 34.679467 15.547733 34.679467 34.679467s-15.540907 34.686293-34.679467 34.686293zM1004.202667 697.914027H19.677867c-8.97024 0-16.264533 7.181653-16.264534 16.145066v199.48544c0 8.966827 7.294293 16.145067 16.264534 16.145067h984.64768c8.97024 0 16.264533-7.30112 16.264533-16.145067v-199.365973c-0.12288-8.97024-7.417173-16.264533-16.387413-16.264533z m-81.926827 150.572373H547.9424c-19.135147 0-34.686293-15.547733-34.686293-34.679467s15.547733-34.686293 34.686293-34.686293h374.336853c19.131733 0 34.679467 15.55456 34.679467 34.686293 0 19.254613-15.54432 34.679467-34.68288 34.679467z" p-id="4524"></path></svg>
