<svg width="80" height="56" viewBox="0 0 80 56" fill="none" xmlns="http://www.w3.org/2000/svg">
<path d="M28 6V14H36.5C36.7761 14 37 13.7761 37 13.5V6.5C37 6.22386 36.7761 6 36.5 6H28Z" fill="#00D6B9"/>
<path d="M27 6V14H9.5C9.22386 14 9 13.7761 9 13.5V6.5C9 6.22386 9.22386 6 9.5 6L27 6Z" fill="#3370FF"/>
<path d="M53 18V26H9.5C9.22386 26 9 25.7761 9 25.5V18.5C9 18.2239 9.22386 18 9.5 18H53Z" fill="#3370FF"/>
<path d="M54 18V26H71.5C71.7761 26 72 25.7761 72 25.5V18.5C72 18.2239 71.7761 18 71.5 18H54Z" fill="#00D6B9"/>
<path d="M36 30V38H9.5C9.22386 38 9 37.7761 9 37.5V30.5C9 30.2239 9.22386 30 9.5 30H36Z" fill="#3370FF"/>
<path d="M37 30V38H50.5C50.7761 38 51 37.7761 51 37.5V30.5C51 30.2239 50.7761 30 50.5 30H37Z" fill="#00D6B9"/>
<path d="M15 42V50H9.5C9.22386 50 9 49.7761 9 49.5V42.5C9 42.2239 9.22386 42 9.5 42H15Z" fill="#3370FF"/>
<path d="M16 42V50H28.5C28.7761 50 29 49.7761 29 49.5V42.5C29 42.2239 28.7761 42 28.5 42H16Z" fill="#00D6B9"/>
<path fill-rule="evenodd" clip-rule="evenodd" d="M7 2.00391V53.0016V54.0016H4V2.00391H7Z" fill="#DEE0E3"/>
</svg>
