<svg width="80" height="56" viewBox="0 0 80 56" fill="none" xmlns="http://www.w3.org/2000/svg">
<path d="M24 17H34V48.5C34 48.7761 33.7761 49 33.5 49H24.5C24.2239 49 24 48.7761 24 48.5V17Z" fill="#00D6B9"/>
<path d="M24 16H34V4.5C34 4.22386 33.7761 4 33.5 4H24.5C24.2239 4 24 4.22386 24 4.5V16Z" fill="#00806F"/>
<path d="M11 37H21V48.5C21 48.7761 20.7761 49 20.5 49H11.5C11.2239 49 11 48.7761 11 48.5V37Z" fill="#3370FF"/>
<path d="M11 36H21V29.5C21 29.2239 20.7761 29 20.5 29H11.5C11.2239 29 11 29.2239 11 29.5V36Z" fill="#1F4399"/>
<path d="M46 32H56V48.5C56 48.7761 55.7761 49 55.5 49H46.5C46.2239 49 46 48.7761 46 48.5V32Z" fill="#3370FF"/>
<path d="M46 31H56V19.5C56 19.2239 55.7761 19 55.5 19H46.5C46.2239 19 46 19.2239 46 19.5V31Z" fill="#1F4399"/>
<path d="M59 42H69V48.5C69 48.7761 68.7761 49 68.5 49H59.5C59.2239 49 59 48.7761 59 48.5V42Z" fill="#00D6B9"/>
<path d="M59 41H69V36.5C69 36.2239 68.7761 36 68.5 36H59.5C59.2239 36 59 36.2239 59 36.5V41Z" fill="#00806F"/>
<path fill-rule="evenodd" clip-rule="evenodd" d="M5 51H76L76 54H4V51H5Z" fill="#434343"/>
</svg>
