<svg width="80" height="56" viewBox="0 0 80 56"  xmlns="http://www.w3.org/2000/svg">
<path fill-rule="evenodd" clip-rule="evenodd" d="M7 2.00391V53.0016V54.0016H4V2.00391H7Z" />
<path d="M17.5 50C17.2239 50 17 49.7761 17 49.5V42.5C17 42.2239 17.2239 42 17.5 42H52.5C52.7761 42 53 42.2239 53 42.5V49.5C53 49.7761 52.7761 50 52.5 50H17.5Z" />
<path d="M48.5 38C48.2239 38 48 37.7761 48 37.5V30.5C48 30.2239 48.2239 30 48.5 30H71.5C71.7761 30 72 30.2239 72 30.5V37.5C72 37.7761 71.7761 38 71.5 38H48.5Z" />
<path d="M28.5 26C28.2239 26 28 25.7761 28 25.5V18.5C28 18.2239 28.2239 18 28.5 18H47.5C47.7761 18 48 18.2239 48 18.5V25.5C48 25.7761 47.7761 26 47.5 26H28.5Z" />
<path d="M9.5 14C9.22386 14 9 13.7761 9 13.5V6.5C9 6.22386 9.22386 6 9.5 6L48.5 6C48.7761 6 49 6.22386 49 6.5V13.5C49 13.7761 48.7761 14 48.5 14L9.5 14Z" />
</svg>
