<svg width="80" height="56" viewBox="0 0 80 56" fill="none" xmlns="http://www.w3.org/2000/svg">
<path d="M24 4.5C24 4.22386 24.2239 4 24.5 4H33.5C33.7761 4 34 4.22386 34 4.5V48.5C34 48.7761 33.7761 49 33.5 49H24.5C24.2239 49 24 48.7761 24 48.5V4.5Z" fill="#00D6B9"/>
<path d="M11 29.5C11 29.2239 11.2239 29 11.5 29H20.5C20.7761 29 21 29.2239 21 29.5V48.5C21 48.7761 20.7761 49 20.5 49H11.5C11.2239 49 11 48.7761 11 48.5V29.5Z" fill="#3370FF"/>
<path d="M46 19.5C46 19.2239 46.2239 19 46.5 19H55.5C55.7761 19 56 19.2239 56 19.5V48.5C56 48.7761 55.7761 49 55.5 49H46.5C46.2239 49 46 48.7761 46 48.5V19.5Z" fill="#3370FF"/>
<path d="M59 36.5C59 36.2239 59.2239 36 59.5 36H68.5C68.7761 36 69 36.2239 69 36.5V48.5C69 48.7761 68.7761 49 68.5 49H59.5C59.2239 49 59 48.7761 59 48.5V36.5Z" fill="#00D6B9"/>
<path fill-rule="evenodd" clip-rule="evenodd" d="M5 51H76L76 54H4V51H5Z" fill="#434343"/>
</svg>
