<svg width="80" height="56" viewBox="0 0 80 56" fill="none" xmlns="http://www.w3.org/2000/svg">
<path fill-rule="evenodd" clip-rule="evenodd" d="M5 51H76L76 54H4V51H5Z" fill="#DEE0E3"/>
<path d="M11 29.5C11 29.2239 11.2239 29 11.5 29H20.5C20.7761 29 21 29.2239 21 29.5V48.5C21 48.7761 20.7761 49 20.5 49H11.5C11.2239 49 11 48.7761 11 48.5V29.5Z" fill="#3370FF"/>
<path d="M27 4.5C27 4.22386 27.2239 4 27.5 4H36.5C36.7761 4 37 4.22386 37 4.5V48.5C37 48.7761 36.7761 49 36.5 49H27.5C27.2239 49 27 48.7761 27 48.5V4.5Z" fill="#3370FF"/>
<path d="M43 19.5C43 19.2239 43.2239 19 43.5 19H52.5C52.7761 19 53 19.2239 53 19.5V48.5C53 48.7761 52.7761 49 52.5 49H43.5C43.2239 49 43 48.7761 43 48.5V19.5Z" fill="#3370FF"/>
<path d="M59 36.5C59 36.2239 59.2239 36 59.5 36H68.5C68.7761 36 69 36.2239 69 36.5V48.5C69 48.7761 68.7761 49 68.5 49H59.5C59.2239 49 59 48.7761 59 48.5V36.5Z" fill="#3370FF"/>
</svg>
