<svg width="80" height="56" viewBox="0 0 80 56" xmlns="http://www.w3.org/2000/svg">
  <path fill-rule="evenodd" clip-rule="evenodd" d="M41 2.00391V53.0016V54.0016H38V2.00391H41Z" />
  <path d="M4.5 50C4.22386 50 4 49.7761 4 49.5L4 42.5C4 42.2239 4.22386 42 4.5 42H35.5C35.7761 42 36 42.2239 36 42.5V49.5C36 49.7761 35.7761 50 35.5 50H4.5Z" />
  <path d="M12.5 38C12.2239 38 12 37.7761 12 37.5V30.5C12 30.2239 12.2239 30 12.5 30H35.5C35.7761 30 36 30.2239 36 30.5V37.5C36 37.7761 35.7761 38 35.5 38H12.5Z" />
  <path d="M43.5 14C43.2239 14 43 13.7761 43 13.5V6.5C43 6.22386 43.2239 6 43.5 6L71.5 6C71.7761 6 72 6.22386 72 6.5V13.5C72 13.7761 71.7761 14 71.5 14L43.5 14Z" />
  <path d="M43.5 26C43.2239 26 43 25.7761 43 25.5V18.5C43 18.2239 43.2239 18 43.5 18H62.5C62.7761 18 63 18.2239 63 18.5V25.5C63 25.7761 62.7761 26 62.5 26H43.5Z" />
  <path d="M43.5 38C43.2239 38 43 37.7761 43 37.5V30.5C43 30.2239 43.2239 30 43.5 30H57.5C57.7761 30 58 30.2239 58 30.5V37.5C58 37.7761 57.7761 38 57.5 38H43.5Z" />
  <path d="M43.5 50C43.2239 50 43 49.7761 43 49.5V42.5C43 42.2239 43.2239 42 43.5 42H75.5C75.7761 42 76 42.2239 76 42.5V49.5C76 49.7761 75.7761 50 75.5 50H43.5Z" />
  <path d="M16.5 26C16.2239 26 16 25.7761 16 25.5V18.5C16 18.2239 16.2239 18 16.5 18H35.5C35.7761 18 36 18.2239 36 18.5V25.5C36 25.7761 35.7761 26 35.5 26H16.5Z" />
  <path d="M8.5 14C8.22386 14 8 13.7761 8 13.5V6.5C8 6.22386 8.22386 6 8.5 6L35.5 6C35.7761 6 36 6.22386 36 6.5V13.5C36 13.7761 35.7761 14 35.5 14L8.5 14Z" />
</svg>
