<?xml version="1.0" standalone="no"?><!DOCTYPE svg PUBLIC "-//W3C//DTD SVG 1.1//EN" "http://www.w3.org/Graphics/SVG/1.1/DTD/svg11.dtd"><svg preserveAspectRatio="none meet" t="1660276513701" class="icon" viewBox="0 0 1638 1024" version="1.1" xmlns="http://www.w3.org/2000/svg" p-id="2376" xmlns:xlink="http://www.w3.org/1999/xlink" width="319.921875" height="200"><defs><style type="text/css">@font-face { font-family: feedback-iconfont; src: url("//at.alicdn.com/t/font_1031158_u69w8yhxdu.woff2?t=1630033759944") format("woff2"), url("//at.alicdn.com/t/font_1031158_u69w8yhxdu.woff?t=1630033759944") format("woff"), url("//at.alicdn.com/t/font_1031158_u69w8yhxdu.ttf?t=1630033759944") format("truetype"); }
</style></defs><path d="M30.72 121.856H23.893333V21.162667h664.576v6.826666H30.72z" p-id="2377"></path><path d="M44.373333 154.965333l-20.48 16.042667V16.725333h196.266667l-18.773333 20.48H44.373333z" p-id="2378"></path><path d="M1390.933333 983.04H22.186667V564.224l23.210666-18.432v-138.581333l-11.264-11.605334V155.648h6.826667V392.533333l11.264 11.946667v144.725333l-23.210667 18.432V976.213333H1389.226667l51.2-24.576 3.072 6.144z" p-id="2379"></path><path d="M1609.728 983.722667h-206.165333l50.858666-23.893334h131.413334v-142.677333l23.893333-34.133333z" p-id="2380"></path><path d="M1585.152 807.936l-5.461333-3.754667 23.893333-33.109333v-164.864l-15.36-8.533333v-402.773334l15.36-8.533333V24.234667H730.794667l-22.869334 22.869333h-193.877333v-6.826667h191.146667l22.869333-22.869333h882.346667v173.056l-15.36 8.533333V593.92l15.36 8.533333v170.666667z" p-id="2381"></path><path d="M1603.584 209.237333h6.826667v378.88h-6.826667z" p-id="2382"></path><path d="M29.013333 410.624h6.826667v132.437333h-6.826667z" p-id="2383"></path></svg>
