<?xml version="1.0" standalone="no"?><!DOCTYPE svg PUBLIC "-//W3C//DTD SVG 1.1//EN" "http://www.w3.org/Graphics/SVG/1.1/DTD/svg11.dtd"><svg preserveAspectRatio="none meet" t="1660276491746" class="icon" viewBox="0 0 1638 1024" version="1.1" xmlns="http://www.w3.org/2000/svg" p-id="2051" xmlns:xlink="http://www.w3.org/1999/xlink" width="319.921875" height="200"><defs><style type="text/css">@font-face { font-family: feedback-iconfont; src: url("//at.alicdn.com/t/font_1031158_u69w8yhxdu.woff2?t=1630033759944") format("woff2"), url("//at.alicdn.com/t/font_1031158_u69w8yhxdu.woff?t=1630033759944") format("woff"), url("//at.alicdn.com/t/font_1031158_u69w8yhxdu.ttf?t=1630033759944") format("truetype"); }
</style></defs><path d="M0 295.936l3.754667 3.754667v15.36l-1.706667 1.365333v143.018667H0zM16.042667 106.496v-15.701333L27.306667 80.213333v15.701334z" p-id="2052"></path><path d="M16.042667 122.538667v-12.629334L27.306667 99.328v12.629333z" p-id="2053"></path><path d="M16.042667 135.509333V126.293333L27.306667 115.712v9.216z" p-id="2054"></path><path d="M16.042667 146.090667v-6.485334L27.306667 129.024v21.504z" p-id="2055"></path><path d="M1614.165333 25.6h-23.210666L1565.696 0H72.704l-25.258667 25.6H24.576L0 49.834667v239.957333l4.778667 4.778667V212.309333l7.168-7.168V77.824l2.048 1.706667v7.850666l12.288-11.605333v-12.629333L75.093333 15.018667h53.930667l9.557333-10.581334H1499.818667l9.557333 10.581334H1563.306667l48.810666 48.128v12.629333l12.288 11.605333v-7.850666l2.048-1.706667v127.317333l7.168 7.168v82.261334l4.778667-4.778667V49.834667zM1638.4 295.936l-3.754667 3.754667v15.36l1.706667 1.365333v143.018667h2.048z" p-id="2056"></path><path d="M1622.357333 106.496v-15.701333l-11.264-10.581334v15.701334z" p-id="2057"></path><path d="M1622.357333 122.538667v-12.629334l-11.264-10.581333v12.629333z" p-id="2058"></path><path d="M1622.357333 135.509333V126.293333l-11.264-10.581333v9.216z" p-id="2059"></path><path d="M1622.357333 146.090667v-6.485334l-11.264-10.581333v21.504z" p-id="2060"></path><path d="M1638.4 728.064l-3.754667-3.754667v-15.36l1.706667-1.365333v-143.018667h2.048zM1622.357333 917.504v15.701333l-11.264 10.581334v-15.701334z" p-id="2061"></path><path d="M1622.357333 901.461333v12.629334l-11.264 10.581333v-12.629333z" p-id="2062"></path><path d="M1622.357333 888.490667v9.216l-11.264 10.581333v-9.216z" p-id="2063"></path><path d="M1622.357333 877.909333v6.485334l-11.264 10.581333v-21.504z" p-id="2064"></path><path d="M1633.621333 729.429333v82.261334l-7.168 7.168v127.317333l-2.048-1.706667v-7.850666l-12.288 11.605333v12.629333L1563.306667 1008.981333h-53.930667l-9.557333 10.581334H138.581333l-9.557333-10.581334H75.093333L26.282667 960.853333v-12.629333l-12.288-11.605333v7.850666l-2.048 1.706667v-127.317333l-7.168-7.168v-82.261334L0 734.208v239.957333l24.576 24.234667h22.869333l25.258667 25.6h1492.992l25.258667-25.6h23.210666l24.234667-24.234667v-239.957333zM0 728.064l3.754667-3.754667v-15.36l-1.706667-1.365333v-143.018667H0z" p-id="2065"></path><path d="M16.042667 917.504v15.701333l11.264 10.581334v-15.701334z" p-id="2066"></path><path d="M16.042667 901.461333v12.629334l11.264 10.581333v-12.629333z" p-id="2067"></path><path d="M16.042667 888.490667v9.216l11.264 10.581333v-9.216z" p-id="2068"></path><path d="M16.042667 877.909333v6.485334l11.264 10.581333v-21.504z" p-id="2069"></path></svg>
