<?xml version="1.0" standalone="no"?><!DOCTYPE svg PUBLIC "-//W3C//DTD SVG 1.1//EN" "http://www.w3.org/Graphics/SVG/1.1/DTD/svg11.dtd"><svg preserveAspectRatio="none meet" t="1660276526805" class="icon" viewBox="0 0 1638 1024" version="1.1" xmlns="http://www.w3.org/2000/svg" p-id="2844" xmlns:xlink="http://www.w3.org/1999/xlink" width="319.921875" height="200"><defs><style type="text/css">@font-face { font-family: feedback-iconfont; src: url("//at.alicdn.com/t/font_1031158_u69w8yhxdu.woff2?t=1630033759944") format("woff2"), url("//at.alicdn.com/t/font_1031158_u69w8yhxdu.woff?t=1630033759944") format("woff"), url("//at.alicdn.com/t/font_1031158_u69w8yhxdu.ttf?t=1630033759944") format("truetype"); }
</style></defs><path d="M1203.882667 23.893333l74.752 66.56 2.048 1.706667H1614.506667v881.322667l-19.797334 23.210666H44.714667L23.893333 976.554667V48.810667L46.08 23.893333h1157.802667m2.389333-6.826666H43.008L17.066667 46.08V979.626667l24.917333 23.893333h1556.138667l23.210666-27.306667V85.333333h-338.261333L1206.272 17.066667z" p-id="2845"></path><path d="M30.378667 106.837333l-17.066667 13.994667V38.570667l24.234667-23.893334h185.685333l-19.114667 17.066667H44.373333l-13.994666 13.994667zM30.378667 917.162667l-17.066667-13.994667v81.92l24.234667 24.234667h185.685333l-19.114667-17.066667H44.373333l-13.994666-14.336zM1609.728 917.162667l17.066667-13.994667v81.92l-24.234667 24.234667h-185.685333l19.114666-17.066667h159.744l13.994667-14.336zM1625.770667 128.682667l-46.762667-47.104h46.762667z" p-id="2846"></path><path d="M1608.704 106.837333h-122.88l-44.032-26.624h-156.330667L1229.824 31.061333h-1068.373333v-3.413333h1069.738666L1286.826667 76.8h155.648l44.373333 26.624h121.856zM231.765333 1003.52l-18.090666-18.090667H53.589333l-16.384-16.384v-53.589333L30.72 909.653333V115.370667l12.629333-8.533334v-58.026666l27.648-27.989334 2.389334 2.389334-26.624 26.965333v58.368L34.133333 117.077333V907.946667l6.485334 5.802666v53.930667l14.336 14.336H215.04l19.114667 19.114667zM1608.704 237.909333h18.090667v565.589334h-18.090667z" p-id="2847"></path></svg>
