<svg width="32" height="32" viewBox="0 0 32 32" fill="none" xmlns="http://www.w3.org/2000/svg">
<g id="btn_oidc">
<g id="logo_oidc">
<mask id="mask0_3028_68876" style="mask-type:alpha" maskUnits="userSpaceOnUse" x="1" y="1" width="30" height="30">
<circle id="Ellipse 130" cx="16" cy="16" r="15" fill="white"/>
</mask>
<g mask="url(#mask0_3028_68876)">
<g id="OIDC">
<path d="M6.59294 11.992C7.79194 11.992 8.73794 12.377 9.43094 13.158C10.0909 13.895 10.4209 14.874 10.4209 16.084C10.4209 17.294 10.0909 18.262 9.43094 18.999C8.73794 19.769 7.79194 20.154 6.59294 20.154C5.38294 20.154 4.43694 19.758 3.75494 18.988C3.09494 18.24 2.77594 17.272 2.77594 16.084C2.77594 14.885 3.09494 13.917 3.75494 13.169C4.43694 12.377 5.38294 11.992 6.59294 11.992ZM6.59294 13.125C5.77894 13.125 5.15194 13.4 4.70094 13.95C4.27194 14.478 4.06294 15.182 4.06294 16.084C4.06294 16.975 4.27194 17.679 4.70094 18.207C5.14094 18.746 5.77894 19.021 6.59294 19.021C7.40694 19.021 8.03394 18.757 8.47394 18.24C8.90294 17.723 9.12294 17.008 9.12294 16.084C9.12294 15.16 8.90294 14.434 8.47394 13.906C8.03394 13.378 7.40694 13.125 6.59294 13.125Z" fill="#3370FF"/>
<path d="M11.6352 12.146H12.9222V20H11.6352V12.146Z" fill="#3370FF"/>
<path d="M14.4604 12.146H17.3314C18.6074 12.146 19.5644 12.498 20.2244 13.202C20.8514 13.862 21.1704 14.819 21.1704 16.073C21.1704 17.316 20.8514 18.273 20.2244 18.944C19.5644 19.648 18.6074 20 17.3314 20H14.4604V12.146ZM15.7474 13.246V18.9H17.0894C18.0684 18.9 18.7834 18.669 19.2344 18.218C19.6744 17.756 19.8944 17.041 19.8944 16.073C19.8944 15.083 19.6744 14.357 19.2344 13.917C18.7834 13.466 18.0684 13.246 17.0894 13.246H15.7474Z" fill="#3370FF"/>
<path d="M25.7874 11.992C26.7114 11.992 27.4814 12.234 28.0754 12.718C28.6474 13.18 28.9884 13.818 29.1094 14.61H27.8554C27.7234 14.093 27.4814 13.719 27.1184 13.477C26.7664 13.235 26.3154 13.125 25.7654 13.125C24.9404 13.125 24.3244 13.4 23.9064 13.972C23.5214 14.478 23.3344 15.182 23.3344 16.084C23.3344 17.008 23.5214 17.723 23.8954 18.218C24.3024 18.746 24.9404 19.021 25.7984 19.021C26.3594 19.021 26.8214 18.878 27.1734 18.614C27.5474 18.317 27.8114 17.866 27.9654 17.272H29.2194C29.0434 18.196 28.6364 18.911 27.9874 19.428C27.3824 19.912 26.6564 20.154 25.8094 20.154C24.5004 20.154 23.5214 19.736 22.8834 18.922C22.3224 18.218 22.0474 17.272 22.0474 16.084C22.0474 14.918 22.3334 13.961 22.9164 13.235C23.5764 12.399 24.5334 11.992 25.7874 11.992Z" fill="#3370FF"/>
</g>
</g>
</g>
</g>
</svg>
