<svg id="图层_1" data-name="图层 1" xmlns="http://www.w3.org/2000/svg" viewBox="0 0 80 73.4"><defs><style>.cls-1{fill:#dee0e3;}.cls-2{fill:#adc6ff;}.cls-3{fill:#3370ff;}.cls-4{fill:#99efe3;}.cls-5{fill:#00d6b9;}</style></defs><title>icon_bubble-map_light</title><path class="cls-1" d="M69.645,9.337c.06-.094.221-.214.161-.349s-.161-.187-.222-.113a.6.6,0,0,1-.442.261,1.073,1.073,0,0,0-.623.389c-.061.094-.222.094-.349.221s-.422.349-.516.476-.074.134-.255.2a2.1,2.1,0,0,1-.563.074c-.262.02-.369.074-.422-.034s-.2-.254-.2-.435-.02-.383-.107-.443-.053-.06-.114-.221-.3-.074-.4-.114-.366-.073-.413-.167-.107-.288-.308-.315a1.046,1.046,0,0,0-.315-.033,1.1,1.1,0,0,1-.362.013.809.809,0,0,0-.383-.06,1.364,1.364,0,0,1-.455.013c-.141-.04-.255-.214-.336-.4a2.775,2.775,0,0,1-.147-.422,1.592,1.592,0,0,0-.235-.456,5.145,5.145,0,0,1-.335-.443c-.087-.161-.161-.362-.235-.5s-.187-.221-.288-.4a3.938,3.938,0,0,1-.181-.422c-.054-.114-.235-.349-.308-.483A.408.408,0,0,0,61,4.912c-.2-.073-.368-.254-.516-.274s-.4-.041-.771-.114a5.545,5.545,0,0,0-.6-.108,1.315,1.315,0,0,0-.476-.033,1.348,1.348,0,0,0-.59.147l-.677.255-.019.025a.515.515,0,0,0-.209-.032.868.868,0,0,0-.731.409,1.829,1.829,0,0,0-.4.8c.02.194.127.107.288.107s.194.02.215.181.087.268-.054.4a3.173,3.173,0,0,0-.409.75,4.754,4.754,0,0,0-.57,1.267c.02.249.141.376-.053.5a2.076,2.076,0,0,0-.5.4c-.181.194-.108.3-.4.181a2.561,2.561,0,0,0-.731-.181c-.087,0-.16.127-.341.3a7.276,7.276,0,0,0-.57,1.414c-.087.235-.3.59-.268.8a.736.736,0,0,0,.355.569c.194.074.161.021.429-.033s.355-.235.516-.2.248.322.483.235.141-.194.409-.322.127-.194.409-.107a1.246,1.246,0,0,1,.536.268,2.3,2.3,0,0,1,.59.61c.054.161.214.289,0,.322a4.308,4.308,0,0,0-1.126.107,5.569,5.569,0,0,1-.644.268c-.375.141-.322.249-.57.356a1.151,1.151,0,0,0-.516.409c-.087.14-.127.194-.322.462s-.342.376-.536.4-.235-.054-.463.053a.808.808,0,0,0-.429.322c-.127.181-.181.409-.449.429a.823.823,0,0,1-.516-.074,4.63,4.63,0,0,0-.784-.288.873.873,0,0,0-.537.268,3.224,3.224,0,0,0-.429.838c-.053.181.248.7.288.859s-.268.395-.355.428a8.184,8.184,0,0,0-.731.611,1.8,1.8,0,0,1-.569.409c-.235.087-.235.214-.557.234s-.932.034-1.126.02a1.706,1.706,0,0,0-.771.054,10.932,10.932,0,0,0-1.052.449c-.322.127-.289.107-.7.268s-.61.141-.61.054-.248-.2-.355-.2a1.788,1.788,0,0,1-.751-.087,5.49,5.49,0,0,0-.8-.429c-.342-.127-.376-.053-.483-.248a1.107,1.107,0,0,0-.483-.375,3.242,3.242,0,0,0-.824-.289c-.322-.073-.449.034-.838.034a2.043,2.043,0,0,1-.731-.034c-.375-.087-.536-.127-.965-.234s-.3-.161-.537-.161-.543.007-.543.007l.005.015-.212.018-.283.012a1.051,1.051,0,0,0-.087-.421c-.08-.161-.2-.234-.241-.429s-.127-.382-.188-.7a3.72,3.72,0,0,0-.167-.576c-.027-.114-.289-.041-.4-.175a4.49,4.49,0,0,0-.355-.362,1.734,1.734,0,0,0-.469-.489,5.877,5.877,0,0,0-.965-.483c-.336-.134-1.113-.234-1.328-.482s-.315-.316-.167-.584a7.441,7.441,0,0,0,.3-.7,1.942,1.942,0,0,0,.034-.831,8.619,8.619,0,0,0-.4-1.314,1.364,1.364,0,0,0-.449-.429c-.282-.2-.583-.248-.778-.516a1.969,1.969,0,0,1-.449-.778.926.926,0,0,0-.121-.454l.027-.009.436-.093-.08-.235L29,8.222a.693.693,0,0,0-.282-.033c-.087.007-.167-.013-.248,0L28.4,8.155a1.217,1.217,0,0,0-.415-.06.6.6,0,0,0-.4.181l-.093.06-.1.114a1.206,1.206,0,0,0-.127.369l-.027.027a1.316,1.316,0,0,0-.329-.06.675.675,0,0,0-.623.328c-.007.007-.014.013-.014.02a.875.875,0,0,0-.174.235.787.787,0,0,0-.127.476c-.014.127-.047.255-.067.389s.013.181-.108.2c-.046.013-.107.053-.134.047h0l-.193-.093-.12-.067c-.074-.02-.148-.041-.222-.067l-.154-.021-.094-.026-.033-.021-.034-.046-.093-.074a.542.542,0,0,0-.182-.168l-.052-.045-.094-.067-.114-.053L24.151,9.7l-.127-.007-.168.027-.167.094-.094.1-.067.107a1.408,1.408,0,0,1-.188.248,1.057,1.057,0,0,0-.1.147,2.255,2.255,0,0,0-.134.222c-.027.053-.06.1-.087.154l-.094.107a.95.95,0,0,1-.094.134.714.714,0,0,0-.12.168.359.359,0,0,0-.027.047.551.551,0,0,1-.087.08l-.081.1-.08.207a.715.715,0,0,0-.054.088h-.013a.787.787,0,0,0-.5.033.785.785,0,0,0-.309.007l-.181-.081-.288.014a.86.86,0,0,0-.134.007.489.489,0,0,1-.214-.034l-.222.02-.033.02a.763.763,0,0,0-.322.134l-.094.087-.107.155-.06.275.026.073v.034l.047.161a.873.873,0,0,0,.215.275,1.387,1.387,0,0,1-.027.181.726.726,0,0,0-.06.294.944.944,0,0,0-.007.389,1.039,1.039,0,0,0,.007.356c.006.033.013.073.02.107l-.02.067a.6.6,0,0,0-.248.134l-.081.074-.087.127L19.6,14.7l-.067.081-.04.06a.383.383,0,0,1-.04.067.768.768,0,0,0-.128.282c-.007.033,0,.053-.02.08l-.047.174a.923.923,0,0,0-.234.114l-.047-.013-.222-.007-.12.054-.121.02-.06.034a.685.685,0,0,0-.235.06l-.087.02a.7.7,0,0,1-.121.013.82.82,0,0,0-.181.054l-.074.02-.154-.04-.194.013-.148.067-.114.094a1.2,1.2,0,0,0-.214.04l-.094.041a.463.463,0,0,0-.168-.047,1.013,1.013,0,0,1-.08-.067l-.141-.061-.127-.02a1.391,1.391,0,0,0-.288.027.749.749,0,0,0-.215.034l-.147.08-.108.1-.08.135-.027.02-.094.094-.04.067-.02-.114-.081-.161-.134-.134-.154-.074-.127-.027h-.1l-.08.007a.733.733,0,0,0-.208.067l-.087-.074-.188-.08-.255.006-.187.108-.114.12-.141.047-.154-.02-.134-.027-.141.007-.107.027c-.087.04-.181.08-.275.12l-.141.208a.9.9,0,0,0-.141.141l-.053.081-.034.08a.882.882,0,0,0-.275.127.791.791,0,0,0-.208.208l-.047.081-.046.167-.007.108a.515.515,0,0,0,.019.075h-.026l.02.221-.013.021a.726.726,0,0,0-.074.744c.054.087.094.187.154.275a.968.968,0,0,0,.282.288l.147.054.228.006a1.017,1.017,0,0,0-.02.4,1.153,1.153,0,0,0-.02.155.575.575,0,0,0-.094.174.952.952,0,0,0-.159.016v-.01l-.1.014-.234.121-.076.141L11.7,20.1h0l-.03.058c-.014.06-.041.114-.054.174l-.02.161.02.067a.9.9,0,0,0,.034.2l.053.134.161.188.134.046.094.121.228.127h.047l.013.068.034.087.04.067a1.254,1.254,0,0,0,.114.147l.161.107-.014.041-.087.1a1.027,1.027,0,0,0-.094.208l-.02.114a.708.708,0,0,0,.014.2l.033.1.034.06.013.181.094.181.094.1.127.087a1.218,1.218,0,0,0,.268.1c.027.034.047.061.074.094.047.06.081.121.128.181l.114.128.107.066.047.021a1.577,1.577,0,0,0,.187.127.643.643,0,0,0,.108.087c.06.04.114.067.174.1.04.013.08.02.121.033a1.2,1.2,0,0,0,.02.215c0,.069,0,.139,0,.208a.58.58,0,0,0-.014.435.793.793,0,0,0,.289.483l-.02.027-.081.127-.047.175.013.16.007.027-.08.128-.04.134-.007.14.007.041a.714.714,0,0,0,.067.355l.02.047a1.079,1.079,0,0,0,.094.208.7.7,0,0,0-.329.06.958.958,0,0,0-.268.067l-.1.054-.12.1-.081.134-.033.088a.93.93,0,0,0-.034.268.819.819,0,0,0-.053.107l-.047.161,0,.117.02.134.047.127.047.081-.013.094a1.183,1.183,0,0,0,.013.214l-.054.134-.006.121-.02.047-.027.134.013.208.127.221c.007.053.007.107.02.167l.074.2a.9.9,0,0,0,.114.147l.074.06.08.047a.622.622,0,0,0,.128.1l.114.054.187.033.088.047c.006.056.015.112.026.168a.822.822,0,0,0,.088.207.742.742,0,0,0,.274.242l.047.02c.014.007.041.053.054.06a1.051,1.051,0,0,0,.248.208,1.153,1.153,0,0,0,.2.235.814.814,0,0,0,.114.362l.054.067.053.053a1,1,0,0,0,.2.121.724.724,0,0,0,.268.054l.127-.014a.681.681,0,0,0,.2-.08l.074-.054.087-.094.04-.027.013.081.047.127.094.141.107.087c.041.02.074.047.114.067l.047.154.04.054.021.067.093.121a1.522,1.522,0,0,0,.369.268.46.46,0,0,0,.1.087l.047.081c.006.04.006.08.013.114a.94.94,0,0,0,.127.315l.108.134.087.08.154.087.2.027.027-.007v.041l.027.134.033.067a.865.865,0,0,0,.1.161l.08.08.081.047.04.06.087.081.067.047a.761.761,0,0,0,.228.254.486.486,0,0,0,.087.054.886.886,0,0,0,.047.134.865.865,0,0,0,.1.161.6.6,0,0,0,.248.181.644.644,0,0,0,.328.114l.047.034.02.013c.014.047.02.094.034.134a.826.826,0,0,0,.087.208l.107.134.248.148.181-.014a1.274,1.274,0,0,0,.2.114l.094.027.108.013.127-.007.1-.033.047.033a.674.674,0,0,0,.128.168l.087.067.094.047.087.027.174.02a.464.464,0,0,0,.161.054l.128.073.154.034.127-.007a.7.7,0,0,0,.2-.06.571.571,0,0,1,.1.02,1.539,1.539,0,0,0,.261.04.683.683,0,0,0,.034.369,1.535,1.535,0,0,0,.274.456l.135.107.114.054.16.04.161-.014.1-.033A1.5,1.5,0,0,0,24.213,38l.127-.107.074-.094.054-.108.033-.127a.579.579,0,0,0,.007-.161.212.212,0,0,1,.047-.06,1.169,1.169,0,0,0,.288-.221l.134.073.148.041h.127a.221.221,0,0,1,.047.033.95.95,0,0,0,.3.174l.12.021a1.5,1.5,0,0,0,.315.221,1.418,1.418,0,0,0,.161.08l.094.02v.067l.02.114.047.128.081.114.094.087.134.08a.8.8,0,0,0,.04.356,1.183,1.183,0,0,0,.013.214l.081.188.2.181.214.053a1.029,1.029,0,0,0,.2-.013,1.874,1.874,0,0,0,.335,0,.694.694,0,0,0,.3.094l.04.02a.982.982,0,0,0,.415.074c.041,0,.081-.007.121-.007.094.007.188.02.282.027a1.2,1.2,0,0,0,.569-.134.676.676,0,0,0,.316-.362c.08-.074.167-.141.248-.215a.8.8,0,0,0,.308-.033c.2-.054.4-.128.6-.2.081-.026.161-.047.242-.073a.935.935,0,0,0,.214-.108l.087-.073.074-.088.013-.02.094.02.061.007a1.022,1.022,0,0,0,.107.034,2.019,2.019,0,0,0,.147.16,1.537,1.537,0,0,0,.249.054l.06.027a.465.465,0,0,0,.08.074l.067.04.081.08.114.074.127.134.161.094.322.02.181-.08.107-.074.107-.02.155-.074.127-.12c.007.066.027.133.04.2l.013.12.047.161.054.094.081.1.127.093.08.034a.6.6,0,0,0,.041.261c-.021.108-.007.222-.021.329-.006.08-.02.161-.033.241-.007.027-.027.04-.04.061a.506.506,0,0,0-.148.147l-.04.074-.033.073-.027.081-.014.161A.79.79,0,0,0,33.8,41l-.134.094-.089.127a.849.849,0,0,0-.08.214l-.121.04a.828.828,0,0,0-.208.188l-.02.007-.194.208-.047.261a.589.589,0,0,0-.188.275.483.483,0,0,0-.027.141c-.006.02-.013.033-.02.053a1.017,1.017,0,0,0-.053.181l-.007.121.02.141a1,1,0,0,0,.087.181l-.02.013-.114.161-.047.228.047.2.067.121.087.107a.942.942,0,0,0,.181.134l.094.041.114.026h.128a1.087,1.087,0,0,0,.5-.208.492.492,0,0,0,.107-.033h.007l.04.14.081.094.013.174.06.1-.026.147.02.235.127.161a.716.716,0,0,0,.228.161l.081.06-.017.127.007.047a.506.506,0,0,0-.087.181l-.1.107a.825.825,0,0,0-.121.309l.021.188.087.167.107.107a1.015,1.015,0,0,0,.664.181l.067.047.053.2.094.2.061.06.013.054.141.181.174.107.08.02.1.067h.248a.494.494,0,0,0,.107.034.727.727,0,0,0,.476-.027.617.617,0,0,0,.733.471l.032-.008.154.087.167.04.114-.013.248-.088.114-.1.128-.154.067-.2a.82.82,0,0,0-.034-.315l.094-.255-.094-.288a.6.6,0,0,0-.047-.248,1.125,1.125,0,0,0,.4-.04l.161-.1.047-.06.02.027c.06.053.114.1.167.154l.161.067.148.02a1.084,1.084,0,0,0,.248-.02l.174-.087.04-.054.154.06.182-.06a.824.824,0,0,0,.335.208l.308-.04.194-.168.027-.054h.114a1.023,1.023,0,0,0,.282-.16.529.529,0,0,0,.355-.114h.081l.281-.248.007-.027.3.181.08-.014.067.074.168.081a.992.992,0,0,0,.231.01h.1l.094.054a.726.726,0,0,0,.08.5l.067.067a1.134,1.134,0,0,0,.007.154.593.593,0,0,0,.121.335l.107.107.187.087h.068a.6.6,0,0,0,.241.168.493.493,0,0,0,.275.154.617.617,0,0,0,.3.114h.047l.014-.067.033.014.047-.014h.047l.054-.033L45,47.9l.047.02a.235.235,0,0,0,.046-.067c.007-.013.007-.06.014-.073s.027,0,.04-.007a.222.222,0,0,1,.094.007l.043-.053.053-.02.074-.081.034-.02.02.047.047-.027.025-.025-.005.052s.04.014.053.007.027-.007.021-.02-.034-.047-.014-.047.081,0,.094.02.013.027.034.027.067,0,.067-.014a.035.035,0,0,0-.007-.026c-.013-.014-.04-.027-.027-.047a.784.784,0,0,1,.054-.061s.02-.006.02.021a.185.185,0,0,0,.02.06.108.108,0,0,1-.007.047c-.006.013-.033.033-.027.053s.027.007.041,0a.211.211,0,0,0,.073-.094.525.525,0,0,0,.014-.087c0-.02.006-.067.033-.06s.02.02.02.04-.013.041,0,.041a.184.184,0,0,0,.034-.027c.007-.007.04-.034.06-.014s.027.027.02.067-.02.027-.033.047-.034.04-.014.04a.051.051,0,0,0,.054-.02.875.875,0,0,0,.081-.08c.02-.02.033-.074.02-.081a.042.042,0,0,0-.027-.006c-.014,0-.054.006-.04-.02s.013-.027.026-.034-.013-.054-.013-.054-.054-.067-.047-.087a.222.222,0,0,1,.054-.06c.02-.013.033-.034.04-.02s.007.053.027.053.02-.006.04-.006.033,0,.027.013-.037.053-.054.081-.013.06.007.08.027.027.053.027.074-.02.094-.013.014.006.014.033,0,.02.013.02.02.02-.007.027-.04.027-.026.04.026.007.033.02a.031.031,0,0,0,.04.018l.007,0c.027-.014.02-.014.047-.014s.081.007.067-.013a.3.3,0,0,0-.047-.06c-.013-.014-.04-.021-.033-.047a.4.4,0,0,1,.047-.121c.013-.007.02,0,.033.02s.027.04.04.04.047.007.027.02-.047.027-.047.054a.136.136,0,0,0,.027.087.287.287,0,0,0,.074.06c.02,0,.047-.006.053-.006s.034-.014.047,0,.027.047.061.047.073.006.073.033-.006.047-.02.054-.006.013-.027.007-.04-.014-.053,0-.047.053-.034.067.007.02.034.026a.1.1,0,0,1,.047.021c.006.006.006.013.04.013s.04-.007.047-.02.027-.02.033-.047.014-.054.027-.034.02.054.04.054a.1.1,0,0,0,.047-.007.179.179,0,0,1,.067-.02.305.305,0,0,0,.074,0,1.011,1.011,0,0,0,.134-.047.09.09,0,0,0,.054-.067.108.108,0,0,0-.014-.053c-.006-.021.007-.047-.026-.067a.273.273,0,0,0-.054-.027.021.021,0,0,1,0-.029l0-.005c.02-.02.054-.033.067-.047a.261.261,0,0,0,.047-.047c.013-.02.007-.033.02-.02s.034.034.027.047-.06.04-.054.061-.006.033.007.047a.113.113,0,0,1,.027.06.149.149,0,0,0,.04.1c.034.027.04.047.06.054a.132.132,0,0,1,.081.027c-.007-.014.02-.014.013-.034a.192.192,0,0,1-.013-.053c0-.013-.007-.014-.007-.021s-.007-.093.007-.093.033.073.04.067h0a.064.064,0,0,0-.014.048v.02a.157.157,0,0,0,.006.053l.04-.026.028.033c.013.02.006.047.006.067s.021.02.041.02a.359.359,0,0,0,.08-.027c.02-.006.02.007.027.021a.107.107,0,0,1-.007.066.078.078,0,0,0,.007.054c.007.02-.034.014-.054.014s-.08.006-.12.006-.014.074-.007.108-.013.053-.013.067a.307.307,0,0,1-.014.067c-.007.006-.02,0-.033-.02s-.034.026-.047.046-.007.027,0,.041a.136.136,0,0,1,.02.073.243.243,0,0,1-.034.1.173.173,0,0,0-.026.074c-.014.047.026.107.033.127s.013-.007.02-.02.04.033.054.054-.014.046-.02.06a.042.042,0,0,0,.006.04.118.118,0,0,0,.054.02.5.5,0,0,1,.054-.006c.04,0,.033.006.026.013a.09.09,0,0,1-.053.027.166.166,0,0,0-.074.027c-.033.02.027.04.047.047s.02.033.02.047a.84.84,0,0,0,.013.087c.006.034.041.026.067.033s.027.034.041.054.013.013.02.006,0-.033,0-.06,0-.02.013-.027.041.054.047.081.027.02.047.02.007.047.007.06a.1.1,0,0,1-.027.067c-.02.013-.033-.06-.047-.073a.124.124,0,0,0-.087-.007c-.027.007.027.094.04.114a.224.224,0,0,1,0,.073c-.007.021.007.041.027.027s.013-.02.034-.033a.083.083,0,0,1,.053-.014c.02,0,.047-.02.074-.013s.053.033.087.047a.092.092,0,0,0,.054.007.1.1,0,0,0,.06-.021c.013-.02.047-.006.067,0a.055.055,0,0,0,.047,0c.02-.006.034-.026.054-.046a.261.261,0,0,1,.093-.034c.027-.013.02-.04.034-.06a.471.471,0,0,1,.047-.061.129.129,0,0,0,.04-.067A.176.176,0,0,0,48.651,49c-.02-.026-.087-.033-.1-.04a.407.407,0,0,1-.047-.094c-.013-.027-.034,0-.047.007a.048.048,0,0,1-.06,0c-.034-.02,0-.04,0-.06a.142.142,0,0,1,.02-.067c.02-.027.033.026.033.04s.014.013.034.013.006-.06.006-.08a.259.259,0,0,0-.026-.067c-.02-.034-.094-.02-.108-.02a.061.061,0,0,1-.047-.014c-.02-.02-.02,0-.06,0s-.02-.06-.02-.08a.2.2,0,0,0-.04-.094c-.027-.04-.027-.034-.027-.054s.013-.02.04,0,.034.014.067-.006.04-.067.061-.094.02-.027.046-.027.014.054.007.06-.007.014.02.02,0,.034-.013.047a.216.216,0,0,0-.047.061c-.013.02,0,.027.013.02a.6.6,0,0,1,.067-.034.254.254,0,0,1,.067-.006c.014,0,.02-.014.054-.014a.1.1,0,0,1,.087.074c.027.047.04.013.04-.013a.7.7,0,0,0,.007-.121c-.007-.034-.094-.02-.121-.02a.055.055,0,0,1-.053-.027c-.014-.02-.027-.007-.04-.007s-.014.007-.041-.013.014-.027.034-.04a.294.294,0,0,0,.06-.067.23.23,0,0,0,0-.074.063.063,0,0,0-.033-.047.059.059,0,0,1-.027-.047c-.007-.02.007-.027.027-.027s.013-.007.013-.02-.02-.034-.033-.06-.014-.047,0-.061.04.02.053.047a.182.182,0,0,1,.027.054.786.786,0,0,0,.054.087c.013.027-.027.027-.034.034s0,.047,0,.067.02,0,.034-.014.04-.006.067-.006.033-.014.053-.027.027.027.02.047-.013.026-.033.026-.087.014-.107.014-.034,0-.034.027.034.013.034.013a.13.13,0,0,1,.033-.007c.014,0,.027.034.027.061s.027.02.04.02a.123.123,0,0,0,.067-.074.361.361,0,0,0,.02-.107.309.309,0,0,1,.041-.081.255.255,0,0,0,.04-.053.718.718,0,0,1,.094-.081c.026-.013.08.007.114.007a.1.1,0,0,0,.067-.02c.013-.014.033-.034.053-.034a.506.506,0,0,1,.094-.013c.027,0,.034-.013.034-.054s.013-.026.04-.026.013.02.007.04.013.013.04.006a.4.4,0,0,1,.067-.013c.02-.007.02-.013.02-.047s.007-.027.02-.027.02.007.034.02.02.007.033.021.007.02-.013.06.047.007.074-.014a.506.506,0,0,1,.08-.06c.02-.013-.007-.02-.027-.02a.03.03,0,0,0-.033.02c-.007.007-.02.007-.007-.02a.088.088,0,0,1,.053-.047c.021-.007.021-.013.041-.02a.109.109,0,0,0,.04-.034c.007-.007.02.014.02.034s.02.04.047.054a.236.236,0,0,0,.087.013c.02-.007.081-.013.094-.027a.164.164,0,0,0,.04-.067.064.064,0,0,1,.061-.04.06.06,0,0,0,.046-.02c.021-.014.021-.061.021-.094s-.041-.02-.061-.02a.044.044,0,0,1-.047-.04c-.007-.033.02-.02.041-.014s.033-.013.06-.02.047.02.067.02.013.02.007.034-.007.013-.007.047.054.02.074.02.02.02.013.04-.04.013-.054.007-.013.02-.013.04-.033.033-.047.067.027.02.047.013a.116.116,0,0,0,.047-.02.249.249,0,0,1,.047-.033.3.3,0,0,0,.08-.02c.02-.014.02-.007.02-.034s-.033-.034-.06-.034-.027,0-.033-.033.033-.074.06-.094-.02-.033-.04-.06.033-.027.067-.027.027.02.033.034.04.006.067.006a.308.308,0,0,1,.074-.006.305.305,0,0,0,.054-.014c.027-.007.013.04.013.067s.02.034.034.027.02.034.04.047.053,0,.08-.013a.607.607,0,0,0,.094-.041c.014-.006.027-.013.034-.047a.557.557,0,0,0-.02-.134c-.014-.047-.034-.08-.047-.114a.182.182,0,0,1-.007-.08A.057.057,0,0,1,50.957,47c.021-.007.007.027,0,.047a.287.287,0,0,0,.021.08c.006.014.026.007.047,0a.065.065,0,0,1,.033-.006c.013,0,.02-.014.034-.027s.02.02.02.033-.054.034-.074.047-.02.04-.02.074.033.047.047.054a.079.079,0,0,1,.047.026c.022.017.044.032.067.047a.157.157,0,0,0,.053,0,.12.12,0,0,0,.04-.026.2.2,0,0,0,.027-.081c.007-.027.014-.04.034-.047a.317.317,0,0,0,.06-.033c.02-.014.02-.034.027-.047s.013-.014.027-.02.04-.014.053-.02a.03.03,0,0,1,.034,0,.077.077,0,0,1,.033.046c.007.027.007.041.014.061s.02.02.033.02a.114.114,0,0,0,.054-.02c.013-.007.027-.041.04-.061a.347.347,0,0,1,.027-.046.543.543,0,0,0,0-.114c-.007-.014-.013-.041-.02-.061a.083.083,0,0,1,.007-.06c.015-.026.03-.05.047-.074a.287.287,0,0,0,.02-.1V46.6a.283.283,0,0,0-.02-.081.249.249,0,0,1-.014-.06c0-.02.014-.014.027-.014s.027.047.027.061a.079.079,0,0,0,.007.04.321.321,0,0,1,.026.067.11.11,0,0,1,0,.067c0,.014.014.02.021.014a.185.185,0,0,0,.033-.021c.007-.006.013-.02.027-.026s.006.006.006.02-.02.033-.033.04a.164.164,0,0,0-.04.047.294.294,0,0,0,.013.147c.014.034.04.014.054.007a.071.071,0,0,1,.04-.007c.02.007,0,.034-.007.047a.277.277,0,0,0-.013.067c-.007.04.047-.006.053-.013s.021-.007.034-.013a.122.122,0,0,0,.054-.061.422.422,0,0,0,.033-.08c.007-.014.02-.02.034-.041a.142.142,0,0,0,.013-.073c0-.02-.02-.04-.047-.067s-.02-.061-.033-.087-.047-.047-.054-.068.013-.02.034-.02.026.014.04.027a.459.459,0,0,1,.047.094.667.667,0,0,0,.1.141.065.065,0,0,0,.047.02.194.194,0,0,0,.054-.013c.02-.007.047-.02.053-.034a.335.335,0,0,1,.021-.047c.02-.02.013-.02.006-.033a.09.09,0,0,0-.02-.034c0-.007,0-.007.014-.013s.02-.007.026-.02a.065.065,0,0,0,.007-.041c.007-.02-.033-.04-.047-.047s-.02-.013-.033-.04.02-.1.026-.114a.192.192,0,0,0,.007-.067c0-.02-.027-.033-.04-.04s-.014-.02-.02-.047-.047-.06-.067-.087-.094-.04-.107-.047A.208.208,0,0,1,52.111,46c-.021-.02-.034-.027-.034-.054s.06.014.074.027a.171.171,0,0,0,.06.027.144.144,0,0,0,.054.014.079.079,0,0,1,.053.026.713.713,0,0,1,.054.081.057.057,0,0,0,.047.026c.013,0,.013,0,.02-.02s-.02-.04-.027-.053-.02-.007-.027-.027.014-.04.02-.06a.055.055,0,0,0-.02-.061.105.105,0,0,0-.06-.026c-.02,0-.027-.021-.034-.041a.145.145,0,0,0-.026-.047c-.014-.02.006-.047.013-.067a.171.171,0,0,0,.007-.067c0-.033-.034-.06-.04-.073s.006-.021.013-.027a.086.086,0,0,1,.04.033c.007.014.007.034.014.054a.56.56,0,0,1,.02.107c0,.02.013.02.026.007a.118.118,0,0,0,.027-.04c.007-.014.014-.007.027-.021s.014.041.014.047a.045.045,0,0,1-.014.027.042.042,0,0,0-.013.034.492.492,0,0,0,.02.1.038.038,0,0,0,.027.014c.006,0,.006.006.013.013a.059.059,0,0,0,.014.027c0,.007.02.007.033.007a.239.239,0,0,0,.06-.014c.021,0,.027.02.034.034a.224.224,0,0,1,.007.073.068.068,0,0,0,.026.047.106.106,0,0,1,.027.047c.014.02.04.047.047.061s.04.013.054.02.013.02.013.033a.055.055,0,0,1-.02.034c-.007.007.007.013.013.013a.149.149,0,0,0,.047-.013c.007-.014.021-.02.027-.034a.045.045,0,0,1,.034-.026H52.9a.683.683,0,0,0-.161.128l.034.033.034-.031a.048.048,0,0,0,0,.017c0,.007-.011.009-.014.021-.006.033.074.04.1.04a.418.418,0,0,0,.094-.013h.053c.027,0,.054.067.061.08s.02.013.033.013.02-.006.034-.02.027.014.033.02.014.007.034-.013.013.02.02.034a.073.073,0,0,0,.02.026c.007.006.013.007.013-.013v-.011a.088.088,0,0,0,.008-.042.077.077,0,0,0-.047-.073.035.035,0,0,1-.017-.019c0-.008,0-.017.017-.022a.173.173,0,0,1,.081.02.078.078,0,0,0,.033.007c.006,0,0-.015,0-.025a.022.022,0,0,0,.01-.028v-.017a.039.039,0,0,0,.012-.024s-.006,0-.008-.007v-.006c.02-.013-.007-.04-.027-.027s0-.006-.027-.006-.027-.014-.06.006c-.027,0-.02.02-.047.02s-.04.014-.047.047-.02.007-.02-.02.007-.013-.014-.027,0-.009.008-.014h.036c.014,0,.027-.014.041-.02a.042.042,0,0,1,.027.006c.013.007.013,0,.02-.006l.026-.027c.007-.007,0-.01-.009-.013s.012-.021,0-.021-.028-.012-.039-.012a.337.337,0,0,1,.1.016.068.068,0,0,0,.02.007l.02-.04c0-.007-.014-.014-.02-.014a.3.3,0,0,0-.119-.016.4.4,0,0,1,.052-.031c.02-.006.027-.013.054-.02a.069.069,0,0,1,.067.02c.007.013.04.014.053.021a.086.086,0,0,1,.027.047.417.417,0,0,1,.007.093c-.007.021.013.021.027.021s.02-.021.033-.034a.066.066,0,0,1,.034-.02.39.39,0,0,0,.047-.02.068.068,0,0,0,.006-.034c0-.006-.02-.013-.033-.02l-.04-.02c-.007-.007-.027.007-.041.013s-.013,0-.02-.013.007-.02.014-.027.04-.013.053-.027a.113.113,0,0,0,.021-.033c.007-.013.013-.02,0-.034s-.041-.006-.054,0a.089.089,0,0,1-.04.007c-.021,0,0-.04.013-.06s.013-.04.027-.054.027-.007.047-.007a.119.119,0,0,0,.053-.013.12.12,0,0,0,.041-.02c.006-.013.033-.027.047-.034a.179.179,0,0,1,.06-.013c.02-.007.02-.02.033-.034s.007-.013.02-.02.027.007.034.02a.03.03,0,0,1,0,.034.231.231,0,0,1-.06.047.133.133,0,0,0-.041.047c-.006.013.014.027.014.04s.007.034.007.054a.3.3,0,0,0,.006.073c.007.02.02.027.034.02a.12.12,0,0,0,.06-.026c.02-.014.014-.007.04-.007s.041.027.054.047.013.007.02-.007,0-.047.007-.067a.059.059,0,0,1,.02-.033c.013-.014.02-.014.02-.034s-.02-.04-.04-.053a.1.1,0,0,0-.047-.021c-.027-.013-.02-.013-.027-.033s.007-.013.034-.013h.04a.062.062,0,0,0,.033-.007c.014-.007.021.027.021.04a.1.1,0,0,0,.033.04c.007.007.02.007.033-.006s.021-.021.021-.034a.092.092,0,0,0-.007-.04.092.092,0,0,1-.007-.04.032.032,0,0,1,.014-.027c.006-.007.013,0,.04.006s.033-.006.053-.013a.1.1,0,0,1,.061.013c.014.006.02-.02.027-.033a.114.114,0,0,1,.047-.04c.02-.007.053-.041.08-.047s.007.033-.007.04a.083.083,0,0,0-.033.047c-.007.02-.034.02-.04.027s.006.006.006.013.034,0,.047,0,.027-.02.04-.02a.058.058,0,0,1,.041.02c.013.014,0,.02,0,.034s-.007.02,0,.027a.082.082,0,0,0,.107.04.144.144,0,0,1,.054-.007.116.116,0,0,1,.06.02.055.055,0,0,0,.04.014c.014,0,.014-.034.014-.047a.087.087,0,0,1,.02-.047c.013-.014-.02-.007-.041-.007a.05.05,0,0,1-.04-.013c-.02-.007.047-.068.047-.068s0-.02-.007-.026a.086.086,0,0,0-.047-.014c-.02,0-.013-.04-.02-.053s0-.02.014-.027a.032.032,0,0,1,.04.013c.007.014.034.02.047.034a.045.045,0,0,0,.047-.007c.02-.013.02-.04.033-.067a.1.1,0,0,1,.041-.047A.053.053,0,0,1,55,45.581c.02.014-.007.034-.027.047a.056.056,0,0,0-.02.047c0,.02.047.02.061.02a.054.054,0,0,1,.04.014c.02.014.027.08.027.107s.026.013.033.007a.613.613,0,0,1,.071-.064c.014-.006.047-.013.074-.02s.054-.04.067-.047a.166.166,0,0,1,.054-.006c.02,0,.006-.02.006-.034s-.013-.033-.013-.047a.077.077,0,0,1,.007-.04c.006-.013.04.013.047.02s.033.007.046.007-.026.04-.033.047a.062.062,0,0,0-.007.033c0,.02.034.014.054-.006a.389.389,0,0,0,.06-.074c.02-.034.061-.047.074-.06a.072.072,0,0,0,.034-.041c.006-.02.006-.013.026-.013s.054.04.067.047.027.007.061,0a.205.205,0,0,0,.08-.027.1.1,0,0,0,.02-.067c0-.02.034-.007.054-.014a.045.045,0,0,0,.033-.046c0-.014-.02-.074-.026-.108s.006-.04.02-.06.027-.02.027-.047-.047-.013-.061-.013-.02,0-.027-.02a.021.021,0,0,1,.013-.027h0s.06-.007.074-.007.026.02.026.034a.745.745,0,0,0,.014.08c.013.034.04-.033.06-.06a.1.1,0,0,1,.068-.047c.02-.007.033.013.047.027s.027.006.047-.014-.027-.027-.041-.04-.013-.027-.02-.054-.02-.033-.053-.04a.145.145,0,0,0-.094.007.391.391,0,0,1-.067.027c-.027.006-.061-.061-.067-.1s.013-.033.02-.027a.255.255,0,0,0,.047.04.113.113,0,0,0,.073.02h.074a.366.366,0,0,0,.081,0c.02-.006.02-.046.027-.06s.006-.027.02-.033a.268.268,0,0,0,.06-.074.581.581,0,0,0,.013-.181.058.058,0,0,1,.021-.054c.013-.013.026.014.033.034s.04.006.047,0-.007-.014.033-.02c.012,0,.01-.009.012-.015a.253.253,0,0,0,.109.115c.013.007.033.007.047.014a1.193,1.193,0,0,1,.174.174c.074.08.161.181.174.127l.034-.033s-.087-.1-.168-.181c-.04-.04-.08-.087-.114-.121s-.053-.06-.08-.067a.062.062,0,0,1-.023-.007l.009-.006a.1.1,0,0,1,.027-.04c.014-.021.047-.021.074-.027s.007-.047.007-.067-.007-.034.013-.054.02.067.033.1.027.02.034.013.013-.02,0-.04,0-.034,0-.067a.124.124,0,0,0-.007-.054c-.006-.02,0-.027.02-.04a.192.192,0,0,1,.088-.014c.027,0,.026.014.053.021s.034-.041.041-.054.04-.047.06-.074-.04-.033-.067-.04a.14.14,0,0,1-.061-.027c-.013-.006,0-.02.021-.02a.476.476,0,0,1,.1.007.3.3,0,0,1,.1.033.143.143,0,0,1,.033.047.386.386,0,0,1,.02.074.3.3,0,0,1-.047.094c-.013.013.007.033.014.027a.418.418,0,0,0,.04-.054.1.1,0,0,0,.027-.054.172.172,0,0,0-.014-.1.1.1,0,0,1,.014-.087c.013-.02,0-.027-.007-.047a.068.068,0,0,1,.027-.067c.02-.013.027-.007.047,0a.038.038,0,0,0,.033-.014.022.022,0,0,1,.027,0c.007.007-.04.067-.047.081a.155.155,0,0,0-.02.067c-.007.047.034.013.047-.014a.724.724,0,0,1,.067-.114c.02-.02.047-.006.06-.02s.007-.04.007-.074a.144.144,0,0,1,.027-.073c.013-.027.013-.02-.013-.04s.02-.041.04-.054.027,0,.027.034.046-.007.06-.021a.443.443,0,0,0,.047-.06c.007-.013.027-.013.054-.027s.02-.027.02-.04-.007-.027-.027-.054a.5.5,0,0,0-.108-.08c-.02-.014-.046.007-.087.02a.123.123,0,0,1-.114-.047c-.02-.033.027-.04.061-.047a.24.24,0,0,1,.1.007c.034,0,.027-.014.027-.027a.049.049,0,0,1,.013-.04c.014-.014.007-.014,0-.034s-.046-.006-.08-.013,0-.04.02-.047.027,0,.047.007a.064.064,0,0,0,.047,0c.013-.007.027.006.027.026a.339.339,0,0,1-.02.074.077.077,0,0,0,.02.061c.014.021.054.02.08,0a.107.107,0,0,0,.047-.081c.007-.033-.013-.04-.047-.04s-.02-.02-.02-.034-.027-.026-.04-.047.007-.033.02-.053.014-.054.027-.067.027.006.033.02a.245.245,0,0,1,0,.067.1.1,0,0,0,.061.08c.04.027.033,0,.06-.026s.027-.034.054-.041a.425.425,0,0,1,.087-.006c.013,0,.02-.021.027-.041s-.02-.06-.014-.08.02-.02.034-.007a.344.344,0,0,1,.04.087c.007.02.02.02.04.02h.054c.027,0,.027.007.027.027a.305.305,0,0,1,0,.074c-.007.02.02.02.033.02s.034-.053.04-.074a.553.553,0,0,1,.041-.067c.014-.027-.007-.026-.021-.04a.041.041,0,0,1-.013-.033c0-.014.02-.014.047-.014s.027-.027.027-.04a.4.4,0,0,1,.047-.054c.007-.013.02-.013.02-.033s-.027-.02-.047-.02h-.067c-.02,0-.04-.014-.04-.02a.051.051,0,0,0-.02-.041c-.021-.02.013-.047.033-.047a.1.1,0,0,1,.06.014c.014.013.014.007.034.007a.233.233,0,0,0,.074-.021c.013-.006.02-.02.04-.026a.637.637,0,0,1,.107,0c.02,0,.02,0,.027-.014s-.054-.033-.074-.047-.006-.02-.006-.033.067,0,.093,0,.021-.007.021-.027a.11.11,0,0,0-.007-.047c-.007-.02.007-.04,0-.06s-.047.027-.074.04-.033-.013-.047-.034-.047-.026-.06-.046.074-.021.094-.027.013-.034.013-.047-.007-.034-.007-.047a.386.386,0,0,0-.02-.074c-.006-.02-.033-.02-.053-.027s.053-.047.073-.053.014-.014.034-.02a.3.3,0,0,1,.074.006c.026.007-.027.041-.061.061s.02.06.041.087a.15.15,0,0,1,.026.073c.007.027.034.007.054-.006a.155.155,0,0,1,.06-.027c.021-.007.014-.04.02-.054a.168.168,0,0,1,.068-.04c.013-.007.02,0,.046.007s.027-.007.027-.014a.493.493,0,0,1-.007-.06c0-.027.074-.007.088-.007s.02-.006.013-.026-.047-.034-.067-.054a.116.116,0,0,0-.074-.034.4.4,0,0,1-.107-.02c-.033-.006-.04-.027-.054-.047s0-.026.007-.033a.144.144,0,0,0,.027-.034c.007-.013.013-.013.027-.02a.528.528,0,0,1,.067-.013c.027,0,.027.013.06.02s.027-.034.027-.047a.057.057,0,0,1,.013-.04c.007-.02-.006-.027-.013-.04a.333.333,0,0,1-.027-.061c-.007-.02,0-.027.02-.033s.027.006.027.02a.261.261,0,0,0,.034.074.186.186,0,0,0,.087.033c.033,0,.067.06.074.08a.174.174,0,0,1-.014.081c-.013.02-.007.04.02.027a.17.17,0,0,0,.081-.047c.033-.027.04,0,.06.027s.033-.047.04-.074-.013-.027-.02-.047-.027-.027-.04-.04a.059.059,0,0,0-.06-.007c-.021.007,0-.067.006-.087s-.013-.027-.04-.027-.027,0-.04-.027-.014-.013-.067-.027,0-.026.006-.06.108-.013.135-.02.026-.02.026-.04.007-.04.014-.087-.02-.054-.047-.074.06-.081.094-.107.026-.061.033-.1a.041.041,0,0,0-.026-.052.038.038,0,0,0-.021,0,.072.072,0,0,1-.087.006c-.06-.02-.06-.006-.107-.006s-.014-.021,0-.034a.271.271,0,0,0,.02-.067.136.136,0,0,1,.067-.054c.027-.006.034-.033.04-.047a.39.39,0,0,1,.02-.047.385.385,0,0,0,.047-.067c.007-.02.067-.02.094-.026a.732.732,0,0,0,.154-.088c.034-.026.027-.02.027-.033s-.02-.007-.06,0-.04-.013-.04-.027-.014-.027-.027-.047-.034,0-.041.014a.44.44,0,0,1-.046.04c-.027.02-.021.047-.047.08s-.061-.047-.074-.067-.007-.006-.007-.047-.067-.013-.087-.013a.025.025,0,0,1-.028-.021.028.028,0,0,1,0-.013c0-.02.061-.027.087-.033s.034.013.047.02.036.019.054.027a.128.128,0,0,0,.067.006c.02,0,.033-.02.04-.033s-.007-.034-.027-.047-.026-.06-.04-.094-.094-.06-.127-.067-.047.02-.074.04-.04-.006-.047-.033.027-.047.04-.074-.047-.033-.067-.047.007-.06.007-.08.02-.014.04-.014.034.027.061.047a.429.429,0,0,0,.06.04c.013.006.02-.02.02-.033a.131.131,0,0,1,.02-.047.158.158,0,0,0,.013-.06.1.1,0,0,1,.061-.067c.033-.007.013.06,0,.073s0,.041,0,.054a.123.123,0,0,1,0,.054c-.007.04.02.033.04.033a.107.107,0,0,1,.047.014c.02.006.027-.027.027-.041s.027-.04.027-.053-.007-.041-.007-.067.054-.014.067-.007.02-.007.06-.007-.006.061-.026.081a.4.4,0,0,0-.047.1.222.222,0,0,1-.081.074.125.125,0,0,0-.06.08c-.014.034,0,.041.027.041a.176.176,0,0,0,.094-.061,1.069,1.069,0,0,1,.12-.093c.02-.007.013-.014.027.006s.027.007.04-.013a.088.088,0,0,0-.013-.067c-.014-.027.006-.041.02-.054s-.007-.04-.014-.067-.026-.02-.047-.034A.149.149,0,0,1,59.7,40c-.007-.02.067-.074.094-.087a.07.07,0,0,1,.053-.007A.059.059,0,0,0,59.9,39.9c.02-.021.02-.088.02-.108v-.075c0-.02-.02-.026-.033-.053s.053.02.073.027h.047c.02,0,.034-.014.041-.04s.013-.007.033-.027,0-.014-.007-.014a.086.086,0,0,1-.047-.013c-.021-.013-.013-.034-.013-.054s-.027-.027-.047-.013-.047-.027-.067-.034-.04.007-.067.041-.027,0-.027-.054.027-.034.047-.034.02-.006.047-.013.034.013.047.027a.066.066,0,0,0,.034.02l.044-.01.023.057c.006.013.1.04.113.027a.116.116,0,0,0,.021-.088c0-.033,0-.04.02-.06s.006-.033-.014-.047-.02-.02-.006-.033.006-.021.013-.047.027-.014.04-.007a.276.276,0,0,1,.047.02c.034.013.04-.007.034-.047a.189.189,0,0,1,.006-.067.061.061,0,0,0,.014-.047c0-.02-.007-.04-.027-.027s-.013.014-.04.007a.066.066,0,0,1-.047-.047.045.045,0,0,0-.034-.053c-.033-.014,0-.034.04-.041s.047-.027.047-.053a.084.084,0,0,1,.007-.054c.034-.074.067-.094.067-.134s.034-.074.074-.107a.1.1,0,0,0,.04-.1c-.007-.033-.047-.04-.094-.047s-.073-.053-.1-.073-.034-.027.006-.027a.129.129,0,0,1,.074.02.2.2,0,0,0,.107,0c.041-.014.047,0,.074.013s.047-.006.067-.04a.1.1,0,0,0,.007-.094.068.068,0,0,1,.039-.087h0a.057.057,0,0,0,.047-.04.148.148,0,0,0,.034-.074c0-.027-.041-.054-.081-.067s-.013-.04-.013-.04a.452.452,0,0,1,.074.006c.046.007.04-.006.04-.02a.053.053,0,0,1,.027-.053c.02-.014.02-.02.013-.041s.027-.006.027-.006.007.013.04.027.033.033.007.04-.02.027,0,.04a.048.048,0,0,1,.026.047c0,.027,0,.02.021.04s-.007.04-.041.04-.033,0-.04.034a.079.079,0,0,1-.053.06c-.027.007-.021.014-.007.04a.1.1,0,0,1,.02.068c0,.04.027.026.047,0s.053-.021.08-.034a.042.042,0,0,0,.02-.055.041.041,0,0,0-.02-.019c-.027-.02-.027-.04,0-.067s.047.007.074.034.027.007.047-.014.02-.053,0-.047-.02.007-.013-.02a.08.08,0,0,1,.04-.06c.034-.027.027-.06.027-.094s.013-.04.04-.033H61.2c.046,0,.046.02.046.067s.027.047.041.02.013-.02.013-.047a.141.141,0,0,1,.007-.054c.006-.02,0-.033-.027-.02s-.04,0-.04-.027-.007-.02-.02-.06-.02-.04-.02-.067a.072.072,0,0,1,.026-.06c.02-.014.041-.027.027-.041s-.02-.02-.047.007-.04.013-.053-.02a.7.7,0,0,1-.034-.074.142.142,0,0,0-.067-.074c-.033-.013-.027-.026,0-.033a.125.125,0,0,0,.047-.007.069.069,0,0,0,.067-.027c.02-.026.02-.013.047-.02s.027-.02.027-.053,0-.034.033-.047.014-.02,0-.034-.006-.027-.027-.033a.046.046,0,0,1-.033-.034.06.06,0,0,0-.067-.027c-.027.007-.047.014-.047-.006-.007-.041-.074-.027,0-.074.013-.007.007.007.013.02s.021.02.047.013.034.007.061.02.047,0,.06-.026-.013-.047-.034-.061-.013-.033.007-.04.02-.02,0-.02-.08-.067-.087-.08-.033-.027-.08-.027-.027.02-.094.027c-.014,0-.074-.081-.041-.081s.027.007.054,0,.027-.047.027-.06c-.007-.054.034-.074.047-.1s.027-.013.027.007a.339.339,0,0,0,.033.087c.02.054.074.02.094.007a.089.089,0,0,1,.04-.02c.02-.007.047-.014.034-.047-.061-.087-.034-.248,0-.181.006.02.027.027.047.04s.02.013.013.06a.543.543,0,0,1,0,.114c-.007.061.054.027.107-.006a.111.111,0,0,0,.061-.094.278.278,0,0,0-.094-.141.028.028,0,0,1-.014-.037l.007-.01.047-.034c.02-.02.014-.033-.007-.04s-.02-.04-.04-.06-.013-.034.007-.054.02-.033.04-.047.014-.026,0-.033-.02-.027-.047-.02a.361.361,0,0,0-.08.007c-.047.006-.054.026-.081.067a.113.113,0,0,1-.073.08.936.936,0,0,1-.108.06c-.067.054-.094.061-.107.034-.02-.007-.034.006-.067.067-.02.033-.034.02-.034,0a.208.208,0,0,1,.007-.061c.007-.02.007-.053.034-.06s.033-.033.06-.007c.047.014.054.007.087-.026a.47.47,0,0,1,.092-.047c.041-.014.047-.04.067-.081a.2.2,0,0,1,.054-.087c.034-.027.04-.027.034-.08a.2.2,0,0,1,.1-.108.221.221,0,0,0,.087-.046.366.366,0,0,1,.061-.027.045.045,0,0,0,.033-.054c-.007-.02-.007-.033-.027-.02a.3.3,0,0,1-.067.02c-.04.007-.047-.007-.073-.04s-.047-.02-.061-.007-.013.034-.047.034a1.173,1.173,0,0,1-.127-.041,1.113,1.113,0,0,1-.2-.08.7.7,0,0,1-.134-.154c-.02-.027-.06-.06-.087-.094a.7.7,0,0,0-.228-.1.31.31,0,0,0-.174.067.493.493,0,0,1-.1.081c-.04.02-.047.054-.06.087a.079.079,0,0,1-.074.054.3.3,0,0,0-.107.04.125.125,0,0,1-.1-.014c-.021-.013-.021-.013-.027.021s-.007.033-.034.02-.02-.02-.013-.041a.064.064,0,0,0-.014-.067c-.02-.02-.013-.067-.006-.12s-.094-.067-.134-.067-.067.033-.1.087a.2.2,0,0,1-.107.074.248.248,0,0,1-.094.006s.027-.013.06-.026a.416.416,0,0,0,.094-.074,1.073,1.073,0,0,0,.081-.087.164.164,0,0,1,.1-.047.363.363,0,0,1,.127-.007c.061,0,.061.02.1.054s.081,0,.121-.027a.354.354,0,0,0,.073-.054c.027-.02.027-.054.021-.107A.158.158,0,0,1,60.208,35a.129.129,0,0,1,.1-.06c.054-.007.067-.027.067-.047s0-.027.027-.054a.147.147,0,0,1,.067-.019.13.13,0,0,0,.047.066.078.078,0,0,0,.08.013.184.184,0,0,0,.047-.006c.061-.014.262-.074.262-.074l-.014-.047s-.194.06-.255.074a.134.134,0,0,1-.04.006c-.02,0-.027-.006-.053-.02s-.022-.023-.029-.046a.231.231,0,0,0,.089-.047.311.311,0,0,0,.054-.061c.006-.013.006-.04.02-.053s.05-.035.073-.054a.144.144,0,0,1,.088-.034H61c.041,0,.114,0,.128-.02a.212.212,0,0,0,.033-.1.369.369,0,0,0-.006-.094c-.007-.014-.054-.081-.067-.1a1.923,1.923,0,0,0-.128-.188,1.947,1.947,0,0,0-.167-.133c-.02-.014-.114-.047-.134-.061a.758.758,0,0,0-.1-.054.807.807,0,0,0-.094-.033h0v-.007c.009-.012.024-.018.024-.035a.174.174,0,0,0-.02-.074.36.36,0,0,0-.12-.134c-.034-.027-.074-.054-.1-.074a.19.19,0,0,1-.04-.04c0-.007-.007,0,0-.007.06-.053.1-.107.154-.107.007,0,.013.007.027.007a.265.265,0,0,1,.053.027c.027.013.021.04.054.067a1.1,1.1,0,0,0,.255.087.8.8,0,0,0,.241.053h.054s.006,0,.013-.02a.013.013,0,0,0-.013-.02H61c-.061,0-.054,0-.228-.054a.83.83,0,0,1-.242-.08c-.006,0-.013-.033-.053-.067a.278.278,0,0,0-.067-.033.077.077,0,0,0-.04-.007c-.088,0-.135.074-.181.114a.049.049,0,0,0-.021.04c.007.067.088.1.155.154a.428.428,0,0,1,.107.121.142.142,0,0,1,.02.053h0a.151.151,0,0,1-.052-.063.142.142,0,0,0-.06-.087,1.447,1.447,0,0,0-.174-.114.45.45,0,0,0-.181-.04.108.108,0,0,1-.094-.014.17.17,0,0,0-.081-.047c-.04-.013-.013-.04.007-.04a.03.03,0,0,0,.02-.047,1.088,1.088,0,0,0-.08-.12c-.034-.047-.074-.027-.141-.014a.306.306,0,0,1-.141-.006c-.047-.007-.047.013-.047.047s-.02.04-.047.046a.362.362,0,0,0-.073.014c-.04.013-.081.02-.067.007s.047-.054.073-.081a1.3,1.3,0,0,1,.141-.127c.034-.02.094,0,.141,0a.152.152,0,0,1,.06.006c.027.007.041.027.081.034s.033.013.073.033a1.383,1.383,0,0,1,.128.088c.06.04.027.06.027.1s.047.02.08.007.04.02.074.033.047,0,.067-.027.02-.026.04-.026.04-.02.06-.034a.144.144,0,0,1,.078-.02c.04,0,.054.007.087.007a.278.278,0,0,1,.107.047.224.224,0,0,0,.1.033.616.616,0,0,1,.161.067c.047.02.06.02.114.04a.094.094,0,0,0,.107-.033c.013-.02,0-.04-.02-.067S61,33.269,61,33.236a.118.118,0,0,0-.046-.094.1.1,0,0,1-.041-.074.212.212,0,0,0-.073-.087.924.924,0,0,0-.148-.081.637.637,0,0,0-.194-.033c-.04,0-.04-.034-.047-.054a.039.039,0,0,0-.046-.03l-.008,0c-.02.014-.027.007-.047-.006a.043.043,0,0,1,.007-.054l.007-.06a.33.33,0,0,1-.007-.121c0-.054-.04-.054-.06-.06s-.041-.02-.081-.034-.087-.027-.141-.04a.606.606,0,0,0-.14-.02c-.034,0-.034.007-.047-.02s-.007-.02-.034-.041a.165.165,0,0,0-.094-.026c-.033,0-.013-.02-.02-.041s0-.033.02-.026.014-.027,0-.047a.185.185,0,0,1-.013-.061.044.044,0,0,0-.034-.047c-.02-.006-.02-.02-.02-.046s0-.041.027-.047a.047.047,0,0,0,.04-.054.11.11,0,0,0-.033-.081.117.117,0,0,1-.027-.066c0-.027.007-.041-.013-.061s-.034-.02-.067-.02-.047-.013-.047-.04.013-.02.006-.034a.758.758,0,0,1-.06-.08c-.02-.02-.007-.04,0-.061a.118.118,0,0,0-.027-.087.045.045,0,0,0-.054-.02c-.026.007-.033-.013-.046-.047s-.021-.1-.034-.14-.02-.081-.033-.121a.2.2,0,0,0-.088-.107c-.026-.014-.013-.041,0-.067s-.013-.054-.04-.074a.1.1,0,0,1-.02-.074c0-.02-.013-.027-.034-.013s-.006-.014,0-.047-.013-.047-.04-.087a.117.117,0,0,1-.027-.061.14.14,0,0,0-.033-.073A.276.276,0,0,1,59,30.413c-.02-.033-.02-.054-.04-.074s-.02-.06-.034-.1a.456.456,0,0,0-.04-.141.23.23,0,0,0-.107-.08.3.3,0,0,0-.081-.027.167.167,0,0,1-.1-.04c-.034-.021-.04-.034-.081-.034a.149.149,0,0,1-.087-.027.127.127,0,0,0-.067-.007c-.02.014-.033.007-.04-.006a.056.056,0,0,0-.027-.02c-.013-.02-.047-.027-.094-.014a.1.1,0,0,0-.073.054c-.02.027-.021.027-.061.027s-.02-.034.007-.041.08-.046.08-.066-.013-.034-.047-.054a.894.894,0,0,0-.114-.06.044.044,0,0,1-.028-.056l0,0c.006-.02,0-.04-.034-.04a.121.121,0,0,1-.08-.034c-.027-.02-.047-.026-.067,0s-.02.034-.047.021a.746.746,0,0,1-.094-.074.1.1,0,0,1-.014-.114.123.123,0,0,0,0-.071l.029-.047h.005a.148.148,0,0,1,.127-.06v-.047c-.04,0-.063.03-.094.047l.008-.014c.013-.02.026-.02.06-.033a.127.127,0,0,0,.067-.06.242.242,0,0,0,.007-.1.2.2,0,0,1,.02-.094.181.181,0,0,1,.067-.08c.047-.041.047-.061.04-.081s.047,0,.074,0,.006-.047.013-.08.027-.067.034-.1-.02-.06-.034-.087.027-.04.047-.054a.2.2,0,0,0,.054-.046c.013-.02.04-.027.033.02s.047.006.067-.014a.057.057,0,0,1,.047-.026c.047-.014.067-.047.04-.068s-.02-.033,0-.053-.04-.034-.026-.061.04-.013.067.014.067.007.053-.014a.118.118,0,0,1,.007-.067c.007-.02.034-.053-.007-.087s0-.047.034-.053.06-.041.1-.067-.006.02,0,.04.014.04.034-.02.08-.087.074-.108c-.007-.047-.067.007-.1.021s-.047-.034,0-.068.027-.046-.047-.04a.072.072,0,0,1-.086-.052.088.088,0,0,1,0-.028.418.418,0,0,0,0-.1c-.007-.04.04-.006.074-.026s.04-.014.04.006a.047.047,0,0,0,.074.04c.054-.027.006-.06.006-.1s.061-.04.047-.02,0,.033.034.067-.02.08-.054.161.04.06.134.04.094-.121.2-.107.107-.014.114-.02a.2.2,0,0,0-.054-.114c-.04-.047-.027-.1.02-.114s.007-.061-.02-.1.007-.067.007-.094a.051.051,0,0,1,.047-.053c.026,0,.073.006.073.053s.021.054.061.081.027-.041,0-.074-.027-.06.013-.054.04,0,.034-.02a.07.07,0,0,1,0-.074c.02-.04.006-.033-.027-.02s-.047.027-.06-.027-.041-.04-.088.014-.047,0-.027-.061.061-.053.115-.053.08.013.053.047.007.06.074.033-.02-.033,0-.073.027-.02.04.006.034.027.04,0,.04-.026.04-.087.054-.053.034-.02.04.02.067,0a.128.128,0,0,1,.087-.033.056.056,0,0,0,.061-.047c.006-.027.033-.027.06-.054s-.007-.04-.027-.094.034-.053.047-.013.034.033.047.013a.084.084,0,0,1,.054-.04c.026-.007.047,0,.02.027s-.087.067-.108.087.021.033.047.007.054.006.067.02.014.033.047.02.007-.014-.013-.054.013-.06.067-.08.047-.047.047-.081.047-.067.06-.06a.147.147,0,0,0,.094-.02c.047-.027.013-.034-.02-.027s-.013-.04,0-.067.047.02.08.007.054.02.034.053.013.054.067.047.047-.053.047-.1.033-.121.067-.121-.007.033-.02.074a.069.069,0,0,0,.029.093l.018.007c.053.014.02.02-.014.034s-.02.054,0,.067.081,0,.114.007.067-.02.061-.047-.007-.027.027-.02a.214.214,0,0,0,.093-.021c.02-.006.081-.033.041-.073s0-.074.026-.108.007-.053-.006-.033-.034.013-.094.027-.034.053-.047.053.007-.027-.027-.04.007-.027.04-.053,0-.068-.006-.108.033-.053.033-.027.014.027.02,0,.034-.013.047-.006.04.006.027-.027,0-.047.02-.054.02-.027,0-.04-.02-.034-.047-.054-.013-.06,0-.053.027-.02.027-.041a.078.078,0,0,1,.074-.053c.033,0,.026-.047,0-.074s-.114.027-.175.067-.06-.013-.14.007a.116.116,0,0,1-.141-.054c-.02-.033-.027-.02-.054,0s-.047.041-.067-.006c-.04-.074.007-.047.04-.054s.021-.034-.02-.04-.053-.054-.1-.047-.007.053-.047.08-.047.047-.027.081,0,.067-.027.053-.027-.013-.013-.033-.02-.027-.041-.014a.074.074,0,0,1-.066.014c-.027,0-.061,0-.061.027s-.006.033-.033.02-.041-.027-.067-.027-.067-.013-.094.033-.047-.006-.114-.026-.02-.054-.074-.088-.013-.053.02-.053,0-.047-.06-.061-.081-.006-.04.041-.054.04-.054.067-.027-.014-.06-.014-.034,0-.061-.026-.073-.041-.04-.1-.047-.047-.1-.02-.021-.074-.094-.074-.041-.02-.041-.06-.093.007-.127.007a.242.242,0,0,0-.141.033.524.524,0,0,1-.154.1c-.027,0-.08,0-.094.026s-.027.054-.107.061-.087.006-.081.033.034.007.094.034,0,.107-.04.14a.971.971,0,0,0-.114.108.184.184,0,0,1-.127.1c-.081.014-.134.047-.141.074s.054.074.074.114-.114.114-.108.168-.073.067-.18.053a.407.407,0,0,0-.249.047c-.04.027-.113,0-.14.014s-.054.006-.074-.034a.114.114,0,0,0-.094-.054c-.04,0-.074.014-.08-.013s.033,0,.033-.033-.041-.069-.1-.069-.047-.026-.04-.046.02-.041-.02-.074-.013-.04.02-.054.04-.08,0-.134a.194.194,0,0,1,.014-.181c.026-.047.093-.06.093-.094s.047-.033.061-.033.047-.04,0-.074a.3.3,0,0,1-.07-.1c-.02-.033-.034-.08-.074-.1s-.053-.054-.08-.121c-.02-.047-.04-.121-.094-.06s-.06.093-.06-.034-.114-.087-.134.013c-.014.068-.047.081-.114.121s-.027-.007-.047-.053-.081-.054-.128,0a.13.13,0,0,1-.185-.012l0,0c-.047-.054-.034.04-.041.081a.14.14,0,0,1-.073.134c-.068.047-.047.087-.088.14s-.04.007-.026-.006a.051.051,0,0,0,.013-.054.052.052,0,0,1,.027-.053c.013-.014.04-.034.033-.054s-.094,0-.094-.02.027-.007.054-.014.074-.033.02-.094-.067-.046-.141-.046-.04-.027,0-.041.041-.013.034-.047-.007-.006-.08-.046-.075-.039-.112-.015a.155.155,0,0,0,.024-.019c.013-.02-.014-.061-.034-.081a.791.791,0,0,0-.094-.114c-.006-.013-.026-.06-.033-.073a.539.539,0,0,1-.04-.054.229.229,0,0,0-.068-.074c-.026-.013-.02-.04-.013-.06a.374.374,0,0,0,.013-.094c0-.035.006-.07.011-.105v-.022a.136.136,0,0,1,.011-.028,1.175,1.175,0,0,1,.069-.113.55.55,0,0,0,.061-.127.36.36,0,0,0-.013-.118v-.011a.068.068,0,0,1,.026-.062s0-.014.008-.019a.494.494,0,0,0,.059-.065.258.258,0,0,1,.107-.04s.1-.021.121-.027a.077.077,0,0,1,.067.013c.02.007.054.087.074.114a.4.4,0,0,0,.067.08c.013.021.053.014.067.014a.418.418,0,0,0,.094-.06c.02-.021.067-.067.087-.094a.147.147,0,0,1,.067-.047.068.068,0,0,1,.067.013c.013,0,.04.007.054.007a.446.446,0,0,0,.08-.02c.02-.007.04-.034.047-.04s.027,0,.047-.007a.252.252,0,0,0,.06-.034c.027-.02.007.021-.006.041a.609.609,0,0,1-.054.06c-.007.007-.007.02.02.007a.817.817,0,0,0,.114-.087.453.453,0,0,0,.06-.128.745.745,0,0,1,.054-.114c.027-.04.06-.08.074-.1a.066.066,0,0,0,0-.061.079.079,0,0,1-.007-.04c0-.02.027-.074.027-.1s-.034-.02-.054-.026.02-.034.034-.034.02-.007.04-.02.013-.06.013-.094a.346.346,0,0,1,.061-.121.2.2,0,0,1,.087-.04c.02-.006.033-.006.047-.02s-.014-.04-.02-.074.047-.067.073-.073a1.269,1.269,0,0,0,.175-.081h0l.025.038V22.6c0-.008-.016-.021-.021-.031s.011-.015.01-.022a.165.165,0,0,0,.031-.02.247.247,0,0,0,.04-.061.084.084,0,0,1,.054-.06c.047-.013.094-.027.1-.04a1.29,1.29,0,0,1,.148-.134.285.285,0,0,1,.107-.047c.04-.007.114-.041.114-.074s0-.08.02-.1.047-.053.054-.06.027-.02.013-.027-.067.007-.053-.02a.481.481,0,0,0,.04-.06.252.252,0,0,1,.04-.074c.02-.02.074-.1.094-.127a.786.786,0,0,0,.054-.087.245.245,0,0,1,.053-.074c.027-.02.074-.034.087-.047s.02-.027,0-.034-.094-.04-.087-.053.027-.02.067-.047.047-.04.067-.054a.417.417,0,0,1,.047-.047.228.228,0,0,0,.06-.06c.007-.013.021-.034.027-.047s.014-.027.027-.007a.053.053,0,0,0,.047.02c.013,0,.027.007.034-.02s-.007-.06.02-.033a.177.177,0,0,0,.1.06.422.422,0,0,0,.087,0c.014-.007.02-.02.047-.013s.054.013.061-.007.013-.034.027-.013.013.053.026.04a.2.2,0,0,1,.041-.04c.021-.013.06-.041.046-.067s-.033-.041-.033-.074.013-.067.033-.054.061.074.061.047-.014-.08,0-.074a.294.294,0,0,1,.06.067.362.362,0,0,1,.081.161c.006.074-.007.074.013.114a.344.344,0,0,0,.107.094c.027.007.034.013.047.007s.027-.007.034.013a.1.1,0,0,0,.02.087.312.312,0,0,0,.087.094.107.107,0,0,1,.04.108.551.551,0,0,1-.067.127c-.027.04-.074.087-.06.114a.13.13,0,0,1,0,.087c-.007.027-.027.034-.041.047s-.046.02-.04.047,0,.053-.013.06-.02.007-.04.047a.456.456,0,0,1-.04.067s-.041.007-.041.04.02.041.007.061-.06.074-.074.074a.073.073,0,0,0-.047.013.167.167,0,0,1-.067.047c-.027.013-.114.06-.127.114a.159.159,0,0,0,.02.134c.027.04.074.074.06.107,0,.007-.026-.02-.053-.013a.341.341,0,0,0-.1.06.427.427,0,0,0-.067.027.213.213,0,0,0-.054.1c0,.007.007.021.034.021s.033-.021.074-.027a.151.151,0,0,1,.094.006c.013,0,.02.007.006.021a.047.047,0,0,0,0,.04c0,.006-.087-.027-.107-.007s-.074.047-.074.067a.085.085,0,0,0,.027.06c.013.006.034-.067.04-.073s.034-.014.034,0a.185.185,0,0,1-.02.06c.006.013.033.02.06.013a.383.383,0,0,1,.081-.026c.02,0,.033.026.04.026a.151.151,0,0,0,.094,0,.114.114,0,0,0,.073-.04c.007-.013.007-.053.034-.033s.02.013.067.006.107-.047.134-.047.033.021.007.034-.061.047-.081.047-.094-.007-.1.027,0,.067-.02.087a.068.068,0,0,1-.061.027c-.033,0-.08,0-.053.026a.28.28,0,0,0,.04.027s.027,0,0,.02-.061.041-.047.061.02.013.047.013.06.014.04.047-.027.087-.067.121-.087.06-.114.053a.037.037,0,0,1-.027-.006c-.013-.007-.033-.034-.06-.02s-.054.026-.04.053.02.047.006.067a.162.162,0,0,1-.087.047.173.173,0,0,1-.06.007c-.027,0-.081,0-.074.033s.007.034.027.041.033.006.027.026-.02.034-.007.054a.112.112,0,0,1,.013.06c0,.014-.006.054.014.067s.067.021.067-.02.007-.073.047-.073a.1.1,0,0,0,.067-.021.159.159,0,0,1,.087-.04c.04,0,.094.007.114-.027s.013-.06.067-.06.134,0,.121-.04a.071.071,0,0,0-.054-.054c-.02-.006-.114-.02-.087-.053a.1.1,0,0,1,.074-.041c.02,0,.053.007.06-.02s0-.053.027-.033.047.067.094.094.08.02.067-.014-.007-.033-.02-.053.006-.061.026-.061.007-.007.034-.027.059-.039.087-.06c.007-.007.034-.007.034-.027l.006-.026-.026-.041c-.014-.02.04-.067.053-.08s.054-.007.067-.04-.027-.081-.007-.1.148-.154.2-.147a.078.078,0,0,0,.087-.041c.013-.02.006-.053.02-.067s.047.034.054.007.04-.04.046-.06.02-.027.041-.047a.383.383,0,0,1,.067-.04c.02-.014.06-.054.087-.074a.86.86,0,0,0,.08-.067.225.225,0,0,1,.188-.007.057.057,0,0,0,.06-.027.158.158,0,0,0,.014-.074c-.02-.04-.034-.033.006-.073.074-.074.2.047.215.033s.054-.007.074-.04.047-.067.06-.094.034-.094.067-.087.013.007.034.013.04.041.073.047.054-.026.1-.087c.013-.02.033-.04.047-.027s.053.081.08.074a.078.078,0,0,0,.054-.007.453.453,0,0,0,.1-.114.554.554,0,0,0,.021-.08c.006-.02,0-.02.026-.04a.854.854,0,0,0,.081-.094.083.083,0,0,0,.006-.06.086.086,0,0,1,.014-.068.233.233,0,0,1,.08-.093c.047-.027.081-.1.094-.114a.5.5,0,0,0,.067-.054c.014-.02.027-.027.034-.054s.02-.087.047-.1a.476.476,0,0,1,.147-.087c.047-.007.054-.034.087-.034s.081.034.088-.027.02-.08.08-.12.121-.067.181-.1a.458.458,0,0,0,.154-.114c.034-.047.1-.107.107-.154v-.01a.367.367,0,0,0,.213.044c.128-.034.2-.369.342-.5a2.106,2.106,0,0,0,.356-.53c.033-.08.113-.08.227-.033s.4.194.564.113.61-.067.663-.207a2.5,2.5,0,0,0,.081-.5c.013-.161-.034-.369.288-.389s.369-.228.436-.308.114-.309.275-.423.12-.59.274-.489.3.027.4.1.235.081.248.007.034-.114-.033-.161-.128-.187-.074-.221a.426.426,0,0,1,.194-.121A.451.451,0,0,0,68,16.752c0-.127.014-.3.014-.415A2.044,2.044,0,0,0,68,16.1l-.043.018V16.1a6.247,6.247,0,0,1-.114-.637,4.709,4.709,0,0,0-.214-.677c-.02-.094-.114-.328-.013-.442a3.1,3.1,0,0,0,.3-.349c.06-.094.013-.107.214-.094a6.856,6.856,0,0,0,.731.02.476.476,0,0,0,.362-.221c.02-.094-.041-.167-.02-.409s.093-.234.127-.368a1.535,1.535,0,0,1,.087-.456,1.262,1.262,0,0,0,.107-.483,3.258,3.258,0,0,1-.033-.483,3.782,3.782,0,0,0,.02-.476c0-.127-.02-.328.04-.4a2.022,2.022,0,0,0,.255-.476,1.958,1.958,0,0,0-.134-.456C69.611,9.511,69.58,9.431,69.645,9.337Zm-22.676,32.8c-.008,0-.008,0-.017-.009h0a.242.242,0,0,1,.117.054l-.006,0a.432.432,0,0,0-.094-.052ZM39.5,41.182c-.034.021-.161.094-.155-.006s-.033-.107-.093-.107a1.166,1.166,0,0,0-.2.073.469.469,0,0,0-.221.148.793.793,0,0,0-.087.127c-.013-.033-.007-.094-.06-.08h0c.054-.014.033.033.047.006a1.017,1.017,0,0,1,.087-.127.44.44,0,0,1,.221-.148,1.6,1.6,0,0,1,.2-.073c.061-.007.107.007.094.107s.121.027.154.007.188-.081.235-.1a.091.091,0,0,0,.06-.094.214.214,0,0,1,.059-.131c.025.017.048.033.015.071a.184.184,0,0,0-.06.134.093.093,0,0,1-.061.094,2.534,2.534,0,0,0-.235.1ZM44.4,42.805a.181.181,0,0,0-.029-.048c.01,0,.019.006.027.021v.007h0c0,.008.008.013.012.022h0c0,.015,0,.015-.01,0Zm-3.909-4.1c-.008.021-.018.045-.026.067-.029-.04,0-.094.013-.141s.107-.08.161-.1.08.006.127.02.047-.007.107-.02.067-.046.093-.091c.01.026.024.054.015.071-.027.047-.034.08-.094.094s-.054.033-.108.02-.067-.041-.127-.02-.147.041-.161.1Zm-3.246.1c-.005,0-.007-.009-.012-.01.013,0,.012.008.021.017h0Zm-1.46-.563h0c.007.008.01,0,.013,0h0a.02.02,0,0,1-.016,0Zm5.169-.128c-.014.034-.041.067-.054.094l-.017.031h0c-.034-.047-.007-.074.007-.1a.808.808,0,0,0,.053-.094c.013-.034.047.007.094.041s.094.013.148.02a.438.438,0,0,0,.147-.034.352.352,0,0,1,.148-.007c.053.007.06.021.093.074v.008a.1.1,0,0,0-.1-.055h-.013v.047h.01a.644.644,0,0,0-.124.006.468.468,0,0,1-.148.033c-.06-.006-.107.021-.148-.02s-.083-.081-.1-.048Zm-3.845.755-.016-.01a.047.047,0,0,0,.033-.006l-.007.012v.006ZM23.332,25.322h0A.23.23,0,0,1,23.4,25.3H23.39A.212.212,0,0,0,23.332,25.322Zm.085-.031c.008,0,.011-.006.02-.007-.009,0-.011.005-.019.007ZM42.3,42.965h0c.041-.034.074.04.074.04s.034.02.074.04.114.014.14.041.041.067.074.093a.8.8,0,0,0,.188.108.551.551,0,0,1,.127.067.226.226,0,0,0,.087.03.2.2,0,0,1-.1-.03.551.551,0,0,0-.127-.067.765.765,0,0,1-.188-.108c-.034-.033-.047-.073-.074-.093a1.276,1.276,0,0,0-.141-.041.4.4,0,0,1-.073-.04S42.338,42.954,42.3,42.965Zm-.145-4.01h0v0Zm.1-.057Zm-.82-.372h0c-.009,0-.015-.006-.02-.026Zm.118.515-.04-.035Zm-.1-.455a.084.084,0,0,0,.023.023.158.158,0,0,0-.031-.009l-.012-.014Zm.2.529c.009.006.019.007.028.013s-.013,0-.018,0Zm.172.043c-.007,0-.014,0-.021,0s-.011,0-.018,0Zm.066.072a1,1,0,0,1-.134,0,.185.185,0,0,1-.071-.033.346.346,0,0,0,.118.033.446.446,0,0,0,.157-.038l-.016.014c-.018.006-.026.024-.052.024Zm-.415,4.062a.126.126,0,0,1,.074.014c.04.013.053.053.107.094a.088.088,0,0,0,.067.012.08.08,0,0,1-.08-.012c-.054-.041-.067-.074-.108-.094a.225.225,0,0,0-.073-.014h.013Zm2.326-4.88Zm4.647-1.456c-.034.024-.072.045-.1.028l-.007-.006c.034-.007.067-.016.1-.022ZM40.3,26.693c-.029.018-.088.037-.107.062l-.008-.008v-.006a.074.074,0,0,1,.023-.02.174.174,0,0,1,.038-.014c.008,0,.006-.01.014-.013l.032-.014v-.014h0S40.3,26.691,40.3,26.693Zm-.289,2.191c-.028,0-.077-.012-.106-.012h.094a.077.077,0,0,0,.029-.01v.015A.051.051,0,0,1,40.006,28.884Zm-.141.387a.374.374,0,0,1-.146.124c-.018.009-.022.019-.038.028.013-.009.024-.02.037-.028a.522.522,0,0,0,.179-.2.176.176,0,0,1-.016.049Zm.04-.094a.165.165,0,0,0,0-.07.187.187,0,0,0,.008.028.208.208,0,0,1,0,.025Zm.424-.432h0Zm-.022,0h-.019a.356.356,0,0,0-.079-.015.362.362,0,0,1,.1.011Zm-.19,0Zm.248-.347h-.018c.007-.027.074-.027.114-.034a.131.131,0,0,1,.075.019h0l.025.014V28.37h.008v.044a.178.178,0,0,0-.1-.033c-.036-.012-.089-.009-.1.01Zm.029-.714.005.011h0ZM38.062,40.389Zm-6.972-17.5.007.032v.047c0,.042-.007.087-.01.128C31.08,23.046,31.1,22.973,31.09,22.894Zm.609.451.012.006c-.022.024-.058.051-.052.084C31.639,23.4,31.672,23.371,31.7,23.345Zm.027-.021-.011-.007h0l.011.006Zm-.646-.5v-.009l.007.011Zm1.178.844h0c.006.031.009.074.013.117-.007-.048-.011-.085-.016-.122Zm-4.228-.2-.005-.012a.238.238,0,0,1,.105-.044.077.077,0,0,1,.045.008.167.167,0,0,0-.052.021.452.452,0,0,1-.1.025Zm.307,1.908-.024.006h.011Zm.418-.15a.056.056,0,0,1-.055.016h-.019a.239.239,0,0,0,.071-.018Zm-.575,1.2c-.009,0-.017.006-.026,0l-.014-.008A.156.156,0,0,0,28.18,26.429Zm-2.113-.761a.1.1,0,0,1-.067.025.09.09,0,0,0,.066-.025.089.089,0,0,1,.056-.028.089.089,0,0,0-.052.028Zm-.491-.275h0a2.589,2.589,0,0,1-.264.01,2.656,2.656,0,0,0,.268-.01Zm2.387.9c.032.028.068.063.1.092-.006-.007-.017,0-.022-.012a.227.227,0,0,0-.156-.1c-.015,0-.023-.015-.039-.018a.184.184,0,0,1,.12.037Zm-.255-.048a.49.49,0,0,1-.151-.059c-.018-.01-.034-.021-.051-.032l-.054-.038-.038-.032a.151.151,0,0,0-.1-.064l-.01-.006c.011-.01.024-.014.045,0,.074.053.188.14.235.174a.364.364,0,0,0,.16.055Zm-.837-.084c-.007-.008-.02-.018-.029-.027s.011.007.015.011a.206.206,0,0,0,.061.035Zm-.415-.318h0c.02-.011.033-.013.044-.008a.046.046,0,0,0-.041.007Zm-1.941-.587a1.275,1.275,0,0,0-.178.058h0a1.656,1.656,0,0,1,.192-.063Zm-.69.01c.1-.009.145-.022.173-.021-.026,0-.07.011-.17.02ZM35.892,37.787c-.011.006-.011.022-.017.033C35.88,37.811,35.88,37.79,35.892,37.787Zm.9,1.02a.062.062,0,0,0-.038-.027l0-.005a.061.061,0,0,1,.044.032Zm6.347,4.573h.011c.054-.007.074.033.114.053a.172.172,0,0,0,.05.011h0a.1.1,0,0,1-.061-.014c-.041-.008-.068-.048-.113-.05Zm.674-4.969V38.4h.013l.009.007Zm7.645-1.249H51.45c-.005,0-.009-.006-.014-.007Zm3.317-.586h0a.165.165,0,0,1-.123.035Zm2.71,1.064v.008c-.015-.012-.029-.027-.044-.039ZM27.061,26.222a.037.037,0,0,1-.024-.006l.026,0Zm-8.112-1.174h0a.758.758,0,0,1,.094-.013h0a.765.765,0,0,0-.094.015Zm-2.435.174h0a.137.137,0,0,1,.048-.031h0A.137.137,0,0,0,16.514,25.222Zm-1.126.291.035.01h0a.186.186,0,0,0-.041.008s.01-.009.006-.009Zm.244.044Zm1.261-.648a.276.276,0,0,1,.065-.036.182.182,0,0,0,.087-.036h0a.178.178,0,0,1-.086.036.275.275,0,0,0-.058.032Zm1.933.262a.33.33,0,0,1-.051.031l-.012.006a.292.292,0,0,0,.064-.038Zm-.087.051a.315.315,0,0,1-.087.012h0a.26.26,0,0,0,.088-.012Zm-.959-.33a.061.061,0,0,1-.046,0h0A.061.061,0,0,0,17.78,24.892Zm.018-.01a.393.393,0,0,1,.076-.052.449.449,0,0,0-.073.05Zm-.694-.214h0a.161.161,0,0,1,.088-.066.161.161,0,0,0-.092.066Zm1.783.423v.01h0l0-.011c0-.014.026-.02.046-.028h0c-.03.012-.058.016-.058.029Zm.49-.227s.007-.007.012-.007S19.382,24.863,19.377,24.864Zm.308.142h.022a.07.07,0,0,1-.027,0Zm2.351.53Zm.721.17c.008,0,.015-.007.024,0h-.025Zm.14.008h0Zm.138-.029h0l.014-.008h0Zm.083-.049a.2.2,0,0,0,.024-.026l0,0c-.01.01-.019.023-.03.032ZM35.991,37.755h0a.1.1,0,0,0,.054-.059l-.012.028-.013.014A.066.066,0,0,1,35.991,37.755Zm8.27,5.087h0a.457.457,0,0,1-.09-.015A.7.7,0,0,0,44.261,42.842Zm.358-.461a.108.108,0,0,1,.1.011.017.017,0,0,1,.017.009c.005.009,0,.011.011.018-.009-.008-.015-.021-.025-.025a.138.138,0,0,0-.109-.012Zm.236.216.02.012.006.006v.007h0a.336.336,0,0,1-.049-.035Zm.113.222a.456.456,0,0,1-.04-.067l.006.011c.027.013.034.02.034.04v.016Zm.308.051h.013c-.013.006-.024.009-.033,0a.033.033,0,0,1,.024,0ZM18.911,34.047c.009.07.018.136.031.2h-.006c-.034,0-.04-.02-.054-.054A.272.272,0,0,1,18.911,34.047Zm2.9,2.322a.07.07,0,0,1-.026-.033Zm12.514,1.72-.008.027-.044-.006a.1.1,0,0,1-.051-.044Zm2.59.792A.073.073,0,0,1,37,38.827l.012,0h0c-.033-.007-.065,0-.087.055a.087.087,0,0,1-.089.052.1.1,0,0,0,.077-.057Zm1.515,2.5h.012a.641.641,0,0,0,.2-.029h0a.52.52,0,0,1-.211.026Zm.248-.041Zm1.133-.647-.007-.006a.56.56,0,0,1,0-.208.093.093,0,0,1,.015.061c-.005.05-.007.1-.007.15Zm.221-1.011c-.047.033-.06.047-.094.033s-.093-.067-.1-.006-.074.134-.067.2a.486.486,0,0,1-.02.174c-.006.046-.023.131-.025.19,0-.015-.011-.025-.016-.043a1.375,1.375,0,0,1,.027-.221,1.145,1.145,0,0,0,.02-.174c-.006-.067.061-.147.068-.2s.073-.007.1.007.04,0,.094-.034a.651.651,0,0,0,.114-.147.09.09,0,0,1,.06-.074c.047-.014.114-.128.148-.161a2.316,2.316,0,0,0,.187-.255c.01-.017,0-.032,0-.049a.112.112,0,0,1,.01.123c-.04.067-.161.221-.188.255s-.094.147-.147.161a.091.091,0,0,0-.061.073.5.5,0,0,1-.109.145Zm3.509,3.411c.03,0,.063.006.088.007h0c-.023,0-.057-.008-.087-.01Zm1.468-.221h.007c.007.009.01.009.013.01s-.012-.007-.019-.013Zm.186-.113Zm.151.235a.011.011,0,0,0,.013,0v.013c0,.005.015,0,.019,0s-.031.007-.032,0Zm1.14-.622h0c.057-.025.06.023.084.062h-.011c-.02-.043-.031-.076-.072-.065Zm.292-.082h0a.158.158,0,0,1,.052-.012.219.219,0,0,0-.05.009Zm12.194-3.248h0a.03.03,0,0,1-.008.024ZM46.319,42.707h0v0Zm.458-.218h0a.392.392,0,0,0,.059.005h0a.529.529,0,0,1-.056-.005Zm.329-.276a.254.254,0,0,1-.034-.023h.007a.182.182,0,0,0,.041.027.065.065,0,0,0,.039,0A.056.056,0,0,1,47.106,42.213ZM56.573,44.5c.013-.018.019-.013.026-.007a.128.128,0,0,1,.014.043A.2.2,0,0,1,56.573,44.5Zm2.171-5.142h0a.345.345,0,0,0,.045-.056c.008-.011.021-.023.026-.031h0A.312.312,0,0,1,58.744,39.357Zm.173-.117v-.01l.014-.008S58.922,39.238,58.917,39.24ZM55.734,25.091a.423.423,0,0,1,.041-.033v.04h-.011v.018c-.008.006-.006.012-.025.015C55.694,25.138,55.721,25.105,55.734,25.091Z"/><path class="cls-1" d="M49.352,49.963a.323.323,0,0,0-.02-.141c-.02-.047-.006-.047-.027-.087l-.033-.067c-.014-.04-.027-.054-.067-.047a.16.16,0,0,1-.107-.02.3.3,0,0,0-.087-.054.12.12,0,0,1-.054-.094c-.007-.04-.027-.026-.027,0a.049.049,0,0,1-.043.054h-.011c-.047,0-.093,0-.087.054s.014.067,0,.094-.02.026-.04,0a.087.087,0,0,0-.067-.061.483.483,0,0,1-.094-.053c-.033-.02-.08-.041-.107,0a.087.087,0,0,1-.1.033c-.047-.007-.093-.013-.12.013s-.094.054-.034.054c.04,0,.034.034-.013.027s-.074-.02-.108,0-.033.027-.033.06-.007.047-.027.027-.013-.02-.027-.02,0-.007-.006-.027-.02-.053-.054-.053-.054.013-.074.053-.053.074-.04.014.034-.094.013-.094-.013.006-.026.047-.027.053-.041.026-.02-.026-.04-.02-.027,0-.047-.02a.082.082,0,0,0-.1-.027.324.324,0,0,0-.1.054.109.109,0,0,0-.047.1c.014.027.034.053,0,.053a.1.1,0,0,0-.047.007c-.02.007-.04.007-.047-.02a.069.069,0,0,0-.08-.034c-.04.007-.06.014-.081-.006s-.04-.034-.08,0a.459.459,0,0,1-.114.08c-.047.02-.04.054-.02.087s.053.034.094,0a.176.176,0,0,1,.04-.027c.02-.013.047-.006.034.014-.034.02-.041.047-.034.053s0,.034-.034.021-.04.006-.067.04a.341.341,0,0,1-.113.074.638.638,0,0,0-.1.053.48.48,0,0,0-.1.074c-.033.04-.053.067-.094.074s-.073.053-.093.073-.047.061-.094.061a.086.086,0,0,0-.094.06c-.02.054-.014.081,0,.1s.04.04,0,.073a.194.194,0,0,0-.014.215c.021.033.007.067.007.107a.118.118,0,0,1-.02.087.077.077,0,0,0,.034.1c.04.027.04.08.04.127s.013.054-.007.1a.126.126,0,0,0,.007.127c.027.04.027.034.067.034s.094,0,.114.027a.124.124,0,0,0,.087.053.091.091,0,0,1,.087.047.064.064,0,0,0,.083.036l0,0c.047-.007.108-.014.128.04s.047.08.1.053a.144.144,0,0,1,.128-.006.5.5,0,0,0,.127.02c.04.007.107.02.087.06s0,.061.034.027.067-.027.06,0,.04.027.02.054.007.026.027.013a.044.044,0,0,0,.022-.057l0,0c-.013-.027-.007-.027.014-.034s.026,0,.046-.013.034.013.041.04.02.027.033,0,.027-.054-.007-.06-.033-.027,0-.027.034-.007.041-.04a.3.3,0,0,1,.033-.087c.02-.04.047-.074.067-.047s.047.026.087,0a.387.387,0,0,1,.128-.061c.047-.013.073,0,.04.02s-.06.054-.007.067.054,0,.094-.013a.084.084,0,0,0,.06-.094.115.115,0,0,1,.041-.107.561.561,0,0,1,.127-.1.163.163,0,0,1,.134-.047c.054,0,.128,0,.141-.047s.02-.087.06-.1.074-.027.061-.054-.014-.013-.014-.047-.02-.04-.027,0,0,.061-.02.067-.027-.02-.047-.02-.033-.02,0-.033.027-.014.034-.041.007-.013.033-.033.027-.033.027-.074-.006-.067.027-.1.054-.061.04-.074-.013-.014-.013-.047-.007-.02.013-.027.04-.027.047-.08a.161.161,0,0,1,.047-.114.09.09,0,0,0,.054-.067c.006-.041.006-.054.033-.061s.027-.02.034-.047.02-.033.047-.047.067-.04.067-.073-.014-.034-.047-.067-.027-.04.013-.047a.11.11,0,0,0,.094-.034c.02-.027.027,0,.013.014a.066.066,0,0,0-.006.02.026.026,0,0,1-.032.02h0c-.033-.007-.027.02-.013.054s.006.067.06.006a.834.834,0,0,0,.081-.087.035.035,0,0,1,.043-.02l.01.007c.034.013.034-.014,0-.041S49.352,50.022,49.352,49.963Z"/><path class="cls-1" d="M62.18,42.159c-.026-.013-.033-.067-.026-.1s-.088-.02-.088-.02a.152.152,0,0,1-.06,0c-.033-.014-.04-.027-.067-.02s-.04.013-.054-.014-.013-.027-.04-.033-.04-.007-.047-.047-.033-.074-.074-.067a.179.179,0,0,0-.114.047c-.046.04-.093.093-.08.114s.027.053-.007.067-.06.047-.1.047a.127.127,0,0,0-.1.033c-.04.027-.027.047-.08.054a.149.149,0,0,0-.121.1.657.657,0,0,0-.053.114.257.257,0,0,1-.014.061.3.3,0,0,0-.027.094c0,.033.007.066-.02.087s-.007.013-.027.02-.027.02-.04.053-.02.067-.047.067a.046.046,0,0,0-.047.027.079.079,0,0,1-.033.047c-.027.02-.027.047-.027.081a.1.1,0,0,1-.034.093c-.026.027-.04.027-.046.067a.209.209,0,0,1-.027.091.2.2,0,0,1-.047.081c-.027.027-.041.047-.034.06a.076.076,0,0,1,.007.047.113.113,0,0,1-.027.074.7.7,0,0,0-.047.08c-.027.054-.033.094-.054.114s-.02.027-.04.067-.02.047-.033.074-.007.04-.027.054a.039.039,0,0,0-.011.053.049.049,0,0,0,.018.014c.033.013.033.026.006.026a.115.115,0,0,0-.08.054.119.119,0,0,0-.027.081c0,.04,0,.053-.027.053s-.047.047-.033.094a.408.408,0,0,1,.04.154.5.5,0,0,0,.007.154c.02.014.033.054,0,.041s-.034-.007-.027.026a.374.374,0,0,1-.007.088.382.382,0,0,0-.013.147c.013.034.02.047,0,.067s-.02.02-.014.04.014.034.007.047.013.02.04.034a.378.378,0,0,0,.067.013c.027,0,.034.014.027.04a.094.094,0,0,0,.02.088c.034.026.047.047.047.073a.07.07,0,0,0,.014.054c.013.02.026.027.026.054s.007.06.027.06.034.013.027.04a.075.075,0,0,0,.027.054.2.2,0,0,1,.047.053c.02.027.013.041-.007.027s-.033-.047-.054-.027.034.041.054.054a.865.865,0,0,0,.161.1c.047.013.1.04.154.06a.244.244,0,0,1,.107.094c.021.033.047.094.074.1a.053.053,0,0,1,.037.065l0,.009a.075.075,0,0,0,.02.074.065.065,0,0,1,.007.067c-.014.033-.021.054.006.08a.081.081,0,0,1,.034.067c0,.027.02.081.04.054a.082.082,0,0,0,.013-.04c.007-.034.034-.027.047-.007s.027.014.047.04.034.027.047.02.007-.026-.007-.046a.109.109,0,0,1-.013-.068.1.1,0,0,1,.034-.073c.02-.027.006-.041,0-.074a.261.261,0,0,0-.014-.1.213.213,0,0,1-.007-.087.134.134,0,0,0-.026-.08c-.021-.04,0-.067.013-.1a.33.33,0,0,0,.027-.107.728.728,0,0,1,.033-.147.314.314,0,0,1,.081-.155c.033-.027.027-.053.074-.067s.046-.02.053-.04.014-.033.02-.047a.094.094,0,0,0,.014-.067.057.057,0,0,1,.033-.067.1.1,0,0,0,.034-.06c.006-.02,0-.034.027-.054s0,0,.026-.034a.163.163,0,0,0,.027-.107c0-.053.027-.06.047-.094a.112.112,0,0,0,.007-.093.113.113,0,0,1,0-.068.174.174,0,0,0,.02-.066c0-.021.007-.021.02-.054a.206.206,0,0,0,.02-.081.2.2,0,0,1,.014-.087.28.28,0,0,0,0-.1.61.61,0,0,1,.006-.148.571.571,0,0,0,.02-.1.684.684,0,0,0,0-.128c0-.08.007-.107.007-.154s.014-.08.014-.121-.021-.053-.034-.087.02-.053.04-.074a.218.218,0,0,0,.04-.073c.007-.027.021-.034.041-.067a.376.376,0,0,0,.047-.094.63.63,0,0,0,.04-.141.128.128,0,0,1,.032-.072c.02-.026.013-.033.013-.067V42.8a.09.09,0,0,0-.013-.06.743.743,0,0,1-.047-.088.431.431,0,0,1-.034-.194.391.391,0,0,1,.067-.174c.027-.027.067-.06.067-.06v-.054h-.006A.111.111,0,0,1,62.18,42.159Z"/><path class="cls-1" d="M61.9,34c-.1.1-.2.1-.3.2h0c.2,0,.3-.1.3-.2h0Z"/><path class="cls-1" d="M48,49.3a.6.6,0,0,0,.4-.1c.1-.1.1-.1.2-.1h0a.349.349,0,0,0-.2.1.6.6,0,0,0-.4.1h0Z"/><path class="cls-1" d="M52.6,46.3h0c-.1.1,0,.1,0,.1h0Z"/><path class="cls-1" d="M61.5,34.3h0c-.2,0-.3.1-.4.1h0a.756.756,0,0,0,.4-.1Z"/><path class="cls-2" d="M35.5,32A2.5,2.5,0,1,0,33,29.5,2.4,2.4,0,0,0,35.5,32Z"/><path class="cls-3" d="M48,40a2,2,0,1,0-2-2,2.051,2.051,0,0,0,2,2Z"/><path class="cls-3" d="M50,25a2,2,0,1,0-2-2,2.051,2.051,0,0,0,2,2Z"/><path class="cls-4" d="M52,35a2,2,0,1,0-2-2,2.051,2.051,0,0,0,2,2Z"/><path class="cls-3" d="M45.5,33A3.5,3.5,0,1,0,42,29.5,3.946,3.946,0,0,0,43,32,3.946,3.946,0,0,0,45.5,33Z"/><path class="cls-5" d="M39,40a3,3,0,1,0-3-3,3.076,3.076,0,0,0,3,3Z"/><rect class="cls-1" x="47.697" y="54.715" width="0.2" height="1.6" transform="translate(-23.534 38.831) rotate(-36.108)"/><rect class="cls-1" x="48.5" y="59.8" width="0.3" height="1.5"/><polygon class="cls-1" points="46 68.2 45.8 66.9 46.1 66.9 46.2 68.2 46 68.2"/><rect class="cls-1" x="50.999" y="71.199" width="1.4" height="0.2" transform="translate(-18.864 18.6) rotate(-17.301)"/><polygon class="cls-1" points="56.2 66.4 56 66.3 56.9 65.2 57.1 65.4 56.2 66.4"/><polygon class="cls-1" points="60 61.1 59.7 61 60.2 59.5 60.4 59.5 60 61.1"/><rect class="cls-1" x="60" y="54.2" width="0.3" height="1.7"/><polygon class="cls-1" points="60.4 51.7 60.1 51.6 60.8 50.2 61 50.3 60.4 51.7"/><polygon class="cls-1" points="62.3 47.6 62.1 47.5 62.8 46.2 63 46.3 62.3 47.6"/><polygon class="cls-1" points="63.6 43.9 63.3 43.9 63.5 42.4 63.7 42.4 63.6 43.9"/></svg>