<?xml version="1.0" standalone="no"?><!DOCTYPE svg PUBLIC "-//W3C//DTD SVG 1.1//EN" "http://www.w3.org/Graphics/SVG/1.1/DTD/svg11.dtd"><svg t="1723085278911" class="icon" viewBox="0 0 1024 1024" version="1.1" xmlns="http://www.w3.org/2000/svg" p-id="1923" id="mx_n_1723085278912" xmlns:xlink="http://www.w3.org/1999/xlink" width="200" height="200"><path d="M256 0H153.6v153.6H0v102.4h153.6v153.6h102.4V256h153.6V153.6H256V0zM313.344 637.952L204.8 747.008l-108.544-109.056-72.704 72.704L132.608 819.2 23.552 927.744l72.704 72.704L204.8 891.392l108.544 109.056 72.704-72.704L276.992 819.2l109.056-108.544-72.704-72.704zM614.4 153.6h409.6v102.4h-409.6zM614.4 768h409.6v102.4h-409.6z" p-id="1924"></path><path d="M819.2 972.8m-51.2 0a51.2 51.2 0 1 0 102.4 0 51.2 51.2 0 1 0-102.4 0Z" p-id="1925"></path><path d="M819.2 665.6m-51.2 0a51.2 51.2 0 1 0 102.4 0 51.2 51.2 0 1 0-102.4 0Z" p-id="1926"></path></svg>