<?xml version="1.0" standalone="no"?><!DOCTYPE svg PUBLIC "-//W3C//DTD SVG 1.1//EN" "http://www.w3.org/Graphics/SVG/1.1/DTD/svg11.dtd"><svg t="1670839640319" class="icon" viewBox="0 0 1024 1024" version="1.1" xmlns="http://www.w3.org/2000/svg" p-id="3603" xmlns:xlink="http://www.w3.org/1999/xlink" width="200" height="200"><path d="M858.528537 988.072043C858.528537 990.471701 858.238844 992.802927 857.706981 995.039871 856.758447 1010.772228 843.705175 1023.239652 827.734449 1023.239652L195.505204 1023.239652C178.918215 1023.239652 165.471463 1009.7929 165.471463 993.205912 165.471463 992.340256 165.516324 991.485625 165.588177 990.638977 165.516324 989.79195 165.471463 988.937319 165.471463 988.072043L165.471463 155.491137 165.471463 155.491137 165.471463 125.457397C165.471463 108.870028 178.917835 95.423656 195.505204 95.423656L384.831821 95.423656 384.831821 155.491137 225.538944 155.491137 225.538944 963.172171 798.461056 963.172171 798.461056 155.110963 639.168179 155.110963 639.168179 95.043482 828.494796 95.043482C845.081785 95.043482 858.528537 108.489854 858.528537 125.077223L858.528537 125.455116C858.528537 125.455876 858.528537 125.456636 858.528537 125.457397L858.528537 988.072043ZM613.536473 894.664069 512.010645 793.137861 410.603051 894.545455 368.107969 852.049993 469.515183 750.642779 368.369529 649.497125 410.843701 607.022953 511.989355 708.168607 613.396569 606.761393 655.892031 649.256855 554.484437 750.664069 656.010645 852.189897 613.536473 894.664069ZM698.095139 190.086965C716.992064 190.086965 732.310792 205.405693 732.310792 224.302618L732.310792 282.849404 289.02799 282.849404 289.02799 224.302618C289.02799 205.405693 304.346719 190.086965 323.243644 190.086965L416.714727 190.086965C416.505251 189.550159 416.386257 188.968113 416.386257 188.357173L416.386257 96.184004C416.386257 43.483154 459.108682 0.760348 511.809913 0.760348 564.510764 0.760348 607.233569 43.483154 607.233569 96.184004L607.233569 188.357173C607.233569 188.968113 607.114575 189.550159 606.905099 190.086965L698.095139 190.086965ZM511.809913 93.522787C493.123224 93.522787 477.974433 108.671577 477.974433 127.358266 477.974433 146.044956 493.123224 161.193746 511.809913 161.193746 530.496602 161.193746 545.645393 146.044956 545.645393 127.358266 545.645393 108.671577 530.496602 93.522787 511.809913 93.522787Z" p-id="3604"></path></svg>