<svg width="80" height="56" viewBox="0 0 80 56" fill="none" xmlns="http://www.w3.org/2000/svg">
<path fill-rule="evenodd" clip-rule="evenodd" d="M7 2V50.9977L76 50.9977L76 53.9977H4V2H7Z" fill="#434343"/>
<path d="M12 33.5C12 33.2239 12.2239 33 12.5 33H21.5C21.7761 33 22 33.2239 22 33.5V48.5C22 48.7761 21.7761 49 21.5 49H12.5C12.2239 49 12 48.7761 12 48.5V33.5Z" fill="#3370FF"/>
<path d="M28 13.5C28 13.2239 28.2239 13 28.5 13H37.5C37.7761 13 38 13.2239 38 13.5V48.5C38 48.7761 37.7761 49 37.5 49H28.5C28.2239 49 28 48.7761 28 48.5V13.5Z" fill="#3370FF"/>
<path d="M44 25.5C44 25.2239 44.2239 25 44.5 25H53.5C53.7761 25 54 25.2239 54 25.5V48.5C54 48.7761 53.7761 49 53.5 49H44.5C44.2239 49 44 48.7761 44 48.5V25.5Z" fill="#3370FF"/>
<path d="M60 39.5C60 39.2239 60.2239 39 60.5 39H69.5C69.7761 39 70 39.2239 70 39.5V48.5C70 48.7761 69.7761 49 69.5 49H60.5C60.2239 49 60 48.7761 60 48.5V39.5Z" fill="#3370FF"/>
<path fill-rule="evenodd" clip-rule="evenodd" d="M72.8196 5.7602C73.1363 6.21264 73.0262 6.83618 72.5738 7.15289L50.2198 21.3007L37.043 8.12393L36.7137 8.49428C36.0548 9.23522 35.1121 10.2952 33.9766 11.5713C31.7056 14.1235 28.6637 17.5405 25.5801 20.9991C19.434 27.8927 13.0676 35.0139 12.3741 35.7074C11.9836 36.098 11.3504 36.098 10.9599 35.7074C10.5694 35.3169 10.5694 34.6837 10.9599 34.2932C11.5997 33.6534 17.9 26.608 24.0872 19.6682C27.1703 16.2102 30.2117 12.7938 32.4824 10.2418C33.6178 8.96587 34.5604 7.90605 35.2192 7.16522L36.2526 6.00293C36.2526 6.00293 36.2529 6.00263 37.0003 6.66699L36.2526 6.00293L36.9575 5.20996L50.4475 18.7L71.4269 5.51443C71.8793 5.19771 72.5028 5.30775 72.8196 5.7602Z" fill="#00D6B9"/>
<path d="M37.686 5.23085C37.2792 4.824 36.6138 4.84355 36.2315 5.27359L34.8455 6.83247C34.1868 7.57326 33.2442 8.63304 32.1089 9.90894C29.8382 12.4608 26.7969 15.8771 23.714 19.3349C17.5164 26.2863 11.2327 33.3128 10.6063 33.9391C10.0205 34.5249 10.0205 35.4747 10.6063 36.0605C11.1921 36.6463 12.1419 36.6463 12.7277 36.0605C13.4346 35.3535 19.8175 28.2134 25.9533 21.3314C29.0371 17.8725 32.0791 14.4555 34.3501 11.9032C35.4725 10.6418 36.4066 9.59155 37.0644 8.85186L49.5834 21.3708C49.9141 21.7016 50.43 21.7589 50.8253 21.5087L72.851 7.56865L72.8605 7.56198C73.5392 7.08691 73.7043 6.15162 73.2292 5.47294C72.7567 4.79799 71.8291 4.63105 71.1513 5.09652L50.5191 18.0639L37.686 5.23085Z" fill="#00D6B9"/>
</svg>
