<svg width="24" height="24" viewBox="0 0 24 24" fill="none" xmlns="http://www.w3.org/2000/svg">
<path d="M18 16.3333V18C18 18.3682 17.7015 18.6667 17.3333 18.6667H6.66667C6.29848 18.6667 6 18.3682 6 18V16.3333C6 16.1492 6.14924 16 6.33333 16H7C7.18409 16 7.33333 16.1492 7.33333 16.3333V17.3333H16.6667V16.3333C16.6667 16.1492 16.8159 16 17 16H17.6667C17.8508 16 18 16.1492 18 16.3333ZM12.6667 13.3571L14.6736 11.3502C14.8038 11.22 15.0149 11.22 15.1451 11.3502L15.6165 11.8216C15.7466 11.9517 15.7466 12.1628 15.6165 12.293L12.3166 15.5928C12.2515 15.6579 12.1662 15.6904 12.0809 15.6904C11.9956 15.6904 11.9103 15.6579 11.8452 15.5928L8.54539 12.293C8.41521 12.1628 8.41521 11.9517 8.54539 11.8216L9.01679 11.3502C9.14697 11.22 9.35802 11.22 9.4882 11.3502L11.3333 13.1953V5.99999C11.3333 5.81589 11.4826 5.66666 11.6667 5.66666H12.3333C12.5174 5.66666 12.6667 5.81589 12.6667 5.99999V13.3571Z" fill="#646A73"/>
</svg>
