<svg width="24" height="24" viewBox="0 0 24 24" fill="none" xmlns="http://www.w3.org/2000/svg">
<path d="M5.66668 17.3333V11.697C5.66668 11.312 5.98648 11 6.38097 11H9.33335V6.03508C9.33335 5.64751 9.67446 5.33333 10.0953 5.33333H13.9048C14.3256 5.33333 14.6667 5.64751 14.6667 6.03508V9.33333H17.6191C18.0136 9.33333 18.3333 9.63181 18.3333 10V17.3333H18.9999C19.184 17.3333 19.3332 17.4826 19.3332 17.6667V18.3333C19.3332 18.5174 19.184 18.6667 18.9999 18.6667H4.9999C4.8158 18.6667 4.66656 18.5174 4.66656 18.3333V17.6667C4.66656 17.4826 4.8158 17.3333 4.9999 17.3333H5.66668ZM17 17.3333V10.6667H14.6667V17.3333H17ZM13.3333 17.3333V6.66666H10.6667V17.3333H13.3333ZM9.33335 17.3333V12.3333H7.00001V17.3333H9.33335Z" fill="#646A73"/>
</svg>
