<svg width="24" height="24" viewBox="0 0 24 24" xmlns="http://www.w3.org/2000/svg">
<path d="M2.29241 11.6922C2.13121 11.918 2.18455 12.2317 2.41126 12.3915L3.29276 13.0128C3.51753 13.1712 3.82803 13.1184 3.98778 12.8945L8.24331 6.93195L13.556 10.4843C13.7636 10.6219 14.0142 10.6792 14.261 10.6453C14.5078 10.6114 14.7337 10.4887 14.8965 10.3002L20.7161 3.51072C20.8946 3.30249 20.8721 2.98934 20.6656 2.80885L19.8725 2.11572C19.6632 1.9328 19.3449 1.95569 19.164 2.16666L13.9349 8.26281L8.55069 4.67051C8.43945 4.59289 8.3139 4.53816 8.18133 4.50949C8.04875 4.48082 7.91181 4.47879 7.77844 4.50351C7.64507 4.52824 7.51795 4.57922 7.40447 4.65351C7.29098 4.72779 7.19339 4.8239 7.11737 4.93623L2.29241 11.6922Z" />
<path d="M10 12.0004C9.72386 12.0004 9.5 12.2243 9.5 12.5004V20.0004H8V15.5004C8 15.2243 7.77614 15.0004 7.5 15.0004H3.5C3.22386 15.0004 3 15.2243 3 15.5004V20.0004H1.5C1.22386 20.0004 1 20.2243 1 20.5004V21.5004C1 21.7766 1.22386 22.0004 1.5 22.0004H22.5C22.7761 22.0004 23 21.7766 23 21.5004V20.5004C23 20.2243 22.7761 20.0004 22.5 20.0004H21V15.5004C21 15.2243 20.7761 15.0004 20.5 15.0004H16.5C16.2239 15.0004 16 15.2243 16 15.5004V20.0004H14.5V12.5004C14.5 12.2243 14.2761 12.0004 14 12.0004H10Z" />
</svg>
