<svg width="24" height="24" viewBox="0 0 24 24" xmlns="http://www.w3.org/2000/svg">
<path fill-rule="evenodd" clip-rule="evenodd" d="M5.68833 5.68831C5.91562 5.46102 6.2239 5.33333 6.54534 5.33333H17.4547C17.7761 5.33333 18.0844 5.46102 18.3117 5.68831C18.539 5.91561 18.6667 6.22389 18.6667 6.54533V17.4547C18.6667 17.7761 18.539 18.0844 18.3117 18.3117C18.0844 18.539 17.7761 18.6667 17.4547 18.6667H6.54534C5.87601 18.6667 5.33334 18.124 5.33334 17.4547V6.54533C5.33334 6.22389 5.46104 5.91561 5.68833 5.68831ZM6.66668 10.6667V13.3333H9.33334V10.6667H6.66668ZM6.66668 14.6667V17.3333H9.33334V14.6667H6.66668ZM10.6667 17.3333H13.3333V14.6667H10.6667V17.3333ZM14.6667 17.3333H17.3333V14.6667H14.6667V17.3333ZM17.3333 13.3333V10.6667H14.6667V13.3333H17.3333ZM13.3333 10.6667H10.6667V13.3333H13.3333V10.6667ZM17.3333 6.66666H6.66668V9.33333H17.3333V6.66666Z"/>
</svg>
