<svg width="15" height="14" viewBox="0 0 15 14" fill="" xmlns="http://www.w3.org/2000/svg">
<path d="M14.9334 6.99998C14.9334 10.6819 11.9486 13.6666 8.2667 13.6666C6.14687 13.6666 4.25813 12.6773 3.03706 11.1351L4.09643 10.325C5.07368 11.549 6.5786 12.3333 8.2667 12.3333C11.2122 12.3333 13.6 9.9455 13.6 6.99998C13.6 4.05446 11.2122 1.66665 8.2667 1.66665C5.62404 1.66665 3.43029 3.58868 3.00711 6.11109H3.47752C3.7615 6.11109 3.93088 6.42759 3.77336 6.66387L2.65994 8.334C2.5192 8.5451 2.209 8.5451 2.06826 8.334L0.954845 6.66387C0.79732 6.42759 0.966704 6.11109 1.25068 6.11109H1.65878C2.09335 2.84944 4.88619 0.333313 8.2667 0.333313C11.9486 0.333313 14.9334 3.31808 14.9334 6.99998Z" fill=""/>
<path d="M8.6667 6.77776V4.68887C8.6667 4.4925 8.50751 4.33331 8.31115 4.33331H7.68892C7.49256 4.33331 7.33337 4.4925 7.33337 4.68887V7.75554C7.33337 7.9519 7.49256 8.11109 7.68892 8.11109H10.5334C10.7297 8.11109 10.8889 7.9519 10.8889 7.75554V7.13331C10.8889 6.93695 10.7297 6.77776 10.5334 6.77776H8.6667Z" fill=""/>
</svg>
