<svg xmlns="http://www.w3.org/2000/svg" width="20" height="22" viewBox="0 0 20 22">
  <path d="M6.20665 20.4568C6.33926 20.4568 6.46643 20.4041 6.5602 20.3104C6.65397 20.2166 6.70665 20.0894 6.70665 19.9568L6.70665 1.7068C6.70665 0.802799 5.60265 0.362799 4.98065 1.0193L0.137148 6.1318C0.091961 6.17946 0.0566068 6.23556 0.0331055 6.29689C0.0096041 6.35822 -0.00158395 6.42358 0.000180467 6.48924C0.00194488 6.55489 0.0166271 6.61956 0.0433885 6.67953C0.07015 6.73951 0.108466 6.79363 0.156148 6.8388L0.886648 7.5308C0.982117 7.62126 1.10938 7.67046 1.24087 7.66775C1.37237 7.66504 1.49749 7.61062 1.58915 7.5163L4.79565 4.2163L4.79565 19.9568C4.79565 20.0225 4.80858 20.0875 4.83371 20.1481C4.85884 20.2088 4.89567 20.2639 4.94209 20.3104C4.98852 20.3568 5.04364 20.3936 5.10431 20.4187C5.16497 20.4439 5.22999 20.4568 5.29565 20.4568H6.20665ZM12.7931 20.2068C12.7931 21.1108 13.8971 21.5508 14.5191 20.8943L19.3631 15.7818C19.4083 15.7341 19.4436 15.678 19.4671 15.6166C19.4905 15.5553 19.5017 15.4899 19.4999 15.4243C19.4981 15.3586 19.4833 15.2939 19.4565 15.234C19.4297 15.174 19.3914 15.1199 19.3436 15.0748L18.6181 14.3868C18.5705 14.3416 18.5143 14.3063 18.453 14.2829C18.3916 14.2594 18.3263 14.2483 18.2606 14.2501C18.195 14.2519 18.1303 14.2666 18.0703 14.2934C18.0104 14.3202 17.9563 14.3586 17.9111 14.4063L14.7931 17.6968L14.7931 1.9568C14.7931 1.82419 14.7405 1.69701 14.6467 1.60324C14.5529 1.50948 14.4258 1.4568 14.2931 1.4568H13.2931C13.1605 1.4568 13.0334 1.50948 12.9396 1.60324C12.8458 1.69701 12.7931 1.82419 12.7931 1.9568L12.7931 20.2068Z"/>
</svg>