<?xml version="1.0" standalone="no"?><!DOCTYPE svg PUBLIC "-//W3C//DTD SVG 1.1//EN" "http://www.w3.org/Graphics/SVG/1.1/DTD/svg11.dtd"><svg preserveAspectRatio="none meet" t="1660276517799" class="icon" viewBox="0 0 1638 1024" version="1.1" xmlns="http://www.w3.org/2000/svg" p-id="2534" xmlns:xlink="http://www.w3.org/1999/xlink" width="319.921875" height="200"><defs><style type="text/css">@font-face { font-family: feedback-iconfont; src: url("//at.alicdn.com/t/font_1031158_u69w8yhxdu.woff2?t=1630033759944") format("woff2"), url("//at.alicdn.com/t/font_1031158_u69w8yhxdu.woff?t=1630033759944") format("woff"), url("//at.alicdn.com/t/font_1031158_u69w8yhxdu.ttf?t=1630033759944") format("truetype"); }
</style></defs><path d="M1587.541333 1009.664H50.858667L14.677333 973.141333V672.426667l20.821334-12.629334v-295.253333L14.677333 351.573333V50.858667L50.858667 14.677333H1587.2L1623.722667 51.2v299.349333l-23.210667 13.994667v295.253333l23.210667 13.994667v299.349333l-36.181334 36.522667z m-1534.634666-5.12h1532.245333l33.450667-33.450667v-294.229333l-23.210667-13.994667V361.813333l23.210667-13.994666V53.248l-33.450667-33.450667H53.248l-33.450667 33.450667v295.594667l20.821334 12.629333v301.056l-20.821334 12.629333v295.936l33.109334 33.450667z" p-id="2535"></path><path d="M7.850667 355.669333v312.661334l23.210666-13.994667v-284.672zM1628.16 668.330667v-312.661334l-23.210667 13.994667v284.672zM1623.722667 46.08l-30.72-30.72h30.72zM1593.002667 1009.322667l30.72-30.72v30.72zM14.677333 978.602667l30.72 30.72h-30.72zM45.397333 15.36l-30.72 30.72v-30.72z" p-id="2536"></path></svg>
