<svg width="16" height="16" viewBox="0 0 16 16" fill="none" xmlns="http://www.w3.org/2000/svg">
<path d="M0.666016 5.09541C0.666016 4.83398 0.818817 4.59668 1.05681 4.4885L7.72348 1.45819C7.89876 1.37852 8.09993 1.37852 8.27522 1.45819L14.9419 4.4885C15.1799 4.59668 15.3327 4.83398 15.3327 5.09541V11.5874C15.3327 11.84 15.19 12.0708 14.9642 12.1837L8.29749 15.5171C8.10981 15.6109 7.88889 15.6109 7.70121 15.5171L1.03454 12.1837C0.808684 12.0708 0.666016 11.84 0.666016 11.5874V5.09541ZM12.8112 4.98463L7.99935 2.79741L3.16148 4.99644L7.97266 7.06896L12.8112 4.98463ZM8.66602 8.22206V13.8421L13.9993 11.1754V5.92461L8.66602 8.22206ZM1.99935 5.94761V11.1754L7.33268 13.8421V8.24505L1.99935 5.94761Z" fill="#3370FF"/>
</svg>
