<?xml version="1.0" standalone="no"?><!DOCTYPE svg PUBLIC "-//W3C//DTD SVG 1.1//EN" "http://www.w3.org/Graphics/SVG/1.1/DTD/svg11.dtd"><svg t="1712630540622" class="icon" viewBox="0 0 1024 1024" version="1.1" xmlns="http://www.w3.org/2000/svg" p-id="4351" xmlns:xlink="http://www.w3.org/1999/xlink" width="200" height="200"><path d="M885.333333 177.066667C838.4 104.533333 697.6 136.533333 652.8 149.333333c-8.533333 2.133333-19.2 4.266667-32 8.533334-40.533333-17.066667-87.466667-25.6-134.4-25.6-200.533333 0-362.666667 162.133333-362.666667 362.666666 0 51.2 10.666667 98.133333 27.733334 140.8-36.266667 117.333333-29.866667 194.133333 21.333333 234.666667 23.466667 19.2 51.2 25.6 81.066667 25.6 59.733333 0 123.733333-27.733333 157.866666-46.933333 23.466667 4.266667 49.066667 8.533333 74.666667 8.533333 130.133333 0 245.333333-68.266667 309.333333-172.8h-106.666666c-51.2 53.333333-121.6 87.466667-202.666667 87.466667-104.533333 0-194.133333-57.6-241.066667-142.933334 85.333333-241.066667 281.6-343.466667 373.333334-379.733333 68.266667 36.266667 119.466667 100.266667 136.533333 179.2H467.2v85.333333h381.866667v-19.2c0-40.533333-6.4-78.933333-19.2-115.2 49.066667-68.266667 93.866667-147.2 55.466666-202.666666z m-70.4 44.8s4.266667 17.066667-27.733333 66.133333c-17.066667-25.6-38.4-49.066667-61.866667-70.4 44.8-4.266667 81.066667-4.266667 89.6 4.266667zM298.666667 802.133333c-29.866667 8.533333-57.6 10.666667-70.4 0-4.266667-2.133333-17.066667-17.066667-10.666667-68.266666 23.466667 27.733333 51.2 49.066667 81.066667 68.266666zM209.066667 497.066667v-4.266667c0-153.6 123.733333-277.333333 277.333333-277.333333h2.133333c-93.866667 53.333333-202.666667 142.933333-279.466666 281.6z" p-id="4352"></path></svg>
