<svg width="24" height="24" viewBox="0 0 24 24" fill="none" xmlns="http://www.w3.org/2000/svg">
<path d="M0.5 7.40002V8.03336H4.96667V7.40002H0.5ZM5.6 7.40002V8.03336H11.9667C11.9667 8.03336 11.3 7.40002 10.4667 7.40002H5.6ZM13.2333 7.40002V8.03336H17.1L16.8667 7.40002H13.2333ZM19.8667 7.40002L19.6333 8.03336H23.4667V7.40002H19.8667ZM0.5 8.63336V9.26669H4.96667V8.63336H0.5ZM5.6 8.63336V9.26669H12.7333C12.7333 9.26669 12.6667 8.76669 12.5 8.63336H5.6ZM13.2333 8.63336V9.26669H17.5333L17.3333 8.63336H13.2333ZM19.4 8.63336L19.2 9.26669H23.4667V8.63336H19.4ZM1.8 9.83336V10.4667H3.73333V9.83336H1.8ZM6.9 9.83336V10.4667H8.83333V9.83336H6.9ZM10.7333 9.83336V10.4667H12.6667C12.6667 10.4667 12.8 10.1334 12.8 9.83336H10.7333ZM14.5333 9.83336V10.4667H17.9667L17.7333 9.83336H14.5333ZM19 9.83336L18.7667 10.4667H22.2333V9.83336H19ZM1.8 11.0667V11.7H3.73333V11.0667H1.8ZM6.9 11.0667V11.7H11.8667C11.8667 11.7 12.2667 11.3667 12.4 11.0667H6.9ZM14.5333 11.0667V11.7H16.4667V11.3334L16.6 11.7H20.1667L20.3 11.3334V11.7H22.2333V11.0667H18.5667L18.3667 11.6L18.2 11.0667H14.5333ZM1.8 12.3V12.9334H3.73333V12.3H1.8ZM6.9 12.3V12.9334H12.4C12.2667 12.6334 11.8667 12.3 11.8667 12.3H6.9ZM14.5333 12.3V12.9334H16.4667V12.3H14.5333ZM16.8333 12.3L17.0667 12.9334H19.7333L19.9667 12.3H16.8333ZM20.2667 12.3V12.9334H22.2V12.3H20.2667ZM1.8 13.5334V14.1667H3.73333V13.5334H1.8ZM6.9 13.5334V14.1667H8.83333V13.5334H6.9ZM10.7333 13.5334V14.1667H12.8C12.8 13.8667 12.6667 13.5334 12.6667 13.5334H10.7333ZM14.5333 13.5334V14.1667H16.4667V13.5334H14.5333ZM17.2667 13.5334L17.5 14.1667H19.3L19.5333 13.5334H17.2667ZM20.2667 13.5334V14.1667H22.2V13.5334H20.2667ZM0.533333 14.7334V15.3667H5V14.7334H0.533333ZM5.6 14.7334V15.3667H12.5C12.6333 15.2334 12.7333 14.7334 12.7333 14.7334H5.6ZM13.2667 14.7334V15.3667H16.4667V14.7334H13.2667ZM17.7 14.7334L17.9333 15.3667H18.8333L19.0667 14.7334H17.7ZM20.2667 14.7334V15.3667H23.5V14.7334H20.2667ZM0.533333 15.9667V16.6H5V15.9667H0.533333ZM5.6 15.9667V16.6H10.4667C11.3333 16.6 11.9667 15.9667 11.9667 15.9667H5.6ZM13.2667 15.9667V16.6H16.4667V15.9667H13.2667ZM18.1333 15.9667L18.3667 16.6H18.4L18.6333 15.9667H18.1333ZM20.2667 15.9667V16.6H23.5V15.9667H20.2667Z" fill="#1F70C1"/>
</svg>
