<svg width="16" height="16" viewBox="0 0 16 16" xmlns="http://www.w3.org/2000/svg">
<path d="M5.33337 2.66634V1.99967C5.33337 1.63148 5.63185 1.33301 6.00004 1.33301H10C10.3682 1.33301 10.6667 1.63148 10.6667 1.99967V2.66634H14.2394C14.388 2.66634 14.4419 2.68181 14.4962 2.71086C14.5505 2.73991 14.5931 2.78255 14.6222 2.83687C14.6512 2.89119 14.6667 2.94507 14.6667 3.09366V3.57236C14.6667 3.72095 14.6512 3.77483 14.6222 3.82915C14.5931 3.88347 14.5505 3.9261 14.4962 3.95515C14.4419 3.9842 14.388 3.99967 14.2394 3.99967H13.3334V13.9997C13.3334 14.3679 13.0349 14.6663 12.6667 14.6663H3.33337C2.96518 14.6663 2.66671 14.3679 2.66671 13.9997V3.99967H1.76069C1.6121 3.99967 1.55822 3.9842 1.5039 3.95515C1.44958 3.9261 1.40695 3.88347 1.3779 3.82915C1.34884 3.77483 1.33337 3.72095 1.33337 3.57236V3.09366C1.33337 2.94507 1.34884 2.89119 1.3779 2.83687C1.40695 2.78255 1.44958 2.73991 1.5039 2.71086C1.55822 2.68181 1.6121 2.66634 1.76069 2.66634H5.33337ZM4.00004 3.99967V13.333H12V3.99967H4.00004ZM6.33337 5.99967H7.00004C7.18414 5.99967 7.33337 6.14891 7.33337 6.33301V10.9997C7.33337 11.1838 7.18414 11.333 7.00004 11.333H6.33337C6.14928 11.333 6.00004 11.1838 6.00004 10.9997V6.33301C6.00004 6.14891 6.14928 5.99967 6.33337 5.99967ZM9.00004 5.99967H9.66671C9.8508 5.99967 10 6.14891 10 6.33301V10.9997C10 11.1838 9.8508 11.333 9.66671 11.333H9.00004C8.81595 11.333 8.66671 11.1838 8.66671 10.9997V6.33301C8.66671 6.14891 8.81595 5.99967 9.00004 5.99967Z"/>
</svg>
