<svg width="16" height="16" viewBox="0 0 16 16" fill="none" xmlns="http://www.w3.org/2000/svg">
<path d="M14.0019 1.77734C14.3394 1.77734 14.6183 2.02815 14.6625 2.35355L14.6686 2.44401V13.5614C14.6686 13.8989 14.4177 14.1779 14.0923 14.222L14.0019 14.2281H9.89143C9.73034 14.2281 9.59595 14.1138 9.56486 13.962L9.55809 13.8948V13.2281C9.55809 13.067 9.67235 12.9326 9.82425 12.9015L9.89143 12.8948H13.3352V3.11068H4.40539L4.40628 6.11325C4.40628 6.29735 4.25704 6.44659 4.07294 6.44659H3.40628C3.22218 6.44659 3.07294 6.29735 3.07294 6.11325V2.11068C3.07294 1.94959 3.1872 1.8152 3.3391 1.78412L3.40628 1.77734H14.0019ZM6.64089 7.59282C6.739 7.59282 6.83394 7.6276 6.90884 7.69097L9.70369 10.0559C9.87858 10.2038 9.90039 10.4656 9.7524 10.6405C9.73754 10.658 9.72125 10.6743 9.70369 10.6892L6.90884 13.0541C6.73395 13.202 6.47221 13.1802 6.32422 13.0053C6.26085 12.9304 6.22607 12.8355 6.22607 12.7374L6.22656 11.1164L2.11141 11.1164C1.92731 11.1164 1.77808 10.9672 1.77808 10.7831V10.1164C1.77808 9.93231 1.92731 9.78307 2.11141 9.78307L6.22656 9.78305L6.22607 8.00764C6.22607 7.77854 6.41179 7.59282 6.64089 7.59282Z" fill="#646A73"/>
</svg>
