<svg width="16" height="16" viewBox="0 0 16 16" fill="none" xmlns="http://www.w3.org/2000/svg">
<path d="M5.33325 2.66634V1.99967C5.33325 1.63148 5.63173 1.33301 5.99992 1.33301H9.99992C10.3681 1.33301 10.6666 1.63148 10.6666 1.99967V2.66634H14.2393C14.3879 2.66634 14.4417 2.68181 14.4961 2.71086C14.5504 2.73991 14.593 2.78255 14.6221 2.83687C14.6511 2.89119 14.6666 2.94507 14.6666 3.09366V3.57236C14.6666 3.72095 14.6511 3.77483 14.6221 3.82915C14.593 3.88347 14.5504 3.9261 14.4961 3.95515C14.4417 3.9842 14.3879 3.99967 14.2393 3.99967H13.3333V13.9997C13.3333 14.3679 13.0348 14.6663 12.6666 14.6663H3.33325C2.96506 14.6663 2.66659 14.3679 2.66659 13.9997V3.99967H1.76057C1.61198 3.99967 1.5581 3.9842 1.50378 3.95515C1.44946 3.9261 1.40683 3.88347 1.37777 3.82915C1.34872 3.77483 1.33325 3.72095 1.33325 3.57236V3.09366C1.33325 2.94507 1.34872 2.89119 1.37777 2.83687C1.40683 2.78255 1.44946 2.73991 1.50378 2.71086C1.5581 2.68181 1.61198 2.66634 1.76057 2.66634H5.33325ZM3.99992 3.99967V13.333H11.9999V3.99967H3.99992ZM6.33325 5.33301H6.99992C7.18401 5.33301 7.33325 5.48225 7.33325 5.66634V11.6663C7.33325 11.8504 7.18401 11.9997 6.99992 11.9997H6.33325C6.14916 11.9997 5.99992 11.8504 5.99992 11.6663V5.66634C5.99992 5.48225 6.14916 5.33301 6.33325 5.33301ZM8.99992 5.33301H9.66659C9.85068 5.33301 9.99992 5.48225 9.99992 5.66634V11.6663C9.99992 11.8504 9.85068 11.9997 9.66659 11.9997H8.99992C8.81582 11.9997 8.66659 11.8504 8.66659 11.6663V5.66634C8.66659 5.48225 8.81582 5.33301 8.99992 5.33301Z" fill="#646A73"/>
</svg>
