<svg width="24" height="24" viewBox="0 0 24 24" fill="none" xmlns="http://www.w3.org/2000/svg">
<g id="Default avatar">
<circle id="icon-member-default" cx="12" cy="12" r="12" fill="#3370FF"/>
<g id="Union">
<path d="M14 12.3333H10C8.15905 12.3333 6 13.621 6 15.9333V17.7333C6 18.0647 6.29848 18.3333 6.66667 18.3333H17.3333C17.7015 18.3333 18 18.0647 18 17.7333V15.9333C18 13.619 15.841 12.3333 14 12.3333Z" fill="url(#paint0_linear_4039_14436)"/>
<path d="M8.66667 8.33333C8.66667 10.1743 10.1591 11.6667 12 11.6667C13.8409 11.6667 15.3333 10.1743 15.3333 8.33333C15.3333 6.49238 13.8409 5 12 5C10.1591 5 8.66667 6.49238 8.66667 8.33333Z" fill="url(#paint1_linear_4039_14436)"/>
</g>
</g>
<defs>
<linearGradient id="paint0_linear_4039_14436" x1="12" y1="5" x2="12" y2="18.6667" gradientUnits="userSpaceOnUse">
<stop stop-color="white"/>
<stop offset="1" stop-color="white" stop-opacity="0"/>
</linearGradient>
<linearGradient id="paint1_linear_4039_14436" x1="12" y1="5" x2="12" y2="18.6667" gradientUnits="userSpaceOnUse">
<stop stop-color="white"/>
<stop offset="1" stop-color="white" stop-opacity="0"/>
</linearGradient>
</defs>
</svg>
