<?xml version="1.0" standalone="no"?><!DOCTYPE svg PUBLIC "-//W3C//DTD SVG 1.1//EN" "http://www.w3.org/Graphics/SVG/1.1/DTD/svg11.dtd"><svg class="icon" width="200px" height="200.00px" viewBox="0 0 1024 1024" version="1.1" xmlns="http://www.w3.org/2000/svg"><path d="M960 80H64c-35.3 0-64 28.6-64 64v576c0 35.3 28.7 64 64 64h312c4.4 0 8 3.6 8 8v84c0 2.2-1.8 4-4 4h-60c-17.7 0-32 14.3-32 32v32h448v-32c0-17.7-14.3-32-32-32h-60c-2.2 0-4-1.8-4-4v-84c0-4.4 3.6-8 8-8h312c35.3 0 64-28.7 64-64V144c0-35.4-28.7-64-64-64zM576 876c0 2.2-1.8 4-4 4H452c-2.2 0-4-1.8-4-4v-52c0-4.4 3.6-8 8-8h112c4.4 0 8 3.6 8 8v52z m384-172c0 8.8-7.2 16-16 16H80c-8.8 0-16-7.2-16-16v-44c0-2.2 1.8-4 4-4h888c2.2 0 4 1.8 4 4v44z m-4-112H68c-2.2 0-4-1.8-4-4V160c0-8.8 7.2-16 16-16h864c8.8 0 16 7.2 16 16v428c0 2.2-1.8 4-4 4z" /></svg>