<svg width="24" height="24" viewBox="0 0 24 24" fill="none" xmlns="http://www.w3.org/2000/svg">
<path d="M8.37918 12.925C6.95281 11.7158 5.982 10.0558 5.62734 8.21973C5.20267 8.68403 4.78933 9.14833 4.4043 9.62396C4.57487 11.2257 5.36543 12.6971 6.6069 13.7234C8.65096 14.8898 9.9193 13.6951 12.2691 14.7766C13.9961 15.5806 13.9678 18.3438 13.7356 20.0991C14.2056 19.799 14.6812 19.4762 15.1569 19.1195C15.2191 17.1434 15.1569 14.4085 13.8885 13.7177C11.9124 12.6306 9.98725 13.9159 8.37918 12.925Z" fill="#E01A1D"/>
<path d="M11.9864 15.507C10.0386 14.4142 7.78503 15.3541 6.08637 14.2273C4.90021 13.3102 4.05507 12.0226 3.68558 10.5695C0.888446 14.5331 0.118384 18.6665 2.12847 20.9654C4.13856 23.2642 8.59473 22.9754 13.0226 20.5633C13.1755 18.6835 13.1755 16.1638 11.9864 15.507Z" fill="#1A2781"/>
<path d="M18.1123 11.3283C16.1475 10.2412 13.3108 10.6772 12.0424 9.84481C10.3947 8.76899 10.2588 5.97185 10.3041 4.4657C9.77189 4.79977 9.21699 5.15649 8.60547 5.59814C8.71871 7.00804 9.13206 10.2015 10.6948 11.0395C12.7502 12.172 13.9902 10.8527 16.357 11.9568C17.0448 12.381 17.6134 12.9729 18.0096 13.6771C18.4058 14.3813 18.6165 15.1747 18.6219 15.9827C19.007 15.5693 19.3467 15.156 19.6864 14.7313C19.6786 14.0852 19.5343 13.4481 19.263 12.8616C18.9917 12.2752 18.5996 11.7526 18.1123 11.3283Z" fill="#E01A1D"/>
<path d="M21.8722 3.57669C19.8452 1.3118 15.5362 1.54962 11.3688 3.88811C11.165 5.58678 11.0178 8.60474 12.5635 9.40878C14.6076 10.5752 16.5271 9.60696 18.8939 10.5865C19.4275 10.8818 19.8754 11.3103 20.194 11.8303C20.5125 12.3503 20.6908 12.9441 20.7115 13.5535C23.1576 9.68057 23.7974 5.76797 21.8722 3.57669Z" fill="#1A2781"/>
<path d="M16.1871 12.4098C14.2223 11.3283 11.8781 12.4834 10.3097 11.4076C8.84562 9.99443 7.96642 8.08244 7.8466 6.05115L7.11618 6.657L6.41406 7.3025C6.68585 8.55951 7.29737 11.3906 8.58836 12.2739C10.5758 13.5479 11.7139 12.0078 14.0467 13.0553C15.8133 13.8707 16.0795 16.5432 16.0908 18.2306L16.8042 17.6191C17.1213 17.3586 17.4101 17.0528 17.7045 16.798C17.7045 15.4221 17.4441 13.1629 16.1871 12.4098Z" fill="#E01A1D"/>
</svg>
