<?xml version="1.0" standalone="no"?><!DOCTYPE svg PUBLIC "-//W3C//DTD SVG 1.1//EN" "http://www.w3.org/Graphics/SVG/1.1/DTD/svg11.dtd"><svg t="1623897748319" class="icon" viewBox="0 0 1024 1024" version="1.1" xmlns="http://www.w3.org/2000/svg" p-id="23219" xmlns:xlink="http://www.w3.org/1999/xlink" width="200" height="200"><defs><style type="text/css"></style></defs><path d="M512 1024C227.556 1024 0 796.444 0 512S227.556 0 512 0s512 227.556 512 512-227.556 512-512 512z m0-68.267c244.622 0 443.733-199.11 443.733-443.733S756.623 68.267 512 68.267 68.267 267.377 68.267 512 267.377 955.733 512 955.733z m11.378-694.044c45.51 0 85.333 11.378 113.778 39.822 28.444 22.756 45.51 62.578 45.51 102.4 0 34.133-11.377 68.267-28.444 91.022-5.689 5.69-28.444 28.445-62.578 56.89-11.377 11.377-22.755 22.755-28.444 39.821-5.689 17.067-11.378 34.134-11.378 45.512v11.377h-79.644v-11.377c0-28.445 5.689-51.2 17.066-68.267 11.378-22.756 39.823-51.2 79.645-91.022l11.378-11.378c11.377-17.067 22.755-34.133 22.755-51.2 0-22.756-5.689-45.511-22.755-56.889-17.067-17.067-34.134-22.756-62.578-22.756-34.133 0-56.889 11.378-73.956 28.445-11.377 17.067-17.066 39.822-17.066 73.955H352.71c0-51.2 17.067-96.71 45.511-125.155 28.445-34.133 73.956-51.2 125.156-51.2zM512 688.356c17.067 0 28.444 5.688 39.822 17.066 11.378 11.378 17.067 22.756 17.067 39.822 0 17.067-5.689 28.445-17.067 39.823-11.378 11.377-22.755 17.066-39.822 17.066-28.444 0-51.2-22.755-51.2-51.2 0-17.066 5.689-28.444 17.067-39.822 5.689-17.067 22.755-22.755 34.133-22.755z" p-id="23220" ></path></svg>