<svg width="24" height="24" viewBox="0 0 24 24" fill="none" xmlns="http://www.w3.org/2000/svg">
<path d="M13.98 4.36928L11.5795 1.96882C11.2736 1.6621 10.9103 1.41867 10.5102 1.25244C10.1102 1.0862 9.68128 1.00043 9.24808 1.00001C8.44908 0.997588 7.68069 1.30701 7.10635 1.86246C6.80642 2.15198 6.5671 2.4983 6.40233 2.88123C6.23757 3.26416 6.15065 3.67604 6.14663 4.09289C6.14262 4.50975 6.22159 4.92324 6.37896 5.30927C6.53632 5.69529 6.76893 6.04616 7.06322 6.3414L11.4186 10.6968C11.511 10.7843 11.6334 10.8331 11.7607 10.8331C11.8879 10.8331 12.0104 10.7843 12.1028 10.6968L13.9771 8.82235C14.095 8.68147 16.0556 6.44202 13.98 4.36928Z" fill="#15A9CA"/>
<path d="M17.9148 8.20426C17.4577 7.76154 16.9834 7.30444 16.5551 6.80997V6.79272C16.5398 6.83769 16.5283 6.88385 16.5206 6.93071C16.3407 7.98148 15.8253 8.94569 15.0516 9.67905C12.5246 12.1888 9.96889 14.753 7.49656 17.234L7.16307 17.5646C6.65345 18.0335 6.30949 18.6548 6.18277 19.3355C6.12924 19.8208 6.18004 20.3119 6.33175 20.776C6.48347 21.2401 6.7326 21.6664 7.06246 22.0263C7.34407 22.3458 7.69312 22.5986 8.08439 22.7667C8.47567 22.9347 8.89939 23.0137 9.32493 22.998C10.311 23.0124 10.7911 22.883 11.5098 22.1844C14.3846 19.37 17.2594 16.5326 19.4356 14.3765C20.462 13.3559 20.6977 11.6655 19.9704 10.5271C19.3789 9.67473 18.6889 8.89509 17.9148 8.20426Z" fill="#52CAA3"/>
<path d="M4 6.70078V17.3031C3.99995 17.4197 4.03449 17.5337 4.09924 17.6306C4.164 17.7276 4.25606 17.8031 4.36377 17.8478C4.47149 17.8924 4.59002 17.904 4.70438 17.8813C4.81873 17.8586 4.92376 17.8024 5.00618 17.7199L10.3418 12.3843C10.4426 12.2825 10.4991 12.1452 10.4991 12.0019C10.4991 11.8587 10.4426 11.7214 10.3418 11.6196L5.00618 6.28394C4.95259 6.22927 4.88863 6.18584 4.81803 6.15622C4.74744 6.1266 4.67164 6.11138 4.59509 6.11145C4.43825 6.11144 4.28775 6.17335 4.17632 6.28371C4.06488 6.39407 4.00152 6.54395 4 6.70078Z" fill="#5268AD"/>
</svg>
