<svg width="18" height="18" viewBox="0 0 18 18" xmlns="http://www.w3.org/2000/svg">
<path d="M11.4502 12.4309C11.4502 12.2756 11.5761 12.1497 11.7314 12.1497H12.9189C13.0742 12.1497 13.2001 12.2756 13.2001 12.4309V13.6184C13.2001 13.7737 13.0742 13.8996 12.9189 13.8996H11.7314C11.5761 13.8996 11.4502 13.7737 11.4502 13.6184V12.4309Z"/>
<path d="M13.3492 2H4.65099C4.32791 2 4.04681 2.22111 3.97071 2.5351L2.0197 10.5848C2.00661 10.6388 2 10.6942 2 10.7497C2 10.7584 2.00016 10.767 2.00047 10.7757V15.2996C2.00047 15.6861 2.31386 15.9995 2.70045 15.9995H15.3C15.6866 15.9995 16 15.6861 16 15.2996V10.7497C16 10.6645 15.9848 10.5828 15.9569 10.5073L14.0295 2.53548C13.9536 2.22131 13.6724 2 13.3492 2ZM14.2926 10.0258H3.70332L5.28122 3.4697H12.7186L14.2926 10.0258Z"/>
<path d="M11.4502 12.4309C11.4502 12.2756 11.5761 12.1497 11.7314 12.1497H12.9189C13.0742 12.1497 13.2001 12.2756 13.2001 12.4309V13.6184C13.2001 13.7737 13.0742 13.8996 12.9189 13.8996H11.7314C11.5761 13.8996 11.4502 13.7737 11.4502 13.6184V12.4309Z"/>
</svg>
