<?xml version="1.0" standalone="no"?><!DOCTYPE svg PUBLIC "-//W3C//DTD SVG 1.1//EN" "http://www.w3.org/Graphics/SVG/1.1/DTD/svg11.dtd"><svg t="1617776817333" class="icon" viewBox="0 0 1024 1024" version="1.1" xmlns="http://www.w3.org/2000/svg" p-id="7138" xmlns:xlink="http://www.w3.org/1999/xlink" width="200" height="200"><defs><style type="text/css"></style></defs><path d="M467.8 656.2c-5.2-5.2-12.2-8.2-19.8-8.2-7.4 0-14.6 2.8-19.8 8.2-5.2 5.2-8.2 12.2-8.2 19.8 0 7.4 2.8 14.6 8.2 19.8l0.2 0.2 82.2 80.2H332c-40.8 0-67.2-15-83.2-47-16.8-34-18.8-83-18.8-117V341.6c30-5.6 57.4-21 78-43.8 23.2-25.8 36-59 36-93.8 0-77.2-62.8-140-140-140s-140 62.8-140 140c0 34 12.4 66.6 34.6 92.2 19.8 22.6 46.2 38.2 75.4 44.6V612c0 29.4 0 84.2 18.8 130.6 23.8 58.6 72 89.4 139.2 89.4h179.4L432 912.4c-10.8 10.8-10.8 28.6 0 39.6l0.2 0.2c5.4 5 12.4 7.8 19.6 7.8 7.6 0 14.6-2.8 19.8-8.2l115.2-114.8c8.4-8.4 13-19.6 13-31.4 0-11.8-4.6-22.6-13-31l-119-118.4zM204 288c-46.4 0-84-37.6-84-84s37.6-84 84-84 84 37.6 84 84-37.6 84-84 84z m646 395.2V412c0-29.4 0-84.2-18.8-130.6-23.8-58.4-72-89.4-139.2-89.4h-179.4L592 111.6c10.8-10.8 10.8-28.6 0-39.6l-0.2-0.2c-5.4-5-12.4-7.8-19.6-7.8-7.6 0-14.6 2.8-19.8 8.2l-115.2 114.8c-8.4 8.4-13 19.6-13 31.4 0 11.8 4.6 22.6 13 31l119.2 118.8c5.2 5.2 12.2 8.2 19.8 8.2 7.4 0 14.6-2.8 19.8-8.2 5.2-5.2 8.2-12.2 8.2-19.8 0-7.4-2.8-14.6-8.2-19.8l-0.2-0.2-82.4-80.4H692c40.8 0 67.2 15 83.2 47 16.8 34 18.8 83 18.8 117v270.4c-30 5.6-57.4 21-78 43.8-23.2 25.8-36 59-36 93.8 0 77.2 62.8 140 140 140s140-62.8 140-140c0-34-12.4-66.6-34.6-92.2-19.8-22.6-46.4-38.2-75.4-44.6zM820 904c-46.4 0-84-37.6-84-84s37.6-84 84-84 84 37.6 84 84-37.6 84-84 84z" p-id="7139"></path></svg>
