<svg width="18" height="18" viewBox="0 0 18 18" fill="none" xmlns="http://www.w3.org/2000/svg">
<path d="M0.75 4C0.75 1.79086 2.54086 0 4.75 0H13.25C15.4591 0 17.25 1.79086 17.25 4V14C17.25 16.2091 15.4591 18 13.25 18H4.75C2.54086 18 0.75 16.2091 0.75 14V4Z" fill="#3370FF"/>
<path fill-rule="evenodd" clip-rule="evenodd" d="M13.375 11.625C13.375 11.9977 13.148 12.2832 12.8989 12.4795C12.6448 12.6797 12.3043 12.8409 11.9226 12.9681C11.1545 13.2242 10.1212 13.375 9 13.375C7.87875 13.375 6.84549 13.2242 6.07742 12.9681C5.69567 12.8409 5.35517 12.6797 5.10113 12.4795C4.85202 12.2832 4.625 11.9977 4.625 11.625V6.375C4.625 6.00227 4.85202 5.71682 5.10113 5.5205C5.35517 5.32029 5.69567 5.15912 6.07742 5.03187C6.84549 4.77585 7.87875 4.625 9 4.625C10.1212 4.625 11.1545 4.77585 11.9226 5.03187C12.3043 5.15912 12.6448 5.32029 12.8989 5.5205C13.148 5.71682 13.375 6.00227 13.375 6.375V11.625ZM5.5 6.37497C5.5 6.37458 5.49999 6.37272 5.50134 6.36831C5.50282 6.36343 5.50649 6.3538 5.51535 6.33937C5.53391 6.30912 5.57178 6.26364 5.64273 6.20773C5.78718 6.09389 6.02332 5.97224 6.35412 5.86197C7.01114 5.64296 7.94663 5.5 9 5.5C10.0534 5.5 10.9889 5.64296 11.6459 5.86197C11.9767 5.97224 12.2128 6.09389 12.3573 6.20773C12.4282 6.26364 12.4661 6.30912 12.4847 6.33937C12.4935 6.3538 12.4972 6.36343 12.4987 6.36831C12.5 6.37272 12.5 6.37458 12.5 6.37497C12.5 6.37499 12.5 6.37494 12.5 6.37497C12.5 6.37548 12.4999 6.3775 12.4987 6.38169C12.4972 6.38657 12.4935 6.3962 12.4847 6.41063C12.4661 6.44088 12.4282 6.48636 12.3573 6.54227C12.2128 6.65611 11.9767 6.77776 11.6459 6.88803C10.9889 7.10703 10.0534 7.25 9 7.25C7.94663 7.25 7.01114 7.10703 6.35412 6.88803C6.02332 6.77776 5.78718 6.65611 5.64273 6.54227C5.57178 6.48636 5.53391 6.44088 5.51535 6.41063C5.50649 6.3962 5.50282 6.38657 5.50134 6.38169C5.50007 6.37754 5.5 6.3755 5.5 6.37497ZM12.5 7.48039C12.3245 7.57015 12.1296 7.64912 11.9226 7.71813C11.1545 7.97415 10.1212 8.125 9 8.125C7.87875 8.125 6.84549 7.97415 6.07742 7.71813C5.87041 7.64912 5.67554 7.57015 5.5 7.48039V9C5.5 9.00053 5.50007 9.00253 5.50134 9.00669C5.50282 9.01157 5.50649 9.0212 5.51535 9.03563C5.53391 9.06588 5.57178 9.11136 5.64273 9.16727C5.78718 9.28111 6.02332 9.40276 6.35412 9.51303C7.01114 9.73203 7.94663 9.875 9 9.875C10.0534 9.875 10.9889 9.73203 11.6459 9.51303C11.9767 9.40276 12.2128 9.28111 12.3573 9.16727C12.4282 9.11136 12.4661 9.06588 12.4847 9.03563C12.4935 9.0212 12.4972 9.01157 12.4987 9.00669C12.4999 9.0025 12.5 9.00061 12.5 9.0001C12.5 9.00007 12.5 9.00012 12.5 9.0001V7.48039ZM12.5 10.1054C12.3245 10.1952 12.1296 10.2741 11.9226 10.3431C11.1545 10.5992 10.1212 10.75 9 10.75C7.87875 10.75 6.84549 10.5992 6.07742 10.3431C5.87041 10.2741 5.67554 10.1952 5.5 10.1054V11.625C5.5 11.6254 5.49999 11.6273 5.50134 11.6317C5.50282 11.6366 5.50649 11.6462 5.51535 11.6606C5.53391 11.6909 5.57178 11.7364 5.64273 11.7923C5.78718 11.9061 6.02332 12.0278 6.35412 12.138C7.01114 12.357 7.94663 12.5 9 12.5C10.0534 12.5 10.9889 12.357 11.6459 12.138C11.9767 12.0278 12.2128 11.9061 12.3573 11.7923C12.4282 11.7364 12.4661 11.6909 12.4847 11.6606C12.4935 11.6462 12.4972 11.6366 12.4987 11.6317C12.5 11.6273 12.5 11.6254 12.5 11.625V10.1054Z" fill="white"/>
</svg>
