<svg width="18" height="18" viewBox="0 0 18 18" fill="none" xmlns="http://www.w3.org/2000/svg">
<path d="M0.75 4C0.75 1.79086 2.54086 0 4.75 0H13.25C15.4591 0 17.25 1.79086 17.25 4V14C17.25 16.2091 15.4591 18 13.25 18H4.75C2.54086 18 0.75 16.2091 0.75 14V4Z" fill="#34C724"/>
<path d="M5.26245 4.1875H11.4821C11.5816 4.1875 11.677 4.22701 11.7473 4.29733L13.0276 5.57766C13.0979 5.64799 13.1374 5.74337 13.1374 5.84283V13.4375C13.1374 13.6446 12.9696 13.8125 12.7624 13.8125H5.26245C5.05534 13.8125 4.88745 13.6446 4.88745 13.4375V4.5625C4.88745 4.35539 5.05534 4.1875 5.26245 4.1875ZM5.78743 12.9126H12.2374V6.4375H11.0187C10.9462 6.4375 10.8875 6.37874 10.8875 6.30625V5.08756H5.78743V12.9126ZM11.2972 7.391C11.3417 7.33349 11.3007 7.25 11.228 7.25H10.3554C10.3283 7.25 10.3027 7.26256 10.2862 7.284L8.93069 8.85891L9.54682 9.65625L11.2972 7.391ZM8.93069 8.85891L8.93192 8.86048L9.54682 9.65625L8.93192 10.452L8.93069 10.4535L7.7137 12.0285C7.69713 12.0499 7.67156 12.0625 7.64446 12.0625H6.77187C6.69918 12.0625 6.65819 11.979 6.70263 11.9215L8.41173 9.70976C8.43605 9.67821 8.43605 9.63424 8.41173 9.60274L6.70265 7.391C6.65821 7.33349 6.6992 7.25 6.77189 7.25H7.64446C7.67156 7.25 7.69713 7.26256 7.7137 7.284L8.93069 8.85891ZM10.2862 12.0285L8.93069 10.4535L9.54682 9.65625L11.2972 11.9215C11.3417 11.979 11.3007 12.0625 11.228 12.0625H10.3554C10.3283 12.0625 10.3027 12.0499 10.2862 12.0285Z" fill="white"/>
</svg>
