<svg width="18" height="18" viewBox="0 0 18 18" fill="none" xmlns="http://www.w3.org/2000/svg">
<path d="M0.75 4C0.75 1.79086 2.54086 0 4.75 0H13.25C15.4591 0 17.25 1.79086 17.25 4V14C17.25 16.2091 15.4591 18 13.25 18H4.75C2.54086 18 0.75 16.2091 0.75 14V4Z" fill="#FF8800"/>
<path d="M6.7909 10.5821H6.34753L6.35551 10.6989C6.36855 10.8899 6.45684 11.0506 6.60246 11.1615C6.74626 11.2711 6.9395 11.3276 7.15933 11.3276C7.38407 11.3276 7.58144 11.2696 7.72495 11.1535C7.87093 11.0354 7.95187 10.8645 7.95187 10.662C7.95187 10.5073 7.90547 10.3725 7.79318 10.2663C7.68572 10.1646 7.52833 10.0993 7.32754 10.0553L7.12242 10.0104C7.00426 9.9846 6.9376 9.95124 6.9016 9.91914C6.87054 9.89144 6.85727 9.86056 6.85727 9.81604C6.85727 9.76106 6.88139 9.71764 6.92885 9.68416C6.97924 9.64862 7.05771 9.62421 7.15677 9.62421C7.25905 9.62421 7.33401 9.65055 7.38327 9.68875C7.43097 9.72573 7.46223 9.77948 7.46964 9.85269L7.4796 9.95105H7.92218L7.91849 9.83811C7.90582 9.44994 7.5749 9.19781 7.16318 9.19781C6.95198 9.19781 6.7634 9.25678 6.62517 9.36675C6.48529 9.47803 6.4014 9.63868 6.4014 9.82629C6.4014 9.98229 6.45009 10.1197 6.5605 10.2282C6.66744 10.3334 6.82267 10.402 7.01812 10.4446L7.22306 10.4894C7.34307 10.5158 7.41142 10.55 7.44877 10.5838C7.48125 10.6131 7.496 10.6469 7.496 10.6966C7.496 10.7473 7.47184 10.7948 7.41877 10.8333C7.36419 10.8729 7.27967 10.9012 7.17215 10.9012C6.93428 10.9012 6.82015 10.798 6.80373 10.6768L6.7909 10.5821Z" fill="white"/>
<path fill-rule="evenodd" clip-rule="evenodd" d="M10.074 10.2634C10.074 10.6009 9.97189 10.8853 9.77639 11.0764L10.0882 11.5058H9.55906L9.40164 11.2896C9.31114 11.3153 9.21446 11.3276 9.11228 11.3276C8.82315 11.3276 8.57883 11.2253 8.40791 11.0338C8.23824 10.8437 8.15054 10.5767 8.15054 10.2634C8.15054 9.95008 8.23824 9.6828 8.40784 9.49239C8.57871 9.30055 8.82303 9.19781 9.11228 9.19781C9.40152 9.19781 9.64584 9.30055 9.81671 9.49239C9.98631 9.6828 10.074 9.95008 10.074 10.2634ZM8.86314 10.5488L9.11524 10.8961L9.11228 10.8961C8.95323 10.8961 8.83129 10.837 8.7471 10.7353C8.66103 10.6314 8.60642 10.4729 8.60642 10.2634C8.60642 10.0531 8.66107 9.89433 8.74715 9.79026C8.83132 9.68849 8.95324 9.62933 9.11228 9.62933C9.27131 9.62933 9.39323 9.68849 9.4774 9.79026C9.56348 9.89433 9.61813 10.0531 9.61813 10.2634C9.61813 10.4513 9.57442 10.5979 9.50349 10.701L9.39206 10.5488H8.86314Z" fill="white"/>
<path d="M11.7027 11.2969V10.8705H10.8106V9.22858H10.3611V11.2969H11.7027Z" fill="white"/>
<path fill-rule="evenodd" clip-rule="evenodd" d="M5.26221 4.1875H11.4819C11.5813 4.1875 11.6767 4.22701 11.747 4.29733L13.0274 5.57766C13.0977 5.64799 13.1372 5.74337 13.1372 5.84283V13.4375C13.1372 13.6446 12.9693 13.8125 12.7622 13.8125H5.26221C5.0551 13.8125 4.88721 13.6446 4.88721 13.4375V4.5625C4.88721 4.35539 5.0551 4.1875 5.26221 4.1875ZM5.78719 12.9126H12.2372V6.4375H11.0185C10.946 6.4375 10.8872 6.37874 10.8872 6.30625V5.08756H5.78719V12.9126Z" fill="white"/>
<path d="M6.7909 10.5821H6.34753L6.35551 10.6989C6.36855 10.8899 6.45684 11.0506 6.60246 11.1615C6.74626 11.2711 6.9395 11.3276 7.15933 11.3276C7.38407 11.3276 7.58144 11.2696 7.72495 11.1535C7.87093 11.0354 7.95187 10.8645 7.95187 10.662C7.95187 10.5073 7.90547 10.3725 7.79318 10.2663C7.68572 10.1646 7.52833 10.0993 7.32754 10.0553L7.12242 10.0104C7.00426 9.9846 6.9376 9.95124 6.9016 9.91914C6.87054 9.89144 6.85727 9.86056 6.85727 9.81604C6.85727 9.76106 6.88139 9.71764 6.92885 9.68416C6.97924 9.64862 7.05771 9.62421 7.15677 9.62421C7.25905 9.62421 7.33401 9.65055 7.38327 9.68875C7.43097 9.72573 7.46223 9.77948 7.46964 9.85269L7.4796 9.95105H7.92218L7.91849 9.83811C7.90582 9.44994 7.5749 9.19781 7.16318 9.19781C6.95198 9.19781 6.7634 9.25678 6.62517 9.36675C6.48529 9.47803 6.4014 9.63868 6.4014 9.82629C6.4014 9.98229 6.45009 10.1197 6.5605 10.2282C6.66744 10.3334 6.82267 10.402 7.01812 10.4446L7.22306 10.4894C7.34307 10.5158 7.41142 10.55 7.44877 10.5838C7.48125 10.6131 7.496 10.6469 7.496 10.6966C7.496 10.7473 7.47184 10.7948 7.41877 10.8333C7.36419 10.8729 7.27967 10.9012 7.17215 10.9012C6.93428 10.9012 6.82015 10.798 6.80373 10.6768L6.7909 10.5821Z" fill="white"/>
<path fill-rule="evenodd" clip-rule="evenodd" d="M10.074 10.2634C10.074 10.6009 9.97189 10.8853 9.77639 11.0764L10.0882 11.5058H9.55906L9.40164 11.2896C9.31114 11.3153 9.21446 11.3276 9.11228 11.3276C8.82315 11.3276 8.57883 11.2253 8.40791 11.0338C8.23824 10.8437 8.15054 10.5767 8.15054 10.2634C8.15054 9.95008 8.23824 9.6828 8.40784 9.49239C8.57871 9.30055 8.82303 9.19781 9.11228 9.19781C9.40152 9.19781 9.64584 9.30055 9.81671 9.49239C9.98631 9.6828 10.074 9.95008 10.074 10.2634ZM8.86314 10.5488L9.11524 10.8961L9.11228 10.8961C8.95323 10.8961 8.83129 10.837 8.7471 10.7353C8.66103 10.6314 8.60642 10.4729 8.60642 10.2634C8.60642 10.0531 8.66107 9.89433 8.74715 9.79026C8.83132 9.68849 8.95324 9.62933 9.11228 9.62933C9.27131 9.62933 9.39323 9.68849 9.4774 9.79026C9.56348 9.89433 9.61813 10.0531 9.61813 10.2634C9.61813 10.4513 9.57442 10.5979 9.50349 10.701L9.39206 10.5488H8.86314Z" fill="white"/>
<path d="M11.7027 11.2969V10.8705H10.8106V9.22858H10.3611V11.2969H11.7027Z" fill="white"/>
<path fill-rule="evenodd" clip-rule="evenodd" d="M5.26221 4.1875H11.4819C11.5813 4.1875 11.6767 4.22701 11.747 4.29733L13.0274 5.57766C13.0977 5.64799 13.1372 5.74337 13.1372 5.84283V13.4375C13.1372 13.6446 12.9693 13.8125 12.7622 13.8125H5.26221C5.0551 13.8125 4.88721 13.6446 4.88721 13.4375V4.5625C4.88721 4.35539 5.0551 4.1875 5.26221 4.1875ZM5.78719 12.9126H12.2372V6.4375H11.0185C10.946 6.4375 10.8872 6.37874 10.8872 6.30625V5.08756H5.78719V12.9126Z" fill="white"/>
</svg>
