<?xml version="1.0" standalone="no"?><!DOCTYPE svg PUBLIC "-//W3C//DTD SVG 1.1//EN" "http://www.w3.org/Graphics/SVG/1.1/DTD/svg11.dtd"><svg t="1688563367121" class="icon" viewBox="0 0 1024 1024" version="1.1" xmlns="http://www.w3.org/2000/svg" p-id="4587" xmlns:xlink="http://www.w3.org/1999/xlink" width="200" height="200"><path d="M470.624 553.376a32 32 0 0 1 2.656 42.24l-2.656 3.008L269.28 800l145.984 0.032a32 32 0 0 1 31.776 28.256l0.224 3.744a32 32 0 0 1-28.288 31.776l-3.712 0.224H192l-2.4-0.096-4.032-0.544-3.552-0.96-3.552-1.408-3.136-1.664-3.072-2.144-2.88-2.56a32.32 32.32 0 0 1-3.104-3.584l-2.272-3.52-1.728-3.648-1.12-3.36-0.96-4.8L160 832V607.872a32 32 0 0 1 63.776-3.712l0.224 3.712-0.032 146.848 201.408-201.344a32 32 0 0 1 45.248 0zM608.736 160H832l2.4 0.096 4.032 0.544 3.552 0.96 3.552 1.408 3.136 1.664 3.072 2.144 2.88 2.56c1.152 1.12 2.176 2.336 3.104 3.584l2.272 3.52 1.728 3.648 1.12 3.36 0.96 4.8L864 192v224.128a32 32 0 0 1-63.776 3.712l-0.224-3.712v-146.88L598.624 470.624a32 32 0 0 1-47.904-42.24l2.656-3.008L754.688 224h-145.92a32 32 0 0 1-31.808-28.256l-0.224-3.744a32 32 0 0 1 28.288-31.776l3.712-0.224z" p-id="4588"></path></svg>