<?xml version="1.0" standalone="no"?><!DOCTYPE svg PUBLIC "-//W3C//DTD SVG 1.1//EN" "http://www.w3.org/Graphics/SVG/1.1/DTD/svg11.dtd"><svg t="1689603006162" class="icon" viewBox="0 0 1024 1024" version="1.1" xmlns="http://www.w3.org/2000/svg" p-id="4590" xmlns:xlink="http://www.w3.org/1999/xlink" width="200" height="200"><path d="M611.754667 710.613333a38.144 38.144 0 0 1 0 53.930667l-123.818667 123.818667c-95.530667 95.530667-256.341333 95.530667-351.872 0-95.488-95.488-95.488-256.341333 0-351.829334l123.818667-123.818666a38.144 38.144 0 1 1 53.973333 53.930666L190.037333 590.506667c-70.528 73.685333-74.069333 177.28-3.626666 247.637333 70.4 70.4 170.453333 72.234667 247.594666-3.669333l123.818667-123.818667a38.144 38.144 0 0 1 53.930667 0z m-199.509334-397.226666a38.144 38.144 0 0 1 0-53.930667l123.818667-123.818667c95.488-95.530667 256.341333-95.530667 351.872 0 95.488 95.488 95.488 256.341333 0 351.829334l-123.818667 123.818666a38.144 38.144 0 1 1-53.930666-53.930666l123.776-123.818667c70.528-73.685333 74.069333-177.28 3.669333-247.637333-70.357333-70.4-170.453333-72.234667-247.594667 3.669333l-123.861333 123.818667a38.144 38.144 0 0 1-53.930667 0z m232.362667 512.426666a32.682667 32.682667 0 0 1 65.408 0v65.450667a32.682667 32.682667 0 1 1-65.408 0v-65.408z m208.042667 27.434667a33.621333 33.621333 0 0 1-47.445334-0.554667l-45.482666-46.421333a33.28 33.28 0 0 1 47.36-46.890667l45.909333 45.994667a33.621333 33.621333 0 0 1-0.341333 47.872z m-55.466667-176.384c0-20.053333 16.298667-36.309333 36.352-36.309333H891.733333a36.352 36.352 0 0 1 0 72.661333h-58.154666a36.352 36.352 0 0 1-36.309334-36.352zM317.013333 130.773333a32.682667 32.682667 0 1 1 65.408 0v65.408a32.682667 32.682667 0 0 1-65.408 0V130.773333z m-142.677333 37.973334A33.621333 33.621333 0 0 1 221.866667 169.386667l45.482666 46.421333a33.28 33.28 0 0 1-47.36 46.848L173.994667 216.704a33.621333 33.621333 0 0 1 0.341333-47.914667zM98.986667 345.173333c0-20.053333 16.256-36.352 36.352-36.352h58.112a36.352 36.352 0 0 1 0 72.704H135.338667a36.352 36.352 0 0 1-36.352-36.352z" p-id="4591"></path></svg>