<svg width="20" height="20" viewBox="0 0 20 20" fill="none" xmlns="http://www.w3.org/2000/svg">
<path fill-rule="evenodd" clip-rule="evenodd" d="M11.6667 2.08398H17.0834C17.5436 2.08398 17.9167 2.45708 17.9167 2.91732V8.33398C17.9167 8.79422 17.5436 9.16732 17.0834 9.16732H11.6667C11.2065 9.16732 10.8334 8.79422 10.8334 8.33398V2.91732C10.8334 2.45708 11.2065 2.08398 11.6667 2.08398ZM12.5001 7.50065H16.2501V3.75065H12.5001V7.50065ZM2.91674 10.834H8.33341C8.79364 10.834 9.16674 11.2071 9.16674 11.6673V17.084C9.16674 17.5442 8.79364 17.9173 8.33341 17.9173H2.91674C2.4565 17.9173 2.08341 17.5442 2.08341 17.084V11.6673C2.08341 11.2071 2.4565 10.834 2.91674 10.834ZM3.75007 16.2507H7.50007V12.5007H3.75007V16.2507ZM17.0834 10.834H11.6667C11.2065 10.834 10.8334 11.2071 10.8334 11.6673V17.084C10.8334 17.5442 11.2065 17.9173 11.6667 17.9173H17.0834C17.5436 17.9173 17.9167 17.5442 17.9167 17.084V11.6673C17.9167 11.2071 17.5436 10.834 17.0834 10.834ZM12.5001 16.2507V12.5007H16.2501V16.2507H12.5001ZM2.09567 5.8636C1.93295 5.70088 1.93295 5.43706 2.09567 5.27434L2.68493 4.68508C2.84765 4.52237 3.11146 4.52237 3.27418 4.68508L4.74732 6.15822L7.98823 2.91732C8.15095 2.7546 8.41477 2.7546 8.57748 2.91732L9.16674 3.50657C9.32946 3.66929 9.32946 3.93311 9.16674 4.09583L5.10088 8.16169C4.90561 8.35696 4.58903 8.35696 4.39377 8.16169L2.09567 5.8636Z" fill="white" fill-opacity="0.6"/>
</svg>
