<svg width="20" height="20" viewBox="0 0 20 20" fill="none" xmlns="http://www.w3.org/2000/svg">
<path d="M4.16667 6.66602V16.666H12.5V6.66602H4.16667ZM14.1667 5.83268V17.5919C14.1667 18.001 13.8184 18.3327 13.3889 18.3327H3.27778C2.84822 18.3327 2.5 18.001 2.5 17.5919V5.74009C2.5 5.33099 2.84822 4.99935 3.27778 4.99935H13.3333C13.7936 4.99935 14.1667 5.37245 14.1667 5.83268ZM17.2559 1.91009C17.4067 2.0609 17.5 2.26923 17.5 2.49935V12.916C17.5 13.1461 17.3135 13.3327 17.0833 13.3327H16.25C16.0199 13.3327 15.8333 13.1461 15.8333 12.916V3.33268H7.91667C7.68655 3.33268 7.5 3.14613 7.5 2.91602V2.08268C7.5 1.85256 7.68655 1.66602 7.91667 1.66602H16.6667C16.8968 1.66602 17.1051 1.75929 17.2559 1.91009Z" fill="white" fill-opacity="0.6"/>
</svg>
