<svg width="16" height="16" viewBox="0 0 16 16" fill="none" xmlns="http://www.w3.org/2000/svg">
<path d="M3.33333 5.33398V13.334H10V5.33398H3.33333ZM11.3333 4.66732V14.0747C11.3333 14.402 11.0548 14.6673 10.7111 14.6673H2.62222C2.27858 14.6673 2 14.402 2 14.0747V4.59324C2 4.26596 2.27858 4.00065 2.62222 4.00065H10.6667C11.0349 4.00065 11.3333 4.29913 11.3333 4.66732ZM13.8047 1.52925C13.9254 1.64989 14 1.81656 14 2.00065V10.334C14 10.5181 13.8508 10.6673 13.6667 10.6673H13C12.8159 10.6673 12.6667 10.5181 12.6667 10.334V2.66732H6.33333C6.14924 2.66732 6 2.51808 6 2.33398V1.66732C6 1.48322 6.14924 1.33398 6.33333 1.33398H13.3333C13.5174 1.33398 13.6841 1.4086 13.8047 1.52925Z" fill="#646A73"/>
</svg>
