<svg width="18" height="18" viewBox="0 0 18 18" fill="none" xmlns="http://www.w3.org/2000/svg">
<path d="M0 3C0 1.34315 1.46525 0 3.27273 0H14.7273C16.5347 0 18 1.34315 18 3V15C18 16.6569 16.5347 18 14.7273 18H3.27273C1.46525 18 0 16.6569 0 15V3Z" fill="#3370FF"/>
<path opacity="0.6" fill-rule="evenodd" clip-rule="evenodd" d="M3.75 13.5V8.77273C3.75 8.48403 3.98985 8.25 4.28571 8.25H6.5V4.02632C6.5 3.73564 6.75584 3.5 7.07143 3.5H9.92857C10.2442 3.5 10.5 3.73564 10.5 4.02632V5.15039H9.5V4.5H7.5V13.5V14.5H3.5C3.36193 14.5 3.25 14.3881 3.25 14.25V13.75C3.25 13.6119 3.36193 13.5 3.5 13.5H3.75ZM6.5 13.5V9.25H4.75V13.5H6.5Z" fill="white"/>
<rect x="8.5" y="6" width="5.5" height="8.5" fill="#00D6B9"/>
<path d="M11.3043 12.9348C11.7606 12.9348 12.1304 12.5649 12.1304 12.1087C12.1304 11.6525 11.7606 11.2826 11.3043 11.2826C10.8481 11.2826 10.4783 11.6525 10.4783 12.1087C10.4783 12.5649 10.8481 12.9348 11.3043 12.9348Z" fill="white"/>
<path d="M8.41304 5.5C8.18492 5.5 8 5.68492 8 5.91304V14.587C8 14.8151 8.18492 15 8.41304 15H14.1957C14.4238 15 14.6087 14.8151 14.6087 14.587V5.91304C14.6087 5.68492 14.4238 5.5 14.1957 5.5H8.41304ZM9.23913 6.73913H10.0652V7.15217C10.0652 7.38029 10.2501 7.56522 10.4783 7.56522H12.1304C12.3586 7.56522 12.5435 7.38029 12.5435 7.15217V6.73913H13.3696V13.7609H9.23913V6.73913Z" fill="white"/>
</svg>
