<svg width="16" height="16" viewBox="0 0 16 16" fill="none" xmlns="http://www.w3.org/2000/svg">
<path d="M5.33301 2.66732V2.00065C5.33301 1.63246 5.63148 1.33398 5.99967 1.33398H9.99967C10.3679 1.33398 10.6663 1.63246 10.6663 2.00065V2.66732H14.239C14.3876 2.66732 14.4415 2.68279 14.4958 2.71184C14.5501 2.74089 14.5928 2.78352 14.6218 2.83784C14.6509 2.89216 14.6663 2.94605 14.6663 3.09463V3.57334C14.6663 3.72192 14.6509 3.7758 14.6218 3.83013C14.5928 3.88445 14.5501 3.92708 14.4958 3.95613C14.4415 3.98518 14.3876 4.00065 14.239 4.00065H13.333V14.0007C13.333 14.3688 13.0345 14.6673 12.6663 14.6673H3.33301C2.96482 14.6673 2.66634 14.3688 2.66634 14.0007V4.00065H1.76032C1.61174 4.00065 1.55785 3.98518 1.50353 3.95613C1.44921 3.92708 1.40658 3.88445 1.37753 3.83013C1.34848 3.7758 1.33301 3.72192 1.33301 3.57334V3.09463C1.33301 2.94605 1.34848 2.89216 1.37753 2.83784C1.40658 2.78352 1.44921 2.74089 1.50353 2.71184C1.55785 2.68279 1.61174 2.66732 1.76032 2.66732H5.33301ZM3.99967 4.00065V13.334H11.9997V4.00065H3.99967ZM6.33301 5.33398H6.99967C7.18377 5.33398 7.33301 5.48322 7.33301 5.66732V11.6673C7.33301 11.8514 7.18377 12.0007 6.99967 12.0007H6.33301C6.14891 12.0007 5.99967 11.8514 5.99967 11.6673V5.66732C5.99967 5.48322 6.14891 5.33398 6.33301 5.33398ZM8.99967 5.33398H9.66634C9.85044 5.33398 9.99967 5.48322 9.99967 5.66732V11.6673C9.99967 11.8514 9.85044 12.0007 9.66634 12.0007H8.99967C8.81558 12.0007 8.66634 11.8514 8.66634 11.6673V5.66732C8.66634 5.48322 8.81558 5.33398 8.99967 5.33398Z" fill="#646A73"/>
</svg>
