<svg width="16" height="16" viewBox="0 0 16 16" xmlns="http://www.w3.org/2000/svg">
<path d="M3.33333 1.99935V13.9993H12.6667V1.99935H3.33333ZM2.66667 0.666016H13.3333C13.7015 0.666016 14 0.978706 14 1.36443V14.6343C14 15.02 13.7015 15.3327 13.3333 15.3327H2.66667C2.29848 15.3327 2 15.02 2 14.6343V1.36443C2 0.978706 2.29848 0.666016 2.66667 0.666016ZM5 4.66602H7.66667C7.85076 4.66602 8 4.81525 8 4.99935V5.66602C8 5.85011 7.85076 5.99935 7.66667 5.99935H5C4.81591 5.99935 4.66667 5.85011 4.66667 5.66602V4.99935C4.66667 4.81525 4.81591 4.66602 5 4.66602ZM5 7.33268H11C11.1841 7.33268 11.3333 7.48192 11.3333 7.66602V8.33268C11.3333 8.51678 11.1841 8.66602 11 8.66602H5C4.81591 8.66602 4.66667 8.51678 4.66667 8.33268V7.66602C4.66667 7.48192 4.81591 7.33268 5 7.33268ZM5 9.99935H11C11.1841 9.99935 11.3333 10.1486 11.3333 10.3327V10.9993C11.3333 11.1834 11.1841 11.3327 11 11.3327H5C4.81591 11.3327 4.66667 11.1834 4.66667 10.9993V10.3327C4.66667 10.1486 4.81591 9.99935 5 9.99935Z"/>
</svg>
