<svg width="136" height="96" viewBox="0 0 136 96" fill="none" xmlns="http://www.w3.org/2000/svg">
<g filter="url(#filter0_d_4811_19625)">
<path fill-rule="evenodd" clip-rule="evenodd" d="M15.3 9H125.7C126.97 9 128 9.77277 128 10.726V82.274C128 83.2272 126.97 84 125.7 84H15.3C14.0297 84 13 83.2272 13 82.274V10.726C13 9.77277 14.0297 9 15.3 9Z" fill="white" fill-opacity="0.8" shape-rendering="crispEdges"/>
</g>
<g filter="url(#filter1_d_4811_19625)">
<path fill-rule="evenodd" clip-rule="evenodd" d="M10.3 4H120.7C121.97 4 123 4.77277 123 5.72603V77.274C123 78.2272 121.97 79 120.7 79H10.3C9.02974 79 8 78.2272 8 77.274V5.72603C8 4.77277 9.02974 4 10.3 4Z" fill="white"/>
</g>
<rect x="97" y="20" width="22" height="55" rx="1" fill="#F5F6F7"/>
<path fill-rule="evenodd" clip-rule="evenodd" d="M12 72.9821V74C12 74.5523 12.4477 75 13 75H14.0125V74H13L13 72.9821H12ZM12 70.9464H13V68.9107H12V70.9464ZM12 66.875H13V64.8393H12V66.875ZM12 62.8036H13V60.7679H12V62.8036ZM12 58.7321H13V56.6964H12V58.7321ZM12 54.6607H13V52.625H12V54.6607ZM12 50.5893H13V48.5536H12V50.5893ZM12 46.5179H13V44.4821H12V46.5179ZM12 42.4464H13V40.4107H12V42.4464ZM12 38.375H13V36.3393H12V38.375ZM12 34.3036H13V32.2679H12V34.3036ZM12 30.2321H13V28.1964H12V30.2321ZM12 26.0893H13V24.0536H12V26.0893ZM12 22.0179H13V21L14.0125 21V20H13C12.4477 20 12 20.4477 12 21V22.0179ZM16.0375 20V21H18.0625V20H16.0375ZM20.0875 20V21H22.1125V20H20.0875ZM24.1375 20V21H26.1625V20H24.1375ZM28.1875 20V21H30.2125V20H28.1875ZM32.2375 20V21H34.2625V20H32.2375ZM36.2875 20V21H38.3125V20H36.2875ZM40.3375 20V21H42.3625V20H40.3375ZM44.3875 20V21H46.4125V20H44.3875ZM48.4375 20V21H50.4625V20H48.4375ZM52.4875 20V21H54.5125V20H52.4875ZM56.5375 20V21H58.5625V20H56.5375ZM60.5875 20V21H62.6125V20H60.5875ZM64.6375 20V21H66.6625V20H64.6375ZM68.6875 20V21H70.7125V20H68.6875ZM72.7375 20V21H74.7625V20H72.7375ZM76.7875 20V21H78.8125V20H76.7875ZM80.8375 20V21H82.8625V20H80.8375ZM84.8875 20V21H86.9125V20H84.8875ZM88.9375 20V21H90.9625V20H88.9375ZM92.9875 20V21H94V22.0179H95V21C95 20.4477 94.5523 20 94 20H92.9875ZM95 24.0536H94V26.0893H95V24.0536ZM95 28.1964H94V30.2321H95V28.1964ZM95 32.2679H94V34.3036H95V32.2679ZM95 36.3393H94V38.375H95V36.3393ZM95 40.4107H94V42.4464H95V40.4107ZM95 44.4821H94V46.5179H95V44.4821ZM95 48.5536H94V50.5893H95V48.5536ZM95 52.625H94V54.6607H95V52.625ZM95 56.6964H94V58.7321H95V56.6964ZM95 60.7679H94V62.8036H95V60.7679ZM95 64.8393H94V66.875H95V64.8393ZM95 68.9107H94V70.9464H95V68.9107ZM95 72.9821H94V74H92.9875V75H94C94.5523 75 95 74.5523 95 74V72.9821ZM90.9625 75V74H88.9375V75H90.9625ZM86.9125 75V74H84.8875V75H86.9125ZM82.8625 75V74H80.8375V75H82.8625ZM78.8125 75V74H76.7875V75H78.8125ZM74.7625 75V74H72.7375V75H74.7625ZM70.7125 75V74H68.6875V75H70.7125ZM66.6625 75V74H64.6375V75H66.6625ZM62.6125 75V74H60.5875V75H62.6125ZM58.5625 75V74H56.5375V75H58.5625ZM54.5125 75V74H52.4875V75H54.5125ZM50.4625 75V74H48.4375V75H50.4625ZM46.4125 75V74H44.3875V75H46.4125ZM42.3625 75V74H40.3375V75H42.3625ZM38.3125 75V74H36.2875V75H38.3125ZM34.2625 75V74H32.2375V75H34.2625ZM30.2125 75V74H28.1875V75H30.2125ZM26.1625 75V74H24.1375V75H26.1625ZM22.1125 75V74H20.0875V75H22.1125ZM18.0625 75V74H16.0375V75H18.0625Z" fill="#DEE0E3"/>
<path fill-rule="evenodd" clip-rule="evenodd" d="M31.3027 13.5121L30.4999 14.3149L29.697 13.5121C29.6522 13.4673 29.5797 13.4673 29.535 13.5121L29.4613 13.5857C29.4165 13.6305 29.4165 13.703 29.4613 13.7478L30.382 14.6685C30.4471 14.7336 30.5526 14.7336 30.6177 14.6685L31.5384 13.7478C31.5832 13.703 31.5832 13.6305 31.5384 13.5857L31.4648 13.5121C31.42 13.4673 31.3475 13.4673 31.3027 13.5121Z" fill="white"/>
<path fill-rule="evenodd" clip-rule="evenodd" d="M9 4H122C122.552 4 123 4.97005 123 6.16667V17C122.5 17 122.552 17 122 17H9C8.44772 17 8 17 8 17V6.16667C8 4.97005 8.44772 4 9 4Z" fill="#050E21"/>
<g filter="url(#filter2_d_4811_19625)">
<rect x="43" y="17" width="44" height="50" fill="white"/>
</g>
<rect x="45" y="19" width="18.7234" height="13.6296" rx="0.5" fill="#F5F6F7"/>
<path d="M51.0836 27.3737C51.0836 27.6253 50.8797 27.8293 50.628 27.8293C50.3764 27.8293 50.1724 27.6253 50.1724 27.3737V23.8396H49.5044C49.2496 23.8396 49.043 23.633 49.043 23.3781V23.3584C49.043 23.1076 49.2548 22.9142 49.4986 22.8553C49.6483 22.8143 49.7809 22.7469 49.8965 22.6532C50.0162 22.5536 50.1168 22.4247 50.1981 22.2665C50.2368 22.1911 50.2693 22.107 50.2954 22.0143C50.3482 21.8265 50.5062 21.6777 50.7013 21.6777C50.9125 21.6777 51.0836 21.8489 51.0836 22.0601V27.3737Z" fill="#3370FF"/>
<path d="M52.7996 24.0417C52.5598 24.0417 52.3608 23.85 52.3782 23.6109C52.3921 23.4205 52.4188 23.239 52.4583 23.0662C52.5268 22.7616 52.6295 22.4979 52.7664 22.2753C52.9033 22.0468 53.0744 21.8711 53.2797 21.748C53.4894 21.6191 53.729 21.5547 53.9985 21.5547C54.2038 21.5547 54.3985 21.5986 54.5824 21.6865C54.7707 21.7744 54.9354 21.9003 55.0766 22.0644C55.2177 22.2284 55.329 22.4306 55.4103 22.6708C55.4958 22.911 55.5386 23.1805 55.5386 23.4793C55.5386 23.7898 55.5022 24.0563 55.4295 24.279C55.3568 24.5016 55.2605 24.7008 55.1407 24.8766C55.021 25.0465 54.8841 25.2017 54.73 25.3423C54.5803 25.4829 54.4284 25.6235 54.2744 25.7641C54.1204 25.8989 53.9707 26.0454 53.8252 26.2035C53.6798 26.3617 53.5514 26.5463 53.4402 26.7572H55.0643C55.3404 26.7572 55.5643 26.9811 55.5643 27.2572V27.3293C55.5643 27.6055 55.3404 27.8293 55.0643 27.8293H52.2658C52.2658 27.472 52.3022 27.1614 52.3749 26.8978C52.4519 26.6342 52.5546 26.3998 52.6829 26.1948C52.8113 25.9838 52.961 25.7905 53.1321 25.6148C53.3076 25.439 53.4915 25.2603 53.684 25.0787C53.7824 24.9849 53.8872 24.8912 53.9985 24.7975C54.1097 24.6979 54.2102 24.5895 54.3001 24.4723C54.3942 24.3551 54.4712 24.2233 54.5311 24.0768C54.5953 23.9304 54.6274 23.7634 54.6274 23.5759C54.6274 23.2771 54.5632 23.0457 54.4348 22.8817C54.3108 22.7118 54.1503 22.6268 53.9536 22.6268C53.8209 22.6268 53.7076 22.6708 53.6134 22.7586C53.5236 22.8407 53.4509 22.952 53.3953 23.0926C53.3396 23.2273 53.299 23.3797 53.2733 23.5496C53.2711 23.5667 53.269 23.5839 53.267 23.601C53.2387 23.8433 53.0435 24.0417 52.7996 24.0417Z" fill="#3370FF"/>
<path d="M57.6919 24.4798C57.6919 24.3122 57.8396 24.1823 58.0064 24.1647C58.1176 24.153 58.2203 24.1208 58.3144 24.0681C58.4128 24.0095 58.4919 23.9275 58.5518 23.822C58.616 23.7165 58.6481 23.5759 58.6481 23.4002C58.6481 23.1365 58.5839 22.9344 58.4556 22.7938C58.3272 22.6532 58.1796 22.5829 58.0128 22.5829C57.7818 22.5829 57.6064 22.6883 57.4866 22.8993C57.4281 23.0031 57.3849 23.1212 57.3572 23.2536C57.3086 23.4853 57.1262 23.6814 56.8895 23.6814C56.6506 23.6814 56.4555 23.4836 56.4878 23.2469C56.5083 23.0967 56.5374 22.9544 56.5753 22.8202C56.6523 22.5565 56.7571 22.331 56.8898 22.1435C57.0267 21.956 57.1892 21.8125 57.3775 21.7129C57.5657 21.6074 57.7753 21.5547 58.0064 21.5547C58.1861 21.5547 58.3657 21.5928 58.5454 21.6689C58.7251 21.7392 58.8855 21.8476 59.0267 21.9941C59.1722 22.1406 59.2898 22.3192 59.3797 22.5302C59.4695 22.7411 59.5144 22.9842 59.5144 23.2596C59.5144 23.5584 59.4609 23.822 59.354 24.0505C59.2513 24.279 59.0952 24.4342 58.8855 24.5162V24.5338C59.1337 24.61 59.3283 24.774 59.4695 25.026C59.6107 25.2779 59.6813 25.5796 59.6813 25.9311C59.6813 26.2533 59.6342 26.5404 59.5401 26.7923C59.4502 27.0443 59.3283 27.2552 59.1743 27.4251C59.0203 27.595 58.8427 27.7239 58.6417 27.8118C58.4406 27.8996 58.231 27.9436 58.0128 27.9436C57.7604 27.9436 57.5294 27.8938 57.3197 27.7942C57.1144 27.6946 56.939 27.551 56.7935 27.3636C56.6481 27.1702 56.5347 26.9359 56.4534 26.6605C56.4093 26.5028 56.3785 26.3317 56.3611 26.1471C56.3383 25.9065 56.5388 25.7114 56.7805 25.7114C57.0199 25.7114 57.2107 25.9038 57.2582 26.1383C57.2614 26.1543 57.2648 26.1702 57.2684 26.186C57.3026 26.3324 57.3518 26.4613 57.416 26.5726C57.4802 26.6781 57.5593 26.7631 57.6534 26.8275C57.7518 26.8919 57.8673 26.9242 58 26.9242C58.2053 26.9242 58.3786 26.8392 58.5197 26.6693C58.6609 26.4936 58.7315 26.2563 58.7315 25.9575C58.7315 25.7231 58.6973 25.5444 58.6288 25.4214C58.5647 25.2984 58.4812 25.2105 58.3786 25.1578C58.2759 25.0992 58.1625 25.067 58.0385 25.0611C57.8477 25.0424 57.6919 24.8881 57.6919 24.6964V24.4798Z" fill="#3370FF"/>
<path d="M59.1813 29.0078H49.543C49.2668 29.0078 49.043 29.2317 49.043 29.5078V29.7057C49.043 29.9819 49.2668 30.2057 49.543 30.2057H59.1813C59.4574 30.2057 59.6813 29.9819 59.6813 29.7057V29.5078C59.6813 29.2317 59.4574 29.0078 59.1813 29.0078Z" fill="#00D6B9"/>
<rect x="66.2773" y="19" width="18.7234" height="13.6296" rx="0.5" fill="#F5F6F7"/>
<path d="M75.4301 24.6753C75.5122 24.4583 75.8143 24.465 75.8866 24.6855C76.1381 25.4531 76.5204 26.6799 76.5115 27.0164C76.4981 27.517 76.0819 27.9119 75.5818 27.8985C75.0817 27.8851 74.6871 27.4685 74.7005 26.968C74.7095 26.6317 75.1451 25.4287 75.4301 24.6753Z" fill="#00D6B9"/>
<path d="M71.3832 26.453C71.3832 24.1007 73.2883 22.1937 75.6385 22.1937C77.9886 22.1937 79.8938 24.1007 79.8938 26.453C79.8938 27.6187 79.4265 28.6746 78.6678 29.4442C78.5646 29.5489 78.5546 29.7166 78.6526 29.8262L79.0073 30.2229C79.1053 30.3324 79.274 30.3422 79.3784 30.2389C80.3528 29.2743 80.9576 27.934 80.9576 26.453C80.9576 23.5126 78.5762 21.1289 75.6385 21.1289C72.7008 21.1289 70.3193 23.5126 70.3193 26.453C70.3193 27.9213 70.9138 29.2513 71.8735 30.2139C71.9773 30.318 72.146 30.3093 72.2447 30.2004L72.602 29.806C72.7007 29.6971 72.6918 29.5293 72.5894 29.424C71.8424 28.6562 71.3832 27.6086 71.3832 26.453Z" fill="#3370FF"/>
<rect x="45" y="35.1855" width="18.7234" height="13.6296" rx="0.5" fill="#F5F6F7"/>
<path d="M48.6172 37.957C48.6172 37.6809 48.841 37.457 49.1172 37.457H59.4647C59.7408 37.457 59.9647 37.6809 59.9647 37.957V39.7286H48.6172V37.957Z" fill="#3370FF"/>
<path d="M52.0214 40.2969H48.6172V42.0006H52.0214V40.2969Z" fill="#ADC6FF"/>
<path d="M55.9931 40.2969H52.5888V42.0006H55.9931V40.2969Z" fill="#ADC6FF"/>
<path d="M59.9647 40.2969H56.5604V42.0006H59.9647V40.2969Z" fill="#ADC6FF"/>
<path d="M52.0214 44.8401H48.6172V46.2598C48.6172 46.4167 48.7442 46.5438 48.9009 46.5438H52.0214V44.8401Z" fill="#ADC6FF"/>
<path d="M55.9931 44.8401H52.5888V46.5438H55.9931V44.8401Z" fill="#ADC6FF"/>
<path d="M59.9647 44.8401H56.5604V46.5438H59.681C59.8377 46.5438 59.9647 46.4167 59.9647 46.2598V44.8401Z" fill="#ADC6FF"/>
<path d="M52.0214 42.5685H48.6172V44.2722H52.0214V42.5685Z" fill="#ADC6FF"/>
<path d="M55.9931 42.5685H52.5888V44.2722H55.9931V42.5685Z" fill="#ADC6FF"/>
<path d="M59.9647 42.5685H56.5604V44.2722H59.9647V42.5685Z" fill="#ADC6FF"/>
<path d="M66.2773 36.007C66.2773 35.5533 66.6504 35.1855 67.1107 35.1855H84.1674C84.6277 35.1855 85.0007 35.5533 85.0007 36.007V47.9937C85.0007 48.4474 84.6277 48.8152 84.1674 48.8152H67.1107C66.6504 48.8152 66.2773 48.4474 66.2773 47.9937V36.007Z" fill="#F5F6F7"/>
<path fill-rule="evenodd" clip-rule="evenodd" d="M84.1674 35.5141H67.1107C66.8345 35.5141 66.6107 35.7348 66.6107 36.007V47.9937C66.6107 48.2659 66.8345 48.4866 67.1107 48.4866H84.1674C84.4436 48.4866 84.6674 48.2659 84.6674 47.9937V36.007C84.6674 35.7348 84.4436 35.5141 84.1674 35.5141ZM67.1107 35.1855C66.6504 35.1855 66.2773 35.5533 66.2773 36.007V47.9937C66.2773 48.4474 66.6504 48.8152 67.1107 48.8152H84.1674C84.6277 48.8152 85.0007 48.4474 85.0007 47.9937V36.007C85.0007 35.5533 84.6277 35.1855 84.1674 35.1855H67.1107Z" fill="#3370FF"/>
<path d="M70.1772 37.457C70.0206 37.457 69.8936 37.5842 69.8936 37.741V39.7286H81.2411V37.741C81.2411 37.5842 81.1141 37.457 80.9574 37.457H70.1772Z" fill="#3370FF"/>
<path d="M69.8936 40.2965H72.1631V46.5435H70.1772C70.0206 46.5435 69.8936 46.4163 69.8936 46.2595V40.2965Z" fill="#3370FF"/>
<path d="M81.2411 40.2969H72.7305V42.0006H81.2411V40.2969Z" fill="#ADC6FF"/>
<path d="M81.2411 44.8401H72.7305V46.5438H80.9574C81.1141 46.5438 81.2411 46.4167 81.2411 46.2598V44.8401Z" fill="#ADC6FF"/>
<path d="M81.2411 42.5685H72.7305V44.2722H81.2411V42.5685Z" fill="#ADC6FF"/>
<rect x="45" y="51.3711" width="18.7234" height="13.6296" rx="0.5" fill="#F5F6F7"/>
<g clip-path="url(#clip0_4811_19625)">
<path d="M53.8698 55.0398C53.7832 54.9532 53.6416 54.9573 53.5603 55.0489L53.2654 55.3809C53.1252 55.5387 52.9247 55.7643 52.6831 56.0361C52.2 56.5795 51.5529 57.3071 50.897 58.0434C49.5784 59.5238 48.2414 61.0202 48.1081 61.1536C47.9835 61.2784 47.9835 61.4806 48.1081 61.6054C48.2328 61.7301 48.4348 61.7301 48.5595 61.6054C48.7099 61.4548 50.068 59.9342 51.3734 58.4686C52.0296 57.732 52.6768 57.0043 53.16 56.4608C53.3988 56.1921 53.5975 55.9685 53.7375 55.8109L56.4011 58.477C56.4715 58.5475 56.5812 58.5597 56.6653 58.5064L61.3517 55.5377L61.3537 55.5362C61.4981 55.4351 61.5332 55.2359 61.4321 55.0914C61.3316 54.9476 61.1342 54.9121 60.99 55.0112L56.6002 57.7728L53.8698 55.0398Z" fill="#3370FF"/>
<path d="M48.3338 57.8652C48.1575 57.8652 48.0146 58.0083 48.0146 58.1847C48.0146 58.3611 48.1575 58.5041 48.3338 58.5041H53.0087L54.9251 60.7648C54.9604 60.8064 55.0103 60.8329 55.0646 60.8387L61.0612 61.4833C61.2357 61.5046 61.3946 61.3805 61.4164 61.2058C61.4383 61.0307 61.3142 60.871 61.1393 60.8492L55.3045 60.2249L53.368 57.9404C53.3276 57.8927 53.2682 57.8652 53.2057 57.8652H48.3338Z" fill="#00D6B9"/>
<path fill-rule="evenodd" clip-rule="evenodd" d="M47.3404 52.6484V63.0831L62.0213 63.0831L62.0213 63.722H46.7021V52.6484H47.3404Z" fill="#DEE0E3"/>
</g>
<rect x="66.2773" y="51.3711" width="18.7234" height="13.6296" rx="0.5" fill="#F5F6F7"/>
<g clip-path="url(#clip1_4811_19625)">
<path d="M75.6521 56.2206L73.7532 57.4359C73.7053 57.4705 73.6362 57.4705 73.5817 57.4425L71.1894 56.1594C71.1282 56.1248 71.0458 56.1315 70.9979 56.1794C70.9979 56.1794 69.2559 57.9563 69.2559 57.9976V62.6588H82.6601V55.2051L75.6947 56.2007L75.6521 56.2206Z" fill="#ADC6FF"/>
<path d="M82.829 55.2142C82.8043 55.0395 82.6428 54.9179 82.4682 54.9426L75.6027 55.9151L75.4979 55.9643L73.6552 57.1435L71.3425 55.9031C71.1759 55.811 70.935 55.8147 70.7723 55.9775L70.7718 55.9781L70.4978 56.2563C70.3337 56.4229 70.1145 56.6456 69.8938 56.8698C69.7988 56.9664 69.7033 57.0625 69.6079 57.1587C69.4466 57.3212 69.2853 57.4837 69.126 57.6481C69.0028 57.7752 69.0087 57.9783 69.1373 58.0999C69.265 58.2205 69.4659 58.2159 69.5888 58.0905C69.6332 58.0454 69.6775 58.0002 69.7219 57.9551L69.736 57.9407C69.9058 57.768 70.1279 57.5424 70.3485 57.3182C70.5692 57.094 70.7884 56.8714 70.9524 56.7048L71.1368 56.5176L73.4328 57.7491L73.4363 57.7509C73.5721 57.8205 73.7681 57.837 73.9307 57.7255L75.7937 56.5333L82.5577 55.5752C82.7322 55.5505 82.8537 55.3889 82.829 55.2142Z" fill="#3370FF"/>
<path fill-rule="evenodd" clip-rule="evenodd" d="M68.6168 52.6484V63.0831L83.2977 63.0831L83.2977 63.722H67.9785V52.6484H68.6168Z" fill="#DEE0E3"/>
</g>
<rect x="43" y="5" width="11" height="11" rx="1" fill="white" fill-opacity="0.15"/>
<g clip-path="url(#clip2_4811_19625)">
<path d="M48.374 14.123C50.1378 14.123 51.5968 12.8184 51.8388 11.1216C51.8778 10.8482 51.6502 10.623 51.374 10.623C50.374 10.623 49.374 10.623 48.374 10.623C48.374 9.46271 48.374 8.46265 48.374 7.62288C48.374 7.34673 48.1489 7.1193 47.8755 7.15828C46.1786 7.40026 44.874 8.8593 44.874 10.623C44.874 12.556 46.441 14.123 48.374 14.123Z" fill="#3370FF"/>
<path d="M49.4592 9.87377C49.2741 9.87377 49.124 9.72371 49.124 9.53859V7.12221C49.124 6.98916 49.2392 6.88454 49.3703 6.90746C50.7554 7.14971 51.8481 8.24239 52.0903 9.62754C52.1132 9.7586 52.0086 9.87377 51.8756 9.87377H49.4592Z" fill="#00D6B9"/>
</g>
<g filter="url(#filter3_d_4811_19625)">
<path fill-rule="evenodd" clip-rule="evenodd" d="M90.0006 47.3536L94.1487 45.8794L83 39.75L86.2502 52.0504L88.6842 48.3821L91.5982 52.112L92.9147 51.0835L90.0006 47.3536Z" fill="#363B3E"/>
</g>
<g filter="url(#filter4_d_4811_19625)">
<path fill-rule="evenodd" clip-rule="evenodd" d="M96.5823 46.0764L91.6432 47.8317L94.3187 51.2563L91.4263 53.5161L88.7508 50.0915L85.8527 54.4592L81.4375 37.75L96.5823 46.0764ZM88.6846 48.3826L91.5987 52.1124L92.9151 51.0839L90.001 47.3541L94.1491 45.8798L83.0004 39.7504L86.2506 52.0508L88.6846 48.3826Z" fill="white" fill-opacity="0.8"/>
</g>
<defs>
<filter id="filter0_d_4811_19625" x="5" y="5" width="131" height="91" filterUnits="userSpaceOnUse" color-interpolation-filters="sRGB">
<feFlood flood-opacity="0" result="BackgroundImageFix"/>
<feColorMatrix in="SourceAlpha" type="matrix" values="0 0 0 0 0 0 0 0 0 0 0 0 0 0 0 0 0 0 127 0" result="hardAlpha"/>
<feOffset dy="4"/>
<feGaussianBlur stdDeviation="4"/>
<feComposite in2="hardAlpha" operator="out"/>
<feColorMatrix type="matrix" values="0 0 0 0 0.121569 0 0 0 0 0.137255 0 0 0 0 0.160784 0 0 0 0.1 0"/>
<feBlend mode="normal" in2="BackgroundImageFix" result="effect1_dropShadow_4811_19625"/>
<feBlend mode="normal" in="SourceGraphic" in2="effect1_dropShadow_4811_19625" result="shape"/>
</filter>
<filter id="filter1_d_4811_19625" x="0" y="0" width="131" height="91" filterUnits="userSpaceOnUse" color-interpolation-filters="sRGB">
<feFlood flood-opacity="0" result="BackgroundImageFix"/>
<feColorMatrix in="SourceAlpha" type="matrix" values="0 0 0 0 0 0 0 0 0 0 0 0 0 0 0 0 0 0 127 0" result="hardAlpha"/>
<feOffset dy="4"/>
<feGaussianBlur stdDeviation="4"/>
<feComposite in2="hardAlpha" operator="out"/>
<feColorMatrix type="matrix" values="0 0 0 0 0.121569 0 0 0 0 0.137255 0 0 0 0 0.160784 0 0 0 0.1 0"/>
<feBlend mode="normal" in2="BackgroundImageFix" result="effect1_dropShadow_4811_19625"/>
<feBlend mode="normal" in="SourceGraphic" in2="effect1_dropShadow_4811_19625" result="shape"/>
</filter>
<filter id="filter2_d_4811_19625" x="35" y="13" width="60" height="66" filterUnits="userSpaceOnUse" color-interpolation-filters="sRGB">
<feFlood flood-opacity="0" result="BackgroundImageFix"/>
<feColorMatrix in="SourceAlpha" type="matrix" values="0 0 0 0 0 0 0 0 0 0 0 0 0 0 0 0 0 0 127 0" result="hardAlpha"/>
<feOffset dy="4"/>
<feGaussianBlur stdDeviation="4"/>
<feComposite in2="hardAlpha" operator="out"/>
<feColorMatrix type="matrix" values="0 0 0 0 0.121569 0 0 0 0 0.137255 0 0 0 0 0.160784 0 0 0 0.1 0"/>
<feBlend mode="normal" in2="BackgroundImageFix" result="effect1_dropShadow_4811_19625"/>
<feBlend mode="normal" in="SourceGraphic" in2="effect1_dropShadow_4811_19625" result="shape"/>
</filter>
<filter id="filter3_d_4811_19625" x="80" y="37.75" width="17.1484" height="18.3613" filterUnits="userSpaceOnUse" color-interpolation-filters="sRGB">
<feFlood flood-opacity="0" result="BackgroundImageFix"/>
<feColorMatrix in="SourceAlpha" type="matrix" values="0 0 0 0 0 0 0 0 0 0 0 0 0 0 0 0 0 0 127 0" result="hardAlpha"/>
<feOffset dy="1"/>
<feGaussianBlur stdDeviation="1.5"/>
<feColorMatrix type="matrix" values="0 0 0 0 0 0 0 0 0 0 0 0 0 0 0 0 0 0 0.25 0"/>
<feBlend mode="normal" in2="BackgroundImageFix" result="effect1_dropShadow_4811_19625"/>
<feBlend mode="normal" in="SourceGraphic" in2="effect1_dropShadow_4811_19625" result="shape"/>
</filter>
<filter id="filter4_d_4811_19625" x="78.4375" y="35.75" width="21.1445" height="22.709" filterUnits="userSpaceOnUse" color-interpolation-filters="sRGB">
<feFlood flood-opacity="0" result="BackgroundImageFix"/>
<feColorMatrix in="SourceAlpha" type="matrix" values="0 0 0 0 0 0 0 0 0 0 0 0 0 0 0 0 0 0 127 0" result="hardAlpha"/>
<feOffset dy="1"/>
<feGaussianBlur stdDeviation="1.5"/>
<feColorMatrix type="matrix" values="0 0 0 0 0 0 0 0 0 0 0 0 0 0 0 0 0 0 0.25 0"/>
<feBlend mode="normal" in2="BackgroundImageFix" result="effect1_dropShadow_4811_19625"/>
<feBlend mode="normal" in="SourceGraphic" in2="effect1_dropShadow_4811_19625" result="shape"/>
</filter>
<clipPath id="clip0_4811_19625">
<rect width="17.0213" height="11.9259" fill="white" transform="translate(45.8516 52.2227)"/>
</clipPath>
<clipPath id="clip1_4811_19625">
<rect width="17.0213" height="11.9259" fill="white" transform="translate(67.1279 52.2227)"/>
</clipPath>
<clipPath id="clip2_4811_19625">
<rect width="9" height="9" fill="white" transform="translate(44 6)"/>
</clipPath>
</defs>
</svg>
