<svg width="20" height="20" viewBox="0 0 20 20" fill="none" xmlns="http://www.w3.org/2000/svg">
<path fill-rule="evenodd" clip-rule="evenodd" d="M9.17657 10.4785L9.174 10.4816L8.62618 11.1344C8.32264 11.4962 8.30723 11.9378 8.30784 12.1448C8.3082 12.2683 8.31704 12.3875 8.32329 12.4716C8.33061 12.5701 8.33378 12.6159 8.33378 12.6484C8.33383 13.4649 9.10394 14.0621 9.89478 13.859L10.5216 13.698C10.8369 13.617 11.0443 13.4284 11.1599 13.3046C11.219 13.2415 11.2683 13.1794 11.3013 13.1374L11.332 13.0981C11.3503 13.0746 11.3606 13.0614 11.373 13.0467L17.7441 5.45382C17.8648 5.59853 17.9804 5.74754 18.0907 5.90069C18.3024 6.161 18.4971 6.43158 18.6744 6.71176C19.1869 7.51954 19.5332 8.38333 19.7047 9.27787L19.7608 9.61472L19.8024 9.97542L19.8068 10.1754L19.8019 10.3577C19.7208 11.863 18.6414 13.0679 17.2958 13.1619L17.1262 13.1678H15.6529C15.1454 13.1703 14.6687 13.4406 14.3711 13.8943C14.1398 14.2487 14.0366 14.6805 14.0742 15.1056L14.0989 15.2872L14.1737 15.5781C14.3443 16.1879 14.2649 16.8533 13.9574 17.3931C13.7122 17.8236 13.3411 18.1404 12.9127 18.2951L12.7495 18.3454L12.1476 18.4686C11.7129 18.5493 11.2768 18.6057 10.8397 18.638L10.4022 18.6622L9.94788 18.6703C8.6298 18.6703 7.34847 18.4612 6.14512 18.0493C4.97677 17.6491 3.92507 17.0752 3.01631 16.3426C2.1002 15.6023 1.3785 14.7373 0.872027 13.7729C0.340156 12.7578 0.0703125 11.679 0.0703125 10.5664C0.0703125 9.45171 0.338847 8.36362 0.869922 7.32918C1.37691 6.34067 2.09677 5.45017 3.01015 4.68246C3.91985 3.91859 4.97114 3.31868 6.13895 2.89698C7.08916 2.558 8.0712 2.3483 9.06314 2.27184L9.4888 2.24724L9.93729 2.2384L9.95757 2.23438C10.7604 2.23506 11.5548 2.32059 12.3246 2.48573C13.3328 2.63875 14.2782 2.94404 15.1326 3.3804L9.17657 10.4785ZM9.99722 5.18537C10.6309 5.18537 11.1422 5.69878 11.1422 6.33034C11.1422 6.9619 10.6288 7.47531 9.99722 7.47531C9.36352 7.47531 8.85225 6.9619 8.85225 6.33034C8.85225 5.69878 9.36566 5.18537 9.99722 5.18537ZM5.62548 6.74669C6.25704 6.74669 6.77045 7.2601 6.77045 7.89166C6.77045 8.52322 6.25704 9.03663 5.62548 9.03663C4.99177 9.03663 4.48051 8.52322 4.48051 7.89166C4.48051 7.2601 4.99392 6.74669 5.62548 6.74669ZM5.72959 12.0552C5.72745 11.4236 5.21618 10.9102 4.58463 10.9102C3.95307 10.9102 3.43966 11.4236 3.43966 12.0552C3.43966 12.6867 3.95092 13.2001 4.58463 13.2001C5.21618 13.2001 5.72959 12.6867 5.72959 12.0552Z" fill="white" fill-opacity="0.6"/>
<path fill-rule="evenodd" clip-rule="evenodd" d="M10.7341 12.5111C10.6156 12.6523 10.5034 12.8422 10.3137 12.8909L9.68691 13.0519C9.4233 13.1196 9.1666 12.9206 9.16658 12.6484C9.16656 12.3663 9.06493 11.9074 9.26402 11.6701L9.80935 11.0202L9.81191 11.0172L18.2318 0.982833C18.3797 0.806552 18.6425 0.783558 18.8188 0.931475L19.4571 1.46713C19.6334 1.61505 19.6564 1.87786 19.5085 2.05415L10.7341 12.5111Z" fill="white" fill-opacity="0.6"/>
</svg>
