<svg width="14" height="14" viewBox="0 0 14 14" fill="none" xmlns="http://www.w3.org/2000/svg">
<path d="M7 8.75051C6.61658 8.75051 6.24139 8.72031 5.87748 8.66254L5.58699 9.74667C5.5453 9.90227 5.38537 9.9946 5.22977 9.95291L4.66632 9.80193C4.51072 9.76024 4.41838 9.60031 4.46008 9.44472L4.74453 8.38311C4.26992 8.22189 3.8244 8.01131 3.4166 7.75874L2.48953 8.68581C2.37563 8.79971 2.19095 8.79971 2.07705 8.68581L1.66457 8.27333C1.55067 8.15943 1.55067 7.97476 1.66457 7.86085L2.481 7.04443C2.05976 6.65002 1.70788 6.20029 1.44191 5.70942C1.43911 5.70426 1.43622 5.69886 1.43326 5.69326C1.3242 5.48731 1.36501 5.22951 1.53726 5.07254C1.68025 4.94224 1.78127 4.85357 1.86915 4.76569C1.87701 4.75783 1.88561 4.74906 1.89479 4.73958C2.022 4.60813 2.23895 4.65706 2.31345 4.82413C3.03979 6.45297 4.77915 7.58384 7 7.58384C9.12785 7.58384 10.9079 6.48336 11.6224 4.97283C11.641 4.93352 11.6618 4.88402 11.6827 4.83147C11.749 4.66504 11.9646 4.61483 12.0913 4.74149C12.185 4.83517 12.3099 4.96009 12.466 5.11624C12.6204 5.27059 12.6622 5.50632 12.5613 5.69991C12.5367 5.74699 12.5129 5.79135 12.4925 5.82662C12.2181 6.30168 11.8623 6.73605 11.4408 7.11632L12.1853 7.86085C12.2992 7.97476 12.2992 8.15943 12.1853 8.27333L11.7728 8.68581C11.6589 8.79971 11.4742 8.79971 11.3603 8.68581L10.49 7.81546C10.1079 8.04296 9.6941 8.23412 9.25546 8.38311L9.53992 9.44472C9.58161 9.60031 9.48928 9.76024 9.33368 9.80193L8.77023 9.95291C8.61463 9.9946 8.4547 9.90227 8.41301 9.74667L8.12252 8.66254C7.75861 8.72031 7.38342 8.75051 7 8.75051Z" fill="#A6A6A6"/>
</svg>
