<svg width="117" height="101" viewBox="0 0 117 101" fill="none" xmlns="http://www.w3.org/2000/svg">
<path fill-rule="evenodd" clip-rule="evenodd" d="M24.0863 27.6127C25.1565 26.7414 26.4944 26.2656 27.8745 26.2656L105.922 26.2656L89.6639 39.5025H9.48242L24.0863 27.6127Z" fill="#B5BEC8"/>
<path d="M7.5918 42.5586C7.5918 40.3495 9.38266 38.5586 11.5918 38.5586H87.8494C88.954 38.5586 89.8494 39.454 89.8494 40.5586V96.0154C89.8494 98.2246 88.0585 100.015 85.8494 100.015H11.5918C9.38266 100.015 7.5918 98.2246 7.5918 96.0154V42.5586Z" fill="#E7EBED"/>
<path opacity="0.476586" fill-rule="evenodd" clip-rule="evenodd" d="M91.3804 37.078L104.392 26.6879C105.238 26.0128 105.923 26.1633 105.923 27.0242V85.4749C105.923 86.3358 105.238 87.5809 104.392 88.256L91.3804 98.6461C90.535 99.3212 89.8496 99.1706 89.8496 98.3098V39.8591C89.8496 38.9982 90.535 37.7531 91.3804 37.078Z" fill="#B5BEC8"/>
<path fill-rule="evenodd" clip-rule="evenodd" d="M104.729 25.5273L89.3435 39.3488L96.4533 50.6668C97.7391 52.7135 100.532 53.1611 102.393 51.6186L112.103 43.5699C113.658 42.2813 114.008 40.0362 112.92 38.3352L104.729 25.5273Z" fill="#E4E9F0"/>
<path fill-rule="evenodd" clip-rule="evenodd" d="M7.4557 39.4121C7.3302 39.5493 7.23969 39.7135 7.17036 39.8861L1.01787 55.1956C0.948538 55.3681 0.851063 55.5275 0.752038 55.6849C0.285275 56.4267 0.477033 56.9957 1.24261 56.9957L78.9331 56.9957C79.7039 56.9957 80.7895 56.4189 81.4749 55.6696C81.6004 55.5324 81.6909 55.3681 81.7602 55.1956L87.9127 39.8861C87.982 39.7135 88.0795 39.5542 88.1785 39.3968C88.6453 38.6549 88.4535 38.0859 87.6879 38.0859L9.99751 38.0859C9.22668 38.0859 8.14111 38.6628 7.4557 39.4121Z" fill="#F4F5F9"/>
<path d="M38.7381 0.132907L46.7184 16.5297L45.8682 16.9434L37.888 0.546672L38.7381 0.132907Z" fill="#050B3C"/>
<path d="M56.8902 0.587134L57.2698 13.5877L56.3247 13.6153L55.9451 0.614734L56.8902 0.587134Z" fill="#050B3C"/>
<path d="M72.082 7.28972L67.0181 16.6506L66.1865 16.2007L71.2504 6.83984L72.082 7.28972Z" fill="#050B3C"/>
</svg>
