<svg width="16" height="16" viewBox="0 0 16 16" fill="none" xmlns="http://www.w3.org/2000/svg">
<path d="M8.18797 3.74509L9.53107 5.08819L10.5275 4.09082L9.17871 2.73497L8.18797 3.74509ZM8.58872 6.03147L7.25429 4.69704L2.68802 9.3526V9.35463L3.978 10.6446H3.98003L8.58872 6.03147ZM11.7087 4.82469L11.7131 4.82887L4.54236 11.9996H1.99967C1.63148 11.9996 1.33301 11.7011 1.33301 11.3329V8.79026L8.25927 1.8107L8.25271 1.8041L8.72288 1.33393C8.98323 1.07358 9.40534 1.07358 9.66569 1.33393L9.66692 1.33517L11.9564 3.63668C12.2156 3.89723 12.215 4.31838 11.9551 4.57825L11.7087 4.82469ZM1.66634 13.3329H14.333C14.5171 13.3329 14.6663 13.4822 14.6663 13.6663V14.3329C14.6663 14.517 14.5171 14.6663 14.333 14.6663H1.66634C1.48225 14.6663 1.33301 14.517 1.33301 14.3329V13.6663C1.33301 13.4822 1.48225 13.3329 1.66634 13.3329Z" fill="#646A73"/>
</svg>
