<svg width="20" height="20" viewBox="0 0 20 20" fill="none" xmlns="http://www.w3.org/2000/svg">
<path d="M13.3337 9.52522L17.9468 6.7715C18.0296 6.72207 18.1003 6.66005 18.1579 6.58933C18.2643 6.51383 18.3337 6.38969 18.3337 6.24935V6.16871C18.34 6.11084 18.3401 6.05212 18.3337 5.99359V2.49935C18.3337 2.26923 18.2404 2.0609 18.0896 1.91009C17.9388 1.75929 17.7304 1.66602 17.5003 1.66602H2.50033C2.04009 1.66602 1.66699 2.03911 1.66699 2.49935V6.24935C1.66699 6.37491 1.72254 6.48751 1.81039 6.5639C1.874 6.65742 1.95848 6.73887 2.06184 6.80066L6.66699 9.55366V15.5752C6.66699 15.733 6.75616 15.8773 6.89732 15.9478L12.7307 18.8645C13.0077 19.003 13.3337 18.8016 13.3337 18.4918V9.52522Z" fill="white" fill-opacity="0.6"/>
</svg>
