<svg width="40" height="40" viewBox="0 0 40 40" fill="none" xmlns="http://www.w3.org/2000/svg">
<path d="M26.6663 19.0504L35.8926 13.543C36.0582 13.4441 36.1997 13.3201 36.3149 13.1787C36.5276 13.0277 36.6663 12.7794 36.6663 12.4987V12.3374C36.679 12.2217 36.6792 12.1042 36.6663 11.9872V4.9987C36.6663 4.53846 36.4798 4.12179 36.1782 3.82019C35.8766 3.51858 35.4599 3.33203 34.9997 3.33203H4.99967C4.0792 3.33203 3.33301 4.07822 3.33301 4.9987V12.4987C3.33301 12.7498 3.44409 12.975 3.61981 13.1278C3.74703 13.3148 3.91598 13.4777 4.12271 13.6013L13.333 19.1073V31.1503C13.333 31.466 13.5113 31.7545 13.7937 31.8957L25.4603 37.729C26.0144 38.0061 26.6663 37.6032 26.6663 36.9837V19.0504Z" fill="#3370FF"/>
</svg>
