<svg width="18" height="18" viewBox="0 0 18 18" fill="none" xmlns="http://www.w3.org/2000/svg">
<path d="M0.75 3C0.75 2.58579 1.08579 2.25 1.5 2.25H7.78647C8.07055 2.25 8.33025 2.4105 8.45729 2.66459L9 3.75H16.5C16.9142 3.75 17.25 4.08579 17.25 4.5V15C17.25 15.4142 16.9142 15.75 16.5 15.75H1.5C1.08579 15.75 0.75 15.4142 0.75 15V3Z" fill="#FFA53D"/>
<path d="M0.75 4.5C0.75 4.08579 1.08579 3.75 1.5 3.75H16.5C16.9142 3.75 17.25 4.08579 17.25 4.5V15C17.25 15.4142 16.9142 15.75 16.5 15.75H1.5C1.08579 15.75 0.75 15.4142 0.75 15V4.5Z" fill="#FFC60A"/>
</svg>
