<svg width="20" height="20" viewBox="0 0 20 20" xmlns="http://www.w3.org/2000/svg">
<path d="M11.25 14.9993V16.666C11.25 16.7207 11.2392 16.7749 11.2183 16.8255C11.1973 16.876 11.1667 16.922 11.128 16.9606C11.0893 16.9993 11.0433 17.03 10.9928 17.051C10.9422 17.0719 10.8881 17.0827 10.8333 17.0827H9.16667C9.11195 17.0827 9.05777 17.0719 9.00722 17.051C8.95666 17.03 8.91073 16.9993 8.87204 16.9606C8.83335 16.922 8.80266 16.876 8.78172 16.8255C8.76078 16.7749 8.75 16.7207 8.75 16.666V14.9993C8.75 14.8888 8.7939 14.7829 8.87204 14.7047C8.95018 14.6266 9.05616 14.5827 9.16667 14.5827H10.8333C10.8881 14.5827 10.9422 14.5935 10.9928 14.6144C11.0433 14.6353 11.0893 14.666 11.128 14.7047C11.1667 14.7434 11.1973 14.7893 11.2183 14.8399C11.2392 14.8904 11.25 14.9446 11.25 14.9993ZM11.25 3.33268V4.99935C11.25 5.05407 11.2392 5.10825 11.2183 5.1588C11.1973 5.20935 11.1667 5.25529 11.128 5.29398C11.0893 5.33267 11.0433 5.36336 10.9928 5.3843C10.9422 5.40524 10.8881 5.41602 10.8333 5.41602H9.16667C9.05616 5.41602 8.95018 5.37212 8.87204 5.29398C8.7939 5.21584 8.75 5.10986 8.75 4.99935V3.33268C8.75 3.27797 8.76078 3.22378 8.78172 3.17323C8.80266 3.12268 8.83335 3.07675 8.87204 3.03805C8.91073 2.99936 8.95666 2.96867 9.00722 2.94773C9.05777 2.92679 9.11195 2.91602 9.16667 2.91602H10.8333C10.8881 2.91602 10.9422 2.92679 10.9928 2.94773C11.0433 2.96867 11.0893 2.99936 11.128 3.03805C11.1667 3.07675 11.1973 3.12268 11.2183 3.17323C11.2392 3.22378 11.25 3.27797 11.25 3.33268ZM11.25 9.16602V10.8327C11.25 10.8874 11.2392 10.9416 11.2183 10.9921C11.1973 11.0427 11.1667 11.0886 11.128 11.1273C11.0893 11.166 11.0433 11.1967 10.9928 11.2176C10.9422 11.2386 10.8881 11.2493 10.8333 11.2493H9.16667C9.11195 11.2493 9.05777 11.2386 9.00722 11.2176C8.95666 11.1967 8.91073 11.166 8.87204 11.1273C8.83335 11.0886 8.80266 11.0427 8.78172 10.9921C8.76078 10.9416 8.75 10.8874 8.75 10.8327V9.16602C8.75 9.05551 8.7939 8.94953 8.87204 8.87139C8.95018 8.79325 9.05616 8.74935 9.16667 8.74935H10.8333C10.8881 8.74935 10.9422 8.76013 10.9928 8.78107C11.0433 8.80201 11.0893 8.8327 11.128 8.87139C11.1667 8.91008 11.1973 8.95601 11.2183 9.00657C11.2392 9.05712 11.25 9.1113 11.25 9.16602Z"/>
</svg>
