<svg width="16" height="16" viewBox="0 0 16 16" fill="none" xmlns="http://www.w3.org/2000/svg">
<g clip-path="url(#clip0_4299_58875)">
<path d="M8.00033 3.66618C8.46056 3.66618 8.83366 4.03928 8.83366 4.49951C8.83366 4.95975 8.46056 5.33285 8.00033 5.33285C7.54009 5.33285 7.16699 4.95975 7.16699 4.49951C7.16699 4.03928 7.54009 3.66618 8.00033 3.66618Z" fill="#8D9199"/>
<path d="M8.16699 5.99951H7.33366C7.05752 5.99951 6.83366 6.22337 6.83366 6.49951V6.83285C6.83366 7.10899 7.05752 7.33285 7.33366 7.33285H7.50033V10.6662H6.83366C6.55752 10.6662 6.33366 10.89 6.33366 11.1662V11.4995C6.33366 11.7757 6.55752 11.9995 6.83366 11.9995H9.50033C9.77647 11.9995 10.0003 11.7757 10.0003 11.4995V11.1662C10.0003 10.89 9.77647 10.6662 9.50033 10.6662H8.83366V6.66618C8.83366 6.29799 8.53518 5.99951 8.16699 5.99951Z" fill="#8D9199"/>
<path fill-rule="evenodd" clip-rule="evenodd" d="M8.00033 15.3327C3.95033 15.3327 0.666992 12.0493 0.666992 7.99935C0.666992 3.94935 3.95033 0.666016 8.00033 0.666016C12.0503 0.666016 15.3337 3.94935 15.3337 7.99935C15.3337 12.0493 12.0503 15.3327 8.00033 15.3327ZM8.00033 13.9993C11.314 13.9993 14.0003 11.313 14.0003 7.99935C14.0003 4.68568 11.314 1.99935 8.00033 1.99935C4.68666 1.99935 2.00033 4.68568 2.00033 7.99935C2.00033 11.313 4.68666 13.9993 8.00033 13.9993Z" fill="#8D9199"/>
</g>
<defs>
<clipPath id="clip0_4299_58875">
<rect width="16" height="16" fill="white"/>
</clipPath>
</defs>
</svg>
