<svg width="14" height="14" viewBox="0 0 14 14" fill="none" xmlns="http://www.w3.org/2000/svg">
<path d="M3.79167 4.66602V4.37435C3.79167 2.60102 5.22842 1.16602 7 1.16602C8.77158 1.16602 10.2083 2.60102 10.2083 4.37435V4.66602H11.6667C11.9887 4.66602 12.25 4.92852 12.25 5.24935V12.2493C12.25 12.5702 11.9887 12.8327 11.6667 12.8327H2.33333C2.01075 12.8327 1.75 12.5702 1.75 12.2493V5.24935C1.75 4.92852 2.01075 4.66602 2.33333 4.66602H3.79167ZM9.04167 4.37435C9.04167 3.2456 8.12758 2.33268 7 2.33268C6.73186 2.33261 6.46634 2.38536 6.2186 2.48794C5.97086 2.59052 5.74575 2.7409 5.55615 2.9305C5.36655 3.1201 5.21617 3.34521 5.11359 3.59295C5.01101 3.84069 4.95826 4.10621 4.95833 4.37435V4.66602H9.04167V4.37435Z" fill="#A6A6A6"/>
</svg>
