<svg width="20" height="20" viewBox="0 0 20 20" fill="none" xmlns="http://www.w3.org/2000/svg">
<path d="M10.778 7.22266C10.9621 7.22266 11.1113 7.37189 11.1113 7.55599V8.55599C11.1113 8.74008 10.9621 8.88932 10.778 8.88932H8.61133C8.47496 8.88932 8.36155 8.98759 8.33803 9.11717L8.33355 9.1671V15.8338C8.33355 15.9701 8.43181 16.0835 8.5614 16.1071L8.61133 16.1115H17.5002C17.6366 16.1115 17.75 16.0133 17.7735 15.8837L17.778 15.8338V9.1671C17.778 9.03073 17.6797 8.91732 17.5501 8.8938L17.5002 8.88932H15.3335C15.1495 8.88932 15.0002 8.74008 15.0002 8.55599V7.55599C15.0002 7.37189 15.1495 7.22266 15.3335 7.22266H17.5002C18.5383 7.22266 19.3864 8.03614 19.4418 9.06041L19.4447 9.1671V15.8338C19.4447 16.8719 18.6312 17.7199 17.6069 17.7753L17.5002 17.7782H8.61133C7.57324 17.7782 6.72515 16.9647 6.66976 15.9405L6.66688 15.8338V9.1671C6.66688 8.12901 7.48037 7.28092 8.50464 7.22553L8.61133 7.22266H10.778ZM11.9447 2.22266C12.9828 2.22266 13.8308 3.03614 13.8862 4.06041L13.8891 4.1671V10.8338C13.8891 11.8719 13.0756 12.7199 12.0513 12.7753L11.9447 12.7782H9.778C9.5939 12.7782 9.44466 12.629 9.44466 12.4449V11.4449C9.44466 11.2608 9.5939 11.1115 9.778 11.1115H11.9447C12.081 11.1115 12.1944 11.0133 12.218 10.8837L12.2224 10.8338V4.1671C12.2224 4.03073 12.1242 3.91732 11.9946 3.8938L11.9447 3.88932H3.05577C2.91941 3.88932 2.80599 3.98759 2.78247 4.11717L2.77799 4.1671V10.8338C2.77799 10.9701 2.87626 11.0836 3.00584 11.1071L3.05577 11.1115H5.22244C5.40653 11.1115 5.55577 11.2608 5.55577 11.4449V12.4449C5.55577 12.629 5.40653 12.7782 5.22244 12.7782H3.05577C2.01768 12.7782 1.16959 11.9647 1.11421 10.9405L1.11133 10.8338V4.1671C1.11133 3.12901 1.92482 2.28092 2.94909 2.22553L3.05577 2.22266H11.9447Z" fill="#646A73"/>
</svg>
