<svg width="16" height="16" viewBox="0 0 16 16" fill="none" xmlns="http://www.w3.org/2000/svg">
<g clip-path="url(#clip0_6146_26369)">
<path d="M12.4954 11.5527L15.145 14.2027C15.2075 14.2652 15.2426 14.3499 15.2426 14.4383C15.2426 14.5267 15.2075 14.6115 15.145 14.674L14.6737 15.1453C14.6112 15.2078 14.5264 15.2429 14.438 15.2429C14.3496 15.2429 14.2649 15.2078 14.2024 15.1453L11.5524 12.4953C10.3628 13.4706 8.87157 14.0026 7.33336 14.0003C3.65135 14.0003 0.666687 11.0157 0.666687 7.33366C0.666687 3.65166 3.65135 0.666992 7.33336 0.666992C11.0154 0.666992 14 3.65166 14 7.33366C14 8.93466 13.4357 10.4037 12.4954 11.5527ZM6.66669 6.66699V5.00033C6.66669 4.91192 6.70181 4.82714 6.76432 4.76462C6.82683 4.70211 6.91162 4.66699 7.00002 4.66699H7.66669C7.75509 4.66699 7.83988 4.70211 7.90239 4.76462C7.9649 4.82714 8.00002 4.91192 8.00002 5.00033V6.66699H9.66669C9.71046 6.66699 9.75381 6.67561 9.79425 6.69237C9.83469 6.70912 9.87144 6.73367 9.90239 6.76462C9.93334 6.79558 9.9579 6.83232 9.97465 6.87276C9.9914 6.91321 10 6.95655 10 7.00033V7.66699C10 7.71077 9.9914 7.75411 9.97465 7.79455C9.9579 7.83499 9.93334 7.87174 9.90239 7.90269C9.87144 7.93365 9.83469 7.9582 9.79425 7.97495C9.75381 7.9917 9.71046 8.00033 9.66669 8.00033H8.00002V9.66699C8.00002 9.71077 7.9914 9.75411 7.97465 9.79455C7.9579 9.83499 7.93334 9.87174 7.90239 9.90269C7.87144 9.93365 7.83469 9.9582 7.79425 9.97495C7.75381 9.9917 7.71046 10.0003 7.66669 10.0003H7.00002C6.91162 10.0003 6.82683 9.96521 6.76432 9.90269C6.70181 9.84018 6.66669 9.7554 6.66669 9.66699V8.00033H5.00002C4.91162 8.00033 4.82683 7.96521 4.76432 7.90269C4.70181 7.84018 4.66669 7.7554 4.66669 7.66699V7.00033C4.66669 6.91192 4.70181 6.82714 4.76432 6.76462C4.82683 6.70211 4.91162 6.66699 5.00002 6.66699H6.66669ZM7.33336 12.667C10.279 12.667 12.6667 10.2793 12.6667 7.33366C12.6667 4.38799 10.279 2.00033 7.33336 2.00033C4.38769 2.00033 2.00002 4.38799 2.00002 7.33366C2.00002 10.2793 4.38769 12.667 7.33336 12.667Z" fill="#A6A6A6"/>
</g>
<defs>
<clipPath id="clip0_6146_26369">
<rect width="16" height="16" fill="white"/>
</clipPath>
</defs>
</svg>
