<svg width="20" height="20" viewBox="0 0 20 20" xmlns="http://www.w3.org/2000/svg">
<path fill-rule="evenodd" clip-rule="evenodd" d="M9.17626 10.478L9.1737 10.4811L8.62587 11.1339C8.32233 11.4957 8.30693 11.9373 8.30753 12.1443C8.30789 12.2679 8.31674 12.387 8.32299 12.4711C8.33031 12.5696 8.33347 12.6154 8.33347 12.6479C8.33352 13.4644 9.10363 14.0616 9.89447 13.8585L10.5213 13.6975C10.8366 13.6165 11.044 13.4279 11.1596 13.3042C11.2187 13.241 11.268 13.1789 11.3009 13.137L11.3317 13.0976C11.35 13.0741 11.3603 13.0609 11.3727 13.0462L17.7438 5.45333C17.8645 5.59804 17.9801 5.74705 18.0904 5.9002C18.3021 6.16051 18.4968 6.43109 18.674 6.71127C19.1866 7.51905 19.5329 8.38284 19.7044 9.27738L19.7605 9.61423L19.8021 9.97493L19.8065 10.1749L19.8016 10.3572C19.7205 11.8625 18.6411 13.0675 17.2955 13.1614L17.1259 13.1673H15.6526C15.1451 13.1698 14.6684 13.4401 14.3708 13.8938C14.1395 14.2482 14.0363 14.68 14.0739 15.1051L14.0986 15.2867L14.1734 15.5776C14.344 16.1874 14.2646 16.8528 13.9571 17.3927C13.7119 17.8231 13.3408 18.1399 12.9124 18.2946L12.7492 18.3449L12.1473 18.4682C11.7126 18.5488 11.2765 18.6052 10.8394 18.6375L10.4019 18.6618L9.94757 18.6698C8.6295 18.6698 7.34817 18.4608 6.14481 18.0488C4.97646 17.6486 3.92476 17.0747 3.01601 16.3421C2.09989 15.6018 1.37819 14.7368 0.871722 13.7724C0.339851 12.7573 0.0700073 11.6785 0.0700073 10.5659C0.0700073 9.45122 0.338542 8.36313 0.869617 7.32869C1.37661 6.34018 2.09646 5.44968 3.00985 4.68197C3.91954 3.91811 4.97084 3.3182 6.13865 2.89649C7.08885 2.55752 8.07089 2.34781 9.06283 2.27135L9.4885 2.24675L9.93698 2.23791L9.95726 2.23389C10.7601 2.23457 11.5545 2.3201 12.3243 2.48524C13.3324 2.63826 14.2779 2.94355 15.1323 3.37991L9.17626 10.478ZM9.99692 5.18488C10.6306 5.18488 11.1419 5.69829 11.1419 6.32985C11.1419 6.96141 10.6285 7.47482 9.99692 7.47482C9.36321 7.47482 8.85195 6.96141 8.85195 6.32985C8.85195 5.69829 9.36536 5.18488 9.99692 5.18488ZM5.62517 6.7462C6.25673 6.7462 6.77014 7.25961 6.77014 7.89117C6.77014 8.52273 6.25673 9.03614 5.62517 9.03614C4.99147 9.03614 4.4802 8.52273 4.4802 7.89117C4.4802 7.25961 4.99361 6.7462 5.62517 6.7462ZM5.72929 12.0547C5.72714 11.4231 5.21588 10.9097 4.58432 10.9097C3.95276 10.9097 3.43935 11.4231 3.43935 12.0547C3.43935 12.6863 3.95061 13.1997 4.58432 13.1997C5.21588 13.1997 5.72929 12.6863 5.72929 12.0547Z" />
<path fill-rule="evenodd" clip-rule="evenodd" d="M10.7343 12.5106C10.6158 12.6518 10.5036 12.8417 10.3139 12.8904L9.6871 13.0514C9.42348 13.1191 9.16678 12.9201 9.16676 12.6479C9.16675 12.3658 9.06511 11.9069 9.2642 11.6696L9.80953 11.0197L9.81209 11.0167L18.2319 0.982344C18.3799 0.806063 18.6427 0.78307 18.8189 0.930987L19.4573 1.46664C19.6336 1.61456 19.6566 1.87738 19.5087 2.05366L10.7343 12.5106Z" />
</svg>
