<?xml version="1.0" standalone="no"?><!DOCTYPE svg PUBLIC "-//W3C//DTD SVG 1.1//EN" "http://www.w3.org/Graphics/SVG/1.1/DTD/svg11.dtd"><svg t="1710744481632" class="icon" viewBox="0 0 1024 1024" version="1.1" xmlns="http://www.w3.org/2000/svg" p-id="5131" xmlns:xlink="http://www.w3.org/1999/xlink" width="200" height="200"><path d="M928 960H576c-17.67 0-32-14.33-32-32V576c0-17.67 14.33-32 32-32h352c17.67 0 32 14.33 32 32v352c0 17.67-14.33 32-32 32z m-320-64h288V608H608v288zM448 960H96c-17.67 0-32-14.33-32-32V576c0-17.67 14.33-32 32-32h352c17.67 0 32 14.33 32 32v352c0 17.67-14.33 32-32 32z m-320-64h288V608H128v288zM448 480H96c-17.67 0-32-14.33-32-32V96c0-17.67 14.33-32 32-32h352c17.67 0 32 14.33 32 32v352c0 17.67-14.33 32-32 32z m-320-64h288V128H128v288zM752 480c-8.19 0-16.38-3.12-22.63-9.37l-176-176c-12.5-12.5-12.5-32.76 0-45.25l176-176c12.5-12.5 32.76-12.5 45.25 0l176 176c12.5 12.5 12.5 32.76 0 45.25l-176 176c-6.24 6.25-14.43 9.37-22.62 9.37zM621.25 272L752 402.75 882.75 272 752 141.25 621.25 272z" p-id="5132"></path></svg>