<svg xmlns="http://www.w3.org/2000/svg" width="20" height="20" viewBox="0 0 20 20" fill="none">
  <path d="M2.49935 2.5C2.03912 2.5 1.66602 2.8731 1.66602 3.33333V16.6667C1.66602 17.1269 2.03912 17.5 2.49935 17.5H17.4993C17.9596 17.5 18.3327 17.1269 18.3327 16.6667V3.33333C18.3327 2.8731 17.9596 2.5 17.4993 2.5H2.49935ZM16.666 4.1666V12.5001L14.8773 10.7113C14.7146 10.5487 14.4508 10.5487 14.288 10.7113L11.9607 13.0387C11.7979 13.2015 11.5341 13.2015 11.3713 13.0387L6.96064 8.628C6.79792 8.46533 6.53411 8.46533 6.37139 8.628L3.33268 11.6667V4.1666H16.666ZM13.3327 6.25C13.1026 6.25 12.916 6.43655 12.916 6.66667V7.91667C12.916 8.14678 13.1026 8.33333 13.3327 8.33333H14.5827C14.8128 8.33333 14.9993 8.14678 14.9993 7.91667V6.66667C14.9993 6.43655 14.8128 6.25 14.5827 6.25H13.3327Z" fill="white" fill-opacity="0.6"/>
</svg>