<svg width="14" height="14" viewBox="0 0 14 14" fill="none" xmlns="http://www.w3.org/2000/svg">
<path d="M7.875 10.4993V11.666C7.875 11.7043 7.86746 11.7422 7.8528 11.7776C7.83814 11.813 7.81666 11.8452 7.78957 11.8723C7.76249 11.8993 7.73034 11.9208 7.69495 11.9355C7.65956 11.9501 7.62164 11.9577 7.58333 11.9577H6.41667C6.37836 11.9577 6.34044 11.9501 6.30505 11.9355C6.26966 11.9208 6.23751 11.8993 6.21043 11.8723C6.18334 11.8452 6.16186 11.813 6.1472 11.7776C6.13254 11.7422 6.125 11.7043 6.125 11.666V10.4993C6.125 10.422 6.15573 10.3478 6.21043 10.2931C6.26513 10.2384 6.33931 10.2077 6.41667 10.2077H7.58333C7.62164 10.2077 7.65956 10.2152 7.69495 10.2299C7.73034 10.2445 7.76249 10.266 7.78957 10.2931C7.81666 10.3202 7.83814 10.3523 7.8528 10.3877C7.86746 10.4231 7.875 10.461 7.875 10.4993ZM7.875 2.33268V3.49935C7.875 3.53765 7.86746 3.57558 7.8528 3.61097C7.83814 3.64635 7.81666 3.6785 7.78957 3.70559C7.76249 3.73267 7.73034 3.75416 7.69495 3.76881C7.65956 3.78347 7.62164 3.79102 7.58333 3.79102H6.41667C6.33931 3.79102 6.26513 3.76029 6.21043 3.70559C6.15573 3.65089 6.125 3.5767 6.125 3.49935V2.33268C6.125 2.29438 6.13254 2.25645 6.1472 2.22107C6.16186 2.18568 6.18334 2.15353 6.21043 2.12644C6.23751 2.09936 6.26966 2.07788 6.30505 2.06322C6.34044 2.04856 6.37836 2.04102 6.41667 2.04102H7.58333C7.62164 2.04102 7.65956 2.04856 7.69495 2.06322C7.73034 2.07788 7.76249 2.09936 7.78957 2.12644C7.81666 2.15353 7.83814 2.18568 7.8528 2.22107C7.86746 2.25645 7.875 2.29438 7.875 2.33268ZM7.875 6.41602V7.58268C7.875 7.62099 7.86746 7.65891 7.8528 7.6943C7.83814 7.72969 7.81666 7.76184 7.78957 7.78892C7.76249 7.81601 7.73034 7.83749 7.69495 7.85215C7.65956 7.86681 7.62164 7.87435 7.58333 7.87435H6.41667C6.37836 7.87435 6.34044 7.86681 6.30505 7.85215C6.26966 7.83749 6.23751 7.81601 6.21043 7.78892C6.18334 7.76184 6.16186 7.72969 6.1472 7.6943C6.13254 7.65891 6.125 7.62099 6.125 7.58268V6.41602C6.125 6.33866 6.15573 6.26447 6.21043 6.20978C6.26513 6.15508 6.33931 6.12435 6.41667 6.12435H7.58333C7.62164 6.12435 7.65956 6.13189 7.69495 6.14655C7.73034 6.16121 7.76249 6.18269 7.78957 6.20978C7.81666 6.23686 7.83814 6.26901 7.8528 6.3044C7.86746 6.33979 7.875 6.37771 7.875 6.41602Z" fill="#A6A6A6"/>
</svg>
