<svg width="20" height="20" viewBox="0 0 20 20" fill="none" xmlns="http://www.w3.org/2000/svg">
<path d="M8.45085 14.9901L4.88808 14.9815C4.75001 14.9812 4.63835 14.869 4.63868 14.7309C4.63884 14.6648 4.66517 14.6015 4.7119 14.5548L8.15591 11.1108C8.28608 10.9806 8.49714 10.9806 8.62731 11.1108L10.2165 12.7L14.431 8.48555C14.5612 8.35537 14.7722 8.35537 14.9024 8.48555C14.9649 8.54806 15 8.63285 15 8.72125V14.7498C15 14.8879 14.8881 14.9998 14.75 14.9998H8.52024C8.49616 14.9998 8.47288 14.9964 8.45085 14.9901ZM2.50002 18.3332C2.03978 18.3332 1.66669 17.9601 1.66669 17.4998V2.49984C1.66669 2.0396 2.03978 1.6665 2.50002 1.6665H17.5C17.9603 1.6665 18.3334 2.0396 18.3334 2.49984V17.4998C18.3334 17.9601 17.9603 18.3332 17.5 18.3332H2.50002ZM3.33335 16.6665H16.6667V3.33317H3.33335V16.6665ZM5.00002 5.24984C5.00002 5.11177 5.11195 4.99984 5.25002 4.99984H7.25002C7.38809 4.99984 7.50002 5.11177 7.50002 5.24984V7.24984C7.50002 7.38791 7.38809 7.49984 7.25002 7.49984H5.25002C5.11195 7.49984 5.00002 7.38791 5.00002 7.24984V5.24984Z" fill="#A6A6A6"/>
</svg>
