<?xml version="1.0" standalone="no"?><!DOCTYPE svg PUBLIC "-//W3C//DTD SVG 1.1//EN" "http://www.w3.org/Graphics/SVG/1.1/DTD/svg11.dtd"><svg t="1710745564820" class="icon" viewBox="0 0 1024 1024" version="1.1" xmlns="http://www.w3.org/2000/svg" p-id="4252" xmlns:xlink="http://www.w3.org/1999/xlink" width="200" height="200"><path d="M512 924c-55.6 0-109.6-10.9-160.4-32.4-49.1-20.8-93.1-50.5-131-88.3-37.8-37.8-67.5-81.9-88.3-131C110.9 621.6 100 567.6 100 512s10.9-109.6 32.4-160.4c20.8-49.1 50.5-93.1 88.3-131 37.8-37.8 81.9-67.5 131-88.3C402.4 110.9 456.4 100 512 100c75.8 0 150 20.8 214.4 60.1 11.8 7.2 15.5 22.6 8.3 34.4-7.2 11.8-22.6 15.5-34.4 8.3C643.8 168.2 578.6 150 512 150c-199.6 0-362 162.4-362 362s162.4 362 362 362 362-162.4 362-362c0-11.6-0.6-23.3-1.7-34.8-1.3-13.7 8.8-26 22.5-27.3 13.7-1.3 26 8.8 27.3 22.5 1.2 13.1 1.9 26.4 1.9 39.6 0 55.6-10.9 109.6-32.4 160.4-20.8 49.1-50.5 93.1-88.3 131-37.8 37.8-81.9 67.5-131 88.3C621.6 913.1 567.6 924 512 924z" p-id="4253"></path><path d="M696.4 512.5H508.3c-13.8 0-25 11.3-25 25s11.2 25 25 25h188.1c13.8 0 25-11.3 25-25s-11.2-25-25-25z" p-id="4254"></path><path d="M508.3 313c-13.8 0-25 11.3-25 25v199.5c0 13.8 11.3 25 25 25s25-11.3 25-25V338c0-13.7-11.2-25-25-25z m357.4-54.1l-42.4-137.7c-7.2-23.4-37.9-28.8-52.6-9.3L669 246.4c-14.8 19.5-1.2 47.5 23.3 48.1l144.1 3.2c20.4 0.5 35.3-19.2 29.3-38.8zM510 798.3c-13.8 0-25 11.3-25 25v11.5c0 13.8 11.3 25 25 25s25-11.3 25-25v-11.5c0-13.8-11.2-25-25-25z m-1-631c-13.8 0-25 11.3-25 25v11.5c0 13.8 11.3 25 25 25s25-11.3 25-25v-11.5c0-13.8-11.2-25-25-25zM205.3 515.5h-11.5c-13.8 0-25 11.3-25 25s11.3 25 25 25h11.5c13.8 0 25-11.3 25-25s-11.3-25-25-25z m623 0h-12.5c-13.8 0-25 11.3-25 25s11.3 25 25 25h12.5c13.8 0 25-11.3 25-25s-11.3-25-25-25z" p-id="4255"></path></svg>