<svg width="16" height="16" viewBox="0 0 16 16" fill="none" xmlns="http://www.w3.org/2000/svg">
<path d="M14.0021 1.77734C14.3396 1.77734 14.6186 2.02815 14.6627 2.35355L14.6688 2.44401V13.5614C14.6688 13.8989 14.418 14.1779 14.0926 14.222L14.0021 14.2281H9.89167C9.73059 14.2281 9.59619 14.1138 9.56511 13.962L9.55834 13.8948V13.2281C9.55834 13.067 9.6726 12.9326 9.82449 12.9015L9.89167 12.8948H13.3355V3.11068H4.40563L4.40652 6.11325C4.40652 6.29735 4.25728 6.44659 4.07319 6.44659H3.40652C3.22243 6.44659 3.07319 6.29735 3.07319 6.11325V2.11068C3.07319 1.94959 3.18745 1.8152 3.33934 1.78412L3.40652 1.77734H14.0021ZM6.64113 7.59282C6.73925 7.59282 6.83418 7.6276 6.90908 7.69097L9.70393 10.0559C9.87882 10.2038 9.90063 10.4656 9.75265 10.6405C9.73779 10.658 9.72149 10.6743 9.70393 10.6892L6.90908 13.0541C6.73419 13.202 6.47245 13.1802 6.32447 13.0053C6.26109 12.9304 6.22632 12.8355 6.22632 12.7374L6.22681 11.1164L2.11165 11.1164C1.92756 11.1164 1.77832 10.9672 1.77832 10.7831V10.1164C1.77832 9.93231 1.92756 9.78307 2.11165 9.78307L6.22681 9.78305L6.22632 8.00764C6.22632 7.77854 6.41204 7.59282 6.64113 7.59282Z" fill="#646A73"/>
</svg>
