<svg width="21" height="20" viewBox="0 0 21 20"  xmlns="http://www.w3.org/2000/svg">
<path d="M8.83342 1.66669H3.00008C2.53984 1.66669 2.16675 2.03978 2.16675 2.50002V8.33335C2.16675 8.79359 2.53984 9.16669 3.00008 9.16669H8.83342C9.29365 9.16669 9.66675 8.79359 9.66675 8.33335V2.50002C9.66675 2.03978 9.29365 1.66669 8.83342 1.66669Z" />
<path d="M8.83342 10.8334H3.00008C2.53984 10.8334 2.16675 11.2064 2.16675 11.6667V17.5C2.16675 17.9603 2.53984 18.3334 3.00008 18.3334H8.83342C9.29365 18.3334 9.66675 17.9603 9.66675 17.5V11.6667C9.66675 11.2064 9.29365 10.8334 8.83342 10.8334Z" />
<path d="M18.0001 1.66669H12.1667C11.7065 1.66669 11.3334 2.03978 11.3334 2.50002V8.33335C11.3334 8.79359 11.7065 9.16669 12.1667 9.16669H18.0001C18.4603 9.16669 18.8334 8.79359 18.8334 8.33335V2.50002C18.8334 2.03978 18.4603 1.66669 18.0001 1.66669Z" />
<path d="M17.9511 10.8334H12.2158C11.7285 10.8334 11.3334 11.2284 11.3334 11.7157V17.451C11.3334 17.9383 11.7285 18.3334 12.2158 18.3334H17.9511C18.4384 18.3334 18.8334 17.9383 18.8334 17.451V11.7157C18.8334 11.2284 18.4384 10.8334 17.9511 10.8334Z" />
</svg>
