<svg width="20" height="20" viewBox="0 0 20 20" fill="none" xmlns="http://www.w3.org/2000/svg">
<path d="M2.08315 16.666V9.62056C2.08315 9.1394 2.4829 8.74935 2.97601 8.74935H6.66649V2.54321C6.66649 2.05875 7.09288 1.66602 7.61887 1.66602H12.3808C12.9068 1.66602 13.3332 2.05875 13.3332 2.54321V6.66602H17.0236C17.5167 6.66602 17.9165 7.03911 17.9165 7.49935V16.666H18.7497C18.9798 16.666 19.1663 16.8526 19.1663 17.0827V17.916C19.1663 18.1461 18.9798 18.3327 18.7497 18.3327H1.24967C1.01956 18.3327 0.833008 18.1461 0.833008 17.916V17.0827C0.833008 16.8526 1.01956 16.666 1.24967 16.666H2.08315ZM16.2498 16.666V8.33268H13.3332V16.666H16.2498ZM11.6665 16.666V3.33268H8.33315V16.666H11.6665ZM6.66649 16.666V10.416H3.74982V16.666H6.66649Z" fill="#3370FF"/>
</svg>
