<?xml version="1.0" standalone="no"?><!DOCTYPE svg PUBLIC "-//W3C//DTD SVG 1.1//EN" "http://www.w3.org/Graphics/SVG/1.1/DTD/svg11.dtd"><svg t="1690342810342" class="icon" viewBox="0 0 1024 1024" version="1.1" xmlns="http://www.w3.org/2000/svg" p-id="2380" xmlns:xlink="http://www.w3.org/1999/xlink" width="200" height="200"><path d="M87 160h850c13.255 0 24 10.745 24 24v656c0 13.255-10.745 24-24 24H87c-13.255 0-24-10.745-24-24V184c0-13.255 10.745-24 24-24z" fill="#C5C5C5" fill-opacity=".45" p-id="2381" data-spm-anchor-id="a313x.7781069.0.i1" class="selected"></path><path d="M111 864l128.17-128.361c22.092-22.125 57.936-22.151 80.06-0.06 22.124 22.091 57.968 22.065 80.06-0.06l120.576-120.756c39.023-39.081 102.34-39.128 141.42-0.105L911 864H111z" fill="#ABABAB" fill-opacity=".574" p-id="2382" data-spm-anchor-id="a313x.7781069.0.i0" class="selected"></path><path d="M321 487m-48 0a48 48 0 1 0 96 0 48 48 0 1 0-96 0Z" fill="#ABABAB" fill-opacity=".574" p-id="2383"></path><path d="M71 160h882a8 8 0 0 1 8 8v104H63V168a8 8 0 0 1 8-8z" fill="#ABABAB" fill-opacity=".5" p-id="2384"></path><path d="M287 216m-16 0a16 16 0 1 0 32 0 16 16 0 1 0-32 0Z" fill="#000000" fill-opacity=".302" p-id="2385"></path><path d="M207 216m-16 0a16 16 0 1 0 32 0 16 16 0 1 0-32 0Z" fill="#000000" fill-opacity=".302" p-id="2386"></path><path d="M127 216m-16 0a16 16 0 1 0 32 0 16 16 0 1 0-32 0Z" fill="#000000" fill-opacity=".302" p-id="2387"></path></svg>