<svg width="16" height="16" viewBox="0 0 16 16" xmlns="http://www.w3.org/2000/svg">
<path d="M1.66634 14.0009C1.48225 14.0009 1.33301 13.8516 1.33301 13.6675V13.0009C1.33301 12.8168 1.48225 12.6675 1.66634 12.6675H14.333C14.5171 12.6675 14.6663 12.8168 14.6663 13.0009V13.6675C14.6663 13.8516 14.5171 14.0009 14.333 14.0009H1.66634Z" />
<path d="M4.12723 6.36983L7.33301 9.57561V1.68954C7.33301 1.49317 7.49219 1.33398 7.68856 1.33398H8.31078C8.50715 1.33398 8.66634 1.49317 8.66634 1.68954V9.59118L11.8877 6.36983C12.0265 6.23098 12.2517 6.23098 12.3905 6.36983L12.8305 6.80981C12.9693 6.94866 12.9693 7.17379 12.8305 7.31264L8.30501 11.8381C8.22382 11.9193 8.11314 11.953 8.00746 11.9393C7.90177 11.953 7.79109 11.9193 7.70991 11.8381L3.18442 7.31264C3.04557 7.17379 3.04557 6.94866 3.18442 6.80981L3.6244 6.36983C3.76325 6.23098 3.98838 6.23098 4.12723 6.36983Z" />
</svg>
