<svg width="40" height="40" viewBox="0 0 40 40" fill="none" xmlns="http://www.w3.org/2000/svg">
<path d="M16.9016 29.9812L9.7761 29.9641C9.49996 29.9634 9.27664 29.739 9.2773 29.4629C9.27762 29.3307 9.33027 29.204 9.42375 29.1105L16.3118 22.2225C16.5721 21.9621 16.9942 21.9621 17.2546 22.2225L20.433 25.401L28.8619 16.9721C29.1223 16.7117 29.5444 16.7117 29.8047 16.9721C29.9297 17.0971 30 17.2667 30 17.4435V29.5007C30 29.7768 29.7761 30.0007 29.5 30.0007H17.0404C16.9923 30.0007 16.9457 29.9939 16.9016 29.9812ZM4.99998 36.6673C4.07951 36.6673 3.33331 35.9211 3.33331 35.0007V5.00065C3.33331 4.08018 4.07951 3.33398 4.99998 3.33398H35C35.9205 3.33398 36.6666 4.08018 36.6666 5.00065V35.0007C36.6666 35.9211 35.9205 36.6673 35 36.6673H4.99998ZM6.66665 33.334H33.3333V6.66732H6.66665V33.334ZM9.99998 10.2507C9.99998 10.1126 10.1119 10.0007 10.25 10.0007H14.75C14.8881 10.0007 15 10.1126 15 10.2507V14.7507C15 14.8887 14.8881 15.0007 14.75 15.0007H10.25C10.1119 15.0007 9.99998 14.8887 9.99998 14.7507V10.2507Z" fill="#A6A6A6"/>
</svg>
