<svg width="20" height="20" viewBox="0 0 20 20" fill="none" xmlns="http://www.w3.org/2000/svg">
<path fill-rule="evenodd" clip-rule="evenodd" d="M13.75 14.1665H17.7992C17.9849 14.1665 18.0523 14.1858 18.1202 14.2222C18.1881 14.2585 18.2414 14.3118 18.2777 14.3797C18.314 14.4476 18.3334 14.5149 18.3334 14.7006V15.299C18.3334 15.4848 18.314 15.5521 18.2777 15.62C18.2414 15.6879 18.1881 15.7412 18.1202 15.7775C18.0523 15.8138 17.9849 15.8332 17.7992 15.8332H13.75V17.799C13.75 17.9848 13.7307 18.0521 13.6944 18.12C13.6581 18.1879 13.6048 18.2412 13.5369 18.2775C13.469 18.3138 13.4016 18.3332 13.2159 18.3332H12.6175C12.4318 18.3332 12.3644 18.3138 12.2965 18.2775C12.2286 18.2412 12.1753 18.1879 12.139 18.12C12.1027 18.0521 12.0834 17.9848 12.0834 17.799V15.8332H2.20083C2.0151 15.8332 1.94775 15.8138 1.87984 15.7775C1.81194 15.7412 1.75865 15.6879 1.72234 15.62C1.68603 15.5521 1.66669 15.4848 1.66669 15.299V14.7006C1.66669 14.5149 1.68603 14.4476 1.72234 14.3797C1.75865 14.3118 1.81194 14.2585 1.87984 14.2222C1.94775 14.1858 2.0151 14.1665 2.20083 14.1665H12.0834V12.2006C12.0834 12.0149 12.1027 11.9476 12.139 11.8797C12.1753 11.8118 12.2286 11.7585 12.2965 11.7222C12.3644 11.6858 12.4318 11.6665 12.6175 11.6665H13.2159C13.4016 11.6665 13.469 11.6858 13.5369 11.7222C13.6048 11.7585 13.6581 11.8118 13.6944 11.8797C13.7307 11.9476 13.75 12.0149 13.75 12.2006V14.1665ZM6.25002 4.1665V2.20065C6.25002 2.01491 6.26936 1.94756 6.30567 1.87966C6.34199 1.81176 6.39528 1.75847 6.46318 1.72216C6.53108 1.68584 6.59843 1.6665 6.78416 1.6665H7.38255C7.56828 1.6665 7.63563 1.68584 7.70353 1.72216C7.77143 1.75847 7.82472 1.81176 7.86104 1.87966C7.89735 1.94756 7.91669 2.01491 7.91669 2.20065V4.1665H17.7992C17.9849 4.1665 18.0523 4.18584 18.1202 4.22216C18.1881 4.25847 18.2414 4.31176 18.2777 4.37966C18.314 4.44756 18.3334 4.51491 18.3334 4.70065V5.29903C18.3334 5.48476 18.314 5.55211 18.2777 5.62001C18.2414 5.68792 18.1881 5.7412 18.1202 5.77752C18.0523 5.81383 17.9849 5.83317 17.7992 5.83317H7.91669V7.79903C7.91669 7.98476 7.89735 8.05211 7.86104 8.12001C7.82472 8.18792 7.77143 8.24121 7.70353 8.27752C7.63563 8.31383 7.56828 8.33317 7.38255 8.33317H6.78416C6.59843 8.33317 6.53108 8.31383 6.46318 8.27752C6.39528 8.24121 6.34199 8.18792 6.30567 8.12001C6.26936 8.05211 6.25002 7.98476 6.25002 7.79903V5.83317H2.20083C2.0151 5.83317 1.94775 5.81383 1.87984 5.77752C1.81194 5.7412 1.75865 5.68792 1.72234 5.62001C1.68603 5.55211 1.66669 5.48476 1.66669 5.29903V4.70065C1.66669 4.51491 1.68603 4.44756 1.72234 4.37966C1.75865 4.31176 1.81194 4.25847 1.87984 4.22216C1.94775 4.18584 2.0151 4.1665 2.20083 4.1665H6.25002Z" fill="#A6A6A6"/>
</svg>
