<svg width="40" height="40" viewBox="0 0 40 40" xmlns="http://www.w3.org/2000/svg">
<path d="M4.99919 5C4.07872 5 3.33252 5.7462 3.33252 6.66667V33.3333C3.33252 34.2538 4.07872 35 4.99919 35H34.9992C35.9197 35 36.6659 34.2538 36.6659 33.3333V6.66667C36.6659 5.7462 35.9197 5 34.9992 5H4.99919ZM33.3325 8.3332V25.0002L29.7552 21.4227C29.4297 21.0973 28.902 21.0973 28.5765 21.4227L23.9219 26.0775C23.5964 26.403 23.0687 26.403 22.7432 26.0775L13.9218 17.256C13.5963 16.9307 13.0687 16.9307 12.7433 17.256L6.66585 23.3335V8.3332H33.3325ZM26.6659 12.5C26.2057 12.5 25.8325 12.8731 25.8325 13.3333V15.8333C25.8325 16.2936 26.2057 16.6667 26.6659 16.6667H29.1659C29.626 16.6667 29.9992 16.2936 29.9992 15.8333V13.3333C29.9992 12.8731 29.626 12.5 29.1659 12.5H26.6659Z"/>
</svg>
