<svg width="16" height="16" viewBox="0 0 16 16" fill="none" xmlns="http://www.w3.org/2000/svg">
<path d="M10.6667 1.99935H3.33333V13.9993H12.6667V4.01235H11C10.9116 4.01235 10.8268 3.97723 10.7643 3.91472C10.7018 3.85221 10.6667 3.76742 10.6667 3.67902V1.99935ZM2.66667 0.666016H11.3903C11.4779 0.665991 11.5647 0.683229 11.6456 0.716745C11.7265 0.750262 11.8001 0.799399 11.862 0.861349L13.805 2.80502C13.9299 2.93007 14.0001 3.0996 14 3.27635V14.666C14 14.8428 13.9298 15.0124 13.8047 15.1374C13.6797 15.2624 13.5101 15.3327 13.3333 15.3327H2.66667C2.48986 15.3327 2.32029 15.2624 2.19526 15.1374C2.07024 15.0124 2 14.8428 2 14.666V1.33268C2 1.15587 2.07024 0.986302 2.19526 0.861278C2.32029 0.736254 2.48986 0.666016 2.66667 0.666016ZM5 5.66602H11C11.0884 5.66602 11.1732 5.70113 11.2357 5.76365C11.2982 5.82616 11.3333 5.91094 11.3333 5.99935V6.66602C11.3333 6.75442 11.2982 6.83921 11.2357 6.90172C11.1732 6.96423 11.0884 6.99935 11 6.99935H5C4.91159 6.99935 4.82681 6.96423 4.7643 6.90172C4.70179 6.83921 4.66667 6.75442 4.66667 6.66602V5.99935C4.66667 5.91094 4.70179 5.82616 4.7643 5.76365C4.82681 5.70113 4.91159 5.66602 5 5.66602ZM5 8.33268H11C11.0438 8.33268 11.0871 8.3413 11.1276 8.35806C11.168 8.37481 11.2048 8.39936 11.2357 8.43031C11.2667 8.46127 11.2912 8.49801 11.308 8.53845C11.3247 8.5789 11.3333 8.62224 11.3333 8.66602V9.33268C11.3333 9.37646 11.3247 9.4198 11.308 9.46024C11.2912 9.50068 11.2667 9.53743 11.2357 9.56838C11.2048 9.59934 11.168 9.62389 11.1276 9.64064C11.0871 9.65739 11.0438 9.66601 11 9.66601H5C4.95623 9.66601 4.91288 9.65739 4.87244 9.64064C4.832 9.62389 4.79525 9.59934 4.7643 9.56838C4.73335 9.53743 4.70879 9.50068 4.69204 9.46024C4.67529 9.4198 4.66667 9.37646 4.66667 9.33268V8.66602C4.66667 8.62224 4.67529 8.5789 4.69204 8.53845C4.70879 8.49801 4.73335 8.46127 4.7643 8.43031C4.79525 8.39936 4.832 8.37481 4.87244 8.35806C4.91288 8.3413 4.95623 8.33268 5 8.33268ZM5 10.9993H7.66667C7.75507 10.9993 7.83986 11.0345 7.90237 11.097C7.96488 11.1595 8 11.2443 8 11.3327V11.9993C8 12.0878 7.96488 12.1725 7.90237 12.2351C7.83986 12.2976 7.75507 12.3327 7.66667 12.3327H5C4.91159 12.3327 4.82681 12.2976 4.7643 12.2351C4.70179 12.1725 4.66667 12.0878 4.66667 11.9993V11.3327C4.66667 11.2443 4.70179 11.1595 4.7643 11.097C4.82681 11.0345 4.91159 10.9993 5 10.9993Z" fill="#646A73"/>
</svg>
