<svg width="16" height="16" viewBox="0 0 16 16" fill="none" xmlns="http://www.w3.org/2000/svg">
<path d="M1.99998 1.33301H4.99998C5.18407 1.33301 5.33331 1.48225 5.33331 1.66634V2.33301C5.33331 2.5171 5.18407 2.66634 4.99998 2.66634H2.66665V4.99967C2.66665 5.18377 2.51741 5.33301 2.33331 5.33301H1.66665C1.48255 5.33301 1.33331 5.18377 1.33331 4.99967V1.99967C1.33331 1.63148 1.63179 1.33301 1.99998 1.33301ZM14 14.6663H11C10.8159 14.6663 10.6666 14.5171 10.6666 14.333V13.6663C10.6666 13.4822 10.8159 13.333 11 13.333H13.3333V10.9997C13.3333 10.8156 13.4826 10.6663 13.6666 10.6663H14.3333C14.5174 10.6663 14.6666 10.8156 14.6666 10.9997V13.9997C14.6666 14.3679 14.3682 14.6663 14 14.6663ZM1.33331 13.9997V10.9997C1.33331 10.8156 1.48255 10.6663 1.66665 10.6663H2.33331C2.51741 10.6663 2.66665 10.8156 2.66665 10.9997V13.333H4.99998C5.18407 13.333 5.33331 13.4822 5.33331 13.6663V14.333C5.33331 14.5171 5.18407 14.6663 4.99998 14.6663H1.99998C1.63179 14.6663 1.33331 14.3679 1.33331 13.9997ZM14.6666 1.99967V4.99967C14.6666 5.18377 14.5174 5.33301 14.3333 5.33301H13.6666C13.4826 5.33301 13.3333 5.18377 13.3333 4.99967V2.66634H11C10.8159 2.66634 10.6666 2.5171 10.6666 2.33301V1.66634C10.6666 1.48225 10.8159 1.33301 11 1.33301H14C14.3682 1.33301 14.6666 1.63148 14.6666 1.99967Z" fill="#A6A6A6"/>
<circle cx="7.99998" cy="7.99967" r="2.66667" fill="#A6A6A6"/>
</svg>
