<svg width="40" height="40" viewBox="0 0 40 40" fill="none" xmlns="http://www.w3.org/2000/svg">
<path fill-rule="evenodd" clip-rule="evenodd" d="M36.1782 3.82019C35.8656 3.50763 35.4417 3.33203 34.9997 3.33203H4.99967C4.55765 3.33203 4.13372 3.50763 3.82116 3.82019C3.5086 4.13275 3.33301 4.55667 3.33301 4.9987V34.9987C3.33301 35.4407 3.5086 35.8647 3.82116 36.1772C4.13372 36.4898 4.55765 36.6654 4.99967 36.6654H34.9997C35.4417 36.6654 35.8656 36.4898 36.1782 36.1772C36.4908 35.8647 36.6663 35.4407 36.6663 34.9987V4.9987C36.6663 4.55667 36.4908 4.13275 36.1782 3.82019ZM21.6663 11.6655H27.4997C27.7207 11.6655 27.9327 11.7533 28.0889 11.9096C28.2452 12.0659 28.333 12.2778 28.333 12.4988V14.1655C28.333 14.3865 28.2452 14.5985 28.0889 14.7547C27.9327 14.911 27.7207 14.9988 27.4997 14.9988H21.6663V27.4988C21.6663 27.6083 21.6448 27.7166 21.6029 27.8177C21.561 27.9188 21.4996 28.0107 21.4223 28.0881C21.3449 28.1655 21.253 28.2268 21.1519 28.2687C21.0508 28.3106 20.9424 28.3322 20.833 28.3322H19.1663C19.0569 28.3322 18.9485 28.3106 18.8474 28.2687C18.7463 28.2268 18.6545 28.1655 18.5771 28.0881C18.4997 28.0107 18.4383 27.9188 18.3964 27.8177C18.3546 27.7166 18.333 27.6083 18.333 27.4988V14.9988H12.4997C12.2787 14.9988 12.0667 14.911 11.9104 14.7547C11.7541 14.5985 11.6663 14.3865 11.6663 14.1655V12.4988C11.6663 12.2778 11.7541 12.0659 11.9104 11.9096C12.0667 11.7533 12.2787 11.6655 12.4997 11.6655H18.333C18.333 11.6655 21.6663 11.7122 21.6663 11.6655Z" fill="#3370FF"/>
</svg>
