<svg width="16" height="16" viewBox="0 0 16 16" fill="none" xmlns="http://www.w3.org/2000/svg">
<path d="M5.35433 11.2497H7.625L14.379 4.49545C14.6111 4.26338 14.6116 3.88728 14.3801 3.65461L12.3345 1.5982C12.102 1.3657 11.7251 1.3657 11.4926 1.5982L11.0727 2.01807L11.0743 2.01972L4.75898 8.38366V10.6543C4.75898 10.9831 5.02553 11.2497 5.35433 11.2497ZM11.8947 2.84436L13.1003 4.05637L12.0801 5.07763L10.8806 3.87821L11.8947 2.84436ZM11.2385 5.91999L7.12283 10.0396H7.12102L5.96904 8.88583L10.0468 4.72831L11.2385 5.91999Z" fill="#646A73"/>
<path d="M8.76346 2.31685H2.44373C2.07839 2.31685 1.78223 2.61301 1.78223 2.97835V13.5623C1.78223 13.9277 2.07839 14.2238 2.44373 14.2238H13.0277C13.393 14.2238 13.6892 13.9277 13.6892 13.5623V7.16226L12.3579 8.50157V12.899H3.11347V3.64166H7.46273L8.76346 2.31685Z" fill="#646A73"/>
</svg>
