<?xml version="1.0" standalone="no"?><!DOCTYPE svg PUBLIC "-//W3C//DTD SVG 1.1//EN" "http://www.w3.org/Graphics/SVG/1.1/DTD/svg11.dtd"><svg t="1716538241941" class="icon" viewBox="0 0 1166 1024" version="1.1" xmlns="http://www.w3.org/2000/svg" p-id="4799" xmlns:xlink="http://www.w3.org/1999/xlink" width="227.734375" height="200"><path d="M1016.603881 149.959255A508.396905 508.396905 0 0 0 661.880392 0H47.123419a42.206376 42.206376 0 0 0-42.206376 42.206376 42.206376 42.206376 0 0 0 42.206376 42.206376h607.45527c235.764818 0 427.571694 191.806877 427.571695 427.571695S890.343507 939.577245 654.578689 939.577245s-427.571694-191.82798-427.571694-427.592798h105.51594a42.206376 42.206376 0 0 0 42.206376-42.206376 42.206376 42.206376 0 0 0-42.206376-42.206377H42.206376a42.206376 42.206376 0 0 0-42.206376 42.206377 42.206376 42.206376 0 0 0 42.206376 42.206376h100.387866a511.984447 511.984447 0 0 0 874.009639 362.046295 512.00555 512.00555 0 0 0 0-724.071487z" p-id="4800"></path><path d="M411.237827 298.166945a42.206376 42.206376 0 0 0 42.206376-42.206376 42.206376 42.206376 0 0 0-42.206376-42.206377H120.857958a42.206376 42.206376 0 0 0-42.206376 42.206377 42.206376 42.206376 0 0 0 42.206376 42.206376zM635.205962 232.388308a42.311892 42.311892 0 0 0-42.206376 42.206376v290.379868a42.311892 42.311892 0 0 0 42.206376 42.206377h228.737456a42.206376 42.206376 0 0 0 42.206377-42.206377 42.206376 42.206376 0 0 0-42.206377-42.206376h-186.657699V274.573581A42.206376 42.206376 0 0 0 635.205962 232.388308z" p-id="4801"></path></svg>