<?xml version="1.0" standalone="no"?><!DOCTYPE svg PUBLIC "-//W3C//DTD SVG 1.1//EN" "http://www.w3.org/Graphics/SVG/1.1/DTD/svg11.dtd"><svg t="1693218475697" class="icon" viewBox="0 0 1025 1024" version="1.1" xmlns="http://www.w3.org/2000/svg" p-id="15293" xmlns:xlink="http://www.w3.org/1999/xlink" width="200.1953125" height="200"><path d="M983.04 772.48H44.16a37.76 37.76 0 0 1 0-74.88h938.88a37.76 37.76 0 1 1 0 74.88z" fill="#323333" p-id="15294"></path><path d="M27.52 348.16h211.2V384H154.24v222.08h-42.24V384H27.52zM269.44 348.16h42.24v256h-42.24zM342.4 348.16h211.84V384H469.76v222.08h-42.24V384H342.4zM584.96 348.16h41.6v222.08H768v35.84H584.96zM798.72 348.16h186.24V384h-144v71.68h135.68v36.48h-135.68v78.08h150.4v35.84h-192z" fill="#323333" p-id="15295"></path></svg>