<?xml version="1.0" standalone="no"?><!DOCTYPE svg PUBLIC "-//W3C//DTD SVG 1.1//EN" "http://www.w3.org/Graphics/SVG/1.1/DTD/svg11.dtd"><svg t="1687963212775" class="icon" viewBox="0 0 1024 1024" version="1.1" xmlns="http://www.w3.org/2000/svg" p-id="3316" xmlns:xlink="http://www.w3.org/1999/xlink" width="200" height="200"><path d="M320 128h192v192h-192V128z m-192 192h192v192H128v-192z m384 0h192v192h-192v-192z m-192 192h192v192h-192v-192z m-192 192h192v192H128v-192z m384 0h192v192h-192v-192z m192-576h192v192h-192V128z m0 384h192v192h-192v-192z" p-id="3317"></path><path d="M128 128h192v192H128V128z m384 0h192v192h-192V128z m-192 192h192v192h-192v-192z m384 0h192v192h-192v-192zM128 512h192v192H128v-192z m384 0h192v192h-192v-192z m-192 192h192v192h-192v-192z m384 0h192v192h-192v-192z" fill="#FFFFFF" p-id="3318"></path><path d="M128 96h768a32 32 0 0 1 32 32v768a32 32 0 0 1-32 32H128a32 32 0 0 1-32-32V128a32 32 0 0 1 32-32z m0 32v768h768V128H128z"  p-id="3319"></path></svg>
