<?xml version="1.0" standalone="no"?><!DOCTYPE svg PUBLIC "-//W3C//DTD SVG 1.1//EN" "http://www.w3.org/Graphics/SVG/1.1/DTD/svg11.dtd"><svg t="1693218892557" class="icon" viewBox="0 0 1024 1024" version="1.1" xmlns="http://www.w3.org/2000/svg" p-id="24907" xmlns:xlink="http://www.w3.org/1999/xlink" width="200" height="200"><path d="M880 112H144c-17.7 0-32 14.3-32 32v736c0 17.7 14.3 32 32 32h736c17.7 0 32-14.3 32-32V144c0-17.7-14.3-32-32-32z m-40 728H184V184h656v656zM484 366h56c4.4 0 8-3.6 8-8v-56c0-4.4-3.6-8-8-8h-56c-4.4 0-8 3.6-8 8v56c0 4.4 3.6 8 8 8zM302 548h56c4.4 0 8-3.6 8-8v-56c0-4.4-3.6-8-8-8h-56c-4.4 0-8 3.6-8 8v56c0 4.4 3.6 8 8 8z m364 0h56c4.4 0 8-3.6 8-8v-56c0-4.4-3.6-8-8-8h-56c-4.4 0-8 3.6-8 8v56c0 4.4 3.6 8 8 8z m-182 0h56c4.4 0 8-3.6 8-8v-56c0-4.4-3.6-8-8-8h-56c-4.4 0-8 3.6-8 8v56c0 4.4 3.6 8 8 8z m0 182h56c4.4 0 8-3.6 8-8v-56c0-4.4-3.6-8-8-8h-56c-4.4 0-8 3.6-8 8v56c0 4.4 3.6 8 8 8z" fill="#1296DB" p-id="24908"></path></svg>