<svg xmlns="http://www.w3.org/2000/svg" width="20" height="20" viewBox="0 0 20 20" fill="none">
  <path fill-rule="evenodd" clip-rule="evenodd" d="M3.33333 3.33333V13.3333H16.6667V3.33333H3.33333ZM1.66666 2.5C1.66666 2.03958 2.04166 1.66666 2.5 1.66666H17.5C17.9583 1.66666 18.3333 2.03958 18.3333 2.5V14.1667C18.3333 14.6271 17.9583 15 17.5 15H2.5C2.04166 15 1.66666 14.6271 1.66666 14.1667V2.5Z" fill="#3370FF"/>
  <path d="M12.8654 5.6608L14.0437 6.83914L10.0979 10.785L8.17372 8.86122L6.83914 10.1962L5.6608 9.01747L8.17372 6.50456L10.0975 8.42831L12.8654 5.6608Z" fill="#3370FF"/>
  <path d="M14.1667 16.6667H5.83334V18.3333H14.1667V16.6667Z" fill="#3370FF"/>
</svg>