<?xml version="1.0" standalone="no"?><!DOCTYPE svg PUBLIC "-//W3C//DTD SVG 1.1//EN" "http://www.w3.org/Graphics/SVG/1.1/DTD/svg11.dtd"><svg t="1687961802920" class="icon" viewBox="0 0 1024 1024" version="1.1" xmlns="http://www.w3.org/2000/svg" p-id="2462" xmlns:xlink="http://www.w3.org/1999/xlink" width="200" height="200"><path d="M768.96 575.072c-22.144-34.112-54.816-56.8-97.984-68.032v-2.176c22.88-10.88 42.112-23.04 57.696-36.48 15.616-12.704 27.584-26.144 35.936-40.288 16.32-29.76 24.128-60.96 23.392-93.632 0-63.872-19.776-115.232-59.328-154.08-39.2-38.464-97.824-58.048-175.84-58.784H215.232v793.728H579.52c62.432 0 114.496-20.864 156.256-62.624 42.112-39.936 63.52-94.176 64.224-162.752 0-41.376-10.336-79.68-31.04-114.88zM344.32 228.832h194.912c43.904 0.736 76.224 11.424 96.896 32.128 21.056 22.144 31.584 49.184 31.584 81.12s-10.528 58.432-31.584 79.488c-20.672 22.848-52.992 34.304-96.896 34.304H344.32V228.832z m304.352 536.256c-20.672 23.584-53.344 35.744-97.984 36.48H344.32v-238.432h206.336c44.64 0.704 77.312 12.512 97.984 35.392 20.672 23.232 31.04 51.168 31.04 83.84 0 31.904-10.336 59.488-31.008 82.72z" p-id="2463"></path></svg>