<svg width="16" height="16" viewBox="0 0 16 16" fill="none" xmlns="http://www.w3.org/2000/svg">
<path d="M8.66634 4.00065C8.66634 4.25739 8.70262 4.50565 8.77034 4.7406L5.88342 6.4465C5.401 5.96502 4.7351 5.66732 3.99967 5.66732C2.52692 5.66732 1.33301 6.86123 1.33301 8.33398C1.33301 9.80674 2.52692 11.0007 3.99967 11.0007C4.81776 11.0007 5.5498 10.6323 6.03896 10.0523L9.71633 11.8175C9.68353 11.9846 9.66634 12.1573 9.66634 12.334C9.66634 13.8067 10.8602 15.0007 12.333 15.0007C13.8058 15.0007 14.9997 13.8067 14.9997 12.334C14.9997 10.8612 13.8058 9.66732 12.333 9.66732C11.5149 9.66732 10.7829 10.0357 10.2937 10.6156L6.61635 8.8505C6.64915 8.6834 6.66634 8.5107 6.66634 8.33398C6.66634 8.07725 6.63006 7.82898 6.56234 7.59404L9.44926 5.88814C9.93168 6.36961 10.5976 6.66732 11.333 6.66732C12.8058 6.66732 13.9997 5.47341 13.9997 4.00065C13.9997 2.52789 12.8058 1.33398 11.333 1.33398C9.86025 1.33398 8.66634 2.52789 8.66634 4.00065ZM12.6663 4.00065C12.6663 4.73703 12.0694 5.33398 11.333 5.33398C10.5966 5.33398 9.99967 4.73703 9.99967 4.00065C9.99967 3.26427 10.5966 2.66732 11.333 2.66732C12.0694 2.66732 12.6663 3.26427 12.6663 4.00065ZM12.333 13.6673C11.5966 13.6673 10.9997 13.0704 10.9997 12.334C10.9997 11.5976 11.5966 11.0007 12.333 11.0007C13.0694 11.0007 13.6663 11.5976 13.6663 12.334C13.6663 13.0704 13.0694 13.6673 12.333 13.6673ZM5.33301 8.33398C5.33301 9.07036 4.73605 9.66732 3.99967 9.66732C3.26329 9.66732 2.66634 9.07036 2.66634 8.33398C2.66634 7.5976 3.26329 7.00065 3.99967 7.00065C4.73605 7.00065 5.33301 7.5976 5.33301 8.33398Z" fill="#646A73"/>
</svg>
