<svg width="18" height="18" viewBox="0 0 18 18" fill="none" xmlns="http://www.w3.org/2000/svg">
<path d="M0 3C0 1.34315 1.59845 0 3.57025 0H14.4298C16.4015 0 18 1.34315 18 3V15C18 16.6569 16.4015 18 14.4298 18H3.57025C1.59845 18 0 16.6569 0 15V3Z" fill="#00d6b9"/>
<path d="M13.25 4.5C13.3826 4.5 13.5098 4.55268 13.6036 4.64645C13.6973 4.74021 13.75 4.86739 13.75 5V11C13.75 11.1326 13.6973 11.2598 13.6036 11.3536C13.5098 11.4473 13.3826 11.5 13.25 11.5H10.0337L11.5822 12.8762L10.9177 13.6237L9 11.9187L7.08225 13.6237L6.41775 12.8762L7.966 11.5H4.75C4.61739 11.5 4.49021 11.4473 4.39645 11.3536C4.30268 11.2598 4.25 11.1326 4.25 11V5C4.25 4.86739 4.30268 4.74021 4.39645 4.64645C4.49021 4.55268 4.61739 4.5 4.75 4.5H13.25ZM12.75 5.5H5.25V10.5H12.75V5.5ZM10.7192 6.3965L11.4262 7.1035L9.05875 9.471L7.90425 8.31675L7.1035 9.11775L6.3965 8.4105L7.90425 6.90275L9.0585 8.057L10.7192 6.3965Z" fill="white"/>
</svg>
