<?xml version="1.0" standalone="no"?><!DOCTYPE svg PUBLIC "-//W3C//DTD SVG 1.1//EN" "http://www.w3.org/Graphics/SVG/1.1/DTD/svg11.dtd"><svg t="1693226508223" class="icon" viewBox="0 0 1024 1024" version="1.1" xmlns="http://www.w3.org/2000/svg" p-id="4855" xmlns:xlink="http://www.w3.org/1999/xlink" width="200" height="200"><path d="M900.266667 0H119.466667C51.2 0 0 51.2 0 119.466667v789.333333C0 972.8 51.2 1024 119.466667 1024h785.066666c64 0 119.466667-51.2 119.466667-119.466667V119.466667C1019.733333 51.2 968.533333 0 900.266667 0z m72.533333 887.466667c0 46.933333-38.4 89.6-89.6 89.6H136.533333c-46.933333 0-89.6-38.4-89.6-89.6V136.533333c0-51.2 38.4-89.6 89.6-89.6h750.933334c46.933333 0 89.6 38.4 89.6 89.6l-4.266667 750.933334z" fill="#1890FF" p-id="4856"></path><path d="M529.066667 750.933333l-55.466667-149.333333H264.533333l-55.466666 149.333333H170.666667L354.133333 264.533333H384l179.2 486.4h-34.133333zM379.733333 345.6c-4.266667-8.533333-4.266667-12.8-4.266666-21.333333 0-4.266667-4.266667-12.8-4.266667-17.066667-8.533333 17.066667-12.8 25.6-12.8 38.4l-81.066667 226.133333h187.733334l-85.333334-226.133333z" fill="#1890FF" p-id="4857"></path><path d="M823.466667 750.933333V682.666667c-12.8 25.6-25.6 42.666667-46.933334 55.466666s-42.666667 21.333333-68.266666 21.333334c-34.133333 0-59.733333-8.533333-76.8-29.866667-21.333333-17.066667-29.866667-42.666667-29.866667-68.266667 0-59.733333 38.4-98.133333 119.466667-110.933333l106.666666-17.066667c0-72.533333-29.866667-110.933333-85.333333-110.933333-38.4 0-76.8 17.066667-110.933333 46.933333v-38.4c12.8-8.533333 29.866667-17.066667 51.2-25.6 21.333333-8.533333 42.666667-12.8 64-12.8 34.133333 0 64 12.8 81.066666 34.133334 21.333333 21.333333 29.866667 55.466667 29.866667 98.133333v226.133333h-34.133333zM725.333333 576c-38.4 4.266667-64 12.8-76.8 25.6s-21.333333 29.866667-21.333333 55.466667c0 21.333333 8.533333 38.4 21.333333 51.2s34.133333 21.333333 55.466667 21.333333c34.133333 0 59.733333-12.8 81.066667-38.4s34.133333-55.466667 34.133333-93.866667v-34.133333l-93.866667 12.8z" fill="#FFCC00" p-id="4858"></path></svg>