<svg width="18" height="18" viewBox="0 0 18 18" fill="none" xmlns="http://www.w3.org/2000/svg">
<path d="M0 3C0 1.34315 1.59845 0 3.57025 0H14.4298C16.4015 0 18 1.34315 18 3V15C18 16.6569 16.4015 18 14.4298 18H3.57025C1.59845 18 0 16.6569 0 15V3Z" fill="#3370FF"/>
<path d="M4.25 13V8.77273C4.25 8.48403 4.48985 8.25 4.78571 8.25H7V4.52632C7 4.23564 7.25584 4 7.57143 4H10.4286C10.7442 4 11 4.23564 11 4.52632V7H13.2143C13.5102 7 13.75 7.22386 13.75 7.5V13H14C14.1381 13 14.25 13.1119 14.25 13.25V13.75C14.25 13.8881 14.1381 14 14 14H4C3.86193 14 3.75 13.8881 3.75 13.75V13.25C3.75 13.1119 3.86193 13 4 13H4.25ZM12.75 13V8H11V13H12.75ZM10 13V5H8V13H10ZM7 13V9.25H5.25V13H7Z" fill="white"/>
</svg>
