<?xml version="1.0" standalone="no"?><!DOCTYPE svg PUBLIC "-//W3C//DTD SVG 1.1//EN" "http://www.w3.org/Graphics/SVG/1.1/DTD/svg11.dtd"><svg t="1724756566863" class="icon" viewBox="0 0 1024 1024" version="1.1" xmlns="http://www.w3.org/2000/svg" p-id="4282" xmlns:xlink="http://www.w3.org/1999/xlink" width="200" height="200"><path d="M776.827586 70.62069h176.551724v176.551724h-176.551724V70.62069zM423.724138 70.62069h176.551724v176.551724h-176.551724V70.62069zM70.62069 70.62069h176.551724v176.551724H70.62069V70.62069z m529.655172 176.551724h176.551724v176.551724h-176.551724V247.172414zM247.172414 247.172414h176.551724v176.551724H247.172414V247.172414z m529.655172 176.551724h176.551724v176.551724h-176.551724v-176.551724z m-353.103448 0h176.551724v176.551724h-176.551724v-176.551724zM70.62069 423.724138h176.551724v176.551724H70.62069v-176.551724z m529.655172 176.551724h176.551724v176.551724h-176.551724v-176.551724zM247.172414 600.275862h176.551724v176.551724H247.172414v-176.551724z m529.655172 176.551724h176.551724v176.551724h-176.551724v-176.551724z m-353.103448 0h176.551724v176.551724h-176.551724v-176.551724zM70.62069 776.827586h176.551724v176.551724H70.62069v-176.551724z" fill="#777777" p-id="4283"></path></svg>
