<?xml version="1.0" standalone="no"?><!DOCTYPE svg PUBLIC "-//W3C//DTD SVG 1.1//EN" "http://www.w3.org/Graphics/SVG/1.1/DTD/svg11.dtd"><svg t="1687961701580" class="icon" viewBox="0 0 1024 1024" version="1.1" xmlns="http://www.w3.org/2000/svg" p-id="969" xmlns:xlink="http://www.w3.org/1999/xlink" width="200" height="200"><path d="M648 160H104c-4.4 0-8 3.6-8 8v128c0 4.4 3.6 8 8 8h56c4.4 0 8-3.6 8-8v-64h168v560h-92c-4.4 0-8 3.6-8 8v56c0 4.4 3.6 8 8 8h264c4.4 0 8-3.6 8-8v-56c0-4.4-3.6-8-8-8h-92V232h168v64c0 4.4 3.6 8 8 8h56c4.4 0 8-3.6 8-8V168c0-4.4-3.6-8-8-8z m272.8 546H856V318h64.8c6 0 9.4-7 5.7-11.7L825.7 178.7c-2.9-3.7-8.5-3.7-11.3 0L713.6 306.3c-3.7 4.7-0.4 11.7 5.7 11.7H784v388h-64.8c-6 0-9.4 7-5.7 11.7l100.8 127.5c2.9 3.7 8.5 3.7 11.3 0l100.8-127.5c3.8-4.7 0.4-11.7-5.6-11.7z"  p-id="970"></path></svg>
