<?xml version="1.0" standalone="no"?><!DOCTYPE svg PUBLIC "-//W3C//DTD SVG 1.1//EN" "http://www.w3.org/Graphics/SVG/1.1/DTD/svg11.dtd"><svg t="1713772449367" class="icon" viewBox="0 0 1024 1024" version="1.1" xmlns="http://www.w3.org/2000/svg" p-id="4293" xmlns:xlink="http://www.w3.org/1999/xlink" width="200" height="200"><path d="M770 900c34.242 0 62 27.758 62 62 0 34.242-27.758 62-62 62H254c-34.242 0-62-27.758-62-62 0-34.242 27.758-62 62-62h516z m-78-736c59.05 0 107.032 47.391 107.986 106.214L800 272v33.867c0 19.882-16.118 36-36 36-19.683 0-35.677-15.797-35.995-35.405l-0.005-0.595V272c0-19.683-15.797-35.677-35.405-35.995L692 236H270c-19.683 0-35.677 15.797-35.995 35.405L234 272v424c0 19.683 15.797 35.677 35.405 35.995L270 732h162.756c19.882 0 36 16.118 36 36 0 19.683-15.797 35.677-35.405 36H270c-59.05 0-107.032-47.391-107.986-106.214L162 696V272c0-59.05 47.391-107.032 106.214-107.986L270 164h422z m171.445 200.445l49.497 49.497c9.372 9.372 9.372 24.568 0 33.94l-0.088 0.088-281.16 278.274-95.972 28.583c-8.47 2.522-17.38-2.298-19.902-10.767a16 16 0 0 1 0.228-9.84l31.74-90.946L829.59 364.358c9.387-9.29 24.515-9.252 33.854 0.087z" p-id="4294"></path></svg>
