<svg width="20" height="20" viewBox="0 0 20 20" fill="none" xmlns="http://www.w3.org/2000/svg">
<path d="M17.0833 2.5C17.3043 2.5 17.5163 2.5878 17.6726 2.74408C17.8289 2.90036 17.9167 3.11232 17.9167 3.33333V13.3333C17.9167 13.5543 17.8289 13.7663 17.6726 13.9226C17.5163 14.0789 17.3043 14.1667 17.0833 14.1667H11.7229L14.3038 16.4604L13.1963 17.7063L10 14.8646L6.80375 17.7063L5.69625 16.4604L8.27667 14.1667H2.91667C2.69566 14.1667 2.48369 14.0789 2.32741 13.9226C2.17113 13.7663 2.08334 13.5543 2.08334 13.3333V3.33333C2.08334 3.11232 2.17113 2.90036 2.32741 2.74408C2.48369 2.5878 2.69566 2.5 2.91667 2.5H17.0833ZM16.25 4.16667H3.75V12.5H16.25V4.16667ZM12.8654 5.66083L14.0438 6.83917L10.0979 10.785L8.17375 8.86125L6.83917 10.1962L5.66084 9.0175L8.17375 6.50458L10.0975 8.42833L12.8654 5.66083Z" fill="#3370FF"/>
</svg>
