<?xml version="1.0" standalone="no"?><!DOCTYPE svg PUBLIC "-//W3C//DTD SVG 1.1//EN" "http://www.w3.org/Graphics/SVG/1.1/DTD/svg11.dtd"><svg t="1713772528957" class="icon" viewBox="0 0 1029 1024" version="1.1" xmlns="http://www.w3.org/2000/svg" p-id="5278" xmlns:xlink="http://www.w3.org/1999/xlink" width="200.9765625" height="200"><path d="M860.16025 508.587c0-20.48-3.413-40.96-20.48-58.027L505.17325 95.573c-27.306-27.306-68.266-27.306-95.573 0l-98.987 102.4-143.36-153.6c-13.653-13.653-34.133-13.653-47.786 0-13.654 17.067-13.654 37.547 0 51.2l143.36 150.187L20.48025 498.347c-27.307 27.306-27.307 71.68 0 102.4l341.333 354.986c27.307 27.307 68.267 27.307 95.574 0L843.09325 552.96c10.24-13.653 17.067-30.72 17.067-44.373z m-740.693-6.827l191.146-201.387L430.08025 426.667c13.653 13.653 34.133 13.653 47.787 0 13.653-13.654 13.653-37.547 0-51.2L358.40025 249.173l95.573-102.4 337.92 354.987H119.46725z m907.946 334.507c-6.826-75.094-136.533-286.72-136.533-286.72s-126.293 201.386-136.533 286.72C737.28025 976.213 822.61325 993.28 890.88025 993.28c68.267 0 146.773-13.653 136.533-157.013z m0 0"  p-id="5279"></path></svg>
