<?xml version="1.0" standalone="no"?><!DOCTYPE svg PUBLIC "-//W3C//DTD SVG 1.1//EN" "http://www.w3.org/Graphics/SVG/1.1/DTD/svg11.dtd"><svg t="1713773038663" class="icon" viewBox="0 0 1024 1024" version="1.1" xmlns="http://www.w3.org/2000/svg" p-id="6292" xmlns:xlink="http://www.w3.org/1999/xlink" width="200" height="200"><path d="M960 64H64C28.8 64 0 92.8 0 128v768c0 35.2 28.8 64 64 64h896c35.2 0 64-28.8 64-64V128c0-35.2-28.8-64-64-64z m-26.56 808h-832v-704h832v704z" p-id="6293"></path><path d="M695.36 735.04c-32.64 0-60.48-9.28-81.92-28.16-22.4-19.2-33.92-44.48-33.92-74.88 0-55.04 32.96-120.96 190.72-120.96h5.12c-0.64-11.52-1.6-18.24-2.24-21.76-0.64-2.88-2.24-7.04-9.6-11.52-3.84-2.24-13.44-6.4-36.48-6.4-49.6 0-49.92 8-50.56 20.16l-0.64 18.24h-88.96l1.28-20.48c5.44-85.76 78.4-96.64 141.76-96.64 40.32 0 72.64 8.64 96.32 25.92 25.6 18.56 38.4 53.12 38.4 102.4v206.72h-88.64v-11.84c-23.68 13.12-50.56 19.2-80.64 19.2z m64.64-147.52c-90.56 0-90.56 31.36-90.56 41.92 0 11.2 4.48 15.68 8.32 18.56 14.4 10.56 45.76 11.52 71.68-1.28 10.88-5.44 19.2-11.84 25.92-20.16v-38.72h-15.36z m-177.6 140.8h-100.16l-45.44-121.92h-137.6L256 728.32H160l165.12-439.36h82.24l175.04 439.36z m-255.36-202.56h80.32l-40.96-110.72-39.36 110.72z"  p-id="6294"></path></svg>
