<svg width="14" height="14" viewBox="0 0 14 14" fill="none" xmlns="http://www.w3.org/2000/svg">
<path d="M6.99112 10.791C8.87994 10.791 10.6288 9.58958 12.25 6.99177C10.6704 4.40326 8.92562 3.20768 6.99112 3.20768C5.05728 3.20768 3.31871 4.40272 1.75 6.99175C3.36039 9.59011 5.10298 10.791 6.99112 10.791ZM0.876425 7.51854C0.688592 7.19881 0.68732 6.80132 0.870813 6.47908C0.877351 6.4676 0.883617 6.45666 0.889554 6.44636C2.58301 3.50946 4.61666 2.04102 6.9905 2.04102C9.37403 2.04102 11.4202 3.52147 13.1292 6.48237C13.1343 6.49124 13.1397 6.50061 13.1453 6.51042C13.3181 6.81317 13.3168 7.18689 13.14 7.48734C11.386 10.4676 9.33616 11.9577 6.9905 11.9577C4.65303 11.9577 2.61501 10.478 0.876425 7.51854ZM7 9.33268C5.71134 9.33268 4.66667 8.28801 4.66667 6.99935C4.66667 5.71068 5.71134 4.66602 7 4.66602C8.28867 4.66602 9.33333 5.71068 9.33333 6.99935C9.33333 8.28801 8.28867 9.33268 7 9.33268ZM7 8.16602C7.64433 8.16602 8.16667 7.64368 8.16667 6.99935C8.16667 6.35502 7.64433 5.83268 7 5.83268C6.35567 5.83268 5.83333 6.35502 5.83333 6.99935C5.83333 7.64368 6.35567 8.16602 7 8.16602Z" fill="#A6A6A6"/>
</svg>
