<svg width="20" height="20" viewBox="0 0 20 20" xmlns="http://www.w3.org/2000/svg">
<path fill-rule="evenodd" clip-rule="evenodd" d="M18.0893 1.91058C17.933 1.7543 17.721 1.6665 17.5 1.6665H2.50002C2.27901 1.6665 2.06705 1.7543 1.91076 1.91058C1.75448 2.06686 1.66669 2.27882 1.66669 2.49984V17.4998C1.66669 17.7209 1.75448 17.9328 1.91076 18.0891C2.06705 18.2454 2.27901 18.3332 2.50002 18.3332H17.5C17.721 18.3332 17.933 18.2454 18.0893 18.0891C18.2456 17.9328 18.3334 17.7209 18.3334 17.4998V2.49984C18.3334 2.27882 18.2456 2.06686 18.0893 1.91058ZM10.8334 5.83323H13.75C13.8605 5.83323 13.9665 5.87713 14.0446 5.95527C14.1228 6.03341 14.1667 6.13939 14.1667 6.2499V7.08323C14.1667 7.19374 14.1228 7.29972 14.0446 7.37786C13.9665 7.456 13.8605 7.4999 13.75 7.4999H10.8334V13.7499C10.8334 13.8046 10.8226 13.8588 10.8016 13.9094C10.7807 13.9599 10.75 14.0058 10.7113 14.0445C10.6726 14.0832 10.6267 14.1139 10.5761 14.1348C10.5256 14.1558 10.4714 14.1666 10.4167 14.1666H9.58335C9.52864 14.1666 9.47446 14.1558 9.4239 14.1348C9.37335 14.1139 9.32742 14.0832 9.28873 14.0445C9.25004 14.0058 9.21934 13.9599 9.1984 13.9094C9.17747 13.8588 9.16669 13.8046 9.16669 13.7499V7.4999H6.25002C6.13951 7.4999 6.03353 7.456 5.95539 7.37786C5.87725 7.29972 5.83335 7.19374 5.83335 7.08323V6.2499C5.83335 6.13939 5.87725 6.03341 5.95539 5.95527C6.03353 5.87713 6.13951 5.83323 6.25002 5.83323H9.16669C9.16669 5.83323 10.8334 5.85657 10.8334 5.83323Z"/>
</svg>
