<svg width="24" height="24" viewBox="0 0 24 24" fill="none" xmlns="http://www.w3.org/2000/svg">
<path fill-rule="evenodd" clip-rule="evenodd" d="M17.0855 1.00006H4C3.73478 1.00006 3.48043 1.10542 3.29289 1.29295C3.10536 1.48049 3 1.73484 3 2.00006V22.0001C3 22.2653 3.10536 22.5196 3.29289 22.7072C3.48043 22.8947 3.73478 23.0001 4 23.0001H20C20.2652 23.0001 20.5196 22.8947 20.7071 22.7072C20.8946 22.5196 21 22.2653 21 22.0001V4.91556C21.0001 4.65044 20.8949 4.39614 20.7075 4.20856L17.793 1.29306C17.7001 1.20014 17.5898 1.12643 17.4684 1.07616C17.347 1.02588 17.2169 1.00002 17.0855 1.00006ZM7 8.5C7 8.22386 7.22386 8 7.5 8H16.5C16.7761 8 17 8.22386 17 8.5V9.5C17 9.77614 16.7761 10 16.5 10H7.5C7.22386 10 7 9.77614 7 9.5V8.5ZM11 12.5C11 12.2239 11.2239 12 11.5 12H16.5C16.7761 12 17 12.2239 17 12.5V17.5C17 17.7761 16.7761 18 16.5 18H11.5C11.2239 18 11 17.7761 11 17.5V12.5ZM7 12.5C7 12.2239 7.22386 12 7.5 12H8.5C8.77614 12 9 12.2239 9 12.5V17.5C9 17.7761 8.77614 18 8.5 18H7.5C7.22386 18 7 17.7761 7 17.5V12.5Z" fill="#FF8800"/>
</svg>
