<svg width="14" height="14" viewBox="0 0 14 14" fill="none" xmlns="http://www.w3.org/2000/svg">
<path d="M7 4.66732V4.08398C7 3.15573 7.36875 2.26549 8.02513 1.60911C8.6815 0.952733 9.57174 0.583984 10.5 0.583984C11.4283 0.583984 12.3185 0.952733 12.9749 1.60911C13.6313 2.26549 14 3.15573 14 4.08398C14 4.23868 13.9385 4.38703 13.8291 4.49641C13.7197 4.60578 13.5714 4.66723 13.4167 4.66723C13.262 4.66723 13.1136 4.60578 13.0042 4.49641C12.8948 4.38703 12.8334 4.23868 12.8333 4.08398C12.8333 3.46515 12.5875 2.87165 12.1499 2.43407C11.7123 1.99648 11.1188 1.75065 10.5 1.75065C9.88116 1.75065 9.28767 1.99648 8.85008 2.43407C8.4125 2.87165 8.16667 3.46515 8.16667 4.08398V4.66732H11.6667C11.9887 4.66732 12.25 4.92982 12.25 5.25065V12.2506C12.25 12.5715 11.9887 12.834 11.6667 12.834H2.33333C2.01075 12.834 1.75 12.5715 1.75 12.2506V5.25065C1.75 4.92982 2.01075 4.66732 2.33333 4.66732H7Z" fill="#A6A6A6"/>
</svg>
