<svg width="20" height="20" viewBox="0 0 20 20" fill="none" xmlns="http://www.w3.org/2000/svg">
<path d="M9.71952 18.0526C13.8471 18.0526 17.2237 14.8374 17.4815 10.7749C17.499 10.4994 17.2734 10.2748 16.9973 10.2748C14.5714 10.2748 12.1454 10.2748 9.71952 10.2748C9.71952 7.40872 9.71952 4.98267 9.71952 2.99669C9.71952 2.72055 9.49501 2.4954 9.21942 2.51289C5.15692 2.77069 1.94174 6.1473 1.94174 10.2748C1.94174 14.5704 5.42397 18.0526 9.71952 18.0526Z" fill="#3370FF"/>
<path d="M12.1306 8.60807C11.7192 8.60807 11.3857 8.2746 11.3857 7.86325V2.49351C11.3857 2.19784 11.6417 1.96535 11.9329 2.01629C15.011 2.55462 17.4392 4.9828 17.9775 8.0609C18.0285 8.35215 17.796 8.60807 17.5003 8.60807H12.1306Z" fill="#00D6B9"/>
</svg>
