<svg width="40" height="40" viewBox="0 0 40 40" fill="none" xmlns="http://www.w3.org/2000/svg">
<path d="M20 1.66602C30.125 1.66602 38.3334 9.87435 38.3334 19.9993C38.3334 30.1243 30.125 38.3327 20 38.3327C9.87502 38.3327 1.66669 30.1243 1.66669 19.9993C1.66669 9.87435 9.87502 1.66602 20 1.66602ZM16.4484 11.666C16.065 11.6666 15.697 11.8167 15.4225 12.0843C15.1509 12.351 14.9984 12.7118 15 13.0877V26.9127C15 27.1785 15.0767 27.4385 15.22 27.6652C15.4253 27.9864 15.7495 28.2132 16.1217 28.296C16.4967 28.381 16.89 28.3168 17.2159 28.1168L28.4867 21.2052C28.91 20.9435 29.1667 20.4885 29.1667 19.9993C29.1667 19.5102 28.91 19.056 28.4867 18.7935L17.2167 11.8827C16.9854 11.7412 16.7195 11.6656 16.4484 11.666Z" fill="#A6A6A6"/>
</svg>
