<svg width="24" height="24" viewBox="0 0 24 24" fill="none" xmlns="http://www.w3.org/2000/svg">
<path d="M2.26053 15.2154H16.7085C18.4843 15.2154 19.9239 13.7758 19.9239 12C19.9239 10.2242 18.4843 8.78461 16.7085 8.78461H2.26053C1.9613 9.80436 1.80078 10.8834 1.80078 12C1.80078 13.1166 1.9613 14.1956 2.26053 15.2154Z" fill="#07A5DE"/>
<path d="M13.2004 0.599976C8.68568 0.599976 4.78396 3.22434 2.9375 7.03075H19.6311C20.8523 7.03075 21.9145 6.34996 22.4589 5.3472C20.3892 2.47204 17.0134 0.599976 13.2004 0.599976Z" fill="#EFBF19"/>
<path d="M22.0883 19.1396C21.6545 17.8767 20.4565 16.9692 19.0465 16.9692H2.9375C4.78396 20.7756 8.68568 23.3999 13.2004 23.3999C16.7937 23.3999 19.9988 21.7374 22.0883 19.1396Z" fill="#3EBEB1"/>
<path d="M11.8641 15.2154C12.1633 14.1956 12.3239 13.1166 12.3239 12C12.3239 10.8834 12.1633 9.80436 11.8641 8.78461H2.26053C1.9613 9.80436 1.80078 10.8834 1.80078 12C1.80078 13.1166 1.9613 14.1956 2.26053 15.2154H11.8641Z" fill="#231F20"/>
<path d="M11.1863 16.9692H2.9375C3.85961 18.8701 5.29428 20.4762 7.06189 21.6078C8.8295 20.4762 10.2642 18.8701 11.1863 16.9692Z" fill="#019B8F"/>
<path d="M7.06189 2.39209C8.8295 3.52376 10.2642 5.12986 11.1863 7.03075H2.9375C3.85961 5.12986 5.29428 3.52376 7.06189 2.39209Z" fill="#D8A22A"/>
</svg>
