<?xml version="1.0" standalone="no"?><!DOCTYPE svg PUBLIC "-//W3C//DTD SVG 1.1//EN" "http://www.w3.org/Graphics/SVG/1.1/DTD/svg11.dtd"><svg class="icon" width="200px" height="200.00px" viewBox="0 0 1024 1024" version="1.1" xmlns="http://www.w3.org/2000/svg"><path d="M960 672V160c0-17.6-14.4-32-32-32H544V64h-64v64H96c-17.6 0-32 14.4-32 32v512c0 17.6 14.4 32 32 32h384v50.4l-152.8 89.6 32 56 144-84h19.2l144 84 32-56L544 754.4V704h384c17.6 0 32-14.4 32-32zM790.4 256l41.6 48.8-316.8 270.4L352 437.6 233.6 536.8 192.8 488l160-133.6 163.2 137.6L790.4 256z" /></svg>