<svg width="18" height="16" viewBox="0 0 18 16" xmlns="http://www.w3.org/2000/svg">
<path d="M9.22368 0.225297L17.6143 5.56475C17.8715 5.72848 17.8715 6.10407 17.6143 6.2678L9.22369 11.6073C9.0872 11.6941 8.91278 11.6941 8.77629 11.6073L0.385719 6.2678C0.128427 6.10407 0.128427 5.72848 0.385718 5.56475L8.77629 0.225297C8.91278 0.138443 9.0872 0.138443 9.22368 0.225297ZM2.9377 5.91628L8.99999 9.77409L15.0623 5.91628L8.99999 2.05846L2.9377 5.91628Z" />
<path d="M1.16368 9.57137C0.967505 9.45108 0.71096 9.51261 0.590674 9.70879L0.155081 10.4192C0.0347947 10.6154 0.0963176 10.8719 0.292496 10.9922L7.92179 15.6701C8.4571 15.9983 9.12617 15.9983 9.66148 15.6701L17.2908 10.9922C17.487 10.8719 17.5485 10.6154 17.4282 10.4192L16.9926 9.70879C16.8723 9.51261 16.6158 9.45108 16.4196 9.57137L8.90053 14.1816C8.83371 14.2226 8.74955 14.2226 8.68274 14.1816L1.16368 9.57137Z" />
</svg>
