<svg width="24" height="34" viewBox="0 0 44 44" fill="none" xmlns="http://www.w3.org/2000/svg" class="jsx-1189744782"><g class="jsx-1189744782"><path d="M40.1527 20.9588C40.1527 17.5986 38.0653 14.6457 34.9257 13.5087C35.0615 12.7959 35.1294 12.0831 35.1294 11.3534C35.1294 5.09121 30.0382 -1.52588e-05 23.793 -1.52588e-05C20.1273 -1.52588e-05 16.7331 1.74797 14.5948 4.70088C13.5426 3.88628 12.2529 3.44505 10.9122 3.44505C7.58591 3.44505 4.88757 6.14339 4.88757 9.46965C4.88757 10.1994 5.02333 10.9122 5.26092 11.574C2.13831 12.6941 0 15.6979 0 19.0411C0 22.4183 2.10437 25.3712 5.24395 26.5083C5.10819 27.2041 5.0403 27.9338 5.0403 28.6635C5.0403 34.9088 10.1146 39.983 16.3598 39.983C20.0255 39.983 23.4196 38.2181 25.5409 35.2651C26.5931 36.0967 27.8829 36.5549 29.2236 36.5549C32.5498 36.5549 35.2482 33.8566 35.2482 30.5303C35.2482 29.8006 35.1124 29.0878 34.8748 28.4259C37.9974 27.3059 40.1527 24.3021 40.1527 20.9588Z" fill="white" class="jsx-1189744782"></path><path d="M15.7824 17.2253L24.5732 21.2304L33.432 13.4578C33.5677 12.8129 33.6186 12.185 33.6186 11.5061C33.6186 6.04156 29.1723 1.59523 23.7077 1.59523C20.4324 1.59523 17.3946 3.20745 15.5448 5.9058L14.0684 13.5596L15.7824 17.2253Z" fill="#FED10A" class="jsx-1189744782"></path><path d="M6.68665 26.5253C6.55088 27.1702 6.49997 27.832 6.49997 28.5108C6.49997 33.9924 10.9633 38.4387 16.4448 38.4387C19.7371 38.4387 22.8088 36.8095 24.6587 34.0942L26.1181 26.4744L24.1665 22.7408L15.3417 18.7187L6.68665 26.5253Z" fill="#24BBB1" class="jsx-1189744782"></path><path d="M6.63518 11.3195L12.6598 12.745L13.9835 5.90583C13.1689 5.27791 12.1507 4.93849 11.0985 4.93849C8.48499 4.93849 6.34668 7.05983 6.34668 9.69029C6.34668 10.2503 6.4485 10.8104 6.63518 11.3195Z" fill="#EF5098" class="jsx-1189744782"></path><path d="M6.10983 12.762C3.42846 13.6444 1.54471 16.224 1.54471 19.0581C1.54471 21.8243 3.25875 24.2851 5.82133 25.2694L14.2728 17.6326L12.7284 14.3233L6.10983 12.762Z" fill="#1BA9F5" class="jsx-1189744782"></path><path d="M26.186 34.0942C27.0176 34.7221 28.0189 35.0785 29.0541 35.0785C31.6676 35.0785 33.8059 32.9571 33.8059 30.3267C33.8059 29.7497 33.7041 29.1896 33.5174 28.6805L27.5098 27.2719L26.186 34.0942Z" fill="#93C83E" class="jsx-1189744782"></path><path d="M27.4075 25.6937L34.0261 27.238C36.7245 26.3555 38.5912 23.776 38.5912 20.9249C38.5912 18.1757 36.8772 15.6979 34.3146 14.7306L25.6595 22.3165L27.4075 25.6937Z" fill="#0077CC" class="jsx-1189744782"></path><path fill-rule="evenodd" clip-rule="evenodd" d="M60.3483 29.8175V9.96179H62.4187V29.8175H60.3483ZM56.1393 28.0865L56.937 28.0017L56.9879 29.6309C54.8835 29.9194 53.0846 30.0721 51.5912 30.0721C49.6056 30.0721 48.197 29.4951 47.3655 28.3411C46.5339 27.1871 46.1266 25.3882 46.1266 22.9614C46.1266 18.1077 48.0613 15.6809 51.9136 15.6809C53.7804 15.6809 55.172 16.207 56.0884 17.2422C57.0048 18.2775 57.463 19.9236 57.463 22.1468L57.3443 23.7251H48.214C48.214 25.2524 48.4855 26.3895 49.0456 27.1192C49.6056 27.8489 50.556 28.2223 51.9306 28.2223C53.3222 28.2562 54.7138 28.2053 56.1393 28.0865ZM55.3926 22.0959C55.3926 20.3988 55.1211 19.1939 54.578 18.4981C54.035 17.8023 53.1525 17.4459 51.9306 17.4459C50.7087 17.4459 49.7753 17.8192 49.1644 18.549C48.5534 19.2787 48.231 20.4667 48.214 22.0959H55.3926ZM75.5031 26.9665V20.1612C75.5031 18.6338 75.1468 17.4968 74.417 16.784C73.7042 16.0543 72.5672 15.6979 71.0059 15.6979H65.6941V17.5307H71.1417C71.8375 17.5307 72.3975 17.7344 72.8048 18.1417C73.2121 18.549 73.4157 19.2278 73.4157 20.1612V21.3491L69.0712 21.7564C67.6117 21.8922 66.5426 22.2995 65.8638 22.9274C65.1849 23.5553 64.8455 24.5566 64.8455 25.8973C64.8455 27.255 65.1849 28.2902 65.8468 29.0029C66.5087 29.7327 67.476 30.0891 68.7488 30.0891C70.4119 30.0891 72.0581 29.7836 73.7212 29.0539C74.3557 29.6588 75.3493 29.648 76.5572 29.6349H76.5574H76.5576H76.5579C76.7391 29.6329 76.925 29.6309 77.1154 29.6309L77.2172 27.798C77.2172 27.798 75.5031 27.6623 75.5031 26.9665ZM69.0882 28.3411C67.6796 28.3411 66.9838 27.4925 66.9838 25.7955C66.9838 25.0318 67.1535 24.4378 67.5269 24.0305C67.9002 23.6232 68.4942 23.3856 69.3258 23.3178L73.4157 22.9274V27.4925L72.7878 27.7132C71.5829 28.1374 70.344 28.3411 69.0882 28.3411ZM83.5982 17.5477C81.5956 17.5477 80.5774 18.2435 80.5774 19.6521C80.5774 20.297 80.815 20.7552 81.2732 21.0267C81.7314 21.2983 82.7836 21.5698 84.4297 21.8583C86.0759 22.1468 87.2299 22.5371 87.9088 23.0632C88.5876 23.5724 88.927 24.5397 88.927 25.9652C88.927 27.3908 88.4688 28.426 87.5524 29.0878C86.6359 29.7497 85.3122 30.0891 83.5473 30.0891C82.4102 30.0891 78.5918 29.6648 78.5918 29.6648L78.7106 27.8659C79.0533 27.8978 79.3815 27.9289 79.6954 27.9586C81.3864 28.1186 82.6624 28.2393 83.5642 28.2393C84.6334 28.2393 85.448 28.0696 86.008 27.7302C86.5681 27.3908 86.8566 26.8138 86.8566 26.0161C86.8566 25.2185 86.619 24.6754 86.1438 24.3869C85.6686 24.0984 84.6164 23.8269 82.9872 23.5724C81.358 23.3178 80.204 22.9444 79.5252 22.4353C78.8463 21.9432 78.5069 21.0098 78.5069 19.6691C78.5069 18.3284 78.9821 17.3271 79.9325 16.6822C80.8828 16.0374 82.0708 15.7149 83.4794 15.7149C84.5994 15.7149 88.5027 16.0034 88.5027 16.0034V17.8193C87.8189 17.7797 87.1764 17.7364 86.5804 17.6962C85.3867 17.6157 84.3792 17.5477 83.5982 17.5477ZM94.5436 17.7853H98.939V15.9694H94.5436V11.7437H92.4901V15.9864H90.5215V17.7853H92.4901V25.0657C92.4901 27.0344 92.7617 28.375 93.3217 29.0708C93.8817 29.7666 94.866 30.123 96.3085 30.123C96.9534 30.123 97.8868 30.0212 99.1257 29.8176L98.9899 28.1035L96.5291 28.2732C95.6636 28.2732 95.1206 28.0187 94.883 27.5265C94.6624 27.0344 94.5436 25.9822 94.5436 24.4039V17.7853ZM101.824 12.8469V10.454H103.895V12.8638L101.824 12.8469ZM101.824 29.8176V15.9864H103.895V29.8176H101.824ZM115.995 16.0373C114.535 15.8167 113.5 15.6979 112.889 15.6979C110.819 15.6979 109.342 16.241 108.443 17.2931C107.56 18.3453 107.119 20.1951 107.119 22.8256C107.119 25.4561 107.543 27.3228 108.358 28.4259C109.172 29.529 110.666 30.0891 112.821 30.0891C113.67 30.0891 114.959 29.9533 116.674 29.6987L116.589 27.9847L113.33 28.2393C111.667 28.2393 110.581 27.8489 110.055 27.0513C109.529 26.2537 109.274 24.8451 109.274 22.8256C109.274 20.8061 109.563 19.4145 110.123 18.6678C110.683 17.9211 111.752 17.5477 113.313 17.5477C114.009 17.5477 115.095 17.6326 116.572 17.8023L116.657 16.1222L115.995 16.0373Z" fill="#fff" class="jsx-1189744782 elastic-logo__wordmark"></path></g></svg>
