<svg width="16" height="16" viewBox="0 0 16 16" fill="none" xmlns="http://www.w3.org/2000/svg">
<path d="M8.00001 10C7.56181 10 7.13302 9.96549 6.71713 9.89947L6.38514 11.1385C6.33749 11.3163 6.15471 11.4218 5.97689 11.3742L5.33294 11.2016C5.15512 11.154 5.04959 10.9712 5.09724 10.7934L5.42233 9.58011C4.87991 9.39587 4.37075 9.1552 3.90469 8.86655L2.84519 9.92606C2.71501 10.0562 2.50396 10.0562 2.37378 9.92606L1.90238 9.45466C1.7722 9.32448 1.7722 9.11343 1.90238 8.98325L2.83543 8.0502C2.35402 7.59944 1.95188 7.08546 1.6479 6.52447C1.64471 6.51858 1.64141 6.51241 1.63802 6.50601C1.51338 6.27064 1.56002 5.976 1.75688 5.79661C1.92029 5.64769 2.03575 5.54636 2.13618 5.44593C2.14516 5.43694 2.15499 5.42692 2.16548 5.41609C2.31087 5.26586 2.55881 5.32178 2.64395 5.51272C3.47406 7.37424 5.4619 8.66667 8.00001 8.66667C10.4318 8.66667 12.4662 7.40898 13.2827 5.68265C13.304 5.63773 13.3278 5.58116 13.3517 5.5211C13.4274 5.3309 13.6739 5.27351 13.8186 5.41827C13.9257 5.52534 14.0684 5.6681 14.2469 5.84655C14.4233 6.02296 14.471 6.29236 14.3558 6.5136C14.3277 6.56741 14.3004 6.61811 14.2772 6.65842C13.9636 7.20134 13.557 7.69777 13.0752 8.13236L13.9261 8.98325C14.0562 9.11343 14.0562 9.32448 13.9261 9.45466L13.4547 9.92606C13.3245 10.0562 13.1134 10.0562 12.9833 9.92606L11.9886 8.93138C11.5519 9.19137 11.079 9.40984 10.5777 9.58011L10.9028 10.7934C10.9504 10.9712 10.8449 11.154 10.6671 11.2016L10.0231 11.3742C9.8453 11.4218 9.66252 11.3163 9.61488 11.1385L9.28288 9.89947C8.86699 9.96549 8.4382 10 8.00001 10Z" fill="#3370FF"/>
</svg>