<?xml version="1.0" standalone="no"?><!DOCTYPE svg PUBLIC "-//W3C//DTD SVG 1.1//EN" "http://www.w3.org/Graphics/SVG/1.1/DTD/svg11.dtd"><svg t="1618218878362" class="icon" viewBox="0 0 1024 1024" version="1.1" xmlns="http://www.w3.org/2000/svg" p-id="9183" xmlns:xlink="http://www.w3.org/1999/xlink" width="200" height="200"><defs><style type="text/css"></style></defs><path d="M159.926857 689.426286h130.724572l-39.003429 193.718857c-0.859429 4.278857-1.28 9.435429-1.28 13.714286 0 20.992 14.555429 32.566857 34.706286 32.566857 20.571429 0 35.565714-11.154286 39.862857-32.146286l41.984-207.853714h202.715428L530.651429 883.145143c-1.28 4.278857-1.700571 9.435429-1.700572 13.714286 0 20.992 14.573714 32.566857 35.145143 32.566857s35.565714-11.154286 39.862857-32.146286L645.485714 689.426286h152.996572c23.570286 0 39.862857-17.133714 39.862857-40.283429 0-18.852571-12.854857-34.285714-32.146286-34.285714h-145.298286L706.377143 388.571429h149.997714c23.588571 0 39.862857-17.152 39.862857-40.283429 0-18.852571-12.854857-34.285714-32.146285-34.285714h-142.72l35.145142-172.726857c0.420571-2.56 1.28-8.137143 1.28-13.714286 0-20.992-14.994286-32.987429-35.565714-32.987429-23.990857 0-34.706286 13.275429-39.003428 33.426286l-37.705143 186.002286H442.788571l35.145143-172.726857c0.420571-2.56 1.28-8.137143 1.28-13.714286 0-20.992-15.433143-32.987429-35.565714-32.987429-24.429714 0-35.584 13.275429-39.442286 33.426286l-37.705143 186.002286h-140.580571c-23.570286 0-39.862857 17.993143-39.862857 41.563428 0 19.291429 12.873143 33.005714 32.164571 33.005715h133.284572l-45.44 226.285714h-138.422857c-23.588571 0-39.862857 17.993143-39.862858 41.563428 0 19.291429 12.854857 33.005714 32.146286 33.005715z m221.988572-74.569143l45.878857-226.285714H630.491429l-45.842286 226.285714z" p-id="9184"></path></svg>
