<?xml version="1.0" standalone="no"?><!DOCTYPE svg PUBLIC "-//W3C//DTD SVG 1.1//EN" "http://www.w3.org/Graphics/SVG/1.1/DTD/svg11.dtd"><svg t="1664337058571" class="icon" viewBox="0 0 1024 1024" version="1.1" xmlns="http://www.w3.org/2000/svg" p-id="1356" xmlns:xlink="http://www.w3.org/1999/xlink" width="200" height="200"><path d="M309.312 85.312a32 32 0 0 1 32 32V128h341.312v-10.688a32 32 0 0 1 32-32h21.376a32 32 0 0 1 32 32V128h128c23.552 0 42.624 19.072 42.624 42.624V896a42.688 42.688 0 0 1-42.624 42.624H128A42.688 42.688 0 0 1 85.312 896V170.624C85.312 147.072 104.384 128 128 128h128v-10.688a32 32 0 0 1 32-32h21.312z m373.312 128H341.312V224a32 32 0 0 1-32 32H288a32 32 0 0 1-32-32v-10.688H170.624v640h682.688v-640H768V224a32 32 0 0 1-32 32h-21.376a32 32 0 0 1-32-32v-10.688zM384 437.312a32 32 0 0 0-32-32h-64a32 32 0 0 0-32 32v64a32 32 0 0 0 32 32h64a32 32 0 0 0 32-32v-64z m64 0a32 32 0 0 1 32-32h64a32 32 0 0 1 32 32v64a32 32 0 0 1-32 32h-64a32 32 0 0 1-32-32v-64z m-64 192a32 32 0 0 0-32-32h-64a32 32 0 0 0-32 32v64a32 32 0 0 0 32 32h64a32 32 0 0 0 32-32v-64z m64 0a32 32 0 0 1 32-32h64a32 32 0 0 1 32 32v64a32 32 0 0 1-32 32h-64a32 32 0 0 1-32-32v-64z m320-192a32 32 0 0 0-32-32h-64a32 32 0 0 0-32 32v64a32 32 0 0 0 32 32h64a32 32 0 0 0 32-32v-64z" p-id="1357"></path><path d="M768 629.312a32 32 0 0 0-32-32h-64a32 32 0 0 0-32 32v64a32 32 0 0 0 32 32h64a32 32 0 0 0 32-32v-64z" p-id="1358"></path></svg>