<svg width="24" height="24" xmlns="http://www.w3.org/2000/svg">
<path d="M18.3339 17.9987C18.3339 18.1828 18.1846 18.332 18.0005 18.332H17.3339C17.1498 18.332 17.0005 18.1828 17.0005 17.9987V5.33203C17.0005 5.14794 17.1498 4.9987 17.3339 4.9987H18.0005C18.1846 4.9987 18.3339 5.14794 18.3339 5.33203V17.9987Z"/>
<path d="M10.7028 15.5378L13.9086 12.332H6.02255C5.82618 12.332 5.66699 12.1728 5.66699 11.9765V11.3543C5.66699 11.1579 5.82618 10.9987 6.02255 10.9987H13.9242L10.7028 7.77736C10.564 7.6385 10.564 7.41338 10.7028 7.27453L11.1428 6.83455C11.2817 6.69569 11.5068 6.69569 11.6456 6.83455L16.1711 11.36C16.2523 11.4412 16.286 11.5519 16.2723 11.6576C16.286 11.7633 16.2523 11.8739 16.1711 11.9551L11.6456 16.4806C11.5068 16.6195 11.2817 16.6195 11.1428 16.4806L10.7028 16.0406C10.564 15.9018 10.564 15.6767 10.7028 15.5378Z"/>
</svg>
