<svg width="24" height="24" xmlns="http://www.w3.org/2000/svg">
<path fill-rule="evenodd" clip-rule="evenodd" d="M10 10.0007C10 9.63246 10.2985 9.33398 10.6667 9.33398H19.3333C19.7015 9.33398 20 9.63246 20 10.0007V14.0007C20 14.3688 19.7015 14.6673 19.3333 14.6673H10.6667C10.2985 14.6673 10 14.3688 10 14.0007V10.0007ZM11.3333 13.334V10.6673H18.6667V13.334H11.3333Z"/>
<path d="M4 11.0007C4 10.8166 4.14924 10.6673 4.33333 10.6673H8.33333C8.51743 10.6673 8.66667 10.8166 8.66667 11.0007V13.0007C8.66667 13.1847 8.51743 13.334 8.33333 13.334H4.33333C4.14924 13.334 4 13.1847 4 13.0007V11.0007Z"/>
</svg>
