<svg width="24" height="24" xmlns="http://www.w3.org/2000/svg">
<path d="M5.33301 7.66732C5.33301 7.48322 5.48225 7.33398 5.66634 7.33398H15.6663C15.8504 7.33398 15.9997 7.48322 15.9997 7.66732V9.66732C15.9997 9.85141 15.8504 10.0007 15.6663 10.0007H5.66634C5.48225 10.0007 5.33301 9.85141 5.33301 9.66732V7.66732Z"/>
<path fill-rule="evenodd" clip-rule="evenodd" d="M5.33301 12.0007C5.33301 11.6325 5.63148 11.334 5.99967 11.334H17.9997C18.3679 11.334 18.6663 11.6325 18.6663 12.0007V16.0007C18.6663 16.3688 18.3679 16.6673 17.9997 16.6673H5.99967C5.63148 16.6673 5.33301 16.3688 5.33301 16.0007V12.0007ZM6.66634 15.334V12.6673H17.333V15.334H6.66634Z"/>
</svg>
