<svg width="16" height="16" viewBox="0 0 16 16" xmlns="http://www.w3.org/2000/svg">
<path d="M10.6666 7.62068L14.3571 5.4177C14.4233 5.37816 14.4799 5.32854 14.526 5.27196C14.6111 5.21156 14.6666 5.11225 14.6666 4.99998V4.93547C14.6717 4.88918 14.6717 4.84219 14.6666 4.79537V1.99998C14.6666 1.81588 14.592 1.64922 14.4713 1.52858C14.3507 1.40793 14.184 1.33331 13.9999 1.33331H1.99992C1.63173 1.33331 1.33325 1.63179 1.33325 1.99998V4.99998C1.33325 5.10043 1.37769 5.19051 1.44797 5.25162C1.49886 5.32643 1.56644 5.3916 1.64913 5.44103L5.33325 7.64343V12.4606C5.33325 12.5869 5.40459 12.7023 5.51751 12.7588L10.1842 15.0921C10.4058 15.2029 10.6666 15.0418 10.6666 14.794V7.62068Z"/>
</svg>
