<svg width="24" height="24" xmlns="http://www.w3.org/2000/svg">
<path d="M5.66699 18.6647C5.66699 18.8488 5.81623 18.998 6.00033 18.998H6.66699C6.85109 18.998 7.00033 18.8488 7.00033 18.6647L7.00033 5.99805C7.00033 5.81395 6.85109 5.66471 6.66699 5.66471H6.00033C5.81623 5.66471 5.66699 5.81395 5.66699 5.99805L5.66699 18.6647Z"/>
<path d="M13.298 16.2038L10.0922 12.998H17.9783C18.1747 12.998 18.3339 12.8389 18.3339 12.6425V12.0203C18.3339 11.8239 18.1747 11.6647 17.9783 11.6647H10.0767L13.298 8.44337C13.4369 8.30452 13.4369 8.07939 13.298 7.94054L12.858 7.50056C12.7192 7.36171 12.4941 7.36171 12.3552 7.50056L7.82973 12.026C7.74854 12.1072 7.71482 12.2179 7.72857 12.3236C7.71482 12.4293 7.74854 12.54 7.82973 12.6212L12.3552 17.1466C12.4941 17.2855 12.7192 17.2855 12.858 17.1466L13.298 16.7067C13.4369 16.5678 13.4369 16.3427 13.298 16.2038Z"/>
</svg>
