<svg width="24" height="24" xmlns="http://www.w3.org/2000/svg">
<path d="M8.27027 12.6348L7.06449 13.8405C6.92564 13.9794 6.92564 14.2045 7.06449 14.3434L7.50447 14.7834C7.64332 14.9222 7.86845 14.9222 8.0073 14.7834L10.5328 12.2579C10.614 12.1767 10.6477 12.066 10.6339 11.9603C10.6477 11.8546 10.614 11.744 10.5328 11.6628L8.0073 9.13728C7.86845 8.99843 7.64332 8.99843 7.50447 9.13728L7.06449 9.57726C6.92564 9.71611 6.92564 9.94124 7.06449 10.0801L8.28584 11.3014H5.05087C4.8545 11.3014 4.69531 11.4606 4.69531 11.657V12.2792C4.69531 12.4756 4.8545 12.6348 5.05087 12.6348H8.27027Z"/>
<path d="M15.7288 12.6348L16.9346 13.8405C17.0735 13.9794 17.0735 14.2045 16.9346 14.3434L16.4946 14.7834C16.3558 14.9222 16.1307 14.9222 15.9918 14.7834L13.4663 12.2579C13.3851 12.1767 13.3514 12.066 13.3652 11.9603C13.3514 11.8546 13.3851 11.744 13.4663 11.6628L15.9918 9.13728C16.1307 8.99843 16.3558 8.99843 16.4946 9.13728L16.9346 9.57726C17.0735 9.71611 17.0735 9.94124 16.9346 10.0801L15.7133 11.3014H18.9482C19.1446 11.3014 19.3038 11.4606 19.3038 11.657V12.2792C19.3038 12.4756 19.1446 12.6348 18.9482 12.6348H15.7288Z"/>
<path d="M11.3622 18.3014C11.3622 18.4855 11.5114 18.6348 11.6955 18.6348H12.3622C12.5463 18.6348 12.6955 18.4855 12.6955 18.3014V5.63477C12.6955 5.45067 12.5463 5.30143 12.3622 5.30143H11.6955C11.5114 5.30143 11.3622 5.45067 11.3622 5.63477V18.3014Z"/>
</svg>
