<?xml version="1.0" standalone="no"?><!DOCTYPE svg PUBLIC "-//W3C//DTD SVG 1.1//EN" "http://www.w3.org/Graphics/SVG/1.1/DTD/svg11.dtd"><svg t="1621433652678" class="icon" viewBox="0 0 1024 1024" version="1.1" xmlns="http://www.w3.org/2000/svg" p-id="2364" xmlns:xlink="http://www.w3.org/1999/xlink" width="200" height="200"><defs><style type="text/css"></style></defs><path d="M930.668 386.638c-16.798 0-30.422-13.62-30.422-30.422V175.75c0-13.782-11.216-24.994-24.998-24.994H574.898c-16.798 0-30.422-13.62-30.422-30.422s13.622-30.422 30.422-30.422h300.352c47.334 0 85.842 38.508 85.842 85.838v180.466c-0.002 16.802-13.624 30.422-30.424 30.422z" fill="#2D527C" p-id="2365"></path><path d="M941.828 965.542H82.172C36.862 965.542 0 928.682 0 883.372V143.92c0-47.124 38.338-85.462 85.462-85.462h251.608c47.124 0 85.462 38.338 85.462 85.462v74.936h519.298c45.31 0 82.172 36.862 82.172 82.17 0 16.802-13.622 30.422-30.422 30.422s-30.422-13.62-30.422-30.422c0-11.758-9.568-21.326-21.328-21.326h-549.72c-16.798 0-30.422-13.62-30.422-30.422V143.92c0-13.574-11.044-24.618-24.618-24.618H85.462c-13.574 0-24.618 11.044-24.618 24.618v739.452c0 11.758 9.568 21.326 21.328 21.326h859.654c16.798 0 30.422 13.62 30.422 30.422 0.002 16.802-13.622 30.422-30.42 30.422z" fill="#2D527C" p-id="2366"></path><path d="M993.576 769.22V301.028c0-28.578-23.17-51.748-51.748-51.748h-549.72V143.92c0-30.398-24.642-55.04-55.04-55.04H85.462c-30.398 0-55.04 24.642-55.04 55.04v625.304h963.154v-0.004z" fill="#CEE8FA" p-id="2367"></path><path d="M993.578 799.642H30.422c-16.8 0-30.422-13.62-30.422-30.422V143.92c0-47.124 38.338-85.462 85.462-85.462h251.608c47.124 0 85.462 38.338 85.462 85.462v74.936h519.298c45.31 0 82.172 36.862 82.172 82.17v468.192c-0.002 16.804-13.624 30.424-30.424 30.424zM60.844 738.798h902.312V301.028c0-11.758-9.568-21.326-21.328-21.326h-549.72c-16.798 0-30.422-13.62-30.422-30.422V143.92c0-13.574-11.044-24.618-24.618-24.618H85.462c-13.574 0-24.618 11.044-24.618 24.618v594.878z" fill="#2D527C" p-id="2368"></path></svg>