<svg width="24" height="24" viewBox="0 0 24 24" xmlns="http://www.w3.org/2000/svg">
<path d="M16 11.431L21.5358 8.12658C21.6351 8.06727 21.72 7.99284 21.7891 7.90798C21.9167 7.81738 22 7.66841 22 7.5V7.40323C22.0076 7.33379 22.0077 7.26332 22 7.19309V3C22 2.72386 21.8881 2.47386 21.7071 2.29289C21.5261 2.11193 21.2761 2 21 2H3C2.44772 2 2 2.44772 2 3V7.5C2 7.65068 2.06665 7.78579 2.17208 7.87746C2.24841 7.98968 2.34978 8.08742 2.47382 8.16158L8 11.4652V18.691C8 18.8804 8.107 19.0535 8.27639 19.1382L15.2764 22.6382C15.6088 22.8044 16 22.5627 16 22.191V11.431Z"/>
</svg>
