<svg width="24" height="24" viewBox="0 0 24 24"  xmlns="http://www.w3.org/2000/svg">
<path d="M11.8258 8.65595C11.9093 8.43957 12.2136 8.44649 12.2873 8.6664C12.7573 10.0686 13.8272 13.3564 13.8056 14.1639C13.7779 15.1981 12.9172 16.014 11.883 15.9863C10.8488 15.9587 10.0329 15.0979 10.0605 14.0637C10.0821 13.2566 11.2946 10.0325 11.8258 8.65595Z"/>
<path d="M3.2 13C3.2 8.13989 7.13989 4.2 12 4.2C16.8601 4.2 20.8 8.13989 20.8 13C20.8 15.4085 19.8336 17.5901 18.2646 19.1802C18.0512 19.3964 18.0306 19.743 18.2332 19.9693L18.9668 20.789C19.1694 21.0153 19.5182 21.0355 19.7341 20.8219C21.7493 18.8291 23 16.06 23 13C23 6.92487 18.0751 2 12 2C5.92487 2 1 6.92487 1 13C1 16.0337 2.22928 18.7815 4.21407 20.7704C4.42864 20.9854 4.77754 20.9675 4.98161 20.7425L5.72062 19.9277C5.92469 19.7027 5.90635 19.356 5.69443 19.1384C4.14961 17.552 3.2 15.3875 3.2 13Z"/>
</svg>
