<svg width="80" height="56" viewBox="0 0 80 56" fill="none" xmlns="http://www.w3.org/2000/svg">
<path d="M39.9166 20.3203C40.0009 20.1043 40.3019 20.111 40.3764 20.3306C41.2082 22.7817 44.1573 31.6251 44.1034 33.6443C44.0405 35.9947 42.0842 37.8491 39.7338 37.7863C37.3835 37.7234 35.529 35.7671 35.5919 33.4167C35.6459 31.398 38.9776 22.7269 39.9166 20.3203Z" fill="#00D6B9"/>
<path d="M20 31C20 19.9543 28.9543 11 40 11C51.0457 11 60 19.9543 60 31C60 36.4739 57.8036 41.432 54.2377 45.046C53.7528 45.5374 53.706 46.325 54.1664 46.8394L55.8336 48.7022C56.2941 49.2166 57.0867 49.2626 57.5776 48.7771C62.1575 44.2481 65 37.9545 65 31C65 17.1929 53.8071 6 40 6C26.1929 6 15 17.1929 15 31C15 37.8947 17.7938 44.1399 22.3047 48.66C22.7924 49.1486 23.5853 49.1079 24.0491 48.5966L25.7287 46.7448C26.1925 46.2335 26.1508 45.4455 25.6692 44.9509C22.1582 41.3454 20 36.4262 20 31Z" fill="#3370FF"/>
</svg>
