<svg width="40" height="40" viewBox="0 0 40 40" fill="none" xmlns="http://www.w3.org/2000/svg">
<g id="Group 3400">
<g id="Rectangle 2793" filter="url(#filter0_d_3311_273227)">
<rect width="24" height="24" rx="12" transform="matrix(-1 0 0 1 32 4)" fill="white"/>
<rect x="-0.5" y="0.5" width="23" height="23" rx="11.5" transform="matrix(-1 0 0 1 31 4)" stroke="#DEE0E3"/>
</g>
<g id="icon_left_outlined">
<path id="Union" d="M17.8179 15.9995L21.8838 11.9336C21.9814 11.836 21.9814 11.6777 21.8838 11.5801L21.5303 11.2265C21.4326 11.1289 21.2743 11.1289 21.1767 11.2265L16.7573 15.646C16.562 15.8412 16.562 16.1578 16.7573 16.3531L21.1767 20.7725C21.2743 20.8701 21.4326 20.8701 21.5303 20.7725L21.8838 20.4189C21.9814 20.3213 21.9814 20.163 21.8838 20.0654L17.8179 15.9995Z" fill="#1F2329"/>
</g>
</g>
<defs>
<filter id="filter0_d_3311_273227" x="0" y="0" width="40" height="40" filterUnits="userSpaceOnUse" color-interpolation-filters="sRGB">
<feFlood flood-opacity="0" result="BackgroundImageFix"/>
<feColorMatrix in="SourceAlpha" type="matrix" values="0 0 0 0 0 0 0 0 0 0 0 0 0 0 0 0 0 0 127 0" result="hardAlpha"/>
<feOffset dy="4"/>
<feGaussianBlur stdDeviation="4"/>
<feComposite in2="hardAlpha" operator="out"/>
<feColorMatrix type="matrix" values="0 0 0 0 0 0 0 0 0 0 0 0 0 0 0 0 0 0 0.1 0"/>
<feBlend mode="normal" in2="BackgroundImageFix" result="effect1_dropShadow_3311_273227"/>
<feBlend mode="normal" in="SourceGraphic" in2="effect1_dropShadow_3311_273227" result="shape"/>
</filter>
</defs>
</svg>
