<svg id="图层_1" data-name="图层 1" xmlns="http://www.w3.org/2000/svg" viewBox="0 0 80 72.5"><defs><style>.cls-1{fill:#dee0e3;}.cls-2{fill:#8f959e;}.cls-3{fill:#bbbfc4;}.cls-4{fill:#757575;}</style></defs><title>icon_map-lbs-heat_gray light</title><path class="cls-1" d="M69.464,9.115c.06-.094.221-.215.161-.349s-.161-.188-.221-.114a.6.6,0,0,1-.443.262,1.081,1.081,0,0,0-.623.388c-.061.094-.221.094-.349.222s-.422.348-.516.476-.074.134-.255.2a2.1,2.1,0,0,1-.563.073c-.261.021-.369.074-.422-.033s-.2-.255-.2-.436-.021-.382-.108-.442-.053-.061-.114-.222-.3-.073-.4-.113S65.046,8.954,65,8.86s-.107-.288-.308-.315a1.055,1.055,0,0,0-.315-.034,1.062,1.062,0,0,1-.362.014.807.807,0,0,0-.382-.061,1.333,1.333,0,0,1-.456.014c-.141-.04-.255-.215-.335-.4a2.592,2.592,0,0,1-.148-.423,1.623,1.623,0,0,0-.235-.456,5.019,5.019,0,0,1-.335-.442c-.087-.161-.161-.362-.234-.5s-.188-.221-.289-.4-.127-.309-.181-.423-.234-.348-.308-.482a.41.41,0,0,0-.288-.262c-.2-.074-.369-.255-.516-.275s-.4-.04-.771-.114a5.468,5.468,0,0,0-.6-.107,1.281,1.281,0,0,0-.476-.033,1.348,1.348,0,0,0-.59.147l-.677.255-.02.025a.519.519,0,0,0-.207-.031.866.866,0,0,0-.731.409,1.841,1.841,0,0,0-.4.8c.02.2.127.108.288.108s.2.02.215.181.087.268-.054.395a3.175,3.175,0,0,0-.409.751,4.774,4.774,0,0,0-.57,1.267c.02.248.141.375-.053.5a2.049,2.049,0,0,0-.5.395c-.181.2-.107.3-.4.181a2.645,2.645,0,0,0-.73-.181c-.088,0-.161.128-.342.3a7.244,7.244,0,0,0-.57,1.415c-.087.234-.3.59-.268.8a.738.738,0,0,0,.355.57c.2.074.161.02.429-.034s.355-.234.516-.194.248.322.483.235.141-.2.409-.322.127-.2.409-.107a1.253,1.253,0,0,1,.536.268,2.292,2.292,0,0,1,.59.61c.054.161.215.288,0,.322a4.3,4.3,0,0,0-1.126.107,5.679,5.679,0,0,1-.644.268c-.375.141-.321.248-.57.355a1.149,1.149,0,0,0-.516.409c-.087.141-.127.2-.321.463s-.342.375-.537.4-.235-.053-.462.054a.8.8,0,0,0-.43.322c-.127.181-.18.409-.449.429a.823.823,0,0,1-.516-.074,4.678,4.678,0,0,0-.784-.288.875.875,0,0,0-.537.268,3.243,3.243,0,0,0-.429.838c-.053.181.249.7.289.858s-.268.4-.356.429a8.347,8.347,0,0,0-.73.61,1.778,1.778,0,0,1-.57.409c-.235.087-.235.215-.557.235s-.931.033-1.126.02a1.706,1.706,0,0,0-.771.053,11.123,11.123,0,0,0-1.052.45c-.322.127-.289.107-.7.268s-.61.141-.61.053-.248-.194-.355-.194a1.792,1.792,0,0,1-.751-.087,5.329,5.329,0,0,0-.8-.429c-.342-.128-.376-.054-.483-.248a1.119,1.119,0,0,0-.482-.376,3.272,3.272,0,0,0-.825-.288c-.322-.074-.449.034-.838.034a2.048,2.048,0,0,1-.731-.034c-.375-.087-.536-.127-.965-.235s-.3-.16-.537-.16-.542.006-.542.006l0,.014-.213.019-.282.011a1.054,1.054,0,0,0-.087-.421c-.08-.16-.2-.234-.241-.429s-.127-.382-.188-.7a3.746,3.746,0,0,0-.167-.576c-.027-.114-.289-.041-.4-.175a4.6,4.6,0,0,0-.355-.362,1.737,1.737,0,0,0-.469-.489,5.914,5.914,0,0,0-.965-.483c-.336-.134-1.113-.234-1.328-.482s-.315-.316-.167-.584a7.38,7.38,0,0,0,.3-.7,1.942,1.942,0,0,0,.034-.831,8.735,8.735,0,0,0-.4-1.314,1.376,1.376,0,0,0-.449-.429c-.282-.2-.583-.248-.778-.516a1.958,1.958,0,0,1-.449-.778.941.941,0,0,0-.12-.454l.016-.005.447-.1-.08-.234L28.82,8a.684.684,0,0,0-.282-.033c-.087.007-.168-.014-.248,0l-.074-.034a1.242,1.242,0,0,0-.415-.06.6.6,0,0,0-.4.181l-.093.06-.1.114a1.215,1.215,0,0,0-.127.369l-.027.027a1.35,1.35,0,0,0-.329-.06A.676.676,0,0,0,26.1,8.9c-.007.007-.014.013-.014.02a.875.875,0,0,0-.174.235.787.787,0,0,0-.127.476c-.014.127-.047.254-.067.389s.013.181-.107.2c-.047.013-.108.053-.135.047h0l-.193-.094-.121-.067c-.074-.02-.148-.04-.221-.067l-.155-.02-.094-.027-.033-.02-.033-.047-.094-.074a.546.546,0,0,0-.181-.167L24.3,9.632l-.094-.067-.114-.054-.121-.034-.127-.006-.168.026-.167.094-.094.1-.067.107a1.372,1.372,0,0,1-.188.248.918.918,0,0,0-.1.148,2.551,2.551,0,0,0-.135.221c-.026.054-.06.1-.087.154l-.094.107a.979.979,0,0,1-.093.135.729.729,0,0,0-.121.167.28.28,0,0,0-.027.047.513.513,0,0,1-.087.081l-.08.1-.081.208a.686.686,0,0,0-.054.087h-.013a.782.782,0,0,0-.5.034.785.785,0,0,0-.309.006l-.18-.08-.289.013a.86.86,0,0,0-.134.007.47.47,0,0,1-.214-.034l-.222.021-.033.02a.764.764,0,0,0-.322.134l-.094.087-.107.154-.06.275.027.074v.033l.046.161a.863.863,0,0,0,.215.275,1.431,1.431,0,0,1-.027.181.731.731,0,0,0-.06.295.944.944,0,0,0-.007.389,1.059,1.059,0,0,0,.007.355c.006.033.013.074.02.107l-.02.067a.6.6,0,0,0-.248.134l-.081.074-.087.127-.094.068-.067.08-.04.06a.338.338,0,0,1-.04.067.766.766,0,0,0-.128.282c-.006.033,0,.053-.02.08l-.047.175a.958.958,0,0,0-.234.114l-.047-.014-.221-.006-.121.053-.121.02-.06.034a.714.714,0,0,0-.235.06l-.087.02a.7.7,0,0,1-.121.014.787.787,0,0,0-.181.053l-.073.02-.154-.04-.2.014-.147.067-.114.094a1.161,1.161,0,0,0-.215.04l-.094.04a.484.484,0,0,0-.167-.047.683.683,0,0,1-.081-.067l-.141-.06-.127-.02a1.366,1.366,0,0,0-.288.026.8.8,0,0,0-.215.034l-.147.08-.108.1-.08.134-.027.02-.094.094-.04.067-.02-.114-.08-.161-.135-.134-.154-.074-.127-.027h-.1l-.08.007a.791.791,0,0,0-.208.067l-.087-.074-.188-.08-.254.007-.188.107-.114.121-.141.046-.154-.02-.134-.026-.141.006-.107.027c-.087.04-.181.081-.275.121l-.141.208a.98.98,0,0,0-.141.14l-.053.081-.034.08a.861.861,0,0,0-.275.128.763.763,0,0,0-.208.208l-.046.08-.047.168-.007.107c0,.027.015.049.019.075l-.025,0,.02.221-.013.021a.726.726,0,0,0-.074.744c.054.087.094.187.154.275a.968.968,0,0,0,.282.288l.147.054.228.006a1.018,1.018,0,0,0-.02.4,1.039,1.039,0,0,0-.02.155.574.574,0,0,0-.094.174.952.952,0,0,0-.159.016l0-.01-.1.013-.234.121-.076.143-.011.012,0,0-.03.058c-.014.06-.041.114-.054.174l-.02.161.02.067a.865.865,0,0,0,.034.194l.053.134.161.188.134.047.094.121.228.127h.047l.013.067.034.087.04.067a1.187,1.187,0,0,0,.114.148l.161.107-.014.04-.087.1a1,1,0,0,0-.094.207l-.02.114a.689.689,0,0,0,.014.2l.033.1.034.06.013.182.094.18.094.1.127.087a1.149,1.149,0,0,0,.268.1c.027.033.047.06.074.094.047.06.081.12.128.181l.114.127.107.067.047.02a1.6,1.6,0,0,0,.187.128.709.709,0,0,0,.108.087c.06.04.114.067.174.1.04.014.08.02.121.034a1.107,1.107,0,0,0,.02.214,2.06,2.06,0,0,0,0,.208.577.577,0,0,0-.014.436.79.79,0,0,0,.289.483l-.02.026-.081.128-.047.174.013.161.007.027-.08.127-.04.134-.007.141.007.04a.705.705,0,0,0,.067.355l.02.047a1.052,1.052,0,0,0,.094.208.7.7,0,0,0-.329.061.887.887,0,0,0-.268.067l-.1.053-.12.1-.081.134-.033.087a.913.913,0,0,0-.034.268.816.816,0,0,0-.053.107l-.047.161L13.232,28l.02.134.047.128.047.08-.013.094a1.194,1.194,0,0,0,.013.215l-.054.134-.006.12-.02.047-.027.134.013.208.127.221c.007.054.007.108.02.168l.074.2a.8.8,0,0,0,.114.148l.074.06.08.047a.639.639,0,0,0,.128.1l.114.053.187.034.088.046a1.605,1.605,0,0,0,.026.168.808.808,0,0,0,.088.208.731.731,0,0,0,.274.241l.047.02c.014.007.041.054.054.061a1.072,1.072,0,0,0,.248.208,1.13,1.13,0,0,0,.2.234.8.8,0,0,0,.114.362l.054.067.053.054a.936.936,0,0,0,.2.12.724.724,0,0,0,.268.054l.127-.013a.706.706,0,0,0,.2-.081l.074-.053.087-.094.04-.027.013.081.047.127.094.141.107.087c.041.02.074.047.114.067l.047.154.04.054.021.067.093.12a1.516,1.516,0,0,0,.369.269.457.457,0,0,0,.1.087l.047.08c.006.04.006.08.013.114a.916.916,0,0,0,.127.315l.108.134.087.081.154.087.2.027.027-.007v.04l.027.134.033.067a.82.82,0,0,0,.1.161l.08.081.081.047.04.06.087.08.067.047a.762.762,0,0,0,.228.255.686.686,0,0,0,.087.054.88.88,0,0,0,.047.134.8.8,0,0,0,.1.161.619.619,0,0,0,.248.181.657.657,0,0,0,.328.114l.047.033.02.013c.014.047.02.094.034.135a.813.813,0,0,0,.087.207l.107.135.248.147.181-.013a1.244,1.244,0,0,0,.2.113l.094.027.108.014.127-.007.1-.034.047.034a.666.666,0,0,0,.128.168l.087.067.094.047.087.026.174.02a.458.458,0,0,0,.161.054l.128.074.154.033.127-.006a.7.7,0,0,0,.2-.061.519.519,0,0,1,.1.021,1.673,1.673,0,0,0,.261.04.679.679,0,0,0,.034.368,1.511,1.511,0,0,0,.274.456l.135.108.114.053.16.04.161-.013.1-.034a1.314,1.314,0,0,0,.181-.087l.127-.107.074-.094.054-.107.033-.127a.623.623,0,0,0,.007-.161.2.2,0,0,1,.047-.061,1.129,1.129,0,0,0,.288-.221l.134.074.148.04h.127a.228.228,0,0,1,.047.034.97.97,0,0,0,.3.174l.12.02a1.476,1.476,0,0,0,.315.221,1.211,1.211,0,0,0,.161.081l.094.02v.067l.02.114.047.127.081.114.094.087.134.081a.793.793,0,0,0,.04.355,1.109,1.109,0,0,0,.013.215l.081.187.2.181.214.054a.984.984,0,0,0,.2-.013,1.972,1.972,0,0,0,.335,0,.688.688,0,0,0,.3.093l.04.02a.962.962,0,0,0,.415.074c.041,0,.081-.007.121-.007.094.007.188.021.282.027a1.2,1.2,0,0,0,.569-.134.67.67,0,0,0,.316-.362c.08-.073.167-.14.248-.214a.8.8,0,0,0,.308-.034c.2-.053.4-.127.6-.194.081-.027.161-.047.242-.074a.931.931,0,0,0,.214-.107l.087-.074.074-.087.013-.02.094.02.061.007c.013.006.04.013.107.033a2,2,0,0,0,.147.161,1.671,1.671,0,0,0,.249.054l.06.027a.4.4,0,0,0,.08.073l.067.04.081.081.114.074.127.134.161.094.322.02.181-.081.107-.073.107-.021.155-.073.127-.121c.007.067.027.134.04.2l.013.121.047.161.054.094.081.1.127.094.08.033a.585.585,0,0,0,.041.262c-.021.107-.007.221-.021.328-.006.081-.02.161-.033.242-.007.027-.027.04-.04.06a.531.531,0,0,0-.148.147l-.04.074-.033.074-.027.081-.014.16a.791.791,0,0,0-.248.061l-.134.094L33.4,41a.832.832,0,0,0-.08.215l-.121.04a.8.8,0,0,0-.208.188l-.02.006-.194.208-.047.262a.592.592,0,0,0-.188.275.49.49,0,0,0-.027.14c-.006.02-.013.034-.02.054a.952.952,0,0,0-.053.181l-.007.121.02.14a.888.888,0,0,0,.087.181l-.02.014-.114.161-.047.228.047.2.067.12.087.108a.964.964,0,0,0,.181.134l.094.04.114.027h.128a1.1,1.1,0,0,0,.5-.208.5.5,0,0,0,.107-.034l.006,0,.041.14.08.094.013.175.061.1-.027.148.02.234.127.161a.668.668,0,0,0,.228.161l.081.06L34.3,45.2l.007.047a.489.489,0,0,0-.087.181l-.1.107a.826.826,0,0,0-.12.308l.02.188.087.168.107.107a1.022,1.022,0,0,0,.664.181l.067.047.053.194.094.2.061.061.013.053.141.181.174.108.081.02.1.067H35.9a.5.5,0,0,0,.107.033.727.727,0,0,0,.476-.026.615.615,0,0,0,.765.462l.154.087.167.04.115-.013.248-.087.113-.1.128-.154.067-.194a.814.814,0,0,0-.034-.315L38.3,46.9l-.094-.288a.64.64,0,0,0-.046-.249,1.1,1.1,0,0,0,.395-.04l.161-.1.047-.061.02.027c.06.054.114.1.168.154l.16.067.148.021a1.04,1.04,0,0,0,.248-.021l.174-.087.041-.053.154.06.181-.06a.835.835,0,0,0,.335.208l.308-.041.2-.167.026-.054h.114a1.044,1.044,0,0,0,.282-.161.526.526,0,0,0,.355-.114h.081l.281-.248.007-.027.3.181.081-.013.066.074.168.08A.976.976,0,0,0,42.9,46H43l.094.054a.726.726,0,0,0,.08.5l.067.067a1.127,1.127,0,0,0,.007.154.6.6,0,0,0,.121.336l.107.107.188.087h.067a.612.612,0,0,0,.241.168.493.493,0,0,0,.275.154.61.61,0,0,0,.3.114h.047l.013-.067.034.013.046-.013h.047l.054-.034.027.034.047.02a.269.269,0,0,0,.047-.067c.006-.014.006-.06.013-.074s.027,0,.04-.007.074,0,.094.007L45.1,47.5l.054-.02.073-.08.034-.02.02.047.047-.027.026-.026-.005.051s.04.014.054.007.027-.007.02-.02-.034-.047-.014-.047.081,0,.094.02.014.027.034.027.067,0,.067-.013a.038.038,0,0,0-.007-.027c-.013-.014-.04-.027-.027-.047a.694.694,0,0,1,.054-.06s.02-.007.02.02a.158.158,0,0,0,.02.06.112.112,0,0,1-.007.047c-.006.013-.033.033-.026.053s.026.007.04,0a.22.22,0,0,0,.074-.093.658.658,0,0,0,.013-.087c0-.021.007-.067.034-.061s.02.02.02.04-.014.041,0,.041a.136.136,0,0,0,.033-.027c.007-.007.04-.034.061-.014s.026.027.02.067-.02.027-.034.047-.033.041-.013.041.027.006.053-.021a.882.882,0,0,0,.081-.08c.02-.02.033-.074.02-.08a.041.041,0,0,0-.027-.007c-.013,0-.054.007-.04-.02s.013-.027.027-.034-.014-.053-.014-.053-.053-.067-.047-.088a.222.222,0,0,1,.054-.06c.02-.013.033-.033.04-.02s.007.054.027.054.02-.007.04-.007.034,0,.027.013a.948.948,0,0,0-.054.081c-.006.02-.013.06.007.08s.027.027.054.027.074-.02.094-.013.013.006.013.033,0,.02.013.02.021.02-.006.027-.04.027-.027.04.027.007.033.02a.031.031,0,0,0,.047.014c.027-.014.02-.014.047-.014s.081.007.067-.013a.379.379,0,0,0-.047-.06c-.013-.014-.04-.02-.033-.047a.407.407,0,0,1,.047-.121c.013-.007.02,0,.033.02s.027.04.041.04.046.007.026.021-.047.026-.047.053a.135.135,0,0,0,.027.087.306.306,0,0,0,.074.061c.02,0,.047-.007.054-.007a.039.039,0,0,1,.047,0c.013.013.026.047.06.047s.074.007.074.033-.007.047-.021.054-.006.013-.026.007-.04-.014-.054,0-.047.053-.033.067.006.02.033.027a.094.094,0,0,1,.047.02c.007.006.007.013.04.013s.04-.007.047-.02.027-.02.034-.047.013-.054.026-.033.021.053.041.053a.112.112,0,0,0,.047-.006.151.151,0,0,1,.067-.021.254.254,0,0,0,.073,0,.97.97,0,0,0,.134-.047.089.089,0,0,0,.054-.067.133.133,0,0,0-.013-.053c-.007-.02.006-.047-.027-.067a.345.345,0,0,0-.054-.027s-.02-.013,0-.034.054-.033.067-.047a.253.253,0,0,0,.047-.046c.014-.021.007-.034.02-.021s.034.034.027.047-.06.041-.053.061-.007.033.006.047a.112.112,0,0,1,.027.06.151.151,0,0,0,.04.1c.034.027.041.047.061.054a.133.133,0,0,1,.08.027c-.007-.013.02-.013.013-.034s-.013-.04-.013-.053-.007-.014-.007-.02-.006-.094.007-.094.033.072.04.066a.062.062,0,0,0-.014.048v.02a.127.127,0,0,0,.007.054l.039-.026.028.033c.013.02.006.047.006.067s.021.02.041.02a.359.359,0,0,0,.08-.027c.02-.007.02.007.027.02a.111.111,0,0,1-.007.067.079.079,0,0,0,.007.054c.007.02-.033.013-.054.013s-.08.007-.12.007-.014.074-.007.107-.013.054-.013.067a.277.277,0,0,1-.014.067c-.007.007-.02,0-.033-.02s-.034.027-.047.047-.007.027,0,.04.02.034.02.074a.25.25,0,0,1-.034.1.161.161,0,0,0-.026.073c-.014.047.026.107.033.128s.013-.007.02-.021.04.034.054.054-.014.047-.02.06a.044.044,0,0,0,.006.041.145.145,0,0,0,.054.02.337.337,0,0,1,.054-.007c.04,0,.033.007.026.014a.091.091,0,0,1-.053.026.171.171,0,0,0-.074.027c-.034.02.027.04.047.047s.02.034.02.047a.84.84,0,0,0,.013.087c.007.034.041.027.068.034s.026.033.04.053.013.014.02.007,0-.034,0-.06,0-.021.013-.027.041.053.047.08.027.02.047.02.007.047.007.061-.007.053-.027.067-.033-.061-.047-.074a.129.129,0,0,0-.087-.007c-.027.007.027.094.04.114a.262.262,0,0,1,0,.074c-.006.02.007.04.027.027s.013-.02.034-.034.033-.013.053-.013.047-.02.074-.014.053.034.087.047a.08.08,0,0,0,.054.007.11.11,0,0,0,.06-.02c.013-.02.047-.007.067,0a.055.055,0,0,0,.047,0c.02-.007.033-.027.054-.047a.248.248,0,0,1,.093-.033c.027-.014.021-.041.034-.061a.448.448,0,0,1,.047-.06.14.14,0,0,0,.04-.067.177.177,0,0,0-.027-.114c-.02-.027-.087-.034-.1-.04s-.034-.067-.047-.094-.034,0-.047.007a.049.049,0,0,1-.06,0c-.034-.021,0-.041,0-.061a.143.143,0,0,1,.02-.067c.02-.027.033.027.033.04s.014.014.034.014.006-.061.006-.081a.279.279,0,0,0-.026-.067c-.021-.033-.094-.02-.108-.02a.067.067,0,0,1-.047-.013c-.02-.02-.02,0-.06,0s-.02-.06-.02-.081a.2.2,0,0,0-.04-.093c-.027-.041-.027-.034-.027-.054s.013-.02.04,0,.034.013.067-.007.04-.067.061-.094.02-.027.046-.027.014.054.007.061-.007.013.02.02,0,.033-.013.047a.22.22,0,0,0-.047.06c-.013.02,0,.027.013.02s.054-.026.067-.033a.242.242,0,0,1,.067-.007c.014,0,.02-.013.054-.013a.1.1,0,0,1,.087.073c.027.047.04.014.04-.013a.7.7,0,0,0,.007-.121c-.007-.033-.094-.02-.121-.02a.054.054,0,0,1-.053-.027c-.014-.02-.027-.006-.04-.006s-.014.006-.041-.014.014-.027.034-.04a.279.279,0,0,0,.06-.067.262.262,0,0,0,0-.074.064.064,0,0,0-.033-.047.053.053,0,0,1-.027-.047c-.007-.02.007-.026.027-.026s.013-.007.013-.021-.02-.033-.033-.06-.014-.047,0-.06.04.02.053.047a.19.19,0,0,1,.027.053.653.653,0,0,0,.054.088c.013.026-.027.026-.034.033s0,.047,0,.067.02,0,.034-.013.04-.007.067-.007.033-.013.053-.027.027.027.021.047-.014.027-.034.027-.087.013-.107.013-.034,0-.034.027.034.014.034.014a.13.13,0,0,1,.033-.007c.014,0,.027.033.027.06s.027.02.04.02a.121.121,0,0,0,.067-.073.39.39,0,0,0,.02-.108.3.3,0,0,1,.041-.08.319.319,0,0,0,.04-.054.941.941,0,0,1,.094-.08c.027-.014.08.006.114.006a.088.088,0,0,0,.067-.02c.013-.013.033-.033.053-.033a.436.436,0,0,1,.094-.014c.027,0,.034-.013.034-.053s.013-.027.04-.027.013.02.007.04.013.014.04.007a.346.346,0,0,1,.067-.013c.02-.007.02-.014.02-.047s.007-.027.02-.027.02.007.034.02.02.007.033.02.007.02-.013.06.047.007.073-.013a.474.474,0,0,1,.081-.06c.02-.014-.007-.02-.027-.02s-.027.006-.033.02-.021.006-.007-.02a.084.084,0,0,1,.054-.047c.02-.007.02-.014.04-.021s.033-.026.04-.033.02.013.02.033.02.041.047.054a.2.2,0,0,0,.087.014.415.415,0,0,0,.094-.027.168.168,0,0,0,.04-.067.066.066,0,0,1,.061-.041.06.06,0,0,0,.047-.02c.02-.013.02-.06.02-.094s-.041-.02-.061-.02-.04-.006-.047-.04.021-.02.041-.013.033-.014.06-.02.047.02.067.02.013.02.007.033-.007.014-.007.047.054.02.074.02.02.02.013.04-.04.014-.054.007-.013.02-.013.04-.034.034-.047.067.027.021.047.014a.158.158,0,0,0,.047-.02.273.273,0,0,1,.047-.034.3.3,0,0,0,.08-.02c.021-.013.021-.007.021-.033s-.034-.034-.061-.034-.027,0-.033-.034.033-.073.06-.093-.02-.034-.04-.061.033-.026.067-.026.027.02.033.033.041.007.067.007a.245.245,0,0,1,.074-.007.431.431,0,0,0,.054-.013c.026-.007.013.04.013.067a.027.027,0,0,0,.034.027c.013,0,.02.033.04.046s.054,0,.08-.013a.63.63,0,0,0,.094-.04.055.055,0,0,0,.034-.047.558.558,0,0,0-.02-.134,1.142,1.142,0,0,0-.047-.114.119.119,0,0,1-.007-.081c0-.02.013-.033.034-.047s.006.027,0,.047a.275.275,0,0,0,.02.081c.006.013.026.006.046,0a.075.075,0,0,1,.034-.007c.013,0,.02-.013.033-.027s.021.02.021.034-.054.033-.074.047-.02.04-.02.073.033.047.047.054a.091.091,0,0,1,.047.027c.02.02.053.033.067.047a.134.134,0,0,0,.053,0,.138.138,0,0,0,.041-.027.221.221,0,0,0,.026-.08c.007-.027.014-.041.034-.047a.261.261,0,0,0,.06-.034c.02-.013.02-.033.027-.047s.013-.013.027-.02.04-.013.053-.02a.03.03,0,0,1,.034,0,.092.092,0,0,1,.034.047.508.508,0,0,0,.013.06c.007.02.02.02.033.02a.1.1,0,0,0,.054-.02c.014-.006.027-.04.04-.06a.28.28,0,0,1,.027-.047.62.62,0,0,0,0-.114.6.6,0,0,1-.02-.06.083.083,0,0,1,.007-.061.718.718,0,0,1,.047-.073.311.311,0,0,0,.02-.1v-.094a.3.3,0,0,0-.02-.08.247.247,0,0,1-.014-.061c0-.02.014-.013.027-.013s.027.047.027.06,0,.027.007.041a.335.335,0,0,1,.026.067.109.109,0,0,1,0,.067c0,.013.014.02.02.013a.145.145,0,0,0,.034-.02c.007-.007.013-.02.027-.027s.007.007.007.02-.021.034-.034.041a.134.134,0,0,0-.04.046.29.29,0,0,0,.013.148c.014.033.04.013.054.007a.069.069,0,0,1,.04-.007c.02.007,0,.033-.007.047s-.006.027-.013.067.047-.007.054-.014.02-.006.033-.013.034-.02.054-.06a.546.546,0,0,0,.033-.081c.007-.013.02-.02.034-.04a.149.149,0,0,0,.013-.074c0-.02-.02-.04-.047-.067s-.02-.06-.033-.087-.047-.047-.054-.067.014-.02.034-.02.026.013.04.027a.427.427,0,0,1,.047.094.626.626,0,0,0,.1.14.06.06,0,0,0,.047.02.152.152,0,0,0,.054-.013.113.113,0,0,0,.054-.033.172.172,0,0,1,.02-.047c.02-.02.013-.02.006-.034a.11.11,0,0,0-.02-.033c0-.007,0-.007.014-.014s.02-.006.026-.02a.069.069,0,0,0,.007-.04c.007-.02-.033-.04-.047-.047s-.02-.014-.033-.04.02-.1.027-.114a.232.232,0,0,0,.006-.067c0-.02-.027-.034-.04-.04s-.013-.021-.02-.047-.047-.061-.067-.088-.094-.04-.107-.047a.2.2,0,0,1-.068-.046c-.02-.021-.033-.027-.033-.054s.06.013.074.027a.174.174,0,0,0,.06.027.138.138,0,0,0,.054.013.078.078,0,0,1,.053.027.654.654,0,0,1,.054.08.059.059,0,0,0,.047.027c.013,0,.013,0,.02-.02s-.02-.04-.027-.054-.02-.006-.027-.027.014-.04.021-.06a.057.057,0,0,0-.021-.06.124.124,0,0,0-.06-.027c-.02,0-.027-.02-.033-.04a.189.189,0,0,0-.027-.047c-.014-.02.006-.047.013-.067a.18.18,0,0,0,.007-.067c0-.034-.034-.061-.04-.074s.006-.02.013-.027a.082.082,0,0,1,.04.034c.007.013.007.033.014.053a.662.662,0,0,1,.02.108c0,.02.013.02.027.006a.13.13,0,0,0,.026-.04c.007-.013.014-.007.027-.02s.014.04.014.047a.05.05,0,0,1-.014.027.039.039,0,0,0-.013.033.43.43,0,0,0,.02.1.037.037,0,0,0,.027.013c.006,0,.006.007.013.014a.048.048,0,0,0,.014.026c0,.007.02.007.033.007a.272.272,0,0,0,.06-.013c.02,0,.027.02.034.033a.245.245,0,0,1,.007.074.07.07,0,0,0,.026.047.1.1,0,0,1,.027.047c.014.02.04.047.047.06s.04.014.054.02.013.02.013.034a.053.053,0,0,1-.02.033c-.007.007.007.014.014.014a.163.163,0,0,0,.046-.014c.007-.013.021-.02.027-.033a.044.044,0,0,1,.034-.027l.033,0-.007,0a.7.7,0,0,0-.161.127l.034.034.036-.033a.038.038,0,0,0,0,.015c-.005.008-.013.011-.016.024-.006.034.074.04.1.04a.381.381,0,0,0,.094-.013h.053c.027,0,.054.067.061.081s.02.013.033.013.02-.007.034-.02.027.013.033.02.014.007.034-.013.013.02.02.033.013.02.02.027.013.007.013-.013v-.014a.06.06,0,0,0,.01-.04.079.079,0,0,0-.047-.074c-.014-.008-.017-.014-.018-.02s0-.016.016-.02a.157.157,0,0,1,.081.02.067.067,0,0,0,.033.007c.007,0,0-.016,0-.026a.021.021,0,0,0,.012-.028c0-.008,0-.014,0-.022a.034.034,0,0,0,.009-.018s0,0-.006-.006v-.008c.02-.013-.007-.04-.027-.026s0-.007-.027-.007-.027-.013-.06.007c-.027,0-.02.02-.047.02s-.04.013-.047.047-.02.006-.02-.02.006-.014-.014-.027,0-.009.007-.014H53c.014,0,.027-.013.041-.02a.041.041,0,0,1,.027.007c.013.007.013,0,.02-.007l.026-.027c.006-.005,0-.007-.007-.009s.015-.024,0-.024A.047.047,0,0,1,53.069,46a.341.341,0,0,1,.1.016.062.062,0,0,0,.02.007l.02-.041c0-.006-.014-.013-.02-.013a.3.3,0,0,0-.119-.017.532.532,0,0,1,.052-.03.452.452,0,0,1,.054-.02c.027,0,.06.007.067.02s.04.013.053.02a.088.088,0,0,1,.027.047.458.458,0,0,1,.007.094c-.007.02.013.02.027.02s.02-.02.033-.033a.06.06,0,0,1,.034-.021.265.265,0,0,0,.047-.02.065.065,0,0,0,.006-.033c0-.007-.02-.014-.033-.02l-.04-.02c-.007-.007-.027.006-.04.013s-.014,0-.021-.013.007-.021.014-.027.04-.014.053-.027.014-.02.021-.034.013-.02,0-.033-.041-.007-.054,0a.081.081,0,0,1-.04.007c-.02,0,0-.041.013-.061s.014-.04.027-.053.027-.007.047-.007a.118.118,0,0,0,.053-.014.1.1,0,0,0,.041-.02c.006-.013.033-.026.047-.033a.152.152,0,0,1,.06-.013c.02-.007.02-.021.033-.034s.007-.013.021-.02.026.007.033.02a.03.03,0,0,1,0,.034.24.24,0,0,1-.06.046.142.142,0,0,0-.041.047c-.006.014.014.027.014.041s.007.033.007.053a.308.308,0,0,0,.006.074c.007.02.02.027.034.02a.115.115,0,0,0,.06-.027c.02-.013.014-.007.04-.007s.041.027.054.047.013.007.02-.006,0-.047.007-.067a.054.054,0,0,1,.02-.034c.013-.013.02-.013.02-.033a.078.078,0,0,0-.04-.054.106.106,0,0,0-.047-.02c-.027-.014-.02-.014-.027-.034s.007-.013.034-.013h.04a.057.057,0,0,0,.033-.007c.014-.006.02.027.02.04a.105.105,0,0,0,.034.041c.007.006.02.006.033-.007s.021-.02.021-.034a.1.1,0,0,0-.007-.04.079.079,0,0,1-.007-.04.036.036,0,0,1,.014-.027c.006-.006.013,0,.04.007s.033-.007.054-.013.046.006.06.013.02-.02.027-.034a.132.132,0,0,1,.047-.04c.02-.007.053-.04.08-.047s.007.034-.007.04a.081.081,0,0,0-.033.047c-.007.021-.034.021-.04.027s.006.007.006.014.034,0,.047,0,.027-.02.04-.02a.057.057,0,0,1,.041.02c.013.013,0,.02,0,.033s-.007.02,0,.027a.11.11,0,0,0,.06.047.1.1,0,0,0,.047-.007.141.141,0,0,1,.054-.007.124.124,0,0,1,.06.021.06.06,0,0,0,.04.013c.013,0,.013-.034.013-.047a.088.088,0,0,1,.021-.047c.013-.013-.021-.006-.041-.006s-.02,0-.04-.014.047-.067.047-.067,0-.02-.007-.027a.089.089,0,0,0-.046-.013c-.021,0-.014-.04-.021-.054s0-.02.014-.027a.033.033,0,0,1,.04.014c.007.013.033.02.047.033a.042.042,0,0,0,.047-.006c.02-.014.02-.041.033-.068a.093.093,0,0,1,.041-.046.05.05,0,0,1,.053-.007c.02.013-.006.033-.027.047a.053.053,0,0,0-.02.047c0,.02.047.02.061.02s.02,0,.04.013.027.081.027.108.027.013.033.006a.827.827,0,0,1,.067-.06.444.444,0,0,1,.074-.02c.027-.007.054-.04.067-.047a.144.144,0,0,1,.054-.007c.02,0,.006-.02.006-.033s-.013-.034-.013-.047a.085.085,0,0,1,.007-.041c.006-.013.04.014.047.021s.033.006.047.006-.027.04-.034.047a.06.06,0,0,0-.007.034c0,.02.034.013.054-.007a.342.342,0,0,0,.06-.074c.02-.033.061-.047.074-.06a.061.061,0,0,0,.033-.04c.007-.02.007-.014.027-.014s.054.041.067.047.027.007.061,0a.182.182,0,0,0,.08-.026.106.106,0,0,0,.02-.068c0-.02.034-.006.054-.013a.047.047,0,0,0,.033-.047c0-.013-.02-.074-.026-.107s.006-.04.02-.061.026-.02.026-.046-.046-.014-.06-.014-.02,0-.027-.02a.022.022,0,0,1,.014-.027s.06-.006.073-.006.027.02.027.033a.588.588,0,0,0,.014.08c.013.034.04-.033.06-.06A.1.1,0,0,1,56,44.873c.02-.006.033.014.047.027s.026.007.047-.013-.027-.027-.041-.041-.013-.026-.02-.053-.02-.034-.053-.04a.144.144,0,0,0-.094.006.353.353,0,0,1-.067.027c-.027.007-.061-.06-.067-.1s.013-.033.02-.026a.335.335,0,0,0,.047.04.123.123,0,0,0,.074.02h.073a.312.312,0,0,0,.081,0c.02-.007.02-.047.026-.06s.007-.027.021-.034a.24.24,0,0,0,.06-.074.579.579,0,0,0,.013-.181.058.058,0,0,1,.02-.053c.014-.014.027.013.034.033s.04.007.047,0-.007-.013.034-.02c.011,0,.009-.009.011-.014a.259.259,0,0,0,.109.115c.013.007.033.007.047.013a1.416,1.416,0,0,1,.174.174c.074.081.161.181.174.128l.034-.034s-.087-.1-.168-.181c-.04-.04-.08-.087-.114-.12s-.053-.061-.08-.067a.065.065,0,0,1-.022-.008l.009,0a.09.09,0,0,1,.026-.041c.014-.02.047-.02.074-.026s.007-.047.007-.068-.007-.033.013-.053.02.067.034.1.027.021.033.014.014-.02,0-.04,0-.034,0-.067a.146.146,0,0,0-.006-.054c-.007-.02,0-.027.02-.04s.06-.014.087-.014.027.014.053.021.034-.041.041-.054.04-.047.06-.074-.04-.033-.067-.04a.12.12,0,0,1-.06-.027c-.014-.007,0-.02.02-.02a.547.547,0,0,1,.1.007.284.284,0,0,1,.1.033.146.146,0,0,1,.033.047.4.4,0,0,1,.02.074.314.314,0,0,1-.046.094c-.014.013.006.033.013.027a.5.5,0,0,0,.04-.054.1.1,0,0,0,.027-.054.174.174,0,0,0-.013-.1.1.1,0,0,1,.013-.088c.013-.02,0-.026-.007-.046s.007-.054.027-.067.027-.007.047,0a.04.04,0,0,0,.034-.014.021.021,0,0,1,.026,0c.007.007-.04.067-.047.081s-.013.02-.02.067.034.013.047-.014a.67.67,0,0,1,.067-.114c.021-.02.047-.006.061-.02s.006-.04.006-.074a.144.144,0,0,1,.027-.073c.014-.027.014-.02-.013-.041s.02-.04.04-.053.027,0,.027.033.047-.006.06-.02a.352.352,0,0,0,.047-.06c.007-.013.027-.013.054-.027s.02-.027.02-.04-.007-.027-.027-.054a.532.532,0,0,0-.107-.08c-.02-.014-.047.006-.087.02a.121.121,0,0,1-.114-.047c-.02-.034.027-.04.06-.047a.241.241,0,0,1,.1.007c.034,0,.027-.014.027-.027a.047.047,0,0,1,.014-.04c.013-.014.006-.014,0-.034s-.047-.006-.081-.013,0-.04.02-.047.027,0,.047.007a.064.064,0,0,0,.047,0c.014-.007.027.006.027.026s-.013.054-.02.074.007.04.02.06.054.02.081,0a.113.113,0,0,0,.047-.08c.006-.033-.014-.04-.047-.04s-.021-.02-.021-.034-.026-.027-.04-.047.007-.033.02-.053.014-.054.027-.067.027.006.034.02a.244.244,0,0,1,0,.067.1.1,0,0,0,.06.08c.04.027.034,0,.06-.027s.027-.033.054-.04a.5.5,0,0,1,.087-.006c.013,0,.02-.021.027-.041s-.02-.06-.014-.08.021-.02.034-.007a.331.331,0,0,1,.04.087c.007.02.02.02.041.02h.053c.027,0,.027.007.027.027a.262.262,0,0,1,0,.074c-.007.02.02.02.034.02s.033-.054.04-.074.026-.04.04-.067-.007-.027-.02-.04a.036.036,0,0,1-.014-.034c0-.013.02-.013.047-.013s.027-.027.027-.04a.371.371,0,0,1,.047-.054c.007-.013.02-.013.02-.033s-.027-.02-.047-.02h-.067c-.02,0-.04-.014-.04-.02a.053.053,0,0,0-.02-.041c-.02-.02.013-.047.033-.047a.1.1,0,0,1,.061.014c.013.013.013.007.033.007a.229.229,0,0,0,.074-.021c.013-.006.02-.02.04-.026s.087,0,.108,0,.02,0,.026-.014-.053-.033-.073-.047-.007-.02-.007-.033.067,0,.094,0,.02-.007.02-.027,0-.027-.007-.047.007-.04,0-.06-.047.026-.074.04-.033-.014-.047-.034-.046-.026-.06-.047.074-.02.094-.026.013-.034.013-.047-.006-.034-.006-.047a.491.491,0,0,0-.02-.074c-.007-.02-.034-.02-.054-.027s.054-.047.074-.054.013-.013.033-.02a.291.291,0,0,1,.074.007c.027.007-.027.04-.06.06s.02.061.04.088a.168.168,0,0,1,.027.073c.006.027.033.007.053-.006a.162.162,0,0,1,.061-.027c.02-.007.013-.04.02-.054a.166.166,0,0,1,.067-.04c.013-.007.02,0,.047.007s.027-.007.027-.014-.007-.033-.007-.06.073-.007.087-.007.02-.006.013-.027-.047-.033-.067-.053a.122.122,0,0,0-.073-.034.39.39,0,0,1-.108-.02c-.033-.006-.04-.027-.053-.047s0-.027.006-.033a.144.144,0,0,0,.027-.034c.007-.013.014-.013.027-.02a.569.569,0,0,1,.067-.013c.027,0,.027.013.06.02s.027-.034.027-.047a.054.054,0,0,1,.014-.04c.006-.021-.007-.027-.014-.041a.293.293,0,0,1-.027-.06c-.006-.02,0-.027.021-.033s.026.006.026.02a.234.234,0,0,0,.034.073.171.171,0,0,0,.087.034c.033,0,.067.06.074.08a.178.178,0,0,1-.014.081c-.013.02-.006.04.02.027a.171.171,0,0,0,.081-.047c.033-.027.04,0,.06.027s.034-.047.04-.074-.013-.027-.02-.047-.026-.027-.04-.04a.06.06,0,0,0-.06-.007c-.02.007,0-.067.006-.087s-.013-.027-.04-.027-.027,0-.04-.027-.013-.013-.067-.027,0-.026.007-.06.107-.013.134-.02.027-.02.027-.04a.838.838,0,0,1,.013-.088c.007-.046-.02-.053-.047-.073s.06-.081.094-.107.027-.061.033-.1a.042.042,0,0,0-.046-.054.071.071,0,0,1-.088.007c-.06-.02-.06-.007-.107-.007s-.013-.02,0-.033a.284.284,0,0,0,.02-.067.138.138,0,0,1,.067-.054c.027-.007.034-.033.04-.047a.246.246,0,0,1,.021-.047.455.455,0,0,0,.047-.067c.006-.02.066-.02.093-.027a.707.707,0,0,0,.155-.087c.033-.026.026-.02.026-.033s-.02-.007-.06,0-.04-.014-.04-.027-.014-.027-.027-.047-.034,0-.04.013a.356.356,0,0,1-.047.041c-.027.02-.02.047-.047.08s-.06-.047-.074-.067-.007-.007-.007-.047-.067-.013-.087-.013a.025.025,0,0,1-.027-.034c0-.02.061-.027.088-.033s.033.013.047.02a.387.387,0,0,0,.053.027.128.128,0,0,0,.067.006c.02,0,.034-.02.04-.033s-.006-.034-.026-.047-.027-.061-.041-.094-.093-.06-.127-.067-.047.02-.074.04-.04-.007-.047-.033.027-.047.041-.074-.047-.034-.067-.047.006-.06.006-.08.02-.014.04-.014.034.027.061.047.047.034.06.04.02-.02.02-.033a.148.148,0,0,1,.02-.047.157.157,0,0,0,.014-.061.1.1,0,0,1,.06-.067c.034-.006.013.061,0,.074s0,.04,0,.054a.12.12,0,0,1,0,.054c-.007.04.02.033.04.033a.138.138,0,0,1,.047.013c.02.007.027-.026.027-.04s.027-.04.027-.053-.007-.041-.007-.068.054-.013.067-.006.02-.007.061-.007-.007.06-.027.081a.439.439,0,0,0-.047.1.218.218,0,0,1-.081.074.124.124,0,0,0-.06.08c-.013.034,0,.04.027.04a.167.167,0,0,0,.094-.06.991.991,0,0,1,.12-.094c.021-.006.014-.013.027.007s.027.007.04-.013a.087.087,0,0,0-.013-.067c-.013-.027.007-.041.02-.054s-.007-.04-.013-.067-.027-.02-.047-.034a.154.154,0,0,1-.054-.073c-.006-.02.067-.074.094-.087a.077.077,0,0,1,.054-.007.056.056,0,0,0,.053-.014c.02-.02.02-.087.02-.107V39.49c0-.02-.02-.026-.033-.053s.053.02.074.027h.047c.02,0,.033-.014.04-.041s.013-.006.033-.027,0-.013-.006-.013-.027,0-.047-.013-.014-.034-.014-.054-.027-.027-.047-.013-.047-.027-.067-.034-.04.007-.067.04-.027,0-.027-.053.027-.034.047-.034.02-.006.047-.013.034.013.047.027a.065.065,0,0,0,.034.02s.027-.006.046-.01l.022.056c.007.013.1.04.114.027a.118.118,0,0,0,.021-.087c0-.034,0-.041.02-.061s.006-.033-.014-.047-.02-.02-.006-.033.006-.02.013-.047.027-.013.04-.007a.505.505,0,0,1,.047.02c.034.014.04-.006.034-.047a.19.19,0,0,1,.006-.067.061.061,0,0,0,.014-.047c0-.02-.007-.04-.027-.026s-.014.013-.04.006a.063.063,0,0,1-.047-.047.046.046,0,0,0-.034-.053c-.033-.014,0-.034.04-.041s.047-.026.047-.053-.006-.02.007-.054c.034-.073.067-.094.067-.134s.034-.074.074-.107a.1.1,0,0,0,.04-.1c0-.033-.047-.04-.094-.046s-.074-.054-.1-.074-.034-.027.006-.027a.136.136,0,0,1,.074.02.2.2,0,0,0,.107,0c.041-.013.047,0,.074.013s.047-.006.067-.04a.1.1,0,0,0,.007-.094.067.067,0,0,1,.04-.087.057.057,0,0,0,.047-.04.142.142,0,0,0,.033-.074c0-.027-.04-.053-.08-.067s-.013-.04-.013-.04a.553.553,0,0,1,.073.007c.047.006.041-.007.041-.02a.054.054,0,0,1,.026-.054c.021-.014.021-.02.014-.04s.027-.007.027-.007.006.013.04.027.033.033.007.04-.02.027,0,.04a.049.049,0,0,1,.026.047c0,.027,0,.02.021.04s-.007.041-.041.041-.033,0-.04.033a.081.081,0,0,1-.054.06c-.026.007-.02.014-.006.041a.1.1,0,0,1,.02.067c0,.04.027.027.047,0s.053-.02.08-.034.034-.053,0-.074-.027-.04,0-.067.047.007.074.034.027.007.047-.013.02-.054,0-.047-.02.006-.014-.02.007-.034.041-.061.026-.06.026-.094.014-.04.041-.033h.074c.046,0,.046.02.046.067s.027.047.041.02.013-.02.013-.047a.127.127,0,0,1,.007-.054c.007-.02,0-.033-.027-.02s-.04,0-.04-.027-.007-.02-.02-.06-.02-.04-.02-.067a.071.071,0,0,1,.026-.06c.02-.014.041-.027.027-.04s-.02-.021-.047.006-.04.014-.053-.02a.571.571,0,0,1-.034-.074.143.143,0,0,0-.067-.073c-.034-.014-.027-.027,0-.034a.127.127,0,0,0,.047-.007.069.069,0,0,0,.067-.026c.02-.027.02-.014.047-.02s.027-.021.027-.054,0-.034.033-.047.014-.02,0-.034-.006-.026-.027-.033a.044.044,0,0,1-.033-.034.059.059,0,0,0-.067-.026c-.027.006-.047.013-.047-.007-.007-.04-.074-.027,0-.074.013-.007.007.007.013.02s.02.02.047.014.034.006.061.02.047,0,.06-.027-.013-.047-.034-.06-.013-.034.007-.041.02-.02,0-.02-.08-.067-.087-.08-.034-.027-.081-.027-.026.02-.093.027c-.014,0-.074-.081-.04-.081s.026.007.053,0,.027-.047.027-.06c-.007-.054.033-.074.047-.1a.014.014,0,0,1,.027.006.3.3,0,0,0,.033.087c.02.054.074.02.094.007a.125.125,0,0,1,.04-.02c.02-.007.047-.014.034-.047-.061-.087-.034-.248,0-.181.007.02.027.027.047.04s.02.014.013.061a.608.608,0,0,1,0,.113c-.007.061.054.027.107-.006a.111.111,0,0,0,.061-.094.278.278,0,0,0-.094-.141.028.028,0,0,1-.007-.047s.027-.02.047-.033.013-.034-.007-.041-.02-.04-.04-.06-.013-.033.007-.053.02-.034.04-.047.013-.027,0-.034-.02-.027-.047-.02a.4.4,0,0,0-.08.007c-.047.006-.054.027-.081.067a.11.11,0,0,1-.073.08.832.832,0,0,1-.108.06c-.067.054-.094.061-.107.034-.02-.007-.033.007-.067.067-.02.034-.034.02-.034,0a.176.176,0,0,1,.007-.06c.007-.02.007-.054.034-.061s.033-.033.06-.006c.047.013.054.006.087-.027A.53.53,0,0,1,60.985,36c.041-.013.047-.04.067-.08a.2.2,0,0,1,.054-.088c.034-.027.04-.027.034-.08a.19.19,0,0,1,.1-.107.224.224,0,0,0,.087-.047.412.412,0,0,1,.061-.027.045.045,0,0,0,.033-.054c-.007-.02-.007-.033-.027-.02a.235.235,0,0,1-.067.02c-.04.007-.047-.006-.074-.04s-.047-.02-.06-.007-.013.034-.047.034a1.255,1.255,0,0,1-.127-.04,1.24,1.24,0,0,1-.2-.081.709.709,0,0,1-.134-.154c-.02-.027-.06-.06-.087-.094a.691.691,0,0,0-.228-.1.3.3,0,0,0-.174.067.513.513,0,0,1-.1.08c-.04.02-.047.054-.06.087s-.04.054-.074.054a.307.307,0,0,0-.107.04.131.131,0,0,1-.1-.013c-.02-.014-.02-.014-.026.02s-.007.033-.034.02-.02-.02-.013-.04.006-.047-.014-.067-.013-.067-.006-.121-.094-.067-.134-.067-.067.033-.1.087a.2.2,0,0,1-.107.074.259.259,0,0,1-.094.007s.027-.014.06-.027.054-.04.094-.074.047-.054.081-.087a.168.168,0,0,1,.1-.047.368.368,0,0,1,.127-.007c.061,0,.061.02.1.054s.08,0,.121-.027a.329.329,0,0,0,.073-.054c.027-.02.027-.053.021-.107a.159.159,0,0,1,.026-.114.131.131,0,0,1,.1-.06c.054-.007.067-.027.067-.047s0-.027.027-.054a.154.154,0,0,1,.065-.019.124.124,0,0,0,.047.066.078.078,0,0,0,.08.014.124.124,0,0,0,.047-.007c.061-.013.262-.074.262-.074l-.014-.047s-.194.061-.254.074a.119.119,0,0,1-.041.007c-.02,0-.026-.007-.053-.02s-.021-.023-.029-.046a.223.223,0,0,0,.091-.048.314.314,0,0,0,.053-.06c.007-.014.007-.041.021-.054a.66.66,0,0,0,.073-.054.155.155,0,0,1,.088-.033h.16c.041,0,.114,0,.128-.02a.212.212,0,0,0,.033-.1.368.368,0,0,0-.006-.094c-.007-.013-.054-.08-.067-.1s-.094-.154-.128-.188a1.843,1.843,0,0,0-.167-.134c-.021-.014-.114-.047-.135-.06s-.08-.047-.1-.054a.732.732,0,0,0-.094-.034l0,0,0-.007c.009-.012.024-.018.024-.036a.161.161,0,0,0-.02-.073.372.372,0,0,0-.12-.134c-.034-.027-.074-.054-.1-.074a.167.167,0,0,1-.04-.041c0-.006-.007,0,0-.006.06-.054.1-.107.154-.107.007,0,.013.006.027.006s.033.014.054.027.02.04.053.067a.992.992,0,0,0,.255.087.8.8,0,0,0,.241.054h.054s.007,0,.013-.02-.013-.02-.013-.02h-.047c-.06,0-.054,0-.228-.054a.8.8,0,0,1-.241-.08c-.007,0-.014-.034-.054-.067a.3.3,0,0,0-.067-.034.081.081,0,0,0-.04-.007c-.087,0-.134.074-.181.114a.047.047,0,0,0-.02.04c.006.068.087.1.154.155a.428.428,0,0,1,.107.12.128.128,0,0,1,.02.054l0,0a.128.128,0,0,1-.051-.061.15.15,0,0,0-.061-.088,1.8,1.8,0,0,0-.174-.114.464.464,0,0,0-.181-.04.106.106,0,0,1-.094-.013.178.178,0,0,0-.08-.047c-.04-.014-.014-.04.006-.04s.034-.027.02-.047a1.059,1.059,0,0,0-.08-.121c-.033-.047-.074-.027-.141-.013a.311.311,0,0,1-.141-.007c-.046-.007-.046.013-.046.047s-.02.04-.047.047a.5.5,0,0,0-.074.013c-.04.014-.081.02-.067.007s.047-.054.074-.08a1.215,1.215,0,0,1,.14-.128c.034-.02.094,0,.141,0a.147.147,0,0,1,.061.007c.026.006.04.027.08.033s.034.014.074.034a1.493,1.493,0,0,1,.127.087c.06.04.027.06.027.1s.047.02.08.006.041.02.074.034.047,0,.067-.027.02-.027.04-.027.041-.02.061-.033a.136.136,0,0,1,.08-.02c.04,0,.054.006.087.006a.287.287,0,0,1,.107.047.232.232,0,0,0,.1.034.628.628,0,0,1,.161.067c.047.02.06.02.114.04a.1.1,0,0,0,.107-.034c.014-.02,0-.04-.02-.067s-.013-.047-.013-.08a.119.119,0,0,0-.047-.094.1.1,0,0,1-.041-.074.209.209,0,0,0-.073-.087.971.971,0,0,0-.148-.08.61.61,0,0,0-.194-.034c-.04,0-.04-.033-.047-.053a.038.038,0,0,0-.054-.027c-.02.013-.026.007-.047-.007s-.006-.04.007-.054l.007-.06a.322.322,0,0,1-.007-.121c0-.053-.04-.053-.06-.06s-.04-.02-.081-.033-.087-.027-.14-.041a.674.674,0,0,0-.141-.02c-.034,0-.034.007-.047-.02s-.007-.02-.034-.04a.168.168,0,0,0-.093-.027c-.034,0-.014-.02-.021-.04s0-.034.021-.027.013-.027,0-.047a.151.151,0,0,1-.014-.06.045.045,0,0,0-.033-.047c-.021-.007-.021-.02-.021-.047s0-.04.027-.047.041-.02.041-.054a.111.111,0,0,0-.034-.08.124.124,0,0,1-.027-.067c0-.027.007-.04-.013-.06s-.034-.021-.067-.021-.047-.013-.047-.04.013-.02.006-.033a.948.948,0,0,1-.06-.081c-.02-.02-.007-.04,0-.06a.12.12,0,0,0-.027-.087.044.044,0,0,0-.053-.02c-.027.006-.034-.014-.047-.047a1.3,1.3,0,0,0-.034-.141c-.013-.04-.02-.081-.033-.121a.205.205,0,0,0-.087-.107c-.027-.013-.014-.04,0-.067s-.014-.054-.041-.074a.1.1,0,0,1-.02-.074c0-.02-.013-.026-.033-.013s-.007-.013,0-.047-.014-.047-.041-.087a.105.105,0,0,1-.026-.06.153.153,0,0,0-.034-.074.241.241,0,0,1-.047-.06c-.02-.034-.02-.054-.04-.074s-.02-.061-.033-.1a.494.494,0,0,0-.041-.14A.23.23,0,0,0,58.6,29.8a.444.444,0,0,0-.08-.027.17.17,0,0,1-.1-.04c-.033-.02-.04-.034-.08-.034a.156.156,0,0,1-.088-.026.119.119,0,0,0-.067-.007c-.02.013-.033.007-.04-.007s-.027-.02-.027-.02c-.013-.02-.047-.027-.093-.013s-.054.027-.074.053-.02.027-.061.027-.02-.033.007-.04.081-.047.081-.067-.014-.034-.047-.054-.081-.047-.114-.06a.043.043,0,0,1-.027-.06c.006-.021,0-.041-.034-.041a.124.124,0,0,1-.08-.033c-.027-.02-.047-.027-.067,0s-.02.033-.047.02a.6.6,0,0,1-.094-.074.1.1,0,0,1-.013-.114.142.142,0,0,0,0-.071l.029-.047,0,0A.145.145,0,0,1,57.611,29v-.047c-.039,0-.062.031-.094.048l.008-.014c.013-.02.026-.02.06-.033a.128.128,0,0,0,.067-.06.247.247,0,0,0,.007-.1.209.209,0,0,1,.02-.094.185.185,0,0,1,.067-.08c.047-.041.047-.061.04-.081s.047,0,.074,0,.007-.047.013-.08.027-.067.034-.1-.02-.06-.034-.087.027-.04.047-.054a.184.184,0,0,0,.054-.046c.013-.02.04-.027.033.02s.047.006.067-.014a.059.059,0,0,1,.047-.026c.047-.014.067-.047.04-.068s-.02-.033,0-.053-.04-.034-.026-.061.04-.013.067.014.067.007.053-.014a.119.119,0,0,1,.007-.067c.007-.02.034-.053-.007-.087s0-.047.034-.053.06-.041.1-.067-.006.02,0,.04.014.04.034-.02.08-.087.074-.108c-.007-.047-.067.007-.1.021s-.047-.034,0-.068.027-.046-.047-.04a.071.071,0,0,1-.087-.08.475.475,0,0,0,0-.1c-.007-.04.04-.006.074-.026s.04-.014.04.006.02.067.074.04.006-.06.006-.1.061-.04.047-.02,0,.033.034.067-.02.08-.054.161.04.06.134.04.094-.121.2-.107.107-.014.114-.02a.2.2,0,0,0-.054-.114c-.04-.047-.027-.1.02-.114s.007-.061-.02-.1.007-.067.007-.094a.051.051,0,0,1,.047-.053c.027,0,.073.006.073.053s.021.054.061.081.027-.041,0-.074-.027-.06.013-.054.04,0,.034-.02a.07.07,0,0,1,0-.074c.02-.04.006-.033-.027-.02s-.047.027-.06-.027-.041-.04-.088.014-.047,0-.026-.061.06-.053.114-.053.08.013.053.047.007.06.074.033-.02-.033,0-.073.027-.02.04.006.034.027.04,0,.041-.026.041-.087.053-.053.033-.02.04.02.067,0a.128.128,0,0,1,.087-.033.056.056,0,0,0,.061-.047c.006-.027.033-.027.06-.054s-.007-.04-.027-.094.034-.053.047-.013.034.033.047.013a.084.084,0,0,1,.054-.04c.026-.007.047,0,.02.027s-.087.067-.108.087.021.033.047.007.054.006.067.02.014.033.047.02.007-.014-.013-.054.013-.06.067-.08.047-.047.047-.081.047-.067.06-.06a.143.143,0,0,0,.094-.02c.047-.027.014-.034-.02-.027s-.013-.04,0-.067.047.02.081.007.053.02.033.053.013.054.067.047.047-.053.047-.1.033-.121.067-.121-.007.033-.02.074a.069.069,0,0,0,.047.1c.053.014.02.02-.014.034s-.02.054,0,.067.081,0,.114.007.067-.02.061-.047-.007-.027.027-.02a.2.2,0,0,0,.093-.021c.02-.006.081-.033.041-.073s0-.074.026-.108.007-.053-.006-.033-.034.013-.094.027-.034.053-.047.053.007-.027-.027-.04.007-.027.04-.053,0-.068-.006-.108.033-.053.033-.027.013.027.02,0,.034-.013.047-.006.04.006.027-.027,0-.047.02-.054.02-.027,0-.04-.02-.034-.047-.054-.013-.06,0-.053.027-.02.027-.041a.08.08,0,0,1,.074-.053c.033,0,.027-.047,0-.074s-.114.027-.175.067-.06-.013-.14.007a.116.116,0,0,1-.141-.054c-.02-.033-.027-.02-.054,0s-.047.041-.067-.006c-.04-.074.007-.047.04-.054s.02-.034-.02-.04-.053-.054-.1-.047-.007.053-.047.08-.047.047-.027.081,0,.067-.027.053-.027-.013-.013-.033-.02-.027-.04-.014a.078.078,0,0,1-.068.014c-.026,0-.06,0-.06.027s-.006.033-.033.02-.041-.027-.067-.027-.067-.013-.094.033-.047-.006-.114-.026-.02-.054-.074-.088-.013-.053.02-.053,0-.047-.06-.061-.081-.006-.04.041-.054.04-.054.067-.027-.014-.06-.014-.034,0-.061-.026-.073-.041-.04-.1-.047-.047-.1-.02-.021-.074-.094-.074-.041-.02-.041-.06-.093.007-.127.007a.244.244,0,0,0-.141.033.5.5,0,0,1-.154.1c-.027,0-.08,0-.094.026s-.027.054-.107.061-.087.006-.08.033.033.007.093.034,0,.107-.04.14a1.047,1.047,0,0,0-.114.108.186.186,0,0,1-.127.1c-.081.014-.134.047-.141.074s.054.074.074.114-.114.114-.107.168-.074.067-.182.053a.4.4,0,0,0-.247.047c-.041.027-.115,0-.141.014s-.054.006-.074-.034a.117.117,0,0,0-.094-.054c-.04,0-.074.014-.08-.013s.033,0,.033-.033S57,26,56.941,26s-.047-.026-.04-.046.02-.041-.02-.074-.013-.04.02-.054.04-.08,0-.134a.2.2,0,0,1,.013-.181c.027-.047.094-.06.094-.094s.047-.033.061-.033.047-.04,0-.074A.3.3,0,0,1,57,25.211c-.02-.033-.034-.08-.074-.1s-.053-.054-.08-.121c-.02-.047-.041-.121-.094-.06s-.06.093-.06-.034-.114-.087-.135.013c-.013.068-.046.081-.114.121s-.026-.007-.046-.053-.081-.054-.128,0a.132.132,0,0,1-.188-.014c-.046-.054-.033.04-.04.081a.14.14,0,0,1-.073.134c-.067.047-.047.087-.088.14s-.04.007-.026-.006.02-.034.013-.054a.053.053,0,0,1,.027-.053c.013-.014.04-.034.033-.054s-.094,0-.094-.02.027-.007.054-.014.074-.033.02-.094-.067-.046-.141-.046-.04-.027,0-.041.041-.013.034-.047-.007-.006-.081-.046-.073-.038-.11-.015a.122.122,0,0,0,.023-.019c.013-.02-.014-.06-.034-.08a.752.752,0,0,0-.094-.114l-.033-.074a.418.418,0,0,1-.04-.054.231.231,0,0,0-.067-.073c-.027-.014-.021-.04-.014-.06a.394.394,0,0,0,.014-.094.818.818,0,0,1,.01-.1c0-.012,0-.013,0-.027s.008-.018.011-.028a.891.891,0,0,1,.069-.112.594.594,0,0,0,.061-.128.335.335,0,0,0-.012-.112c0-.006,0-.012,0-.017a.067.067,0,0,1,.025-.059c0-.006,0-.017.01-.022s.032-.032.058-.065a.264.264,0,0,1,.107-.04s.1-.02.121-.027a.078.078,0,0,1,.067.014c.02.006.054.087.074.114a.4.4,0,0,0,.067.08c.013.02.054.013.067.013a.413.413,0,0,0,.094-.06,1.15,1.15,0,0,0,.087-.094c.013-.027.04-.033.067-.047a.068.068,0,0,1,.067.014c.013,0,.04.006.054.006a.443.443,0,0,0,.08-.02c.02-.006.04-.033.047-.04s.027,0,.047-.007a.256.256,0,0,0,.06-.033c.027-.02.007.02-.006.04a.512.512,0,0,1-.054.06c-.007.007-.007.021.02.007a.7.7,0,0,0,.114-.087.442.442,0,0,0,.06-.127.6.6,0,0,1,.054-.114c.027-.041.06-.081.074-.1a.062.062,0,0,0,0-.06.083.083,0,0,1-.007-.041c0-.02.027-.073.027-.1s-.034-.02-.054-.027.02-.033.034-.033.02-.007.04-.02.013-.061.013-.094a.324.324,0,0,1,.061-.121.21.21,0,0,1,.087-.04.112.112,0,0,0,.047-.02c.013-.014-.014-.041-.02-.074s.047-.067.073-.074.155-.067.175-.08l0-.005.025.037v-.013c0-.008-.016-.021-.021-.032a.026.026,0,0,0,.01-.02.254.254,0,0,0,.032-.021.247.247,0,0,0,.04-.06.084.084,0,0,1,.054-.061.253.253,0,0,0,.1-.04c.014-.013.141-.134.148-.134a.322.322,0,0,1,.107-.047c.04-.007.114-.04.114-.074s0-.08.02-.1.047-.054.054-.06.026-.021.013-.027-.067.006-.054-.02a.537.537,0,0,0,.041-.061.263.263,0,0,1,.04-.074c.02-.02.073-.1.094-.127a.579.579,0,0,0,.053-.087.267.267,0,0,1,.054-.074c.027-.02.074-.033.087-.047s.02-.027,0-.033-.094-.041-.087-.054.027-.02.067-.047.047-.04.067-.053a.261.261,0,0,1,.047-.047.263.263,0,0,0,.06-.061c.007-.013.02-.033.027-.047s.014-.026.027-.006a.049.049,0,0,0,.047.02c.013,0,.027.007.033-.02s-.006-.061.02-.034.068.061.1.061a.408.408,0,0,0,.087,0c.014-.007.02-.021.047-.014s.054.014.06-.007.014-.033.027-.013.014.054.027.04.02-.027.04-.04.061-.04.047-.067-.033-.04-.033-.074.013-.067.033-.053.061.073.061.046-.014-.08,0-.073a.288.288,0,0,1,.06.067.349.349,0,0,1,.08.161c.007.073-.006.073.014.114a.33.33,0,0,0,.107.093c.027.007.033.014.047.007a.02.02,0,0,1,.033.014.1.1,0,0,0,.021.087.3.3,0,0,0,.087.094.108.108,0,0,1,.04.107.562.562,0,0,1-.067.127c-.027.04-.074.087-.06.114a.136.136,0,0,1,0,.087c-.007.027-.027.034-.041.047s-.047.02-.04.047,0,.054-.013.061-.02.006-.041.046a.476.476,0,0,1-.04.068s-.04.006-.04.04.02.04.007.06-.061.074-.074.074-.027,0-.047.013a.155.155,0,0,1-.067.047c-.027.014-.114.06-.127.114a.155.155,0,0,0,.02.134c.027.04.074.074.06.107,0,.007-.027-.02-.054-.013a.384.384,0,0,0-.1.06c-.027.014-.047.014-.067.027a.207.207,0,0,0-.054.1c0,.007.007.02.034.02s.033-.02.074-.027a.158.158,0,0,1,.093.007c.014,0,.02.007.007.02s-.007.02,0,.04-.087-.027-.107-.007-.074.047-.074.067a.1.1,0,0,0,.027.061c.007.006.033-.067.04-.074s.034-.013.034,0a.2.2,0,0,1-.02.06c.006.014.033.02.06.014a.359.359,0,0,1,.08-.027c.02,0,.034.027.041.027a.155.155,0,0,0,.093,0,.124.124,0,0,0,.074-.041c.007-.013.007-.053.034-.033s.02.013.067.007.107-.047.134-.047.033.02.006.033-.06.047-.08.047-.094-.007-.1.027,0,.067-.02.087a.065.065,0,0,1-.06.027c-.033,0-.08,0-.054.027a.32.32,0,0,0,.041.027s.026,0,0,.02-.061.04-.047.06.02.014.047.014.06.013.04.046-.027.088-.067.121a.174.174,0,0,1-.114.054c-.02,0-.014,0-.027-.007s-.034-.034-.06-.02-.054.027-.041.054.02.047.007.067a.16.16,0,0,1-.087.047.185.185,0,0,1-.06.006c-.027,0-.081,0-.074.034s.007.033.027.04.033.007.027.027-.021.033-.007.053a.114.114,0,0,1,.013.061c0,.013-.006.053.014.067s.067.02.067-.02.006-.074.047-.074a.1.1,0,0,0,.067-.02.148.148,0,0,1,.087-.04c.04,0,.094.006.114-.027s.013-.06.067-.06.134,0,.12-.041a.068.068,0,0,0-.053-.053c-.02-.007-.114-.02-.087-.054a.1.1,0,0,1,.073-.04c.02,0,.054.006.061-.02s0-.054.027-.034.046.067.093.094.081.02.068-.013-.007-.034-.021-.054.007-.06.027-.06.007-.007.034-.027a.892.892,0,0,0,.087-.061c.006-.006.033-.006.033-.026l.007-.027-.027-.04c-.013-.02.04-.067.054-.081s.053-.007.067-.04-.027-.081-.007-.1.148-.154.2-.147a.075.075,0,0,0,.087-.04c.014-.02.007-.054.021-.067s.046.033.053.006.04-.04.047-.06.02-.027.04-.047a.659.659,0,0,1,.067-.04c.021-.014.061-.054.088-.074a.768.768,0,0,0,.08-.067c.08-.054.161-.007.188-.007a.058.058,0,0,0,.06-.026.169.169,0,0,0,.014-.074c-.021-.04-.034-.034.006-.074.074-.074.2.047.215.034s.053-.007.073-.041.047-.067.061-.093.033-.094.067-.088.013.007.033.014.041.04.074.047.054-.027.1-.087c.013-.021.033-.041.047-.027s.053.08.08.073a.083.083,0,0,0,.054-.006.485.485,0,0,0,.1-.114.517.517,0,0,0,.02-.081c.007-.02,0-.02.027-.04s.074-.087.081-.094a.085.085,0,0,0,.006-.06.083.083,0,0,1,.014-.067.235.235,0,0,1,.08-.094c.047-.027.081-.1.094-.114a.477.477,0,0,0,.067-.054c.013-.02.027-.026.034-.053s.02-.087.047-.1a.514.514,0,0,1,.147-.087c.047-.007.054-.033.087-.033s.081.033.087-.027a.135.135,0,0,1,.081-.121c.06-.04.12-.067.181-.1a.474.474,0,0,0,.154-.113c.033-.047.1-.108.107-.155l0-.01a.371.371,0,0,0,.213.043c.128-.033.2-.369.342-.5A2.082,2.082,0,0,0,64,19.506c.033-.081.113-.081.227-.034s.4.2.564.114.61-.067.663-.208a2.492,2.492,0,0,0,.081-.5c.013-.161-.034-.368.288-.388s.369-.228.436-.309.114-.308.275-.422.12-.59.274-.49.3.027.4.1.235.081.248.007.034-.114-.033-.161-.128-.188-.074-.221a.407.407,0,0,1,.194-.121.452.452,0,0,0,.275-.355c0-.128.014-.3.014-.416a2.189,2.189,0,0,0-.014-.235l-.044.019c0-.009,0-.017,0-.025a5.712,5.712,0,0,1-.114-.637,4.754,4.754,0,0,0-.215-.677c-.02-.094-.114-.329-.013-.443a3.118,3.118,0,0,0,.295-.348c.06-.094.013-.108.214-.094a7.253,7.253,0,0,0,.731.02.475.475,0,0,0,.362-.221c.02-.094-.04-.168-.02-.409s.094-.235.127-.369a1.532,1.532,0,0,1,.087-.456,1.247,1.247,0,0,0,.108-.482,3.083,3.083,0,0,1-.034-.483,3.846,3.846,0,0,0,.02-.476c0-.127-.02-.328.04-.4a2.015,2.015,0,0,0,.255-.476,1.968,1.968,0,0,0-.134-.456C69.43,9.289,69.4,9.209,69.464,9.115Zm-22.679,32.8c-.006-.005-.007,0-.013-.007a.226.226,0,0,1,.115.052l-.005,0A.408.408,0,0,0,46.785,41.911Zm-7.46-.953c-.034.02-.161.093-.155-.007s-.033-.107-.094-.107a1.3,1.3,0,0,0-.2.073.467.467,0,0,0-.221.148.685.685,0,0,0-.087.127c-.013-.031-.011-.082-.055-.077.039,0,.028.029.041,0a1.041,1.041,0,0,1,.087-.128.433.433,0,0,1,.221-.147,1.6,1.6,0,0,1,.2-.074c.061-.006.107.007.094.107s.121.027.154.007.188-.08.235-.1a.092.092,0,0,0,.06-.094.212.212,0,0,1,.06-.134c.025.018.049.034.015.072a.184.184,0,0,0-.06.134.093.093,0,0,1-.061.094C39.512,40.877,39.358,40.938,39.325,40.958Zm4.893,1.622a.224.224,0,0,0-.028-.047c.008,0,.017,0,.024.019l0,.008v0a.171.171,0,0,1,.013.023h0C44.232,42.6,44.229,42.6,44.218,42.58Zm-3.908-4.1c-.008.022-.019.046-.027.069-.029-.04,0-.094.013-.141s.107-.081.161-.1.08.007.127.02.047-.006.107-.02.067-.046.094-.093c.01.027.024.055.014.072-.026.047-.033.08-.093.094s-.054.033-.108.02-.067-.04-.127-.02S40.323,38.424,40.31,38.477ZM35.6,38.015v0c0,.005.007,0,.01,0h0S35.609,38.02,35.6,38.015Zm-14.8-12.5c.006.012.024.017.039.022l-.009,0c-.01-.006-.025-.008-.031-.018a.106.106,0,0,0-.086-.061h0l-.007,0a.124.124,0,0,1-.046-.017h-.017c.006,0,.012,0,.017,0C20.72,25.472,20.76,25.438,20.8,25.512ZM40.773,37.887c-.014.034-.041.067-.054.094l-.018.033,0-.005c-.034-.047-.007-.074.007-.1s.04-.061.053-.094.047.007.094.04.094.013.148.02a.444.444,0,0,0,.147-.033.357.357,0,0,1,.148-.007c.053.007.06.02.093.074l0,.008a.1.1,0,0,0-.1-.056h-.013v.047h.009a.586.586,0,0,0-.122.006.481.481,0,0,1-.147.034c-.06-.007-.107.02-.147-.021S40.786,37.854,40.773,37.887ZM24.68,25.16a.3.3,0,0,1-.149-.047l0,0c.067.06.241.053.348.06a3.249,3.249,0,0,0,.522,0c.114-.013.309.067.322.148l.006.02h0l0-.017c-.013-.081-.208-.161-.322-.148a3.511,3.511,0,0,1-.523,0l-.146-.008Zm-.239-.141,0,0c.024.012.044.043.084.084l-.017-.021A.25.25,0,0,0,24.441,25.019Zm-.048-.007.008,0h0ZM42.125,42.743h0c.041-.034.074.04.074.04s.034.02.074.04.114.014.14.041.041.067.074.093a.774.774,0,0,0,.188.108.589.589,0,0,1,.127.067.191.191,0,0,0,.085.029.2.2,0,0,1-.1-.03.589.589,0,0,0-.127-.067.8.8,0,0,1-.188-.107c-.033-.034-.047-.074-.074-.094s-.094-.02-.14-.041a.4.4,0,0,1-.074-.04S42.159,42.733,42.125,42.743Zm-.045-4.066h0Zm-.819-.373.013,0-.013,0c-.01,0-.016-.005-.021-.025Zm.116.514c-.015-.013-.026-.022-.038-.034Zm-.1-.454a.076.076,0,0,0,.02.02.115.115,0,0,0-.026-.007l-.011-.013Zm.2.53a.16.16,0,0,0,.023.01s-.01,0-.014,0Zm.165.043-.016,0s-.009,0-.014,0Zm.073.07a.993.993,0,0,1-.134,0,.189.189,0,0,1-.066-.031.307.307,0,0,0,.111.031.416.416,0,0,0,.159-.038l-.016.014C41.752,38.989,41.744,39.007,41.718,39.007ZM41.3,43.07a.13.13,0,0,1,.074.014c.04.013.053.054.107.094a.084.084,0,0,0,.066.012.079.079,0,0,1-.079-.013c-.054-.04-.067-.074-.107-.094a.271.271,0,0,0-.074-.013l0,0v0Zm2.326-4.88-.005,0h0l.013.005Zm4.647-1.456c-.034.024-.072.045-.1.029l-.007-.006ZM40.115,26.471c-.029.017-.089.036-.108.062L40,26.525v0a.071.071,0,0,1,.027-.024.161.161,0,0,1,.034-.013c.007,0,.005-.008.012-.011a.253.253,0,0,0,.036-.016l0-.015,0,0C40.109,26.448,40.12,26.468,40.115,26.471Zm-2.233,13.7,0,0Zm1.943-11.506c-.027,0-.077-.011-.106-.011h0c.034,0,.075,0,.1,0a.066.066,0,0,0,.028-.01l0,.015A.047.047,0,0,1,39.825,28.661Zm-.139.386a.4.4,0,0,1-.128.108.564.564,0,0,0,.157-.172.2.2,0,0,1-.016.045Zm.045-.111-.005.013a.192.192,0,0,0,0-.057c0,.008.006.018.007.024S39.731,28.93,39.731,28.936Zm.417-.414h-.005l0,0Zm-.016,0a.1.1,0,0,1-.025,0,.344.344,0,0,0-.078-.015C40.067,28.506,40.1,28.514,40.132,28.52Zm.052-.351-.016,0v0c.007-.027.074-.027.114-.033a.126.126,0,0,1,.073.018v0h0l.026.014v-.027l.006,0v.044a.192.192,0,0,0-.1-.034C40.253,28.146,40.2,28.149,40.184,28.169Zm.032-.709,0,0h0Zm-9.3-4.78.006.023v.047a1.2,1.2,0,0,1-.011.122C30.9,22.82,30.915,22.752,30.911,22.68Zm.608.444.012.005c-.023.024-.057.051-.052.083C31.46,23.177,31.493,23.149,31.519,23.124Zm.027-.022-.01-.007v0l.01.006ZM30.9,22.6l0-.009.005.011Zm-3.053.645,0-.011a.226.226,0,0,1,.106-.044.09.09,0,0,1,.044.007.21.21,0,0,0-.048.02A.494.494,0,0,1,27.846,23.241Zm.311,1.908c-.01,0-.02,0-.03.007.005,0,.009,0,.014-.006ZM28.574,25a.058.058,0,0,1-.056.018c-.009,0-.018.005-.027.005A.23.23,0,0,0,28.574,25Zm-.569,1.208c-.01,0-.018.007-.028.006s-.01-.007-.015-.009A.422.422,0,0,0,28.005,26.206Zm-.219-.138c.036.032.077.072.115.1-.01-.01-.027-.008-.035-.02s-.009,0-.012-.008-.021-.009-.027-.019-.017-.007-.022-.014a.266.266,0,0,0-.093-.059.352.352,0,0,0-.051-.019A.2.2,0,0,1,27.786,26.068Zm-.254-.046a.465.465,0,0,1-.157-.062l-.032-.02a.852.852,0,0,1-.083-.059c-.007-.007-.019-.014-.024-.02s-.019-.009-.028-.018l0,0a.152.152,0,0,0-.08-.051c.011-.01.024-.014.045,0,.074.053.188.14.235.174a.353.353,0,0,0,.162.056Zm-.8-.067h0l-.044-.019a.524.524,0,0,0-.041-.038c.009.008.024.015.031.023a.214.214,0,0,0,.066.039Zm-.25-.18c-.16-.087-.127-.2-.207-.154s-.114-.047-.2-.094-.095-.146-.177-.085l-.017.007a.072.072,0,0,1-.094,0l-.01-.008a.074.074,0,0,0,.111,0c.094-.08.094.034.188.081s.12.133.2.093.047.067.208.154c.008,0,.014.013.023.018Zm-.718-.341,0-.006.007.012,0,0ZM35.71,37.565c-.007.005-.008.018-.012.026S35.7,37.568,35.71,37.565Zm7.252,5.593h.009c.054-.007.074.033.114.053a.144.144,0,0,0,.049.011l0,0a.091.091,0,0,1-.06-.014C43.033,43.2,43.006,43.161,42.962,43.158Zm.672-4.969,0-.007.012,0,.009.007Zm7.644-1.249-.007,0c-.005,0-.008-.006-.013-.007Zm3.319-.586,0,0a.167.167,0,0,1-.117.035ZM57.3,37.415l0,.011c-.019-.015-.036-.033-.053-.048s-.08-.06-.136-.1C57.187,37.327,57.255,37.376,57.3,37.415ZM26.882,26a.237.237,0,0,1-.031-.008l.034.007Zm-2.723-.912c.073-.034.143-.043.2-.067a.4.4,0,0,1-.085.031l-.033.011a.7.7,0,0,0-.09.027.359.359,0,0,1-.3-.054c-.047-.04-.073.013-.409.013a1.042,1.042,0,0,0-.206.015h-.006a1.047,1.047,0,0,1,.213-.017c.335,0,.362-.053.409-.013A.353.353,0,0,0,24.159,25.09Zm-1.008.007a.214.214,0,0,1,.073-.027A.248.248,0,0,0,23.151,25.1Zm-1.157.243a.322.322,0,0,0-.139-.026h0a.318.318,0,0,1,.144.025.164.164,0,0,0,.045.011A.143.143,0,0,1,22,25.34Zm-.725.045h0Zm1.073.2c-.006-.114-.107-.06-.167-.161a.109.109,0,0,0-.091-.066l-.008,0a.109.109,0,0,1,.1.066c.06.1.161.047.168.161,0,.016.007.012.011.015h0S22.343,25.6,22.342,25.581Zm.229-.1c.009,0,.016-.007.026,0a.493.493,0,0,0,.149.007.261.261,0,0,1-.027.006.491.491,0,0,1-.122-.012c-.008,0-.014,0-.021,0Zm.282-.022h-.005l.014-.008,0,0Zm-1.978.085h0Zm-.671-.139c-.088-.056-.192-.171-.276-.161l0,0c.085-.015.191.1.28.161a.36.36,0,0,0,.217.053h0A.364.364,0,0,1,20.2,25.407Zm-.845-.711a.248.248,0,0,0-.165-.054h0a.242.242,0,0,1,.167.053c.128.075.151.1.214.088l-.007,0C19.509,24.793,19.481,24.768,19.359,24.7Zm-.589.131h0a.627.627,0,0,1,.107-.015l-.05.007Zm-.819-.057a.242.242,0,0,1-.12-.052l0,0a.247.247,0,0,0,.124.053.1.1,0,0,1,.066.041h0A.1.1,0,0,0,17.951,24.77ZM16.34,25l-.009.006a.128.128,0,0,1,.047-.031l0,0-.006,0A.137.137,0,0,0,16.34,25Zm-.419.435-.048-.007a.557.557,0,0,0,.1.011h-.012C15.954,25.439,15.935,25.435,15.921,25.434Zm-.678-.128a.293.293,0,0,0-.041.007c0-.007.01-.009.007-.019l.034.01s.154.02.342.061l.136.032-.136-.032c-.017,0-.042-.007-.063-.011C15.385,25.326,15.3,25.312,15.243,25.306Zm1.467-.615a.257.257,0,0,1,.068-.037.175.175,0,0,0,.086-.036v0a.185.185,0,0,1-.087.036.219.219,0,0,0-.033.018A.281.281,0,0,0,16.71,24.691Zm.839-.015c-.08-.027-.208-.047-.241-.107s-.074-.087-.208-.168a.126.126,0,0,0-.179.044h0A.127.127,0,0,1,17.1,24.4c.134.081.174.114.208.168s.161.08.241.107a.059.059,0,0,0,.047,0l0,0A.054.054,0,0,1,17.549,24.676Zm.181-.054c-.033-.037-.068,0-.106.032h0l-.009,0c.043-.029.08-.08.116-.039a.582.582,0,0,0,.066.065.65.65,0,0,1-.053-.051h0Zm.914.333-.01.006a.276.276,0,0,1-.049.027.317.317,0,0,0,.061-.036Zm-.089.05a.305.305,0,0,1-.06.009l-.034,0-.035,0A.4.4,0,0,0,18.56,25Zm-.442-.065a.125.125,0,0,0,.033.029l.012,0-.012,0C18.139,24.969,18.127,24.958,18.113,24.94Zm.159.057h0Zm.43-.127,0,.008h0l.005-.011c0-.014.026-.02.045-.028-.006,0-.007.008-.013.01S18.7,24.86,18.7,24.87Zm1.054.22,0-.008c.032.087.085.163.14.158h0C19.838,25.241,19.788,25.172,19.756,25.09Zm-.023-.076a.333.333,0,0,1-.012-.056.446.446,0,0,0-.013-.069l0-.012a.529.529,0,0,1,.015.079.454.454,0,0,0,.013.064ZM19.7,24.84a.07.07,0,0,0-.054-.042l0,0a.071.071,0,0,1,.06.047Zm3.235.574a.371.371,0,0,0,.027-.029l.008-.01a.257.257,0,0,1-.038.042ZM35.812,37.531a.093.093,0,0,0,.049-.053.226.226,0,0,1-.011.026l-.009.01A.069.069,0,0,1,35.812,37.531Zm1.11,1.109-.01-.006a.057.057,0,0,0,.029,0l0,.008,0,0Zm.129-.071c.009,0,.01,0,.016.008h-.006S37.056,38.571,37.051,38.569ZM44.08,42.62h0a.254.254,0,0,1-.047-.007A.429.429,0,0,0,44.08,42.62Zm.359-.461a.111.111,0,0,1,.1.011h0a.141.141,0,0,0-.106-.012Zm.12.019c.006.005,0,.009.008.015s-.011-.016-.019-.02Zm.115.2.02.013.006.006V42.4a.322.322,0,0,1-.047-.034A.1.1,0,0,0,44.674,42.374Zm.113.213v.007a.51.51,0,0,1-.033-.053c.026.013.033.02.033.04Zm.308.061h.014a.031.031,0,0,1-.032,0A.04.04,0,0,1,45.1,42.648Zm.085.12,0,.014H45.17l0-.013S45.174,42.774,45.18,42.768ZM18.73,33.827c.009.069.018.134.03.193h0c-.034,0-.04-.02-.054-.053A.267.267,0,0,1,18.73,33.827Zm2.9,2.319a.056.056,0,0,1-.018-.024Zm12.517,1.722-.007.025-.045-.005a.1.1,0,0,1-.05-.042Zm2.59.792a.075.075,0,0,1,.1-.051h0c-.032-.006-.064,0-.086.055a.088.088,0,0,1-.089.053A.107.107,0,0,0,36.736,38.66Zm1.517,2.5h.007a.459.459,0,0,0,.163-.018A.424.424,0,0,1,38.253,41.155Zm1.38-.685-.008-.007a.572.572,0,0,1,0-.213.112.112,0,0,1,.015.064A1.42,1.42,0,0,0,39.633,40.47Zm.221-1.014c-.047.033-.06.047-.094.033s-.093-.067-.1-.006-.074.134-.067.2a.5.5,0,0,1-.02.174c-.006.047-.024.135-.025.194-.005-.016-.012-.026-.017-.045a1.375,1.375,0,0,1,.027-.221,1.21,1.21,0,0,0,.02-.174c-.006-.068.061-.148.068-.2s.073-.006.1.007.04,0,.094-.033a.674.674,0,0,0,.114-.148.09.09,0,0,1,.06-.074c.047-.013.114-.127.148-.16a2.393,2.393,0,0,0,.187-.255c.011-.018,0-.034,0-.052a.113.113,0,0,1,.011.124c-.041.067-.161.221-.188.255s-.094.147-.147.161-.061.073-.061.073A.5.5,0,0,1,39.854,39.456Zm3.509,3.411c.029,0,.061.006.085.008h0C43.426,42.875,43.393,42.869,43.363,42.867Zm1.467-.221.006,0c.008.009.011.009.014.009S44.837,42.652,44.83,42.646Zm.185-.111Zm1.293-.389h0c.057-.025.06.022.083.062l-.011,0h0C46.36,42.169,46.349,42.137,46.308,42.146Zm.29-.081v0a.139.139,0,0,1,.052-.012A.35.35,0,0,0,46.6,42.065ZM58.791,38.82l0,0h0c0,.008-.005.017-.008.026ZM46.139,42.484l0,0,0,0Zm.458-.218h0c.02,0,.041.005.061.006h0A.449.449,0,0,1,46.6,42.266Zm.3-.3.006,0a.267.267,0,0,0,.041.028s-.007,0-.012,0A.193.193,0,0,1,46.892,41.967Zm.061.025a.071.071,0,0,0,.025,0C46.971,42,46.961,41.992,46.953,41.992Zm9.439,2.285c.013-.018.02-.013.026-.007a.156.156,0,0,1,.015.043A.225.225,0,0,1,56.392,44.277Zm2.171-5.142h0a.476.476,0,0,0,.068-.084v0h0A.3.3,0,0,1,58.563,39.135Zm.174-.117,0-.011L58.75,39C58.747,39.007,58.743,39.016,58.737,39.018ZM55.553,24.87a.365.365,0,0,1,.041-.034v.027l0,.012H55.58l0,.019c-.008.007-.006.013-.025.016C55.513,24.917,55.539,24.883,55.553,24.87Z"/><path class="cls-1" d="M49.171,49.742a.329.329,0,0,0-.02-.141c-.02-.047-.006-.047-.026-.087l-.034-.067c-.013-.04-.027-.054-.067-.047a.154.154,0,0,1-.107-.02.333.333,0,0,0-.087-.054.122.122,0,0,1-.054-.094c-.007-.04-.027-.026-.027,0a.049.049,0,0,1-.054.054c-.047,0-.093,0-.087.054s.014.067,0,.093-.02.027-.04,0a.09.09,0,0,0-.067-.06.431.431,0,0,1-.094-.053c-.033-.021-.08-.041-.107,0a.086.086,0,0,1-.1.033c-.047-.007-.093-.013-.12.014s-.094.053-.034.053c.04,0,.034.034-.013.027s-.074-.02-.108,0-.033.027-.033.06-.007.047-.027.027-.013-.02-.027-.02,0-.007-.006-.027-.021-.054-.054-.054-.054.014-.074.054-.053.074-.04.014.034-.094.013-.094-.013.006-.026.047-.027.053-.041.026-.02-.026-.04-.02-.027,0-.047-.02a.083.083,0,0,0-.1-.027.282.282,0,0,0-.1.054.111.111,0,0,0-.047.1c.014.026.034.053,0,.053a.1.1,0,0,0-.047.007c-.02.007-.04.007-.047-.02a.069.069,0,0,0-.08-.034c-.04.007-.06.014-.08-.006s-.041-.034-.081,0a.444.444,0,0,1-.114.08c-.047.02-.04.054-.02.087s.054.034.094,0a.174.174,0,0,1,.04-.027c.02-.013.047-.006.033.014-.033.02-.04.047-.033.053s0,.034-.033.02-.041.007-.067.041a.338.338,0,0,1-.115.073.889.889,0,0,0-.1.054.464.464,0,0,0-.1.074c-.033.04-.053.067-.093.074s-.074.053-.094.073-.047.061-.094.061a.087.087,0,0,0-.094.06.1.1,0,0,0,0,.1c.02.02.04.04,0,.073a.137.137,0,0,0-.04.128.131.131,0,0,0,.027.087c.02.033.006.067.006.107a.121.121,0,0,1-.02.087.076.076,0,0,0,.034.1c.04.027.04.08.04.127s.013.054-.007.1a.124.124,0,0,0,.007.127c.027.04.027.034.067.034s.094,0,.114.026a.123.123,0,0,0,.087.054.089.089,0,0,1,.087.047.064.064,0,0,0,.087.034c.047-.007.108-.014.128.04s.047.08.1.053a.143.143,0,0,1,.128-.006.507.507,0,0,0,.127.02c.04.007.107.02.087.06s0,.06.034.027.067-.027.06,0,.04.027.02.054.007.026.027.013a.043.043,0,0,0,.02-.06c-.013-.027-.007-.027.014-.034s.026,0,.046-.013.034.013.041.04.02.027.033,0,.027-.054-.007-.06-.033-.027,0-.027.034-.007.041-.04.013-.047.033-.088.047-.073.067-.047.047.027.087,0a.409.409,0,0,1,.128-.06c.047-.013.073,0,.04.02s-.06.054-.007.067.054,0,.094-.013a.086.086,0,0,0,.061-.094.116.116,0,0,1,.04-.107.562.562,0,0,1,.127-.1.163.163,0,0,1,.134-.047c.054,0,.128,0,.141-.047s.02-.087.06-.1.074-.027.061-.054-.014-.013-.014-.047-.02-.04-.027,0,0,.061-.02.067-.027-.02-.047-.02-.033-.02,0-.033.027-.014.034-.04.006-.014.033-.034.027-.034.027-.074-.007-.067.027-.1.054-.061.04-.074-.013-.013-.013-.047-.007-.02.013-.027.04-.027.047-.08a.164.164,0,0,1,.047-.114.09.09,0,0,0,.054-.067c.006-.041.006-.054.033-.061s.027-.02.034-.047.02-.033.047-.046.067-.041.067-.074-.014-.034-.047-.067-.027-.041.013-.047a.109.109,0,0,0,.094-.034c.02-.027.027,0,.013.014a.054.054,0,0,0-.006.02.027.027,0,0,1-.034.02c-.033-.007-.027.02-.013.054s.006.067.06.006c.034-.04.061-.053.081-.087a.033.033,0,0,1,.053-.013c.034.013.034-.014,0-.041S49.171,49.8,49.171,49.742Z"/><path class="cls-1" d="M62,41.937c-.027-.013-.033-.067-.027-.1s-.087-.02-.087-.02a.165.165,0,0,1-.06,0c-.034-.014-.04-.027-.067-.021s-.04.014-.054-.013-.013-.027-.04-.033-.04-.007-.047-.047-.033-.074-.074-.068a.185.185,0,0,0-.114.047c-.046.041-.093.094-.08.114s.027.054-.007.067-.06.047-.1.047a.122.122,0,0,0-.1.034c-.04.027-.027.047-.08.053a.15.15,0,0,0-.121.1.672.672,0,0,0-.054.114.219.219,0,0,1-.013.06.309.309,0,0,0-.027.094c0,.034.007.067-.02.087s-.007.014-.027.021-.027.02-.04.053-.02.067-.047.067a.046.046,0,0,0-.047.027.082.082,0,0,1-.033.047c-.027.02-.027.047-.027.08a.1.1,0,0,1-.034.094c-.027.027-.04.027-.047.067A.206.206,0,0,1,60.5,43a.2.2,0,0,1-.047.08c-.027.027-.041.047-.034.061a.082.082,0,0,1,.007.047.113.113,0,0,1-.027.074.605.605,0,0,0-.047.08.635.635,0,0,1-.053.114c-.027.027-.021.027-.041.067s-.02.047-.033.074-.007.04-.027.053a.038.038,0,0,0,.007.067c.033.014.033.027.006.027a.113.113,0,0,0-.08.054.116.116,0,0,0-.027.08c0,.041,0,.054-.027.054s-.047.047-.033.094a.4.4,0,0,1,.04.154.484.484,0,0,0,.007.154c.02.014.033.054,0,.04s-.034-.006-.027.027a.4.4,0,0,1-.007.087.374.374,0,0,0-.013.148c.013.033.02.047,0,.067s-.02.02-.014.04.014.034.007.047.013.02.04.034a.339.339,0,0,0,.067.013c.027,0,.034.013.027.04a.086.086,0,0,0,.02.087c.034.027.047.047.047.074a.071.071,0,0,0,.014.054c.013.02.026.027.026.053s.007.061.027.061.034.013.027.04a.069.069,0,0,0,.027.053.2.2,0,0,1,.047.054c.02.027.013.04-.007.027s-.033-.047-.054-.027.034.04.054.054a.836.836,0,0,0,.161.1c.047.014.1.041.154.061a.243.243,0,0,1,.107.094c.02.033.047.093.074.1a.053.053,0,0,1,.034.074.075.075,0,0,0,.02.074.067.067,0,0,1,.006.067c-.013.033-.02.053.007.08s.034.04.034.067.02.081.04.054a.087.087,0,0,0,.013-.04c.007-.034.034-.027.047-.007s.027.013.047.04.034.027.047.02.007-.027-.007-.047a.1.1,0,0,1-.013-.067.109.109,0,0,1,.033-.074c.021-.026.007-.04,0-.073a.289.289,0,0,0-.013-.1.212.212,0,0,1-.007-.087.139.139,0,0,0-.026-.08c-.02-.041,0-.068.013-.1a.375.375,0,0,0,.027-.107.687.687,0,0,1,.033-.148.309.309,0,0,1,.081-.154c.033-.027.027-.054.074-.067s.046-.02.053-.04a.106.106,0,0,1,.02-.047.1.1,0,0,0,.014-.067.058.058,0,0,1,.033-.067.114.114,0,0,0,.034-.06c.006-.021,0-.034.026-.054s0,0,.027-.034a.168.168,0,0,0,.027-.107c0-.054.027-.06.047-.094a.121.121,0,0,0,.007-.094.109.109,0,0,1,0-.067.183.183,0,0,0,.02-.067c0-.02.007-.02.02-.053a.212.212,0,0,0,.02-.081.19.19,0,0,1,.014-.087.269.269,0,0,0,0-.1.553.553,0,0,1,.006-.148.619.619,0,0,0,.02-.1.724.724,0,0,0,0-.127c0-.08.007-.107.007-.154s.013-.081.013-.121-.02-.053-.033-.087.02-.054.04-.074a.229.229,0,0,0,.04-.074c.007-.026.021-.033.041-.067a.351.351,0,0,0,.046-.093.6.6,0,0,0,.041-.141A.115.115,0,0,1,62,42.708c.02-.027.013-.033.013-.067v-.06A.1.1,0,0,0,62,42.52a.541.541,0,0,1-.047-.087.419.419,0,0,1-.034-.194.39.39,0,0,1,.067-.174c.027-.027.067-.061.067-.061v-.053h-.007A.1.1,0,0,1,62,41.937Z"/><path class="cls-1" d="M52.563,46.3v-.007a.232.232,0,0,1,.007-.04l-.047-.006a.216.216,0,0,0-.007.046v.014a.252.252,0,0,0,.027.134c0,.007.007.02.014.013l.04-.026c-.007-.007-.014-.014-.014-.02A.317.317,0,0,1,52.563,46.3Z"/><path class="cls-1" d="M52.724,46.5H52.7a.232.232,0,0,1-.053-.007l-.014.047a.313.313,0,0,0,.061.006h.033c.027-.006.161-.026.235-.04l-.007-.047C52.878,46.469,52.751,46.489,52.724,46.5Z"/><path class="cls-1" d="M53.046,46.442l.007.047a1.8,1.8,0,0,0,.181-.027l-.014-.047A1.494,1.494,0,0,1,53.046,46.442Z"/><path class="cls-1" d="M48.031,49.271c.108-.034.309-.013.443-.127a.549.549,0,0,1,.214-.114l-.013-.047a.672.672,0,0,0-.235.12c-.114.094-.3.081-.429.114a.923.923,0,0,1-.221.02c-.114,0-.221-.006-.221-.006v.047c.007,0,.114.013.228.013A1.15,1.15,0,0,0,48.031,49.271Z"/><path class="cls-1" d="M61.915,34.033a1.634,1.634,0,0,1-.261.181l.007.04a1.477,1.477,0,0,0,.274-.181c.081-.047.135-.073.135-.073l-.021-.041S62,33.986,61.915,34.033Z"/><path class="cls-1" d="M61.406,34.315a1.231,1.231,0,0,0-.288.107c-.014.007-.021.007-.027.013s-.061.047-.061.047l.034.034s.054-.034.06-.04.014-.007.02-.014a1.549,1.549,0,0,1,.275-.1.249.249,0,0,1,.074-.014l-.007-.047A.31.31,0,0,0,61.406,34.315Z"/><path class="cls-1" d="M53.294,46.14a.252.252,0,0,0-.02-.08l-.039.026a.825.825,0,0,1,.019.128.66.66,0,0,1,.027.134c0,.02,0,.034-.007.04l.04.034a.129.129,0,0,0,.014-.06,1.043,1.043,0,0,0-.027-.141A.406.406,0,0,0,53.294,46.14Z"/><polygon class="cls-1" points="53.234 46.08 53.235 46.086 53.24 46.08 53.234 46.08"/><polygon class="cls-1" points="53.234 46.087 53.235 46.086 53.235 46.086 53.234 46.087"/><path class="cls-2" d="M49,31a6,6,0,1,0-4.243-1.757A6,6,0,0,0,49,31Z"/><path class="cls-3" d="M49,29a4,4,0,1,0-2.828-1.172A4,4,0,0,0,49,29Z"/><path class="cls-2" d="M32,34a4,4,0,1,0-2.828-1.172A4,4,0,0,0,32,34Z"/><path class="cls-3" d="M32,33a3,3,0,1,0-2.121-.879A3,3,0,0,0,32,33Z"/><path class="cls-4" d="M45.5,42a2.5,2.5,0,1,0-1.768-.732A2.506,2.506,0,0,0,45.5,42Z"/><path class="cls-3" d="M45.6,42.6a3,3,0,1,0-2.122-.879A3,3,0,0,0,45.6,42.6Z"/><rect class="cls-1" x="47.674" y="54.725" width="0.249" height="1.573" transform="translate(-23.532 38.832) rotate(-36.108)"/><rect class="cls-1" x="48.45" y="59.777" width="0.25" height="1.515"/><polygon class="cls-1" points="45.979 68.211 45.798 66.892 46.046 66.858 46.227 68.178 45.979 68.211"/><rect class="cls-1" x="50.946" y="71.188" width="1.441" height="0.25" transform="translate(-18.87 18.592) rotate(-17.301)"/><polygon class="cls-1" points="56.2 66.427 56.006 66.269 56.839 65.24 57.033 65.398 56.2 66.427"/><polygon class="cls-1" points="59.959 61.063 59.719 60.991 60.177 59.478 60.417 59.55 59.959 61.063"/><rect class="cls-1" x="59.943" y="54.208" width="0.25" height="1.653"/><polygon class="cls-1" points="60.357 51.729 60.126 51.632 60.738 50.201 60.968 50.299 60.357 51.729"/><polygon class="cls-1" points="62.253 47.603 62.035 47.481 62.744 46.192 62.962 46.313 62.253 47.603"/><polygon class="cls-1" points="63.575 43.923 63.325 43.905 63.436 42.408 63.686 42.426 63.575 43.923"/></svg>