<svg id="图层_1" data-name="图层 1" xmlns="http://www.w3.org/2000/svg" viewBox="0 0 80 72.528"><defs><style>.cls-1{fill:#dee0e3;}.cls-2{fill:#19f7ea;}.cls-3{fill:#5285ff;}.cls-4{fill:#14c0ff;}</style></defs><title>icon_map-lbs-heat_light</title><path class="cls-1" d="M69.465,9.115c.06-.094.221-.214.161-.349s-.161-.187-.221-.114a.6.6,0,0,1-.443.262,1.076,1.076,0,0,0-.623.389c-.061.094-.222.094-.349.221s-.422.349-.516.476-.074.134-.255.2a2.093,2.093,0,0,1-.563.074c-.261.02-.369.074-.422-.034s-.2-.254-.2-.435-.02-.383-.108-.443-.053-.06-.114-.221-.3-.074-.4-.114S65.047,8.954,65,8.86s-.107-.288-.308-.315a1.045,1.045,0,0,0-.315-.033,1.088,1.088,0,0,1-.362.013.809.809,0,0,0-.382-.06,1.354,1.354,0,0,1-.456.013c-.141-.04-.255-.214-.336-.4a2.7,2.7,0,0,1-.147-.422,1.61,1.61,0,0,0-.235-.456,5.021,5.021,0,0,1-.335-.443c-.087-.161-.161-.362-.234-.5s-.188-.221-.289-.4-.127-.308-.181-.422-.234-.349-.308-.483a.41.41,0,0,0-.288-.262c-.2-.073-.369-.254-.517-.274s-.4-.041-.771-.114a5.259,5.259,0,0,0-.6-.108,1.307,1.307,0,0,0-.476-.033,1.348,1.348,0,0,0-.59.147l-.677.255-.019.025a.512.512,0,0,0-.209-.032.868.868,0,0,0-.731.409,1.844,1.844,0,0,0-.4.8c.02.194.127.107.288.107s.2.02.215.181.087.268-.054.4a3.164,3.164,0,0,0-.409.75,4.774,4.774,0,0,0-.57,1.267c.02.248.141.376-.053.5a2.078,2.078,0,0,0-.5.4c-.181.194-.107.3-.4.181a2.608,2.608,0,0,0-.73-.181c-.088,0-.161.127-.342.3a7.244,7.244,0,0,0-.57,1.415c-.087.235-.3.59-.268.8a.738.738,0,0,0,.355.57c.2.074.161.02.429-.033s.355-.235.516-.2.248.322.483.235.141-.194.409-.322.127-.194.409-.107a1.253,1.253,0,0,1,.536.268,2.292,2.292,0,0,1,.59.61c.054.161.215.288,0,.322a4.3,4.3,0,0,0-1.126.107,5.5,5.5,0,0,1-.644.268c-.375.141-.321.248-.57.356a1.149,1.149,0,0,0-.516.409c-.087.14-.127.194-.321.462s-.342.376-.537.4-.235-.054-.462.053a.805.805,0,0,0-.43.322c-.127.181-.18.409-.449.429a.823.823,0,0,1-.516-.074,4.678,4.678,0,0,0-.784-.288.875.875,0,0,0-.537.268,3.243,3.243,0,0,0-.429.838c-.053.181.249.7.289.858s-.268.4-.356.429a8.222,8.222,0,0,0-.73.611,1.788,1.788,0,0,1-.57.408c-.235.088-.235.215-.557.235s-.931.034-1.126.02a1.71,1.71,0,0,0-.771.054,11.125,11.125,0,0,0-1.052.449c-.322.127-.289.107-.7.268s-.61.141-.61.054-.248-.2-.355-.2a1.792,1.792,0,0,1-.751-.087,5.421,5.421,0,0,0-.8-.429c-.342-.127-.376-.053-.483-.248a1.117,1.117,0,0,0-.482-.375,3.23,3.23,0,0,0-.825-.289c-.322-.073-.449.034-.838.034a2.026,2.026,0,0,1-.731-.034c-.375-.087-.536-.127-.965-.234s-.3-.161-.537-.161-.542.007-.542.007l0,.015-.213.018-.282.012a1.051,1.051,0,0,0-.087-.421c-.08-.161-.2-.234-.241-.429s-.127-.382-.188-.7a3.746,3.746,0,0,0-.167-.576c-.027-.114-.289-.041-.4-.175a4.6,4.6,0,0,0-.355-.362,1.737,1.737,0,0,0-.469-.489,5.914,5.914,0,0,0-.965-.483c-.336-.134-1.113-.234-1.328-.482s-.315-.316-.167-.584a7.38,7.38,0,0,0,.3-.7,1.941,1.941,0,0,0,.034-.831,8.735,8.735,0,0,0-.4-1.314,1.376,1.376,0,0,0-.449-.429c-.282-.2-.583-.248-.778-.516a1.958,1.958,0,0,1-.449-.778.927.927,0,0,0-.121-.454l.027-.009.436-.093-.08-.235L28.819,8a.7.7,0,0,0-.282-.033c-.087.007-.167-.013-.248,0l-.074-.034a1.242,1.242,0,0,0-.415-.06.6.6,0,0,0-.4.181l-.093.06-.1.114a1.215,1.215,0,0,0-.127.369l-.027.027a1.35,1.35,0,0,0-.329-.06.676.676,0,0,0-.623.328c-.007.007-.014.013-.014.02a.875.875,0,0,0-.174.235.787.787,0,0,0-.127.476c-.014.127-.047.255-.067.389s.013.181-.108.2c-.046.013-.107.053-.134.047h0l-.193-.094-.12-.066c-.074-.021-.148-.041-.221-.067l-.155-.021-.093-.026-.034-.021-.034-.047-.093-.073a.549.549,0,0,0-.181-.168L24.3,9.631l-.094-.067-.114-.053-.121-.034-.127-.007-.168.027-.167.094-.094.1-.067.107a1.408,1.408,0,0,1-.188.248.991.991,0,0,0-.1.147,2.562,2.562,0,0,0-.134.222c-.026.053-.06.1-.087.154l-.094.107a.847.847,0,0,1-.094.134.763.763,0,0,0-.12.168.244.244,0,0,0-.027.047.551.551,0,0,1-.087.08l-.081.1-.08.207a.7.7,0,0,0-.054.088h-.013a.788.788,0,0,0-.5.033.8.8,0,0,0-.308.007l-.182-.081-.288.014a.86.86,0,0,0-.134.007.484.484,0,0,1-.214-.034l-.222.02-.033.02a.769.769,0,0,0-.322.134l-.094.087-.107.155-.06.274.026.074v.034l.047.161a.863.863,0,0,0,.215.275,1.584,1.584,0,0,1-.027.18.731.731,0,0,0-.06.295.945.945,0,0,0-.007.389,1.064,1.064,0,0,0,.007.356c.006.033.013.073.02.107l-.02.067a.6.6,0,0,0-.248.134l-.081.074-.087.127-.094.067-.067.081-.04.06a.338.338,0,0,1-.04.067.766.766,0,0,0-.128.282c-.006.033,0,.053-.02.08l-.047.174a.941.941,0,0,0-.234.114l-.047-.013-.221-.007-.121.054-.121.02-.06.033a.71.71,0,0,0-.235.061l-.087.02a.7.7,0,0,1-.121.013.842.842,0,0,0-.181.054l-.073.02-.155-.04-.194.013-.147.067-.114.094a1.25,1.25,0,0,0-.215.04l-.094.04a.483.483,0,0,0-.167-.046.8.8,0,0,1-.081-.067l-.141-.061-.127-.02a1.366,1.366,0,0,0-.288.027.765.765,0,0,0-.215.034l-.147.08-.107.1-.081.135-.027.02-.094.094-.04.066-.02-.113-.08-.161-.134-.134-.155-.074-.127-.027h-.1l-.08.007a.723.723,0,0,0-.208.067l-.087-.074-.188-.08-.255.006-.187.108-.114.12-.141.047-.154-.02-.134-.027-.141.007-.107.027c-.087.04-.181.08-.275.12l-.141.208a.9.9,0,0,0-.141.141l-.053.081-.034.08a.87.87,0,0,0-.275.127.773.773,0,0,0-.207.208l-.047.081-.047.167-.007.107c0,.027.015.05.019.076l-.026,0,.02.221-.013.021a.726.726,0,0,0-.074.744c.054.087.094.187.154.275a.968.968,0,0,0,.282.288l.147.054.228.006a1.018,1.018,0,0,0-.02.4,1.039,1.039,0,0,0-.02.155.574.574,0,0,0-.094.174.952.952,0,0,0-.159.016l0-.01-.1.014-.234.121-.076.141-.011.013,0,0-.03.058c-.014.06-.041.114-.054.174l-.02.161.02.067a.884.884,0,0,0,.034.2l.053.134.161.188.134.046.094.121.228.127h.047l.013.068.034.087.04.067a1.254,1.254,0,0,0,.114.147l.161.107-.014.041-.087.1a1.012,1.012,0,0,0-.094.208l-.02.114a.682.682,0,0,0,.014.2l.033.1.034.06.013.181.094.181.094.1.127.087a1.193,1.193,0,0,0,.268.1c.027.034.047.061.074.094.047.06.081.121.128.181l.114.128.107.066.047.021a1.585,1.585,0,0,0,.187.127.653.653,0,0,0,.108.087c.06.04.114.067.174.1.04.013.08.02.121.033a1.118,1.118,0,0,0,.02.215,2.06,2.06,0,0,0,0,.208.574.574,0,0,0-.014.435.79.79,0,0,0,.289.483l-.02.027-.081.127-.047.175.013.16.007.027-.08.128-.04.134-.007.14.007.041a.709.709,0,0,0,.067.355l.02.047a1.052,1.052,0,0,0,.094.208.7.7,0,0,0-.329.06.95.95,0,0,0-.268.067l-.1.054-.12.1-.081.134-.033.088a.909.909,0,0,0-.034.268.759.759,0,0,0-.053.107l-.047.161L13.232,28l.02.134.047.127.047.081-.013.094a1.189,1.189,0,0,0,.013.214l-.054.134-.006.121-.02.047-.027.134.013.208.127.221c.007.053.007.107.02.167l.074.2a.829.829,0,0,0,.114.147l.074.06.08.047a.605.605,0,0,0,.128.1l.114.054.187.033.088.047a1.647,1.647,0,0,0,.026.168.816.816,0,0,0,.088.207.733.733,0,0,0,.274.242l.047.02c.014.007.041.053.054.06a1.048,1.048,0,0,0,.248.208,1.136,1.136,0,0,0,.2.235.8.8,0,0,0,.114.362l.054.067.053.053a.94.94,0,0,0,.2.121.724.724,0,0,0,.268.054l.127-.014a.7.7,0,0,0,.2-.08l.074-.054.087-.094.04-.027.013.081.047.127.094.141.107.087c.041.02.074.047.114.067l.047.154.04.054.021.067.093.121a1.513,1.513,0,0,0,.369.268.432.432,0,0,0,.1.087l.047.081c.006.04.006.08.013.114a.932.932,0,0,0,.127.315l.108.134.087.08.154.087.2.027.027-.007v.041l.027.134.033.067a.85.85,0,0,0,.1.161l.08.08.081.047.04.06.087.081.067.047a.75.75,0,0,0,.228.254.515.515,0,0,0,.087.054.843.843,0,0,0,.047.134.8.8,0,0,0,.1.161.6.6,0,0,0,.248.181.638.638,0,0,0,.328.114l.047.034.02.013c.014.047.02.094.034.134a.805.805,0,0,0,.087.208l.107.134.248.148.181-.014a1.25,1.25,0,0,0,.2.114l.094.027.108.013.127-.007.1-.033.047.033a.648.648,0,0,0,.128.168l.087.067.094.047.087.027.174.02a.458.458,0,0,0,.161.054l.128.073.154.034.127-.007a.7.7,0,0,0,.2-.06.6.6,0,0,1,.1.02,1.562,1.562,0,0,0,.261.04.682.682,0,0,0,.034.369,1.523,1.523,0,0,0,.274.456l.135.107.114.054.16.04.161-.014.1-.033a1.594,1.594,0,0,0,.181-.087l.127-.107.074-.094.054-.108.033-.127a.62.62,0,0,0,.007-.161.2.2,0,0,1,.047-.06,1.152,1.152,0,0,0,.288-.221l.134.073.148.041h.127a.273.273,0,0,1,.047.033.951.951,0,0,0,.3.174l.12.021a1.512,1.512,0,0,0,.315.221,1.341,1.341,0,0,0,.161.08l.094.02v.067l.02.114.047.128.081.114.094.087.134.08a.8.8,0,0,0,.04.356,1.1,1.1,0,0,0,.013.214l.081.188.2.181.214.053a.984.984,0,0,0,.2-.013,1.874,1.874,0,0,0,.335,0,.689.689,0,0,0,.3.094l.04.02a.977.977,0,0,0,.415.074c.041,0,.081-.007.121-.007.094.007.188.02.282.027a1.2,1.2,0,0,0,.569-.134.674.674,0,0,0,.316-.362c.08-.074.167-.141.248-.215a.8.8,0,0,0,.308-.033c.2-.054.4-.128.6-.195.081-.026.161-.047.242-.073a.935.935,0,0,0,.214-.108l.087-.073.074-.088.013-.02.094.02.061.007a.916.916,0,0,0,.107.034,1.959,1.959,0,0,0,.147.16,1.554,1.554,0,0,0,.249.054l.06.027a.434.434,0,0,0,.08.074l.067.04.081.08.114.074.127.134.161.094.322.02.181-.08.107-.074.107-.02.155-.074.127-.12c.007.066.027.133.04.2l.013.12.047.161.054.094.081.1.127.093.08.034a.581.581,0,0,0,.041.261c-.021.108-.007.222-.021.329-.006.08-.02.161-.033.241-.007.027-.027.04-.04.061a.506.506,0,0,0-.148.147l-.04.074-.033.073-.027.081-.014.161a.79.79,0,0,0-.248.06l-.134.094L33.4,41a.839.839,0,0,0-.08.214l-.121.04a.837.837,0,0,0-.208.188l-.02.007-.194.208-.047.261a.592.592,0,0,0-.188.275.49.49,0,0,0-.027.141c-.006.02-.013.033-.02.053a.974.974,0,0,0-.053.181l-.007.121.02.141a.942.942,0,0,0,.087.181l-.02.013-.114.161-.047.228.047.2.067.121.087.107a.923.923,0,0,0,.181.134l.094.041.114.026h.128a1.086,1.086,0,0,0,.5-.208.5.5,0,0,0,.107-.033h.008l.04.14.08.094.013.174.061.1-.027.147.02.235.127.161a.7.7,0,0,0,.228.161l.081.06L34.3,45.2l.007.047a.5.5,0,0,0-.087.181l-.1.107a.821.821,0,0,0-.12.309l.02.188.087.167.107.107a1.011,1.011,0,0,0,.664.181l.067.047.054.2.093.2.061.06.013.054.141.181.174.107.081.02.1.067h.248a.488.488,0,0,0,.108.034.727.727,0,0,0,.476-.027.614.614,0,0,0,.764.463l.154.087.168.04.113-.013.249-.088.113-.1.128-.154.067-.195a.814.814,0,0,0-.034-.315l.094-.255-.094-.288a.622.622,0,0,0-.047-.248,1.121,1.121,0,0,0,.4-.04l.161-.1.047-.06.02.027c.06.053.114.1.168.154l.16.067.148.02a1.039,1.039,0,0,0,.248-.02l.174-.087.041-.054.154.06.181-.06a.831.831,0,0,0,.335.208l.308-.04.2-.168.027-.053h.113a1.071,1.071,0,0,0,.282-.161.526.526,0,0,0,.355-.114h.081l.281-.248.007-.027.3.181.081-.014.067.074.167.081A.976.976,0,0,0,42.9,46H43l.094.054a.727.727,0,0,0,.08.5l.067.067a1.141,1.141,0,0,0,.007.154.6.6,0,0,0,.121.335l.107.108.188.087h.067a.6.6,0,0,0,.241.167.487.487,0,0,0,.275.154.61.61,0,0,0,.3.114h.047l.013-.067.033.014.047-.014h.047l.054-.033.027.033.047.02a.254.254,0,0,0,.047-.067c.006-.013.006-.06.013-.073s.027,0,.04-.007.074,0,.094.007L45.1,47.5l.054-.02.073-.081.034-.02.02.047.047-.027.025-.025-.005.052s.04.014.054.007.027-.007.02-.02-.034-.047-.014-.047.081,0,.094.02.014.027.034.027.067,0,.067-.014a.037.037,0,0,0-.007-.026c-.013-.014-.04-.027-.027-.047a.758.758,0,0,1,.054-.061s.02-.006.02.021a.158.158,0,0,0,.02.06.112.112,0,0,1-.007.047c-.006.013-.033.033-.026.053s.026.007.04,0a.218.218,0,0,0,.074-.094.613.613,0,0,0,.013-.087c0-.02.007-.067.034-.06s.02.02.02.04-.014.041,0,.041a.164.164,0,0,0,.033-.027c.007-.007.04-.034.061-.014s.026.027.02.067-.02.027-.034.047-.033.04-.013.04a.049.049,0,0,0,.053-.02,1.032,1.032,0,0,0,.081-.08c.02-.02.033-.074.02-.081a.046.046,0,0,0-.027-.006c-.013,0-.054.006-.04-.02s.013-.027.027-.034-.014-.054-.014-.054-.053-.067-.047-.087a.222.222,0,0,1,.054-.06c.02-.013.033-.034.04-.02s.007.053.027.053.02-.006.04-.006.034,0,.027.013a.813.813,0,0,0-.054.081c-.006.02-.013.06.007.08s.027.027.054.027.074-.02.094-.013.013.006.013.033,0,.02.013.02.021.02-.006.027-.04.027-.027.04.027.007.033.02a.031.031,0,0,0,.047.014c.027-.014.02-.014.047-.014s.081.007.067-.013a.379.379,0,0,0-.047-.06c-.013-.014-.04-.021-.033-.047a.407.407,0,0,1,.047-.121c.013-.007.02,0,.033.02s.027.04.041.04.046.007.026.02-.047.027-.047.054a.135.135,0,0,0,.027.087.279.279,0,0,0,.074.06c.02,0,.047-.006.054-.006a.039.039,0,0,1,.047,0c.013.013.026.047.06.047s.074.006.074.033-.007.047-.021.054-.006.013-.026.007-.04-.014-.054,0-.047.053-.033.067.006.02.033.026a.1.1,0,0,1,.047.021c.007.006.007.013.04.013s.04-.007.047-.02.027-.02.034-.047.013-.054.026-.034.021.054.041.054a.1.1,0,0,0,.047-.007.166.166,0,0,1,.067-.02.254.254,0,0,0,.073,0,.97.97,0,0,0,.134-.047.089.089,0,0,0,.054-.067.133.133,0,0,0-.013-.053c-.007-.021.006-.047-.027-.067a.345.345,0,0,0-.054-.027.021.021,0,0,1,0-.034c.02-.02.054-.033.067-.047a.232.232,0,0,0,.047-.047c.014-.02.007-.033.02-.02s.034.034.027.047-.06.04-.053.061-.007.033.006.047a.112.112,0,0,1,.027.06.152.152,0,0,0,.04.1c.034.027.041.047.061.054a.133.133,0,0,1,.08.027c-.007-.014.02-.014.013-.034s-.013-.04-.013-.053-.007-.014-.007-.021-.006-.093.007-.093.034.073.04.067h0a.062.062,0,0,0-.014.048v.02a.141.141,0,0,0,.006.053l.04-.026.028.033c.013.02.006.047.006.067s.021.02.041.02a.359.359,0,0,0,.08-.027c.02-.006.02.007.027.021a.108.108,0,0,1-.007.066.078.078,0,0,0,.007.054c.007.02-.034.014-.054.014s-.08.006-.12.006-.014.074-.007.108-.013.053-.013.067a.3.3,0,0,1-.014.067c-.007.006-.02,0-.033-.02s-.034.026-.047.046-.007.027,0,.041.02.033.02.073a.239.239,0,0,1-.034.1.167.167,0,0,0-.026.074c-.014.047.026.107.033.127s.013-.007.02-.02.04.033.054.054-.014.046-.02.06a.042.042,0,0,0,.006.04.124.124,0,0,0,.054.02.39.39,0,0,1,.054-.006c.04,0,.033.006.026.013a.09.09,0,0,1-.053.027.171.171,0,0,0-.074.027c-.033.02.027.04.047.047s.02.033.02.047.007.053.013.087.041.026.067.033.027.034.041.054.013.013.02.006,0-.033,0-.06,0-.02.013-.027.041.054.047.081.027.02.047.02.007.047.007.06-.007.054-.027.067-.033-.06-.047-.073-.06-.014-.087-.007.027.094.04.114a.255.255,0,0,1,0,.073c-.007.021.007.041.027.027s.013-.02.034-.033.033-.014.053-.014.047-.02.074-.013.053.033.087.047a.086.086,0,0,0,.054.007.1.1,0,0,0,.06-.021c.013-.02.047-.006.067,0a.055.055,0,0,0,.047,0c.02-.006.034-.026.054-.046a.27.27,0,0,1,.093-.034c.027-.013.02-.04.034-.06a.539.539,0,0,1,.047-.061.14.14,0,0,0,.04-.067.18.18,0,0,0-.027-.114c-.02-.026-.087-.033-.1-.04s-.034-.067-.047-.094-.034,0-.047.007a.047.047,0,0,1-.06,0c-.034-.02,0-.04,0-.06a.14.14,0,0,1,.02-.067c.02-.027.033.026.033.04s.014.013.034.013.006-.06.006-.08a.279.279,0,0,0-.026-.067c-.02-.034-.094-.02-.108-.02a.063.063,0,0,1-.047-.014c-.02-.02-.02,0-.06,0s-.02-.06-.02-.08a.21.21,0,0,0-.04-.094c-.027-.04-.027-.034-.027-.054s.013-.02.04,0,.034.014.067-.006.04-.067.061-.094.02-.027.046-.027.014.054.007.06-.007.014.02.02,0,.034-.013.047a.226.226,0,0,0-.047.061c-.013.02,0,.027.013.02a.692.692,0,0,1,.067-.034.285.285,0,0,1,.067-.006c.014,0,.02-.014.054-.014a.105.105,0,0,1,.087.074c.027.047.04.013.04-.013a.708.708,0,0,0,.007-.121c-.007-.034-.094-.02-.121-.02a.054.054,0,0,1-.053-.027c-.014-.02-.027-.007-.04-.007s-.014.007-.041-.013.014-.027.034-.04a.3.3,0,0,0,.06-.067.262.262,0,0,0,0-.074.064.064,0,0,0-.033-.047.056.056,0,0,1-.027-.047c-.007-.02.007-.027.027-.027s.013-.007.013-.02-.02-.034-.033-.06-.014-.047,0-.061.04.02.053.047a.2.2,0,0,1,.027.054.588.588,0,0,0,.054.087c.013.027-.027.027-.034.034s0,.047,0,.067.02,0,.034-.014.04-.006.067-.006.033-.014.053-.027.027.027.02.047-.013.026-.033.026-.087.014-.107.014-.034,0-.034.027.034.013.034.013a.13.13,0,0,1,.033-.007c.014,0,.027.034.027.061s.027.02.04.02a.123.123,0,0,0,.067-.074.384.384,0,0,0,.02-.107.294.294,0,0,1,.041-.081.257.257,0,0,0,.04-.053.763.763,0,0,1,.094-.081c.026-.013.08.007.114.007a.092.092,0,0,0,.067-.02c.013-.014.033-.034.053-.034a.506.506,0,0,1,.094-.013c.027,0,.034-.013.034-.054s.013-.026.04-.026.013.02.007.04.013.013.04.006a.445.445,0,0,1,.067-.013c.02-.007.02-.013.02-.047s.007-.027.02-.027.02.007.034.02.02.007.033.021.007.02-.013.06.047.007.074-.014a.552.552,0,0,1,.08-.06c.02-.013-.007-.02-.027-.02a.03.03,0,0,0-.033.02c-.007.007-.02.007-.007-.02a.088.088,0,0,1,.053-.047c.021-.007.021-.013.041-.02s.033-.027.04-.034.02.014.02.034.02.04.047.054a.219.219,0,0,0,.087.013c.02-.007.081-.013.094-.027a.166.166,0,0,0,.04-.067.064.064,0,0,1,.061-.04.06.06,0,0,0,.046-.02c.021-.014.021-.061.021-.094s-.041-.02-.061-.02-.04-.007-.047-.04.02-.02.041-.014.033-.013.06-.02.047.02.067.02.013.02.007.034-.007.013-.007.047.054.02.074.02.02.02.013.04-.04.013-.054.007-.013.02-.013.04-.033.033-.047.067.027.02.047.013a.119.119,0,0,0,.047-.02.273.273,0,0,1,.047-.033.3.3,0,0,0,.08-.02c.02-.014.02-.007.02-.034s-.033-.034-.06-.034-.027,0-.033-.033.033-.074.06-.094-.02-.033-.04-.06.033-.027.067-.027.027.02.033.034.04.006.067.006a.285.285,0,0,1,.074-.006.286.286,0,0,0,.054-.014c.027-.007.013.04.013.067s.02.034.034.027.02.034.04.047.053,0,.08-.013a.622.622,0,0,0,.094-.041c.014-.006.027-.013.034-.047a.565.565,0,0,0-.02-.134c-.014-.047-.034-.08-.047-.114s-.007-.06-.007-.08a.057.057,0,0,1,.033-.047c.021-.007.007.027,0,.047a.268.268,0,0,0,.021.08c.006.014.026.007.047,0a.079.079,0,0,1,.033-.006c.013,0,.02-.014.034-.027s.02.02.02.033-.054.034-.074.047-.02.04-.02.074.033.047.047.054a.084.084,0,0,1,.047.026.715.715,0,0,0,.067.047.134.134,0,0,0,.053,0,.119.119,0,0,0,.04-.026.208.208,0,0,0,.027-.081c.007-.027.014-.04.034-.047a.3.3,0,0,0,.06-.033c.02-.014.02-.034.027-.047s.013-.014.027-.02.04-.014.053-.02a.03.03,0,0,1,.034,0,.079.079,0,0,1,.033.046c.007.027.007.041.014.061s.02.02.033.02a.109.109,0,0,0,.054-.02c.013-.007.027-.041.04-.061a.266.266,0,0,1,.027-.046.62.62,0,0,0,0-.114c-.007-.014-.013-.041-.02-.061a.08.08,0,0,1,.007-.06.848.848,0,0,1,.047-.074.305.305,0,0,0,.02-.1v-.094a.31.31,0,0,0-.02-.081.241.241,0,0,1-.014-.06c0-.02.014-.014.027-.014s.027.047.027.061,0,.027.007.04a.361.361,0,0,1,.026.067.109.109,0,0,1,0,.067c0,.014.014.02.021.014a.157.157,0,0,0,.033-.021c.007-.006.013-.02.027-.026s.006.006.006.02-.02.033-.033.04a.15.15,0,0,0-.04.047.285.285,0,0,0,.013.147c.014.034.04.014.054.007a.069.069,0,0,1,.04-.007c.02.007,0,.034-.007.047s-.006.027-.013.067.047-.006.053-.013.021-.007.034-.013.034-.021.054-.061a.451.451,0,0,0,.033-.08c.007-.014.02-.02.034-.041a.146.146,0,0,0,.013-.073c0-.02-.02-.04-.047-.067s-.02-.061-.033-.087-.047-.047-.054-.068.013-.02.034-.02.026.014.04.027a.478.478,0,0,1,.047.094.635.635,0,0,0,.1.141.063.063,0,0,0,.047.02.177.177,0,0,0,.054-.013c.02-.007.047-.02.053-.034a.246.246,0,0,1,.021-.047c.02-.02.013-.02.006-.033a.117.117,0,0,0-.02-.034c0-.007,0-.007.014-.013s.02-.007.026-.02a.074.074,0,0,0,.007-.041c.007-.02-.033-.04-.047-.047s-.02-.013-.033-.04.02-.1.026-.114a.2.2,0,0,0,.007-.067c0-.02-.027-.033-.04-.04s-.014-.02-.02-.047-.047-.06-.067-.087-.094-.04-.107-.047a.2.2,0,0,1-.067-.047c-.021-.02-.034-.027-.034-.054s.06.014.074.027a.157.157,0,0,0,.06.027.126.126,0,0,0,.054.014.081.081,0,0,1,.053.026.948.948,0,0,1,.054.081.056.056,0,0,0,.047.026c.013,0,.013,0,.02-.02s-.02-.04-.027-.053-.02-.007-.027-.027.014-.04.02-.06a.058.058,0,0,0-.02-.061.113.113,0,0,0-.06-.026c-.02,0-.027-.021-.034-.041a.158.158,0,0,0-.026-.047c-.014-.02.006-.047.013-.067a.177.177,0,0,0,.007-.067c0-.033-.034-.06-.04-.073s.006-.021.013-.027a.09.09,0,0,1,.04.033c.007.014.007.034.014.054a.671.671,0,0,1,.02.107c0,.02.013.02.026.007a.128.128,0,0,0,.027-.04c.007-.014.014-.007.027-.021s.014.041.014.047a.05.05,0,0,1-.014.027.04.04,0,0,0-.013.034.422.422,0,0,0,.02.1.034.034,0,0,0,.027.014c.006,0,.006.006.013.013a.05.05,0,0,0,.014.027c0,.007.02.007.033.007a.241.241,0,0,0,.06-.014c.021,0,.027.02.034.034a.235.235,0,0,1,.007.073.066.066,0,0,0,.026.047.11.11,0,0,1,.027.047c.014.02.04.047.047.061s.04.013.054.02.013.02.013.033a.056.056,0,0,1-.02.034c-.007.007.007.013.013.013a.153.153,0,0,0,.047-.013c.007-.014.021-.02.027-.034a.045.045,0,0,1,.034-.026l.033,0-.007,0a.719.719,0,0,0-.161.128l.034.033.034-.031a.033.033,0,0,0,0,.017c0,.007-.011.009-.014.021-.006.033.074.04.1.04a.435.435,0,0,0,.094-.013h.053c.027,0,.054.067.061.08s.02.013.033.013.02-.006.034-.02.027.014.033.02.014.007.034-.013.013.02.02.034.013.02.02.026.013.007.013-.013V46.35a.089.089,0,0,0,.008-.042.079.079,0,0,0-.047-.073.034.034,0,0,1-.017-.019c0-.008,0-.017.017-.022a.18.18,0,0,1,.081.02.067.067,0,0,0,.033.007c.006,0,0-.015,0-.025a.022.022,0,0,0,.01-.028c0-.007,0-.011,0-.017a.042.042,0,0,0,.012-.024c0-.005-.006,0-.008-.007v-.006c.02-.013-.007-.04-.027-.027s0-.007-.027-.007a.053.053,0,0,0-.06.007c-.027,0-.02.02-.047.02s-.04.014-.047.047-.02.007-.02-.02.007-.013-.014-.027,0-.009.007-.014H53c.014,0,.027-.014.041-.02a.046.046,0,0,1,.027.006c.013.007.013,0,.02-.006l.026-.027c.007-.007,0-.01-.009-.013s.012-.021,0-.021S53.077,46,53.066,46a.369.369,0,0,1,.1.017.062.062,0,0,0,.02.007l.02-.04c0-.007-.013-.014-.02-.014a.313.313,0,0,0-.119-.016.419.419,0,0,1,.052-.031c.02-.006.027-.013.054-.02s.06.007.067.02.04.014.053.021a.09.09,0,0,1,.027.047.444.444,0,0,1,.007.093c-.007.021.013.021.027.021s.02-.021.033-.034a.065.065,0,0,1,.034-.02.368.368,0,0,0,.047-.02.068.068,0,0,0,.006-.034c0-.006-.02-.013-.033-.02l-.04-.02c-.007-.007-.027.007-.041.013s-.013,0-.02-.013.007-.02.014-.027.04-.013.053-.027.014-.02.021-.033.013-.02,0-.034-.041-.006-.054,0a.083.083,0,0,1-.04.007c-.021,0,0-.04.013-.06s.013-.04.027-.054.027-.007.047-.007a.118.118,0,0,0,.053-.013.129.129,0,0,0,.041-.02c.006-.013.033-.027.047-.034a.172.172,0,0,1,.06-.013c.02-.007.02-.02.033-.034s.007-.013.02-.02.027.007.034.02a.03.03,0,0,1,0,.034.241.241,0,0,1-.06.047.125.125,0,0,0-.041.047c-.006.013.014.027.014.04s.007.034.007.054a.3.3,0,0,0,.006.073c.007.02.02.027.034.02a.121.121,0,0,0,.06-.026c.02-.014.014-.007.04-.007s.041.027.054.047.013.007.02-.007,0-.047.007-.067a.058.058,0,0,1,.02-.033c.013-.014.02-.014.02-.034s-.02-.04-.04-.053a.1.1,0,0,0-.047-.021c-.027-.013-.02-.013-.027-.033s.007-.013.034-.013h.04a.057.057,0,0,0,.033-.007c.014-.007.021.027.021.04a.092.092,0,0,0,.033.04c.007.007.02.007.033-.006s.021-.021.021-.034a.1.1,0,0,0-.007-.04.083.083,0,0,1-.007-.04.033.033,0,0,1,.014-.027c.006-.007.013,0,.04.006s.033-.006.053-.013.047.007.061.013.02-.02.027-.033a.115.115,0,0,1,.047-.04c.02-.007.053-.041.08-.047s.007.033-.007.04a.078.078,0,0,0-.033.047c-.007.02-.034.02-.04.027s.006.006.006.013.034,0,.047,0,.027-.02.04-.02a.061.061,0,0,1,.041.02c.013.014,0,.02,0,.034s-.007.02,0,.027a.081.081,0,0,0,.107.04.141.141,0,0,1,.054-.007.124.124,0,0,1,.06.02.055.055,0,0,0,.04.014c.014,0,.014-.034.014-.047a.082.082,0,0,1,.02-.047c.013-.014-.02-.007-.041-.007a.05.05,0,0,1-.04-.013c-.02-.007.047-.068.047-.068s0-.02-.007-.026a.09.09,0,0,0-.047-.014c-.02,0-.013-.04-.02-.053s0-.02.014-.027a.032.032,0,0,1,.04.013c.007.014.034.02.047.034a.044.044,0,0,0,.047-.007c.02-.013.02-.04.033-.067a.1.1,0,0,1,.041-.047.054.054,0,0,1,.053-.007c.02.014-.007.034-.027.047a.054.054,0,0,0-.02.047c0,.02.047.02.061.02s.02,0,.04.014.027.08.027.107.026.013.033.007A.677.677,0,0,1,55,45.537c.014-.006.047-.013.074-.02s.054-.04.067-.047a.163.163,0,0,1,.054-.006c.02,0,.006-.02.006-.034s-.013-.033-.013-.047a.081.081,0,0,1,.007-.04c.006-.013.04.013.047.02s.033.007.046.007-.026.04-.033.047a.057.057,0,0,0-.007.033c0,.02.034.014.054-.006a.369.369,0,0,0,.06-.074c.02-.034.061-.047.074-.06a.071.071,0,0,0,.034-.041c.006-.02.006-.013.026-.013s.054.04.067.047.027.007.061,0a.2.2,0,0,0,.08-.027.1.1,0,0,0,.02-.067c0-.02.034-.007.054-.014a.045.045,0,0,0,.033-.046c0-.014-.02-.074-.026-.108s.006-.04.02-.06.027-.02.027-.047-.047-.013-.061-.013-.02,0-.027-.02a.021.021,0,0,1,.014-.027s.06-.007.074-.007.026.02.026.034a.615.615,0,0,0,.014.08c.013.034.04-.033.06-.06A.1.1,0,0,1,56,44.874c.02-.007.033.013.047.027s.027.006.047-.014-.027-.027-.041-.04-.013-.027-.02-.054-.02-.033-.053-.04a.144.144,0,0,0-.094.007.436.436,0,0,1-.067.027c-.027.006-.061-.061-.067-.1s.013-.033.02-.027a.24.24,0,0,0,.047.04.115.115,0,0,0,.073.02h.074a.312.312,0,0,0,.081,0c.02-.006.02-.046.027-.06s.006-.027.02-.033a.268.268,0,0,0,.06-.074.579.579,0,0,0,.013-.181.057.057,0,0,1,.021-.054c.013-.013.026.014.033.034s.04.006.047,0-.007-.014.033-.02c.012,0,.01-.009.012-.015a.249.249,0,0,0,.109.115c.013.007.033.007.047.014a1.279,1.279,0,0,1,.174.174c.074.081.161.181.174.127l.034-.033s-.087-.1-.168-.181c-.04-.04-.08-.087-.114-.121s-.053-.06-.08-.067a.057.057,0,0,1-.022-.007l.009-.006a.088.088,0,0,1,.026-.04c.014-.021.047-.021.074-.027s.007-.047.007-.067-.007-.034.013-.054.02.067.034.1.027.02.033.013.014-.02,0-.04,0-.034,0-.067a.146.146,0,0,0-.006-.054c-.007-.02,0-.027.02-.04s.06-.014.087-.014.027.014.053.021.034-.041.041-.054.04-.047.06-.074-.04-.033-.067-.04a.12.12,0,0,1-.06-.027c-.014-.006,0-.02.02-.02a.547.547,0,0,1,.1.007.305.305,0,0,1,.1.033.146.146,0,0,1,.033.047.407.407,0,0,1,.021.074.318.318,0,0,1-.047.094c-.014.013.006.033.013.027a.5.5,0,0,0,.04-.054.1.1,0,0,0,.027-.054.175.175,0,0,0-.013-.1.1.1,0,0,1,.013-.087c.013-.02,0-.027-.007-.047s.007-.054.027-.067.027-.007.047,0a.04.04,0,0,0,.034-.014.021.021,0,0,1,.026,0c.007.007-.04.067-.047.081s-.013.02-.02.067.034.013.047-.014a.711.711,0,0,1,.067-.114c.02-.02.047-.006.061-.02s.006-.04.006-.074a.144.144,0,0,1,.027-.073c.014-.027.014-.02-.013-.04s.02-.041.04-.054.027,0,.027.034.047-.007.06-.021a.352.352,0,0,0,.047-.06c.007-.013.027-.013.054-.027s.02-.027.02-.04-.007-.027-.027-.054a.532.532,0,0,0-.107-.08c-.02-.014-.047.007-.087.02a.119.119,0,0,1-.114-.047c-.021-.033.026-.04.06-.047a.247.247,0,0,1,.1.007c.033,0,.026-.014.026-.027a.048.048,0,0,1,.014-.04c.013-.014.006-.014,0-.034s-.047-.006-.081-.013,0-.04.02-.047.027,0,.047.007a.064.064,0,0,0,.047,0c.014-.007.027.006.027.026s-.013.054-.02.074.007.04.02.061a.06.06,0,0,0,.08,0,.109.109,0,0,0,.047-.081c.007-.033-.013-.04-.047-.04s-.02-.02-.02-.034-.026-.026-.04-.047.007-.033.02-.053.014-.054.027-.067.027.006.034.02a.244.244,0,0,1,0,.067.1.1,0,0,0,.06.08c.04.027.034,0,.06-.026s.027-.034.054-.041a.5.5,0,0,1,.087-.006c.014,0,.02-.021.027-.041s-.02-.06-.013-.08.02-.02.033-.007a.385.385,0,0,1,.04.087c.007.02.02.02.04.02h.054c.027,0,.027.007.027.027a.262.262,0,0,1,0,.074c-.007.02.02.02.033.02s.034-.053.041-.074.027-.04.04-.067-.007-.026-.02-.04a.035.035,0,0,1-.014-.033c0-.014.021-.014.047-.014s.027-.027.027-.04a.433.433,0,0,1,.047-.054c.007-.013.02-.013.02-.033s-.027-.02-.047-.02h-.067c-.02,0-.04-.014-.04-.02a.054.054,0,0,0-.02-.041c-.02-.02.013-.047.033-.047a.1.1,0,0,1,.061.014c.013.013.013.007.033.007a.237.237,0,0,0,.074-.021c.013-.006.02-.02.04-.026s.087,0,.107,0,.021,0,.027-.014-.053-.033-.073-.047-.007-.02-.007-.033.067,0,.094,0,.02-.007.02-.027,0-.027-.007-.047.007-.04,0-.06-.047.027-.074.04-.033-.013-.047-.034-.047-.026-.06-.046.074-.021.094-.027.013-.034.013-.047-.006-.034-.006-.047a.491.491,0,0,0-.02-.074c-.007-.02-.034-.02-.054-.027s.054-.047.074-.053.013-.014.033-.02a.338.338,0,0,1,.074.006c.027.007-.027.041-.06.061s.02.06.04.087a.172.172,0,0,1,.027.073c.006.027.033.007.053-.006a.162.162,0,0,1,.061-.027c.02-.007.013-.04.02-.054a.166.166,0,0,1,.067-.04c.013-.007.02,0,.047.007s.026-.007.026-.014-.006-.033-.006-.06.074-.007.087-.007.02-.006.013-.026-.047-.034-.067-.054a.122.122,0,0,0-.073-.034.384.384,0,0,1-.108-.02c-.033-.006-.04-.027-.053-.047s0-.026.006-.033a.144.144,0,0,0,.027-.034c.007-.013.014-.013.027-.02a.569.569,0,0,1,.067-.013c.027,0,.027.013.06.02s.027-.034.027-.047a.055.055,0,0,1,.014-.04c.006-.02-.007-.027-.014-.04a.278.278,0,0,1-.027-.061c-.006-.02,0-.027.02-.033s.027.006.027.02a.251.251,0,0,0,.034.074.186.186,0,0,0,.087.033c.034,0,.067.06.074.08a.176.176,0,0,1-.014.081c-.013.02-.006.04.02.027a.171.171,0,0,0,.081-.047c.033-.027.04,0,.06.027s.034-.047.04-.074-.013-.027-.02-.047-.027-.027-.04-.04a.06.06,0,0,0-.06-.007c-.02.007,0-.067.006-.087s-.013-.027-.04-.027-.027,0-.04-.027-.013-.013-.067-.027,0-.026.007-.06.107-.013.134-.02.026-.02.026-.04.007-.04.014-.087-.02-.054-.047-.074.06-.081.094-.107.027-.061.033-.1a.041.041,0,0,0-.047-.053.071.071,0,0,1-.087.006c-.06-.02-.06-.006-.107-.006s-.013-.021,0-.034a.214.214,0,0,0,.02-.067.138.138,0,0,1,.067-.054c.027-.006.034-.033.04-.047a.308.308,0,0,1,.02-.047.342.342,0,0,0,.047-.067c.007-.02.068-.02.094-.026a.729.729,0,0,0,.154-.088c.034-.026.027-.02.027-.033s-.02-.007-.06,0-.04-.013-.04-.027-.014-.027-.027-.047-.034,0-.04.014a.5.5,0,0,1-.047.04c-.027.02-.02.047-.047.08s-.061-.047-.074-.067-.007-.006-.007-.047-.067-.013-.087-.013a.024.024,0,0,1-.026-.034c0-.02.06-.027.087-.033s.033.013.046.02a.51.51,0,0,0,.054.027.128.128,0,0,0,.067.006c.02,0,.034-.02.04-.033s-.006-.034-.026-.047-.027-.06-.041-.094-.094-.06-.127-.067-.047.02-.074.04-.04-.006-.047-.033.027-.047.041-.074-.047-.033-.067-.047.006-.06.006-.08.02-.014.041-.014.033.027.06.047.047.034.06.04.02-.02.02-.033a.148.148,0,0,1,.02-.047.156.156,0,0,0,.014-.06.1.1,0,0,1,.06-.067c.034-.007.014.06,0,.073s0,.041,0,.054a.12.12,0,0,1,0,.054c-.007.04.02.033.04.033a.121.121,0,0,1,.047.014c.02.006.027-.027.027-.041s.027-.04.027-.053-.007-.041-.007-.067.054-.014.067-.007.02-.007.06-.007-.006.061-.026.081a.439.439,0,0,0-.047.1.218.218,0,0,1-.081.074.124.124,0,0,0-.06.08c-.013.034,0,.041.027.041a.17.17,0,0,0,.094-.061.969.969,0,0,1,.12-.093c.02-.007.014-.014.027.006s.027.007.04-.013a.087.087,0,0,0-.013-.067c-.013-.027.007-.041.02-.054s-.007-.04-.013-.067-.027-.02-.047-.034a.15.15,0,0,1-.054-.073c-.007-.02.067-.074.094-.087a.077.077,0,0,1,.054-.007.058.058,0,0,0,.053-.013c.02-.021.02-.088.02-.108V39.49c0-.02-.02-.026-.033-.053s.054.02.074.027h.046c.021,0,.034-.014.041-.04s.013-.007.033-.027,0-.014-.006-.014-.027,0-.047-.013-.014-.034-.014-.054-.027-.027-.047-.013-.047-.027-.067-.034-.04.007-.067.041-.027,0-.027-.054.027-.034.047-.034.02-.006.047-.013.034.013.047.027a.065.065,0,0,0,.034.02.323.323,0,0,0,.044-.01l.022.057c.007.013.1.04.114.027a.124.124,0,0,0,.02-.088c0-.033,0-.04.021-.06s.006-.033-.014-.047-.02-.02-.007-.033.007-.02.014-.047.027-.014.04-.007a.4.4,0,0,1,.047.02c.034.014.04-.006.034-.047a.187.187,0,0,1,.006-.067.062.062,0,0,0,.014-.047c0-.02-.007-.04-.027-.027s-.013.014-.04.007a.066.066,0,0,1-.047-.047.046.046,0,0,0-.034-.053c-.033-.014,0-.034.04-.041s.047-.026.047-.053-.006-.02.007-.054c.034-.074.067-.094.067-.134s.034-.074.074-.107a.1.1,0,0,0,.04-.1c0-.033-.047-.04-.094-.047s-.073-.053-.1-.073-.034-.027.006-.027a.128.128,0,0,1,.074.02.2.2,0,0,0,.107,0c.041-.014.047,0,.074.013s.047-.006.067-.04a.1.1,0,0,0,.007-.094.067.067,0,0,1,.04-.087.057.057,0,0,0,.047-.04.145.145,0,0,0,.034-.074c0-.027-.041-.054-.081-.067s-.013-.04-.013-.04a.627.627,0,0,1,.073.006c.047.007.041-.006.041-.02a.053.053,0,0,1,.027-.053c.02-.014.02-.02.013-.04s.027-.007.027-.007.006.013.04.027.033.033.007.04-.021.027,0,.04a.049.049,0,0,1,.026.047c0,.027,0,.02.02.04s-.006.041-.04.041-.033,0-.04.033a.081.081,0,0,1-.053.06c-.027.007-.021.014-.007.041a.1.1,0,0,1,.02.067c0,.04.027.026.047,0s.053-.021.08-.034a.041.041,0,0,0,0-.074c-.027-.02-.027-.04,0-.067s.047.007.074.034.027.007.047-.014.02-.053,0-.046-.02.006-.013-.021.006-.033.04-.06.027-.06.027-.094.013-.04.04-.033h.073c.047,0,.047.02.047.067s.027.047.041.02.013-.02.013-.047a.127.127,0,0,1,.007-.054c.006-.02,0-.033-.027-.02s-.04,0-.04-.027-.007-.02-.02-.06-.021-.04-.021-.067a.072.072,0,0,1,.027-.06c.02-.014.041-.027.027-.041s-.02-.02-.047.007-.04.013-.053-.02a.639.639,0,0,1-.034-.074.145.145,0,0,0-.067-.074c-.033-.013-.027-.026,0-.033a.127.127,0,0,0,.047-.007.069.069,0,0,0,.067-.026c.02-.027.02-.014.047-.021s.027-.02.027-.053,0-.034.033-.047.014-.02,0-.034-.006-.027-.027-.033a.044.044,0,0,1-.033-.034.061.061,0,0,0-.067-.027c-.027.007-.047.014-.047-.006-.007-.041-.074-.027,0-.074.013-.007.007.007.013.02s.021.02.047.013.034.007.061.021.047,0,.06-.027-.013-.047-.034-.06-.013-.034.007-.041.02-.02,0-.02-.08-.067-.087-.08-.033-.027-.08-.027-.027.02-.094.027c-.014,0-.074-.081-.041-.081s.027.007.054,0,.027-.047.027-.06c-.007-.054.033-.074.047-.1s.027-.013.027.007a.3.3,0,0,0,.033.087c.02.054.074.02.094.007a.094.094,0,0,1,.04-.02c.02-.007.047-.014.034-.047-.061-.087-.034-.248,0-.181.006.02.027.027.047.04s.02.013.013.06a.619.619,0,0,1,0,.114c-.007.061.054.027.107-.006a.112.112,0,0,0,.061-.094.278.278,0,0,0-.094-.141.028.028,0,0,1-.007-.047s.027-.02.047-.033.014-.034-.007-.041-.02-.04-.04-.06-.013-.033.007-.054.02-.033.04-.046.014-.027,0-.034-.02-.027-.047-.02a.4.4,0,0,0-.08.007c-.047.006-.054.026-.081.067a.11.11,0,0,1-.074.08.762.762,0,0,1-.107.06c-.067.054-.094.061-.107.034-.02-.007-.034.007-.067.067-.02.033-.034.02-.034,0a.176.176,0,0,1,.007-.06c.007-.021.007-.054.034-.061s.033-.033.06-.007c.047.014.054.007.087-.026A.53.53,0,0,1,60.984,36c.04-.014.047-.04.067-.081a.2.2,0,0,1,.054-.087c.033-.027.04-.027.033-.08,0-.027.061-.094.1-.107a.237.237,0,0,0,.087-.047.355.355,0,0,1,.06-.027.045.045,0,0,0,.034-.054c-.007-.02-.007-.033-.027-.02a.274.274,0,0,1-.067.02c-.04.007-.047-.007-.073-.04s-.047-.02-.061-.007-.013.034-.047.034a1.084,1.084,0,0,1-.127-.041,1.145,1.145,0,0,1-.2-.08.683.683,0,0,1-.134-.154c-.02-.027-.06-.06-.087-.094a.713.713,0,0,0-.228-.1.315.315,0,0,0-.174.067.485.485,0,0,1-.1.081c-.04.02-.047.054-.06.087s-.04.054-.074.054a.289.289,0,0,0-.107.04.124.124,0,0,1-.1-.014c-.021-.013-.021-.013-.027.021s-.007.033-.034.02-.02-.02-.013-.041.006-.046-.014-.066-.013-.068-.006-.121-.094-.067-.134-.067-.067.033-.1.087a.192.192,0,0,1-.107.074.252.252,0,0,1-.094.006s.027-.013.06-.026.054-.041.094-.074.047-.054.081-.087a.168.168,0,0,1,.1-.047.368.368,0,0,1,.127-.007c.061,0,.061.02.1.054s.08,0,.121-.027a.329.329,0,0,0,.073-.054c.027-.02.027-.053.02-.107a.153.153,0,0,1,.027-.114.128.128,0,0,1,.1-.06c.054-.007.067-.027.067-.047s0-.027.027-.054a.149.149,0,0,1,.067-.019.127.127,0,0,0,.047.066.078.078,0,0,0,.08.013.144.144,0,0,0,.047-.006c.061-.014.262-.074.262-.074l-.014-.047s-.194.06-.254.074a.133.133,0,0,1-.041.006c-.02,0-.026-.006-.053-.02s-.022-.023-.029-.046a.247.247,0,0,0,.089-.047.334.334,0,0,0,.054-.061c.006-.013.006-.04.02-.053a.817.817,0,0,0,.073-.054.149.149,0,0,1,.088-.034h.16c.041,0,.114,0,.128-.02a.212.212,0,0,0,.033-.1.368.368,0,0,0-.006-.094c-.007-.013-.054-.081-.067-.1s-.094-.154-.128-.187a1.843,1.843,0,0,0-.167-.134c-.02-.014-.114-.047-.134-.061s-.081-.047-.1-.053a.79.79,0,0,0-.094-.034l0,0v-.007c.009-.012.024-.018.024-.035a.168.168,0,0,0-.02-.074.372.372,0,0,0-.12-.134c-.034-.027-.074-.054-.1-.074a.175.175,0,0,1-.04-.04c0-.007-.007,0,0-.007.06-.053.1-.107.154-.107.007,0,.013.007.027.007a.381.381,0,0,1,.053.027c.027.013.021.04.054.067a1.092,1.092,0,0,0,.255.087.784.784,0,0,0,.241.053h.054s.006,0,.013-.02-.013-.02-.013-.02h-.047c-.06,0-.054,0-.228-.054a.8.8,0,0,1-.241-.08c-.007,0-.014-.033-.054-.067a.3.3,0,0,0-.067-.033.081.081,0,0,0-.04-.007c-.087,0-.134.074-.181.114a.046.046,0,0,0-.02.04c.006.067.087.1.154.154a.431.431,0,0,1,.107.121.142.142,0,0,1,.02.053v0a.129.129,0,0,1-.052-.063.151.151,0,0,0-.061-.087,1.49,1.49,0,0,0-.174-.114.464.464,0,0,0-.181-.04.1.1,0,0,1-.094-.014.188.188,0,0,0-.08-.047c-.041-.013-.014-.04.006-.04s.034-.026.021-.047a1.271,1.271,0,0,0-.081-.12c-.034-.047-.074-.027-.141-.014a.308.308,0,0,1-.14-.006c-.047-.007-.047.013-.047.047s-.021.04-.047.047a.4.4,0,0,0-.074.013c-.04.013-.081.02-.067.007s.047-.054.074-.081a1.206,1.206,0,0,1,.14-.127c.034-.02.094,0,.141,0a.162.162,0,0,1,.06.006c.027.007.041.027.081.034s.033.013.074.033.067.047.127.088.027.06.027.1.047.02.08.007.04.02.074.033.047,0,.067-.026.02-.027.04-.027.041-.02.061-.034a.146.146,0,0,1,.08-.02c.04,0,.054.007.087.007a.3.3,0,0,1,.108.047.221.221,0,0,0,.1.033.628.628,0,0,1,.161.067c.047.02.06.02.114.041a.1.1,0,0,0,.107-.034c.014-.02,0-.04-.02-.067s-.013-.047-.013-.08a.119.119,0,0,0-.047-.094.1.1,0,0,1-.04-.074.221.221,0,0,0-.074-.087.96.96,0,0,0-.148-.081.633.633,0,0,0-.194-.033c-.04,0-.04-.034-.047-.054a.039.039,0,0,0-.054-.027c-.02.014-.027.007-.047-.006a.043.043,0,0,1,.007-.054l.007-.06a.322.322,0,0,1-.007-.121c0-.054-.04-.054-.06-.06s-.04-.02-.081-.034-.087-.027-.141-.04a.657.657,0,0,0-.14-.02c-.034,0-.034.007-.047-.02s-.007-.02-.034-.041a.166.166,0,0,0-.094-.026c-.033,0-.013-.02-.02-.041s0-.033.02-.026.014-.027,0-.047a.178.178,0,0,1-.013-.061.043.043,0,0,0-.034-.046c-.02-.007-.02-.021-.02-.047s0-.041.027-.047.04-.021.04-.054a.109.109,0,0,0-.033-.08.117.117,0,0,1-.027-.067c0-.027.007-.041-.013-.061s-.034-.02-.067-.02-.047-.013-.047-.04.013-.02.006-.034a.979.979,0,0,1-.06-.08c-.02-.02-.007-.04,0-.061a.12.12,0,0,0-.027-.087.045.045,0,0,0-.053-.02c-.027.007-.034-.013-.047-.047a1.342,1.342,0,0,0-.034-.14c-.013-.041-.02-.081-.033-.121a.2.2,0,0,0-.088-.107c-.026-.014-.013-.041,0-.067s-.013-.054-.04-.074a.1.1,0,0,1-.02-.074c0-.02-.013-.027-.033-.013s-.007-.014,0-.047-.014-.047-.04-.087-.021-.034-.027-.061a.149.149,0,0,0-.034-.073.248.248,0,0,1-.047-.061c-.02-.033-.02-.053-.04-.074s-.02-.06-.034-.1a.468.468,0,0,0-.04-.141.235.235,0,0,0-.107-.08.359.359,0,0,0-.08-.027.17.17,0,0,1-.1-.04c-.034-.021-.04-.034-.081-.034a.147.147,0,0,1-.087-.027.127.127,0,0,0-.067-.006c-.02.013-.033.006-.04-.007s-.027-.02-.027-.02c-.013-.02-.047-.027-.094-.014s-.053.027-.073.054-.02.027-.061.027-.02-.034.007-.04.08-.047.08-.067-.013-.034-.046-.054-.081-.047-.114-.06a.044.044,0,0,1-.027-.061c.007-.02,0-.04-.034-.04a.12.12,0,0,1-.08-.034c-.027-.02-.047-.026-.067,0s-.02.034-.047.021a.681.681,0,0,1-.094-.074.1.1,0,0,1-.013-.114.142.142,0,0,0,0-.071l.028-.047.005,0a.147.147,0,0,1,.127-.06v-.047c-.04,0-.063.03-.094.047l.008-.014c.013-.02.026-.02.06-.033a.125.125,0,0,0,.067-.06.247.247,0,0,0,.007-.1.209.209,0,0,1,.02-.094.185.185,0,0,1,.067-.08c.047-.041.047-.061.04-.081s.047,0,.074,0,.006-.047.013-.08.027-.067.034-.1-.02-.06-.034-.087.027-.04.047-.054a.184.184,0,0,0,.054-.046c.013-.02.04-.027.033.02s.047.006.067-.014a.059.059,0,0,1,.047-.026c.047-.014.067-.047.04-.068s-.02-.033,0-.053-.04-.034-.026-.061.04-.013.067.014.067.007.053-.014a.119.119,0,0,1,.007-.067c.007-.02.034-.053-.007-.087s0-.047.034-.053.06-.041.1-.067-.006.02,0,.04.014.04.034-.02.08-.087.074-.108c-.007-.047-.067.007-.1.021s-.047-.034,0-.068.027-.046-.047-.04a.071.071,0,0,1-.087-.08.475.475,0,0,0,0-.1c-.007-.04.04-.006.074-.026s.04-.014.04.006.02.067.074.04.006-.06.006-.1.061-.04.047-.02,0,.033.034.067-.02.08-.054.161.04.06.134.04.094-.121.2-.107.107-.014.114-.02a.2.2,0,0,0-.054-.114c-.04-.047-.027-.1.02-.114s.007-.061-.02-.1.007-.067.007-.094a.051.051,0,0,1,.047-.053c.026,0,.073.006.073.053s.021.054.061.081.027-.041,0-.074-.027-.06.013-.054.04,0,.034-.02a.07.07,0,0,1,0-.074c.02-.04.006-.033-.027-.02s-.047.027-.06-.027-.041-.04-.088.014-.047,0-.027-.061.061-.053.115-.053.08.013.053.047.007.06.074.033-.02-.033,0-.073.027-.02.04.006.034.027.04,0,.04-.026.04-.087.054-.053.034-.02.04.02.067,0a.128.128,0,0,1,.087-.033.055.055,0,0,0,.061-.047c.006-.027.033-.027.06-.054s-.007-.04-.027-.094.034-.053.047-.013.034.033.047.013a.084.084,0,0,1,.054-.04c.026-.007.047,0,.02.027s-.087.067-.108.087.021.033.047.007.054.006.067.02.014.033.047.02.007-.014-.013-.054.013-.06.067-.08.047-.047.047-.081.047-.067.06-.06a.143.143,0,0,0,.094-.02c.047-.027.013-.034-.02-.027s-.013-.04,0-.067.047.02.08.007.054.02.034.053.013.054.067.047.047-.053.047-.1.033-.121.067-.121-.007.033-.02.074a.069.069,0,0,0,.047.1c.053.014.02.02-.014.034s-.02.054,0,.067.081,0,.114.007.067-.02.061-.047-.007-.027.027-.02a.2.2,0,0,0,.093-.021c.02-.006.081-.033.041-.073s0-.074.026-.108.007-.053-.006-.033-.034.013-.094.027-.034.053-.047.053.007-.027-.027-.04.007-.027.04-.053,0-.068-.006-.108.033-.053.033-.027.014.027.02,0,.034-.013.047-.006.04.006.027-.027,0-.047.02-.054.02-.027,0-.04-.02-.034-.047-.054-.013-.06,0-.053.027-.02.027-.041a.08.08,0,0,1,.074-.053c.033,0,.026-.047,0-.074s-.114.027-.175.067-.06-.013-.14.007a.116.116,0,0,1-.141-.054c-.02-.033-.027-.02-.054,0s-.047.041-.067-.006c-.04-.074.007-.047.04-.054s.021-.034-.02-.04-.053-.054-.1-.047-.007.053-.047.08-.047.047-.027.081,0,.067-.027.053-.027-.013-.013-.033-.02-.027-.041-.014a.074.074,0,0,1-.066.014c-.027,0-.061,0-.061.027s-.006.033-.033.02-.041-.027-.067-.027-.067-.013-.094.033-.047-.006-.114-.026-.02-.054-.074-.088-.013-.053.02-.053,0-.047-.06-.061-.081-.006-.04.041-.054.04-.054.067-.027-.014-.06-.014-.034,0-.061-.026-.073-.041-.04-.1-.047-.047-.1-.02-.021-.074-.094-.074-.041-.02-.041-.06-.093.007-.127.007a.244.244,0,0,0-.141.033.5.5,0,0,1-.154.1c-.027,0-.08,0-.094.026s-.027.054-.107.061-.087.006-.081.033.034.007.094.034,0,.107-.04.14a1.047,1.047,0,0,0-.114.108.186.186,0,0,1-.127.1c-.081.014-.134.047-.141.074s.054.074.074.114-.114.114-.108.168-.073.067-.18.053a.412.412,0,0,0-.249.047c-.04.027-.113,0-.14.014s-.054.006-.074-.034a.117.117,0,0,0-.094-.054c-.04,0-.074.014-.08-.013s.033,0,.033-.033S57,26,56.942,26s-.047-.026-.04-.046.02-.041-.02-.074-.013-.04.02-.054.04-.08,0-.134a.193.193,0,0,1,.014-.181c.026-.047.093-.06.093-.094s.047-.033.061-.033.047-.04,0-.074A.29.29,0,0,1,57,25.211c-.02-.033-.034-.08-.074-.1s-.053-.054-.08-.121c-.02-.047-.04-.121-.094-.06s-.06.093-.06-.034-.114-.087-.134.013c-.014.068-.047.081-.114.121s-.027-.007-.047-.053-.081-.054-.128,0a.131.131,0,0,1-.187-.014c-.047-.054-.034.04-.041.081a.14.14,0,0,1-.073.134c-.068.047-.047.087-.088.14s-.04.007-.026-.006.02-.034.013-.054a.053.053,0,0,1,.027-.053c.013-.014.04-.034.033-.054s-.094,0-.094-.02.027-.007.054-.014.074-.033.02-.094-.067-.046-.141-.046-.04-.027,0-.041.041-.013.034-.047-.007-.006-.08-.046-.075-.039-.112-.015a.183.183,0,0,0,.024-.019c.013-.02-.014-.061-.034-.081a.866.866,0,0,0-.094-.114c-.006-.013-.026-.06-.033-.073a.5.5,0,0,1-.04-.054.237.237,0,0,0-.068-.074c-.026-.013-.02-.04-.013-.06a.381.381,0,0,0,.013-.094.843.843,0,0,1,.011-.1c0-.012,0-.013,0-.027s.008-.019.011-.03a1.013,1.013,0,0,1,.069-.111.566.566,0,0,0,.061-.127.338.338,0,0,0-.012-.113c0-.005,0-.011,0-.017a.063.063,0,0,1,.023-.055c.006-.008.006-.02.012-.025s.032-.033.058-.065a.264.264,0,0,1,.107-.04s.1-.021.121-.027a.078.078,0,0,1,.067.013c.02.007.054.087.074.114a.37.37,0,0,0,.067.08c.013.021.053.014.067.014a.413.413,0,0,0,.094-.06c.02-.021.067-.067.087-.094s.04-.034.067-.047a.069.069,0,0,1,.067.013c.013,0,.04.007.054.007a.443.443,0,0,0,.08-.02c.02-.007.04-.034.047-.04s.027,0,.047-.007a.261.261,0,0,0,.06-.034c.027-.02.007.021-.006.041a.611.611,0,0,1-.054.06c-.007.007-.007.02.02.007a.762.762,0,0,0,.114-.087.463.463,0,0,0,.06-.128.665.665,0,0,1,.054-.114c.027-.04.06-.08.074-.1a.067.067,0,0,0,0-.061.081.081,0,0,1-.007-.04c0-.02.027-.074.027-.1s-.034-.02-.054-.026.02-.034.034-.034.02-.007.04-.02.013-.06.013-.094a.34.34,0,0,1,.061-.121.21.21,0,0,1,.087-.04c.02-.006.033-.006.047-.02s-.014-.04-.02-.074.047-.067.073-.073.155-.067.175-.081l0,0,.025.038v-.014c0-.008-.016-.021-.021-.032a.029.029,0,0,0,.01-.021.186.186,0,0,0,.031-.02.249.249,0,0,0,.04-.061.085.085,0,0,1,.054-.06.253.253,0,0,0,.1-.04c.014-.014.141-.134.148-.134a.3.3,0,0,1,.107-.047c.04-.007.114-.041.114-.074s0-.08.02-.1.047-.053.054-.06.026-.02.013-.027-.067.007-.054-.02a.445.445,0,0,0,.041-.06.25.25,0,0,1,.04-.074c.02-.02.073-.1.094-.127a.634.634,0,0,0,.053-.087.267.267,0,0,1,.054-.074c.027-.02.074-.034.087-.047s.02-.027,0-.034-.094-.04-.087-.053.027-.02.067-.047.047-.04.067-.054a.346.346,0,0,1,.047-.047.261.261,0,0,0,.06-.06l.027-.047c.007-.013.014-.027.027-.007a.049.049,0,0,0,.047.02c.013,0,.027.007.033-.02s-.006-.06.02-.033.068.06.1.06a.35.35,0,0,0,.087,0c.014-.007.02-.02.047-.013s.054.013.06-.007.014-.034.027-.013.014.053.027.04.02-.027.04-.04.061-.041.047-.067-.033-.041-.033-.074.013-.067.033-.054.061.074.061.047-.014-.08,0-.074a.311.311,0,0,1,.06.067.355.355,0,0,1,.08.161c.007.074-.006.074.014.114a.334.334,0,0,0,.107.094c.027.007.033.013.047.007s.027-.007.033.013a.1.1,0,0,0,.021.087.288.288,0,0,0,.087.094.11.11,0,0,1,.04.108.562.562,0,0,1-.067.127c-.027.04-.074.087-.06.114a.136.136,0,0,1,0,.087c-.007.027-.027.034-.041.047s-.047.02-.04.047,0,.053-.013.06-.02.007-.041.047a.5.5,0,0,1-.04.067s-.04.007-.04.04.02.041.007.061-.061.074-.074.074-.027,0-.047.013a.155.155,0,0,1-.067.047c-.027.013-.114.06-.127.114a.155.155,0,0,0,.02.134c.027.04.074.074.06.107,0,.007-.027-.02-.054-.013a.359.359,0,0,0-.1.06.489.489,0,0,0-.067.027.2.2,0,0,0-.054.1c0,.007.007.021.034.021s.033-.021.074-.027a.153.153,0,0,1,.093.006c.014,0,.02.007.007.021s-.007.02,0,.04-.087-.027-.107-.007-.074.047-.074.067.013.054.027.06.033-.067.04-.073.034-.014.034,0a.2.2,0,0,1-.02.06c.006.013.033.02.06.013s.053-.026.08-.026.034.026.041.026a.141.141,0,0,0,.093,0,.119.119,0,0,0,.074-.04c.007-.013.007-.053.034-.033s.02.013.067.006.107-.047.134-.047.033.021.006.034-.06.047-.08.047-.094-.007-.1.027,0,.067-.02.087a.065.065,0,0,1-.06.027c-.033,0-.08,0-.054.026a.219.219,0,0,0,.041.027s.026,0,0,.02-.061.041-.047.061.02.013.047.013.06.014.04.047-.027.087-.067.121-.087.06-.114.053-.014,0-.027-.006-.034-.034-.06-.02-.054.026-.041.053.02.047.007.067a.212.212,0,0,1-.147.054c-.027,0-.081,0-.074.033s.007.034.027.041.033.006.027.026-.021.034-.007.054a.113.113,0,0,1,.013.06c0,.014-.006.054.014.067s.067.021.067-.02.006-.073.047-.073a.1.1,0,0,0,.067-.021.154.154,0,0,1,.087-.04c.04,0,.094.007.114-.027s.013-.06.067-.06.134,0,.12-.04a.071.071,0,0,0-.053-.054c-.02-.006-.114-.02-.087-.053a.1.1,0,0,1,.073-.041c.02,0,.054.007.061-.02s0-.053.027-.033.046.067.093.094.081.02.068-.014-.007-.033-.021-.053.007-.061.027-.061.007-.007.034-.027a1.025,1.025,0,0,0,.087-.06c.006-.007.033-.007.033-.027l.007-.026-.027-.041c-.013-.02.04-.067.054-.08s.053-.007.067-.04-.027-.081-.007-.1.148-.154.2-.147a.077.077,0,0,0,.087-.041c.014-.02.007-.053.021-.067s.046.034.053.007.04-.04.047-.06.02-.027.04-.047a.516.516,0,0,1,.067-.04c.021-.014.061-.054.088-.074a.917.917,0,0,0,.08-.067c.08-.054.161-.007.188-.007a.057.057,0,0,0,.06-.027.165.165,0,0,0,.014-.074c-.021-.04-.034-.033.006-.073.074-.074.2.047.215.033s.053-.007.073-.04.047-.067.061-.094.033-.094.067-.087.013.007.033.013.041.041.074.047.054-.026.1-.087c.013-.02.033-.04.047-.027s.053.081.08.074a.078.078,0,0,0,.054-.007.467.467,0,0,0,.1-.114.484.484,0,0,0,.02-.08c.007-.02,0-.02.027-.04s.074-.087.081-.094a.086.086,0,0,0,.006-.06.086.086,0,0,1,.014-.068.228.228,0,0,1,.08-.093c.047-.027.081-.1.094-.114a.561.561,0,0,0,.067-.054c.013-.02.027-.027.034-.054s.02-.087.047-.1a.472.472,0,0,1,.147-.087c.047-.007.054-.034.087-.034s.081.034.087-.027.02-.08.081-.12.12-.067.181-.1a.462.462,0,0,0,.154-.114c.033-.047.1-.107.107-.154l0-.01a.364.364,0,0,0,.213.044c.128-.034.2-.369.342-.5a2.084,2.084,0,0,0,.356-.53c.033-.08.113-.08.227-.033s.4.194.564.113.61-.067.663-.207a2.5,2.5,0,0,0,.081-.5c.013-.161-.034-.369.288-.389s.369-.228.436-.308.114-.309.275-.423.12-.59.274-.489.3.027.4.1.235.081.248.007.034-.114-.033-.161-.128-.187-.074-.221a.423.423,0,0,1,.194-.121.452.452,0,0,0,.275-.355c0-.127.014-.3.014-.415a2.189,2.189,0,0,0-.014-.235l-.043.018c0-.009.005-.017,0-.025a5.67,5.67,0,0,1-.114-.637,4.931,4.931,0,0,0-.215-.677c-.02-.094-.114-.328-.013-.442a3.12,3.12,0,0,0,.3-.349c.06-.094.013-.107.214-.094a6.7,6.7,0,0,0,.731.02.475.475,0,0,0,.362-.221c.02-.094-.04-.167-.02-.409s.094-.234.127-.368a1.526,1.526,0,0,1,.087-.456,1.251,1.251,0,0,0,.108-.483,3.073,3.073,0,0,1-.034-.483,3.838,3.838,0,0,0,.02-.476c0-.127-.02-.328.04-.4a2.015,2.015,0,0,0,.255-.476,1.968,1.968,0,0,0-.134-.456C69.432,9.289,69.4,9.209,69.465,9.115Zm-22.676,32.8c-.008-.006-.008,0-.017-.009h0a.231.231,0,0,1,.116.053l0,.005A.474.474,0,0,0,46.789,41.913Zm-7.465-.955c-.034.021-.161.094-.155-.006s-.033-.107-.093-.107a1.18,1.18,0,0,0-.2.073.467.467,0,0,0-.221.148.738.738,0,0,0-.087.127c-.013-.033-.007-.094-.06-.08h0c.054-.014.033.033.047.006a1.037,1.037,0,0,1,.087-.127.435.435,0,0,1,.221-.148,1.744,1.744,0,0,1,.2-.073c.061-.007.107.007.094.107s.121.027.154.007.188-.081.235-.1a.091.091,0,0,0,.06-.094.212.212,0,0,1,.059-.131c.025.017.048.033.015.071a.184.184,0,0,0-.06.134.093.093,0,0,1-.061.094C39.511,40.878,39.357,40.938,39.324,40.958Zm4.894,1.623a.209.209,0,0,0-.029-.048c.01,0,.019.006.027.022l0,.006v0c0,.009.008.013.012.022h0C44.232,42.6,44.229,42.6,44.218,42.581Zm-3.909-4.1c-.008.021-.018.045-.026.067-.029-.04,0-.094.013-.141s.107-.08.161-.1.08.006.127.02.047-.007.107-.02.067-.046.093-.091c.01.026.024.054.015.071-.027.047-.034.08-.094.094s-.054.033-.108.02-.067-.041-.127-.02S40.323,38.424,40.309,38.478Zm-3.246.1c-.005,0-.007-.008-.012-.01.013,0,.012.008.021.017h0Zm-1.46-.563,0,0c.007.008.01,0,.013,0l0,0S35.608,38.022,35.6,38.016Zm5.169-.128c-.014.034-.041.067-.054.094l-.017.031,0,0c-.034-.047-.007-.074.007-.1s.04-.06.053-.094.047.007.094.041.094.013.148.02a.442.442,0,0,0,.147-.034.357.357,0,0,1,.148-.007c.053.007.06.021.093.074l0,.008a.1.1,0,0,0-.1-.054h-.013v.046h.011a.608.608,0,0,0-.125.006.467.467,0,0,1-.148.033c-.06-.006-.107.021-.148-.02S40.785,37.855,40.772,37.888Zm-3.845.755a.074.074,0,0,0-.016-.01.05.05,0,0,0,.034-.006l-.007.012-.006.006ZM23.152,25.1h0a.225.225,0,0,1,.068-.025l-.009,0A.189.189,0,0,0,23.152,25.1Zm.085-.031c.008,0,.011-.006.02-.007-.009,0-.011.005-.019.007ZM42.124,42.743h0c.041-.034.074.04.074.04s.034.02.074.04.114.014.14.041.041.067.074.093a.774.774,0,0,0,.188.108.589.589,0,0,1,.127.067.22.22,0,0,0,.087.03.2.2,0,0,1-.1-.03.589.589,0,0,0-.127-.067.774.774,0,0,1-.188-.108c-.033-.033-.047-.073-.074-.093s-.094-.021-.14-.041a.4.4,0,0,1-.074-.04S42.158,42.732,42.124,42.743Zm-.145-4.01h0l-.007.007Zm.1-.057,0,0-.007,0Zm-.82-.372.015,0-.014,0c-.01,0-.016-.006-.021-.026Zm.118.515a.474.474,0,0,1-.039-.035Zm-.1-.455a.063.063,0,0,0,.023.023.164.164,0,0,0-.031-.009l-.012-.014Zm.2.529c.009.006.019.008.028.013s-.012,0-.017,0Zm.172.043c-.007,0-.014.005-.021.005s-.011-.005-.018-.005Zm.066.072a.993.993,0,0,1-.134,0,.191.191,0,0,1-.071-.033.325.325,0,0,0,.118.033.425.425,0,0,0,.157-.038l-.016.014C41.751,38.99,41.743,39.008,41.717,39.008ZM41.3,43.07a.13.13,0,0,1,.074.014c.04.013.053.054.107.094a.086.086,0,0,0,.067.012.078.078,0,0,1-.08-.012c-.054-.041-.067-.074-.107-.094a.254.254,0,0,0-.074-.014h0v0Zm2.326-4.88,0,0h0l.012,0Zm4.647-1.456c-.034.024-.072.045-.1.028l-.007-.006C48.2,36.749,48.233,36.74,48.268,36.734ZM40.115,26.471c-.029.018-.088.037-.107.062L40,26.525v-.006a.077.077,0,0,1,.023-.02.184.184,0,0,1,.038-.014c.008,0,.006-.01.014-.013l.032-.014,0-.014,0,0C40.109,26.449,40.12,26.469,40.115,26.471Zm-2.233,13.7,0,0Zm1.943-11.505c-.027,0-.076-.012-.105-.012l-.006,0c.034,0,.076,0,.1,0a.061.061,0,0,0,.029-.01l0,.015A.05.05,0,0,1,39.825,28.662Zm-.14.388a.383.383,0,0,1-.146.123.42.42,0,0,0-.044.033c.015-.011.028-.024.043-.033a.542.542,0,0,0,.18-.2.191.191,0,0,1-.017.049Zm.04-.1a.2.2,0,0,0,0-.071.164.164,0,0,1,.007.028.265.265,0,0,1,0,.027Zm.424-.432h-.007s0,0,0,0Zm-.022,0a.067.067,0,0,1-.018,0,.371.371,0,0,0-.08-.015C40.065,28.506,40.1,28.513,40.127,28.519Zm-.19,0,0,0h0Zm.248-.346-.018,0v0c.007-.027.074-.027.114-.034a.133.133,0,0,1,.075.019v0h0l.025.014v-.027l.007,0v.043a.185.185,0,0,0-.1-.033C40.253,28.147,40.2,28.15,40.185,28.169Zm.029-.714.005.011,0,0Zm-9.3-4.784.007.032a.384.384,0,0,1,0,.048c0,.043-.007.087-.01.128C30.9,22.824,30.916,22.751,30.91,22.671Zm.608.452.013.006c-.022.024-.058.051-.052.084C31.459,23.178,31.492,23.149,31.518,23.123Zm.028-.021-.011-.007v0l.011.006ZM30.9,22.6l0-.009.007.011Zm1.178.844,0,0c.006.031.009.075.013.119C32.085,23.515,32.08,23.477,32.075,23.439Zm-4.228-.2-.005-.012a.238.238,0,0,1,.105-.044.081.081,0,0,1,.045.008.175.175,0,0,0-.05.021A.446.446,0,0,1,27.847,23.242Zm.307,1.908-.024.006.011,0Zm.418-.15a.057.057,0,0,1-.055.016c-.006,0-.012,0-.019,0A.237.237,0,0,0,28.572,25ZM28,26.207c-.009,0-.017.006-.026,0l-.014-.008C27.982,26.207,27.991,26.205,28,26.207Zm-2.113-.761a.1.1,0,0,1-.067.025.092.092,0,0,0,.066-.025.093.093,0,0,1,.056-.028A.089.089,0,0,0,25.89,25.446Zm-.491-.275h0a2.62,2.62,0,0,1-.264.01A2.585,2.585,0,0,0,25.4,25.171Zm2.387.9c.032.027.067.062.1.091-.006-.006-.016,0-.021-.011a.228.228,0,0,0-.156-.1c-.015,0-.023-.015-.039-.018A.189.189,0,0,1,27.786,26.07Zm-.255-.048a.452.452,0,0,1-.151-.059c-.018-.01-.034-.021-.051-.032s-.035-.025-.054-.038-.03-.023-.038-.031a.147.147,0,0,0-.107-.068h0l-.006,0c.011-.01.024-.014.045,0,.074.053.188.14.235.174a.36.36,0,0,0,.16.055Zm-.837-.084a.384.384,0,0,0-.029-.027s.011.007.015.011a.186.186,0,0,0,.06.035Zm-.415-.318h0c.02-.011.033-.013.044-.008A.046.046,0,0,0,26.279,25.62Zm-1.936-.589a1.436,1.436,0,0,0-.183.06h0a2.046,2.046,0,0,1,.2-.065Zm.054-.02h0Zm-.749.032c.1-.009.145-.022.173-.021C23.792,25.021,23.748,25.034,23.648,25.043ZM35.712,37.565c-.011.006-.012.022-.017.033C35.7,37.589,35.7,37.568,35.712,37.565Zm.9,1.02a.064.064,0,0,0-.038-.027l-.005-.005A.062.062,0,0,1,36.613,38.585Zm6.347,4.573h.011c.054-.007.074.033.114.053a.147.147,0,0,0,.05.011l0,0a.091.091,0,0,1-.06-.014C43.032,43.2,43.005,43.16,42.96,43.158Zm.674-4.969v-.007l.013,0,.009.007Zm7.645-1.249-.008,0c-.005,0-.009-.006-.014-.007Zm3.317-.586,0,0a.163.163,0,0,1-.123.035Zm2.71,1.064,0,.008c-.016-.012-.029-.027-.044-.039ZM26.881,26c-.007,0-.016,0-.024-.006l.026.005Zm-8.112-1.174h0a.835.835,0,0,1,.1-.013h0A.762.762,0,0,0,18.769,24.828ZM16.333,25l0,0a.126.126,0,0,1,.049-.032h0A.135.135,0,0,0,16.333,25Zm-1.125.291.035.01h0a.194.194,0,0,0-.041.008C15.2,25.306,15.212,25.3,15.208,25.3Zm.244.044h0Zm1.258-.647a.274.274,0,0,1,.068-.037.18.18,0,0,0,.087-.036h0a.175.175,0,0,1-.086.036.311.311,0,0,0-.061.033Zm1.937.261a.285.285,0,0,1-.055.032l-.012.007a.3.3,0,0,0,.067-.04ZM18.56,25a.273.273,0,0,1-.089.012h0A.278.278,0,0,0,18.56,25ZM17.6,24.67a.057.057,0,0,1-.046,0h0a.057.057,0,0,0,.046,0Zm.018-.01a.382.382,0,0,1,.076-.052.45.45,0,0,0-.074.051Zm-.694-.214h0a.165.165,0,0,1,.088-.066A.166.166,0,0,0,16.92,24.446Zm1.783.423,0,.01h0l.005-.011c0-.015.027-.021.047-.029l0,0C18.728,24.851,18.7,24.856,18.7,24.869Zm.49-.227s.007-.007.012-.007-.007.006-.012.007Zm.308.142c.006,0,.016,0,.022,0S19.508,24.787,19.5,24.784Zm2.351.53h0c.007,0,.014,0,.021,0S21.859,25.314,21.852,25.314Zm.721.17c.008,0,.015-.007.024-.005h0c-.009,0-.016,0-.025,0Zm.14.008a.289.289,0,0,0,.029,0h0A.251.251,0,0,1,22.713,25.492Zm.137-.029h0l.014-.008h0Zm.084-.049a.2.2,0,0,0,.024-.026l0-.005a.178.178,0,0,1-.029.032ZM35.811,37.533h0a.1.1,0,0,0,.054-.059l-.012.028-.014.014A.06.06,0,0,1,35.811,37.533Zm8.271,5.087h-.005a.389.389,0,0,1-.083-.014A.644.644,0,0,0,44.082,42.62Zm.357-.461a.111.111,0,0,1,.1.011l0,0a.142.142,0,0,0-.11-.012Zm.121.02c.007.006,0,.011.01.018-.008-.008-.014-.021-.023-.025Zm.114.2.021.014.006.005V42.4h0a.286.286,0,0,1-.048-.035A.064.064,0,0,0,44.674,42.374Zm.114.222a.57.57,0,0,1-.04-.065l.006.01c.027.013.034.02.034.04V42.6Zm.308.052h.014v0a.033.033,0,0,1-.033,0A.043.043,0,0,1,45.1,42.648ZM18.731,33.825c.009.07.018.136.031.2h-.006c-.034,0-.04-.02-.054-.054A.278.278,0,0,1,18.731,33.825Zm2.9,2.322a.07.07,0,0,1-.026-.033Zm12.514,1.72-.008.027-.044-.006a.1.1,0,0,1-.051-.044Zm2.59.792a.073.073,0,0,1,.1-.05l0,0c-.033-.007-.065,0-.087.055a.087.087,0,0,1-.089.052A.1.1,0,0,0,36.736,38.659Zm1.515,2.5h.012a.617.617,0,0,0,.2-.029h0A.523.523,0,0,1,38.251,41.156Zm.248-.041h0l0,0Zm1.133-.647-.007-.006a.56.56,0,0,1,0-.208.1.1,0,0,1,.015.061A1.356,1.356,0,0,0,39.632,40.468Zm.221-1.011c-.047.033-.06.047-.094.033s-.093-.067-.1-.006-.074.134-.067.2a.482.482,0,0,1-.02.174c-.006.046-.023.131-.025.19,0-.015-.011-.025-.016-.043a1.4,1.4,0,0,1,.027-.221,1.193,1.193,0,0,0,.02-.174c-.006-.067.061-.147.068-.2s.073-.007.1.007.04,0,.094-.034a.652.652,0,0,0,.114-.147.089.089,0,0,1,.06-.074c.047-.014.114-.128.148-.161a2.393,2.393,0,0,0,.187-.255c.01-.017,0-.032,0-.049a.113.113,0,0,1,.01.123c-.04.067-.161.221-.188.255s-.094.147-.147.161-.061.073-.061.073A.5.5,0,0,1,39.853,39.457Zm3.509,3.411c.03,0,.063.006.088.007h0C43.426,42.876,43.392,42.87,43.362,42.868Zm1.468-.221.007,0c.007.009.01.01.013.01S44.837,42.653,44.83,42.647Zm.186-.113h0v0h0Zm.151.235s.007.005.013,0l0,.013s.012,0,.015,0-.027.006-.028,0Zm1.14-.622,0,0c.057-.025.06.023.084.062h-.011l0,0C46.359,42.169,46.348,42.136,46.307,42.147Zm.292-.082v0a.187.187,0,0,1,.052-.012A.31.31,0,0,0,46.6,42.065ZM58.792,38.82l0,0h0c0,.007,0,.016-.008.025ZM46.139,42.485l0,0,0,.005Zm.458-.218h0l.06.006h0A.449.449,0,0,1,46.6,42.267Zm.33-.276a.193.193,0,0,1-.035-.023l.007,0a.194.194,0,0,0,.041.027.059.059,0,0,0,.039,0A.054.054,0,0,1,46.927,41.991Zm9.466,2.286c.013-.019.02-.013.026-.007a.166.166,0,0,1,.015.044A.2.2,0,0,1,56.393,44.277Zm2.172-5.142,0,0a.3.3,0,0,0,.044-.054c.008-.011.022-.024.027-.033h0A.309.309,0,0,1,58.565,39.135Zm.172-.117,0-.01L58.751,39S58.742,39.016,58.737,39.018ZM55.554,24.869a.38.38,0,0,1,.041-.033v.027l0,.013h-.011l0,.018c-.007.006-.006.012-.025.015C55.514,24.916,55.541,24.883,55.554,24.869Z"/><path class="cls-1" d="M49.172,49.741a.329.329,0,0,0-.02-.141c-.02-.047-.006-.047-.027-.087l-.033-.067c-.014-.04-.027-.054-.067-.047a.154.154,0,0,1-.107-.02.333.333,0,0,0-.087-.054.122.122,0,0,1-.054-.094c-.007-.04-.027-.026-.027,0a.049.049,0,0,1-.054.054c-.047,0-.093,0-.087.054s.014.067,0,.094-.02.026-.04,0a.089.089,0,0,0-.067-.061.431.431,0,0,1-.094-.053c-.033-.02-.08-.041-.107,0a.086.086,0,0,1-.1.033c-.047-.007-.093-.013-.12.013s-.094.054-.034.054c.04,0,.034.034-.013.027s-.074-.02-.108,0-.033.027-.033.06-.007.047-.027.027-.013-.02-.027-.02,0-.007-.006-.027-.02-.053-.054-.053-.054.013-.074.053-.053.074-.04.014.034-.094.013-.094-.013.006-.026.047-.027.053-.041.026-.02-.026-.04-.02-.027,0-.047-.02a.083.083,0,0,0-.1-.027.318.318,0,0,0-.1.054.109.109,0,0,0-.047.1c.014.027.034.053,0,.053a.1.1,0,0,0-.047.007c-.02.007-.04.007-.047-.02a.069.069,0,0,0-.08-.034c-.04.007-.06.014-.081-.006s-.04-.034-.08,0a.444.444,0,0,1-.114.08c-.047.02-.04.054-.02.087s.053.034.094,0a.174.174,0,0,1,.04-.027c.02-.013.047-.006.034.014-.034.02-.041.047-.034.053s0,.034-.034.021-.04.006-.067.04a.346.346,0,0,1-.113.074.663.663,0,0,0-.1.053.464.464,0,0,0-.1.074c-.033.04-.053.067-.094.074s-.073.053-.093.073-.047.061-.094.061a.087.087,0,0,0-.094.06c-.02.054-.014.081,0,.1s.04.04,0,.073a.193.193,0,0,0-.014.215c.021.033.007.067.007.107a.121.121,0,0,1-.02.087.077.077,0,0,0,.034.1c.04.027.04.08.04.127s.013.054-.007.1a.124.124,0,0,0,.007.127c.027.04.027.034.067.034s.094,0,.114.027a.123.123,0,0,0,.087.053.092.092,0,0,1,.087.047.064.064,0,0,0,.087.034c.047-.007.108-.014.128.04s.047.08.1.053a.143.143,0,0,1,.128-.006.507.507,0,0,0,.127.02c.04.007.107.02.087.06s0,.061.034.027.067-.027.06,0,.04.027.02.054.007.026.027.013a.043.043,0,0,0,.02-.06c-.013-.027-.007-.027.014-.034s.026,0,.046-.013.034.013.041.04.02.027.033,0,.027-.054-.007-.06-.033-.027,0-.027.034-.007.041-.04.013-.047.033-.087.047-.074.067-.047.047.026.087,0a.39.39,0,0,1,.128-.061c.047-.013.073,0,.04.02s-.06.054-.007.067.054,0,.094-.013a.084.084,0,0,0,.06-.094.115.115,0,0,1,.041-.107.562.562,0,0,1,.127-.1.163.163,0,0,1,.134-.047c.054,0,.128,0,.141-.047s.02-.087.06-.1.074-.027.061-.054-.014-.013-.014-.047-.02-.04-.027,0,0,.061-.02.067-.027-.02-.047-.02-.033-.02,0-.033.027-.014.034-.041.007-.013.033-.033.027-.033.027-.074-.006-.067.027-.1.054-.061.04-.074-.013-.014-.013-.047-.007-.02.013-.027.04-.027.047-.08a.164.164,0,0,1,.047-.114.09.09,0,0,0,.054-.067c.006-.041.006-.054.033-.061s.027-.02.034-.047.02-.033.047-.047.067-.04.067-.073-.014-.034-.047-.067-.027-.04.013-.047a.109.109,0,0,0,.094-.034c.02-.027.027,0,.013.014a.054.054,0,0,0-.006.02.027.027,0,0,1-.034.02c-.033-.007-.027.02-.013.054s.006.067.06.006a.863.863,0,0,0,.081-.087.033.033,0,0,1,.053-.013c.034.013.034-.014,0-.041S49.172,49.8,49.172,49.741Z"/><path class="cls-1" d="M62,41.937c-.026-.013-.033-.067-.026-.1s-.088-.02-.088-.02a.168.168,0,0,1-.06,0c-.033-.014-.04-.027-.067-.02s-.04.013-.054-.014-.013-.027-.04-.033-.04-.007-.047-.047-.033-.074-.074-.067a.179.179,0,0,0-.114.047c-.047.04-.093.093-.08.114s.027.053-.007.067-.06.047-.1.047a.125.125,0,0,0-.1.033c-.04.027-.027.047-.08.054a.149.149,0,0,0-.121.1.768.768,0,0,0-.054.114.239.239,0,0,1-.013.061.3.3,0,0,0-.027.094c0,.033.007.066-.02.087s-.007.013-.027.02-.027.02-.04.053-.02.067-.047.067a.046.046,0,0,0-.047.027.089.089,0,0,1-.033.047c-.027.02-.027.047-.027.081a.1.1,0,0,1-.034.093c-.026.027-.04.027-.047.067A.206.206,0,0,1,60.5,43a.2.2,0,0,1-.047.081c-.027.027-.041.047-.034.06a.082.082,0,0,1,.007.047.113.113,0,0,1-.027.074.682.682,0,0,0-.047.08c-.027.054-.033.094-.054.114s-.02.027-.04.067-.02.047-.033.074-.007.04-.027.054a.038.038,0,0,0,.007.067c.033.013.033.026.006.026a.117.117,0,0,0-.08.054.119.119,0,0,0-.027.081c0,.04,0,.053-.027.053s-.047.047-.033.094a.408.408,0,0,1,.04.154.484.484,0,0,0,.007.154c.02.014.033.054,0,.041s-.034-.007-.027.026a.4.4,0,0,1-.007.088.37.37,0,0,0-.013.147c.013.034.02.047,0,.067s-.02.02-.014.04.014.034.007.047.013.02.04.034a.339.339,0,0,0,.067.013c.027,0,.034.014.027.04a.088.088,0,0,0,.02.088c.034.026.047.047.047.073a.071.071,0,0,0,.014.054c.013.02.026.027.026.054s.007.06.027.06.034.013.027.04a.071.071,0,0,0,.027.054.2.2,0,0,1,.047.053c.02.027.013.041-.007.027s-.034-.047-.054-.027.034.041.054.054a.835.835,0,0,0,.161.1c.047.013.1.04.154.06a.243.243,0,0,1,.107.094c.021.033.047.094.074.1a.053.053,0,0,1,.034.074.074.074,0,0,0,.02.074.066.066,0,0,1,.007.067c-.014.033-.021.054.006.08a.083.083,0,0,1,.034.067c0,.027.02.081.04.054a.087.087,0,0,0,.013-.04c.007-.034.034-.027.047-.007s.027.014.047.04.034.027.047.02.007-.026-.007-.046a.107.107,0,0,1-.013-.068.1.1,0,0,1,.034-.073c.02-.027.006-.041,0-.074a.27.27,0,0,0-.014-.1.211.211,0,0,1-.007-.087.141.141,0,0,0-.026-.08c-.021-.04,0-.067.013-.1a.367.367,0,0,0,.027-.107.666.666,0,0,1,.033-.147.309.309,0,0,1,.081-.155c.033-.027.027-.053.073-.067s.047-.02.054-.04.014-.033.02-.047a.1.1,0,0,0,.014-.067.058.058,0,0,1,.033-.067.11.11,0,0,0,.034-.06c.006-.02,0-.034.027-.054s0,0,.026-.034a.162.162,0,0,0,.027-.107c0-.053.027-.06.047-.094a.114.114,0,0,0,.007-.093.112.112,0,0,1,0-.068.179.179,0,0,0,.02-.066c0-.021.007-.021.02-.054a.212.212,0,0,0,.02-.081.205.205,0,0,1,.013-.087.231.231,0,0,0,0-.1.551.551,0,0,1,.007-.148.63.63,0,0,0,.02-.1.739.739,0,0,0,0-.128c0-.08.007-.107.007-.154s.014-.08.014-.121-.021-.053-.034-.087.02-.053.04-.074a.224.224,0,0,0,.04-.073c.007-.027.02-.034.041-.067a.412.412,0,0,0,.047-.094.642.642,0,0,0,.04-.141A.127.127,0,0,1,62,42.708c.02-.026.013-.033.013-.067v-.06a.091.091,0,0,0-.013-.06.676.676,0,0,1-.047-.088.432.432,0,0,1-.034-.194.4.4,0,0,1,.067-.174c.027-.027.067-.06.067-.06v-.054h-.006A.1.1,0,0,1,62,41.937Z"/><path class="cls-1" d="M52.725,46.5h-.02a.247.247,0,0,1-.054-.007l-.013.047a.266.266,0,0,0,.06.007h.034c.027-.007.161-.027.235-.04l-.007-.047C52.879,46.469,52.752,46.489,52.725,46.5Z"/><path class="cls-1" d="M48.033,49.271c.107-.033.308-.013.442-.127a.559.559,0,0,1,.215-.114l-.014-.047a.638.638,0,0,0-.234.121c-.114.094-.3.08-.43.114a.972.972,0,0,1-.221.02c-.114,0-.221-.007-.221-.007v.047c.007,0,.114.014.228.014A1.091,1.091,0,0,0,48.033,49.271Z"/><path class="cls-1" d="M52.564,46.3V46.3a.232.232,0,0,1,.007-.04l-.047-.007a.231.231,0,0,0-.007.047v.013a.254.254,0,0,0,.027.135c0,.006.007.02.014.013l.04-.027c-.007-.007-.014-.013-.014-.02A.316.316,0,0,1,52.564,46.3Z"/><path class="cls-1" d="M53.047,46.443l.007.046s.127-.013.181-.026l-.014-.047A1.756,1.756,0,0,1,53.047,46.443Z"/><path class="cls-1" d="M61.916,34.034a1.689,1.689,0,0,1-.261.18l.007.041a1.477,1.477,0,0,0,.274-.181c.081-.047.134-.074.134-.074l-.02-.04S62,33.987,61.916,34.034Z"/><polygon class="cls-1" points="53.235 46.087 53.236 46.086 53.236 46.086 53.235 46.087"/><path class="cls-1" d="M61.487,34.3a.332.332,0,0,0-.08.013,1.231,1.231,0,0,0-.288.107c-.014.007-.021.007-.027.014s-.061.047-.061.047l.034.033a.689.689,0,0,0,.06-.04c.007-.007.014-.007.02-.013a1.454,1.454,0,0,1,.275-.1.266.266,0,0,1,.074-.013Z"/><polygon class="cls-1" points="53.235 46.081 53.236 46.086 53.242 46.081 53.235 46.081"/><path class="cls-1" d="M53.3,46.141a.259.259,0,0,0-.02-.081l-.039.026a.843.843,0,0,1,.019.128.656.656,0,0,1,.027.135c0,.02,0,.033-.007.04l.04.033a.126.126,0,0,0,.014-.06,1.043,1.043,0,0,0-.027-.141A.4.4,0,0,0,53.3,46.141Z"/><path class="cls-2" d="M49,31a6,6,0,1,0-4.243-1.757A6,6,0,0,0,49,31Z"/><path class="cls-3" d="M49,29a4,4,0,1,0-2.828-1.172A4,4,0,0,0,49,29Z"/><path class="cls-2" d="M32,34a4,4,0,1,0-2.828-1.172A4,4,0,0,0,32,34Z"/><path class="cls-3" d="M32,33a3,3,0,1,0-2.121-.879A3,3,0,0,0,32,33Z"/><path class="cls-4" d="M45.5,42a2.5,2.5,0,1,0-1.768-.732A2.506,2.506,0,0,0,45.5,42Z"/><path class="cls-3" d="M45.6,42.6a3,3,0,1,0-2.122-.879A3,3,0,0,0,45.6,42.6Z"/><rect class="cls-1" x="47.684" y="54.725" width="0.249" height="1.573" transform="translate(-23.53 38.837) rotate(-36.108)"/><rect class="cls-1" x="48.46" y="59.777" width="0.25" height="1.515"/><polygon class="cls-1" points="45.989 68.211 45.808 66.892 46.056 66.858 46.237 68.178 45.989 68.211"/><rect class="cls-1" x="50.956" y="71.188" width="1.441" height="0.25" transform="translate(-18.87 18.595) rotate(-17.301)"/><polygon class="cls-1" points="56.21 66.427 56.016 66.269 56.849 65.24 57.043 65.398 56.21 66.427"/><polygon class="cls-1" points="59.969 61.063 59.729 60.991 60.187 59.478 60.427 59.55 59.969 61.063"/><rect class="cls-1" x="59.953" y="54.208" width="0.25" height="1.653"/><polygon class="cls-1" points="60.367 51.729 60.136 51.632 60.748 50.201 60.978 50.299 60.367 51.729"/><polygon class="cls-1" points="62.263 47.603 62.045 47.481 62.754 46.192 62.972 46.313 62.263 47.603"/><polygon class="cls-1" points="63.585 43.923 63.335 43.905 63.446 42.408 63.696 42.426 63.585 43.923"/></svg>