<svg width="24" height="24" viewBox="0 0 24 24" fill="none" xmlns="http://www.w3.org/2000/svg">
<path d="M2.5 3C2.22386 3 2 3.22386 2 3.5V4.5C2 4.77614 2.22386 5 2.5 5H21.5C21.7761 5 22 4.77614 22 4.5V3.5C22 3.22386 21.7761 3 21.5 3H2.5Z" fill="currentColor"/>
<path d="M6.19133 14.4465L11 9.63788V21.467C11 21.7615 11.2388 22.0003 11.5333 22.0003H12.4667C12.7612 22.0003 13 21.7615 13 21.467V9.61452L17.832 14.4465C18.0403 14.6548 18.378 14.6548 18.5863 14.4465L19.2462 13.7866C19.4545 13.5783 19.4545 13.2406 19.2462 13.0323L12.458 6.2441C12.3362 6.12232 12.1702 6.07174 12.0117 6.09237C11.8531 6.07174 11.6871 6.12232 11.5653 6.2441L4.77712 13.0323C4.56884 13.2406 4.56884 13.5783 4.77712 13.7866L5.43709 14.4465C5.64537 14.6548 5.98305 14.6548 6.19133 14.4465Z" fill="currentColor"/>
</svg>
