<svg width="24" height="24" viewBox="0 0 24 24" fill="none" xmlns="http://www.w3.org/2000/svg">
<path d="M1 4C1 1.79086 2.79086 0 5 0H19C21.2091 0 23 1.79086 23 4V20C23 22.2091 21.2091 24 19 24H5C2.79086 24 1 22.2091 1 20V4Z" fill="#3370FF"/>
<path fill-rule="evenodd" clip-rule="evenodd" d="M17.1986 16.6394C17.5307 16.3776 17.8334 15.997 17.8334 15.5V8.50002C17.8334 8.00305 17.5307 7.62245 17.1986 7.36068C16.8599 7.09374 16.4059 6.87885 15.8969 6.70918C14.8728 6.36782 13.4951 6.16669 12.0001 6.16669C10.5051 6.16669 9.12741 6.36782 8.1033 6.70918C7.5943 6.87885 7.14031 7.09374 6.80158 7.36068C6.46944 7.62245 6.16675 8.00305 6.16675 8.50002V15.5C6.16675 15.997 6.46944 16.3776 6.80158 16.6394C7.14031 16.9063 7.5943 17.1212 8.1033 17.2909C9.12741 17.6322 10.5051 17.8334 12.0001 17.8334C13.4951 17.8334 14.8728 17.6322 15.8969 17.2909C16.4059 17.1212 16.8599 16.9063 17.1986 16.6394ZM7.33341 8.49986C7.33375 7.8556 9.42296 7.33335 12.0001 7.33335C14.5774 7.33335 16.6667 7.85569 16.6667 8.50002C16.6667 9.14435 14.5774 9.66669 12.0001 9.66669C9.42275 9.66669 7.33341 9.14435 7.33341 8.50002C7.33341 8.50001 7.33341 8.5 7.33341 8.49998C7.33341 8.49994 7.33341 8.4999 7.33341 8.49986ZM15.8969 10.2909C16.1729 10.1989 16.4327 10.0936 16.6667 9.97387V12.0002C16.6667 12.0008 16.6667 12.0034 16.665 12.0089C16.663 12.0154 16.6581 12.0283 16.6463 12.0475C16.6215 12.0879 16.571 12.1485 16.4764 12.223C16.2838 12.3748 15.969 12.537 15.5279 12.6841C14.6519 12.9761 13.4046 13.1667 12.0001 13.1667C10.5956 13.1667 9.34826 12.9761 8.47224 12.6841C8.03118 12.537 7.71632 12.3748 7.52372 12.223C7.42913 12.1485 7.37863 12.0879 7.35387 12.0475C7.34206 12.0283 7.33718 12.0154 7.3352 12.0089C7.33351 12.0034 7.33342 12.0007 7.33341 12V9.97387C7.56746 10.0936 7.8273 10.1989 8.1033 10.2909C9.12741 10.6322 10.5051 10.8334 12.0001 10.8334C13.4951 10.8334 14.8728 10.6322 15.8969 10.2909ZM15.8969 13.7909C16.1729 13.6989 16.4327 13.5936 16.6667 13.4739V15.5001C16.6667 15.5006 16.6668 15.5031 16.665 15.5089C16.663 15.5154 16.6581 15.5283 16.6463 15.5475C16.6215 15.5879 16.571 15.6485 16.4764 15.723C16.2838 15.8748 15.969 16.037 15.5279 16.1841C14.6519 16.4761 13.4046 16.6667 12.0001 16.6667C10.5956 16.6667 9.34826 16.4761 8.47224 16.1841C8.03118 16.037 7.71632 15.8748 7.52372 15.723C7.42913 15.6485 7.37863 15.5879 7.35387 15.5475C7.34206 15.5283 7.33718 15.5154 7.3352 15.5089C7.33341 15.5031 7.33341 15.5005 7.33341 15.5V13.4739C7.56746 13.5936 7.8273 13.6989 8.1033 13.7909C9.12741 14.1322 10.5051 14.3334 12.0001 14.3334C13.4951 14.3334 14.8728 14.1322 15.8969 13.7909Z" fill="white"/>
</svg>
