<svg width="24" height="24" viewBox="0 0 24 24" fill="none" xmlns="http://www.w3.org/2000/svg">
<path d="M11.9858 11L10.5036 9.51778C10.3083 9.32252 10.3083 9.00594 10.5036 8.81067L11.2107 8.10357C11.4059 7.90831 11.7225 7.90831 11.9178 8.10357L15.4749 11.6607C15.6701 11.8559 15.6701 12.1725 15.4749 12.3678L11.9393 15.9033C11.7441 16.0986 11.4275 16.0986 11.2322 15.9033L10.5251 15.1962C10.3299 15.0009 10.3299 14.6844 10.5251 14.4891L12.0142 13H2.5C2.22386 13 2 12.7762 2 12.5V11.5C2 11.2239 2.22386 11 2.5 11H11.9858ZM4 4V9H2V3C2 2.49625 2.47102 2 3 2H21C21.529 2 22 2.49625 22 3V21C22 21.5037 21.529 22 21 22H3C2.47102 22 2 21.5037 2 21V15H4V20H20V4H4Z" fill="currentColor"/>
</svg>
