<svg width="24" height="24" viewBox="0 0 24 24" fill="none" xmlns="http://www.w3.org/2000/svg">
<path d="M9.09999 2.45287C9.13197 2.21307 8.94542 2 8.7035 2H7.4483C7.24782 2 7.07831 2.14841 7.05181 2.34714L6.61336 5.63553H2.52826C2.30734 5.63553 2.12826 5.81461 2.12826 6.03553V7.29781C2.12826 7.51872 2.30734 7.69781 2.52826 7.69781H6.33839L5.36891 14.9689H1.19492C0.974008 14.9689 0.794922 15.1479 0.794922 15.3689V16.6311C0.794922 16.8521 0.974009 17.0311 1.19492 17.0311H5.09394L4.49181 21.5471C4.45984 21.7869 4.64639 22 4.8883 22H6.1435C6.34398 22 6.5135 21.8516 6.53999 21.6529L7.15622 17.0311H9.00006C9.00002 17.0208 9 17.0104 9 17C9 16.2982 9.09037 15.6175 9.26012 14.9689H7.43119L8.40067 7.69781H15.6707L15.4778 9.14463C15.9706 9.04971 16.4795 9 17 9C17.1872 9 17.3729 9.00643 17.5568 9.01908L17.733 7.69781H21.7283C21.9492 7.69781 22.1283 7.51872 22.1283 7.29781V6.03553C22.1283 5.81461 21.9492 5.63553 21.7283 5.63553H18.008L18.4323 2.45287C18.4643 2.21307 18.2778 2 18.0359 2H16.7807C16.5802 2 16.4107 2.14841 16.3842 2.34714L15.9457 5.63553H8.67564L9.09999 2.45287Z" fill="#04B49C"/>
<path d="M11 17C11 13.6863 13.6863 11 17 11C20.3138 11 23 13.6863 23 17C23 20.3138 20.3138 23 17 23C16.6389 23 16.2853 22.9681 15.9417 22.907C15.9517 22.8915 15.9595 22.8744 15.9649 22.856L16.1362 22.267L17.2177 17.3297H20.2439C20.2958 17.3297 20.3456 17.3091 20.3823 17.2724C20.419 17.2357 20.4396 17.1859 20.4396 17.134V16.2066C20.4396 16.1547 20.419 16.105 20.3823 16.0683C20.3456 16.0316 20.2958 16.011 20.2439 16.011H17.5065L17.734 14.9725C17.9231 14.3222 18.5395 13.8726 19.2418 13.8726H20.1867C20.2386 13.8726 20.2883 13.852 20.325 13.8153C20.3617 13.7786 20.3824 13.7288 20.3824 13.6769V12.7781C20.3824 12.7262 20.3617 12.6764 20.325 12.6397C20.2883 12.603 20.2386 12.5824 20.1867 12.5824H19.2418C17.9375 12.5824 16.7928 13.4175 16.4416 14.6251L16.1319 16.011H13.4924C13.4405 16.011 13.3908 16.0316 13.3541 16.0683C13.3174 16.105 13.2967 16.1547 13.2967 16.2066V17.134C13.2967 17.1859 13.3174 17.2357 13.3541 17.2724C13.3908 17.3091 13.4405 17.3297 13.4924 17.3297H15.8372L14.7726 22.0932L14.6468 22.521C12.5028 21.6059 11 19.4784 11 17Z" fill="#04B49C"/>
</svg>
