<svg width="18" height="18" viewBox="0 0 18 18" fill="" xmlns="http://www.w3.org/2000/svg">
<path d="M9.83333 4.83335H12.75C12.9801 4.83335 13.1667 5.0199 13.1667 5.25002V6.08335C13.1667 6.31347 12.9801 6.50002 12.75 6.50002H9.83333V12.75C9.83333 12.9801 9.64678 13.1667 9.41667 13.1667H8.58333C8.35321 13.1667 8.16667 12.9801 8.16667 12.75V6.50002H5.25C5.01988 6.50002 4.83333 6.31347 4.83333 6.08335V5.25002C4.83333 5.0199 5.01988 4.83335 5.25 4.83335H8.16667C8.16667 4.83335 9.83333 4.85696 9.83333 4.83335Z" fill=""/>
<path fill-rule="evenodd" clip-rule="evenodd" d="M0.666666 1.50002C0.666666 1.03978 1.03976 0.666687 1.5 0.666687H16.5C16.9602 0.666687 17.3333 1.03978 17.3333 1.50002V16.5C17.3333 16.9603 16.9602 17.3334 16.5 17.3334H1.5C1.03976 17.3334 0.666666 16.9603 0.666666 16.5V1.50002ZM2.33333 15.6667V2.33335H15.6667V15.6667H2.33333Z" fill=""/>
</svg>
