<svg width="40" height="40" viewBox="0 0 40 40" fill="none" xmlns="http://www.w3.org/2000/svg">
  <g clip-path="url(#clip0_7277_272394)">
    <path d="M0 6.66667C0 2.98477 3.25611 0 7.27273 0H32.7273C36.7439 0 40 2.98477 40 6.66667V33.3333C40 37.0152 36.7439 40 32.7273 40H7.27273C3.25611 40 0 37.0152 0 33.3333V6.66667Z" fill="#FFF3E5"/>
    <g clip-path="url(#clip1_7277_272394)">
      <path d="M14.7474 21.6382C14.7785 21.7131 14.824 21.7812 14.8814 21.8385L18.3726 25.3304L18.4311 25.3822C18.6733 25.5696 19.0237 25.5526 19.2459 25.3304L25.3563 19.2193C25.472 19.1035 25.537 18.9466 25.537 18.783C25.537 18.6193 25.472 18.4624 25.3563 18.3467L24.4837 17.4733C24.4264 17.4159 24.3583 17.3704 24.2834 17.3393C24.2084 17.3082 24.1281 17.2923 24.047 17.2923C23.9659 17.2923 23.8856 17.3082 23.8106 17.3393C23.7357 17.3704 23.6676 17.4159 23.6103 17.4733L18.8096 22.2748L16.6266 20.0926C16.5109 19.9769 16.354 19.9119 16.1903 19.9119C16.0267 19.9119 15.8697 19.9769 15.754 20.0926L14.8814 20.9652C14.824 21.0225 14.7785 21.0906 14.7474 21.1655C14.7164 21.2404 14.7004 21.3207 14.7004 21.4019C14.7004 21.483 14.7164 21.5633 14.7474 21.6382Z" fill="#FF8800"/>
      <path d="M24.4442 7.77777H15.5553C14.8739 7.77777 14.4442 8.2074 14.4442 8.88888V9.99999H11.1111C10.3489 9.99999 10 10.4296 10 11.1111V31.1111C10 31.7933 10.3489 32.2222 11.1111 32.2222L28.8889 32.2222C29.6511 32.2222 30 31.7926 30 31.1111V11.1111C30 10.4289 29.6511 9.99996 28.8889 9.99996L25.5556 9.99999V12.2222H27.7778V30H12.2222V12.2222H14.4442V13.3333C14.4442 14.0148 14.8739 14.4444 15.5553 14.4444H24.4442C25.1257 14.4444 25.5553 14.0148 25.5553 13.3333V8.88888C25.5553 8.20666 25.1257 7.77777 24.4442 7.77777ZM16.6664 12.2222V9.99999H23.3331V12.2222H16.6664Z" fill="#FF8800"/>
    </g>
  </g>
  <defs>
    <clipPath id="clip0_7277_272394">
      <rect width="40" height="40" fill="white"/>
    </clipPath>
    <clipPath id="clip1_7277_272394">
      <rect width="26.6667" height="26.6667" fill="white" transform="translate(6.66675 6.66669)"/>
    </clipPath>
  </defs>
</svg>
