<svg width="14" height="14" viewBox="0 0 14 14" fill="none" xmlns="http://www.w3.org/2000/svg">
<g id="icon_new-item_outlined">
<path id="Vector" d="M12.2493 1.16602C12.4041 1.16602 12.5524 1.22747 12.6618 1.33687C12.7712 1.44627 12.8327 1.59464 12.8327 1.74935V12.2493C12.8327 12.4041 12.7712 12.5524 12.6618 12.6618C12.5524 12.7712 12.4041 12.8327 12.2493 12.8327H1.74935C1.59464 12.8327 1.44627 12.7712 1.33687 12.6618C1.22747 12.5524 1.16602 12.4041 1.16602 12.2493V1.74935C1.16602 1.59464 1.22747 1.44627 1.33687 1.33687C1.44627 1.22747 1.59464 1.16602 1.74935 1.16602H12.2493ZM11.3743 2.33268H2.62435C2.55291 2.33269 2.48396 2.35892 2.43057 2.40639C2.37719 2.45386 2.34308 2.51928 2.33472 2.59022L2.33268 2.62435V11.3743C2.33269 11.4458 2.35892 11.5147 2.40639 11.5681C2.45386 11.6215 2.51928 11.6556 2.59022 11.664L2.62435 11.666H11.3743C11.4458 11.666 11.5147 11.6398 11.5681 11.5923C11.6215 11.5448 11.6556 11.4794 11.664 11.4085L11.666 11.3743V2.62435C11.666 2.54699 11.6353 2.47281 11.5806 2.41811C11.5259 2.36341 11.4517 2.33268 11.3743 2.33268ZM7.29102 4.08268C7.32932 4.08268 7.36724 4.09023 7.40263 4.10488C7.43802 4.11954 7.47017 4.14103 7.49725 4.16811C7.52434 4.19519 7.54582 4.22735 7.56048 4.26273C7.57514 4.29812 7.58268 4.33605 7.58268 4.37435V6.41602H9.62435C9.66265 6.41602 9.70058 6.42356 9.73597 6.43822C9.77135 6.45288 9.8035 6.47436 9.83059 6.50144C9.85767 6.52853 9.87916 6.56068 9.89381 6.59607C9.90847 6.63145 9.91602 6.66938 9.91602 6.70768V7.29102C9.91602 7.32932 9.90847 7.36725 9.89381 7.40263C9.87916 7.43802 9.85767 7.47017 9.83059 7.49726C9.8035 7.52434 9.77135 7.54582 9.73597 7.56048C9.70058 7.57514 9.66265 7.58268 9.62435 7.58268H7.58268V9.62435C7.58268 9.66265 7.57514 9.70058 7.56048 9.73597C7.54582 9.77135 7.52434 9.80351 7.49725 9.83059C7.47017 9.85767 7.43802 9.87916 7.40263 9.89381C7.36724 9.90847 7.32932 9.91602 7.29102 9.91602H6.70768C6.66938 9.91602 6.63145 9.90847 6.59607 9.89381C6.56068 9.87916 6.52853 9.85767 6.50144 9.83059C6.47436 9.80351 6.45288 9.77135 6.43822 9.73597C6.42356 9.70058 6.41602 9.66265 6.41602 9.62435V7.58268H4.37435C4.33605 7.58268 4.29812 7.57514 4.26273 7.56048C4.22735 7.54582 4.19519 7.52434 4.16811 7.49726C4.14103 7.47017 4.11954 7.43802 4.10488 7.40263C4.09023 7.36725 4.08268 7.32932 4.08268 7.29102V6.70768C4.08268 6.66938 4.09023 6.63145 4.10488 6.59607C4.11954 6.56068 4.14103 6.52853 4.16811 6.50144C4.19519 6.47436 4.22735 6.45288 4.26273 6.43822C4.29812 6.42356 4.33605 6.41602 4.37435 6.41602H6.41602V4.37435C6.41602 4.33605 6.42356 4.29812 6.43822 4.26273C6.45288 4.22735 6.47436 4.19519 6.50144 4.16811C6.52853 4.14103 6.56068 4.11954 6.59607 4.10488C6.63145 4.09023 6.66938 4.08268 6.70768 4.08268H7.29102Z" fill="white"/>
</g>
</svg>
