<svg width="24" height="24" viewBox="0 0 24 24" fill="none" xmlns="http://www.w3.org/2000/svg">
<g clip-path="url(#clip0_295_34278)">
<path d="M8.20665 21.4568C8.33926 21.4568 8.46643 21.4041 8.5602 21.3104C8.65397 21.2166 8.70665 21.0894 8.70665 20.9568V2.7068C8.70665 1.8028 7.60265 1.3628 6.98065 2.0193L2.13715 7.1318C2.09196 7.17946 2.05661 7.23556 2.03311 7.29689C2.0096 7.35822 1.99842 7.42358 2.00018 7.48924C2.00194 7.55489 2.01663 7.61956 2.04339 7.67953C2.07015 7.73951 2.10847 7.79363 2.15615 7.8388L2.88665 8.5308C2.98212 8.62126 3.10938 8.67046 3.24087 8.66775C3.37237 8.66504 3.49749 8.61062 3.58915 8.5163L6.79565 5.2163L6.79565 20.9568C6.79565 21.0225 6.80858 21.0875 6.83371 21.1481C6.85884 21.2088 6.89567 21.2639 6.94209 21.3104C6.98852 21.3568 7.04364 21.3936 7.10431 21.4187C7.16497 21.4439 7.22999 21.4568 7.29565 21.4568H8.20665ZM14.7931 21.2068C14.7931 22.1108 15.8971 22.5508 16.5191 21.8943L21.3631 16.7818C21.4083 16.7341 21.4436 16.678 21.4671 16.6166C21.4905 16.5553 21.5017 16.4899 21.4999 16.4243C21.4981 16.3586 21.4833 16.2939 21.4565 16.234C21.4297 16.174 21.3914 16.1199 21.3436 16.0748L20.6181 15.3868C20.5705 15.3416 20.5143 15.3063 20.453 15.2829C20.3916 15.2594 20.3263 15.2483 20.2606 15.2501C20.195 15.2519 20.1303 15.2666 20.0703 15.2934C20.0104 15.3202 19.9563 15.3586 19.9111 15.4063L16.7931 18.6968V2.9568C16.7931 2.82419 16.7405 2.69701 16.6467 2.60324C16.5529 2.50948 16.4258 2.4568 16.2931 2.4568H15.2931C15.1605 2.4568 15.0334 2.50948 14.9396 2.60324C14.8458 2.69701 14.7931 2.82419 14.7931 2.9568L14.7931 21.2068Z" fill="currentColor"/>
</g>
<defs>
<clipPath id="clip0_295_34278">
<rect width="24" height="24" fill="white"/>
</clipPath>
</defs>
</svg>
