<svg width="40" height="40" viewBox="0 0 40 40" fill="none" xmlns="http://www.w3.org/2000/svg">
<path d="M6.66669 4.16667C6.66669 3.24619 7.41288 2.5 8.33335 2.5H24.6548C24.8759 2.5 25.0878 2.5878 25.2441 2.74408L33.0893 10.5893C33.2456 10.7455 33.3334 10.9575 33.3334 11.1785V35.8333C33.3334 36.7538 32.5872 37.5 31.6667 37.5H8.33335C7.41288 37.5 6.66669 36.7538 6.66669 35.8333V4.16667Z" fill="#8F959E"/>
<path d="M25 2.57495C25.09 2.6159 25.1728 2.67292 25.2441 2.74418L33.0893 10.5894C33.1605 10.6606 33.2175 10.7434 33.2585 10.8334H26.6667C25.7462 10.8334 25 10.0872 25 9.16677V2.57495Z" fill="#646A73"/>
<path d="M17.5356 24.1H22.3756L19.9956 17.44H19.9556L17.5356 24.1ZM18.9556 15.72H21.0556L26.6356 30H24.5356L22.9756 25.7H16.9356L15.3356 30H13.3956L18.9556 15.72Z" fill="white"/>
</svg>
