<svg width="32" height="32" viewBox="0 0 32 32"  xmlns="http://www.w3.org/2000/svg">
<path d="M4 2.66666C4 1.93028 4.59695 1.33333 5.33333 1.33333H21.1477C21.3265 1.33333 21.4979 1.40515 21.6232 1.53267L27.8088 7.82587C27.9313 7.95055 28 8.11838 28 8.2932V29.3333C28 30.0697 27.403 30.6667 26.6667 30.6667H5.33333C4.59695 30.6667 4 30.0697 4 29.3333V2.66666Z" fill="#FF8800"/>
<path d="M9.33398 11.3333C9.33398 10.9651 9.63246 10.6667 10.0007 10.6667H22.0007C22.3688 10.6667 22.6673 10.9651 22.6673 11.3333V12.6667C22.6673 13.0349 22.3688 13.3333 22.0007 13.3333H10.0007C9.63246 13.3333 9.33398 13.0349 9.33398 12.6667V11.3333Z" fill="white"/>
<path d="M14.6673 16.6667C14.6673 16.2985 14.9658 16 15.334 16H22.0007C22.3688 16 22.6673 16.2985 22.6673 16.6667V23.3333C22.6673 23.7015 22.3688 24 22.0007 24H15.334C14.9658 24 14.6673 23.7015 14.6673 23.3333V16.6667Z" fill="white"/>
<path d="M10.0007 16C9.63246 16 9.33398 16.2985 9.33398 16.6667V23.3333C9.33398 23.7015 9.63246 24 10.0007 24H11.334C11.7022 24 12.0007 23.7015 12.0007 23.3333V16.6667C12.0007 16.2985 11.7022 16 11.334 16H10.0007Z" fill="white"/>
<path d="M21.334 1.33333C21.4429 1.36489 21.5429 1.424 21.6238 1.50632L27.8094 7.79952C27.8601 7.85104 27.9015 7.90993 27.9327 7.97364H22.8475C22.0116 7.97364 21.334 7.29602 21.334 6.46013V1.33333Z" fill="#D97400"/>
</svg>
