<svg width="24" height="24" viewBox="0 0 24 24" fill="none" xmlns="http://www.w3.org/2000/svg">
<path fill-rule="evenodd" clip-rule="evenodd" d="M10 12C7.24 12 5 9.7615 5 7C5 4.2385 7.24 2 10 2C12.76 2 15 4.2385 15 7C15 9.7615 12.76 12 10 12ZM10 10C11.656 10 13 8.65632 13 7C13 5.34368 11.656 4 10 4C8.34396 4 7 5.34368 7 7C7 8.65632 8.34396 10 10 10ZM1 19C1 15.6865 3.685 13 7 13H13C16.315 13 19 15.6865 19 19V21.5386C19 22.0911 18.55 22.5386 18 22.5386H2C1.45 22.5386 1 22.0911 1 21.5386V19ZM17 19C17 16.7905 15.2098 15 13 15H7C4.79016 15 3 16.7905 3 19V20.5386H17V19ZM17.5 9H22.5C22.7761 9 23 9.22386 23 9.5V10.5C23 10.7761 22.7761 11 22.5 11H17.5C17.2239 11 17 10.7761 17 10.5V9.5C17 9.22386 17.2239 9 17.5 9ZM20.5 13H22.5C22.7761 13 23 13.2239 23 13.5V14.5C23 14.7761 22.7761 15 22.5 15H20.5C20.2239 15 20 14.7761 20 14.5V13.5C20 13.2239 20.2239 13 20.5 13Z" fill="#1F2329"/>
</svg>
