<svg width="24" height="24" viewBox="0 0 24 24" fill="none" xmlns="http://www.w3.org/2000/svg">
<path d="M9.375 16.6836C9.16789 16.6836 9 16.8515 9 17.0586V18.3086C9 18.5157 9.16789 18.6836 9.375 18.6836H16.625C16.8321 18.6836 17 18.5157 17 18.3086V17.0586C17 16.8515 16.8321 16.6836 16.625 16.6836H9.375Z" fill="currentColor"/>
<path d="M9 10.722C9 10.5149 9.16789 10.347 9.375 10.347H19.625C19.8321 10.347 20 10.5149 20 10.722V11.972C20 12.1791 19.8321 12.347 19.625 12.347H9.375C9.16789 12.347 9 12.1791 9 11.972V10.722Z" fill="currentColor"/>
<path d="M9.375 4.01691C9.16789 4.01691 9 4.1848 9 4.39191V5.64191C9 5.84901 9.16789 6.01691 9.375 6.01691H22.625C22.8321 6.01691 23 5.84901 23 5.64191V4.39191C23 4.1848 22.8321 4.01691 22.625 4.01691H9.375Z" fill="currentColor"/>
<path d="M5.98396 21.6856C6.60596 22.3421 7.70996 21.9021 7.70996 20.9981L7.70996 2.74806C7.70996 2.61545 7.65728 2.48827 7.56351 2.3945C7.46975 2.30074 7.34257 2.24806 7.20996 2.24806H6.20996C6.07735 2.24806 5.95018 2.30074 5.85641 2.3945C5.76264 2.48827 5.70996 2.61545 5.70996 2.74806L5.70996 18.4881L3.59196 16.1976C3.54683 16.1498 3.49273 16.1115 3.43277 16.0847C3.37281 16.0579 3.30816 16.0431 3.2425 16.0413C3.17685 16.0395 3.11148 16.0507 3.05013 16.0741C2.98878 16.0976 2.93266 16.1329 2.88496 16.1781L2.15946 16.8661C2.11174 16.9112 2.07339 16.9653 2.04658 17.0252C2.01978 17.0852 2.00505 17.1499 2.00324 17.2155C2.00143 17.2812 2.01257 17.3465 2.03603 17.4079C2.05949 17.4692 2.0948 17.5254 2.13996 17.5731L5.98396 21.6856Z" fill="currentColor"/>
</svg>
