<svg width="24" height="24" viewBox="0 0 24 24" fill="none" xmlns="http://www.w3.org/2000/svg">
<path fill-rule="evenodd" clip-rule="evenodd" d="M7 10C4.23858 10 2 12.2386 2 15C2 17.7614 4.23858 20 7 20H17C19.7614 20 22 17.7614 22 15C22 12.2386 19.7614 10 17 10V8C20.866 8 24 11.134 24 15C24 18.866 20.866 22 17 22H7C3.13401 22 0 18.866 0 15C0 11.134 3.13401 8 7 8V10Z" fill="#1F2329"/>
<path fill-rule="evenodd" clip-rule="evenodd" d="M12 4C9.23858 4 7 6.23858 7 9H5C5 5.13401 8.13401 2 12 2C15.866 2 19 5.13401 19 9H17C17 6.23858 14.7614 4 12 4Z" fill="#1F2329"/>
<path fill-rule="evenodd" clip-rule="evenodd" d="M9.49673 12.566H8.5468L6.78125 17.15H7.80078L8.20278 16.046H9.83475L10.2367 17.15H11.2623L9.49673 12.566ZM9.52727 15.206H8.51088L9.02122 13.8208L9.52727 15.206Z" fill="#1F2329"/>
<path fill-rule="evenodd" clip-rule="evenodd" d="M13.7387 12.566H11.8127V17.15H12.7667V15.482H13.7267C14.2576 15.482 14.6843 15.3692 14.9797 15.1177C15.2797 14.8623 15.4187 14.4861 15.4187 14.018C15.4187 13.553 15.2813 13.1797 14.9834 12.9264C14.6901 12.6772 14.2663 12.566 13.7387 12.566ZM14.4647 14.018C14.4647 14.2521 14.3967 14.3948 14.2979 14.4778C14.187 14.5658 13.9945 14.624 13.6847 14.624H12.7667V13.424H13.6847C13.9892 13.424 14.182 13.4826 14.2929 13.5713L14.2991 13.5757C14.3952 13.6449 14.4647 13.7806 14.4647 14.018Z" fill="#1F2329"/>
<path d="M17.1868 12.566H16.2388V17.15H17.1868V12.566Z" fill="#1F2329"/>
</svg>
