<svg width="24" height="24" viewBox="0 0 24 24" fill="none" xmlns="http://www.w3.org/2000/svg">
<path d="M12 10.7546V5H19.5C19.6326 5 19.7598 4.94732 19.8536 4.85355C19.9473 4.75979 20 4.63261 20 4.5V3.5C20 3.43434 19.9871 3.36932 19.9619 3.30866C19.9368 3.248 19.9 3.19288 19.8536 3.14645C19.8071 3.10002 19.752 3.06319 19.6913 3.03806C19.6307 3.01293 19.5657 3 19.5 3H2.5C2.43434 3 2.36932 3.01293 2.30866 3.03806C2.248 3.06319 2.19288 3.10002 2.14645 3.14645C2.10002 3.19288 2.06319 3.248 2.03806 3.30866C2.01293 3.36932 2 3.43434 2 3.5V4.5C2 4.56566 2.01293 4.63068 2.03806 4.69134C2.06319 4.752 2.10002 4.80712 2.14645 4.85355C2.19288 4.89998 2.248 4.93681 2.30866 4.96194C2.36932 4.98707 2.43434 5 2.5 5H10V13.124C10.5075 12.2094 11.1891 11.4047 12 10.7546Z" fill="#3370FF"/>
<path d="M11 17C11 13.6863 13.6863 11 17 11C20.3138 11 23 13.6863 23 17C23 20.3138 20.3138 23 17 23C16.6389 23 16.2853 22.9681 15.9417 22.907C15.9517 22.8915 15.9595 22.8744 15.9649 22.856L16.1362 22.267L17.2177 17.3297H20.2439C20.2958 17.3297 20.3456 17.3091 20.3823 17.2724C20.419 17.2357 20.4396 17.1859 20.4396 17.134V16.2066C20.4396 16.1547 20.419 16.105 20.3823 16.0683C20.3456 16.0316 20.2958 16.011 20.2439 16.011H17.5065L17.734 14.9725C17.9231 14.3222 18.5395 13.8726 19.2418 13.8726H20.1867C20.2386 13.8726 20.2883 13.852 20.325 13.8153C20.3617 13.7786 20.3824 13.7288 20.3824 13.6769V12.7781C20.3824 12.7262 20.3617 12.6764 20.325 12.6397C20.2883 12.603 20.2386 12.5824 20.1867 12.5824H19.2418C17.9375 12.5824 16.7928 13.4175 16.4416 14.6251L16.1319 16.011H13.4924C13.4405 16.011 13.3908 16.0316 13.3541 16.0683C13.3174 16.105 13.2967 16.1547 13.2967 16.2066V17.134C13.2967 17.1859 13.3174 17.2357 13.3541 17.2724C13.3908 17.3091 13.4405 17.3297 13.4924 17.3297H15.8372L14.7726 22.0932L14.6468 22.521C12.5028 21.6059 11 19.4784 11 17Z" fill="#3370FF"/>
</svg>
