<svg width="24" height="24" viewBox="0 0 24 24" fill="none" xmlns="http://www.w3.org/2000/svg">
<path d="M2.5 4H19.5C19.7761 4 20 4.22386 20 4.5V5.5C20 5.77614 19.7761 6 19.5 6H2.5C2.22386 6 2 5.77614 2 5.5V4.5C2 4.22386 2.22386 4 2.5 4ZM2.5 18H19.5C19.7761 18 20 18.2239 20 18.5V19.5C20 19.7761 19.7761 20 19.5 20H2.5C2.22386 20 2 19.7761 2 19.5V18.5C2 18.2239 2.22386 18 2.5 18ZM2.5 11H13.5C13.7761 11 14 11.2239 14 11.5V12.5C14 12.7761 13.7761 13 13.5 13H2.5C2.22386 13 2 12.7761 2 12.5V11.5C2 11.2239 2.22386 11 2.5 11Z" fill="#1F2329"/>
<path d="M21.4107 12.3072C21.3607 12.3901 21.2913 12.4596 21.2083 12.5096L16.9643 15.0679C16.6829 15.2375 16.3173 15.1469 16.1477 14.8655C16.0918 14.7728 16.0623 14.6667 16.0623 14.5584L16.0622 9.44156C16.0622 9.11302 16.3285 8.84667 16.6571 8.84666C16.7653 8.84666 16.8715 8.87619 16.9642 8.93208L21.2084 11.4906C21.4897 11.6602 21.5803 12.0258 21.4107 12.3072Z" fill="#1F2329"/>
</svg>
