<svg width="16" height="16" viewBox="0 0 16 16" fill="none" xmlns="http://www.w3.org/2000/svg">
<path d="M2.66667 4.00004C3.40305 4.00004 4 3.40309 4 2.66671C4 1.93033 3.40305 1.33337 2.66667 1.33337C1.93029 1.33337 1.33334 1.93033 1.33334 2.66671C1.33334 3.40309 1.93029 4.00004 2.66667 4.00004Z" fill="#646A73"/>
<path d="M2.66667 9.33337C3.40305 9.33337 4 8.73642 4 8.00004C4 7.26366 3.40305 6.66671 2.66667 6.66671C1.93029 6.66671 1.33334 7.26366 1.33334 8.00004C1.33334 8.73642 1.93029 9.33337 2.66667 9.33337Z" fill="#646A73"/>
<path d="M4 13.3334C4 14.0698 3.40305 14.6667 2.66667 14.6667C1.93029 14.6667 1.33334 14.0698 1.33334 13.3334C1.33334 12.597 1.93029 12 2.66667 12C3.40305 12 4 12.597 4 13.3334Z" fill="#646A73"/>
<path d="M8 4.00004C8.73638 4.00004 9.33334 3.40309 9.33334 2.66671C9.33334 1.93033 8.73638 1.33337 8 1.33337C7.26362 1.33337 6.66667 1.93033 6.66667 2.66671C6.66667 3.40309 7.26362 4.00004 8 4.00004Z" fill="#646A73"/>
<path d="M9.33334 8.00004C9.33334 8.73642 8.73638 9.33337 8 9.33337C7.26362 9.33337 6.66667 8.73642 6.66667 8.00004C6.66667 7.26366 7.26362 6.66671 8 6.66671C8.73638 6.66671 9.33334 7.26366 9.33334 8.00004Z" fill="#646A73"/>
<path d="M8 14.6667C8.73638 14.6667 9.33334 14.0698 9.33334 13.3334C9.33334 12.597 8.73638 12 8 12C7.26362 12 6.66667 12.597 6.66667 13.3334C6.66667 14.0698 7.26362 14.6667 8 14.6667Z" fill="#646A73"/>
<path d="M13.3333 4.00004C14.0697 4.00004 14.6667 3.40309 14.6667 2.66671C14.6667 1.93033 14.0697 1.33337 13.3333 1.33337C12.597 1.33337 12 1.93033 12 2.66671C12 3.40309 12.597 4.00004 13.3333 4.00004Z" fill="#646A73"/>
<path d="M14.6667 8.00004C14.6667 8.73642 14.0697 9.33337 13.3333 9.33337C12.597 9.33337 12 8.73642 12 8.00004C12 7.26366 12.597 6.66671 13.3333 6.66671C14.0697 6.66671 14.6667 7.26366 14.6667 8.00004Z" fill="#646A73"/>
<path d="M13.3333 14.6667C14.0697 14.6667 14.6667 14.0698 14.6667 13.3334C14.6667 12.597 14.0697 12 13.3333 12C12.597 12 12 12.597 12 13.3334C12 14.0698 12.597 14.6667 13.3333 14.6667Z" fill="#646A73"/>
</svg>
