<svg width="24" height="24" viewBox="0 0 24 24" fill="none" xmlns="http://www.w3.org/2000/svg">
<path fill-rule="evenodd" clip-rule="evenodd" d="M2.53248 2.53248C2.87342 2.19154 3.33584 2 3.818 2H20.182C20.6642 2 21.1266 2.19154 21.4675 2.53248C21.8085 2.87342 22 3.33584 22 3.818V20.182C22 20.6642 21.8085 21.1266 21.4675 21.4675C21.1266 21.8085 20.6642 22 20.182 22H3.818C2.814 22 2 21.186 2 20.182V3.818C2 3.33584 2.19154 2.87342 2.53248 2.53248ZM4 10V14H8V10H4ZM4 16V20H8V16H4ZM10 20H14V16H10V20ZM16 20H20V16H16V20ZM20 14V10H16V14H20ZM14 10H10V14H14V10ZM20 4H4V8H20V4Z" fill="#1F2329"/>
</svg>
