<svg width="24" height="24" viewBox="0 0 24 24" fill="none" xmlns="http://www.w3.org/2000/svg">
<path d="M12.65 10.6423H3.36753V3.12283C3.36753 2.87091 3.15604 2.66669 2.89514 2.66669H1.80588C1.54499 2.66669 1.3335 2.87091 1.3335 3.12283V20.8604C1.3335 21.1123 1.54499 21.3165 1.80588 21.3165H2.89514C3.15604 21.3165 3.36753 21.1123 3.36753 20.8604V12.643H12.65V20.8604C12.65 21.1123 12.8614 21.3165 13.1223 21.3165H14.219C14.4798 21.3165 14.6913 21.1123 14.6913 20.8604V3.12283C14.6913 2.87091 14.4798 2.66669 14.219 2.66669H13.1223C12.8614 2.66669 12.65 2.87091 12.65 3.12283V10.6423ZM23.9971 17.6509C23.9971 17.1407 23.8891 16.6536 23.6738 16.1898C23.4791 15.7909 23.1862 15.4435 22.7962 15.1462C23.1731 14.8493 23.446 14.5156 23.6124 14.1449C23.7816 13.7057 23.8643 13.2594 23.8643 12.7974C23.8532 11.8812 23.5376 11.0839 22.921 10.4122C22.2712 9.718 21.3959 9.36619 20.3069 9.35525C19.4333 9.36632 18.6812 9.67831 18.056 10.2869C17.4765 10.8463 17.1365 11.7111 17.0158 12.5371C17.0048 12.6128 17.0158 12.763 17.2342 12.763H18.7178C18.917 12.763 18.9645 12.6212 18.9923 12.5382C18.994 12.5331 18.9956 12.5283 18.9971 12.5238C19.1168 12.176 19.3214 11.8418 19.5334 11.6846C19.7891 11.4848 20.0636 11.388 20.3674 11.388C20.7988 11.3974 21.1462 11.5322 21.4159 11.7928C21.6833 12.0602 21.8222 12.404 21.8315 12.833C21.8315 13.2499 21.6986 13.5831 21.4316 13.8411C21.1622 14.1104 20.7811 14.2459 20.2736 14.2459H20.1111C19.8902 14.2459 19.7111 14.4249 19.7111 14.6459V15.6912C19.7111 15.9121 19.8902 16.0912 20.1111 16.0912H20.3986C20.8546 16.0912 21.2221 16.2267 21.5119 16.4981C21.8026 16.7751 21.9548 17.1718 21.9643 17.6995C21.9548 18.2083 21.8035 18.5936 21.5131 18.8613C21.2169 19.1572 20.8643 19.3005 20.4377 19.3005C20.0369 19.3005 19.7255 19.1945 19.4937 18.985C19.2891 18.8045 19.0948 18.4851 18.9582 18.1787C18.9157 18.0834 18.8782 18.0115 18.6891 18.0115H17.1621C16.9851 18.0115 16.9597 18.0297 16.9014 18.1864C16.8432 18.3432 17.5254 19.9612 18.1623 20.4929C18.7972 21.0229 19.5132 21.3334 20.3361 21.3334C21.3937 21.3224 22.2664 20.9827 22.9451 20.315C23.6349 19.664 23.9861 18.7706 23.9971 17.6509Z" fill="#1F2329"/>
</svg>
