<svg width="20" height="20" viewBox="0 0 20 20" fill="none" xmlns="http://www.w3.org/2000/svg">
<g id="icon_right-association">
<circle id="Ellipse 122" cx="12.4" cy="10.0012" r="4.8" fill="#5C8DFF"/>
<path id="Union" fill-rule="evenodd" clip-rule="evenodd" d="M10.0001 15.9344C9.25893 16.2344 8.44879 16.3996 7.60007 16.3996C4.06545 16.3996 1.20007 13.5342 1.20007 9.99961C1.20007 6.46499 4.06545 3.59961 7.60007 3.59961C8.44879 3.59961 9.25893 3.76482 10.0001 4.06482C10.7412 3.76482 11.5514 3.59961 12.4001 3.59961C15.9347 3.59961 18.8001 6.46499 18.8001 9.99961C18.8001 13.5342 15.9347 16.3996 12.4001 16.3996C11.5514 16.3996 10.7412 16.2344 10.0001 15.9344ZM11.8664 14.7703C12.0416 14.7897 12.2197 14.7996 12.4001 14.7996C15.051 14.7996 17.2001 12.6506 17.2001 9.99961C17.2001 7.34864 15.051 5.19961 12.4001 5.19961C12.2197 5.19961 12.0416 5.20956 11.8664 5.22894C13.1759 6.40084 14.0001 8.10398 14.0001 9.99961C14.0001 11.8952 13.1759 13.5984 11.8664 14.7703ZM8.13375 5.22894C7.95853 5.20956 7.78046 5.19961 7.60007 5.19961C4.94911 5.19961 2.80007 7.34864 2.80007 9.99961C2.80007 12.6506 4.94911 14.7996 7.60007 14.7996C7.78046 14.7996 7.95853 14.7897 8.13375 14.7703C6.82422 13.5984 6.00007 11.8952 6.00007 9.99961C6.00007 8.10398 6.82422 6.40084 8.13375 5.22894ZM10.0001 5.84176C8.56535 6.67171 7.60007 8.22293 7.60007 9.99961C7.60007 11.7763 8.56535 13.3275 10.0001 14.1575C11.4348 13.3275 12.4001 11.7763 12.4001 9.99961C12.4001 8.22293 11.4348 6.67171 10.0001 5.84176Z" fill="#3370FF"/>
</g>
</svg>
