<svg width="16" height="17" viewBox="0 0 16 17" fill="none" xmlns="http://www.w3.org/2000/svg">
<path d="M14.3334 14.9987C14.3334 15.1828 14.1842 15.332 14.0001 15.332H13.3334C13.1493 15.332 13.0001 15.1828 13.0001 14.9987V2.33203C13.0001 2.14794 13.1493 1.9987 13.3334 1.9987H14.0001C14.1842 1.9987 14.3334 2.14794 14.3334 2.33203V14.9987Z" fill="currentColor"/>
<path d="M6.70241 12.5378L9.90819 9.33203H2.02212C1.82575 9.33203 1.66656 9.17285 1.66656 8.97648V8.35426C1.66656 8.15789 1.82575 7.9987 2.02212 7.9987L9.92375 7.9987L6.70241 4.77736C6.56356 4.6385 6.56356 4.41338 6.70241 4.27453L7.14239 3.83455C7.28124 3.69569 7.50637 3.69569 7.64522 3.83455L12.1707 8.36003C12.2519 8.44122 12.2856 8.5519 12.2719 8.65758C12.2856 8.76327 12.2519 8.87395 12.1707 8.95513L7.64522 13.4806C7.50637 13.6195 7.28124 13.6195 7.14239 13.4806L6.70241 13.0406C6.56356 12.9018 6.56356 12.6767 6.70241 12.5378Z" fill="currentColor"/>
</svg>
