<svg width="24" height="24" viewBox="0 0 24 24" fill="none" xmlns="http://www.w3.org/2000/svg">
<path d="M3.45675 1H17.6731C17.9005 1 18.1185 1.09031 18.2792 1.25105L21.2057 4.17752C21.3664 4.33827 21.4567 4.55628 21.4567 4.78361V22.1429C21.4567 22.6162 21.073 23 20.5996 23H3.45675C2.98336 23 2.59961 22.6162 2.59961 22.1429V1.85714C2.59961 1.38376 2.98336 1 3.45675 1ZM4.65671 20.943H19.3996V6.14286H16.6139C16.4482 6.14286 16.3139 6.00854 16.3139 5.84286V3.05728H4.65671V20.943ZM17.2505 8.32229C17.3521 8.19083 17.2584 8 17.0922 8H15.0978C15.0358 8 14.9774 8.0287 14.9395 8.07771L11.8413 11.6775L13.2496 13.5L17.2505 8.32229ZM11.8413 11.6775L11.8441 11.6811L13.2496 13.5L11.8441 15.3189L11.8413 15.3224L9.0596 18.9223C9.02173 18.9713 8.96328 19 8.90134 19H6.90685C6.74071 19 6.64701 18.8092 6.74859 18.6777L10.6551 13.6223C10.7107 13.5502 10.7107 13.4497 10.6551 13.3777L6.74863 8.32229C6.64705 8.19083 6.74075 8 6.90689 8H8.90135C8.96329 8 9.02174 8.0287 9.05961 8.07771L11.8413 11.6775ZM14.9395 18.9223L11.8413 15.3224L13.2496 13.5L17.2505 18.6777C17.3521 18.8092 17.2584 19 17.0923 19H15.0978C15.0358 19 14.9774 18.9713 14.9395 18.9223Z" fill="#1F2329"/>
</svg>
