<svg width="24" height="24" viewBox="0 0 24 24" fill="none" xmlns="http://www.w3.org/2000/svg">
<path d="M1 4C1 1.79086 2.79086 0 5 0H19C21.2091 0 23 1.79086 23 4V20C23 22.2091 21.2091 24 19 24H5C2.79086 24 1 22.2091 1 20V4Z" fill="#00BFFF"/>
<path d="M13.9686 7.04169C15.4325 7.04169 16.624 8.20757 16.6654 9.66145L16.6665 9.7396V13.9403H15.4998V9.7396C15.4998 8.89392 14.8143 8.20835 13.9686 8.20835C13.144 8.20835 12.4717 8.86007 12.4386 9.67649L12.4373 9.7396V14.5521C12.4373 16.0421 11.2294 17.25 9.73942 17.25C8.27554 17.25 7.08397 16.0841 7.04261 14.6303L7.0415 14.5521V10.3396H8.20817V14.5521C8.20817 15.3978 8.89373 16.0834 9.73942 16.0834C10.564 16.0834 11.2363 15.4316 11.2694 14.6152L11.2707 14.5521V9.7396C11.2707 8.24959 12.4786 7.04169 13.9686 7.04169Z" fill="white"/>
<path fill-rule="evenodd" clip-rule="evenodd" d="M9.66667 8.93752C9.66667 7.89048 8.81787 7.04169 7.77083 7.04169C6.72379 7.04169 5.875 7.89048 5.875 8.93752C5.875 9.98456 6.72379 10.8334 7.77083 10.8334C8.81787 10.8334 9.66667 9.98456 9.66667 8.93752ZM6.8665 8.93706C6.8665 8.43771 7.2713 8.0329 7.77066 8.0329C8.27002 8.0329 8.67483 8.43771 8.67483 8.93706C8.67483 9.43642 8.27002 9.84123 7.77066 9.84123C7.2713 9.84123 6.8665 9.43642 6.8665 8.93706Z" fill="white"/>
<path fill-rule="evenodd" clip-rule="evenodd" d="M18.1252 15.6458C18.1252 14.5988 17.2764 13.75 16.2293 13.75C15.1823 13.75 14.3335 14.5988 14.3335 15.6458C14.3335 16.6929 15.1823 17.5417 16.2293 17.5417C17.2764 17.5417 18.1252 16.6929 18.1252 15.6458ZM15.325 15.6454C15.325 15.146 15.7298 14.7412 16.2292 14.7412C16.7285 14.7412 17.1333 15.146 17.1333 15.6454C17.1333 16.1447 16.7285 16.5495 16.2292 16.5495C15.7298 16.5495 15.325 16.1447 15.325 15.6454Z" fill="white"/>
</svg>
