<svg width="16" height="16" viewBox="0 0 16 16" fill="none" xmlns="http://www.w3.org/2000/svg">
<path d="M8.622 5.77734C8.76928 5.77734 8.88867 5.89674 8.88867 6.04401V6.84401C8.88867 6.99129 8.76928 7.11068 8.622 7.11068H6.88867C6.77958 7.11068 6.68885 7.18929 6.67003 7.29295L6.66645 7.3329V12.6662C6.66645 12.7753 6.74506 12.8661 6.84873 12.8849L6.88867 12.8885H13.9998C14.1089 12.8885 14.1996 12.8098 14.2184 12.7062L14.222 12.6662V7.3329C14.222 7.22381 14.1434 7.13307 14.0397 7.11426L13.9998 7.11068H12.2664C12.1192 7.11068 11.9998 6.99129 11.9998 6.84401V6.04401C11.9998 5.89674 12.1192 5.77734 12.2664 5.77734H13.9998C14.8303 5.77734 15.5087 6.42813 15.553 7.24755L15.5553 7.3329V12.6662C15.5553 13.4967 14.9045 14.1752 14.0851 14.2195L13.9998 14.2218H6.88867C6.0582 14.2218 5.37973 13.571 5.33542 12.7516L5.33312 12.6662V7.3329C5.33312 6.50243 5.98391 5.82395 6.80332 5.77965L6.88867 5.77734H8.622ZM9.55534 1.77734C10.3858 1.77734 11.0643 2.42813 11.1086 3.24755L11.1109 3.3329V8.66623C11.1109 9.49671 10.4601 10.1752 9.64069 10.2195L9.55534 10.2218H7.822C7.67473 10.2218 7.55534 10.1024 7.55534 9.95512V9.15512C7.55534 9.00785 7.67473 8.88846 7.822 8.88846H9.55534C9.66443 8.88846 9.75516 8.80984 9.77398 8.70618L9.77756 8.66623V3.3329C9.77756 3.22381 9.69895 3.13307 9.59528 3.11426L9.55534 3.11068H2.44423C2.33513 3.11068 2.2444 3.18929 2.22559 3.29295L2.22201 3.3329V8.66623C2.22201 8.77533 2.30062 8.86606 2.40428 8.88488L2.44423 8.88846H4.17756C4.32484 8.88846 4.44423 9.00785 4.44423 9.15512V9.95512C4.44423 10.1024 4.32484 10.2218 4.17756 10.2218H2.44423C1.61375 10.2218 0.935282 9.571 0.890973 8.75158L0.888672 8.66623V3.3329C0.888672 2.50243 1.53946 1.82395 2.35888 1.77965L2.44423 1.77734H9.55534Z" fill="currentColor"/>
</svg>
