<svg width="16" height="16" viewBox="0 0 16 16" xmlns="http://www.w3.org/2000/svg">
<g id="icon_assigned_outlined">
<g id="Union">
<path d="M10.332 4.33333C10.332 2.49233 8.8387 1 6.9987 1C5.1587 1 3.66536 2.49233 3.66536 4.33333C3.66536 6.17433 5.1587 7.66667 6.9987 7.66667C8.8387 7.66667 10.332 6.17433 10.332 4.33333ZM6.9987 6.33333C5.89536 6.33333 4.9987 5.438 4.9987 4.33333C4.9987 3.22867 5.89536 2.33333 6.9987 2.33333C8.10203 2.33333 8.9987 3.22867 8.9987 4.33333C8.9987 5.438 8.10203 6.33333 6.9987 6.33333Z"/>
<path d="M2.66536 12.6667C2.66536 12.4363 2.69536 12.213 2.7487 12C3.04536 10.85 4.0887 10 5.33203 10H8.01534C8.19943 10 8.34867 9.85076 8.34867 9.66667V9C8.34867 8.81591 8.19943 8.66667 8.01534 8.66667H5.33203C3.12203 8.66667 1.33203 10.4577 1.33203 12.6667V14C1.33203 14.3683 1.63203 14.6667 1.9987 14.6667H8.01534C8.19943 14.6667 8.34867 14.5174 8.34867 14.3333V13.6667C8.34867 13.4826 8.19943 13.3333 8.01534 13.3333H2.66536V12.6667Z"/>
<path d="M12.1298 10.3738L13.1087 11.3526H9.66537C9.48127 11.3526 9.33203 11.5019 9.33203 11.686V12.3526C9.33203 12.5367 9.48127 12.686 9.66537 12.686H13.1175L12.1298 13.6736C11.9997 13.8038 11.9997 14.0148 12.1298 14.145L12.6012 14.6164C12.7314 14.7466 12.9425 14.7466 13.0726 14.6164L15.4297 12.2594C15.5598 12.1292 15.5598 11.9182 15.4297 11.788L13.0726 9.43096C12.9425 9.30079 12.7314 9.30079 12.6012 9.43096L12.1298 9.90237C11.9997 10.0325 11.9997 10.2436 12.1298 10.3738Z"/>
</g>
</g>
</svg>
