<svg width="24" height="24" viewBox="0 0 24 24" fill="none" xmlns="http://www.w3.org/2000/svg">
<path d="M1.33805 2.34136V3.2506C1.33805 3.43979 1.54934 3.54985 1.70367 3.44568L2.66447 2.9747V6.55354C2.66447 6.74099 2.81642 6.89294 3.00387 6.89294H3.66533C3.85277 6.89294 4.00472 6.74099 4.00472 6.55354V1.67271C4.00472 1.48526 3.85277 1.33331 3.66533 1.33331H2.95515C2.89815 1.33331 2.84208 1.34766 2.7921 1.37504L1.5144 2.0437C1.40566 2.10326 1.33805 2.21738 1.33805 2.34136ZM8.40016 10.6666C8.17925 10.6666 8.00016 10.8457 8.00016 11.0666V12.2666C8.00016 12.4876 8.17925 12.6666 8.40016 12.6666H22.2668C22.4877 12.6666 22.6668 12.4876 22.6668 12.2666V11.0666C22.6668 10.8457 22.4877 10.6666 22.2668 10.6666H8.40016ZM4.9835 13.4211C5.1768 13.4211 5.3335 13.5711 5.3335 13.7562V14.2466C5.3335 14.4317 5.1768 14.5817 4.9835 14.5817H1.6835C1.4902 14.5817 1.3335 14.4317 1.3335 14.2466V13.5964L3.80592 11.0188C3.88128 10.937 3.93242 10.8626 3.95029 10.8193C3.96853 10.7528 3.97745 10.6918 3.97745 10.6363C3.97745 10.4953 3.92692 10.3767 3.8239 10.274C3.71934 10.1738 3.56673 10.1209 3.35687 10.1172C3.16925 10.1172 3.02235 10.1642 2.90195 10.2609C2.78061 10.3551 2.70811 10.4901 2.68463 10.6603C2.68463 10.771 2.59092 10.8607 2.47532 10.8607H1.55742C1.43381 10.8607 1.3336 10.7648 1.33376 10.6404C1.35925 10.1574 1.55732 9.75164 1.92618 9.43099C2.29554 9.12068 2.75285 8.96198 3.29118 8.95669C3.88075 8.96191 4.3692 9.12234 4.74288 9.43626C5.1282 9.7518 5.32704 10.1578 5.3335 10.6433C5.3335 11.0336 5.18881 11.3839 4.90282 11.6871L3.24221 13.4211H4.9835ZM8.40016 2.66665C8.17925 2.66665 8.00016 2.84573 8.00016 3.06665V4.26665C8.00016 4.48756 8.17925 4.66665 8.40016 4.66665H22.2668C22.4877 4.66665 22.6668 4.48756 22.6668 4.26665V3.06665C22.6668 2.84573 22.4877 2.66665 22.2668 2.66665H8.40016ZM5.14714 19.7977C5.27156 20.0257 5.3335 20.2639 5.3335 20.5142C5.32732 21.0527 5.12569 21.4878 4.73456 21.8021C4.35241 22.1221 3.86218 22.2848 3.2727 22.29C2.82654 22.29 2.42065 22.1524 2.04876 21.8882C1.7248 21.658 1.26866 20.8738 1.34119 20.7077C1.39254 20.5901 1.45294 20.5554 1.59446 20.5554H2.40185C2.53751 20.5554 2.60561 20.6006 2.65597 20.6968C2.72806 20.8344 2.82094 20.9563 2.90563 21.0199C3.0048 21.0962 3.14233 21.1355 3.3264 21.1355C3.52232 21.1355 3.67898 21.0811 3.81568 20.965C3.93996 20.8675 4.00422 20.727 4.00848 20.5372C4.00417 20.3338 3.9391 20.1874 3.81433 20.0861C3.68436 19.9825 3.51823 19.9307 3.30574 19.9307H3.19247C2.98517 19.9307 2.81711 19.7698 2.81711 19.5713V19.22C2.81711 19.0216 2.98517 18.8606 3.19247 18.8606H3.23965C3.47823 18.8606 3.65087 18.8091 3.77037 18.7074C3.88375 18.6142 3.93822 18.4974 3.93827 18.3475C3.9342 18.1879 3.87607 18.0644 3.7621 17.9673C3.64251 17.869 3.48674 17.8177 3.28922 17.8141C3.15371 17.8141 3.03356 17.8504 2.9171 17.9278C2.83255 17.9811 2.73808 18.1085 2.68139 18.2487L2.67554 18.2638C2.67179 18.2729 2.66733 18.2816 2.65356 18.3085C2.60765 18.3858 2.5279 18.4329 2.417 18.4329H1.63258C1.4545 18.4329 1.37205 18.3178 1.39364 18.192C1.46752 17.7615 1.67491 17.3631 1.98522 17.1081C2.33873 16.8152 2.7651 16.6649 3.25835 16.6596C3.86531 16.6648 4.35829 16.8342 4.72645 17.169C5.07617 17.4933 5.25699 17.8824 5.26328 18.3286C5.26328 18.5537 5.21574 18.7707 5.11667 18.989C5.04078 19.133 4.92841 19.2646 4.78076 19.3841C4.93653 19.506 5.05892 19.6438 5.14714 19.7977ZM8.40016 19.3333C8.17925 19.3333 8.00016 19.5124 8.00016 19.7333V20.9333C8.00016 21.1542 8.17925 21.3333 8.40016 21.3333H22.2668C22.4877 21.3333 22.6668 21.1542 22.6668 20.9333V19.7333C22.6668 19.5124 22.4877 19.3333 22.2668 19.3333H8.40016Z" fill="#1F2329"/>
</svg>
