<svg width="24" height="24" viewBox="0 0 24 24" fill="none" xmlns="http://www.w3.org/2000/svg">
<g clip-path="url(#clip0_181_24877)">
<path d="M0 4C0 1.79086 2.13127 0 4.76033 0H19.2397C21.8687 0 24 1.79086 24 4V20C24 22.2091 21.8687 24 19.2397 24H4.76033C2.13127 24 0 22.2091 0 20V4Z" fill="#3370FF"/>
<path d="M4.66669 9.09589C4.66669 8.83447 4.81949 8.59716 5.05749 8.48898L11.7242 5.45868C11.8994 5.37901 12.1006 5.37901 12.2759 5.45868L18.9426 8.48898C19.1806 8.59716 19.3334 8.83447 19.3334 9.0959V15.5879C19.3334 15.8404 19.1907 16.0713 18.9648 16.1842L12.2982 19.5175C12.1105 19.6114 11.8896 19.6114 11.7019 19.5175L5.03521 16.1842C4.80936 16.0713 4.66669 15.8404 4.66669 15.5879V9.09589ZM16.8119 8.98512L12 6.7979L7.16215 8.99693L11.9733 11.0694L16.8119 8.98512ZM12.6667 12.2225V17.8426L18 15.1759V9.9251L12.6667 12.2225ZM6.00002 9.9481V15.1759L11.3334 17.8426V12.2455L6.00002 9.9481Z" fill="white"/>
</g>
<defs>
<clipPath id="clip0_181_24877">
<rect width="24" height="24" fill="white"/>
</clipPath>
</defs>
</svg>
