<svg width="24" height="24" viewBox="0 0 24 24" xmlns="http://www.w3.org/2000/svg">
<path d="M8 3.99988V2.99988C8 2.44759 8.44772 1.99988 9 1.99988H15C15.5523 1.99988 16 2.44759 16 2.99988V3.99988H21.359C21.5819 3.99988 21.6627 4.02308 21.7442 4.06666C21.8257 4.11024 21.8896 4.17419 21.9332 4.25567C21.9768 4.33715 22 4.41797 22 4.64085V5.35891C22 5.58179 21.9768 5.66261 21.9332 5.74409C21.8896 5.82557 21.8257 5.88952 21.7442 5.93309C21.6627 5.97667 21.5819 5.99988 21.359 5.99988H20V20.9999C20 21.5522 19.5523 21.9999 19 21.9999H5C4.44772 21.9999 4 21.5522 4 20.9999V5.99988H2.64097C2.41809 5.99988 2.33727 5.97667 2.25579 5.93309C2.17431 5.88952 2.11036 5.82557 2.06678 5.74409C2.02321 5.66261 2 5.58179 2 5.35891V4.64085C2 4.41797 2.02321 4.33715 2.06678 4.25567C2.11036 4.17419 2.17431 4.11024 2.25579 4.06666C2.33727 4.02308 2.41809 3.99988 2.64097 3.99988H8ZM6 5.99988V19.9999H18V5.99988H6ZM9.5 7.99988H10.5C10.7761 7.99988 11 8.22374 11 8.49988V17.4999C11 17.776 10.7761 17.9999 10.5 17.9999H9.5C9.22386 17.9999 9 17.776 9 17.4999V8.49988C9 8.22374 9.22386 7.99988 9.5 7.99988ZM13.5 7.99988H14.5C14.7761 7.99988 15 8.22374 15 8.49988V17.4999C15 17.776 14.7761 17.9999 14.5 17.9999H13.5C13.2239 17.9999 13 17.776 13 17.4999V8.49988C13 8.22374 13.2239 7.99988 13.5 7.99988Z"/>
</svg>
