<?xml version="1.0" standalone="no"?><!DOCTYPE svg PUBLIC "-//W3C//DTD SVG 1.1//EN" "http://www.w3.org/Graphics/SVG/1.1/DTD/svg11.dtd"><svg t="1715769658859" class="icon" viewBox="0 0 1024 1024" version="1.1" xmlns="http://www.w3.org/2000/svg" p-id="4704" xmlns:xlink="http://www.w3.org/1999/xlink" width="200" height="200"><path d="M1023.853735 948.673618v75.25325H596.248536V948.673618zM511.926868 0.073132a511.926868 511.926868 0 0 1 511.926867 511.926868h-75.253249a436.600486 436.600486 0 1 0-436.600486 436.600486h5.119269v75.253249h-5.119269a511.926868 511.926868 0 1 1 0-1023.853735z m511.926867 803.505785v75.25325H596.248536v-75.180117zM362.590487 290.116269l192.11884 110.941866 192.11884 110.941865-192.11884 110.941865-192.11884 110.941866V290.189402zM1023.853735 658.484217v75.399514H596.248536V658.630481zM437.843737 420.438223v182.831024l79.202399-45.780888 79.2024-45.707756-79.2024-45.707756z" p-id="4705"></path></svg>
