<svg width="24" height="24" viewBox="0 0 24 24" fill="none" xmlns="http://www.w3.org/2000/svg">
<path d="M11 6.36207L9.19133 4.5534C8.98305 4.34513 8.64537 4.34513 8.43709 4.55341L7.77712 5.21337C7.56884 5.42165 7.56884 5.75934 7.77712 5.96762L11.5653 9.75584C11.6871 9.87762 11.8531 9.9282 12.0117 9.90757C12.1702 9.9282 12.3362 9.87762 12.458 9.75584L16.2462 5.96762C16.4545 5.75934 16.4545 5.42165 16.2462 5.21337L15.5863 4.55341C15.378 4.34513 15.0403 4.34513 14.832 4.5534L13 6.38542V1.53297C13 1.23841 12.7612 0.999634 12.4667 0.999634H11.5333C11.2388 0.999634 11 1.23841 11 1.53297V6.36207Z" fill="currentColor"/>
<path d="M11 17.5499L9.19133 19.3586C8.98305 19.5669 8.64537 19.5669 8.43709 19.3586L7.77712 18.6986C7.56884 18.4903 7.56884 18.1527 7.77712 17.9444L11.5653 14.1562C11.6871 14.0344 11.8531 13.9838 12.0117 14.0044C12.1702 13.9838 12.3362 14.0344 12.458 14.1562L16.2462 17.9444C16.4545 18.1527 16.4545 18.4903 16.2462 18.6986L15.5863 19.3586C15.378 19.5669 15.0403 19.5669 14.832 19.3586L13 17.5266V22.379C13 22.6736 12.7612 22.9124 12.4667 22.9124H11.5333C11.2388 22.9124 11 22.6736 11 22.379V17.5499Z" fill="currentColor"/>
<path d="M2.5 10.9999C2.22386 10.9999 2 11.2238 2 11.4999V12.4999C2 12.7761 2.22386 12.9999 2.5 12.9999H21.5C21.7761 12.9999 22 12.7761 22 12.4999V11.4999C22 11.2238 21.7761 10.9999 21.5 10.9999H2.5Z" fill="currentColor"/>
</svg>
