<svg width="24" height="24" viewBox="0 0 24 24" fill="none" xmlns="http://www.w3.org/2000/svg">
<path fill-rule="evenodd" clip-rule="evenodd" d="M5.34423 1.50735C5.34246 1.22627 5.56945 0.999292 5.85087 1.00071L18.271 1C18.5524 1.00141 18.7787 1.22769 18.7766 1.50558L18.7791 2.49801C18.7773 2.77554 18.5503 3.00253 18.2724 3.00465L16.0653 3.0043L16.0646 7.53066C16.0646 7.66501 16.1588 7.79441 16.2507 7.88634L20.3954 12.6558C20.4908 12.7512 20.5449 12.881 20.5449 13.0153L20.5439 14.3245C20.5453 14.606 20.3187 14.8326 20.0372 14.8312L13.0651 14.8337L13.065 18H15.3988C15.9133 18 16.1892 18.605 15.8519 18.9934L12.4531 22.9077C12.2138 23.1832 11.7862 23.1832 11.5469 22.9077L8.14813 18.9934C7.81084 18.605 8.08675 18 8.60119 18H11.0371L11.0372 14.8322L4.0505 14.8313C3.77272 14.8333 3.54644 14.607 3.54492 14.3257L3.54584 13.0166C3.54588 12.8822 3.5981 12.7522 3.6931 12.6572L7.84885 7.88775C7.94395 7.79264 8.05642 7.66254 8.05642 7.52819L8.05678 3.00217L5.84875 3.00182C5.57086 3.00394 5.34459 2.77767 5.34317 2.49624L5.34423 1.50735ZM10.0578 3.00197L10.061 8.39982L6.19585 12.8316L11 12.8331C11.1142 12.8334 11.5511 12.8334 11.991 12.8334C12.4309 12.8334 12.8738 12.8334 13 12.8337L17.8942 12.8351L14.0678 8.41842L14.0624 2.99973L10.0578 3.00197Z" fill="currentColor"/>
</svg>
