<?xml version="1.0" standalone="no"?><!DOCTYPE svg PUBLIC "-//W3C//DTD SVG 1.1//EN" "http://www.w3.org/Graphics/SVG/1.1/DTD/svg11.dtd"><svg t="1710226920526" class="icon" viewBox="0 0 1024 1024" version="1.1" xmlns="http://www.w3.org/2000/svg" p-id="8695" xmlns:xlink="http://www.w3.org/1999/xlink" width="200" height="200"><path d="M384 576a128 128 0 0 1 123.968 96H896v64l-388.032 0.064a128 128 0 0 1-247.936 0L128 736v-64h132.032A128 128 0 0 1 384 576z m0 73.152a54.848 54.848 0 1 0 0 109.696 54.848 54.848 0 0 0 0-109.696zM640 192a128 128 0 0 1 123.968 96H896v64l-132.032 0.064a128 128 0 0 1-247.936 0L128 352v-64h388.032A128 128 0 0 1 640 192z m0 73.152a54.848 54.848 0 1 0 0 109.696 54.848 54.848 0 0 0 0-109.696z" p-id="8696"></path></svg>
