<svg width="24" height="24" viewBox="0 0 24 24" fill="none" xmlns="http://www.w3.org/2000/svg">
<path fill-rule="evenodd" clip-rule="evenodd" d="M20.9117 19.9531C21.4811 19.5044 22 18.8519 22 18V6C22 5.14805 21.4811 4.49559 20.9117 4.04685C20.331 3.58923 19.5528 3.22085 18.6802 2.93C16.9246 2.3448 14.5629 2 12 2C9.43715 2 7.07541 2.3448 5.31981 2.93C4.44724 3.22085 3.66896 3.58923 3.08829 4.04685C2.51889 4.49559 2 5.14805 2 6V18C2 18.8519 2.51889 19.5044 3.08829 19.9531C3.66896 20.4108 4.44724 20.7791 5.31981 21.07C7.07541 21.6552 9.43715 22 12 22C14.5629 22 16.9246 21.6552 18.6802 21.07C19.5528 20.7791 20.331 20.4108 20.9117 19.9531ZM4 5.99973C4.00058 4.89529 7.58208 4 12 4C16.4183 4 20 4.89543 20 6C20 7.10457 16.4183 8 12 8C7.58172 8 4 7.10457 4 6C4 5.99998 4 5.99996 4 5.99994C4 5.99987 4 5.9998 4 5.99973ZM18.6802 9.07C19.1533 8.91229 19.5988 8.73177 20 8.5266V12.0002C20 12.0014 19.9999 12.0057 19.9969 12.0153C19.9935 12.0264 19.9852 12.0485 19.9649 12.0814C19.9225 12.1506 19.8359 12.2545 19.6738 12.3823C19.3436 12.6425 18.8038 12.9206 18.0477 13.1726C16.546 13.6732 14.4077 14 12 14C9.59229 14 7.45402 13.6732 5.95227 13.1726C5.19616 12.9206 4.65642 12.6425 4.32624 12.3823C4.16408 12.2545 4.07752 12.1506 4.03507 12.0814C4.01483 12.0485 4.00645 12.0264 4.00305 12.0153C4.00016 12.0058 4.00001 12.0012 4 12V8.5266C4.40123 8.73177 4.84666 8.91229 5.31981 9.07C7.07541 9.6552 9.43715 10 12 10C14.5629 10 16.9246 9.6552 18.6802 9.07ZM18.6802 15.07C19.1533 14.9123 19.5988 14.7318 20 14.5266V18.0001C20 18.001 20 18.0052 19.9969 18.0153C19.9935 18.0264 19.9852 18.0485 19.9649 18.0814C19.9225 18.1506 19.8359 18.2545 19.6738 18.3823C19.3436 18.6425 18.8038 18.9206 18.0477 19.1726C16.546 19.6732 14.4077 20 12 20C9.59229 20 7.45402 19.6732 5.95227 19.1726C5.19616 18.9206 4.65642 18.6425 4.32624 18.3823C4.16408 18.2545 4.07752 18.1506 4.03507 18.0814C4.01483 18.0485 4.00645 18.0264 4.00305 18.0153C3.99998 18.0052 4 18.0009 4 18V14.5266C4.40123 14.7318 4.84666 14.9123 5.31981 15.07C7.07541 15.6552 9.43715 16 12 16C14.5629 16 16.9246 15.6552 18.6802 15.07Z" fill="#1F2329"/>
</svg>
