<svg width="16" height="16" viewBox="0 0 16 16" fill="none" xmlns="http://www.w3.org/2000/svg">
<path d="M2 14.6189C2 15.0136 2.31818 15.3336 2.71068 15.3336H7.99679V13.9935H3.33253V2.00032L12.6602 2.00032V8.66699H13.9928V1.37491C13.9928 0.980162 13.6746 0.660156 13.2821 0.660156H2.71068C2.31818 0.660156 2 0.980162 2 1.37491V14.6189Z" fill="#1F2329"/>
<path d="M4.67068 7.51235C4.67068 7.41366 4.75023 7.33366 4.84835 7.33366H11.1557C11.2538 7.33366 11.3333 7.41366 11.3333 7.51235V8.49513C11.3333 8.59382 11.2538 8.67382 11.1557 8.67382H4.84835C4.75023 8.67382 4.67068 8.59382 4.67068 8.49513V7.51235Z" fill="#1F2329"/>
<path d="M4.84996 4.66698C4.75183 4.66698 4.67229 4.74698 4.67229 4.84567V5.82845C4.67229 5.92714 4.75183 6.00714 4.84996 6.00714H7.82233C7.92045 6.00714 8 5.92714 8 5.82845V4.84567C8 4.74698 7.92045 4.66698 7.82233 4.66698H4.84996Z" fill="#1F2329"/>
<path d="M11.3333 10.3337C11.3333 10.1496 11.4826 10.0003 11.6667 10.0003H12.3333C12.5174 10.0003 12.6667 10.1496 12.6667 10.3337V12.0003H14.3333C14.5174 12.0003 14.6667 12.1496 14.6667 12.3337V13.0003C14.6667 13.1844 14.5174 13.3337 14.3333 13.3337H12.6667V15.0003C12.6667 15.1844 12.5174 15.3337 12.3333 15.3337H11.6667C11.4826 15.3337 11.3333 15.1844 11.3333 15.0003V13.3337H9.66667C9.48257 13.3337 9.33333 13.1844 9.33333 13.0003V12.3337C9.33333 12.1496 9.48257 12.0003 9.66667 12.0003H11.3333V10.3337Z" fill="#1F2329"/>
</svg>
