<svg width="24" height="24" viewBox="0 0 24 24" fill="none" xmlns="http://www.w3.org/2000/svg">
<path d="M9.62093 20.0956C5.14276 16.7118 3 13.4907 3 10.5C3 6.08172 6.58172 2.5 11 2.5C14.985 2.5 18.2894 5.41364 18.8992 9.22681C19.6425 9.40777 20.345 9.69254 20.9907 10.0649C20.7629 4.74391 16.3771 0.5 11 0.5C5.47715 0.5 1 4.97715 1 10.5C1 14.7007 4.14794 18.9115 10.4438 23.1324C10.7804 23.3581 11.2198 23.3583 11.5566 23.133C11.6141 23.0945 11.6714 23.0561 11.7284 23.0176C10.821 22.2221 10.0952 21.2247 9.62093 20.0956Z" fill="#3370FF"/>
<path d="M9.50021 14.2093C8.03418 13.616 7 12.1788 7 10.5C7 8.29086 8.79086 6.5 11 6.5C12.7916 6.5 14.308 7.67783 14.8173 9.30139C14.1594 9.48754 13.536 9.75574 12.9588 10.0942C12.7713 9.18422 11.9655 8.5 11 8.5C9.89543 8.5 9 9.39543 9 10.5C9 11.41 9.60781 12.1781 10.4396 12.4204C10.0552 12.9702 9.73804 13.5704 9.50021 14.2093Z" fill="#3370FF"/>
<path d="M11 17C11 13.6863 13.6863 11 17 11C20.3138 11 23 13.6863 23 17C23 20.3138 20.3138 23 17 23C16.6389 23 16.2853 22.9681 15.9417 22.907C15.9517 22.8915 15.9595 22.8744 15.9649 22.856L16.1362 22.267L17.2177 17.3297H20.2439C20.2958 17.3297 20.3456 17.3091 20.3823 17.2724C20.419 17.2357 20.4396 17.1859 20.4396 17.134V16.2066C20.4396 16.1547 20.419 16.105 20.3823 16.0683C20.3456 16.0316 20.2958 16.011 20.2439 16.011H17.5065L17.734 14.9725C17.9231 14.3222 18.5395 13.8726 19.2418 13.8726H20.1867C20.2386 13.8726 20.2883 13.852 20.325 13.8153C20.3617 13.7786 20.3824 13.7288 20.3824 13.6769V12.7781C20.3824 12.7262 20.3617 12.6764 20.325 12.6397C20.2883 12.603 20.2386 12.5824 20.1867 12.5824H19.2418C17.9375 12.5824 16.7928 13.4175 16.4416 14.6251L16.1319 16.011H13.4924C13.4405 16.011 13.3908 16.0316 13.3541 16.0683C13.3174 16.105 13.2967 16.1547 13.2967 16.2066V17.134C13.2967 17.1859 13.3174 17.2357 13.3541 17.2724C13.3908 17.3091 13.4405 17.3297 13.4924 17.3297H15.8372L14.7726 22.0932L14.6468 22.521C12.5028 21.6059 11 19.4784 11 17Z" fill="#3370FF"/>
</svg>
