<svg width="16" height="16" viewBox="0 0 16 16" xmlns="http://www.w3.org/2000/svg">
  <g id="icon_sql_outlined">
    <g id="Union">
      <path
        d="M3.73875 8.736V8.60266H2.66342L2.66143 8.73398C2.65762 8.98596 2.70337 9.21143 2.8045 9.40559C2.90241 9.59358 3.03463 9.74989 3.2009 9.87261L3.20211 9.87349C3.3693 9.99402 3.55876 10.0807 3.76906 10.1343C3.97937 10.1906 4.19515 10.2187 4.41609 10.2187C4.68545 10.2187 4.92669 10.1874 5.1378 10.1222C5.34961 10.0578 5.53149 9.96695 5.67904 9.84731C5.82907 9.72491 5.94364 9.57892 6.02023 9.40962C6.09609 9.24194 6.13342 9.06129 6.13342 8.86933C6.13342 8.638 6.08342 8.4359 5.97261 8.27307C5.87491 8.12108 5.7558 7.99733 5.61464 7.90457C5.48072 7.81656 5.34269 7.75187 5.20064 7.71214C5.07741 7.67346 4.97621 7.64561 4.899 7.62994C4.66262 7.56996 4.4704 7.52058 4.32226 7.48178C4.18072 7.4438 4.0736 7.40713 3.99797 7.37258C3.92618 7.33811 3.89834 7.30959 3.88964 7.29545C3.87812 7.27672 3.86675 7.24291 3.86675 7.184C3.86675 7.12132 3.88029 7.0814 3.89769 7.05529C3.92312 7.01714 3.95447 6.98562 3.99243 6.96002C4.03522 6.93355 4.0822 6.91475 4.13422 6.9038C4.19294 6.89144 4.25129 6.88533 4.30942 6.88533C4.405 6.88533 4.48995 6.89359 4.56489 6.9092L4.56594 6.90941C4.64097 6.92441 4.70351 6.94919 4.75555 6.98206C4.80217 7.0115 4.83972 7.05217 4.86856 7.10724L4.87099 7.11148C4.9008 7.16365 4.92211 7.23655 4.92835 7.33631L4.93616 7.46133H6.00542V7.328C6.00542 7.09131 5.95973 6.88155 5.86141 6.70462C5.76997 6.5303 5.64409 6.38644 5.48455 6.27477C5.32744 6.16479 5.1483 6.08729 4.94889 6.04109C4.75657 5.9922 4.55573 5.968 4.34675 5.968C4.1639 5.968 3.98152 5.99278 3.7999 6.04197C3.61506 6.09203 3.44764 6.1696 3.29886 6.27531C3.14805 6.38246 3.02504 6.51755 2.93035 6.67931L2.92983 6.6802C2.83438 6.84621 2.78942 7.03894 2.78942 7.25333C2.78942 7.44367 2.82432 7.61498 2.90011 7.76235L2.90236 7.76637C2.9785 7.90262 3.07744 8.01798 3.19896 8.11115C3.31621 8.20104 3.44808 8.27454 3.59378 8.33205L3.59666 8.33311C3.73574 8.38435 3.87835 8.42826 4.02447 8.46486C4.16423 8.50425 4.3023 8.54011 4.43869 8.57241C4.56867 8.60319 4.68311 8.63868 4.78257 8.67846C4.87681 8.71616 4.94548 8.76069 4.99377 8.80898L4.99639 8.81146C5.03435 8.84742 5.05609 8.89446 5.05609 8.96533C5.05609 9.03643 5.03834 9.08573 5.01058 9.12208C4.9741 9.16593 4.92816 9.20162 4.87076 9.22895C4.80857 9.25856 4.74142 9.2797 4.66879 9.29204C4.5892 9.30189 4.51569 9.30666 4.44809 9.30666C4.34875 9.30666 4.2533 9.29554 4.16148 9.27356C4.07296 9.24893 3.99768 9.21464 3.93414 9.17183C3.87737 9.12793 3.83023 9.07132 3.79305 8.99982C3.75907 8.93447 3.73875 8.84836 3.73875 8.736Z"/>
      <path fill-rule="evenodd" clip-rule="evenodd"
            d="M10.2467 9.94025L9.76461 9.50152C9.89584 9.33145 9.99908 9.1408 10.0745 8.93029C10.1655 8.67632 10.2103 8.40319 10.2103 8.112C10.2103 7.8142 10.1656 7.53601 10.0748 7.27859C9.98421 7.01824 9.85316 6.78963 9.68094 6.59445C9.50771 6.39812 9.29635 6.24476 9.04862 6.13423C8.79781 6.02233 8.51571 5.968 8.20496 5.968C7.89747 5.968 7.61574 6.02243 7.36199 6.13393L7.3613 6.13423C7.11358 6.24476 6.90221 6.39812 6.72898 6.59445C6.55676 6.78963 6.42571 7.01824 6.33512 7.27859C6.24431 7.53601 6.19963 7.8142 6.19963 8.112C6.19963 8.40321 6.24468 8.67847 6.33544 8.93563C6.42627 9.18921 6.55759 9.41246 6.72985 9.60386C6.90306 9.79631 7.11415 9.94752 7.36129 10.0578L7.36355 10.0587C7.61689 10.1662 7.89807 10.2187 8.20496 10.2187C8.54665 10.2187 8.84912 10.1569 9.10796 10.0284L9.67299 10.5375L10.2467 9.94025ZM7.99391 9.01558L8.25457 9.2529C8.23915 9.25318 8.22262 9.25333 8.20496 9.25333C8.03365 9.25333 7.89703 9.22114 7.78956 9.16335C7.67575 9.09853 7.585 9.01485 7.5154 8.91196C7.44287 8.80474 7.3886 8.68419 7.35307 8.54932C7.32015 8.4071 7.30363 8.26139 7.30363 8.112C7.30363 7.95492 7.32028 7.80354 7.35333 7.65762C7.38906 7.5153 7.44346 7.39173 7.51541 7.28538L7.51639 7.28389C7.586 7.17796 7.67614 7.09532 7.78838 7.03465L7.79077 7.03329C7.8979 6.97249 8.03399 6.93866 8.20496 6.93866C8.37593 6.93866 8.51201 6.97251 8.61913 7.03331L8.62156 7.03463C8.73379 7.09529 8.82391 7.17797 8.89352 7.28389L8.89452 7.28537C8.96615 7.39126 9.01866 7.51431 9.05091 7.65622L9.05161 7.659C9.08798 7.80449 9.10629 7.95539 9.10629 8.112C9.10629 8.30607 9.08578 8.46482 9.04792 8.59102C9.02689 8.6611 9.00256 8.72358 8.97527 8.77894L8.56563 8.4047L7.99391 9.01558Z"/>
      <path d="M11.62 6.05866H10.516V10.1333H13.476V9.16266H11.62V6.05866Z"/>
      <path fill-rule="evenodd" clip-rule="evenodd"
            d="M1.33341 2C0.965225 2 0.666748 2.29848 0.666748 2.66667V13.3333C0.666748 13.7015 0.965225 14 1.33341 14H14.6667C15.0349 14 15.3334 13.7015 15.3334 13.3333V2.66667C15.3334 2.29848 15.0349 2 14.6667 2H1.33341ZM2.00008 3.33333V12.6667H14.0001V3.33333H2.00008Z"/>
    </g>
  </g>
</svg>
