<svg width="24" height="24" viewBox="0 0 24 24" fill="none" xmlns="http://www.w3.org/2000/svg">
<path d="M12.2824 5.61836L14.2971 7.63301L15.7917 6.13697L13.7686 4.10319L12.2824 5.61836ZM12.8836 9.04793L10.8819 7.04629L4.03252 14.0296V14.0327L5.96748 15.9676H5.97053L12.8836 9.04793ZM17.5636 7.23777L17.5702 7.24403L6.81402 18.0001H3C2.44772 18.0001 2 17.5524 2 17.0001V13.1861L12.3894 2.71678L12.3796 2.70688L13.0848 2.00163C13.4753 1.61111 14.1085 1.61111 14.499 2.00163L14.5009 2.00349L17.9351 5.45575C18.3238 5.84657 18.323 6.47831 17.9332 6.86811L17.5636 7.23777ZM2.5 20.0002H21.5C21.7761 20.0002 22 20.224 22 20.5002V21.5002C22 21.7763 21.7761 22.0002 21.5 22.0002H2.5C2.22386 22.0002 2 21.7763 2 21.5002V20.5002C2 20.224 2.22386 20.0002 2.5 20.0002Z" fill="#1F2329"/>
</svg>
