<svg width="24" height="24" viewBox="0 0 24 24" fill="none" xmlns="http://www.w3.org/2000/svg">
<path d="M12.2031 19.665C12.0738 19.6075 11.9263 19.6075 11.7971 19.665L5.7366 22.3573C5.38518 22.5134 4.99642 22.2309 5.0363 21.8485L5.72406 15.2526C5.73873 15.112 5.69314 14.9717 5.5986 14.8665L1.16526 9.93463C0.908188 9.64865 1.05668 9.19164 1.43275 9.11138L7.91829 7.72725C8.0566 7.69774 8.17593 7.61104 8.24674 7.48862L11.5673 1.74822C11.7598 1.41536 12.2403 1.41536 12.4329 1.74822L15.7534 7.48862C15.8242 7.61104 15.9436 7.69774 16.0819 7.72725L22.5674 9.11138C22.9435 9.19164 23.092 9.64866 22.8349 9.93463L18.4016 14.8665C18.307 14.9717 18.2614 15.112 18.2761 15.2526L18.9639 21.8485C19.0037 22.2309 18.615 22.5134 18.2636 22.3573L12.2031 19.665Z" fill="#1F2329"/>
</svg>
