<svg width="24" height="24" viewBox="0 0 24 24" fill="none" xmlns="http://www.w3.org/2000/svg">
<path d="M12 0.999939C18.075 0.999939 23 5.92494 23 11.9999C23 18.0749 18.075 22.9999 12 22.9999C5.925 22.9999 1 18.0749 1 11.9999C1 5.92494 5.925 0.999939 12 0.999939ZM9.869 6.99994C9.63898 7.00029 9.41817 7.09034 9.2535 7.25094C9.0905 7.41094 8.999 7.62744 9 7.85294V16.1479C9 16.3074 9.046 16.4634 9.132 16.5994C9.2552 16.7922 9.44972 16.9283 9.673 16.9779C9.898 17.0289 10.134 16.9904 10.3295 16.8704L17.092 12.7234C17.346 12.5664 17.5 12.2934 17.5 11.9999C17.5 11.7064 17.346 11.4339 17.092 11.2764L10.33 7.12994C10.1912 7.04504 10.0317 6.99971 9.869 6.99994Z" fill="#1F2329"/>
</svg>
