<svg width="24" height="24" viewBox="0 0 24 24" fill="none" xmlns="http://www.w3.org/2000/svg">
<path d="M13.8683 3.31802L13.1612 4.02512C12.9659 4.22039 12.9659 4.53697 13.1612 4.73223L19.429 10.9996L2.34315 11C2.067 11 1.84315 11.2239 1.84315 11.5V12.5C1.84315 12.7761 2.067 13 2.34315 13L19.4295 12.9996L13.1612 19.2678C12.9809 19.448 12.9671 19.7316 13.1196 19.9278L13.1612 19.9749L13.8683 20.682C14.0485 20.8622 14.3321 20.8761 14.5283 20.7236L14.5754 20.682L22.8536 12.4038C22.964 12.2933 23.012 12.144 22.9975 11.9998C23.0119 11.8558 22.964 11.7066 22.8536 11.5962L14.5754 3.31802C14.3801 3.12275 14.0635 3.12275 13.8683 3.31802Z" fill="#1F2329"/>
</svg>
