<svg width="24" height="24" viewBox="0 0 24 24" fill="none" xmlns="http://www.w3.org/2000/svg">
<path fill-rule="evenodd" clip-rule="evenodd" d="M10.5 2.5C8.35135 2.5 6.36462 2.78883 4.88047 3.28355C4.14362 3.52917 3.47518 3.84368 2.97041 4.24148C2.47692 4.63039 2 5.21709 2 6V18C2 18.7829 2.47692 19.3696 2.97041 19.7585C3.47518 20.1563 4.14361 20.4708 4.88046 20.7164C6.36462 21.2112 8.35135 21.5 10.5 21.5C12.0826 21.5 13.5773 21.3433 14.8481 21.0631C15.509 21.3444 16.2363 21.5 17 21.5C20.0376 21.5 22.5 19.0376 22.5 16C22.5 13.668 21.0487 11.675 19 10.8749V6C19 5.21709 18.5231 4.63039 18.0296 4.24148C17.5248 3.84368 16.8564 3.52917 16.1195 3.28355C14.6354 2.78883 12.6486 2.5 10.5 2.5ZM17 10.5V8.37161C16.7231 8.49927 16.4273 8.61387 16.1195 8.71645C14.6354 9.21117 12.6486 9.5 10.5 9.5C8.35135 9.5 6.36462 9.21117 4.88046 8.71645C4.57273 8.61387 4.27693 8.49927 4 8.37161V11.9723C4.01416 11.9997 4.06273 12.0729 4.20836 12.1877C4.46263 12.3881 4.89254 12.6123 5.51292 12.8191C6.74323 13.2292 8.5065 13.5 10.5 13.5C11.0648 13.5 11.6111 13.4783 12.132 13.4378C13.0534 11.6908 14.8876 10.5 17 10.5ZM11.5245 15.4779C11.1881 15.4925 10.8462 15.5 10.5 15.5C8.35135 15.5 6.36462 15.2112 4.88046 14.7164C4.57273 14.6139 4.27693 14.4993 4 14.3716V17.9723C4.01416 17.9997 4.06273 18.0729 4.20836 18.1877C4.46263 18.3881 4.89254 18.6123 5.51292 18.8191C6.74323 19.2292 8.5065 19.5 10.5 19.5C11.2618 19.5 11.99 19.4605 12.6676 19.3887C11.9361 18.4548 11.5 17.2783 11.5 16C11.5 15.8239 11.5083 15.6497 11.5245 15.4779Z" fill="#FF8800"/>
<path d="M17 8.37161V10.5C14.8876 10.5 13.0534 11.6908 12.132 13.4378C11.6111 13.4783 11.0648 13.5 10.5 13.5C8.5065 13.5 6.74323 13.2292 5.51292 12.8191C4.89254 12.6123 4.46263 12.3881 4.20836 12.1877C4.06273 12.0729 4.01416 11.9997 4 11.9723V8.37161C4.27693 8.49927 4.57273 8.61387 4.88046 8.71645C6.36462 9.21117 8.35135 9.5 10.5 9.5C12.6486 9.5 14.6354 9.21117 16.1195 8.71645C16.4273 8.61387 16.7231 8.49927 17 8.37161Z" fill="white"/>
<path d="M16.75 13.5C16.6119 13.5 16.5 13.6119 16.5 13.75V16.75C16.5 16.8881 16.6119 17 16.75 17H17.25C17.3881 17 17.5 16.8881 17.5 16.75V13.75C17.5 13.6119 17.3881 13.5 17.25 13.5H16.75Z" fill="white"/>
<path d="M16.75 17.5C16.6119 17.5 16.5 17.6119 16.5 17.75V18.25C16.5 18.3881 16.6119 18.5 16.75 18.5H17.25C17.3881 18.5 17.5 18.3881 17.5 18.25V17.75C17.5 17.6119 17.3881 17.5 17.25 17.5H16.75Z" fill="white"/>
</svg>
