<svg width="24" height="24" viewBox="0 0 24 24"  xmlns="http://www.w3.org/2000/svg">
<path d="M13 5V20.5C13 20.5657 12.9871 20.6307 12.9619 20.6913C12.9368 20.752 12.9 20.8071 12.8536 20.8536C12.8071 20.9 12.752 20.9368 12.6913 20.9619C12.6307 20.9871 12.5657 21 12.5 21H11.5C11.4343 21 11.3693 20.9871 11.3087 20.9619C11.248 20.9368 11.1929 20.9 11.1464 20.8536C11.1 20.8071 11.0632 20.752 11.0381 20.6913C11.0129 20.6307 11 20.5657 11 20.5V5H3.5C3.43434 5 3.36932 4.98707 3.30866 4.96194C3.248 4.93681 3.19288 4.89998 3.14645 4.85355C3.10002 4.80712 3.06319 4.752 3.03806 4.69134C3.01293 4.63068 3 4.56566 3 4.5V3.5C3 3.43434 3.01293 3.36932 3.03806 3.30866C3.06319 3.248 3.10002 3.19288 3.14645 3.14645C3.19288 3.10002 3.248 3.06319 3.30866 3.03806C3.36932 3.01293 3.43434 3 3.5 3H20.5C20.5657 3 20.6307 3.01293 20.6913 3.03806C20.752 3.06319 20.8071 3.10002 20.8536 3.14645C20.9 3.19288 20.9368 3.248 20.9619 3.30866C20.9871 3.36932 21 3.43434 21 3.5V4.5C21 4.63261 20.9473 4.75979 20.8536 4.85355C20.7598 4.94732 20.6326 5 20.5 5H13Z"/>
</svg>
