<svg width="24" height="24" viewBox="0 0 24 24" fill="none" xmlns="http://www.w3.org/2000/svg">
<path d="M3.5 2.5H10C10.5523 2.5 11 2.94772 11 3.5V10C11 10.5523 10.5523 11 10 11H3.5C2.94772 11 2.5 10.5523 2.5 10V3.5C2.5 2.94772 2.94772 2.5 3.5 2.5ZM4.5 4.5V9H9V4.5H4.5Z" fill="#1F2329"/>
<path d="M3.5 13H10C10.5523 13 11 13.4477 11 14V20.5C11 21.0523 10.5523 21.5 10 21.5H3.5C2.94772 21.5 2.5 21.0523 2.5 20.5V14C2.5 13.4477 2.94772 13 3.5 13ZM4.5 19.5H9V15H4.5V19.5Z" fill="#1F2329"/>
<path d="M14 2.5H20.5C21.0523 2.5 21.5 2.94772 21.5 3.5V10C21.5 10.5523 21.0523 11 20.5 11H14C13.4477 11 13 10.5523 13 10V3.5C13 2.94772 13.4477 2.5 14 2.5ZM15 9H19.5V4.5H15V9Z" fill="#1F2329"/>
<path d="M14 13H20.5C21.0523 13 21.5 13.4477 21.5 14V20.5C21.5 21.0523 21.0523 21.5 20.5 21.5H14C13.4477 21.5 13 21.0523 13 20.5V14C13 13.4477 13.4477 13 14 13ZM15 15V19.5H19.5V15H15Z" fill="#1F2329"/>
</svg>
