<svg width="24" height="24" viewBox="0 0 24 24" fill="none" xmlns="http://www.w3.org/2000/svg">
<path d="M16 2.99994H5V20.9999H19V6.01944H16.5C16.3674 6.01944 16.2402 5.96676 16.1464 5.87299C16.0527 5.77922 16 5.65205 16 5.51944V2.99994V2.99994ZM4 0.999939H17.0855C17.2169 0.999901 17.347 1.02576 17.4684 1.07603C17.5898 1.12631 17.7001 1.20001 17.793 1.29294L20.7075 4.20844C20.8949 4.39601 21.0001 4.65032 21 4.91544V21.9999C21 22.2652 20.8946 22.5195 20.7071 22.707C20.5196 22.8946 20.2652 22.9999 20 22.9999H4C3.73478 22.9999 3.48043 22.8946 3.29289 22.707C3.10536 22.5195 3 22.2652 3 21.9999V1.99994C3 1.73472 3.10536 1.48037 3.29289 1.29283C3.48043 1.1053 3.73478 0.999939 4 0.999939V0.999939ZM8 9.99994H16C16.1326 9.99994 16.2598 10.0526 16.3536 10.1464C16.4473 10.2402 16.5 10.3673 16.5 10.4999V11.4999C16.5 11.6325 16.4473 11.7597 16.3536 11.8535C16.2598 11.9473 16.1326 11.9999 16 11.9999H8C7.86739 11.9999 7.74021 11.9473 7.64645 11.8535C7.55268 11.7597 7.5 11.6325 7.5 11.4999V10.4999C7.5 10.3673 7.55268 10.2402 7.64645 10.1464C7.74021 10.0526 7.86739 9.99994 8 9.99994V9.99994ZM8 14.9999H12.5C12.5657 14.9999 12.6307 15.0129 12.6913 15.038C12.752 15.0631 12.8071 15.1 12.8536 15.1464C12.9 15.1928 12.9368 15.2479 12.9619 15.3086C12.9871 15.3693 13 15.4343 13 15.4999V16.4999C13 16.5656 12.9871 16.6306 12.9619 16.6913C12.9368 16.7519 12.9 16.8071 12.8536 16.8535C12.8071 16.8999 12.752 16.9367 12.6913 16.9619C12.6307 16.987 12.5657 16.9999 12.5 16.9999H8C7.86739 16.9999 7.74021 16.9473 7.64645 16.8535C7.55268 16.7597 7.5 16.6325 7.5 16.4999V15.4999C7.5 15.3673 7.55268 15.2402 7.64645 15.1464C7.74021 15.0526 7.86739 14.9999 8 14.9999V14.9999Z" fill="#1F2329"/>
</svg>
