<svg width="24" height="24" viewBox="0 0 24 24"  xmlns="http://www.w3.org/2000/svg">
<path d="M8.031 16.8732H11.437L21.5681 6.74183C21.9162 6.39373 21.9169 5.82958 21.5697 5.48057L18.5013 2.39596C18.1525 2.04721 17.5871 2.04721 17.2383 2.39596L16.6085 3.02576L16.611 3.02824L7.13798 12.5741V15.9802C7.13798 16.4734 7.5378 16.8732 8.031 16.8732ZM17.8415 4.2652L19.65 6.08322L18.1196 7.61511L16.3205 5.81598L17.8415 4.2652ZM16.8573 8.87864L10.6838 15.0581H10.681L8.95307 13.3274L15.0698 7.09113L16.8573 8.87864Z"/>
<path d="M13.1447 3.47394H3.6651C3.1171 3.47394 2.67285 3.91818 2.67285 4.46618V20.3422C2.67285 20.8902 3.1171 21.3344 3.6651 21.3344H19.5411C20.0891 21.3344 20.5333 20.8902 20.5333 20.3422V10.742L18.5364 12.751V19.3472H4.66971V5.46114H11.1936L13.1447 3.47394Z"/>
</svg>
