<?xml version="1.0" standalone="no"?><!DOCTYPE svg PUBLIC "-//W3C//DTD SVG 1.1//EN" "http://www.w3.org/Graphics/SVG/1.1/DTD/svg11.dtd"><svg t="1683689165733" class="icon" viewBox="0 0 1024 1024" version="1.1" xmlns="http://www.w3.org/2000/svg" p-id="2409" xmlns:xlink="http://www.w3.org/1999/xlink" width="200" height="200"><path d="M841.71335 65.290005 182.285626 65.290005c-64.511269 0-116.995621 52.484352-116.995621 116.995621L65.290005 841.71335c0 64.511269 52.484352 116.995621 116.995621 116.995621l659.427724 0c64.511269 0 116.995621-52.484352 116.995621-116.995621L958.708971 182.285626C958.708971 117.774357 906.225643 65.290005 841.71335 65.290005zM182.285626 107.833961l659.427724 0c41.051975 0 74.451666 33.398668 74.451666 74.451666l0 136.557142c-150.09446 5.26184-290.370297 66.084091-396.978337 172.692131-49.960879 49.961902-89.841168 107.331517-118.694309 169.625282-83.496669-70.835302-204.372667-75.376735-292.65841-13.617136L107.833961 182.285626C107.833961 141.232628 141.232628 107.833961 182.285626 107.833961zM107.833961 841.71335 107.833961 702.627618c76.54228-74.311473 198.833511-74.234725 275.272437 0.24457-24.303522 65.298192-37.026288 135.112234-37.026288 206.91149 0 2.223644 0.343831 4.366448 0.977257 6.381337L182.285626 916.165016C141.232628 916.165016 107.833961 882.766348 107.833961 841.71335zM841.71335 916.165016 387.646807 916.165016c0.633427-2.01489 0.977257-4.157693 0.977257-6.381337 0-146.71755 57.053414-284.572244 160.647817-388.166647 98.570993-98.570993 228.166583-154.963351 366.894158-160.204725L916.166039 841.71335C916.165016 882.766348 882.766348 916.165016 841.71335 916.165016z" fill="#272636" p-id="2410"></path><path d="M312.397986 413.458683c60.8376 0 110.332874-49.494251 110.332874-110.332874s-49.494251-110.332874-110.332874-110.332874-110.332874 49.494251-110.332874 110.332874S251.559363 413.458683 312.397986 413.458683zM312.397986 235.337913c37.378306 0 67.788919 30.40959 67.788919 67.788919s-30.40959 67.788919-67.788919 67.788919-67.788919-30.40959-67.788919-67.788919S275.018657 235.337913 312.397986 235.337913z" fill="#272636" p-id="2411"></path></svg>