<svg width="16" height="16" viewBox="0 0 16 16" fill="none" xmlns="http://www.w3.org/2000/svg">
<g id="icon_succeed_filled" clip-path="url(#clip0_3515_155051)">
<path id="Union" d="M0.666016 7.99935C0.666016 12.0493 3.94935 15.3327 7.99935 15.3327C12.0494 15.3327 15.3327 12.0493 15.3327 7.99935C15.3327 3.94935 12.0494 0.666016 7.99935 0.666016C3.94935 0.666016 0.666016 3.94935 0.666016 7.99935ZM10.7617 5.9837C10.8242 5.92121 10.909 5.88611 10.9974 5.88611C11.0857 5.88611 11.1705 5.92121 11.233 5.9837L11.7044 6.45537C11.7668 6.51788 11.8019 6.60265 11.8019 6.69104C11.8019 6.77942 11.7668 6.86419 11.7044 6.9267L7.46169 11.1694C7.39918 11.2319 7.31441 11.267 7.22602 11.267C7.13763 11.267 7.05286 11.2319 6.99035 11.1694L4.55035 8.72903C4.48786 8.66652 4.45276 8.58176 4.45276 8.49337C4.45276 8.40498 4.48786 8.32021 4.55035 8.2577L5.02135 7.78604C5.08386 7.72354 5.16863 7.68844 5.25702 7.68844C5.34541 7.68844 5.43018 7.72354 5.49269 7.78604L7.22602 9.51937L10.7617 5.9837Z" fill="#34C724"/>
</g>
<defs>
<clipPath id="clip0_3515_155051">
<rect width="16" height="16" fill="white"/>
</clipPath>
</defs>
</svg>
