<svg width="24" height="24" viewBox="0 0 24 24"  xmlns="http://www.w3.org/2000/svg">
<path d="M13 7H16.5C16.7761 7 17 7.22386 17 7.5V8.5C17 8.77614 16.7761 9 16.5 9H13V16.5C13 16.7761 12.7761 17 12.5 17H11.5C11.2239 17 11 16.7761 11 16.5V9H7.5C7.22386 9 7 8.77614 7 8.5V7.5C7 7.22386 7.22386 7 7.5 7H11C11 7 13 7.02833 13 7Z" />
<path fill-rule="evenodd" clip-rule="evenodd" d="M2 3C2 2.44772 2.44772 2 3 2H21C21.5523 2 22 2.44772 22 3V21C22 21.5523 21.5523 22 21 22H3C2.44772 22 2 21.5523 2 21V3ZM4 20V4H20V20H4Z" />
</svg>
