<svg width="40" height="40" viewBox="0 0 40 40" fill="none" xmlns="http://www.w3.org/2000/svg">
  <g clip-path="url(#clip0_10054_2080)">
    <path d="M0 6.66667C0 2.98477 3.25611 0 7.27273 0H32.7273C36.7439 0 40 2.98477 40 6.66667V33.3333C40 37.0152 36.7439 40 32.7273 40H7.27273C3.25611 40 0 37.0152 0 33.3333V6.66667Z" fill="#E5FBF8"/>
    <g clip-path="url(#clip1_10054_2080)">
      <path d="M18.0958 25.682L25.7858 20.8437C25.928 20.7535 26.0452 20.6289 26.1264 20.4814C26.2075 20.3339 26.2501 20.1682 26.2501 19.9998C26.2501 19.8315 26.2075 19.6658 26.1264 19.5183C26.0452 19.3707 25.928 19.2461 25.7858 19.156L18.0962 14.318C17.9388 14.219 17.7575 14.1667 17.5722 14.1667C17.4419 14.1671 17.3131 14.1932 17.1929 14.2434C17.0728 14.2937 16.9637 14.3671 16.8719 14.4595C16.7801 14.5519 16.7075 14.6614 16.658 14.7819C16.6086 14.9024 16.5834 15.0314 16.5838 15.1617V24.8387C16.5839 25.0248 16.636 25.2072 16.7342 25.3653C16.8024 25.4759 16.8919 25.5719 16.9974 25.6478C17.1029 25.7236 17.2225 25.7778 17.349 25.8073C17.4756 25.8367 17.6068 25.8408 17.7349 25.8193C17.8631 25.7978 17.9858 25.7511 18.0958 25.682Z" fill="#00D6B9"/>
      <path fill-rule="evenodd" clip-rule="evenodd" d="M19.9998 7.77771C26.7498 7.77771 32.222 13.2499 32.222 19.9999C32.222 26.7499 26.7498 32.2222 19.9998 32.2222C13.2498 32.2222 7.77759 26.7499 7.77759 19.9999C7.77759 13.2499 13.2498 7.77771 19.9998 7.77771ZM19.9998 9.44438C25.8293 9.44438 30.5554 14.1704 30.5554 19.9999C30.5554 25.8295 25.8293 30.5555 19.9998 30.5555C14.1703 30.5555 9.44425 25.8295 9.44425 19.9999C9.44425 14.1704 14.1703 9.44438 19.9998 9.44438Z" fill="#00D6B9"/>
    </g>
  </g>
  <defs>
    <clipPath id="clip0_10054_2080">
      <rect width="40" height="40" fill="white"/>
    </clipPath>
    <clipPath id="clip1_10054_2080">
      <rect width="26.6667" height="26.6667" fill="white" transform="translate(6.66675 6.66669)"/>
    </clipPath>
  </defs>
</svg>
