<svg width="24" height="24" viewBox="0 0 24 24" fill="none" xmlns="http://www.w3.org/2000/svg">
<path d="M12.6573 6.96101C12.8526 6.76575 13.1692 6.76575 13.3644 6.96101L14.0718 7.66839C14.2671 7.86366 14.2671 8.18025 14.0718 8.37551L8.12989 14.317C7.85143 14.5954 7.695 14.9731 7.695 15.367C7.695 15.7608 7.85143 16.1385 8.12989 16.417L8.13489 16.422L8.14089 16.428C8.42266 16.7071 8.80353 16.8633 9.20017 16.8624C9.59682 16.8615 9.97695 16.7035 10.2574 16.423L17.6874 8.99296C18.0124 8.66795 18.2703 8.2821 18.4462 7.85743C18.6221 7.43277 18.7126 6.97761 18.7126 6.51796C18.7126 6.0583 18.6221 5.60315 18.4462 5.17848C18.2703 4.75382 18.0124 4.36797 17.6874 4.04296L17.6509 4.00596C17.3259 3.68091 16.94 3.42307 16.5154 3.24716C16.0907 3.07125 15.6355 2.9807 15.1759 2.9807C14.7162 2.9807 14.2611 3.07125 13.8364 3.24716C13.4118 3.42307 13.0259 3.68091 12.7009 4.00596L4.92339 11.7835C2.76739 13.94 2.76739 17.4355 4.92339 19.5915C7.07989 21.748 10.5754 21.748 12.7314 19.5915L20.1553 12.1675C20.3506 11.9722 20.6672 11.9722 20.8624 12.1675L21.5698 12.8749C21.7651 13.0702 21.7651 13.3867 21.5698 13.582L14.1459 21.006C11.2089 23.943 6.44639 23.943 3.50939 21.006C0.572391 18.0685 0.572391 13.3065 3.50939 10.3695L11.2869 2.59196C13.4349 0.443957 16.9169 0.443957 19.0649 2.59196L19.1019 2.62896C21.2499 4.77646 21.2499 8.25896 19.1019 10.407L11.6719 17.837C11.0176 18.4915 10.1306 18.8602 9.20512 18.8625C8.27961 18.8647 7.39089 18.5003 6.73339 17.849L6.72739 17.843L6.71539 17.8315C6.06184 17.1779 5.69467 16.2915 5.69467 15.3672C5.69467 14.4429 6.06184 13.5565 6.71539 12.903L12.6573 6.96101Z" fill="#1F2329"/>
</svg>
