<svg width="24" height="24" viewBox="0 0 24 24" fill="none" xmlns="http://www.w3.org/2000/svg">
<path d="M18 3C17.39 3 7.84507 3 5.99932 3C4.89475 3 4 3.89543 4 5V15H16V1.5H18V16.5C18 16.7761 17.7761 17 17.5 17H6C4.89543 17 4 17.8954 4 19C4 20.1046 4.89247 21 5.99704 21C9.48548 21 18.4223 21 19.5 21C19.7761 21 20 20.7761 20 20.5V8H22V22C22 22.5523 21.5523 23 21 23H6C3.79086 23 2 21.215 2 19.0059C2 15.0711 2 9.07346 2 4.99815C2 2.78901 3.79033 1 5.99947 1C7.63602 1 14.3553 1 17.0009 1C17.5532 1 18 1.44772 18 2V3Z" fill="#2B2F36"/>
<path d="M6.5 18C6.22386 18 6 18.2239 6 18.5V19.5C6 19.7761 6.22386 20 6.5 20H17.5C17.7761 20 18 19.7761 18 19.5V18.5C18 18.2239 17.7761 18 17.5 18H6.5Z" fill="#2B2F36"/>
</svg>
