<svg width="24" height="24" viewBox="0 0 24 24" fill="none" xmlns="http://www.w3.org/2000/svg">
<path d="M4.8565 11.0002H16.5005C16.7766 11.0002 17.0005 11.2241 17.0005 11.5002V12.4997C17.0005 12.7758 16.7766 12.9997 16.5005 12.9997H4.8145L9.83859 18.0245C10.0338 18.2197 10.0338 18.5362 9.83866 18.7315L9.1318 19.4387C8.93656 19.6341 8.6199 19.6341 8.4246 19.4388L2.42125 13.4354L2.4145 13.4429L1 12.0284L1.0075 12.0209L1 12.0142L2.4145 10.5997L2.422 10.6072L8.42479 4.6037C8.62001 4.40845 8.93654 4.4084 9.13182 4.60358L9.83901 5.31039C10.0344 5.50564 10.0344 5.82229 9.8391 6.01759L4.8565 11.0002ZM21.5002 20.0002C21.2241 20.0002 21.0002 19.7763 21.0002 19.5002V4.49969C21.0002 4.22355 21.2241 3.99969 21.5002 3.99969H22.5005C22.7766 3.99969 23.0005 4.22355 23.0005 4.49969V19.5002C23.0005 19.7763 22.7766 20.0002 22.5005 20.0002H21.5002Z" fill="#1F2329"/>
</svg>
