<svg width="22" height="22" viewBox="0 0 22 22"  xmlns="http://www.w3.org/2000/svg">
<g id="icon_operation-analysis_outlined">
<path id="Vector" d="M18.5556 3C18.7913 3 19.0174 3.09365 19.1841 3.26035C19.3508 3.42705 19.4444 3.65314 19.4444 3.88889V14.5556C19.4444 14.7913 19.3508 15.0174 19.1841 15.1841C19.0174 15.3508 18.7913 15.4444 18.5556 15.4444H12.8378L15.5907 17.8911L14.4093 19.22L11 16.1889L7.59067 19.22L6.40934 17.8911L9.16178 15.4444H3.44445C3.2087 15.4444 2.98261 15.3508 2.81591 15.1841C2.64921 15.0174 2.55556 14.7913 2.55556 14.5556V3.88889C2.55556 3.65314 2.64921 3.42705 2.81591 3.26035C2.98261 3.09365 3.2087 3 3.44445 3H18.5556ZM17.6667 4.77778H4.33334V13.6667H17.6667V4.77778ZM14.0564 6.37156L15.3133 7.62845L11.1044 11.8373L9.052 9.78534L7.62845 11.2093L6.37156 9.952L9.052 7.27156L11.104 9.32356L14.0564 6.37156Z"/>
</g>
</svg>
