<svg width="24" height="24" viewBox="0 0 24 24" fill="none" xmlns="http://www.w3.org/2000/svg">
<path d="M14.1395 22.0495C13.815 22.9 12.615 22.9095 12.277 22.0645L6.62002 7.92145C6.29352 7.10545 7.10352 6.29495 7.92002 6.62145L22.062 12.2785C22.9055 12.616 22.8985 13.8125 22.051 14.14L16.3125 16.3565L14.1395 22.05V22.0495ZM13.1835 18.946L14.6025 15.228C14.6525 15.0971 14.7294 14.9782 14.8283 14.879C14.9272 14.7797 15.0458 14.7024 15.1765 14.652L18.9575 13.1915L9.34352 9.34595L13.1835 18.946Z" fill="#1F2329"/>
<path d="M7 1.5C9.9835 1.5 12.4125 3.8755 12.4975 6.8385L10.349 5.979C10.1726 5.40149 9.84979 4.87945 9.41195 4.4636C8.97411 4.04776 8.43612 3.75228 7.85029 3.60586C7.26446 3.45945 6.65072 3.4671 6.06872 3.62806C5.48672 3.78901 4.95627 4.09781 4.52892 4.52443C4.10157 4.95105 3.79186 5.48097 3.6299 6.0627C3.46795 6.64442 3.45925 7.25815 3.60465 7.84423C3.75006 8.4303 4.04462 8.96879 4.45971 9.40735C4.8748 9.84591 5.3963 10.1696 5.9735 10.347L6.8335 12.4975C3.8725 12.4095 1.5 9.982 1.5 7C1.5 3.9625 3.9625 1.5 7 1.5Z" fill="#1F2329"/>
</svg>
