<svg width="24" height="24" viewBox="0 0 24 24" fill="none" xmlns="http://www.w3.org/2000/svg">
<path d="M16 3H5V21H19V6.0195H16.5C16.3674 6.0195 16.2402 5.96682 16.1464 5.87305C16.0527 5.77928 16 5.65211 16 5.5195V3V3ZM4 1H17.0855C17.2169 0.999962 17.347 1.02582 17.4684 1.07609C17.5898 1.12637 17.7001 1.20008 17.793 1.293L20.7075 4.2085C20.8949 4.39607 21.0001 4.65038 21 4.9155V22C21 22.2652 20.8946 22.5196 20.7071 22.7071C20.5196 22.8946 20.2652 23 20 23H4C3.73478 23 3.48043 22.8946 3.29289 22.7071C3.10536 22.5196 3 22.2652 3 22V2C3 1.73478 3.10536 1.48043 3.29289 1.29289C3.48043 1.10536 3.73478 1 4 1V1ZM8 10H16C16.1326 10 16.2598 10.0527 16.3536 10.1464C16.4473 10.2402 16.5 10.3674 16.5 10.5V11.5C16.5 11.6326 16.4473 11.7598 16.3536 11.8536C16.2598 11.9473 16.1326 12 16 12H8C7.86739 12 7.74021 11.9473 7.64645 11.8536C7.55268 11.7598 7.5 11.6326 7.5 11.5V10.5C7.5 10.3674 7.55268 10.2402 7.64645 10.1464C7.74021 10.0527 7.86739 10 8 10V10ZM8 15H12.5C12.5657 15 12.6307 15.0129 12.6913 15.0381C12.752 15.0632 12.8071 15.1 12.8536 15.1464C12.9 15.1929 12.9368 15.248 12.9619 15.3087C12.9871 15.3693 13 15.4343 13 15.5V16.5C13 16.5657 12.9871 16.6307 12.9619 16.6913C12.9368 16.752 12.9 16.8071 12.8536 16.8536C12.8071 16.9 12.752 16.9368 12.6913 16.9619C12.6307 16.9871 12.5657 17 12.5 17H8C7.86739 17 7.74021 16.9473 7.64645 16.8536C7.55268 16.7598 7.5 16.6326 7.5 16.5V15.5C7.5 15.3674 7.55268 15.2402 7.64645 15.1464C7.74021 15.0527 7.86739 15 8 15V15Z" fill="#1F2329"/>
</svg>
