<svg width="24" height="24" viewBox="0 0 24 24" fill="none" xmlns="http://www.w3.org/2000/svg">
<path d="M18 10.5L20 10.5C20.0657 10.5 20.1307 10.5129 20.1913 10.5381C20.252 10.5632 20.3071 10.6 20.3536 10.6464C20.4 10.6929 20.4368 10.748 20.4619 10.8087C20.4871 10.8693 20.5 10.9343 20.5 11L20.5 13C20.5 13.0657 20.4871 13.1307 20.4619 13.1913C20.4368 13.252 20.4 13.3071 20.3536 13.3536C20.3071 13.4 20.252 13.4368 20.1913 13.4619C20.1307 13.4871 20.0657 13.5 20 13.5L18 13.5C17.8674 13.5 17.7402 13.4473 17.6464 13.3536C17.5527 13.2598 17.5 13.1326 17.5 13L17.5 11C17.5 10.9343 17.5129 10.8693 17.5381 10.8087C17.5632 10.748 17.6 10.6929 17.6464 10.6464C17.6929 10.6 17.748 10.5632 17.8087 10.5381C17.8693 10.5129 17.9343 10.5 18 10.5ZM4 10.5L6 10.5C6.06566 10.5 6.13068 10.5129 6.19134 10.5381C6.252 10.5632 6.30712 10.6 6.35355 10.6464C6.39998 10.6929 6.43681 10.748 6.46194 10.8087C6.48707 10.8693 6.5 10.9343 6.5 11L6.5 13C6.5 13.1326 6.44732 13.2598 6.35355 13.3536C6.25979 13.4473 6.13261 13.5 6 13.5L4 13.5C3.93434 13.5 3.86932 13.4871 3.80866 13.4619C3.748 13.4368 3.69288 13.4 3.64645 13.3536C3.60002 13.3071 3.56319 13.252 3.53806 13.1913C3.51293 13.1307 3.5 13.0657 3.5 13L3.5 11C3.5 10.9343 3.51293 10.8693 3.53806 10.8087C3.56319 10.748 3.60002 10.6929 3.64645 10.6464C3.69288 10.6 3.748 10.5632 3.80866 10.5381C3.86932 10.5129 3.93434 10.5 4 10.5ZM11 10.5L13 10.5C13.0657 10.5 13.1307 10.5129 13.1913 10.5381C13.252 10.5632 13.3071 10.6 13.3536 10.6464C13.4 10.6929 13.4368 10.748 13.4619 10.8087C13.4871 10.8693 13.5 10.9343 13.5 11L13.5 13C13.5 13.0657 13.4871 13.1307 13.4619 13.1913C13.4368 13.252 13.4 13.3071 13.3536 13.3536C13.3071 13.4 13.252 13.4368 13.1913 13.4619C13.1307 13.4871 13.0657 13.5 13 13.5L11 13.5C10.8674 13.5 10.7402 13.4473 10.6464 13.3536C10.5527 13.2598 10.5 13.1326 10.5 13L10.5 11C10.5 10.9343 10.5129 10.8693 10.5381 10.8087C10.5632 10.748 10.6 10.6929 10.6464 10.6464C10.6929 10.6 10.748 10.5632 10.8087 10.5381C10.8693 10.5129 10.9343 10.5 11 10.5Z" fill="#1F2329"/>
</svg>
