<svg width="24" height="24" viewBox="0 0 24 24" fill="none" xmlns="http://www.w3.org/2000/svg">
<path d="M1.66699 3.20002C1.66699 2.90547 1.90577 2.66669 2.20033 2.66669H3.13366C3.42821 2.66669 3.66699 2.90547 3.66699 3.20002V20.8C3.66699 21.0946 3.42821 21.3334 3.13366 21.3334H2.20033C1.90577 21.3334 1.66699 21.0946 1.66699 20.8V3.20002Z" fill="currentColor"/>
<path d="M20.867 2.66669C20.5724 2.66669 20.3337 2.90547 20.3337 3.20002V20.8C20.3337 21.0946 20.5724 21.3334 20.867 21.3334H21.8003C22.0949 21.3334 22.3337 21.0946 22.3337 20.8V3.20002C22.3337 2.90547 22.0949 2.66669 21.8003 2.66669H20.867Z" fill="currentColor"/>
<path d="M9.02572 13.7776H14.9952L16.7999 18.344C16.8768 18.5387 17.065 18.6667 17.2743 18.6667H18.2263C18.2905 18.6667 18.3541 18.6546 18.4138 18.631C18.6758 18.5274 18.8043 18.231 18.7007 17.969L13.3076 4.32264C13.2307 4.12793 13.0426 4 12.8332 4H11.2207C11.0119 4 10.8242 4.12721 10.7468 4.32112L5.30291 17.9675C5.27893 18.0276 5.2666 18.0918 5.2666 18.1565C5.2666 18.4383 5.495 18.6667 5.77675 18.6667H6.72961C6.93838 18.6667 7.12608 18.5395 7.20344 18.3455L9.02572 13.7776ZM12.0245 6.2606L14.2926 11.9997H9.73496L12.0245 6.2606Z" fill="currentColor"/>
</svg>
