<svg width="24" height="24" viewBox="0 0 24 24" fill="none" xmlns="http://www.w3.org/2000/svg">
<path d="M5.29008 5.22068L5.29008 5.22068C3.5148 6.99712 2.49805 9.40416 2.49805 11.97C2.49805 17.2342 6.75182 21.5024 12.0004 21.5024C17.249 21.5024 21.5027 17.2342 21.5027 11.97C21.5027 11.6777 21.3866 11.3973 21.1799 11.1906C20.9731 10.9838 20.6928 10.8677 20.4004 10.8677C20.108 10.8677 19.8276 10.9838 19.6209 11.1906C19.4142 11.3973 19.298 11.6777 19.298 11.97C19.298 16.0178 16.0303 19.2977 12.0004 19.2977C7.97048 19.2977 4.70273 16.0178 4.70273 11.97M5.29008 5.22068L4.80039 11.97M5.29008 5.22068C5.39243 5.11826 5.51394 5.037 5.64769 4.98154C5.78145 4.92608 5.92481 4.89751 6.0696 4.89746C6.2144 4.89741 6.35778 4.92588 6.49157 4.98124C6.62536 5.0366 6.74694 5.11777 6.84936 5.22012C6.95178 5.32247 7.03304 5.44398 7.0885 5.57774C7.14396 5.71149 7.17253 5.85485 7.17258 5.99965C7.17263 6.14444 7.14417 6.28782 7.0888 6.42161C7.03344 6.55541 6.95227 6.67698 6.84992 6.7794M5.29008 5.22068L6.919 6.84843M4.70273 11.97H4.80039M4.70273 11.97C4.70273 11.9701 4.70273 11.9702 4.70273 11.9702L4.80039 11.97M4.70273 11.97C4.701 11.0061 4.88979 10.0512 5.25827 9.16045C5.62676 8.26965 6.16768 7.46047 6.84992 6.7794M4.80039 11.97C4.79865 11.0189 4.98493 10.0767 5.34851 9.19778C5.7121 8.31884 6.24582 7.52042 6.919 6.84843M6.84992 6.7794L6.919 6.84843M6.84992 6.7794C6.84995 6.77937 6.84998 6.77935 6.85001 6.77932L6.919 6.84843" fill="#3370FF" stroke="#3370FF" stroke-width="0.195312"/>
</svg>
