<svg width="24" height="24" viewBox="0 0 24 24" fill="none" xmlns="http://www.w3.org/2000/svg">
<path d="M3.16428 11H20.8354C21.1103 11 21.3332 11.2239 21.3332 11.5V12.5C21.3332 12.7762 21.1103 13 20.8354 13H3.16428C2.88937 13 2.6665 12.7762 2.6665 12.5V11.5C2.6665 11.2239 2.88937 11 3.16428 11ZM3.16428 2.66669H6.16452C6.43943 2.66669 6.66229 2.89054 6.66229 3.16669V4.16669C6.66229 4.44283 6.43943 4.66669 6.16452 4.66669H3.16428C2.88937 4.66669 2.6665 4.44283 2.6665 4.16669V3.16669C2.6665 2.89054 2.88937 2.66669 3.16428 2.66669ZM10.5012 2.66669H13.5014C13.7763 2.66669 13.9992 2.89054 13.9992 3.16669V4.16669C13.9992 4.44283 13.7763 4.66669 13.5014 4.66669H10.5012C10.2263 4.66669 10.0034 4.44283 10.0034 4.16669V3.16669C10.0034 2.89054 10.2263 2.66669 10.5012 2.66669ZM17.8309 2.66669H20.8312C21.1061 2.66669 21.329 2.89054 21.329 3.16669V4.16669C21.329 4.44283 21.1061 4.66669 20.8312 4.66669H17.8309C17.556 4.66669 17.3332 4.44283 17.3332 4.16669V3.16669C17.3332 2.89054 17.556 2.66669 17.8309 2.66669ZM3.16428 19.3348H6.16452C6.43943 19.3348 6.66229 19.5587 6.66229 19.8348V20.8348C6.66229 21.111 6.43943 21.3348 6.16452 21.3348H3.16428C2.88937 21.3348 2.6665 21.111 2.6665 20.8348V19.8348C2.6665 19.5587 2.88937 19.3348 3.16428 19.3348ZM10.5012 19.3348H13.5014C13.7763 19.3348 13.9992 19.5587 13.9992 19.8348V20.8348C13.9992 21.111 13.7763 21.3348 13.5014 21.3348H10.5012C10.2263 21.3348 10.0034 21.111 10.0034 20.8348V19.8348C10.0034 19.5587 10.2263 19.3348 10.5012 19.3348ZM17.8309 19.3348H20.8312C21.1061 19.3348 21.329 19.5587 21.329 19.8348V20.8348C21.329 21.111 21.1061 21.3348 20.8312 21.3348H17.8309C17.556 21.3348 17.3332 21.111 17.3332 20.8348V19.8348C17.3332 19.5587 17.556 19.3348 17.8309 19.3348Z" fill="#1F2329"/>
</svg>
