<svg width="24" height="24" viewBox="0 0 24 24" fill="none" xmlns="http://www.w3.org/2000/svg">
<path d="M1.7335 2.66669C1.51258 2.66669 1.3335 2.84577 1.3335 3.06669V4.93335C1.3335 5.15427 1.51258 5.33335 1.7335 5.33335H3.60016C3.82108 5.33335 4.00016 5.15427 4.00016 4.93335V3.06669C4.00016 2.84577 3.82108 2.66669 3.60016 2.66669H1.7335ZM8.40016 10.6667C8.17925 10.6667 8.00016 10.8458 8.00016 11.0667V12.2667C8.00016 12.4876 8.17925 12.6667 8.40016 12.6667H22.2668C22.4877 12.6667 22.6668 12.4876 22.6668 12.2667V11.0667C22.6668 10.8458 22.4877 10.6667 22.2668 10.6667H8.40016ZM1.3335 11.0667C1.3335 10.8458 1.51258 10.6667 1.7335 10.6667H3.60016C3.82108 10.6667 4.00016 10.8458 4.00016 11.0667V12.9334C4.00016 13.1543 3.82108 13.3334 3.60016 13.3334H1.7335C1.51258 13.3334 1.3335 13.1543 1.3335 12.9334V11.0667ZM8.40016 2.66669C8.17925 2.66669 8.00016 2.84577 8.00016 3.06669V4.26669C8.00016 4.4876 8.17925 4.66669 8.40016 4.66669H22.2668C22.4877 4.66669 22.6668 4.4876 22.6668 4.26669V3.06669C22.6668 2.84577 22.4877 2.66669 22.2668 2.66669H8.40016ZM1.3335 19.0667C1.3335 18.8458 1.51258 18.6667 1.7335 18.6667H3.60016C3.82108 18.6667 4.00016 18.8458 4.00016 19.0667V20.9334C4.00016 21.1543 3.82108 21.3334 3.60016 21.3334H1.7335C1.51258 21.3334 1.3335 21.1543 1.3335 20.9334V19.0667ZM8.40016 19.3334C8.17925 19.3334 8.00016 19.5124 8.00016 19.7334V20.9334C8.00016 21.1543 8.17925 21.3334 8.40016 21.3334H22.2668C22.4877 21.3334 22.6668 21.1543 22.6668 20.9334V19.7334C22.6668 19.5124 22.4877 19.3334 22.2668 19.3334H8.40016Z" fill="#1F2329"/>
</svg>
