<svg width="24" height="24" viewBox="0 0 24 24" fill="none" xmlns="http://www.w3.org/2000/svg">
<path d="M5 3V21H19V3H5ZM4 1H20C20.5523 1 21 1.46904 21 2.04762V21.9524C21 22.531 20.5523 23 20 23H4C3.44772 23 3 22.531 3 21.9524V2.04762C3 1.46904 3.44772 1 4 1ZM7.5 7H11.5C11.7761 7 12 7.22386 12 7.5V8.5C12 8.77614 11.7761 9 11.5 9H7.5C7.22386 9 7 8.77614 7 8.5V7.5C7 7.22386 7.22386 7 7.5 7ZM7.5 11H16.5C16.7761 11 17 11.2239 17 11.5V12.5C17 12.7761 16.7761 13 16.5 13H7.5C7.22386 13 7 12.7761 7 12.5V11.5C7 11.2239 7.22386 11 7.5 11ZM7.5 15H16.5C16.7761 15 17 15.2239 17 15.5V16.5C17 16.7761 16.7761 17 16.5 17H7.5C7.22386 17 7 16.7761 7 16.5V15.5C7 15.2239 7.22386 15 7.5 15Z" fill="#1F2329"/>
</svg>
