<svg width="24" height="24" viewBox="0 0 24 24" fill="none" xmlns="http://www.w3.org/2000/svg">
<path d="M11.9487 2.68056C13.7079 2.68206 15.433 3.02305 17.0075 3.66525L15.7715 5.1908C14.7141 4.8217 13.5862 4.60574 12.4328 4.55752L11.9371 4.54716L11.3988 4.55795C10.2365 4.60829 9.09259 4.83466 7.98861 5.23523C6.79836 5.66676 5.72608 6.27787 4.80234 7.05326C3.89762 7.81424 3.18653 8.6898 2.69207 9.65344C2.19127 10.6269 1.93662 11.6505 1.93662 12.6874C1.93662 13.7178 2.18951 14.7223 2.68673 15.6715C3.1766 16.6006 3.88294 17.4424 4.78365 18.1714C5.70142 18.9118 6.77525 19.4958 7.97294 19.9053C9.22275 20.334 10.5561 20.5511 11.9343 20.5511C12.4896 20.5511 13.0422 20.5144 13.5914 20.4416L14.1394 20.3568L14.8107 20.2233L14.8803 20.2016C14.9725 20.1604 15.061 20.072 15.1279 19.9555C15.2261 19.7831 15.2668 19.5735 15.2456 19.367L15.218 19.2133L15.1812 19.0831L15.113 18.8096C14.8767 17.7123 15.0803 16.579 15.6874 15.6544C16.3419 14.6559 17.3932 14.0324 18.5344 13.9538L18.7803 13.9453H20.5511L20.6882 13.9361C21.2749 13.8573 21.7599 13.2801 21.8789 12.5559L21.8997 12.3864L21.9065 12.1672L21.904 12.0813L21.8727 11.8051L21.812 11.4475C21.6471 10.6168 21.3208 9.81403 20.8385 9.05356C20.7056 8.84298 20.562 8.63752 20.4081 8.4375L21.6066 6.95686C21.9003 7.30684 22.168 7.67274 22.4088 8.05342C23.0239 9.02276 23.4394 10.0593 23.6452 11.1328L23.7125 11.537L23.7625 11.9698L23.7678 12.2097L23.7619 12.4285C23.6645 14.2349 22.3693 15.6808 20.7545 15.7936L20.5511 15.8007H18.783C18.1741 15.8036 17.6021 16.128 17.2449 16.6724C16.9673 17.0977 16.8436 17.6159 16.8886 18.1261L16.9183 18.3439L17.008 18.693C17.2128 19.4248 17.1175 20.2232 16.7484 20.8711C16.4542 21.3876 16.009 21.7678 15.4949 21.9534L15.299 22.0138L14.5767 22.1617C14.0551 22.2584 13.5318 22.3262 13.0072 22.3649L12.4823 22.394L11.9371 22.4037C10.3554 22.4037 8.81778 22.1528 7.37375 21.6585C5.97173 21.1782 4.70969 20.4895 3.61919 19.6104C2.51985 18.7221 1.6538 17.6841 1.04604 16.5268C0.407797 15.3086 0.0839844 14.0141 0.0839844 12.679C0.0839844 11.3414 0.406226 10.0357 1.04352 8.79433C1.6519 7.60811 2.51573 6.53951 3.61179 5.61826C4.70342 4.70163 5.96498 3.98174 7.36635 3.47568C8.5066 3.06892 9.68504 2.81728 10.8754 2.72552L11.3862 2.696L11.9244 2.6854L11.9487 2.68056ZM5.50119 13.0916C6.25906 13.0916 6.87257 13.7077 6.87515 14.4655C6.87515 15.2234 6.25906 15.8395 5.50119 15.8395C4.74074 15.8395 4.12723 15.2234 4.12723 14.4655C4.12723 13.7077 4.74332 13.0916 5.50119 13.0916ZM20.8492 1.83811C21.0646 1.56878 21.4576 1.52511 21.727 1.74058L22.2147 2.13072C22.484 2.34618 22.5277 2.73919 22.3122 3.00853L12.7099 15.0114L11.2799 15.6436C11.2324 15.6646 11.1796 15.6703 11.1287 15.6598C10.9936 15.6321 10.9065 15.5001 10.9342 15.3649L11.2469 13.841L20.8492 1.83811ZM6.75025 8.09534C7.50812 8.09534 8.12421 8.71143 8.12421 9.46931C8.12421 10.2272 7.50812 10.8433 6.75025 10.8433C5.9898 10.8433 5.37628 10.2272 5.37628 9.46931C5.37628 8.71143 5.99238 8.09534 6.75025 8.09534ZM11.9963 6.22176C12.7567 6.22176 13.3702 6.83785 13.3702 7.59572C13.3702 8.35359 12.7542 8.96968 11.9963 8.96968C11.2358 8.96968 10.6223 8.35359 10.6223 7.59572C10.6223 6.83785 11.2384 6.22176 11.9963 6.22176Z" fill="#1F2329"/>
</svg>
