<svg width="12" height="12" viewBox="0 0 12 12" xmlns="http://www.w3.org/2000/svg">
<path d="M5.99993 5.29289L9.85868 1.43413C9.95632 1.3365 10.1146 1.3365 10.2122 1.43413L10.5658 1.78769C10.6634 1.88532 10.6634 2.04361 10.5658 2.14124L6.70703 6L10.5658 9.85875C10.6634 9.95639 10.6634 10.1147 10.5658 10.2123L10.2122 10.5659C10.1146 10.6635 9.95632 10.6635 9.85868 10.5659L5.99993 6.7071L2.14117 10.5659C2.04354 10.6635 1.88525 10.6635 1.78762 10.5659L1.43406 10.2123C1.33643 10.1147 1.33643 9.95639 1.43406 9.85875L5.29282 6L1.43406 2.14124C1.33643 2.04361 1.33643 1.88532 1.43406 1.78769L1.78762 1.43413C1.88525 1.3365 2.04354 1.3365 2.14117 1.43413L5.99993 5.29289Z"/>
</svg>
