<svg width="20" height="20" viewBox="0 0 20 20" fill="none" xmlns="http://www.w3.org/2000/svg">
<path d="M2.43723 2.46185C2.64288 2.2562 2.94086 2.17264 3.22344 2.24138L8.3228 3.48176L12.2925 0.880912C12.545 0.71548 12.8672 0.699535 13.1348 0.839231C13.4024 0.978926 13.5736 1.25242 13.5822 1.55416L13.719 6.34135L17.5636 9.63677C17.7855 9.82697 17.8916 10.1195 17.8431 10.4077C17.7946 10.696 17.5987 10.9377 17.3267 11.0448L12.8025 12.8271L11.0202 17.3514C10.9131 17.6233 10.6713 17.8192 10.3831 17.8677C10.0949 17.9162 9.80236 17.8102 9.61215 17.5882L6.31673 13.7436L1.52955 13.6068C1.2278 13.5982 0.954309 13.4271 0.814613 13.1595C0.674918 12.8919 0.690863 12.5696 0.856295 12.3171L3.45715 8.34741L2.21676 3.24806C2.14802 2.96547 2.23158 2.66749 2.43723 2.46185ZM4.15978 4.1844L5.16203 8.30476C5.21654 8.52884 5.17575 8.7655 5.04936 8.95841L3.06746 11.9834L6.73313 12.0881C6.96801 12.0949 7.18913 12.2004 7.34205 12.3788L9.97683 15.4527L11.3846 11.8791C11.4693 11.6641 11.6395 11.4939 11.8545 11.4092L15.4281 10.0014L12.3542 7.36666C12.1758 7.21375 12.0702 6.99262 12.0635 6.75775L11.9588 3.09208L8.93379 5.07398C8.74088 5.20036 8.50423 5.24116 8.28014 5.18665L4.15978 4.1844Z" fill="#1F2329"/>
<path d="M13.6479 14.851L17.4634 18.6665C17.6261 18.8293 17.8899 18.8293 18.0527 18.6665L18.6419 18.0773C18.8046 17.9146 18.8046 17.6507 18.6419 17.488L14.8264 13.6725L13.981 14.0056L13.6479 14.851Z" fill="#1F2329"/>
</svg>
