<svg width="24" height="24" viewBox="0 0 24 24" fill="none" xmlns="http://www.w3.org/2000/svg">
<path d="M3 20.5333C3 20.2388 3.23025 20 3.51429 20H20.4857C20.7697 20 21 20.2388 21 20.5333V23.4667C21 23.7612 20.7697 24 20.4857 24H3.51429C3.23025 24 3 23.7612 3 23.4667V20.5333Z" fill="#1F2329"/>
<path d="M10.8432 3C10.6364 3 10.4509 3.12731 10.3766 3.32029L5.26175 16.6003C5.1356 16.9278 5.37735 17.28 5.72834 17.28H6.97908C7.18471 17.28 7.36937 17.1541 7.44451 16.9627L8.87542 13.3173C8.95056 13.1259 9.13522 13 9.34085 13H14.2887C14.5012 13 14.6905 13.1344 14.7607 13.335L16.0228 16.945C16.093 17.1456 16.2823 17.28 16.4948 17.28H17.7516C18.1026 17.28 18.3443 16.9278 18.2182 16.6003L13.1033 3.32029C13.029 3.12731 12.8435 3 12.6367 3H10.8432ZM9.61469 11L11.6861 5.37748C11.6944 5.35496 11.7159 5.34 11.7399 5.34V5.34C11.764 5.34 11.7854 5.35503 11.7937 5.37763L13.8477 11H9.61469Z" fill="#1F2329"/>
</svg>
