<svg width="24" height="24" viewBox="0 0 24 24" fill="none" xmlns="http://www.w3.org/2000/svg">
<path d="M15.2672 16.5749C15.2672 16.3678 15.4351 16.1999 15.6422 16.1999H17.2255C17.4326 16.1999 17.6005 16.3678 17.6005 16.5749V18.1581C17.6005 18.3652 17.4326 18.5331 17.2255 18.5331H15.6422C15.4351 18.5331 15.2672 18.3652 15.2672 18.1581V16.5749Z" fill="white"/>
<path d="M17.7992 2.66699H6.20164C5.77087 2.66699 5.39607 2.96181 5.2946 3.38046L2.69325 14.1134C2.67581 14.1854 2.66699 14.2592 2.66699 14.3333C2.66699 14.3449 2.6672 14.3564 2.66762 14.3679V20.3997C2.66762 20.9152 3.08548 21.333 3.60092 21.333H20.4004C20.9158 21.333 21.3337 20.9152 21.3337 20.3997V14.3333C21.3337 14.2196 21.3134 14.1108 21.2762 14.0101L18.7064 3.38097C18.6051 2.96207 18.2302 2.66699 17.7992 2.66699ZM19.0571 13.3681H4.93809L7.04195 4.62659H16.9584L19.0571 13.3681Z" fill="#1F2329"/>
<path d="M15.2672 16.5749C15.2672 16.3678 15.4351 16.1999 15.6422 16.1999H17.2255C17.4326 16.1999 17.6005 16.3678 17.6005 16.5749V18.1581C17.6005 18.3652 17.4326 18.5331 17.2255 18.5331H15.6422C15.4351 18.5331 15.2672 18.3652 15.2672 18.1581V16.5749Z" fill="white"/>
</svg>
