<svg width="24" height="24" viewBox="0 0 24 24" fill="none" xmlns="http://www.w3.org/2000/svg">
<path d="M6.30394 16.5H17.6959C17.9459 16.35 18.2149 16.23 18.4999 16.145V14.5C18.4999 14.2348 18.3946 13.9804 18.207 13.7929C18.0195 13.6054 17.7652 13.5 17.4999 13.5H6.49994C6.23472 13.5 5.98037 13.6054 5.79283 13.7929C5.6053 13.9804 5.49994 14.2348 5.49994 14.5V16.145C5.78494 16.23 6.05444 16.35 6.30394 16.5ZM3.49994 16.145V14.5C3.49994 13.7044 3.81601 12.9413 4.37862 12.3787C4.94123 11.8161 5.70429 11.5 6.49994 11.5H10.9999V9.37402C10.0573 9.13063 9.23575 8.55179 8.68934 7.74601C8.14292 6.94023 7.90915 5.96283 8.03182 4.99702C8.15449 4.03121 8.6252 3.14329 9.35571 2.4997C10.0862 1.85611 11.0264 1.50104 11.9999 1.50104C12.9735 1.50104 13.9137 1.85611 14.6442 2.4997C15.3747 3.14329 15.8454 4.03121 15.9681 4.99702C16.0907 5.96283 15.857 6.94023 15.3105 7.74601C14.7641 8.55179 13.9426 9.13063 12.9999 9.37402V11.5H17.4999C18.2956 11.5 19.0586 11.8161 19.6213 12.3787C20.1839 12.9413 20.4999 13.7044 20.4999 14.5V16.145C21.2693 16.3744 21.9365 16.8613 22.3896 17.5241C22.8426 18.1869 23.0541 18.9853 22.9884 19.7854C22.9227 20.5856 22.584 21.3389 22.0289 21.9189C21.4738 22.499 20.7362 22.8706 19.9397 22.9715C19.1432 23.0723 18.3363 22.8962 17.6542 22.4728C16.9721 22.0494 16.4563 21.4043 16.1932 20.6457C15.9302 19.8872 15.936 19.0613 16.2096 18.3065C16.4832 17.5517 17.008 16.9139 17.6959 16.5H6.30394C6.99191 16.9139 7.51668 17.5517 7.79027 18.3065C8.06386 19.0613 8.06964 19.8872 7.80663 20.6457C7.54362 21.4043 7.02782 22.0494 6.34571 22.4728C5.6636 22.8962 4.85665 23.0723 4.06015 22.9715C3.26366 22.8706 2.52604 22.499 1.97098 21.9189C1.41592 21.3389 1.07715 20.5856 1.01149 19.7854C0.945821 18.9853 1.15725 18.1869 1.61031 17.5241C2.06338 16.8613 2.73054 16.3744 3.49994 16.145ZM11.9999 7.50002C12.5304 7.50002 13.0391 7.28931 13.4142 6.91423C13.7892 6.53916 13.9999 6.03045 13.9999 5.50002C13.9999 4.96959 13.7892 4.46088 13.4142 4.08581C13.0391 3.71073 12.5304 3.50002 11.9999 3.50002C11.4695 3.50002 10.9608 3.71073 10.5857 4.08581C10.2107 4.46088 9.99994 4.96959 9.99994 5.50002C9.99994 6.03045 10.2107 6.53916 10.5857 6.91423C10.9608 7.28931 11.4695 7.50002 11.9999 7.50002V7.50002ZM19.4999 21C19.8978 21 20.2793 20.842 20.5606 20.5607C20.8419 20.2794 20.9999 19.8978 20.9999 19.5C20.9999 19.1022 20.8419 18.7207 20.5606 18.4394C20.2793 18.1581 19.8978 18 19.4999 18C19.1021 18 18.7206 18.1581 18.4393 18.4394C18.158 18.7207 17.9999 19.1022 17.9999 19.5C17.9999 19.8978 18.158 20.2794 18.4393 20.5607C18.7206 20.842 19.1021 21 19.4999 21V21ZM4.49994 21C4.89776 21 5.2793 20.842 5.5606 20.5607C5.8419 20.2794 5.99994 19.8978 5.99994 19.5C5.99994 19.1022 5.8419 18.7207 5.5606 18.4394C5.2793 18.1581 4.89776 18 4.49994 18C4.10212 18 3.72058 18.1581 3.43928 18.4394C3.15798 18.7207 2.99994 19.1022 2.99994 19.5C2.99994 19.8978 3.15798 20.2794 3.43928 20.5607C3.72058 20.842 4.10212 21 4.49994 21V21Z" fill="#1F2329"/>
</svg>
