<svg width="24" height="24" viewBox="0 0 24 24" xmlns="http://www.w3.org/2000/svg">
<path d="M16 17.5C16.1326 17.5 16.2598 17.5527 16.3536 17.6464C16.4473 17.7402 16.5 17.8674 16.5 18V20C16.5 20.0657 16.4871 20.1307 16.4619 20.1913C16.4368 20.252 16.4 20.3071 16.3536 20.3536C16.3071 20.4 16.252 20.4368 16.1913 20.4619C16.1307 20.4871 16.0657 20.5 16 20.5H14C13.9343 20.5 13.8693 20.4871 13.8087 20.4619C13.748 20.4368 13.6929 20.4 13.6464 20.3536C13.6 20.3071 13.5632 20.252 13.5381 20.1913C13.5129 20.1307 13.5 20.0657 13.5 20V18C13.5 17.9343 13.5129 17.8693 13.5381 17.8087C13.5632 17.748 13.6 17.6929 13.6464 17.6464C13.6929 17.6 13.748 17.5632 13.8087 17.5381C13.8693 17.5129 13.9343 17.5 14 17.5H16ZM10 17.5C10.1326 17.5 10.2598 17.5527 10.3536 17.6464C10.4473 17.7402 10.5 17.8674 10.5 18V20C10.5 20.0657 10.4871 20.1307 10.4619 20.1913C10.4368 20.252 10.4 20.3071 10.3536 20.3536C10.3071 20.4 10.252 20.4368 10.1913 20.4619C10.1307 20.4871 10.0657 20.5 10 20.5H8C7.93434 20.5 7.86932 20.4871 7.80866 20.4619C7.748 20.4368 7.69288 20.4 7.64645 20.3536C7.60002 20.3071 7.56319 20.252 7.53806 20.1913C7.51293 20.1307 7.5 20.0657 7.5 20V18C7.5 17.8674 7.55268 17.7402 7.64645 17.6464C7.74021 17.5527 7.86739 17.5 8 17.5H10ZM14 10.5H16C16.1326 10.5 16.2598 10.5527 16.3536 10.6464C16.4473 10.7402 16.5 10.8674 16.5 11V13C16.5 13.0657 16.4871 13.1307 16.4619 13.1913C16.4368 13.252 16.4 13.3071 16.3536 13.3536C16.3071 13.4 16.252 13.4368 16.1913 13.4619C16.1307 13.4871 16.0657 13.5 16 13.5H14C13.9343 13.5 13.8693 13.4871 13.8087 13.4619C13.748 13.4368 13.6929 13.4 13.6464 13.3536C13.6 13.3071 13.5632 13.252 13.5381 13.1913C13.5129 13.1307 13.5 13.0657 13.5 13V11C13.5 10.9343 13.5129 10.8693 13.5381 10.8087C13.5632 10.748 13.6 10.6929 13.6464 10.6464C13.6929 10.6 13.748 10.5632 13.8087 10.5381C13.8693 10.5129 13.9343 10.5 14 10.5V10.5ZM8 10.5H10C10.1326 10.5 10.2598 10.5527 10.3536 10.6464C10.4473 10.7402 10.5 10.8674 10.5 11V13C10.5 13.0657 10.4871 13.1307 10.4619 13.1913C10.4368 13.252 10.4 13.3071 10.3536 13.3536C10.3071 13.4 10.252 13.4368 10.1913 13.4619C10.1307 13.4871 10.0657 13.5 10 13.5H8C7.93434 13.5 7.86932 13.4871 7.80866 13.4619C7.748 13.4368 7.69288 13.4 7.64645 13.3536C7.60002 13.3071 7.56319 13.252 7.53806 13.1913C7.51293 13.1307 7.5 13.0657 7.5 13V11C7.5 10.8674 7.55268 10.7402 7.64645 10.6464C7.74021 10.5527 7.86739 10.5 8 10.5V10.5ZM16 3.5C16.0657 3.5 16.1307 3.51293 16.1913 3.53806C16.252 3.56319 16.3071 3.60002 16.3536 3.64645C16.4 3.69288 16.4368 3.748 16.4619 3.80866C16.4871 3.86932 16.5 3.93434 16.5 4V6C16.5 6.13261 16.4473 6.25979 16.3536 6.35355C16.2598 6.44732 16.1326 6.5 16 6.5H14C13.9343 6.5 13.8693 6.48707 13.8087 6.46194C13.748 6.43681 13.6929 6.39998 13.6464 6.35355C13.6 6.30712 13.5632 6.252 13.5381 6.19134C13.5129 6.13068 13.5 6.06566 13.5 6V4C13.5 3.93434 13.5129 3.86932 13.5381 3.80866C13.5632 3.748 13.6 3.69288 13.6464 3.64645C13.6929 3.60002 13.748 3.56319 13.8087 3.53806C13.8693 3.51293 13.9343 3.5 14 3.5H16V3.5ZM10 3.5C10.0657 3.5 10.1307 3.51293 10.1913 3.53806C10.252 3.56319 10.3071 3.60002 10.3536 3.64645C10.4 3.69288 10.4368 3.748 10.4619 3.80866C10.4871 3.86932 10.5 3.93434 10.5 4V6C10.5 6.13261 10.4473 6.25979 10.3536 6.35355C10.2598 6.44732 10.1326 6.5 10 6.5H8C7.93434 6.5 7.86932 6.48707 7.80866 6.46194C7.748 6.43681 7.69288 6.39998 7.64645 6.35355C7.60002 6.30712 7.56319 6.252 7.53806 6.19134C7.51293 6.13068 7.5 6.06566 7.5 6V4C7.5 3.93434 7.51293 3.86932 7.53806 3.80866C7.56319 3.748 7.60002 3.69288 7.64645 3.64645C7.69288 3.60002 7.748 3.56319 7.80866 3.53806C7.86932 3.51293 7.93434 3.5 8 3.5H10V3.5Z"/>
</svg>
