<svg width="24" height="24" viewBox="0 0 24 24" fill="none" xmlns="http://www.w3.org/2000/svg">
<path d="M12.65 10.6423H3.36753V3.12283C3.36753 2.87091 3.15604 2.66669 2.89514 2.66669H1.80588C1.54499 2.66669 1.3335 2.87091 1.3335 3.12283V20.8604C1.3335 21.1123 1.54499 21.3165 1.80588 21.3165H2.89514C3.15604 21.3165 3.36753 21.1123 3.36753 20.8604V12.643H12.65V20.8604C12.65 21.1123 12.8614 21.3165 13.1223 21.3165H14.219C14.4798 21.3165 14.6913 21.1123 14.6913 20.8604V3.12283C14.6913 2.87091 14.4798 2.66669 14.219 2.66669H13.1223C12.8614 2.66669 12.65 2.87091 12.65 3.12283V10.6423ZM18.2668 12.1155H17.1619C16.941 12.1155 16.7619 12.29 16.7619 12.5052V20.9436C16.7619 21.1589 16.941 21.3334 17.1619 21.3334H18.2668C18.4877 21.3334 18.6668 21.1589 18.6668 20.9436V15.8452C18.6668 15.1999 18.8461 14.7086 19.2046 14.3711C19.2347 14.3418 19.2631 14.3138 19.2902 14.287C19.5811 13.9997 19.7265 13.856 20.2267 13.856C20.7736 13.856 21.2202 14.0277 21.5666 14.3711C21.919 14.7086 22.0952 15.1999 22.0952 15.8452V20.9436C22.0952 21.1589 22.2743 21.3334 22.4952 21.3334H23.6002C23.8211 21.3334 24.0002 21.1589 24.0002 20.9436V15.2059C23.9698 14.152 23.6325 13.3528 22.9884 12.8081C22.3383 12.2694 21.6213 12 20.8374 12C19.8226 12 19.3292 12.3641 18.7033 13.0923H18.6668V12.5052C18.6668 12.29 18.4877 12.1155 18.2668 12.1155Z" fill="#1F2329"/>
</svg>
