<svg width="16" height="16" viewBox="0 0 16 16" fill="none" xmlns="http://www.w3.org/2000/svg">
  <g clip-path="url(#clip0_12091_8166)">
    <path fill-rule="evenodd" clip-rule="evenodd" d="M8.00008 15.3332C3.94956 15.3332 0.666748 12.0504 0.666748 7.99984C0.666748 3.94932 3.94956 0.666504 8.00008 0.666504C12.0506 0.666504 15.3334 3.94932 15.3334 7.99984C15.3334 12.0504 12.0506 15.3332 8.00008 15.3332ZM11.3832 4.78532C10.533 3.89082 9.33173 3.33317 8.00023 3.33317C5.51244 3.33317 3.47928 5.27992 3.34105 7.73315C3.33279 7.88021 3.45295 7.99984 3.60025 7.99984H4.40021C4.54751 7.99984 4.6658 7.88003 4.6774 7.73322C4.81322 6.01692 6.24905 4.6665 8.00023 4.6665C9.16324 4.6665 10.1871 5.26213 10.7835 6.16496L9.76748 6.25074C9.62071 6.26313 9.51179 6.39215 9.5242 6.5389L9.5915 7.33606C9.60387 7.48283 9.7329 7.59174 9.87967 7.57935L12.6697 7.34377C12.8165 7.33139 12.9254 7.20237 12.913 7.05562L12.6774 4.26555C12.665 4.11879 12.536 4.00988 12.3893 4.02227L11.5921 4.08957C11.4453 4.10196 11.3365 4.23098 11.3488 4.37773L11.3832 4.78532ZM4.86412 11.2144C5.71434 12.1088 6.91564 12.6665 8.24714 12.6665C10.7349 12.6665 12.7681 10.7198 12.9063 8.26652C12.9146 8.11947 12.7944 7.99984 12.6471 7.99984H11.8472C11.6999 7.99984 11.5816 8.11965 11.57 8.26646C11.4341 9.98275 9.99832 11.3332 8.24714 11.3332C7.08413 11.3332 6.06025 10.7375 5.46385 9.83472L6.47989 9.74894C6.62666 9.73653 6.73558 9.60752 6.72317 9.46077L6.65587 8.66362C6.6435 8.51685 6.51447 8.40794 6.3677 8.42033L3.57766 8.6559C3.4309 8.66829 3.32197 8.7973 3.33438 8.94405L3.56993 11.7341C3.58234 11.8809 3.71133 11.9898 3.8581 11.9774L4.65526 11.9101C4.80203 11.8977 4.91092 11.7687 4.89855 11.6219L4.86412 11.2144Z" fill="#3370FF"/>
  </g>
  <defs>
    <clipPath id="clip0_12091_8166">
      <rect width="16" height="16" rx="4" fill="white"/>
    </clipPath>
  </defs>
</svg>
