<svg width="24" height="24" viewBox="0 0 24 24" fill="none" xmlns="http://www.w3.org/2000/svg">
<path d="M12.933 8.66669C13.1539 8.66669 13.333 8.84577 13.333 9.06669V10.2667C13.333 10.4876 13.1539 10.6667 12.933 10.6667H10.333C10.1694 10.6667 10.0333 10.7846 10.005 10.9401L9.99967 11V19C9.99967 19.1637 10.1176 19.2998 10.2731 19.328L10.333 19.3334H20.9997C21.1633 19.3334 21.2994 19.2154 21.3276 19.0599L21.333 19V11C21.333 10.8364 21.2151 10.7003 21.0596 10.6721L20.9997 10.6667H18.3997C18.1788 10.6667 17.9997 10.4876 17.9997 10.2667V9.06669C17.9997 8.84577 18.1788 8.66669 18.3997 8.66669H20.9997C22.2454 8.66669 23.2631 9.64287 23.3296 10.872L23.333 11V19C23.333 20.2457 22.3568 21.2634 21.1277 21.3299L20.9997 21.3334H10.333C9.0873 21.3334 8.06959 20.3572 8.00313 19.128L7.99967 19V11C7.99967 9.75431 8.97586 8.7366 10.205 8.67014L10.333 8.66669H12.933ZM14.333 2.66669C15.5787 2.66669 16.5964 3.64287 16.6629 4.872L16.6663 5.00002V13C16.6663 14.2457 15.6902 15.2634 14.461 15.3299L14.333 15.3334H11.733C11.5121 15.3334 11.333 15.1543 11.333 14.9334V13.7334C11.333 13.5124 11.5121 13.3334 11.733 13.3334H14.333C14.4966 13.3334 14.6327 13.2154 14.661 13.0599L14.6663 13V5.00002C14.6663 4.83638 14.5484 4.70028 14.3929 4.67206L14.333 4.66669H3.66634C3.5027 4.66669 3.3666 4.7846 3.33838 4.9401L3.33301 5.00002V13C3.33301 13.1637 3.45092 13.2998 3.60642 13.328L3.66634 13.3334H6.26634C6.48725 13.3334 6.66634 13.5124 6.66634 13.7334V14.9334C6.66634 15.1543 6.48725 15.3334 6.26634 15.3334H3.66634C2.42063 15.3334 1.40292 14.3572 1.33646 13.128L1.33301 13V5.00002C1.33301 3.75431 2.30919 2.7366 3.53832 2.67014L3.66634 2.66669H14.333Z" fill="#1F2329"/>
</svg>
