<svg width="24" height="24" viewBox="0 0 24 24" fill="" xmlns="http://www.w3.org/2000/svg">
<path fill-rule="" clip-rule="evenodd" d="M5 3H16V5.5195C16 5.65211 16.0527 5.77928 16.1464 5.87305C16.2402 5.96682 16.3674 6.0195 16.5 6.0195H19V21H5V3ZM17.0855 1H4C3.73478 1 3.48043 1.10536 3.29289 1.29289C3.10536 1.48043 3 1.73478 3 2V22C3 22.2652 3.10536 22.5196 3.29289 22.7071C3.48043 22.8946 3.73478 23 4 23H20C20.2652 23 20.5196 22.8946 20.7071 22.7071C20.8946 22.5196 21 22.2652 21 22V4.9155C21.0001 4.65038 20.8949 4.39607 20.7075 4.2085L17.793 1.293C17.7001 1.20008 17.5898 1.12637 17.4684 1.07609C17.347 1.02582 17.2169 0.999962 17.0855 1ZM7.5 8C7.22386 8 7 8.22386 7 8.5V9.5C7 9.77614 7.22386 10 7.5 10H16.5C16.7761 10 17 9.77614 17 9.5V8.5C17 8.22386 16.7761 8 16.5 8H7.5ZM11 12.5C11 12.2239 11.2239 12 11.5 12H16.5C16.7761 12 17 12.2239 17 12.5V17.5C17 17.7761 16.7761 18 16.5 18H11.5C11.2239 18 11 17.7761 11 17.5V12.5ZM7.5 12C7.22386 12 7 12.2239 7 12.5V17.5C7 17.7761 7.22386 18 7.5 18H8.5C8.77614 18 9 17.7761 9 17.5V12.5C9 12.2239 8.77614 12 8.5 12H7.5Z" fill=""/>
</svg>
