<svg width="24" height="24" viewBox="0 0 24 24" fill="none" xmlns="http://www.w3.org/2000/svg">
<path fill-rule="evenodd" clip-rule="evenodd" d="M11.9998 2.49994C17.2463 2.49994 21.4998 6.75337 21.4998 11.9999C21.4998 17.2465 17.2463 21.4999 11.9998 21.4999C6.75318 21.4999 2.49976 17.2465 2.49976 11.9999C2.49976 6.75337 6.75318 2.49994 11.9998 2.49994ZM11.9998 0.999939C18.0748 0.999939 22.9998 5.92494 22.9998 11.9999C22.9998 18.0749 18.0748 22.9999 11.9998 22.9999C5.92476 22.9999 0.999756 18.0749 0.999756 11.9999C0.999756 5.92494 5.92476 0.999939 11.9998 0.999939ZM10.2862 17.1138L17.2072 12.7593C17.3352 12.6782 17.4406 12.566 17.5136 12.4333C17.5867 12.3005 17.625 12.1514 17.625 11.9999C17.625 11.8483 17.5867 11.6992 17.5136 11.5664C17.4406 11.4337 17.3352 11.3215 17.2072 11.2404L10.2865 6.8862C10.1449 6.7971 9.98166 6.75 9.81486 6.75C9.69766 6.75039 9.58168 6.77387 9.47355 6.81908C9.36541 6.8643 9.26725 6.93037 9.18465 7.01353C9.10205 7.09668 9.03664 7.19529 8.99215 7.30373C8.94766 7.41216 8.92497 7.5283 8.92536 7.6455V16.3548C8.92547 16.5223 8.97233 16.6865 9.06066 16.8288C9.12209 16.9283 9.20262 17.0147 9.2976 17.083C9.39258 17.1512 9.50013 17.2 9.61406 17.2265C9.72798 17.253 9.84603 17.2567 9.96138 17.2374C10.0767 17.218 10.1871 17.176 10.2862 17.1138Z" fill="#1F2329"/>
</svg>
