<?xml version="1.0" standalone="no"?><!DOCTYPE svg PUBLIC "-//W3C//DTD SVG 1.1//EN" "http://www.w3.org/Graphics/SVG/1.1/DTD/svg11.dtd"><svg t="1717496887274" class="icon" viewBox="0 0 1024 1024" version="1.1" xmlns="http://www.w3.org/2000/svg" p-id="4257" xmlns:xlink="http://www.w3.org/1999/xlink" width="200" height="200"><path d="M376.5 70c41.4 0 81.5 8.1 119.3 24.1 36.5 15.4 69.3 37.5 97.4 65.7 28.2 28.2 50.3 61 65.7 97.4 16 37.7 24.1 77.9 24.1 119.3s-8.1 81.5-24.1 119.3c-15.4 36.5-37.5 69.3-65.7 97.4-28.2 28.2-61 50.3-97.4 65.7-37.7 16-77.9 24.1-119.3 24.1s-81.5-8.1-119.3-24.1c-36.5-15.4-69.3-37.5-97.4-65.7s-50.3-61-65.7-97.4C78.1 458 70 417.9 70 376.5s8.1-81.5 24.1-119.3c15.4-36.5 37.5-69.3 65.7-97.4 28.2-28.2 61-50.3 97.4-65.7C295 78.1 335.1 70 376.5 70m0-70C168.6 0 0 168.6 0 376.5S168.6 753 376.5 753 753 584.4 753 376.5 584.4 0 376.5 0z" p-id="4258"></path><path d="M274.5 136.1c8.8-8.8 18-17 27.5-24.6-37.3 13.6-72.2 35.3-102.1 65.2-109.7 109.7-109.7 287.7 0 397.4 33.2 33.2 72.6 56.3 114.4 69.4-13.9-10.1-27.2-21.5-39.8-34.1-130.7-130.7-130.7-342.6 0-473.3zM998.3 998.3c-34.2 34.2-90.2 34.2-124.5 0L622.2 746.6c-34.2-34.2-34.2-90.2 0-124.5 34.2-34.2 90.2-34.2 124.5 0l251.7 251.7c34.2 34.3 34.2 90.3-0.1 124.5z" p-id="4259"></path></svg>