<svg width="24" height="24" viewBox="0 0 24 24" xmlns="http://www.w3.org/2000/svg">
<path d="M11.9847 18.5C15.2226 18.5 18.2206 16.4404 20.9999 11.987C18.2921 7.54956 15.3009 5.5 11.9847 5.5C8.66951 5.5 5.6891 7.54864 2.99989 11.987C5.76055 16.4413 8.74785 18.5 11.9847 18.5ZM1.50233 12.89C1.18033 12.3419 1.17815 11.6605 1.49271 11.1081C1.50392 11.0884 1.51466 11.0697 1.52484 11.052C4.4279 6.01734 7.91416 3.5 11.9836 3.5C16.0696 3.5 19.5775 6.03792 22.507 11.1138C22.5158 11.129 22.525 11.145 22.5346 11.1618C22.831 11.6808 22.8287 12.3215 22.5256 12.8366C19.5187 17.9455 16.0047 20.5 11.9836 20.5C7.97652 20.5 4.48276 17.9633 1.50233 12.89ZM11.9999 16C9.79075 16 7.99989 14.2091 7.99989 12C7.99989 9.79086 9.79075 8 11.9999 8C14.209 8 15.9999 9.79086 15.9999 12C15.9999 14.2091 14.209 16 11.9999 16ZM11.9999 14C13.1045 14 13.9999 13.1046 13.9999 12C13.9999 10.8954 13.1045 10 11.9999 10C10.8953 10 9.99989 10.8954 9.99989 12C9.99989 13.1046 10.8953 14 11.9999 14Z"/>
</svg>
