<svg width="24" height="24" viewBox="0 0 24 24" fill="none" xmlns="http://www.w3.org/2000/svg">
<path d="M12 0.5C17.523 0.5 22 4.977 22 10.5C22 14.711 18.852 18.922 12.5565 23.133C12.3919 23.2431 12.1982 23.3018 12.0002 23.3017C11.8021 23.3016 11.6085 23.2427 11.444 23.1325C5.148 18.9115 2 14.7 2 10.5C2 4.977 6.477 0.5 12 0.5ZM12 6.5C10.9391 6.5 9.92172 6.92143 9.17157 7.67157C8.42143 8.42172 8 9.43913 8 10.5C8 11.5609 8.42143 12.5783 9.17157 13.3284C9.92172 14.0786 10.9391 14.5 12 14.5C13.0609 14.5 14.0783 14.0786 14.8284 13.3284C15.5786 12.5783 16 11.5609 16 10.5C16 9.43913 15.5786 8.42172 14.8284 7.67157C14.0783 6.92143 13.0609 6.5 12 6.5V6.5Z" fill="#3370FF"/>
</svg>
