<svg width="24" height="24" viewBox="0 0 24 24" fill="none" xmlns="http://www.w3.org/2000/svg">
<path d="M9.375 5.33362C9.16789 5.33362 9 5.50151 9 5.70862V6.95862C9 7.16572 9.16789 7.33362 9.375 7.33362H16.625C16.8321 7.33362 17 7.16572 17 6.95862V5.70862C17 5.50151 16.8321 5.33362 16.625 5.33362H9.375Z" fill="currentColor"/>
<path d="M9 12.0418C9 11.8347 9.16789 11.6668 9.375 11.6668H19.625C19.8321 11.6668 20 11.8347 20 12.0418V13.2918C20 13.4989 19.8321 13.6668 19.625 13.6668H9.375C9.16789 13.6668 9 13.4989 9 13.2918V12.0418Z" fill="currentColor"/>
<path d="M9.375 18C9.16789 18 9 18.1679 9 18.375V19.625C9 19.8321 9.16789 20 9.375 20H22.625C22.8321 20 23 19.8321 23 19.625V18.375C23 18.1679 22.8321 18 22.625 18H9.375Z" fill="currentColor"/>
<path d="M7.5602 21.8536C7.46643 21.9473 7.33926 22 7.20665 22H6.29565C6.22999 22 6.16497 21.9871 6.10431 21.9619C6.04364 21.9368 5.98852 21.9 5.94209 21.8536C5.89567 21.8071 5.85884 21.752 5.83371 21.6913C5.80858 21.6307 5.79565 21.5657 5.79565 21.5L5.79565 5.7595L3.58915 8.0595C3.49749 8.15382 3.37237 8.20824 3.24087 8.21095C3.10938 8.21367 2.98212 8.16446 2.88665 8.074L2.15615 7.382C2.10847 7.33683 2.07015 7.28271 2.04339 7.22273C2.01663 7.16276 2.00194 7.09809 2.00018 7.03244C1.99842 6.96678 2.0096 6.90142 2.03311 6.84009C2.05661 6.77876 2.09196 6.72266 2.13715 6.675L5.98065 2.5625C6.60265 1.906 7.70665 2.346 7.70665 3.25L7.70665 21.5C7.70665 21.6326 7.65397 21.7598 7.5602 21.8536Z" fill="currentColor"/>
</svg>
