<svg width="24" height="24" viewBox="0 0 24 24" fill="none" xmlns="http://www.w3.org/2000/svg">
<path d="M21 18.5V21C21 21.5523 20.5523 22 20 22H4C3.44772 22 3 21.5523 3 21V18.5C3 18.2238 3.22386 18 3.5 18H4.5C4.77614 18 5 18.2238 5 18.5V20H19V18.5C19 18.2238 19.2239 18 19.5 18H20.5C20.7761 18 21 18.2238 21 18.5ZM13 6.49994L16.0105 9.51041C16.2057 9.70567 16.5223 9.70567 16.7176 9.51041L17.4247 8.8033C17.6199 8.60804 17.6199 8.29146 17.4247 8.09619L12.4749 3.14645C12.3773 3.04882 12.2493 3 12.1214 3C11.9934 3 11.8655 3.04882 11.7678 3.14645L6.81808 8.09619C6.62282 8.29146 6.62282 8.60804 6.81808 8.8033L7.52519 9.51041C7.72045 9.70567 8.03703 9.70567 8.2323 9.51041L11 6.7427V17.5357C11 17.8118 11.2239 18.0357 11.5 18.0357H12.5C12.7761 18.0357 13 17.8118 13 17.5357V6.49994Z" fill="#646A73"/>
</svg>
