<svg width="16" height="16" viewBox="0 0 16 16" fill="none" xmlns="http://www.w3.org/2000/svg">
<path d="M6.85769 11.4091L11.4717 8.50608C11.557 8.452 11.6273 8.37723 11.676 8.28871C11.7247 8.2002 11.7502 8.10081 11.7502 7.99978C11.7502 7.89875 11.7247 7.79936 11.676 7.71084C11.6273 7.62233 11.557 7.54756 11.4717 7.49348L6.85789 4.59068C6.76349 4.53128 6.65469 4.49988 6.54349 4.49988C6.46535 4.50014 6.38803 4.51579 6.31594 4.54593C6.24385 4.57608 6.17841 4.62013 6.12334 4.67556C6.06828 4.731 6.02467 4.79674 5.99501 4.86903C5.96535 4.94132 5.95022 5.01874 5.95049 5.09688V10.9031C5.95056 11.0148 5.9818 11.1242 6.04069 11.2191C6.08164 11.2854 6.13532 11.343 6.19865 11.3885C6.26196 11.434 6.33367 11.4666 6.40962 11.4842C6.48557 11.5019 6.56426 11.5043 6.64116 11.4914C6.71807 11.4785 6.79166 11.4506 6.85769 11.4091Z" fill="currentColor"/>
<path fill-rule="evenodd" clip-rule="evenodd" d="M8.00008 0.666504C12.0501 0.666504 15.3334 3.94984 15.3334 7.99984C15.3334 12.0498 12.0501 15.3332 8.00008 15.3332C3.95008 15.3332 0.666748 12.0498 0.666748 7.99984C0.666748 3.94984 3.95008 0.666504 8.00008 0.666504ZM8.00008 1.6665C11.4978 1.6665 14.3334 4.50212 14.3334 7.99984C14.3334 11.4976 11.4978 14.3332 8.00008 14.3332C4.50237 14.3332 1.66675 11.4976 1.66675 7.99984C1.66675 4.50212 4.50237 1.6665 8.00008 1.6665Z" fill="currentColor"/>
</svg>
