<svg width="24" height="24" viewBox="0 0 24 24" fill="none" xmlns="http://www.w3.org/2000/svg">
<path d="M5 8V20H15V8H5ZM17 7V21.1111C17 21.602 16.5821 22 16.0667 22H3.93333C3.41787 22 3 21.602 3 21.1111V6.88889C3 6.39797 3.41787 6 3.93333 6H16C16.5523 6 17 6.44772 17 7ZM20.7071 2.29289C20.8881 2.47386 21 2.72386 21 3V15.5C21 15.7761 20.7761 16 20.5 16H19.5C19.2239 16 19 15.7761 19 15.5V4H9.5C9.22386 4 9 3.77614 9 3.5V2.5C9 2.22386 9.22386 2 9.5 2H20C20.2761 2 20.5261 2.11193 20.7071 2.29289Z" fill="#1F2329"/>
</svg>
