<svg width="24" height="24" viewBox="0 0 24 24" fill="none" xmlns="http://www.w3.org/2000/svg">
<path d="M7.27268 13.4744C7.30065 13.5418 7.34163 13.6031 7.3933 13.6547L10.5353 16.7973L10.588 16.844C10.806 17.0127 11.1213 16.9973 11.3213 16.7973L16.8206 11.2973C16.9248 11.1932 16.9833 11.052 16.9833 10.9047C16.9833 10.7574 16.9248 10.6162 16.8206 10.512L16.0353 9.72601C15.9837 9.67435 15.9225 9.63336 15.855 9.60539C15.7876 9.57743 15.7153 9.56304 15.6423 9.56304C15.5693 9.56304 15.497 9.57743 15.4296 9.60539C15.3621 9.63336 15.3009 9.67435 15.2493 9.72601L10.9286 14.0473L8.96396 12.0833C8.85982 11.9792 8.71857 11.9207 8.5713 11.9207C8.42402 11.9207 8.28277 11.9792 8.17863 12.0833L7.3933 12.8687C7.34163 12.9203 7.30065 12.9815 7.27268 13.049C7.24472 13.1164 7.23032 13.1887 7.23032 13.2617C7.23032 13.3347 7.24472 13.407 7.27268 13.4744Z" fill="#1F2329"/>
<path d="M15.9998 1H7.9998C7.38647 1 6.9998 1.38667 6.9998 2V3H4C3.314 3 3 3.38666 3 4V22C3 22.614 3.314 23 4 23L20 23C20.686 23 21 22.6133 21 22V4C21 3.386 20.686 2.99997 20 2.99997L17 3V5H19V21H5V5H6.9998V6C6.9998 6.61333 7.38647 7 7.9998 7H15.9998C16.6131 7 16.9998 6.61333 16.9998 6V2C16.9998 1.386 16.6131 1 15.9998 1ZM8.9998 5V3H14.9998V5H8.9998Z" fill="#1F2329"/>
</svg>
