<svg width="20" height="20" viewBox="0 0 20 20" fill="none" xmlns="http://www.w3.org/2000/svg">
<g id="icon_left-association">
<circle id="Ellipse 122" cx="7.60005" cy="10.0002" r="4.8" fill="#5C8DFF"/>
<circle id="Ellipse 122" cx="12.4" cy="10.0012" r="4.8" fill="#5C8DFF"/>
<path id="Union" fill-rule="evenodd" clip-rule="evenodd" d="M10.0001 15.9354C9.25893 16.2354 8.44879 16.4006 7.60007 16.4006C4.06545 16.4006 1.20007 13.5352 1.20007 10.0006C1.20007 6.46596 4.06545 3.60059 7.60007 3.60059C8.44879 3.60059 9.25893 3.76579 10.0001 4.0658C10.7412 3.76579 11.5514 3.60059 12.4001 3.60059C15.9347 3.60059 18.8001 6.46596 18.8001 10.0006C18.8001 13.5352 15.9347 16.4006 12.4001 16.4006C11.5514 16.4006 10.7412 16.2354 10.0001 15.9354ZM11.8664 14.7713C12.0416 14.7906 12.2197 14.8006 12.4001 14.8006C15.051 14.8006 17.2001 12.6516 17.2001 10.0006C17.2001 7.34962 15.051 5.20059 12.4001 5.20059C12.2197 5.20059 12.0416 5.21054 11.8664 5.22992C13.1759 6.40181 14.0001 8.10496 14.0001 10.0006C14.0001 11.8962 13.1759 13.5994 11.8664 14.7713ZM8.13375 5.22992C7.95853 5.21054 7.78046 5.20059 7.60007 5.20059C4.94911 5.20059 2.80007 7.34962 2.80007 10.0006C2.80007 12.6516 4.94911 14.8006 7.60007 14.8006C7.78046 14.8006 7.95853 14.7906 8.13375 14.7713C6.82422 13.5994 6.00007 11.8962 6.00007 10.0006C6.00007 8.10496 6.82422 6.40181 8.13375 5.22992ZM10.0001 5.84274C8.56535 6.67268 7.60007 8.22391 7.60007 10.0006C7.60007 11.7773 8.56535 13.3285 10.0001 14.1584C11.4348 13.3285 12.4001 11.7773 12.4001 10.0006C12.4001 8.22391 11.4348 6.67268 10.0001 5.84274Z" fill="#3370FF"/>
</g>
</svg>
