<svg width="24" height="24" viewBox="0 0 24 24" fill="none" xmlns="http://www.w3.org/2000/svg">
<path d="M11 7.5C11 7.22386 11.2239 7 11.5 7H12.5C12.7761 7 13 7.22386 13 7.5V11H16.5C16.7761 11 17 11.2239 17 11.5V12.5C17 12.7761 16.7761 13 16.5 13H11.5C11.2239 13 11 12.7761 11 12.5V7.5Z" fill="#1F2329"/>
<path d="M12 23C18.0751 23 23 18.0751 23 12C23 5.92487 18.0751 1 12 1C5.92487 1 1 5.92487 1 12C1 18.0751 5.92487 23 12 23ZM12 21C7.02944 21 3 16.9706 3 12C3 7.02944 7.02944 3 12 3C16.9706 3 21 7.02944 21 12C21 16.9706 16.9706 21 12 21Z" fill="#1F2329"/>
</svg>
