<svg width="24" height="24" viewBox="0 0 24 24" fill="none" xmlns="http://www.w3.org/2000/svg">
<path d="M16 3H5V21H19V6.0195H16.5C16.3674 6.0195 16.2402 5.96682 16.1464 5.87305C16.0527 5.77928 16 5.65211 16 5.5195V3V3ZM4 1H17.0855C17.2169 0.999962 17.347 1.02582 17.4684 1.07609C17.5898 1.12637 17.7001 1.20008 17.793 1.293L20.7075 4.2085C20.8949 4.39607 21.0001 4.65038 21 4.9155V22C21 22.2652 20.8946 22.5196 20.7071 22.7071C20.5196 22.8946 20.2652 23 20 23H4C3.73478 23 3.48043 22.8946 3.29289 22.7071C3.10536 22.5196 3 22.2652 3 22V2C3 1.73478 3.10536 1.48043 3.29289 1.29289C3.48043 1.10536 3.73478 1 4 1V1ZM7.5 8.5H16.5C16.6326 8.5 16.7598 8.55268 16.8536 8.64645C16.9473 8.74021 17 8.86739 17 9V10C17 10.1326 16.9473 10.2598 16.8536 10.3536C16.7598 10.4473 16.6326 10.5 16.5 10.5H7.5C7.36739 10.5 7.24022 10.4473 7.14645 10.3536C7.05268 10.2598 7 10.1326 7 10V9C7 8.86739 7.05268 8.74021 7.14645 8.64645C7.24022 8.55268 7.36739 8.5 7.5 8.5V8.5ZM7.5 12.5H16.5C16.5657 12.5 16.6307 12.5129 16.6913 12.5381C16.752 12.5632 16.8071 12.6 16.8536 12.6464C16.9 12.6929 16.9368 12.748 16.9619 12.8087C16.9871 12.8693 17 12.9343 17 13V14C17 14.0657 16.9871 14.1307 16.9619 14.1913C16.9368 14.252 16.9 14.3071 16.8536 14.3536C16.8071 14.4 16.752 14.4368 16.6913 14.4619C16.6307 14.4871 16.5657 14.5 16.5 14.5H7.5C7.43434 14.5 7.36932 14.4871 7.30866 14.4619C7.248 14.4368 7.19288 14.4 7.14645 14.3536C7.10002 14.3071 7.06319 14.252 7.03806 14.1913C7.01293 14.1307 7 14.0657 7 14V13C7 12.9343 7.01293 12.8693 7.03806 12.8087C7.06319 12.748 7.10002 12.6929 7.14645 12.6464C7.19288 12.6 7.248 12.5632 7.30866 12.5381C7.36932 12.5129 7.43434 12.5 7.5 12.5ZM7.5 16.5H11.5C11.6326 16.5 11.7598 16.5527 11.8536 16.6464C11.9473 16.7402 12 16.8674 12 17V18C12 18.1326 11.9473 18.2598 11.8536 18.3536C11.7598 18.4473 11.6326 18.5 11.5 18.5H7.5C7.36739 18.5 7.24022 18.4473 7.14645 18.3536C7.05268 18.2598 7 18.1326 7 18V17C7 16.8674 7.05268 16.7402 7.14645 16.6464C7.24022 16.5527 7.36739 16.5 7.5 16.5Z" fill="#1F2329"/>
</svg>
