<svg width="24" height="24" viewBox="0 0 24 24" fill="none" xmlns="http://www.w3.org/2000/svg">
<path d="M9.00839 13.9974C9.28453 13.9974 9.53453 14.1093 9.71549 14.2903C9.89646 14.4712 10.0084 14.7212 10.0084 14.9974V20.1572C10.0084 20.4333 9.78453 20.6572 9.50839 20.6572H8.50839C8.23224 20.6572 8.00839 20.4333 8.00839 20.1572V17.4974L4.09289 21.4116C3.89762 21.6069 3.58104 21.6069 3.38578 21.4116L2.67867 20.7045C2.48341 20.5092 2.48341 20.1927 2.67867 19.9974L6.68001 15.9974H3.83559C3.55945 15.9974 3.33559 15.7735 3.33559 15.4974V14.4974C3.33559 14.2212 3.55945 13.9974 3.83559 13.9974H9.00839ZM19.919 2.58865C20.1142 2.39338 20.4308 2.39338 20.6261 2.58865L21.3332 3.29575C21.5284 3.49102 21.5284 3.8076 21.3332 4.00286L17.3318 8.00286H20.1763C20.4524 8.00286 20.6763 8.22672 20.6763 8.50286V9.50286C20.6763 9.779 20.4524 10.0029 20.1763 10.0029H15.0035C14.7273 10.0029 14.4773 9.89093 14.2964 9.70997C14.1154 9.529 14.0035 9.279 14.0035 9.00286V3.84309C14.0035 3.56695 14.2273 3.34309 14.5035 3.34309H15.5035C15.7796 3.34309 16.0035 3.56695 16.0035 3.84309V6.50281L19.919 2.58865Z" fill="#1F2329"/>
</svg>
