<svg width="24" height="24" viewBox="0 0 24 24" fill="none" xmlns="http://www.w3.org/2000/svg">
<path d="M0.713135 21.4739V1.80273C0.713135 1.52659 0.936992 1.30273 1.21313 1.30273H2.26008C2.53623 1.30273 2.76008 1.52659 2.76008 1.80273V20.5523H22.5686C22.8447 20.5523 23.0686 20.7761 23.0686 21.0523V22.0992C23.0686 22.3754 22.8447 22.5992 22.5686 22.5992H1.83907C1.54045 22.5992 1.25407 22.4806 1.04291 22.2694C0.83176 22.0583 0.713135 21.7725 0.713135 21.4739Z" fill="#646A73"/>
<path d="M4.19544 18.3911C3.96872 18.2313 3.91539 17.9175 4.07659 17.6918L8.90155 10.9358C8.97757 10.8235 9.07516 10.7274 9.18865 10.6531C9.30213 10.5788 9.42925 10.5278 9.56262 10.5031C9.69599 10.4784 9.83293 10.4804 9.96551 10.5091C10.0981 10.5377 10.2236 10.5925 10.3349 10.6701L15.7191 14.2624L20.9481 8.16625C21.1291 7.95528 21.4474 7.93239 21.6567 8.11531L22.4497 8.80844C22.6562 8.98892 22.6788 9.30208 22.5003 9.51031L16.6806 16.2998C16.5179 16.4883 16.2919 16.611 16.0452 16.6449C15.7984 16.6788 15.5478 16.6215 15.3402 16.4839L10.0275 12.9315L5.77196 18.8941C5.61221 19.118 5.30171 19.1708 5.07694 19.0124L4.19544 18.3911Z" fill="#646A73"/>
</svg>
