<svg width="20" height="20" viewBox="0 0 20 20"  xmlns="http://www.w3.org/2000/svg">
<g id="icon_dataset_outlined">
<path id="Union" d="M0.833344 6.36987C0.833344 6.04308 1.02435 5.74646 1.32184 5.61123L9.65517 1.82335C9.87428 1.72376 10.1257 1.72376 10.3448 1.82335L18.6782 5.61123C18.9757 5.74646 19.1667 6.04308 19.1667 6.36987V14.4849C19.1667 14.8006 18.9883 15.0891 18.706 15.2303L10.3727 19.3969C10.1381 19.5142 9.86194 19.5142 9.62733 19.3969L1.294 15.2303C1.01168 15.0891 0.833344 14.8006 0.833344 14.4849V6.36987ZM16.0149 6.2314L10 3.49737L3.95267 6.24616L9.96664 8.83681L16.0149 6.2314ZM10.8333 10.2782V17.3032L17.5 13.9699V7.40638L10.8333 10.2782ZM2.50001 7.43512V13.9699L9.16668 17.3032V10.3069L2.50001 7.43512Z"/>
</g>
</svg>
