<svg width="12" height="16" viewBox="0 0 12 16" xmlns="http://www.w3.org/2000/svg">
  <path d="M8.66667 2.00033H1.33333V14.0003H10.6667V4.01333H9C8.91159 4.01333 8.82681 3.97821 8.7643 3.91569C8.70179 3.85318 8.66667 3.7684 8.66667 3.67999V2.00033ZM0.666667 0.666992H9.39033C9.47793 0.666967 9.56467 0.684205 9.64561 0.717722C9.72654 0.751238 9.80007 0.800376 9.862 0.862326L11.805 2.80599C11.9299 2.93104 12.0001 3.10058 12 3.27733V14.667C12 14.8438 11.9298 15.0134 11.8047 15.1384C11.6797 15.2634 11.5101 15.3337 11.3333 15.3337H0.666667C0.489856 15.3337 0.320286 15.2634 0.195262 15.1384C0.0702379 15.0134 4.14401e-09 14.8438 0 14.667V1.33366C4.14401e-09 1.15685 0.0702379 0.987279 0.195262 0.862254C0.320286 0.73723 0.489856 0.666992 0.666667 0.666992ZM3.33333 6.66699H8.66667C8.75507 6.66699 8.83986 6.70211 8.90237 6.76462C8.96488 6.82714 9 6.91192 9 7.00033V7.66699C9 7.7554 8.96488 7.84018 8.90237 7.90269C8.83986 7.96521 8.75507 8.00033 8.66667 8.00033H3.33333C3.24493 8.00033 3.16014 7.96521 3.09763 7.90269C3.03512 7.84018 3 7.7554 3 7.66699V7.00033C3 6.91192 3.03512 6.82714 3.09763 6.76462C3.16014 6.70211 3.24493 6.66699 3.33333 6.66699ZM3.33333 10.0003H6.33333C6.37711 10.0003 6.42045 10.0089 6.46089 10.0257C6.50134 10.0424 6.53808 10.067 6.56904 10.098C6.59999 10.1289 6.62454 10.1657 6.64129 10.2061C6.65805 10.2465 6.66667 10.2899 6.66667 10.3337V11.0003C6.66667 11.0441 6.65805 11.0874 6.64129 11.1279C6.62454 11.1683 6.59999 11.2051 6.56904 11.236C6.53808 11.267 6.50134 11.2915 6.46089 11.3083C6.42045 11.325 6.37711 11.3337 6.33333 11.3337H3.33333C3.24493 11.3337 3.16014 11.2985 3.09763 11.236C3.03512 11.1735 3 11.0887 3 11.0003V10.3337C3 10.2453 3.03512 10.1605 3.09763 10.098C3.16014 10.0354 3.24493 10.0003 3.33333 10.0003Z"/>
</svg>
