<svg width="24" height="24" viewBox="0 0 24 24" fill="none" xmlns="http://www.w3.org/2000/svg">
<g clip-path="url(#clip0_2326_66188)">
<path d="M1 4C1 1.79086 2.79086 0 5 0H19C21.2091 0 23 1.79086 23 4V20C23 22.2091 21.2091 24 19 24H5C2.79086 24 1 22.2091 1 20V4Z" fill="#D136D1"/>
<path d="M12.5445 10.0555C12.6734 10.0555 12.7778 10.16 12.7778 10.2889V10.9889C12.7778 11.1177 12.6734 11.2222 12.5445 11.2222H11.0278C10.9324 11.2222 10.853 11.291 10.8365 11.3817L10.8334 11.4167V16.0833C10.8334 16.1788 10.9022 16.2582 10.9929 16.2746L11.0278 16.2778H17.2501C17.3455 16.2778 17.4249 16.209 17.4414 16.1183L17.4445 16.0833V11.4167C17.4445 11.3212 17.3757 11.2418 17.285 11.2253L17.2501 11.2222H15.7334C15.6045 11.2222 15.5001 11.1177 15.5001 10.9889V10.2889C15.5001 10.16 15.6045 10.0555 15.7334 10.0555H17.2501C17.9767 10.0555 18.5704 10.625 18.6091 11.342L18.6112 11.4167V16.0833C18.6112 16.81 18.0417 17.4036 17.3247 17.4424L17.2501 17.4444H11.0278C10.3012 17.4444 9.7075 16.875 9.66873 16.158L9.66672 16.0833V11.4167C9.66672 10.69 10.2362 10.0963 10.9532 10.0576L11.0278 10.0555H12.5445ZM13.3612 6.55554C14.0878 6.55554 14.6815 7.12498 14.7203 7.84197L14.7223 7.91665V12.5833C14.7223 13.31 14.1528 13.9036 13.4358 13.9424L13.3612 13.9444H11.8445C11.7156 13.9444 11.6112 13.84 11.6112 13.7111V13.0111C11.6112 12.8822 11.7156 12.7778 11.8445 12.7778H13.3612C13.4566 12.7778 13.536 12.709 13.5525 12.6183L13.5556 12.5833V7.91665C13.5556 7.8212 13.4868 7.74181 13.3961 7.72534L13.3612 7.72221H7.13894C7.04349 7.72221 6.9641 7.79099 6.94763 7.8817L6.9445 7.91665V12.5833C6.9445 12.6788 7.01328 12.7582 7.10399 12.7746L7.13894 12.7778H8.65561C8.78448 12.7778 8.88894 12.8822 8.88894 13.0111V13.7111C8.88894 13.84 8.78448 13.9444 8.65561 13.9444H7.13894C6.41228 13.9444 5.81862 13.375 5.77985 12.658L5.77783 12.5833V7.91665C5.77783 7.18999 6.34727 6.59633 7.06426 6.55756L7.13894 6.55554H13.3612Z" fill="white"/>
</g>
<defs>
<clipPath id="clip0_2326_66188">
<rect width="24" height="24" fill="white"/>
</clipPath>
</defs>
</svg>
