<svg width="24" height="24" viewBox="0 0 24 24" xmlns="http://www.w3.org/2000/svg">
<path d="M16.4733 17.8875C14.8415 19.2086 12.7631 20 10.5 20C5.25329 20 1 15.7467 1 10.5C1 5.25329 5.25329 1 10.5 1C15.7467 1 20 5.25329 20 10.5C20 12.7631 19.2086 14.8415 17.8875 16.4733L22.0104 20.5962C22.2057 20.7915 22.2057 21.108 22.0104 21.3033L21.3033 22.0104C21.108 22.2057 20.7915 22.2057 20.5962 22.0104L16.4733 17.8875ZM18 10.5C18 6.35786 14.6421 3 10.5 3C6.35786 3 3 6.35786 3 10.5C3 14.6421 6.35786 18 10.5 18C14.6421 18 18 14.6421 18 10.5Z"/>
</svg>
