<svg width="24" height="24" viewBox="0 0 24 24" fill="none" xmlns="http://www.w3.org/2000/svg">
<path d="M12.4244 10.4757H3.14194V2.9562C3.14194 2.70428 2.93045 2.50006 2.66956 2.50006H1.5803C1.31941 2.50006 1.10791 2.70428 1.10791 2.9562V20.6938C1.10791 20.9457 1.31941 21.1499 1.5803 21.1499H2.66956C2.93045 21.1499 3.14194 20.9457 3.14194 20.6938V12.4764H12.4244V20.6938C12.4244 20.9457 12.6359 21.1499 12.8968 21.1499H13.9934C14.2543 21.1499 14.4658 20.9457 14.4658 20.6938V2.9562C14.4658 2.70428 14.2543 2.50006 13.9934 2.50006H12.8968C12.6359 2.50006 12.4244 2.70428 12.4244 2.9562V10.4757ZM23.7758 19.4183C23.7758 19.1974 23.5967 19.0183 23.3758 19.0183H19.8639L23.269 14.7492C23.756 14.1294 24.0001 13.4192 24.0001 12.6245C23.9891 11.633 23.6533 10.8089 22.995 10.1616C22.349 9.51009 21.5042 9.17769 20.4741 9.16673C19.5425 9.17777 18.7552 9.50602 18.119 10.1478C17.4883 10.8061 17.1518 11.6362 17.1081 12.6314C17.1081 12.7467 17.2016 12.8402 17.3169 12.8402H18.9536C19.052 12.8402 19.1317 12.7604 19.1317 12.662C19.184 12.1863 19.3462 11.8271 19.6162 11.5755C19.8774 11.3235 20.1997 11.1995 20.597 11.1995C21.0442 11.2088 21.381 11.3502 21.6179 11.6229C21.8507 11.9014 21.9673 12.2283 21.9673 12.6089C21.9673 12.7548 21.9483 12.9118 21.9098 13.08C21.8597 13.2318 21.7535 13.4207 21.5946 13.6278L17.1955 19.1306C17.1388 19.2015 17.1079 19.2896 17.1079 19.3803V20.6511C17.1079 20.872 17.287 21.0511 17.5079 21.0511H23.3758C23.5967 21.0511 23.7758 20.872 23.7758 20.6511V19.4183Z" fill="#1F2329"/>
</svg>
