<svg width="24" height="24" viewBox="0 0 24 24"  xmlns="http://www.w3.org/2000/svg">
<path fill-rule="evenodd" clip-rule="evenodd" d="M1 12C1 18.0758 5.92422 23 12 23C18.0758 23 23 18.0758 23 12C23 5.92422 18.0758 1 12 1C5.92422 1 1 5.92422 1 12Z"/>
<path d="M17.3967 9.81956C17.6652 9.55108 17.6652 9.11578 17.3967 8.84729L16.9106 8.36115C16.6421 8.09267 16.2068 8.09267 15.9383 8.36115L10.4729 13.826L8.44493 11.7987C8.17644 11.5302 7.74114 11.5302 7.47266 11.7987L6.98652 12.2848C6.71803 12.5533 6.71803 12.9886 6.98652 13.2571L9.90334 16.1739C10.0937 16.3643 10.368 16.4196 10.6074 16.3405C10.7778 16.3364 10.9469 16.2694 11.077 16.1393L17.3967 9.81956Z" fill="white"/>
</svg>
