<svg width="24" height="24" viewBox="0 0 24 24" fill="none" xmlns="http://www.w3.org/2000/svg">
<path fill-rule="evenodd" clip-rule="evenodd" d="M13.9999 2.5H20.4999C21.0522 2.5 21.4999 2.94772 21.4999 3.5V10C21.4999 10.5523 21.0522 11 20.4999 11H13.9999C13.4476 11 12.9999 10.5523 12.9999 10V3.5C12.9999 2.94772 13.4476 2.5 13.9999 2.5ZM14.9999 9H19.4999V4.5H14.9999V9ZM3.49989 13H9.99989C10.5522 13 10.9999 13.4477 10.9999 14V20.5C10.9999 21.0523 10.5522 21.5 9.99989 21.5H3.49989C2.94761 21.5 2.49989 21.0523 2.49989 20.5V14C2.49989 13.4477 2.94761 13 3.49989 13ZM4.49989 19.5H8.99989V15H4.49989V19.5ZM20.4999 13H13.9999C13.4476 13 12.9999 13.4477 12.9999 14V20.5C12.9999 21.0523 13.4476 21.5 13.9999 21.5H20.4999C21.0522 21.5 21.4999 21.0523 21.4999 20.5V14C21.4999 13.4477 21.0522 13 20.4999 13ZM14.9999 19.5V15H19.4999V19.5H14.9999ZM2.51461 7.03553C2.31935 6.84027 2.31935 6.52369 2.51461 6.32843L3.22172 5.62132C3.41698 5.42606 3.73356 5.42606 3.92882 5.62132L5.69659 7.38909L9.58568 3.5C9.78094 3.30474 10.0975 3.30474 10.2928 3.5L10.9999 4.20711C11.1952 4.40237 11.1952 4.71895 10.9999 4.91421L6.05014 9.86396C5.85488 10.0592 5.5383 10.0592 5.34304 9.86396L2.51461 7.03553Z" fill="#1F2329"/>
</svg>
