<svg width="24" height="24" viewBox="0 0 24 24" xmlns="http://www.w3.org/2000/svg">
<g clip-path="url(#clip0_3234_102287)">
<path d="M12 5.5C12.6903 5.5 13.25 6.05965 13.25 6.75C13.25 7.44035 12.6903 8 12 8C11.3097 8 10.75 7.44035 10.75 6.75C10.75 6.05965 11.3097 5.5 12 5.5Z"/>
<path d="M12.25 9H10.75C10.4739 9 10.25 9.22386 10.25 9.5V10.5C10.25 10.7761 10.4739 11 10.75 11H11.25V16H10C9.72386 16 9.5 16.2239 9.5 16.5V17.5C9.5 17.7761 9.72386 18 10 18H14.5C14.7761 18 15 17.7761 15 17.5V16.5C15 16.2239 14.7761 16 14.5 16H13.25V10C13.25 9.44772 12.8023 9 12.25 9Z" />
<path fill-rule="evenodd" clip-rule="evenodd" d="M12 22.9998C5.925 22.9998 1 18.0748 1 11.9998C1 5.92476 5.925 0.999756 12 0.999756C18.075 0.999756 23 5.92476 23 11.9998C23 18.0748 18.075 22.9998 12 22.9998ZM12 20.9998C16.9705 20.9998 21 16.9703 21 11.9998C21 7.02926 16.9705 2.99976 12 2.99976C7.0295 2.99976 3 7.02926 3 11.9998C3 16.9703 7.0295 20.9998 12 20.9998Z"/>
</g>
<defs>
<clipPath id="clip0_3234_102287">
<rect width="24" height="24" rx="4"/>
</clipPath>
</defs>
</svg>
