<svg width="24" height="24" viewBox="0 0 24 24" fill="none" xmlns="http://www.w3.org/2000/svg">
<path d="M7 2.5C7 2.22386 6.77614 2 6.5 2H5.5C5.22386 2 5 2.22386 5 2.5V3H2C1.44772 3 1 3.44772 1 4V21C1 21.5523 1.44772 22 2 22H10.7546C10.2724 21.3984 9.87526 20.7257 9.58152 20H3V5H5V5.5C5 5.77614 5.22386 6 5.5 6H6.5C6.77614 6 7 5.77614 7 5.5V5H15V5.5C15 5.77614 15.2239 6 15.5 6H16.5C16.7761 6 17 5.77614 17 5.5V5H19V9.25204C19.7095 9.43466 20.381 9.71218 21 10.0703V4C21 3.44772 20.5523 3 20 3H17V2.5C17 2.22386 16.7761 2 16.5 2H15.5C15.2239 2 15 2.22386 15 2.5V3H7V2.5Z" fill="#04B49C"/>
<path d="M12.5 10.3847V10C12.5 9.72386 12.2761 9.5 12 9.5H10C9.72386 9.5 9.5 9.72386 9.5 10V12C9.5 12.2761 9.72386 12.5 10 12.5H10.3847C10.9508 11.6693 11.6693 10.9508 12.5 10.3847Z" fill="#04B49C"/>
<path d="M7.5 9.5C7.77614 9.5 8 9.72386 8 10V12C8 12.2761 7.77614 12.5 7.5 12.5H5.5C5.22386 12.5 5 12.2761 5 12V10C5 9.72386 5.22386 9.5 5.5 9.5H7.5Z" fill="#04B49C"/>
<path d="M7.5 14C7.77614 14 8 14.2239 8 14.5V16.5C8 16.7761 7.77614 17 7.5 17H5.5C5.22386 17 5 16.7761 5 16.5V14.5C5 14.2239 5.22386 14 5.5 14H7.5Z" fill="#04B49C"/>
<path d="M11 17C11 13.6863 13.6863 11 17 11C20.3138 11 23 13.6863 23 17C23 20.3138 20.3138 23 17 23C16.6389 23 16.2853 22.9681 15.9417 22.907C15.9517 22.8915 15.9595 22.8744 15.9649 22.856L16.1362 22.267L17.2177 17.3297H20.2439C20.2958 17.3297 20.3456 17.3091 20.3823 17.2724C20.419 17.2357 20.4396 17.1859 20.4396 17.134V16.2066C20.4396 16.1547 20.419 16.105 20.3823 16.0683C20.3456 16.0316 20.2958 16.011 20.2439 16.011H17.5065L17.734 14.9725C17.9231 14.3222 18.5395 13.8726 19.2418 13.8726H20.1867C20.2386 13.8726 20.2883 13.852 20.325 13.8153C20.3617 13.7786 20.3824 13.7288 20.3824 13.6769V12.7781C20.3824 12.7262 20.3617 12.6764 20.325 12.6397C20.2883 12.603 20.2386 12.5824 20.1867 12.5824H19.2418C17.9375 12.5824 16.7928 13.4175 16.4416 14.6251L16.1319 16.011H13.4924C13.4405 16.011 13.3908 16.0316 13.3541 16.0683C13.3174 16.105 13.2967 16.1547 13.2967 16.2066V17.134C13.2967 17.1859 13.3174 17.2357 13.3541 17.2724C13.3908 17.3091 13.4405 17.3297 13.4924 17.3297H15.8372L14.7726 22.0932L14.6468 22.521C12.5028 21.6059 11 19.4784 11 17Z" fill="#04B49C"/>
</svg>
