<svg width="24" height="24" viewBox="0 0 24 24" fill="none" xmlns="http://www.w3.org/2000/svg">
<path fill-rule="evenodd" clip-rule="evenodd" d="M12 21C16.9706 21 21 16.9706 21 12C21 7.02944 16.9706 3 12 3C7.02944 3 3 7.02944 3 12C3 16.9706 7.02944 21 12 21ZM12 23C5.92487 23 1 18.0751 1 12C1 5.92487 5.92487 1 12 1C18.0751 1 23 5.92487 23 12C23 18.0751 18.0751 23 12 23ZM11.5 16H12.5C12.7761 16 13 16.2239 13 16.5V17.5C13 17.7761 12.7761 18 12.5 18H11.5C11.2239 18 11 17.7761 11 17.5V16.5C11 16.2239 11.2239 16 11.5 16ZM8.04986 9.28171C8.06256 9.16994 8.07558 9.07696 8.0889 9.00277C8.28384 7.91718 8.77754 7.11884 9.57002 6.60771C10.1907 6.20257 10.9533 6 11.858 6C13.0467 6 14.0342 6.28786 14.8205 6.86359C15.6068 7.43932 16 8.29225 16 9.42239C16 10.1154 15.8291 10.6991 15.4872 11.1736C15.2873 11.4614 14.9034 11.8293 14.3353 12.277L13.7751 12.7168C13.4701 12.9567 13.2676 13.2366 13.1677 13.5564C13.1405 13.6437 13.1166 13.806 13.0959 14.0432C13.0735 14.3017 12.8572 14.5 12.5978 14.5H11.4784C11.2023 14.5 10.9784 14.2761 10.9784 14C10.9784 13.9846 10.9791 13.9692 10.9805 13.9539C11.0449 13.258 11.1139 12.8177 11.1874 12.6329C11.3241 12.289 11.6765 11.8932 12.2446 11.4454L12.8205 10.9897C13.0099 10.8457 13.9856 10.1586 13.9856 9.55033C13.9856 8.94201 13.8796 8.71826 13.5742 8.38441C13.2687 8.05055 12.5812 7.94309 11.9605 7.94309C11.3504 7.94309 10.829 8.10511 10.574 8.51559C10.4558 8.7057 10.3592 8.90851 10.2895 9.11544C10.2621 9.19685 10.2378 9.29927 10.2166 9.4227C10.1755 9.66273 9.96737 9.83819 9.72383 9.83819H8.54667C8.27052 9.8382 8.04666 9.61434 8.04666 9.33819C8.04666 9.31932 8.04772 9.30046 8.04986 9.28171Z" fill="#1F2329"/>
</svg>
