<svg xmlns="http://www.w3.org/2000/svg" width="14" height="14" viewBox="0 0 14 14" fill="none">
  <path fill-rule="evenodd" clip-rule="evenodd" d="M2.33329 2.33332V9.33332H11.6666V2.33332H2.33329ZM1.16663 1.74999C1.16663 1.4277 1.42913 1.16666 1.74996 1.16666H12.25C12.5708 1.16666 12.8333 1.4277 12.8333 1.74999V9.91666C12.8333 10.2389 12.5708 10.5 12.25 10.5H1.74996C1.42913 10.5 1.16663 10.2389 1.16663 9.91666V1.74999Z" fill="#1F2329"/>
  <path d="M9.00573 3.96255L9.83057 4.78739L7.06848 7.54947L5.72157 6.20285L4.78736 7.13735L3.96252 6.31222L5.72157 4.55318L7.06819 5.89981L9.00573 3.96255Z" fill="#1F2329"/>
  <path d="M9.91671 11.6667H4.08337V12.8333H9.91671V11.6667Z" fill="#1F2329"/>
</svg>