<svg width="19" height="18" viewBox="0 0 19 18" fill="none" xmlns="http://www.w3.org/2000/svg">
<g id="icon_qr_outlined">
<path id="&#229;&#189;&#162;&#231;&#138;&#182;" d="M3.875 8.625H9.125V3.375H3.875V8.625ZM3.125 1.875H9.875C10.2892 1.875 10.625 2.21079 10.625 2.625V9.375C10.625 9.78921 10.2892 10.125 9.875 10.125H3.125C2.71079 10.125 2.375 9.78921 2.375 9.375V2.625C2.375 2.21079 2.71079 1.875 3.125 1.875ZM5.375 4.875H7.625V7.125H5.375V4.875ZM3.875 12.75V14.625H5.75V12.75H3.875ZM3.125 11.25H6.5C6.91421 11.25 7.25 11.5858 7.25 12V15.375C7.25 15.7892 6.91421 16.125 6.5 16.125H3.125C2.71079 16.125 2.375 15.7892 2.375 15.375V12C2.375 11.5858 2.71079 11.25 3.125 11.25ZM13.25 3.375V5.25H15.125V3.375H13.25ZM12.5 1.875H15.875C16.2892 1.875 16.625 2.21079 16.625 2.625V6C16.625 6.41421 16.2892 6.75 15.875 6.75H12.5C12.0858 6.75 11.75 6.41421 11.75 6V2.625C11.75 2.21079 12.0858 1.875 12.5 1.875ZM13.25 12.75V14.625H15.125V12.75H13.25ZM12.5 11.25H15.875C16.2892 11.25 16.625 11.5858 16.625 12V15.375C16.625 15.7892 16.2892 16.125 15.875 16.125H12.5C12.0858 16.125 11.75 15.7892 11.75 15.375V12C11.75 11.5858 12.0858 11.25 12.5 11.25ZM8.75 11.25H10.25V12.75H8.75V11.25ZM8.75 13.875H10.25V16.125H8.75V13.875ZM11.75 8.25H13.25V9.75H11.75V8.25ZM14.375 8.25H16.625V9.75H14.375V8.25Z" fill="#1F2329"/>
</g>
</svg>
