<svg width="14" height="14" viewBox="0 0 14 14" fill="none" xmlns="http://www.w3.org/2000/svg">
<g id="icon_replace_outlined">
<g id="Union">
<path d="M4.04006 10.6078C4.8455 11.2694 5.87639 11.6665 7.00004 11.6665C9.57737 11.6665 11.6667 9.57717 11.6667 6.99984C11.6667 6.75968 11.6486 6.52377 11.6136 6.29338L11.0645 6.6181C10.8456 6.74755 10.5774 6.55439 10.6309 6.30576L11.0503 4.35455C11.086 4.18817 11.2561 4.08762 11.4191 4.13644L13.331 4.70893C13.5746 4.78188 13.6147 5.10994 13.3958 5.23939L12.6795 5.66302C12.7801 6.09231 12.8334 6.53985 12.8334 6.99984C12.8334 10.2215 10.2217 12.8332 7.00004 12.8332C5.43958 12.8332 4.02223 12.2204 2.97546 11.2225L4.04006 10.6078Z" fill="#1F2329"/>
<path d="M9.78093 3.25188C9.00428 2.67468 8.04204 2.33317 7.00004 2.33317C4.42271 2.33317 2.33337 4.42251 2.33337 6.99984C2.33337 7.16502 2.34195 7.3282 2.3587 7.48896L2.99837 7.12501C3.21941 6.99925 3.48429 7.19688 3.42669 7.44459L2.97461 9.38848C2.93606 9.55423 2.76437 9.65192 2.60218 9.60037L0.700164 8.99588C0.457798 8.91885 0.423231 8.59017 0.644271 8.46441L1.27172 8.10741C1.20279 7.74882 1.16671 7.37854 1.16671 6.99984C1.16671 3.77818 3.77838 1.1665 7.00004 1.1665C8.48104 1.1665 9.83314 1.71842 10.8619 2.62779L9.78093 3.25188Z" fill="#1F2329"/>
</g>
</g>
</svg>
