<svg width="16" height="14" viewBox="0 0 16 14" xmlns="http://www.w3.org/2000/svg">
  <path d="M8.66666 12.0002H5.66666C2.90523 12.0002 0.666656 9.76164 0.666656 7.00022C0.666656 5.02373 1.81347 3.3151 3.47799 2.50343L4.14705 3.66228C2.8804 4.23986 1.99999 5.51723 1.99999 7.00022C1.99999 9.02526 3.64161 10.6669 5.66666 10.6669H8.66666V9.77154C8.66666 9.57824 8.82336 9.42154 9.01666 9.42154C9.10143 9.42154 9.18333 9.45231 9.24713 9.50814L11.0323 11.0702C11.1778 11.1974 11.1925 11.4186 11.0652 11.564C11.055 11.5757 11.044 11.5867 11.0323 11.597L9.24713 13.159C9.10166 13.2863 8.88054 13.2715 8.75325 13.126C8.69743 13.0622 8.66666 12.9803 8.66666 12.8956V12.0002ZM7.33333 3.33356V4.22891C7.33333 4.31369 7.30256 4.39559 7.24673 4.45939C7.11944 4.60486 6.89832 4.6196 6.75285 4.49231L4.96769 2.9303C4.956 2.92007 4.945 2.90907 4.93477 2.89737C4.80748 2.7519 4.82222 2.53078 4.96769 2.4035L6.75285 0.841481C6.81665 0.785654 6.89855 0.754883 6.98333 0.754883C7.17663 0.754883 7.33333 0.911583 7.33333 1.10488V2.00023H10.3333C13.0947 2.00023 15.3333 4.23881 15.3333 7.00023C15.3333 8.96233 14.2031 10.6605 12.5583 11.4791L11.8897 10.3212C13.1366 9.73578 14 8.46883 14 7.00023C14 4.97519 12.3584 3.33356 10.3333 3.33356H7.33333Z"/>
</svg>
