<svg width="16" height="16" viewBox="0 0 16 16" fill="none" xmlns="http://www.w3.org/2000/svg">
<g clip-path="url(#clip0_1052_111876)">
<path d="M8.00033 15.3332C12.0504 15.3332 15.3337 12.0499 15.3337 7.99984C15.3337 3.94975 12.0504 0.666504 8.00033 0.666504C3.95024 0.666504 0.666992 3.94975 0.666992 7.99984C0.666992 12.0499 3.95024 15.3332 8.00033 15.3332Z" fill="#FF8800"/>
<path d="M7.66634 4.6665C7.48225 4.6665 7.33301 4.81574 7.33301 4.99984V8.99984C7.33301 9.18393 7.48225 9.33317 7.66634 9.33317H8.33301C8.5171 9.33317 8.66634 9.18393 8.66634 8.99984V4.99984C8.66634 4.81574 8.5171 4.6665 8.33301 4.6665H7.66634Z" fill="white"/>
<path d="M7.66634 9.99984C7.48225 9.99984 7.33301 10.1491 7.33301 10.3332V10.9998C7.33301 11.1839 7.48225 11.3332 7.66634 11.3332H8.33301C8.5171 11.3332 8.66634 11.1839 8.66634 10.9998V10.3332C8.66634 10.1491 8.5171 9.99984 8.33301 9.99984H7.66634Z" fill="white"/>
</g>
<defs>
<clipPath id="clip0_1052_111876">
<rect width="16" height="16" fill="white"/>
</clipPath>
</defs>
</svg>
