<svg width="24" height="24" viewBox="0 0 24 24" fill="none" xmlns="http://www.w3.org/2000/svg">
<path d="M3.33341 2.66669H20.6667C21.0349 2.66669 21.3334 2.96516 21.3334 3.33335V20.6667C21.3334 21.0349 21.0349 21.3334 20.6667 21.3334H3.33341C2.96522 21.3334 2.66675 21.0349 2.66675 20.6667V3.33335C2.66675 2.96516 2.96522 2.66669 3.33341 2.66669ZM4.66675 4.66669V19.3334H19.3334V4.66669H4.66675ZM8.7894 9.33335H7.7894C7.51326 9.33335 7.2894 9.55721 7.2894 9.83335V16.8334C7.2894 17.1095 7.51326 17.3334 7.7894 17.3334H8.7894C9.06554 17.3334 9.2894 17.1095 9.2894 16.8334V9.83335C9.2894 9.55721 9.06554 9.33335 8.7894 9.33335ZM12.5276 6.66669H11.5276C11.2515 6.66669 11.0276 6.88376 11.0276 7.15154V16.8485C11.0276 17.1163 11.2515 17.3334 11.5276 17.3334H12.5276C12.8038 17.3334 13.0276 17.1163 13.0276 16.8485V7.15154C13.0276 6.88376 12.8038 6.66669 12.5276 6.66669ZM16.1766 12H15.1766C14.9004 12 14.6766 12.2388 14.6766 12.5334V16.8C14.6766 17.0946 14.9004 17.3334 15.1766 17.3334H16.1766C16.4527 17.3334 16.6766 17.0946 16.6766 16.8V12.5334C16.6766 12.2388 16.4527 12 16.1766 12Z" fill="#3370FF"/>
<path d="M1 4C1 1.79086 2.79086 0 5 0H19C21.2091 0 23 1.79086 23 4V20C23 22.2091 21.2091 24 19 24H5C2.79086 24 1 22.2091 1 20V4Z" fill="#3370FF"/>
<path d="M6.45833 16.6667V11.7349C6.45833 11.3981 6.73816 11.125 7.08333 11.125H9.66667V6.78072C9.66667 6.4416 9.96514 6.16669 10.3333 6.16669H13.6667C14.0349 6.16669 14.3333 6.4416 14.3333 6.78072V9.66669H16.9167C17.2618 9.66669 17.5417 9.92785 17.5417 10.25V16.6667H17.8333C17.9944 16.6667 18.125 16.7973 18.125 16.9584V17.5417C18.125 17.7028 17.9944 17.8334 17.8333 17.8334H6.16667C6.00558 17.8334 5.875 17.7028 5.875 17.5417V16.9584C5.875 16.7973 6.00558 16.6667 6.16667 16.6667H6.45833ZM16.375 16.6667V10.8334H14.3333V16.6667H16.375ZM13.1667 16.6667V7.33335H10.8333V16.6667H13.1667ZM9.66667 16.6667V12.2917H7.625V16.6667H9.66667Z" fill="white"/>
</svg>
