<?xml version="1.0" standalone="no"?><!DOCTYPE svg PUBLIC "-//W3C//DTD SVG 1.1//EN" "http://www.w3.org/Graphics/SVG/1.1/DTD/svg11.dtd"><svg t="1718353836926" class="icon" viewBox="0 0 1024 1024" version="1.1" xmlns="http://www.w3.org/2000/svg" p-id="4416" xmlns:xlink="http://www.w3.org/1999/xlink" width="200" height="200"><path d="M862.1 69H161.9C110.7 69 69 110.7 69 161.9v700.2c0 51.2 41.7 92.9 92.9 92.9h700.2c51.2 0 92.9-41.7 92.9-92.9V161.9c0-51.2-41.7-92.9-92.9-92.9z m16.6 92.9v716.7H161.9c-12.5 0-16.5-4-16.5-16.5V161.9c0-12.5 4-16.5 16.5-16.5h700.2c12.6-0.1 16.6 3.9 16.6 16.5z" p-id="4417"></path><path d="M370.3 222.4H268.7c-25.4 0-46 20.6-46 46V370c0 19.8 16.1 35.8 35.8 35.8 19.7 0 35.8-16.1 35.8-35.8v-75.9h75.9c19.8 0 35.8-16.1 35.8-35.8 0.1-19.8-16-35.9-35.7-35.9zM370.3 730.4h-75.9v-75.9c0-19.8-16.1-35.8-35.8-35.8-19.8 0-35.8 16.1-35.8 35.8V756c0 25.4 20.6 46 46 46h101.6c19.8 0 35.8-16.1 35.8-35.8-0.1-19.8-16.2-35.8-35.9-35.8zM766.5 618.6c-19.8 0-35.8 16.1-35.8 35.8v75.9h-75.9c-19.8 0-35.8 16.1-35.8 35.8 0 19.8 16.1 35.8 35.8 35.8h101.6c25.4 0 46-20.6 46-46V654.4c-0.1-19.7-16.2-35.8-35.9-35.8zM756.3 222.4H654.7c-19.8 0-35.8 16.1-35.8 35.8 0 19.8 16.1 35.8 35.8 35.8h75.9v76c0 19.8 16.1 35.8 35.8 35.8 19.7 0 35.8-16.1 35.8-35.8V268.4c0.1-25.3-20.5-46-45.9-46z" p-id="4418"></path></svg>
