<svg width="24" height="24" viewBox="0 0 24 24" fill="none" xmlns="http://www.w3.org/2000/svg">
<path fill-rule="evenodd" clip-rule="evenodd" d="M6.5 8V7.5C6.5 4.46 8.9625 2 12 2C15.0375 2 17.5 4.46 17.5 7.5V8H21C21.5525 8 22 8.45 22 9V21C22 21.55 21.5525 22 21 22H3C2.4475 22 2 21.55 2 21V9C2 8.45 2.4475 8 3 8H6.5ZM15.5 7.5C15.5 5.565 13.933 4 12 4C10.067 4 8.5 5.565 8.5 7.5V8H15.5V7.5ZM4 10V20H20V10H4ZM12 18C10.343 18 9 16.655 9 15C9 13.345 10.343 12 12 12C13.657 12 15 13.345 15 15C15 16.655 13.657 18 12 18ZM12 16C12.5525 16 13 15.55 13 15C13 14.45 12.5525 14 12 14C11.4475 14 11 14.45 11 15C11 15.55 11.4475 16 12 16Z" fill="#1F2329"/>
</svg>
