<svg width="16" height="16" viewBox="0 0 16 16" fill="none" xmlns="http://www.w3.org/2000/svg">
<g clip-path="url(#clip0_8096_189573)">
<path d="M1.33335 4H14.6667C15.0349 4 15.3334 4.29848 15.3334 4.66667V11.3333C15.3334 11.7015 15.0349 12 14.6667 12H1.33335C0.965164 12 0.666687 11.7015 0.666687 11.3333V4.66667C0.666687 4.29848 0.965164 4 1.33335 4ZM2.00002 5.33333V10.6667H14V5.33333H2.00002Z" fill="#646A73"/>
<path d="M4.66665 7.02255C4.66665 6.82618 4.50746 6.66699 4.31109 6.66699H3.68887C3.4925 6.66699 3.33331 6.82618 3.33331 7.02255V8.9781C3.33331 9.17447 3.4925 9.33366 3.68887 9.33366H4.31109C4.50746 9.33366 4.66665 9.17447 4.66665 8.9781V7.02255Z" fill="#646A73"/>
</g>
<defs>
<clipPath id="clip0_8096_189573">
<rect width="16" height="16" fill="white"/>
</clipPath>
</defs>
</svg>
