<svg width="24" height="24" viewBox="0 0 24 24" fill="none" xmlns="http://www.w3.org/2000/svg">
<path d="M1 4C1 1.79086 2.79086 0 5 0H19C21.2091 0 23 1.79086 23 4V20C23 22.2091 21.2091 24 19 24H5C2.79086 24 1 22.2091 1 20V4Z" fill="#04B49C"/>
<path fill-rule="evenodd" clip-rule="evenodd" d="M9.08333 10.8334C7.4725 10.8334 6.16667 12.1392 6.16667 13.75C6.16667 15.3609 7.4725 16.6667 9.08333 16.6667H14.9167C16.5275 16.6667 17.8333 15.3609 17.8333 13.75C17.8333 12.1392 16.5275 10.8334 14.9167 10.8334V9.66669C17.1718 9.66669 19 11.4949 19 13.75C19 16.0052 17.1718 17.8334 14.9167 17.8334H9.08333C6.82817 17.8334 5 16.0052 5 13.75C5 11.4949 6.82817 9.66669 9.08333 9.66669V10.8334Z" fill="#1F2329"/>
<path fill-rule="evenodd" clip-rule="evenodd" d="M12.0001 7.33335C10.3893 7.33335 9.08341 8.63919 9.08341 10.25H7.91675C7.91675 7.99486 9.74492 6.16669 12.0001 6.16669C14.2552 6.16669 16.0834 7.99486 16.0834 10.25H14.9167C14.9167 8.63919 13.6109 7.33335 12.0001 7.33335Z" fill="#1F2329"/>
<path fill-rule="evenodd" clip-rule="evenodd" d="M10.5398 12.3301H9.98571L8.95581 15.0041H9.55054L9.78504 14.3601H10.737L10.9715 15.0041H11.5697L10.5398 12.3301ZM10.5577 13.8701H9.96476L10.2625 13.0621L10.5577 13.8701Z" fill="#1F2329"/>
<path fill-rule="evenodd" clip-rule="evenodd" d="M13.0143 12.3301H11.8908V15.0041H12.4473V14.0311H13.0073C13.317 14.0311 13.5659 13.9653 13.7382 13.8186C13.9132 13.6697 13.9943 13.4502 13.9943 13.1771C13.9943 12.9059 13.9142 12.6881 13.7404 12.5404C13.5693 12.395 13.3221 12.3301 13.0143 12.3301ZM13.4378 13.1771C13.4378 13.3137 13.3981 13.3969 13.3405 13.4454C13.2758 13.4967 13.1635 13.5306 12.9828 13.5306H12.4473V12.8306H12.9828C13.1605 12.8306 13.2729 12.8648 13.3376 12.9166L13.3412 12.9191C13.3973 12.9595 13.4378 13.0387 13.4378 13.1771Z" fill="#1F2329"/>
<path d="M15.0257 12.3301H14.4727V15.0041H15.0257V12.3301Z" fill="#1F2329"/>
<path fill-rule="evenodd" clip-rule="evenodd" d="M9.08333 10.8334C7.4725 10.8334 6.16667 12.1392 6.16667 13.75C6.16667 15.3609 7.4725 16.6667 9.08333 16.6667H14.9167C16.5275 16.6667 17.8333 15.3609 17.8333 13.75C17.8333 12.1392 16.5275 10.8334 14.9167 10.8334V9.66669C17.1718 9.66669 19 11.4949 19 13.75C19 16.0052 17.1718 17.8334 14.9167 17.8334H9.08333C6.82817 17.8334 5 16.0052 5 13.75C5 11.4949 6.82817 9.66669 9.08333 9.66669V10.8334Z" fill="white"/>
<path fill-rule="evenodd" clip-rule="evenodd" d="M12.0001 7.33335C10.3893 7.33335 9.08341 8.63919 9.08341 10.25H7.91675C7.91675 7.99486 9.74492 6.16669 12.0001 6.16669C14.2552 6.16669 16.0834 7.99486 16.0834 10.25H14.9167C14.9167 8.63919 13.6109 7.33335 12.0001 7.33335Z" fill="white"/>
<path fill-rule="evenodd" clip-rule="evenodd" d="M10.5398 12.3301H9.98571L8.95581 15.0041H9.55054L9.78504 14.3601H10.737L10.9715 15.0041H11.5697L10.5398 12.3301ZM10.5577 13.8701H9.96476L10.2625 13.0621L10.5577 13.8701Z" fill="white"/>
<path fill-rule="evenodd" clip-rule="evenodd" d="M13.0143 12.3301H11.8908V15.0041H12.4473V14.0311H13.0073C13.317 14.0311 13.5659 13.9653 13.7382 13.8186C13.9132 13.6697 13.9943 13.4502 13.9943 13.1771C13.9943 12.9059 13.9142 12.6881 13.7404 12.5404C13.5693 12.395 13.3221 12.3301 13.0143 12.3301ZM13.4378 13.1771C13.4378 13.3137 13.3981 13.3969 13.3405 13.4454C13.2758 13.4967 13.1635 13.5306 12.9828 13.5306H12.4473V12.8306H12.9828C13.1605 12.8306 13.2729 12.8648 13.3376 12.9166L13.3412 12.9191C13.3973 12.9595 13.4378 13.0387 13.4378 13.1771Z" fill="white"/>
<path d="M15.0257 12.3301H14.4727V15.0041H15.0257V12.3301Z" fill="white"/>
</svg>
