<svg width="24" height="24" viewBox="0 0 24 24" fill="none" xmlns="http://www.w3.org/2000/svg">
<g clip-path="url(#clip0_2326_66185)">
<path d="M1 4C1 1.79086 2.79086 0 5 0H19C21.2091 0 23 1.79086 23 4V20C23 22.2091 21.2091 24 19 24H5C2.79086 24 1 22.2091 1 20V4Z" fill="#FF8800"/>
<path fill-rule="evenodd" clip-rule="evenodd" d="M7.01636 5.58331H15.3092C15.4419 5.58331 15.569 5.63599 15.6628 5.72976L17.3699 7.43687C17.4637 7.53064 17.5163 7.65781 17.5163 7.79042V17.9167C17.5163 18.1928 17.2925 18.4166 17.0164 18.4166H7.01636C6.74021 18.4166 6.51636 18.1928 6.51636 17.9167V6.08331C6.51636 5.80717 6.74021 5.58331 7.01636 5.58331ZM7.71633 17.2167H16.3164V8.58331H14.6914C14.5947 8.58331 14.5164 8.50496 14.5164 8.40831V6.78339H7.71633V17.2167Z" fill="#1F2329"/>
<path fill-rule="evenodd" clip-rule="evenodd" d="M9.16663 13.8664C9.44555 13.9511 9.60143 14.0048 9.64961 14.0288C9.78796 14.0996 9.83957 14.1829 9.83957 14.2797C9.83957 14.3548 9.8055 14.4157 9.71617 14.4659C9.62104 14.5194 9.48656 14.5527 9.30757 14.5527C9.10553 14.5527 8.97427 14.5151 8.89495 14.455C8.80847 14.3901 8.74488 14.2722 8.71869 14.0888L8.70795 14.0137H8.16054L8.16676 14.107C8.18901 14.4407 8.3095 14.6994 8.54282 14.8655L8.54368 14.8661C8.73457 14.9985 8.99204 15.0637 9.30757 15.0637C9.63284 15.0637 9.89837 14.9988 10.0937 14.8582L10.0946 14.8575C10.2925 14.7111 10.3926 14.5097 10.3926 14.2587C10.3926 13.9935 10.2648 13.7883 10.0284 13.6449C9.91944 13.5787 9.68763 13.4952 9.35467 13.3912L9.35359 13.3908C9.11713 13.3203 8.98344 13.2703 8.93748 13.2444L8.93541 13.2433C8.88106 13.2146 8.84699 13.1845 8.82648 13.1549C8.80667 13.1263 8.79657 13.0941 8.79657 13.0547C8.79657 13.004 8.80705 12.9657 8.82435 12.9362C8.84149 12.907 8.86848 12.881 8.91022 12.8595L8.91282 12.858C8.98142 12.8196 9.09 12.7957 9.24807 12.7957C9.42822 12.7957 9.54615 12.8294 9.62255 12.8867L9.62421 12.8879C9.69742 12.9402 9.75291 13.0351 9.78556 13.1853L9.80054 13.2542H10.3448L10.3362 13.1589C10.3102 12.8684 10.2041 12.643 10.0042 12.4948C9.81883 12.3531 9.56989 12.2917 9.26907 12.2917C8.99004 12.2917 8.75121 12.3542 8.55836 12.4853C8.3492 12.6274 8.24357 12.8259 8.24357 13.0757C8.24357 13.3239 8.35455 13.5202 8.57301 13.6513L8.57617 13.653C8.66231 13.7 8.86102 13.7692 9.16553 13.8661L9.16663 13.8664ZM8.59375 14.7942C8.38725 14.6472 8.27525 14.4162 8.25425 14.1012C8.25624 14.1311 8.25888 14.1603 8.26252 14.1887C8.2972 14.4593 8.40687 14.6612 8.59375 14.7942Z" fill="#1F2329"/>
<path fill-rule="evenodd" clip-rule="evenodd" d="M12.0578 15.0637C12.2989 15.0637 12.5123 15.0174 12.6981 14.9221C12.7732 15.0251 12.8489 15.1331 12.9274 15.2465L12.9835 15.3276L13.3602 14.994L13.3166 14.9303C13.238 14.8154 13.1569 14.7058 13.0785 14.6004C13.2677 14.3526 13.3598 14.0451 13.3598 13.6812C13.3598 13.2799 13.25 12.9459 13.0226 12.6919C12.7829 12.4218 12.4565 12.2917 12.0578 12.2917C11.6561 12.2917 11.329 12.4217 11.0924 12.6962C10.8655 12.9536 10.7593 13.2837 10.7593 13.6812C10.7593 14.0755 10.8658 14.4058 11.0928 14.6632C11.3289 14.9298 11.6553 15.0637 12.0578 15.0637ZM12.9995 15.1966C12.905 15.0601 12.814 14.9307 12.723 14.8082C12.7978 14.9088 12.8724 15.0142 12.9491 15.1243L12.9995 15.1966ZM12.1315 14.0977C12.254 14.2272 12.38 14.3707 12.506 14.5282C12.3835 14.6017 12.233 14.6402 12.058 14.6402C12.1969 14.6402 12.3202 14.6159 12.4265 14.5692C12.4541 14.557 12.4808 14.5433 12.506 14.5282C12.4874 14.505 12.4687 14.482 12.4501 14.4594C12.3428 14.3287 12.236 14.2081 12.1315 14.0977ZM12.7299 14.3041C12.8349 14.1431 12.8875 13.9367 12.8875 13.6812C12.8875 13.896 12.8503 14.0761 12.7761 14.2237C12.762 14.2516 12.7466 14.2784 12.7299 14.3041ZM12.0678 14.1578C12.1665 14.2621 12.2674 14.3757 12.3689 14.4984C12.2801 14.5336 12.1764 14.5527 12.0578 14.5527C11.8142 14.5527 11.6338 14.4706 11.5057 14.3184C11.3823 14.1668 11.3158 13.9576 11.3158 13.6812C11.3158 13.4009 11.3827 13.1912 11.5064 13.0397C11.6339 12.8819 11.8132 12.8027 12.0578 12.8027C12.304 12.8027 12.4829 12.8794 12.6062 13.0296C12.7299 13.1813 12.7998 13.3943 12.7998 13.6812C12.7998 13.8694 12.77 14.0246 12.7136 14.1513C12.6145 14.0372 12.5151 13.9257 12.4154 13.8205L12.354 13.7558L12.0088 14.0955L12.0678 14.1578Z" fill="#1F2329"/>
<path fill-rule="evenodd" clip-rule="evenodd" d="M14.416 12.3407H13.863V15.0147H15.7915V14.5142H14.416V12.3407Z" fill="#1F2329"/>
<path fill-rule="evenodd" clip-rule="evenodd" d="M7.01636 5.58331H15.3092C15.4419 5.58331 15.569 5.63599 15.6628 5.72976L17.3699 7.43687C17.4637 7.53064 17.5163 7.65781 17.5163 7.79042V17.9167C17.5163 18.1928 17.2925 18.4166 17.0164 18.4166H7.01636C6.74021 18.4166 6.51636 18.1928 6.51636 17.9167V6.08331C6.51636 5.80717 6.74021 5.58331 7.01636 5.58331ZM7.71633 17.2167H16.3164V8.58331H14.6914C14.5947 8.58331 14.5164 8.50496 14.5164 8.40831V6.78339H7.71633V17.2167Z" fill="white"/>
<path fill-rule="evenodd" clip-rule="evenodd" d="M9.16663 13.8664C9.44555 13.9511 9.60143 14.0048 9.64961 14.0288C9.78796 14.0996 9.83957 14.1829 9.83957 14.2797C9.83957 14.3548 9.8055 14.4157 9.71617 14.4659C9.62104 14.5194 9.48656 14.5527 9.30757 14.5527C9.10553 14.5527 8.97427 14.5151 8.89495 14.455C8.80847 14.3901 8.74488 14.2722 8.71869 14.0888L8.70795 14.0137H8.16054L8.16676 14.107C8.18901 14.4407 8.3095 14.6994 8.54282 14.8655L8.54368 14.8661C8.73457 14.9985 8.99204 15.0637 9.30757 15.0637C9.63284 15.0637 9.89837 14.9988 10.0937 14.8582L10.0946 14.8575C10.2925 14.7111 10.3926 14.5097 10.3926 14.2587C10.3926 13.9935 10.2648 13.7883 10.0284 13.6449C9.91944 13.5787 9.68763 13.4952 9.35467 13.3912L9.35359 13.3908C9.11713 13.3203 8.98344 13.2703 8.93748 13.2444L8.93541 13.2433C8.88106 13.2146 8.84699 13.1845 8.82648 13.1549C8.80667 13.1263 8.79657 13.0941 8.79657 13.0547C8.79657 13.004 8.80705 12.9657 8.82435 12.9362C8.84149 12.907 8.86848 12.881 8.91022 12.8595L8.91282 12.858C8.98142 12.8196 9.09 12.7957 9.24807 12.7957C9.42822 12.7957 9.54615 12.8294 9.62255 12.8867L9.62421 12.8879C9.69742 12.9402 9.75291 13.0351 9.78556 13.1853L9.80054 13.2542H10.3448L10.3362 13.1589C10.3102 12.8684 10.2041 12.643 10.0042 12.4948C9.81883 12.3531 9.56989 12.2917 9.26907 12.2917C8.99004 12.2917 8.75121 12.3542 8.55836 12.4853C8.3492 12.6274 8.24357 12.8259 8.24357 13.0757C8.24357 13.3239 8.35455 13.5202 8.57301 13.6513L8.57617 13.653C8.66231 13.7 8.86102 13.7692 9.16553 13.8661L9.16663 13.8664ZM8.59375 14.7942C8.38725 14.6472 8.27525 14.4162 8.25425 14.1012C8.25624 14.1311 8.25888 14.1603 8.26252 14.1887C8.2972 14.4593 8.40687 14.6612 8.59375 14.7942Z" fill="white"/>
<path fill-rule="evenodd" clip-rule="evenodd" d="M12.0578 15.0637C12.2989 15.0637 12.5123 15.0174 12.6981 14.9221C12.7732 15.0251 12.8489 15.1331 12.9274 15.2465L12.9835 15.3276L13.3602 14.994L13.3166 14.9303C13.238 14.8154 13.1569 14.7058 13.0785 14.6004C13.2677 14.3526 13.3598 14.0451 13.3598 13.6812C13.3598 13.2799 13.25 12.9459 13.0226 12.6919C12.7829 12.4218 12.4565 12.2917 12.0578 12.2917C11.6561 12.2917 11.329 12.4217 11.0924 12.6962C10.8655 12.9536 10.7593 13.2837 10.7593 13.6812C10.7593 14.0755 10.8658 14.4058 11.0928 14.6632C11.3289 14.9298 11.6553 15.0637 12.0578 15.0637ZM12.9995 15.1966C12.905 15.0601 12.814 14.9307 12.723 14.8082C12.7978 14.9088 12.8724 15.0142 12.9491 15.1243L12.9995 15.1966ZM12.1315 14.0977C12.254 14.2272 12.38 14.3707 12.506 14.5282C12.3835 14.6017 12.233 14.6402 12.058 14.6402C12.1969 14.6402 12.3202 14.6159 12.4265 14.5692C12.4541 14.557 12.4808 14.5433 12.506 14.5282C12.4874 14.505 12.4687 14.482 12.4501 14.4594C12.3428 14.3287 12.236 14.2081 12.1315 14.0977ZM12.7299 14.3041C12.8349 14.1431 12.8875 13.9367 12.8875 13.6812C12.8875 13.896 12.8503 14.0761 12.7761 14.2237C12.762 14.2516 12.7466 14.2784 12.7299 14.3041ZM12.0678 14.1578C12.1665 14.2621 12.2674 14.3757 12.3689 14.4984C12.2801 14.5336 12.1764 14.5527 12.0578 14.5527C11.8142 14.5527 11.6338 14.4706 11.5057 14.3184C11.3823 14.1668 11.3158 13.9576 11.3158 13.6812C11.3158 13.4009 11.3827 13.1912 11.5064 13.0397C11.6339 12.8819 11.8132 12.8027 12.0578 12.8027C12.304 12.8027 12.4829 12.8794 12.6062 13.0296C12.7299 13.1813 12.7998 13.3943 12.7998 13.6812C12.7998 13.8694 12.77 14.0246 12.7136 14.1513C12.6145 14.0372 12.5151 13.9257 12.4154 13.8205L12.354 13.7558L12.0088 14.0955L12.0678 14.1578Z" fill="white"/>
<path fill-rule="evenodd" clip-rule="evenodd" d="M14.416 12.3407H13.863V15.0147H15.7915V14.5142H14.416V12.3407Z" fill="white"/>
</g>
<defs>
<clipPath id="clip0_2326_66185">
<rect width="24" height="24" fill="white"/>
</clipPath>
</defs>
</svg>
