<svg width="24" height="24" viewBox="0 0 24 24"  xmlns="http://www.w3.org/2000/svg">
<path d="M12 23.0001C5.925 23.0001 1 18.0751 1 12.0001C1 5.92506 5.925 1.00006 12 1.00006C18.075 1.00006 23 5.92506 23 12.0001C23 18.0751 18.075 23.0001 12 23.0001Z" />
<path d="M12.0002 10.586L9.02524 7.61099C8.93147 7.51726 8.80432 7.4646 8.67174 7.4646C8.53916 7.4646 8.412 7.51726 8.31824 7.61099L7.61124 8.31799C7.5175 8.41176 7.46484 8.53891 7.46484 8.67149C7.46484 8.80407 7.5175 8.93123 7.61124 9.02499L10.5862 12L7.61124 14.975C7.5175 15.0688 7.46484 15.1959 7.46484 15.3285C7.46484 15.4611 7.5175 15.5882 7.61124 15.682L8.31824 16.389C8.412 16.4827 8.53916 16.5354 8.67174 16.5354C8.80432 16.5354 8.93147 16.4827 9.02524 16.389L12.0002 13.414L14.9752 16.389C15.069 16.4827 15.1962 16.5354 15.3287 16.5354C15.4613 16.5354 15.5885 16.4827 15.6822 16.389L16.3892 15.682C16.483 15.5882 16.5356 15.4611 16.5356 15.3285C16.5356 15.1959 16.483 15.0688 16.3892 14.975L13.4142 12L16.3892 9.02499C16.483 8.93123 16.5356 8.80407 16.5356 8.67149C16.5356 8.53891 16.483 8.41176 16.3892 8.31799L15.6822 7.61099C15.5885 7.51726 15.4613 7.4646 15.3287 7.4646C15.1962 7.4646 15.069 7.51726 14.9752 7.61099L12.0002 10.586Z" fill="white"/>
</svg>
