<svg width="16" height="16" viewBox="0 0 16 16"  xmlns="http://www.w3.org/2000/svg">
<g id="icon_invisible_outlined">
<path id="&#232;&#183;&#175;&#229;&#190;&#132;" d="M8.00022 10.0002C7.56203 10.0002 7.13323 9.96572 6.71734 9.8997L6.38535 11.1387C6.33771 11.3165 6.15493 11.4221 5.9771 11.3744L5.33315 11.2019C5.15533 11.1542 5.0498 10.9714 5.09745 10.7936L5.42255 9.58034C4.88013 9.3961 4.37096 9.15543 3.90491 8.86678L2.8454 9.92629C2.71522 10.0565 2.50417 10.0565 2.37399 9.92629L1.90259 9.45489C1.77242 9.32471 1.77242 9.11366 1.90259 8.98348L2.83565 8.05043C2.35424 7.59967 1.95209 7.08569 1.64812 6.5247C1.64492 6.51881 1.64162 6.51264 1.63823 6.50624C1.5136 6.27086 1.56023 5.97623 1.75709 5.79684C1.92051 5.64792 2.03596 5.54659 2.13639 5.44616C2.14538 5.43717 2.15521 5.42715 2.16569 5.41632C2.31108 5.26609 2.55902 5.32201 2.64417 5.51294C3.47427 7.37447 5.46211 8.6669 8.00022 8.6669C10.4321 8.6669 12.4664 7.40921 13.2829 5.68288C13.3042 5.63796 13.328 5.58139 13.3519 5.52133C13.4276 5.33113 13.6741 5.27374 13.8188 5.41849C13.9259 5.52556 14.0687 5.66833 14.2471 5.84678C14.4235 6.02319 14.4713 6.29259 14.356 6.51383C14.3279 6.56764 14.3006 6.61834 14.2774 6.65865C13.9638 7.20157 13.5572 7.69799 13.0754 8.13259L13.9263 8.98348C14.0565 9.11366 14.0565 9.32471 13.9263 9.45489L13.4549 9.92629C13.3247 10.0565 13.1136 10.0565 12.9835 9.92629L11.9888 8.93161C11.5521 9.1916 11.0792 9.41007 10.5779 9.58034L10.903 10.7936C10.9506 10.9714 10.8451 11.1542 10.6673 11.2019L10.0233 11.3744C9.84552 11.4221 9.66274 11.3165 9.61509 11.1387L9.2831 9.8997C8.86721 9.96572 8.43842 10.0002 8.00022 10.0002Z"/>
</g>
</svg>
