<svg width="16" height="16" viewBox="0 0 16 16" xmlns="http://www.w3.org/2000/svg">
<path d="M6.66683 1.84V1.33333C6.66683 1.24493 6.70195 1.16014 6.76446 1.09763C6.82697 1.03512 6.91176 1 7.00016 1H9.00016C9.08857 1 9.17335 1.03512 9.23587 1.09763C9.29838 1.16014 9.3335 1.24493 9.3335 1.33333V1.84C11.6335 2.45133 13.3335 4.60667 13.3335 7.172V11H14.3335C14.3773 11 14.4206 11.0086 14.4611 11.0254C14.5015 11.0421 14.5382 11.0667 14.5692 11.0976C14.6002 11.1286 14.6247 11.1653 14.6415 11.2058C14.6582 11.2462 14.6668 11.2896 14.6668 11.3333V12C14.6668 12.0438 14.6582 12.0871 14.6415 12.1276C14.6247 12.168 14.6002 12.2048 14.5692 12.2357C14.5382 12.2667 14.5015 12.2912 14.4611 12.308C14.4206 12.3247 14.3773 12.3333 14.3335 12.3333H1.66683C1.62306 12.3333 1.57971 12.3247 1.53927 12.308C1.49883 12.2912 1.46208 12.2667 1.43113 12.2357C1.40017 12.2048 1.37562 12.168 1.35887 12.1276C1.34212 12.0871 1.3335 12.0438 1.3335 12V11.3333C1.3335 11.2896 1.34212 11.2462 1.35887 11.2058C1.37562 11.1653 1.40017 11.1286 1.43113 11.0976C1.46208 11.0667 1.49883 11.0421 1.53927 11.0254C1.57971 11.0086 1.62306 11 1.66683 11H2.66683V7.172C2.66683 4.60667 4.36683 2.45133 6.66683 1.84ZM6.3335 13.3333H9.66683C9.7106 13.3333 9.75395 13.342 9.79439 13.3587C9.83483 13.3755 9.87158 13.4 9.90253 13.431C9.93349 13.4619 9.95804 13.4987 9.97479 13.5391C9.99154 13.5795 10.0002 13.6229 10.0002 13.6667V14.3333C10.0002 14.3771 9.99154 14.4205 9.97479 14.4609C9.95804 14.5013 9.93349 14.5381 9.90253 14.569C9.87158 14.6 9.83483 14.6245 9.79439 14.6413C9.75395 14.658 9.7106 14.6667 9.66683 14.6667H6.3335C6.28972 14.6667 6.24638 14.658 6.20594 14.6413C6.16549 14.6245 6.12875 14.6 6.09779 14.569C6.06684 14.5381 6.04229 14.5013 6.02554 14.4609C6.00879 14.4205 6.00016 14.3771 6.00016 14.3333V13.6667C6.00016 13.6229 6.00879 13.5795 6.02554 13.5391C6.04229 13.4987 6.06684 13.4619 6.09779 13.431C6.12875 13.4 6.16549 13.3755 6.20594 13.3587C6.24638 13.342 6.28972 13.3333 6.3335 13.3333Z"/>
</svg>
