<svg width="20" height="20" viewBox="0 0 20 20" fill="none" xmlns="http://www.w3.org/2000/svg">
<path d="M7.1518 11.5968C7.31452 11.4341 7.57834 11.4341 7.74106 11.5968L8.33031 12.186C8.49303 12.3487 8.49303 12.6126 8.33031 12.7753L4.99587 16.1086H7.36621C7.59633 16.1086 7.78288 16.2952 7.78288 16.5253V17.3586C7.78288 17.5887 7.59633 17.7753 7.36621 17.7753H3.05555C2.82544 17.7753 2.6171 17.682 2.4663 17.5312C2.3155 17.3804 2.22222 17.1721 2.22222 16.9419V12.6421C2.22222 12.412 2.40877 12.2255 2.63889 12.2255H3.47222C3.70234 12.2255 3.88889 12.412 3.88889 12.6421V14.8586L7.1518 11.5968ZM16.9367 2.22217C17.1668 2.22217 17.3751 2.31544 17.5259 2.46625C17.6767 2.61705 17.77 2.82538 17.77 3.0555V7.35531C17.77 7.58543 17.5835 7.77198 17.3533 7.77198H16.52C16.2899 7.77198 16.1033 7.58543 16.1033 7.35531V5.13888L12.8404 8.40068C12.6777 8.5634 12.4139 8.5634 12.2512 8.40068L11.6619 7.81142C11.4992 7.6487 11.4992 7.38489 11.6619 7.22217L14.9964 3.88883H12.626C12.3959 3.88883 12.2094 3.70229 12.2094 3.47217V2.63883C12.2094 2.40872 12.3959 2.22217 12.626 2.22217H16.9367Z" fill="#1F2329"/>
</svg>
