<svg width="24" height="24" viewBox="0 0 24 24" xmlns="http://www.w3.org/2000/svg">
<path fill-rule="evenodd" clip-rule="evenodd" d="M16 11.431V21.5C16 21.7761 15.7761 22 15.5 22H14.5C14.2239 22 14 21.7761 14 21.5V11C14 10.853 14.0317 10.7135 14.0886 10.5878C14.1646 10.3992 14.3006 10.2331 14.4885 10.1209L20 6.83092V4H4V6.86581L9.34505 10.0611C9.72731 10.2017 10 10.569 10 11V18C10 18.2761 9.77614 18.5 9.5 18.5H8.5C8.22386 18.5 8 18.2761 8 18V11.4652L2.47382 8.16158C2.34978 8.08742 2.24841 7.98968 2.17208 7.87746C2.06665 7.78579 2 7.65068 2 7.5V3C2 2.44772 2.44772 2 3 2H21C21.2761 2 21.5261 2.11193 21.7071 2.29289C21.8881 2.47386 22 2.72386 22 3V7.19309C22.0077 7.26332 22.0076 7.33379 22 7.40323V7.5C22 7.66841 21.9167 7.81738 21.7891 7.90798C21.72 7.99284 21.6351 8.06727 21.5358 8.12658L16 11.431Z"/>
</svg>
