<svg width="24" height="24" viewBox="0 0 24 24" fill="none" xmlns="http://www.w3.org/2000/svg">
<path d="M19.1435 12.9997H7.49951C7.22337 12.9997 6.99951 12.7758 6.99951 12.4997V11.5002C6.99951 11.2241 7.22337 11.0002 7.49951 11.0002H19.1855L14.1614 5.9754C13.9662 5.78017 13.9662 5.46368 14.1614 5.26842L14.8682 4.56119C15.0635 4.36584 15.3801 4.36579 15.5754 4.56109L21.5788 10.5644L21.5855 10.5569L22.9964 11.9678C22.9984 11.9698 22.9984 11.9731 22.9964 11.9751L22.9961 11.9754C22.9941 11.9773 22.9942 11.9805 22.9963 11.9823V11.9823C22.9983 11.9842 22.9984 11.9873 22.9964 11.9893L21.5855 13.4002L21.578 13.3927L15.5752 19.3962C15.38 19.5914 15.0635 19.5915 14.8682 19.3963L14.161 18.6895C13.9656 18.4943 13.9656 18.1776 14.1609 17.9823L19.1435 12.9997ZM2.49976 3.99969C2.7759 3.99969 2.99976 4.22355 2.99976 4.49969V19.5002C2.99976 19.7763 2.7759 20.0002 2.49976 20.0002H1.49951C1.22337 20.0002 0.999512 19.7763 0.999512 19.5002V4.49969C0.999512 4.22355 1.22337 3.99969 1.49951 3.99969H2.49976Z" fill="#1F2329"/>
</svg>
