<svg width="24" height="24" viewBox="0 0 24 24" fill="none" xmlns="http://www.w3.org/2000/svg">
<path fill-rule="evenodd" clip-rule="evenodd" d="M3.45675 1H17.6731C17.9005 1 18.1185 1.09031 18.2792 1.25105L21.2057 4.17752C21.3664 4.33827 21.4567 4.55628 21.4567 4.78361V22.1429C21.4567 22.6162 21.073 23 20.5996 23H3.45675C2.98336 23 2.59961 22.6162 2.59961 22.1429V1.85714C2.59961 1.38376 2.98336 1 3.45675 1ZM4.65671 20.943H19.3996V6.14286H16.6139C16.4482 6.14286 16.3139 6.00854 16.3139 5.84286V3.05728H4.65671V20.943Z" fill="#1F2329"/>
<path fill-rule="evenodd" clip-rule="evenodd" d="M7.14301 15.1995C7.62115 15.3448 7.88838 15.4368 7.97097 15.4779C8.20814 15.5993 8.29661 15.742 8.29661 15.908C8.29661 16.0368 8.23821 16.1411 8.08507 16.2273C7.92199 16.319 7.69145 16.376 7.38461 16.376C7.03826 16.376 6.81324 16.3116 6.67727 16.2085C6.52902 16.0973 6.42001 15.8951 6.3751 15.5808L6.3567 15.452H5.41828L5.42894 15.612C5.46708 16.1841 5.67363 16.6275 6.07362 16.9122L6.0751 16.9132C6.40233 17.1403 6.8437 17.252 7.38461 17.252C7.94221 17.252 8.39741 17.1408 8.73225 16.8997L8.73384 16.8986C9.07299 16.6476 9.24461 16.3024 9.24461 15.872C9.24461 15.4174 9.02564 15.0656 8.6204 14.8197C8.43354 14.7063 8.03615 14.5632 7.46535 14.3848L7.46351 14.3843C7.05814 14.2633 6.82897 14.1775 6.75017 14.1332L6.74662 14.1313C6.65345 14.0822 6.59505 14.0305 6.55989 13.9798C6.52594 13.9308 6.50861 13.8755 6.50861 13.808C6.50861 13.721 6.52658 13.6555 6.55624 13.6049C6.58562 13.5548 6.63188 13.5103 6.70345 13.4734L6.7079 13.4709C6.8255 13.405 7.01164 13.364 7.28261 13.364C7.59144 13.364 7.79362 13.4218 7.92458 13.52L7.92742 13.5221C8.05293 13.6117 8.14805 13.7744 8.20403 14.0319L8.22971 14.15H9.16267L9.14801 13.9866C9.10333 13.4887 8.92145 13.1022 8.57883 12.8482C8.26107 12.6052 7.83431 12.5 7.31861 12.5C6.84027 12.5 6.43085 12.6072 6.10026 12.832C5.74169 13.0755 5.56061 13.4157 5.56061 13.844C5.56061 14.2695 5.75086 14.606 6.12537 14.8307L6.13078 14.8337C6.27846 14.9142 6.6191 15.0329 7.14112 15.199L7.14301 15.1995ZM6.16092 16.79C5.80692 16.538 5.61492 16.142 5.57892 15.602C5.58234 15.6533 5.58686 15.7033 5.5931 15.752C5.65255 16.2159 5.84055 16.5619 6.16092 16.79Z" fill="#1F2329"/>
<path fill-rule="evenodd" clip-rule="evenodd" d="M12.0994 17.252C12.5126 17.252 12.8785 17.1726 13.1969 17.0093C13.3257 17.1858 13.4555 17.371 13.59 17.5654L13.6863 17.7044L14.3319 17.1325L14.2572 17.0233C14.1225 16.8264 13.9834 16.6385 13.8491 16.4577C14.1734 16.0329 14.3314 15.5059 14.3314 14.882C14.3314 14.194 14.1431 13.6216 13.7533 13.1862C13.3423 12.7231 12.7827 12.5 12.0994 12.5C11.4106 12.5 10.8499 12.7228 10.4443 13.1934C10.0553 13.6347 9.87337 14.2005 9.87337 14.882C9.87337 15.558 10.0558 16.1243 10.4451 16.5655C10.8498 17.0224 11.4093 17.252 12.0994 17.252ZM13.7136 17.4798C13.5516 17.2459 13.3956 17.024 13.2397 16.814C13.3678 16.9865 13.4958 17.1672 13.6272 17.3559L13.7136 17.4798ZM12.2257 15.596C12.4357 15.818 12.6517 16.064 12.8677 16.334C12.6577 16.46 12.3997 16.526 12.0997 16.526C12.3378 16.526 12.5492 16.4844 12.7314 16.4042C12.7787 16.3834 12.8244 16.36 12.8677 16.334C12.8358 16.2942 12.8037 16.2549 12.7718 16.2161C12.5878 15.992 12.4047 15.7853 12.2257 15.596ZM13.2515 15.9498C13.4315 15.6738 13.5217 15.32 13.5217 14.882C13.5217 15.2502 13.4578 15.559 13.3306 15.812C13.3065 15.8599 13.2802 15.9059 13.2515 15.9498ZM12.1164 15.6991C12.2856 15.8779 12.4587 16.0725 12.6326 16.283C12.4803 16.3434 12.3026 16.376 12.0994 16.376C11.6817 16.376 11.3725 16.2353 11.1529 15.9743C10.9412 15.7145 10.8274 15.3558 10.8274 14.882C10.8274 14.4014 10.9421 14.042 11.1541 13.7823C11.3725 13.5118 11.68 13.376 12.0994 13.376C12.5213 13.376 12.8281 13.5075 13.0393 13.765C13.2515 14.0251 13.3714 14.3902 13.3714 14.882C13.3714 15.2046 13.3202 15.4707 13.2234 15.6879C13.0536 15.4923 12.8832 15.3012 12.7123 15.1208L12.6071 15.0099L12.0153 15.5922L12.1164 15.6991Z" fill="#1F2329"/>
<path fill-rule="evenodd" clip-rule="evenodd" d="M16.142 12.584H15.194V17.168H18.5V16.31H16.142V12.584Z" fill="#1F2329"/>
</svg>
