<svg width="16" height="16" viewBox="0 0 16 16" fill="none" xmlns="http://www.w3.org/2000/svg">
<path d="M8.00072 7.99935L3.23803 3.91704C2.73677 3.48739 3.04062 2.66602 3.70082 2.66602H12.5341C12.7304 2.66602 12.8896 2.8252 12.8896 3.02157V3.64379C12.8896 3.84016 12.7304 3.99935 12.5341 3.99935H5.33406L9.88661 7.72416C10.0605 7.86642 10.0605 8.13227 9.88661 8.27453L5.33406 11.9993H12.9785C13.1749 11.9993 13.3341 12.1585 13.3341 12.3549V12.9771C13.3341 13.1735 13.1749 13.3327 12.9785 13.3327H3.70082C3.04062 13.3327 2.73677 12.5113 3.23803 12.0817L8.00072 7.99935Z" fill="currentColor"/>
</svg>
