<svg width="24" height="24" viewBox="0 0 24 24"  xmlns="http://www.w3.org/2000/svg">
<path d="M12.0001 21.3333C17.1547 21.3333 21.3334 17.1547 21.3334 12C18.2223 12 15.1112 12 12.0001 12C12.0001 8.26667 12.0001 5.15556 12.0001 2.66667C6.84542 2.66667 2.66675 6.84534 2.66675 12C2.66675 17.1547 6.84542 21.3333 12.0001 21.3333ZM10.1667 12.7667C10.1667 13.3558 10.6443 13.8333 11.2334 13.8333H19.3334C18.5064 17.0465 15.4714 19.3333 12.0001 19.3333C7.88571 19.3333 4.66675 15.9961 4.66675 11.8817C4.66675 8.41043 6.95363 5.49367 10.1667 4.66667V12.7667Z" />
<path d="M14.8939 10C14.4002 10 14.0001 9.59984 14.0001 9.10621V2C18.2227 2.41925 21.5808 5.77735 22.0001 10H14.8939ZM16.0001 4.66667V8H19.3334C18.721 6.4875 17.5126 5.27905 16.0001 4.66667Z" />
</svg>
