<svg width="24" height="24" viewBox="0 0 24 24" fill="none" xmlns="http://www.w3.org/2000/svg">
<path d="M18.8742 6.99951C18.4302 8.72474 16.8641 9.99951 15.0002 9.99951C13.1364 9.99951 11.5703 8.72474 11.1263 6.99951H2.64122C2.41834 6.99951 2.33751 6.97631 2.25603 6.93273C2.17455 6.88915 2.1106 6.8252 2.06703 6.74372C2.02345 6.66224 2.00024 6.58142 2.00024 6.35854V5.64048C2.00024 5.4176 2.02345 5.33678 2.06703 5.2553C2.1106 5.17382 2.17455 5.10987 2.25603 5.06629C2.33751 5.02272 2.41834 4.99951 2.64122 4.99951H11.1263C11.5703 3.27428 13.1364 1.99951 15.0002 1.99951C16.8641 1.99951 18.4302 3.27428 18.8742 4.99951H21.3593C21.5822 4.99951 21.663 5.02272 21.7445 5.06629C21.8259 5.10987 21.8899 5.17382 21.9335 5.2553C21.977 5.33678 22.0002 5.4176 22.0002 5.64048V6.35854C22.0002 6.58142 21.977 6.66224 21.9335 6.74372C21.8899 6.8252 21.8259 6.88915 21.7445 6.93273C21.663 6.97631 21.5822 6.99951 21.3593 6.99951H18.8742ZM15.0002 7.99951C16.1048 7.99951 17.0002 7.10408 17.0002 5.99951C17.0002 4.89494 16.1048 3.99951 15.0002 3.99951C13.8957 3.99951 13.0002 4.89494 13.0002 5.99951C13.0002 7.10408 13.8957 7.99951 15.0002 7.99951Z" fill="#1F2329"/>
<path d="M12.8742 18.9995C12.4302 20.7247 10.8641 21.9995 9.00024 21.9995C7.1364 21.9995 5.5703 20.7247 5.12626 18.9995H2.64122C2.41834 18.9995 2.33751 18.9763 2.25603 18.9327C2.17455 18.8892 2.1106 18.8252 2.06703 18.7437C2.02345 18.6622 2.00024 18.5814 2.00024 18.3585V17.6405C2.00024 17.4176 2.02345 17.3368 2.06703 17.2553C2.1106 17.1738 2.17455 17.1099 2.25603 17.0663C2.33751 17.0227 2.41834 16.9995 2.64122 16.9995H5.12626C5.5703 15.2743 7.1364 13.9995 9.00024 13.9995C10.8641 13.9995 12.4302 15.2743 12.8742 16.9995H21.3593C21.5822 16.9995 21.663 17.0227 21.7445 17.0663C21.8259 17.1099 21.8899 17.1738 21.9335 17.2553C21.977 17.3368 22.0002 17.4176 22.0002 17.6405V18.3585C22.0002 18.5814 21.977 18.6622 21.9335 18.7437C21.8899 18.8252 21.8259 18.8892 21.7445 18.9327C21.663 18.9763 21.5822 18.9995 21.3593 18.9995H12.8742ZM9.00024 19.9995C10.1048 19.9995 11.0002 19.1041 11.0002 17.9995C11.0002 16.8949 10.1048 15.9995 9.00024 15.9995C7.89567 15.9995 7.00024 16.8949 7.00024 17.9995C7.00024 19.1041 7.89567 19.9995 9.00024 19.9995Z" fill="#1F2329"/>
</svg>
