<svg width="24" height="24" viewBox="0 0 24 24" fill="none" xmlns="http://www.w3.org/2000/svg">
<path fill-rule="evenodd" clip-rule="evenodd" d="M10.5 2.5C8.35135 2.5 6.36462 2.78883 4.88047 3.28355C4.14362 3.52917 3.47518 3.84368 2.97041 4.24148C2.47692 4.63039 2 5.21709 2 6V18C2 18.7829 2.47692 19.3696 2.97041 19.7585C3.47518 20.1563 4.14361 20.4708 4.88046 20.7164C6.36462 21.2112 8.35135 21.5 10.5 21.5C12.0826 21.5 13.5773 21.3433 14.8481 21.0631C15.509 21.3444 16.2363 21.5 17 21.5C20.0376 21.5 22.5 19.0376 22.5 16C22.5 13.668 21.0487 11.675 19 10.8749V6C19 5.21709 18.5231 4.63039 18.0296 4.24148C17.5248 3.84368 16.8564 3.52917 16.1195 3.28355C14.6354 2.78883 12.6486 2.5 10.5 2.5ZM17 10.5V8.37161C16.7231 8.49927 16.4273 8.61387 16.1195 8.71645C14.6354 9.21117 12.6486 9.5 10.5 9.5C8.35135 9.5 6.36462 9.21117 4.88046 8.71645C4.57273 8.61387 4.27693 8.49927 4 8.37161V11.9723C4.01416 11.9997 4.06273 12.0729 4.20836 12.1877C4.46263 12.3881 4.89254 12.6123 5.51292 12.8191C6.74323 13.2292 8.5065 13.5 10.5 13.5C11.0648 13.5 11.6111 13.4783 12.132 13.4378C13.0534 11.6908 14.8876 10.5 17 10.5ZM11.5245 15.4779C11.1881 15.4925 10.8462 15.5 10.5 15.5C8.35135 15.5 6.36462 15.2112 4.88046 14.7164C4.57273 14.6139 4.27693 14.4993 4 14.3716V17.9723C4.01416 17.9997 4.06273 18.0729 4.20836 18.1877C4.46263 18.3881 4.89254 18.6123 5.51292 18.8191C6.74323 19.2292 8.5065 19.5 10.5 19.5C11.2618 19.5 11.99 19.4605 12.6676 19.3887C11.9361 18.4548 11.5 17.2783 11.5 16C11.5 15.8239 11.5083 15.6497 11.5245 15.4779Z" fill="#F54A45"/>
<path d="M17.0001 15.293L15.5126 13.8055C15.4657 13.7586 15.4022 13.7323 15.3359 13.7323C15.2696 13.7323 15.206 13.7586 15.1591 13.8055L14.8056 14.159C14.7588 14.2059 14.7324 14.2695 14.7324 14.3357C14.7324 14.402 14.7588 14.4656 14.8056 14.5125L16.2931 16L14.8056 17.4875C14.7588 17.5344 14.7324 17.598 14.7324 17.6642C14.7324 17.7305 14.7588 17.7941 14.8056 17.841L15.1591 18.1945C15.206 18.2414 15.2696 18.2677 15.3359 18.2677C15.4022 18.2677 15.4657 18.2414 15.5126 18.1945L17.0001 16.707L18.4876 18.1945C18.5345 18.2414 18.5981 18.2677 18.6644 18.2677C18.7307 18.2677 18.7942 18.2414 18.8411 18.1945L19.1946 17.841C19.2415 17.7941 19.2678 17.7305 19.2678 17.6642C19.2678 17.598 19.2415 17.5344 19.1946 17.4875L17.7071 16L19.1946 14.5125C19.2415 14.4656 19.2678 14.402 19.2678 14.3357C19.2678 14.2695 19.2415 14.2059 19.1946 14.159L18.8411 13.8055C18.7942 13.7586 18.7307 13.7323 18.6644 13.7323C18.5981 13.7323 18.5345 13.7586 18.4876 13.8055L17.0001 15.293Z" fill="white"/>
</svg>
