<svg width="24" height="24" viewBox="0 0 24 24" fill="none" xmlns="http://www.w3.org/2000/svg">
<path d="M11.8211 1.51111C11.2645 1.17197 10.6243 0.994992 9.97253 1.00011C9.32076 1.00522 8.68338 1.19223 8.13217 1.54007C7.58096 1.88791 7.13782 2.38275 6.85269 2.96885C6.56755 3.55496 6.45174 4.20904 6.5183 4.85742L6.52002 4.87421L6.52231 4.89093C6.58074 5.31772 6.68836 5.68713 6.81122 6H4C2.89543 6 2 6.89543 2 8V12H3.98573C3.98574 12 3.98573 12 3.98573 12H2C2 12.1424 2.00624 12.3455 2.0612 12.5439C2.11575 12.7407 2.29676 13.1876 2.82417 13.3421C3.23279 13.4619 3.57532 13.3055 3.66228 13.2658L3.66518 13.2644C3.79017 13.2074 3.91374 13.1311 3.99029 13.0838L4.02826 13.0603C4.35693 12.8569 4.75032 12.6134 5.36265 12.526C5.63533 12.5009 5.90979 12.5509 6.15621 12.6708C6.40739 12.793 6.61947 12.9829 6.76854 13.2192C6.91761 13.4554 6.99776 13.7286 6.99995 14.0079C7.00215 14.2872 6.9263 14.5616 6.78095 14.8001C6.63561 15.0387 6.42654 15.2319 6.1773 15.358C5.93592 15.4802 5.66616 15.5347 5.3966 15.5161C4.65392 15.4041 4.18741 15.2014 3.87472 15.0642L3.856 15.056C3.78218 15.0236 3.68975 14.983 3.6064 14.9514C3.53629 14.9249 3.35318 14.8558 3.13605 14.8493C3.01232 14.8455 2.83357 14.86 2.6421 14.9475C2.43828 15.0407 2.28239 15.1884 2.1777 15.3554C2.01261 15.6187 2.00088 15.8894 2.00006 16L2 16.0197V20C2 21.1046 2.89543 22 4 22H16C17.1046 22 18 21.1046 18 20V17.2471C18.316 17.3434 18.694 17.4348 19.1395 17.4998L19.1683 17.504L19.1973 17.5065C19.8466 17.5629 20.4988 17.4368 21.0804 17.1425C21.6619 16.8482 22.1497 16.3973 22.4889 15.8407C22.828 15.2841 23.005 14.6439 22.9999 13.9921C22.9948 13.3404 22.8078 12.703 22.4599 12.1518C22.1121 11.6005 21.6173 11.1574 21.0311 10.8723C20.445 10.5871 19.791 10.4713 19.1426 10.5379L19.1258 10.5396L19.1091 10.5419C18.6821 10.6004 18.3126 10.7073 18 10.8289V8C18 6.89543 17.1046 6 16 6H13.2275C13.3238 5.68397 13.4152 5.30601 13.4802 4.86046L13.4844 4.83169L13.4869 4.80272C13.5433 4.15338 13.4172 3.50119 13.1229 2.91963C12.8286 2.33808 12.3777 1.85025 11.8211 1.51111ZM4 17.2471C4.31603 17.3434 4.69399 17.4349 5.13954 17.4998L5.16831 17.504L5.19728 17.5065C5.84662 17.5629 6.49881 17.4368 7.08037 17.1425C7.66192 16.8482 8.14975 16.3974 8.48889 15.8408C8.82803 15.2842 9.00501 14.6439 8.99989 13.9922C8.99478 13.3404 8.80777 12.703 8.45993 12.1518C8.11209 11.6006 7.61725 11.1575 7.03115 10.8723C6.44504 10.5872 5.79096 10.4714 5.14258 10.538L5.12579 10.5397L5.10907 10.542C4.68213 10.6004 4.31264 10.7074 4 10.8289V8H8C8.14171 8 8.34587 7.9939 8.54516 7.9382C8.74416 7.88258 9.19999 7.6952 9.34524 7.15369C9.45447 6.74645 9.29363 6.40886 9.25349 6.32462L9.25154 6.32053C9.19395 6.19936 9.11752 6.07846 9.06959 6.00266L9.05013 5.9719C8.84293 5.64444 8.594 5.25105 8.5063 4.63733C8.48123 4.36465 8.53127 4.09021 8.65115 3.84379C8.77335 3.59261 8.96327 3.38053 9.1995 3.23146C9.43573 3.08239 9.7089 3.00224 9.98823 3.00005C10.2676 2.99785 10.5419 3.0737 10.7805 3.21905C11.019 3.36439 11.2123 3.57346 11.3384 3.8227C11.4605 4.06408 11.5151 4.33384 11.4964 4.6034C11.3845 5.34608 11.1817 5.81259 11.0446 6.12528L11.0364 6.144C11.0039 6.21783 10.9633 6.31024 10.9318 6.3936C10.9052 6.46371 10.8361 6.64682 10.8296 6.86395C10.8259 6.98768 10.8403 7.16643 10.9279 7.3579C11.0211 7.56172 11.1687 7.71761 11.3357 7.8223C11.6163 7.99822 11.9053 8 12 8H13.8082H16L16 12C16 12.1424 16.0062 12.3454 16.0612 12.5438C16.1157 12.7407 16.2968 13.1875 16.8242 13.3421C17.2328 13.4618 17.5753 13.3054 17.6623 13.2657L17.6652 13.2644C17.7902 13.2074 17.9137 13.131 17.9903 13.0837L18.0283 13.0602C18.3569 12.8568 18.7503 12.6133 19.3626 12.5259C19.6353 12.5008 19.9098 12.5509 20.1562 12.6707C20.4074 12.7929 20.6195 12.9829 20.7685 13.2191C20.9176 13.4553 20.9978 13.7285 21 14.0078C21.0021 14.2871 20.9263 14.5615 20.781 14.8001C20.6356 15.0386 20.4265 15.2318 20.1773 15.358C19.9359 15.4801 19.6662 15.5347 19.3966 15.516C18.6539 15.4041 18.1874 15.2013 17.8747 15.0642L17.856 15.0559C17.7822 15.0235 17.6898 14.9829 17.6064 14.9514C17.5363 14.9248 17.3532 14.8557 17.136 14.8492C17.0123 14.8455 16.8336 14.8599 16.6421 14.9475C16.4383 15.0407 16.2824 15.1883 16.1777 15.3553C16.0126 15.6187 16.0008 15.8894 16 16V20H4V17.2471Z" fill="#1F2329"/>
</svg>
