<svg width="24" height="24" viewBox="0 0 24 24" fill="none" xmlns="http://www.w3.org/2000/svg">
<path d="M2.85738 4.85729L9.98911 11.989L2.85738 19.1207C2.66212 19.316 2.66212 19.6326 2.85738 19.8279L3.56449 20.535C3.75975 20.7302 4.07634 20.7302 4.2716 20.535L12.1104 12.6961C12.501 12.3056 12.501 11.6724 12.1104 11.2819L4.2716 3.44308C4.07634 3.24782 3.75975 3.24782 3.56449 3.44308L2.85738 4.15018C2.66212 4.34545 2.66212 4.66203 2.85738 4.85729Z" fill="#1F2329"/>
<path d="M11.7431 4.85729L18.8749 11.989L11.7431 19.1207C11.5479 19.316 11.5479 19.6326 11.7431 19.8279L12.4502 20.535C12.6455 20.7302 12.9621 20.7302 13.1573 20.535L20.9962 12.6961C21.3867 12.3056 21.3867 11.6724 20.9962 11.2819L13.1573 3.44308C12.9621 3.24782 12.6455 3.24782 12.4502 3.44308L11.7431 4.15018C11.5479 4.34545 11.5479 4.66203 11.7431 4.85729Z" fill="#1F2329"/>
</svg>
