<svg width="16" height="16" viewBox="0 0 16 16" fill="none" xmlns="http://www.w3.org/2000/svg">
<g id="icon_member-add_outlined">
<path id="&#229;&#189;&#162;&#231;&#138;&#182;" d="M4.9987 4.33333C4.9987 5.438 5.89536 6.33333 6.9987 6.33333C8.10203 6.33333 8.9987 5.438 8.9987 4.33333C8.9987 3.22867 8.10203 2.33333 6.9987 2.33333C5.89536 2.33333 4.9987 3.22867 4.9987 4.33333ZM6.9987 1C8.8387 1 10.332 2.49233 10.332 4.33333C10.332 6.17433 8.8387 7.66667 6.9987 7.66667C5.1587 7.66667 3.66536 6.17433 3.66536 4.33333C3.66536 2.49233 5.1587 1 6.9987 1ZM2.7487 12C2.69536 12.213 2.66536 12.4363 2.66536 12.6667V13.3333H8.682C8.8661 13.3333 9.01534 13.4826 9.01534 13.6667V14.3333C9.01534 14.5174 8.8661 14.6667 8.682 14.6667H1.9987C1.63203 14.6667 1.33203 14.3683 1.33203 14V12.6667C1.33203 10.4577 3.12203 8.66667 5.33203 8.66667H8.682C8.8661 8.66667 9.01534 8.81591 9.01534 9V9.66667C9.01534 9.85076 8.8661 10 8.682 10H5.33203C4.0887 10 3.04536 10.85 2.7487 12ZM12.332 9.33333C12.5161 9.33333 12.6654 9.48257 12.6654 9.66667V11.3333H14.332C14.5161 11.3333 14.6654 11.4826 14.6654 11.6667V12.3333C14.6654 12.5174 14.5161 12.6667 14.332 12.6667H12.6654V14.3333C12.6654 14.5174 12.5161 14.6667 12.332 14.6667H11.6654C11.4813 14.6667 11.332 14.5174 11.332 14.3333V12.6667H9.66537C9.48127 12.6667 9.33203 12.5174 9.33203 12.3333V11.6667C9.33203 11.4826 9.48127 11.3333 9.66537 11.3333H11.332V9.66667C11.332 9.48257 11.4813 9.33333 11.6654 9.33333H12.332Z" fill="#646A73"/>
</g>
</svg>
