<svg width="16" height="16" viewBox="0 0 16 16" fill="none" xmlns="http://www.w3.org/2000/svg">
<g id="icon_info_colorful" clip-path="url(#clip0_4039_25083)">
<path id="Union" d="M0.667969 7.99984C0.667969 12.0498 3.9513 15.3332 8.00131 15.3332C12.0513 15.3332 15.3346 12.0498 15.3346 7.99984C15.3346 3.94984 12.0513 0.666504 8.00131 0.666504C3.9513 0.666504 0.667969 3.94984 0.667969 7.99984Z" fill="#3370FF"/>
<path id="Union_2" fill-rule="evenodd" clip-rule="evenodd" d="M8.83203 4.49984C8.83203 4.0396 8.45893 3.6665 7.9987 3.6665C7.53846 3.6665 7.16536 4.0396 7.16536 4.49984C7.16536 4.96007 7.53846 5.33317 7.9987 5.33317C8.45893 5.33317 8.83203 4.96007 8.83203 4.49984ZM7.33203 5.99984H8.16536C8.53355 5.99984 8.83203 6.29831 8.83203 6.6665V10.6665H9.4987C9.77484 10.6665 9.9987 10.8904 9.9987 11.1665V11.4998C9.9987 11.776 9.77484 11.9998 9.4987 11.9998H6.83203C6.55589 11.9998 6.33203 11.776 6.33203 11.4998V11.1665C6.33203 10.8904 6.55589 10.6665 6.83203 10.6665H7.4987V7.33317H7.33203C7.05589 7.33317 6.83203 7.10931 6.83203 6.83317V6.49984C6.83203 6.2237 7.05589 5.99984 7.33203 5.99984Z" fill="white"/>
</g>
<defs>
<clipPath id="clip0_4039_25083">
<rect width="16" height="16" fill="white"/>
</clipPath>
</defs>
</svg>
