<svg width="24" height="24" viewBox="0 0 24 24" xmlns="http://www.w3.org/2000/svg">
<path d="M17.7453 8C16.4804 6.18652 14.3787 5 12 5C8.13401 5 5 8.13401 5 12C5 15.866 8.13401 19 12 19C15.171 19 17.8496 16.8915 18.7101 14H20.777C19.8675 18.008 16.2832 21 12 21C7.02944 21 3 16.9706 3 12C3 7.02944 7.02944 3 12 3C14.8273 3 17.35 4.30367 19 6.34267V3.5C19 3.22386 19.2239 3 19.5 3H20.5C20.7761 3 21 3.22386 21 3.5V9C21 9.55228 20.5523 10 20 10H14.5C14.2239 10 14 9.77614 14 9.5V8.5C14 8.22386 14.2239 8 14.5 8H17.7453Z"/>
</svg>
