<svg width="24" height="24" viewBox="0 0 24 24" fill="none" xmlns="http://www.w3.org/2000/svg">
<path d="M16.3099 15.6809C16.2219 14.837 16.4954 13.9953 17.0627 13.3643L19.614 10.5261L15.8817 9.72953C15.0519 9.55244 14.3358 9.03222 13.911 8.29774L12.0001 4.99427L10.0892 8.29774C9.66435 9.03222 8.94834 9.55244 8.11852 9.72953L4.38623 10.5261L6.93752 13.3643C7.50476 13.9953 7.77825 14.837 7.69026 15.6809L7.29447 19.4767L10.7821 17.9273C11.5576 17.5829 12.4426 17.5829 13.2181 17.9273L16.7057 19.4767L16.3099 15.6809ZM11.5941 19.7551L6.52656 22.0063C6.02183 22.2305 5.43091 22.0031 5.20669 21.4984C5.13565 21.3385 5.10782 21.1628 5.12597 20.9887L5.70104 15.4735C5.73038 15.1922 5.63921 14.9116 5.45013 14.7013L1.74313 10.5774C1.37392 10.1667 1.40758 9.53443 1.81831 9.16522C1.94844 9.04824 2.10698 8.96746 2.27811 8.93094L7.70108 7.77358C7.97769 7.71455 8.21636 7.54114 8.35798 7.29632L11.1345 2.4964C11.411 2.01834 12.0227 1.85496 12.5008 2.1315C12.6523 2.21912 12.7781 2.34494 12.8657 2.4964L15.6422 7.29632C15.7838 7.54114 16.0225 7.71455 16.2991 7.77358L21.7221 8.93094C22.2622 9.04621 22.6066 9.57751 22.4914 10.1176C22.4548 10.2888 22.374 10.4473 22.2571 10.5774L18.5501 14.7013C18.361 14.9116 18.2698 15.1922 18.2992 15.4735L18.8742 20.9887C18.9315 21.538 18.5326 22.0298 17.9833 22.087C17.8093 22.1052 17.6336 22.0774 17.4736 22.0063L12.4061 19.7551C12.1476 19.6403 11.8526 19.6403 11.5941 19.7551Z" fill="#1F2329"/>
</svg>
