<svg width="16" height="16" viewBox="0 0 16 16" xmlns="http://www.w3.org/2000/svg">
<g id="icon_switch_outlined">
<path id="Vector" d="M1.66658 5.60945C1.66658 5.69785 1.7017 5.78264 1.76421 5.84515C1.82672 5.90766 1.91151 5.94278 1.99991 5.94278H14.1666C14.7692 5.94278 15.0626 5.20678 14.6249 4.79211L11.2166 1.56311C11.1848 1.53299 11.1474 1.50942 11.1065 1.49375C11.0656 1.47808 11.0221 1.47062 10.9783 1.4718C10.9345 1.47298 10.8914 1.48276 10.8514 1.50061C10.8114 1.51845 10.7754 1.54399 10.7452 1.57578L10.2839 2.06278C10.2236 2.12642 10.1908 2.21127 10.1926 2.29893C10.1944 2.38659 10.2307 2.47001 10.2936 2.53111L12.4936 4.66878H1.99991C1.95614 4.66878 1.91279 4.6774 1.87235 4.69415C1.83191 4.7109 1.79516 4.73546 1.76421 4.76641C1.73326 4.79736 1.7087 4.83411 1.69195 4.87455C1.6752 4.91499 1.66658 4.95834 1.66658 5.00211V5.60945ZM1.83324 10.0004C1.23058 10.0004 0.937244 10.7364 1.37491 11.1511L4.78324 14.3804C4.81504 14.4105 4.85246 14.4341 4.89336 14.4497C4.93425 14.4654 4.97783 14.4728 5.0216 14.4716C5.06537 14.4704 5.10848 14.4606 5.14845 14.4427C5.18843 14.4248 5.22449 14.3993 5.25458 14.3674L5.71324 13.8838C5.74335 13.852 5.76689 13.8146 5.78253 13.7737C5.79817 13.7328 5.8056 13.6892 5.80439 13.6454C5.80318 13.6016 5.79337 13.5585 5.7755 13.5186C5.75763 13.4786 5.73205 13.4425 5.70024 13.4124L3.50658 11.3338H13.9999C14.0883 11.3338 14.1731 11.2987 14.2356 11.2361C14.2981 11.1736 14.3332 11.0889 14.3332 11.0004V10.3338C14.3332 10.2454 14.2981 10.1606 14.2356 10.0981C14.1731 10.0356 14.0883 10.0004 13.9999 10.0004H1.83324Z"/>
</g>
</svg>
