<svg width="24" height="24" viewBox="0 0 24 24" fill="none" xmlns="http://www.w3.org/2000/svg">
<path d="M21 12.0001C21 7.02964 16.9705 3.00014 12 3.00014C9.72001 3.00014 7.63851 3.84764 6.05251 5.24514L5.03601 3.48514C6.99921 1.87477 9.46084 0.996369 12 1.00013C18.075 1.00013 23 5.92514 23 12.0001C23 14.0381 22.446 15.9466 21.48 17.5831L20.287 15.5171L20.2905 15.5086L18.2685 12.0001H21ZM4.64501 6.81114L6.21801 9.50264H3.35101C3.11744 10.3146 2.99928 11.1553 3.00001 12.0001C3.00001 16.9706 7.02951 21.0001 12 21.0001C14.8985 21.0001 17.477 19.6301 19.1235 17.5016L20.188 19.3456C18.174 21.5891 15.252 23.0001 12 23.0001C5.92501 23.0001 1.00001 18.0751 1.00001 12.0001C0.996129 9.41726 1.90495 6.91606 3.56601 4.93814L4.64651 6.80964L4.64551 6.81114H4.64501ZM14.5 10.5001H9.50001H14.5ZM8.53501 9.50014C8.65542 8.66703 9.07195 7.9052 9.70831 7.3542C10.3447 6.80319 11.1583 6.49991 12 6.49991C12.8418 6.49991 13.6554 6.80319 14.2917 7.3542C14.9281 7.9052 15.3446 8.66703 15.465 9.50014H16.25C16.3813 9.50014 16.5114 9.526 16.6327 9.57626C16.754 9.62651 16.8643 9.70017 16.9571 9.79303C17.05 9.88589 17.1236 9.99613 17.1739 10.1175C17.2242 10.2388 17.25 10.3688 17.25 10.5001V16.5001C17.25 16.7654 17.1447 17.0197 16.9571 17.2072C16.7696 17.3948 16.5152 17.5001 16.25 17.5001H7.75001C7.61869 17.5001 7.48866 17.4743 7.36733 17.424C7.246 17.3738 7.13577 17.3001 7.04291 17.2072C6.95005 17.1144 6.87639 17.0042 6.82613 16.8828C6.77588 16.7615 6.75001 16.6315 6.75001 16.5001V10.5001C6.75001 10.3688 6.77588 10.2388 6.82613 10.1175C6.87639 9.99613 6.95005 9.88589 7.04291 9.79303C7.13577 9.70017 7.246 9.62651 7.36733 9.57626C7.48866 9.526 7.61869 9.50014 7.75001 9.50014H8.53501V9.50014ZM15.25 15.5001V11.5001H8.75001V15.5001H15.25ZM12 8.50014C11.6897 8.50005 11.387 8.59617 11.1336 8.77526C10.8802 8.95435 10.6885 9.2076 10.585 9.50014H13.415C13.3115 9.2076 13.1199 8.95435 12.8664 8.77526C12.613 8.59617 12.3103 8.50005 12 8.50014V8.50014Z" fill="#1F2329"/>
</svg>
