<svg width="24" height="24" viewBox="0 0 24 24" fill="none" xmlns="http://www.w3.org/2000/svg">
<path d="M8.50002 3H21.5C21.5657 3 21.6307 3.01293 21.6913 3.03805C21.752 3.06318 21.8071 3.10001 21.8536 3.14644C21.9 3.19286 21.9368 3.24798 21.962 3.30865C21.9871 3.36931 22 3.43433 22 3.49999V4.5C22 4.56566 21.9871 4.63068 21.962 4.69134C21.9368 4.75201 21.9 4.80713 21.8536 4.85356C21.8071 4.89999 21.752 4.93681 21.6913 4.96194C21.6307 4.98706 21.5657 5 21.5 4.99999H8.50002C8.43435 5 8.36933 4.98706 8.30867 4.96194C8.248 4.93681 8.19288 4.89999 8.14645 4.85356C8.10002 4.80713 8.06319 4.75201 8.03806 4.69134C8.01293 4.63068 8 4.56566 8 4.5V3.49999C8 3.43433 8.01293 3.36931 8.03806 3.30865C8.06319 3.24798 8.10002 3.19286 8.14645 3.14644C8.19288 3.10001 8.248 3.06318 8.30867 3.03805C8.36933 3.01293 8.43435 3 8.50002 3V3ZM8.50002 11H21.5C21.5657 11 21.6307 11.0129 21.6914 11.038C21.752 11.0632 21.8071 11.1 21.8536 11.1464C21.9 11.1929 21.9368 11.248 21.962 11.3087C21.9871 11.3693 22 11.4343 22 11.5V12.5C22 12.5657 21.9871 12.6307 21.962 12.6913C21.9368 12.752 21.9 12.8071 21.8536 12.8536C21.8071 12.9 21.752 12.9368 21.6914 12.962C21.6307 12.9871 21.5657 13 21.5 13H8.50002C8.43435 13 8.36933 12.9871 8.30866 12.962C8.248 12.9368 8.19288 12.9 8.14644 12.8536C8.10001 12.8071 8.06318 12.752 8.03806 12.6913C8.01293 12.6307 8 12.5657 8 12.5V11.5C8 11.4343 8.01293 11.3693 8.03806 11.3087C8.06318 11.248 8.10001 11.1929 8.14644 11.1464C8.19288 11.1 8.248 11.0632 8.30866 11.038C8.36933 11.0129 8.43435 11 8.50002 11V11ZM2.50002 11H5.50002C5.56568 11 5.6307 11.0129 5.69136 11.0381C5.75202 11.0632 5.80714 11.1 5.85357 11.1464C5.9 11.1929 5.93683 11.248 5.96195 11.3087C5.98708 11.3693 6.00001 11.4343 6.00001 11.5V12.5C6.00001 12.5657 5.98708 12.6307 5.96195 12.6913C5.93683 12.752 5.9 12.8071 5.85357 12.8536C5.80714 12.9 5.75202 12.9368 5.69136 12.9619C5.6307 12.9871 5.56568 13 5.50002 13H2.50002C2.43435 13 2.36933 12.9871 2.30866 12.962C2.248 12.9368 2.19288 12.9 2.14644 12.8536C2.10001 12.8071 2.06318 12.752 2.03806 12.6913C2.01293 12.6307 2 12.5657 2 12.5V11.5C2 11.4343 2.01293 11.3693 2.03806 11.3087C2.06318 11.248 2.10001 11.1929 2.14644 11.1464C2.19288 11.1 2.248 11.0632 2.30866 11.038C2.36933 11.0129 2.43435 11 2.50002 11V11ZM2.50002 3H5.50002C5.56568 3 5.63069 3.01293 5.69135 3.03806C5.75202 3.06319 5.80714 3.10002 5.85356 3.14644C5.89999 3.19287 5.93682 3.24799 5.96195 3.30865C5.98708 3.36932 6.00001 3.43433 6.00001 3.49999V4.5C6.00001 4.63261 5.94733 4.75978 5.85356 4.85355C5.7598 4.94731 5.63262 4.99999 5.50002 4.99999H2.50002C2.43435 5 2.36933 4.98706 2.30867 4.96194C2.24801 4.93681 2.19288 4.89999 2.14645 4.85356C2.10002 4.80713 2.06319 4.75201 2.03806 4.69134C2.01293 4.63068 2 4.56566 2 4.5V3.49999C2 3.43433 2.01293 3.36931 2.03806 3.30865C2.06319 3.24798 2.10002 3.19286 2.14645 3.14644C2.19288 3.10001 2.24801 3.06318 2.30867 3.03805C2.36933 3.01293 2.43435 3 2.50002 3ZM2.50002 19H5.50002C5.56568 19 5.63069 19.0129 5.69135 19.0381C5.75202 19.0632 5.80714 19.1 5.85356 19.1465C5.89999 19.1929 5.93682 19.248 5.96195 19.3087C5.98708 19.3693 6.00001 19.4343 6.00001 19.5V20.5C6.00001 20.6326 5.94733 20.7598 5.85356 20.8536C5.7598 20.9473 5.63262 21 5.50002 21H2.50002C2.43435 21 2.36933 20.9871 2.30867 20.9619C2.24801 20.9368 2.19288 20.9 2.14645 20.8536C2.10002 20.8071 2.06319 20.752 2.03806 20.6914C2.01293 20.6307 2 20.5657 2 20.5V19.5C2 19.4343 2.01293 19.3693 2.03806 19.3087C2.06319 19.248 2.10002 19.1929 2.14645 19.1464C2.19288 19.1 2.24801 19.0632 2.30867 19.0381C2.36933 19.0129 2.43435 19 2.50002 19ZM8.50002 19H21.5C21.5657 19 21.6307 19.0129 21.6913 19.0381C21.752 19.0632 21.8071 19.1 21.8536 19.1464C21.9 19.1929 21.9368 19.248 21.962 19.3087C21.9871 19.3693 22 19.4343 22 19.5V20.5C22 20.5657 21.9871 20.6307 21.962 20.6914C21.9368 20.752 21.9 20.8071 21.8536 20.8536C21.8071 20.9 21.752 20.9368 21.6913 20.9619C21.6307 20.9871 21.5657 21 21.5 21H8.50002C8.43435 21 8.36933 20.9871 8.30867 20.9619C8.248 20.9368 8.19288 20.9 8.14645 20.8536C8.10002 20.8071 8.06319 20.752 8.03806 20.6914C8.01293 20.6307 8 20.5657 8 20.5V19.5C8 19.4343 8.01293 19.3693 8.03806 19.3087C8.06319 19.248 8.10002 19.1929 8.14645 19.1464C8.19288 19.1 8.248 19.0632 8.30867 19.0381C8.36933 19.0129 8.43435 19 8.50002 19Z" fill="#1F2329"/>
</svg>
