<svg width="24" height="24" viewBox="0 0 24 24" fill="none" xmlns="http://www.w3.org/2000/svg">
<path d="M12.9333 8.66669C13.1542 8.66669 13.3333 8.84577 13.3333 9.06669V10.2667C13.3333 10.4876 13.1542 10.6667 12.9333 10.6667H10.3333C10.1696 10.6667 10.0335 10.7846 10.0053 10.9401L9.99992 11V19C9.99992 19.1637 10.1178 19.2998 10.2733 19.328L10.3333 19.3334H20.9999C21.1636 19.3334 21.2997 19.2154 21.3279 19.0599L21.3333 19V11C21.3333 10.8364 21.2153 10.7003 21.0598 10.6721L20.9999 10.6667H18.3999C18.179 10.6667 17.9999 10.4876 17.9999 10.2667V9.06669C17.9999 8.84577 18.179 8.66669 18.3999 8.66669H20.9999C22.2456 8.66669 23.2633 9.64287 23.3298 10.872L23.3333 11V19C23.3333 20.2457 22.3571 21.2634 21.1279 21.3299L20.9999 21.3334H10.3333C9.08754 21.3334 8.06983 20.3572 8.00337 19.128L7.99992 19V11C7.99992 9.75431 8.9761 8.7366 10.2052 8.67014L10.3333 8.66669H12.9333ZM14.3333 2.66669C15.579 2.66669 16.5967 3.64287 16.6631 4.872L16.6666 5.00002V13C16.6666 14.2457 15.6904 15.2634 14.4613 15.3299L14.3333 15.3334H11.7333C11.5123 15.3334 11.3333 15.1543 11.3333 14.9334V13.7334C11.3333 13.5124 11.5123 13.3334 11.7333 13.3334H14.3333C14.4969 13.3334 14.633 13.2154 14.6612 13.0599L14.6666 13V5.00002C14.6666 4.83638 14.5487 4.70028 14.3932 4.67206L14.3333 4.66669H3.66659C3.50295 4.66669 3.36685 4.7846 3.33862 4.9401L3.33325 5.00002V13C3.33325 13.1637 3.45117 13.2998 3.60667 13.328L3.66659 13.3334H6.26658C6.4875 13.3334 6.66658 13.5124 6.66658 13.7334V14.9334C6.66658 15.1543 6.4875 15.3334 6.26658 15.3334H3.66659C2.42088 15.3334 1.40317 14.3572 1.3367 13.128L1.33325 13V5.00002C1.33325 3.75431 2.30944 2.7366 3.53856 2.67014L3.66659 2.66669H14.3333Z" fill="#1F2329"/>
</svg>
