<svg width="24" height="24" viewBox="0 0 24 24" xmlns="http://www.w3.org/2000/svg">
<path d="M6.25469 8C7.51964 6.18652 9.62125 5 12 5C15.866 5 19 8.13401 19 12C19 15.866 15.866 19 12 19C8.82898 19 6.15043 16.8915 5.28988 14H3.22302C4.13248 18.008 7.71683 21 12 21C16.9706 21 21 16.9706 21 12C21 7.02944 16.9706 3 12 3C9.17273 3 6.64996 4.30367 5 6.34267V3.5C5 3.22386 4.77614 3 4.5 3H3.5C3.22386 3 3 3.22386 3 3.5V9C3 9.55228 3.44772 10 4 10H9.5C9.77614 10 10 9.77614 10 9.5V8.5C10 8.22386 9.77614 8 9.5 8H6.25469Z"/>
</svg>
