<svg width="24" height="24" viewBox="0 0 24 24" fill="none" xmlns="http://www.w3.org/2000/svg">
<g clip-path="url(#clip0_3234_101683)">
<path d="M16 3C16 2.72386 15.7761 2.5 15.5 2.5H14.5C14.2239 2.5 14 2.72386 14 3V21.7199C14 21.9631 14.3121 22.0631 14.4534 21.8652L18.7176 15.8953C18.8358 15.7298 18.7175 15.5 18.5142 15.5H16V3Z" fill="#1F2329"/>
<path d="M9.54656 2.63477C9.68792 2.43686 9.99999 2.53687 9.99999 2.78008V6.49758L10 6.5V21.5C10 21.7761 9.77614 22 9.5 22H8.5C8.22386 22 8 21.7761 8 21.5V8.99996H5.48579C5.28245 8.99996 5.16417 8.77012 5.28236 8.60465L9.54656 2.63477Z" fill="#1F2329"/>
</g>
<defs>
<clipPath id="clip0_3234_101683">
<rect width="24" height="24" fill="white"/>
</clipPath>
</defs>
</svg>
