<svg width="24" height="24" viewBox="0 0 24 24" fill="none" xmlns="http://www.w3.org/2000/svg">
<path d="M12.65 10.6591V3.13961C12.65 2.88769 12.8614 2.68347 13.1223 2.68347H14.219C14.4798 2.68347 14.6913 2.88769 14.6913 3.13961V20.8772C14.6913 21.1291 14.4798 21.3333 14.219 21.3333H13.1223C12.8614 21.3333 12.65 21.1291 12.65 20.8772V12.6598H3.36753V20.8772C3.36753 21.1291 3.15604 21.3333 2.89514 21.3333H1.80588C1.54499 21.3333 1.3335 21.1291 1.3335 20.8772V3.13961C1.3335 2.88769 1.54499 2.68347 1.80588 2.68347H2.89514C3.15604 2.68347 3.36753 2.88769 3.36753 3.13961V10.6591H12.65ZM17.797 13.8278C17.797 13.9921 17.9842 14.0863 18.1161 13.9884L20.0315 12.9904V20.9333C20.0315 21.1542 20.2106 21.3333 20.4315 21.3333H21.6643C21.8853 21.3333 22.0643 21.1542 22.0643 20.9333V11.0667C22.0643 10.8458 21.8853 10.6667 21.6643 10.6667H20.3339C20.2667 10.6667 20.2007 10.6836 20.1418 10.7158L18.0049 11.8862C17.8767 11.9564 17.797 12.0909 17.797 12.237V13.8278Z" fill="#1F2329"/>
</svg>
