<svg width="24" height="24" viewBox="0 0 24 24"  xmlns="http://www.w3.org/2000/svg">
<path d="M2.49993 20V11.5455C2.49993 10.9681 2.97962 10.5 3.57136 10.5H7.99993V3.05263C7.99993 2.47128 8.5116 2 9.14279 2H14.8571C15.4883 2 15.9999 2.47128 15.9999 3.05263V8H20.4285C21.0202 8 21.4999 8.44772 21.4999 9V20H22.4998C22.7759 20 22.9998 20.2239 22.9998 20.5V21.5C22.9998 21.7761 22.7759 22 22.4998 22H1.49976C1.22361 22 0.999756 21.7761 0.999756 21.5V20.5C0.999756 20.2239 1.22361 20 1.49976 20H2.49993ZM19.4999 20V10H15.9999V20H19.4999ZM13.9999 20V4H9.99993V20H13.9999ZM7.99993 20V12.5H4.49993V20H7.99993Z" />
</svg>
