<svg width="16" height="16" viewBox="0 0 16 16" fill="none" xmlns="http://www.w3.org/2000/svg">
<g id="icon_more-vertical_outlined">
<path id="Vector" d="M9 12.0002V13.3335C9 13.3773 8.99138 13.4206 8.97463 13.4611C8.95788 13.5015 8.93332 13.5382 8.90237 13.5692C8.87142 13.6002 8.83467 13.6247 8.79423 13.6415C8.75379 13.6582 8.71044 13.6668 8.66667 13.6668H7.33333C7.28956 13.6668 7.24621 13.6582 7.20577 13.6415C7.16533 13.6247 7.12858 13.6002 7.09763 13.5692C7.06668 13.5382 7.04213 13.5015 7.02537 13.4611C7.00862 13.4206 7 13.3773 7 13.3335V12.0002C7 11.9118 7.03512 11.827 7.09763 11.7645C7.16014 11.7019 7.24493 11.6668 7.33333 11.6668H8.66667C8.71044 11.6668 8.75379 11.6755 8.79423 11.6922C8.83467 11.709 8.87142 11.7335 8.90237 11.7645C8.93332 11.7954 8.95788 11.8322 8.97463 11.8726C8.99138 11.913 9 11.9564 9 12.0002ZM9 2.66683V4.00016C9 4.04394 8.99138 4.08728 8.97463 4.12772C8.95788 4.16817 8.93332 4.20491 8.90237 4.23587C8.87142 4.26682 8.83467 4.29137 8.79423 4.30812C8.75379 4.32487 8.71044 4.3335 8.66667 4.3335H7.33333C7.24493 4.3335 7.16014 4.29838 7.09763 4.23587C7.03512 4.17335 7 4.08857 7 4.00016V2.66683C7 2.62306 7.00862 2.57971 7.02537 2.53927C7.04213 2.49883 7.06668 2.46208 7.09763 2.43113C7.12858 2.40017 7.16533 2.37562 7.20577 2.35887C7.24621 2.34212 7.28956 2.3335 7.33333 2.3335H8.66667C8.71044 2.3335 8.75379 2.34212 8.79423 2.35887C8.83467 2.37562 8.87142 2.40017 8.90237 2.43113C8.93332 2.46208 8.95788 2.49883 8.97463 2.53927C8.99138 2.57971 9 2.62306 9 2.66683ZM9 7.3335V8.66683C9 8.7106 8.99138 8.75395 8.97463 8.79439C8.95788 8.83483 8.93332 8.87158 8.90237 8.90253C8.87142 8.93349 8.83467 8.95804 8.79423 8.97479C8.75379 8.99154 8.71044 9.00016 8.66667 9.00016H7.33333C7.28956 9.00016 7.24621 8.99154 7.20577 8.97479C7.16533 8.95804 7.12858 8.93349 7.09763 8.90253C7.06668 8.87158 7.04213 8.83483 7.02537 8.79439C7.00862 8.75395 7 8.7106 7 8.66683V7.3335C7 7.24509 7.03512 7.16031 7.09763 7.09779C7.16014 7.03528 7.24493 7.00016 7.33333 7.00016H8.66667C8.71044 7.00016 8.75379 7.00879 8.79423 7.02554C8.83467 7.04229 8.87142 7.06684 8.90237 7.09779C8.93332 7.12875 8.95788 7.16549 8.97463 7.20594C8.99138 7.24638 9 7.28972 9 7.3335Z" fill="#1F2329"/>
</g>
</svg>
