<svg width="24" height="24" viewBox="0 0 24 24" fill="none" xmlns="http://www.w3.org/2000/svg">
<path d="M1 7.64384C1 7.2517 1.2292 6.89575 1.5862 6.73348L11.5862 2.18802C11.8491 2.06851 12.1509 2.06851 12.4138 2.18802L22.4138 6.73348C22.7708 6.89575 23 7.2517 23 7.64384V17.3819C23 17.7607 22.786 18.1069 22.4472 18.2763L12.4472 23.2763C12.1657 23.4171 11.8343 23.4171 11.5528 23.2763L1.55279 18.2763C1.214 18.1069 1 17.7607 1 17.3819V7.64384ZM19.2178 7.47768L12 4.19685L4.7432 7.49539L11.96 10.6042L19.2178 7.47768ZM13 12.3338V20.7639L21 16.7639V8.88765L13 12.3338ZM3 8.92215V16.7639L11 20.7639V12.3683L3 8.92215Z" fill="#1F2329"/>
</svg>
