<svg width="24" height="24" viewBox="0 0 24 24" xmlns="http://www.w3.org/2000/svg">
<path d="M11 11V2.64097C11 2.41809 11.0232 2.33727 11.0668 2.25579C11.1104 2.17431 11.1743 2.11036 11.2558 2.06678C11.3373 2.02321 11.4181 2 11.641 2H12.359C12.5819 2 12.6627 2.02321 12.7442 2.06678C12.8257 2.11036 12.8896 2.17431 12.9332 2.25579C12.9768 2.33727 13 2.41809 13 2.64097V11H21.359C21.5819 11 21.6627 11.0232 21.7442 11.0668C21.8257 11.1104 21.8896 11.1743 21.9332 11.2558C21.9768 11.3373 22 11.4181 22 11.641V12.359C22 12.5819 21.9768 12.6627 21.9332 12.7442C21.8896 12.8257 21.8257 12.8896 21.7442 12.9332C21.6627 12.9768 21.5819 13 21.359 13H13V21.359C13 21.5819 12.9768 21.6627 12.9332 21.7442C12.8896 21.8257 12.8257 21.8896 12.7442 21.9332C12.6627 21.9768 12.5819 22 12.359 22H11.641C11.4181 22 11.3373 21.9768 11.2558 21.9332C11.1743 21.8896 11.1104 21.8257 11.0668 21.7442C11.0232 21.6627 11 21.5819 11 21.359V13H2.64097C2.41809 13 2.33727 12.9768 2.25579 12.9332C2.17431 12.8896 2.11036 12.8257 2.06678 12.7442C2.02321 12.6627 2 12.5819 2 12.359V11.641C2 11.4181 2.02321 11.3373 2.06678 11.2558C2.11036 11.1743 2.17431 11.1104 2.25579 11.0668C2.33727 11.0232 2.41809 11 2.64097 11H11Z"/>
</svg>
