<svg width="20" height="20" viewBox="0 0 20 20" xmlns="http://www.w3.org/2000/svg">
<g id="icon_file-add_outlined">
<path id="Subtract" fill-rule="evenodd" clip-rule="evenodd" d="M4.16667 2.50001H13.3333V4.59959C13.3333 4.7101 13.3772 4.81608 13.4554 4.89422C13.5335 4.97236 13.6395 5.01626 13.75 5.01626H15.8333V10.8333H17.5V4.09626C17.5001 3.87532 17.4124 3.66341 17.2563 3.50709L14.8275 1.07751C14.7501 1.00007 14.6582 0.938651 14.557 0.896756C14.4558 0.85486 14.3474 0.833312 14.2379 0.833344H3.33333C3.11232 0.833344 2.90036 0.921141 2.74408 1.07742C2.5878 1.2337 2.5 1.44566 2.5 1.66668V18.3333C2.5 18.5544 2.5878 18.7663 2.74408 18.9226C2.90036 19.0789 3.11232 19.1667 3.33333 19.1667H10V17.5H4.16667V2.50001Z"/>
<path id="Vector" d="M14.5833 12.5C14.3532 12.5 14.1667 12.6865 14.1667 12.9167V15H12.0833C11.8532 15 11.6667 15.1865 11.6667 15.4167V16.25C11.6667 16.4801 11.8532 16.6667 12.0833 16.6667H14.1667V18.75C14.1667 18.9801 14.3532 19.1667 14.5833 19.1667H15.4167C15.6468 19.1667 15.8333 18.9801 15.8333 18.75V16.6667H17.9167C18.1468 16.6667 18.3333 16.4801 18.3333 16.25V15.4167C18.3333 15.1865 18.1468 15 17.9167 15H15.8333V12.9167C15.8333 12.6865 15.6468 12.5 15.4167 12.5H14.5833Z"/>
</g>
</svg>
