<svg width="24" height="24" viewBox="0 0 24 24" fill="none" xmlns="http://www.w3.org/2000/svg">
<path d="M12.2496 19.1355L5.11783 12.0038L12.2496 4.87206C12.4448 4.6768 12.4448 4.36022 12.2496 4.16495L11.5424 3.45785C11.3472 3.26259 11.0306 3.26259 10.8353 3.45785L2.99651 11.2967C2.60598 11.6872 2.60598 12.3204 2.99651 12.7109L10.8353 20.5497C11.0306 20.745 11.3472 20.745 11.5424 20.5497L12.2496 19.8426C12.4448 19.6474 12.4448 19.3308 12.2496 19.1355Z" fill="#1F2329"/>
<path d="M21.1497 19.1355L14.018 12.0038L21.1497 4.87206C21.345 4.6768 21.345 4.36022 21.1497 4.16495L20.4426 3.45785C20.2473 3.26259 19.9307 3.26259 19.7355 3.45785L11.8967 11.2967C11.5061 11.6872 11.5061 12.3204 11.8967 12.7109L19.7355 20.5497C19.9307 20.745 20.2473 20.745 20.4426 20.5497L21.1497 19.8426C21.345 19.6474 21.345 19.3308 21.1497 19.1355Z" fill="#1F2329"/>
</svg>
