<?xml version="1.0" standalone="no"?><!DOCTYPE svg PUBLIC "-//W3C//DTD SVG 1.1//EN" "http://www.w3.org/Graphics/SVG/1.1/DTD/svg11.dtd"><svg t="1683694817450" class="icon" viewBox="0 0 1024 1024" version="1.1" xmlns="http://www.w3.org/2000/svg" p-id="3119" xmlns:xlink="http://www.w3.org/1999/xlink" width="200" height="200"><path d="M687.4 417.6L942 672.2l-28.3 28.3-206.3-206.3V960h-40V494.2L461.2 700.5l-28.3-28.3 254.5-254.6zM792.8 104H920v127.1h40V64H792.8v40zM398.4 960v-40H291.2v40h107.2zM291.2 64v40h107.2V64H291.2zM960 458.3h-40v67.5h40v-67.5zM565.6 64H458.4v40h107.2V64zM960 291.1h-40v107.2h40V291.1zM231.2 920H104V792.8H64V960h167.2v-40zM732.8 64H625.6v40h107.2V64zM64 398.3h40V291.1H64v107.2z m0 167.2h40V458.3H64v107.2z m0 167.3h40V625.5H64v107.3z m40-501.7V104h127.2V64H64v167.1h40z" fill="" p-id="3120"></path></svg>