<svg width="24" height="24" viewBox="0 0 24 24"  xmlns="http://www.w3.org/2000/svg">
<path d="M21.0027 2.66669C21.509 2.66669 21.9274 3.04289 21.9936 3.53099L22.0027 3.66669V20.3428C22.0027 20.8491 21.6265 21.2675 21.1384 21.3337L21.0027 21.3428H14.837C14.5954 21.3428 14.3938 21.1714 14.3472 20.9436L14.337 20.8428V19.8428C14.337 19.6012 14.5084 19.3996 14.7362 19.353L14.837 19.3428H20.0027V4.66669H6.60796L6.60929 9.17055C6.60929 9.4467 6.38544 9.67055 6.10929 9.67055H5.10929C4.83315 9.67055 4.60929 9.4467 4.60929 9.17055V3.16669C4.60929 2.92506 4.78068 2.72347 5.00853 2.67685L5.10929 2.66669H21.0027ZM9.96121 11.3899C10.1084 11.3899 10.2508 11.4421 10.3631 11.5371L14.5554 15.0844C14.8177 15.3064 14.8505 15.699 14.6285 15.9614C14.6062 15.9877 14.5818 16.0121 14.5554 16.0344L10.3631 19.5817C10.1008 19.8037 9.70819 19.771 9.48622 19.5087C9.39115 19.3963 9.33899 19.2539 9.33899 19.1068L9.33972 16.6752L3.16699 16.6753C2.89085 16.6753 2.66699 16.4514 2.66699 16.1753V15.1753C2.66699 14.8991 2.89085 14.6753 3.16699 14.6753L9.33972 14.6752L9.33899 12.0121C9.33899 11.6685 9.61757 11.3899 9.96121 11.3899Z" />
</svg>
