<svg width="16" height="17" viewBox="0 0 16 17" fill="none" xmlns="http://www.w3.org/2000/svg">
<path d="M1.66656 15.6647C1.66656 15.8488 1.8158 15.998 1.9999 15.998H2.66656C2.85066 15.998 2.9999 15.8488 2.9999 15.6647L2.9999 2.99805C2.9999 2.81395 2.85066 2.66471 2.66656 2.66471H1.9999C1.8158 2.66471 1.66656 2.81395 1.66656 2.99805L1.66656 15.6647Z" fill="currentColor"/>
<path d="M9.29759 13.2038L6.09182 9.99805H13.9779C14.1742 9.99805 14.3334 9.83886 14.3334 9.64249V9.02027C14.3334 8.8239 14.1742 8.66472 13.9779 8.66472H6.07625L9.29759 5.44337C9.43644 5.30452 9.43644 5.07939 9.29759 4.94054L8.85761 4.50056C8.71876 4.36171 8.49363 4.36171 8.35478 4.50056L3.8293 9.02605C3.74811 9.10723 3.71439 9.21791 3.72815 9.3236C3.71439 9.42928 3.74811 9.53996 3.8293 9.62115L8.35478 14.1466C8.49363 14.2855 8.71876 14.2855 8.85761 14.1466L9.29759 13.7067C9.43644 13.5678 9.43644 13.3427 9.29759 13.2038Z" fill="currentColor"/>
</svg>
