<svg width="24" height="24" viewBox="0 0 24 24" fill="none" xmlns="http://www.w3.org/2000/svg">
<path d="M18.1579 9.17294L12.3232 1.89871C12.111 1.63417 11.7664 1.63383 11.5543 1.89837L5.71953 9.17294C5.64313 9.26834 5.6001 9.39712 5.6001 9.53189C5.6001 9.81246 5.78259 10.04 6.00743 10.04H17.8701C17.9778 10.04 18.0815 9.9866 18.1579 9.89116C18.3171 9.69268 18.3171 9.3711 18.1579 9.17294Z" fill="#1F2329"/>
<path d="M5.71944 14.867L11.5542 22.1414C11.7664 22.406 12.111 22.4062 12.3231 22.1416L18.158 14.867C18.2342 14.7716 18.2773 14.6429 18.2773 14.5081C18.2773 14.2275 18.0949 14 17.8699 14H6.00734C5.89959 14 5.79583 14.0534 5.71944 14.1488C5.56032 14.3473 5.56032 14.6689 5.71944 14.867Z" fill="#1F2329"/>
</svg>
