<svg width="20" height="20" viewBox="0 0 20 20" fill="none" xmlns="http://www.w3.org/2000/svg">
  <path d="M9.95219 8.73169L15.5501 3.13376C15.7128 2.97104 15.9767 2.97104 16.1394 3.13376L16.7286 3.72301C16.8913 3.88573 16.8913 4.14955 16.7286 4.31227L11.1307 9.9102L16.7286 15.5081C16.8913 15.6708 16.8913 15.9347 16.7286 16.0974L16.1394 16.6866C15.9767 16.8494 15.7128 16.8494 15.5501 16.6866L9.95219 11.0887L4.35426 16.6866C4.19154 16.8494 3.92772 16.8494 3.76501 16.6866L3.17575 16.0974C3.01303 15.9347 3.01303 15.6708 3.17575 15.5081L8.77368 9.9102L3.17575 4.31227C3.01303 4.14955 3.01303 3.88573 3.17575 3.72301L3.76501 3.13376C3.92772 2.97104 4.19154 2.97104 4.35426 3.13376L9.95219 8.73169Z" fill="#646A73"/>
</svg>
