<svg width="24" height="24" viewBox="0 0 24 24"  xmlns="http://www.w3.org/2000/svg">
<path d="M8.70351 2C8.94543 2 9.13197 2.21307 9.1 2.45287L8.67565 5.63553H15.9457L16.3842 2.34714C16.4107 2.14841 16.5802 2 16.7807 2H18.0359C18.2778 2 18.4643 2.21307 18.4324 2.45287L18.008 5.63553H21.7283C21.9492 5.63553 22.1283 5.81461 22.1283 6.03553V7.29781C22.1283 7.51872 21.9492 7.69781 21.7283 7.69781H17.733L16.7636 14.9689H20.3949C20.6158 14.9689 20.7949 15.1479 20.7949 15.3689V16.6311C20.7949 16.8521 20.6158 17.0311 20.3949 17.0311H16.4886L15.8724 21.6529C15.8459 21.8516 15.6763 22 15.4759 22H14.2207C13.9787 22 13.7922 21.7869 13.8242 21.5471L14.4263 17.0311H7.15623L6.54 21.6529C6.5135 21.8516 6.34399 22 6.14351 22H4.88831C4.64639 22 4.45985 21.7869 4.49182 21.5471L5.09395 17.0311H1.19493C0.974016 17.0311 0.794929 16.8521 0.794929 16.6311V15.3689C0.794929 15.1479 0.974015 14.9689 1.19493 14.9689H5.36892L6.3384 7.69781H2.52826C2.30735 7.69781 2.12826 7.51872 2.12826 7.29781V6.03553C2.12826 5.81461 2.30735 5.63553 2.52826 5.63553H6.61337L7.05182 2.34714C7.07831 2.14841 7.24783 2 7.44831 2H8.70351ZM14.7013 14.9689L15.6707 7.69781H8.40067L7.4312 14.9689H14.7013Z"/>
</svg>
