<svg width="24" height="24" viewBox="0 0 24 24" fill="none" xmlns="http://www.w3.org/2000/svg">
<path fill-rule="evenodd" clip-rule="evenodd" d="M10 2.76017V2C10 1.72386 10.2239 1.5 10.5 1.5H13.5C13.7761 1.5 14 1.72386 14 2V2.76017C17.4505 3.6769 20 6.91014 20 10.7581V16.5H21.5C21.7761 16.5 22 16.7239 22 17V18C22 18.2761 21.7761 18.5 21.5 18.5H2.5C2.22386 18.5 2 18.2761 2 18V17C2 16.7239 2.22386 16.5 2.5 16.5H4V10.7581C4 6.91014 6.54955 3.6769 10 2.76017ZM6 16.5H18V10.7609C18 7.30309 15.3137 4.5 12 4.5C8.68629 4.5 6 7.30309 6 10.7609V16.5ZM9.5 20H14.5C14.7761 20 15 20.2239 15 20.5V21.5C15 21.7761 14.7761 22 14.5 22H9.5C9.22386 22 9 21.7761 9 21.5V20.5C9 20.2239 9.22386 20 9.5 20Z" fill="#1F2329"/>
</svg>
