<svg width="16" height="17" viewBox="0 0 16 17" fill="none" xmlns="http://www.w3.org/2000/svg">
<path d="M4.27071 9.63477L3.06493 10.8405C2.92608 10.9794 2.92608 11.2045 3.06494 11.3434L3.50491 11.7834C3.64377 11.9222 3.86889 11.9222 4.00774 11.7834L6.53323 9.25787C6.61441 9.17668 6.64813 9.066 6.63438 8.96032C6.64813 8.85463 6.61441 8.74395 6.53323 8.66277L4.00774 6.13728C3.86889 5.99843 3.64377 5.99843 3.50491 6.13728L3.06494 6.57726C2.92608 6.71611 2.92608 6.94124 3.06493 7.08009L4.28628 8.30143H1.05131C0.854942 8.30143 0.695755 8.46062 0.695755 8.65699V9.27921C0.695755 9.47558 0.854942 9.63477 1.05131 9.63477H4.27071Z" fill="currentColor"/>
<path d="M11.7293 9.63477L12.9351 10.8405C13.0739 10.9794 13.0739 11.2045 12.9351 11.3434L12.4951 11.7834C12.3562 11.9222 12.1311 11.9222 11.9923 11.7834L9.46677 9.25787C9.38558 9.17668 9.35186 9.066 9.36562 8.96032C9.35186 8.85463 9.38558 8.74395 9.46677 8.66277L11.9923 6.13728C12.1311 5.99843 12.3562 5.99843 12.4951 6.13728L12.9351 6.57726C13.0739 6.71611 13.0739 6.94124 12.9351 7.08009L11.7137 8.30143H14.9487C15.1451 8.30143 15.3042 8.46062 15.3042 8.65699V9.27921C15.3042 9.47558 15.1451 9.63477 14.9487 9.63477H11.7293Z" fill="currentColor"/>
<path d="M7.36263 15.3014C7.36263 15.4855 7.51187 15.6348 7.69596 15.6348H8.36263C8.54672 15.6348 8.69596 15.4855 8.69596 15.3014V2.63477C8.69596 2.45067 8.54672 2.30143 8.36263 2.30143H7.69596C7.51187 2.30143 7.36263 2.45067 7.36263 2.63477L7.36263 15.3014Z" fill="currentColor"/>
</svg>
