<svg width="24" height="24" viewBox="0 0 24 24" fill="none" xmlns="http://www.w3.org/2000/svg">
<path d="M21 18.5V21C21 21.5523 20.5523 22 20 22H4C3.44772 22 3 21.5523 3 21V18.5C3 18.2239 3.22386 18 3.5 18H4.5C4.77614 18 5 18.2239 5 18.5V20H19V18.5C19 18.2239 19.2239 18 19.5 18H20.5C20.7761 18 21 18.2239 21 18.5ZM13 14.0357L16.0105 11.0252C16.2057 10.83 16.5223 10.83 16.7176 11.0252L17.4247 11.7324C17.6199 11.9276 17.6199 12.2442 17.4247 12.4395L12.4749 17.3892C12.3773 17.4868 12.2493 17.5357 12.1214 17.5357C11.9934 17.5357 11.8655 17.4868 11.7678 17.3892L6.81808 12.4395C6.62282 12.2442 6.62282 11.9276 6.81808 11.7324L7.52519 11.0252C7.72045 10.83 8.03703 10.83 8.2323 11.0252L11 13.793V3C11 2.72386 11.2239 2.5 11.5 2.5H12.5C12.7761 2.5 13 2.72386 13 3V14.0357Z" fill="#1F2329"/>
</svg>
