<svg width="16" height="16" viewBox="0 0 16 16" fill="none" xmlns="http://www.w3.org/2000/svg">
  <path d="M6.85756 11.4091L11.4716 8.50608C11.5569 8.452 11.6272 8.37723 11.6759 8.28871C11.7246 8.2002 11.7501 8.10081 11.7501 7.99978C11.7501 7.89875 11.7246 7.79936 11.6759 7.71084C11.6272 7.62233 11.5569 7.54756 11.4716 7.49348L6.85776 4.59068C6.76336 4.53128 6.65456 4.49988 6.54336 4.49988C6.46523 4.50014 6.38791 4.51579 6.31582 4.54593C6.24373 4.57608 6.17829 4.62013 6.12322 4.67556C6.06815 4.731 6.02455 4.79674 5.99489 4.86903C5.96523 4.94132 5.9501 5.01874 5.95036 5.09688V10.9031C5.95044 11.0148 5.98168 11.1242 6.04056 11.2191C6.08152 11.2854 6.1352 11.343 6.19852 11.3885C6.26184 11.434 6.33354 11.4666 6.40949 11.4842C6.48544 11.5019 6.56414 11.5043 6.64104 11.4914C6.71794 11.4785 6.79153 11.4506 6.85756 11.4091Z" fill="currentColor"/>
  <path fill-rule="evenodd" clip-rule="evenodd" d="M7.99996 0.666504C12.05 0.666504 15.3333 3.94984 15.3333 7.99984C15.3333 12.0498 12.05 15.3332 7.99996 15.3332C3.94996 15.3332 0.666626 12.0498 0.666626 7.99984C0.666626 3.94984 3.94996 0.666504 7.99996 0.666504ZM7.99996 1.6665C11.4977 1.6665 14.3333 4.50212 14.3333 7.99984C14.3333 11.4976 11.4977 14.3332 7.99996 14.3332C4.50224 14.3332 1.66663 11.4976 1.66663 7.99984C1.66663 4.50212 4.50224 1.6665 7.99996 1.6665Z" fill="currentColor"/>
</svg>
