<svg width="16" height="16" viewBox="0 0 16 16" fill="none" xmlns="http://www.w3.org/2000/svg">
<g id="icon_team-add_outlined">
<g id="Vector">
<path d="M13.332 5C13.332 3.343 11.9887 2 10.332 2C8.67537 2 7.33204 3.343 7.33204 5C7.33204 6.657 8.67537 8 10.332 8C11.9887 8 13.332 6.657 13.332 5ZM10.332 3.33333C11.252 3.33333 11.9987 4.07967 11.9987 5C11.9987 5.92033 11.252 6.66667 10.332 6.66667C9.41204 6.66667 8.66537 5.92033 8.66537 5C8.66537 4.07967 9.41204 3.33333 10.332 3.33333Z" fill="#646A73"/>
<path d="M9.49871 10C9.77485 10 9.99871 9.77614 9.99871 9.5V9.16667C9.99871 8.89052 9.77485 8.66667 9.49871 8.66667H8.55537C6.59204 8.66667 4.99871 10.2783 4.99871 12.2667V14.0667C4.99871 14.398 5.26537 14.6667 5.59204 14.6667H8.83204C9.10818 14.6667 9.33204 14.4428 9.33204 14.1667V13.8333C9.33204 13.5572 9.10818 13.3333 8.83204 13.3333H6.33204V12.2667C6.33204 10.999 7.34204 10 8.55537 10H9.49871Z" fill="#646A73"/>
<path d="M0.775364 14H3.25536C3.53151 14 3.75536 13.7761 3.75536 13.5V13.1667C3.75536 12.8905 3.53151 12.6667 3.25537 12.6667H1.66536V12.2667C1.66536 11.5987 2.2287 11 2.9987 11H3.48432C3.71251 11 3.90836 10.844 3.98845 10.6304C3.99835 10.6039 4.00856 10.5776 4.01905 10.5515C4.17426 10.1651 3.92068 9.66667 3.50422 9.66667H2.9987C1.52536 9.66667 0.332031 10.8307 0.332031 12.2667V13.5667C0.332031 13.806 0.532031 14 0.775364 14Z" fill="#646A73"/>
<path d="M4.33204 4.66667C5.43537 4.66667 6.33204 5.562 6.33204 6.66667C6.33204 7.77133 5.43537 8.66667 4.33204 8.66667C3.22871 8.66667 2.33204 7.77133 2.33204 6.66667C2.33204 5.562 3.22871 4.66667 4.33204 4.66667ZM4.99871 6.66667C4.99871 6.29833 4.69871 6 4.33204 6C3.96537 6 3.66537 6.29833 3.66537 6.66667C3.66537 7.035 3.96537 7.33333 4.33204 7.33333C4.69871 7.33333 4.99871 7.035 4.99871 6.66667Z" fill="#646A73"/>
<path d="M12.9987 9.33333C12.8146 9.33333 12.6654 9.48257 12.6654 9.66667V11.3333H10.9987C10.8146 11.3333 10.6654 11.4826 10.6654 11.6667V12.3333C10.6654 12.5174 10.8146 12.6667 10.9987 12.6667H12.6654V14.3333C12.6654 14.5174 12.8146 14.6667 12.9987 14.6667H13.6654C13.8495 14.6667 13.9987 14.5174 13.9987 14.3333V12.6667H15.6654C15.8495 12.6667 15.9987 12.5174 15.9987 12.3333V11.6667C15.9987 11.4826 15.8495 11.3333 15.6654 11.3333H13.9987V9.66667C13.9987 9.48257 13.8495 9.33333 13.6654 9.33333H12.9987Z" fill="#646A73"/>
</g>
</g>
</svg>
