<svg width="24" height="24" viewBox="0 0 24 24" xmlns="http://www.w3.org/2000/svg">
<path d="M5.83647 15.2854C5.83647 15.5616 5.61262 15.7854 5.33647 15.7854H4.62333C4.34719 15.7854 4.12333 15.5616 4.12333 15.2854V8.29161H2.5C2.22386 8.29161 2 8.06775 2 7.79161V7.04428C2 6.76089 2.23658 6.53879 2.51785 6.50425C2.63274 6.49014 2.74565 6.4697 2.85657 6.44292C3.13807 6.36589 3.3874 6.23934 3.60456 6.06327C3.82977 5.8762 4.01877 5.63411 4.17159 5.337C4.27008 5.14551 4.34686 4.9243 4.40191 4.67339C4.45658 4.42426 4.66632 4.23109 4.92138 4.23109H5.33648C5.61262 4.23109 5.83647 4.45494 5.83647 4.73109V15.2854Z" />
<path d="M8.73996 8.67125C8.46857 8.67125 8.24492 8.45461 8.25357 8.18335C8.26874 7.70748 8.32452 7.25938 8.4209 6.83906C8.54959 6.26685 8.74262 5.77166 8.99999 5.35351C9.25736 4.92435 9.57908 4.59422 9.96514 4.36314C10.3592 4.12105 10.8096 4 11.3164 4C11.7024 4 12.0684 4.08253 12.4142 4.24759C12.7681 4.41265 13.0778 4.64924 13.3432 4.95736C13.6086 5.26547 13.8177 5.64512 13.9705 6.09629C14.1314 6.54746 14.2118 7.05365 14.2118 7.61486C14.2118 8.19807 14.1434 8.69876 14.0067 9.11692C13.87 9.53508 13.689 9.90922 13.4638 10.2393C13.2386 10.5585 12.9812 10.8501 12.6917 11.1142C12.4102 11.3783 12.1247 11.6424 11.8351 11.9065C11.5456 12.1596 11.2641 12.4347 10.9906 12.7318C10.7172 13.0289 10.4759 13.3755 10.2667 13.7717H13.7601C14.0362 13.7717 14.2601 13.9955 14.2601 14.2717V15.2854C14.2601 15.5616 14.0362 15.7854 13.7601 15.7854H8.05897C8.05897 15.1142 8.12733 14.5309 8.26406 14.0358C8.40883 13.5406 8.60186 13.1004 8.84315 12.7153C9.08444 12.3191 9.36594 11.956 9.68766 11.6259C10.0174 11.2957 10.3633 10.9601 10.7252 10.619C10.9102 10.4429 11.1072 10.2668 11.3164 10.0908C11.5255 9.90371 11.7145 9.70014 11.8834 9.48005C12.0603 9.25997 12.2051 9.01238 12.3177 8.73728C12.4383 8.46217 12.4987 8.14856 12.4987 7.79642C12.4987 7.23521 12.378 6.80055 12.1367 6.49243C11.9035 6.17332 11.6019 6.01376 11.2319 6.01376C10.9826 6.01376 10.7694 6.09629 10.5925 6.26135C10.4236 6.41541 10.2869 6.62448 10.1823 6.88858C10.0777 7.14168 10.0013 7.42779 9.95307 7.74691C9.9346 7.88849 9.92036 8.03008 9.91037 8.17167C9.89094 8.44712 9.6689 8.67125 9.39275 8.67125H8.73996Z" />
<path d="M18.26 9.46535C18.26 9.16579 18.5238 8.93388 18.822 8.90528C18.8317 8.90435 18.8414 8.90337 18.8512 8.90234C19.0603 8.88033 19.2533 8.81981 19.4303 8.72077C19.6153 8.61073 19.7641 8.45667 19.8767 8.2586C19.9973 8.06052 20.0576 7.79642 20.0576 7.4663C20.0576 6.97111 19.937 6.59147 19.6957 6.32737C19.4544 6.06327 19.1769 5.93122 18.8633 5.93122C18.4289 5.93122 18.0992 6.1293 17.874 6.52545C17.7219 6.79518 17.625 7.11619 17.5834 7.48847C17.5524 7.76553 17.3323 7.9945 17.0535 7.9945H16.4453C16.1639 7.9945 15.9359 7.76197 15.9617 7.48171C15.9982 7.08615 16.0645 6.71788 16.1608 6.37689C16.3056 5.88171 16.5027 5.45805 16.752 5.10592C17.0094 4.75378 17.315 4.48418 17.6689 4.29711C18.0228 4.09904 18.4169 4 18.8512 4C19.189 4 19.5268 4.07153 19.8646 4.21458C20.2024 4.34663 20.504 4.55021 20.7694 4.82531C21.0429 5.10041 21.2641 5.43604 21.433 5.83219C21.6019 6.22834 21.6863 6.68501 21.6863 7.2022C21.6863 7.76341 21.5858 8.2586 21.3847 8.68776C21.1917 9.11692 20.8981 9.40853 20.504 9.56259V9.5956C20.9705 9.73865 21.3365 10.0468 21.6019 10.5199C21.8673 10.9931 22 11.5598 22 12.2201C22 12.8253 21.9115 13.3645 21.7346 13.8377C21.5657 14.3109 21.3365 14.707 21.0469 15.0261C20.7574 15.3453 20.4236 15.5873 20.0456 15.7524C19.6676 15.9175 19.2734 16 18.8633 16C18.3887 16 17.9544 15.9065 17.5603 15.7194C17.1742 15.5323 16.8445 15.2627 16.571 14.9106C16.2976 14.5475 16.0844 14.1073 15.9316 13.5901C15.8234 13.2035 15.7579 12.774 15.735 12.3013C15.7218 12.0279 15.9468 11.8074 16.2206 11.8074H16.8681C17.1392 11.8074 17.3577 12.0241 17.3923 12.2929C17.4101 12.4306 17.4339 12.5659 17.4638 12.6988C17.5281 12.9739 17.6206 13.216 17.7413 13.425C17.8619 13.6231 18.0107 13.7827 18.1877 13.9037C18.3726 14.0248 18.5898 14.0853 18.8391 14.0853C19.2252 14.0853 19.5509 13.9257 19.8163 13.6066C20.0818 13.2765 20.2145 12.8308 20.2145 12.2696C20.2145 11.8294 20.1501 11.4938 20.0214 11.2627C19.9008 11.0316 19.744 10.8666 19.5509 10.7675C19.3579 10.6575 19.1448 10.597 18.9115 10.586C18.8604 10.581 18.8098 10.5766 18.7595 10.5727C18.4842 10.5515 18.26 10.3291 18.26 10.053V9.46535Z" />
<path d="M21.5 17.998H2.5C2.22386 17.998 2 18.2219 2 18.498V19.498C2 19.7742 2.22386 19.998 2.5 19.998H21.5C21.7761 19.998 22 19.7742 22 19.498V18.498C22 18.2219 21.7761 17.998 21.5 17.998Z" />
</svg>
