<svg width="24" height="24" viewBox="0 0 24 24" fill="none" xmlns="http://www.w3.org/2000/svg">
<path d="M8.34599 13.632C7.9437 13.7341 7.57016 13.9271 7.25399 14.196C7.08151 14.3298 6.95286 14.5121 6.88446 14.7194C6.81606 14.9268 6.81102 15.1498 6.86999 15.36C6.93599 15.624 6.86999 15.744 6.56399 15.744C5.06399 15.744 3.56399 15.744 2.05199 15.678C1.97582 15.6781 1.90193 15.6519 1.84287 15.6038C1.78382 15.5557 1.74323 15.4886 1.72799 15.414C1.64685 15.2347 1.61898 15.0359 1.64771 14.8412C1.67643 14.6465 1.76054 14.4642 1.88999 14.316C2.02484 14.132 2.20935 13.9902 2.42188 13.9073C2.63442 13.8245 2.86617 13.8039 3.08999 13.848C3.54599 13.944 3.99599 14.088 4.44599 14.22C4.60648 14.268 4.77751 14.268 4.93799 14.22C5.04613 14.1991 5.14644 14.1489 5.22793 14.0748C5.30942 14.0007 5.36895 13.9057 5.39999 13.8C5.47799 13.566 5.30399 13.458 5.15999 13.362C4.46584 12.9009 3.94289 12.224 3.67199 11.436C3.39908 10.571 3.47776 9.6334 3.89099 8.82602C4.30423 8.01864 5.01878 7.40647 5.87999 7.12199C6.07578 7.05927 6.27648 7.01311 6.47999 6.98399C6.9232 6.9681 7.36452 6.91795 7.79999 6.83399C7.97399 6.83399 8.18999 6.77999 8.14799 6.52799C8.10599 6.27599 7.89599 6.29399 7.70999 6.32999C7.43251 6.35397 7.15348 6.35397 6.87599 6.32999C6.72773 6.33748 6.57967 6.31174 6.44264 6.25464C6.30561 6.19754 6.18307 6.11054 6.08399 5.99999C5.99207 5.91008 5.93362 5.79146 5.91834 5.66378C5.90306 5.53611 5.93187 5.40704 5.99999 5.29799C6.09505 5.09193 6.15197 4.87034 6.16799 4.64399C6.40501 4.8658 6.70199 5.01306 7.02201 5.06747C7.34204 5.12187 7.671 5.08102 7.96799 4.94999C8.47199 4.79399 8.52599 4.49999 8.19599 4.08599C8.12249 3.96249 8.02534 3.85472 7.9101 3.76886C7.79487 3.68299 7.66382 3.62071 7.52446 3.58559C7.38511 3.55047 7.2402 3.54321 7.09803 3.56421C6.95586 3.58522 6.81924 3.63407 6.69599 3.70799H6.65399C6.54599 3.79799 6.42599 3.88799 6.45599 4.04999C6.48599 4.21199 6.36599 4.27799 6.22799 4.20599C5.76958 3.95237 5.38658 3.58179 5.11799 3.13199C4.98599 2.86799 4.99799 2.59799 5.31599 2.53199C6.37098 2.07439 7.47098 1.72851 8.59799 1.49999C8.96199 1.49999 9.32799 1.49999 9.69599 1.49999C9.8155 1.52013 9.93825 1.50668 10.0506 1.46112C10.1629 1.41556 10.2603 1.3397 10.332 1.24199C10.458 1.01999 10.272 0.887985 10.176 0.737985C10.08 0.587985 10.044 0.419985 10.2 0.299985C10.2836 0.228567 10.39 0.189331 10.5 0.189331C10.61 0.189331 10.7164 0.228567 10.8 0.299985C10.9169 0.399723 11.004 0.52983 11.0517 0.675943C11.0993 0.822056 11.1056 0.978493 11.07 1.12799C11.0119 1.36418 11.0155 1.61137 11.0807 1.84572C11.1459 2.08008 11.2703 2.29369 11.442 2.46599C11.9832 3.07175 12.262 3.86755 12.217 4.67864C12.172 5.48973 11.8069 6.24981 11.202 6.79199L11.004 6.95399C10.2856 7.48731 9.42554 7.79626 8.53199 7.84199C8.06251 7.87772 7.59801 7.96217 7.14599 8.09399C6.66881 8.22124 6.24885 8.50646 5.95463 8.90311C5.66042 9.29976 5.50932 9.78441 5.52599 10.278C5.52397 10.763 5.68944 11.2339 5.99443 11.611C6.29943 11.9882 6.72527 12.2485 7.19999 12.348C7.31999 12.414 7.43999 12.348 7.54199 12.348C7.47566 12.3363 7.41359 12.3073 7.36199 12.264C6.90392 12.0682 6.53679 11.7065 6.33427 11.2513C6.13174 10.7962 6.10878 10.2813 6.26999 9.80999C6.41295 9.41067 6.66879 9.06145 7.00643 8.80476C7.34407 8.54807 7.74899 8.39494 8.17199 8.36399L9.53399 8.27999C10.2967 8.13339 10.9974 7.76001 11.5444 7.2087C12.0914 6.65738 12.4593 5.9538 12.6 5.18999C12.618 4.94632 12.618 4.70165 12.6 4.45799C12.6 4.35599 12.6 4.19399 12.696 4.16399C12.792 4.13399 12.882 4.28399 12.936 4.36799C13.3499 4.95958 13.5819 5.65932 13.6032 6.38105C13.6245 7.10277 13.4343 7.81498 13.056 8.42999C12.6855 9.07905 12.1143 9.59028 11.4283 9.88676C10.7423 10.1832 9.97857 10.2489 9.25199 10.074C8.94746 9.97941 8.6283 9.94078 8.30999 9.95999C8.16365 9.97767 8.02893 10.0486 7.93155 10.1593C7.83417 10.2699 7.78093 10.4126 7.78199 10.56C7.79551 10.7096 7.86464 10.8487 7.97573 10.9498C8.08683 11.0508 8.23179 11.1066 8.38199 11.106C8.47108 11.1156 8.56059 11.0922 8.63358 11.0402C8.70656 10.9883 8.75795 10.9113 8.77799 10.824C8.78484 10.7867 8.78374 10.7483 8.77478 10.7115C8.76582 10.6746 8.74919 10.6401 8.72598 10.6101C8.70277 10.5801 8.6735 10.5553 8.64008 10.5374C8.60665 10.5194 8.56983 10.5087 8.53199 10.506C8.35799 10.458 8.32799 10.404 8.38199 10.266C8.39736 10.2128 8.43308 10.1679 8.48139 10.1409C8.52969 10.114 8.58669 10.1072 8.63999 10.122C8.76716 10.1421 8.88587 10.1983 8.98199 10.284C9.05398 10.3744 9.14515 10.4476 9.24892 10.4985C9.35268 10.5493 9.46645 10.5765 9.58199 10.578C9.88799 10.578 9.89999 10.884 9.89999 11.106C9.92893 11.5621 9.83238 12.0174 9.62084 12.4225C9.40929 12.8276 9.09082 13.1671 8.69999 13.404C8.60976 13.5163 8.48555 13.5963 8.34599 13.632Z" fill="#F5992B"/>
<path d="M19.3671 20.142C18.8856 20.7628 18.3107 21.3052 17.6631 21.75C16.5937 22.5208 15.3829 23.0733 14.0999 23.376C12.8168 23.6786 11.4867 23.7253 10.1856 23.5136C8.88446 23.3018 7.63783 22.8357 6.51694 22.1419C5.39606 21.4481 4.42291 20.5401 3.65312 19.47C3.39537 19.1114 3.16089 18.7366 2.95112 18.348L2.75312 17.94C2.65074 17.7711 2.61914 17.5685 2.6652 17.3764C2.71126 17.1843 2.83126 17.0182 2.99912 16.914C3.07622 16.8585 3.16353 16.8188 3.25603 16.7972C3.34853 16.7756 3.4444 16.7726 3.53809 16.7882C3.63179 16.8038 3.72147 16.8378 3.80197 16.8882C3.88247 16.9387 3.95219 17.0045 4.00712 17.082C4.04415 17.1318 4.07441 17.1863 4.09712 17.244C4.44701 17.8319 4.83378 18.397 5.25512 18.936C6.07082 19.9611 7.09251 20.8037 8.25417 21.4094C9.41583 22.015 10.6916 22.3702 11.9991 22.452C14.3753 22.6442 16.7424 21.9849 18.6771 20.592L19.2771 20.22L19.3671 20.142Z" fill="#F5992B"/>
<path d="M12.8574 2.70602C13.7938 2.59913 14.7422 2.6995 15.6354 3.00002C16.9848 3.42108 18.2276 4.12774 19.2795 5.07196C20.3314 6.01617 21.1677 7.17581 21.7314 8.47202C21.9654 8.96402 21.7974 9.38402 21.3534 9.46802C21.1812 9.49842 21.0039 9.46108 20.8585 9.3638C20.7131 9.26653 20.611 9.11684 20.5734 8.94602C19.8917 6.80646 18.4138 5.01069 16.4454 3.93002C15.3815 3.32045 14.2138 2.91356 13.0014 2.73002L12.8574 2.70602Z" fill="#F5992B"/>
<path d="M8.82032 13.476C9.00859 13.44 9.20321 13.4581 9.38162 13.5282C9.56003 13.5983 9.71491 13.7175 9.82832 13.872C9.8969 13.9487 9.98112 14.0098 10.0753 14.0512C10.1695 14.0926 10.2715 14.1133 10.3743 14.112C10.5155 14.1024 10.6571 14.125 10.7883 14.178C10.6761 14.3155 10.5251 14.416 10.3549 14.4663C10.1847 14.5167 10.0033 14.5144 9.83432 14.46C9.69632 14.46 9.52832 14.31 9.44432 14.514C9.41865 14.5928 9.41877 14.6778 9.44467 14.7566C9.47056 14.8353 9.52088 14.9038 9.58832 14.952C9.63942 15.0078 9.69797 15.0562 9.76232 15.096C9.81106 15.1284 9.84794 15.1758 9.86742 15.231C9.8869 15.2862 9.88792 15.3462 9.87032 15.402C9.87032 15.534 9.70832 15.546 9.59432 15.546H7.98632C7.74632 15.546 7.54832 15.444 7.58432 15.162C7.62032 14.88 7.82432 14.868 8.04032 14.922C8.25632 14.976 8.39432 14.922 8.29232 14.616C8.23541 14.4672 8.21767 14.3064 8.24078 14.1488C8.26389 13.9912 8.32709 13.8422 8.42432 13.716C8.46384 13.6451 8.52113 13.5857 8.59056 13.5436C8.65999 13.5015 8.73917 13.4782 8.82032 13.476Z" fill="#F5992B"/>
<path d="M21.2392 12.078C21.0217 11.9963 20.7852 11.9794 20.5584 12.0294C20.3315 12.0795 20.124 12.1943 19.9612 12.36C19.8295 12.5167 19.7445 12.7072 19.7159 12.9098C19.6872 13.1124 19.7161 13.319 19.7992 13.506C19.8892 13.698 20.0272 13.836 20.2492 13.728C20.4712 13.62 20.3932 13.452 20.2492 13.29C20.1882 13.2164 20.1584 13.1218 20.1662 13.0264C20.1741 12.9311 20.2189 12.8427 20.2912 12.78C20.3457 12.7378 20.4094 12.709 20.4772 12.696C20.612 12.6469 20.76 12.6477 20.8943 12.6983C21.0287 12.7489 21.1404 12.8461 21.2092 12.972C21.2905 13.0907 21.3475 13.2243 21.3767 13.3651C21.406 13.506 21.4069 13.6513 21.3796 13.7925C21.3522 13.9337 21.2971 14.0681 21.2174 14.1878C21.1377 14.3076 21.0349 14.4103 20.9152 14.49C20.8226 14.5558 20.7189 14.6046 20.6092 14.634C20.42 14.6841 20.2227 14.6958 20.0289 14.6683C19.8352 14.6409 19.6489 14.5749 19.4811 14.4742C19.3133 14.3735 19.1673 14.2402 19.0519 14.0821C18.9365 13.9241 18.854 13.7445 18.8092 13.554C18.7909 13.4812 18.7788 13.4069 18.7732 13.332C18.6772 12.84 18.6112 12.324 18.5332 11.826C18.4889 11.3664 18.3543 10.9201 18.1372 10.5126C17.9201 10.1051 17.6248 9.74439 17.268 9.45122C16.9113 9.15805 16.5003 8.93813 16.0584 8.80408C15.6166 8.67003 15.1527 8.62447 14.6932 8.67001C14.4778 8.68907 14.2647 8.72927 14.0572 8.79001C13.7863 8.86688 13.5036 8.89332 13.2232 8.86801C13.1392 8.86801 13.0252 8.86801 12.9832 8.92201C12.9412 8.97601 12.9832 9.10801 13.0912 9.18601C13.3912 9.53401 13.7932 9.50401 14.1892 9.53401C14.4467 9.5195 14.7045 9.55771 14.9468 9.64629C15.1891 9.73486 15.4108 9.87195 15.5982 10.0492C15.7857 10.2264 15.935 10.44 16.0371 10.6769C16.1392 10.9138 16.1918 11.169 16.1918 11.427C16.1918 11.685 16.1392 11.9402 16.0371 12.1771C15.935 12.4141 15.7857 12.6277 15.5982 12.8049C15.4108 12.9821 15.1891 13.1192 14.9468 13.2077C14.7045 13.2963 14.4467 13.3345 14.1892 13.32H13.9912C13.5614 13.2946 13.155 13.1159 12.8457 12.8165C12.5364 12.5171 12.3446 12.1167 12.3052 11.688C12.2898 11.5357 12.3273 11.3828 12.4115 11.2549C12.4956 11.1271 12.6212 11.0321 12.7672 10.986C12.9183 10.9682 13.0706 11.0085 13.1931 11.0987C13.3156 11.189 13.3993 11.3224 13.4272 11.472C13.4309 11.4817 13.4309 11.4923 13.4272 11.502C13.4932 11.796 13.6012 12.024 13.9552 11.94C14.3092 11.856 14.3032 11.58 14.1832 11.238C14.0395 10.8674 13.7552 10.5686 13.3922 10.4067C13.0292 10.2449 12.6169 10.2331 12.2452 10.374C12.1079 10.4282 11.9787 10.5009 11.8612 10.59C11.4106 10.9326 11.1101 11.4364 11.0229 11.9957C10.9356 12.555 11.0683 13.1264 11.3932 13.59C11.5719 13.8377 11.7727 14.0686 11.9932 14.28C12.1612 14.436 12.1252 14.508 11.9092 14.586C11.6244 14.6641 11.3239 14.6641 11.0392 14.586C10.8615 14.5305 10.67 14.5399 10.4986 14.6124C10.3272 14.6849 10.1871 14.8159 10.1032 14.982C9.90518 15.372 10.1032 15.81 10.4932 15.804C11.8732 15.804 13.2532 15.888 14.6212 15.804C14.7757 15.8034 14.924 15.7432 15.0352 15.636C14.9718 15.3082 15.0411 14.9687 15.2278 14.6919C15.4146 14.4152 15.7035 14.2239 16.0312 14.16C15.6592 14.532 15.4852 14.862 16.0312 15.168C15.8452 15.3 15.7252 15.168 15.5932 15.168C15.2572 15.036 15.1792 15.102 15.2092 15.492C15.3272 15.5622 15.4619 15.5995 15.5992 15.6H17.3992C17.8072 15.6 17.8132 15.6 17.6212 15.228C17.5974 15.1827 17.5714 15.1387 17.5432 15.096C17.4772 14.964 17.4112 14.802 17.5432 14.706C17.6752 14.61 17.7712 14.706 17.8732 14.814C18.3825 15.2007 18.9522 15.5007 19.5592 15.702C20.0606 15.8991 20.6196 15.8898 21.1142 15.6763C21.6088 15.4627 21.9988 15.0621 22.1992 14.562C22.2823 14.3509 22.3328 14.1283 22.3492 13.902C22.4031 13.5166 22.322 13.1244 22.1197 12.7919C21.9174 12.4594 21.6063 12.2072 21.2392 12.078Z" fill="#F5992B"/>
<path d="M7.79984 18.27H7.22984L7.08584 18.732H6.83984L7.38584 17.1H7.67984L8.22584 18.732H7.95584L7.79984 18.27ZM7.74584 18.06L7.67984 17.844L7.51784 17.298C7.45784 17.484 7.41584 17.67 7.36184 17.844L7.29584 18.06H7.74584Z" fill="#F5992B"/>
<path d="M8.40039 17.55H8.62239V17.682C8.72295 17.5842 8.85457 17.5248 8.99439 17.514C9.31239 17.514 9.48639 17.754 9.48639 18.114C9.49468 18.1928 9.48725 18.2726 9.46453 18.3485C9.44181 18.4245 9.40426 18.4952 9.35405 18.5566C9.30383 18.618 9.24195 18.6688 9.17198 18.7061C9.10201 18.7434 9.02533 18.7665 8.94639 18.774C8.82662 18.7654 8.71385 18.7143 8.62839 18.63V19.23H8.40039V17.55ZM9.23439 18.15C9.23439 17.898 9.15639 17.736 8.94639 17.736C8.83686 17.7487 8.73616 17.8023 8.66439 17.886V18.486C8.7371 18.5517 8.83049 18.5899 8.92839 18.594C9.09039 18.558 9.22239 18.396 9.22239 18.114L9.23439 18.15Z" fill="#F5992B"/>
<path d="M9.71328 18.414C9.71328 18.15 9.93528 18.006 10.4513 17.952C10.4513 17.808 10.3973 17.688 10.2113 17.688C10.0855 17.6996 9.96421 17.7408 9.85728 17.808L9.76128 17.634C9.90955 17.5423 10.0791 17.4906 10.2533 17.484C10.5593 17.484 10.7033 17.682 10.7033 17.994V18.732H10.4933V18.6C10.3866 18.6948 10.2516 18.7518 10.1093 18.762C10.0202 18.7759 9.92931 18.754 9.85628 18.7012C9.78325 18.6484 9.73402 18.5689 9.71928 18.48C9.71399 18.4584 9.71197 18.4362 9.71328 18.414ZM10.4513 18.414V18.108C10.0853 18.108 9.95928 18.246 9.95928 18.378C9.95928 18.51 10.0433 18.552 10.1513 18.552C10.264 18.5514 10.3719 18.506 10.4513 18.426V18.414Z" fill="#F5992B"/>
<path d="M10.9748 18.126C10.969 18.0472 10.979 17.968 11.0039 17.893C11.0289 17.818 11.0685 17.7487 11.1203 17.6891C11.1722 17.6294 11.2353 17.5806 11.3061 17.5454C11.3769 17.5102 11.4539 17.4893 11.5327 17.484H11.5867C11.718 17.4833 11.8446 17.5327 11.9407 17.622L11.8208 17.79C11.7615 17.7303 11.6826 17.6941 11.5987 17.688C11.5458 17.6917 11.4942 17.7061 11.447 17.7304C11.3998 17.7548 11.3581 17.7884 11.3244 17.8295C11.2907 17.8705 11.2657 17.9179 11.251 17.9689C11.2363 18.0199 11.2321 18.0734 11.2387 18.126C11.2387 18.39 11.3827 18.552 11.5867 18.552C11.6358 18.5529 11.6845 18.5439 11.7299 18.5253C11.7753 18.5067 11.8164 18.4791 11.8507 18.444L11.9587 18.612C11.8509 18.7071 11.7125 18.7604 11.5688 18.762C11.4157 18.7623 11.2683 18.704 11.1567 18.5992C11.0452 18.4943 10.9779 18.3508 10.9688 18.198L10.9748 18.126Z" fill="#F5992B"/>
<path d="M12.2109 16.968H12.4629V17.682C12.5109 17.6226 12.5711 17.5742 12.6395 17.54C12.7078 17.5059 12.7826 17.4868 12.8589 17.484C13.1229 17.484 13.2309 17.658 13.2309 17.964V18.732H12.9789V18C12.9789 17.796 12.9129 17.706 12.7689 17.706C12.7087 17.7096 12.65 17.7266 12.5971 17.7556C12.5441 17.7847 12.4983 17.8251 12.4629 17.874V18.738H12.2109V16.968Z" fill="#F5992B"/>
<path d="M13.5057 18.126C13.4938 17.9715 13.5421 17.8184 13.6405 17.6988C13.7389 17.5791 13.8798 17.5021 14.0337 17.484H14.0637C14.3877 17.484 14.5677 17.712 14.5677 18.084C14.5737 18.1278 14.5737 18.1722 14.5677 18.216H13.7637C13.7668 18.3158 13.8086 18.4104 13.8803 18.4798C13.952 18.5493 14.0479 18.5881 14.1477 18.588C14.2533 18.5876 14.3562 18.554 14.4417 18.492L14.5317 18.654C14.4106 18.7396 14.266 18.7857 14.1177 18.786C13.9646 18.7863 13.8172 18.728 13.7057 18.6232C13.5941 18.5183 13.5269 18.3748 13.5177 18.222C13.5084 18.1909 13.5044 18.1585 13.5057 18.126ZM14.3457 18.018C14.3457 17.802 14.2497 17.682 14.0697 17.682C14.0271 17.6836 13.9853 17.6935 13.9466 17.7112C13.9078 17.7289 13.873 17.7541 13.844 17.7853C13.8151 17.8165 13.7925 17.8531 13.7777 17.8931C13.7629 17.933 13.7561 17.9755 13.7577 18.018H14.3457Z" fill="#F5992B"/>
<path d="M15.3772 17.1H15.6352V17.874L16.2352 17.1H16.5232L16.0192 17.736L16.6192 18.732H16.3372L15.8632 17.928L15.6232 18.24V18.732H15.3652L15.3772 17.1Z" fill="#F5992B"/>
<path d="M17.3036 18.804C17.2136 19.068 17.0816 19.242 16.8176 19.242H16.6676V19.05H16.7516C16.8836 19.05 16.9616 18.948 17.0036 18.816V18.738L16.6016 17.538H16.8656L17.0936 18.138C17.1116 18.2588 17.1481 18.3762 17.2016 18.486L17.3036 18.138L17.5076 17.538H17.7476L17.3036 18.804Z" fill="#F5992B"/>
<path d="M18 18.444V16.968H18.294V18.552V18.738H18.162C18.048 18.762 18 18.642 18 18.444Z" fill="#F5992B"/>
<path d="M18.5999 17.13C18.5999 17.0902 18.6157 17.052 18.6438 17.0239C18.672 16.9958 18.7101 16.98 18.7499 16.98C18.7902 16.98 18.829 16.9956 18.8581 17.0235C18.8872 17.0515 18.9043 17.0897 18.9059 17.13C18.9059 17.1714 18.8895 17.211 18.8602 17.2403C18.8309 17.2695 18.7913 17.286 18.7499 17.286C18.7095 17.2877 18.67 17.2736 18.6398 17.2467C18.6096 17.2198 18.591 17.1823 18.5879 17.142L18.5999 17.13ZM18.5999 17.514H18.8519V18.714H18.5999V17.514Z" fill="#F5992B"/>
<path d="M19.272 17.55H19.488V17.712C19.5929 17.5951 19.7394 17.5241 19.896 17.514C20.16 17.514 20.268 17.688 20.268 17.994V18.762H20.016V18.03C20.016 17.82 19.95 17.736 19.806 17.736C19.7482 17.7398 19.6918 17.7563 19.641 17.7843C19.5902 17.8123 19.5462 17.8511 19.512 17.898V18.762H19.248L19.272 17.55Z" fill="#F5992B"/>
<path d="M20.5868 16.98H20.4668V16.878H20.8928V16.98H20.7368V17.436H20.6168L20.5868 16.98Z" fill="#F5992B"/>
<path d="M20.9453 16.878H21.0653L21.1673 17.142L21.2633 16.878H21.3833V17.436H21.2873V17.022V17.154L21.1973 17.382H21.1313L21.0413 17.154V17.022V17.436H20.9453V16.878Z" fill="#F5992B"/>
</svg>
