<?xml version="1.0" standalone="no"?><!DOCTYPE svg PUBLIC "-//W3C//DTD SVG 1.1//EN" "http://www.w3.org/Graphics/SVG/1.1/DTD/svg11.dtd"><svg t="1623896817205" class="icon" viewBox="0 0 1024 1024" version="1.1" xmlns="http://www.w3.org/2000/svg" p-id="12052" xmlns:xlink="http://www.w3.org/1999/xlink" width="200" height="200"><defs><style type="text/css"></style></defs><path d="M616.521143 407.478857h313.417143a69.485714 69.485714 0 0 1 69.705143 69.705143v452.754286a69.485714 69.485714 0 0 1-69.705143 69.705143h-452.754286a69.485714 69.485714 0 0 1-69.705143-69.705143V616.594286H94.061714a69.485714 69.485714 0 0 1-69.705143-69.705143v-452.754286a69.485714 69.485714 0 0 1 69.705143-69.705143h452.754286a69.485714 69.485714 0 0 1 69.705143 69.705143V407.405714z m0 69.705143v69.632a69.485714 69.485714 0 0 1-69.705143 69.705143h-69.632v278.674286c0 19.163429 15.579429 34.742857 34.816 34.742857h383.122286a34.816 34.816 0 0 0 34.816-34.742857V512a34.816 34.816 0 0 0-34.816-34.816h-278.674286zM94.061714 128.731429V512c0 19.236571 15.579429 34.816 34.742857 34.816H512A34.816 34.816 0 0 0 546.816 512V128.877714A34.816 34.816 0 0 0 512 94.061714H128.877714a34.816 34.816 0 0 0-34.816 34.742857z m69.632 265.947428V219.574857h122.733715V146.285714h50.834285c7.021714 1.024 10.532571 1.974857 10.532572 2.998857a11.483429 11.483429 0 0 1-1.462857 4.461715c-3.072 8.045714-4.534857 17.481143-4.534858 28.452571v37.376h130.194286v170.642286h-55.369143v-22.454857H341.796571v128.731428h-53.906285v-128.731428H214.601143v26.989714h-50.907429z m50.834286-133.193143v65.828572h73.362286v-65.828572H214.601143z m202.093714 65.828572v-65.828572H341.796571v65.828572h74.825143z m221.915429 531.163428h-56.905143l100.278857-276.918857h70.363429l97.28 276.918857h-59.830857l-20.992-58.368H659.456l-20.918857 58.368z m35.84-104.813714h79.36L716.361143 635.611429h-1.462857l-40.448 118.198857z m255.561143-450.706286h-69.632a139.337143 139.337143 0 0 0-139.337143-139.337143v-69.632a208.969143 208.969143 0 0 1 208.969143 208.969143zM94.061714 720.969143h69.632c0 76.946286 62.390857 139.337143 139.337143 139.337143v69.632a208.969143 208.969143 0 0 1-208.969143-208.969143z" p-id="12053" ></path></svg>