<svg width="80" height="56" viewBox="0 0 80 56" fill="none" xmlns="http://www.w3.org/2000/svg">
<path fill-rule="evenodd" clip-rule="evenodd" d="M7 2V50.9977L76 50.9977L76 53.9977H4V2H7Z" fill="#434343"/>
<path fill-rule="evenodd" clip-rule="evenodd" d="M72.8196 13.7602C73.1363 14.2126 73.0262 14.8362 72.5738 15.1529L50.2198 29.3007L37.043 16.1239L36.7137 16.4943C36.0548 17.2352 35.1121 18.2952 33.9766 19.5713C31.7056 22.1235 28.6637 25.5405 25.5801 28.9991C19.434 35.8927 13.0676 43.0139 12.3741 43.7074C11.9836 44.098 11.3504 44.098 10.9599 43.7074C10.5694 43.3169 10.5694 42.6837 10.9599 42.2932C11.5997 41.6534 17.9 34.608 24.0872 27.6682C27.1703 24.2102 30.2117 20.7938 32.4824 18.2418C33.6178 16.9659 34.5604 15.906 35.2192 15.1652L36.2526 14.0029C36.2526 14.0029 36.2529 14.0026 37.0003 14.667L36.2526 14.0029L36.9575 13.21L50.4475 26.7L71.4269 13.5144C71.8793 13.1977 72.5028 13.3077 72.8196 13.7602Z" fill="#3370FF"/>
<path fill-rule="evenodd" clip-rule="evenodd" d="M36.2315 13.274C36.6138 12.844 37.2791 12.8245 37.686 13.2313L50.5191 26.0644L71.1513 13.097C71.8291 12.6316 72.7567 12.7985 73.2292 13.4735C73.7043 14.1521 73.5392 15.0874 72.8605 15.5625L72.851 15.5692L50.8253 29.5092C50.43 29.7594 49.9141 29.7021 49.5834 29.3713L37.0644 16.8524C36.4066 17.5921 35.4725 18.6423 34.3501 19.9037C32.0791 22.456 29.0371 25.873 25.9533 29.3319C19.8175 36.2139 13.4346 43.354 12.7277 44.061C12.1419 44.6468 11.1921 44.6468 10.6063 44.061C10.0205 43.4752 10.0205 42.5255 10.6063 41.9397C11.2327 41.3133 17.5164 34.2868 23.714 27.3354C26.7969 23.8776 29.8382 20.4613 32.1089 17.9095C33.2442 16.6336 34.1868 15.5738 34.8455 14.833L36.2315 13.274ZM36.3401 16.162L37.0217 15.3955L50.2905 28.6642L72.2949 14.7377C72.5145 14.5776 72.5665 14.2705 72.4099 14.0469C72.2516 13.8207 71.9398 13.7657 71.7136 13.924L71.7034 13.9312L50.3759 27.3355C46.6555 23.5997 40.5 17.0002 37.3315 14.2924L37.3324 14.2931L36.6683 15.0408L36.2943 14.7086L35.5929 15.4975C34.934 16.2383 33.9913 17.2982 32.856 18.5742C30.5852 21.1262 27.5436 24.5427 24.4605 28.0009C18.2835 34.9291 11.9667 41.9935 11.3134 42.6468C11.1182 42.842 11.1182 43.1586 11.3134 43.3539M10.9599 43.7074L11.3134 43.3539C11.5087 43.5491 11.8253 43.5491 12.0205 43.3539C12.7006 42.6738 19.0505 35.5715 25.2069 28.6664C28.2903 25.2079 31.3321 21.7911 33.603 19.2389C34.7385 17.9629 35.6812 16.9029 36.3401 16.162" fill="#3370FF"/>
<path d="M37.686 13.2308C37.2791 12.824 36.6138 12.8435 36.2315 13.2735L34.8455 14.8325C34.1868 15.5733 33.2442 16.633 32.1089 17.9089C29.8382 20.4608 26.7969 23.8771 23.714 27.3349C17.5164 34.2863 11.2327 41.3128 10.6063 41.9391C10.0205 42.5249 10.0205 43.4747 10.6063 44.0605C11.1921 44.6462 12.1419 44.6462 12.7277 44.0605C13.4346 43.3535 19.8175 36.2134 25.9533 29.3314C29.0371 25.8725 32.0791 22.4555 34.3501 19.9032C35.4725 18.6418 36.4066 17.5915 37.0644 16.8519L49.5834 29.3708C49.9141 29.7016 50.43 29.7589 50.8253 29.5087L72.851 15.5686L72.8605 15.562C73.5392 15.0869 73.7043 14.1516 73.2292 13.4729C72.7567 12.798 71.8291 12.631 71.1513 13.0965L50.5191 26.0639L37.686 13.2308Z" fill="#3370FF"/>
<path d="M11.667 26.5C10.8386 26.5 10.167 27.1716 10.167 28C10.167 28.8284 10.8386 29.5 11.667 29.5H33.6392L42.646 40.1151C42.8119 40.3107 43.0467 40.4351 43.3017 40.4624L71.4856 43.489C72.3058 43.589 73.0528 43.0065 73.1554 42.1861C73.2582 41.364 72.6751 40.6143 71.8531 40.5115L44.4294 37.5801L35.3277 26.853C35.1377 26.6291 34.8588 26.5 34.5651 26.5H11.667Z" fill="#00D6B9"/>
</svg>
