<svg width="80" height="56" viewBox="0 0 80 56" fill="none" xmlns="http://www.w3.org/2000/svg">
<path fill-rule="evenodd" clip-rule="evenodd" d="M40 53C26.1932 53 15 41.8068 15 28C15 14.1932 26.1932 3 40 3C53.8068 3 65 14.1932 65 28C65 41.8068 53.8068 53 40 53ZM40 48.4545C51.2966 48.4545 60.4546 39.2966 60.4546 28C60.4546 16.7034 51.2966 7.54545 40 7.54545C28.7034 7.54545 19.5455 16.7034 19.5455 28C19.5455 39.2966 28.7034 48.4545 40 48.4545Z" fill="#3370FF"/>
<path d="M27.0086 30.2481H58.1486V24.7581C58.1486 24.7581 54.5 24.5 53.1386 24.7581C51.8786 25.1481 50.6486 25.2681 49.2686 25.2681C45.5186 25.2681 42.2786 24.0081 40.3886 22.1481C40.3886 22.0281 40.2686 22.0281 40.1486 21.9081C40.0286 21.7881 39.9086 21.5181 39.6386 21.2781C38.1386 19.6581 35.6486 18.5181 32.7686 18.5181C29.5286 18.5181 26.6486 20.0181 25.2686 22.0281V27.6681C25.5086 28.1781 25.8986 28.5381 26.4086 29.0481C26.6186 29.4981 26.8886 29.8881 27.0086 30.2481Z" fill="#ADC6FF"/>
<path d="M54.7644 22.3748C53.3952 22.7985 52.7014 23.8521 51.5655 24.562C49.7336 26.0385 46.9995 27.0774 44.0467 27.0774C40.4103 27.0774 37.3208 25.7104 35.4889 23.6598C35.4889 23.5504 35.3795 23.4411 35.2702 23.4411C35.1608 23.2223 34.9147 22.9763 34.8054 22.8669C33.329 21.035 30.9229 19.9141 28.1888 19.9141C26.0289 19.9141 24.197 20.5976 22.7206 21.7459C22.1465 23.3317 21.8184 25.2729 21.8184 27.2141C21.8184 29.8389 22.3925 32.3543 23.4041 34.5142C25.6735 39.0802 29.4465 42.6072 33.9851 44.3023C34.0945 44.3023 34.2039 44.4117 34.3406 44.4117C34.5593 44.521 34.6687 44.521 34.9147 44.6304C36.5005 45.0952 38.3324 45.4233 40.0549 45.4233C41.8867 45.4233 43.6912 45.2046 45.4137 44.6304C45.5231 44.6304 45.6324 44.521 45.7692 44.521C45.9879 44.4117 46.3433 44.3023 46.562 44.1656C50.6632 42.4431 54.0808 39.2715 56.3502 35.1704C57.4985 32.7917 58.182 30.0576 58.182 27.1868C58.182 25.4643 57.9633 23.8785 57.4985 22.2927C56.815 22.0467 55.776 22.0467 54.7644 22.3748Z" fill="#3370FF"/>
</svg>
