<svg width="24" height="24" viewBox="0 0 24 24" xmlns="http://www.w3.org/2000/svg">
<path fill-rule="evenodd" clip-rule="evenodd" d="M12 23C5.925 23 1 18.075 1 12C1 5.925 5.925 1 12 1C18.075 1 23 5.925 23 12C23 18.075 18.075 23 12 23ZM12 21C16.9705 21 21 16.9705 21 12C21 7.0295 16.9705 3 12 3C7.0295 3 3 7.0295 3 12C3 16.9705 7.0295 21 12 21Z"/>
<path d="M18.4962 9.52411C17.8938 9.71057 17.5886 10.1741 17.0887 10.4865C16.2827 11.1361 15.0797 11.5933 13.7805 11.5933C12.1805 11.5933 10.8211 10.9918 10.015 10.0895C10.015 10.0414 9.96692 9.99329 9.9188 9.99329C9.87068 9.89705 9.76241 9.78877 9.71429 9.74065C9.06466 8.93464 8.00602 8.44141 6.80301 8.44141C5.85263 8.44141 5.04662 8.74216 4.39699 9.24742C4.14436 9.94517 4 10.7993 4 11.6534C4 12.8083 4.25263 13.9151 4.69774 14.8655C5.69624 16.8745 7.35639 18.4264 9.35338 19.1722C9.4015 19.1722 9.44962 19.2204 9.50978 19.2204C9.60602 19.2685 9.65414 19.2685 9.76241 19.3166C10.4602 19.5211 11.2662 19.6655 12.0241 19.6655C12.8301 19.6655 13.6241 19.5692 14.382 19.3166C14.4301 19.3166 14.4782 19.2685 14.5383 19.2685C14.6346 19.2204 14.791 19.1722 14.8872 19.1121C16.6917 18.3542 18.1955 16.9587 19.194 15.1542C19.6993 14.1076 20 12.9046 20 11.6414C20 10.8835 19.9038 10.1858 19.6993 9.48802C19.3985 9.37975 18.9414 9.37975 18.4962 9.52411Z"/>
</svg>
