<svg width="32" height="32" viewBox="0 0 32 32" fill="none" xmlns="http://www.w3.org/2000/svg">
<g id="logo_cas">
<g id="logo_cas_2">
<mask id="mask0_3028_68898" style="mask-type:alpha" maskUnits="userSpaceOnUse" x="1" y="1" width="30" height="30">
<circle id="Ellipse 130" cx="16" cy="16" r="15" fill="white"/>
</mask>
<g mask="url(#mask0_3028_68898)">
<g id="CAS">
<path d="M8.38996 11.992C9.30296 11.992 10.062 12.223 10.656 12.707C11.228 13.169 11.58 13.807 11.701 14.599H10.535C10.403 14.071 10.15 13.675 9.77596 13.422C9.40196 13.169 8.93996 13.048 8.36796 13.048C7.52096 13.048 6.88296 13.334 6.45396 13.917C6.04696 14.445 5.84896 15.171 5.84896 16.084C5.84896 17.03 6.04696 17.756 6.44296 18.273C6.86096 18.823 7.50996 19.098 8.38996 19.098C8.96196 19.098 9.44596 18.955 9.81996 18.669C10.216 18.361 10.491 17.899 10.645 17.283H11.811C11.635 18.196 11.228 18.911 10.579 19.428C9.97396 19.912 9.24796 20.154 8.40096 20.154C7.11396 20.154 6.14596 19.736 5.49696 18.922C4.92496 18.218 4.64996 17.272 4.64996 16.084C4.64996 14.918 4.93596 13.972 5.52996 13.235C6.18996 12.399 7.13596 11.992 8.38996 11.992Z" fill="#3370FF"/>
<path d="M15.2809 12.146H16.6449L19.6699 20H18.3829L17.6459 17.976H14.2689L13.5319 20H12.2559L15.2809 12.146ZM14.6319 16.986H17.2829L15.9849 13.433H15.9409L14.6319 16.986Z" fill="#3370FF"/>
<path d="M23.188 11.992C24.101 11.992 24.816 12.179 25.333 12.575C25.883 12.982 26.191 13.609 26.268 14.467H25.08C24.97 13.961 24.772 13.587 24.464 13.367C24.156 13.136 23.716 13.026 23.122 13.026C22.605 13.026 22.209 13.103 21.934 13.257C21.593 13.433 21.428 13.719 21.428 14.115C21.428 14.467 21.615 14.742 22.011 14.951C22.187 15.05 22.638 15.215 23.375 15.435C24.431 15.765 25.124 16.018 25.432 16.205C26.103 16.612 26.444 17.173 26.444 17.899C26.444 18.603 26.169 19.153 25.619 19.56C25.069 19.956 24.299 20.154 23.309 20.154C22.352 20.154 21.604 19.956 21.065 19.582C20.416 19.12 20.064 18.394 19.998 17.404H21.186C21.274 18.02 21.494 18.471 21.846 18.735C22.165 18.977 22.649 19.098 23.309 19.098C23.903 19.098 24.376 18.988 24.728 18.79C25.08 18.592 25.256 18.317 25.256 17.965C25.256 17.525 25.003 17.184 24.508 16.931C24.332 16.843 23.815 16.667 22.946 16.403C21.978 16.095 21.384 15.886 21.142 15.754C20.537 15.391 20.24 14.863 20.24 14.181C20.24 13.488 20.526 12.949 21.109 12.553C21.659 12.179 22.352 11.992 23.188 11.992Z" fill="#3370FF"/>
</g>
</g>
</g>
</g>
</svg>
