<svg width="134" height="34" viewBox="0 0 134 34" xmlns="http://www.w3.org/2000/svg">
<g id="logo">
<path id="Vector" d="M15.5761 0.452676L29.7654 8.64309V25.0239L15.5761 33.2158L1.38824 25.0239V8.64009L15.5761 0.449693V0.452676ZM15.5761 0L1 8.41524V25.2458L15.5761 33.661L30.1521 25.2458V8.41975L15.5761 0.00448303V0Z" />
<g id="Group 11">
<path id="Vector_2" d="M90.8091 15.0902H95.4154L94.8158 18.298H90.8091V22.0769H96.3073L96.5532 25.5471H86.2852V7.95508H96.5591L96.3133 11.3577H90.8091V15.0902Z" />
<path id="Vector_3" d="M62.4051 17.8006V25.5204H59.0309L59.0159 24.7394C57.8357 25.353 56.683 25.6593 55.5578 25.6583H55.2235C54.0673 25.6583 53.1484 25.2141 52.4669 24.3257C52.0155 23.6322 51.7798 22.8206 51.7893 21.9933V21.9018C51.7893 20.3849 52.3215 19.3776 53.3858 18.8799C53.8215 18.5891 54.9282 18.4437 56.706 18.4437H58.5213V18.0195C58.5213 17.1461 58.3948 16.6464 58.142 16.5205C57.8662 16.3136 57.38 16.2102 56.6835 16.2102H53.065L53.1264 13.1163L57.2921 13.0039C59.7654 13.0039 61.2974 13.617 61.888 14.8431C62.2327 15.5517 62.4051 16.5375 62.4051 17.8006ZM55.9085 21.0069C55.7931 21.1433 55.6717 21.5885 55.6717 21.9063C55.6717 22.5958 56.0215 22.9406 56.721 22.9406C57.1417 22.9406 57.7413 22.7682 58.5198 22.4235V20.7371C58.5198 20.7371 56.3267 20.5078 55.9085 21.0069Z" />
<path id="Vector_4" d="M84.9158 17.8006V25.5204H81.5431L81.5266 24.7394C80.3474 25.353 79.1947 25.6593 78.0685 25.6583H77.7357C76.5785 25.6583 75.6591 25.2141 74.9776 24.3257C74.5268 23.632 74.2911 22.8205 74.3001 21.9933V21.9018C74.3001 20.3849 74.8322 19.3776 75.8965 18.8799C76.3342 18.5891 77.4409 18.4437 79.2167 18.4437H81.032V18.0195C81.032 17.1461 80.9055 16.6464 80.6527 16.5205C80.3769 16.3136 79.8907 16.2102 79.1942 16.2102H75.5817L75.6431 13.1163L79.8088 13.0039C82.2841 13.0039 83.8161 13.617 84.4047 14.8431C84.7454 15.5517 84.9158 16.5375 84.9158 17.8006ZM78.4252 21.0069C78.3098 21.1433 78.1899 21.5885 78.1899 21.9063C78.1899 22.5958 78.5397 22.9406 79.2392 22.9406C79.6609 22.9406 80.2605 22.7682 81.038 22.4235V20.7371C81.038 20.7371 78.845 20.5078 78.4252 21.0069Z" />
<path id="Vector_5" d="M108.469 17.8006V25.5204H105.096L105.079 24.7394C103.899 25.353 102.746 25.6593 101.621 25.6583H101.288C100.131 25.6583 99.2119 25.2141 98.5303 24.3257C98.0795 23.632 97.8438 22.8205 97.8528 21.9933V21.9018C97.8528 20.3849 98.3854 19.3776 99.4507 18.8799C99.8874 18.5891 100.994 18.4437 102.771 18.4437H104.585V18.0195C104.585 17.1461 104.459 16.6464 104.207 16.5205C103.931 16.3136 103.444 16.2102 102.747 16.2102H99.1284L99.1899 13.1163L103.356 13.0039C105.83 13.0039 107.362 13.617 107.951 14.8431C108.296 15.5517 108.469 16.5375 108.469 17.8006ZM101.972 21.0069C101.857 21.1433 101.737 21.5885 101.737 21.9063C101.737 22.5958 102.086 22.9406 102.786 22.9406C103.208 22.9406 103.807 22.7682 104.585 22.4235V20.7371C104.585 20.7371 102.392 20.5078 101.972 21.0069Z" />
<path id="Vector_6" d="M72.5651 25.5457H70.6164C70.2207 25.5457 69.8819 25.5352 69.6001 25.5112C68.9622 25.4862 68.3344 25.3429 67.7489 25.0885C67.1737 24.8171 66.7042 24.3634 66.4133 23.7978C66.0695 23.1433 65.8981 22.2674 65.8991 21.1702L65.8767 16.2355H64.0029V13.0322H65.8782V9.04492L69.7155 9.78391V13.0322H72.64L72.2398 16.2415H69.7095V20.9603C69.7095 21.0667 69.7095 21.1582 69.7215 21.2346C69.7303 21.4013 69.761 21.5661 69.813 21.7248C69.8741 21.8836 69.9722 22.0256 70.0992 22.139C70.2261 22.2524 70.3783 22.3339 70.543 22.3768C70.9371 22.5256 71.3478 22.6263 71.7661 22.6766C71.8576 22.6916 71.952 22.7036 72.0509 22.7111L72.2908 22.7336L72.5651 22.7456V25.5457Z" />
<path id="Vector_7" d="M132.698 18.1764V20.3949H125.635L125.62 20.7981C125.62 21.6436 125.957 22.1337 126.476 22.3166C126.924 22.4361 127.386 22.4936 127.849 22.4875H128.158C129.531 22.4875 131.536 22.1787 132.977 21.8879H132.999L132.419 25.0223C132.419 25.0612 131.745 25.3475 130.433 25.5604C129.491 25.6581 128.544 25.7041 127.597 25.6983C124.852 25.6983 123.079 24.7714 122.279 22.9177C121.979 22.1862 121.706 21.4187 121.706 20.6228V17.6248C121.706 15.4288 122.755 13.9658 124.601 13.2403C125.447 12.9688 126.331 12.8337 127.219 12.8401C129.806 12.8401 131.483 13.683 132.253 15.3688C132.55 16.0274 132.698 16.9633 132.698 18.1764ZM128.997 17.5918C128.997 16.7239 128.738 16.1423 128.365 15.9819C128.083 15.7916 127.647 15.7631 127.242 15.7631C126.213 15.7631 125.699 16.2472 125.698 17.2156L125.635 17.7987H128.997V17.5918Z" />
<path id="Vector_8" fill-rule="evenodd" clip-rule="evenodd" d="M42.5183 7.77734H35.7324V25.5462H42.5183C46.8413 25.5462 50.3475 22.6172 50.3475 19.0062V14.3189C50.3475 10.7078 46.8413 7.78634 42.5183 7.77734ZM45.9869 19.1591C45.9869 20.7615 44.4355 22.0596 42.5183 22.0611H40.2533V11.2685H42.5183C44.4355 11.2685 45.9869 12.5696 45.9869 14.1705V19.1591Z" />
<path id="Vector_9" d="M114.735 25.8947C114.015 25.8947 113.226 25.8532 112.367 25.7703C112.037 25.7373 111.698 25.6998 111.35 25.6548L110.536 25.5394L110.087 22.1487L110.961 22.486L112.038 22.7588C112.466 22.8188 112.867 22.8652 113.246 22.8982C113.697 22.9372 114.105 22.9567 114.471 22.9567C115.801 22.9567 116.57 22.9252 116.777 22.3811C116.892 22.1547 116.886 21.5386 116.759 21.3318C116.631 21.1249 116.358 20.8911 115.945 20.7217C115.768 20.6498 115.544 20.5718 115.276 20.4984L114.489 20.284C114.143 20.2075 113.831 20.1341 113.557 20.0531C113.203 19.9532 112.88 19.8488 112.587 19.7399C111.969 19.5266 111.396 19.2025 110.895 18.7835C110.515 18.4209 110.256 17.9497 110.154 17.4344C110.073 17.0072 110.064 16.5695 110.127 16.1393C110.292 14.7403 110.954 13.7809 112.112 13.2613C112.608 13.0344 113.135 12.8828 113.675 12.8116C113.914 12.7786 114.185 12.7516 114.489 12.7291L115.276 12.6797H115.807C116.406 12.6797 117.071 12.7127 117.8 12.7786L118.688 12.8686L119.437 12.9675L119.749 16.0149C119.256 15.9002 118.755 15.823 118.25 15.7841C117.548 15.7104 116.842 15.6834 116.137 15.7031C114.745 15.7031 113.929 15.6267 113.684 16.1933C113.639 16.3007 113.617 16.4168 113.62 16.5334C113.623 16.6501 113.652 16.7647 113.704 16.8693C113.838 17.1172 114.13 17.3345 114.581 17.5214C114.769 17.5993 115.007 17.6818 115.294 17.7687L117.105 18.2559C117.453 18.3558 117.764 18.4557 118.039 18.5557C118.592 18.7421 119.102 19.0355 119.542 19.4191C119.942 19.7768 120.214 20.2544 120.319 20.7802C120.398 21.3324 120.408 21.8924 120.347 22.447C120.182 23.8321 119.52 24.7914 118.361 25.3251C117.867 25.5564 117.339 25.7082 116.798 25.7748C116.559 25.8077 116.288 25.8362 115.984 25.8572L115.279 25.8992L114.735 25.8947Z" />
</g>
<path id="Vector_10" d="M15.5766 5.44028L25.4458 11.1364V22.5286L15.5766 28.2247L5.70879 22.5286V11.1364L15.5766 5.44028ZM15.5766 2.38086L3.05859 9.60744V24.0636L15.5766 31.2902L28.096 24.0636V9.60744L15.5766 2.38086Z" />
<path id="Vector_11" d="M9.51732 16.9849C9.2624 16.9862 9.01426 16.9028 8.81184 16.7478C8.60941 16.5929 8.46413 16.3751 8.3988 16.1287C8.33347 15.8823 8.35177 15.6212 8.45084 15.3863C8.54991 15.1514 8.72414 14.956 8.94621 14.8309L13.0249 12.4775C13.289 12.3304 13.6002 12.2931 13.8915 12.3736C14.1828 12.4541 14.4308 12.6458 14.582 12.9076C14.7331 13.1693 14.7752 13.4799 14.6993 13.7725C14.6234 14.065 14.4355 14.3159 14.1761 14.4711L10.0959 16.8245C9.92078 16.9285 9.72103 16.9839 9.51732 16.9849Z" />
<path id="Vector_12" d="M16.7379 12.8226C16.4845 12.8225 16.2382 12.7389 16.0372 12.5846C15.8362 12.4304 15.6917 12.2141 15.6261 11.9694C15.5606 11.7246 15.5776 11.4651 15.6745 11.231C15.7714 10.9969 15.9429 10.8013 16.1622 10.6746L17.6612 9.81416C17.7923 9.73323 17.9384 9.67945 18.0906 9.65599C18.2429 9.63254 18.3984 9.6399 18.5477 9.67762C18.6971 9.71534 18.8374 9.78267 18.9603 9.87561C19.0832 9.96855 19.1862 10.0852 19.2631 10.2187C19.3401 10.3521 19.3895 10.4997 19.4084 10.6526C19.4273 10.8055 19.4153 10.9607 19.3731 11.1089C19.331 11.2571 19.2595 11.3953 19.1629 11.5154C19.0663 11.6354 18.9466 11.7348 18.8109 11.8078L17.312 12.6682C17.1375 12.7694 16.9395 12.8226 16.7379 12.8226Z" />
<path id="Vector_13" d="M11.2227 20.4977C10.9692 20.498 10.7228 20.4146 10.5215 20.2604C10.3203 20.1063 10.1755 19.89 10.1097 19.6452C10.044 19.4004 10.0608 19.1407 10.1577 18.9065C10.2546 18.6722 10.4261 18.4765 10.6456 18.3497L10.6846 18.3272C10.9482 18.184 11.2573 18.1493 11.546 18.2305C11.8348 18.3118 12.0805 18.5025 12.2307 18.7622C12.3809 19.0218 12.4239 19.3298 12.3504 19.6207C12.277 19.9115 12.0929 20.1622 11.8373 20.3193L11.7984 20.3418C11.6236 20.4436 11.425 20.4974 11.2227 20.4977Z" />
<path id="Vector_14" d="M14.3599 18.7279C14.1066 18.7283 13.8603 18.6451 13.6591 18.4913C13.4578 18.3375 13.313 18.1216 13.2469 17.8771C13.1808 17.6326 13.1972 17.3731 13.2936 17.1388C13.3899 16.9046 13.5608 16.7087 13.7798 16.5814L19.3515 13.3316C19.4822 13.2521 19.6275 13.1995 19.7788 13.1768C19.9301 13.1541 20.0844 13.1618 20.2327 13.1994C20.381 13.2371 20.5203 13.3039 20.6425 13.396C20.7647 13.4881 20.8673 13.6036 20.9443 13.7358C21.0213 13.868 21.0712 14.0143 21.0911 14.166C21.1109 14.3177 21.1003 14.4718 21.0599 14.6194C21.0195 14.767 20.95 14.905 20.8557 15.0254C20.7613 15.1459 20.6438 15.2463 20.5102 15.3208L14.9385 18.5661C14.7634 18.6704 14.5637 18.7263 14.3599 18.7279Z" />
<path id="Vector_15" d="M12.9244 24.0106C12.671 24.0106 12.4247 23.9269 12.2237 23.7727C12.0227 23.6184 11.8783 23.4021 11.8127 23.1574C11.7471 22.9126 11.7641 22.6531 11.861 22.419C11.9579 22.1849 12.1294 21.9893 12.3488 21.8626L21.0593 16.8395C21.3239 16.6871 21.6382 16.6459 21.9331 16.7252C22.228 16.8045 22.4793 16.9976 22.6318 17.2622C22.7842 17.5268 22.8253 17.8411 22.7461 18.136C22.6668 18.4309 22.4736 18.6822 22.209 18.8346L13.5 23.8562C13.3251 23.9576 13.1265 24.0109 12.9244 24.0106Z" />
</g>
</svg>
