<svg width="32" height="32" viewBox="0 0 32 32" fill="none" xmlns="http://www.w3.org/2000/svg">
<g id="logo_oauth">
<g id="logo_oauth_2">
<mask id="mask0_3028_68887" style="mask-type:alpha" maskUnits="userSpaceOnUse" x="1" y="1" width="30" height="30">
<circle id="Ellipse 130" cx="16" cy="16" r="15" fill="white"/>
</mask>
<g mask="url(#mask0_3028_68887)">
<g id="OAUTH">
<path d="M4.43585 13.176C5.30785 13.176 5.99585 13.456 6.49985 14.024C6.97985 14.56 7.21985 15.272 7.21985 16.152C7.21985 17.032 6.97985 17.736 6.49985 18.272C5.99585 18.832 5.30785 19.112 4.43585 19.112C3.55585 19.112 2.86785 18.824 2.37185 18.264C1.89185 17.72 1.65985 17.016 1.65985 16.152C1.65985 15.28 1.89185 14.576 2.37185 14.032C2.86785 13.456 3.55585 13.176 4.43585 13.176ZM4.43585 14C3.84385 14 3.38785 14.2 3.05985 14.6C2.74785 14.984 2.59585 15.496 2.59585 16.152C2.59585 16.8 2.74785 17.312 3.05985 17.696C3.37985 18.088 3.84385 18.288 4.43585 18.288C5.02785 18.288 5.48385 18.096 5.80385 17.72C6.11585 17.344 6.27585 16.824 6.27585 16.152C6.27585 15.48 6.11585 14.952 5.80385 14.568C5.48385 14.184 5.02785 14 4.43585 14Z" fill="#3370FF"/>
<path d="M9.72698 13.288H10.791L12.975 19H11.975L11.455 17.568H9.06298L8.54298 19H7.54298L9.72698 13.288ZM9.34298 16.8H11.175L10.279 14.296H10.247L9.34298 16.8Z" fill="#3370FF"/>
<path d="M13.5327 13.288H14.4687V16.848C14.4687 17.344 14.5807 17.704 14.8127 17.944C15.0367 18.176 15.4047 18.296 15.9087 18.296C16.4047 18.296 16.7727 18.176 17.0047 17.944C17.2287 17.704 17.3487 17.344 17.3487 16.848V13.288H18.2847V16.832C18.2847 17.576 18.0767 18.144 17.6607 18.536C17.2447 18.92 16.6607 19.112 15.9087 19.112C15.1487 19.112 14.5647 18.92 14.1647 18.544C13.7407 18.144 13.5327 17.576 13.5327 16.832V13.288Z" fill="#3370FF"/>
<path d="M18.9677 13.288H23.6477V14.088H21.7757V19H20.8397V14.088H18.9677V13.288Z" fill="#3370FF"/>
<path d="M24.3295 13.288H25.2655V15.672H28.1615V13.288H29.0975V19H28.1615V16.472H25.2655V19H24.3295V13.288Z" fill="#3370FF"/>
</g>
</g>
</g>
</g>
</svg>
