<svg width="24" height="24" viewBox="0 0 24 24" fill="none" xmlns="http://www.w3.org/2000/svg">
<g id="logo_dingtalk">
<path id="Vector" d="M19.6422 9.97712C19.5836 10.19 19.5075 10.397 19.4137 10.5962H19.4157L19.404 10.6216C18.738 12.1177 16.9978 15.055 16.9978 15.055L16.99 15.0355L16.4822 15.9651H18.9313L14.2519 22.5L15.3143 18.0549H13.3847L14.0546 15.1156C13.5117 15.2523 12.873 15.4417 12.1133 15.6976C12.1133 15.6976 11.0879 16.3284 9.15638 14.4828C9.15638 14.4828 7.8537 13.2797 8.60953 12.977C8.92983 12.85 10.1681 12.6879 11.1426 12.5473C12.457 12.3598 13.2675 12.2602 13.2675 12.2602C13.2675 12.2602 9.21107 12.3247 8.24822 12.1645C7.28537 12.0063 6.06667 10.3189 5.80497 8.83655C5.80497 8.83655 5.40264 8.02213 6.66821 8.40688C7.93573 8.79163 13.1796 9.90681 13.1796 9.90681C13.1796 9.90681 6.36158 7.71355 5.90848 7.17842C5.45537 6.64329 4.5726 4.25277 4.68783 2.78604C4.68783 2.78604 4.73861 2.41887 5.09602 2.51652C5.09602 2.51652 10.1388 4.93829 13.5859 6.26049C17.033 7.58661 20.0289 8.26236 19.6422 9.97712Z" fill="#3296FA"/>
</g>
</svg>
