<svg width="32" height="32" viewBox="0 0 32 32" fill="none" xmlns="http://www.w3.org/2000/svg">
<g id="logo_lark">
<g id="Clip path group">
<mask id="mask0_3028_68917" style="mask-type:luminance" maskUnits="userSpaceOnUse" x="6" y="8" width="21" height="16">
<g id="clip0_1621:26250">
<path id="Vector" d="M26.5209 8H6.39999V24H26.5209V8Z" fill="white"/>
</g>
</mask>
<g mask="url(#mask0_3028_68917)">
<g id="Group">
<path id="Vector_2" d="M16.8551 16.4029C16.8715 16.3864 16.8891 16.3711 16.9055 16.3546C16.9395 16.3229 16.9724 16.29 17.0053 16.257L17.0733 16.1902L17.2782 15.9874L17.5567 15.7122L17.7957 15.4754L18.0204 15.2529L18.255 15.0216L18.4699 14.8089L18.7692 14.5129C18.8261 14.457 18.8843 14.4022 18.9435 14.3485C19.052 14.2487 19.1638 14.1534 19.2789 14.0613C19.3841 13.9769 19.4927 13.8957 19.6023 13.8168C19.7569 13.7072 19.9169 13.6041 20.0803 13.5077C20.2404 13.4134 20.4048 13.3246 20.5736 13.2434C20.7315 13.1667 20.8937 13.0966 21.0581 13.0318C21.1502 12.9957 21.2423 12.9617 21.3366 12.9299C21.3837 12.9134 21.4309 12.8981 21.4781 12.8838C21.056 11.2219 20.2842 9.70032 19.2438 8.4012C19.0421 8.14688 18.7329 8 18.4063 8H9.77647C9.61975 8 9.55503 8.19952 9.68111 8.2916C12.6169 10.4436 15.066 13.2182 16.8353 16.4215C16.8419 16.416 16.8485 16.4094 16.8551 16.4029Z" fill="#00D6B9"/>
<path id="Vector_3" d="M13.4326 24C17.8889 24 21.7707 21.5411 23.7966 17.9059C23.8679 17.7787 23.937 17.6494 24.0027 17.5189C23.8997 17.7162 23.7868 17.9026 23.6629 18.078C23.619 18.1405 23.5741 18.2019 23.527 18.2622C23.4689 18.3378 23.4086 18.4102 23.3472 18.4814C23.2978 18.5373 23.2485 18.5921 23.197 18.6459C23.0929 18.7544 22.9843 18.8563 22.8714 18.9528C22.8089 19.0065 22.7454 19.058 22.6795 19.1085C22.6028 19.1666 22.525 19.2225 22.4461 19.2762C22.3956 19.3102 22.3452 19.3431 22.2937 19.3738C22.2399 19.4067 22.1862 19.4384 22.1303 19.4691C22.0185 19.5316 21.9045 19.5887 21.7883 19.6413C21.6874 19.6873 21.5844 19.729 21.4802 19.7673C21.3673 19.809 21.2522 19.8451 21.136 19.878C20.9628 19.9263 20.7874 19.9635 20.6076 19.9921C20.4782 20.0118 20.3478 20.0271 20.2151 20.0359C20.077 20.0458 19.9367 20.0491 19.7953 20.0469C19.6407 20.0447 19.485 20.0348 19.3272 20.0173C19.2121 20.0052 19.0958 19.9877 18.9807 19.9679C18.8799 19.9504 18.779 19.9285 18.6771 19.9043C18.6234 19.8912 18.5707 19.878 18.517 19.8638C18.3679 19.8232 18.2199 19.7827 18.073 19.7399C17.9996 19.7191 17.9262 19.6971 17.8527 19.6752C17.743 19.6423 17.6334 19.6095 17.5249 19.5755C17.4361 19.5481 17.3462 19.5195 17.2574 19.4899C17.173 19.4626 17.0886 19.4351 17.0042 19.4067C16.9472 19.3869 16.889 19.3683 16.8321 19.3486C16.7619 19.3244 16.6929 19.3003 16.6238 19.2762C16.5745 19.2587 16.524 19.2411 16.4747 19.2236C16.376 19.1885 16.2785 19.1523 16.1809 19.1162C16.1238 19.0953 16.068 19.0734 16.011 19.0515C15.9354 19.023 15.8597 18.9934 15.784 18.9638C15.704 18.9319 15.625 18.9013 15.545 18.8684C15.4935 18.8475 15.442 18.8267 15.3905 18.8048C15.3269 18.7785 15.2622 18.7522 15.1986 18.7248C15.1493 18.7039 15.1 18.6831 15.0506 18.6623C14.9991 18.6403 14.9476 18.6184 14.8971 18.5955C14.8533 18.5757 14.8083 18.5571 14.7645 18.5373C14.7239 18.5198 14.6834 18.5011 14.6428 18.4836C14.6022 18.465 14.5606 18.4463 14.5201 18.4277C14.4773 18.4079 14.4356 18.3893 14.3929 18.3696C14.3391 18.3443 14.2866 18.3203 14.2328 18.2951C14.1769 18.2687 14.121 18.2424 14.0662 18.2161C14.007 18.1876 13.9478 18.1591 13.8886 18.1295C13.8382 18.1043 13.7878 18.0802 13.7373 18.055C11.069 16.7208 8.70103 14.9427 6.67954 12.7885C6.57868 12.6811 6.39999 12.7523 6.39999 12.8992L6.40438 20.515V21.1333C6.40438 21.4918 6.58198 21.8294 6.88016 22.0279C8.75695 23.2732 11.0098 24 13.4326 24Z" fill="#3370FF"/>
<path id="Vector_4" d="M23.7966 17.9059C23.7945 17.9091 23.7922 17.9124 23.7912 17.9158L23.7966 17.9059L23.8372 17.8313C23.823 17.8566 23.8098 17.8807 23.7966 17.9059Z" fill="#133C92"/>
<path id="Vector_5" d="M23.9819 17.5573L23.9929 17.5376L23.9983 17.5277C23.9929 17.5375 23.9873 17.5474 23.9819 17.5573Z" fill="#133C92"/>
<path id="Vector_6" d="M26.5209 13.2654C25.6175 12.8203 24.6013 12.5703 23.5258 12.5703C22.8867 12.5703 22.2685 12.658 21.683 12.8236C21.6151 12.8422 21.5482 12.863 21.4814 12.8838C21.4342 12.8992 21.387 12.9146 21.3399 12.9299C21.2457 12.9617 21.1535 12.9957 21.0614 13.0318C20.897 13.0966 20.7348 13.1667 20.577 13.2434C20.4081 13.3246 20.2437 13.4134 20.0836 13.5077C19.9192 13.6041 19.7602 13.7072 19.6056 13.8168C19.4949 13.8946 19.3874 13.9769 19.2822 14.0613C19.1671 14.1534 19.0553 14.2498 18.9468 14.3485C18.8876 14.4022 18.8294 14.457 18.7725 14.5129L18.4732 14.8089L18.2583 15.0216L18.0237 15.2529L17.799 15.4754L17.56 15.7122L17.2815 15.9874L17.0766 16.1902L17.0086 16.257C16.9757 16.29 16.9417 16.3218 16.9088 16.3546C16.8924 16.3711 16.8748 16.3864 16.8584 16.4029C16.8332 16.427 16.8079 16.4511 16.7827 16.4752C16.7542 16.5015 16.7268 16.5278 16.6983 16.5542C15.9594 17.2327 15.1339 17.8193 14.2405 18.2939C14.2931 18.3191 14.3469 18.3444 14.4006 18.3685C14.4422 18.3882 14.485 18.4079 14.5278 18.4266C14.5683 18.4452 14.6099 18.4638 14.6505 18.4825C14.691 18.5011 14.7316 18.5186 14.7722 18.5362C14.8161 18.5559 14.861 18.5757 14.9049 18.5943C14.9564 18.6162 15.0068 18.6393 15.0583 18.6612C15.1077 18.682 15.157 18.7029 15.2063 18.7237C15.2699 18.751 15.3346 18.7774 15.3982 18.8037C15.4497 18.8246 15.5012 18.8454 15.5527 18.8673C15.6317 18.899 15.7117 18.9309 15.7917 18.9626C15.8674 18.9922 15.943 19.0218 16.0186 19.0504C16.0757 19.0723 16.1316 19.0931 16.1886 19.115C16.2862 19.1512 16.3837 19.1874 16.4824 19.2225C16.5317 19.24 16.581 19.2575 16.6314 19.2751C16.7006 19.2992 16.7707 19.3234 16.8398 19.3474C16.8967 19.3672 16.9549 19.3869 17.0118 19.4055C17.0962 19.4341 17.1807 19.4614 17.2651 19.4889C17.3539 19.5174 17.4427 19.5458 17.5326 19.5744C17.6411 19.6083 17.7507 19.6413 17.8604 19.6742C17.9338 19.6961 18.0073 19.718 18.0807 19.7388C18.2276 19.7816 18.3756 19.8232 18.5247 19.8627C18.5784 19.877 18.631 19.8912 18.6848 19.9033C18.7867 19.9274 18.8876 19.9482 18.9884 19.9668C19.1046 19.9877 19.2198 20.0041 19.3349 20.0162C19.4916 20.0337 19.6484 20.0436 19.803 20.0458C19.9444 20.048 20.0836 20.0446 20.2228 20.0348C20.3554 20.025 20.4859 20.0107 20.6153 19.991C20.795 19.9635 20.9705 19.9252 21.1437 19.877C21.2599 19.8451 21.375 19.8079 21.4879 19.7662C21.5921 19.7278 21.6951 19.6862 21.796 19.6402C21.9122 19.5875 22.0262 19.5306 22.138 19.468C22.1928 19.4374 22.2476 19.4055 22.3014 19.3726C22.3529 19.3409 22.4033 19.308 22.4538 19.2751C22.5326 19.2214 22.6105 19.1654 22.6872 19.1074C22.7519 19.057 22.8166 19.0054 22.879 18.9517C22.992 18.8552 23.1006 18.7522 23.2046 18.6447C23.2562 18.591 23.3055 18.5373 23.3549 18.4803C23.4162 18.409 23.4766 18.3367 23.5346 18.261C23.5807 18.2007 23.6267 18.1394 23.6706 18.0769C23.7934 17.9026 23.9052 17.7173 24.0071 17.5222L24.1222 17.2919L25.1659 15.2123L25.1637 15.2167C25.4915 14.4844 25.9552 13.8245 26.5209 13.2654Z" fill="#133C9A"/>
</g>
</g>
</g>
</g>
</svg>
