<svg width="32" height="32" viewBox="0 0 32 32" fill="none" xmlns="http://www.w3.org/2000/svg">
<g id="logo_cas">
<g id="logo_cas_2">
<mask id="mask0_3028_68898" style="mask-type:alpha" maskUnits="userSpaceOnUse" x="1" y="1" width="30" height="30">
<circle id="Ellipse 130" cx="16" cy="16" r="15" fill="white"/>
</mask>
<g mask="url(#mask0_3028_68898)">
<g id="CAS">
<path d="M3.03105 12.86H4.11105V19.07H8.04106V20H3.03105V12.86ZM8.93926 12.86H11.5393C12.6893 12.86 13.5593 13.18 14.1593 13.83C14.7193 14.43 14.9993 15.3 14.9993 16.43C14.9993 17.55 14.7093 18.42 14.1393 19.04C13.5393 19.68 12.6693 20 11.5193 20H8.93926V12.86ZM10.0293 13.79V19.07H11.3193C12.2193 19.07 12.8893 18.85 13.3093 18.42C13.7193 17.99 13.9293 17.33 13.9293 16.43C13.9293 15.51 13.7193 14.85 13.3193 14.43C12.8993 14 12.2393 13.79 11.3393 13.79H10.0293ZM18.1572 12.86H19.3972L22.1472 20H20.9772L20.3072 18.16H17.2372L16.5672 20H15.4072L18.1572 12.86ZM17.5672 17.26H19.9772L18.7972 14.03H18.7572L17.5672 17.26ZM22.8455 12.86H25.8055C27.5055 12.86 28.3555 13.58 28.3555 15.03C28.3555 16.49 27.4955 17.22 25.7855 17.22H23.9355V20H22.8455V12.86ZM23.9355 13.79V16.29H25.7155C26.2555 16.29 26.6455 16.19 26.8955 15.99C27.1355 15.79 27.2655 15.47 27.2655 15.03C27.2655 14.59 27.1355 14.27 26.8855 14.09C26.6355 13.89 26.2455 13.79 25.7155 13.79H23.9355Z" fill="#3370FF"/>
</g>
</g>
</g>
</g>
</svg>
