<svg id="图层_1" data-name="图层 1" xmlns="http://www.w3.org/2000/svg" viewBox="0 0 80 72.5"><defs><style>.cls-1{fill:#dee0e3;}.cls-1,.cls-2,.cls-3{fill-rule:evenodd;}.cls-2{fill:#bbbfc4;}.cls-3,.cls-4{fill:#eff0f1;}</style></defs><title>icon_map_gray light</title><path class="cls-1" d="M69.464,9.115c.06-.094.221-.215.161-.349s-.161-.188-.221-.114a.6.6,0,0,1-.443.262,1.081,1.081,0,0,0-.623.388c-.061.094-.221.094-.349.222s-.422.348-.516.476-.074.134-.255.2a2.1,2.1,0,0,1-.563.073c-.261.021-.369.074-.422-.033s-.2-.255-.2-.436-.021-.382-.108-.442-.053-.061-.114-.222-.3-.073-.4-.113S65.046,8.954,65,8.86s-.107-.288-.308-.315a1.055,1.055,0,0,0-.315-.034,1.062,1.062,0,0,1-.362.014.807.807,0,0,0-.382-.061,1.333,1.333,0,0,1-.456.014c-.141-.04-.255-.215-.335-.4a2.592,2.592,0,0,1-.148-.423,1.623,1.623,0,0,0-.235-.456,5.019,5.019,0,0,1-.335-.442c-.087-.161-.161-.362-.234-.5s-.188-.221-.289-.4-.127-.309-.181-.423-.234-.348-.308-.482a.41.41,0,0,0-.288-.262c-.2-.074-.369-.255-.516-.275s-.4-.04-.771-.114a5.468,5.468,0,0,0-.6-.107,1.281,1.281,0,0,0-.476-.033,1.348,1.348,0,0,0-.59.147l-.677.255-.02.025a.519.519,0,0,0-.207-.031.866.866,0,0,0-.731.409,1.841,1.841,0,0,0-.4.8c.02.2.127.108.288.108s.2.02.215.181.087.268-.054.395a3.175,3.175,0,0,0-.409.751,4.774,4.774,0,0,0-.57,1.267c.02.248.141.375-.053.5a2.049,2.049,0,0,0-.5.395c-.181.2-.107.3-.4.181a2.645,2.645,0,0,0-.73-.181c-.088,0-.161.128-.342.3a7.244,7.244,0,0,0-.57,1.415c-.087.234-.3.59-.268.8a.738.738,0,0,0,.355.57c.2.074.161.02.429-.034s.355-.234.516-.194.248.322.483.235.141-.2.409-.322.127-.2.409-.107a1.253,1.253,0,0,1,.536.268,2.292,2.292,0,0,1,.59.61c.054.161.215.288,0,.322a4.3,4.3,0,0,0-1.126.107,5.679,5.679,0,0,1-.644.268c-.375.141-.321.248-.57.355a1.149,1.149,0,0,0-.516.409c-.087.141-.127.2-.321.463s-.342.375-.537.4-.235-.053-.462.054a.8.8,0,0,0-.43.322c-.127.181-.18.409-.449.429a.823.823,0,0,1-.516-.074,4.678,4.678,0,0,0-.784-.288.875.875,0,0,0-.537.268,3.243,3.243,0,0,0-.429.838c-.053.181.249.7.289.858s-.268.4-.356.429a8.347,8.347,0,0,0-.73.61,1.778,1.778,0,0,1-.57.409c-.235.087-.235.215-.557.235s-.931.033-1.126.02a1.706,1.706,0,0,0-.771.053,11.123,11.123,0,0,0-1.052.45c-.322.127-.289.107-.7.268s-.61.141-.61.053-.248-.194-.355-.194a1.792,1.792,0,0,1-.751-.087,5.329,5.329,0,0,0-.8-.429c-.342-.128-.376-.054-.483-.248a1.119,1.119,0,0,0-.482-.376,3.272,3.272,0,0,0-.825-.288c-.322-.074-.449.034-.838.034a2.048,2.048,0,0,1-.731-.034c-.375-.087-.536-.127-.965-.235s-.3-.16-.537-.16-.542.006-.542.006.362,1.187.362,1.368-.161.59-.061.811.3.315.362.637.174.543.416.543a6.19,6.19,0,0,0,.891-.208c.282-.06.369-.154.429.081s.141.254-.127.415-.462.349-.442.489-.034.114.16.255.456.128.51.221a3.365,3.365,0,0,1,.282.416c.107.208.194.221.268.4s-.047.234.141.382.315.114.368.221.208.154.335.221.282-.013.409-.127.141-.416.289-.429.067,0,.368.06a1.222,1.222,0,0,0,.651-.107.451.451,0,0,1,.362-.047c.207.06.281.114.221.268s-.034.255-.235.382a1.146,1.146,0,0,0-.409.349.985.985,0,0,0-.14.5c0,.161.08.221.221.382s.174.53.623.691.356-.108.785-.108a1.422,1.422,0,0,0,1.092-.355c.161-.248.074-.181.181-.429s.087-.59.181-.8.215-.556.356-.536.14.215.107.3a1.642,1.642,0,0,0-.181.663c.013.269-.034.2.214.342s.054-.087.45.215.181.054.536.322a1.079,1.079,0,0,0,1.052.127c.342-.107.128.107.409-.3a3.414,3.414,0,0,0,.429-.837,2.745,2.745,0,0,1,.644-.825c.181-.181.127-.074.57-.161s.268-.141.623-.214.785-.054.825-.342.054-.677.161-.731.214,0,.623,0a1.19,1.19,0,0,0,.825-.342c.127-.127.462-.463.449-.61a2.414,2.414,0,0,1,0-.731c.054-.194-.288-.322.161-.3s.516.268.8.033a1.621,1.621,0,0,1,.751-.409,1.265,1.265,0,0,0,.7-.342c.128-.161-.033-.375.45-.375s.409-.02.5.214a5.458,5.458,0,0,1,.2.61c.053.215-.074.429.449.409a3.121,3.121,0,0,0,.589-.064c-.075.057-.189.149-.207.205a.646.646,0,0,0-.014.429c.061.154.188.147.322.241s.322.054.342.148.08.12.134.254a1.5,1.5,0,0,0,.282.336.521.521,0,0,0,.087-.054.247.247,0,0,0,.04-.06.084.084,0,0,1,.054-.061.253.253,0,0,0,.1-.04c.014-.013.141-.134.148-.134a.322.322,0,0,1,.107-.047c.04-.007.114-.04.114-.074s0-.08.02-.1.047-.054.054-.06.026-.021.013-.027-.067.006-.054-.02a.537.537,0,0,0,.041-.061.263.263,0,0,1,.04-.074c.02-.02.073-.1.094-.127a.579.579,0,0,0,.053-.087.267.267,0,0,1,.054-.074c.027-.02.074-.033.087-.047s.02-.027,0-.033-.094-.041-.087-.054.027-.02.067-.047.047-.04.067-.053a.261.261,0,0,1,.047-.047.263.263,0,0,0,.06-.061c.007-.013.02-.033.027-.047s.014-.026.027-.006a.049.049,0,0,0,.047.02c.013,0,.027.007.033-.02s-.006-.061.02-.034.068.061.1.061a.408.408,0,0,0,.087,0c.014-.007.02-.021.047-.014s.054.014.06-.007.014-.033.027-.013.014.054.027.04.02-.027.04-.04.061-.04.047-.067-.033-.04-.033-.074.013-.067.033-.053.061.073.061.046-.014-.08,0-.073a.288.288,0,0,1,.06.067.349.349,0,0,1,.08.161c.007.073-.006.073.014.114a.33.33,0,0,0,.107.093c.027.007.033.014.047.007a.02.02,0,0,1,.033.014.1.1,0,0,0,.021.087.3.3,0,0,0,.087.094.108.108,0,0,1,.04.107.562.562,0,0,1-.067.127c-.027.04-.074.087-.06.114a.136.136,0,0,1,0,.087c-.007.027-.027.034-.041.047s-.047.02-.04.047,0,.054-.013.061-.02.006-.041.046a.476.476,0,0,1-.04.068s-.04.006-.04.04.02.04.007.06-.061.074-.074.074-.027,0-.047.013a.155.155,0,0,1-.067.047c-.027.014-.114.06-.127.114a.155.155,0,0,0,.02.134c.027.04.074.074.06.107,0,.007-.027-.02-.054-.013a.384.384,0,0,0-.1.06c-.027.014-.047.014-.067.027a.207.207,0,0,0-.054.1c0,.007.007.02.034.02s.033-.02.074-.027a.158.158,0,0,1,.093.007c.014,0,.02.007.007.02s-.007.02,0,.04-.087-.027-.107-.007-.074.047-.074.067a.1.1,0,0,0,.027.061c.007.006.033-.067.04-.074s.034-.013.034,0a.2.2,0,0,1-.02.06c.006.014.033.02.06.014a.359.359,0,0,1,.08-.027c.02,0,.034.027.041.027a.155.155,0,0,0,.093,0,.124.124,0,0,0,.074-.041c.007-.013.007-.053.034-.033s.02.013.067.007.107-.047.134-.047.033.02.006.033-.06.047-.08.047-.094-.007-.1.027,0,.067-.02.087a.065.065,0,0,1-.06.027c-.033,0-.08,0-.054.027a.32.32,0,0,0,.041.027s.026,0,0,.02-.061.04-.047.06.02.014.047.014.06.013.04.046-.027.088-.067.121a.174.174,0,0,1-.114.054c-.02,0-.014,0-.027-.007s-.034-.034-.06-.02-.054.027-.041.054.02.047.007.067a.16.16,0,0,1-.087.047.185.185,0,0,1-.06.006c-.027,0-.081,0-.074.034s.007.033.027.04.033.007.027.027-.021.033-.007.053a.114.114,0,0,1,.013.061c0,.013-.006.053.014.067s.067.02.067-.02.006-.074.047-.074a.1.1,0,0,0,.067-.02.148.148,0,0,1,.087-.04c.04,0,.094.006.114-.027s.013-.06.067-.06.134,0,.12-.041a.068.068,0,0,0-.053-.053c-.02-.007-.114-.02-.087-.054a.1.1,0,0,1,.073-.04c.02,0,.054.006.061-.02s0-.054.027-.034.046.067.093.094.081.02.068-.013-.007-.034-.021-.054.007-.06.027-.06.007-.007.034-.027a.892.892,0,0,0,.087-.061c.006-.006.033-.006.033-.026l.007-.027-.027-.04c-.013-.02.04-.067.054-.081s.053-.007.067-.04-.027-.081-.007-.1.148-.154.2-.147a.075.075,0,0,0,.087-.04c.014-.02.007-.054.021-.067s.046.033.053.006.04-.04.047-.06.02-.027.04-.047a.659.659,0,0,1,.067-.04c.021-.014.061-.054.088-.074a.768.768,0,0,0,.08-.067c.08-.054.161-.007.188-.007a.058.058,0,0,0,.06-.026.169.169,0,0,0,.014-.074c-.021-.04-.034-.034.006-.074.074-.074.2.047.215.034s.053-.007.073-.041.047-.067.061-.093.033-.094.067-.088.013.007.033.014.041.04.074.047.054-.027.1-.087c.013-.021.033-.041.047-.027s.053.08.08.073a.083.083,0,0,0,.054-.006.485.485,0,0,0,.1-.114.517.517,0,0,0,.02-.081c.007-.02,0-.02.027-.04s.074-.087.081-.094a.085.085,0,0,0,.006-.06.083.083,0,0,1,.014-.067.235.235,0,0,1,.08-.094c.047-.027.081-.1.094-.114a.477.477,0,0,0,.067-.054c.013-.02.027-.026.034-.053s.02-.087.047-.1a.514.514,0,0,1,.147-.087c.047-.007.054-.033.087-.033s.081.033.087-.027a.135.135,0,0,1,.081-.121c.06-.04.12-.067.181-.1a.474.474,0,0,0,.154-.113c.033-.047.1-.108.107-.155l0-.01a.371.371,0,0,0,.213.043c.128-.033.2-.369.342-.5A2.082,2.082,0,0,0,64,19.506c.033-.081.113-.081.227-.034s.4.2.564.114.61-.067.663-.208a2.492,2.492,0,0,0,.081-.5c.013-.161-.034-.368.288-.388s.369-.228.436-.309.114-.308.275-.422.12-.59.274-.49.3.027.4.1.235.081.248.007.034-.114-.033-.161-.128-.188-.074-.221a.407.407,0,0,1,.194-.121.452.452,0,0,0,.275-.355c0-.128.014-.3.014-.416a2.189,2.189,0,0,0-.014-.235l-.044.019c0-.009,0-.017,0-.025a5.712,5.712,0,0,1-.114-.637,4.754,4.754,0,0,0-.215-.677c-.02-.094-.114-.329-.013-.443a3.118,3.118,0,0,0,.295-.348c.06-.094.013-.108.214-.094a7.253,7.253,0,0,0,.731.02.475.475,0,0,0,.362-.221c.02-.094-.04-.168-.02-.409s.094-.235.127-.369a1.532,1.532,0,0,1,.087-.456,1.247,1.247,0,0,0,.108-.482,3.083,3.083,0,0,1-.034-.483,3.846,3.846,0,0,0,.02-.476c0-.127-.02-.328.04-.4a2.015,2.015,0,0,0,.255-.476,1.968,1.968,0,0,0-.134-.456C69.43,9.289,69.4,9.209,69.464,9.115Z"/><path class="cls-2" d="M52.464,42.179a.41.41,0,0,0-.033-.221c-.061-.127.134-.308.14-.422s.081-.154.168-.228.033-.107-.161-.054-.053-.127-.027-.348.054-.148-.114-.215a.192.192,0,0,1-.134-.275c.04-.114.027-.147-.06-.288s-.027-.134.027-.3-.027-.154-.148-.1-.134-.006-.161-.14a.389.389,0,0,1,.074-.349.3.3,0,0,0,.06-.261c0-.088.114-.121.248-.168s.067-.121.061-.181.121-.121.221-.228.014-.174-.08-.268-.034-.081-.034-.174a.418.418,0,0,0-.127-.289.878.878,0,0,0-.188-.167c-.02-.014-.04-.02-.047-.034a.126.126,0,0,1-.033-.08c0-.02,0-.074-.027-.074s-.114.034-.148-.013a.228.228,0,0,1-.047-.168.241.241,0,0,1,.061-.107.264.264,0,0,0,.06-.121A.091.091,0,0,0,52,36.85c-.014-.014-.047-.02-.041-.054s.014-.08.014-.1.006-.047-.02-.054-.074-.013-.081-.034-.013-.033-.04-.06-.1-.107-.1-.107-.114.134-.154.174-.161.248-.2.282a.144.144,0,0,1-.107.047.215.215,0,0,1-.127-.067.172.172,0,0,1-.047-.121c0-.034.04-.081.047-.107a.221.221,0,0,0,.013-.067.066.066,0,0,0-.027-.047.076.076,0,0,0-.107-.014.233.233,0,0,0-.067.1c-.014.027-.027.074-.054.094s-.08.067-.12.067a.18.18,0,0,1-.088-.014.161.161,0,0,0-.094-.013.277.277,0,0,0-.107.054c-.027.026-.053.053-.087.053a.294.294,0,0,1-.1-.033,1.859,1.859,0,0,1-.175-.141c-.02-.02-.107-.087-.134-.114s-.094-.1-.107-.114a.242.242,0,0,0-.107-.067c-.054-.013-.175,0-.248-.007a2.281,2.281,0,0,1-.349-.087c-.081-.034-.235-.107-.268-.121a.426.426,0,0,0-.161-.033.15.15,0,0,0-.127.033c-.034.014-.054.047-.088.041a.816.816,0,0,0-.174-.014.088.088,0,0,0-.04.107.55.55,0,0,0,.094.181c.027.034.073.088.04.108a1.112,1.112,0,0,0-.141.094c-.027.02-.107.093-.154.067a.4.4,0,0,1-.094-.088.2.2,0,0,0-.107-.06.575.575,0,0,0-.221-.013.418.418,0,0,0-.228.073c-.054.047-.1.128-.134.135s-.074,0-.094.006a.145.145,0,0,0-.054.04c-.013.014-.047.014-.067.034a.29.29,0,0,0-.08.127c-.007.047.013.108,0,.128a.445.445,0,0,1-.041.06c-.013.02-.033.034-.053.067s-.121.275-.121.275a1.516,1.516,0,0,0-.154.416c.013.08.033.415.047.516a1.439,1.439,0,0,1,.067.482c-.034.168,0,.336-.034.463s-.7.9-.429.979.369.08.382.281a2.715,2.715,0,0,0,.181.765c.1.234.3.315.53.482s.717-.147.878-.234.268-.215.463-.114a.493.493,0,0,1,.235.5c0,.2-.316.865-.182,1.046a1.027,1.027,0,0,0,.745.4,2.873,2.873,0,0,0,1.146-.114,3.442,3.442,0,0,0,1.066-.382c.3-.2.5-.4.6-.449C52.525,42.515,52.464,42.179,52.464,42.179Z"/><path class="cls-2" d="M47.5,47.521c-.007-.014.02-.014.013-.034s-.013-.04-.013-.053-.007-.014-.007-.02-.006-.094.007-.094.034.074.04.067a.364.364,0,0,0,.2-.174c.134-.235.174-.148.409-.161.06-.007.1-.061.12-.067.047-.014.114-.054.1-.094-.007-.02-.061-.047-.061-.067a.314.314,0,0,0,0-.081c-.006-.013-.033-.02-.026-.047.013-.06.053-.107.1-.047s.074.054.141.007c.02-.013.04,0,.067-.007.06-.02.127-.107.127-.067a1.1,1.1,0,0,0-.02-.167c-.02-.054.047-.047.047-.061s-.047-.1,0-.147a.982.982,0,0,1,.262-.188.069.069,0,0,0,.04-.067c.007-.073.06-.053.121-.047s.127.007.147-.026c.04-.054.081-.141.154-.235.134-.188-.02-.376-.013-.5a.735.735,0,0,1,.208-.382.2.2,0,0,0,.12-.168c0-.087.067-.087.141-.087s.081-.127.148-.167.04-.067-.014-.208.047-.161.114-.2a.222.222,0,0,0,.047-.274c-.053-.094-.04-.168-.087-.228s.08-.208.08-.208L49.9,43.21a.212.212,0,0,0-.114.061c-.054.053-.094.114-.141.114s-.08-.027-.08-.067.013-.094.013-.148-.013-.114-.013-.168,0-.194-.054-.2-.08.014-.114.034-.033.007-.033-.027-.034-.06-.081-.033a.215.215,0,0,0-.094.093.217.217,0,0,1-.093.114c-.054.034-.134.114-.128.014s.02-.248.054-.262.087-.02.1-.053a1.216,1.216,0,0,1,.128-.222.486.486,0,0,0,.134-.288c-.014-.094-.02-.167.013-.187a.86.86,0,0,0,.134-.094c.034-.034.054-.114-.053-.108s-.175.054-.188-.033a.488.488,0,0,1,0-.242c.027-.053.087-.16.027-.214a.2.2,0,0,0-.114-.06.516.516,0,0,1-.161-.054c-.027-.027-.027-.08-.074-.033a.688.688,0,0,1-.114.1c-.047.02-.073.013-.141-.013s-.134-.047-.174-.027a.275.275,0,0,0-.094.1c-.02.041-.094.074-.114.128s-.053.047-.073.094-.094.154-.135.093-.066-.093-.093-.06-.121.054-.114-.02.026-.094-.007-.114-.074-.053-.114-.033-.047.033-.067.067-.034.094-.054.12-.094-.006-.08.054.06.094.033.134-.033.034-.093.034-.114-.021-.074-.067.067-.061.013-.094-.053-.014-.114-.014-.094-.02-.127.007a.566.566,0,0,0-.061.053c-.026.034-.046.088-.093.155s-.074.187-.155.147-.107-.1-.187-.094a.153.153,0,0,0-.141.081c-.027.053-.094.12-.034.094s.121-.047.108.006-.034.094-.007.114.04.081-.007.081-.1-.014-.147-.014a.145.145,0,0,1-.128-.047c-.026-.04-.026-.093-.087-.067s-.053.027-.087.081-.053.074-.053.114.02.154-.014.147a.322.322,0,0,1-.114-.073c-.04-.034-.054-.094-.127-.121s-.1-.034-.134,0-.034.02-.074.054-.094.04-.094.107,0,.181-.06.221a.708.708,0,0,1-.168.074c-.053.013-.194.073-.2.033s-.027-.154-.054-.134-.053.014-.06-.033-.007-.134-.054-.081a.566.566,0,0,1-.127.094c-.033.027-.027.047-.054.013a.477.477,0,0,1-.093-.154c0-.033.013-.06-.027-.087s-.061-.027-.067-.08a.2.2,0,0,0-.087-.148c-.047-.02-.088-.033-.121-.013s-.174.08-.2.174a.583.583,0,0,0,0,.188c0,.06.007.1-.013.06s-.04-.087-.067-.033.007.073-.074.073-.154-.053-.228.007-.093.087-.167.134a.664.664,0,0,1-.235.114c-.047,0-.154-.033-.154.027s.047.08.033.134a.14.14,0,0,1-.08.094l-.114.094a.091.091,0,0,1-.06-.014c-.04-.013-.067-.053-.114-.053a.229.229,0,0,1-.168-.027.589.589,0,0,0-.127-.067.8.8,0,0,1-.188-.107c-.033-.034-.047-.074-.074-.094s-.094-.02-.14-.041a.4.4,0,0,1-.074-.04s-.034-.073-.074-.04-.134.087-.154.127a.378.378,0,0,1-.08.141.815.815,0,0,1-.155.067.861.861,0,0,0-.12.081c-.034.026-.094.06-.141.02s-.067-.074-.108-.094a.245.245,0,0,0-.073-.014s-.436-.194-.235.376.356.436.684.6.711.188.731.356.094.261.094.4a.475.475,0,0,1-.041.255c-.027.026-.154.1-.154.14s-.027.088.074.168a.645.645,0,0,0,.355.194,1.638,1.638,0,0,1,.4.061c.094.047.369-.014.342.2a1.12,1.12,0,0,0,.007.536c.06.268.047.423.282.61a4.1,4.1,0,0,0,.442.309c.04.033.476.006.624.06a.893.893,0,0,0,.368,0h.074l.027.013-.007.067s.04.014.054.007.026-.007.02-.02-.034-.047-.014-.047.081,0,.094.02.014.027.034.027.067,0,.067-.013a.038.038,0,0,0-.007-.027c-.013-.014-.04-.027-.027-.047a.758.758,0,0,1,.054-.061s.02-.006.02.021.014.04.02.06a.127.127,0,0,1-.006.047c-.007.013-.034.033-.027.053s.027.007.04,0a.22.22,0,0,0,.074-.093.646.646,0,0,0,.013-.088c0-.02.007-.066.033-.06s.021.02.021.04-.014.041,0,.041a.2.2,0,0,0,.033-.027c.007-.007.04-.034.061-.014s.026.027.02.067-.02.027-.034.047-.033.041-.013.041a.051.051,0,0,0,.053-.02,1.023,1.023,0,0,0,.081-.081c.02-.02.033-.074.02-.08a.041.041,0,0,0-.027-.007c-.013,0-.054.007-.04-.02s.013-.027.027-.034-.014-.053-.014-.053-.053-.067-.047-.088.04-.046.054-.06.033-.033.04-.02.007.054.027.054.02-.007.04-.007.034,0,.027.013a.948.948,0,0,0-.054.081c-.006.02-.013.06.007.08s.027.027.054.027.073-.02.094-.013.013.006.013.033,0,.02.013.02.021.02-.006.027-.041.027-.027.04.027.007.033.02a.031.031,0,0,0,.047.014c.027-.014.02-.014.047-.014s.081.007.067-.013a.379.379,0,0,0-.047-.06c-.013-.014-.04-.02-.033-.047a.407.407,0,0,1,.047-.121c.013-.007.02,0,.033.02s.027.04.041.04.046.007.026.021-.047.026-.047.053a.135.135,0,0,0,.027.087.306.306,0,0,0,.074.061c.02,0,.047-.007.054-.007a.039.039,0,0,1,.047,0c.013.013.026.047.06.047s.074.007.074.033-.007.047-.021.054-.006.013-.026.007-.04-.014-.054,0-.047.053-.033.067.006.02.033.027a.094.094,0,0,1,.047.02c.007.006.007.013.04.013s.04-.007.047-.02.027-.02.034-.047.013-.054.027-.034.02.054.04.054a.112.112,0,0,0,.047-.006.151.151,0,0,1,.067-.021.254.254,0,0,0,.073,0,1.031,1.031,0,0,0,.135-.047.09.09,0,0,0,.053-.067.133.133,0,0,0-.013-.053c-.007-.02.006-.047-.027-.067a.345.345,0,0,0-.054-.027.021.021,0,0,1,0-.034c.02-.02.054-.033.067-.047a.253.253,0,0,0,.047-.046c.014-.021.007-.034.02-.021s.034.034.027.047-.06.041-.053.061-.007.033.006.047a.112.112,0,0,1,.027.06.151.151,0,0,0,.04.1c.034.027.041.047.061.054A.133.133,0,0,1,47.5,47.521Z"/><path class="cls-2" d="M38.507,41.112c-.108.027-.329.127-.356-.054s-.12-.154-.167-.154-.047-.067-.014-.1a.122.122,0,0,0-.033-.2c-.107-.067-.235-.187-.168-.214s.047-.074.074-.114.007-.061.04-.067-.013-.074-.047-.054-.114.06-.087-.033-.127-.168-.154-.222-.134-.1-.074-.241c.047-.114.007-.127-.04-.107-.074.033-.08-.1-.094-.175a.413.413,0,0,0-.033-.107,1.185,1.185,0,0,1-.128-.335c0-.06-.094-.107-.094-.168s-.06-.08-.033-.127-.074-.107-.107-.047-.067.067-.114.034-.1-.041-.134.04-.148.08-.121.013.007-.114-.047-.12-.04-.088-.114-.155-.141-.207-.067-.241.2-.114.174-.2a.763.763,0,0,0-.053-.134c-.034-.074-.021-.134-.114-.134s-.148-.2-.248-.262a.191.191,0,0,1-.061-.147c0-.04-.047-.054-.141.054s-.046.174-.14.207-.134,0-.128.114a.71.71,0,0,1-.026.3c-.027.053-.014.1-.054.054s-.027-.108-.067-.148a.473.473,0,0,1-.094-.2,1.97,1.97,0,0,1-.027-.51,1.291,1.291,0,0,0,.04-.227,1.727,1.727,0,0,1,.034-.228.107.107,0,0,0-.04-.094c-.047-.04-.181-.007-.262.08s-.268.061-.362.262a1.846,1.846,0,0,1-.308.57c-.134.113-.282.16-.322.214a1.258,1.258,0,0,0-.1.389,1.477,1.477,0,0,0,.113.6c.094.168-.026.141.2.141s.194-.034.214.08a2.406,2.406,0,0,1-.06,1.026,4.13,4.13,0,0,1-.389.825,5.062,5.062,0,0,1-.523.543,3.333,3.333,0,0,0-.657.677,2.459,2.459,0,0,0-.147.885c-.014.167-.121.556,0,.677s.221.107.409.027.288-.242.483-.074.254.181.288.349a1.786,1.786,0,0,0,.221.717c.134.134.342.147.362.281a.553.553,0,0,1-.06.423c-.094.181-.268.556-.134.737s.482.094.63.228a2.661,2.661,0,0,1,.315.3c.147.167.194.389.389.462a2.081,2.081,0,0,0,.616.108c.134,0,.181-.181.362,0s.088.328.389.388a3.165,3.165,0,0,0,.53.094c.121,0,.154.034.194-.147a1.917,1.917,0,0,0,.047-.59c-.027-.2-.147-.409-.033-.543s-.014-.215.194-.242a1.187,1.187,0,0,0,.5-.154c.215-.107.255-.134.449-.027s.329.222.463.2a.87.87,0,0,1,.53-.1c.4.027.442.161.616.054a2.877,2.877,0,0,1,.5-.228c.188-.074.255-.04.416-.188s.322-.382.5-.395.281.04.321,0,.067-.094.108-.114a.5.5,0,0,1,.12-.074.041.041,0,0,0,.034-.04c.007-.014-.014-.061.027-.074s.073-.02.107-.06.054-.074.107-.061.114.054.174.034.108-.054.114-.107.027-.054.027-.087a.4.4,0,0,0,.027-.121c.007-.054-.02-.107.007-.121a.1.1,0,0,0,.04-.053.215.215,0,0,0-.047-.094,1.729,1.729,0,0,1-.107-.161c-.034-.047-.047-.087-.081-.087s-.053-.007-.073.02-.021.04-.047.053a.158.158,0,0,1-.087.027c-.027-.006-.021-.02-.061-.02a.86.86,0,0,1-.134.007c-.04-.007-.04-.027-.047-.06s-.013-.047-.054-.047-.026.02-.073.06-.087.087-.121.033a.136.136,0,0,0-.094-.067c-.04-.013-.087,0-.12-.026s-.047-.021-.02-.054.033-.034.02-.087A1.125,1.125,0,0,0,42,43.632c-.047-.08-.06-.087-.113-.087s-.054.04-.121.02a1.45,1.45,0,0,0-.175-.04c-.073-.013-.093-.02-.093,0s.02.047,0,.074-.014.074-.061.033-.107-.087-.107-.127-.1-.214-.094-.288a.946.946,0,0,1,.04-.134.182.182,0,0,1,.061-.121c.053-.06.147-.161.147-.194s.02-.034.007-.067-.04-.034-.013-.081a.344.344,0,0,1,.093-.114c.02-.013.02-.02.047-.02s.054-.007.02-.04a.208.208,0,0,0-.087-.067c-.047-.02-.08,0-.094-.047a.242.242,0,0,0-.053-.087.214.214,0,0,1-.034-.074s.007-.141-.033-.114-.094.047-.087.007a.077.077,0,0,0-.047-.081c-.02-.02-.121-.147-.094-.194s.107-.047.114-.094a2.056,2.056,0,0,1,.06-.248c.014-.027.067-.168.094-.208s.02-.074.034-.107.006-.081.06-.121.094-.04.094-.094a.49.49,0,0,0-.108-.234c-.033-.027-.107-.054-.107-.094s-.06-.114-.094-.094-.06.074-.114.08a.129.129,0,0,1-.073,0c-.047-.006-.108-.073-.161-.006s-.04.114-.081.127a.22.22,0,0,1-.134.007c-.06-.014-.134-.007-.161-.047s-.033-.067-.02-.094a.19.19,0,0,0,.014-.094c-.007-.047-.081-.154-.047-.188a.288.288,0,0,0,.08-.12.4.4,0,0,0-.04-.134c-.02-.02-.054-.047-.087-.027s-.074.033-.054-.034.034-.073.087-.094a.245.245,0,0,0,.114-.093.652.652,0,0,0,.087-.121c.027-.047.1-.194.134-.154s.081.04.094.094.094.2.168.134.087-.107.147-.148.088-.087.128-.04.161.181.228.181a1.558,1.558,0,0,1,.174-.007c.054,0,.047.02.121.02s.06-.02.12-.047.134-.087.188-.08.087.034.121-.04.1-.235.1-.235a.375.375,0,0,0-.006-.114c-.014-.047-.061-.14-.034-.194s.034-.081.013-.114a.214.214,0,0,0-.087-.087c-.033-.02-.047.006-.087-.034s-.04-.053-.074-.053a.181.181,0,0,0-.12.067c-.034.033-.087.094-.121.134a.186.186,0,0,1-.154.067.993.993,0,0,1-.134,0c-.067-.007-.134-.081-.174-.1s-.148-.114-.114-.161.107-.067.107-.1a.282.282,0,0,1,.007-.108.12.12,0,0,0-.047-.12.221.221,0,0,0-.088-.04.12.12,0,0,1-.046-.108c.02-.067-.007-.161.053-.194s.148-.04.121-.094-.034-.067-.094-.074a.539.539,0,0,0-.148.007.454.454,0,0,1-.147.033c-.06-.006-.107.021-.147-.02s-.081-.073-.094-.04-.041.067-.054.094-.047.054-.007.1.114.154.087.2-.033.08-.093.094-.054.033-.108.02-.067-.041-.127-.02-.147.047-.161.1-.067.121-.007.161a.134.134,0,0,1,.061.181c-.04.067-.161.221-.188.255s-.094.147-.148.161-.06.073-.06.073a.5.5,0,0,1-.114.148c-.047.033-.06.047-.094.033s-.093-.067-.1-.006-.074.134-.067.2a.5.5,0,0,1-.02.174,1.2,1.2,0,0,0-.027.221.326.326,0,0,0,.047.128c.02.033.047.033.047.107a.576.576,0,0,0,0,.221c.02.034.087.04.04.094a.186.186,0,0,0-.061.134.092.092,0,0,1-.06.094c-.047.02-.2.081-.234.1s-.161.093-.155-.007-.033-.107-.094-.107a1.2,1.2,0,0,0-.2.073.467.467,0,0,0-.221.148.685.685,0,0,0-.087.127C38.554,41.159,38.56,41.1,38.507,41.112Z"/><path class="cls-3" d="M60.181,33.564c-.027.013-.047.02-.061.026a.145.145,0,0,0-.04.168c.027.06-.107.1-.073.148s-.014.127-.108.134-.087.047-.047.1a.064.064,0,0,1,.007.061c-.007.02.02.006.027.006a.054.054,0,0,1,.067.027.916.916,0,0,0,.047.148.1.1,0,0,1,.013.053c0,.014,0,.04.027.027s.087-.054.094-.02.007.067.033.067a.2.2,0,0,1,.108.033c.02.021.033.034.053.021a.25.25,0,0,0,.1-.054.314.314,0,0,0,.053-.06c.007-.014.007-.041.021-.054a.553.553,0,0,0,.073-.054.155.155,0,0,1,.088-.033h.16c.041,0,.114,0,.128-.02a.212.212,0,0,0,.033-.1.368.368,0,0,0-.006-.094c-.007-.013-.054-.08-.067-.1s-.094-.154-.128-.188a1.843,1.843,0,0,0-.167-.134c-.02-.013-.114-.047-.135-.06s-.08-.047-.1-.054a.79.79,0,0,0-.094-.034c-.013,0-.013.014-.04.027A.365.365,0,0,0,60.181,33.564Z"/><path class="cls-3" d="M60.751,36.077c.027-.006.033-.033.06-.006.047.013.054.006.087-.027A.53.53,0,0,1,60.985,36c.041-.013.047-.04.067-.08a.2.2,0,0,1,.054-.088c.034-.027.04-.027.034-.08a.19.19,0,0,1,.1-.107.224.224,0,0,0,.087-.047.412.412,0,0,1,.061-.027.045.045,0,0,0,.033-.054c-.007-.02-.007-.033-.027-.02a.235.235,0,0,1-.067.02c-.04.007-.047-.006-.074-.04s-.047-.02-.06-.007-.013.034-.047.034a1.255,1.255,0,0,1-.127-.04,1.24,1.24,0,0,1-.2-.081.709.709,0,0,1-.134-.154c-.02-.027-.06-.06-.087-.094a.691.691,0,0,0-.228-.1.3.3,0,0,0-.174.067.513.513,0,0,1-.1.08c-.04.02-.047.054-.06.087s-.04.054-.074.054a.307.307,0,0,0-.107.04.131.131,0,0,1-.1-.013c-.02-.014-.02-.014-.026.02s-.007.033-.034.02-.02-.02-.013-.04.006-.047-.014-.067-.013-.067-.006-.121-.094-.067-.134-.067-.067.033-.1.087a.2.2,0,0,1-.107.074.259.259,0,0,1-.094.007s.027-.014.06-.027.054-.04.094-.074.047-.054.081-.087a.168.168,0,0,1,.1-.047.368.368,0,0,1,.127-.007c.061,0,.061.02.1.054s.08,0,.121-.027a.329.329,0,0,0,.073-.054c.027-.02.027-.053.021-.107a.159.159,0,0,1,.026-.114.131.131,0,0,1,.1-.06c.054-.007.067-.027.067-.047s0-.027.027-.054.053-.04.094-.027c0-.026-.061-.073-.114-.073s-.061.006-.067-.054-.054-.02-.1,0-.02-.027-.033-.047-.041-.134-.061-.181c0-.016-.023-.016-.038-.018a2.168,2.168,0,0,0,.171-.262,1.514,1.514,0,0,0,.221-.268c-.014-.041.027-.108-.02-.168a.1.1,0,0,1-.067-.08.15.15,0,0,0-.061-.088,1.8,1.8,0,0,0-.174-.114.464.464,0,0,0-.181-.04.106.106,0,0,1-.094-.013.178.178,0,0,0-.08-.047c-.04-.014-.014-.04.006-.04s.034-.027.02-.047a1.059,1.059,0,0,0-.08-.121c-.033-.047-.074-.027-.141-.013a.311.311,0,0,1-.141-.007c-.046-.007-.046.013-.046.047s-.02.04-.047.047a.5.5,0,0,0-.074.013c-.04.014-.081.02-.067.007s.047-.054.074-.08a1.215,1.215,0,0,1,.14-.128c.034-.02.094,0,.141,0a.147.147,0,0,1,.061.007c.026.006.04.027.08.033s.034.014.074.034a1.493,1.493,0,0,1,.127.087c.06.04.027.06.027.1s.047.02.08.006.041.02.074.034.047,0,.067-.027.02-.027.04-.027.041-.02.061-.033a.136.136,0,0,1,.08-.02c.04,0,.054.006.087.006a.287.287,0,0,1,.107.047.232.232,0,0,0,.1.034.628.628,0,0,1,.161.067c.047.02.06.02.114.04a.1.1,0,0,0,.107-.034c.014-.02,0-.04-.02-.067s-.013-.047-.013-.08a.119.119,0,0,0-.047-.094.1.1,0,0,1-.041-.074.209.209,0,0,0-.073-.087.971.971,0,0,0-.148-.08.61.61,0,0,0-.194-.034c-.04,0-.04-.033-.047-.053a.038.038,0,0,0-.054-.027c-.02.013-.026.007-.047-.007s-.006-.04.007-.054l.007-.06a.322.322,0,0,1-.007-.121c0-.053-.04-.053-.06-.06s-.04-.02-.081-.033-.087-.027-.14-.041a.674.674,0,0,0-.141-.02c-.034,0-.034.007-.047-.02s-.007-.02-.034-.04a.168.168,0,0,0-.093-.027c-.034,0-.014-.02-.021-.04s0-.034.021-.027.013-.027,0-.047a.151.151,0,0,1-.014-.06.045.045,0,0,0-.033-.047c-.021-.007-.021-.02-.021-.047s0-.04.027-.047.041-.02.041-.054a.111.111,0,0,0-.034-.08.124.124,0,0,1-.027-.067c0-.027.007-.04-.013-.06s-.034-.021-.067-.021-.047-.013-.047-.04.013-.02.006-.033a.948.948,0,0,1-.06-.081c-.02-.02-.007-.04,0-.06a.12.12,0,0,0-.027-.087.044.044,0,0,0-.053-.02c-.027.006-.034-.014-.047-.047a1.3,1.3,0,0,0-.034-.141c-.013-.04-.02-.081-.033-.121a.205.205,0,0,0-.087-.107c-.027-.013-.014-.04,0-.067s-.014-.054-.041-.074a.1.1,0,0,1-.02-.074c0-.02-.013-.026-.033-.013s-.007-.013,0-.047-.014-.047-.041-.087a.105.105,0,0,1-.026-.06.153.153,0,0,0-.034-.074.241.241,0,0,1-.047-.06c-.02-.034-.02-.054-.04-.074s-.02-.061-.033-.1a.494.494,0,0,0-.041-.14A.23.23,0,0,0,58.6,29.8a.444.444,0,0,0-.08-.027.17.17,0,0,1-.1-.04c-.033-.02-.04-.034-.08-.034a.156.156,0,0,1-.088-.026.119.119,0,0,0-.067-.007c-.02.013-.033.007-.04-.007s-.027-.02-.027-.02c-.013-.02-.047-.027-.093-.013s-.054.027-.074.053-.02.027-.061.027-.02-.033.007-.04.081-.047.081-.067-.014-.034-.047-.054-.081-.047-.114-.06a.043.043,0,0,1-.027-.06c.006-.021,0-.041-.034-.041a.124.124,0,0,1-.08-.033c-.027-.02-.047-.027-.067,0s-.02.033-.047.02a.6.6,0,0,1-.094-.074.1.1,0,0,1-.013-.114.142.142,0,0,0,0-.071l.047-.077c0-.006.027-.04.027-.047s.026-.02.06-.033a.128.128,0,0,0,.067-.06.247.247,0,0,0,.007-.1.209.209,0,0,1,.02-.094.185.185,0,0,1,.067-.08c.047-.041.047-.061.04-.081s.047,0,.074,0,.007-.047.013-.08.027-.067.034-.1-.02-.06-.034-.087.027-.04.047-.054a.184.184,0,0,0,.054-.046c.013-.02.04-.027.033.02s.047.006.067-.014a.059.059,0,0,1,.047-.026c.047-.014.067-.047.04-.068s-.02-.033,0-.053-.04-.034-.026-.061.04-.013.067.014.067.007.053-.014a.119.119,0,0,1,.007-.067c.007-.02.034-.053-.007-.087s0-.047.034-.053.06-.041.1-.067-.006.02,0,.04.014.04.034-.02.08-.087.074-.108c-.007-.047-.067.007-.1.021s-.047-.034,0-.068.027-.046-.047-.04a.071.071,0,0,1-.087-.08.475.475,0,0,0,0-.1c-.007-.04.04-.006.074-.026s.04-.014.04.006.02.067.074.04.006-.06.006-.1.061-.04.047-.02,0,.033.034.067-.02.08-.054.161.04.06.134.04.094-.121.2-.107.107-.014.114-.02a.2.2,0,0,0-.054-.114c-.04-.047-.027-.1.02-.114s.007-.061-.02-.1.007-.067.007-.094a.051.051,0,0,1,.047-.053c.027,0,.073.006.073.053s.021.054.061.081.027-.041,0-.074-.027-.06.013-.054.04,0,.034-.02a.07.07,0,0,1,0-.074c.02-.04.006-.033-.027-.02s-.047.027-.06-.027-.041-.04-.088.014-.047,0-.026-.061.06-.053.114-.053.08.013.053.047.007.06.074.033-.02-.033,0-.073.027-.02.04.006.034.027.04,0,.041-.026.041-.087.053-.053.033-.02.04.02.067,0a.128.128,0,0,1,.087-.033.056.056,0,0,0,.061-.047c.006-.027.033-.027.06-.054s-.007-.04-.027-.094.034-.053.047-.013.034.033.047.013a.084.084,0,0,1,.054-.04c.026-.007.047,0,.02.027s-.087.067-.108.087.021.033.047.007.054.006.067.02.014.033.047.02.007-.014-.013-.054.013-.06.067-.08.047-.047.047-.081.047-.067.06-.06a.143.143,0,0,0,.094-.02c.047-.027.014-.034-.02-.027s-.013-.04,0-.067.047.02.081.007.053.02.033.053.013.054.067.047.047-.053.047-.1.033-.121.067-.121-.007.033-.02.074a.069.069,0,0,0,.047.1c.053.014.02.02-.014.034s-.02.054,0,.067.081,0,.114.007.067-.02.061-.047-.007-.027.027-.02a.2.2,0,0,0,.093-.021c.02-.006.081-.033.041-.073s0-.074.026-.108.007-.053-.006-.033-.034.013-.094.027-.034.053-.047.053.007-.027-.027-.04.007-.027.04-.053,0-.068-.006-.108.033-.053.033-.027.013.027.02,0,.034-.013.047-.006.04.006.027-.027,0-.047.02-.054.02-.027,0-.04-.02-.034-.047-.054-.013-.06,0-.053.027-.02.027-.041a.08.08,0,0,1,.074-.053c.033,0,.027-.047,0-.074s-.114.027-.175.067-.06-.013-.14.007a.116.116,0,0,1-.141-.054c-.02-.033-.027-.02-.054,0s-.047.041-.067-.006c-.04-.074.007-.047.04-.054s.02-.034-.02-.04-.053-.054-.1-.047-.007.053-.047.08-.047.047-.027.081,0,.067-.027.053-.027-.013-.013-.033-.02-.027-.04-.014a.078.078,0,0,1-.068.014c-.026,0-.06,0-.06.027s-.006.033-.033.02-.041-.027-.067-.027-.067-.013-.094.033-.047-.006-.114-.026-.02-.054-.074-.088-.013-.053.02-.053,0-.047-.06-.061-.081-.006-.04.041-.054.04-.054.067-.027-.014-.06-.014-.034,0-.061-.026-.073-.041-.04-.1-.047-.047-.1-.02-.021-.074-.094-.074-.041-.02-.041-.06-.093.007-.127.007a.244.244,0,0,0-.141.033.5.5,0,0,1-.154.1c-.027,0-.08,0-.094.026s-.027.054-.107.061-.087.006-.08.033.033.007.093.034,0,.107-.04.14a1.047,1.047,0,0,0-.114.108.186.186,0,0,1-.127.1c-.081.014-.134.047-.141.074s.054.074.074.114-.114.114-.107.168-.074.067-.182.053a.4.4,0,0,0-.247.047c-.041.027-.115,0-.141.014s-.054.006-.074-.034a.117.117,0,0,0-.094-.054c-.04,0-.074.014-.08-.013s.033,0,.033-.033S57,26,56.941,26s-.047-.026-.04-.046.02-.041-.02-.074-.013-.04.02-.054.04-.08,0-.134a.2.2,0,0,1,.013-.181c.027-.047.094-.06.094-.094s.047-.033.061-.033.047-.04,0-.074A.3.3,0,0,1,57,25.211c-.02-.033-.034-.08-.074-.1s-.053-.054-.08-.121c-.02-.047-.041-.121-.094-.06s-.06.093-.06-.034-.114-.087-.135.013c-.013.068-.046.081-.114.121s-.026-.007-.046-.053-.081-.054-.128,0a.132.132,0,0,1-.188-.014c-.046-.054-.033.04-.04.081a.14.14,0,0,1-.073.134c-.067.047-.047.087-.088.14s-.04.007-.026-.006.02-.034.013-.054a.053.053,0,0,1,.027-.053c.013-.014.04-.034.033-.054s-.094,0-.094-.02.027-.007.054-.014.074-.033.02-.094-.067-.046-.141-.046-.04-.027,0-.041.041-.013.034-.047-.007-.006-.081-.046-.073-.038-.11-.015a.122.122,0,0,0,.023-.019c.013-.02-.014-.06-.034-.08a.752.752,0,0,0-.094-.114l-.033-.074a.418.418,0,0,1-.04-.054.231.231,0,0,0-.067-.073c-.027-.014-.021-.04-.014-.06a.394.394,0,0,0,.014-.094.881.881,0,0,1,.013-.135.632.632,0,0,1,.08-.133.594.594,0,0,0,.061-.128.424.424,0,0,0-.014-.127.093.093,0,0,1,.034-.081c.006-.013.033-.033.06-.067a.264.264,0,0,1,.107-.04s.1-.02.121-.027a.078.078,0,0,1,.067.014c.02.006.054.087.074.114a.4.4,0,0,0,.067.08c.013.02.054.013.067.013a.413.413,0,0,0,.094-.06,1.15,1.15,0,0,0,.087-.094c.013-.027.04-.033.067-.047a.068.068,0,0,1,.067.014c.013,0,.04.006.054.006a.443.443,0,0,0,.08-.02c.02-.006.04-.033.047-.04s.027,0,.047-.007a.256.256,0,0,0,.06-.033c.027-.02.007.02-.006.04a.512.512,0,0,1-.054.06c-.007.007-.007.021.02.007a.7.7,0,0,0,.114-.087.442.442,0,0,0,.06-.127.6.6,0,0,1,.054-.114c.027-.041.06-.081.074-.1a.062.062,0,0,0,0-.06.083.083,0,0,1-.007-.041c0-.02.027-.073.027-.1s-.034-.02-.054-.027.02-.033.034-.033.02-.007.04-.02.013-.061.013-.094a.324.324,0,0,1,.061-.121.21.21,0,0,1,.087-.04.112.112,0,0,0,.047-.02c.013-.014-.014-.041-.02-.074s.047-.067.073-.074.155-.067.175-.08.027-.027.02-.041-.027-.026-.04-.04a.134.134,0,0,1-.041-.047.464.464,0,0,1-.04-.147c-.006-.027-.033-.027-.047-.04a.777.777,0,0,1-.06-.088.424.424,0,0,1-.06-.14c-.021-.061-.021-.128-.041-.168s-.08-.033-.14-.027-.121-.013-.148-.013a.166.166,0,0,1-.067-.04c-.007-.014-.027-.021-.054-.041s-.02-.033-.026-.06-.027,0-.074.007-.074-.027-.1-.054a.325.325,0,0,0-.073-.047.167.167,0,0,1-.054-.087.258.258,0,0,1,.02-.154c.02-.047.04-.034.067-.054s.014-.047,0-.073-.02-.027-.02-.054.074-.034.087-.034.027-.04.04-.06a.173.173,0,0,1,.047-.047c.014-.007.027-.047.034-.06a.277.277,0,0,1,.027-.041c.02-.013.047-.127.013-.087s-.094.047-.2.027c-.06-.013-.094-.087-.154-.1s-.148.04-.188.04a1.363,1.363,0,0,0-.241.047c-.161.033-.128-.107-.141-.2s-.114-.14-.181-.295.094-.087.141-.14-.034-.148-.061-.269-.094-.033-.127-.026-.054-.094-.107-.181-.041-.134-.007-.181-.1-.121-.147-.242-.3-.067-.416-.067-.074.128-.128.168-.12-.007-.234.007a.222.222,0,0,0-.188.228c.02.1.04.12-.027.14s-.067.067.02.114.007.121-.087.215-.268.033-.342-.014-.087-.006-.134.074-.127.087-.154.181-.107.047-.154-.094-.288.128-.375.188-.242.127-.168.168-.054.067-.134.1a.371.371,0,0,1-.289-.054c-.073-.046-.053-.174-.026-.247a.651.651,0,0,0-.027-.329.812.812,0,0,0-.08-.215c-.021-.013-.054.021-.041.067.02.074-.067.1-.141.094-.14-.013-.167.088-.127.161s-.08.054-.147.094-.128.188-.081.389-.147.194-.234.214-.081.222-.014.3.06.094-.027.181-.006.134.054.208a.685.685,0,0,1,.1.248s.013.039.027.092l-.032-.045s-.007.141-.007.188.013.114-.007.12-.067-.006-.1.027-.061.067-.088.054-.06-.034-.093-.014a.518.518,0,0,0-.128.141c-.013.04-.006.154-.06.188a.333.333,0,0,1-.154.053.329.329,0,0,1-.141-.02.551.551,0,0,0-.087-.033c-.02,0-.128.02-.128.02a2.13,2.13,0,0,1-.368-.02.749.749,0,0,1-.2-.054c-.047-.013-.087-.054-.154-.047a.228.228,0,0,0-.134.047.678.678,0,0,0-.121.215.606.606,0,0,0-.033.248c0,.08.013.241.02.368a1.142,1.142,0,0,1-.013.2c-.014.067-.034.094-.088.094s-.1-.027-.16-.034a.781.781,0,0,0-.155-.02h-.147a.68.68,0,0,1-.034.2.09.09,0,0,1-.094.04c-.02-.013-.087-.04-.12-.02-.013.008-.024.012-.035.018-.045-.016-.006-.166.014-.239s-.114.054-.228.08-.121.081-.194.262-.135.06-.175-.007-.047-.054-.141-.013-.026-.02-.181-.094-.087.067-.067.161-.08.1-.194.094-.074.033-.047.073-.047.054-.121.114a.64.64,0,0,0-.187.322c-.027.121-.081.027-.141.067s-.161.148-.141.181,0,.094-.027.094-.04.013-.1.054-.027.013-.161.2a.17.17,0,0,0-.04.067c-.021.04-.081.087-.081.127s.04.074.047.114c.013.127.094.087,0,.309-.047.107-.094-.088-.154-.121s-.047.194-.04.348-.094.181-.181.161-.175.047-.3.034a.228.228,0,0,0-.188.033c-.047.027-.1-.033-.127-.161s-.148-.134-.255-.18c-.007,0-.014-.007-.02-.007s-.013.009-.02.01-.008-.032-.021-.038-.121-.046-.174-.067-.108-.147-.141-.2a.21.21,0,0,0-.134-.1.441.441,0,0,0-.188,0,.485.485,0,0,1-.234-.061,1.039,1.039,0,0,1-.282-.174c-.054-.06.033-.094.06-.121a.269.269,0,0,0,.074-.147,1.618,1.618,0,0,1,.06-.221,1.524,1.524,0,0,1,.181-.275.673.673,0,0,0,.094-.188c.007-.06-.053-.087-.08-.121a.478.478,0,0,1-.067-.134c-.014-.053-.007-.134-.02-.194s-.02-.034-.074-.04-.1-.027-.168.047-.107.047-.174.053-.094.027-.1.1-.04.087-.094.074-.127.107-.187.227a2.378,2.378,0,0,1-.134.269,1.36,1.36,0,0,0-.081.482c0,.121.027.175-.026.248s-.047.108-.007.248a.332.332,0,0,1-.128.349c-.073.02-.067.02-.073.074s-.148.027-.2.013a1.4,1.4,0,0,0-.422.161,1.726,1.726,0,0,1-.563.074.2.2,0,0,0-.161.094l0,.014a.162.162,0,0,1-.062.012.5.5,0,0,1-.214-.12c-.047-.047-.342-.329-.375-.356s-.1-.08-.161-.12-.168-.148-.168-.2-.033-.147.013-.187.121-.034.141-.074a.21.21,0,0,0-.007-.168c-.026-.047-.08-.167-.04-.221a.184.184,0,0,1,.128-.08,1.382,1.382,0,0,0,.321-.208.815.815,0,0,0,.155-.168.772.772,0,0,1,.14-.154.357.357,0,0,0,.047-.255,1.6,1.6,0,0,1-.073-.281c.013-.054-.034-.188-.1-.188a1,1,0,0,0-.308.02,2.431,2.431,0,0,0-.416.154c-.047.041-.107.081-.154.121a.2.2,0,0,1-.148.06.434.434,0,0,1-.228-.074,2.259,2.259,0,0,0-.227-.113.188.188,0,0,0-.108,0c-.047.006-.228.067-.288.073s-.228.034-.215.087a.717.717,0,0,0,.094.188c.041.061.034.074,0,.121s-.114.147-.147.194-.054.1-.128.081-.093.013-.12-.014-.242-.187-.255-.228a.247.247,0,0,0-.033-.087.313.313,0,0,1-.041-.12.064.064,0,0,0-.074-.041c-.053.014-.147.054-.187.041s-.014-.007-.067-.061-.087-.06-.081-.134.034-.167.034-.167.02-.135.02-.175-.027-.094-.067-.094a.786.786,0,0,1-.194-.033.163.163,0,0,1-.094-.081.281.281,0,0,0-.081-.107.121.121,0,0,1-.053-.12c0-.047.033-.114-.061-.135a.382.382,0,0,1-.221-.14c-.074-.081-.08-.168-.168-.168s-.3-.013-.3-.054-.014-.033.053-.06.128-.034.175-.074a.322.322,0,0,1,.114-.067.265.265,0,0,0,.127-.087c.034-.033.013-.107.081-.141s.167-.1.174-.147.033-.168.04-.208.054-.2.074-.248.027-.074,0-.1a1.606,1.606,0,0,1-.121-.161.565.565,0,0,0-.241-.154.945.945,0,0,0-.208.034.814.814,0,0,0-.208.094c-.06.033-.134-.034-.181.013s-.04.087-.08.121-.114.04-.128.006-.1-.114-.127-.08-.081.1-.114.134-.074.02-.074-.033.014-.108-.033-.1-.061.007-.081.074-.027.127-.06.127-.081.04-.141.02-.094-.013-.067-.087a2.09,2.09,0,0,0,.034-.382.55.55,0,0,0-.121-.188c-.04-.04-.168-.06-.221-.154s-.289-.422-.289-.422.148-.1.188-.121.121-.06.114-.107-.114-.376-.114-.376l-.261-.831-.148-.523-.389.034-.482.02s-2.179.892-2.729,1.24a9.776,9.776,0,0,0-1.656,1.019,7.829,7.829,0,0,0-.395,2.132.785.785,0,0,0,.3-.034c.081-.04.034-.067.181-.047a1.859,1.859,0,0,1,.416.041c.087.047.114-.054.134.1s-.067.3.081.315.549.074.549.121-.161.094-.006.174.509-.026.536.134.02.543.228.5a.622.622,0,0,1,.523.074c.094.1.275.181.382.1s.188-.04.268.088.315.281.389.234.087-.181.228-.127l.141.054c.013.006,0-.047.02-.088.04-.114.067-.214.127-.234s.081-.141.181-.081.174.02.154-.181-.067-.308-.006-.442-.007-.248.187-.181a1.1,1.1,0,0,1,.523.295c.1.134.389.409.463.328s.161-.181.147-.241.108-.04.175.04.14.087.228,0,.067-.188.254.027a3.12,3.12,0,0,1,.228.255c.114.147.268.315.362.442s.288.208.356.288c.04.047.12.081.14.068s-.053-.188-.087-.215-.08-.114-.027-.114a.313.313,0,0,1,.215.154c.054.087.121.208.194.242s.2.026.262.073.053.094.114.114.047.047.033.087a.129.129,0,0,0,.04.161,2.114,2.114,0,0,1,.168.188.1.1,0,0,0,.127.013c.061-.04.114-.1.188-.026s.188.254.268.194.067-.06.148-.047.14.094.187.154a.358.358,0,0,1,.074.181c0,.041-.013.275.087.309s.2.073.208.107,0,.04.047.06.127.188.094.208-.121.04-.121.074.054.067.061.134a2.777,2.777,0,0,1,.04.288c.007.04,0,.067.06.094s.134.1.107.168-.087.207-.04.248a.122.122,0,0,0,.108.033.154.154,0,0,1,.093.081.735.735,0,0,1-.013.214c-.007.04-.007.2-.014.228a1.342,1.342,0,0,0-.006.141.192.192,0,0,0-.1-.034c-.04.007-.107.007-.114.034a.769.769,0,0,0-.027.248c.014.087.054.121,0,.114s-.14-.054-.207-.007-.081.081-.081.1,0,.026-.04.033-.161-.027-.141.04.081.222.054.275a.572.572,0,0,1-.188.208.6.6,0,0,0-.235.228.364.364,0,0,0-.026.185,2.006,2.006,0,0,0-.865.037c-.336.114-.664.416-1.013.5s-.268.014-.764-.147a5.7,5.7,0,0,0-1.1-.369c-.6-.114-1.033-.5-1.348-.033A1.681,1.681,0,0,0,33.733,31a4.651,4.651,0,0,0,.429,1.227c.114.261.348,1.066.482,1.5a4.978,4.978,0,0,1,.268,1.159c0,.269.188.919.229,1.194a.871.871,0,0,0,.221.516.094.094,0,0,1,.08.014.111.111,0,0,1,.04.093s-.02.121-.033.228a1.355,1.355,0,0,1-.04.228,1.939,1.939,0,0,0,.026.51.473.473,0,0,0,.094.2c.041.04.027.094.067.147s.027,0,.054-.053a.7.7,0,0,0,.027-.3c-.007-.114.04-.081.127-.114s.047-.094.141-.208.141-.094.141-.053.013.12.06.147c.1.067.148.268.248.262s.08.06.114.134a.851.851,0,0,1,.054.134c.027.087-.1.161-.175.2s-.006.174.067.241.061.148.114.154.074.061.047.121.088.06.121-.013a.081.081,0,0,1,.134-.041c.047.034.081.034.114-.033s.134,0,.107.047.034.06.034.127.094.107.094.168a1.213,1.213,0,0,0,.127.335.3.3,0,0,1,.034.107c.02.074.02.208.093.174.047-.02.081-.006.041.108-.054.14.047.187.073.241s.181.127.155.221.047.061.087.034.087.047.047.053-.02.021-.041.067,0,.088-.073.115.06.147.167.214a.122.122,0,0,1,.034.2c-.04.034-.034.094.013.1s.141-.021.168.154.255.087.362.06c.054-.013.033.034.047.007a1.041,1.041,0,0,1,.087-.128.433.433,0,0,1,.221-.147,1.6,1.6,0,0,1,.2-.074c.061-.006.107.007.094.107s.121.027.154.007.188-.08.235-.1a.092.092,0,0,0,.06-.094.207.207,0,0,1,.061-.134c.047-.047-.02-.054-.041-.094a.616.616,0,0,1,0-.221c.007-.081-.026-.081-.047-.108a.471.471,0,0,1-.047-.127,1.375,1.375,0,0,1,.027-.221,1.21,1.21,0,0,0,.02-.174c-.006-.068.061-.148.068-.2s.073-.006.1.007.04,0,.094-.033a.674.674,0,0,0,.114-.148.09.09,0,0,1,.06-.074c.047-.013.114-.127.148-.16a2.393,2.393,0,0,0,.187-.255c.041-.067,0-.134-.06-.181s-.007-.108.007-.161.107-.081.161-.1.08.007.127.02.047-.006.107-.02.067-.047.094-.094-.047-.154-.087-.2-.007-.074.007-.1.04-.061.053-.094.047.007.094.04.094.013.148.02a.444.444,0,0,0,.147-.033.357.357,0,0,1,.148-.007c.053.007.06.02.093.074s-.053.06-.12.094-.034.134-.054.194a.1.1,0,0,0,.047.107.24.24,0,0,1,.087.04.109.109,0,0,1,.047.121.309.309,0,0,0-.007.107c0,.034-.067.054-.107.1s.081.134.114.161.108.094.175.1a.855.855,0,0,0,.134,0,.163.163,0,0,0,.154-.067c.033-.04.087-.094.121-.134a.227.227,0,0,1,.1-.056.914.914,0,0,1-.638.432c-.422,0-.831.053-.945.288a2.4,2.4,0,0,0-.315.932c.04.221.262.274.275.549s.449.644.436.872a8.636,8.636,0,0,0,.335,1.3.281.281,0,0,1,.067.02.13.13,0,0,1,.074.014c.04.013.053.054.107.094a.11.11,0,0,0,.141-.02c.033-.027.12-.081.12-.081a1.066,1.066,0,0,0,.155-.067.365.365,0,0,0,.08-.141c.013-.04.114-.093.154-.127s.074.04.074.04.034.02.074.04.114.014.14.041.041.067.074.093a.774.774,0,0,0,.188.108.589.589,0,0,1,.127.067.229.229,0,0,0,.168.027c.054-.007.074.033.114.053a.207.207,0,0,0,.06.014l.114-.094c.034-.027.074-.047.081-.094s-.034-.074-.034-.134.107-.027.154-.027a.739.739,0,0,0,.235-.114c.074-.054.094-.08.168-.134s.147-.007.228-.007.053-.02.073-.073.047-.014.067.033.014,0,.014-.06a.583.583,0,0,1,0-.188c.02-.094.154-.154.194-.174a.116.116,0,0,1,.121.013.2.2,0,0,1,.087.148c.007.053.027.053.067.08s.027.054.027.087.067.114.094.154.013.014.053-.013a.591.591,0,0,0,.128-.094c.047-.054.047.04.053.081s.034.053.061.033.04.094.053.134.148-.02.2-.033a.527.527,0,0,0,.168-.074c.06-.034.06-.154.06-.221s.054-.074.094-.108.04-.02.074-.053.067-.027.134,0,.087.087.127.121a.365.365,0,0,0,.114.073c.034.014.014-.107.014-.147s.02-.054.053-.114.027-.054.088-.081.06.027.087.067a.142.142,0,0,0,.127.047c.047,0,.1.014.148.014s.033-.054.006-.081-.013-.067.007-.114-.04-.033-.107-.006.006-.047.033-.094.061-.074.141-.081.1.054.188.094.114-.08.154-.147.067-.121.094-.154a.1.1,0,0,0,.02-.074c0-.014-.007-.047.006-.061s.054-.026.034-.053a.263.263,0,0,1-.067-.121c-.007-.047,0-.087-.033-.094a.582.582,0,0,0-.1-.013c-.027,0-.06-.007-.054-.054a.422.422,0,0,1,.061-.147c.033-.054.094-.114.067-.168a.333.333,0,0,0-.061-.094c-.026-.02-.053-.067-.02-.087s.061-.013.081-.027.06-.053.08-.053.067.006.067-.054a.174.174,0,0,0-.02-.087c-.007-.02-.034-.06,0-.074s.074-.027.06-.06-.053-.128-.067-.148-.087-.1-.14-.1a.3.3,0,0,0-.135.02c-.04.02-.134.087-.154.074s-.02-.047-.04-.041-.107.061-.141.074-.087.04-.12.02-.061-.04-.034-.06.047-.027.06-.067.02-.107.047-.121a.665.665,0,0,0,.114-.08c.02-.027.067-.054.088-.1s.053-.107.087-.114a.331.331,0,0,1,.087.007c.013,0,.053.007.06-.02s0-.067.047-.094a.594.594,0,0,0,.121-.087.063.063,0,0,0,.013-.067.6.6,0,0,0-.06-.1.638.638,0,0,1-.074-.114.351.351,0,0,1-.047-.134c0-.053-.007-.08.007-.107s.027-.054.007-.074-.054-.02-.047-.06a.611.611,0,0,1,.033-.121.151.151,0,0,0,.027-.1c-.007-.027-.087-.047-.087-.074a.506.506,0,0,1-.014-.107c0-.041.007-.128-.02-.121a.1.1,0,0,0-.056.034l.017-.087s.014-.108.02-.121.02-.047.014-.06.006-.02-.02-.02-.061,0-.061-.021-.006-.033.014-.046.033-.034.04-.047a.041.041,0,0,0-.007-.041.05.05,0,0,1-.006-.046c.006-.021.053-.255.053-.255s.02-.081,0-.1l-.009-.009c.157-.047.272-.213.383-.333a1.016,1.016,0,0,1,.469-.335c.268-.12.717-.141.811-.214a.752.752,0,0,1,.429-.215.845.845,0,0,1,.537.168,3.252,3.252,0,0,0,.744.308,6.083,6.083,0,0,0,.61-.013,3.325,3.325,0,0,1,.469.06c.121.014.255-.154.335-.181s.121.5.241.684a.247.247,0,0,0,.248.116c-.015.042.02.2.02.359s.121.3,0,.516a3.2,3.2,0,0,0-.409,1.12c.04.221.194.328.208.5s.208.45.208.617.08.59.08.751.055.719.085.986a.853.853,0,0,1-.285.073.353.353,0,0,1-.221-.06.745.745,0,0,1-.161-.161c-.027-.04-.047-.074-.067-.074a1.258,1.258,0,0,0-.161.215.162.162,0,0,1-.128.067.24.24,0,0,0-.14.053c-.067.041.073.067.127.087s.013.081,0,.108.02.087.027.12a.437.437,0,0,1-.027.181c-.02.047-.134.041-.2.034s-.107-.168-.141-.228-.168-.094-.214-.094-.161-.007-.2-.013a.38.38,0,0,0-.154,0c-.047.013-.06.181-.073.228s.013.067.02.094a.16.16,0,0,1-.061.14.355.355,0,0,1-.167.094.5.5,0,0,0-.088.087s-.174.4-.328.7a11.587,11.587,0,0,1-1.193,1.481,3.026,3.026,0,0,0-.711,1.106,7.929,7.929,0,0,1-.308.771s.053.067.067.081.006.047.006.067.021.02.041.02a.359.359,0,0,0,.08-.027c.02-.007.02.007.027.02a.111.111,0,0,1-.007.067.079.079,0,0,0,.007.054c.007.02-.033.013-.054.013s-.08.007-.12.007-.014.074-.007.107-.013.054-.013.067a.277.277,0,0,1-.014.067c-.007.007-.02,0-.033-.02s-.034.027-.047.047-.007.027,0,.04.02.034.02.074a.25.25,0,0,1-.034.1.161.161,0,0,0-.026.073c-.014.047.026.107.033.128s.013-.007.02-.021.04.034.054.054-.014.047-.02.06a.044.044,0,0,0,.006.041.145.145,0,0,0,.054.02.337.337,0,0,1,.054-.007c.04,0,.033.007.026.014a.091.091,0,0,1-.053.026.171.171,0,0,0-.074.027c-.034.02.027.04.047.047s.02.034.02.047a.84.84,0,0,0,.013.087c.007.034.041.027.068.034s.026.033.04.053.013.014.02.007,0-.034,0-.06,0-.021.013-.027.041.053.047.08.027.02.047.02.007.047.007.061-.007.053-.027.067-.033-.061-.047-.074a.129.129,0,0,0-.087-.007c-.027.007.027.094.04.114a.262.262,0,0,1,0,.074c-.006.02.007.04.027.027s.013-.02.034-.034.033-.013.053-.013.047-.02.074-.014.053.034.087.047a.08.08,0,0,0,.054.007.11.11,0,0,0,.06-.02c.013-.02.047-.007.067,0a.055.055,0,0,0,.047,0c.02-.007.033-.027.054-.047a.248.248,0,0,1,.093-.033c.027-.014.021-.041.034-.061a.448.448,0,0,1,.047-.06.14.14,0,0,0,.04-.067.177.177,0,0,0-.027-.114c-.02-.027-.087-.034-.1-.04s-.034-.067-.047-.094-.034,0-.047.007a.049.049,0,0,1-.06,0c-.034-.021,0-.041,0-.061a.143.143,0,0,1,.02-.067c.02-.027.033.027.033.04s.014.014.034.014.006-.061.006-.081a.279.279,0,0,0-.026-.067c-.021-.033-.094-.02-.108-.02a.067.067,0,0,1-.047-.013c-.02-.02-.02,0-.06,0s-.02-.06-.02-.081a.2.2,0,0,0-.04-.093c-.027-.041-.027-.034-.027-.054s.013-.02.04,0,.034.013.067-.007.04-.067.061-.094.02-.027.046-.027.014.054.007.061-.007.013.02.02,0,.033-.013.047a.22.22,0,0,0-.047.06c-.013.02,0,.027.013.02s.054-.026.067-.033a.242.242,0,0,1,.067-.007c.014,0,.02-.013.054-.013a.1.1,0,0,1,.087.073c.027.047.04.014.04-.013a.7.7,0,0,0,.007-.121c-.007-.033-.094-.02-.121-.02a.054.054,0,0,1-.053-.027c-.014-.02-.027-.006-.04-.006s-.014.006-.041-.014.014-.027.034-.04a.279.279,0,0,0,.06-.067.262.262,0,0,0,0-.074.064.064,0,0,0-.033-.047.053.053,0,0,1-.027-.047c-.007-.02.007-.026.027-.026s.013-.007.013-.021-.02-.033-.033-.06-.014-.047,0-.06.04.02.053.047a.19.19,0,0,1,.027.053.653.653,0,0,0,.054.088c.013.026-.027.026-.034.033s0,.047,0,.067.02,0,.034-.013.04-.007.067-.007.033-.013.053-.027.027.027.021.047-.014.027-.034.027-.087.013-.107.013-.034,0-.034.027.034.014.034.014a.13.13,0,0,1,.033-.007c.014,0,.027.033.027.06s.027.02.04.02a.121.121,0,0,0,.067-.073.39.39,0,0,0,.02-.108.3.3,0,0,1,.041-.08.319.319,0,0,0,.04-.054.941.941,0,0,1,.094-.08c.027-.014.08.006.114.006a.088.088,0,0,0,.067-.02c.013-.013.033-.033.053-.033a.436.436,0,0,1,.094-.014c.027,0,.034-.013.034-.053s.013-.027.04-.027.013.02.007.04.013.014.04.007a.346.346,0,0,1,.067-.013c.02-.007.02-.014.02-.047s.007-.027.02-.027.02.007.034.02.02.007.033.02.007.02-.013.06.047.007.073-.013a.474.474,0,0,1,.081-.06c.02-.014-.007-.02-.027-.02s-.027.006-.033.02-.021.006-.007-.02a.084.084,0,0,1,.054-.047c.02-.007.02-.014.04-.021s.033-.026.04-.033.02.013.02.033.02.041.047.054a.2.2,0,0,0,.087.014.415.415,0,0,0,.094-.027.168.168,0,0,0,.04-.067.066.066,0,0,1,.061-.041.06.06,0,0,0,.047-.02c.02-.013.02-.06.02-.094s-.041-.02-.061-.02-.04-.006-.047-.04.021-.02.041-.013.033-.014.06-.02.047.02.067.02.013.02.007.033-.007.014-.007.047.054.02.074.02.02.02.013.04-.04.014-.054.007-.013.02-.013.04-.034.034-.047.067.027.021.047.014a.158.158,0,0,0,.047-.02.273.273,0,0,1,.047-.034.3.3,0,0,0,.08-.02c.021-.013.021-.007.021-.033s-.034-.034-.061-.034-.027,0-.033-.034.033-.073.06-.093-.02-.034-.04-.061.033-.026.067-.026.027.02.033.033.041.007.067.007a.245.245,0,0,1,.074-.007.431.431,0,0,0,.054-.013c.026-.007.013.04.013.067a.027.027,0,0,0,.034.027c.013,0,.02.033.04.046s.054,0,.08-.013a.63.63,0,0,0,.094-.04.055.055,0,0,0,.034-.047.558.558,0,0,0-.02-.134,1.142,1.142,0,0,0-.047-.114.119.119,0,0,1-.007-.081c0-.02.013-.033.034-.047s.006.027,0,.047a.275.275,0,0,0,.02.081c.006.013.026.006.046,0a.075.075,0,0,1,.034-.007c.013,0,.02-.013.033-.027s.021.02.021.034-.054.033-.074.047-.02.04-.02.073.033.047.047.054a.091.091,0,0,1,.047.027c.02.02.053.033.067.047a.134.134,0,0,0,.053,0,.138.138,0,0,0,.041-.027.221.221,0,0,0,.026-.08c.007-.027.014-.041.034-.047a.261.261,0,0,0,.06-.034c.02-.013.02-.033.027-.047s.013-.013.027-.02.04-.013.053-.02a.03.03,0,0,1,.034,0,.092.092,0,0,1,.034.047.508.508,0,0,0,.013.06c.007.02.02.02.033.02a.1.1,0,0,0,.054-.02c.014-.006.027-.04.04-.06a.28.28,0,0,1,.027-.047.62.62,0,0,0,0-.114.6.6,0,0,1-.02-.06.083.083,0,0,1,.007-.061.718.718,0,0,1,.047-.073.311.311,0,0,0,.02-.1v-.094a.3.3,0,0,0-.02-.08.247.247,0,0,1-.014-.061c0-.02.014-.013.027-.013s.027.047.027.06,0,.027.007.041a.335.335,0,0,1,.026.067.109.109,0,0,1,0,.067c0,.013.014.02.02.013a.145.145,0,0,0,.034-.02c.007-.007.013-.02.027-.027s.007.007.007.02-.021.034-.034.041a.134.134,0,0,0-.04.046.29.29,0,0,0,.013.148c.014.033.04.013.054.007a.069.069,0,0,1,.04-.007c.02.007,0,.033-.007.047s-.006.027-.013.067.047-.007.054-.014.02-.006.033-.013.034-.02.054-.06a.546.546,0,0,0,.033-.081c.007-.013.02-.02.034-.04a.149.149,0,0,0,.013-.074c0-.02-.02-.04-.047-.067s-.02-.06-.033-.087-.047-.047-.054-.067.014-.02.034-.02.026.013.04.027a.427.427,0,0,1,.047.094.626.626,0,0,0,.1.14.06.06,0,0,0,.047.02.152.152,0,0,0,.054-.013.113.113,0,0,0,.054-.033.172.172,0,0,1,.02-.047c.02-.02.013-.02.006-.034a.11.11,0,0,0-.02-.033c0-.007,0-.007.014-.014s.02-.006.026-.02a.069.069,0,0,0,.007-.04c.007-.02-.033-.04-.047-.047s-.02-.014-.033-.04.02-.1.027-.114a.232.232,0,0,0,.006-.067c0-.02-.027-.034-.04-.04s-.013-.021-.02-.047-.047-.061-.067-.088-.094-.04-.107-.047a.2.2,0,0,1-.068-.046c-.02-.021-.033-.027-.033-.054s.06.013.074.027a.174.174,0,0,0,.06.027.138.138,0,0,0,.054.013.078.078,0,0,1,.053.027.654.654,0,0,1,.054.08.059.059,0,0,0,.047.027c.013,0,.013,0,.02-.02s-.02-.04-.027-.054-.02-.006-.027-.027.014-.04.021-.06a.057.057,0,0,0-.021-.06.124.124,0,0,0-.06-.027c-.02,0-.027-.02-.033-.04a.189.189,0,0,0-.027-.047c-.014-.02.006-.047.013-.067a.18.18,0,0,0,.007-.067c0-.034-.034-.061-.04-.074s.006-.02.013-.027a.082.082,0,0,1,.04.034c.007.013.007.033.014.053a.662.662,0,0,1,.02.108c0,.02.013.02.027.006a.13.13,0,0,0,.026-.04c.007-.013.014-.007.027-.02s.014.04.014.047a.05.05,0,0,1-.014.027.039.039,0,0,0-.013.033.43.43,0,0,0,.02.1.037.037,0,0,0,.027.013c.006,0,.006.007.013.014a.048.048,0,0,0,.014.026c0,.007.02.007.033.007a.272.272,0,0,0,.06-.013c.02,0,.027.02.034.033a.245.245,0,0,1,.007.074.07.07,0,0,0,.026.047.1.1,0,0,1,.027.047c.014.02.04.047.047.06s.04.014.054.02.013.02.013.034a.053.053,0,0,1-.02.033c-.007.007.007.014.014.014a.163.163,0,0,0,.046-.014c.007-.013.021-.02.027-.033a.044.044,0,0,1,.034-.027.2.2,0,0,1,.06.007c.013.006.02.006.027.027s-.014.033-.027.047-.02,0-.027-.014-.06.034-.073.047-.034.027-.041.06.074.04.1.04a.381.381,0,0,0,.094-.013h.053c.027,0,.054.067.061.081s.02.013.033.013.02-.007.034-.02.027.013.033.02.014.007.034-.013.013.02.02.033.013.02.02.027.013.007.013-.013a.188.188,0,0,0-.006-.061c-.007-.013-.034-.027-.047-.047s-.014-.007-.014-.027.007-.026.027-.033a.157.157,0,0,1,.081.02.067.067,0,0,0,.033.007c.014-.007.007-.041.007-.054s.02-.027.02-.04a.018.018,0,0,0-.02-.02.159.159,0,0,1-.047-.014.125.125,0,0,0-.074.021.119.119,0,0,1-.04.02.132.132,0,0,0-.04.053c0,.014-.02-.02-.02-.033s-.007-.014-.014-.027-.006-.007-.013-.02.04-.014.053-.014.027-.013.041-.02a.041.041,0,0,1,.027.007c.013.007.013,0,.02-.007l.026-.027c.014-.013-.026-.013-.033-.02s-.013-.006-.027-.013-.013,0-.033-.013.08-.074.1-.081a.452.452,0,0,1,.054-.02c.027,0,.06.007.067.02s.04.013.053.02a.088.088,0,0,1,.027.047.458.458,0,0,1,.007.094c-.007.02.013.02.027.02s.02-.02.033-.033a.06.06,0,0,1,.034-.021.265.265,0,0,0,.047-.02.065.065,0,0,0,.006-.033c0-.007-.02-.014-.033-.02l-.04-.02c-.007-.007-.027.006-.04.013s-.014,0-.021-.013.007-.021.014-.027.04-.014.053-.027.014-.02.021-.034.013-.02,0-.033-.041-.007-.054,0a.081.081,0,0,1-.04.007c-.02,0,0-.041.013-.061s.014-.04.027-.053.027-.007.047-.007a.118.118,0,0,0,.053-.014.1.1,0,0,0,.041-.02c.006-.013.033-.026.047-.033a.152.152,0,0,1,.06-.013c.02-.007.02-.021.033-.034s.007-.013.021-.02.026.007.033.02a.03.03,0,0,1,0,.034.24.24,0,0,1-.06.046.142.142,0,0,0-.041.047c-.006.014.014.027.014.041s.007.033.007.053a.308.308,0,0,0,.006.074c.007.02.02.027.034.02a.115.115,0,0,0,.06-.027c.02-.013.014-.007.04-.007s.041.027.054.047.013.007.02-.006,0-.047.007-.067a.054.054,0,0,1,.02-.034c.013-.013.02-.013.02-.033a.078.078,0,0,0-.04-.054.106.106,0,0,0-.047-.02c-.027-.014-.02-.014-.027-.034s.007-.013.034-.013h.04a.057.057,0,0,0,.033-.007c.014-.006.02.027.02.04a.105.105,0,0,0,.034.041c.007.006.02.006.033-.007s.021-.02.021-.034a.1.1,0,0,0-.007-.04.079.079,0,0,1-.007-.04.036.036,0,0,1,.014-.027c.006-.006.013,0,.04.007s.033-.007.054-.013.046.006.06.013.02-.02.027-.034a.132.132,0,0,1,.047-.04c.02-.007.053-.04.08-.047s.007.034-.007.04a.081.081,0,0,0-.033.047c-.007.021-.034.021-.04.027s.006.007.006.014.034,0,.047,0,.027-.02.04-.02a.057.057,0,0,1,.041.02c.013.013,0,.02,0,.033s-.007.02,0,.027a.11.11,0,0,0,.06.047.1.1,0,0,0,.047-.007.141.141,0,0,1,.054-.007.124.124,0,0,1,.06.021.06.06,0,0,0,.04.013c.013,0,.013-.034.013-.047a.088.088,0,0,1,.021-.047c.013-.013-.021-.006-.041-.006s-.02,0-.04-.014.047-.067.047-.067,0-.02-.007-.027a.089.089,0,0,0-.046-.013c-.021,0-.014-.04-.021-.054s0-.02.014-.027a.033.033,0,0,1,.04.014c.007.013.033.02.047.033a.042.042,0,0,0,.047-.006c.02-.014.02-.041.033-.068a.093.093,0,0,1,.041-.046.05.05,0,0,1,.053-.007c.02.013-.006.033-.027.047a.053.053,0,0,0-.02.047c0,.02.047.02.061.02s.02,0,.04.013.027.081.027.108.027.013.033.006a.827.827,0,0,1,.067-.06.444.444,0,0,1,.074-.02c.027-.007.054-.04.067-.047a.144.144,0,0,1,.054-.007c.02,0,.006-.02.006-.033s-.013-.034-.013-.047a.085.085,0,0,1,.007-.041c.006-.013.04.014.047.021s.033.006.047.006-.027.04-.034.047a.06.06,0,0,0-.007.034c0,.02.034.013.054-.007a.342.342,0,0,0,.06-.074c.02-.033.061-.047.074-.06a.061.061,0,0,0,.033-.04c.007-.02.007-.014.027-.014s.054.041.067.047.027.007.061,0a.182.182,0,0,0,.08-.026.106.106,0,0,0,.02-.068c0-.02.034-.006.054-.013a.047.047,0,0,0,.033-.047c0-.013-.02-.074-.026-.107s.006-.04.02-.061.026-.02.026-.046-.046-.014-.06-.014-.02,0-.027-.02a.022.022,0,0,1,.014-.027s.06-.006.073-.006.027.02.027.033a.588.588,0,0,0,.014.08c.013.034.04-.033.06-.06A.1.1,0,0,1,56,44.873c.02-.006.033.014.047.027s.026.007.047-.013-.027-.027-.041-.041-.013-.026-.02-.053-.02-.034-.053-.04a.144.144,0,0,0-.094.006.353.353,0,0,1-.067.027c-.027.007-.061-.06-.067-.1s.013-.033.02-.026a.335.335,0,0,0,.047.04.123.123,0,0,0,.074.02h.073a.312.312,0,0,0,.081,0c.02-.007.02-.047.026-.06s.007-.027.021-.034a.24.24,0,0,0,.06-.074.579.579,0,0,0,.013-.181.058.058,0,0,1,.02-.053c.014-.014.027.013.034.033s.04.007.047,0-.007-.013.034-.02.013-.04.006-.06l-.006-.021a.481.481,0,0,0,.06.048c.013,0,.013,0,.026-.02s.02-.013.027-.007a.105.105,0,0,1,.02.061c0,.026.034.013.041,0a.09.09,0,0,1,.026-.041c.014-.02.047-.02.074-.026s.007-.047.007-.068-.007-.033.013-.053.02.067.034.1.027.021.033.014.014-.02,0-.04,0-.034,0-.067a.146.146,0,0,0-.006-.054c-.007-.02,0-.027.02-.04s.06-.014.087-.014.027.014.053.021.034-.041.041-.054.04-.047.06-.074-.04-.033-.067-.04a.12.12,0,0,1-.06-.027c-.014-.007,0-.02.02-.02a.547.547,0,0,1,.1.007.284.284,0,0,1,.1.033.146.146,0,0,1,.033.047.4.4,0,0,1,.02.074.314.314,0,0,1-.046.094c-.014.013.006.033.013.027a.5.5,0,0,0,.04-.054.1.1,0,0,0,.027-.054.174.174,0,0,0-.013-.1.1.1,0,0,1,.013-.088c.013-.02,0-.026-.007-.046s.007-.054.027-.067.027-.007.047,0a.04.04,0,0,0,.034-.014.021.021,0,0,1,.026,0c.007.007-.04.067-.047.081s-.013.02-.02.067.034.013.047-.014a.67.67,0,0,1,.067-.114c.021-.02.047-.006.061-.02s.006-.04.006-.074a.144.144,0,0,1,.027-.073c.014-.027.014-.02-.013-.041s.02-.04.04-.053.027,0,.027.033.047-.006.06-.02a.352.352,0,0,0,.047-.06c.007-.013.027-.013.054-.027s.02-.027.02-.04-.007-.027-.027-.054a.532.532,0,0,0-.107-.08c-.02-.014-.047.006-.087.02a.121.121,0,0,1-.114-.047c-.02-.034.027-.04.06-.047a.241.241,0,0,1,.1.007c.034,0,.027-.014.027-.027a.047.047,0,0,1,.014-.04c.013-.014.006-.014,0-.034s-.047-.006-.081-.013,0-.04.02-.047.027,0,.047.007a.064.064,0,0,0,.047,0c.014-.007.027.006.027.026s-.013.054-.02.074.007.04.02.06.054.02.081,0a.113.113,0,0,0,.047-.08c.006-.033-.014-.04-.047-.04s-.021-.02-.021-.034-.026-.027-.04-.047.007-.033.02-.053.014-.054.027-.067.027.006.034.02a.244.244,0,0,1,0,.067.1.1,0,0,0,.06.08c.04.027.034,0,.06-.027s.027-.033.054-.04a.5.5,0,0,1,.087-.006c.013,0,.02-.021.027-.041s-.02-.06-.014-.08.021-.02.034-.007a.331.331,0,0,1,.04.087c.007.02.02.02.041.02h.053c.027,0,.027.007.027.027a.262.262,0,0,1,0,.074c-.007.02.02.02.034.02s.033-.054.04-.074.026-.04.04-.067-.007-.027-.02-.04a.036.036,0,0,1-.014-.034c0-.013.02-.013.047-.013s.027-.027.027-.04a.371.371,0,0,1,.047-.054c.007-.013.02-.013.02-.033s-.027-.02-.047-.02h-.067c-.02,0-.04-.014-.04-.02a.053.053,0,0,0-.02-.041c-.02-.02.013-.047.033-.047a.1.1,0,0,1,.061.014c.013.013.013.007.033.007a.229.229,0,0,0,.074-.021c.013-.006.02-.02.04-.026s.087,0,.108,0,.02,0,.026-.014-.053-.033-.073-.047-.007-.02-.007-.033.067,0,.094,0,.02-.007.02-.027,0-.027-.007-.047.007-.04,0-.06-.047.026-.074.04-.033-.014-.047-.034-.046-.026-.06-.047.074-.02.094-.026.013-.034.013-.047-.006-.034-.006-.047a.491.491,0,0,0-.02-.074c-.007-.02-.034-.02-.054-.027s.054-.047.074-.054.013-.013.033-.02a.291.291,0,0,1,.074.007c.027.007-.027.04-.06.06s.02.061.04.088a.168.168,0,0,1,.027.073c.006.027.033.007.053-.006a.162.162,0,0,1,.061-.027c.02-.007.013-.04.02-.054a.166.166,0,0,1,.067-.04c.013-.007.02,0,.047.007s.027-.007.027-.014-.007-.033-.007-.06.073-.007.087-.007.02-.006.013-.027-.047-.033-.067-.053a.122.122,0,0,0-.073-.034.39.39,0,0,1-.108-.02c-.033-.006-.04-.027-.053-.047s0-.027.006-.033a.144.144,0,0,0,.027-.034c.007-.013.014-.013.027-.02a.569.569,0,0,1,.067-.013c.027,0,.027.013.06.02s.027-.034.027-.047a.054.054,0,0,1,.014-.04c.006-.021-.007-.027-.014-.041a.293.293,0,0,1-.027-.06c-.006-.02,0-.027.021-.033s.026.006.026.02a.234.234,0,0,0,.034.073.171.171,0,0,0,.087.034c.033,0,.067.06.074.08a.178.178,0,0,1-.014.081c-.013.02-.006.04.02.027a.171.171,0,0,0,.081-.047c.033-.027.04,0,.06.027s.034-.047.04-.074-.013-.027-.02-.047-.026-.027-.04-.04a.06.06,0,0,0-.06-.007c-.02.007,0-.067.006-.087s-.013-.027-.04-.027-.027,0-.04-.027-.013-.013-.067-.027,0-.026.007-.06.107-.013.134-.02.027-.02.027-.04a.838.838,0,0,1,.013-.088c.007-.046-.02-.053-.047-.073s.06-.081.094-.107.027-.061.033-.1a.042.042,0,0,0-.046-.054.071.071,0,0,1-.088.007c-.06-.02-.06-.007-.107-.007s-.013-.02,0-.033a.284.284,0,0,0,.02-.067.138.138,0,0,1,.067-.054c.027-.007.034-.033.04-.047a.246.246,0,0,1,.021-.047.455.455,0,0,0,.047-.067c.006-.02.066-.02.093-.027a.707.707,0,0,0,.155-.087c.033-.026.026-.02.026-.033s-.02-.007-.06,0-.04-.014-.04-.027-.014-.027-.027-.047-.034,0-.04.013a.356.356,0,0,1-.047.041c-.027.02-.02.047-.047.08s-.06-.047-.074-.067-.007-.007-.007-.047-.067-.013-.087-.013a.025.025,0,0,1-.027-.034c0-.02.061-.027.088-.033s.033.013.047.02a.387.387,0,0,0,.053.027.128.128,0,0,0,.067.006c.02,0,.034-.02.04-.033s-.006-.034-.026-.047-.027-.061-.041-.094-.093-.06-.127-.067-.047.02-.074.04-.04-.007-.047-.033.027-.047.041-.074-.047-.034-.067-.047.006-.06.006-.08.02-.014.04-.014.034.027.061.047.047.034.06.04.02-.02.02-.033a.148.148,0,0,1,.02-.047.157.157,0,0,0,.014-.061.1.1,0,0,1,.06-.067c.034-.006.013.061,0,.074s0,.04,0,.054a.12.12,0,0,1,0,.054c-.007.04.02.033.04.033a.138.138,0,0,1,.047.013c.02.007.027-.026.027-.04s.027-.04.027-.053-.007-.041-.007-.068.054-.013.067-.006.02-.007.061-.007-.007.06-.027.081a.439.439,0,0,0-.047.1.218.218,0,0,1-.081.074.124.124,0,0,0-.06.08c-.013.034,0,.04.027.04a.167.167,0,0,0,.094-.06.991.991,0,0,1,.12-.094c.021-.006.014-.013.027.007s.027.007.04-.013a.087.087,0,0,0-.013-.067c-.013-.027.007-.041.02-.054s-.007-.04-.013-.067-.027-.02-.047-.034a.154.154,0,0,1-.054-.073c-.006-.02.067-.074.094-.087a.077.077,0,0,1,.054-.007.056.056,0,0,0,.053-.014c.02-.02.02-.087.02-.107V39.49c0-.02-.02-.026-.033-.053s.053.02.074.027h.047c.02,0,.033-.014.04-.041s.013-.006.033-.027,0-.013-.006-.013-.027,0-.047-.013-.014-.034-.014-.054-.027-.027-.047-.013-.047-.027-.067-.034-.04.007-.067.04-.027,0-.027-.053.027-.034.047-.034.02-.006.047-.013.034.013.047.027a.065.065,0,0,0,.034.02s.027-.006.046-.01l.022.056c.007.013.1.04.114.027a.118.118,0,0,0,.021-.087c0-.034,0-.041.02-.061s.006-.033-.014-.047-.02-.02-.006-.033.006-.02.013-.047.027-.013.04-.007a.505.505,0,0,1,.047.02c.034.014.04-.006.034-.047a.19.19,0,0,1,.006-.067.061.061,0,0,0,.014-.047c0-.02-.007-.04-.027-.026s-.014.013-.04.006a.063.063,0,0,1-.047-.047.046.046,0,0,0-.034-.053c-.033-.014,0-.034.04-.041s.047-.026.047-.053-.006-.02.007-.054c.034-.073.067-.094.067-.134s.034-.074.074-.107a.1.1,0,0,0,.04-.1c0-.033-.047-.04-.094-.046s-.074-.054-.1-.074-.034-.027.006-.027a.136.136,0,0,1,.074.02.2.2,0,0,0,.107,0c.041-.013.047,0,.074.013s.047-.006.067-.04a.1.1,0,0,0,.007-.094.067.067,0,0,1,.04-.087.057.057,0,0,0,.047-.04.142.142,0,0,0,.033-.074c0-.027-.04-.053-.08-.067s-.013-.04-.013-.04a.553.553,0,0,1,.073.007c.047.006.041-.007.041-.02a.054.054,0,0,1,.026-.054c.021-.014.021-.02.014-.04s.027-.007.027-.007.006.013.04.027.033.033.007.04-.02.027,0,.04a.049.049,0,0,1,.026.047c0,.027,0,.02.021.04s-.007.041-.041.041-.033,0-.04.033a.081.081,0,0,1-.054.06c-.026.007-.02.014-.006.041a.1.1,0,0,1,.02.067c0,.04.027.027.047,0s.053-.02.08-.034.034-.053,0-.074-.027-.04,0-.067.047.007.074.034.027.007.047-.013.02-.054,0-.047-.02.006-.014-.02.007-.034.041-.061.026-.06.026-.094.014-.04.041-.033h.074c.046,0,.046.02.046.067s.027.047.041.02.013-.02.013-.047a.127.127,0,0,1,.007-.054c.007-.02,0-.033-.027-.02s-.04,0-.04-.027-.007-.02-.02-.06-.02-.04-.02-.067a.071.071,0,0,1,.026-.06c.02-.014.041-.027.027-.04s-.02-.021-.047.006-.04.014-.053-.02a.571.571,0,0,1-.034-.074.143.143,0,0,0-.067-.073c-.034-.014-.027-.027,0-.034a.127.127,0,0,0,.047-.007.069.069,0,0,0,.067-.026c.02-.027.02-.014.047-.02s.027-.021.027-.054,0-.034.033-.047.014-.02,0-.034-.006-.026-.027-.033a.044.044,0,0,1-.033-.034.059.059,0,0,0-.067-.026c-.027.006-.047.013-.047-.007-.007-.04-.074-.027,0-.074.013-.007.007.007.013.02s.02.02.047.014.034.006.061.02.047,0,.06-.027-.013-.047-.034-.06-.013-.034.007-.041.02-.02,0-.02-.08-.067-.087-.08-.034-.027-.081-.027-.026.02-.093.027c-.014,0-.074-.081-.04-.081s.026.007.053,0,.027-.047.027-.06c-.007-.054.033-.074.047-.1a.014.014,0,0,1,.027.006.3.3,0,0,0,.033.087c.02.054.074.02.094.007a.125.125,0,0,1,.04-.02c.02-.007.047-.014.034-.047-.061-.087-.034-.248,0-.181.007.02.027.027.047.04s.02.014.013.061a.608.608,0,0,1,0,.113c-.007.061.054.027.107-.006a.111.111,0,0,0,.061-.094.278.278,0,0,0-.094-.141.028.028,0,0,1-.007-.047s.027-.02.047-.033.013-.034-.007-.041-.02-.04-.04-.06-.013-.033.007-.053.02-.034.04-.047.013-.027,0-.034-.02-.027-.047-.02a.4.4,0,0,0-.08.007c-.047.006-.054.027-.081.067a.11.11,0,0,1-.073.08.832.832,0,0,1-.108.06c-.067.054-.094.061-.107.034-.02-.007-.033.007-.067.067-.02.034-.034.02-.034,0a.176.176,0,0,1,.007-.06C60.724,36.118,60.724,36.084,60.751,36.077ZM43.615,38.183s.014.009.016.006h-.01Zm.022-.012.02.016-.023,0C43.639,38.182,43.637,38.177,43.637,38.171ZM54.6,36.354l0,0a.167.167,0,0,1-.117.035Zm2.728,1.078s0,.01.007.014c-.026-.022-.051-.046-.076-.068s-.08-.06-.136-.1C57.2,37.333,57.277,37.39,57.325,37.432ZM55.553,24.87a.365.365,0,0,1,.041-.034v.027c0,.008,0,.015-.005.025a.045.045,0,0,1-.036.022C55.513,24.917,55.539,24.883,55.553,24.87Zm3.01,14.265h0a.5.5,0,0,0,.071-.086A.3.3,0,0,1,58.563,39.135Zm.208-.2c0,.057-.016.076-.034.084a.1.1,0,0,0,.023-.071.25.25,0,0,1,.036-.131A.388.388,0,0,0,58.771,38.934Z"/><path class="cls-3" d="M55.326,24.367c-.014.02-.135.026-.2.06s-.094.02-.107-.034-.074-.033-.114.014-.074.013-.107-.06-.041-.068-.088-.034-.08.027-.093-.027-.081-.027-.128-.047-.047-.141-.047-.241.04-.127.128-.168.053-.1.013-.14.007-.135,0-.2-.04-.073-.033-.12-.014-.067-.041-.114a.41.41,0,0,1-.02-.161.284.284,0,0,1,.034-.047c.006-.02.027-.067.027-.074a.361.361,0,0,1,.026-.067.146.146,0,0,0,.014.06c.013.041.04.081.06.081a.158.158,0,0,1,.06-.02c.027.006.054.02.068.02s.053.02.053-.02-.007-.141,0-.168a.4.4,0,0,0,.013-.073c.007-.014.014-.041,0-.054s-.06-.047-.053-.074a.141.141,0,0,1,.02-.074.228.228,0,0,0,.02-.08v-.087a.779.779,0,0,0,.107-.081c.041-.033.081-.053.074-.094a.13.13,0,0,0-.033-.067c-.014-.02.026-.02.04-.02s.08.007.094.034a.847.847,0,0,0,.04.08.2.2,0,0,0,.067.067c.04.02.067.027.08.054s0,.04.021.06.1.074.026.081a.964.964,0,0,0-.154.02.056.056,0,0,0-.047.067,1.6,1.6,0,0,0,.04.181c.014.033.014.067.047.094s.067.04.074.067a.757.757,0,0,0,.02.114c.014.033.04.047.067.013s.061-.067.094-.06a.259.259,0,0,1,.074.027c.013.006.033.02.027.067s-.047.161-.047.2a.072.072,0,0,0,.047.08c.013.007.033.007.047.014s.053.006.073.013a.15.15,0,0,1,.047.027.042.042,0,0,1-.006.047.278.278,0,0,1-.1.04.106.106,0,0,0-.06.04.556.556,0,0,1-.054.061.091.091,0,0,0-.04.087.3.3,0,0,1,.007.134.318.318,0,0,1-.061.127.281.281,0,0,0-.074.141,1.171,1.171,0,0,0-.02.141c0,.02-.006.067-.006.074s0,.026-.007.033A.013.013,0,0,0,55.326,24.367Z"/><path class="cls-2" d="M46.939,49.775c.007.007,0,.034-.034.021s-.04.006-.066.04a.356.356,0,0,1-.115.074.757.757,0,0,0-.1.053.464.464,0,0,0-.1.074c-.033.04-.053.067-.093.074s-.074.053-.094.073-.047.061-.094.061a.087.087,0,0,0-.094.06c-.02.054-.014.081,0,.1s.04.04,0,.073a.137.137,0,0,0-.04.128.136.136,0,0,0,.026.087c.021.033.007.067.007.107a.121.121,0,0,1-.02.087.076.076,0,0,0,.034.1c.04.027.04.08.04.127s.013.054-.007.1a.124.124,0,0,0,.007.127c.027.04.027.034.067.034s.094,0,.114.026a.123.123,0,0,0,.087.054.091.091,0,0,1,.087.047.064.064,0,0,0,.087.034c.047-.007.108-.014.128.04s.047.08.1.053a.143.143,0,0,1,.128-.006.507.507,0,0,0,.127.02c.04.007.107.02.087.06s0,.06.034.027.067-.027.06,0,.04.027.02.054.007.026.027.013a.043.043,0,0,0,.02-.06c-.013-.027-.007-.027.014-.034s.026,0,.046-.013.034.013.041.04.02.027.033,0,.027-.054-.007-.06-.033-.027,0-.027.034-.007.041-.04.013-.047.033-.088.047-.073.067-.046.047.026.087,0a.39.39,0,0,1,.128-.061c.047-.013.073,0,.04.02s-.06.054-.007.067.054,0,.094-.013a.085.085,0,0,0,.061-.094.116.116,0,0,1,.04-.107.562.562,0,0,1,.127-.1.163.163,0,0,1,.134-.047c.054,0,.127,0,.141-.047s.02-.087.06-.1.074-.027.061-.054-.014-.013-.014-.047-.02-.04-.027,0,0,.061-.02.067-.027-.02-.047-.02-.033-.02,0-.033.027-.014.034-.041.007-.013.033-.033.027-.034.027-.074-.006-.067.027-.1.054-.061.04-.074-.013-.013-.013-.047-.007-.02.013-.027.04-.027.047-.08a.164.164,0,0,1,.047-.114.09.09,0,0,0,.054-.067c.006-.041.006-.054.033-.061s.027-.02.034-.047.02-.033.047-.047.067-.04.067-.073-.014-.034-.047-.067-.027-.04.013-.047a.109.109,0,0,0,.094-.034c.02-.027.027,0,.013.014a.054.054,0,0,0-.006.02.027.027,0,0,1-.034.02c-.033-.007-.027.02-.013.054s.007.067.06.006c.034-.04.061-.053.081-.087a.033.033,0,0,1,.053-.013c.034.013.034-.014,0-.041s-.027-.046-.027-.1a.329.329,0,0,0-.02-.141c-.02-.047-.006-.047-.026-.087l-.034-.067c-.013-.04-.027-.054-.067-.047a.154.154,0,0,1-.107-.02.322.322,0,0,0-.088-.054.124.124,0,0,1-.053-.094c-.007-.04-.027-.026-.027,0a.049.049,0,0,1-.054.054c-.047,0-.093,0-.087.054s.014.067,0,.093-.02.027-.04,0a.09.09,0,0,0-.067-.06.431.431,0,0,1-.094-.053c-.033-.021-.08-.041-.107,0a.086.086,0,0,1-.1.033c-.047-.007-.094-.013-.12.014s-.094.053-.034.053c.04,0,.034.034-.013.027s-.074-.02-.108,0-.033.027-.033.06-.007.047-.027.027-.013-.02-.027-.02,0-.007-.006-.027-.02-.054-.054-.054-.054.014-.074.054-.053.074-.04.014.034-.094.013-.094-.013.006-.026.047-.027.053-.041.026-.02-.026-.04-.02-.027,0-.047-.02a.083.083,0,0,0-.1-.027.282.282,0,0,0-.1.054.111.111,0,0,0-.047.1c.014.026.034.053,0,.053a.1.1,0,0,0-.047.007c-.02.007-.04.007-.047-.02a.069.069,0,0,0-.08-.034c-.04.007-.06.014-.08-.006s-.041-.034-.081,0a.444.444,0,0,1-.114.08c-.047.02-.04.054-.02.087s.054.034.094,0a.174.174,0,0,1,.04-.027c.02-.013.047-.006.033.014C46.939,49.742,46.932,49.769,46.939,49.775Z"/><path class="cls-3" d="M62.044,41.951a.1.1,0,0,1-.04-.014c-.027-.013-.033-.067-.027-.1s-.087-.02-.087-.02a.168.168,0,0,1-.06,0c-.034-.014-.04-.027-.067-.021s-.04.014-.054-.013-.013-.027-.04-.033-.04-.007-.047-.048-.033-.073-.074-.066a.177.177,0,0,0-.114.046c-.046.041-.093.094-.08.114s.027.054-.007.067-.06.047-.1.047a.123.123,0,0,0-.1.034c-.04.027-.027.047-.08.054a.147.147,0,0,0-.121.1.672.672,0,0,0-.054.114.219.219,0,0,1-.013.06.309.309,0,0,0-.027.094c0,.034.007.067-.02.087s-.007.014-.027.02-.027.021-.04.054-.02.067-.047.067a.046.046,0,0,0-.047.027.082.082,0,0,1-.033.047c-.027.02-.027.047-.027.08a.1.1,0,0,1-.034.094c-.027.027-.04.027-.047.067A.206.206,0,0,1,60.5,43a.2.2,0,0,1-.047.08c-.027.027-.041.048-.034.061a.082.082,0,0,1,.007.047.113.113,0,0,1-.027.074.605.605,0,0,0-.047.08c-.027.054-.033.094-.054.114s-.02.027-.04.067-.02.047-.033.074-.007.04-.027.053a.038.038,0,0,0,.007.067c.033.014.033.027.006.027a.113.113,0,0,0-.08.054.116.116,0,0,0-.027.08c0,.041,0,.054-.027.054s-.047.047-.033.094a.4.4,0,0,1,.04.154.484.484,0,0,0,.007.154c.02.014.033.054,0,.04s-.034-.006-.027.027a.4.4,0,0,1-.007.087.374.374,0,0,0-.013.148c.013.033.02.047,0,.067s-.02.02-.014.04.014.034.007.047.013.02.04.034a.339.339,0,0,0,.067.013c.027,0,.034.013.027.04a.086.086,0,0,0,.02.087c.034.027.047.047.047.074a.071.071,0,0,0,.014.054c.013.02.026.026.026.053s.007.061.027.061.034.013.027.04a.072.072,0,0,0,.027.054.185.185,0,0,1,.047.053c.02.027.013.04-.007.027s-.034-.047-.054-.027.034.04.054.054a.836.836,0,0,0,.161.1c.047.014.1.041.154.061a.243.243,0,0,1,.107.094c.021.033.047.093.074.1a.053.053,0,0,1,.034.074.075.075,0,0,0,.02.074.067.067,0,0,1,.006.067c-.013.033-.02.053.007.08s.034.04.034.067.02.081.04.054a.089.089,0,0,0,.013-.041c.007-.033.034-.026.047-.006s.027.013.047.04.034.027.047.02.007-.027-.007-.047a.121.121,0,0,1,.021-.14c.02-.027.006-.041,0-.074a.27.27,0,0,0-.014-.1.213.213,0,0,1-.007-.087.139.139,0,0,0-.026-.08c-.021-.041,0-.068.013-.1a.385.385,0,0,0,.027-.107.687.687,0,0,1,.033-.148.309.309,0,0,1,.081-.154c.033-.027.027-.054.074-.067s.046-.02.053-.04a.1.1,0,0,1,.02-.047.1.1,0,0,0,.014-.067.058.058,0,0,1,.033-.067.113.113,0,0,0,.034-.061c.006-.02,0-.033.027-.053s0,0,.026-.034a.168.168,0,0,0,.027-.107c0-.054.027-.06.047-.094a.121.121,0,0,0,.007-.094.109.109,0,0,1,0-.067.183.183,0,0,0,.02-.067c0-.02.007-.02.02-.053a.212.212,0,0,0,.02-.081.192.192,0,0,1,.014-.087.274.274,0,0,0,0-.1.547.547,0,0,1,.006-.147.619.619,0,0,0,.02-.1.724.724,0,0,0,0-.127c0-.08.007-.107.007-.154s.013-.081.013-.121-.02-.053-.033-.087.02-.054.04-.074a.229.229,0,0,0,.04-.074c.007-.026.02-.033.041-.067a.377.377,0,0,0,.047-.093.642.642,0,0,0,.04-.141A.115.115,0,0,1,62,42.708c.02-.027.013-.033.013-.067v-.06A.1.1,0,0,0,62,42.52a.541.541,0,0,1-.047-.087.432.432,0,0,1-.034-.194.39.39,0,0,1,.067-.174c.027-.027.067-.061.067-.061v-.053Z"/><path class="cls-3" d="M52.786,46.04a.317.317,0,0,0,.108-.047.761.761,0,0,1,.134-.02h.04c-.007,0-.007.006-.013.006-.027.021-.054,0-.014.007s.034.027.061.027.026.02.006.033-.02.027-.04.021a.041.041,0,0,0-.047.006c-.02.014-.013.014-.04.007s-.034.013-.014.027.014,0,.014.027.013.047.02.02.02-.047.047-.047.02-.02.047-.02c.033-.02.04-.014.06-.007s.013.013.027.007.047.013.027.026a.05.05,0,0,0-.007.054c.007.02,0,.047-.034.027s-.087-.047-.1-.013-.027.033.007.053a.079.079,0,0,1,.047.074c0,.033-.007.067-.027.033a.1.1,0,0,1-.02-.053c0-.02-.02-.034-.027-.014s-.02.02-.027,0-.013-.026-.04,0-.047.014-.067-.02-.034-.067-.087-.047a.259.259,0,0,1-.121.02c-.047,0-.121-.026-.074-.08s.094-.1.1-.08.033.013.047-.014.013-.02.006-.027Z"/><path class="cls-3" d="M55.271,29.877s-.06-.014-.06-.034-.027-.06,0-.08.06-.04.06-.04l.047.114Z"/><path class="cls-2" d="M11.972,20.17l-.449-.3a.572.572,0,0,1,.382-.275,1.054,1.054,0,0,1,.2-.02.562.562,0,0,1,.094-.174,1.039,1.039,0,0,1,.02-.155,1.017,1.017,0,0,1,.02-.4l-.228-.006-.147-.054a.968.968,0,0,1-.282-.288c-.06-.088-.1-.188-.154-.275a.726.726,0,0,1,.074-.744l.013-.02-.02-.222.583.034a.448.448,0,0,1,.027.234.1.1,0,0,0,.054.088c.047.026.053.033.047.093s-.047.067-.081.047a.108.108,0,0,0-.154.014c-.067.067-.067.067-.08.134a.136.136,0,0,0,.013.107.524.524,0,0,1,.06.107.84.84,0,0,0,.061.114c.013.014.06.108.114.121a.112.112,0,0,0,.114-.06c.033-.047.067-.074.161-.034a1.432,1.432,0,0,1,.207.1c.067.04.088.027.134.1s.054.087.1.148.08.114.02.194a.456.456,0,0,0-.127.228.373.373,0,0,0,0,.195.133.133,0,0,1,0,.14.266.266,0,0,0-.014.188c.02.047.027.087-.047.141s-.107.1-.087.174a.381.381,0,0,0,.061.141.224.224,0,0,1,.047.161.122.122,0,0,1-.108.107.346.346,0,0,1-.107.007.255.255,0,0,1-.087.006.177.177,0,0,0-.054-.013c-.033-.007-.067-.007-.087-.04a.13.13,0,0,0-.121-.081.487.487,0,0,0-.12.007C12,20.13,11.992,20.123,11.972,20.17Z"/><path class="cls-2" d="M24.918,10.578a.134.134,0,0,1,.094.033.3.3,0,0,0,.174.047.4.4,0,0,1,.168.02c.04.007.067-.006.114.014a.973.973,0,0,0,.134.04.2.2,0,0,0,.107,0c.06-.013.06.007.114.013a.362.362,0,0,0,.148-.013.341.341,0,0,0,.08-.06.254.254,0,0,1,.087-.081c.047-.027.047-.074.04-.121a.153.153,0,0,1,.034-.107.073.073,0,0,0-.014-.087c-.02-.027-.006-.08,0-.121s.014-.1.027-.147a.116.116,0,0,1,.014-.047c.013-.074.02-.134.033-.194.007-.034.007-.068.014-.108.006-.1-.027-.094.026-.187.014-.027.034-.061.047-.088a.213.213,0,0,1,.074-.093c.034-.027.034-.027.047-.054s.04-.054.06-.094.074-.054.128-.06a1.043,1.043,0,0,1,.154.02,1.3,1.3,0,0,1,.141.04c.027.02.053.013.087.007a1.044,1.044,0,0,1,.147-.014.323.323,0,0,0,.128-.047A.2.2,0,0,0,27.405,9c.014-.033.067-.047.107-.08s.047-.047.054-.081a.126.126,0,0,1,.047-.08c.033-.034.02-.054,0-.08s-.034-.034-.007-.088.007-.073.061-.094.053-.033.08-.067.027-.04.094-.04.107.027.161.027a.119.119,0,0,1,.074.034c.04.033.087.06.127.093a.062.062,0,0,0,.087.014c.034-.027.034-.047.034-.047.013-.054.06-.034.107-.027a.837.837,0,0,0,.134,0c.013,0,.04-.007.033.007l.5-.107-.08-.235L28.82,8a.684.684,0,0,0-.282-.033c-.087.007-.167-.014-.248,0l-.074-.034a1.242,1.242,0,0,0-.415-.06.6.6,0,0,0-.4.181l-.093.06-.1.114a1.215,1.215,0,0,0-.127.369l-.027.027a1.358,1.358,0,0,0-.329-.06A.676.676,0,0,0,26.1,8.9c-.007.007-.014.013-.014.02a.875.875,0,0,0-.174.235.787.787,0,0,0-.127.476c-.014.127-.047.254-.067.389s.013.181-.108.2c-.046.013-.107.053-.134.047-.093.013-.14-.041-.234-.061C25.1,10.41,25.012,10.444,24.918,10.578Z"/><path class="cls-2" d="M45.37,47.355a.258.258,0,0,1-.087-.047c-.027-.02-.074-.067-.094-.081a.222.222,0,0,0-.161-.006.784.784,0,0,1-.087.047.409.409,0,0,1-.094.02H44.78c-.053-.014-.027-.014-.067-.04-.08-.047-.067-.007-.114-.007s-.053-.047-.073-.081c-.007-.013-.027-.067-.047-.067a.05.05,0,0,0-.041.02c-.013.014-.06.034-.073.02l-.047-.046a.349.349,0,0,0-.061-.047l-.02-.02-.02-.014L44.19,47c-.04,0-.047-.013-.047-.033s-.006-.034.021-.047.02-.027.02-.027c0-.027-.014-.033-.034-.053a.061.061,0,0,0-.06,0c-.034.013-.047.006-.054-.007a.242.242,0,0,1-.027-.04c-.033-.027-.033-.034-.073-.021a.034.034,0,0,1-.047,0c-.021-.02-.041-.033-.054,0s-.027.034-.034.021,0-.034-.013-.067a1.746,1.746,0,0,1,0-.262.62.62,0,0,0,0-.114c-.013-.04-.04-.047-.08-.053s-.067-.021-.047-.041.02-.033-.014-.047.007-.067.007-.067a.235.235,0,0,0,.02-.06.036.036,0,0,1,.02-.033c.02-.021.007-.048.034-.068a.052.052,0,0,1,.053,0c.041.027.074-.1.094-.134s.054-.067.067-.087.007-.053-.006-.053-.141-.041-.168-.088c-.054-.1-.067-.093-.1-.1a.076.076,0,0,0-.067.027.473.473,0,0,1-.161.067c-.046.006-.113-.014-.127-.047s0-.034-.054-.094-.1-.02-.181-.04-.08-.007-.073.033-.047.027-.094.034-.061.013-.067-.014a.126.126,0,0,0-.074-.067.138.138,0,0,1-.08-.067.227.227,0,0,0-.161-.047c-.081.04-.041-.02-.047-.094,0-.026-.047-.073-.06-.087L42.4,45.1s-.04-.027-.047-.053,0-.094-.026-.068-.034.027-.054-.013-.04-.02-.054-.067-.026-.047-.06-.013a.245.245,0,0,0-.054.067c-.006.026-.02.053-.047.047s-.033-.014-.067-.014-.04-.007-.067.007c-.006.007-.013.007-.026.013a.228.228,0,0,0-.094.054l-.02.02s-.061.074-.081.054-.047-.007-.08.02-.074.047-.074.067,0,.074.02.1l.02.027s.047.1-.013.087a.1.1,0,0,0-.114.054l-.02.013s-.047.047-.067.041-.047-.027-.061-.007-.027.02-.04-.007c-.02-.047-.067.014-.094.034a.264.264,0,0,1-.094.06c-.04.014-.046.047-.093.074s-.034.02-.068-.007c-.06-.047-.073.04-.073-.06v-.061c0-.067.067-.08.013-.08a.7.7,0,0,0-.107.027.314.314,0,0,0-.1.033l-.026.02a.316.316,0,0,0-.088.2c-.006.053-.033.053-.013.121a.069.069,0,0,1,0,.053c-.027.06-.054.007-.08-.02a.461.461,0,0,1-.047-.067.738.738,0,0,0-.175-.181.374.374,0,0,1-.094-.107c-.02-.034-.006-.034-.046-.027-.054.033-.081.161-.128.235s-.094-.027-.107-.121a.179.179,0,0,0-.094-.141c-.047-.033-.067.02-.087.067-.007.02.007,0-.007.014l-.02.033a.338.338,0,0,1-.074.067.123.123,0,0,0-.067.094c0,.04-.013.06-.053.067s-.061.014-.061.047-.013.033-.08.027-.02-.034-.081-.06a.1.1,0,0,1-.073-.088.144.144,0,0,0-.054-.087,1.412,1.412,0,0,1-.147-.107.2.2,0,0,0-.121-.047c-.034,0-.047,0-.074-.04s-.02-.034-.047-.04-.04.006-.047.053-.02.054-.06.047-.047.013-.034.047-.006.047-.006.047l-.1.094a.228.228,0,0,0-.054.087c-.02.06-.046.034-.093.04s-.061.014-.094-.013a.2.2,0,0,0-.1-.034.165.165,0,0,0-.161.041.086.086,0,0,1-.073.013c-.034-.007-.027-.04-.047-.1s-.054-.053-.114-.04a.107.107,0,0,0-.054.034.13.13,0,0,0-.02.067.258.258,0,0,1-.027.114c-.013.046-.04.053-.08.053s-.04.041-.02.074.04.087.02.114-.007.054.006.08a.163.163,0,0,1,.014.1.08.08,0,0,0,.027.074l.02.02c.02.027.067.073.087.107.033.06-.007.114.007.194.006.034-.007.041.047.1s-.021.06-.061.06-.033.034-.027.061a.171.171,0,0,1,0,.06c-.006.034-.013.06-.02.094a.248.248,0,0,0-.006.141c.013.04.073.033.093.053s.034.081,0,.081-.04.013-.046.053-.021.041-.054.041a.972.972,0,0,1-.188-.1c-.04-.02-.08-.067-.141-.04-.033.013-.06,0-.1.007a.433.433,0,0,1-.161.033c-.047-.007-.087-.087-.06-.107s.04-.054.02-.067a.143.143,0,0,1-.081-.054c-.02-.04-.027-.074,0-.08s.047-.02.047-.047-.033-.027-.027-.04c.021-.061.021-.074,0-.094s.007-.04.014-.054a.22.22,0,0,0-.014-.141c-.02-.033-.047-.006-.047-.02s.014-.02-.047-.007c-.046.014-.087-.006-.107.007a.144.144,0,0,1-.1.014c-.061-.007-.054,0-.087.046s-.081.1-.108.108l-.033.02a.811.811,0,0,1-.121.074.237.237,0,0,1-.094.006c-.033-.013-.1-.013-.107-.053s-.027-.094-.094-.087c-.04,0-.094,0-.121.04s-.04.067-.06.027-.06-.034-.087-.027c-.1-.014-.094-.1-.027-.154.027-.027.04-.047.02-.074a.063.063,0,0,0-.033-.027c-.067-.02-.054.1-.141.047-.04-.027.007-.074-.054-.128s0-.154.02-.181-.006-.06.007-.087c.027-.067.014-.12-.047-.14-.02-.007-.047-.021-.053.006s-.047,0-.088-.027-.047-.04-.067-.026-.026.026-.046.026-.054-.06-.088-.073-.1-.041-.134-.054a.4.4,0,0,0-.127,0h-.047a.548.548,0,0,1-.262-.06c-.04-.027-.033-.047,0-.087a.247.247,0,0,1,.081-.061.249.249,0,0,0,.08-.174c.007-.08.061-.094.114-.121s.041-.094.047-.14c-.013-.094-.053-.081-.06-.148s.094-.094.134-.134a.174.174,0,0,0,.054-.121c-.007-.04.033-.02.047,0,.107.081.06-.06.053-.087a.449.449,0,0,1,.007-.1c0-.047-.054-.054-.054-.054l-.04-.007c-.02,0-.06.007-.08-.026s-.047-.021-.074,0a.118.118,0,0,1-.081.006l-.026-.013c-.027-.02-.047-.02-.094-.014-.027,0-.054.007-.067,0-.041-.02-.054-.04-.041-.087s-.04-.033-.06-.027a.094.094,0,0,1-.121-.04c-.006-.027.021-.047.041-.074s.06-.08.006-.1c-.047,0-.026-.04-.006-.061.033-.053-.007-.12-.054-.154s-.047-.053.013-.1c.027-.02,0-.054-.013-.074a.611.611,0,0,1-.02-.134v-.034c0-.053-.04-.053-.08-.046-.081.013-.088-.034-.061-.081a.216.216,0,0,0,0-.134c-.007-.04,0-.054.1-.067a.1.1,0,0,0,.06-.027.558.558,0,0,1,.087-.04c.04-.013.027-.094.027-.094-.033-.087-.047.047-.134.02-.04-.013-.074-.02-.094,0a.141.141,0,0,1-.154,0,.189.189,0,0,0-.094-.02,2.481,2.481,0,0,1-.335.483l.053.187.081.094.013.175.061.1-.027.148.02.234.127.161a.668.668,0,0,0,.228.161l.081.06L34.3,45.2l.007.047a.489.489,0,0,0-.087.181l-.1.107a.826.826,0,0,0-.12.308l.02.188.087.168.107.107a1.022,1.022,0,0,0,.664.181l.067.047.054.194.093.2.061.061.013.053.141.181.174.108.081.02.1.067H35.9a.488.488,0,0,0,.108.033.724.724,0,0,0,.475-.026.615.615,0,0,0,.765.462l.154.087.168.04.114-.013.248-.087.113-.1.128-.154.067-.194a.814.814,0,0,0-.034-.315L38.3,46.9l-.094-.288a.64.64,0,0,0-.046-.249,1.1,1.1,0,0,0,.395-.04l.161-.1.047-.061.02.027c.06.054.114.1.168.154l.16.068.148.02a1.093,1.093,0,0,0,.248-.02l.174-.088.04-.053.155.06.181-.06a.842.842,0,0,0,.335.208l.308-.041.2-.167.026-.054h.115a1.054,1.054,0,0,0,.281-.161.526.526,0,0,0,.355-.114h.081l.281-.248.007-.027.3.181.081-.013.066.074.168.08A.976.976,0,0,0,42.9,46H43l.094.054a.726.726,0,0,0,.08.5l.067.067a1.127,1.127,0,0,0,.007.154.6.6,0,0,0,.121.336l.107.107.188.087h.067a.589.589,0,0,0,.241.168.493.493,0,0,0,.275.154.61.61,0,0,0,.3.114h.046l.014-.067.033.013.047-.013h.047l.054-.034.027.034.047.02a.269.269,0,0,0,.047-.067c.006-.013.006-.06.013-.074s.027,0,.04-.007.074,0,.094.007L45.1,47.5l.054-.02.073-.08.034-.02.02.047.047-.027Z"/><path class="cls-2" d="M26.125,10.576l-.234-.114c.013-.013.02-.027.033-.033a.317.317,0,0,1,.02-.108.415.415,0,0,1,0-.221c.014-.067.02-.141.041-.208.013-.087.033-.167.04-.254V9.6a.4.4,0,0,1,.06-.275.807.807,0,0,1,.121-.187.6.6,0,0,0,.067-.067c.013-.014.02-.034.033-.047l.041-.061a.422.422,0,0,1,.328-.127A1.082,1.082,0,0,1,27,8.9a.773.773,0,0,1,.127-.007.153.153,0,0,0,.047-.013.38.38,0,0,1,.148-.147c.006-.021.02-.034.013-.054l-.007-.067a.575.575,0,0,1,.04-.141c.014-.04.027-.067.041-.1l.047-.054.08-.047.02-.02a.294.294,0,0,1,.228-.107.755.755,0,0,1,.181.02l.02.006a.355.355,0,0,1,.222.094.344.344,0,0,1,.214-.02.388.388,0,0,0,.127-.007h.041l.073.021.094.067.047.107-.234.08a.038.038,0,0,0-.041-.033.986.986,0,0,1-.134,0c-.053-.007-.1-.027-.107.027,0,0,0,.02-.034.047s-.06,0-.087-.014c-.04-.033-.087-.06-.127-.094a.123.123,0,0,0-.074-.033c-.053,0-.1-.027-.161-.027a.093.093,0,0,0-.094.04c-.026.034-.033.054-.08.067s-.034.04-.06.094-.014.06.006.087.041.047,0,.081a.131.131,0,0,0-.047.08c-.006.034-.013.047-.053.081s-.094.046-.108.08a.166.166,0,0,1-.08.087.329.329,0,0,1-.127.047,1.232,1.232,0,0,0-.148.013.1.1,0,0,1-.087-.006.747.747,0,0,0-.141-.04,1.14,1.14,0,0,0-.154-.021.206.206,0,0,0-.127.061c-.02.04-.047.067-.061.094s-.013.026-.047.053a.223.223,0,0,0-.073.094c-.014.027-.034.06-.047.087-.054.094-.014.094-.027.188-.007.033-.007.074-.013.107-.007.067-.021.128-.034.2-.007.013-.007.033-.013.047a1.263,1.263,0,0,1-.027.147c-.007.04-.027.094,0,.121s.033.053.013.087-.04.06-.033.107C26.179,10.5,26.179,10.549,26.125,10.576Z"/><path class="cls-2" d="M25.743,10.254l.462.067a.2.2,0,0,1-.02.061.2.2,0,0,0-.02.08c-.013.047-.013.094-.033.1-.041.02-.041.02-.094.094a.229.229,0,0,1-.2.067.4.4,0,0,0-.135-.014c-.073,0-.08-.02-.14-.007s-.067.041-.134.088c-.094.067-.108-.007-.161-.088-.014-.026-.074-.046-.1-.053s-.074.013-.161-.04c-.006-.007-.04-.027-.047-.034a.369.369,0,0,1-.134-.04l.208-.409.121.033.053.034a.693.693,0,0,1,.228.074.607.607,0,0,1,.268-.007Z"/><path class="cls-2" d="M26.2,10.328l-.255-.08-.081.255a.057.057,0,0,1-.033-.007c-.027-.007-.054-.007-.08-.013a.374.374,0,0,1-.088-.007.358.358,0,0,0-.261.04.6.6,0,0,0-.121-.073.5.5,0,0,0-.147-.034.682.682,0,0,1-.074-.047l-.228.168a.257.257,0,0,0,.134.04c.007.006.04.027.047.033.087.054.134.027.161.041a.453.453,0,0,1,.1.053c.054.081.068.154.161.087a.3.3,0,0,1,.134-.073c.054-.014.068.006.135.006a.812.812,0,0,1,.14.007.227.227,0,0,0,.2-.067c.053-.067.046-.067.093-.094.02-.013.027-.054.034-.1l.02-.081C26.184,10.362,26.2,10.342,26.2,10.328Z"/><path class="cls-2" d="M40.417,27.577a.151.151,0,0,0-.094-.08.122.122,0,0,1-.107-.034c-.047-.04.007-.181.04-.248s-.047-.141-.107-.168-.053-.053-.06-.094a2.814,2.814,0,0,0-.04-.288c-.007-.067-.061-.094-.061-.134s.087-.054.121-.074-.047-.187-.094-.207-.033-.027-.047-.061-.107-.067-.208-.107-.087-.268-.087-.308a.352.352,0,0,0-.074-.181c-.047-.061-.107-.141-.187-.155s-.061-.013-.148.047-.2-.12-.268-.194-.127-.013-.188.027a.1.1,0,0,1-.127-.014,2.01,2.01,0,0,0-.168-.187.129.129,0,0,1-.04-.161c.014-.04.027-.067-.033-.087s-.054-.067-.114-.114-.188-.034-.262-.074-.141-.154-.194-.241a.315.315,0,0,0-.215-.155c-.053,0-.013.087.027.114s.107.2.087.215-.1-.02-.141-.067c-.067-.081-.261-.161-.355-.289s-.248-.294-.362-.442-.033-.04-.228-.255-.167-.114-.255-.027-.16.081-.227,0-.188-.1-.175-.04-.08.161-.147.242-.362-.2-.463-.329a1.1,1.1,0,0,0-.523-.3c-.194-.067-.127.054-.187.181s-.014.235.006.443-.053.241-.154.181-.114.06-.181.08-.087.121-.127.235c-.02.04-.007.094-.02.087l-.141-.054c-.141-.053-.154.081-.228.128s-.309-.108-.389-.235-.161-.168-.268-.087-.288,0-.382-.1A.626.626,0,0,0,32.3,23.9c-.208.041-.2-.341-.228-.5s-.382-.054-.536-.134.013-.128.006-.175-.4-.107-.549-.12-.061-.161-.081-.315-.047-.054-.134-.1a1.808,1.808,0,0,0-.416-.04c-.147-.02-.1.007-.181.047a.333.333,0,0,1-.07.014c0-.007.013-.011.009-.021-.033-.087-.067-.248.007-.3a1.041,1.041,0,0,0,.241-.228,1.609,1.609,0,0,0,.188-.409c.027-.12.241-.576.248-.623s.067-.235.067-.275-.054-.114.054-.114.234.034.362.047.194,0,.295.007.174.027.214-.04.248-.262.275-.309a1.848,1.848,0,0,1,.288-.342c.081-.053.4-.221.436-.241a.519.519,0,0,0,.194-.107.425.425,0,0,1,.175-.148c.08-.04.194-.067.221.007s.033.194.114.121a.474.474,0,0,1,.234-.141,3.133,3.133,0,0,0,.5-.108.388.388,0,0,0,.114-.221.32.32,0,0,1,.014-.174c.027-.054.08-.067.04-.128a.477.477,0,0,1-.054-.14.066.066,0,0,1,0-.108,2.962,2.962,0,0,1,.369-.274c.08-.041.147-.067.147-.067a1.167,1.167,0,0,0-.087-.45c-.08-.16-.2-.234-.241-.429s-.127-.382-.188-.7a3.746,3.746,0,0,0-.167-.576c-.027-.114-.289-.041-.4-.175a4.6,4.6,0,0,0-.355-.362,1.737,1.737,0,0,0-.469-.489,5.914,5.914,0,0,0-.965-.483c-.336-.134-1.113-.234-1.328-.482s-.315-.316-.167-.584a7.38,7.38,0,0,0,.3-.7,1.942,1.942,0,0,0,.034-.831,8.735,8.735,0,0,0-.4-1.314,1.376,1.376,0,0,0-.449-.429c-.282-.2-.583-.248-.778-.516a1.958,1.958,0,0,1-.449-.778c0-.194-.067-.53-.3-.63a1.242,1.242,0,0,0-.65-.034.521.521,0,0,0-.5.248c-.134.181-.147.336-.348.349a1.433,1.433,0,0,0-.631.2.979.979,0,0,0-.348.664c-.067.382-.081.684-.268.7a2.123,2.123,0,0,1-.38-.014l.2-.126-.261-.127-.121-.067c-.074-.02-.148-.04-.221-.067l-.155-.02-.094-.027-.033-.02-.033-.047-.094-.074a.546.546,0,0,0-.181-.167L24.3,9.632l-.094-.067-.114-.054-.121-.034-.127-.006-.168.026-.167.094-.094.1-.067.107a1.372,1.372,0,0,1-.188.248.918.918,0,0,0-.1.148,2.551,2.551,0,0,0-.135.221c-.026.054-.06.1-.087.154l-.094.107a.979.979,0,0,1-.093.135.729.729,0,0,0-.121.167.28.28,0,0,0-.027.047.513.513,0,0,1-.087.081l-.08.1-.081.208a.686.686,0,0,0-.054.087h-.013a.782.782,0,0,0-.5.034.785.785,0,0,0-.309.006l-.18-.08-.289.013a.86.86,0,0,0-.134.007.47.47,0,0,1-.214-.034l-.222.021-.033.02a.764.764,0,0,0-.322.134l-.094.087-.107.154-.06.275.027.074v.033l.046.161a.863.863,0,0,0,.215.275,1.431,1.431,0,0,1-.027.181.731.731,0,0,0-.06.295.944.944,0,0,0-.007.389,1.059,1.059,0,0,0,.007.355c.006.033.013.074.02.107l-.02.067a.6.6,0,0,0-.248.134l-.081.074-.087.127-.094.068-.067.08-.04.06a.338.338,0,0,1-.04.067.766.766,0,0,0-.128.282c-.006.033,0,.053-.02.08l-.047.175a.958.958,0,0,0-.234.114l-.047-.014-.221-.006-.121.053-.121.02-.06.034a.714.714,0,0,0-.235.06l-.087.02a.7.7,0,0,1-.121.014.787.787,0,0,0-.181.053l-.073.02-.154-.04-.2.014-.147.067-.114.094a1.161,1.161,0,0,0-.215.04l-.094.04a.484.484,0,0,0-.167-.047.683.683,0,0,1-.081-.067l-.141-.06-.127-.02a1.366,1.366,0,0,0-.288.026.8.8,0,0,0-.215.034l-.147.08-.108.1-.08.134-.027.02-.094.094-.04.067-.02-.114-.08-.161-.135-.134-.154-.074-.127-.027h-.1l-.08.007a.791.791,0,0,0-.208.067l-.087-.074-.188-.08-.254.007-.188.107-.114.121-.141.046-.154-.02-.134-.026-.141.006-.107.027c-.087.04-.181.081-.275.121l-.141.208a.98.98,0,0,0-.141.14l-.053.081-.034.08a.861.861,0,0,0-.275.128.763.763,0,0,0-.208.208l-.046.08-.047.168-.007.107a.873.873,0,0,0,.067.261.26.26,0,0,1-.02.067l.219-.024a1.555,1.555,0,0,0-.044.513c.033.134-.014.281.3.415s.563.014.563.181a2,2,0,0,1-.1.865c-.134.214.033.335-.248.449a.884.884,0,0,1-.152.044l0-.077c-.028,0-.05,0-.075.007l-.072-.282-.1.013-.234.121-.114.215c-.014.06-.041.114-.054.174l-.02.161.02.067a.865.865,0,0,0,.034.194l.053.134.161.188.134.047.094.121.228.127h.047l.013.067.034.087.04.067a1.187,1.187,0,0,0,.114.148l.161.107-.014.04-.087.1a1,1,0,0,0-.094.207l-.02.114a.689.689,0,0,0,.014.2l.033.1.034.06.013.182.094.18.094.1.127.087a1.149,1.149,0,0,0,.268.1c.027.033.047.06.074.094.047.06.081.12.128.181l.114.127.107.067.047.02a1.6,1.6,0,0,0,.187.128.709.709,0,0,0,.108.087c.06.04.114.067.174.1.04.014.08.02.121.034a1.107,1.107,0,0,0,.02.214,2.06,2.06,0,0,0,0,.208.577.577,0,0,0-.014.436.79.79,0,0,0,.289.483l-.02.026-.081.128-.047.174.013.161.007.027-.08.127-.04.134-.007.141.007.04a.705.705,0,0,0,.067.355l.02.047a1.052,1.052,0,0,0,.094.208.7.7,0,0,0-.329.061.887.887,0,0,0-.268.067l-.1.053-.12.1-.081.134-.033.087a.913.913,0,0,0-.034.268.816.816,0,0,0-.053.107l-.047.161L13.232,28l.02.134.047.128.047.08-.013.094a1.194,1.194,0,0,0,.013.215l-.054.134-.006.12-.02.047-.027.134.013.208.127.221c.007.054.007.108.02.168l.074.2a.8.8,0,0,0,.114.148l.074.06.08.047a.639.639,0,0,0,.128.1l.114.053.187.034.088.046a1.605,1.605,0,0,0,.026.168.808.808,0,0,0,.088.208.731.731,0,0,0,.274.241l.047.02c.014.007.041.054.054.061a1.072,1.072,0,0,0,.248.208,1.13,1.13,0,0,0,.2.234.8.8,0,0,0,.114.362l.054.067.053.054a.936.936,0,0,0,.2.12.724.724,0,0,0,.268.054l.127-.013a.706.706,0,0,0,.2-.081l.074-.053.087-.094.04-.027.013.081.047.127.094.141.107.087c.041.02.074.047.114.067l.047.154.04.054.021.067.093.12a1.516,1.516,0,0,0,.369.269.457.457,0,0,0,.1.087l.047.08c.006.04.006.08.013.114a.916.916,0,0,0,.127.315l.108.134.087.081.154.087.2.027.027-.007v.04l.027.134.033.067a.82.82,0,0,0,.1.161l.08.081.081.047.04.06.087.08.067.047a.762.762,0,0,0,.228.255.686.686,0,0,0,.087.054.88.88,0,0,0,.047.134.8.8,0,0,0,.1.161.619.619,0,0,0,.248.181.657.657,0,0,0,.328.114l.047.033.02.013c.014.047.02.094.034.135a.813.813,0,0,0,.087.207l.107.135.248.147.181-.013a1.244,1.244,0,0,0,.2.113l.094.027.108.014.127-.007.1-.034.047.034a.666.666,0,0,0,.128.168l.087.067.094.047.087.026.174.02a.458.458,0,0,0,.161.054l.128.074.154.033.127-.006a.7.7,0,0,0,.2-.061.519.519,0,0,1,.1.021,1.673,1.673,0,0,0,.261.04.679.679,0,0,0,.034.368,1.511,1.511,0,0,0,.274.456l.135.108.114.053.16.04.161-.013.1-.034a1.314,1.314,0,0,0,.181-.087l.127-.107.074-.094.054-.107.033-.127a.623.623,0,0,0,.007-.161.2.2,0,0,1,.047-.061,1.129,1.129,0,0,0,.288-.221l.134.074.148.04h.127a.228.228,0,0,1,.047.034.97.97,0,0,0,.3.174l.12.02a1.476,1.476,0,0,0,.315.221,1.211,1.211,0,0,0,.161.081l.094.02v.067l.02.114.047.127.081.114.094.087.134.081a.793.793,0,0,0,.04.355,1.109,1.109,0,0,0,.013.215l.081.187.2.181.214.054a.984.984,0,0,0,.2-.013,1.972,1.972,0,0,0,.335,0,.688.688,0,0,0,.3.093l.04.02a.962.962,0,0,0,.415.074c.041,0,.081-.007.121-.007.094.007.188.021.282.027a1.2,1.2,0,0,0,.569-.134.67.67,0,0,0,.316-.362c.08-.073.167-.14.248-.214a.8.8,0,0,0,.308-.034c.2-.053.4-.127.6-.194.081-.027.161-.047.242-.074a.931.931,0,0,0,.214-.107l.087-.074.074-.087.013-.02.094.02.061.007c.013.006.04.013.107.033a2,2,0,0,0,.147.161,1.671,1.671,0,0,0,.249.054l.06.027a.4.4,0,0,0,.08.073l.067.04.081.081.114.074.127.134.161.094.322.02.181-.081.107-.073.107-.021.155-.073.127-.121c.007.067.027.134.04.2l.013.121.047.161.054.094.081.1.127.094.08.033a.585.585,0,0,0,.041.262c-.021.107-.007.221-.021.328-.006.081-.02.161-.033.242-.007.027-.027.04-.04.06a.531.531,0,0,0-.148.147l-.04.074-.033.074-.027.081-.014.16a.791.791,0,0,0-.248.061l-.134.094L33.4,41a.832.832,0,0,0-.08.215l-.121.04a.8.8,0,0,0-.208.188l-.02.006-.194.208-.047.262a.592.592,0,0,0-.188.275.49.49,0,0,0-.027.14c-.006.02-.013.034-.02.054a.952.952,0,0,0-.053.181l-.007.121.02.14a.888.888,0,0,0,.087.181l-.02.014-.114.161-.047.228.047.2.067.12.087.108a.964.964,0,0,0,.181.134l.094.04.114.027h.128a1.1,1.1,0,0,0,.5-.208.5.5,0,0,0,.107-.034.638.638,0,0,0,.161.027l.148-.252.093.146.032-.358.015-.025s-.007-.013-.047-.027-.053-.033-.087-.02a.331.331,0,0,1-.087.013.244.244,0,0,1-.114-.02.194.194,0,0,0-.107-.02.692.692,0,0,0-.175.04.891.891,0,0,1-.154.034c-.047.013-.06.02-.08.047l-.008.006s-.009,0-.012.008a.731.731,0,0,1-.057.051.592.592,0,0,1-.171.062c-.034.007-.081-.027-.114-.08-.017-.023-.013-.038,0-.049l.017-.011,0,0,.018-.012a.131.131,0,0,0,.04-.047c.02-.02.027-.033.054-.06a.33.33,0,0,0,.1-.094.154.154,0,0,0,.033-.121c0-.053-.04-.053-.074-.087s.007-.047.027-.08.02-.034.007-.061-.06-.027-.081-.027-.047-.02-.08-.08.007-.107.02-.161a.461.461,0,0,0,.034-.127c0-.047.007-.08.033-.093a.5.5,0,0,0,.061-.041c.033-.027.046-.033.12-.027.014,0,.007-.01.012-.013h.008c.074,0,.014-.061-.006-.114s0-.068.02-.1-.007-.074-.02-.107c0-.008,0-.009,0-.013h.024c.005,0,.01-.011.015-.014h0c.021,0,.034-.02.054-.047a.4.4,0,0,1,.053-.1c.028-.016.052,0,.081.016a.072.072,0,0,0,.081-.02l.009-.011.011,0c.02-.02.027-.04.053-.067s.114-.107.154-.148.014-.127.021-.167a.113.113,0,0,1,.036-.08c.046-.012.079.008.125.074.034.043.055.035.076.015s.036-.027.058-.056c.04-.054.067-.081.087-.107s.027-.067.053-.108a.108.108,0,0,1,.031-.03.09.09,0,0,1,.043,0c.034,0,.054.034.094.034a.063.063,0,0,0,.051-.03.1.1,0,0,0,.043-.071c.007-.047-.047-.1-.074-.134a.234.234,0,0,1-.067-.128.108.108,0,0,1,.03-.095c.022-.006.053.005.091.049s.043.019.05-.006c.016,0,.026-.026.03-.048.007-.04-.013-.067-.033-.107s-.007-.034.033-.094a.472.472,0,0,0,.074-.181c.013-.054.033-.235.04-.309s.014-.228.014-.268.02-.074.026-.147a.371.371,0,0,0-.047-.168c-.02-.047.007-.067.034-.154s.007-.1.007-.154a.537.537,0,0,1,.006-.181c.007-.047.007-.081-.013-.1s-.08-.06-.121-.094a.135.135,0,0,0-.1-.053c-.009,0-.009.011-.015.015h-.005c-.054,0-.047.087-.06.134-.005.015-.015.019-.023.026a.145.145,0,0,1-.051,0c-.047-.013-.067-.074-.067-.121a.339.339,0,0,0-.027-.147,1.489,1.489,0,0,1-.034-.174.347.347,0,0,0-.04-.148.235.235,0,0,1-.034-.121c0-.033.041-.1.047-.14s-.06-.041-.094-.047a.1.1,0,0,1-.05-.042,1.152,1.152,0,0,0,.184.037.8.8,0,0,0,.081-.034c.04-.02.033-.02.04-.054a.525.525,0,0,1,.02-.134c.02-.033.047-.026.067,0a2.344,2.344,0,0,1,.074.316c.007.026.027.046.06.02s.134-.02.208-.034.1-.074.114-.147a.917.917,0,0,0-.054-.282,3.717,3.717,0,0,1,.061-.55c.013-.053.053-.053.087-.06a.127.127,0,0,1,.087.007c.04.013.047.174.047.2a.049.049,0,0,0,.06.04c.027-.007.027-.134.034-.174a.18.18,0,0,1,.04-.081.1.1,0,0,1,.074-.02c.02,0-.014-.141-.014-.2s.047-.074.1-.067.074-.007.074-.007a.65.65,0,0,1-.054-.194c0-.094.02-.134.02-.181s-.033-.107-.047-.2a.552.552,0,0,1,.094-.282.431.431,0,0,0,.007-.322,1.257,1.257,0,0,1-.014-.315c-.006-.127.007-.268-.006-.348a.283.283,0,0,1,.006-.181c.027-.108-.033-.161-.073-.235a.893.893,0,0,1-.108-.241c-.013-.081-.053-.107-.073-.161s-.04-.054-.02-.154.12,0,.147.033.08-.047.141-.074-.107-.207-.181-.281a1.888,1.888,0,0,1-.262-.409.173.173,0,0,1,.014-.188c.047-.053-.067-.174-.108-.234a.5.5,0,0,1-.066-.2c-.007-.061-.007-.188-.121-.222s-.188-.134-.362-.187c-.007,0-.011,0-.018,0l-.008-.006a1.45,1.45,0,0,1-.2-.208,1.011,1.011,0,0,1-.087-.167.285.285,0,0,1,0-.148c.013-.04.08-.04.114-.047s.02,0,.047-.04-.007-.087-.007-.154.081-.107.1-.121.02-.054.047-.087a.6.6,0,0,1,.107-.134c.04-.04-.027-.074-.054-.094a.867.867,0,0,0-.107-.047c-.047-.02-.047-.054-.06-.094s-.007-.067-.034-.094-.027-.107-.027-.167a1.28,1.28,0,0,1-.006-.148c0-.053.1-.053.14-.06s.014,0,.074-.027a.271.271,0,0,0,.114-.087A.288.288,0,0,0,34.571,30c0-.047.074-.107.1-.127a.214.214,0,0,1,.168.013c.04.02.181.094.228.121s.12.006.214.04.06.114.06.181a.359.359,0,0,0,.061.194.639.639,0,0,0,.127.155.652.652,0,0,1,.06.187,1.1,1.1,0,0,0,.047.128.5.5,0,0,1,.021.181.929.929,0,0,0,.066.221c.021.067.108.107.155.147s.114.081.174.128.054.107.087.154.074.054.168.087a.758.758,0,0,1,.187.107.19.19,0,0,0,.108.034c.053.007.074-.128.08-.154s.014-.054.074-.081.02-.033.06-.06.061.054.094.087.034.027.06.054a.244.244,0,0,1,.054.12.256.256,0,0,1-.013.161c-.007.027.02.047.047.087s.047.014.08.014.08-.074.094-.094a.1.1,0,0,1,.06-.04c.027-.007.087.047.108.067a.329.329,0,0,1,.073.12.834.834,0,0,0,.067.135s.014-.034.027-.061a.184.184,0,0,1,.06-.074.681.681,0,0,1,.255.041.85.85,0,0,0,.221.006c.041,0,.061-.026.1-.053s.054-.1.054-.148-.007-.053-.047-.107a.194.194,0,0,1-.02-.181.752.752,0,0,0,0-.208c-.007-.027,0-.053.053-.087s.121.007.154.047.128.027.168.027.06.02.1.053.034.061.088.054.053-.047.087-.08-.02-.114-.047-.141-.007-.067.033-.087a.237.237,0,0,0,.108-.121c.006-.04-.061-.027-.114-.027s-.047-.1-.054-.141a.207.207,0,0,0-.074-.127c-.04-.027-.04-.013-.087-.013a.265.265,0,0,0-.107.02.192.192,0,0,1-.154-.02c-.061-.034-.007-.108,0-.148s-.047-.087-.074-.121-.114-.033-.114-.033a1.464,1.464,0,0,1-.107-.181.714.714,0,0,1-.1-.215A.394.394,0,0,1,38,29.984c.047-.081.087-.054.127-.034s.2.074.242.1.107.053.161.087a.772.772,0,0,0,.227.107c.047,0,.108.107.108.107s.094-.006.154-.013a.357.357,0,0,1,.12.013c.061.014.074-.087.155-.127s.174-.074.214-.1a.066.066,0,0,0,.014-.107.258.258,0,0,1-.061-.121c-.02-.053-.013-.06-.073-.093s-.047-.054-.1-.148A.265.265,0,0,1,39.3,29.4a.6.6,0,0,1,.235-.228.579.579,0,0,0,.188-.207c.027-.054-.027-.208-.054-.275s.1-.034.141-.04.04-.014.04-.034.013-.054.081-.1.154,0,.207.006.014-.027,0-.114a.741.741,0,0,1,.027-.248c.007-.027.074-.027.114-.033a.189.189,0,0,1,.1.033,1.342,1.342,0,0,1,.006-.141c.007-.026.007-.187.014-.227A.744.744,0,0,0,40.417,27.577ZM28.491,25.021A.23.23,0,0,0,28.574,25a.058.058,0,0,1-.056.018C28.509,25.014,28.5,25.021,28.491,25.021Zm-.042-.613,0,0Zm-.308.742h.016c-.01,0-.02,0-.03.007C28.132,25.155,28.136,25.151,28.141,25.15Zm-.13-1.95-.006,0Zm-.186.04a.283.283,0,0,1,.123-.054.074.074,0,0,1,.048.008A.585.585,0,0,1,27.825,23.24Zm.326,2.373a.3.3,0,0,0-.049-.039C28.117,25.586,28.143,25.6,28.151,25.613Zm-.365.455c.054.047.121.128.168.135.027,0,.036,0,.051,0a.185.185,0,0,1-.178-.084.2.2,0,0,0-.166-.092A.2.2,0,0,1,27.786,26.068Zm-.9-.066a.237.237,0,0,1-.031-.008l.034.007Zm-8.126,8.017c-.034,0-.04-.02-.054-.053a.267.267,0,0,1,.028-.139c.009.069.018.134.03.193Zm2.855,2.1.018.024A.056.056,0,0,1,21.611,36.122Zm5.558-10.328c.074.053.188.14.235.174a.353.353,0,0,0,.162.056l-.034,0a.764.764,0,0,1-.328-.181.152.152,0,0,0-.08-.051C27.135,25.78,27.148,25.776,27.169,25.794Zm-.423.166-.011-.005-.033,0a.276.276,0,0,0-.053-.061c.009.008.024.015.031.023A.214.214,0,0,0,26.746,25.96ZM17.1,24.4c.134.081.174.114.208.168s.161.08.241.107.128-.114.181-.054a.364.364,0,0,0,.221.148c.088.007.128.174.2.2a.955.955,0,0,0,.416.034c.087-.034.14-.088.14-.135s.121-.053.215-.06.12-.04.188-.114.114-.087.254,0,.148.121.242.087.114.061.12.175.1.321.188.288.2.1.3.161a.352.352,0,0,0,.248.06c.087-.013.147-.074.208-.033s.1.006.141.08.261.02.321-.013.034-.121.148-.114a2.045,2.045,0,0,0,.476-.054.314.314,0,0,1,.248.007c.074.033.121-.02.181.08s.161.047.168.161.1-.134.254-.1a.367.367,0,0,0,.436-.188c.1-.2.081-.242.416-.242s.362-.053.409-.013a.353.353,0,0,0,.3.054c.088-.041.175-.041.242-.081s.06.04.127.1.241.053.349.06a3.249,3.249,0,0,0,.522,0c.114-.013.309.067.322.148s.067.208.168.127.094.034.188.081.12.133.2.093.047.067.208.154c.008,0,.014.013.023.018l-.024-.016c-.16-.087-.127-.2-.207-.154s-.114-.047-.2-.094-.093-.16-.187-.08-.155-.047-.168-.127-.208-.161-.322-.148a3.511,3.511,0,0,1-.523,0c-.107-.007-.281,0-.348-.06s-.06-.141-.127-.1-.155.04-.242.081a.355.355,0,0,1-.3-.054c-.047-.04-.073.013-.409.013s-.315.041-.415.242a.365.365,0,0,1-.436.187c-.154-.033-.248.215-.255.1s-.107-.06-.167-.161-.107-.047-.181-.08a.314.314,0,0,0-.248-.007,2.058,2.058,0,0,1-.476.054c-.114-.007-.087.08-.148.113s-.281.088-.322.014-.08-.04-.14-.081-.121.021-.208.034a.358.358,0,0,1-.248-.06c-.094-.061-.208-.2-.3-.161s-.181-.175-.188-.288-.027-.208-.12-.175-.094,0-.242-.087-.188-.074-.255,0-.094.107-.187.114-.215.013-.215.06-.054.1-.141.135a.952.952,0,0,1-.415-.034c-.067-.027-.108-.2-.2-.2a.364.364,0,0,1-.221-.148c-.054-.06-.107.081-.181.054s-.208-.047-.241-.107-.074-.087-.208-.168-.239.1-.221.153h0C16.859,24.506,16.966,24.312,17.1,24.4Zm-1.515.966a1.583,1.583,0,0,0,.4.073c.073-.006.154-.013.248-.241s.107-.2.161-.228.268-.288.388-.315c.061-.013.091-.027.1-.043-.012.017-.041.031-.1.045-.121.027-.335.288-.389.315s-.067.007-.161.228-.174.234-.248.241a1.585,1.585,0,0,1-.395-.073,3.053,3.053,0,0,0-.342-.061.293.293,0,0,0-.041.007c0-.007.01-.009.007-.019l.034.01S15.4,25.324,15.585,25.365Z"/><rect class="cls-4" x="47.666" y="54.725" width="0.249" height="1.573" transform="translate(-23.533 38.827) rotate(-36.108)"/><rect class="cls-4" x="48.442" y="59.777" width="0.25" height="1.515"/><polygon class="cls-4" points="45.971 68.211 45.79 66.892 46.038 66.858 46.219 68.178 45.971 68.211"/><rect class="cls-4" x="50.938" y="71.188" width="1.441" height="0.25" transform="translate(-18.87 18.589) rotate(-17.301)"/><polygon class="cls-4" points="56.192 66.427 55.998 66.269 56.831 65.24 57.025 65.398 56.192 66.427"/><polygon class="cls-4" points="59.951 61.063 59.711 60.991 60.169 59.478 60.409 59.55 59.951 61.063"/><rect class="cls-4" x="59.935" y="54.208" width="0.25" height="1.653"/><polygon class="cls-4" points="60.349 51.729 60.118 51.632 60.73 50.201 60.96 50.299 60.349 51.729"/><polygon class="cls-4" points="62.245 47.603 62.027 47.481 62.736 46.192 62.954 46.313 62.245 47.603"/><polygon class="cls-4" points="63.567 43.923 63.317 43.905 63.428 42.408 63.678 42.426 63.567 43.923"/></svg>