<svg t="1626859344070" class="icon" viewBox="0 0 1024 1024" version="1.1" xmlns="http://www.w3.org/2000/svg" p-id="819" width="200" height="200"><path d="M948.3 170.5c-7.2-6.1-17.4-8.7-26.6-7.2l-237.1 42-60.4-20c-17.4-5.6-35.8 3.6-41.5 20.5-5.6 16.9 3.6 35.8 20.5 41.5l68.6 22.5c1.5 0.5 3.1 1 4.6 1v265.7L541.2 495c-11.8-3.6-23.6 3.1-27.1 14.3s3.1 23.6 14.3 27.1l148 45.6v273.9L392.8 776V652.8c0-12.3-9.7-22-22-22s-22 9.7-22 22v123.9L130.7 811V195.1c0-17.9-14.8-32.8-32.8-32.8s-32.8 14.8-32.8 32.8v654.3c0 9.7 4.1 18.4 11.3 25.1 7.2 6.1 16.9 9.2 26.1 7.7l270.8-42.5 304.1 85.5c3.1 1 5.6 1 8.7 1 2 0 4.1 0 5.6-0.5l240.1-43.5c15.4-3.1 26.6-16.4 26.6-32.3V195.6c1.7-9.7-2.9-19-10.1-25.1z" p-id="820"></path><path d="M376.4 97.8c-102.4 0-185.3 82.9-185.3 185.3 0 28.2 6.7 55.8 20.5 82.9 10.8 21 109.1 159.7 138.8 201.7 6.1 8.7 15.9 13.8 26.6 13.8 10.8 0 20.5-5.1 26.6-13.8 29.7-42.5 127.5-181.8 137.7-201.2 13.3-25.6 20.5-54.8 20.5-83.5 0-102.3-83-185.2-185.4-185.2z m0.5 240.1c-30.2 0-54.8-24.6-54.8-54.8s24.1-54.8 54.8-54.8c30.2 0 54.8 24.6 54.8 54.8s-24.6 54.8-54.8 54.8z" p-id="821"></path></svg>