<svg width="24" height="24" viewBox="0 0 24 24" fill="none" xmlns="http://www.w3.org/2000/svg">
<g clip-path="url(#clip0_3742_94441)">
<path d="M0 2.66667C0 1.19391 1.19391 0 2.66667 0H21.3333C22.8061 0 24 1.19391 24 2.66667V21.3333C24 22.8061 22.8061 24 21.3333 24H2.66667C1.19391 24 0 22.8061 0 21.3333V2.66667Z" fill="#FB6220"/>
<path d="M20.8032 11.565C20.4661 11.6743 20.1064 11.7333 19.7329 11.7333C19.6352 11.7333 19.5384 11.7293 19.4427 11.7213L14.6136 21.2994C15.6228 22.1308 16.2663 23.3903 16.2663 24.8C16.2663 27.3037 14.2366 29.3333 11.7329 29.3333C9.22925 29.3333 7.19961 27.3037 7.19961 24.8C7.19961 23.6966 7.59379 22.6853 8.249 21.8992L4.43341 17.2942C4.29271 17.3199 4.14773 17.3333 3.99961 17.3333C2.67413 17.3333 1.59961 16.2588 1.59961 14.9333C1.59961 13.6078 2.67413 12.5333 3.99961 12.5333C5.32509 12.5333 6.39961 13.6078 6.39961 14.9333C6.39961 15.3221 6.30719 15.6892 6.14313 16.014L9.96362 20.6249C10.5072 20.3942 11.1052 20.2667 11.7329 20.2667C12.0626 20.2667 12.384 20.3018 12.6937 20.3687L17.4709 10.8937C16.7332 10.2579 16.2663 9.31682 16.2663 8.26665C16.2663 6.35207 17.8184 4.79999 19.7329 4.79999C21.6475 4.79999 23.1996 6.35207 23.1996 8.26665C23.1996 9.02135 22.9584 9.71973 22.549 10.2889L27.8432 20.7894L25.9383 21.7499L20.8032 11.565Z" fill="white"/>
</g>
<defs>
<clipPath id="clip0_3742_94441">
<rect width="24" height="24" fill="white"/>
</clipPath>
</defs>
</svg>
