<svg width="16" height="16" viewBox="0 0 16 16" xmlns="http://www.w3.org/2000/svg">
<path d="M0 2C0 0.895431 0.895431 0 2 0H14C15.1046 0 16 0.895431 16 2V14C16 15.1046 15.1046 16 14 16H2C0.895431 16 0 15.1046 0 14V2Z" />
<path d="M11.5881 4.90381L12.3966 5.71231C12.4291 5.74481 12.4549 5.78339 12.4725 5.82586C12.4901 5.86833 12.4992 5.91384 12.4992 5.95981C12.4992 6.00577 12.4901 6.05129 12.4725 6.09375C12.4549 6.13622 12.4291 6.17481 12.3966 6.20731L7.17813 11.4258C7.14563 11.4583 7.10705 11.4841 7.06458 11.5017C7.02212 11.5193 6.9766 11.5283 6.93063 11.5283C6.88467 11.5283 6.83915 11.5193 6.79669 11.5017C6.75422 11.4841 6.71564 11.4583 6.68313 11.4258L3.70213 8.44481C3.66963 8.41231 3.64385 8.37372 3.62625 8.33126C3.60866 8.28879 3.59961 8.24327 3.59961 8.19731C3.59961 8.15134 3.60866 8.10583 3.62625 8.06336C3.64385 8.0209 3.66963 7.98231 3.70213 7.94981L4.51063 7.14181C4.54314 7.1093 4.58172 7.08352 4.62419 7.06593C4.66665 7.04834 4.71217 7.03928 4.75813 7.03928C4.8041 7.03928 4.84962 7.04834 4.89208 7.06593C4.93455 7.08352 4.97313 7.1093 5.00563 7.14181L6.93063 9.06631L11.0936 4.90331C11.1261 4.8708 11.1647 4.84502 11.2072 4.82743C11.2497 4.80984 11.2952 4.80078 11.3411 4.80078C11.3871 4.80078 11.4326 4.80984 11.4751 4.82743C11.5175 4.84502 11.5556 4.8713 11.5881 4.90381Z" fill="white"/>
</svg>
