<svg width="24" height="24" viewBox="0 0 24 24" fill="none" xmlns="http://www.w3.org/2000/svg">
<path d="M12.0005 20.862C10.9815 20.0623 10.0823 19.1207 9.33045 18.066C8.46465 16.8616 7.85229 15.494 7.53045 14.046C7.41653 13.2503 7.34443 12.4492 7.31445 11.646C7.31445 11.382 7.39245 10.248 7.44645 9.89998C7.79996 7.01909 9.10986 4.34012 11.1665 2.29198C11.3073 2.15401 11.4555 2.02382 11.6105 1.90198C11.8261 1.75906 12.0037 1.56588 12.1281 1.33907C12.2525 1.11226 12.3199 0.858613 12.3245 0.599976C12.5225 1.05379 12.7489 1.49466 13.0025 1.91998C13.2861 2.3089 13.6055 2.67047 13.9565 2.99998C15.7655 4.92961 16.98 7.33983 17.4545 9.94198C17.6425 10.894 17.687 11.8688 17.5865 12.834C17.5102 13.8274 17.3086 14.8072 16.9865 15.75C16.2875 17.7166 15.0198 19.4312 13.3445 20.676C13.2658 20.6527 13.1927 20.6136 13.1297 20.5609C13.0668 20.5083 13.0153 20.4433 12.9785 20.37C12.6598 19.7104 12.5035 18.9842 12.5225 18.252C12.4505 18.564 12.4445 18.936 12.3905 19.296C12.3365 19.656 12.2525 20.04 12.1805 20.4C12.1445 20.568 12.1625 20.766 12.0005 20.862Z" fill="#11914F"/>
<path d="M12 20.862C12.192 20.766 12.174 20.568 12.21 20.412C12.282 20.04 12.342 19.662 12.396 19.29C12.45 18.918 12.456 18.558 12.528 18.246C12.509 18.9782 12.6654 19.7044 12.984 20.364C13.0208 20.4373 13.0723 20.5023 13.1353 20.5549C13.1982 20.6075 13.2713 20.6467 13.35 20.67C13.1206 21.0041 12.9954 21.3987 12.99 21.804C12.945 22.3531 12.945 22.9049 12.99 23.454C12.99 23.634 12.96 23.682 12.768 23.628C12.366 23.52 12.36 23.532 12.354 23.118C12.3656 22.3513 12.2458 21.5883 12 20.862Z" fill="#B6C4C1"/>
<path d="M12.4373 18.6C12.4373 18.822 12.4073 19.062 12.3653 19.296C12.3113 19.668 12.2573 20.046 12.1793 20.412C12.1433 20.574 12.1793 20.772 11.9693 20.868C10.947 20.0674 10.0475 19.1213 9.29934 18.06C8.43135 16.8568 7.81878 15.4888 7.49934 14.04C7.38285 13.2445 7.30874 12.4433 7.27734 11.64C7.27734 11.376 7.36134 10.242 7.40934 9.89998C7.77443 7.01678 9.09712 4.33969 11.1653 2.29798C11.3061 2.15808 11.4543 2.02589 11.6093 1.90198C11.8242 1.75832 12.0013 1.56498 12.1256 1.33833C12.2499 1.11168 12.3177 0.858407 12.3233 0.599976C12.3256 0.617905 12.3256 0.636046 12.3233 0.653976L12.4373 18.6Z" fill="#10AB50"/>
</svg>
