<svg width="12" height="12" viewBox="0 0 12 12" fill="none" xmlns="http://www.w3.org/2000/svg">
<g id="Frame" clip-path="url(#clip0_2603_2288)">
<path id="Vector" d="M11.7384 8.80226C11.6465 8.63988 11.4335 8.36238 10.6471 7.82726C10.178 7.50548 9.68809 7.21522 9.18052 6.95838C8.82202 5.98826 8.1279 4.73051 7.11502 3.21588C6.02452 1.58501 4.75815 0.898008 3.3429 1.17026C3.18849 1.01718 3.02851 0.869827 2.86327 0.728508C2.50627 0.422133 1.63177 0.161883 1.12927 0.211758C0.901645 0.234633 0.730645 0.317882 0.621145 0.458883C0.36727 0.785883 0.45202 1.25651 1.62315 2.78988C1.8459 3.44163 1.89352 3.78213 1.89352 3.95351C1.89352 4.31576 2.08065 4.73126 2.47927 5.25138L2.10427 6.53463C1.76977 7.68063 2.37765 9.16301 2.94352 9.67976C3.2454 9.95576 3.49965 9.91451 3.62527 9.86538C3.87727 9.76638 4.08052 9.52001 4.21177 8.81651C4.28389 8.99423 4.35502 9.17236 4.42515 9.35088C4.83015 10.3791 5.22615 10.948 5.67127 11.1408C5.76128 11.174 5.86059 11.1714 5.94879 11.1337C6.037 11.096 6.10741 11.0259 6.14557 10.9379C6.18372 10.8498 6.18673 10.7506 6.15397 10.6604C6.1212 10.5702 6.05516 10.496 5.9694 10.453C5.85915 10.405 5.5554 10.1751 5.12227 9.07601C4.75702 8.14863 4.49115 7.52838 4.30927 7.17926C4.27083 7.10627 4.20955 7.04787 4.13479 7.01299C4.06002 6.97812 3.9759 6.96868 3.89527 6.98613C3.81461 7.00414 3.74215 7.04827 3.68912 7.11166C3.6361 7.17506 3.60548 7.25418 3.60202 7.33676C3.55665 8.40363 3.44902 8.86488 3.37702 9.05951C3.06652 8.70251 2.57865 7.58313 2.82352 6.74463C3.0669 5.90988 3.21015 5.42126 3.2529 5.27688C3.27023 5.2184 3.273 5.15656 3.26098 5.09676C3.24895 5.03695 3.22249 4.981 3.1839 4.93376C2.69565 4.33413 2.64277 4.04801 2.64277 3.95276C2.64277 3.60738 2.5344 3.12776 2.31127 2.48613C2.29845 2.44857 2.27957 2.41336 2.2554 2.38188C1.62465 1.56026 1.3929 1.14888 1.30815 0.953508C1.60852 0.967758 2.17927 1.12976 2.37465 1.29776C2.57526 1.46874 2.76701 1.64985 2.94915 1.84038C2.99519 1.889 3.05345 1.92436 3.11783 1.94277C3.18222 1.96117 3.25036 1.96194 3.31515 1.94501C4.48927 1.64126 5.52915 2.19288 6.49177 3.63251C7.52077 5.17151 8.2044 6.42213 8.5239 7.34988C8.54002 7.3968 8.56529 7.44004 8.59825 7.47712C8.63121 7.5142 8.6712 7.54437 8.7159 7.56588C9.24018 7.82207 9.7447 8.11688 10.2253 8.44788C10.3044 8.50162 10.3827 8.55637 10.4604 8.61213H9.30202C9.23051 8.61233 9.16054 8.63296 9.10035 8.67158C9.04016 8.7102 8.99226 8.76521 8.96227 8.83014C8.93229 8.89506 8.92148 8.9672 8.93112 9.03807C8.94075 9.10893 8.97042 9.17557 9.01665 9.23013C9.38857 9.67068 9.77092 10.1023 10.1634 10.5246C10.1967 10.5621 10.2372 10.5925 10.2825 10.6141C10.3278 10.6356 10.377 10.6479 10.4271 10.6501C10.4772 10.6523 10.5272 10.6444 10.5742 10.627C10.6213 10.6095 10.6643 10.5828 10.7008 10.5484C10.7373 10.514 10.7665 10.4726 10.7868 10.4267C10.807 10.3808 10.8178 10.3313 10.8186 10.2812C10.8194 10.231 10.8101 10.1812 10.7912 10.1347C10.7724 10.0882 10.7445 10.046 10.709 10.0105C10.5098 9.79766 10.3142 9.58151 10.1221 9.36213H11.4121C11.4777 9.36202 11.542 9.34476 11.5988 9.31206C11.6556 9.27936 11.7028 9.23237 11.7358 9.17575C11.7688 9.11914 11.7864 9.05487 11.7869 8.98935C11.7873 8.92382 11.7706 8.85932 11.7384 8.80226ZM3.75052 2.89226C3.89902 3.14726 4.01377 3.32988 4.0944 3.44051C4.19152 3.63101 4.34265 3.78326 4.4394 3.97413L4.46302 3.95088C4.63327 3.83426 4.76677 3.37076 4.49527 3.06626C4.35427 2.85326 3.89715 2.85926 3.75052 2.89226Z" fill="#2067AD"/>
</g>
<defs>
<clipPath id="clip0_2603_2288">
<rect width="12" height="12" fill="white"/>
</clipPath>
</defs>
</svg>
