<svg width="24" height="24" viewBox="0 0 24 24" fill="none" xmlns="http://www.w3.org/2000/svg">
<path d="M23.4748 18.1933C23.2911 17.8686 22.8651 17.3136 21.2923 16.2433C20.3541 15.5998 19.3742 15.0192 18.3591 14.5056C17.6421 12.5653 16.2538 10.0498 14.2281 7.02057C12.0471 3.75882 9.51434 2.38482 6.68384 2.92932C6.37503 2.62316 6.05506 2.32846 5.72459 2.04582C5.01059 1.43307 3.26159 0.912571 2.25659 1.01232C1.80134 1.05807 1.45934 1.22457 1.24034 1.50657C0.732587 2.16057 0.902087 3.10182 3.24434 6.16857C3.68984 7.47207 3.78509 8.15307 3.78509 8.49582C3.78509 9.22032 4.15934 10.0513 4.95659 11.0916L4.20659 13.6581C3.53759 15.9501 4.75334 18.9148 5.88509 19.9483C6.48884 20.5003 6.99734 20.4178 7.24859 20.3196C7.75259 20.1216 8.15909 19.6288 8.42159 18.2218C8.56583 18.5773 8.70808 18.9335 8.84834 19.2906C9.65834 21.3471 10.4503 22.4848 11.3406 22.8703C11.5206 22.9367 11.7192 22.9317 11.8956 22.8562C12.072 22.7807 12.2129 22.6406 12.2892 22.4645C12.3655 22.2885 12.3715 22.0899 12.306 21.9096C12.2405 21.7292 12.1084 21.5808 11.9368 21.4948C11.7163 21.3988 11.1088 20.9391 10.2426 18.7408C9.51209 16.8861 8.98034 15.6456 8.61659 14.9473C8.53971 14.8013 8.41714 14.6845 8.26762 14.6148C8.1181 14.545 7.94985 14.5262 7.78859 14.5611C7.62727 14.5971 7.48234 14.6853 7.3763 14.8121C7.27025 14.9389 7.20901 15.0972 7.20209 15.2623C7.11134 17.3961 6.89609 18.3186 6.75209 18.7078C6.13109 17.9938 5.15534 15.7551 5.64509 14.0781C6.13184 12.4086 6.41834 11.4313 6.50384 11.1426C6.5385 11.0256 6.54405 10.9019 6.52 10.7823C6.49595 10.6627 6.44303 10.5508 6.36584 10.4563C5.38934 9.25707 5.28359 8.68482 5.28359 8.49432C5.28359 7.80357 5.06684 6.84432 4.62059 5.56107C4.59494 5.48595 4.55719 5.41552 4.50884 5.35257C3.24734 3.70932 2.78384 2.88657 2.61434 2.49582C3.21509 2.52432 4.35659 2.84832 4.74734 3.18432C5.14856 3.52628 5.53206 3.8885 5.89634 4.26957C5.98843 4.36681 6.10494 4.43753 6.23371 4.47434C6.36248 4.51115 6.49877 4.51269 6.62834 4.47882C8.97659 3.87132 11.0563 4.97457 12.9816 7.85382C15.0396 10.9318 16.4068 13.4331 17.0458 15.2886C17.0781 15.3824 17.1286 15.4689 17.1946 15.543C17.2605 15.6172 17.3404 15.6775 17.4298 15.7206C18.4784 16.2329 19.4874 16.8226 20.4486 17.4846C20.6068 17.592 20.7635 17.7015 20.9188 17.8131H18.6021C18.4591 17.8135 18.3191 17.8547 18.1987 17.932C18.0784 18.0092 17.9826 18.1192 17.9226 18.2491C17.8626 18.3789 17.841 18.5232 17.8603 18.6649C17.8795 18.8067 17.9389 18.9399 18.0313 19.0491C18.7752 19.9302 19.5399 20.7934 20.3248 21.6381C20.3915 21.713 20.4725 21.7739 20.5631 21.817C20.6537 21.8601 20.752 21.8845 20.8522 21.889C20.9524 21.8934 21.0525 21.8777 21.1465 21.8427C21.2406 21.8078 21.3266 21.7544 21.3997 21.6856C21.4727 21.6168 21.5311 21.534 21.5716 21.4422C21.6121 21.3504 21.6337 21.2515 21.6352 21.1512C21.6368 21.0509 21.6182 20.9513 21.5805 20.8583C21.5429 20.7653 21.487 20.6808 21.4161 20.6098C21.0177 20.1841 20.6264 19.7518 20.2423 19.3131H22.8223C22.9534 19.3128 23.0821 19.2783 23.1957 19.2129C23.3092 19.1475 23.4037 19.0535 23.4697 18.9403C23.5357 18.8271 23.5709 18.6985 23.5718 18.5675C23.5727 18.4365 23.5393 18.3074 23.4748 18.1933ZM7.49909 6.37332C7.79609 6.88332 8.02559 7.24857 8.18684 7.46982C8.38109 7.85082 8.68334 8.15532 8.87684 8.53707L8.92409 8.49057C9.26459 8.25732 9.53159 7.33032 8.98859 6.72132C8.70659 6.29532 7.79234 6.30732 7.49909 6.37332Z" fill="#2067AD"/>
</svg>
