<svg width="80" height="80" viewBox="0 0 80 80" fill="none" xmlns="http://www.w3.org/2000/svg">
<path fill-rule="evenodd" clip-rule="evenodd" d="M19.0705 8.95996H65.4094C67.4587 8.95996 69.12 10.6118 69.12 12.6494V53.7236L53.296 70.0591H19.0705C17.0213 70.0591 15.36 68.4073 15.36 66.3697V12.6494C15.36 10.6118 17.0213 8.95996 19.0705 8.95996Z" fill="#D6DAE1"/>
<path fill-rule="evenodd" clip-rule="evenodd" d="M53.2959 70.0327V54.9271C53.2959 54.2479 53.8497 53.6973 54.5328 53.6973H69.1199L53.2959 70.0327Z" fill="#B5BEC8"/>
<rect x="48.4399" y="14.0796" width="16" height="20.48" rx="2" fill="#F4F5F9"/>
<rect x="20.2241" y="14.1152" width="20.64" height="3.2" rx="1" fill="#F4F5F9"/>
<rect x="20.2241" y="20.2505" width="20.64" height="3.2" rx="1" fill="#F4F5F9"/>
<rect x="20.2241" y="26.6504" width="10.32" height="3.2" rx="1" fill="#F4F5F9"/>
<rect x="20.2241" y="44.1108" width="44.032" height="3.2" rx="1" fill="#F4F5F9"/>
<rect x="20.2241" y="48.8833" width="44.032" height="3.2" rx="1" fill="#F4F5F9"/>
<path fill-rule="evenodd" clip-rule="evenodd" d="M31.8181 34.6489C24.496 34.6489 18.5602 40.6141 18.5602 47.9725C18.5602 55.3309 24.496 61.296 31.8181 61.296C33.6008 61.296 35.3013 60.9425 36.8539 60.3013L43.7463 70.637L47.2995 68.2432L40.4981 58.0439C43.3024 55.6009 45.0761 51.9949 45.0761 47.9725C45.0761 40.6141 39.1403 34.6489 31.8181 34.6489ZM31.8181 38.9472C36.7782 38.9472 40.7993 42.9881 40.7993 47.9728C40.7993 52.9575 36.7782 56.9985 31.8181 56.9985C26.8579 56.9985 22.8369 52.9575 22.8369 47.9728C22.8369 42.9881 26.8579 38.9472 31.8181 38.9472Z" fill="white"/>
<path d="M15.7495 38.3938L15.4811 39.0205L9.58404 36.4913L9.85248 35.8646L15.7495 38.3938Z" fill="#1F2329"/>
<path d="M18.9606 36.2086L18.4367 36.6449L13.3637 30.5493L13.8876 30.113L18.9606 36.2086Z" fill="#1F2329"/>
<path d="M15.8575 42.0183L15.882 42.7005L7.80575 42.9754L7.78133 42.2932L15.8575 42.0183Z" fill="#1F2329"/>
</svg>
