<svg width="125" height="125" viewBox="0 0 125 125" fill="none" xmlns="http://www.w3.org/2000/svg">
<rect width="125" height="125" rx="62.5" fill="#EBEBEB"/>
<path d="M68.6525 91.3927C67.7195 93.8379 64.2695 93.8652 63.2978 91.4358L47.0339 50.7747C46.0952 48.4287 48.424 46.0985 50.7714 47.0372L91.4296 63.3011C93.8547 64.2714 93.8346 67.7113 91.398 68.6529L74.8998 75.0253L68.6525 91.3942V91.3927ZM65.904 82.4702L69.9836 71.7809C70.1273 71.4047 70.3485 71.0629 70.6328 70.7776C70.9171 70.4923 71.2581 70.27 71.6338 70.1249L82.5042 65.926L54.864 54.8702L65.904 82.4702Z" fill="#8F959E"/>
<path d="M48.125 32.3125C56.7026 32.3125 63.6859 39.1421 63.9303 47.6607L57.7534 45.1896C57.2462 43.5293 56.3182 42.0284 55.0594 40.8329C53.8006 39.6373 52.2538 38.7878 50.5696 38.3669C48.8853 37.9459 47.1208 37.9679 45.4476 38.4307C43.7743 38.8934 42.2493 39.7812 41.0206 41.0077C39.792 42.2343 38.9016 43.7578 38.436 45.4302C37.9703 47.1027 37.9453 48.8672 38.3634 50.5521C38.7814 52.2371 39.6283 53.7853 40.8217 55.0461C42.0151 56.307 43.5143 57.2376 45.1738 57.7476L47.6463 63.9303C39.1334 63.6773 32.3125 56.6982 32.3125 48.125C32.3125 39.3922 39.3922 32.3125 48.125 32.3125Z" fill="#8F959E"/>
</svg>
