<?xml version="1.0" standalone="no"?><!DOCTYPE svg PUBLIC "-//W3C//DTD SVG 1.1//EN" "http://www.w3.org/Graphics/SVG/1.1/DTD/svg11.dtd"><svg t="1625126274902" class="icon" viewBox="0 0 1024 1024" version="1.1" xmlns="http://www.w3.org/2000/svg" p-id="1191" xmlns:xlink="http://www.w3.org/1999/xlink" width="128" height="128"><defs><style type="text/css"></style></defs><path d="M757.76 819.2h-491.52A61.44 61.44 0 0 1 204.8 757.76v-286.72a307.2 307.2 0 0 1 614.4 0v286.72a61.44 61.44 0 0 1-61.44 61.44z m-245.76-614.4A266.6496 266.6496 0 0 0 245.76 471.04v286.72a20.48 20.48 0 0 0 20.48 20.48h491.52a20.48 20.48 0 0 0 20.48-20.48v-286.72A266.6496 266.6496 0 0 0 512 204.8zM512 942.08a102.4 102.4 0 0 1-102.4-102.4h40.96a61.44 61.44 0 0 0 122.88 0h40.96a102.4 102.4 0 0 1-102.4 102.4z" p-id="1192"></path><path d="M491.52 81.92h40.96v81.92h-40.96zM837.2224 298.5984a383.7952 383.7952 0 0 0-111.0016-111.4112l22.528-34.4064a428.4416 428.4416 0 0 1 122.88 122.88zM186.7776 298.5984l-34.4064-22.9376a428.4416 428.4416 0 0 1 122.88-122.88l22.528 34.4064a383.7952 383.7952 0 0 0-111.0016 111.4112z" p-id="1193"></path></svg>