<svg width="24" height="24" viewBox="0 0 24 24" fill="none" xmlns="http://www.w3.org/2000/svg">
<g clip-path="url(#clip0_2584_261376)">
<path fill-rule="evenodd" clip-rule="evenodd" d="M11.5186 12.453H9.98956L10.3274 12.9784H11.877L12.1941 13.5044L12.8704 13.505L11.0591 10.6741C10.9822 10.5621 10.8518 10.4951 10.7097 10.4951C10.6403 10.4943 10.5719 10.5108 10.5104 10.5428C10.4489 10.5749 10.3962 10.6217 10.3572 10.6791L8.55218 13.505L9.2279 13.5044L10.7108 11.1512L11.5186 12.453ZM17.0049 10.5245V12.9789V12.9791H19.6753L19.3382 13.5042H16.7251C16.6454 13.5042 16.5712 13.4736 16.515 13.4179C16.4618 13.3647 16.4315 13.2934 16.4315 13.2189V10.5245H17.0049ZM8.22839 12.2398C8.04234 12.4284 7.78952 12.5361 7.52464 12.5397L7.26225 12.5391L8.41281 13.5044H7.58028L5.87023 12.014L7.48517 12.0145C7.54853 12.0146 7.61127 12.0021 7.6698 11.9778C7.72834 11.9536 7.78152 11.918 7.82631 11.8732C7.87109 11.8284 7.9066 11.7752 7.9308 11.7166C7.955 11.6581 7.96742 11.5953 7.96735 11.532C7.96745 11.4686 7.95504 11.4059 7.93085 11.3473C7.90665 11.2888 7.87114 11.2356 7.82635 11.1907C7.78156 11.1459 7.72837 11.1104 7.66982 11.0862C7.61127 11.062 7.54852 11.0495 7.48517 11.0496H5.58966V13.5044H5.01677V10.5245H7.52464C7.78952 10.528 8.04234 10.6358 8.22839 10.8243C8.41444 11.0129 8.51875 11.2672 8.51875 11.5321C8.51875 11.797 8.41444 12.0512 8.22839 12.2398ZM0.436406 13.068C0.715832 13.3474 1.09481 13.5044 1.48998 13.5044L3.22207 13.505C3.41776 13.505 3.61154 13.4664 3.79232 13.3915C3.97311 13.3165 4.13737 13.2067 4.27572 13.0683C4.41407 12.9299 4.52381 12.7656 4.59866 12.5848C4.67351 12.404 4.71201 12.2102 4.71196 12.0145C4.71196 11.6194 4.55499 11.2404 4.27559 10.961C3.99619 10.6815 3.61723 10.5245 3.22207 10.5245H1.48998C1.09481 10.5245 0.715832 10.6814 0.436406 10.9609C0.15698 11.2403 0 11.6193 0 12.0144C0 12.4096 0.15698 12.7886 0.436406 13.068ZM3.5527 12.9059C3.43565 12.9544 3.3102 12.9793 3.18351 12.9793H1.52836C1.27575 12.9743 1.03516 12.8705 0.858257 12.6901C0.681355 12.5098 0.582261 12.2672 0.582261 12.0145C0.582261 11.7619 0.681355 11.5193 0.858257 11.3389C1.03516 11.1585 1.27575 11.0547 1.52836 11.0498H3.18351C3.3102 11.0498 3.43565 11.0747 3.5527 11.1232C3.66974 11.1717 3.77609 11.2427 3.86567 11.3323C3.95524 11.4219 4.02629 11.5283 4.07474 11.6453C4.1232 11.7624 4.14811 11.8878 4.14806 12.0145C4.14811 12.1412 4.1232 12.2667 4.07474 12.3837C4.02629 12.5008 3.95524 12.6072 3.86567 12.6967C3.77609 12.7863 3.66974 12.8574 3.5527 12.9059ZM13.4906 13.3958C13.6733 13.4697 13.8689 13.5066 14.0659 13.5044H15.834L16.1706 12.9793H14.1047C13.9764 12.9818 13.8489 12.9587 13.7297 12.9113C13.6104 12.864 13.5018 12.7933 13.4102 12.7035C13.3186 12.6136 13.2459 12.5064 13.1962 12.3881C13.1465 12.2698 13.1209 12.1428 13.1209 12.0145C13.1209 11.8862 13.1465 11.7592 13.1962 11.6409C13.2459 11.5226 13.3186 11.4154 13.4102 11.3256C13.5018 11.2358 13.6104 11.1651 13.7297 11.1178C13.8489 11.0704 13.9764 11.0473 14.1047 11.0498H15.787L16.1243 10.5245H14.0659C13.8689 10.5223 13.6733 10.5592 13.4906 10.6331C13.3079 10.707 13.1417 10.8164 13.0016 10.955C12.8615 11.0935 12.7502 11.2585 12.6743 11.4404C12.5984 11.6223 12.5593 11.8174 12.5593 12.0144C12.5593 12.2115 12.5984 12.4066 12.6743 12.5885C12.7502 12.7703 12.8615 12.9353 13.0016 13.0739C13.1417 13.2125 13.3079 13.3219 13.4906 13.3958ZM20.4942 12.7843C20.6616 12.9108 20.8658 12.9793 21.0756 12.9793H23.1413L22.8047 13.5044H21.0365C20.6442 13.5001 20.2694 13.3412 19.9936 13.0622C19.7177 12.7833 19.563 12.4068 19.563 12.0144C19.563 11.6221 19.7177 11.2456 19.9936 10.9667C20.2694 10.6877 20.6442 10.5288 21.0365 10.5245H23.0949L22.757 11.0498L21.0756 11.0496C20.8654 11.0497 20.6609 11.1184 20.4934 11.2453C20.3258 11.3722 20.2042 11.5504 20.1472 11.7527L22.9347 11.7529L22.5974 12.2782H20.148C20.2052 12.4801 20.3268 12.6578 20.4942 12.7843ZM23.4787 10.6557C23.4294 10.705 23.4016 10.772 23.4016 10.8418C23.4016 10.9115 23.4294 10.9785 23.4787 11.0278C23.5281 11.0772 23.595 11.1049 23.6648 11.1049C23.7346 11.1049 23.8015 11.0772 23.8508 11.0278C23.9002 10.9785 23.9279 10.9115 23.9279 10.8418C23.9279 10.772 23.9002 10.705 23.8508 10.6557C23.8015 10.6064 23.7346 10.5786 23.6648 10.5786C23.595 10.5786 23.5281 10.6064 23.4787 10.6557ZM23.6334 10.644C23.685 10.644 23.7063 10.6445 23.7317 10.6541C23.7978 10.6763 23.8045 10.7371 23.8045 10.7593C23.8043 10.7697 23.8029 10.78 23.8005 10.7902C23.7974 10.8035 23.7917 10.816 23.7837 10.8271C23.7757 10.8382 23.7656 10.8475 23.7539 10.8546L23.7535 10.8549C23.7498 10.8577 23.7474 10.8595 23.737 10.8634L23.8242 11.0195H23.7399L23.6635 10.8759H23.6127V11.0193H23.5392V10.644H23.6334ZM23.6596 10.8137C23.6822 10.8133 23.7073 10.8116 23.722 10.7902C23.728 10.7806 23.731 10.7693 23.7305 10.758C23.7306 10.7485 23.728 10.7392 23.723 10.7311C23.718 10.723 23.7108 10.7166 23.7022 10.7125C23.6853 10.7059 23.668 10.7059 23.6333 10.7059H23.6126V10.8137H23.6596Z" fill="#FF0000"/>
</g>
<defs>
<clipPath id="clip0_2584_261376">
<rect width="24" height="24" rx="4" fill="white"/>
</clipPath>
</defs>
</svg>
