<?xml version="1.0" standalone="no"?><!DOCTYPE svg PUBLIC "-//W3C//DTD SVG 1.1//EN" "http://www.w3.org/Graphics/SVG/1.1/DTD/svg11.dtd"><svg t="1685932772751" class="icon" viewBox="0 0 1024 1024" version="1.1" xmlns="http://www.w3.org/2000/svg" p-id="5914" xmlns:xlink="http://www.w3.org/1999/xlink" width="200" height="200"><path d="M437.996 697.519V586.722H327.195c-61.187 0-110.797 49.61-110.797 110.797 0 61.195 49.61 110.797 110.797 110.797 61.192 0 110.801-49.602 110.801-110.797z m55.399 0c0 91.789-74.411 166.195-166.2 166.195C235.41 863.714 161 789.308 161 697.519c0-91.789 74.41-166.195 166.195-166.195h166.2v166.195z m92.328 0V586.722H696.52c61.195 0 110.796 49.61 110.796 110.797 0 61.195-49.601 110.797-110.796 110.797-61.188 0-110.797-49.602-110.797-110.797z m-55.399 0c0 91.789 74.41 166.195 166.196 166.195 91.789 0 166.199-74.406 166.199-166.195 0-91.789-74.41-166.195-166.199-166.195H530.324v166.195z m-92.328-369.324v110.801H327.195c-61.187 0-110.797-49.61-110.797-110.801 0-61.188 49.61-110.797 110.797-110.797 61.192 0 110.801 49.609 110.801 110.797z m55.399 0c0-91.785-74.411-166.195-166.2-166.195C235.41 162 161 236.41 161 328.195c0 91.789 74.41 166.199 166.195 166.199h166.2V328.195z m92.328 0v110.801H696.52c61.195 0 110.796-49.61 110.796-110.801 0-61.188-49.601-110.797-110.796-110.797-61.188 0-110.797 49.609-110.797 110.797z m-55.399 0C530.324 236.41 604.734 162 696.52 162c91.789 0 166.199 74.41 166.199 166.195 0 91.789-74.41 166.199-166.199 166.199H530.324V328.195z m0 0" p-id="5915"></path></svg>