<?xml version="1.0" standalone="no"?><!DOCTYPE svg PUBLIC "-//W3C//DTD SVG 1.1//EN" "http://www.w3.org/Graphics/SVG/1.1/DTD/svg11.dtd"><svg t="1682502310245" class="icon" viewBox="0 0 1024 1024" version="1.1" xmlns="http://www.w3.org/2000/svg" p-id="8011" xmlns:xlink="http://www.w3.org/1999/xlink" width="200" height="200"><path d="M691.2 844.8c0-87.04 71.68-158.72 158.72-158.72 87.04 0 158.72 71.68 158.72 158.72s-71.68 158.72-158.72 158.72c-87.04 0-158.72-71.68-158.72-158.72z m87.04 0c0 40.96 30.72 71.68 71.68 71.68 40.96 0 71.68-30.72 71.68-71.68 0-40.96-30.72-71.68-71.68-71.68-40.96 0-71.68 30.72-71.68 71.68z" p-id="8012" fill="#F2F2F2"></path><path d="M56.32 885.76H691.2c20.48 0 35.84-15.36 35.84-35.84 0-20.48-15.36-35.84-35.84-35.84H56.32c-20.48 0-35.84 15.36-35.84 35.84-5.12 20.48 15.36 35.84 35.84 35.84z m117.76-547.84c-87.04 0-158.72-71.68-158.72-158.72S87.04 20.48 174.08 20.48 332.8 92.16 332.8 179.2s-71.68 158.72-158.72 158.72z m0-230.4c-35.84 0-71.68 35.84-71.68 71.68s30.72 71.68 71.68 71.68 71.68-30.72 71.68-71.68-30.72-71.68-71.68-71.68z" p-id="8013" fill="#F2F2F2"></path><path d="M967.68 225.28H337.92c-20.48 0-35.84-15.36-35.84-35.84s15.36-35.84 35.84-35.84H972.8c20.48 0 35.84 15.36 35.84 35.84s-20.48 35.84-40.96 35.84zM542.72 701.44c-107.52 0-189.44-87.04-189.44-189.44s87.04-189.44 189.44-189.44S732.16 409.6 732.16 512s-81.92 189.44-189.44 189.44z m0-276.48c-46.08 0-87.04 40.96-87.04 87.04s40.96 87.04 87.04 87.04c46.08 0 87.04-40.96 87.04-87.04s-35.84-87.04-87.04-87.04z" p-id="8014" fill="#F2F2F2"></path><path d="M977.92 558.08H706.56c-20.48 0-35.84-15.36-35.84-35.84s15.36-35.84 35.84-35.84h271.36c20.48 0 35.84 15.36 35.84 35.84s-15.36 35.84-35.84 35.84z m-588.8 0H46.08c-20.48 0-35.84-15.36-35.84-35.84S25.6 486.4 46.08 486.4h343.04c20.48 0 35.84 15.36 35.84 35.84s-15.36 35.84-35.84 35.84z" p-id="8015" fill="#F2F2F2"></path></svg>