<svg width="24" height="24" viewBox="0 0 24 24" xmlns="http://www.w3.org/2000/svg">
<path d="M2.99951 3C2.44723 3 1.99951 3.44772 1.99951 4V20C1.99951 20.5523 2.44723 21 2.99951 21H20.9995C21.5518 21 21.9995 20.5523 21.9995 20V4C21.9995 3.44772 21.5518 3 20.9995 3H2.99951ZM19.9995 4.99992V15.0001L17.8531 12.8536C17.6578 12.6584 17.3412 12.6584 17.1459 12.8536L14.3531 15.6465C14.1578 15.8418 13.8412 15.8418 13.6459 15.6465L8.35306 10.3536C8.1578 10.1584 7.84122 10.1584 7.64596 10.3536L3.99951 14.0001V4.99992H19.9995ZM15.9995 7.5C15.7234 7.5 15.4995 7.72386 15.4995 8V9.5C15.4995 9.77614 15.7234 10 15.9995 10H17.4995C17.7756 10 17.9995 9.77614 17.9995 9.5V8C17.9995 7.72386 17.7756 7.5 17.4995 7.5H15.9995Z" />
</svg>
