<?xml version="1.0" standalone="no"?><!DOCTYPE svg PUBLIC "-//W3C//DTD SVG 1.1//EN" "http://www.w3.org/Graphics/SVG/1.1/DTD/svg11.dtd"><svg t="1685932733785" class="icon" viewBox="0 0 1024 1024" version="1.1" xmlns="http://www.w3.org/2000/svg" p-id="4875" xmlns:xlink="http://www.w3.org/1999/xlink" width="200" height="200"><path d="M981.333333 775.594667a42.666667 42.666667 0 0 1 42.368 37.717333l0.298667 4.949333v141.738667a64 64 0 0 1-57.856 63.701333l-6.144 0.298667h-152.917333a42.666667 42.666667 0 0 1-4.992-85.034667l4.992-0.298666H938.666667v-120.405334a42.666667 42.666667 0 0 1 37.674666-42.368l4.992-0.298666z m-938.666666-2.517334a42.666667 42.666667 0 0 1 42.368 37.717334l0.298666 4.949333V938.666667h134.784a42.666667 42.666667 0 0 1 42.368 37.674666l0.298667 4.992a42.666667 42.666667 0 0 1-37.674667 42.368l-4.992 0.298667H64a64 64 0 0 1-63.701333-57.856l-0.298667-6.144v-144.213333a42.666667 42.666667 0 0 1 42.666667-42.666667z m172.842666-773.077333a42.666667 42.666667 0 0 1 4.992 85.034667l-4.992 0.298666H85.333333v133.12a42.666667 42.666667 0 0 1-37.674666 42.368l-4.992 0.298667a42.666667 42.666667 0 0 1-42.368-37.717333l-0.298667-4.949334v-154.453333a64 64 0 0 1 57.856-63.701333l6.144-0.298667h151.509333z m744.490667 0a64 64 0 0 1 63.701333 57.856l0.298667 6.144v153.301333a42.666667 42.666667 0 0 1-85.034667 4.992l-0.298666-4.992V85.333333h-126.72a42.666667 42.666667 0 0 1-42.368-37.674666l-0.298667-4.992a42.666667 42.666667 0 0 1 37.674667-42.368l4.992-0.298667h148.053333z" p-id="4876"></path><path d="M341.333333 0m42.666667 0l256 0q42.666667 0 42.666667 42.666667l0 0q0 42.666667-42.666667 42.666666l-256 0q-42.666667 0-42.666667-42.666666l0 0q0-42.666667 42.666667-42.666667Z" fill="#191919" p-id="4877"></path><path d="M85.333333 341.333333m0 42.666667l0 256q0 42.666667-42.666666 42.666667l0 0q-42.666667 0-42.666667-42.666667l0-256q0-42.666667 42.666667-42.666667l0 0q42.666667 0 42.666666 42.666667Z" fill="#191919" p-id="4878"></path><path d="M1024 341.333333m0 42.666667l0 256q0 42.666667-42.666667 42.666667l0 0q-42.666667 0-42.666666-42.666667l0-256q0-42.666667 42.666666-42.666667l0 0q42.666667 0 42.666667 42.666667Z" fill="#191919" p-id="4879"></path><path d="M341.333333 938.666667m42.666667 0l256 0q42.666667 0 42.666667 42.666666l0 0q0 42.666667-42.666667 42.666667l-256 0q-42.666667 0-42.666667-42.666667l0 0q0-42.666667 42.666667-42.666666Z" fill="#191919" p-id="4880"></path><path d="M810.666667 128m42.666666 0l0 0q42.666667 0 42.666667 42.666667l0 0q0 42.666667-42.666667 42.666666l0 0q-42.666667 0-42.666666-42.666666l0 0q0-42.666667 42.666666-42.666667Z" fill="#000000" p-id="4881"></path><path d="M128 128m42.666667 0l0 0q42.666667 0 42.666666 42.666667l0 0q0 42.666667-42.666666 42.666666l0 0q-42.666667 0-42.666667-42.666666l0 0q0-42.666667 42.666667-42.666667Z" fill="#000000" p-id="4882"></path><path d="M810.666667 810.666667m42.666666 0l0 0q42.666667 0 42.666667 42.666666l0 0q0 42.666667-42.666667 42.666667l0 0q-42.666667 0-42.666666-42.666667l0 0q0-42.666667 42.666666-42.666666Z" fill="#000000" p-id="4883"></path><path d="M128 810.666667m42.666667 0l0 0q42.666667 0 42.666666 42.666666l0 0q0 42.666667-42.666666 42.666667l0 0q-42.666667 0-42.666667-42.666667l0 0q0-42.666667 42.666667-42.666666Z" fill="#000000" p-id="4884"></path></svg>
