<?xml version="1.0" standalone="no"?><!DOCTYPE svg PUBLIC "-//W3C//DTD SVG 1.1//EN" "http://www.w3.org/Graphics/SVG/1.1/DTD/svg11.dtd"><svg t="1682502234771" class="icon" viewBox="0 0 1024 1024" version="1.1" xmlns="http://www.w3.org/2000/svg" p-id="6891" xmlns:xlink="http://www.w3.org/1999/xlink" width="200" height="200"><path d="M975.238095 97.52381h-48.761905V48.761905a48.761905 48.761905 0 0 0-97.523809 0v48.761905h-48.761905a48.761905 48.761905 0 0 0 0 97.523809h48.761905v48.761905a48.761905 48.761905 0 0 0 97.523809 0V195.047619h48.761905a48.761905 48.761905 0 0 0 0-97.523809z" fill="#F2F2F2" p-id="6892" data-spm-anchor-id="a313x.7781069.0.i14" class="selected"></path><path d="M316.952381 414.47619m-85.333333 0a85.333333 85.333333 0 1 0 170.666666 0 85.333333 85.333333 0 1 0-170.666666 0Z" fill="#F2F2F2" p-id="6893" data-spm-anchor-id="a313x.7781069.0.i13" class="selected"></path><path d="M877.714286 414.47619a48.761905 48.761905 0 0 0-48.761905 48.761905v292.571429l-32.182857-33.158095L666.087619 585.142857l-7.314286-6.339047a102.4 102.4 0 0 0-138.483809 19.99238L430.08 707.047619l-48.761905-38.034286a83.870476 83.870476 0 0 0-115.078095-9.752381L97.52381 807.009524V243.809524a48.761905 48.761905 0 0 1 48.761904-48.761905h426.179048a48.761905 48.761905 0 0 0 0-97.523809H146.285714a146.285714 146.285714 0 0 0-146.285714 146.285714v633.904762a146.285714 146.285714 0 0 0 146.285714 146.285714h633.904762a146.285714 146.285714 0 0 0 146.285714-146.285714V463.238095a48.761905 48.761905 0 0 0-48.761904-48.761905z" fill="#F2F2F2" p-id="6894" data-spm-anchor-id="a313x.7781069.0.i11" class="selected"></path></svg>