<svg width="24" height="24" viewBox="0 0 24 24"  xmlns="http://www.w3.org/2000/svg">
<path d="M21.3334 3.73268C21.3334 3.14358 20.8559 2.66602 20.2667 2.66602H3.73341C3.14431 2.66602 2.66675 3.14358 2.66675 3.73268V20.266C2.66675 20.8551 3.14431 21.3327 3.73341 21.3327H20.2667C20.8559 21.3327 21.3334 20.8551 21.3334 20.266V3.73268ZM4.66675 19.3327V4.66602H19.3334V19.3327H4.66675Z" />
<path opacity="0.4" d="M11.5332 5.44531C11.2387 5.44531 10.9999 5.68409 10.9999 5.97865V6.91198C10.9999 7.20653 11.2387 7.44531 11.5332 7.44531H12.4666C12.7611 7.44531 12.9999 7.20653 12.9999 6.91198V5.97865C12.9999 5.68409 12.7611 5.44531 12.4666 5.44531H11.5332ZM10.9999 8.75642C10.9999 8.46187 11.2387 8.22309 11.5332 8.22309H12.4666C12.7611 8.22309 12.9999 8.46187 12.9999 8.75642V9.68976C12.9999 9.98431 12.7611 10.2231 12.4666 10.2231H11.5332C11.2387 10.2231 10.9999 9.98431 10.9999 9.68976V8.75642ZM10.9999 11.5342C10.9999 11.2396 11.2387 11.0009 11.5332 11.0009H12.4666C12.7611 11.0009 12.9999 11.2396 12.9999 11.5342V12.4675C12.9999 12.7621 12.7611 13.0009 12.4666 13.0009H11.5332C11.2387 13.0009 10.9999 12.7621 10.9999 12.4675V11.5342ZM10.9999 14.312C10.9999 14.0174 11.2387 13.7786 11.5332 13.7786H12.4666C12.7611 13.7786 12.9999 14.0174 12.9999 14.312V15.2453C12.9999 15.5399 12.7611 15.7786 12.4666 15.7786H11.5332C11.2387 15.7786 10.9999 15.5399 10.9999 15.2453V14.312ZM11.5332 16.5564C11.2387 16.5564 10.9999 16.7952 10.9999 17.0898V18.0231C10.9999 18.3176 11.2387 18.5564 11.5332 18.5564H12.4666C12.7611 18.5564 12.9999 18.3176 12.9999 18.0231V17.0898C12.9999 16.7952 12.7611 16.5564 12.4666 16.5564H11.5332ZM16.5554 11.5342C16.5554 11.2396 16.7942 11.0009 17.0888 11.0009H18.0221C18.3167 11.0009 18.5554 11.2396 18.5554 11.5342V12.4675C18.5554 12.7621 18.3167 13.0009 18.0221 13.0009H17.0888C16.7942 13.0009 16.5554 12.7621 16.5554 12.4675V11.5342ZM14.311 11.0009C14.0164 11.0009 13.7777 11.2396 13.7777 11.5342V12.4675C13.7777 12.7621 14.0164 13.0009 14.311 13.0009H15.2443C15.5389 13.0009 15.7777 12.7621 15.7777 12.4675V11.5342C15.7777 11.2396 15.5389 11.0009 15.2443 11.0009H14.311ZM8.22211 11.5342C8.22211 11.2396 8.46089 11.0009 8.75545 11.0009H9.68878C9.98333 11.0009 10.2221 11.2396 10.2221 11.5342V12.4675C10.2221 12.7621 9.98333 13.0009 9.68878 13.0009H8.75545C8.46089 13.0009 8.22211 12.7621 8.22211 12.4675V11.5342ZM5.97767 11.0009C5.68312 11.0009 5.44434 11.2396 5.44434 11.5342V12.4675C5.44434 12.7621 5.68312 13.0009 5.97767 13.0009H6.911C7.20555 13.0009 7.44434 12.7621 7.44434 12.4675V11.5342C7.44434 11.2396 7.20555 11.0009 6.911 11.0009H5.97767Z" />
</svg>
