<svg width="1285" height="1024" xmlns="http://www.w3.org/2000/svg" t="1621433305409" class="icon" version="1.1" p-id="2359">
 <defs>
  <filter id="svg_4_blur">
   <feGaussianBlur in="SourceGraphic" stdDeviation="0"/>
  </filter>
 </defs>
 <g>
  <title>Layer 1</title>
  <path d="m100.39216,70.27451a30.11765,30.11765 0 0 0 -30.11765,30.11765l0,823.21568a30.11765,30.11765 0 0 0 30.11765,30.11765l1084.23529,0a30.11765,30.11765 0 0 0 30.11765,-30.11765l0,-823.21568a30.11765,30.11765 0 0 0 -30.11765,-30.11765l-1084.23529,0zm0,-60.23529l1084.23529,0a90.35294,90.35294 0 0 1 90.35294,90.35294l0,823.21568a90.35294,90.35294 0 0 1 -90.35294,90.35294l-1084.23529,0a90.35294,90.35294 0 0 1 -90.35294,-90.35294l0,-823.21568a90.35294,90.35294 0 0 1 90.35294,-90.35294z" fill="#b2b2b2" p-id="2360" id="svg_1"/>
  <path d="m261.01961,261.01961m-60.2353,0a60.23529,60.23529 0 1 0 120.47059,0a60.23529,60.23529 0 1 0 -120.47059,0z" fill="#b2b2b2" p-id="2361" id="svg_2"/>
  <path d="m331.29412,839.47922a30.11765,30.11765 0 0 1 -60.2353,0a189.94196,189.94196 0 0 1 189.94196,-189.94197l186.58887,0a102.46023,102.46023 0 0 0 98.4847,-130.71058a162.69553,162.69553 0 0 1 156.37083,-207.61098l241.14196,0a30.11765,30.11765 0 0 1 0,60.23529l-241.14196,0a102.46023,102.46023 0 0 0 -98.46463,130.73067a162.69553,162.69553 0 0 1 -156.3909,207.61098l-186.58887,0a129.70667,129.70667 0 0 0 -129.70666,129.70666l0,-0.02007z" fill="#b2b2b2" p-id="2362" id="svg_3"/>
  <rect fill="#b2b2b2" x="689.50014" y="187.00002" width="508.00008" height="760.00015" id="svg_8" stroke="null"/>
  <rect fill="#56ffff" x="728.16665" y="231.99995" width="430.00003" height="669.66668" id="svg_4" filter="url(#svg_4_blur)" rx="5" stroke="null"/>
  <line fill="none" x1="559.16667" y1="392.99996" x2="754.16667" y2="392.99996" id="svg_5" stroke="null"/>
  <ellipse fill="#b2b2b2" cx="952.16662" cy="823.83325" id="svg_6" rx="66.33335" ry="65.5" stroke="null"/>
  <rect fill="#b2b2b2" x="863.49997" y="242.6666" width="187.33336" height="47.66669" id="svg_7" stroke="null"/>
 </g>
</svg>
