<svg width="1285.0000000000002" height="1024" xmlns="http://www.w3.org/2000/svg" p-id="2359" version="1.1" class="icon" t="1621433305409">

 <g>
  <title>Layer 1</title>
  <path id="svg_1" p-id="2360" fill="#b2b2b2" d="m100.39216,70.27451a30.11765,30.11765 0 0 0 -30.11765,30.11765l0,823.21568a30.11765,30.11765 0 0 0 30.11765,30.11765l1084.23529,0a30.11765,30.11765 0 0 0 30.11765,-30.11765l0,-823.21568a30.11765,30.11765 0 0 0 -30.11765,-30.11765l-1084.23529,0zm0,-60.23529l1084.23529,0a90.35294,90.35294 0 0 1 90.35294,90.35294l0,823.21568a90.35294,90.35294 0 0 1 -90.35294,90.35294l-1084.23529,0a90.35294,90.35294 0 0 1 -90.35294,-90.35294l0,-823.21568a90.35294,90.35294 0 0 1 90.35294,-90.35294z"/>
  <path id="svg_2" p-id="2361" fill="#b2b2b2" d="m261.01961,261.01961m-60.2353,0a60.23529,60.23529 0 1 0 120.47059,0a60.23529,60.23529 0 1 0 -120.47059,0z"/>
  <path id="svg_3" p-id="2362" fill="#b2b2b2" d="m331.29412,839.47922a30.11765,30.11765 0 0 1 -60.2353,0a189.94196,189.94196 0 0 1 189.94196,-189.94197l186.58887,0a102.46023,102.46023 0 0 0 98.4847,-130.71058a162.69553,162.69553 0 0 1 156.37083,-207.61098l241.14196,0a30.11765,30.11765 0 0 1 0,60.23529l-241.14196,0a102.46023,102.46023 0 0 0 -98.46463,130.73067a162.69553,162.69553 0 0 1 -156.3909,207.61098l-186.58887,0a129.70667,129.70667 0 0 0 -129.70666,129.70666l0,-0.02007z"/>
 </g>
</svg>
