<?xml version="1.0" standalone="no"?><!DOCTYPE svg PUBLIC "-//W3C//DTD SVG 1.1//EN" "http://www.w3.org/Graphics/SVG/1.1/DTD/svg11.dtd"><svg t="1621433305409" class="icon" viewBox="0 0 1285 1024" version="1.1" xmlns="http://www.w3.org/2000/svg" p-id="2359" xmlns:xlink="http://www.w3.org/1999/xlink" width="250.9765625" height="200"><defs><style type="text/css"></style></defs><path d="M100.392157 70.27451A30.117647 30.117647 0 0 0 70.27451 100.392157v823.215686A30.117647 30.117647 0 0 0 100.392157 953.72549h1084.235294a30.117647 30.117647 0 0 0 30.117647-30.117647V100.392157A30.117647 30.117647 0 0 0 1184.627451 70.27451H100.392157z m0-60.235294h1084.235294A90.352941 90.352941 0 0 1 1274.980392 100.392157v823.215686a90.352941 90.352941 0 0 1-90.352941 90.352941H100.392157A90.352941 90.352941 0 0 1 10.039216 923.607843V100.392157A90.352941 90.352941 0 0 1 100.392157 10.039216z" fill="#0069F6" p-id="2360"></path><path d="M261.019608 261.019608m-60.235294 0a60.235294 60.235294 0 1 0 120.470588 0 60.235294 60.235294 0 1 0-120.470588 0Z" fill="#5ED7BC" p-id="2361"></path><path d="M331.294118 839.479216a30.117647 30.117647 0 0 1-60.235294 0 189.941961 189.941961 0 0 1 189.94196-189.941961h186.588863a102.460235 102.460235 0 0 0 98.484706-130.710588 162.695529 162.695529 0 0 1 156.370823-207.610981h241.141961a30.117647 30.117647 0 0 1 0 60.235294h-241.141961a102.460235 102.460235 0 0 0-98.464627 130.730667 162.695529 162.695529 0 0 1-156.390902 207.61098H461.000784a129.706667 129.706667 0 0 0-129.706666 129.706667z" fill="#5ED7BC" p-id="2362"></path></svg>