<svg width="20" height="20" viewBox="0 0 20 20" xmlns="http://www.w3.org/2000/svg">
<path fill-rule="evenodd" clip-rule="evenodd" d="M7.08341 4.16667C5.93341 4.16667 5.00008 5.09958 5.00008 6.25C5.00008 7.40042 5.93341 8.33333 7.08341 8.33333C8.23341 8.33333 9.16675 7.40042 9.16675 6.25C9.16675 5.09958 8.23341 4.16667 7.08341 4.16667ZM3.33341 6.25C3.33341 4.17875 5.01258 2.5 7.08341 2.5C9.15425 2.5 10.8334 4.17875 10.8334 6.25C10.8334 8.32125 9.15425 10 7.08341 10C5.01258 10 3.33341 8.32125 3.33341 6.25ZM4.86258 12.5C3.34591 12.5 2.08341 13.7488 2.08341 15.3333V16.6667H12.0834V15.3333C12.0834 13.7488 10.8209 12.5 9.30425 12.5H4.86258ZM0.416748 15.3333C0.416748 12.8479 2.40841 10.8333 4.86258 10.8333H9.30425C11.7584 10.8333 13.7501 12.8479 13.7501 15.3333V17.5833C13.7501 17.9975 13.4167 18.3333 13.0084 18.3333H1.15841C0.750081 18.3333 0.416748 17.9975 0.416748 17.5833V15.3333ZM19.0293 17.5H15.3043V17.1592V15.8333H17.9168V15.3333C17.9168 14.4983 17.2126 13.75 16.2501 13.75H15.1584C15.0001 13.1342 14.7168 12.5692 14.3376 12.0833H16.2501C18.0918 12.0833 19.5834 13.5383 19.5834 15.3333V16.9583C19.5834 17.2575 19.3334 17.5 19.0293 17.5ZM13.7501 8.33333C13.7501 7.87292 14.1251 7.5 14.5834 7.5C15.0417 7.5 15.4167 7.87292 15.4167 8.33333C15.4167 8.79375 15.0417 9.16667 14.5834 9.16667C14.1251 9.16667 13.7501 8.79375 13.7501 8.33333ZM14.5834 5.83333C13.2042 5.83333 12.0834 6.9525 12.0834 8.33333C12.0834 9.71417 13.2042 10.8333 14.5834 10.8333C15.9626 10.8333 17.0834 9.71417 17.0834 8.33333C17.0834 6.9525 15.9626 5.83333 14.5834 5.83333Z"/>
</svg>
