<svg width="128" height="128" xmlns="http://www.w3.org/2000/svg"><path d="M104.185 95.254c8.161 7.574 13.145 17.441 13.145 28.28 0 1.508-.098 2.998-.285 4.466h-10.784c.238-1.465.403-2.948.403-4.465 0-8.983-4.36-17.115-11.419-23.216C86 104.66 75.355 107.162 64 107.162c-11.344 0-21.98-2.495-31.22-6.83-7.064 6.099-11.444 14.218-11.444 23.203 0 1.517.165 3 .403 4.465H10.955a35.444 35.444 0 0 1-.285-4.465c0-10.838 4.974-20.713 13.127-28.291C9.294 85.42.003 70.417.003 53.58.003 23.99 28.656.001 64 .001s63.997 23.988 63.997 53.58c0 16.842-9.299 31.85-23.812 41.673zM64 36.867c-29.454 0-53.33-10.077-53.33 15.342 0 25.418 23.876 46.023 53.33 46.023 29.454 0 53.33-20.605 53.33-46.023 0-25.419-23.876-15.342-53.33-15.342zm24.888 25.644c-3.927 0-7.111-2.665-7.111-5.953 0-3.288 3.184-5.954 7.11-5.954 3.928 0 7.111 2.666 7.111 5.954s-3.183 5.953-7.11 5.953zm-3.556 16.372c0 4.11-9.55 7.442-21.332 7.442-11.781 0-21.332-3.332-21.332-7.442 0-1.06.656-2.064 1.8-2.976 3.295 2.626 10.79 4.465 19.532 4.465 8.743 0 16.237-1.84 19.531-4.465 1.145.912 1.801 1.916 1.801 2.976zm-46.22-16.372c-3.927 0-7.11-2.665-7.11-5.953 0-3.288 3.183-5.954 7.11-5.954 3.927 0 7.111 2.666 7.111 5.954s-3.184 5.953-7.11 5.953z"/></svg><svg width="12" height="12" viewBox="0 0 12 12" fill="none" xmlns="http://www.w3.org/2000/svg">
<path d="M4.25 6.58317H7.75C9.36083 6.58317 11.25 7.70816 11.25 9.73317V11.3082C11.25 11.5981 10.9888 11.8332 10.6667 11.8332H1.33333C1.01117 11.8332 0.75 11.5981 0.75 11.3082V9.73317C0.75 7.70986 2.63917 6.58317 4.25 6.58317ZM10.0833 10.6665V9.69428C10.0833 8.46841 8.84142 7.74984 7.75 7.74984H4.25C3.18248 7.74984 1.91667 8.43333 1.91667 9.69428V10.6665H10.0833ZM6 5.99984C4.38917 5.99984 3.08333 4.694 3.08333 3.08317C3.08333 1.47234 4.38917 0.166504 6 0.166504C7.61083 0.166504 8.91667 1.47234 8.91667 3.08317C8.91667 4.694 7.61083 5.99984 6 5.99984ZM6 4.83317C6.9665 4.83317 7.75 4.04967 7.75 3.08317C7.75 2.11667 6.9665 1.33317 6 1.33317C5.0335 1.33317 4.25 2.11667 4.25 3.08317C4.25 4.04967 5.0335 4.83317 6 4.83317Z" fill="white"/>
</svg>
