<?xml version="1.0" standalone="no"?><!DOCTYPE svg PUBLIC "-//W3C//DTD SVG 1.1//EN" "http://www.w3.org/Graphics/SVG/1.1/DTD/svg11.dtd"><svg t="1663834987781" class="icon" viewBox="0 0 1024 1024" version="1.1" xmlns="http://www.w3.org/2000/svg" p-id="1963" width="200" height="200"><path transform="rotate(90 319.99999999999994,513.6666870117189) " id="svg_1" d="m-64,641.66667l768,0l0,85.33333l-768,0l0,-85.33333zm21.33333,-341.33334l85.33334,0l0,298.66667l-85.33334,0l0,-298.66667zm640,256l85.33334,0l0,42.66667l-85.33334,0l0,-42.66667zm-533.33333,-213.33333l85.33333,0l0,256l-85.33333,0l0,-256zm106.66667,42.66667l85.33333,0l0,213.33333l-85.33333,0l0,-213.33333zm106.66666,42.66666l85.33334,0l0,170.66667l-85.33334,0l0,-170.66667zm106.66667,42.66667l85.33333,0l0,128l-85.33333,0l0,-128zm106.66667,42.66667l85.33333,0l0,85.33333l-85.33333,0l0,-85.33333z"/><path transform="rotate(90 551,513.3333129882814) " id="svg_2" opacity="0.6" d="m188.33333,278.66667l85.33334,0l0,213.33333l-85.33334,0l0,-213.33333zm640,256l85.33334,0l0,213.33333l-85.33334,0l0,-213.33333zm-533.33333,-213.33334l85.33333,0l0,213.33334l-85.33333,0l0,-213.33334zm106.66667,42.66667l85.33333,0l0,213.33333l-85.33333,0l0,-213.33333zm106.66666,42.66667l85.33334,0l0,213.33333l-85.33334,0l0,-213.33333zm106.66667,42.66666l85.33333,0l0,213.33334l-85.33333,0l0,-213.33334zm106.66667,42.66667l85.33333,0l0,213.33333l-85.33333,0l0,-213.33333z"/><path transform="rotate(90 739,513.6666870117189) " stroke="null" id="svg_3" d="m1016.33333,343l85.33334,0l0,341.33333l-85.33334,0l0,-341.33333zm-640,0l85.33334,0l0,85.33333l-85.33334,0l0,-85.33333zm533.33334,0l85.33333,0l0,298.66667l-85.33333,0l0,-298.66667zm-106.66667,0l85.33333,0l0,256l-85.33333,0l0,-256zm-106.66667,0l85.33334,0l0,213.33333l-85.33334,0l0,-213.33333zm-106.66666,0l85.33333,0l0,170.66667l-85.33333,0l0,-170.66667zm-106.66667,0l85.33333,0l0,128l-85.33333,0l0,-128z"/></svg>
