<svg width="80" height="56" viewBox="0 0 80 56" fill="none" xmlns="http://www.w3.org/2000/svg">
<path d="M44 6V14H71.5C71.7761 14 72 13.7761 72 13.5V6.5C72 6.22386 71.7761 6 71.5 6L44 6Z" fill="#00D6B9"/>
<path d="M43 6V14L9.5 14C9.22386 14 9 13.7761 9 13.5V6.5C9 6.22386 9.22386 6 9.5 6L43 6Z" fill="#3370FF"/>
<path d="M50 18V26H9.5C9.22385 26 9 25.7761 9 25.5V18.5C9 18.2239 9.22385 18 9.5 18H50Z" fill="#3370FF"/>
<path d="M51 18V26H71.5C71.7761 26 72 25.7761 72 25.5V18.5C72 18.2239 71.7761 18 71.5 18H51Z" fill="#00D6B9"/>
<path d="M37 30V38H9.5C9.22386 38 9 37.7761 9 37.5V30.5C9 30.2239 9.22386 30 9.5 30H37Z" fill="#3370FF"/>
<path d="M38 30V38H71.5C71.7761 38 72 37.7761 72 37.5V30.5C72 30.2239 71.7761 30 71.5 30H38Z" fill="#00D6B9"/>
<path d="M28 42V50H9.5C9.22386 50 9 49.7761 9 49.5V42.5C9 42.2239 9.22386 42 9.5 42H28Z" fill="#3370FF"/>
<path d="M29 42V50H71.5C71.7761 50 72 49.7761 72 49.5V42.5C72 42.2239 71.7761 42 71.5 42H29Z" fill="#00D6B9"/>
<path fill-rule="evenodd" clip-rule="evenodd" d="M7 2.00391V53.0016V54.0016H4V2.00391H7Z" fill="#DEE0E3"/>
</svg>
