<?xml version="1.0" standalone="no"?><!DOCTYPE svg PUBLIC "-//W3C//DTD SVG 1.1//EN" "http://www.w3.org/Graphics/SVG/1.1/DTD/svg11.dtd"><svg t="1663834987781" class="icon" viewBox="0 0 1024 1024" version="1.1" xmlns="http://www.w3.org/2000/svg" p-id="1963" xmlns:xlink="http://www.w3.org/1999/xlink" width="200" height="200"><path d="M128 810.666667h768v85.333333H128zM149.333333 469.333333h85.333334v298.666667H149.333333zM789.333333 725.333333h85.333334v42.666667h-85.333334zM256 512h85.333333v256h-85.333333zM362.666667 554.666667h85.333333v213.333333h-85.333333zM469.333333 597.333333h85.333334v170.666667h-85.333334zM576 640h85.333333v128h-85.333333zM682.666667 682.666667h85.333333v85.333333h-85.333333z" p-id="1964"></path><path d="M149.333333 234.666667h85.333334v213.333333H149.333333zM789.333333 490.666667h85.333334v213.333333h-85.333334zM256 277.333333h85.333333v213.333334h-85.333333zM362.666667 320h85.333333v213.333333h-85.333333zM469.333333 362.666667h85.333334v213.333333h-85.333334zM576 405.333333h85.333333v213.333334h-85.333333zM682.666667 448h85.333333v213.333333h-85.333333z" opacity=".6" p-id="1965"></path><path d="M789.333333 128h85.333334v341.333333h-85.333334zM149.333333 128h85.333334v85.333333H149.333333zM682.666667 128h85.333333v298.666667h-85.333333zM576 128h85.333333v256h-85.333333zM469.333333 128h85.333334v213.333333h-85.333334zM362.666667 128h85.333333v170.666667h-85.333333zM256 128h85.333333v128h-85.333333z" p-id="1966"></path></svg>
