<svg width="80" height="56" viewBox="0 0 80 56" fill="none" xmlns="http://www.w3.org/2000/svg">
<path d="M11 4.5C11 4.22386 11.2239 4 11.5 4H20.5C20.7761 4 21 4.22386 21 4.5V25H11V4.5Z" fill="#00D6B9"/>
<path d="M11 26H21V48.5C21 48.7761 20.7761 49 20.5 49H11.5C11.2239 49 11 48.7761 11 48.5V26Z" fill="#3370FF"/>
<path d="M27 4.5C27 4.22386 27.2239 4 27.5 4H36.5C36.7761 4 37 4.22386 37 4.5V17H27V4.5Z" fill="#00D6B9"/>
<path d="M27 18H37V48.5C37 48.7761 36.7761 49 36.5 49H27.5C27.2239 49 27 48.7761 27 48.5V18Z" fill="#3370FF"/>
<path d="M43 4.5C43 4.22386 43.2239 4 43.5 4H52.5C52.7761 4 53 4.22386 53 4.5V28H43V4.5Z" fill="#00D6B9"/>
<path d="M43 29H53V48.5C53 48.7761 52.7761 49 52.5 49H43.5C43.2239 49 43 48.7761 43 48.5V29Z" fill="#3370FF"/>
<path d="M59 4.5C59 4.22386 59.2239 4 59.5 4H68.5C68.7761 4 69 4.22386 69 4.5V24H59V4.5Z" fill="#00D6B9"/>
<path d="M59 25H69V48.5C69 48.7761 68.7761 49 68.5 49H59.5C59.2239 49 59 48.7761 59 48.5V25Z" fill="#3370FF"/>
<path fill-rule="evenodd" clip-rule="evenodd" d="M5 51H76L76 54H4V51H5Z" fill="#434343"/>
</svg>
