<svg width="24" height="24" viewBox="0 0 24 24" fill="none" xmlns="http://www.w3.org/2000/svg">
<path d="M7.06129 17.094C6.81561 17.3719 6.49128 17.5686 6.13129 17.658C5.84419 17.7026 5.55041 17.6706 5.27964 17.5653C5.00888 17.4599 4.77073 17.2849 4.58929 17.058C4.08626 16.5176 3.6803 15.8945 3.38929 15.216C2.64323 13.5728 2.06626 11.858 1.66729 10.098C1.39223 9.11606 1.20153 8.11242 1.09729 7.09801C0.933497 5.83388 1.14201 4.54942 1.69729 3.40201C1.96267 2.90127 2.33433 2.46459 2.78621 2.12257C3.23809 1.78054 3.75929 1.54144 4.31329 1.42201C5.43863 1.18201 6.60194 1.18201 7.72729 1.42201C8.28458 1.51374 8.83564 1.63998 9.37729 1.80001C9.42584 1.82385 9.4792 1.83624 9.53329 1.83624C9.58737 1.83624 9.64074 1.82385 9.68929 1.80001C10.6709 1.27734 11.7891 1.06794 12.8933 1.20001C13.2251 1.22716 13.5542 1.28134 13.8773 1.36201C13.9576 1.38585 14.043 1.38585 14.1233 1.36201C15.7391 0.817104 17.4796 0.760754 19.1273 1.20001C20.3845 1.55767 21.4906 2.31611 22.2773 3.36001C22.5673 3.78352 22.7183 4.2868 22.7093 4.80001C22.7351 6.0197 22.5628 7.23549 22.1993 8.40001C21.6777 10.2926 20.9091 12.1082 19.9133 13.8C19.7933 14.01 19.7933 14.01 20.0393 14.028C20.5849 14.0512 21.1313 14.0049 21.6653 13.89C21.7744 13.8682 21.8845 13.8521 21.9953 13.842C22.111 13.821 22.2302 13.8287 22.3423 13.8644C22.4543 13.9001 22.556 13.9627 22.6383 14.0468C22.7206 14.1309 22.781 14.2338 22.8143 14.3466C22.8476 14.4595 22.8527 14.5787 22.8293 14.694C22.7206 15.2838 22.4085 15.8167 21.9473 16.2C21.4091 16.6473 20.7481 16.9213 20.0513 16.986C19.5083 17.0829 18.9534 17.093 18.4073 17.016C18.2513 16.986 18.2813 17.082 18.2753 17.16C18.1553 18.282 18.0293 19.404 17.8373 20.514C17.8059 20.9436 17.6785 21.3606 17.4646 21.7344C17.2507 22.1082 16.9557 22.4293 16.6013 22.674C16.0625 23.0443 15.4466 23.2875 14.8001 23.3851C14.1537 23.4828 13.4935 23.4325 12.8693 23.238C12.4732 23.1081 12.1206 22.8713 11.8506 22.5536C11.5806 22.236 11.4037 21.8499 11.3393 21.438C11.1289 20.2498 11.0285 19.0447 11.0393 17.838V17.658C11.0393 17.586 11.0393 17.538 10.9373 17.592C10.2315 17.9359 9.42285 18.0043 8.66929 17.784C8.35052 17.7293 8.03581 17.6531 7.72729 17.556C7.45842 17.4839 7.22298 17.3206 7.06129 17.094ZM11.6153 16.656V16.8C11.6153 17.67 11.6153 18.54 11.6753 19.41C11.6848 20.1069 11.8063 20.7977 12.0353 21.456C12.1547 21.7661 12.3458 22.0436 12.5929 22.2657C12.84 22.4878 13.1362 22.6483 13.4573 22.734C14.0895 22.8848 14.7525 22.8409 15.3593 22.608C15.8494 22.4874 16.2934 22.226 16.6367 21.856C16.98 21.486 17.2076 21.0237 17.2913 20.526C17.3873 20.082 17.4533 19.626 17.5133 19.176C17.6273 18.318 17.7293 17.466 17.8373 16.608C17.8373 16.458 17.9153 16.38 18.0773 16.41C18.7348 16.5093 19.4055 16.4787 20.0513 16.32C20.8248 16.1671 21.5268 15.7645 22.0493 15.174C22.127 15.0954 22.1782 14.9944 22.1954 14.8852C22.2127 14.776 22.1952 14.6641 22.1455 14.5653C22.0958 14.4666 22.0163 14.3859 21.9183 14.3347C21.8203 14.2835 21.7087 14.2644 21.5993 14.28C21.3753 14.2993 21.1528 14.3334 20.9333 14.382C20.4065 14.496 19.8627 14.5082 19.3313 14.418C19.0133 14.346 19.0133 14.328 19.1813 14.058C20.3848 12.1698 21.2687 10.0959 21.7973 7.92001C22.0857 6.90674 22.1733 5.84689 22.0553 4.80001C22.0244 4.36391 21.8658 3.94655 21.5993 3.60001C21.0565 2.96979 20.3856 2.46244 19.6314 2.11172C18.8773 1.761 18.057 1.57497 17.2253 1.56601C16.201 1.51415 15.1755 1.64209 14.1953 1.94401C14.1065 1.96453 14.0141 1.96453 13.9253 1.94401C13.6493 1.90201 13.3733 1.84801 13.0973 1.82401C11.9751 1.63487 10.8225 1.86325 9.85729 2.46601C9.82124 2.48833 9.77968 2.50015 9.73729 2.50015C9.69489 2.50015 9.65334 2.48833 9.61729 2.46601C9.20329 2.32201 8.78329 2.20201 8.35729 2.10001C7.10842 1.76756 5.79842 1.73671 4.53529 2.01001C3.96301 2.1327 3.43385 2.40591 3.00245 2.80145C2.57105 3.19699 2.25305 3.70051 2.08129 4.26001C1.71018 5.36004 1.61338 6.53406 1.79929 7.68001C2.12638 9.9688 2.73082 12.2093 3.59929 14.352C3.88367 15.134 4.31093 15.8562 4.85929 16.482C5.10461 16.7879 5.4479 16.9998 5.83129 17.082C6.0665 17.1162 6.30656 17.0882 6.5276 17.0008C6.74864 16.9134 6.94298 16.7697 7.09129 16.584C7.65529 15.984 8.20129 15.336 8.75329 14.712C8.98729 14.454 8.99329 14.448 9.31129 14.574C9.60335 14.6863 9.91094 14.7531 10.2233 14.772C10.113 14.9956 9.94886 15.1883 9.7457 15.3328C9.54254 15.4773 9.30668 15.5691 9.05929 15.6L8.68729 15.69C8.41233 15.7359 8.14803 15.8315 7.90729 15.972C7.83862 16.0135 7.78018 16.0699 7.73632 16.1371C7.69245 16.2043 7.66428 16.2805 7.65391 16.36C7.64353 16.4396 7.65121 16.5204 7.67638 16.5966C7.70155 16.6728 7.74356 16.7423 7.79929 16.8C7.90923 16.9328 8.04904 17.0376 8.20729 17.106C8.9188 17.4141 9.71294 17.4754 10.4633 17.28C10.891 17.1655 11.2857 16.9518 11.6153 16.656Z" fill="#070707"/>
<path d="M11.6152 16.656C11.2833 16.9431 10.8888 17.1486 10.4632 17.256C9.71287 17.4514 8.91873 17.3902 8.20722 17.082C8.05139 17.0206 7.91179 16.9241 7.79922 16.8C7.74349 16.7423 7.70148 16.6728 7.67631 16.5966C7.65114 16.5204 7.64346 16.4396 7.65384 16.36C7.66421 16.2805 7.69238 16.2043 7.73625 16.1371C7.78011 16.0699 7.83855 16.0135 7.90722 15.972C8.14796 15.8315 8.41226 15.7359 8.68722 15.69L9.05922 15.6C9.30414 15.5636 9.53631 15.4673 9.73515 15.3198C9.934 15.1722 10.0934 14.9779 10.1992 14.754C9.88687 14.7351 9.57928 14.6684 9.28722 14.556C8.96922 14.43 8.96322 14.436 8.72922 14.694C8.17722 15.294 7.63122 15.954 7.06722 16.566C6.91891 16.7518 6.72457 16.8954 6.50353 16.9828C6.28249 17.0702 6.04243 17.0982 5.80722 17.064C5.42384 16.9818 5.08054 16.7699 4.83522 16.464C4.29732 15.8417 3.87836 15.1258 3.59922 14.352C2.73075 12.2093 2.12631 9.96881 1.79922 7.68002C1.62101 6.53212 1.72606 5.35805 2.10522 4.26002C2.28316 3.71093 2.60252 3.21837 3.03118 2.83183C3.45985 2.4453 3.98271 2.17842 4.54722 2.05802C5.81997 1.77987 7.14084 1.81073 8.39922 2.14802C8.82522 2.25002 9.24522 2.37002 9.65922 2.51402C9.69526 2.53633 9.73682 2.54815 9.77922 2.54815C9.82161 2.54815 9.86317 2.53633 9.89922 2.51402C10.8645 1.91126 12.0171 1.68288 13.1392 1.87202C13.4152 1.87202 13.6912 1.95002 13.9672 1.99202C14.056 2.01253 14.1484 2.01253 14.2372 1.99202C15.2174 1.69009 16.2429 1.56216 17.2672 1.61402C18.0882 1.62289 18.8981 1.80428 19.6444 2.14643C20.3907 2.48857 21.0567 2.98381 21.5992 3.60002C21.8658 3.94656 22.0244 4.36392 22.0552 4.80002C22.1772 5.85677 22.0895 6.9272 21.7972 7.95002C21.2711 10.1144 20.3934 12.1778 19.1992 14.058C19.0312 14.328 19.0312 14.346 19.3492 14.418C19.8717 14.5111 20.407 14.505 20.9272 14.4C21.1483 14.3451 21.3728 14.305 21.5992 14.28C21.7144 14.2545 21.8347 14.2682 21.9412 14.3191C22.0476 14.37 22.1339 14.455 22.1864 14.5606C22.2389 14.6662 22.2544 14.7864 22.2307 14.9019C22.2069 15.0175 22.1451 15.1217 22.0552 15.198C21.5327 15.7885 20.8307 16.1911 20.0572 16.344C19.4114 16.5027 18.7408 16.5333 18.0832 16.434C17.9212 16.404 17.8612 16.482 17.8432 16.632C17.7352 17.49 17.6332 18.342 17.5192 19.2C17.4592 19.65 17.3932 20.106 17.2972 20.55C17.2135 21.0477 16.9859 21.5101 16.6426 21.88C16.2993 22.25 15.8553 22.5114 15.3652 22.632C14.7584 22.8649 14.0954 22.9088 13.4632 22.758C13.1422 22.6723 12.846 22.5118 12.5988 22.2897C12.3517 22.0676 12.1606 21.7901 12.0412 21.48C11.8123 20.8217 11.6907 20.1309 11.6812 19.434C11.6272 18.564 11.6212 17.694 11.6212 16.824L11.6152 16.656ZM8.06922 7.47602L8.27922 7.38002C8.79767 7.10785 9.36856 6.95029 9.95322 6.91802C10.3581 6.86899 10.7663 6.9774 11.0935 7.22084C11.4207 7.46428 11.6418 7.82414 11.7112 8.22602C11.7472 8.36402 11.7712 8.50802 11.8012 8.65202C12.1494 10.0906 11.9926 11.6052 11.3572 12.942C11.1852 13.3081 11.0428 13.6873 10.9312 14.076C10.8832 14.208 10.9312 14.238 11.0452 14.226C11.1594 14.215 11.2746 14.2315 11.3812 14.274C11.6434 14.3637 11.8699 14.535 12.0276 14.7629C12.1852 14.9907 12.2657 15.2631 12.2572 15.54C12.2572 16.998 12.2152 18.462 12.3412 19.914C12.3507 20.428 12.4779 20.933 12.7132 21.39C12.8566 21.6637 13.0795 21.8876 13.3526 22.0322C13.6257 22.1768 13.9362 22.2353 14.2432 22.2C14.5605 22.1688 14.874 22.1065 15.1792 22.014C15.5697 21.9201 15.9228 21.7108 16.1925 21.4132C16.4622 21.1157 16.636 20.7438 16.6912 20.346C16.7932 19.812 16.8712 19.272 16.9372 18.738C17.0812 17.646 17.2372 16.554 17.2972 15.45C17.2798 15.1949 17.3443 14.9409 17.4814 14.725C17.6185 14.5092 17.8209 14.3428 18.0592 14.25C18.2272 14.19 18.1972 14.136 18.1132 14.022C17.8815 13.7618 17.6802 13.4759 17.5132 13.17C17.2672 12.654 16.9792 12.162 16.7212 11.658C16.2511 10.8386 15.9149 9.94944 15.7252 9.02402C15.6439 8.62338 15.675 8.20804 15.8152 7.82402C15.9428 7.53727 16.1481 7.29198 16.4079 7.11594C16.6677 6.93991 16.9716 6.84016 17.2852 6.82802C17.6283 6.79202 17.9742 6.79202 18.3172 6.82802C18.3193 6.75623 18.3005 6.68538 18.2632 6.62402C18.0271 6.02628 17.7079 5.46477 17.3152 4.95602C16.7664 4.19189 16.0466 3.56663 15.2132 3.13014C14.3798 2.69364 13.4559 2.458 12.5152 2.44202C11.9431 2.39945 11.3688 2.48935 10.8371 2.70476C10.3053 2.92016 9.83042 3.25526 9.44922 3.68402C8.92506 4.30664 8.5514 5.04165 8.35722 5.83202C8.20354 6.36834 8.107 6.9194 8.06922 7.47602ZM2.33922 6.74402C2.33296 7.02727 2.35305 7.31049 2.39922 7.59002C2.63161 9.08127 2.9664 10.5548 3.40122 12C3.71745 13.1322 4.16024 14.225 4.72122 15.258C4.88175 15.5515 5.08384 15.8203 5.32122 16.056C5.39267 16.1688 5.49147 16.2617 5.60843 16.326C5.72539 16.3904 5.85672 16.4241 5.99022 16.4241C6.12371 16.4241 6.25504 16.3904 6.372 16.326C6.48897 16.2617 6.58776 16.1688 6.65922 16.056C7.25922 15.456 7.77522 14.754 8.36322 14.136C8.44122 14.052 8.41122 14.01 8.36322 13.944C7.97823 13.5797 7.68794 13.127 7.51751 12.6252C7.34709 12.1233 7.30168 11.5874 7.38522 11.064C7.46913 10.287 7.4932 9.50471 7.45722 8.72402C7.38522 6.67202 7.72122 4.74002 9.13722 3.13802C9.22122 3.04202 9.16722 3.01802 9.08322 3.00002C8.99922 2.98202 8.72922 2.89202 8.54922 2.85002C7.4783 2.52915 6.35148 2.43917 5.24322 2.58602C4.69445 2.63721 4.16997 2.83681 3.72602 3.16343C3.28207 3.49005 2.93541 3.93136 2.72322 4.44002C2.43533 5.17267 2.3045 5.95761 2.33922 6.74402ZM15.1552 2.40002L15.2392 2.46002C16.8333 3.25406 18.0926 4.58986 18.7912 6.22802C19.0394 6.74656 19.1231 7.32855 19.0312 7.89602C18.8523 8.90267 18.8321 9.93111 18.9712 10.944C19.0803 11.5533 19.0475 12.1795 18.8752 12.774C18.8028 13.0227 18.7021 13.2622 18.5752 13.488C18.5452 13.548 18.5272 13.602 18.5752 13.644C18.6232 13.686 18.6652 13.608 18.7012 13.572C18.7186 13.5524 18.7328 13.5301 18.7432 13.506C19.7399 11.8907 20.5054 10.1438 21.0172 8.31602C21.3192 7.32462 21.4649 6.29226 21.4492 5.25602C21.479 4.88462 21.3863 4.51369 21.1852 4.20002C20.8018 3.7174 20.3317 3.31046 19.7992 3.00002C18.7212 2.39421 17.4845 2.13055 16.2532 2.24402C15.8832 2.26201 15.5156 2.31423 15.1552 2.40002ZM11.3512 10.53C11.3438 9.82989 11.2654 9.13232 11.1172 8.44802C11.1075 8.31054 11.0691 8.17663 11.0043 8.05496C10.9396 7.93329 10.85 7.82658 10.7414 7.74173C10.6328 7.65689 10.5076 7.5958 10.3739 7.56243C10.2402 7.52906 10.101 7.52415 9.96522 7.54802C9.36817 7.59088 8.79006 7.77604 8.27922 8.08802C8.19452 8.12349 8.12452 8.18688 8.08085 8.26766C8.03719 8.34844 8.0225 8.44173 8.03922 8.53202C8.10829 9.4301 8.08417 10.3329 7.96722 11.226C7.90601 11.6821 7.96817 12.1462 8.14722 12.57C8.29819 12.9815 8.56256 13.3419 8.90976 13.6095C9.25697 13.8771 9.67281 14.0409 10.1092 14.082C10.2292 14.082 10.2832 14.082 10.3192 13.944C10.486 13.4235 10.6864 12.9145 10.9192 12.42C11.1941 11.8273 11.3413 11.1833 11.3512 10.53ZM18.1252 12.972C18.1672 12.876 18.1852 12.828 18.2092 12.78C18.4124 12.1526 18.4557 11.4844 18.3352 10.836C18.2182 10.0685 18.2182 9.28759 18.3352 8.52002C18.3892 8.22602 18.4132 7.92002 18.4492 7.63202C18.4492 7.55402 18.4492 7.47602 18.3472 7.46402C17.9719 7.41688 17.5915 7.427 17.2192 7.49402C17.0887 7.50574 16.9619 7.5439 16.8466 7.60617C16.7313 7.66844 16.6299 7.75352 16.5485 7.85623C16.4671 7.95895 16.4075 8.07715 16.3732 8.20364C16.3389 8.33013 16.3308 8.46227 16.3492 8.59202C16.3727 9.04282 16.47 9.48671 16.6372 9.90602C17.0025 10.8025 17.4295 11.6726 17.9152 12.51C17.9632 12.648 18.0292 12.792 18.1252 12.972ZM8.35122 16.434C8.60808 16.5875 8.89845 16.676 9.19722 16.692C9.62352 16.7747 10.0645 16.7358 10.4697 16.5798C10.875 16.4239 11.2283 16.1571 11.4892 15.81C11.546 15.7366 11.5849 15.6509 11.603 15.5599C11.6211 15.4688 11.6177 15.3748 11.5933 15.2853C11.5689 15.1957 11.524 15.113 11.4622 15.0438C11.4004 14.9745 11.3234 14.9205 11.2372 14.886C11.182 14.8554 11.1178 14.8446 11.0556 14.8555C10.9934 14.8664 10.9367 14.8984 10.8952 14.946C10.7676 15.0713 10.6493 15.2056 10.5412 15.348C10.3762 15.5863 10.1636 15.7877 9.91676 15.9395C9.66992 16.0913 9.39426 16.1902 9.10722 16.23C8.84989 16.2765 8.59698 16.3447 8.35122 16.434ZM21.3232 15C20.9752 15.048 20.6392 15.102 20.2912 15.126C19.7848 15.206 19.266 15.1307 18.8032 14.91C18.7144 14.8507 18.61 14.819 18.5032 14.819C18.3964 14.819 18.292 14.8507 18.2032 14.91C18.0948 14.9937 18.0121 15.106 17.9643 15.2344C17.9166 15.3627 17.9058 15.5019 17.9332 15.636C17.9932 15.828 18.1912 15.792 18.3412 15.81C18.9611 15.8766 19.588 15.8153 20.1832 15.63C20.6082 15.5144 20.9992 15.2983 21.3232 15Z" fill="#FDFDFD"/>
<path d="M8.07031 7.47597C8.10656 6.92159 8.20108 6.37256 8.35231 5.83797C8.54649 5.0476 8.92016 4.31259 9.44431 3.68997C9.82552 3.26121 10.3004 2.92611 10.8322 2.71071C11.3639 2.49531 11.9382 2.4054 12.5103 2.44797C13.451 2.46396 14.3749 2.6996 15.2083 3.13609C16.0417 3.57259 16.7615 4.19785 17.3103 4.96197C17.703 5.47072 18.0222 6.03223 18.2583 6.62997C18.2956 6.69134 18.3144 6.76219 18.3123 6.83397C17.9693 6.79797 17.6234 6.79797 17.2803 6.83397C16.9667 6.84612 16.6628 6.94586 16.403 7.1219C16.1432 7.29793 15.9379 7.54322 15.8103 7.82997C15.6701 8.21399 15.6389 8.62933 15.7203 9.02997C15.91 9.95539 16.2462 10.8446 16.7163 11.664C16.9743 12.168 17.2623 12.66 17.5083 13.176C17.6753 13.4819 17.8766 13.7677 18.1083 14.028C18.1923 14.142 18.2223 14.196 18.0543 14.256C17.816 14.3487 17.6136 14.5151 17.4765 14.731C17.3394 14.9469 17.2749 15.2009 17.2923 15.456C17.2323 16.56 17.0763 17.652 16.9323 18.744C16.8663 19.278 16.7883 19.818 16.6863 20.352C16.6311 20.7498 16.4573 21.1217 16.1876 21.4192C15.9179 21.7167 15.5648 21.9261 15.1743 22.02C14.8691 22.1124 14.5556 22.1747 14.2383 22.206C13.9294 22.2397 13.6175 22.1785 13.3442 22.0306C13.0709 21.8827 12.8491 21.655 12.7083 21.378C12.473 20.9209 12.3458 20.416 12.3363 19.902C12.2103 18.45 12.2403 16.986 12.2523 15.528C12.2599 15.256 12.1817 14.9885 12.0288 14.7634C11.8759 14.5383 11.656 14.3671 11.4003 14.274C11.2937 14.2314 11.1785 14.215 11.0643 14.226C10.9323 14.226 10.9023 14.226 10.9503 14.076C11.0618 13.6872 11.2043 13.308 11.3763 12.942C12.0117 11.6052 12.1685 10.0906 11.8203 8.65197C11.7903 8.50797 11.7663 8.36397 11.7303 8.22597C11.6609 7.82409 11.4398 7.46423 11.1126 7.22079C10.7854 6.97735 10.3772 6.86894 9.97231 6.91797C9.38766 6.95025 8.81676 7.1078 8.29831 7.37997L8.07031 7.47597Z" fill="#316192"/>
<path d="M2.33945 6.74403C2.30474 5.95761 2.43556 5.17267 2.72345 4.44003C2.93154 3.93329 3.27286 3.49229 3.71122 3.16378C4.14959 2.83527 4.66867 2.63148 5.21345 2.57403C6.32172 2.42717 7.44854 2.51715 8.51945 2.83803C8.69945 2.88003 8.87945 2.93403 9.05345 2.98803C9.22745 3.04203 9.19145 3.03003 9.10745 3.12603C7.69145 4.72803 7.35545 6.66003 7.42745 8.71203C7.46344 9.49272 7.43937 10.275 7.35545 11.052C7.27191 11.5754 7.31733 12.1113 7.48775 12.6132C7.65818 13.115 7.94847 13.5677 8.33345 13.932C8.39945 13.998 8.42945 14.04 8.33345 14.124C7.73345 14.724 7.21145 15.414 6.62945 16.044C6.558 16.1568 6.4592 16.2497 6.34224 16.314C6.22528 16.3784 6.09395 16.4121 5.96045 16.4121C5.82696 16.4121 5.69563 16.3784 5.57867 16.314C5.4617 16.2497 5.36291 16.1568 5.29145 16.044C5.05407 15.8083 4.85199 15.5395 4.69145 15.246C4.14166 14.2156 3.70897 13.1268 3.40145 12C2.96664 10.5548 2.63184 9.08128 2.39945 7.59003C2.35328 7.31049 2.3332 7.02728 2.33945 6.74403Z" fill="#316192"/>
<path d="M15.1562 2.39999C15.5166 2.3142 15.8842 2.26198 16.2542 2.24399C17.4856 2.13051 18.7223 2.39418 19.8002 2.99999C20.3328 3.31043 20.8028 3.71737 21.1863 4.19999C21.384 4.50215 21.4807 4.85933 21.4622 5.21999C21.4779 6.25623 21.3322 7.28859 21.0302 8.27999C20.5184 10.1077 19.753 11.8547 18.7562 13.47C18.7459 13.4941 18.7317 13.5164 18.7143 13.536C18.6783 13.572 18.6722 13.674 18.5882 13.608C18.5042 13.542 18.5462 13.512 18.5882 13.452C18.7151 13.2262 18.8158 12.9866 18.8882 12.738C19.0605 12.1435 19.0933 11.5173 18.9842 10.908C18.8451 9.89508 18.8653 8.86663 19.0442 7.85999C19.1361 7.29252 19.0524 6.71053 18.8042 6.19199C18.0991 4.55855 16.8357 3.22929 15.2402 2.44199L15.1562 2.39999Z" fill="#316192"/>
<path d="M11.3522 10.53C11.3347 11.185 11.1793 11.829 10.8962 12.42C10.6633 12.9144 10.4629 13.4235 10.2962 13.944C10.2602 14.064 10.2062 14.1 10.0862 14.082C9.65746 14.0391 9.24913 13.8777 8.90687 13.616C8.5646 13.3543 8.30191 13.0025 8.14819 12.6C7.96914 12.1761 7.90698 11.712 7.96819 11.256C8.08514 10.3629 8.10927 9.46006 8.04019 8.56198C8.02347 8.47169 8.03816 8.3784 8.08182 8.29762C8.12549 8.21685 8.19549 8.15345 8.28019 8.11798C8.79103 7.806 9.36914 7.62084 9.96619 7.57798C10.1019 7.55411 10.2412 7.55902 10.3749 7.59239C10.5086 7.62576 10.6338 7.68685 10.7424 7.77169C10.851 7.85654 10.9406 7.96326 11.0053 8.08492C11.0701 8.20659 11.1085 8.3405 11.1182 8.47798C11.2644 9.15247 11.3428 9.83989 11.3522 10.53ZM10.0742 7.89598C9.98392 7.89486 9.89428 7.91116 9.81019 7.94398C9.78132 7.95225 9.75463 7.96678 9.73203 7.98655C9.70943 8.00631 9.69147 8.03083 9.67943 8.05834C9.66739 8.08585 9.66158 8.11568 9.6624 8.14569C9.66322 8.17571 9.67066 8.20517 9.68419 8.23198C9.72612 8.33364 9.79236 8.42345 9.87709 8.49354C9.96183 8.56363 10.0625 8.61185 10.1702 8.63398C10.2748 8.65356 10.3826 8.64499 10.4828 8.60914C10.583 8.5733 10.6718 8.51146 10.7402 8.42998C10.771 8.40378 10.7945 8.37005 10.8083 8.33207C10.8222 8.29409 10.826 8.25317 10.8194 8.21328C10.8127 8.1734 10.7959 8.13592 10.7704 8.1045C10.745 8.07307 10.7118 8.04878 10.6742 8.03398C10.4912 7.93233 10.2832 7.88449 10.0742 7.89598Z" fill="#316192"/>
<path d="M18.126 12.972C18.03 12.792 17.964 12.648 17.892 12.51C17.4063 11.6726 16.9793 10.8025 16.614 9.90601C16.4468 9.4867 16.3495 9.04281 16.326 8.59201C16.3076 8.46226 16.3157 8.33012 16.35 8.20363C16.3842 8.07713 16.4439 7.95893 16.5253 7.85622C16.6067 7.7535 16.7081 7.66842 16.8234 7.60615C16.9387 7.54388 17.0655 7.50573 17.196 7.49401C17.5683 7.42698 17.9487 7.41687 18.324 7.46401C18.444 7.46401 18.438 7.55401 18.426 7.63201C18.39 7.92601 18.366 8.23201 18.312 8.52001C18.195 9.28757 18.195 10.0684 18.312 10.836C18.4325 11.4844 18.3892 12.1526 18.186 12.78C18.186 12.828 18.168 12.876 18.126 12.972ZM17.46 7.74001C17.2948 7.73548 17.1307 7.76829 16.98 7.83601C16.752 7.94401 16.734 8.09401 16.938 8.25601C17.0316 8.33627 17.1507 8.38039 17.274 8.38039C17.3973 8.38039 17.5165 8.33627 17.61 8.25601C17.73 8.16001 17.874 8.05201 17.826 7.88401C17.778 7.71601 17.586 7.75201 17.46 7.74001Z" fill="#316192"/>
<path d="M8.35156 16.434C8.59733 16.3447 8.85024 16.2764 9.10756 16.23C9.39461 16.1902 9.67027 16.0913 9.9171 15.9394C10.1639 15.7876 10.3766 15.5862 10.5416 15.348C10.6497 15.2056 10.768 15.0712 10.8956 14.946C10.9371 14.8983 10.9937 14.8664 11.0559 14.8555C11.1182 14.8446 11.1823 14.8553 11.2376 14.886C11.3238 14.9205 11.4008 14.9744 11.4626 15.0437C11.5244 15.113 11.5692 15.1957 11.5937 15.2852C11.6181 15.3748 11.6214 15.4688 11.6033 15.5599C11.5853 15.6509 11.5463 15.7365 11.4896 15.81C11.2286 16.1571 10.8754 16.4238 10.4701 16.5798C10.0648 16.7358 9.62387 16.7746 9.19756 16.692C8.89879 16.676 8.60842 16.5874 8.35156 16.434Z" fill="#316192"/>
<path d="M21.3249 15C20.9961 15.2883 20.6032 15.494 20.1789 15.6C19.5836 15.7853 18.9567 15.8465 18.3369 15.78C18.1869 15.78 17.9889 15.78 17.9289 15.606C17.9015 15.4718 17.9122 15.3327 17.96 15.2044C18.0077 15.076 18.0905 14.9637 18.1989 14.88C18.2877 14.8207 18.3921 14.789 18.4989 14.789C18.6057 14.789 18.7101 14.8207 18.7989 14.88C19.2617 15.1006 19.7804 15.176 20.2869 15.096C20.6409 15.072 21.0009 15 21.3249 15Z" fill="#316192"/>
<path d="M10.074 7.89602C10.283 7.88453 10.491 7.93237 10.674 8.03402C10.7116 8.04882 10.7448 8.07311 10.7702 8.10454C10.7956 8.13596 10.8125 8.17344 10.8192 8.21333C10.8258 8.25321 10.822 8.29413 10.8081 8.33211C10.7943 8.37009 10.7708 8.40382 10.74 8.43002C10.6716 8.51151 10.5827 8.57334 10.4826 8.60919C10.3824 8.64503 10.2745 8.6536 10.17 8.63402C10.0623 8.6119 9.96161 8.56367 9.87688 8.49358C9.79214 8.42349 9.7259 8.33368 9.68397 8.23202C9.67045 8.20521 9.66301 8.17575 9.66219 8.14573C9.66136 8.11572 9.66718 8.08589 9.67921 8.05838C9.69125 8.03087 9.70921 8.00636 9.73181 7.98659C9.75441 7.96682 9.7811 7.95229 9.80997 7.94402C9.89407 7.9112 9.9837 7.8949 10.074 7.89602Z" fill="#FDFDFD"/>
<path d="M17.4607 7.74C17.5867 7.74 17.7787 7.74 17.8267 7.896C17.8747 8.052 17.7307 8.172 17.6107 8.268C17.5171 8.34827 17.3979 8.39239 17.2747 8.39239C17.1514 8.39239 17.0322 8.34827 16.9387 8.268C16.7347 8.106 16.7527 7.956 16.9807 7.848C17.1304 7.77616 17.2945 7.73923 17.4607 7.74Z" fill="#FDFDFD"/>
</svg>
