<?xml version="1.0" standalone="no"?><!DOCTYPE svg PUBLIC "-//W3C//DTD SVG 1.1//EN" "http://www.w3.org/Graphics/SVG/1.1/DTD/svg11.dtd"><svg t="1726302584557" class="icon" viewBox="0 0 1024 1024" version="1.1" xmlns="http://www.w3.org/2000/svg" p-id="6066" xmlns:xlink="http://www.w3.org/1999/xlink" width="200" height="200"><path d="M0 0h938.666667v938.666667H0V0z m64 64v810.666667h810.666667v-810.666667h-810.666667z" fill="#2C82FC" p-id="6067"></path><path d="M170.666667 170.666667h853.333333v853.333333H170.666667z" fill="#2C82FC" p-id="6068"></path><path d="M967.082667 334.208v362.965333l-151.850667-162.986666s-17.962667-21.461333-32.64-21.461334a35.072 35.072 0 0 0-30.506667 17.706667c-4.053333 7.04-73.344 76.330667-207.872 207.872-6.016 4.309333-6.016 4.309333-12.586666 0L413.653333 641.706667s-16.768-14.293333-28.373333-14.293334c-5.930667 0-11.477333 1.621333-16.426667 4.224s-8.917333 6.528-10.496 8.192l-130.816 125.312V284.458667 227.541333h739.541334v106.666667z m-55.68 632.917333H227.541333v-55.68-68.650666l151.381334-144.896c5.077333-4.266667 8.362667-4.565333 13.482666-0.085334l116.224 95.061334c10.026667 7.082667 20.949333 15.786667 29.525334 15.786666 8.576 0 18.773333-2.944 29.781333-13.952l211.242667-211.242666c1.109333 0.128 2.218667 0.384 3.370666 0.384l1.066667-0.085334 183.424 196.906667v79.744h0.042667v106.666667h-55.68z" fill="#FFFFFF" p-id="6069"></path><path d="M758.698667 672.64a35.584 35.584 0 0 1 45.013333 4.437333c1.536 1.578667 4.352 4.736 4.352 4.736l15.104 15.061334a21.461333 21.461333 0 0 1 0 30.208 21.077333 21.077333 0 0 1-24.064 4.010666c-0.469333 0.256-21.162667-19.157333-21.162667-19.157333l-30.08 30.208-63.701333 63.701333c-0.512 0.554667-0.682667 1.322667-1.28 1.834667a21.418667 21.418667 0 0 1-30.165333 0 21.418667 21.418667 0 0 1 0-30.165333l0.341333-0.298667 105.642667-104.576z m84.949333 104.917333c-0.170667-0.042667-0.256-0.213333-0.469333-0.298666a21.418667 21.418667 0 0 1 0-30.165334 21.461333 21.461333 0 0 1 30.208 0l0.256 0.384 0.085333-0.128 9.728 9.770667a21.333333 21.333333 0 0 1-30.165333 30.165333l-9.642667-9.728zM426.666667 312.874667a85.333333 85.333333 0 1 1-0.042667 170.709333A85.333333 85.333333 0 0 1 426.666667 312.874667zM426.666667 426.666667a28.458667 28.458667 0 1 0-0.042667-56.96A28.458667 28.458667 0 0 0 426.666667 426.666667z" fill="#2C82FC" p-id="6070"></path></svg>