<?xml version="1.0" standalone="no"?><!DOCTYPE svg PUBLIC "-//W3C//DTD SVG 1.1//EN" "http://www.w3.org/Graphics/SVG/1.1/DTD/svg11.dtd"><svg t="1726300744320" class="icon" viewBox="0 0 1448 1024" version="1.1" xmlns="http://www.w3.org/2000/svg" p-id="4293" xmlns:xlink="http://www.w3.org/1999/xlink" width="282.8125" height="200"><path d="M1081.624727 143.803796H302.916849c-49.712078 0-89.96338 40.251302-89.96338 89.96338V892.753234c0 49.712078 40.251302 89.96338 89.96338 89.963379h778.879892c49.712078 0 89.96338-40.251302 89.96338-89.963379V233.767176c-0.172014-49.712078-40.423316-89.96338-90.135394-89.96338M302.744835 203.836721h778.879892c16.513355 0 29.930455 13.417101 29.930455 29.930455V586.568117c-48.335965-39.563245-131.934823-93.059634-232.391063-93.059634-92.543591 0-183.883084 71.729884-272.126323 141.051571-67.601545 53.15236-137.611288 108.196876-186.63531 108.196875-68.805644 0-127.806484-50.572148-147.760121-69.837729V233.767176c0.172014-16.513355 13.589115-29.930455 30.10247-29.930455m778.879892 718.846968H302.744835c-16.513355 0-29.930455-13.417101-29.930456-29.930455v-142.25567c35.950949 25.458088 87.89921 52.120275 147.760121 52.120276 69.837729 0 144.491853-58.656812 223.618344-120.92592 80.33059-63.129179 163.241391-128.322526 235.143289-128.322526 128.838569 0 230.842936 113.357299 231.875021 114.561397l0.516042-0.344028V892.753234c0 16.513355-13.417101 29.930455-30.102469 29.930455m-569.366706-359.165463c66.225433 0 120.065849-53.668402 120.065849-120.065849 0-66.225433-53.668402-120.065849-120.065849-120.065849-66.225433 0-120.065849 53.668402-120.065849 120.065849 0 66.397447 53.668402 120.065849 120.065849 120.065849M512.602049 383.591466c33.026709 0 59.688896 26.662187 59.688897 59.688897 0 33.026709-26.662187 59.688896-59.688897 59.688896-33.026709 0-59.688896-26.662187-59.688896-59.688896 0-33.026709 26.662187-59.688896 59.688896-59.688897m0 0" p-id="4294"></path><path d="M1217.687888 833.236351h-96.843944v-51.08819h96.843944c24.770032 0 45.067697-20.125651 45.067697-44.895683V134.34302c0-24.770032-20.125651-44.895683-45.067697-44.895683h-844.589282c-24.770032 0-44.895683 20.125651-44.895683 44.895683v59.688897H276.942718V134.34302c0-52.980346 43.003528-95.983874 95.983874-95.983873h844.589282c52.980346 0 95.983874 43.003528 95.983874 95.983873v602.909458c0.172014 52.980346-42.831514 95.983874-95.81186 95.983873z" p-id="4295"></path></svg>