<svg width="24" height="24" viewBox="0 0 24 24" xmlns="http://www.w3.org/2000/svg">
<path d="M11.6634 21.6628C16.6504 21.6628 20.7238 17.7516 20.9836 12.8293C20.9981 12.5536 20.7729 12.3294 20.4967 12.3294C17.5523 12.3294 14.6079 12.3294 11.6634 12.3294C11.6634 8.84196 11.6634 5.89746 11.6634 3.49592C11.6634 3.21978 11.4393 2.9947 11.1635 3.00925C6.24127 3.26904 2.33008 7.34248 2.33008 12.3294C2.33008 17.4841 6.50875 21.6628 11.6634 21.6628Z" />
<path d="M14.5566 10.3301C14.063 10.3301 13.6628 9.92991 13.6628 9.43629V2.88218C13.6628 2.58651 13.9187 2.35427 14.2106 2.40159C17.9922 3.01477 20.9782 6.00074 21.5913 9.78233C21.6387 10.0742 21.4064 10.3301 21.1107 10.3301H14.5566Z" />
</svg>
