<svg width="80" height="56" viewBox="0 0 80 56" fill="none" xmlns="http://www.w3.org/2000/svg">
<path fill-rule="evenodd" clip-rule="evenodd" d="M63.3189 29.3301C63.0518 42.4428 52.3387 52.9904 39.162 52.9904C25.8177 52.9904 15 42.1727 15 28.8284C15 15.6517 25.5476 4.93858 38.6603 4.67149C38.9364 4.66587 39.162 4.88955 39.162 5.16569V11.6765C29.5614 11.7352 21.7969 19.5361 21.7969 29.1504C21.7969 38.8012 29.6204 46.6247 39.2712 46.6247C48.922 46.6247 56.7455 38.8012 56.7455 29.1504C56.7455 29.0429 56.7445 28.9355 56.7426 28.8284H62.824C63.1001 28.8284 63.3245 29.054 63.3189 29.3301Z" fill="#3370FF"/>
<path fill-rule="evenodd" clip-rule="evenodd" d="M55.8622 23.6538C54.083 18.2842 49.7699 14.0695 44.3398 12.4263V3.49561C44.3398 3.19994 44.5962 2.9685 44.8896 3.00472C55.3791 4.29944 63.6942 12.6145 64.9889 23.104C65.0251 23.3975 64.7937 23.6538 64.498 23.6538H55.8622Z" fill="#00D6B9"/>
</svg>
