<svg width="80" height="56" viewBox="0 0 80 56" fill="none" xmlns="http://www.w3.org/2000/svg">
<path fill-rule="evenodd" clip-rule="evenodd" d="M57.6041 9.20121C57.6041 9.2868 57.6041 9.33602 57.5887 9.37978C57.5677 9.43899 57.5185 9.48821 57.4027 9.60404L52.5992 14.4014L45.1369 22.0347C44.4415 21.5387 43.6558 21.1612 42.8091 20.9319V3.59815C42.8091 3.39673 43.0105 3 43.4073 3C48.6075 3 53.6063 5.00196 57.4088 8.79837L57.4088 8.79839C57.5206 8.91362 57.5684 8.96292 57.5888 9.02174C57.6041 9.06572 57.6041 9.11503 57.6041 9.20121ZM37.3767 21.5741L23.0018 7.19924C23.0018 6.99783 22.8003 6.99783 22.5989 6.99783C22.4734 6.99783 22.4261 7.07608 22.361 7.1838L22.361 7.1838C22.3216 7.24891 22.2758 7.32479 22.2022 7.40066C17.6001 12.0027 15 18.1978 15 24.6005C15 24.9972 15.1953 25.1986 15.5981 25.1986H34.1231C34.764 23.6519 35.9198 22.3725 37.3767 21.5741ZM35.7461 33.2095L34.0016 35.0013L30.0038 38.9991C29.9031 38.9991 29.8527 38.9991 29.8276 39.0243C29.8024 39.0495 29.8024 39.0998 29.8024 39.2005C29.8024 39.2005 29.8024 39.402 30.0038 39.4142C33.0067 42.6124 37.206 44.2115 41.4052 44.2115C41.6066 44.2115 41.8081 44.0101 41.8081 43.8087V35.2638C41.5073 35.3014 41.2008 35.3208 40.8899 35.3208C38.885 35.3208 37.0683 34.5149 35.7461 33.2095ZM47.8257 30.3505L53.5997 36.002L58.3971 40.7993C58.513 40.9152 58.5622 40.9644 58.6214 40.9853C58.6652 41.0008 58.7144 41.0008 58.8 41.0008C58.8 41.0008 59.0014 41.0008 59.0014 40.7993C62.8039 36.9968 65.0012 31.998 65.0012 26.5964C65.0012 26.1997 64.6045 25.9982 64.403 25.9982H47.9346C48.1149 26.6342 48.2114 27.3055 48.2114 27.9993C48.2114 28.8217 48.0758 29.6125 47.8257 30.3505Z" fill="#3370FF"/>
<path fill-rule="evenodd" clip-rule="evenodd" d="M41.8017 20.7362V7.40088L41.3989 6.99805C36.9982 6.99805 33.0004 8.79859 30.0036 11.8015C29.8022 11.9969 29.8022 12.1983 30.0036 12.3997L38.6292 21.0347C39.3406 20.8042 40.0997 20.6797 40.8879 20.6797C41.1974 20.6797 41.5024 20.6989 41.8017 20.7362ZM47.5665 24.9965C47.1902 24.1616 46.6621 23.4099 46.0172 22.7767L53.0015 15.7923C53.2029 15.5909 53.4043 15.5909 53.4043 15.7923C55.803 18.191 57.0054 21.194 57.0054 24.5937L56.804 24.9965H47.5665ZM42.6878 35.0999C44.6814 34.5959 46.3493 33.2743 47.314 31.5127L60.8006 44.9992C61.002 45.2006 61.002 45.5974 60.8006 45.7988C56.1985 50.4009 49.802 53.001 43.1979 53.001L43.0026 52.7996C42.8868 52.6837 42.8376 52.6345 42.8167 52.5753C42.8012 52.5315 42.8012 52.4823 42.8012 52.3967V43.9982L42.6878 35.0999ZM33.8168 26.0958C33.6535 26.7033 33.5664 27.3421 33.5664 28.0012C33.5664 29.592 34.0737 31.0643 34.9354 32.2651L26.1995 41.001C25.9981 41.2024 25.6014 41.2024 25.3999 41.001C21.5974 37.1985 19.6016 32.1997 19.6016 26.798C19.6758 26.7238 19.7218 26.6487 19.7614 26.5841C19.826 26.4787 19.8734 26.4013 19.9983 26.4013C19.9983 26.4013 20.1997 26.1999 20.4011 26.1999H27.2005L33.8168 26.0958Z" fill="#00D6B9"/>
</svg>
