<svg width="80" height="56" viewBox="0 0 80 56" fill="none" xmlns="http://www.w3.org/2000/svg">
<path fill-rule="evenodd" clip-rule="evenodd" d="M63.3189 29.3347C63.0518 42.4474 52.3387 52.995 39.162 52.995C25.8177 52.995 15 42.1773 15 28.833C15 15.6564 25.5476 4.94322 38.6603 4.67613C38.9364 4.67051 39.162 4.89419 39.162 5.17033V11.6807C29.561 11.739 21.796 19.54 21.796 29.1547C21.796 38.8055 29.6195 46.629 39.2703 46.629C48.9211 46.629 56.7446 38.8055 56.7446 29.1547C56.7446 29.0472 56.7436 28.94 56.7417 28.833H62.824C63.1001 28.833 63.3245 29.0586 63.3189 29.3347Z" fill="#3370FF"/>
<path fill-rule="evenodd" clip-rule="evenodd" d="M55.8602 23.6521C54.0811 18.2829 49.7685 14.0683 44.3389 12.425V3.4939C44.3389 3.19823 44.5952 2.96679 44.8886 3.00301C55.3781 4.29773 63.6932 12.6128 64.9879 23.1023C65.0242 23.3958 64.7927 23.6521 64.497 23.6521H55.8602Z" fill="#00D6B9"/>
</svg>
