<svg width="80" height="56" viewBox="0 0 80 56" fill="none" xmlns="http://www.w3.org/2000/svg">
<path d="M57.5887 9.37979C57.6042 9.33602 57.6042 9.28681 57.6042 9.20121C57.6042 9.11504 57.6042 9.06573 57.5889 9.02174C57.5684 8.96292 57.5206 8.91362 57.4089 8.79838C53.6063 5.00197 48.6075 3 43.4073 3C43.0106 3 42.8092 3.39673 42.8092 3.59815V23.1967C42.8092 23.3981 43.0045 23.5995 43.2059 23.5995C43.4012 23.5995 43.6026 23.5995 43.804 23.3981L52.5993 14.4014L57.4028 9.60405C57.5186 9.48822 57.5678 9.439 57.5887 9.37979Z" fill="#3370FF"/>
<path d="M58.6215 40.9854C58.6652 41.0008 58.7144 41.0008 58.8 41.0008C58.8 41.0008 59.0014 41.0008 59.0014 40.7994C62.804 36.9969 65.0012 31.9981 65.0012 26.5964C65.0012 26.1997 64.6045 25.9983 64.4031 25.9983H44.6032C44.4017 25.9983 44.2003 26.1997 44.2003 26.4011C44.2003 26.5964 44.2003 26.7978 44.4017 26.9992L53.5998 36.002L58.3972 40.7994C58.513 40.9152 58.5622 40.9644 58.6215 40.9854Z" fill="#3370FF"/>
<path d="M29.8024 39.2006C29.8024 39.0999 29.8024 39.0495 29.8276 39.0243C29.8528 38.9992 29.9031 38.9992 30.0038 38.9992L34.0016 35.0013L41.2038 27.6038C41.3046 27.5031 41.3549 27.4528 41.4053 27.4528C41.6691 27.4528 41.8081 27.7946 41.8081 28.0067V43.8088C41.8081 44.0102 41.6067 44.2116 41.4053 44.2116C37.206 44.2116 33.0068 42.6125 30.0038 39.4142C29.8024 39.402 29.8024 39.2006 29.8024 39.2006Z" fill="#3370FF"/>
<path d="M22.5989 6.99783C22.8003 6.99783 23.0018 6.99783 23.0018 7.19925L40.0002 24.1977C40.2016 24.3991 40.2016 24.6005 40.2016 24.7958C40.2016 24.9972 39.7988 25.1986 39.6034 25.1986H15.5981C15.1953 25.1986 15 24.9972 15 24.6005C15 18.1979 17.6001 12.0027 22.2022 7.40067C22.2758 7.32479 22.3216 7.24891 22.361 7.18381C22.4261 7.07608 22.4734 6.99783 22.5989 6.99783Z" fill="#3370FF"/>
<path d="M41.8037 7.39893V23.201C41.8037 23.4025 41.8037 23.6039 41.6023 23.6039C41.3444 23.6039 41.097 23.5013 40.9148 23.3189L30.0055 12.3977C29.8041 12.1963 29.8041 11.9949 30.0055 11.7996C33.0024 8.79664 37.0002 6.99609 41.4009 6.99609L41.8037 7.39893Z" fill="#00D6B9"/>
<path d="M56.806 24.9946H44.605C44.4036 24.9946 44.4036 24.9946 44.4036 24.7931C44.4036 24.5352 44.506 24.2878 44.6884 24.1055L53.0035 15.7904C53.2049 15.589 53.4063 15.589 53.4063 15.7904C55.805 18.1891 57.0074 21.192 57.0074 24.5917L56.806 24.9946Z" fill="#00D6B9"/>
<path d="M20.4031 26.1979C20.2017 26.1979 20.0002 26.3994 20.0002 26.3994C19.8754 26.3994 19.8279 26.4768 19.7633 26.5822C19.7237 26.6468 19.6777 26.7219 19.6035 26.7961C19.6035 32.1977 21.5994 37.1966 25.4019 40.9991C25.6033 41.2005 26 41.2005 26.2015 40.9991L40.203 26.9975C40.4044 26.7961 40.4044 26.6008 40.4044 26.3994C40.4044 26.1979 40.203 25.9965 40.0016 25.9965L27.2024 26.1979H20.4031Z" fill="#00D6B9"/>
<path d="M42.8032 52.3948C42.8032 52.4804 42.8032 52.5296 42.8187 52.5734C42.8396 52.6326 42.8888 52.6818 43.0046 52.7977L43.1999 52.9991C49.804 52.9991 56.2005 50.399 60.8026 45.7969C61.004 45.5955 61.004 45.1987 60.8026 44.9973C60.8026 44.9973 46.9814 30.8744 44.1075 28.2222C43.7817 27.9214 43.4349 27.4891 43.0046 27.5961C42.7669 27.6552 42.6018 27.9928 42.6018 28.1942L42.8032 43.9963V52.3948Z" fill="#00D6B9"/>
</svg>
