<?xml version="1.0" standalone="no"?><!DOCTYPE svg PUBLIC "-//W3C//DTD SVG 1.1//EN" "http://www.w3.org/Graphics/SVG/1.1/DTD/svg11.dtd"><svg t="1696656249593" class="icon" viewBox="0 0 1044 1024" version="1.1" xmlns="http://www.w3.org/2000/svg" p-id="1386" xmlns:xlink="http://www.w3.org/1999/xlink" width="203.90625" height="200"><path d="M809.0675 194.766875c0 1.45125 0 2.278125-0.253125 3.020625-0.354375 0.995625-1.18125 1.8225-3.13875 3.78l-81.0675 80.949375-81.37125 83.26125a184.764375 184.764375 0 0 0-83.835-36.905625V100.21625c0-3.391875 3.391875-10.09125 10.09125-10.09125 87.75 0 172.125 33.78375 236.28375 97.84125 1.89 1.9575 2.7 2.784375 3.0375 3.78 0.253125 0.7425 0.253125 1.569375 0.253125 3.0375zM423.40625 359.230625L225.15875 161c0-3.391875-3.40875-3.391875-6.800625-3.391875-2.12625 0-2.919375 1.31625-4.01625 3.13875a19.06875 19.06875 0 0 1-2.683125 3.661875C134 242.050625 90.125 346.59125 90.125 454.625c0 6.6825 3.290625 10.09125 10.09125 10.09125H349.325a185.895 185.895 0 0 1 74.08125-105.5025zM397.638125 643.2875L343.300625 697.625c-1.6875 0-2.53125 0-2.953125 0.405-0.43875 0.43875-0.43875 1.2825-0.43875 2.97 0 0 0 3.40875 3.40875 3.61125 50.675625 53.96625 121.53375 80.949375 192.391875 80.949375a7.306875 7.306875 0 0 0 6.800625-6.78375V697.11875a185.034375 185.034375 0 0 1-144.871875-53.848125z m295.093125-43.993125l48.76875 47.739375 80.949375 80.949375c1.9575 1.9575 2.784375 2.784375 3.78 3.13875 0.7425 0.27 1.569375 0.27 3.020625 0.27 0 0 3.391875 0 3.391875-3.40875 64.175625-64.15875 101.25-148.516875 101.25-239.675625 0-6.6825-6.6825-10.09125-10.09125-10.09125H711.42875c2.025 10.96875 3.07125 22.24125 3.07125 33.78375 0 31.55625-7.880625 61.273125-21.76875 87.31125z" fill="#3370FF" p-id="1387"></path><path d="M542.40875 326.88125V164.375l-6.800625-6.78375c-74.25 0-141.71625 30.375-192.290625 81.0675-3.40875 3.290625-3.40875 6.6825 0 10.09125l98.938125 99.05625a184.831875 184.831875 0 0 1 100.153125-20.925z m165.088125 134.443125a185.52375 185.52375 0 0 0-49.10625-82.299375l73.018125-73.035c3.391875-3.391875 6.800625-3.391875 6.800625 0 40.46625 40.483125 60.75 91.15875 60.75 148.53375l-3.375 6.78375h-88.0875z m-149.326875 234.005625a185.625 185.625 0 0 0 123.474375-77.844375L863 798.875c3.391875 3.40875 3.391875 10.09125 0 13.5C785.358125 890 677.40875 933.875 565.96625 933.875l-3.290625-3.391875c-1.9575-1.9575-2.784375-2.784375-3.13875-3.796875-0.253125-0.7425-0.253125-1.569375-0.253125-3.00375v-141.733125l-1.11375-86.63625z m-212.304375-214.48125C344.144375 490.956875 343.25 501.36875 343.25 512c0 43.5375 14.985 83.548125 40.06125 115.205625L279.125 731.375c-3.40875 3.391875-10.09125 3.391875-13.5 0-64.15875-64.15875-97.84125-148.516875-97.84125-239.675625 1.24875-1.24875 2.025-2.53125 2.7-3.61125 1.08-1.771875 1.89-3.088125 3.999375-3.088125 0 0 3.391875-3.391875 6.78375-3.391875h114.75l49.84875-0.793125z" fill="#00D6B9" p-id="1388"></path></svg>