<svg width="80" height="56" viewBox="0 0 80 56" fill="none" xmlns="http://www.w3.org/2000/svg">
<path d="M57.5887 9.37979C57.6042 9.33602 57.6042 9.28681 57.6042 9.20121C57.6042 9.11504 57.6042 9.06573 57.5889 9.02174C57.5684 8.96292 57.5206 8.91362 57.4089 8.79838C53.6063 5.00197 48.6075 3 43.4073 3C43.0106 3 42.8092 3.39673 42.8092 3.59815V23.1967C42.8092 23.3981 43.0045 23.5995 43.2059 23.5995C43.4012 23.5995 43.6026 23.5995 43.804 23.3981L52.5993 14.4014L57.4028 9.60405C57.5186 9.48822 57.5678 9.439 57.5887 9.37979Z" fill="#3370FF"/>
<path d="M58.6215 40.9854C58.6652 41.0008 58.7144 41.0008 58.8 41.0008C58.8 41.0008 59.0014 41.0008 59.0014 40.7994C62.804 36.9969 65.0012 31.9981 65.0012 26.5964C65.0012 26.1997 64.6045 25.9983 64.4031 25.9983H44.6032C44.4017 25.9983 44.2003 26.1997 44.2003 26.4011C44.2003 26.5964 44.2003 26.7978 44.4017 26.9992L53.5998 36.002L58.3972 40.7994C58.513 40.9152 58.5622 40.9644 58.6215 40.9854Z" fill="#3370FF"/>
<path d="M29.8024 39.2006C29.8024 39.0999 29.8024 39.0495 29.8276 39.0243C29.8528 38.9992 29.9031 38.9992 30.0038 38.9992L34.0016 35.0013L41.2038 27.6038C41.3046 27.5031 41.3549 27.4528 41.4053 27.4528C41.6691 27.4528 41.8081 27.7946 41.8081 28.0067V43.8088C41.8081 44.0102 41.6067 44.2116 41.4053 44.2116C37.206 44.2116 33.0068 42.6125 30.0038 39.4142C29.8024 39.402 29.8024 39.2006 29.8024 39.2006Z" fill="#3370FF"/>
<path d="M22.5989 6.99783C22.8003 6.99783 23.0018 6.99783 23.0018 7.19925L40.0002 24.1977C40.2016 24.3991 40.2016 24.6005 40.2016 24.7958C40.2016 24.9972 39.7988 25.1986 39.6034 25.1986H15.5981C15.1953 25.1986 15 24.9972 15 24.6005C15 18.1979 17.6001 12.0027 22.2022 7.40067C22.2758 7.32479 22.3216 7.24891 22.361 7.18381C22.4261 7.07608 22.4734 6.99783 22.5989 6.99783Z" fill="#3370FF"/>
<path d="M41.8027 7.39966V23.2018C41.8027 23.4032 41.8027 23.6046 41.6013 23.6046C41.3434 23.6046 41.0961 23.5021 40.9138 23.3196L30.0046 12.3985C29.8031 12.1971 29.8031 11.9956 30.0046 11.8003C33.0014 8.79737 36.9992 6.99683 41.3999 6.99683L41.8027 7.39966Z" fill="#00D6B9"/>
<path d="M56.805 24.9953H44.604C44.4026 24.9953 44.4026 24.9953 44.4026 24.7939C44.4026 24.5359 44.505 24.2886 44.6874 24.1062L53.0025 15.7911C53.2039 15.5897 53.4053 15.5897 53.4053 15.7911C55.804 18.1898 57.0064 21.1928 57.0064 24.5925L56.805 24.9953Z" fill="#00D6B9"/>
<path d="M20.4021 26.1987C20.2007 26.1987 19.9993 26.4001 19.9993 26.4001C19.8744 26.4001 19.8269 26.4775 19.7623 26.5829C19.7228 26.6475 19.6767 26.7226 19.6025 26.7968C19.6025 32.1985 21.5984 37.1973 25.4009 40.9998C25.6023 41.2012 25.9991 41.2012 26.2005 40.9998L40.202 26.9982C40.4035 26.7968 40.4035 26.6015 40.4035 26.4001C40.4035 26.1987 40.202 25.9973 40.0006 25.9973L27.2015 26.1987H20.4021Z" fill="#00D6B9"/>
<path d="M42.8022 52.3955C42.8022 52.4811 42.8022 52.5304 42.8177 52.5741C42.8386 52.6333 42.8878 52.6826 43.0036 52.7984L43.199 52.9998C49.803 52.9998 56.1995 50.3997 60.8016 45.7976C61.003 45.5962 61.003 45.1995 60.8016 44.998C60.8016 44.998 46.9804 30.8752 44.1066 28.2229C43.7807 27.9222 43.434 27.4898 43.0036 27.5968C42.7659 27.6559 42.6008 27.9935 42.6008 28.1949L42.8022 43.9971V52.3955Z" fill="#00D6B9"/>
</svg>
