<svg width="51" height="50" viewBox="0 0 51 50" fill="none"
    xmlns="http://www.w3.org/2000/svg">
    <path fill-rule="evenodd" clip-rule="evenodd" d="M42.6041 6.20121C42.6041 6.2868 42.6041 6.33602 42.5887 6.37978C42.5677 6.43899 42.5185 6.48821 42.4027 6.60404L37.5992 11.4014L32.7765 16.3346C31.359 15.2245 29.6622 14.4547 27.8091 14.1481V0.598148C27.8091 0.39673 28.0105 0 28.4073 0C33.6075 0 38.6063 2.00196 42.4088 5.79837L42.4088 5.79839C42.5206 5.91362 42.5684 5.96292 42.5888 6.02174C42.6041 6.06572 42.6041 6.11503 42.6041 6.20121ZM19.7496 15.9471L8.00175 4.19924C8.00175 3.99783 7.80034 3.99783 7.59892 3.99783C7.47338 3.99783 7.42608 4.07608 7.36098 4.1838L7.36097 4.1838C7.32162 4.24891 7.27576 4.32479 7.20219 4.40066C2.60011 9.00274 0 15.1978 0 21.6005C0 21.9972 0.195314 22.1986 0.598148 22.1986H15.3599C16.0356 19.6253 17.6201 17.4202 19.7496 15.9471ZM18.2233 32.7796L15.0038 35.9991C14.9031 35.9991 14.8527 35.9991 14.8276 36.0243C14.8024 36.0495 14.8024 36.0998 14.8024 36.2005C14.8024 36.2005 14.8024 36.402 15.0038 36.4142C18.0067 39.6124 22.206 41.2115 26.4052 41.2115C26.6066 41.2115 26.8081 41.0101 26.8081 40.8087V35.9708C26.5412 35.9901 26.2718 36 26 36C22.9632 36 20.2138 34.7694 18.2233 32.7796ZM35.7099 30.1735L38.5997 33.002L43.3971 37.7993C43.513 37.9152 43.5622 37.9644 43.6214 37.9853C43.6652 38.0008 43.7144 38.0008 43.8 38.0008C43.8 38.0008 44.0014 38.0008 44.0014 37.7993C47.8039 33.9968 50.0012 28.998 50.0012 23.5964C50.0012 23.1997 49.6045 22.9982 49.403 22.9982H36.8183C36.9376 23.6473 37 24.3164 37 25C37 26.8702 36.5333 28.6314 35.7099 30.1735Z" fill="#3370FF"/>
    <path fill-rule="evenodd" clip-rule="evenodd" d="M26.802 14.0293V4.40088L26.3991 3.99805C21.9985 3.99805 18.0007 5.79859 15.0038 8.80154C14.8024 8.99685 14.8024 9.19827 15.0038 9.39969L20.8669 15.2692C22.3994 14.4592 24.1463 14.0005 26.0002 14.0005C26.2699 14.0005 26.5372 14.0102 26.802 14.0293ZM36.5851 21.9965C36.053 20.1182 35.0346 18.4444 33.6744 17.1197L38.0017 12.7923C38.2031 12.5909 38.4046 12.5909 38.4046 12.7923C40.8033 15.191 42.0057 18.194 42.0057 21.5937L41.8042 21.9965H36.5851ZM27.736 35.8643C30.7637 35.3844 33.3801 33.6692 35.0529 31.2513L45.8008 41.9992C46.0022 42.2006 46.0022 42.5974 45.8008 42.7988C41.1987 47.4009 34.8022 50.001 28.1982 50.001L28.0029 49.7996C27.8871 49.6837 27.8378 49.6345 27.8169 49.5753C27.8015 49.5315 27.8015 49.4823 27.8015 49.3967V40.9982L27.736 35.8643ZM15.1547 23.1534C15.0531 23.7539 15.0002 24.371 15.0002 25.0005C15.0002 27.5794 15.8877 29.9511 17.374 31.8267L11.1997 38.001C10.9983 38.2024 10.6016 38.2024 10.4002 38.001C6.59767 34.1985 4.60181 29.1997 4.60181 23.798C4.67602 23.7238 4.72203 23.6487 4.76161 23.5841C4.8262 23.4787 4.87365 23.4013 4.99854 23.4013C4.99854 23.4013 5.19995 23.1999 5.40137 23.1999H12.2007L15.1547 23.1534Z" fill="#00D6B9"/>
</svg>
