<svg width="80" height="56" viewBox="0 0 80 56" fill="none" xmlns="http://www.w3.org/2000/svg">
<path d="M39.1377 52.9999C52.3009 52.9999 63.0031 42.4632 63.2702 29.364C63.2758 29.0879 63.0515 28.8623 62.7753 28.8623C54.8961 28.8623 47.0169 28.8623 39.1377 28.8623C39.1377 19.4553 39.1377 11.5758 39.1377 5.22392C39.1377 4.94778 38.912 4.72409 38.636 4.72972C25.5367 4.99681 15 15.699 15 28.8623C15 42.1931 25.8068 52.9999 39.1377 52.9999Z" fill="#3370FF"/>
<path d="M46.6201 23.6894C45.3435 23.6894 44.3086 22.6545 44.3086 21.3779V3.5521C44.3086 3.25643 44.5649 3.02499 44.8583 3.06121C55.3368 4.35483 63.6432 12.6612 64.9368 23.1397C64.973 23.4331 64.7416 23.6894 64.4459 23.6894H46.6201Z" fill="#00D6B9"/>
</svg>
