<svg width="24" height="24" viewBox="0 0 24 24" xmlns="http://www.w3.org/2000/svg">
<path fill-rule="evenodd" clip-rule="evenodd" d="M13.6628 6.54815C15.4893 7.13467 16.9494 8.53855 17.6127 10.3292H21.1107C21.4064 10.3292 21.6387 10.0733 21.5913 9.78142C20.9782 5.99982 17.9922 3.01385 14.2106 2.40068C13.9187 2.35335 13.6628 2.5856 13.6628 2.88127V6.54815ZM11.6634 6.25059V3.49501C11.6634 3.21886 11.4393 2.99379 11.1635 3.00834C6.24127 3.26813 2.33008 7.34157 2.33008 12.3285C2.33008 17.4832 6.50875 21.6618 11.6634 21.6618C16.6504 21.6618 20.7238 17.7507 20.9836 12.8284C20.9981 12.5527 20.7729 12.3285 20.4967 12.3285H17.9977C17.9992 12.3855 18 12.4427 18 12.5C18 15.9518 15.2018 18.75 11.75 18.75C8.29822 18.75 5.5 15.9518 5.5 12.5C5.5 9.07713 8.25155 6.29692 11.6634 6.25059Z" />
</svg>
