<svg width="80" height="56" viewBox="0 0 80 56" fill="none" xmlns="http://www.w3.org/2000/svg">
<path fill-rule="evenodd" clip-rule="evenodd" d="M57.6041 9.20121C57.6041 9.2868 57.6041 9.33602 57.5887 9.37978C57.5677 9.43899 57.5185 9.48821 57.4027 9.60404L52.5992 14.4014L45.1362 22.0354C44.441 21.5395 43.6555 21.162 42.8091 20.9326V3.59815C42.8091 3.39673 43.0105 3 43.4073 3C48.6075 3 53.6063 5.00196 57.4088 8.79837L57.4088 8.79839C57.5206 8.91362 57.5684 8.96292 57.5888 9.02174C57.6041 9.06572 57.6041 9.11503 57.6041 9.20121ZM37.3766 21.5741L23.0018 7.19924C23.0018 6.99783 22.8003 6.99783 22.5989 6.99783C22.4734 6.99783 22.4261 7.07608 22.361 7.1838L22.361 7.1838C22.3216 7.24891 22.2758 7.32479 22.2022 7.40066C17.6001 12.0027 15 18.1978 15 24.6005C15 24.9972 15.1953 25.1986 15.5981 25.1986H34.1223C34.7634 23.6518 35.9194 22.3723 37.3766 21.5741ZM35.7454 33.2102L34.0016 35.0013L30.0038 38.9991C29.9031 38.9991 29.8527 38.9991 29.8276 39.0243C29.8024 39.0495 29.8024 39.0998 29.8024 39.2005C29.8024 39.2005 29.8024 39.402 30.0038 39.4142C33.0067 42.6124 37.206 44.2115 41.4052 44.2115C41.6066 44.2115 41.8081 44.0101 41.8081 43.8087V35.2641C41.507 35.3018 41.2002 35.3213 40.8889 35.3213C38.8842 35.3213 37.0676 34.5155 35.7454 33.2102ZM47.8251 30.3499L53.5997 36.002L58.3971 40.7993C58.513 40.9152 58.5622 40.9644 58.6214 40.9853C58.6652 41.0008 58.7144 41.0008 58.8 41.0008C58.8 41.0008 59.0014 41.0008 59.0014 40.7993C62.8039 36.9968 65.0012 31.998 65.0012 26.5964C65.0012 26.1997 64.6045 25.9982 64.403 25.9982H47.9335C48.1139 26.6344 48.2104 27.3058 48.2104 27.9997C48.2104 28.8218 48.0749 29.6122 47.8251 30.3499Z" fill="#3370FF"/>
<path fill-rule="evenodd" clip-rule="evenodd" d="M41.8017 20.7352V7.40039L41.3989 6.99756C36.9982 6.99756 33.0004 8.79811 30.0036 11.8011C29.8022 11.9964 29.8022 12.1978 30.0036 12.3992L38.6288 21.0339C39.3404 20.8033 40.0996 20.6787 40.8879 20.6787C41.1974 20.6787 41.5024 20.6979 41.8017 20.7352ZM47.5667 24.996C47.1905 24.161 46.6623 23.4092 46.0174 22.7759L53.0015 15.7919C53.2029 15.5904 53.4043 15.5904 53.4043 15.7919C55.803 18.1906 57.0054 21.1935 57.0054 24.5932L56.804 24.996H47.5667ZM42.6878 35.0989C44.6812 34.595 46.3491 33.2735 47.3138 31.512L60.8006 44.9987C61.002 45.2001 61.002 45.5969 60.8006 45.7983C56.1985 50.4004 49.802 53.0005 43.1979 53.0005L43.0026 52.7991C42.8868 52.6832 42.8376 52.634 42.8167 52.5748C42.8012 52.531 42.8012 52.4818 42.8012 52.3962V43.9977L42.6878 35.0989ZM33.8167 26.0953C33.6535 26.7027 33.5664 27.3413 33.5664 28.0002C33.5664 29.5911 34.0738 31.0635 34.9356 32.2644L26.1995 41.0005C25.9981 41.2019 25.6014 41.2019 25.3999 41.0005C21.5974 37.198 19.6016 32.1992 19.6016 26.7975C19.6758 26.7233 19.7218 26.6482 19.7614 26.5836C19.826 26.4782 19.8734 26.4008 19.9983 26.4008C19.9983 26.4008 20.1997 26.1994 20.4011 26.1994H27.2005L33.8167 26.0953Z" fill="#00D6B9"/>
</svg>
