<svg width="20" height="18" viewBox="0 0 20 18" fill="" xmlns="http://www.w3.org/2000/svg">
<path d="M5.00004 16.1667C5.00004 15.8905 5.2239 15.6667 5.50004 15.6667H14.5C14.7762 15.6667 15 15.8905 15 16.1667V16.8333C15 17.1095 14.7762 17.3333 14.5 17.3333H5.50004C5.2239 17.3333 5.00004 17.1095 5.00004 16.8333V16.1667ZM11.4611 3.94446C11.5609 3.99079 11.6506 4.0564 11.725 4.1375C11.7994 4.21861 11.8571 4.31362 11.8947 4.41707C11.9323 4.52053 11.949 4.63038 11.944 4.74034C11.939 4.85029 11.9123 4.95818 11.8655 5.05779L9.65553 9.77334C9.56079 9.9748 9.39014 10.1306 9.18089 10.2066C8.97163 10.2825 8.7408 10.2726 8.53886 10.1789C8.4393 10.1326 8.34985 10.067 8.27563 9.9861C8.20141 9.90516 8.14387 9.81038 8.10631 9.70718C8.06874 9.60399 8.05189 9.4944 8.05672 9.38469C8.06154 9.27497 8.08794 9.16729 8.13442 9.06779L10.3444 4.35223C10.439 4.15058 10.6095 3.99458 10.8188 3.91836C11.0281 3.84215 11.259 3.85193 11.4611 3.94557V3.94446ZM2.50004 2.74999V12.3333H17.5V2.33332H2.50004V2.74999ZM0.833374 1.66666C0.833374 1.11437 1.28109 0.666656 1.83337 0.666656H18.1667C18.719 0.666656 19.1667 1.11437 19.1667 1.66666V13C19.1667 13.5523 18.719 14 18.1667 14H1.83338C1.28109 14 0.833374 13.5523 0.833374 13V1.66666ZM4.37331 7.70334C4.27934 7.6251 4.20381 7.52705 4.15215 7.41622C4.10048 7.30539 4.07393 7.18451 4.07442 7.06223C4.07393 6.93995 4.10048 6.81907 4.15215 6.70824C4.20381 6.59741 4.27934 6.49937 4.37331 6.42112L5.92664 4.87668C6.08426 4.71981 6.29759 4.63174 6.51997 4.63174C6.74235 4.63174 6.95568 4.71981 7.11331 4.87668C7.19091 4.95409 7.25248 5.04605 7.29449 5.14729C7.3365 5.24853 7.35813 5.35707 7.35813 5.46668C7.35813 5.57629 7.3365 5.68483 7.29449 5.78607C7.25248 5.88731 7.19091 5.97927 7.11331 6.05668L6.1022 7.06223L7.11331 8.06779C7.19095 8.14529 7.25254 8.23735 7.29457 8.33868C7.33659 8.44001 7.35822 8.54864 7.35822 8.65834C7.35822 8.76805 7.33659 8.87667 7.29457 8.97801C7.25254 9.07934 7.19095 9.17139 7.11331 9.2489C6.95568 9.40577 6.74235 9.49383 6.51997 9.49383C6.29759 9.49383 6.08426 9.40577 5.92664 9.2489L4.37331 7.70445V7.70334ZM15.6266 7.70334L14.0733 9.2489C13.9157 9.40577 13.7024 9.49383 13.48 9.49383C13.2576 9.49383 13.0443 9.40577 12.8866 9.2489C12.8089 9.17147 12.7472 9.07944 12.705 8.9781C12.6629 8.87675 12.6413 8.76809 12.6413 8.65834C12.6413 8.5486 12.6629 8.43993 12.705 8.33859C12.7472 8.23725 12.8089 8.14522 12.8866 8.06779L13.8978 7.06223L12.8866 6.05668L12.8833 6.05446C12.7277 5.89776 12.6406 5.68571 12.6413 5.46488C12.6419 5.24404 12.7301 5.03249 12.8866 4.87668C13.0443 4.71981 13.2576 4.63174 13.48 4.63174C13.7024 4.63174 13.9157 4.71981 14.0733 4.87668L15.6266 6.42112C15.7206 6.49937 15.7961 6.59741 15.8478 6.70824C15.8995 6.81907 15.926 6.93995 15.9255 7.06223C15.926 7.18451 15.8995 7.30539 15.8478 7.41622C15.7961 7.52705 15.7206 7.6251 15.6266 7.70334Z" fill=""/>
</svg>
