<?xml version="1.0" standalone="no"?><!DOCTYPE svg PUBLIC "-//W3C//DTD SVG 1.1//EN" "http://www.w3.org/Graphics/SVG/1.1/DTD/svg11.dtd"><svg class="icon" width="200px" height="200.00px" viewBox="0 0 1024 1024" version="1.1" xmlns="http://www.w3.org/2000/svg"><path d="M314.49 3.082H157.692C70.793 3.082 0 74.073 0 161.271V864.32c0 87.198 70.792 158.189 157.592 158.189H314.49c86.9 0 157.592-70.991 157.592-158.189V702.652h-72.98V864.32c0 46.93-37.98 84.91-84.612 84.91H157.693c-46.731 0-84.613-38.18-84.613-84.91V161.27c0-46.929 37.981-84.91 84.613-84.91h156.896c46.73 0 84.612 38.18 84.612 84.91v159.68h72.98V161.27c-0.1-87.197-70.793-158.188-157.692-158.188z m546.252 0H703.746c-86.899 0-157.592 70.991-157.592 158.189v159.68h72.98V161.27c0-46.93 37.981-84.911 84.612-84.911h156.896c46.731 0 84.613 38.18 84.613 84.91v703.05c0 46.93-37.981 84.91-84.613 84.91H703.746c-46.73 0-84.612-38.18-84.612-84.91V702.652h-72.98V864.32c0 87.198 70.792 158.189 157.592 158.189h156.896c86.9 0 157.592-70.991 157.592-158.189V161.27c0.1-87.197-70.692-158.188-157.492-158.188z m0 0"  /><path d="M191.995 485.602H461.84c-0.596-27.74-23.465-50.31-51.304-50.31H186.129c-28.238 0-51.305 23.166-51.305 51.503v105.492c0 28.337 23.067 51.504 51.305 51.504h224.506c28.237 0 51.305-23.167 51.305-51.504v-1.093H191.995V485.602z m0 0"  /><path d="M395.423 512.447h230.074v46.035H395.423z"  /><path d="M556.395 485.602H826.34v105.492H556.395v1.094c0 28.337 23.067 51.503 51.305 51.503h224.506c28.238 0 51.305-23.166 51.305-51.503V486.696c0-28.337-23.067-51.503-51.305-51.503H607.7c-27.84 0.099-50.708 22.669-51.305 50.41z m0 0"  /></svg>