<svg width="21" height="21" viewBox="0 0 21 21" fill="none" xmlns="http://www.w3.org/2000/svg">
<path d="M9.82114 0.511112C9.26454 0.171972 8.62429 -0.0050083 7.97253 0.000107863C7.32076 0.00522409 6.68338 0.192233 6.13217 0.540069C5.58096 0.887905 5.13782 1.38275 4.85269 1.96885C4.56755 2.55496 4.45174 3.20904 4.5183 3.85742L4.52002 3.87421L4.52231 3.89093C4.58074 4.31772 4.68836 4.68713 4.81122 5H2C0.895431 5 0 5.89543 0 7V11C0 11.1424 0.00623647 11.3455 0.0611953 11.5439C0.115745 11.7407 0.296762 12.1876 0.824169 12.3421C1.23279 12.4619 1.57532 12.3055 1.66228 12.2658L1.66518 12.2644C1.79017 12.2074 1.91374 12.1311 1.99029 12.0838L2.02826 12.0603C2.35693 11.8569 2.75032 11.6134 3.36265 11.526C3.63533 11.5009 3.90979 11.5509 4.15621 11.6708C4.40739 11.793 4.61947 11.9829 4.76854 12.2192C4.91761 12.4554 4.99776 12.7286 4.99995 13.0079C5.00215 13.2872 4.9263 13.5616 4.78095 13.8001C4.63561 14.0387 4.42654 14.2319 4.1773 14.358C3.93592 14.4802 3.66616 14.5347 3.3966 14.5161C2.65392 14.4041 2.18741 14.2014 1.87472 14.0642L1.856 14.056C1.78218 14.0236 1.68975 13.983 1.6064 13.9514C1.53629 13.9249 1.35318 13.8558 1.13605 13.8493C1.01232 13.8455 0.833567 13.86 0.642103 13.9475C0.438282 14.0407 0.28239 14.1884 0.1777 14.3554C0.0126135 14.6187 0.000879569 14.8894 6.04931e-05 15L0 15.0197V19C0 20.1046 0.895432 21 2 21H14C15.1046 21 16 20.1046 16 19V16.2471C16.316 16.3434 16.694 16.4348 17.1395 16.4998L17.1683 16.504L17.1973 16.5065C17.8466 16.5629 18.4988 16.4368 19.0804 16.1425C19.6619 15.8482 20.1497 15.3973 20.4889 14.8407C20.828 14.2841 21.005 13.6439 20.9999 12.9921C20.9948 12.3404 20.8078 11.703 20.4599 11.1518C20.1121 10.6005 19.6173 10.1574 19.0311 9.87228C18.445 9.58714 17.791 9.47133 17.1426 9.53789L17.1258 9.53962L17.1091 9.5419C16.6821 9.60035 16.3126 9.70732 16 9.82889V7C16 5.89543 15.1046 5 14 5H11.2275C11.3238 4.68397 11.4152 4.30601 11.4802 3.86046L11.4844 3.83169L11.4869 3.80272C11.5433 3.15338 11.4172 2.50119 11.1229 1.91963C10.8286 1.33808 10.3777 0.850252 9.82114 0.511112Z" fill="#3370FF"/>
</svg>
