<?xml version="1.0" standalone="no"?><!DOCTYPE svg PUBLIC "-//W3C//DTD SVG 1.1//EN" "http://www.w3.org/Graphics/SVG/1.1/DTD/svg11.dtd"><svg class="icon" width="200px" height="200.00px" viewBox="0 0 1024 1024" version="1.1" xmlns="http://www.w3.org/2000/svg"><path d="M915.2 1015.04H108.8a97.28 97.28 0 0 1-97.28-96.64V111.36A97.28 97.28 0 0 1 108.8 14.72h806.4a97.28 97.28 0 0 1 97.28 96.64v807.04a97.28 97.28 0 0 1-97.28 96.64zM108.8 80.64a30.72 30.72 0 0 0-30.72 30.72v807.04a30.72 30.72 0 0 0 30.72 30.72h806.4a30.72 30.72 0 0 0 30.72-30.72V111.36a30.72 30.72 0 0 0-30.72-30.72z"  /><path d="M323.84 817.28a32.64 32.64 0 0 1-32.64-33.28V245.76a33.28 33.28 0 1 1 64 0v538.24a33.28 33.28 0 0 1-31.36 33.28z"  /><path d="M323.84 638.08m-96.64 0a96.64 96.64 0 1 0 193.28 0 96.64 96.64 0 1 0-193.28 0Z" /><path d="M700.16 817.28a33.28 33.28 0 0 1-33.28-33.28V245.76a33.28 33.28 0 1 1 64 0v538.24a32.64 32.64 0 0 1-30.72 33.28z" /><path d="M700.16 391.68m-96.64 0a96.64 96.64 0 1 0 193.28 0 96.64 96.64 0 1 0-193.28 0Z"  /></svg>