<?xml version="1.0" standalone="no"?><!DOCTYPE svg PUBLIC "-//W3C//DTD SVG 1.1//EN" "http://www.w3.org/Graphics/SVG/1.1/DTD/svg11.dtd"><svg t="1718184159515" class="icon" viewBox="0 0 1024 1024" version="1.1" xmlns="http://www.w3.org/2000/svg" p-id="8867" xmlns:xlink="http://www.w3.org/1999/xlink" width="200" height="200"><path d="M51.2 238.08C51.2 176.64 97.28 128 153.6 128h716.8c56.32 0 102.4 48.64 102.4 110.08v522.24c0 61.44-46.08 110.08-102.4 110.08H153.6c-56.32 0-102.4-48.64-102.4-110.08V238.08z" fill="#FFFFFF" p-id="8868"></path><path d="M25.6 235.52C25.6 161.28 81.92 102.4 153.6 102.4h716.8c71.68 0 128 58.88 128 133.12v529.92c0 74.24-56.32 133.12-128 133.12H153.6c-71.68 0-128-58.88-128-133.12V235.52z m128-79.36c-43.52 0-76.8 35.84-76.8 79.36v529.92C76.8 808.96 110.08 844.8 153.6 844.8h716.8c43.52 0 76.8-35.84 76.8-79.36V235.52c0-43.52-33.28-79.36-76.8-79.36H153.6z" fill="#555555" p-id="8869"></path><path d="M419.84 501.76l10.24 10.24 2.56 2.56h46.08l20.48 7.68h61.44c2.56 0 23.04-5.12 35.84-7.68 2.56 0 2.56-2.56 2.56-2.56l7.68-15.36 5.12-7.68c0-2.56 2.56-2.56 5.12-2.56l15.36 2.56h2.56l35.84-15.36h28.16c2.56 0 2.56 0 5.12-2.56l2.56-2.56c2.56-2.56 0-5.12-2.56-7.68l-15.36-5.12h-2.56l-20.48 2.56c-2.56 0-7.68-2.56-5.12-7.68v-5.12-2.56l10.24-12.8 2.56-2.56 23.04-2.56c2.56 0 2.56 0 2.56-2.56l10.24-15.36h2.56c2.56-2.56 2.56-7.68 0-7.68l-2.56-2.56c-5.12-2.56-2.56-10.24 2.56-10.24l43.52-5.12h2.56l25.6 7.68c2.56 0 2.56 2.56 2.56 2.56 2.56 5.12 5.12 12.8 5.12 15.36 0 2.56 5.12 10.24 7.68 15.36l2.56 2.56 10.24 2.56h2.56l17.92 10.24c2.56 0 2.56 2.56 2.56 2.56 0 2.56 2.56 5.12 5.12 5.12h17.92l30.72-5.12c2.56 0 5.12 0 5.12 5.12v10.24c-2.56 2.56-7.68 15.36-10.24 23.04 0 2.56-2.56 2.56-2.56 2.56l-17.92 5.12-15.36 2.56c-2.56 0-5.12 2.56-5.12 5.12l-2.56 12.8c0 2.56-2.56 2.56-2.56 2.56l-20.48 10.24-12.8 5.12h-15.36-2.56l-17.92 15.36-12.8 7.68h-10.24c-2.56 0-5.12-2.56-5.12-5.12v-7.68c0-2.56-2.56-5.12-7.68-5.12l-10.24 2.56-23.04 10.24s-2.56 0-2.56 2.56l-2.56 5.12c-2.56 2.56 0 7.68 5.12 7.68l17.92-2.56h2.56c7.68 2.56 17.92 5.12 23.04 7.68 2.56 0 0 5.12-2.56 7.68h-2.56c-5.12 2.56-15.36 5.12-20.48 7.68-2.56 0-5.12 2.56-10.24 5.12-2.56 2.56-2.56 7.68 0 7.68s5.12 2.56 5.12 2.56c2.56 0 7.68 7.68 10.24 10.24v2.56l2.56 10.24 7.68 15.36v5.12c-5.12 7.68-10.24 17.92-12.8 20.48l-20.48 20.48c0 2.56-15.36 10.24-23.04 15.36l-33.28 12.8H640l-38.4 10.24-33.28-5.12-23.04-7.68h-38.4c-2.56 0-2.56 0-2.56 2.56l-7.68 7.68s-2.56 2.56-5.12 2.56l-20.48-2.56c-2.56 0-2.56-2.56-2.56-2.56l-5.12-10.24c0-2.56-2.56-2.56-2.56-2.56l-7.68-2.56c-5.12 0-5.12-5.12-2.56-7.68l5.12-5.12v-2.56l2.56-7.68v-5.12l-7.68-7.68s-2.56-2.56-5.12-2.56l-28.16 2.56h-2.56l-15.36 7.68h-2.56l-12.8 2.56h-5.12l-5.12-5.12h-2.56l-12.8-5.12h-2.56l-15.36 2.56h-2.56l-30.72-7.68h-2.56l-25.6-12.8h-2.56l-25.6-2.56-25.6-5.12c-2.56 0-2.56-2.56-2.56-2.56l-2.56-7.68v-5.12l5.12-5.12v-12.8c0-2.56-2.56-5.12-2.56-5.12l-28.16-12.8-17.92-7.68c-2.56 0-2.56-5.12-2.56-7.68v-2.56c0-2.56 0-5.12-2.56-5.12l-12.8-7.68c-2.56-2.56-2.56-5.12-2.56-7.68v-2.56l2.56-2.56 12.8-7.68h2.56l15.36 5.12h2.56l12.8-7.68 25.6-7.68s2.56 0 2.56-2.56l5.12-7.68v-5.12l-7.68-10.24c-2.56-2.56 0-7.68 2.56-7.68l15.36-5.12h10.24c2.56 0 7.68-2.56 5.12-5.12v-5.12-5.12l5.12-7.68c0-2.56 2.56-2.56 5.12-2.56l7.68 2.56h10.24c2.56 0 5.12-2.56 5.12-7.68v-2.56c0-2.56 0-5.12 2.56-5.12l10.24-7.68h2.56l12.8-2.56h2.56l17.92 10.24 15.36 10.24 2.56 2.56 2.56 5.12v5.12l-2.56 5.12v2.56c0 2.56 2.56 5.12 5.12 5.12h23.04l12.8 5.12 12.8 2.56c2.56 0 2.56 2.56 2.56 5.12v7.68z" fill="#428BF9" opacity=".5" p-id="8870"></path><path d="M419.84 578.56l10.24 10.24 2.56 2.56h46.08l20.48 7.68h61.44c2.56 0 23.04-5.12 35.84-7.68 2.56 0 2.56-2.56 2.56-2.56l7.68-15.36 5.12-7.68c0-2.56 2.56-2.56 5.12-2.56l15.36 2.56h2.56l35.84-15.36h28.16c2.56 0 2.56 0 5.12-2.56l2.56-2.56c2.56-2.56 0-5.12-2.56-7.68l-15.36-5.12h-2.56l-20.48 2.56c-2.56 0-7.68-2.56-5.12-7.68v-5.12-2.56l10.24-12.8 2.56-2.56 23.04-2.56c2.56 0 2.56 0 2.56-2.56l10.24-15.36h2.56c2.56-2.56 2.56-7.68 0-7.68l-2.56-2.56c-5.12-2.56-2.56-10.24 2.56-10.24l43.52-5.12h2.56l25.6 7.68c2.56 0 2.56 2.56 2.56 2.56 2.56 5.12 5.12 12.8 5.12 15.36 0 2.56 5.12 10.24 7.68 15.36l2.56 2.56 10.24 2.56h2.56l17.92 10.24c2.56 0 2.56 2.56 2.56 2.56 0 2.56 2.56 5.12 5.12 5.12h17.92l30.72-5.12c2.56 0 5.12 0 5.12 5.12v10.24c-2.56 2.56-7.68 15.36-10.24 23.04 0 2.56-2.56 2.56-2.56 2.56l-17.92 5.12-15.36 2.56c-2.56 0-5.12 2.56-5.12 5.12l-2.56 12.8c0 2.56-2.56 2.56-2.56 2.56l-20.48 10.24-12.8 5.12h-15.36-2.56l-17.92 15.36-12.8 7.68h-10.24c-2.56 0-5.12-2.56-5.12-5.12v-7.68c0-2.56-2.56-5.12-7.68-5.12l-10.24 2.56-23.04 10.24s-2.56 0-2.56 2.56l-2.56 5.12c-2.56 2.56 0 7.68 5.12 7.68l17.92-2.56h2.56c7.68 2.56 17.92 5.12 23.04 7.68 2.56 0 0 5.12-2.56 7.68h-2.56c-5.12 2.56-15.36 5.12-20.48 7.68-2.56 0-5.12 2.56-10.24 5.12-2.56 2.56-2.56 7.68 0 7.68s5.12 2.56 5.12 2.56c2.56 0 7.68 7.68 10.24 10.24v2.56l2.56 10.24 7.68 15.36v5.12c-5.12 7.68-10.24 17.92-12.8 20.48l-20.48 20.48c0 2.56-15.36 10.24-23.04 15.36l-33.28 12.8H640l-38.4 10.24-33.28-5.12-23.04-7.68h-38.4c-2.56 0-2.56 0-2.56 2.56l-7.68 7.68s-2.56 2.56-5.12 2.56l-20.48-2.56c-2.56 0-2.56-2.56-2.56-2.56l-5.12-10.24c0-2.56-2.56-2.56-2.56-2.56l-7.68-2.56c-5.12 0-5.12-5.12-2.56-7.68l5.12-5.12v-2.56l2.56-7.68v-5.12l-7.68-7.68s-2.56-2.56-5.12-2.56l-28.16 2.56h-2.56l-15.36 7.68h-2.56l-12.8 2.56h-5.12l-5.12-5.12h-2.56l-12.8-5.12h-2.56l-15.36 2.56h-2.56l-30.72-7.68h-2.56l-25.6-12.8h-2.56l-25.6-2.56-25.6-5.12c-2.56 0-2.56-2.56-2.56-2.56l-2.56-7.68v-5.12l5.12-5.12v-12.8c0-2.56-2.56-5.12-2.56-5.12l-28.16-12.8-17.92-7.68c-2.56 0-2.56-5.12-2.56-7.68v-2.56c0-2.56 0-5.12-2.56-5.12l-12.8-7.68c-2.56-2.56-2.56-5.12-2.56-7.68v-2.56l2.56-2.56 12.8-7.68h2.56l15.36 5.12h2.56l12.8-7.68 25.6-7.68s2.56 0 2.56-2.56l5.12-7.68v-5.12l-7.68-10.24c-2.56-2.56 0-7.68 2.56-7.68l15.36-5.12h10.24c2.56 0 7.68-2.56 5.12-5.12v-5.12-5.12l5.12-7.68c0-2.56 2.56-2.56 5.12-2.56l7.68 2.56h10.24c2.56 0 5.12-2.56 5.12-7.68v-2.56c0-2.56 0-5.12 2.56-5.12l10.24-7.68h2.56l12.8-2.56h2.56l17.92 10.24 15.36 10.24 2.56 2.56 2.56 5.12v5.12l-2.56 5.12v2.56c0 2.56 2.56 5.12 5.12 5.12h23.04l12.8 5.12 12.8 2.56c2.56 0 2.56 2.56 2.56 5.12v7.68z" fill="#428BF9" opacity=".5" p-id="8871"></path><path d="M302.08 340.48c7.68-43.52 43.52-69.12 87.04-69.12 51.2 0 89.6 33.28 89.6 84.48 0 25.6-7.68 40.96-20.48 51.2-2.56 2.56-7.68 5.12-12.8 7.68 5.12 2.56 7.68 5.12 12.8 7.68 15.36 12.8 25.6 30.72 25.6 58.88 0 58.88-43.52 87.04-92.16 87.04-43.52 0-84.48-20.48-92.16-74.24v-12.8h53.76c0 25.6 17.92 38.4 40.96 38.4 23.04 0 38.4-15.36 38.4-40.96 0-23.04-15.36-40.96-40.96-40.96H384v-46.08h7.68c25.6 0 35.84-15.36 35.84-35.84 0-25.6-15.36-38.4-35.84-38.4-20.48 0-35.84 12.8-35.84 35.84h-53.76v-12.8z m166.4 71.68c5.12 5.12 10.24 10.24 15.36 17.92 7.68 12.8 12.8 28.16 12.8 48.64 0 33.28-12.8 58.88-33.28 74.24-20.48 17.92-46.08 25.6-74.24 25.6-25.6 0-51.2-7.68-71.68-23.04-20.48-15.36-33.28-40.96-33.28-76.8v-12.8h79.36v12.8c0 10.24 2.56 15.36 7.68 20.48 5.12 2.56 10.24 5.12 17.92 5.12 7.68 0 15.36-2.56 20.48-7.68 5.12-5.12 7.68-10.24 7.68-20.48s-2.56-15.36-7.68-20.48c-5.12-5.12-10.24-7.68-20.48-7.68h-20.48v-71.68h20.48c10.24 0 15.36-2.56 17.92-5.12 2.56-2.56 5.12-10.24 5.12-17.92 0-10.24-2.56-15.36-7.68-17.92-2.56-2.56-10.24-5.12-15.36-5.12-7.68 0-12.8 2.56-15.36 5.12-2.56 2.56-7.68 10.24-7.68 17.92v12.8h-79.36v-12.8c0-28.16 12.8-53.76 30.72-69.12 17.92-17.92 43.52-25.6 71.68-25.6 58.88 0 102.4 38.4 102.4 97.28 0 17.92-5.12 33.28-10.24 43.52l-12.8 12.8z m56.32-153.6h117.76c33.28 0 64 10.24 87.04 30.72 33.28 33.28 33.28 76.8 33.28 115.2v20.48c0 38.4 0 81.92-33.28 117.76-23.04 23.04-53.76 30.72-87.04 30.72h-117.76V258.56zM642.56 563.2c30.72 0 58.88-7.68 76.8-28.16 30.72-30.72 30.72-69.12 30.72-107.52v-10.24-10.24c0-38.4 0-76.8-30.72-104.96-20.48-20.48-46.08-28.16-76.8-28.16H537.6V563.2h104.96z m35.84-97.28c2.56-10.24 2.56-25.6 2.56-48.64 0-23.04 0-35.84-2.56-48.64-2.56-10.24-5.12-15.36-7.68-20.48-7.68-7.68-15.36-12.8-33.28-12.8h-30.72v163.84h30.72c15.36 0 25.6-5.12 33.28-12.8 2.56-5.12 5.12-10.24 7.68-20.48z m2.56 28.16c10.24-12.8 12.8-33.28 12.8-79.36s-2.56-61.44-12.8-76.8c-10.24-12.8-23.04-17.92-43.52-17.92h-43.52V512h43.52c20.48 0 33.28-5.12 43.52-17.92z" fill="#FFFFFF" p-id="8872"></path><path d="M483.84 478.72c0-35.84-17.92-56.32-38.4-66.56 20.48-10.24 33.28-28.16 33.28-58.88 0-48.64-38.4-84.48-89.6-84.48-48.64 0-87.04 30.72-89.6 81.92h53.76c0-23.04 15.36-35.84 35.84-35.84 20.48 0 35.84 12.8 35.84 38.4 0 20.48-10.24 35.84-35.84 35.84h-7.68V435.2h7.68c25.6 0 40.96 15.36 40.96 40.96s-15.36 40.96-38.4 40.96c-20.48 0-38.4-12.8-40.96-38.4h-53.76c0 61.44 46.08 87.04 92.16 87.04 53.76 0 94.72-28.16 94.72-87.04zM750.08 417.28c0-43.52 2.56-84.48-30.72-117.76-20.48-20.48-46.08-28.16-76.8-28.16H537.6V563.2h104.96c30.72 0 58.88-7.68 76.8-28.16 33.28-33.28 30.72-74.24 30.72-117.76z m-56.32 0c0 43.52-2.56 64-12.8 79.36-10.24 12.8-23.04 17.92-43.52 17.92h-43.52v-189.44h43.52c20.48 0 33.28 5.12 43.52 17.92 10.24 10.24 12.8 28.16 12.8 74.24z" fill="#F9AE55" p-id="8873"></path></svg>