<svg width="80" height="56" viewBox="0 0 80 56" xmlns="http://www.w3.org/2000/svg">
  <path fill-rule="evenodd" clip-rule="evenodd" d="M7 2.00391V53.0016V54.0016H4V2.00391H7Z" />
  <path d="M9.5 14C9.22386 14 9 13.7761 9 13.5V6.5C9 6.22386 9.22386 6 9.5 6L71.5 6C71.7761 6 72 6.22386 72 6.5V13.5C72 13.7761 71.7761 14 71.5 14L9.5 14Z" />
  <path d="M9.5 26C9.22386 26 9 25.7761 9 25.5V18.5C9 18.2239 9.22386 18 9.5 18H71.5C71.7761 18 72 18.2239 72 18.5V25.5C72 25.7761 71.7761 26 71.5 26L9.5 26Z" />
  <path d="M9.5 38C9.22386 38 9 37.7761 9 37.5V30.5C9 30.2239 9.22386 30 9.5 30H71.5C71.7761 30 72 30.2239 72 30.5V37.5C72 37.7761 71.7761 38 71.5 38H9.5Z" />
  <path d="M9.5 50C9.22386 50 9 49.7761 9 49.5V42.5C9 42.2239 9.22386 42 9.5 42H71.5C71.7761 42 72 42.2239 72 42.5V49.5C72 49.7761 71.7761 50 71.5 50H9.5Z" />
  <path d="M9.5 14C9.22386 14 9 13.7761 9 13.5V6.5C9 6.22386 9.22386 6 9.5 6L59.5 6C59.7761 6 60 6.22386 60 6.5V13.5C60 13.7761 59.7761 14 59.5 14L9.5 14Z" />
  <path d="M9.5 26C9.22386 26 9 25.7761 9 25.5V18.5C9 18.2239 9.22386 18 9.5 18H46.5C46.7761 18 47 18.2239 47 18.5V25.5C47 25.7761 46.7761 26 46.5 26H9.5Z" />
  <path d="M9.5 38C9.22386 38 9 37.7761 9 37.5V30.5C9 30.2239 9.22386 30 9.5 30H37.5C37.7761 30 38 30.2239 38 30.5V37.5C38 37.7761 37.7761 38 37.5 38H9.5Z" />
  <path d="M9.5 50C9.22386 50 9 49.7761 9 49.5V42.5C9 42.2239 9.22386 42 9.5 42H21.5C21.7761 42 22 42.2239 22 42.5V49.5C22 49.7761 21.7761 50 21.5 50H9.5Z" />
</svg>
