<svg width="80" height="56" viewBox="0 0 80 56" fill="none" xmlns="http://www.w3.org/2000/svg">
<path fill-rule="evenodd" clip-rule="evenodd" d="M10.2883 27.5003C10.1096 27.8097 10.1096 28.1909 10.2883 28.5003L24.7109 53.4811C24.8896 53.7905 25.2197 53.9811 25.5769 53.9811H54.4222C54.7795 53.9811 55.1096 53.7905 55.2883 53.4811L69.7109 28.5003C69.8896 28.1909 69.8896 27.8097 69.7109 27.5003L55.2883 2.51953C55.1096 2.21013 54.7795 2.01953 54.4222 2.01953H25.5769C25.2197 2.01953 24.8896 2.21013 24.7109 2.51953L10.2883 27.5003ZM11.4411 27.5035L39.1322 27.5011L25.2557 3.57603L11.4411 27.5035ZM39.212 28.5011L11.4448 28.5035L25.2565 52.426L39.212 28.5011ZM40.8681 28.5009L68.5573 28.4985L54.7437 52.4243L40.8681 28.5009ZM68.5552 27.4985L40.9531 27.5009L54.8256 3.71824L68.5552 27.4985ZM53.9106 52.9811H26.0905L40.04 29.0663L53.9106 52.9811ZM26.0889 3.01953H54.0755L40.0425 27.0774L26.0889 3.01953Z" fill="#434343"/>
<path fill-rule="evenodd" clip-rule="evenodd" d="M25.5769 2.26953C25.309 2.26953 25.0614 2.41248 24.9274 2.64453L10.5048 27.6253C10.3708 27.8573 10.3708 28.1432 10.5048 28.3753L24.9274 53.3561C25.0614 53.5881 25.309 53.7311 25.5769 53.7311H54.4222C54.6902 53.7311 54.9378 53.5881 55.0718 53.3561L69.4944 28.3753C69.6284 28.1432 69.6284 27.8573 69.4944 27.6253L55.0718 2.64453C54.9378 2.41248 54.6902 2.26953 54.4222 2.26953H25.5769ZM24.4944 2.39453C24.7177 2.00778 25.1304 1.76953 25.5769 1.76953H54.4222C54.8688 1.76953 55.2815 2.00778 55.5048 2.39453L69.9274 27.3753C70.1507 27.762 70.1507 28.2385 69.9274 28.6253L55.5048 53.6061C55.2815 53.9928 54.8688 54.2311 54.4222 54.2311H25.5769C25.1304 54.2311 24.7177 53.9928 24.4944 53.6061L10.0718 28.6253C9.84847 28.2385 9.84847 27.762 10.0718 27.3753L24.4944 2.39453ZM25.6549 2.76953H54.5108L40.0419 27.5746L25.6549 2.76953ZM26.5229 3.26953L40.0431 26.5802L53.6403 3.26953H26.5229ZM25.2552 3.07689L39.5662 27.7511L11.0081 27.7536L25.2552 3.07689ZM54.8268 3.22016L68.9882 27.7484L40.5178 27.751L54.8268 3.22016ZM25.2561 4.07517L11.8741 27.2535L38.6982 27.2511L25.2561 4.07517ZM41.3884 27.2509L68.1222 27.2485L54.8245 4.21632L41.3884 27.2509ZM68.9903 28.2484L54.7442 52.9235L40.4341 28.251L68.9903 28.2484ZM41.3021 28.7509L54.7432 51.9252L68.1242 28.7485L41.3021 28.7509ZM39.6473 28.251L25.2554 52.9241L11.0119 28.2536L39.6473 28.251ZM11.8778 28.7535L25.2576 51.928L38.7768 28.7511L11.8778 28.7535ZM40.0406 28.5691L54.3446 53.2311H25.6552L26.9346 51.0378L27.0582 50.8218L27.0599 50.8228L40.0406 28.5691ZM27.242 51.5031L27.3701 51.5764L27.6185 51.1425L27.4939 51.0712L40.0394 29.5635L53.4766 52.7311H26.5257L27.242 51.5031Z" fill="#434343"/>
<path d="M61.3238 28.2605C61.4315 28.1013 61.4384 27.8944 61.3416 27.7284L51.1267 10.2172C51.047 10.0806 50.9073 9.9897 50.75 9.97223L28.9078 7.54531C28.6707 7.51897 28.4481 7.66376 28.376 7.89113L22.0437 27.8621C22.0152 27.9522 22.0127 28.0485 22.0366 28.1399L27.3831 48.5536C27.4491 48.8057 27.6977 48.9649 27.9543 48.9192L49.7918 45.037C49.9249 45.0133 50.0427 44.9368 50.1185 44.8249L61.3238 28.2605Z" fill="#3370FF"/>
<path d="M18.6343 27.3876C18.3549 27.6574 18.4762 28.1287 18.8511 28.23L36.3672 32.9641C36.4541 32.9876 36.5331 33.0341 36.5957 33.0987L51.6411 48.6142C51.9537 48.9367 52.5 48.7153 52.5 48.2661V28.1091C52.5 28.0372 52.4845 27.9662 52.4545 27.9008L47.1193 16.2603C47.0454 16.0991 46.8916 15.989 46.7151 15.9712L32.2307 14.5077C32.0844 14.4929 31.939 14.5433 31.8332 14.6454L18.6343 27.3876Z" fill="#00D6B9"/>
</svg>
