<svg width="24" height="24" viewBox="0 0 24 24" xmlns="http://www.w3.org/2000/svg">
<path fill-rule="evenodd" clip-rule="evenodd" d="M18.0679 1.93429L23.3836 11.1414C23.5388 11.4101 23.5388 11.7412 23.3836 12.0099L23.177 11.8906L23.3836 12.0099L18.0679 21.217C17.9128 21.4858 17.626 21.6513 17.3157 21.6513H6.68428C6.37398 21.6513 6.08724 21.4858 5.93208 21.217L0.616366 12.0099C0.461212 11.7412 0.461211 11.4101 0.616366 11.1414L5.93208 1.93428C6.08724 1.66555 6.37397 1.5 6.68428 1.5H17.3157C17.5999 1.5 17.8643 1.63881 18.0259 1.86857H18.0584L18.0434 1.89433M6.56686 3.57196L2.34034 10.8925L10.8123 10.8917L6.56686 3.57196ZM2.34164 12.2611L6.5684 19.582L10.8392 12.2603L2.34164 12.2611ZM7.80499 20.2828H16.2591L12.0137 12.963L7.95032 19.9291L7.9933 19.9537L7.80499 20.2828ZM17.4332 19.5793L21.6594 12.2594L13.1881 12.2601L17.4332 19.5793ZM21.6587 10.8908L17.4622 3.62225L13.222 10.8915L21.6587 10.8908ZM16.3174 2.86857H7.74099L12.017 10.241L16.3174 2.86857Z" />
<path d="M19.6824 11.8466C19.7901 11.6874 19.797 11.4805 19.7002 11.3145L16.1476 5.22423C16.0678 5.08757 15.9281 4.9967 15.7709 4.97923L8.20477 4.13855C7.9677 4.11221 7.74504 4.257 7.67294 4.48437L5.46489 11.4482C5.43633 11.5383 5.43388 11.6346 5.45782 11.726L7.31455 18.8154C7.38058 19.0675 7.62917 19.2266 7.88575 19.181L15.4472 17.8367C15.5802 17.813 15.6981 17.7365 15.7738 17.6246L19.6824 11.8466Z"/>
</svg>
