<svg width="16" height="16" viewBox="0 0 16 16" xmlns="http://www.w3.org/2000/svg">
<path fill-rule="evenodd" clip-rule="evenodd" d="M11 11.333H14.2393C14.3879 11.333 14.4418 11.3485 14.4961 11.3775C14.5505 11.4066 14.5931 11.4492 14.6221 11.5035C14.6512 11.5579 14.6667 11.6117 14.6667 11.7603V12.239C14.6667 12.3876 14.6512 12.4415 14.6221 12.4958C14.5931 12.5501 14.5505 12.5928 14.4961 12.6218C14.4418 12.6509 14.3879 12.6663 14.2393 12.6663H11V14.239C11 14.3876 10.9845 14.4415 10.9555 14.4958C10.9264 14.5501 10.8838 14.5928 10.8295 14.6218C10.7751 14.6509 10.7213 14.6663 10.5727 14.6663H10.094C9.94539 14.6663 9.89151 14.6509 9.83719 14.6218C9.78287 14.5928 9.74024 14.5501 9.71118 14.4958C9.68213 14.4415 9.66666 14.3876 9.66666 14.239V12.6663H1.76064C1.61206 12.6663 1.55817 12.6509 1.50385 12.6218C1.44953 12.5928 1.4069 12.5501 1.37785 12.4958C1.3488 12.4415 1.33333 12.3876 1.33333 12.239V11.7603C1.33333 11.6117 1.3488 11.5579 1.37785 11.5035C1.4069 11.4492 1.44953 11.4066 1.50385 11.3775C1.55817 11.3485 1.61206 11.333 1.76064 11.333H9.66666V9.76032C9.66666 9.61174 9.68213 9.55785 9.71118 9.50353C9.74024 9.44921 9.78287 9.40658 9.83719 9.37753C9.89151 9.34848 9.94539 9.33301 10.094 9.33301H10.5727C10.7213 9.33301 10.7751 9.34848 10.8295 9.37753C10.8838 9.40658 10.9264 9.44921 10.9555 9.50353C10.9845 9.55785 11 9.61174 11 9.76032V11.333ZM4.99999 3.33301V1.76032C4.99999 1.61174 5.01547 1.55785 5.04452 1.50353C5.07357 1.44921 5.1162 1.40658 5.17052 1.37753C5.22484 1.34848 5.27872 1.33301 5.42731 1.33301H5.90601C6.0546 1.33301 6.10848 1.34848 6.1628 1.37753C6.21712 1.40658 6.25976 1.44921 6.28881 1.50353C6.31786 1.55785 6.33333 1.61174 6.33333 1.76032V3.33301H14.2393C14.3879 3.33301 14.4418 3.34848 14.4961 3.37753C14.5505 3.40658 14.5931 3.44921 14.6221 3.50353C14.6512 3.55785 14.6667 3.61174 14.6667 3.76032V4.23903C14.6667 4.38761 14.6512 4.44149 14.6221 4.49582C14.5931 4.55014 14.5505 4.59277 14.4961 4.62182C14.4418 4.65087 14.3879 4.66634 14.2393 4.66634H6.33333V6.23903C6.33333 6.38761 6.31786 6.44149 6.28881 6.49582C6.25976 6.55014 6.21712 6.59277 6.1628 6.62182C6.10848 6.65087 6.0546 6.66634 5.90601 6.66634H5.42731C5.27872 6.66634 5.22484 6.65087 5.17052 6.62182C5.1162 6.59277 5.07357 6.55014 5.04452 6.49582C5.01547 6.44149 4.99999 6.38761 4.99999 6.23903V4.66634H1.76064C1.61206 4.66634 1.55817 4.65087 1.50385 4.62182C1.44953 4.59277 1.4069 4.55014 1.37785 4.49582C1.3488 4.44149 1.33333 4.38761 1.33333 4.23903V3.76032C1.33333 3.61174 1.3488 3.55785 1.37785 3.50353C1.4069 3.44921 1.44953 3.40658 1.50385 3.37753C1.55817 3.34848 1.61206 3.33301 1.76064 3.33301H4.99999Z" fill="#1F2329"/>
</svg>
