<svg width="16" height="16" viewBox="0 0 16 16" xmlns="http://www.w3.org/2000/svg">
<path fill-rule="evenodd" clip-rule="evenodd" d="M3.15156 1.33301C2.1474 1.33301 1.33337 2.14703 1.33337 3.15119V12.8482C1.33337 13.8523 2.1474 14.6663 3.15155 14.6663H12.8485C13.8527 14.6663 14.6667 13.8523 14.6667 12.8482V3.15119C14.6667 2.14704 13.8527 1.33301 12.8485 1.33301H3.15156ZM13.3334 2.66634H2.66671V5.33301H5.33337H6.66671H9.33337H10.6667H13.3334V2.66634ZM2.66671 9.33301V6.66634H5.33337V9.33301H2.66671ZM2.66671 10.6663V13.333L5.33337 13.333V10.6663H2.66671ZM6.66671 10.6663V13.333H9.33337V10.6663H6.66671ZM10.6667 10.6663V13.333L13.3334 13.333V10.6663H10.6667ZM13.3334 9.33301V6.66634H10.6667V9.33301H13.3334ZM9.33337 9.33301H6.66671V6.66634H9.33337V9.33301Z"/>
</svg>
