<svg width="16" height="16" viewBox="0 0 16 16" xmlns="http://www.w3.org/2000/svg">
<g clip-path="url(#clip0_4476_153334)">
<path fill-rule="evenodd" clip-rule="evenodd" d="M7.99984 1.66699C11.4976 1.66699 14.3332 4.50261 14.3332 8.00033C14.3332 11.498 11.4976 14.3337 7.99984 14.3337C4.50212 14.3337 1.6665 11.498 1.6665 8.00033C1.6665 4.50261 4.50212 1.66699 7.99984 1.66699ZM7.99984 0.666992C12.0498 0.666992 15.3332 3.95033 15.3332 8.00033C15.3332 12.0503 12.0498 15.3337 7.99984 15.3337C3.94984 15.3337 0.666504 12.0503 0.666504 8.00033C0.666504 3.95033 3.94984 0.666992 7.99984 0.666992ZM6.85744 11.4096L11.4714 8.50657C11.5568 8.45249 11.6271 8.37772 11.6758 8.2892C11.7245 8.20069 11.75 8.1013 11.75 8.00027C11.75 7.89924 11.7245 7.79985 11.6758 7.71133C11.6271 7.62282 11.5568 7.54804 11.4714 7.49397L6.85764 4.59117C6.76324 4.53177 6.65444 4.50037 6.54324 4.50037C6.46511 4.50063 6.38779 4.51628 6.3157 4.54642C6.24361 4.57657 6.17816 4.62061 6.1231 4.67605C6.06803 4.73149 6.02443 4.79723 5.99477 4.86952C5.96511 4.94181 5.94998 5.01923 5.95024 5.09737V10.9036C5.95031 11.0152 5.98155 11.1247 6.04044 11.2196C6.0814 11.2859 6.13508 11.3435 6.1984 11.389C6.26172 11.4345 6.33342 11.4671 6.40937 11.4847C6.48532 11.5024 6.56402 11.5048 6.64092 11.4919C6.71782 11.479 6.79141 11.451 6.85744 11.4096Z"/>
</g>
<defs>
<clipPath id="clip0_4476_153334">
<rect width="16" height="16"/>
</clipPath>
</defs>
</svg>
