<svg width="19" height="20" viewBox="0 0 19 20" fill="" xmlns="http://www.w3.org/2000/svg">
<path d="M15.4224 1.07745C15.5787 1.23373 15.6665 1.44569 15.6665 1.66671V8.33337H13.9998V2.50004H2.33317V17.5H6.49984V19.1667H1.49984C1.27882 19.1667 1.06686 19.0789 0.910582 18.9226C0.754301 18.7663 0.666504 18.5544 0.666504 18.3334V1.66671C0.666504 1.44569 0.754301 1.23373 0.910582 1.07745C1.06686 0.921172 1.27882 0.833374 1.49984 0.833374H14.8332C15.0542 0.833374 15.2661 0.921172 15.4224 1.07745Z" fill=""/>
<path d="M4.4165 5.00004C4.18638 5.00004 3.99984 5.18659 3.99984 5.41671V6.25004C3.99984 6.48016 4.18639 6.66671 4.4165 6.66671H11.9165C12.1466 6.66671 12.3332 6.48016 12.3332 6.25004V5.41671C12.3332 5.18659 12.1466 5.00004 11.9165 5.00004H4.4165Z" fill=""/>
<path d="M3.99984 8.75004C3.99984 8.51992 4.18638 8.33337 4.4165 8.33337H7.74984C7.97996 8.33337 8.1665 8.51992 8.1665 8.75004V9.58337C8.1665 9.81349 7.97996 10 7.74984 10H4.4165C4.18638 10 3.99984 9.81349 3.99984 9.58337V8.75004Z" fill=""/>
<path d="M13.8187 14.3479H15.3495C15.4646 14.3479 15.5578 14.4411 15.5578 14.5562V15.4439C15.5578 15.5589 15.4646 15.6522 15.3495 15.6522H12.7227C12.6076 15.6522 12.5143 15.5589 12.5143 15.4439V12.8171C12.5143 12.702 12.6076 12.6087 12.7227 12.6087H13.6104C13.7254 12.6087 13.8187 12.702 13.8187 12.8171V14.3479Z" fill=""/>
<path fill-rule="evenodd" clip-rule="evenodd" d="M8.1665 15C8.1665 17.7613 10.4052 20 13.1665 20C15.9278 20 18.1665 17.7613 18.1665 15C18.1665 12.2387 15.9278 10 13.1665 10C10.4052 10 8.1665 12.2387 8.1665 15ZM15.5235 17.3571C14.8984 17.9822 14.0506 18.3334 13.1665 18.3334C12.2825 18.3334 11.4346 17.9822 10.8095 17.3571C10.1844 16.7319 9.83317 15.8841 9.83317 15C9.83317 14.116 10.1844 13.2681 10.8095 12.643C11.4346 12.0179 12.2825 11.6667 13.1665 11.6667C14.0506 11.6667 14.8984 12.0179 15.5235 12.643C16.1487 13.2681 16.4998 14.116 16.4998 15C16.4998 15.8841 16.1487 16.7319 15.5235 17.3571Z" fill=""/>
</svg>
