<svg width="80" height="56" viewBox="0 0 80 56" fill="none" xmlns="http://www.w3.org/2000/svg">
<path fill-rule="evenodd" clip-rule="evenodd" d="M28.3338 18.4694H24.211L16.8232 37.6506H21.3537L23.0087 33.1054H29.5114L31.1664 37.6506H44.3748C46.3324 37.6506 47.9619 37.2923 49.1753 36.4834L49.1813 36.4795L49.1872 36.4754C50.6435 35.4648 51.347 33.9196 51.347 31.9382C51.347 30.6255 51.0175 29.4712 50.2805 28.5806C49.9068 28.1291 49.4474 27.7684 48.9179 27.4904C49.2123 27.2492 49.474 26.9779 49.7048 26.678L49.7131 26.6671L49.7211 26.656C50.3232 25.813 50.6059 24.8097 50.6059 23.6877C50.6059 22.127 50.0548 20.8395 48.9246 19.8871C47.7523 18.8913 46.2175 18.4694 44.3748 18.4694H35.55V37.2051L28.3338 18.4694ZM28.1328 29.3383H24.3905L26.2695 24.238L28.1328 29.3383ZM45.8543 22.6929L45.8632 22.6997L45.8722 22.7063C46.1545 22.9116 46.3695 23.2792 46.3695 24.0088C46.3695 24.7921 46.15 25.2261 45.8458 25.4795C45.5022 25.7399 44.8244 25.9541 43.6584 25.9541H39.7864V22.2364H43.7078C44.8481 22.2364 45.5197 22.4343 45.8543 22.6929ZM47.1106 31.8888C47.1106 32.6403 46.8244 33.1185 46.2918 33.44C45.7975 33.7019 45.0504 33.8835 44.0043 33.8835H39.7864V29.6965H44.0784C45.3057 29.6965 46.0612 29.915 46.4767 30.2308C46.8448 30.5105 47.1106 31.0099 47.1106 31.8888Z" fill="#3370FF"/>
<path fill-rule="evenodd" clip-rule="evenodd" d="M64.1992 33.8505L63.6781 33.2783C64.3971 32.718 64.9383 31.8495 65.2532 30.59L65.3994 30.0053H69.5555L69.3785 30.9233C68.9537 33.1272 67.9566 34.9055 66.3361 36.1969L65.8153 35.625C65.8149 35.6252 65.8146 35.6255 65.8143 35.6258L66.3349 36.1979C64.8266 37.404 63.0222 37.9964 60.9629 37.9964C57.8942 37.9964 55.4751 36.9907 53.84 34.9417C52.4117 33.182 51.7675 30.8662 51.7675 28.0847C51.7675 25.339 52.4428 23.0301 53.9122 21.2054C55.5691 19.1085 57.9377 18.1235 60.9382 18.1235C63.121 18.1235 65.0109 18.678 66.5134 19.9018C67.961 21.0717 68.8388 22.684 69.1366 24.6333L69.2723 25.5218H65.1524L65.0062 24.9371C64.745 23.8924 64.2668 23.185 63.6181 22.7461C62.9382 22.2862 62.0633 22.0388 60.8888 22.0388C59.1802 22.0388 58.002 22.6028 57.2123 23.6759L57.2072 23.6828L57.202 23.6896C56.4271 24.6949 56.0039 26.137 56.0039 28.0847C56.0039 30.1122 56.4296 31.5529 57.1787 32.531L57.1805 32.5333C57.9342 33.5251 59.1306 34.0811 60.9382 34.0811C62.093 34.0811 63.0026 33.7939 63.6781 33.2783L64.1992 33.8505C64.1993 33.8504 64.1992 33.8506 64.1992 33.8505ZM60.889 21.2669C60.8889 21.2669 60.889 21.2669 60.889 21.2669V21.2669Z" fill="#3370FF"/>
<path d="M14.7452 17.9658H15.8443V22.8464C15.8443 23.6531 15.6729 24.2582 15.3401 24.6615C14.9569 25.085 14.3519 25.3069 13.525 25.3069C12.8091 25.3069 12.2645 25.1052 11.9015 24.7119C11.5183 24.3086 11.3267 23.764 11.3267 23.0582V22.8162H12.4259V23.0481C12.4259 23.9052 12.799 24.3388 13.5452 24.3388C13.9687 24.3388 14.2712 24.2077 14.4628 23.9657C14.6443 23.7237 14.7452 23.3405 14.7452 22.8061V17.9658Z" fill="#00D6B9"/>
<path d="M15.5781 27.3774H16.9697L13.7831 30.4732L17.4335 34.5773H15.9613L13.0369 31.1891L12.0991 32.0866V34.5773H11V27.3774H12.0991V30.8564L15.5781 27.3774Z" fill="#00D6B9"/>
<path d="M12.9893 40.4277H14.5502L17.5633 47.3493H17.5996L20.6006 40.4277H22.1616V49.0676H20.8426V42.8962H20.7942L18.1441 49.0676H17.0067L14.3566 42.8962H14.3082V49.0676H12.9893V40.4277Z" fill="#3370FF"/>
<path d="M23.8609 40.4277H25.192L29.6087 46.8532H29.6571V40.4277H30.9761V49.0676H29.6934L25.2283 42.5695H25.1799V49.0676H23.8609V40.4277Z" fill="#3370FF"/>
<path d="M36.5003 40.2583C37.8071 40.2583 38.8478 40.6818 39.6101 41.541C40.3362 42.3517 40.6992 43.4287 40.6992 44.7597C40.6992 46.0787 40.3362 47.1436 39.6101 47.9664C38.8478 48.8135 37.8071 49.237 36.5003 49.237C35.1813 49.237 34.1406 48.8014 33.3904 47.9543C32.6643 47.1315 32.3134 46.0666 32.3134 44.7597C32.3134 43.4408 32.6643 42.3759 33.3904 41.5531C34.1406 40.6818 35.1813 40.2583 36.5003 40.2583ZM36.5003 41.42C35.5806 41.42 34.8667 41.7225 34.3584 42.3517C33.8744 42.9446 33.6324 43.7433 33.6324 44.7597C33.6324 45.7641 33.8744 46.5627 34.3584 47.1557C34.8667 47.7607 35.5806 48.0753 36.5003 48.0753C37.4199 48.0753 38.1338 47.7728 38.63 47.1799C39.114 46.599 39.3681 45.7883 39.3681 44.7597C39.3681 43.7191 39.114 42.9083 38.63 42.3154C38.1338 41.7104 37.4199 41.42 36.5003 41.42Z" fill="#3370FF"/>
<path d="M42.0355 40.4277H45.6173C47.6744 40.4277 48.703 41.299 48.703 43.0536C48.703 44.8202 47.6623 45.7036 45.5931 45.7036H43.3545V49.0676H42.0355V40.4277ZM43.3545 41.5531V44.5782H45.5084C46.1619 44.5782 46.6338 44.4572 46.9363 44.2152C47.2267 43.9732 47.384 43.586 47.384 43.0536C47.384 42.5211 47.2267 42.1339 46.9242 41.9161C46.6217 41.6741 46.1498 41.5531 45.5084 41.5531H43.3545Z" fill="#3370FF"/>
<path d="M53.7531 40.2583C55.06 40.2583 56.1007 40.6818 56.863 41.541C57.589 42.3517 57.9521 43.4287 57.9521 44.7597C57.9521 46.0545 57.6011 47.1073 56.8993 47.9301C57.2139 48.3536 57.5406 48.7893 57.8553 49.2491L57.0082 49.9993C56.6815 49.5274 56.3669 49.0797 56.0523 48.6561C55.4109 49.0434 54.6486 49.237 53.7531 49.237C52.4342 49.237 51.3935 48.8014 50.6433 47.9543C49.9172 47.1315 49.5663 46.0666 49.5663 44.7597C49.5663 43.4408 49.9172 42.3759 50.6433 41.5531C51.3935 40.6818 52.4342 40.2583 53.7531 40.2583ZM53.7531 41.42C52.8335 41.42 52.1195 41.7225 51.6113 42.3517C51.1273 42.9446 50.8853 43.7433 50.8853 44.7597C50.8853 45.7641 51.1273 46.5627 51.6113 47.1557C52.1195 47.7607 52.8335 48.0753 53.7531 48.0753C54.3582 48.0753 54.8785 47.9422 55.302 47.6881C54.8664 47.1436 54.4308 46.6474 54.0072 46.1997L54.7696 45.4495C55.2052 45.9093 55.6408 46.4054 56.0765 46.9137C56.4395 46.357 56.621 45.6431 56.621 44.7597C56.621 43.7191 56.3669 42.9083 55.8828 42.3154C55.3867 41.7104 54.6728 41.42 53.7531 41.42Z" fill="#3370FF"/>
<path d="M59.2884 40.4277H63.1122C63.9835 40.4277 64.6853 40.6213 65.1935 41.0206C65.726 41.4563 65.9922 42.0734 65.9922 42.8962C65.9922 43.3561 65.8712 43.7554 65.6292 44.1063C65.3508 44.4935 64.9757 44.7476 64.5038 44.8686V44.8928C65.2782 45.0623 65.7018 45.5705 65.7986 46.4175L65.9438 47.797C65.9922 48.3294 66.1616 48.753 66.452 49.0676H65.0241C64.8184 48.8014 64.6974 48.4141 64.649 47.9301L64.5401 46.8532C64.4917 46.3691 64.3344 46.0303 64.0803 45.8125C63.8141 45.5947 63.4389 45.4979 62.9428 45.4979H60.6074V49.0676H59.2884V40.4277ZM60.6074 41.5531V44.3725H62.9428C63.5236 44.3725 63.9593 44.2394 64.2497 43.9974C64.528 43.7554 64.6732 43.4045 64.6732 42.9446C64.6732 42.4606 64.528 42.1097 64.2618 41.8919C63.9714 41.662 63.5358 41.5531 62.9307 41.5531H60.6074Z" fill="#3370FF"/>
<path d="M11 6.16941H14.1462C15.5377 6.16941 16.5905 6.55663 17.3165 7.34317C17.9942 8.06921 18.333 9.12197 18.333 10.4893C18.333 11.8446 17.9821 12.8974 17.2923 13.6476C16.5663 14.4221 15.5135 14.8093 14.122 14.8093H11V6.16941ZM12.319 7.29477V13.6839H13.88C14.969 13.6839 15.7798 13.4177 16.288 12.8974C16.7841 12.377 17.0382 11.5784 17.0382 10.4893C17.0382 9.37608 16.7841 8.57744 16.3001 8.06921C15.7919 7.54888 14.9932 7.29477 13.9042 7.29477H12.319Z" fill="#00D6B9"/>
<path d="M19.6737 6.16941H25.8813V7.29477H20.9927V9.8117H25.5909V10.9371H20.9927V13.6839H26.0871V14.8093H19.6737V6.16941Z" fill="#00D6B9"/>
<path d="M27.4257 6.16941H33.2945V7.29477H28.7447V9.8117H33.0404V10.9371H28.7447V14.8093H27.4257V6.16941Z" fill="#00D6B9"/>
<path d="M38.1959 6C39.2971 6 40.1683 6.24201 40.8097 6.75024C41.4268 7.23427 41.814 7.9482 41.9713 8.91626H40.6403C40.5192 8.33543 40.253 7.8998 39.8416 7.60939C39.4302 7.30687 38.8736 7.16166 38.1959 7.16166C37.361 7.16166 36.6954 7.43998 36.1993 8.02081C35.6669 8.62584 35.4128 9.46079 35.4128 10.5256C35.4128 11.5663 35.6427 12.3649 36.1267 12.9216C36.6349 13.5266 37.4336 13.8291 38.5105 13.8291C38.9341 13.8291 39.3334 13.7686 39.7085 13.6718C40.0715 13.575 40.3861 13.4298 40.6766 13.2483V11.3727H38.2927V10.2473H41.9955V13.8775C41.5478 14.2284 41.0275 14.4947 40.4345 14.6883C39.8053 14.8819 39.1156 14.9787 38.3653 14.9787C36.9859 14.9787 35.921 14.5431 35.1587 13.6718C34.4447 12.8611 34.0938 11.8083 34.0938 10.5256C34.0938 9.23087 34.4447 8.16602 35.1587 7.33107C35.9089 6.43562 36.9254 6 38.1959 6Z" fill="#00D6B9"/>
<path d="M43.5796 6.16941H44.8985V9.8117H49.4242V6.16941H50.7432V14.8093H49.4242V10.9371H44.8985V14.8093H43.5796V6.16941Z" fill="#00D6B9"/>
<path d="M52.4666 6.16941H53.7734V14.8093H52.4666V6.16941Z" fill="#00D6B9"/>
</svg>
