<svg width="24" height="24" viewBox="0 0 24 24" xmlns="http://www.w3.org/2000/svg">
<path fill-rule="evenodd" clip-rule="evenodd" d="M21.7071 2.29289C21.5196 2.10536 21.2652 2 21 2H3C2.73478 2 2.48043 2.10536 2.29289 2.29289C2.10536 2.48043 2 2.73478 2 3V21C2 21.2652 2.10536 21.5196 2.29289 21.7071C2.48043 21.8946 2.73478 22 3 22H21C21.2652 22 21.5196 21.8946 21.7071 21.7071C21.8946 21.5196 22 21.2652 22 21V3C22 2.73478 21.8946 2.48043 21.7071 2.29289ZM13 7.00008H16.5C16.6326 7.00008 16.7598 7.05276 16.8536 7.14652C16.9473 7.24029 17 7.36747 17 7.50008V8.50008C17 8.63268 16.9473 8.75986 16.8536 8.85363C16.7598 8.9474 16.6326 9.00008 16.5 9.00008H13V16.5001C13 16.5657 12.9871 16.6308 12.9619 16.6914C12.9368 16.7521 12.9 16.8072 12.8536 16.8536C12.8071 16.9001 12.752 16.9369 12.6913 16.962C12.6307 16.9871 12.5657 17.0001 12.5 17.0001H11.5C11.4343 17.0001 11.3693 16.9871 11.3087 16.962C11.248 16.9369 11.1929 16.9001 11.1464 16.8536C11.1 16.8072 11.0632 16.7521 11.0381 16.6914C11.0129 16.6308 11 16.5657 11 16.5001V9.00008H7.5C7.36739 9.00008 7.24022 8.9474 7.14645 8.85363C7.05268 8.75986 7 8.63268 7 8.50008V7.50008C7 7.36747 7.05268 7.24029 7.14645 7.14652C7.24022 7.05276 7.36739 7.00008 7.5 7.00008H11C11 7.00008 13 7.02808 13 7.00008Z" />
</svg>
