<svg width="20" height="20" viewBox="0 0 20 20" xmlns="http://www.w3.org/2000/svg">
<path fill-rule="evenodd" clip-rule="evenodd" d="M8.33325 10.0003C6.03325 10.0003 4.16658 8.13491 4.16658 5.83366C4.16658 3.53241 6.03325 1.66699 8.33325 1.66699C10.6333 1.66699 12.4999 3.53241 12.4999 5.83366C12.4999 8.13491 10.6333 10.0003 8.33325 10.0003ZM8.33325 8.33366C9.71329 8.33366 10.8333 7.21393 10.8333 5.83366C10.8333 4.45339 9.71329 3.33366 8.33325 3.33366C6.95322 3.33366 5.83325 4.45339 5.83325 5.83366C5.83325 7.21393 6.95322 8.33366 8.33325 8.33366ZM0.833252 15.8337C0.833252 13.0724 3.07075 10.8337 5.83325 10.8337H10.8333C13.5958 10.8337 15.8333 13.0724 15.8333 15.8337V17.9492C15.8333 18.4096 15.4583 18.7825 14.9999 18.7825H1.66659C1.20825 18.7825 0.833252 18.4096 0.833252 17.9492V15.8337ZM14.1666 15.8337C14.1666 13.9924 12.6748 12.5003 10.8333 12.5003H5.83325C3.99172 12.5003 2.49992 13.9924 2.49992 15.8337V17.1158H14.1666V15.8337ZM14.5833 7.50033H18.7499C18.98 7.50033 19.1666 7.68687 19.1666 7.91699V8.75033C19.1666 8.98044 18.98 9.16699 18.7499 9.16699H14.5833C14.3531 9.16699 14.1666 8.98044 14.1666 8.75033V7.91699C14.1666 7.68687 14.3531 7.50033 14.5833 7.50033ZM17.0833 10.8337H18.7499C18.98 10.8337 19.1666 11.0202 19.1666 11.2503V12.0837C19.1666 12.3138 18.98 12.5003 18.7499 12.5003H17.0833C16.8531 12.5003 16.6666 12.3138 16.6666 12.0837V11.2503C16.6666 11.0202 16.8531 10.8337 17.0833 10.8337Z"/>
</svg>
