<svg width="32" height="32" viewBox="0 0 32 32" fill="none" xmlns="http://www.w3.org/2000/svg">
<path d="M15.9999 1.3335C24.0999 1.3335 30.6666 7.90016 30.6666 16.0002C30.6666 24.1002 24.0999 30.6668 15.9999 30.6668C7.89992 30.6668 1.33325 24.1002 1.33325 16.0002C1.33325 7.90016 7.89992 1.3335 15.9999 1.3335ZM13.1586 9.3335C12.8519 9.33397 12.5575 9.45403 12.3379 9.66816C12.1206 9.8815 11.9986 10.1702 11.9999 10.4708V21.5308C11.9999 21.7435 12.0613 21.9515 12.1759 22.1328C12.3402 22.3898 12.5995 22.5713 12.8973 22.6375C13.1973 22.7055 13.5119 22.6542 13.7726 22.4942L22.7893 16.9648C23.1279 16.7555 23.3333 16.3915 23.3333 16.0002C23.3333 15.6088 23.1279 15.2455 22.7893 15.0355L13.7733 9.50683C13.5882 9.39363 13.3755 9.33387 13.1586 9.33416V9.3335Z" fill="white"/>
</svg>
