<svg width="80" height="56" viewBox="0 0 80 56" fill="none" xmlns="http://www.w3.org/2000/svg">
<path d="M13 32.7862C35.0501 32.7862 43.9248 11.0972 67.002 10.375C67.0341 17.043 66.8736 16.9467 67.002 23.2296C45.7703 23.2296 43.0421 45.6408 13 45.6408C13.0642 40.0801 13.0963 40.0159 13 32.7862Z" fill="#00D6B9"/>
<path d="M13 27.4904C34.6891 27.1293 37.1926 46.0581 67.002 47.9999C67.0341 41.0992 66.8736 51.4824 67.002 44.9748C38.7974 42.3831 36.4624 24.4653 13 24.4653C13.0642 30.2507 13.0963 20.028 13 27.4904Z" fill="#3370FF"/>
<path d="M13 20.9829C35.0501 20.9829 43.9247 40.2086 67.002 40.9629C67.8204 33.2036 66.8736 34.327 67.002 27.9799C45.7703 27.9799 43.0421 8 13 8C13.0642 13.6249 13.0963 13.7212 13 20.9829Z" fill="#3370FF"/>
</svg>
