<svg width="24" height="24" viewBox="0 0 24 24" xmlns="http://www.w3.org/2000/svg">
<path d="M1 14.0345C9.92737 14.0345 13.5204 5.25332 22.8636 4.96094C22.8766 7.66059 22.8116 7.62161 22.8636 10.1653C14.2676 10.1653 13.1631 19.2389 1 19.2389C1.02599 16.9875 1.03898 16.9616 1 14.0345Z"/>
<path d="M1 11.8908C9.78118 11.7446 10.7948 19.4082 22.8636 20.1944C22.8766 17.4005 22.8116 21.6043 22.8636 18.9696C11.4445 17.9203 10.4991 10.666 1 10.666C1.02599 13.0083 1.03898 8.8695 1 11.8908Z"/>
<path d="M1 9.25636C9.92737 9.25636 13.5204 17.0402 22.8636 17.3456C23.195 14.2041 22.8116 14.6589 22.8636 12.0892C14.2676 12.0892 13.1631 4 1 4C1.02599 6.27732 1.03898 6.31631 1 9.25636Z"/>
</svg>
