<svg width="80" height="56" viewBox="0 0 80 56" fill="none" xmlns="http://www.w3.org/2000/svg">
<path d="M53.999 38.6672C53.2079 38.6672 52.4345 38.9018 51.7767 39.3413C51.1189 39.7808 50.6063 40.4055 50.3035 41.1364C50.0008 41.8673 49.9215 42.6716 50.0759 43.4475C50.2302 44.2234 50.6112 44.9362 51.1706 45.4956C51.73 46.055 52.4427 46.436 53.2187 46.5903C53.9946 46.7446 54.7989 46.6654 55.5298 46.3627C56.2607 46.0599 56.8854 45.5472 57.3249 44.8894C57.7644 44.2316 57.999 43.4583 57.999 42.6672C57.999 41.6063 57.5776 40.5889 56.8275 39.8387C56.0773 39.0886 55.0599 38.6672 53.999 38.6672ZM60.6657 20.0005C61.4568 20.0005 62.2302 19.7659 62.888 19.3264C63.5458 18.8868 64.0585 18.2621 64.3612 17.5312C64.664 16.8003 64.7432 15.9961 64.5888 15.2201C64.4345 14.4442 64.0535 13.7315 63.4941 13.1721C62.9347 12.6127 62.222 12.2317 61.4461 12.0773C60.6701 11.923 59.8659 12.0022 59.135 12.305C58.4041 12.6077 57.7793 13.1204 57.3398 13.7782C56.9003 14.436 56.6657 15.2094 56.6657 16.0005C56.6657 17.0614 57.0871 18.0788 57.8373 18.8289C58.5874 19.5791 59.6048 20.0005 60.6657 20.0005Z" fill="#3370FF"/>
<path d="M25.5543 28.6599C24.8965 29.0994 24.1232 29.334 23.332 29.334C22.2712 29.334 21.2538 28.9126 20.5036 28.1624C19.7535 27.4123 19.332 26.3949 19.332 25.334C19.332 24.5429 19.5666 23.7695 20.0062 23.1117C20.4457 22.4539 21.0704 21.9412 21.8013 21.6385C22.5322 21.3357 23.3365 21.2565 24.1124 21.4108C24.8883 21.5652 25.601 21.9461 26.1605 22.5056C26.7199 23.065 27.1008 23.7777 27.2552 24.5536C27.4095 25.3295 27.3303 26.1338 27.0275 26.8647C26.7248 27.5956 26.2121 28.2203 25.5543 28.6599Z" fill="#3370FF"/>
<path fill-rule="evenodd" clip-rule="evenodd" d="M7 2.00391V51.0016L76 51.0016L76 54.0016H4V2.00391H7Z" fill="#DEE0E3"/>
<path d="M22.8883 40.6599C22.2305 41.0994 21.4571 41.334 20.666 41.334C19.6051 41.334 18.5877 40.9126 17.8376 40.1624C17.0874 39.4123 16.666 38.3948 16.666 37.334C16.666 36.5429 16.9006 35.7695 17.3401 35.1117C17.7797 34.4539 18.4044 33.9412 19.1353 33.6385C19.8662 33.3357 20.6705 33.2565 21.4464 33.4108C22.2223 33.5652 22.935 33.9461 23.4944 34.5056C24.0539 35.065 24.4348 35.7777 24.5892 36.5536C24.7435 37.3295 24.6643 38.1338 24.3615 38.8647C24.0588 39.5956 23.5461 40.2203 22.8883 40.6599Z" fill="#3370FF"/>
<path d="M41.555 21.9932C40.8972 22.4327 40.1238 22.6673 39.3327 22.6673C38.2718 22.6673 37.2544 22.2459 36.5043 21.4957C35.7541 20.7456 35.3327 19.7282 35.3327 18.6673C35.3327 17.8762 35.5673 17.1028 36.0068 16.445C36.4463 15.7872 37.071 15.2746 37.8019 14.9718C38.5329 14.6691 39.3371 14.5898 40.113 14.7442C40.889 14.8985 41.6017 15.2795 42.1611 15.8389C42.7205 16.3983 43.1015 17.111 43.2558 17.887C43.4102 18.6629 43.3309 19.4671 43.0282 20.1981C42.7254 20.929 42.2128 21.5537 41.555 21.9932Z" fill="#3370FF"/>
<path d="M36.2216 35.3265C35.5638 35.7661 34.7905 36.0007 33.9993 36.0007C32.9385 36.0007 31.9211 35.5792 31.1709 34.8291C30.4208 34.0789 29.9993 33.0615 29.9993 32.0007C29.9993 31.2095 30.2339 30.4362 30.6735 29.7784C31.113 29.1206 31.7377 28.6079 32.4686 28.3051C33.1995 28.0024 34.0038 27.9232 34.7797 28.0775C35.5556 28.2319 36.2684 28.6128 36.8278 29.1722C37.3872 29.7316 37.7682 30.4444 37.9225 31.2203C38.0768 31.9962 37.9976 32.8005 37.6949 33.5314C37.3921 34.2623 36.8794 34.887 36.2216 35.3265Z" fill="#3370FF"/>
<path d="M25.555 16.6599C24.8972 17.0994 24.1238 17.334 23.3327 17.334C22.2718 17.334 21.2544 16.9126 20.5043 16.1624C19.7541 15.4123 19.3327 14.3949 19.3327 13.334C19.3327 12.5429 19.5673 11.7695 20.0068 11.1117C20.4463 10.4539 21.071 9.94122 21.8019 9.63847C22.5329 9.33572 23.3371 9.2565 24.113 9.41085C24.889 9.56519 25.6017 9.94615 26.1611 10.5056C26.7205 11.065 27.1015 11.7777 27.2558 12.5536C27.4102 13.3295 27.331 14.1338 27.0282 14.8647C26.7254 15.5956 26.2128 16.2203 25.555 16.6599Z" fill="#3370FF"/>
<path d="M65.666 33C66.4571 33 67.2305 32.7654 67.8883 32.3259C68.5461 31.8864 69.0588 31.2616 69.3615 30.5307C69.6643 29.7998 69.7435 28.9956 69.5892 28.2196C69.4348 27.4437 69.0539 26.731 68.4944 26.1716C67.935 25.6122 67.2223 25.2312 66.4464 25.0769C65.6705 24.9225 64.8662 25.0017 64.1353 25.3045C63.4044 25.6072 62.7797 26.1199 62.3401 26.7777C61.9006 27.4355 61.666 28.2089 61.666 29C61.666 30.0609 62.0874 31.0783 62.8376 31.8284C63.5877 32.5786 64.6052 33 65.666 33Z" fill="#00D6B9"/>
<path d="M50 33.334C50.7911 33.334 51.5645 33.0994 52.2223 32.6599C52.8801 32.2203 53.3928 31.5956 53.6955 30.8647C53.9983 30.1338 54.0775 29.3295 53.9231 28.5536C53.7688 27.7777 53.3878 27.065 52.8284 26.5056C52.269 25.9461 51.5563 25.5652 50.7804 25.4108C50.0044 25.2565 49.2002 25.3357 48.4693 25.6385C47.7384 25.9412 47.1136 26.4539 46.6741 27.1117C46.2346 27.7695 46 28.5429 46 29.334C46 30.3949 46.4214 31.4123 47.1716 32.1624C47.9217 32.9126 48.9391 33.334 50 33.334Z" fill="#00D6B9"/>
</svg>
