<svg width="24" height="24" viewBox="0 0 24 24" xmlns="http://www.w3.org/2000/svg">
<path d="M0.713135 21.4739V1.80273C0.713135 1.52659 0.936992 1.30273 1.21313 1.30273H2.26008C2.53623 1.30273 2.76008 1.52659 2.76008 1.80273V20.5523H22.5686C22.8447 20.5523 23.0686 20.7761 23.0686 21.0523V22.0992C23.0686 22.3754 22.8447 22.5992 22.5686 22.5992H1.83907C1.54045 22.5992 1.25407 22.4806 1.04291 22.2694C0.83176 22.0583 0.713135 21.7725 0.713135 21.4739Z"/>
<path fill-rule="evenodd" clip-rule="evenodd" d="M10 12C11.1045 12 12 11.1045 12 10C12 8.89545 11.1045 8 10 8C8.89545 8 8 8.89545 8 10C8 11.1045 8.89545 12 10 12Z"/>
<path fill-rule="evenodd" clip-rule="evenodd" d="M18.5 8C19.8807 8 21 6.8807 21 5.5C21 4.11929 19.8807 3 18.5 3C17.1193 3 16 4.11929 16 5.5C16 6.8807 17.1193 8 18.5 8Z"/>
<path fill-rule="evenodd" clip-rule="evenodd" d="M7.5 18C8.32845 18 9 17.3284 9 16.5C9 15.6715 8.32845 15 7.5 15C6.67155 15 6 15.6715 6 16.5C6 17.3284 6.67155 18 7.5 18Z"/>
<path fill-rule="evenodd" clip-rule="evenodd" d="M16.5 16C17.3284 16 18 15.3284 18 14.5C18 13.6715 17.3284 13 16.5 13C15.6715 13 15 13.6715 15 14.5C15 15.3284 15.6715 16 16.5 16Z"/>
</svg>
