<?xml version="1.0" standalone="no"?><!DOCTYPE svg PUBLIC "-//W3C//DTD SVG 1.1//EN" "http://www.w3.org/Graphics/SVG/1.1/DTD/svg11.dtd"><svg t="1716529317390" class="icon" viewBox="0 0 1024 1024" version="1.1" xmlns="http://www.w3.org/2000/svg" p-id="1706" xmlns:xlink="http://www.w3.org/1999/xlink" width="200" height="200"><path d="M810.666667 128H213.333333c-46.933333 0-85.333333 38.4-85.333333 85.333333v597.333334c0 46.933333 38.4 85.333333 85.333333 85.333333h597.333334c46.933333 0 85.333333-38.4 85.333333-85.333333V213.333333c0-46.933333-38.4-85.333333-85.333333-85.333333z m0 640c0 23.466667-19.2 42.666667-42.666667 42.666667H256c-23.466667 0-42.666667-19.2-42.666667-42.666667V256c0-23.466667 19.2-42.666667 42.666667-42.666667h512c23.466667 0 42.666667 19.2 42.666667 42.666667v512z" p-id="1707"></path><path d="M725.333333 317.866667c0-12.8-8.533333-21.333333-21.333333-21.333334H320c-12.8 0-21.333333 8.533333-21.333333 21.333334v42.666666c0 12.8 8.533333 21.333333 21.333333 21.333334h149.333333v234.666666c0 12.8 8.533333 21.333333 21.333334 21.333334h42.666666c12.8 0 21.333333-8.533333 21.333334-21.333334v-234.666666h149.333333c12.8 0 21.333333-8.533333 21.333333-21.333334v-42.666666zM714.666667 682.666667H358.4v-32c0-2.133333-4.266667-4.266667-6.4-2.133334l-40.533333 40.533334c-8.533333 8.533333-8.533333 21.333333 0 29.866666l40.533333 40.533334c2.133333 2.133333 6.4 0 6.4-2.133334V725.333333h356.266667c6.4 0 10.666667-4.266667 10.666666-10.666666v-21.333334c0-6.4-4.266667-10.666667-10.666666-10.666666z" p-id="1708"></path></svg>
