<svg width="20" height="16" viewBox="0 0 20 16"  xmlns="http://www.w3.org/2000/svg">
<path d="M10.8333 14.25H7.08325C3.63147 14.25 0.833252 11.4518 0.833252 8.00003C0.833252 5.52942 2.26677 3.39363 4.34741 2.37905L5.18374 3.82761C3.60043 4.54958 2.49992 6.14629 2.49992 8.00003C2.49992 10.5313 4.55195 12.5834 7.08325 12.5834H10.8333V11.4642C10.8333 11.2226 11.0291 11.0267 11.2708 11.0267C11.3767 11.0267 11.4791 11.0651 11.5588 11.1349L13.7903 13.0874C13.9721 13.2466 13.9906 13.5229 13.8315 13.7048C13.8187 13.7194 13.8049 13.7332 13.7903 13.7459L11.5588 15.6985C11.377 15.8576 11.1006 15.8391 10.9415 15.6573C10.8717 15.5776 10.8333 15.4752 10.8333 15.3692V14.25ZM9.16659 3.41671V4.53589C9.16659 4.64187 9.12813 4.74424 9.05834 4.82399C8.89923 5.00583 8.62284 5.02426 8.44099 4.86515L6.20955 2.91263C6.19493 2.89984 6.18118 2.88609 6.16839 2.87147C6.00928 2.68963 6.0277 2.41324 6.20955 2.25413L8.44099 0.301607C8.52075 0.231824 8.62312 0.193359 8.72909 0.193359C8.97071 0.193359 9.16659 0.389235 9.16659 0.630859V1.75004H12.9166C16.3684 1.75004 19.1666 4.54826 19.1666 8.00004C19.1666 10.4527 17.7539 12.5753 15.6978 13.5987L14.862 12.1512C16.4207 11.4195 17.4999 9.8358 17.4999 8.00004C17.4999 5.46874 15.4479 3.41671 12.9166 3.41671H9.16659Z"/>
</svg>
