<?xml version="1.0" standalone="no"?><!DOCTYPE svg PUBLIC "-//W3C//DTD SVG 1.1//EN" "http://www.w3.org/Graphics/SVG/1.1/DTD/svg11.dtd"><svg class="icon" width="200px" height="200.00px" viewBox="0 0 1024 1024" version="1.1" xmlns="http://www.w3.org/2000/svg"><path d="M896.000414 271.999142c70.699777 0 127.999596-57.299819 127.999596-127.999596 0-70.599777-57.399819-127.999596-127.999596-127.999596-70.699777 0-127.999596 57.299819-127.999596 127.999596 0 19.799938 4.499986 38.499879 12.49996 55.199826 2.899991 6.099981 1.599995 13.399958-3.19999 18.199942l-72.399771 72.399772c-4.799985 4.799985-12.099962 5.999981-18.199943 3.09999-28.799909-13.399958-60.899808-20.999934-94.699701-20.999934-108.399658 0-198.799373 76.999757-219.499308 179.299435-1.499995 7.399977-8.099974 12.69996-15.69995 12.69996h-94.099703c-6.599979 0-12.59996-3.999987-14.899953-10.199968-18.099943-47.999849-64.299797-82.199741-118.499627-82.799739C58.703055 370.298832 0.503239 427.598651 0.00324 498.098429c-0.499998 71.099776 56.99982 128.899593 127.999597 128.899593 56.699821 0 104.799669-36.899884 121.599616-87.899722 2.199993-6.599979 8.299974-11.099965 15.199952-11.099965h91.99971c7.599976 0 14.199955 5.299983 15.69995 12.699959C393.202 642.997972 483.601715 719.997729 592.001373 719.997729c19.09994 0 37.699881-2.399992 55.399825-6.899978 6.899978-1.799994 14.199955 1.299996 17.699944 7.499976l45.999855 79.599749c-26.399917 23.399926-43.099864 57.699818-43.099864 95.799698 0 70.899776 57.999817 128.499595 128.899594 127.999596 69.69978-0.499998 126.199602-56.699821 127.099599-126.299602 0.899997-70.099779-56.99982-129.299592-127.099599-129.69959-6.19998 0-12.299961 0.399999-18.299943 1.199996-6.499979 0.899997-12.79996-2.199993-16.099949-7.799976l-38.499878-66.699789c-3.999987-6.999978-2.199993-15.79995 4.199986-20.699935 53.399832-40.899871 87.799723-105.399668 87.799723-177.899439 0-57.19982-21.399932-109.299655-56.699821-148.89953-5.599982-6.29998-5.299983-15.89995 0.699998-21.899931l62.499803-62.499803c4.799985-4.799985 12.099962-6.099981 18.199943-3.19999 16.799947 7.899975 35.499888 12.399961 55.299825 12.399961z m0-191.999394c35.299889 0 63.999798 28.699909 63.999798 63.999798s-28.699909 63.999798-63.999798 63.999798-63.999798-28.699909-63.999798-63.999798 28.699909-63.999798 63.999798-63.999798z m-767.997577 482.998476c-35.299889 0-63.999798-28.699909-63.999799-63.999798s28.699909-63.999798 63.999799-63.999798 63.999798 28.699909 63.999798 63.999798-28.699909 63.999798-63.999798 63.999798z m667.997893 268.999152c35.299889 0 63.999798 28.699909 63.999798 63.999798s-28.699909 63.999798-63.999798 63.999798-63.999798-28.699909-63.999799-63.999798 28.699909-63.999798 63.999799-63.999798z m-43.999862-335.998941c0 42.699865-16.599948 82.899739-46.899852 113.099644-30.199905 30.199905-70.399778 46.899852-113.099643 46.899852s-82.899739-16.599948-113.099643-46.899852c-30.199905-30.199905-46.899852-70.399778-46.899852-113.099644s16.599948-82.899739 46.899852-113.099643C509.101634 352.598888 549.301508 335.99894 592.001373 335.99894s82.899739 16.599948 113.099643 46.899852c30.299904 30.199905 46.899852 70.399778 46.899852 113.099643z" /></svg>