<svg width="18" height="16" viewBox="0 0 18 16" fill="" xmlns="http://www.w3.org/2000/svg">
<path d="M4.41666 4.25001H2.33332V6.75001H4.41666V5.91668H6.08332V6.75001H11.9167V5.91668H13.5833V6.75001H15.6667V4.25001H13.5833H11.9167H6.08332H4.41666ZM4.41666 2.58334V0.916677C4.41666 0.45644 4.78975 0.0833435 5.24999 0.0833435H12.75C13.2102 0.0833435 13.5833 0.45644 13.5833 0.916677V2.58334H16.5C16.9602 2.58334 17.3333 2.95644 17.3333 3.41668V15.0833C17.3333 15.5436 16.9602 15.9167 16.5 15.9167H1.49999C1.03975 15.9167 0.666656 15.5436 0.666656 15.0833V3.41668C0.666656 2.95644 1.03975 2.58334 1.49999 2.58334H4.41666ZM6.08332 2.58334H11.9167V1.75001H6.08332V2.58334ZM11.9167 8.41668H6.08332V9.25001H4.41666V8.41668H2.33332V14.25H15.6667V8.41668H13.5833V9.25001H11.9167V8.41668Z" fill="" />
</svg>
