<svg width="80" height="56" viewBox="0 0 80 56" fill="none" xmlns="http://www.w3.org/2000/svg">
  <path d="M13 6C13 5.44772 13.4477 5 14 5H24C24.5523 5 25 5.44772 25 6V14C25 14.5523 24.5523 15 24 15H14C13.4477 15 13 14.5523 13 14V6Z" fill="#85A9FF"/>
  <path d="M13 18C13 17.4477 13.4477 17 14 17H24C24.5523 17 25 17.4477 25 18V26C25 26.5523 24.5523 27 24 27H14C13.4477 27 13 26.5523 13 26V18Z" fill="#3370FF"/>
  <path d="M13 30C13 29.4477 13.4477 29 14 29H24C24.5523 29 25 29.4477 25 30V38C25 38.5523 24.5523 39 24 39H14C13.4477 39 13 38.5523 13 38V30Z" fill="#85A9FF"/>
  <path d="M13 42C13 41.4477 13.4477 41 14 41H24C24.5523 41 25 41.4477 25 42V50C25 50.5523 24.5523 51 24 51H14C13.4477 51 13 50.5523 13 50V42Z" fill="#85A9FF"/>
  <path d="M27 6C27 5.44772 27.4477 5 28 5H38C38.5523 5 39 5.44772 39 6V14C39 14.5523 38.5523 15 38 15H28C27.4477 15 27 14.5523 27 14V6Z" fill="#D6E2FF"/>
  <path d="M27 18C27 17.4477 27.4477 17 28 17H38C38.5523 17 39 17.4477 39 18V26C39 26.5523 38.5523 27 38 27H28C27.4477 27 27 26.5523 27 26V18Z" fill="#85A9FF"/>
  <path d="M27 30C27 29.4477 27.4477 29 28 29H38C38.5523 29 39 29.4477 39 30V38C39 38.5523 38.5523 39 38 39H28C27.4477 39 27 38.5523 27 38V30Z" fill="#D6E2FF"/>
  <path d="M27 42C27 41.4477 27.4477 41 28 41H38C38.5523 41 39 41.4477 39 42V50C39 50.5523 38.5523 51 38 51H28C27.4477 51 27 50.5523 27 50V42Z" fill="#3370FF"/>
  <path d="M41 6C41 5.44772 41.4477 5 42 5H52C52.5523 5 53 5.44772 53 6V14C53 14.5523 52.5523 15 52 15H42C41.4477 15 41 14.5523 41 14V6Z" fill="#85A9FF"/>
  <path d="M41 18C41 17.4477 41.4477 17 42 17H52C52.5523 17 53 17.4477 53 18V26C53 26.5523 52.5523 27 52 27H42C41.4477 27 41 26.5523 41 26V18Z" fill="#3370FF"/>
  <path d="M41 30C41 29.4477 41.4477 29 42 29H52C52.5523 29 53 29.4477 53 30V38C53 38.5523 52.5523 39 52 39H42C41.4477 39 41 38.5523 41 38V30Z" fill="#85A9FF"/>
  <path d="M41 42C41 41.4477 41.4477 41 42 41H52C52.5523 41 53 41.4477 53 42V50C53 50.5523 52.5523 51 52 51H42C41.4477 51 41 50.5523 41 50V42Z" fill="#D6E2FF"/>
  <path d="M55 6C55 5.44772 55.4477 5 56 5H66C66.5523 5 67 5.44772 67 6V14C67 14.5523 66.5523 15 66 15H56C55.4477 15 55 14.5523 55 14V6Z" fill="#85A9FF"/>
  <path d="M55 18C55 17.4477 55.4477 17 56 17H66C66.5523 17 67 17.4477 67 18V26C67 26.5523 66.5523 27 66 27H56C55.4477 27 55 26.5523 55 26V18Z" fill="#D6E2FF"/>
  <path d="M55 30C55 29.4477 55.4477 29 56 29H66C66.5523 29 67 29.4477 67 30V38C67 38.5523 66.5523 39 66 39H56C55.4477 39 55 38.5523 55 38V30Z" fill="#85A9FF"/>
  <path d="M55 42C55 41.4477 55.4477 41 56 41H66C66.5523 41 67 41.4477 67 42V50C67 50.5523 66.5523 51 66 51H56C55.4477 51 55 50.5523 55 50V42Z" fill="#85A9FF"/>
</svg>
