<svg width="80" height="56" viewBox="0 0 80 56" fill="none" xmlns="http://www.w3.org/2000/svg">
<path d="M26.333 20H45.333V28H26.333V20Z" fill="#ADC6FF"/>
<path d="M26.333 30.6667H45.333V38.6667H26.333V30.6667Z" fill="#ADC6FF"/>
<path d="M45.333 41.3334H26.333V49.3334H45.333V41.3334Z" fill="#ADC6FF"/>
<path d="M47.333 20H66.333V28H47.333V20Z" fill="#ADC6FF"/>
<path d="M47.333 30.6667H66.333V38.6667H47.333V30.6667Z" fill="#ADC6FF"/>
<path d="M66.333 41.3334H47.333V49.3334H64.9997C65.6361 49.3334 66.233 48.7365 66.333 48.0001V41.3334Z" fill="#ADC6FF"/>
<path d="M23 16.3964V6.66675H14.3333C14.1436 6.66675 13.9631 6.70639 13.7997 6.77784L23 16.3964Z" fill="#3370FF"/>
<path d="M13.0998 7.49292C13.0355 7.64926 13 7.82053 13 8.00008V17.3334H22.5125L13.0998 7.49292Z" fill="#3370FF"/>
<path d="M23 20.0001H13V48.0001C13 48.7365 13.597 49.3334 14.3333 49.3334H23V20.0001Z" fill="#3370FF"/>
<path d="M26 6.66675V17.3334H66.3334V8.00008C66.3334 7.2637 65.7364 6.66675 65 6.66675H26Z" fill="#3370FF"/>
</svg>
