<svg width="24" height="24" viewBox="0 0 24 24" xmlns="http://www.w3.org/2000/svg">
<path d="M1.49756 10.334C1.49756 10.0578 1.72142 9.83398 1.99756 9.83398H6.86162C7.13776 9.83398 7.36162 10.0578 7.36162 10.334V14.0988C7.36162 14.375 7.13776 14.5988 6.86162 14.5988H1.99756C1.72142 14.5988 1.49756 14.375 1.49756 14.0988V10.334ZM8.96006 16.6973C8.96006 16.4211 9.18392 16.1973 9.46006 16.1973H14.5374C14.8135 16.1973 15.0374 16.4211 15.0374 16.6973V20.9426C15.0374 21.2187 14.8135 21.4426 14.5374 21.4426H9.46006C9.18392 21.4426 8.96006 21.2187 8.96006 20.9426V16.6973ZM8.96006 10.334C8.96006 10.0578 9.18392 9.83398 9.46006 9.83398H14.5374C14.8135 9.83398 15.0374 10.0578 15.0374 10.334V14.0988C15.0374 14.375 14.8135 14.5988 14.5374 14.5988H9.46006C9.18392 14.5988 8.96006 14.375 8.96006 14.0988V10.334ZM16.9593 16.1973H22.0022C22.2784 16.1973 22.5022 16.4211 22.5022 16.6973V20.9426C22.5022 21.2187 22.2784 21.4426 22.0022 21.4426H17.1382C16.862 21.4426 16.6382 21.2187 16.6382 20.9426V16.5184C16.6382 16.3402 16.7812 16.1973 16.9593 16.1973ZM1.49756 16.6973C1.49756 16.4211 1.72142 16.1973 1.99756 16.1973H6.86162C7.13776 16.1973 7.36162 16.4211 7.36162 16.6973V20.9426C7.36162 21.2187 7.13776 21.4426 6.86162 21.4426H1.99756C1.72142 21.4426 1.49756 21.2187 1.49756 20.9426V16.6973ZM1.49756 3.05664C1.49756 2.7805 1.72142 2.55664 1.99756 2.55664H22.0022C22.2784 2.55664 22.5022 2.7805 22.5022 3.05664V7.73555C22.5022 8.01169 22.2784 8.23555 22.0022 8.23555H1.99756C1.72142 8.23555 1.49756 8.01169 1.49756 7.73555V3.05664ZM16.9593 9.83398H22.0022C22.2784 9.83398 22.5022 10.0578 22.5022 10.334V14.0988C22.5022 14.375 22.2784 14.5988 22.0022 14.5988H17.1382C16.862 14.5988 16.6382 14.375 16.6382 14.0988V10.1551C16.6382 9.97695 16.7812 9.83398 16.9593 9.83398Z"/>
</svg>
