<svg width="20" height="20" viewBox="0 0 20 20" xmlns="http://www.w3.org/2000/svg">
<path d="M6.06057 11.2283C6.08387 11.2845 6.11803 11.3356 6.16108 11.3786L8.77941 13.9975L8.8233 14.0363C9.00497 14.1769 9.26775 14.1641 9.43441 13.9975L14.0172 9.41413C14.104 9.32734 14.1527 9.20964 14.1527 9.0869C14.1527 8.96417 14.104 8.84647 14.0172 8.75968L13.3627 8.10468C13.3198 8.06163 13.2687 8.02747 13.2125 8.00417C13.1563 7.98087 13.0961 7.96887 13.0352 7.96887C12.9744 7.96887 12.9142 7.98087 12.858 8.00417C12.8018 8.02747 12.7507 8.06163 12.7077 8.10468L9.10719 11.7058L7.46997 10.0691C7.38318 9.98235 7.26548 9.93359 7.14275 9.93359C7.02002 9.93359 6.90231 9.98235 6.81552 10.0691L6.16108 10.7236C6.11803 10.7666 6.08387 10.8176 6.06057 10.8738C6.03726 10.93 6.02527 10.9902 6.02527 11.0511C6.02527 11.1119 6.03726 11.1721 6.06057 11.2283Z"/>
<path d="M13.3332 0.833008H6.6665C6.15539 0.833008 5.83317 1.15523 5.83317 1.66634V2.49967H3.33333C2.76167 2.49967 2.5 2.82189 2.5 3.333V18.333C2.5 18.8447 2.76167 19.1664 3.33333 19.1664L16.6667 19.1663C17.2383 19.1663 17.5 18.8441 17.5 18.333V3.333C17.5 2.82134 17.2383 2.49965 16.6667 2.49965L14.1667 2.49967V4.16634H15.8333V17.4997H4.16667V4.16634H5.83317V4.99967C5.83317 5.51079 6.15539 5.83301 6.6665 5.83301H13.3332C13.8443 5.83301 14.1665 5.51079 14.1665 4.99967V1.66634C14.1665 1.15467 13.8443 0.833008 13.3332 0.833008ZM7.49984 4.16634V2.49967H12.4998V4.16634H7.49984Z"/>
</svg>
