<svg width="80" height="56" viewBox="0 0 80 56" fill="none" xmlns="http://www.w3.org/2000/svg">
<path d="M24.5912 36.9635C24.5912 37.2397 24.3673 37.4635 24.0912 37.4635H20.8083C20.5322 37.4635 20.3083 37.2397 20.3083 36.9635V18.729H15.5C15.2239 18.729 15 18.5052 15 18.229V14.8324C15 14.5491 15.2355 14.3239 15.5188 14.3171C16.0773 14.3035 16.6182 14.2336 17.1414 14.1073C17.8452 13.9147 18.4685 13.5983 19.0114 13.1582C19.5744 12.6905 20.0469 12.0853 20.429 11.3425C20.7584 10.702 20.9906 9.92865 21.1257 9.0223C21.1633 8.77004 21.3761 8.57772 21.6312 8.57772H24.0912C24.3673 8.57772 24.5912 8.80157 24.5912 9.07772V36.9635Z" fill="#3370FF"/>
<path d="M31.118 19.6781C30.8466 19.6781 30.6241 19.4616 30.6234 19.1902C30.6195 17.7256 30.7625 16.3614 31.0522 15.0977C31.374 13.6671 31.8565 12.4292 32.5 11.3838C33.1434 10.3109 33.9477 9.48556 34.9128 8.90784C35.8981 8.30261 37.0241 8 38.2909 8C39.256 8 40.1709 8.20633 41.0355 8.61898C41.9202 9.03164 42.6944 9.62311 43.3579 10.3934C44.0215 11.1637 44.5442 12.1128 44.9263 13.2407C45.3284 14.3686 45.5295 15.6341 45.5295 17.0371C45.5295 18.4952 45.3586 19.7469 45.0168 20.7923C44.6749 21.8377 44.2225 22.773 43.6595 23.5983C43.0965 24.3961 42.4531 25.1252 41.7292 25.7854C41.0255 26.4457 40.3117 27.1059 39.5878 27.7662C38.8639 28.3989 38.1602 29.0867 37.4765 29.8294C36.7929 30.5722 36.1897 31.4388 35.6669 32.4292H45.1502C45.4263 32.4292 45.6502 32.653 45.6502 32.9292V36.9635C45.6502 37.2397 45.4263 37.4635 45.1502 37.4635H30.1474C30.1474 35.7854 30.3183 34.3274 30.6602 33.0894C31.0221 31.8514 31.5047 30.751 32.1079 29.7882C32.7111 28.7978 33.4149 27.89 34.2191 27.0646C35.0435 26.2393 35.9082 25.4003 36.813 24.5475C37.2755 24.1073 37.7681 23.6671 38.2909 23.227C38.8137 22.7593 39.2862 22.2503 39.7084 21.7001C40.1508 21.1499 40.5127 20.5309 40.7942 19.8432C41.0958 19.1554 41.2467 18.3714 41.2467 17.4911C41.2467 16.088 40.945 15.0014 40.3418 14.2311C39.7587 13.4333 39.0047 13.0344 38.0798 13.0344C37.4564 13.0344 36.9236 13.2407 36.4812 13.6534C36.059 14.0385 35.7171 14.5612 35.4557 15.2215C35.1944 15.8542 35.0033 16.5695 34.8827 17.3673C34.8039 17.9709 34.756 18.5746 34.7389 19.1782C34.7311 19.4542 34.508 19.6781 34.2319 19.6781H31.118Z" fill="#3370FF"/>
<path d="M55.6501 20.8189C55.6501 20.5193 55.912 20.2881 56.2115 20.2953C56.5059 20.3023 56.8114 20.2892 57.128 20.2558C57.6508 20.2008 58.1333 20.0495 58.5757 19.8019C59.0382 19.5268 59.4102 19.1417 59.6917 18.6465C59.9933 18.1513 60.1441 17.4911 60.1441 16.6657C60.1441 15.4278 59.8425 14.4787 59.2393 13.8184C58.636 13.1582 57.9423 12.8281 57.1581 12.8281C56.0723 12.8281 55.248 13.3232 54.6849 14.3136C54.2051 15.1647 53.9452 16.2199 53.9051 17.4793C53.8963 17.758 53.6727 17.9862 53.394 17.9862H50.3428C50.0613 17.9862 49.8346 17.7539 49.8492 17.4729C49.9158 16.1886 50.1001 15.0117 50.4021 13.9422C50.764 12.7043 51.2567 11.6451 51.88 10.7648C52.5234 9.88446 53.2875 9.21045 54.1722 8.74278C55.0569 8.24759 56.0422 8 57.128 8C57.9725 8 58.817 8.17882 59.6615 8.53645C60.506 8.86658 61.26 9.37552 61.9236 10.0633C62.6072 10.751 63.1602 11.5901 63.5824 12.5805C64.0047 13.5708 64.2158 14.7125 64.2158 16.0055C64.2158 17.4085 63.9645 18.6465 63.4618 19.7194C62.9792 20.7923 62.2453 21.5213 61.26 21.9065V21.989C62.4263 22.3466 63.3411 23.1169 64.0047 24.2999C64.6682 25.4828 65 26.8996 65 28.5502C65 30.0633 64.7788 31.4113 64.3365 32.5942C63.9142 33.7772 63.3411 34.7675 62.6173 35.5653C61.8934 36.3631 61.059 36.9684 60.1139 37.381C59.1689 37.7937 58.1836 38 57.1581 38C55.9718 38 54.886 37.7662 53.9008 37.2985C52.9356 36.8308 52.1112 36.1568 51.4276 35.2765C50.7439 34.3686 50.2111 33.2682 49.829 31.9752C49.503 30.8106 49.332 29.4898 49.316 28.0127C49.313 27.7389 49.5365 27.5186 49.8103 27.5186H52.9009C53.172 27.5186 53.3925 27.7347 53.4103 28.0052C53.4497 28.6028 53.5327 29.1834 53.6595 29.7469C53.8203 30.4347 54.0516 31.0399 54.3532 31.5626C54.6548 32.0578 55.0268 32.4567 55.4691 32.7593C55.9316 33.0619 56.4745 33.2132 57.0978 33.2132C58.063 33.2132 58.8773 32.8143 59.5409 32.0165C60.2044 31.1912 60.5362 30.077 60.5362 28.674C60.5362 27.5736 60.3753 26.7345 60.0536 26.1568C59.752 25.5791 59.3599 25.1664 58.8773 24.9188C58.3947 24.6437 57.8619 24.4924 57.2788 24.4649C56.8931 24.4272 56.5168 24.4025 56.15 24.3906C55.874 24.3816 55.6501 24.1585 55.6501 23.8824V20.8189Z" fill="#3370FF"/>
<path d="M64.5 43H15.5C15.2239 43 15 43.2239 15 43.5V48.125C15 48.4011 15.2239 48.625 15.5 48.625H64.5C64.7761 48.625 65 48.4011 65 48.125V43.5C65 43.2239 64.7761 43 64.5 43Z" fill="#00D6B9"/>
</svg>
