<svg width="20" height="20" viewBox="0 0 20 20" fill="" xmlns="http://www.w3.org/2000/svg">
<path fill-rule="evenodd" clip-rule="evenodd" d="M10.4163 0.833313H9.58299C9.35287 0.833313 9.16632 1.01986 9.16632 1.24998V2.91665C9.16632 3.14676 9.35287 3.33331 9.58299 3.33331H10.4163C10.6464 3.33331 10.833 3.14676 10.833 2.91665V1.24998C10.833 1.01986 10.6464 0.833313 10.4163 0.833313ZM5.92675 2.41117L5.89112 2.35693C5.72517 2.13369 5.41458 2.06537 5.16784 2.20782L4.73046 2.46035L4.67622 2.49598C4.45298 2.66192 4.38466 2.97251 4.52711 3.21925L5.18368 4.35645L5.21931 4.4107C5.38525 4.63393 5.69584 4.70226 5.94258 4.5598L6.37997 4.30728L6.43421 4.27165C6.65744 4.1057 6.72577 3.79511 6.58331 3.54837L5.92675 2.41117ZM2.67934 5.45788L2.73732 5.48704L3.52461 5.94158C3.77135 6.08403 3.86748 6.38718 3.75712 6.64251L3.72796 6.70048L3.47544 7.13787C3.33298 7.38461 3.02984 7.48073 2.77451 7.37038L2.71653 7.34122L1.92924 6.88667C1.6825 6.74422 1.58638 6.44107 1.69673 6.18575L1.72589 6.12777L1.97842 5.69038C2.12087 5.44364 2.42401 5.34752 2.67934 5.45788ZM18.0209 5.69038L18.2734 6.12777C18.4268 6.39349 18.3358 6.73326 18.0701 6.88667L17.2828 7.34122C17.0171 7.49463 16.6773 7.40359 16.5239 7.13787L16.2713 6.70048C16.1179 6.43477 16.209 6.09499 16.4747 5.94158L17.262 5.48704C17.5277 5.33362 17.8675 5.42466 18.0209 5.69038ZM14.8315 2.20782L15.2688 2.46035C15.5346 2.61376 15.6256 2.95353 15.4722 3.21925L14.8156 4.35645C14.6622 4.62217 14.3224 4.71321 14.0567 4.5598L13.6193 4.30728C13.3536 4.15386 13.2626 3.81409 13.416 3.54837L14.0726 2.41117C14.226 2.14545 14.5657 2.05441 14.8315 2.20782ZM16.6668 10.6313C16.6668 7.06097 13.5895 4.16665 9.99965 4.16665C6.4098 4.16665 3.34009 7.06097 3.34009 10.6313L3.34004 17.5H2.08446C1.77596 17.5 1.66632 17.6128 1.66632 17.9197V18.7521C1.66632 19.0589 1.77552 19.1666 2.08403 19.1666H17.918C18.2265 19.1666 18.333 19.0589 18.333 18.7521V17.9197C18.333 17.6177 18.2298 17.5036 17.9324 17.5001L17.918 17.5H17.9157H16.6663L16.6668 10.6313ZM14.9997 17.4999L15.0001 10.6313C15 8.04424 12.733 5.83331 9.99965 5.83331C7.26873 5.83331 5.00676 8.04181 5.00676 10.6313L5.00671 17.5L14.9997 17.4999ZM7.91632 9.99998H7.08299C6.85287 9.99998 6.66632 10.1865 6.66632 10.4166V12.0833C6.66632 12.3134 6.85287 12.5 7.08299 12.5H7.91632C8.14644 12.5 8.33299 12.3134 8.33299 12.0833V10.4166C8.33299 10.1865 8.14644 9.99998 7.91632 9.99998Z" fill=""/>
</svg>
