<svg width="14" height="16" viewBox="0 0 14 16" fill="none" xmlns="http://www.w3.org/2000/svg">
<path fill-rule="evenodd" clip-rule="evenodd" d="M12.3336 8.50507C12.3336 5.64881 9.8718 3.33335 6.99992 3.33335C4.12804 3.33335 1.67227 5.64881 1.67227 8.50507L1.67223 14H0.667415C0.420612 14 0.333251 14.0903 0.333251 14.3358V15.0017C0.333251 15.2472 0.420612 15.3334 0.667415 15.3334H13.3346C13.5814 15.3334 13.6666 15.2472 13.6666 15.0017V14.3358C13.6666 14.0903 13.5814 14 13.3346 14H12.3333L12.3336 8.50507ZM4.66659 8.00002H5.33325C5.51735 8.00002 5.66659 8.14926 5.66659 8.33335V9.66669C5.66659 9.85078 5.51735 10 5.33325 10H4.66659C4.48249 10 4.33325 9.85078 4.33325 9.66669V8.33335C4.33325 8.14926 4.48249 8.00002 4.66659 8.00002Z" fill="#F54A45"/>
<path d="M1.19005 4.38966L1.14367 4.36634C0.939405 4.27805 0.696891 4.35495 0.582928 4.55234L0.380908 4.90225L0.357581 4.94863C0.269295 5.1529 0.346195 5.39541 0.543586 5.50937L1.17342 5.87301L1.2198 5.89634C1.42407 5.98462 1.66658 5.90772 1.78054 5.71033L1.98256 5.36042L2.00589 5.31404C2.09418 5.10978 2.01728 4.86726 1.81989 4.7533L1.19005 4.38966Z" fill="#F54A45"/>
<path d="M13.6189 4.90225L13.4169 4.55234C13.2942 4.33977 13.0224 4.26693 12.8098 4.38966L12.18 4.7533C11.9674 4.87603 11.8945 5.14785 12.0173 5.36042L12.2193 5.71033C12.342 5.92291 12.6138 5.99574 12.8264 5.87301L13.4563 5.50937C13.6688 5.38664 13.7417 5.11483 13.6189 4.90225Z" fill="#F54A45"/>
<path d="M3.74159 1.92897L3.71309 1.88558C3.58033 1.70699 3.33186 1.65233 3.13447 1.76629L2.78456 1.96831L2.74117 1.99682C2.56258 2.12957 2.50792 2.37805 2.62188 2.57544L3.14714 3.4852L3.17564 3.52859C3.30839 3.70718 3.55687 3.76184 3.75426 3.64788L4.10417 3.44586L4.14756 3.41735C4.32615 3.2846 4.38081 3.03613 4.26685 2.83874L3.74159 1.92897Z" fill="#F54A45"/>
<path d="M11.2153 1.96831L10.8654 1.76629C10.6528 1.64356 10.381 1.7164 10.2582 1.92897L9.73299 2.83874C9.61026 3.05131 9.68309 3.32313 9.89567 3.44586L10.2456 3.64788C10.4582 3.77061 10.73 3.69778 10.8527 3.4852L11.378 2.57544C11.5007 2.36286 11.4278 2.09104 11.2153 1.96831Z" fill="#F54A45"/>
<path d="M7.33325 0.666687H6.66658C6.48249 0.666687 6.33325 0.815925 6.33325 1.00002V2.33335C6.33325 2.51745 6.48249 2.66669 6.66658 2.66669H7.33325C7.51735 2.66669 7.66658 2.51745 7.66658 2.33335V1.00002C7.66658 0.815925 7.51735 0.666687 7.33325 0.666687Z" fill="#F54A45"/>
</svg>
