<svg width="24" height="24" xmlns="http://www.w3.org/2000/svg">
<path d="M11.333 8.24097L10.1272 7.0352C9.98838 6.89634 9.76325 6.89634 9.6244 7.0352L9.18442 7.47517C9.04557 7.61403 9.04557 7.83915 9.18442 7.97801L11.7099 10.5035C11.7911 10.5847 11.9018 10.6184 12.0075 10.6046C12.1131 10.6184 12.2238 10.5847 12.305 10.5035L14.8305 7.97801C14.9693 7.83915 14.9693 7.61403 14.8305 7.47517L14.3905 7.0352C14.2517 6.89634 14.0265 6.89634 13.8877 7.0352L12.6663 8.25654V5.02157C12.6663 4.8252 12.5072 4.66602 12.3108 4.66602H11.6886C11.4922 4.66602 11.333 4.8252 11.333 5.02157V8.24097Z"/>
<path d="M11.333 15.6995L10.1272 16.9053C9.98838 17.0442 9.76325 17.0442 9.6244 16.9053L9.18442 16.4653C9.04557 16.3265 9.04557 16.1014 9.18442 15.9625L11.7099 13.437C11.7911 13.3558 11.9018 13.3221 12.0075 13.3359C12.1131 13.3221 12.2238 13.3558 12.305 13.437L14.8305 15.9625C14.9693 16.1014 14.9693 16.3265 14.8305 16.4653L14.3905 16.9053C14.2517 17.0442 14.0265 17.0442 13.8877 16.9053L12.6663 15.684V18.9189C12.6663 19.1153 12.5072 19.2745 12.3108 19.2745H11.6886C11.4922 19.2745 11.333 19.1153 11.333 18.9189V15.6995Z"/>
<path d="M5.66634 11.3329C5.48225 11.3329 5.33301 11.4821 5.33301 11.6662V12.3329C5.33301 12.517 5.48225 12.6662 5.66634 12.6662H18.333C18.5171 12.6662 18.6663 12.517 18.6663 12.3329V11.6662C18.6663 11.4821 18.5171 11.3329 18.333 11.3329H5.66634Z"/>
</svg>
