<svg width="24" height="24" xmlns="http://www.w3.org/2000/svg">
<path d="M5.66634 18.0009C5.48225 18.0009 5.33301 17.8516 5.33301 17.6675V17.0009C5.33301 16.8168 5.48225 16.6675 5.66634 16.6675H18.333C18.5171 16.6675 18.6663 16.8168 18.6663 17.0009V17.6675C18.6663 17.8516 18.5171 18.0009 18.333 18.0009H5.66634Z"/>
<path d="M8.12723 10.3698L11.333 13.5756V5.68954C11.333 5.49317 11.4922 5.33398 11.6886 5.33398H12.3108C12.5072 5.33398 12.6663 5.49317 12.6663 5.68954V13.5912L15.8877 10.3698C16.0265 10.231 16.2517 10.231 16.3905 10.3698L16.8305 10.8098C16.9693 10.9487 16.9693 11.1738 16.8305 11.3126L12.305 15.8381C12.2238 15.9193 12.1131 15.953 12.0075 15.9393C11.9018 15.953 11.7911 15.9193 11.7099 15.8381L7.18442 11.3126C7.04557 11.1738 7.04557 10.9487 7.18442 10.8098L7.6244 10.3698C7.76325 10.231 7.98838 10.231 8.12723 10.3698Z"/>
</svg>
