<svg width="24" height="24" xmlns="http://www.w3.org/2000/svg">
<path d="M5.33301 6.33138C5.33301 6.14729 5.48225 5.99805 5.66634 5.99805H18.333C18.5171 5.99805 18.6663 6.14729 18.6663 6.33138V6.99805C18.6663 7.18214 18.5171 7.33138 18.333 7.33138H5.66634C5.48225 7.33138 5.33301 7.18214 5.33301 6.99805V6.33138Z" />
<path d="M5.33301 11.6647C5.33301 11.4806 5.48225 11.3314 5.66634 11.3314H11.6663C11.8504 11.3314 11.9997 11.4806 11.9997 11.6647V12.3314C11.9997 12.5155 11.8504 12.6647 11.6663 12.6647H5.66634C5.48225 12.6647 5.33301 12.5155 5.33301 12.3314V11.6647Z" />
<path d="M5.33301 16.998C5.33301 16.814 5.48225 16.6647 5.66634 16.6647H18.333C18.5171 16.6647 18.6663 16.814 18.6663 16.998V17.6647C18.6663 17.8488 18.5171 17.998 18.333 17.998H5.66634C5.48225 17.998 5.33301 17.8488 5.33301 17.6647V16.998Z"/>
</svg>
