<svg width="24" height="24" xmlns="http://www.w3.org/2000/svg">
<path d="M9.33366 6.33333C9.33366 6.14924 9.4829 6 9.66699 6H17.0003C17.1844 6 17.3337 6.14924 17.3337 6.33333V7C17.3337 7.18409 17.1844 7.33333 17.0003 7.33333H14.0003L11.3337 16.6667H14.3337C14.5178 16.6667 14.667 16.8159 14.667 17V17.6667C14.667 17.8508 14.5178 18 14.3337 18H7.00033C6.81623 18 6.66699 17.8508 6.66699 17.6667V17C6.66699 16.8159 6.81623 16.6667 7.00033 16.6667H10.0003L12.667 7.33333H9.66699C9.4829 7.33333 9.33366 7.18409 9.33366 7V6.33333Z"/>
</svg>
