<svg width="24" height="24" xmlns="http://www.w3.org/2000/svg">
<path fill-rule="evenodd" clip-rule="evenodd" d="M8.33333 6C8.14924 6 8 6.14924 8 6.33333V17.6667C8 17.8508 8.14924 18 8.33333 18H13.3333C15.1743 18 16.6667 16.5076 16.6667 14.6667C16.6667 13.4153 15.9771 12.325 14.9573 11.755C15.5994 11.1474 16 10.2871 16 9.33333C16 7.49238 14.5076 6 12.6667 6H8.33333ZM9.33333 7.33333V11.3333H12.6667C13.7712 11.3333 14.6667 10.4379 14.6667 9.33333C14.6667 8.22876 13.7712 7.33333 12.6667 7.33333H9.33333ZM9.33333 12.6667V16.6667H13.3333C14.4379 16.6667 15.3333 15.7712 15.3333 14.6667C15.3333 13.5621 14.4379 12.6667 13.3333 12.6667H9.33333Z"/>
</svg>
