<svg width="24" height="24" viewBox="0 0 24 24" fill="none" xmlns="http://www.w3.org/2000/svg">
<path d="M5.33301 6.33138C5.33301 6.14729 5.48225 5.99805 5.66634 5.99805H18.333C18.5171 5.99805 18.6663 6.14729 18.6663 6.33138V6.99805C18.6663 7.18214 18.5171 7.33138 18.333 7.33138H5.66634C5.48225 7.33138 5.33301 7.18214 5.33301 6.99805V6.33138Z" fill="#1F2329"/>
<path d="M11.9997 11.6647C11.9997 11.4806 12.1489 11.3314 12.333 11.3314H18.333C18.5171 11.3314 18.6663 11.4806 18.6663 11.6647V12.3314C18.6663 12.5155 18.5171 12.6647 18.333 12.6647H12.333C12.1489 12.6647 11.9997 12.5155 11.9997 12.3314V11.6647Z" fill="#1F2329"/>
<path d="M5.33301 16.998C5.33301 16.814 5.48225 16.6647 5.66634 16.6647H18.333C18.5171 16.6647 18.6663 16.814 18.6663 16.998V17.6647C18.6663 17.8488 18.5171 17.998 18.333 17.998H5.66634C5.48225 17.998 5.33301 17.8488 5.33301 17.6647V16.998Z" fill="#1F2329"/>
</svg>
