<svg width="24" height="24" xmlns="http://www.w3.org/2000/svg">
<path d="M5.66634 6C5.48225 6 5.33301 6.14924 5.33301 6.33333V7C5.33301 7.1841 5.48225 7.33333 5.66634 7.33333H18.333C18.5171 7.33333 18.6663 7.1841 18.6663 7V6.33333C18.6663 6.14924 18.5171 6 18.333 6H5.66634Z"/>
<path d="M8.12723 13.631L11.333 10.4253V18.3113C11.333 18.5077 11.4922 18.6669 11.6886 18.6669H12.3108C12.5072 18.6669 12.6663 18.5077 12.6663 18.3113V10.4097L15.8877 13.631C16.0265 13.7699 16.2517 13.7699 16.3905 13.631L16.8305 13.191C16.9693 13.0522 16.9693 12.8271 16.8305 12.6882L12.305 8.16273C12.2238 8.08155 12.1131 8.04783 12.0075 8.06158C11.9018 8.04783 11.7911 8.08155 11.7099 8.16273L7.18442 12.6882C7.04557 12.8271 7.04557 13.0522 7.18442 13.191L7.6244 13.631C7.76325 13.7699 7.98838 13.7699 8.12723 13.631Z"/>
</svg>
