<svg width="24" height="24" viewBox="0 0 24 24" fill="none" xmlns="http://www.w3.org/2000/svg">
<path d="M3 2C3 1.44772 3.44772 1 4 1H15.8608C15.9949 1 16.1234 1.05387 16.2174 1.14951L20.8566 5.86941C20.9485 5.96292 21 6.08879 21 6.2199V22C21 22.5523 20.5523 23 20 23H4C3.44772 23 3 22.5523 3 22V2Z" fill="#FF8800"/>
<path d="M7 8.5C7 8.22386 7.22386 8 7.5 8H16.5C16.7761 8 17 8.22386 17 8.5V9.5C17 9.77614 16.7761 10 16.5 10H7.5C7.22386 10 7 9.77614 7 9.5V8.5Z" fill="white"/>
<path d="M11 12.5C11 12.2239 11.2239 12 11.5 12H16.5C16.7761 12 17 12.2239 17 12.5V17.5C17 17.7761 16.7761 18 16.5 18H11.5C11.2239 18 11 17.7761 11 17.5V12.5Z" fill="white"/>
<path d="M7.5 12C7.22386 12 7 12.2239 7 12.5V17.5C7 17.7761 7.22386 18 7.5 18H8.5C8.77614 18 9 17.7761 9 17.5V12.5C9 12.2239 8.77614 12 8.5 12H7.5Z" fill="white"/>
<path d="M16 1C16.0817 1.02367 16.1567 1.068 16.2174 1.12974L20.8566 5.84965C20.8946 5.88829 20.9256 5.93246 20.949 5.98024H17.1351C16.5082 5.98024 16 5.47202 16 4.8451V1Z" fill="#D97400"/>
</svg>
