<svg width="24" height="24" viewBox="0 0 24 24" fill="none" xmlns="http://www.w3.org/2000/svg">
<path d="M6.0855 23H3C2.73478 23 2.48043 22.8946 2.29289 22.7071C2.10536 22.5196 2 22.2652 2 22V2C2 1.73478 2.10536 1.48043 2.29289 1.29289C2.48043 1.10536 2.73478 1 3 1H19C19.2652 1 19.5196 1.10536 19.7071 1.29289C19.8946 1.48043 20 1.73478 20 2V9.0845C20.0001 9.34962 19.8949 9.60392 19.7075 9.7915L6.793 22.707C6.7001 22.7999 6.5898 22.8736 6.46841 22.9239C6.34701 22.9742 6.2169 23 6.0855 23ZM6.64645 11.8536C6.74021 11.9473 6.86739 12 7 12H12C12.1326 12 12.2598 11.9473 12.3536 11.8536C12.4473 11.7598 12.5 11.6326 12.5 11.5V10.5C12.5 10.3674 12.4473 10.2402 12.3536 10.1464C12.2598 10.0527 12.1326 10 12 10H7C6.86739 10 6.74021 10.0527 6.64645 10.1464C6.55268 10.2402 6.5 10.3674 6.5 10.5V11.5C6.5 11.6326 6.55268 11.7598 6.64645 11.8536ZM6.64645 6.85355C6.74021 6.94732 6.86739 7 7 7H15.5C15.5657 7 15.6307 6.98707 15.6913 6.96194C15.752 6.93681 15.8071 6.89998 15.8536 6.85355C15.9 6.80713 15.9368 6.752 15.9619 6.69134C15.9871 6.63068 16 6.56566 16 6.5V5.5C16 5.43434 15.9871 5.36932 15.9619 5.30866C15.9368 5.248 15.9 5.19287 15.8536 5.14645C15.8071 5.10002 15.752 5.06319 15.6913 5.03806C15.6307 5.01293 15.5657 5 15.5 5H7C6.86739 5 6.74021 5.05268 6.64645 5.14645C6.55268 5.24022 6.5 5.36739 6.5 5.5V6.5C6.5 6.63261 6.55268 6.75978 6.64645 6.85355Z" fill="#3370FF"/>
<path d="M20.3474 17.277L17.527 14.4572L11.3295 20.6942L11 23.3665C11 23.4991 11.0527 23.6263 11.1464 23.7201C11.2402 23.8138 11.3674 23.8665 11.5 23.8665L14.1759 23.4405L20.3474 17.277Z" fill="#85A9FF"/>
<path d="M21.0729 12.3138C20.6829 11.9233 20.0804 11.8933 19.7264 12.2463L18.2314 13.7463L21.0553 16.5702L22.5518 15.0762L22.5993 15.0252C22.9033 14.6672 22.8593 14.1002 22.4868 13.7272L21.0729 12.3138Z" fill="#85A9FF"/>
</svg>
