<svg width="24" height="24" viewBox="0 0 24 24" fill="none" xmlns="http://www.w3.org/2000/svg">
<path d="M4 2.63514C4 2.00822 4.49403 1.5 5.10345 1.5L15.0674 1.5C15.2129 1.5 15.3526 1.55913 15.4559 1.66452L19.8367 6.13257C19.9412 6.23915 20 6.38425 20 6.53562V21.3649C20 21.9918 19.506 22.5 18.8966 22.5H5.10345C4.49403 22.5 4 21.9918 4 21.3649L4 2.63514Z" fill="#14C0FF"/>
<path fill-rule="evenodd" clip-rule="evenodd" d="M15.2947 1.55029C15.3541 1.5779 15.4088 1.61637 15.456 1.66447L19.8368 6.13253C19.8908 6.18764 19.9327 6.25304 19.9604 6.32428H16.3981C15.7887 6.32428 15.2947 5.81607 15.2947 5.18915V1.55029Z" fill="#72D9FF"/>
<path d="M12 10C11.7239 10 11.5 10.2239 11.5 10.5V13.5H8.5C8.22386 13.5 8 13.7239 8 14C8 14.2761 8.22386 14.5 8.5 14.5H11.5V17.5C11.5 17.7761 11.7239 18 12 18C12.2761 18 12.5 17.7761 12.5 17.5V14.5H15.5C15.7761 14.5 16 14.2761 16 14C16 13.7239 15.7761 13.5 15.5 13.5H12.5V10.5C12.5 10.2239 12.2761 10 12 10Z" fill="white"/>
</svg>
