<svg width="24" height="24" viewBox="0 0 24 24" fill="none" xmlns="http://www.w3.org/2000/svg">
<path d="M12 1C18.075 1 23 5.925 23 12C23 18.075 18.075 23 12 23C5.925 23 1 18.075 1 12C1 5.925 5.925 1 12 1ZM9.869 7C9.63898 7.00035 9.41817 7.0904 9.2535 7.251C9.0905 7.411 8.999 7.6275 9 7.853V16.148C9 16.3075 9.046 16.4635 9.132 16.5995C9.2552 16.7922 9.44972 16.9283 9.673 16.978C9.898 17.029 10.134 16.9905 10.3295 16.8705L17.092 12.7235C17.346 12.5665 17.5 12.2935 17.5 12C17.5 11.7065 17.346 11.434 17.092 11.2765L10.33 7.13C10.1912 7.0451 10.0317 6.99978 9.869 7Z" fill="#FFC60A"/>
</svg>
