<svg width="24" height="24" viewBox="0 0 24 24" fill="none" xmlns="http://www.w3.org/2000/svg">
<path fill-rule="evenodd" clip-rule="evenodd" d="M17 11C17 10.4477 17.4477 10 18 10H22C22.5523 10 23 10.4477 23 11V19C23 19.5523 22.5523 20 22 20H19.9142L18.7071 21.2071C18.3166 21.5976 17.6834 21.5976 17.2929 21.2071L16.0858 20H11C10.4477 20 10 19.5523 10 19V15C10 14.4477 10.4477 14 11 14H17V11ZM19 12V15C19 15.5523 18.5523 16 18 16H12V18H16.5C16.7652 18 17.0196 18.1054 17.2071 18.2929L18 19.0858L18.7929 18.2929C18.9804 18.1054 19.2348 18 19.5 18H21V12H19Z" fill="#FFB866"/>
<path fill-rule="evenodd" clip-rule="evenodd" d="M2 2C1.44772 2 1 2.44772 1 3V15C1 15.5523 1.44772 16 2 16H4.08579L5.79289 17.7071C6.18342 18.0976 6.81658 18.0976 7.20711 17.7071L8.91421 16H18C18.5523 16 19 15.5523 19 15V3C19 2.44772 18.5523 2 18 2H2ZM7 9C7 9.55228 6.55228 10 6 10C5.44772 10 5 9.55228 5 9C5 8.44772 5.44772 8 6 8C6.55228 8 7 8.44772 7 9ZM11 9C11 9.55228 10.5523 10 10 10C9.44772 10 9 9.55228 9 9C9 8.44772 9.44772 8 10 8C10.5523 8 11 8.44772 11 9ZM15 9C15 9.55228 14.5523 10 14 10C13.4477 10 13 9.55228 13 9C13 8.44772 13.4477 8 14 8C14.5523 8 15 8.44772 15 9Z" fill="#FF8800"/>
</svg>
