<svg width="24" height="24" viewBox="0 0 24 24" fill="none" xmlns="http://www.w3.org/2000/svg">
<path d="M4.04762 2.04768H7V6.00024C7 6.55253 7.44772 7.00024 8 7.00024H16C16.5523 7.00024 17 6.55253 17 6.00025V2.04768L19.9524 2.04761C20.671 2.04761 21 2.45202 21 3.09526V21.9523C21 22.5949 20.671 23 19.9524 23L4.04762 23C3.32895 23 3 22.5956 3 21.9524V3.09529C3 2.45275 3.32895 2.04768 4.04762 2.04768ZM7.52376 11.0002C7.23447 11.0002 6.99995 11.2347 6.99995 11.524V12.5716C6.99995 12.8609 7.23447 13.0954 7.52376 13.0954H16.4761C16.7654 13.0954 16.9999 12.8609 16.9999 12.5716V11.524C16.9999 11.2347 16.7654 11.0002 16.4761 11.0002H7.52376ZM7.52376 15.9999C7.23447 15.9999 6.99995 16.2344 6.99995 16.5237V17.5713C6.99995 17.8606 7.23447 18.0951 7.52376 18.0951H16.7618C17.0511 18.0951 17.2856 17.8606 17.2856 17.5713V16.5237C17.2856 16.2344 17.0511 15.9999 16.7618 15.9999H7.52376Z" fill="#00D6B9"/>
<path d="M9.5 1C9.22386 1 9 1.22386 9 1.5V4.5C9 4.77614 9.22386 5 9.5 5H14.5C14.7761 5 15 4.77614 15 4.5V1.5C15 1.22386 14.7761 1 14.5 1H9.5Z" fill="#66E6D5"/>
</svg>
