<svg width="24" height="24" viewBox="0 0 24 24" xmlns="http://www.w3.org/2000/svg">
<path d="M14.5714 4C14.5714 3.44772 14.1237 3 13.5714 3H2C1.44772 3 1 3.44772 1 4V11.4286C1 11.9809 1.44771 12.4286 2 12.4286H13.5714C14.1237 12.4286 14.5714 11.9809 14.5714 11.4286V4Z" />
<path d="M23 11C23 10.4477 22.5523 10 22 10H17.3571C16.8049 10 16.3571 10.4477 16.3571 11V20C16.3571 20.5523 16.8049 21 17.3571 21H22C22.5523 21 23 20.5523 23 20V11Z" />
<path d="M23 4C23 3.44772 22.5523 3 22 3H17.3571C16.8049 3 16.3571 3.44772 16.3571 4V7C16.3571 7.55228 16.8049 8 17.3571 8H22C22.5523 8 23 7.55228 23 7V4Z" />
<path d="M14.5714 15.2143C14.5714 14.662 14.1237 14.2143 13.5714 14.2143H2C1.44772 14.2143 1 14.662 1 15.2143V20C1 20.5523 1.44771 21 2 21H13.5714C14.1237 21 14.5714 20.5523 14.5714 20V15.2143Z" />
</svg>
