<?xml version="1.0" standalone="no"?><!DOCTYPE svg PUBLIC "-//W3C//DTD SVG 1.1//EN" "http://www.w3.org/Graphics/SVG/1.1/DTD/svg11.dtd"><svg class="icon" width="200px" height="200.00px" viewBox="0 0 1024 1024" version="1.1" xmlns="http://www.w3.org/2000/svg"><path d="M865.205 699.504l135.175-228.929-106.834 0c-20.714-222.388-207.126-395.721-433.874-395.721-242.011 0-437.145 195.135-437.145 437.145s195.135 437.145 437.145 437.145c128.636 0 243.101-55.598 322.681-142.809l-43.605-44.695c-68.678 76.309-168.972 125.366-279.075 125.366-206.035 0-373.917-167.882-373.917-373.917s167.882-373.917 373.917-373.917c192.954 0 351.024 146.078 371.737 332.492l-101.382 0 135.175 227.839zM459.674 262.359c-68.678 0-124.276 56.688-124.276 124.276l0 82.851-41.425 0 0 228.929 332.492 0 0-227.839-41.425 0 0-82.851c-1.09-69.77-55.598-125.366-125.366-125.366zM521.811 470.575l-124.276 0 0-82.851c0-33.794 27.253-63.228 63.228-63.228 33.794 0 63.228 27.253 63.228 63.228l-2.18 82.851z"  /></svg>