<svg width="12" height="12" viewBox="0 0 12 12" fill="" xmlns="http://www.w3.org/2000/svg">
<path d="M4.25 6.58317H7.75C9.36083 6.58317 11.25 7.70816 11.25 9.73317V11.3082C11.25 11.5981 10.9888 11.8332 10.6667 11.8332H1.33333C1.01117 11.8332 0.75 11.5981 0.75 11.3082V9.73317C0.75 7.70986 2.63917 6.58317 4.25 6.58317ZM10.0833 10.6665V9.69428C10.0833 8.46841 8.84142 7.74984 7.75 7.74984H4.25C3.18248 7.74984 1.91667 8.43333 1.91667 9.69428V10.6665H10.0833ZM6 5.99984C4.38917 5.99984 3.08333 4.694 3.08333 3.08317C3.08333 1.47234 4.38917 0.166504 6 0.166504C7.61083 0.166504 8.91667 1.47234 8.91667 3.08317C8.91667 4.694 7.61083 5.99984 6 5.99984ZM6 4.83317C6.9665 4.83317 7.75 4.04967 7.75 3.08317C7.75 2.11667 6.9665 1.33317 6 1.33317C5.0335 1.33317 4.25 2.11667 4.25 3.08317C4.25 4.04967 5.0335 4.83317 6 4.83317Z" fill=""/>
</svg>
