<svg width="32" height="32" viewBox="0 0 32 32" fill="none" xmlns="http://www.w3.org/2000/svg">
<g id="icon_member_filled">
<g id="Union">
<path d="M20 17.3333H12C8.3181 17.3333 4 19.9086 4 24.5333V28.1333C4 28.7961 4.59695 29.3333 5.33333 29.3333H26.6667C27.403 29.3333 28 28.7961 28 28.1333V24.5333C28 19.9047 23.6819 17.3333 20 17.3333Z" fill="url(#paint0_linear_2773_11384)"/>
<path d="M9.33333 9.33334C9.33333 13.0152 12.3181 16 16 16C19.6819 16 22.6667 13.0152 22.6667 9.33334C22.6667 5.65144 19.6819 2.66667 16 2.66667C12.3181 2.66667 9.33333 5.65144 9.33333 9.33334Z" fill="url(#paint1_linear_2773_11384)"/>
</g>
</g>
<defs>
<linearGradient id="paint0_linear_2773_11384" x1="16" y1="2.66667" x2="16" y2="30" gradientUnits="userSpaceOnUse">
<stop stop-color="white"/>
<stop offset="1" stop-color="white" stop-opacity="0"/>
</linearGradient>
<linearGradient id="paint1_linear_2773_11384" x1="16" y1="2.66667" x2="16" y2="30" gradientUnits="userSpaceOnUse">
<stop stop-color="white"/>
<stop offset="1" stop-color="white" stop-opacity="0"/>
</linearGradient>
</defs>
</svg>
