<?xml version="1.0" standalone="no"?><!DOCTYPE svg PUBLIC "-//W3C//DTD SVG 1.1//EN" "http://www.w3.org/Graphics/SVG/1.1/DTD/svg11.dtd"><svg t="1716884731544" class="icon" viewBox="0 0 1024 1024" version="1.1" xmlns="http://www.w3.org/2000/svg" p-id="3731" xmlns:xlink="http://www.w3.org/1999/xlink" width="200" height="200"><path d="M872 561.7V93.4c0-17.3-15.1-31.4-33.8-31.4-18.6 0-33.8 14.1-33.8 31.4v468.3c-51.9 14.7-90 62.4-90 119.1s38.1 104.4 90 119.1v130.8c0 17.3 15.1 31.4 33.8 31.4 18.6 0 33.8-14.1 33.8-31.4V799.8c51.9-14.7 90-62.4 90-119.1s-38.1-104.3-90-119z m6 158.8c-11 11-24.2 16.5-39.8 16.5s-28.8-5.5-39.8-16.5c-11-11-16.5-24.2-16.5-39.8 0-15.5 5.5-28.8 16.5-39.8 11-11 24.2-16.5 39.8-16.5S867 630 878 641c11 11 16.5 24.2 16.5 39.8 0 15.5-5.5 28.7-16.5 39.7zM557 201.7V93.4c0-17.3-15.1-31.4-33.8-31.4-18.6 0-33.8 14.1-33.8 31.4v108.3c-51.9 14.7-90 62.4-90 119.1 0 56.6 38.1 104.4 90 119.1v490.8c0 17.3 15.1 31.4 33.8 31.4 18.6 0 33.8-14.1 33.8-31.4V439.8c51.9-14.7 90-62.4 90-119.1 0-56.6-38.1-104.4-90-119z m6 158.8c-11 11-24.2 16.5-39.8 16.5s-28.8-5.5-39.8-16.5c-11-11-16.5-24.2-16.5-39.8s5.5-28.8 16.5-39.8c11-11 24.2-16.5 39.8-16.5S552 270 563 281c11 11 16.5 24.2 16.5 39.8s-5.5 28.7-16.5 39.7zM219.5 561.7V93.4c0-17.3-15.1-31.4-33.8-31.4-18.6 0-33.7 14.1-33.7 31.4v468.3c-51.9 14.7-90 62.4-90 119.1s38.1 104.4 90 119.1v130.8c0 17.3 15.1 31.4 33.8 31.4 18.6 0 33.8-14.1 33.8-31.4V799.8c51.9-14.7 90-62.4 90-119.1s-38.2-104.3-90.1-119z m6 158.8c-11 11-24.2 16.5-39.8 16.5s-28.8-5.5-39.8-16.5c-11-11-16.5-24.2-16.5-39.8 0-15.5 5.5-28.8 16.5-39.8 11-11 24.2-16.5 39.8-16.5s28.8 5.5 39.8 16.5c11 11 16.5 24.2 16.5 39.8 0 15.6-5.5 28.8-16.5 39.8z" p-id="3732"></path></svg>