<svg width="16" height="14" viewBox="0 0 16 14" fill="none" xmlns="http://www.w3.org/2000/svg">
<path d="M8.20298 12.1401C8.07375 12.0827 7.92624 12.0827 7.797 12.1401L4.08765 13.788C3.73623 13.9441 3.34748 13.6616 3.38736 13.2792L3.8083 9.24215C3.82297 9.10149 3.77738 8.96121 3.68284 8.85604L0.969395 5.83745C0.712327 5.55147 0.860819 5.09446 1.23688 5.0142L5.20639 4.16704C5.34469 4.13752 5.46403 4.05082 5.53484 3.92841L7.56719 0.414967C7.75973 0.0821096 8.24026 0.0821092 8.4328 0.414967L10.4651 3.92841C10.536 4.05082 10.6553 4.13752 10.7936 4.16704L14.7631 5.0142C15.1392 5.09446 15.2877 5.55147 15.0306 5.83745L12.3171 8.85604C12.2226 8.96121 12.177 9.10149 12.1917 9.24215L12.6126 13.2792C12.6525 13.6616 12.2638 13.9441 11.9123 13.788L8.20298 12.1401Z" fill="#FFC60A"/>
</svg>
