<svg width="20" height="20" viewBox="0 0 20 20" fill="" xmlns="http://www.w3.org/2000/svg">
<path d="M10.8002 1.25273C10.3382 0.850978 9.66187 0.850976 9.19985 1.25273C8.54193 1.82483 6.77563 3.44704 5.28725 5.60792C3.81507 7.74529 2.50695 10.5664 3.03644 13.4823C3.63944 16.803 6.42738 19.1667 10 19.1667C13.5727 19.1667 16.3606 16.803 16.9636 13.4823C17.4931 10.5664 16.185 7.74529 14.7128 5.60792C13.2244 3.44704 11.4581 1.82483 10.8002 1.25273ZM6.65984 6.55333C7.85274 4.82143 9.25203 3.45045 10 2.77139C10.748 3.45045 12.1473 4.82143 13.3402 6.55333C14.731 8.57254 15.7339 10.9259 15.3238 13.1845C14.8675 15.6971 12.7829 17.5001 10 17.5001C7.21719 17.5001 5.13255 15.6971 4.67629 13.1845C4.26616 10.9259 5.26904 8.57254 6.65984 6.55333Z" fill=""/>
<path d="M4.58335 12.5H16.25C16.5278 12.5 16.6667 12.6389 16.6667 12.9167V13.75C16.6667 14.0278 16.5278 14.1667 16.25 14.1667H4.58335C4.30558 14.1667 4.16669 14.0278 4.16669 13.75V12.9167C4.16669 12.6389 4.30558 12.5 4.58335 12.5Z" fill=""/>
</svg>
