<svg width="80" height="56" viewBox="0 0 80 56" fill="none" xmlns="http://www.w3.org/2000/svg">
<path d="M11 39.5C11 39.2239 11.2239 39 11.5 39H20.5C20.7761 39 21 39.2239 21 39.5V48.5C21 48.7761 20.7761 49 20.5 49H11.5C11.2239 49 11 48.7761 11 48.5V39.5Z" fill="#00D6B9"/>
<path d="M27 27.5C27 27.2239 27.2239 27 27.5 27H36.5C36.7761 27 37 27.2239 37 27.5V38.5C37 38.7761 36.7761 39 36.5 39H27.5C27.2239 39 27 38.7761 27 38.5V27.5Z" fill="#3370FF"/>
<path d="M43 4.5C43 4.22386 43.2239 4 43.5 4H52.5C52.7761 4 53 4.22386 53 4.5V27.5C53 27.7761 52.7761 28 52.5 28H43.5C43.2239 28 43 27.7761 43 27.5V4.5Z" fill="#00D6B9"/>
<path d="M59 4.5C59 4.22386 59.2239 4 59.5 4H68.5C68.7761 4 69 4.22386 69 4.5V48.5C69 48.7761 68.7761 49 68.5 49H59.5C59.2239 49 59 48.7761 59 48.5V4.5Z" fill="#3370FF"/>
<path fill-rule="evenodd" clip-rule="evenodd" d="M5 51H76L76 54H4V51H5Z" fill="#DEE0E3"/>
</svg>
