<?xml version="1.0" standalone="no"?><!DOCTYPE svg PUBLIC "-//W3C//DTD SVG 1.1//EN" "http://www.w3.org/Graphics/SVG/1.1/DTD/svg11.dtd"><svg t="1704786169626" class="icon" viewBox="0 0 1024 1024" version="1.1" xmlns="http://www.w3.org/2000/svg" p-id="6487" xmlns:xlink="http://www.w3.org/1999/xlink" width="200" height="200"><path d="M490.666667 896c-153.6 0-277.333333-123.733333-277.333334-277.333333 0-147.2 249.6-469.333333 260.266667-482.133334 8.533333-10.666667 25.6-10.666667 34.133333 0C518.4 149.333333 768 471.466667 768 618.666667c0 153.6-123.733333 277.333333-277.333333 277.333333z m0-712.533333C411.733333 288 256 516.266667 256 618.666667c0 130.133333 104.533333 234.666667 234.666667 234.666666s234.666667-104.533333 234.666666-234.666666c0-102.4-155.733333-330.666667-234.666666-435.2z" p-id="6488"></path><path d="M832 384H149.333333c-12.8 0-21.333333-8.533333-21.333333-21.333333s8.533333-21.333333 21.333333-21.333334h682.666667c12.8 0 21.333333 8.533333 21.333333 21.333334s-8.533333 21.333333-21.333333 21.333333zM832 554.666667H149.333333c-12.8 0-21.333333-8.533333-21.333333-21.333334s8.533333-21.333333 21.333333-21.333333h682.666667c12.8 0 21.333333 8.533333 21.333333 21.333333s-8.533333 21.333333-21.333333 21.333334zM832 725.333333H149.333333c-12.8 0-21.333333-8.533333-21.333333-21.333333s8.533333-21.333333 21.333333-21.333333h682.666667c12.8 0 21.333333 8.533333 21.333333 21.333333s-8.533333 21.333333-21.333333 21.333333z" p-id="6489"></path></svg>
