<svg width="24" height="24" viewBox="0 0 24 24" xmlns="http://www.w3.org/2000/svg">
<path fill-rule="evenodd" clip-rule="evenodd" d="M9 2.5C9 2.22386 9.22386 2 9.5 2H13.5C13.7761 2 14 2.22386 14 2.5V10.5C14 10.7761 13.7761 11 13.5 11H9.5C9.22386 11 9 10.7761 9 10.5V2.5ZM3 11.5C3 11.2239 3.22386 11 3.5 11H7.5C7.77614 11 8 11.2239 8 11.5V17.5C8 17.7761 7.77614 18 7.5 18H3.5C3.22386 18 3 17.7761 3 17.5V11.5ZM16.5 2C16.2239 2 16 2.22386 16 2.5V21.5C16 21.7761 16.2239 22 16.5 22H20.5C20.7761 22 21 21.7761 21 21.5V2.5C21 2.22386 20.7761 2 20.5 2H16.5Z"/>
</svg>
