<svg t="1625568559172" class="icon" viewBox="0 0 1024 1024" version="1.1" xmlns="http://www.w3.org/2000/svg" p-id="1218" width="200" height="200"><path d="M756.684831 0 267.312611 0C119.891353 0 0.382658 119.508695 0.382658 266.929953L0.382658 533.859906c0 147.421258 119.508695 266.929953 266.929953 266.929953l133.465616 0-37.933868-44.488965-95.531748 0c-122.852114 0-222.442267-99.591432-222.442267-222.442267L44.870344 266.929953c0-122.849556 99.588874-222.442267 222.442267-222.442267l489.37222 0c122.849556 0 222.442267 99.591432 222.442267 222.442267L979.127098 533.859906c0 122.849556-99.591432 222.442267-222.442267 222.442267L616.24715 756.302173l-15.270499 44.488965 155.709459 0c147.421258 0 266.929953-119.508695 266.929953-266.929953L1023.616063 266.929953C1023.614784 119.508695 904.106089 0 756.684831 0z" p-id="1219"></path><path d="M289.556454 355.906604c24.570423 0 44.488965 19.917263 44.488965 44.488965s-19.917263 44.488965-44.488965 44.488965-44.488965-19.917263-44.488965-44.488965S264.986031 355.906604 289.556454 355.906604z" p-id="1220"></path><path d="M511.998721 355.906604c24.570423 0 44.488965 19.917263 44.488965 44.488965s-19.917263 44.488965-44.488965 44.488965-44.488965-19.917263-44.488965-44.488965S487.428298 355.906604 511.998721 355.906604z" p-id="1221"></path><path d="M734.440988 355.906604c24.570423 0 44.488965 19.917263 44.488965 44.488965s-19.917263 44.488965-44.488965 44.488965-44.488965-19.917263-44.488965-44.488965S709.869286 355.906604 734.440988 355.906604z" p-id="1222"></path><path d="M616.24715 756.302173l-15.270499 44.488965c-60.488518 177.953302-222.442267 177.953302-222.442267 177.953302 18.365784-43.912116 34.329524-92.745992 31.970968-141.052901-0.841611-17.223598-6.219988-33.970112-14.625861-48.966896-5.904064-10.534201-18.841588-32.42247-33.035132-32.42247-0.002558 0-55.420949 0-55.420949 0s147.13859 76.676091-17.866957 266.929953c0 0 306.513787 28.837311 378.150447-266.929953L616.24715 756.302173z" p-id="1223"></path></svg>