<svg width="80" height="56" viewBox="0 0 80 56" fill="none" xmlns="http://www.w3.org/2000/svg">
<path fill-rule="evenodd" clip-rule="evenodd" d="M28.3348 18.4689H24.2119L16.8242 37.6501H21.3546L23.0097 33.1049H29.5124L31.1674 37.6501H44.3758C46.3334 37.6501 47.9629 37.2919 49.1763 36.4829L49.1822 36.479L49.1881 36.4749C50.6445 35.4643 51.348 33.9191 51.348 31.9377C51.348 30.6251 51.0185 29.4707 50.2814 28.5801C49.9078 28.1286 49.4484 27.7679 48.9189 27.4899C49.2132 27.2487 49.475 26.9774 49.7057 26.6775L49.7141 26.6666L49.722 26.6555C50.3242 25.8125 50.6069 24.8092 50.6069 23.6872C50.6069 22.1265 50.0557 20.839 48.9255 19.8866C47.7533 18.8908 46.2185 18.4689 44.3758 18.4689H35.5509V37.2046L28.3348 18.4689ZM28.1338 29.3378H24.3915L26.2705 24.2376L28.1338 29.3378ZM45.8553 22.6924L45.8641 22.6993L45.8732 22.7059C46.1555 22.9111 46.3705 23.2787 46.3705 24.0083C46.3705 24.7916 46.1509 25.2256 45.8467 25.479C45.5032 25.7394 44.8253 25.9536 43.6594 25.9536H39.7874V22.236H43.7088C44.849 22.236 45.5207 22.4338 45.8553 22.6924ZM47.1115 31.8883C47.1115 32.6398 46.8254 33.118 46.2928 33.4395C45.7985 33.7014 45.0514 33.883 44.0053 33.883H39.7874V29.696H44.0794C45.3067 29.696 46.0622 29.9145 46.4777 30.2303C46.8458 30.51 47.1115 31.0094 47.1115 31.8883Z" fill="#3370FF"/>
<path fill-rule="evenodd" clip-rule="evenodd" d="M64.2002 33.85L63.6791 33.2778C64.3981 32.7175 64.9393 31.849 65.2542 30.5895L65.4004 30.0048H69.5565L69.3795 30.9228C68.9547 33.1267 67.9576 34.905 66.3371 36.1964L65.8162 35.6245C65.8159 35.6248 65.8156 35.625 65.8152 35.6253L66.3358 36.1974C64.8276 37.4035 63.0232 37.9959 60.9638 37.9959C57.8951 37.9959 55.4761 36.9902 53.841 34.9412C52.4126 33.1815 51.7685 30.8657 51.7685 28.0842C51.7685 25.3385 52.4438 23.0296 53.9131 21.2049C55.5701 19.108 57.9386 18.123 60.9391 18.123C63.1219 18.123 65.0118 18.6775 66.5144 19.9013C67.962 21.0712 68.8398 22.6835 69.1376 24.6328L69.2733 25.5213H65.1533L65.0072 24.9366C64.746 23.8919 64.2678 23.1845 63.6191 22.7457C62.9392 22.2857 62.0642 22.0383 60.8897 22.0383C59.1812 22.0383 58.003 22.6023 57.2133 23.6754L57.2082 23.6823L57.2029 23.6891C56.4281 24.6944 56.0049 26.1365 56.0049 28.0842C56.0049 30.1117 56.4305 31.5525 57.1797 32.5305L57.1815 32.5328C57.9352 33.5246 59.1316 34.0806 60.9391 34.0806C62.094 34.0806 63.0036 33.7935 63.6791 33.2778L64.2002 33.85C64.2003 33.85 64.2001 33.8501 64.2002 33.85ZM60.8899 21.2664C60.8899 21.2664 60.89 21.2664 60.8899 21.2664V21.2664Z" fill="#3370FF"/>
<path d="M14.7452 17.9648H15.8443V22.8454C15.8443 23.6521 15.6729 24.2572 15.3401 24.6605C14.9569 25.0841 14.3519 25.3059 13.525 25.3059C12.8091 25.3059 12.2645 25.1042 11.9015 24.711C11.5183 24.3076 11.3267 23.7631 11.3267 23.0572V22.8152H12.4259V23.0471C12.4259 23.9042 12.799 24.3379 13.5452 24.3379C13.9687 24.3379 14.2712 24.2068 14.4628 23.9647C14.6443 23.7227 14.7452 23.3395 14.7452 22.8051V17.9648Z" fill="#00D6B9"/>
<path d="M15.5781 27.3765H16.9697L13.7831 30.4722L17.4335 34.5763H15.9613L13.0369 31.1882L12.0991 32.0856V34.5763H11V27.3765H12.0991V30.8554L15.5781 27.3765Z" fill="#00D6B9"/>
<path d="M12.9883 40.4272H14.5493L17.5623 47.3488H17.5986L20.5996 40.4272H22.1606V49.0671H20.8416V42.8958H20.7932L18.1432 49.0671H17.0057L14.3557 42.8958H14.3073V49.0671H12.9883V40.4272Z" fill="#3370FF"/>
<path d="M23.86 40.4272H25.191L29.6078 46.8527H29.6562V40.4272H30.9751V49.0671H29.6925L25.2273 42.569H25.1789V49.0671H23.86V40.4272Z" fill="#3370FF"/>
<path d="M36.4993 40.2578C37.8061 40.2578 38.8468 40.6813 39.6091 41.5405C40.3352 42.3512 40.6982 43.4282 40.6982 44.7593C40.6982 46.0782 40.3352 47.1431 39.6091 47.9659C38.8468 48.813 37.8061 49.2365 36.4993 49.2365C35.1803 49.2365 34.1396 48.8009 33.3894 47.9538C32.6634 47.131 32.3125 46.0661 32.3125 44.7593C32.3125 43.4403 32.6634 42.3754 33.3894 41.5526C34.1396 40.6813 35.1803 40.2578 36.4993 40.2578ZM36.4993 41.4195C35.5796 41.4195 34.8657 41.722 34.3575 42.3512C33.8734 42.9442 33.6314 43.7428 33.6314 44.7593C33.6314 45.7636 33.8734 46.5623 34.3575 47.1552C34.8657 47.7602 35.5796 48.0748 36.4993 48.0748C37.4189 48.0748 38.1329 47.7723 38.629 47.1794C39.113 46.5986 39.3671 45.7878 39.3671 44.7593C39.3671 43.7186 39.113 42.9079 38.629 42.3149C38.1329 41.7099 37.4189 41.4195 36.4993 41.4195Z" fill="#3370FF"/>
<path d="M42.0346 40.4272H45.6164C47.6735 40.4272 48.702 41.2985 48.702 43.0531C48.702 44.8198 47.6614 45.7031 45.5922 45.7031H43.3535V49.0671H42.0346V40.4272ZM43.3535 41.5526V44.5777H45.5075C46.1609 44.5777 46.6328 44.4567 46.9353 44.2147C47.2257 43.9727 47.3831 43.5855 47.3831 43.0531C47.3831 42.5206 47.2257 42.1334 46.9232 41.9156C46.6207 41.6736 46.1488 41.5526 45.5075 41.5526H43.3535Z" fill="#3370FF"/>
<path d="M53.7522 40.2578C55.059 40.2578 56.0997 40.6813 56.862 41.5405C57.5881 42.3512 57.9511 43.4282 57.9511 44.7593C57.9511 46.054 57.6002 47.1068 56.8983 47.9296C57.2129 48.3531 57.5397 48.7888 57.8543 49.2486L57.0072 49.9988C56.6805 49.5269 56.3659 49.0792 56.0513 48.6557C55.4099 49.0429 54.6476 49.2365 53.7522 49.2365C52.4332 49.2365 51.3925 48.8009 50.6423 47.9538C49.9162 47.131 49.5653 46.0661 49.5653 44.7593C49.5653 43.4403 49.9162 42.3754 50.6423 41.5526C51.3925 40.6813 52.4332 40.2578 53.7522 40.2578ZM53.7522 41.4195C52.8325 41.4195 52.1186 41.722 51.6103 42.3512C51.1263 42.9442 50.8843 43.7428 50.8843 44.7593C50.8843 45.7636 51.1263 46.5623 51.6103 47.1552C52.1186 47.7602 52.8325 48.0748 53.7522 48.0748C54.3572 48.0748 54.8775 47.9417 55.301 47.6876C54.8654 47.1431 54.4298 46.647 54.0063 46.1992L54.7686 45.449C55.2042 45.9088 55.6399 46.4049 56.0755 46.9132C56.4385 46.3565 56.62 45.6426 56.62 44.7593C56.62 43.7186 56.3659 42.9079 55.8819 42.3149C55.3857 41.7099 54.6718 41.4195 53.7522 41.4195Z" fill="#3370FF"/>
<path d="M59.2874 40.4272H63.1112C63.9825 40.4272 64.6843 40.6208 65.1926 41.0202C65.725 41.4558 65.9912 42.0729 65.9912 42.8958C65.9912 43.3556 65.8702 43.7549 65.6282 44.1058C65.3499 44.493 64.9748 44.7472 64.5028 44.8682V44.8924C65.2773 45.0618 65.7008 45.57 65.7976 46.417L65.9428 47.7965C65.9912 48.3289 66.1606 48.7525 66.451 49.0671H65.0232C64.8174 48.8009 64.6964 48.4136 64.648 47.9296L64.5391 46.8527C64.4907 46.3686 64.3334 46.0298 64.0793 45.812C63.8131 45.5942 63.438 45.4974 62.9418 45.4974H60.6064V49.0671H59.2874V40.4272ZM60.6064 41.5526V44.372H62.9418C63.5227 44.372 63.9583 44.2389 64.2487 43.9969C64.527 43.7549 64.6722 43.404 64.6722 42.9442C64.6722 42.4601 64.527 42.1092 64.2608 41.8914C63.9704 41.6615 63.5348 41.5526 62.9297 41.5526H60.6064Z" fill="#3370FF"/>
<path d="M11 6.16941H14.1462C15.5377 6.16941 16.5905 6.55663 17.3165 7.34317C17.9942 8.06921 18.333 9.12197 18.333 10.4893C18.333 11.8446 17.9821 12.8974 17.2923 13.6476C16.5663 14.4221 15.5135 14.8093 14.122 14.8093H11V6.16941ZM12.319 7.29477V13.6839H13.88C14.969 13.6839 15.7798 13.4177 16.288 12.8974C16.7841 12.377 17.0382 11.5784 17.0382 10.4893C17.0382 9.37608 16.7841 8.57744 16.3001 8.06921C15.7919 7.54888 14.9932 7.29477 13.9042 7.29477H12.319Z" fill="#00D6B9"/>
<path d="M19.6737 6.16941H25.8813V7.29477H20.9927V9.8117H25.5909V10.9371H20.9927V13.6839H26.0871V14.8093H19.6737V6.16941Z" fill="#00D6B9"/>
<path d="M27.4257 6.16941H33.2945V7.29477H28.7447V9.8117H33.0404V10.9371H28.7447V14.8093H27.4257V6.16941Z" fill="#00D6B9"/>
<path d="M38.1959 6C39.2971 6 40.1683 6.24201 40.8097 6.75024C41.4268 7.23427 41.814 7.9482 41.9713 8.91626H40.6403C40.5192 8.33543 40.253 7.8998 39.8416 7.60939C39.4302 7.30687 38.8736 7.16166 38.1959 7.16166C37.361 7.16166 36.6954 7.43998 36.1993 8.02081C35.6669 8.62584 35.4128 9.46079 35.4128 10.5256C35.4128 11.5663 35.6427 12.3649 36.1267 12.9216C36.6349 13.5266 37.4336 13.8291 38.5105 13.8291C38.9341 13.8291 39.3334 13.7686 39.7085 13.6718C40.0715 13.575 40.3861 13.4298 40.6766 13.2483V11.3727H38.2927V10.2473H41.9955V13.8775C41.5478 14.2284 41.0275 14.4947 40.4345 14.6883C39.8053 14.8819 39.1156 14.9787 38.3653 14.9787C36.9859 14.9787 35.921 14.5431 35.1587 13.6718C34.4447 12.8611 34.0938 11.8083 34.0938 10.5256C34.0938 9.23087 34.4447 8.16602 35.1587 7.33107C35.9089 6.43562 36.9254 6 38.1959 6Z" fill="#00D6B9"/>
<path d="M43.5796 6.16941H44.8985V9.8117H49.4242V6.16941H50.7432V14.8093H49.4242V10.9371H44.8985V14.8093H43.5796V6.16941Z" fill="#00D6B9"/>
<path d="M52.4666 6.16941H53.7734V14.8093H52.4666V6.16941Z" fill="#00D6B9"/>
</svg>
