<svg width="24" height="24" viewBox="0 0 24 24" xmlns="http://www.w3.org/2000/svg">
<path d="M17.9999 21H6C2.68629 21 0 18.3137 0 15C0 12.0058 2.19324 9.52385 5.06083 9.07308C5.51432 5.64523 8.44825 3 12 3C15.5518 3 18.4857 5.64523 18.9392 9.07308C21.8068 9.52385 24 12.0058 24 15C24 18.0047 21.7914 20.4935 18.9091 20.9316C18.6126 20.9766 18.3089 21 17.9999 21ZM21.3056 12.7472C20.5854 11.6924 19.3735 11 17.9999 11C17.9999 11 17 9.5 16.919 9.0971C16.4951 6.76733 14.4524 5 12 5C9.46463 5 7.36721 6.88891 7.04355 9.33538L6.84757 10.8168L5.37141 11.0488C3.46137 11.3491 2 13.0057 2 15C2 17.2091 3.79086 19 6 19H17.9999C18.138 19 18.2745 18.993 18.409 18.9793C20.426 18.7745 21.9999 17.071 21.9999 15C21.9999 14.6746 21.961 14.3582 21.8877 14.0553C21.7727 13.5807 21.5731 13.139 21.3056 12.7472Z"/>
<path d="M13 10H15.5C15.6326 10 15.7598 10.0527 15.8536 10.1464C15.9473 10.2402 16 10.3674 16 10.5V11.5C16 11.6326 15.9473 11.7598 15.8536 11.8536C15.7598 11.9473 15.6326 12 15.5 12H13V17.5C13 17.5657 12.9871 17.6307 12.9619 17.6913C12.9368 17.752 12.9 17.8071 12.8536 17.8536C12.8071 17.9 12.752 17.9368 12.6913 17.9619C12.6307 17.9871 12.5657 18 12.5 18H11.5C11.4343 18 11.3693 17.9871 11.3087 17.9619C11.248 17.9368 11.1929 17.9 11.1464 17.8536C11.1 17.8071 11.0632 17.752 11.0381 17.6913C11.0129 17.6307 11 17.5657 11 17.5V12H8.5C8.36739 12 8.24022 11.9473 8.14645 11.8536C8.05268 11.7598 8 11.6326 8 11.5V10.5C8 10.3674 8.05268 10.2402 8.14645 10.1464C8.24022 10.0527 8.36739 10 8.5 10H11C11 10 13 10.028 13 10Z"/>
</svg>
