<svg id="Layer_1" xmlns="http://www.w3.org/2000/svg" viewBox="0 0 32 32"><style>.st0{fill:#333}.st0,.st1{opacity:.8;enable-background:new}.st1{fill:#FFF}</style><path class="st0" d="M16 8c4.5 0 8 3.6 8 8.1s-3.6 8-8 8c-4.5 0-8.1-3.6-8.1-8C8 11.5 11.5 8 16 8m0-2.2C10.4 5.8 5.8 10.4 5.8 16S10.4 26.2 16 26.2 26.2 21.6 26.2 16 21.7 5.8 16 5.8z"/><path class="st1" d="M16 8c-4.5 0-8.1 3.6-8.1 8.1 0 4.3 3.6 8 8.1 8 4.3 0 8-3.6 8-8 0-4.6-3.4-8.1-8-8.1zm-.1 13.8c-3.2 0-5.7-2.5-5.7-5.8s2.6-5.8 5.7-5.8 5.9 2.5 5.9 5.6c0 3.3-2.7 6-5.9 6z"/></svg>