<svg xmlns="http://www.w3.org/2000/svg" width="32" height="16" viewBox="0 7.5 32 16">
<path transform="scale(-1, 1) translate(-32,0)" fill="#b3b3b3" d="M24.5,8.1749878c-2.3417358,0-4.425293,1.1091309-5.7672119,2.8250122H4.5
	C2.0147095,11,0,13.0147095,0,15.5S2.0147095,20,4.5,20h14.2327881C20.074707,21.7158813,22.1582642,22.8250122,24.5,22.8250122
	c4.0385742,0,7.3250122-3.286438,7.3250122-7.3250122S28.5385742,8.1749878,24.5,8.1749878z M24.5,22
	c-3.5841675,0-6.5-2.9163208-6.5-6.5S20.9158325,9,24.5,9s6.5,2.9163208,6.5,6.5S28.0841675,22,24.5,22z"/>
</svg>
