<svg xmlns="http://www.w3.org/2000/svg" width="32" height="16" viewBox="0 7 32 16">
<path fill="#6F6F6F" d="M27.5 11H13.2672C11.9252 9.2842 9.8417 8.175 7.5 8.175 3.4614 8.175.175 11.4614.175 15.5s3.2864 7.325 7.325 7.325c2.3417 0 4.4253-1.1092 5.7672-2.825H27.5c2.4853 0 4.5-2.0147 4.5-4.5S29.9853 11 27.5 11zm-20 11C3.9158 22 1 19.0837 1 15.5S3.9158 9 7.5 9s6.5 2.9163 6.5 6.5S11.0842 22 7.5 22zm20-3H13.9325c.1316-.241.2468-.4914.3511-.7477.0287-.0704.052-.143.0786-.2144a7.2456 7.2456 0 0 0 .187-.5723c.025-.0894.048-.179.0696-.2697a7.2426 7.2426 0 0 0 .1125-.5835c.0131-.0855.029-.1697.0392-.2562.033-.2814.0545-.5662.0545-.8562s-.0215-.5748-.0545-.8562c-.0101-.0865-.026-.1707-.0392-.2562a7.2426 7.2426 0 0 0-.1125-.5835 7.3619 7.3619 0 0 0-.0695-.2697 7.2456 7.2456 0 0 0-.187-.5723c-.0266-.0715-.05-.144-.0787-.2144-.1043-.2563-.2195-.5068-.3511-.7477H27.5c1.9297 0 3.5 1.5703 3.5 3.5S29.4297 19 27.5 19z"/>
</svg>
