<svg xmlns="http://www.w3.org/2000/svg" width="32" height="16" viewBox="0 7 32 16">
<path transform="scale(-1, 1) translate(-32,0)" fill="#b3b3b3" d="M27.5,11H13.2672119C11.925293,9.2841797,9.8417358,8.1749878,7.5,8.1749878
	c-4.0385742,0-7.3250122,3.286438-7.3250122,7.3250122S3.4614258,22.8250122,7.5,22.8250122
	c2.3417358,0,4.425293-1.1091919,5.7672119-2.8250122H27.5c2.4852905,0,4.5-2.0147095,4.5-4.5S29.9852905,11,27.5,11z M7.5,22
	C3.9158325,22,1,19.0836792,1,15.5S3.9158325,9,7.5,9s6.5,2.9163208,6.5,6.5S11.0841675,22,7.5,22z M27.5,19H13.9324951
	c0.1315918-0.2409058,0.2467651-0.491394,0.3511353-0.7476807c0.0286865-0.0703735,0.052063-0.1429443,0.0786133-0.2144165
	c0.0696411-0.1876221,0.1326904-0.3778687,0.1870117-0.5723267c0.0249634-0.0893555,0.0478516-0.1790161,0.069519-0.2696533
	c0.0457153-0.1917114,0.0823364-0.3863525,0.1125488-0.5835571c0.0131226-0.0854492,0.0290527-0.1696777,0.0391846-0.2561646
	c0.032959-0.2813721,0.0545044-0.5661621,0.0545044-0.8562012s-0.0215454-0.5748291-0.0545044-0.8562012
	c-0.0101318-0.0864868-0.026062-0.1707153-0.0391846-0.2561646c-0.0302124-0.1972046-0.0668335-0.3918457-0.1125488-0.5835571
	c-0.0216675-0.0906372-0.0445557-0.1802979-0.069519-0.2696533c-0.0543213-0.194458-0.1173706-0.3847046-0.1870117-0.5723267
	c-0.0265503-0.0714722-0.0499268-0.144043-0.0786133-0.2144165C14.1792603,12.491394,14.0640869,12.2409058,13.9324951,12H27.5
	c1.9296875,0,3.5,1.5703125,3.5,3.5S29.4296875,19,27.5,19z"/>
</svg>
