<svg xmlns="http://www.w3.org/2000/svg" width="16" height="16" viewBox="0 0 16 16">
<path fill="#6F6F6F" d="M7.5.175C3.4545.175.175 3.4545.175 7.5c0 4.0455 3.2795 7.325 7.325 7.325s7.325-3.2795 7.325-7.325c0-4.0455-3.2795-7.325-7.325-7.325zM7.5 14C3.9158 14 1 11.0837 1 7.5 1 3.9158 3.9158 1 7.5 1S14 3.9158 14 7.5c0 3.5837-2.9158 6.5-6.5 6.5zm3.5355-9.3284L8.2071 7.5l2.8284 2.8284-.707.7071L7.5 8.2071l-2.8284 2.8284-.7071-.707L6.7929 7.5 3.9645 4.6716l.707-.7071L7.5 6.7929l2.8284-2.8284.7071.707z"/>
</svg>
