<?xml version="1.0" standalone="no"?><!DOCTYPE svg PUBLIC "-//W3C//DTD SVG 1.1//EN" "http://www.w3.org/Graphics/SVG/1.1/DTD/svg11.dtd"><svg class="icon" width="200px" height="200.00px" viewBox="0 0 1024 1024" version="1.1" xmlns="http://www.w3.org/2000/svg"><path d="M512 64C264.8 64 64 264.8 64 512s200.8 448 448 448 448-200.8 448-448S759.2 64 512 64zM340.8 525.6c0 4.8-4 9.6-8.8 10.4l-64 2.4c-5.6 0.8-12-4-12-10.4V288c0-6.4 5.6-11.2 12.8-10.4l64 2.4c4.8 0.8 8.8 5.6 8.8 10.4v235.2z m424-2.4c0 35.2-31.2 32.8-31.2 32.8H596C644.8 749.6 566.4 768 566.4 768c-30.4 0-27.2-40.8-27.2-44C539.2 656 446.4 576 393.6 544c-5.6-3.2-9.6-9.6-9.6-16.8V299.2c0-10.4 8.8-19.2 19.2-19.2 60 0 284-21.6 284-21.6 17.6 0 32 49.6 32 49.6 47.2 171.2 45.6 215.2 45.6 215.2z" /></svg>