<?xml version="1.0" standalone="no"?><!DOCTYPE svg PUBLIC "-//W3C//DTD SVG 1.1//EN" "http://www.w3.org/Graphics/SVG/1.1/DTD/svg11.dtd"><svg class="icon" width="200px" height="200.00px" viewBox="0 0 1024 1024" version="1.1" xmlns="http://www.w3.org/2000/svg"><path d="M512 128c52 0 102.4 10.4 149.6 30.4 45.6 19.2 86.4 47.2 122.4 82.4s63.2 76 82.4 122.4c20 47.2 30.4 97.6 30.4 149.6s-10.4 102.4-30.4 149.6c-19.2 45.6-47.2 86.4-82.4 122.4s-76.8 63.2-122.4 82.4c-47.2 20-97.6 30.4-149.6 30.4s-102.4-10.4-149.6-30.4c-45.6-19.2-86.4-47.2-122.4-82.4s-63.2-76.8-82.4-122.4C138.4 614.4 128 564 128 512s10.4-102.4 30.4-149.6C177.6 316.8 204.8 276 240 240s76-63.2 122.4-82.4C409.6 138.4 460 128 512 128m0-64C264.8 64 64 264.8 64 512s200.8 448 448 448 448-200.8 448-448S759.2 64 512 64z"  /><path d="M288 384c0 35.2 28.8 64 64 64s64-28.8 64-64-28.8-64-64-64-64 28.8-64 64zM608 384c0 35.2 28.8 64 64 64s64-28.8 64-64-28.8-64-64-64-64 28.8-64 64zM513.6 512.8c-46.4 0-92 15.2-132 44.8C344 585.6 312 624.8 289.6 672c-8 16-0.8 35.2 15.2 42.4 16 7.2 35.2 0.8 42.4-15.2 17.6-37.6 42.4-68.8 72-90.4C448 587.2 480 576 512.8 576s64.8 11.2 93.6 32.8c28.8 21.6 53.6 52.8 72 90.4 7.2 16 26.4 22.4 42.4 15.2 16-7.2 22.4-26.4 15.2-42.4-22.4-47.2-54.4-86.4-91.2-114.4-39.2-29.6-84.8-44.8-131.2-44.8z"  /></svg>