<?xml version="1.0" standalone="no"?><!DOCTYPE svg PUBLIC "-//W3C//DTD SVG 1.1//EN" "http://www.w3.org/Graphics/SVG/1.1/DTD/svg11.dtd"><svg class="icon" width="200px" height="200.00px" viewBox="0 0 1024 1024" version="1.1" xmlns="http://www.w3.org/2000/svg"><path d="M320 834.4V491.2c0-10.4 5.6-20 14.4-25.6 79.2-48 220-168.8 220-271.2 0-4.8-5.6-66.4 40.8-66.4 0 0 118.4 28 44.8 320h208s47.2-4 47.2 48.8c0 0 2.4 66.4-67.2 324.8 0 0-21.6 74.4-48.8 74.4 0 0-340-32-431.2-32-15.2 0-28-13.6-28-29.6z m-173.6 34.4l96-4c8-1.6 13.6-8 13.6-16V494.4c0-8-5.6-14.4-13.6-16l-96-3.2c-9.6-1.6-18.4 5.6-18.4 16v361.6c-0.8 10.4 8 17.6 18.4 16z" /></svg>