<?xml version="1.0" standalone="no"?><!DOCTYPE svg PUBLIC "-//W3C//DTD SVG 1.1//EN" "http://www.w3.org/Graphics/SVG/1.1/DTD/svg11.dtd"><svg class="icon" width="200px" height="200.00px" viewBox="0 0 1024 1024" version="1.1" xmlns="http://www.w3.org/2000/svg"><path d="M24 908l196-412.4 292 68 306.4-68 179.2 412-276.4-106-209.2 92-206-92.4L24 908z m283.2-149.6l204.8 91.6 208.4-91.6 204 78-128.4-295.2-284 63.2-270.4-63.2-140 294.8 205.6-77.6z"  /><path d="M420 440c0 66.4-53.6 120-120 120-44.4 0-83.2-24.4-104-60-10-17.6-16-38-16-60 0-66.4 53.6-120 120-120s120 53.6 120 120z"  /><path d="M396 512l-96 144-96-144"  /><path d="M360 440c0 33.2-26.8 60-60 60-22.4 0-41.6-12-52-30-5.2-8.8-8-19.2-8-30 0-33.2 26.8-60 60-60s60 26.8 60 60z" fill="#FFFFFF" /><path d="M916 326.4c0 117.2-94.8 212-212 212-78.4 0-147.2-42.8-184-106.4-18-31.2-28-67.2-28-105.6 0-117.2 94.8-212 212-212s212 94.8 212 212z"  /><path d="M873.6 453.6L704 708l-169.6-254.4"  /><path d="M810 326.4c0 58.4-47.6 106-106 106-39.2 0-73.6-21.2-92-53.2-8.8-15.6-14-33.6-14-52.8 0-58.4 47.6-106 106-106s106 47.6 106 106z" fill="#FFFFFF" /></svg>