<?xml version="1.0" standalone="no"?><!DOCTYPE svg PUBLIC "-//W3C//DTD SVG 1.1//EN" "http://www.w3.org/Graphics/SVG/1.1/DTD/svg11.dtd"><svg class="icon" width="200px" height="200.00px" viewBox="0 0 1024 1024" version="1.1" xmlns="http://www.w3.org/2000/svg"><path d="M551.151 609.445c-45.521-39.020-41.183-56.364-99.71-56.364-58.53 0-95.378 13.005-80.204 95.382 15.172 82.366 58.529 45.521 54.191 106.215-4.335 60.693 10.842 75.874 19.508 91.045 8.675 15.169 39.020 58.528 49.862-2.164 10.833-60.704 30.34-95.382 54.19-125.735 23.846-30.342 47.685-69.361 2.162-108.379zM390.747 466.372c2.163-30.349 52.026-62.865 86.706-78.037 34.678-15.177 65.030-19.509 60.69-45.522-4.328-26.012-13.006-45.522-65.025-45.522-52.026 0-30.345 71.534-73.704 28.18-43.352-43.355 8.673-30.348 30.351-41.186 21.675-10.84 43.352-49.859 6.503-52.025-36.854-2.169-30.352 17.341-60.697 6.503-30.345-10.84-43.351 39.019-62.863 30.346-13.006-4.334-45.521-30.346-69.37-54.192-45.522 36.852-80.202 84.54-104.051 140.902 6.503 73.702 45.522 110.554 45.522 110.554s19.509 47.689 143.069 106.218c0 0 23.848 2.164-4.334-26.013-28.183-28.178-56.359-60.695-23.844-78.037 32.518-17.343 43.353-17.343 52.026 17.343 8.668 34.681 36.851 13.005 39.020-19.511zM884.984 477.209c0-4.334 0-6.503-2.172-10.837 0-8.673-2.164-17.343-4.329-23.846 0-4.336-2.175-8.669-2.175-13.006-2.164-8.669-4.33-15.173-6.502-23.846 0-4.334-2.164-6.503-2.164-10.837-4.339-10.839-6.503-21.68-10.842-30.349-2.164-4.337-4.329-8.67-6.503-13.006-2.164-6.503-6.503-10.839-8.668-17.342-2.164-4.334-6.502-10.837-8.666-15.174-2.176-4.336-4.34-8.669-8.678-13.006-4.328-4.336-6.503-10.839-10.833-15.173-2.175-2.169-4.339-6.503-6.502-8.673-15.181-19.509-32.518-39.019-52.026-56.359-2.175 0-2.175-2.169-4.34-2.169-6.502-6.503-13.006-10.837-21.674-17.34h-2.174c-30.342-23.845-65.032-43.355-101.876-56.362-10.843 17.342-21.685 39.018-34.691 47.689-19.507 10.839-17.334 54.194 19.51 49.859 0 0-10.832 10.839 0 49.859 10.842 39.020 28.187 47.689 82.376 26.012 23.848-8.673 41.182-4.337 39.019 19.509-6.503 49.855-43.357 47.689-15.171 127.893 17.334 49.859 60.692 67.203 78.038 106.222 8.667 21.675 43.347 39.020 71.534 54.189 2.164-10.842 6.502-21.674 8.667-30.351 0-4.329 2.164-8.667 2.164-13.006 2.175-8.667 2.175-15.169 4.339-23.838 0-4.339 0-6.503 2.164-10.842 0-10.843 2.172-23.849 2.172-34.681 2.166-17.344 2.166-28.184 0-41.19zM737.577 605.105c-15.169 8.667-15.169 30.351-2.163 41.184 13.006 10.842 39.018 26.012 47.687 0 8.667-26.012-30.352-49.851-45.524-41.184z"  /><path d="M512.954 963.543c-60.9 0-119.982-11.929-175.601-35.454-53.721-22.723-101.967-55.25-143.398-96.681-41.432-41.431-73.959-89.676-96.682-143.397-23.526-55.62-35.454-114.7-35.454-175.599 0-60.9 11.929-119.981 35.454-175.6 22.723-53.721 55.251-101.966 96.682-143.397 41.431-41.431 89.676-73.958 143.398-96.681 55.621-23.526 114.701-35.453 175.601-35.453 60.9 0 119.98 11.929 175.598 35.453 53.721 22.723 101.966 55.25 143.396 96.681s73.957 89.676 96.68 143.397c23.526 55.62 35.453 114.7 35.453 175.6 0 60.9-11.928 119.98-35.453 175.599-22.721 53.721-55.249 101.966-96.68 143.397s-89.675 73.958-143.396 96.681c-55.618 23.526-114.698 35.454-175.598 35.454zM512.954 67.419c-245.371 0-444.996 199.622-444.996 444.992 0 245.369 199.625 444.992 444.996 444.992 245.366 0 444.988-199.622 444.988-444.992 0-245.369-199.62-444.992-444.988-444.992z"  /></svg>