<?xml version="1.0" standalone="no"?><!DOCTYPE svg PUBLIC "-//W3C//DTD SVG 1.1//EN" "http://www.w3.org/Graphics/SVG/1.1/DTD/svg11.dtd"><svg class="icon" width="200px" height="200.00px" viewBox="0 0 1024 1024" version="1.1" xmlns="http://www.w3.org/2000/svg"><path d="M38.801408 862.342144"  /><path d="M651.604992 706.515968c18.5856-40.500224 40.05888-64.77824 56.708096-79.576064 9.088-8.075264 18.583552-14.7712 28.597248-19.060736-5.246976-7.146496-9.31328-13.48096-13.34784-19.542016-7.402496-11.1104-15.249408-23.81824-19.060736-30.015488-25.250816 13.81376-49.152 42.346496-68.145152 67.661824-11.029504 14.722048-20.962304 30.496768-30.497792 47.1808L651.604992 706.515968z"  /><path d="M457.66144 768.47104c5.24288 12.84608 8.100864 25.755648 11.91424 35.719168 1.434624 6.20544 2.853888 11.897856 4.764672 17.180672 17.150976-5.282816 34.260992-10.568704 50.994176-17.686528 28.547072-11.998208 62.420992-29.024256 83.859456-51.421184l-39.54688-42.411008c-7.1424 7.14752-15.694848 12.920832-26.68544 20.0192C524.41088 741.834752 497.695744 756.5568 457.66144 768.47104z"  /><path d="M390.47168 241.432576c0-45.746176 38.122496-83.869696 83.868672-83.869696 47.181824 0 83.392512 38.12352 83.392512 83.869696 0 47.17056-36.209664 83.868672-83.392512 83.868672C428.593152 325.301248 390.47168 288.603136 390.47168 241.432576z"  /><path d="M297.558016 241.432576c0 17.632256 2.377728 34.782208 7.62368 51.460096l-1.910784 0c14.767104 34.310144 31.461376 70.268928 45.7472 97.688576l23.825408 45.7472c41.741312 80.156672 92.918784 168.214528 100.543488 179.651584 0.477184 0.477184 0.477184 0.477184 0.477184 0.954368 0 0.48128 0 0.948224 0.47616 0.948224 28.587008-48.123904 53.262336-91.554816 71.95648-126.271488l30.021632-55.764992 23.350272-45.746176c13.858816-27.132928 30.497792-62.414848 45.27104-97.20832l-1.435648 0c5.246976-16.677888 7.624704-33.82784 7.624704-51.460096 0-97.216512-79.581184-176.316416-176.78848-176.316416C376.656896 65.11616 297.558016 144.21504 297.558016 241.432576z"  /><path d="M263.713792 765.600768c13.348864 10.016768 27.52 18.768896 42.411008 26.694656 26.576896 14.03392 60.519424 29.99296 99.119104 35.785728 1.434624-11.487232 2.173952-26.330112 3.812352-37.210112l2.859008-19.064832c-10.484736-1.911808-22.510592-4.934656-35.258368-9.536512-21.563392-7.779328-49.083392-20.962304-79.581184-42.405888-8.100864 11.90912-16.385024 22.600704-22.873088 31.44704L263.713792 765.600768z"  /><path d="M76.923904 897.108992c0 36.191232 29.540352 65.26464 65.284096 65.26464l739.566592 0c36.211712 0 65.27488-29.074432 65.27488-65.26464L947.049472 358.181888c0-36.220928-29.063168-65.29024-65.27488-65.29024L702.121984 292.891648l-31.455232 88.164352 177.74592 0c8.100864 0 13.824 5.231616 13.824 13.336576l0 117.2224c-25.261056-0.466944-64.330752 1.910784-102.454272 20.49536l4.760576 12.870656 15.248384 39.54176c22.402048-7.143424 41.924608-12.459008 57.184256-14.76608l25.261056-3.813376 0 297.821184c0 8.13056-5.723136 13.319168-13.824 13.319168L178.895872 877.083648c-8.100864 0-13.814784-5.187584-13.814784-13.319168L165.081088 681.742336c3.803136 3.813376 8.195072 7.98208 13.338624 12.38528 8.204288 7.033856 20.496384 18.583552 36.211712 31.93344 9.058304-8.108032 17.547264-18.680832 24.783872-26.210304 4.199424-4.381696 8.100864-8.582144 11.437056-12.87168-37.646336-31.440896-75.768832-75.767808-85.771264-88.158208L165.081088 394.3936c0-7.62368 5.71392-13.336576 13.814784-13.336576l96.254976 0-29.063168-88.164352L142.208 292.892672c-35.744768 0-65.284096 29.069312-65.284096 65.29024L76.923904 897.108992z"  /><path d="M985.171968 862.342144"  /></svg>