<?xml version="1.0" standalone="no"?><!DOCTYPE svg PUBLIC "-//W3C//DTD SVG 1.1//EN" "http://www.w3.org/Graphics/SVG/1.1/DTD/svg11.dtd"><svg class="icon" width="200px" height="170.10px" viewBox="0 0 1204 1024" version="1.1" xmlns="http://www.w3.org/2000/svg"><path d="M882.526316 286.796992q-17.323308 17.323308-42.345865 17.323308t-42.345865-17.323308q-18.285714-18.285714-18.285714-42.827068t18.285714-42.827068l42.345865-42.345865q17.323308-17.323308 42.345865-17.323308t42.345865 17.323308q18.285714 17.323308 18.285714 42.345865t-18.285714 43.308271zM250.225564 611.12782q-3.849624-16.360902-6.255639-33.684211t-2.406015-35.609023q0-61.593985 23.578947-116.451128t64.481203-95.278195 95.278195-64 116.932331-23.578947q72.180451 0 132.330827 30.796992t101.533835 82.766917q-31.759398 6.736842-61.593985 14.43609t-57.744361 23.097744q-24.06015-19.24812-52.451128-27.428571t-62.075188-8.180451q-38.496241 0-71.699248 14.43609t-58.225564 39.458647-39.458647 58.706767-14.43609 71.218045q0 27.909774 6.736842 49.082707-30.796992 0-58.706767 5.293233t-55.819549 14.917293zM541.834586 180.932331q-25.022556 0-42.827068-17.804511t-17.804511-42.827068l0-59.669173q0-25.022556 17.804511-42.827068t42.827068-17.804511 42.827068 17.804511 17.804511 42.827068l0 59.669173q0 25.022556-17.804511 42.827068t-42.827068 17.804511zM158.796992 244.451128q-18.285714-18.285714-18.285714-43.308271t18.285714-42.345865q17.323308-17.323308 42.345865-17.323308t42.345865 17.323308l42.345865 42.345865q18.285714 18.285714 18.285714 42.827068t-18.285714 42.827068q-17.323308 17.323308-42.345865 17.323308t-42.345865-17.323308zM853.654135 421.533835q69.293233 0 132.81203 27.428571t111.639098 74.105263 76.511278 109.233083 28.390977 131.849624q0 56.781955-12.511278 100.090226t-37.533835 88.541353q-12.511278 22.135338-27.909774 35.609023t-32.240602 21.654135-34.165414 11.067669-34.646617 2.887218l-783.398496 0q-21.172932 0-42.345865-13.954887t-38.496241-35.12782-27.909774-47.157895-10.586466-50.045113q0-103.93985 56.781955-159.759398t150.135338-55.819549q22.135338 0 39.458647 2.887218t32.240602 8.180451 29.834586 13.954887 32.240602 20.210526q10.586466-59.669173 42.345865-111.639098t82.285714-90.947368 117.894737-61.112782 149.172932-22.135338zM1024 905.62406q22.135338-6.736842 42.345865-42.345865t20.210526-99.12782q0-48.120301-17.323308-89.503759t-48.120301-71.218045-72.180451-46.676692-89.503759-16.842105-84.210526 7.699248-63.037594 19.24812-45.233083 25.984962-30.796992 26.947368q-12.511278 13.473684-25.022556 31.759398t-22.135338 38.496241-14.43609 40.421053-1.924812 35.609023q3.849624 27.909774-10.586466 47.157895t-37.052632 27.428571-47.639098 3.849624-42.345865-23.578947-41.864662-29.834586-61.112782-10.586466q-29.834586 0-48.601504 4.330827t-29.353383 13.473684-14.43609 23.097744-3.849624 32.240602q0 15.398496 6.736842 25.503759t17.804511 15.879699 24.541353 8.180451 26.947368 2.406015l712.180451 0zM179.969925 541.834586q0 25.022556-17.323308 42.827068t-42.345865 17.804511l-60.631579 0q-25.022556 0-42.345865-17.804511t-17.323308-42.827068 17.323308-42.345865 42.345865-17.323308l60.631579 0q25.022556 0 42.345865 17.323308t17.323308 42.345865z" /></svg>