<?xml version="1.0" standalone="no"?><!DOCTYPE svg PUBLIC "-//W3C//DTD SVG 1.1//EN" "http://www.w3.org/Graphics/SVG/1.1/DTD/svg11.dtd"><svg class="icon" width="200px" height="200.00px" viewBox="0 0 1024 1024" version="1.1" xmlns="http://www.w3.org/2000/svg"><path d="M880.81 390.38c-153.42-236-333.4-227.19-445.52-188.84C358.57 228.1 290.71 284.16 249.4 355c-118 206.54 79.67 368.81 79.67 368.81l-0.63-2.11A277.4 277.4 0 0 0 365 747.61c-2.12-0.06-4.25-0.14-6.39-0.22-123.92-11.8-215.38-115.07-215.38-115.07 153.42 236 333.4 230.14 445.52 188.83 79.67-26.55 144.58-79.66 185.89-153.43 121-206.53-79.67-368.81-79.67-368.81s0.14 0.34 0.39 1a283 283 0 0 0-32.3-25c1.58 0.23 2.41 0.37 2.41 0.37 123.88 14.78 215.34 115.1 215.34 115.1zM574 591c-47.21 35.41-112.12 26.56-144.57-17.7-35.41-44.26-26.56-109.17 17.7-144.58s109.17-26.55 144.57 17.71S618.22 555.61 574 591z" /></svg>