<?xml version="1.0" standalone="no"?><!DOCTYPE svg PUBLIC "-//W3C//DTD SVG 1.1//EN" "http://www.w3.org/Graphics/SVG/1.1/DTD/svg11.dtd"><svg class="icon" width="200px" height="165.43px" viewBox="0 0 1238 1024" version="1.1" xmlns="http://www.w3.org/2000/svg"><path d="M861.984971 925.794255l-39.89777-23.528456 36.828703-24.551411c12.276268-9.206792 17.391346-28.643329 7.161191-41.94204-8.184145-14.321665-26.598547-17.390629-41.94378-8.183838l-23.52948 15.344619 0-29.666336c0-17.390629-14.322279-29.666386-31.713625-29.666386-15.345335 0-29.667614 12.275756-29.667614 29.666386l0 35.804199-28.644558-18.413584c-14.322279-9.206792-32.736681-4.091919-41.94378 9.206792s-5.115078 33.758202 9.207201 42.964994l33.759636 20.459492-39.89777 26.597421c-13.299222 9.206792-18.414402 28.643329-8.184145 41.94204 6.138134 9.206792 15.345335 14.321665 25.575491 14.321665 5.115078 0 11.253212-3.068965 17.391346-6.137827l32.736681-23.528456 0 36.827176c0 16.367675 14.322279 30.68934 29.667614 30.68934 17.391346 0 31.713625-14.321665 31.713625-30.68934l0-33.758245 28.644558 18.413584c4.092124 3.068965 10.230155 4.091919 15.345335 4.091919 11.253212 0 21.48347-4.091919 25.575491-13.298711C879.376317 954.437687 875.284194 935.001047 861.984971 925.794255L861.984971 925.794255zM984.747348 210.733257c-12.276268 0-22.506424 3.068965-34.782692 4.091919-40.920826-120.71135-171.867347-214.825176-314.067182-214.825176l-2.04604 0c-217.903251 1.022954-318.159203 142.193795-351.918941 255.744261-12.276268-1.022954-24.552434-2.045908-35.805748-2.045908-87.979684 0-167.775326 42.964994-213.81123 117.642385 0 0 0 0 0 2.045908-33.759636 61.378578-68.542328 203.572476 53.196992 295.640393 36.828703 28.643329 94.117818 31.712294 116.624242 31.712294 1.023056 0 1.023056 0 1.023056 0l814.323955 0c3.069067 0 6.138134 0 11.253212-1.022954 71.611395-13.298711 208.69605-83.88408 208.69605-245.514516C1237.433291 320.191804 1124.90107 210.733257 984.747348 210.733257L984.747348 210.733257zM1010.322838 590.257832l-807.162815 0-1.02302 0c-21.48347 0-43.989893-5.114873-50.128027-8.183838-71.611395-56.263705-29.667614-141.170841-22.506424-154.469552 34.782692-57.286761 93.094864-62.401634 116.624242-62.401634 21.48347 0 37.851759 5.114873 41.94378 8.183838 17.391346 12.275756 39.89777 15.344619 56.266059 7.160884 19.437357-7.160884 32.736681-24.551411 34.782692-46.033959 0-8.183838 21.48347-221.986059 255.75501-223.009013l1.02302 0c117.647298 0 211.765117 92.067918 213.81123 171.860181 0 18.413584 9.207201 34.781259 22.506424 45.011005 15.345335 10.229746 33.759636 12.275756 51.150982 6.137827 21.48347-7.160884 41.94378-11.2527 61.381239-11.2527 89.002741 0 141.176779 66.493553 141.176779 130.941095C1125.924126 554.453619 1035.898329 584.119903 1010.322838 590.257832L1010.322838 590.257832zM479.375462 791.784297c-33.759636 0-60.358183 26.597421-60.358183 60.355624l0 102.297711c0 34.781259 26.598547 61.378578 60.358183 61.378578s61.381239-26.597421 61.381239-61.378578l0-102.297711C540.756701 818.381719 513.135097 791.784297 479.375462 791.784297z" /></svg>