<?xml version="1.0" standalone="no"?><!DOCTYPE svg PUBLIC "-//W3C//DTD SVG 1.1//EN" "http://www.w3.org/Graphics/SVG/1.1/DTD/svg11.dtd"><svg class="icon" width="200px" height="177.78px" viewBox="0 0 1152 1024" version="1.1" xmlns="http://www.w3.org/2000/svg"><path d="M444.416 256q0-27.648 10.24-51.2t28.16-41.472 41.472-28.16 51.2-10.24q26.624 0 50.176 10.24t41.472 28.16 28.16 41.472 10.24 51.2q0 26.624-10.24 50.688t-28.16 41.472-41.472 27.648-50.176 10.24l-12.288 0q-5.12 0-10.24-2.048l-488.448 0 0-128 379.904 0zM707.584 643.072q26.624 0 49.664 9.728t40.448 27.136 27.136 40.448 9.728 49.664-9.728 49.664-27.136 39.936-40.448 27.136-49.664 10.24-49.664-10.24-39.936-27.136-27.136-39.936-10.24-49.664l0-1.024-580.608 0 0-128 705.536 0 0 2.048 2.048 0zM992.256 254.976q32.768 0 61.952 12.8t50.688 34.816 34.304 51.2 12.8 61.952q0 33.792-12.8 62.976t-34.304 50.688-50.688 34.304-61.952 12.8l-2.048 0-990.208 0 0-128 834.56 0q-3.072-15.36-3.072-32.768 0-32.768 12.8-61.952t34.304-51.2 50.688-34.816 62.976-12.8z" /></svg>