<?xml version="1.0" standalone="no"?><!DOCTYPE svg PUBLIC "-//W3C//DTD SVG 1.1//EN" "http://www.w3.org/Graphics/SVG/1.1/DTD/svg11.dtd"><svg class="icon" width="200px" height="177.47px" viewBox="0 0 1154 1024" version="1.1" xmlns="http://www.w3.org/2000/svg"><path d="M780.288 128q73.728 0 141.312 29.184t119.296 78.848 81.92 115.712 30.208 140.8q0 60.416-19.456 122.88t-46.08 110.592q-13.312 23.552-37.376 43.008t-51.712 33.792-54.272 22.528-45.056 8.192l-714.752 0q-39.936 0-73.216-13.312t-57.856-36.864-38.4-56.832-13.824-73.216q0-55.296 13.312-104.448t40.448-86.016 68.608-58.368 97.792-21.504q24.576 0 42.496 3.072t34.304 8.704 32.256 14.848 34.304 21.504q10.24-62.464 44.032-117.76t87.552-96.768 125.44-65.024 158.72-23.552zM786.432 253.952q-86.016 0-137.216 20.992t-79.872 45.568l388.096 0q-32.768-31.744-76.288-49.152t-94.72-17.408zM515.072 384q-19.456 32.768-28.672 64.512l538.624 0q-6.144-31.744-20.48-64.512l-489.472 0zM225.28 509.952q-40.96 0-62.464 19.968t-30.72 46.592l245.76 0q-23.552-4.096-43.008-23.552-18.432-20.48-44.544-31.744t-65.024-11.264zM861.184 707.584q35.84 0 68.096-16.896t55.808-49.664l-861.184 0q1.024 15.36 8.704 27.648t18.944 20.992 25.088 13.312 28.16 4.608l656.384 0zM1016.832 576.512q10.24-30.72 11.264-63.488l-545.792 0q-2.048 25.6-20.48 41.984t-43.008 21.504l598.016 0z" /></svg>