<?xml version="1.0" standalone="no"?><!DOCTYPE svg PUBLIC "-//W3C//DTD SVG 1.1//EN" "http://www.w3.org/Graphics/SVG/1.1/DTD/svg11.dtd"><svg class="icon" width="200px" height="177.93px" viewBox="0 0 1151 1024" version="1.1" xmlns="http://www.w3.org/2000/svg"><path d="M242.07913 773.619507c-33.770496 0-62.424269 27.629261-62.424269 62.421709l0 61.398372c0 34.792448 28.653773 61.398323 62.424269 61.398323 32.747213 0 60.3776-26.605978 60.3776-61.398323l0-61.398372C302.45673 801.248768 274.826342 773.619507 242.07913 773.619507L242.07913 773.619507zM474.379469 773.619507c-35.817267 0-62.424269 27.629261-62.424269 62.421709l0 61.398372c0 34.792448 26.607104 61.398323 62.424269 61.398323 32.747213 0 59.354214-26.605978 59.354214-61.398323l0-61.398372C533.733683 801.248768 507.126579 773.619507 474.379469 773.619507L474.379469 773.619507zM698.492928 773.619507c-34.793882 0-62.424269 27.629261-62.424269 62.421709l0 61.398372c0 34.792448 27.630387 61.398323 62.424269 61.398323 32.747213 0 62.424269-26.605978 62.424269-61.398323l0-61.398372C760.917197 801.248768 731.240038 773.619507 698.492928 773.619507L698.492928 773.619507zM754.777088 0c-161.68919 0-308.028109 98.23744-370.452378 245.593498-7.163494 14.326272-12.280218 33.769062-19.44361 53.211955-38.887219-20.466074-85.961318-39.908966-140.19881-39.908966-61.400986 0-115.638477 24.559309-162.712474 73.678029-9.210163 8.18647-45.027328 46.048768-56.28416 108.470477-18.420326 97.214054 11.256832 180.101939 84.937933 230.243942 19.44361 13.302989 72.657818 35.815731 111.545037 35.815731l700.994168 0c5.116723 0 8.186778 0 12.280218-3.069952 8.186778-1.023283 89.031373-16.372941 145.315533-78.794547 58.330931-63.444992 90.054758-149.402726 90.054758-240.476979C1150.813184 171.915469 973.773824 0 754.777088 0L754.777088 0zM977.867162 549.515469c-24.560333 28.652544-66.517709 39.908966-78.797926 42.978816l-696.900771 0c-11.256832 0-40.93399-10.233037-49.120768-14.326272-12.280218-9.209754-52.190822-35.815731-36.84055-115.633562 6.140109-30.699213 24.560333-49.11872 22.513664-49.11872 2.046669 0 2.046669-1.023283 2.046669-1.023283 25.583718-27.629261 55.260877-41.955533 83.91465-41.955533 46.050714 0 89.031373 29.67593 112.568422 47.072051 1.023386 0 1.023386 3.069952 3.070054 3.069952l24.560333 18.419507c16.373555 10.233037 34.793882 12.279706 52.190822 5.116518 18.420326-5.116518 30.700442-19.44279 33.770496-36.839014 8.186778-32.745779 26.607104-94.144205 35.817267-117.68023 46.050714-106.423808 152.479027-177.031987 268.117504-177.031987 156.572467 0 283.467674 121.773466 283.467674 272.199475C1038.244762 448.208077 1017.777869 507.559834 977.867162 549.515469L977.867162 549.515469zM910.32617 773.619507c-35.817267 0-63.447654 27.629261-63.447654 62.421709l0 61.398372c0 34.792448 27.630387 61.398323 63.447654 61.398323 32.747213 0 60.3776-26.605978 60.3776-61.398323l0-61.398372C970.70377 801.248768 943.073382 773.619507 910.32617 773.619507z" /></svg>