<?xml version="1.0" standalone="no"?><!DOCTYPE svg PUBLIC "-//W3C//DTD SVG 1.1//EN" "http://www.w3.org/Graphics/SVG/1.1/DTD/svg11.dtd"><svg class="icon" width="200px" height="177.47px" viewBox="0 0 1154 1024" version="1.1" xmlns="http://www.w3.org/2000/svg"><path d="M780.288 0q73.728 0 141.312 29.184t119.296 78.848 81.92 115.712 30.208 139.776q0 60.416-19.456 122.88t-46.08 111.616q-13.312 23.552-37.376 43.008t-51.712 33.28-54.272 22.016-45.056 8.192l-714.752 0q-39.936 0-73.216-12.8t-57.856-36.864-38.4-57.344-13.824-73.216q0-55.296 13.312-103.936t40.448-85.504 68.608-58.368 97.792-21.504q24.576 0 42.496 3.072t34.304 8.704 32.256 14.848 34.304 21.504q10.24-63.488 44.032-118.784t87.552-96.256 125.44-64.512 158.72-23.552zM861.184 579.584q32.768 0 62.976-14.336t53.76-41.984 37.376-67.584 13.824-91.136-18.432-95.232-51.2-75.776-77.312-49.664-95.744-17.92-89.6 8.192-66.56 20.48-47.616 27.136-32.768 28.16q-14.336 14.336-27.648 34.304t-23.04 41.472-14.848 42.496-3.072 38.4q4.096 29.696-11.264 50.176t-39.424 28.672-50.688 3.584-44.032-25.088q-19.456-20.48-45.568-31.232t-65.024-10.752q-31.744 0-51.2 12.288t-30.72 30.72-15.36 40.448-4.096 41.472q0 16.384 7.168 29.696t18.944 23.04 26.112 14.848 28.672 5.12l656.384 0zM257.024 769.024q26.624 0 45.056 18.944t18.432 45.568l0 63.488q0 26.624-18.432 45.568t-45.056 18.944-45.568-18.944-18.944-45.568l0-63.488q0-26.624 18.944-45.568t45.568-18.944zM769.024 769.024q26.624 0 45.568 18.944t18.944 45.568l0 63.488q0 26.624-18.944 45.568t-45.568 18.944-45.056-18.944-18.432-45.568l0-63.488q0-26.624 18.432-45.568t45.056-18.944z" /></svg>