<?xml version="1.0" standalone="no"?><!DOCTYPE svg PUBLIC "-//W3C//DTD SVG 1.1//EN" "http://www.w3.org/Graphics/SVG/1.1/DTD/svg11.dtd"><svg class="icon" width="200px" height="199.80px" viewBox="0 0 1025 1024" version="1.1" xmlns="http://www.w3.org/2000/svg"><path d="M512.909414 282.827709q47.28952 0 89.122558 18.188277t72.753108 49.108348 49.108348 72.753108 18.188277 89.122558q0 48.198934-18.188277 90.031972t-49.108348 72.753108-72.753108 49.108348-89.122558 18.188277q-48.198934 0-90.031972-18.188277t-72.753108-49.108348-49.108348-72.753108-18.188277-90.031972q0-47.28952 18.188277-89.122558t49.108348-72.753108 72.753108-49.108348 90.031972-18.188277zM967.616341 454.706927q23.64476 0 40.468917 16.824156t16.824156 40.468917-16.824156 40.468917-40.468917 16.824156l-107.310835 0q-7.275311 43.651865-24.099467 82.301954t-42.287744 72.298401l80.937833 70.024867q16.369449 16.369449 16.369449 40.01421t-16.369449 40.01421q-16.369449 17.278863-40.01421 17.278863t-40.01421-17.278863l-70.934281-80.028419q-68.206039 51.83659-154.600355 65.477798l0 108.220249q0 23.64476-16.369449 40.01421t-40.01421 16.369449-40.468917-16.369449-16.824156-40.01421l0-108.220249q-86.394316-13.641208-154.600355-65.477798l-70.024867 80.028419q-17.278863 17.278863-40.468917 17.278863t-40.468917-17.278863q-16.369449-16.369449-16.369449-40.01421t16.369449-40.01421l80.937833-70.024867q-50.927176-68.206039-66.387211-154.600355l-107.310835 0q-23.64476 0-40.468917-16.824156t-16.824156-40.468917 16.824156-40.468917 40.468917-16.824156l107.310835 0q15.460036-86.394316 66.387211-154.600355l-80.937833-70.024867q-16.369449-16.369449-16.369449-40.01421t16.369449-40.01421q17.278863-17.278863 40.468917-17.278863t40.468917 17.278863l70.024867 80.937833q33.648313-25.463588 72.298401-42.287744t82.301954-24.099467l0-108.220249q0-23.64476 16.824156-40.01421t40.468917-16.369449 40.01421 16.369449 16.369449 40.01421l0 108.220249q43.651865 7.275311 82.301954 24.099467t72.298401 42.287744l70.934281-80.937833q16.369449-17.278863 40.01421-17.278863t40.01421 17.278863q16.369449 16.369449 16.369449 40.01421t-16.369449 40.01421l-80.937833 70.024867q25.463588 33.648313 42.287744 72.298401t24.099467 82.301954l107.310835 0zM512.909414 795.737123q58.202487 0 110.039076-22.280639t90.486679-60.930728 60.930728-90.031972 22.280639-110.493783q0-58.202487-22.280639-110.039076t-60.930728-90.486679-90.486679-60.930728-110.039076-22.280639q-59.111901 0-110.94849 22.280639t-90.031972 60.930728-60.476021 90.486679-22.280639 110.039076q0 59.111901 22.280639 110.493783t60.476021 90.031972 90.031972 60.930728 110.94849 22.280639z" /></svg>