<?xml version="1.0" standalone="no"?><!DOCTYPE svg PUBLIC "-//W3C//DTD SVG 1.1//EN" "http://www.w3.org/Graphics/SVG/1.1/DTD/svg11.dtd"><svg class="icon" width="200px" height="200.00px" viewBox="0 0 1024 1024" version="1.1" xmlns="http://www.w3.org/2000/svg"><path d="M512 64C264.8 64 64 264.8 64 512s200.8 448 448 448 448-200.8 448-448S759.2 64 512 64zM340.8 695.2c0 4.8-4 9.6-8.8 10.4l-64 2.4c-6.4 0.8-12.8-4-12.8-10.4v-240c0-6.4 5.6-11.2 12-10.4l64 2.4c4.8 0.8 8.8 5.6 8.8 10.4v235.2zM720 677.6s-14.4 49.6-32 49.6c0 0-224-21.6-284-21.6-10.4 0-19.2-8.8-19.2-19.2V458.4c0-7.2 3.2-13.6 9.6-16.8 52.8-32 145.6-112 145.6-180 0-3.2-4-44 27.2-44 0 0 78.4 18.4 29.6 212h136.8s31.2-3.2 31.2 32.8c0 0 1.6 44-44.8 215.2z" /></svg>