<?xml version="1.0" standalone="no"?><!DOCTYPE svg PUBLIC "-//W3C//DTD SVG 1.1//EN" "http://www.w3.org/Graphics/SVG/1.1/DTD/svg11.dtd"><svg class="icon" width="200px" height="200.00px" viewBox="0 0 1024 1024" version="1.1" xmlns="http://www.w3.org/2000/svg"><path d="M152.474 62.225c-26.856 0-56.286 21.748-56.286 48.663v802.451c0 26.798 28.773 48.653 55.579 48.653 26.789 0 56.286-21.857 56.286-48.663v-802.434c0-26.914-28.78-48.663-55.579-48.663zM730.146 129.011c-157.836 0-157.836-64.694-315.663-64.694-91.108 0-161.46 42.504-161.46 42.504l-0.658 484.313s71.010-42.446 162.119-42.446c157.827 0 157.827 64.694 315.663 64.694 98.74 0 197.923-51.845 197.923-51.845v-484.264s-99.183 51.737-197.923 51.737z" /></svg>