<?xml version="1.0" standalone="no"?><!DOCTYPE svg PUBLIC "-//W3C//DTD SVG 1.1//EN" "http://www.w3.org/Graphics/SVG/1.1/DTD/svg11.dtd"><svg class="icon" width="200px" height="200.00px" viewBox="0 0 1024 1024" version="1.1" xmlns="http://www.w3.org/2000/svg"><path d="M564.224 44.032q43.008 0 58.368 20.48t15.36 65.536q0 20.48 0.512 64.512t0.512 93.696 0.512 96.768 0.512 74.752q0 38.912 7.68 61.952t35.328 22.016q19.456 0 48.128 1.024t49.152 1.024q35.84 0 45.568 18.944t-13.824 49.664q-24.576 30.72-57.344 72.704t-68.096 86.016-69.12 86.528-59.392 75.264q-23.552 29.696-45.568 30.72t-45.568-27.648q-24.576-29.696-57.344-69.632t-67.072-82.432-67.584-83.968-59.904-74.24q-29.696-35.84-22.528-58.88t44.032-23.04l24.576 0q14.336 0 29.696-0.512t30.208-1.536 26.112-1.024q26.624 0 32.768-15.36t6.144-41.984q0-29.696-0.512-77.824t-0.512-100.352-0.512-101.376-0.512-79.872q0-13.312 2.048-27.648t9.728-26.112 20.992-19.456 36.864-7.68q27.648 0 53.248-0.512t57.344-0.512z" /></svg>