<?xml version="1.0" standalone="no"?><!DOCTYPE svg PUBLIC "-//W3C//DTD SVG 1.1//EN" "http://www.w3.org/Graphics/SVG/1.1/DTD/svg11.dtd"><svg class="icon" width="200px" height="200.00px" viewBox="0 0 1024 1024" version="1.1" xmlns="http://www.w3.org/2000/svg"><path d="M554.666667 849.066667c-12.8 0-29.866667 4.266667-42.666667 4.266666-187.733333 0-341.333333-153.6-341.333333-341.333333 0-64 17.066667-123.733333 51.2-179.2l8.533333-12.8c25.6-42.666667 59.733333-76.8 102.4-102.4 42.666667-25.6 89.6-42.666667 140.8-46.933333h38.4c187.733333 0 341.333333 153.6 341.333333 341.333333 0 76.8-25.6 145.066667-64 200.533333l-4.266666 4.266667c-25.6 34.133333-59.733333 64-98.133334 89.6-42.666667 25.6-89.6 38.4-132.266666 42.666667zM507.733333 768v-85.333333l-64-93.866667 106.666667-106.666667 64 76.8h102.4l34.133333 34.133334c8.533333-25.6 12.8-51.2 12.8-81.066667 0-140.8-115.2-256-256-256-12.8 0-25.6 0-38.4 4.266667l-29.866666 29.866666L494.933333 341.333333l17.066667 115.2-85.333333 85.333334-145.066667-140.8C264.533333 435.2 256 469.333333 256 512c0 140.8 110.933333 256 251.733333 256z" fill="#444444" /></svg>