<?xml version="1.0" standalone="no"?><!DOCTYPE svg PUBLIC "-//W3C//DTD SVG 1.1//EN" "http://www.w3.org/Graphics/SVG/1.1/DTD/svg11.dtd"><svg class="icon" width="200px" height="200.00px" viewBox="0 0 1024 1024" version="1.1" xmlns="http://www.w3.org/2000/svg"><path d="M557.728 688v288.384H466.24V688H227.52c-9.6 0-18.048-3.712-24.96-11.264A37.824 37.824 0 0 1 192 649.984c0-48.768 14.432-92.704 43.584-131.84 29.12-38.976 61.92-58.56 98.56-58.56V200.512c-19.296 0-35.84-7.552-50.048-22.656a76.16 76.16 0 0 1-21.12-53.6c0-20.672 7.04-38.4 21.12-53.6 13.984-14.976 30.72-22.656 50.048-22.656h355.584c19.296 0 35.84 7.552 50.048 22.656 13.984 15.104 21.152 32.928 21.152 53.6 0 20.672-7.04 38.4-21.12 53.6-14.112 15.232-30.784 22.656-50.08 22.656v258.944c36.64 0 69.568 19.584 98.56 58.56A215.424 215.424 0 0 1 832 649.984c0 10.272-3.456 19.328-10.528 26.752-7.04 7.424-15.36 11.264-24.96 11.264H557.76z" fill="#9C9C9C" /></svg>