<?xml version="1.0" standalone="no"?><!DOCTYPE svg PUBLIC "-//W3C//DTD SVG 1.1//EN" "http://www.w3.org/Graphics/SVG/1.1/DTD/svg11.dtd"><svg class="icon" width="200px" height="200.00px" viewBox="0 0 1024 1024" version="1.1" xmlns="http://www.w3.org/2000/svg"><path d="M874.048 533.333333C863.424 716.629333 716.629333 863.424 533.333333 874.048V917.333333a21.333333 21.333333 0 0 1-42.666666 0v-43.285333C307.370667 863.424 160.576 716.629333 149.952 533.333333H106.666667a21.333333 21.333333 0 0 1 0-42.666666h43.285333C160.576 307.370667 307.370667 160.576 490.666667 149.952V106.666667a21.333333 21.333333 0 0 1 42.666666 0v43.285333c183.296 10.624 330.090667 157.418667 340.714667 340.714667h42.816a21.333333 21.333333 0 1 1 0 42.666666H874.026667z m-42.752 0h-127.786667a21.333333 21.333333 0 0 1 0-42.666666h127.786667C820.778667 330.922667 693.056 203.221333 533.333333 192.704V320a21.333333 21.333333 0 0 1-42.666666 0V192.704C330.922667 203.221333 203.221333 330.944 192.704 490.666667H320a21.333333 21.333333 0 0 1 0 42.666666H192.704c10.517333 159.744 138.24 287.445333 297.962667 297.962667V704a21.333333 21.333333 0 0 1 42.666666 0v127.296c159.744-10.517333 287.445333-138.24 297.962667-297.962667zM512 554.666667a42.666667 42.666667 0 1 1 0-85.333334 42.666667 42.666667 0 0 1 0 85.333334z" fill="#3D3D3D" /></svg>