<?xml version="1.0" standalone="no"?><!DOCTYPE svg PUBLIC "-//W3C//DTD SVG 1.1//EN" "http://www.w3.org/Graphics/SVG/1.1/DTD/svg11.dtd"><svg class="icon" width="200px" height="200.00px" viewBox="0 0 1024 1024" version="1.1" xmlns="http://www.w3.org/2000/svg"><path d="M512 621.696l-150.848-150.826667 30.165333-30.186666L512 561.365333l120.682667-120.682666 30.165333 30.165333L512 621.696z m150.848-150.826667l-30.165333-30.186666a170.666667 170.666667 0 1 0-241.365334 0L361.173333 470.826667c-83.306667-83.306667-83.306667-218.389333 0-301.696 83.306667-83.306667 218.389333-83.306667 301.696 0 83.306667 83.306667 83.306667 218.389333 0 301.696zM512 362.666667a42.666667 42.666667 0 1 1 0-85.333334 42.666667 42.666667 0 0 1 0 85.333334z m-134.186667 365.290666a21.333333 21.333333 0 1 1 30.144-30.165333l110.634667 110.613333L857.664 469.333333H768v-42.666666h106.538667A63.936 63.936 0 0 1 938.666667 490.474667V874.88A64 64 0 0 1 874.602667 938.666667H149.397333A63.914667 63.914667 0 0 1 85.333333 874.858667V490.453333A63.808 63.808 0 0 1 149.461333 426.666667H256v42.666666H149.461333A21.141333 21.141333 0 0 0 128 490.474667v302.208l200.042667-200.042667a21.205333 21.205333 0 0 1 30.058666 0.128c8.32 8.32 8.192 21.973333 0.106667 30.037333L130.474667 850.56a21.333333 21.333333 0 0 1-2.474667 2.133333v22.186667c0 11.669333 9.536 21.141333 21.397333 21.141333h396.437334l-168.042667-168.042666zM874.581333 896A21.333333 21.333333 0 0 0 896 874.858667V491.050667a21.973333 21.973333 0 0 1-1.984 2.261333L548.757333 838.592l54.186667 54.186667c1.002667 1.002667 1.898667 2.090667 2.666667 3.221333h269.013333z" fill="#3D3D3D" /></svg>