<?xml version="1.0" standalone="no"?><!DOCTYPE svg PUBLIC "-//W3C//DTD SVG 1.1//EN" "http://www.w3.org/Graphics/SVG/1.1/DTD/svg11.dtd"><svg class="icon" width="200px" height="200.00px" viewBox="0 0 1024 1024" version="1.1" xmlns="http://www.w3.org/2000/svg"><path d="M674.242038 0q58.700637 0 112.509554 23.235669t94.980892 62.77707 65.22293 92.127389 24.050955 111.286624q0 48.101911-15.490446 97.834395t-36.687898 88.866242q-10.598726 18.751592-29.757962 34.242038t-41.171975 26.496815-43.210191 17.528662-35.872611 6.522293l-569.070064 0q-31.796178 0-58.292994-10.191083t-46.063694-29.350318-30.573248-45.656051-11.006369-58.292994q0-44.025478 10.598726-82.751592t32.203822-68.076433 54.624204-46.471338 77.859873-17.121019q19.566879 0 33.834395 2.44586t27.312102 6.929936 25.681529 11.821656 27.312102 17.121019q8.152866-50.547771 35.057325-94.573248t69.707006-76.636943 99.872611-51.363057 126.369427-18.751592zM738.649682 461.452229q26.089172 0 50.140127-11.414013t42.802548-33.426752 29.757962-53.808917 11.006369-72.56051-14.675159-75.821656-40.764331-60.33121-61.55414-39.541401-76.229299-14.267516-71.33758 6.522293-52.993631 16.305732-37.910828 21.605096-26.089172 22.420382q-11.414013 11.414013-22.012739 27.312102t-18.343949 33.019108-11.821656 34.242038-2.44586 30.165605q3.261146 23.643312-8.968153 39.949045t-31.388535 22.828025-40.356688 2.853503-35.057325-19.974522q-15.490446-16.305732-36.280255-24.866242t-51.770701-8.56051q-25.273885 0-40.764331 9.783439t-24.458599 24.458599-12.229299 32.203822-3.261146 33.019108q0 13.044586 5.707006 23.643312t15.082803 18.343949 20.789809 11.821656 22.828025 4.076433l522.598726 0zM512.815287 714.191083l100.280255 0-100.280255 309.808917 0-210.343949-103.541401 0 2.44586-199.745223 101.095541 0 0 100.280255z" /></svg>