<?xml version="1.0" standalone="no"?><!DOCTYPE svg PUBLIC "-//W3C//DTD SVG 1.1//EN" "http://www.w3.org/Graphics/SVG/1.1/DTD/svg11.dtd"><svg class="icon" width="200px" height="177.47px" viewBox="0 0 1154 1024" version="1.1" xmlns="http://www.w3.org/2000/svg"><path d="M755.801088 0c-161.68919 0-308.028109 95.167488-372.499046 245.593498-4.09344 14.326272-12.280218 34.792448-18.420326 55.258522-37.863936-23.536026-85.961318-42.978816-139.175526-42.978816-62.424269 0-117.685146 25.582694-165.782528 74.701312-7.163494 8.18647-42.980659 46.048768-54.237491 109.49376-18.420326 97.214054 11.256832 179.078554 84.937933 229.220557 22.513664 15.349555 73.681101 36.839014 110.521754 36.839014 0 0 0 0 7.163494 0l161.689166 0 10.233491 0c31.723827 0 57.307546-25.582694 57.307546-55.258522 0-31.722496-25.583718-57.30519-57.307546-57.30519l-10.233491 0 0-1.023306-168.852582 1.023283c-9.210163 0-38.887219-11.25632-47.074099-17.396224-13.303501-8.18647-54.237491-36.839014-37.863936-115.633562 6.140109-30.699213 23.53705-50.142003 23.53705-50.142003l1.023349 0c27.630387-27.629261 55.260877-39.908966 84.937933-39.908966 46.050714 0 90.054758 28.652544 112.568422 46.048768 0 0 0 1.023283 1.023386 1.023283l25.583718 18.419507c15.350272 11.25632 34.793882 14.326272 53.214106 8.18647 17.396941-7.163187 29.677158-21.489459 35.817267-39.908966 7.163494-32.745779 24.560333-93.120819 33.770496-115.633562 47.074099-108.470477 151.455642-179.078554 268.117504-179.078554 156.572467 0 284.491059 121.773466 284.491059 272.199475 0 65.491558-20.466995 123.820032-60.3776 165.775565-26.607104 28.652544-67.541094 39.908966-78.797926 44.002202l-140.198834 0-9.210142 0c-30.700442 0-56.28416 24.559309-56.28416 57.30519 0 29.67593 25.583718 55.258522 56.28416 55.258522l12.28019 0 142.245581-1.023283 9.210142 0c8.186778-2.046566 90.054758-17.396224 146.338918-79.817933 59.354214-62.421709 91.078042-148.379443 91.078042-241.500262C1152.86057 171.915469 974.797824 0 755.801088 0L755.801088 0zM301.434061 744.966963c-32.747213 0-61.400986 28.652544-61.400986 62.421709l0 63.444984c0 33.769062 28.653773 61.398323 61.400986 61.398323 34.793882 0 61.400986-27.629261 61.400986-61.398323l0-63.444984C362.835046 773.619507 336.227942 744.966963 301.434061 744.966963L301.434061 744.966963zM815.155302 744.966963c-33.770496 0-60.3776 28.652544-60.3776 62.421709l0 63.444984c0 33.769062 26.607104 61.398323 60.3776 61.398323s61.400986-27.629261 61.400986-61.398323l0-63.444984C876.556288 773.619507 848.925901 744.966963 815.155302 744.966963L815.155302 744.966963zM591.041843 599.657472l-53.214156 0c-24.560333 0-44.004045 24.559309-44.004045 54.235238l0 237.407038c0 29.67593 19.44361 54.235238 44.004045 54.235238l53.214156 0c25.583718 0 45.027328-24.559309 45.027328-54.235238L636.069171 653.892661C636.069274 624.216781 616.625562 599.657472 591.041843 599.657472z" /></svg>