<?xml version="1.0" standalone="no"?><!DOCTYPE svg PUBLIC "-//W3C//DTD SVG 1.1//EN" "http://www.w3.org/Graphics/SVG/1.1/DTD/svg11.dtd"><svg t="1692694613325" class="icon" viewBox="0 0 1024 1024" version="1.1" xmlns="http://www.w3.org/2000/svg" p-id="1741" xmlns:xlink="http://www.w3.org/1999/xlink" width="200" height="200"><path d="M470.896845 960.26624L491.172045 495.616h33.50528c0.32768 2.37568 1.06496 5.12 1.14688 7.82336 2.33472 54.23104 4.5056 108.50304 6.92224 162.77504 3.2768 74.62912 6.67648 149.25824 9.99424 223.88736 1.024 23.3472 2.12992 46.6944 2.6624 70.12352h260.096a21.2992 21.2992 0 0 1 0 42.63936H208.220365a21.2992 21.2992 0 0 1 0-42.63936h262.71744zM919.941325 385.024c9.4208 87.2448-6.9632 169.3696-49.11104 246.29248a415.00672 415.00672 0 0 1-95.51872 116.08064c-1.18784 0.98304-2.41664 1.8432-4.42368 3.31776-78.06976-86.58944-156.13952-173.056-233.34912-258.62144l28.4672-28.18048c7.04512 7.7824 15.19616 16.384 22.85568 25.3952 4.5056 5.36576 9.17504 7.41376 16.42496 6.06208 16.22016-2.94912 32.64512-4.5056 48.90624-7.33184 5.07904-0.90112 7.24992 0.4096 9.58464 4.7104a25050.3168 25050.3168 0 0 0 70.8608 129.8432c0.90112 1.76128 2.048 3.56352 4.17792 7.168 10.32192-15.11424 20.56192-28.59008 29.16352-43.008 32.07168-53.8624 45.09696-112.35328 41.24672-174.73536-0.32768-4.99712-1.024-9.95328-1.18784-14.9504-0.2048-4.5056 2.08896-7.45472 6.79936-7.90528 4.5056-0.49152 7.90528 1.31072 8.64256 5.89824 1.10592 6.84032 1.92512 13.76256 2.21184 20.6848 3.72736 84.62336-21.25824 159.58016-75.776 224.58368-1.47456 1.67936-2.4576 5.40672-1.55648 7.04512 11.6736 22.1184 23.7568 43.95008 35.75808 65.82272 0.24576 0.53248 0.8192 0.98304 2.70336 3.19488 13.68064-16.09728 27.60704-31.00672 39.85408-47.18592a389.12 389.12 0 0 0 76.3904-187.10528 380.3136 380.3136 0 0 0 0.6144-95.51872c-0.77824-6.30784 1.88416-10.77248 6.79936-11.4688 5.12-0.73728 8.68352 3.15392 9.46176 9.91232zM344.740045 811.95008a173.21984 173.21984 0 0 1-23.63392-10.81344C205.680845 740.18816 133.755085 645.81632 104.386765 518.84032c-0.98304-4.21888-1.35168-8.56064-2.4576-12.77952-1.10592-3.97312 0.28672-5.24288 4.13696-6.02112 40.5504-8.51968 81.01888-17.2032 121.52832-25.92768 69.79584-14.90944 139.55072-29.85984 209.34656-44.72832 2.08896-0.4096 4.17792-0.69632 5.5296-0.94208 3.2768 12.94336 6.30784 25.3952 9.58464 38.58432-9.37984 2.048-19.98848 4.79232-30.80192 6.47168-8.6016 1.39264-13.76256 5.07904-16.71168 13.7216-4.9152 14.58176-11.4688 28.672-16.67072 43.08992-2.12992 5.85728-5.07904 7.12704-10.97728 6.9632-48.00512-1.39264-96.01024-2.4576-143.9744-3.60448H224.809165c2.21184 5.77536 3.85024 10.6496 5.89824 15.36 31.3344 73.60512 83.47648 127.01696 156.30336 160.19456a18.35008 18.35008 0 0 1 7.9872 7.70048c0.8192 1.51552-1.06496 6.22592-2.82624 7.04512-2.8672 1.31072-7.3728 1.88416-10.07616 0.53248-16.54784-8.51968-33.5872-16.50688-49.07008-26.74688-58.9824-39.07584-100.02432-92.44672-123.65824-159.1296-1.10592-3.15392-2.00704-5.85728-6.38976-5.9392-24.9856-0.36864-49.9712-1.024-74.9568-1.51552-1.024 0-2.048 0.32768-4.25984 0.73728 4.38272 13.5168 8.02816 26.86976 12.98432 39.77216 39.936 103.75168 110.71488 178.5856 211.92704 224.62464 2.4576 1.14688 5.7344 2.58048 6.63552 4.66944 1.10592 2.58048 1.26976 7.5776-0.28672 8.76544-2.58048 2.048-7.33184 3.2768-10.24 2.21184zM273.141965 114.0736c-4.25984 2.74432-8.192 4.13696-12.288 0.2048-4.01408-3.80928-2.70336-9.4208 2.99008-13.59872A404.76672 404.76672 0 0 1 379.637965 40.79616c88.6784-28.83584 177.11104-27.648 265.33888 2.17088 2.4576 0.8192 4.7104 1.92512 7.49568 3.072l-107.43808 331.85792c-13.02528-3.6864-25.31328-7.29088-38.42048-11.0592 3.072-9.70752 6.06208-20.56192 10.07616-31.00672 3.072-7.86432 1.67936-13.76256-3.6864-20.15232-11.4688-13.59872-22.28224-27.8528-33.5872-42.1888l82.90304-136.15104c-10.15808-1.31072-19.0464-2.99008-28.0576-3.64544-71.8848-5.3248-137.74848 12.04224-197.26336 52.92032-3.23584 2.17088-6.144 5.3248-9.70752 6.38976a12.65664 12.65664 0 0 1-9.74848-1.55648c-3.4816-2.6624-3.03104-6.9632-0.12288-10.4448 1.06496-1.31072 2.62144-2.33472 3.97312-3.2768 62.464-45.056 132.21888-65.08544 208.97792-60.57984 11.8784 0.69632 23.63392 3.19488 35.47136 4.42368 2.4576 0.2048 6.3488-0.8192 7.45472-2.6624 13.63968-21.7088 26.86976-43.6224 40.18176-65.536 0.28672-0.49152 0.28672-1.2288 0.65536-2.99008-9.6256-2.2528-19.16928-4.9152-28.79488-6.7584C489.697485 25.8048 399.175885 40.1408 314.183885 87.6544c-14.17216 7.86432-27.4432 17.44896-41.04192 26.46016zM508.457165 387.072a45.38368 45.38368 0 0 1 45.056 45.8752 44.8512 44.8512 0 0 1-45.75232 44.97408 45.2608 45.2608 0 0 1-44.97408-45.30176c0.08192-25.02656 21.01248-45.8752 45.6704-45.54752z" fill="#999999" p-id="1742"></path></svg>