<?xml version="1.0" standalone="no"?><!DOCTYPE svg PUBLIC "-//W3C//DTD SVG 1.1//EN" "http://www.w3.org/Graphics/SVG/1.1/DTD/svg11.dtd"><svg t="1692788505847" class="icon" viewBox="0 0 1024 1024" version="1.1" xmlns="http://www.w3.org/2000/svg" p-id="22434" xmlns:xlink="http://www.w3.org/1999/xlink" width="200" height="200"><path d="M818.384953 1023.989761c-14.498825 0-25.587969-12.338336-25.587969-28.465208 0-16.126871 11.089144-28.465207 25.587969-28.465207h104.522603c-49.988181-124.059156-77.726399-259.770616-81.13608-395.625426H697.274711c-14.498825 0-25.587969-12.328097-25.587969-28.465208 0-16.116632 11.089144-28.454968 25.598208-28.454968h144.117912v-59.766696H664.877619c-14.498825 0-25.587969-12.338336-25.587969-28.465208 0-16.126871 11.089144-28.465207 25.587969-28.465207h202.123451c14.509064 0 25.598208 12.338336 25.598208 28.465207v109.171238a33.308388 33.308388 0 0 1 0.030718 14.71385l-0.030718-7.187977c0 146.165768 30.042057 292.331537 86.327397 424.090634h18.57406c14.498825 0 25.587969 12.328097 25.587969 28.465208 0 16.116632-11.089144 28.454968-25.598208 28.454968H818.395192z m-665.246233-659.379124c14.498825 0 25.587969 12.338336 25.587969 28.465208 0 212.516324-45.206436 425.032648-130.489426 615.729059-4.269781 9.491816-13.648965 15.184857-23.038387 15.184857-4.259542 0-7.669223-0.952253-11.078904-2.846521-12.799104-6.645295-17.918746-23.71418-11.089144-37.946784C84.064515 800.087354 127.550751 596.110592 127.550751 393.075845c0-16.126871 11.089144-28.465207 25.587969-28.465208zM229.902627 1023.989761c-14.498825 0-25.598208-12.338336-25.598208-28.465208 0-16.126871 11.099383-28.465207 25.598208-28.465207h437.012609c-70.241483-170.381673-108.966452-357.873189-112.632116-545.518294H323.71494c-14.498825 0-25.587969-12.338336-25.587969-28.465207 0-16.126871 11.089144-28.465207 25.587969-28.465208h230.271241v-99.617986H153.14896c-14.498825 0-25.587969-12.328097-25.587969-28.465208 0-16.116632 11.089144-28.454968 25.587969-28.454968h426.435429c14.498825 0 25.598208 12.338336 25.598208 28.465207v156.538163c0 202.727569 42.953793 405.444899 123.85437 586.751887 2.600778 4.443849 4.064995 9.829712 4.064996 15.696821 0 3.890928-0.645075 7.56683-1.822593 10.894598-2.180967 6.276681-6.256202 11.631826-11.816132 14.724089-2.436949 1.085364-4.607677 1.86355-6.798885 2.324317l-0.450528 0.071675a15.973282 15.973282 0 0 1-1.361825 0.235504l-0.153589 0.010239a17.939224 17.939224 0 0 1-1.42326 0.14335h-0.102393l-1.648525 0.061436H229.902627z m146.841561-453.876709l-21.369384 93.382263 54.718729 13.72064L334.00542 798.418351l19.249852-83.900687-45.779835-11.43728 69.268751-132.967332z m476.607917-352.548762c13.648965 15.174618 35.817013 15.174618 49.465978 0 10.239283-11.386083 26.437829-11.386083 35.827252 0 10.239283 11.375844 10.239283 29.407221 0 39.841052-16.208785 18.021139-38.387073 27.512954-60.555121 27.512954-22.178288 0-44.356575-9.481576-60.555121-27.512954-13.648965-15.174618-35.827252-15.174618-49.465978 0-10.239283 11.386083-26.448069 11.386083-35.827252 0-10.239283-11.386083-10.239283-29.407221 0-39.841052 33.267431-37.00477 87.85305-37.00477 121.110242 0z m-367.590268-199.235973c14.498825 0 25.587969 12.328097 25.587969 28.465207 0 16.126871-11.089144 28.465207-25.587969 28.465208h-76.763907c-51.165698 0-99.781815 31.301489-125.369784 80.634355-5.119642 9.481576-13.648965 14.232604-22.178287 14.232604a22.219245 22.219245 0 0 1-12.788865-3.788535c-11.939004-7.597548-16.208785-25.628926-9.379184-38.909276 34.967152-67.354005 99.781815-109.099563 169.71612-109.099563h76.763907z m359.060945 9.481576c13.648965 15.184857 35.817013 15.184857 49.465978 0 10.239283-11.386083 26.437829-11.386083 35.827252 0 10.239283 11.386083 10.239283 29.417461 0 39.851291-16.208785 18.021139-38.387073 27.512954-60.555121 27.512954-22.178288 0-44.356575-9.491816-60.555121-27.512954-13.648965-15.184857-35.827252-15.184857-49.465978 0-33.267431 36.99453-87.85305 36.99453-121.110242 0-13.648965-15.184857-35.827252-15.184857-49.465977 0-10.239283 11.386083-26.437829 11.386083-35.827253 0-10.239283-11.386083-10.239283-29.417461 0-39.851291 33.267431-36.99453 87.85305-36.99453 121.110243 0 13.648965 15.184857 35.827252 15.184857 49.465977 0 33.267431-36.99453 87.85305-36.99453 121.110242 0z m170.586459-2.84652l3.399442 3.788534c0.8601 1.904507 1.70996 2.85676 2.559821 4.751028 0.849861 1.894267 0.849861 3.788535 1.709961 5.693041 0 1.894267 0.849861 3.788535 0.84986 5.693042 0 7.587309-2.559821 15.184857-7.679462 19.925645-5.119642 7.587309-11.939004 10.444069-18.758367 10.444069-1.70996 0-3.409681 0-5.119642-0.962493-1.699721 0-3.409681-0.942014-5.119642-1.894267-1.699721-0.952253-2.559821-1.894267-4.259541-2.846521-1.70996-0.952253-2.559821-1.894267-4.269782-3.788535l-3.409681-3.798774c-0.849861-1.894267-1.699721-2.846521-2.559821-4.740788-0.849861-1.904507-0.849861-3.798774-1.699721-5.693041 0-1.904507-0.8601-3.798774-0.860099-5.693042 0-1.904507 0-3.788535 0.860099-5.693041 0-1.904507 0.849861-3.788535 1.699721-5.693042 0.8601-1.894267 1.70996-2.846521 2.559821-4.740788a7.075345 7.075345 0 0 1 3.409681-3.798774c1.70996-0.952253 2.559821-2.846521 4.269782-3.788535 1.699721-0.952253 2.559821-1.904507 4.259541-2.85676 1.70996-0.942014 3.419921-0.942014 5.119642-1.894267 8.529323-1.894267 17.058646 0.952253 23.038387 7.587309z" fill="#333333" p-id="22435"></path></svg>