<?xml version="1.0" standalone="no"?><!DOCTYPE svg PUBLIC "-//W3C//DTD SVG 1.1//EN" "http://www.w3.org/Graphics/SVG/1.1/DTD/svg11.dtd"><svg t="1692694566282" class="icon" viewBox="0 0 1445 1024" version="1.1" xmlns="http://www.w3.org/2000/svg" p-id="5461" xmlns:xlink="http://www.w3.org/1999/xlink" width="282.2265625" height="200"><path d="M418.635294 231.062588c3.132235 11.023059 5.782588 21.504 8.914824 32.527059-13.673412 12.528941-27.708235 25.660235-41.381647 38.791529l-207.510589 1.566118-64.993882-39.875765-6.264471-34.575058c54.994824 0 108.423529 0.542118 160.828236 0.542117 50.838588 0.481882 101.195294 0.481882 150.407529 1.024z m-17.287529-66.078117c5.240471 18.371765 9.938824 37.225412 14.637176 56.139294-48.730353-0.542118-99.026824-0.542118-150.347294-1.084236-52.404706-0.542118-105.291294-1.024-159.804235-1.024-3.614118-20.48-7.348706-40.357647-11.023059-59.753411l158.298353 3.132235c50.236235 0.542118 99.990588 1.566118 148.239059 2.590118zM134.625882 81.136941c67.584 2.650353 133.662118 4.698353 198.053647 6.806588 19.395765 12.589176 38.791529 24.696471 58.187295 36.74353 2.590118 10.420706 5.240471 20.419765 7.830588 30.900706-48.188235-1.084235-97.400471-2.108235-148.239059-3.132236-51.380706-1.084235-103.725176-2.108235-157.696-3.674353-2.168471-10.480941-3.734588-21.504-5.782588-32.527058l47.585882-35.117177z m581.632 151.491765c3.132235 10.480941 6.806588 20.48 9.999059 30.900706-10.541176 11.565176-22.046118 23.672471-33.008941 35.719529l-180.826353 1.566118c-19.877647-12.047059-39.815529-24.696471-59.753412-37.285647-2.590118-10.962824-5.722353-21.443765-8.432941-32.466824 47.766588 0.542118 94.388706 0.542118 139.986824 1.084236 44.574118 0 89.088 0.481882 132.035764 0.481882z m-20.961882-61.861647c5.782588 17.829647 12.047059 35.117176 17.829647 53.007059-43.008-0.602353-86.979765-1.084235-132.035765-1.084236L441.705412 221.063529c-5.240471-18.371765-9.938824-37.225412-15.23953-55.597176 47.164235 1.084235 93.304471 2.108235 138.360471 2.590118 44.574118 1.084235 88.064 2.168471 130.469647 2.650353zM454.174118 92.641882l174.019764 6.324706c18.311529 11.023059 36.141176 22.528 54.452706 34.032941 3.132235 9.456941 6.324706 19.456 9.999059 28.912942-43.008-0.602353-86.497882-1.626353-130.529882-2.650353L423.875765 156.009412c-2.590118-9.938824-5.240471-20.419765-8.432941-30.358588 13.131294-11.565176 26.262588-22.588235 38.791529-33.069177z m524.047058 142.095059c3.614118 9.456941 7.830588 19.395765 11.444706 28.792471-8.854588 11.023059-17.227294 22.588235-26.142117 33.611294l-159.322353 1.566118c-18.311529-12.047059-36.623059-23.612235-55.536941-35.177412-3.614118-10.420706-6.806588-20.419765-10.480942-30.358588 41.923765 0 83.365647 0.542118 123.181177 0.542117 39.755294 0.481882 78.546824 0.481882 116.85647 1.024z m-23.130352-58.187294c6.324706 16.263529 13.131294 33.008941 19.395764 49.272471-37.707294 0-76.980706-0.542118-116.254117-1.024-40.357647 0-81.257412-0.542118-123.181177-1.084236-5.782588-17.287529-11.504941-35.117176-17.829647-52.404706 41.381647 1.024 82.281412 1.566118 122.096941 2.590118 39.333647 1.084235 77.583059 1.626353 115.772236 2.650353z m-219.497412-73.908706c52.404706 2.048 103.725176 3.614118 154.081882 5.722353l50.778353 32.045177c3.674353 9.396706 7.348706 18.311529 11.023059 27.226353-37.767529-0.542118-76.016941-1.566118-115.290353-2.650353-39.815529-0.481882-80.715294-1.566118-121.554824-2.590118-3.614118-9.456941-6.806588-19.395765-9.938823-28.852706l30.900706-30.900706z m78.607059 349.665883H813.176471a2767.932235 2767.932235 0 0 1-19.877647-58.729412l72.884705-2.108236a357.376 357.376 0 0 0-51.922823 60.837648z m-4.216471-137.336471c54.512941-0.602353 107.399529-1.626353 159.322353-2.108235l9.938823 6.26447c-37.225412 15.239529-71.800471 36.141176-102.159058 62.403765l-87.521883 2.590118c-3.614118-10.962824-7.348706-21.985882-10.480941-32.527059 10.480941-12.528941 20.961882-24.576 30.900706-36.683294zM793.298824 463.811765l4.698352 14.155294c-11.023059 19.937882-20.48 40.96-27.76847 62.945882-60.777412 3.614118-123.120941 7.830588-187.572706 12.047059-20.961882-13.131294-41.923765-26.202353-63.427765-39.333647a3015.619765 3015.619765 0 0 0-9.396706-36.743529c49.754353-2.590118 98.484706-4.638118 146.130824-6.806589 46.682353-2.048 92.762353-4.156235 137.336471-6.26447z m-23.070118-69.210353c6.806588 19.456 13.071059 38.791529 19.877647 58.729412-45.056 2.108235-90.593882 3.674353-137.216 5.782588-47.706353 2.108235-96.436706 4.698353-146.251294 6.806588-5.722353-20.961882-11.023059-41.923765-16.745412-62.885647l144.624941-4.758588c46.140235-1.024 91.738353-2.590118 135.710118-3.614118z m-252.566588-76.498824c61.861647-0.542118 122.096941-1.084235 181.308235-2.108235 18.853647 12.047059 38.249412 24.094118 57.103059 36.141176 3.674353 10.541176 7.348706 21.504 11.023059 32.527059-44.574118 1.084235-89.630118 2.108235-135.710118 3.614118-47.164235 1.084235-95.412706 2.710588-144.143059 4.21647l-9.396706-34.575058 39.755294-39.81553zM483.087059 477.967059c3.132235 12.047059 6.264471 24.696471 9.456941 36.743529-13.673412 15.661176-28.310588 30.900706-42.465882 46.622118-70.776471 4.698353-143.540706 9.456941-218.533647 14.155294-22.528-14.155294-45.537882-28.310588-68.668236-42.465882a1056.105412 1056.105412 0 0 0-7.228235-39.333647 55901.967059 55901.967059 0 0 0 327.499294-15.721412z m-19.395765-73.908706c5.782588 20.48 11.023059 41.441882 16.745412 62.885647-51.802353 2.108235-104.207059 4.758588-158.177882 7.348706-55.055059 2.108235-111.134118 4.758588-168.719059 7.348706-4.216471-22.528-8.432941-45.056-12.047059-67.584 56.560941-1.626353 112.037647-3.734588 166.068706-5.300706a82444.047059 82444.047059 0 0 0 156.129882-4.698353zM182.332235 322.861176c71.258353-1.024 140.348235-2.108235 207.992471-2.650352l61.861647 38.309647c3.132235 11.504941 5.782588 23.070118 8.914823 34.575058l-155.648 4.758589-166.068705 4.698353c-2.650353-12.589176-4.818824-24.696471-6.806589-37.225412 16.745412-14.155294 33.008941-28.310588 49.754353-42.465883z m373.037177 435.139765c3.674353 14.155294 7.348706 28.310588 11.023059 41.923765-14.637176 18.371765-28.852706 37.225412-43.971765 56.079059-74.450824 9.999059-150.949647 19.395765-230.098824 29.876706-24.094118-14.637176-48.730353-29.876706-73.306353-44.574118a1340.837647 1340.837647 0 0 0-8.432941-45.598118c61.319529-6.806588 120.530824-13.071059 178.718118-19.335529 56.560941-6.324706 112.097882-12.047059 166.068706-18.371765z m-21.443765-84.449882c6.264471 24.154353 12.047059 47.766588 18.311529 71.860706-53.970824 5.782588-109.507765 11.504941-166.068705 17.829647-57.645176 6.264471-116.856471 12.047059-177.694118 18.853647a2248.824471 2248.824471 0 0 1-14.095059-77.583059c59.753412-5.782588 118.362353-11.023059 175.525647-16.263529 56.018824-4.698353 110.531765-9.396706 164.020706-14.697412z m-298.164706-76.498824c75.474824-5.240471 148.299294-10.480941 219.01553-15.239529 22.046118 13.673412 43.971765 26.744471 65.536 40.357647 3.614118 13.131294 6.806588 26.262588 10.420705 39.333647-53.428706 4.758588-107.881412 9.456941-163.478588 14.155294-57.103059 5.300706-115.772235 10.480941-175.525647 15.721412l-7.830588-42.465882 51.802353-51.862589z m555.429647 224.376471c-42.465882 5.782588-85.413647 10.962824-129.445647 16.745412-22.528-13.613176-45.056-27.768471-67.584-41.381647l-11.023059-41.441883c52.404706-5.782588 103.785412-11.504941 153.6-16.745412l23.491765-2.650352c6.324706 30.418824 16.805647 58.729412 30.960941 85.473882z m-33.551059-97.581177l-24.576 2.710589c-49.814588 5.240471-100.592941 10.420706-152.997647 16.263529-6.324706-24.154353-12.649412-47.766588-18.913882-71.318588 51.922824-4.758588 102.159059-9.456941 151.431529-13.673412l38.79153-3.614118v2.048c0 23.070118 2.108235 45.598118 6.26447 67.644236z m-169.261176-151.431529c60.235294-4.216471 118.482824-7.830588 175.525647-12.047059a420.080941 420.080941 0 0 0-12.528941 81.739294l-42.465883 3.734589c-49.212235 4.638118-99.568941 8.854588-150.889411 13.613176-3.132235-13.131294-6.806588-26.262588-10.480941-39.333647 13.613176-16.263529 27.226353-31.984941 40.839529-47.706353zM961.475765 72.282353l92.762353 225.942588c-8.432941 1.566118-16.745412 3.132235-25.720471 5.240471-29.334588-72.884706-57.584941-143.119059-85.353412-210.763294-127.337412-5.180235-262.505412-10.480941-406.106353-16.26353C383.518118 70.113882 219.497412 63.849412 43.971765 56.500706c21.022118 122.699294 43.971765 253.229176 68.126117 392.673882 26.202353 148.841412 53.970824 309.248 83.84753 481.761883 207.510588-27.768471 398.757647-54.031059 574.825412-77.583059l35.599058-4.758588c6.806588 11.023059 14.155294 21.504 22.528 31.984941l-47.646117 6.806588c-190.765176 27.286588-398.757647 57.223529-626.206118 89.690353-30.900706-189.259294-59.632941-364.423529-85.895529-526.336L0 29.214118l529.709176 23.612235c153.6 6.806588 297.080471 13.131294 431.766589 19.395765z" fill="#999999" p-id="5462"></path><path d="M1113.991529 324.909176a331.715765 331.715765 0 0 1 331.65553 331.294118 331.836235 331.836235 0 0 1-331.65553 331.896471 331.836235 331.836235 0 0 1-331.715764-331.896471c0-182.934588 148.781176-331.294118 331.715764-331.294118z m-26.202353 75.474824l-110.592 299.369412h143.058824l-67.584 212.811294h10.420706l187.632941-294.068706-119.506823-0.542118 83.847529-217.569882h-127.277177z" fill="#999999" p-id="5463"></path></svg>