<?xml version="1.0" standalone="no"?><!DOCTYPE svg PUBLIC "-//W3C//DTD SVG 1.1//EN" "http://www.w3.org/Graphics/SVG/1.1/DTD/svg11.dtd"><svg t="1692788432953" class="icon" viewBox="0 0 1024 1024" version="1.1" xmlns="http://www.w3.org/2000/svg" p-id="21304" xmlns:xlink="http://www.w3.org/1999/xlink" width="200" height="200"><path d="M730.453333 151.466667a85.333333 85.333333 0 0 0-81.92 59.733333l-34.133333 108.8a127.914667 127.914667 0 0 0-45.653333 10.24L490.666667 246.186667l-56.746667-63.146667a85.333333 85.333333 0 0 0-5.12 120.746667l77.226667 84.053333a128.213333 128.213333 0 0 0-9.386667 21.76c-2.261333 7.424-3.84 14.976-4.693333 22.613333l-111.36 24.746667-83.626667 18.773333a85.333333 85.333333 0 0 0 101.973333 64.853334l111.36-25.173334c8.32 13.397333 19.029333 25.130667 31.573334 34.56l-34.133334 108.8-25.6 81.493334a85.333333 85.333333 0 0 0 106.666667-55.893334l34.56-108.373333a128.170667 128.170667 0 0 0 45.653333-10.24l77.653334 84.053333 56.746666 62.72a85.333333 85.333333 0 0 0 5.546667-120.32l-77.226667-84.053333c3.626667-6.912 6.656-14.208 8.96-21.76 2.688-7.424 4.693333-15.146667 5.973334-23.04l110.506666-24.746667 83.2-18.346666a85.333333 85.333333 0 0 0-101.546666-64.853334l-111.36 24.746667a128 128 0 0 0-31.573334-34.133333l34.133334-109.226667 25.6-81.066667a85.290667 85.290667 0 0 0-25.173334-4.266666zM621.226667 384a64 64 0 1 1-21.76 125.013333 64 64 0 0 1 21.333333-125.013333h0.426667zM341.333333 583.253333C289.28 619.946667 229.973333 640 170.666667 640H85.333333v85.333333h85.333334c58.453333 0 116.906667-14.933333 170.666666-42.666666 32.853333 17.066667 67.413333 28.16 102.826667 34.56l22.613333-71.253334 3.84-11.093333c-45.226667-6.4-89.6-23.893333-129.28-51.626667zM872.533333 640c2.133333 29.866667-5.12 60.16-23.04 85.333333H938.666667v-85.333333h-66.133334zM341.333333 753.92C289.28 790.613333 229.973333 810.666667 170.666667 810.666667H85.333333v85.333333h85.333334c58.453333 0 116.906667-14.933333 170.666666-42.666667 106.666667 55.466667 234.666667 55.466667 341.333334 0 53.76 27.733333 111.786667 42.666667 170.666666 42.666667h85.333334v-85.333333h-85.333334c-59.306667 0-118.613333-20.053333-170.666666-56.746667-104.106667 72.96-237.226667 72.96-341.333334 0z" p-id="21305"></path></svg>