<?xml version="1.0" standalone="no"?><!DOCTYPE svg PUBLIC "-//W3C//DTD SVG 1.1//EN" "http://www.w3.org/Graphics/SVG/1.1/DTD/svg11.dtd"><svg t="1692788339927" class="icon" viewBox="0 0 1024 1024" version="1.1" xmlns="http://www.w3.org/2000/svg" p-id="16861" xmlns:xlink="http://www.w3.org/1999/xlink" width="200" height="200"><path d="M554.666667 661.333333a42.666667 42.666667 0 0 1-42.666667 42.666667 42.666667 42.666667 0 0 1-42.666667-42.666667 42.666667 42.666667 0 0 1 42.666667-42.666666 42.666667 42.666667 0 0 1 42.666667 42.666666z m-42.666667-181.333333a181.226667 181.226667 0 0 0-131.242667 56.213333 32 32 0 0 0 1.066667 45.226667 32 32 0 0 0 45.269333-1.066667A116.565333 116.565333 0 0 1 512 544c33.6 0 63.509333 13.930667 84.906667 36.373333a32 32 0 0 0 45.269333 1.066667 32 32 0 0 0 1.066667-45.226667A181.226667 181.226667 0 0 0 512 480z m149.333333 149.333333a32 32 0 0 0-32 32 116.48 116.48 0 0 1-32.384 80.96 117.76 117.76 0 0 1-39.253333 27.114667 32 32 0 0 0-16.938667 41.962667 32 32 0 0 0 41.92 17.002666 181.653333 181.653333 0 0 0 60.586667-41.92A181.162667 181.162667 0 0 0 693.333333 661.333333a32 32 0 0 0-32-32z m-298.666666 0a32 32 0 0 0-32 32c0 48.32 19.093333 92.629333 50.090666 125.12a181.653333 181.653333 0 0 0 60.586667 41.92 32 32 0 0 0 41.898667-17.002666 32 32 0 0 0-16.96-41.962667 117.589333 117.589333 0 0 1-39.189334-27.114667A116.522667 116.522667 0 0 1 394.666667 661.333333a32 32 0 0 0-32-32zM660.053333 62.72l-17.685333 17.664c-10.005333 10.005333-23.552 15.616-37.696 15.616h-14.677333c-31.104 0-60.949333 12.373333-82.944 34.368l-17.685334 17.664a32 32 0 0 0 0 45.269333 32 32 0 0 0 45.269334 0l17.664-17.685333a53.290667 53.290667 0 0 1 37.696-15.616h14.677333c31.104 0 60.949333-12.373333 82.944-34.368l17.685333-17.664a32 32 0 0 0 0-45.269333 32 32 0 0 0-45.269333 0zM298.666667 266.666667a32 32 0 0 0-31.744 28.032l-18.709334 149.717333a181.248 181.248 0 0 1-7.914666 34.837333L169.173333 692.672a245.333333 245.333333 0 0 0-11.392 53.162667l-18.944 189.653333A32 32 0 0 0 170.666667 970.666667h682.666666a32 32 0 0 0 31.829334-35.157334l-18.944-189.674666a245.290667 245.290667 0 0 0-11.392-53.162667l-71.125334-213.418667a181.269333 181.269333 0 0 1-7.893333-34.837333l-18.730667-149.717333A32 32 0 0 0 725.333333 266.666667H512z m28.245333 64h370.176l15.210667 121.664c2.005333 16.021333 5.589333 31.850667 10.709333 47.168l71.125333 213.376c4.245333 12.757333 7.082667 25.92 8.405334 39.296l15.466666 154.496H205.994667l15.466666-154.496a181.290667 181.290667 0 0 1 8.405334-39.296l71.125333-213.376c5.12-15.317333 8.704-31.146667 10.709333-47.146667zM256 266.666667a32 32 0 0 0-32 32 32 32 0 0 0 32 32h512a32 32 0 0 0 32-32 32 32 0 0 0-32-32z m-170.666667 640A32 32 0 0 0 53.333333 938.666667 32 32 0 0 0 85.333333 970.666667h853.333334a32 32 0 0 0 32-32 32 32 0 0 0-32-32z" p-id="16862"></path></svg>