<svg xmlns="http://www.w3.org/2000/svg" viewBox="0 0 64 64"><defs><style>.cls-1{isolation:isolate;}.cls-2{fill:#f2f4f5;}.cls-3{fill:#0a7be0;}.cls-4{fill:#53baf9;}.cls-5,.cls-6{fill:#a2a2ba;}.cls-6{mix-blend-mode:multiply;}.cls-10,.cls-11,.cls-7,.cls-8,.cls-9{fill:#fff;}.cls-7{opacity:0.9;}.cls-8{opacity:0.75;}.cls-10{opacity:0.35;}.cls-11{opacity:0.5;}</style></defs><title>【icon】插件管理-导出</title><g class="cls-1"><g id="图层_1" data-name="图层 1"><circle class="cls-2" cx="32" cy="32" r="32"/><path class="cls-3" d="M26,44.24l6.48-11H43.84V13.26A2.26,2.26,0,0,0,41.58,11H14.69a2.46,2.46,0,0,0-2.46,2.46V44.12a3.51,3.51,0,0,0,3.51,3.5H28Z"/><path class="cls-4" d="M26,44.24l1.17-2H14.93a2.71,2.71,0,0,0-2.7,2.69h0a2.71,2.71,0,0,0,2.7,2.69H28Z"/><polygon class="cls-5" points="33.87 53 28.73 44.24 33.87 35.47 51.77 35.47 51.77 53 33.87 53"/><polygon class="cls-6" points="33.87 53 28.73 44.24 51.77 44.17 51.77 53 33.87 53"/><path class="cls-7" d="M44.65,40.82a4.09,4.09,0,0,0-3.91,2.9,3.71,3.71,0,1,0-3.33,5.33c1.62,0,5.57,0,7.24,0a4.09,4.09,0,1,0,0-8.18Z"/><circle class="cls-8" cx="41.22" cy="41.55" r="3.84"/><rect class="cls-9" x="16.53" y="14.25" width="4.36" height="4.36"/><rect class="cls-10" x="22.75" y="14.25" width="4.36" height="4.36"/><rect class="cls-9" x="28.96" y="14.25" width="4.36" height="4.36"/><rect class="cls-11" x="35.18" y="14.25" width="4.36" height="4.36"/><rect class="cls-11" x="16.53" y="20.87" width="4.36" height="4.36"/><rect class="cls-9" x="22.75" y="20.87" width="4.36" height="4.36"/><rect class="cls-7" x="28.96" y="20.87" width="4.36" height="4.36"/><rect class="cls-9" x="35.18" y="20.87" width="4.36" height="4.36"/><rect class="cls-7" x="16.53" y="27.49" width="4.36" height="4.36"/><rect class="cls-10" x="22.75" y="27.49" width="4.36" height="4.36"/><rect class="cls-11" x="28.96" y="27.49" width="4.36" height="4.36"/><rect class="cls-9" x="35.18" y="27.49" width="4.36" height="4.36"/></g></g></svg>
