<svg width="24" height="24" viewBox="0 0 24 24" fill="none" xmlns="http://www.w3.org/2000/svg">
<path d="M11.9422 10.4786L18.6598 3.76107C18.855 3.56581 19.1716 3.56581 19.3669 3.76107L20.074 4.46818C20.2692 4.66344 20.2692 4.98002 20.074 5.17528L13.3564 11.8928L20.074 18.6103C20.2692 18.8056 20.2692 19.1222 20.074 19.3174L19.3669 20.0245C19.1716 20.2198 18.855 20.2198 18.6598 20.0245L11.9422 13.307L5.22472 20.0245C5.02946 20.2198 4.71288 20.2198 4.51762 20.0245L3.81051 19.3174C3.61525 19.1222 3.61525 18.8056 3.81051 18.6103L10.528 11.8928L3.81051 5.17528C3.61525 4.98002 3.61525 4.66344 3.81051 4.46818L4.51762 3.76107C4.71288 3.56581 5.02946 3.56581 5.22472 3.76107L11.9422 10.4786Z" fill="#1F2329"/>
</svg>
