<?xml version="1.0" encoding="utf-8"?>
<!-- Generator: Adobe Illustrator 23.0.0, SVG Export Plug-In . SVG Version: 6.00 Build 0)  -->
<svg version="1.1" id="图层_1" xmlns="http://www.w3.org/2000/svg" xmlns:xlink="http://www.w3.org/1999/xlink" x="0px" y="0px"
preserveAspectRatio="none meet"
	 viewBox="0 0 835.4 286.6" style="enable-background:new 0 0 835.4 286.6;" xml:space="preserve">
<style type="text/css">
	.st0{fill:#0B101E;}
	.st1{opacity:0.1;fill:#006CE2;}
	.st2{fill:none;stroke:#31ECFF;stroke-width:0.6677;stroke-miterlimit:10;}
	.st3{fill:#31ECFF;}
	.st4{opacity:0.75;fill:#31ECFF;}
	.st5{opacity:0.5;fill:#31ECFF;}
	.st6{opacity:0.25;fill:#31ECFF;}
	.st7{opacity:0.25;fill:#006CE2;}
</style>
<rect x="2743.8" y="-1694.6" class="st0" width="1920" height="1080"/>
<g>
	<polygon class="st1" points="63,-472.9 -388.8,-472.9 -388.8,-756.4 -353.3,-756.4 -312.8,-712.4 63,-712.4 	"/>
	<polygon class="st1" points="-345.9,-756.4 -309,-717 63,-717 63,-756.4 	"/>
	<polygon class="st2" points="63,-472.9 -388.8,-472.9 -388.8,-756.4 -353.3,-756.4 -312.8,-712.4 63,-712.4 	"/>
	<polygon class="st2" points="-345.9,-756.4 -309,-717 63,-717 63,-756.4 	"/>
	<g>
		<rect x="52.2" y="-474.1" class="st3" width="12" height="2.4"/>
		
			<rect x="57" y="-478.9" transform="matrix(-1.836970e-16 1 -1 -1.836970e-16 -414.7073 -540.6516)" class="st3" width="12" height="2.4"/>
	</g>
	<g>
		
			<rect x="-394.8" y="-478.9" transform="matrix(-1.836970e-16 1 -1 -1.836970e-16 -866.4924 -88.8664)" class="st3" width="12" height="2.4"/>
		
			<rect x="-390" y="-474.1" transform="matrix(-1 -1.224647e-16 1.224647e-16 -1 -768.0378 -945.7705)" class="st3" width="12" height="2.4"/>
	</g>
	<g>
		
			<rect x="56.6" y="-752.7" transform="matrix(6.123234e-17 -1 1 6.123234e-17 814.0578 -688.874)" class="st3" width="12" height="2.4"/>
		<rect x="51.8" y="-757.4" class="st3" width="12" height="2.4"/>
	</g>
	<g>
		
			<rect x="-389.7" y="-757.4" transform="matrix(-1 -1.224647e-16 1.224647e-16 -1 -767.3794 -1512.5201)" class="st3" width="12" height="2.4"/>
		
			<rect x="-394.5" y="-752.7" transform="matrix(6.123234e-17 -1 1 6.123234e-17 362.9821 -1139.9497)" class="st3" width="12" height="2.4"/>
	</g>
</g>
<g>
	<polygon class="st1" points="84.6,-1179.5 -367.2,-1179.5 -367.2,-1447.9 -352.5,-1463 84.6,-1463 	"/>
	<polygon class="st2" points="84.6,-1179.5 -367.2,-1179.5 -367.2,-1447.9 -352.5,-1463 84.6,-1463 	"/>
	<polyline class="st2" points="-367.2,-1419 63.9,-1419 84.6,-1434.2 	"/>
	<polygon class="st3" points="20,-1421.6 12,-1421.6 24.3,-1431.5 32.3,-1431.5 	"/>
	<polygon class="st4" points="34.1,-1421.6 26.1,-1421.6 38.4,-1431.5 46.4,-1431.5 	"/>
	<polygon class="st5" points="48.2,-1421.6 40.2,-1421.6 52.5,-1431.5 60.5,-1431.5 	"/>
	<polygon class="st6" points="62.3,-1421.6 54.3,-1421.6 66.6,-1431.5 74.6,-1431.5 	"/>
	<polygon class="st3" points="-367.5,-1450.9 -367.5,-1463 -355.9,-1463 	"/>
</g>
<g>
	<polygon class="st1" points="15.6,-844.6 -436.1,-844.6 -436.1,-1128.1 -110.9,-1128.1 -88.4,-1111 15.6,-1111 	"/>
	<polygon class="st2" points="15.6,-844.6 -436.1,-844.6 -436.1,-1128.1 -110.9,-1128.1 -88.4,-1111 15.6,-1111 	"/>
	<g>
		<rect x="4.9" y="-845.7" class="st3" width="12" height="2.4"/>
		
			<rect x="9.7" y="-850.5" transform="matrix(-1.836970e-16 1 -1 -1.836970e-16 -833.7073 -864.9849)" class="st3" width="12" height="2.4"/>
	</g>
	<g>
		
			<rect x="-442.1" y="-850.5" transform="matrix(-1.836970e-16 1 -1 -1.836970e-16 -1285.4924 -413.1997)" class="st3" width="12" height="2.4"/>
		
			<rect x="-437.3" y="-845.7" transform="matrix(-1 -1.224647e-16 1.224647e-16 -1 -862.7045 -1689.1039)" class="st3" width="12" height="2.4"/>
	</g>
	<g>
		
			<rect x="-437" y="-1129.1" transform="matrix(-1 -1.224647e-16 1.224647e-16 -1 -862.0461 -2255.8535)" class="st3" width="12" height="2.4"/>
		
			<rect x="-441.8" y="-1124.3" transform="matrix(6.123234e-17 -1 1 6.123234e-17 687.3154 -1558.9497)" class="st3" width="12" height="2.4"/>
	</g>
	<polygon class="st3" points="-54.9,-1114.3 -76.3,-1114.3 -89.6,-1124.2 -68.2,-1124.2 	"/>
	<polygon class="st4" points="-28.8,-1114.3 -47.5,-1114.3 -60.8,-1124.2 -42.1,-1124.2 	"/>
	<polygon class="st5" points="-5.4,-1114.3 -21.4,-1114.3 -34.7,-1124.2 -18.7,-1124.2 	"/>
	<polygon class="st6" points="15.4,-1114.3 2,-1114.3 -11.2,-1124.2 15.4,-1124.2 	"/>
	<rect x="-436.1" y="-1081.9" class="st3" width="451.8" height="1.8"/>
</g>
<g>
	<polygon class="st1" points="2182.7,-1069.2 1731,-1069.2 1731,-1337.6 1745.7,-1352.8 2182.7,-1352.8 	"/>
	<polygon class="st2" points="2182.7,-1069.2 1731,-1069.2 1731,-1337.6 1745.7,-1352.8 2182.7,-1352.8 	"/>
	<polyline class="st2" points="1731,-1308.7 2162.1,-1308.7 2182.7,-1323.9 	"/>
	<polygon class="st3" points="2118.2,-1311.3 2110.2,-1311.3 2122.5,-1321.3 2130.5,-1321.3 	"/>
	<polygon class="st4" points="2132.3,-1311.3 2124.3,-1311.3 2136.6,-1321.3 2144.6,-1321.3 	"/>
	<polygon class="st5" points="2146.4,-1311.3 2138.4,-1311.3 2150.7,-1321.3 2158.7,-1321.3 	"/>
	<polygon class="st6" points="2160.5,-1311.3 2152.4,-1311.3 2164.8,-1321.3 2172.8,-1321.3 	"/>
	<polygon class="st3" points="1730.7,-1340.6 1730.7,-1352.8 1742.3,-1352.8 	"/>
</g>
<g>
	<polygon class="st1" points="2182.6,-750.6 1730.8,-750.6 1730.8,-1034.2 2056,-1034.2 2078.6,-1017.1 2182.6,-1017.1 	"/>
	<polygon class="st2" points="2182.6,-750.6 1730.8,-750.6 1730.8,-1034.2 2056,-1034.2 2078.6,-1017.1 2182.6,-1017.1 	"/>
	<g>
		<rect x="2171.8" y="-751.8" class="st3" width="12" height="2.4"/>
		
			<rect x="2176.6" y="-756.6" transform="matrix(-1.836970e-16 1 -1 -1.836970e-16 1427.1624 -2938.0291)" class="st3" width="12" height="2.4"/>
	</g>
	<g>
		
			<rect x="1724.8" y="-756.6" transform="matrix(-1.836970e-16 1 -1 -1.836970e-16 975.3772 -2486.2439)" class="st3" width="12" height="2.4"/>
		
			<rect x="1729.6" y="-751.8" transform="matrix(-1 -1.224647e-16 1.224647e-16 -1 3471.2095 -1501.2784)" class="st3" width="12" height="2.4"/>
	</g>
	<g>
		
			<rect x="1730" y="-1035.2" transform="matrix(-1 -1.224647e-16 1.224647e-16 -1 3471.8679 -2068.0281)" class="st3" width="12" height="2.4"/>
		
			<rect x="1725.2" y="-1030.4" transform="matrix(6.123234e-17 -1 1 6.123234e-17 2760.3596 701.9199)" class="st3" width="12" height="2.4"/>
	</g>
	<polygon class="st3" points="2112,-1020.3 2090.6,-1020.3 2077.4,-1030.3 2098.7,-1030.3 	"/>
	<polygon class="st4" points="2138.1,-1020.3 2119.4,-1020.3 2106.2,-1030.3 2124.9,-1030.3 	"/>
	<polygon class="st5" points="2161.6,-1020.3 2145.5,-1020.3 2132.3,-1030.3 2148.3,-1030.3 	"/>
	<polygon class="st6" points="2182.3,-1020.3 2169,-1020.3 2155.7,-1030.3 2182.3,-1030.3 	"/>
	<rect x="1730.8" y="-988" class="st3" width="451.8" height="1.8"/>
</g>
<g>
	<polygon class="st1" points="833.4,285 1.2,285 1.2,1.5 706.8,1.5 729.3,18.5 833.4,18.5 	"/>
	<polygon class="st2" points="833.4,285 1.2,285 1.2,1.5 706.8,1.5 729.3,18.5 833.4,18.5 	"/>
	<g>
		<rect x="822.6" y="283.8" class="st3" width="12" height="2.4"/>
		
			<rect x="827.4" y="279" transform="matrix(-1.836970e-16 1 -1 -1.836970e-16 1113.5806 -553.1735)" class="st3" width="12" height="2.4"/>
	</g>
	<g>
		
			<rect x="-4.8" y="279" transform="matrix(-1.836970e-16 1 -1 -1.836970e-16 281.3904 279.0165)" class="st3" width="12" height="2.4"/>
		<rect y="283.8" transform="matrix(-1 -1.224647e-16 1.224647e-16 -1 11.9622 569.9953)" class="st3" width="12" height="2.4"/>
	</g>
	<g>
		
			<rect x="0.3" y="0.4" transform="matrix(-1 -1.224647e-16 1.224647e-16 -1 12.6206 3.2457)" class="st3" width="12" height="2.4"/>
		<rect x="-4.5" y="5.2" transform="matrix(6.123234e-17 -1 1 6.123234e-17 -4.9009 7.9331)" class="st3" width="12" height="2.4"/>
	</g>
	<polygon class="st3" points="762.8,15.3 741.4,15.3 728.2,5.4 749.5,5.4 	"/>
	<polygon class="st4" points="788.9,15.3 770.2,15.3 756.9,5.4 775.6,5.4 	"/>
	<polygon class="st5" points="812.3,15.3 796.3,15.3 783.1,5.4 799.1,5.4 	"/>
	<polygon class="st6" points="833.1,15.3 819.8,15.3 806.5,5.4 833.1,5.4 	"/>
	<rect x="1" y="47.6" class="st3" width="832.3" height="1.8"/>
</g>
<g>
	<polygon class="st1" points="-171.5,-100.6 -613.5,-100.6 -613.5,-374 -603.8,-384.2 -161.7,-384.2 -161.7,-110.8 	"/>
	<polygon class="st3" points="-201.6,-382.6 -421,-382.6 -424.2,-385.8 -198.6,-385.8 	"/>
	<polyline class="st2" points="-161.7,-335.8 -161.7,-384.2 -197.1,-384.2 -200.6,-380.5 -422.1,-380.5 -425.6,-384.2 
		-603.5,-384.2 -613.5,-373.9 -613.5,-367.3 	"/>
	
		<rect x="-590.4" y="-102.4" transform="matrix(-1 -1.224647e-16 1.224647e-16 -1 -916.9052 -201.5188)" class="st3" width="263.9" height="3.2"/>
	<polyline class="st2" points="-613.5,-135.8 -613.5,-100.8 -171.7,-100.8 -161.7,-111.1 -161.7,-117.6 	"/>
	<polygon class="st7" points="-161.7,-335.8 -161.7,-384.2 -197.1,-384.2 -200.6,-380.5 -422.1,-380.5 -425.7,-384.2 -603.8,-384.2 
		-613.5,-374 -613.5,-335.8 	"/>
</g>
</svg>
