<?xml version="1.0" encoding="utf-8"?>
<!-- Generator: Adobe Illustrator 23.0.0, SVG Export Plug-In . SVG Version: 6.00 Build 0)  -->
<svg version="1.1" id="图层_1" xmlns="http://www.w3.org/2000/svg" xmlns:xlink="http://www.w3.org/1999/xlink" x="0px" y="0px"
     preserveAspectRatio="none meet" viewBox="0 0 480 300" style="enable-background:new 0 0 480 300;" xml:space="preserve">
<style type="text/css">
	.st0{fill:#1094E5;}
</style>
<g>
	<g>
		<polygon class="st0" points="426,3.4 206.6,3.4 203.4,0.2 429,0.2 		"/>
	</g>
	<g>
		<polygon class="st0" points="479.9,50.1 479.3,50.1 479.3,2.1 430.6,2.1 427.2,5.8 205.4,5.8 201.8,2.1 10.8,2.1 1,12.2 1,15.8
			0.4,15.8 0.4,12 0.4,11.9 10.5,1.4 202.1,1.4 205.7,5.1 426.9,5.1 430.3,1.4 479.9,1.4 		"/>
	</g>
	<g>

			<rect x="37.4" y="296.8" transform="matrix(-1 -1.224647e-16 1.224647e-16 -1 338.597 596.8842)" class="st0" width="263.9" height="3.2"/>
	</g>
	<g>
		<polygon class="st0" points="468.8,298.9 0.6,298.9 0.6,263.5 1.3,263.5 1.3,298.2 468.5,298.2 478.3,288.1 478.3,281.8
			476.3,277.7 476.3,274.8 479.9,271.2 479.9,272.2 477,275 477,277.6 479,281.7 479,288.4 478.9,288.5 		"/>
	</g>
	<g>
		<polygon class="st0" points="1.1,59.8 0.4,59.8 0.4,23.1 2.8,20.7 2.8,12.6 11.3,4 11.7,4.5 3.5,12.9 3.5,21 1.1,23.4 		"/>
	</g>
	<g>
		<polygon class="st0" points="4.3,18.5 2,18.5 0.9,20.4 2,22.3 4.3,22.3 5.4,20.4 		"/>
	</g>
	<g>
		<polygon class="st0" points="462.8,296.1 342.9,296.1 340.2,293.4 299.1,293.4 295.2,295.7 294.8,295.1 298.9,292.7 340.5,292.7
			343.2,295.4 462.5,295.4 473.1,284.9 473.1,274.8 479,268.9 479,252.5 479.6,252.5 479.6,269.1 473.7,275.1 473.7,285.2
			473.6,285.3 		"/>
	</g>
	<g>
		<polygon class="st0" points="478.7,283.3 463.5,298.6 468.7,298.6 478.8,288 		"/>
	</g>
</g>
</svg>
