<?xml version="1.0" encoding="utf-8"?>
<!-- Generator: Adobe Illustrator 23.0.0, SVG Export Plug-In . SVG Version: 6.00 Build 0)  -->
<svg version="1.1" id="图层_1" xmlns="http://www.w3.org/2000/svg" xmlns:xlink="http://www.w3.org/1999/xlink" x="0px" y="0px"
preserveAspectRatio="none meet"
	 viewBox="0 0 454.2 285.7" style="enable-background:new 0 0 454.2 285.7;" xml:space="preserve">
<style type="text/css">
	.st0{fill:#0B101E;}
	.st1{opacity:0.1;fill:#006CE2;}
	.st2{fill:none;stroke:#31ECFF;stroke-width:0.6677;stroke-miterlimit:10;}
	.st3{fill:#31ECFF;}
	.st4{opacity:0.75;fill:#31ECFF;}
	.st5{opacity:0.5;fill:#31ECFF;}
	.st6{opacity:0.25;fill:#31ECFF;}
	.st7{opacity:0.25;fill:#006CE2;}
</style>
<g>
	<polygon class="st1" points="453,284.6 1.2,284.6 1.2,1 326.4,1 348.9,18.1 453,18.1 	"/>
	<polygon class="st2" points="453,284.6 1.2,284.6 1.2,1 326.4,1 348.9,18.1 453,18.1 	"/>
	<g>
		<rect x="442.2" y="283.4" class="st3" width="12" height="2.4"/>
		
			<rect x="447" y="278.6" transform="matrix(-1.836970e-16 1 -1 -1.836970e-16 732.7397 -173.2045)" class="st3" width="12" height="2.4"/>
	</g>
	<g>
		
			<rect x="-4.8" y="278.6" transform="matrix(-1.836970e-16 1 -1 -1.836970e-16 280.9546 278.5807)" class="st3" width="12" height="2.4"/>
		
			<rect x="0" y="283.4" transform="matrix(-1 -1.224647e-16 1.224647e-16 -1 11.9622 569.1235)" class="st3" width="12" height="2.4"/>
	</g>
	<g>
		<rect x="0.3" y="0" transform="matrix(-1 -1.224647e-16 1.224647e-16 -1 12.6206 2.3739)" class="st3" width="12" height="2.4"/>
		<rect x="-4.5" y="4.8" transform="matrix(6.123234e-17 -1 1 6.123234e-17 -4.465 7.4973)" class="st3" width="12" height="2.4"/>
	</g>
	<polygon class="st3" points="382.4,14.9 361,14.9 347.8,4.9 369.1,4.9 	"/>
	<polygon class="st4" points="408.5,14.9 389.8,14.9 376.5,4.9 395.2,4.9 	"/>
	<polygon class="st5" points="431.9,14.9 415.9,14.9 402.7,4.9 418.7,4.9 	"/>
	<polygon class="st6" points="452.7,14.9 439.4,14.9 426.1,4.9 452.7,4.9 	"/>
	<rect x="1.2" y="47.2" class="st3" width="451.8" height="1.8"/>
</g>
</svg>
