<?xml version="1.0" encoding="utf-8"?>
<!-- Generator: Adobe Illustrator 23.0.0, SVG Export Plug-In . SVG Version: 6.00 Build 0)  -->
<svg version="1.1" id="图层_1" xmlns="http://www.w3.org/2000/svg" xmlns:xlink="http://www.w3.org/1999/xlink" x="0px" y="0px"
     preserveAspectRatio="none meet" viewBox="0 0 480 300" style="enable-background:new 0 0 480 300;" xml:space="preserve">
<style type="text/css">
	.st0{fill:#1094E5;}
	.st1{opacity:0.75;}
	.st2{opacity:0.5;}
	.st3{opacity:0.25;}
</style>
<g>
	<g>
		<path class="st0" d="M480.9,299.5H0.6V0.9h353l0.3,0.2l22.2,16.8h104.8V299.5z M2.3,297.8h476.9V19.6H375.6L353,2.6H2.3V297.8z"/>
	</g>
</g>
<g>
	<g>
		<rect x="466.9" y="297.1" class="st0" width="14.7" height="2.9"/>
	</g>
	<g>

			<rect x="472.8" y="291.2" transform="matrix(-1.836970e-16 1 -1 -1.836970e-16 772.8039 -187.5366)" class="st0" width="14.7" height="2.9"/>
	</g>
</g>
<g>
	<g>

			<rect x="-5.9" y="291.3" transform="matrix(-1.836970e-16 1 -1 -1.836970e-16 294.2621 291.3384)" class="st0" width="14.7" height="2.9"/>
	</g>
	<g>
		<rect y="297.1" transform="matrix(-1 -1.224647e-16 1.224647e-16 -1 14.7328 597.0763)" class="st0" width="14.7" height="2.9"/>
	</g>
</g>
<g>
	<g>

			<rect x="0" y="0.1" transform="matrix(-1 -1.224647e-16 1.224647e-16 -1 14.7328 3.2131)" class="st0" width="14.7" height="2.9"/>
	</g>
	<g>
		<rect x="-5.9" y="6" transform="matrix(6.123234e-17 -1 1 6.123234e-17 -6.0492 8.9729)" class="st0" width="14.7" height="2.9"/>
	</g>
</g>
<g>
	<polygon class="st0" points="409.2,15.9 387.8,15.9 374.5,5.9 395.9,5.9 	"/>
</g>
<g class="st1">
	<polygon class="st0" points="435.3,15.9 416.6,15.9 403.3,5.9 422,5.9 	"/>
</g>
<g class="st2">
	<polygon class="st0" points="458.7,15.9 442.7,15.9 429.4,5.9 445.5,5.9 	"/>
</g>
<g class="st3">
	<polygon class="st0" points="479.5,15.9 466.1,15.9 452.9,5.9 479.5,5.9 	"/>
</g>
</svg>
