<?xml version="1.0" encoding="utf-8"?>
<!-- Generator: Adobe Illustrator 23.0.0, SVG Export Plug-In . SVG Version: 6.00 Build 0)  -->
<svg version="1.1" id="图层_1" xmlns="http://www.w3.org/2000/svg" xmlns:xlink="http://www.w3.org/1999/xlink" x="0px" y="0px"
preserveAspectRatio="none meet"
	 viewBox="0 0 454.2 285.7" style="enable-background:new 0 0 454.2 285.7;" xml:space="preserve">
<style type="text/css">
	.st0{fill:#0B101E;}
	.st1{opacity:0.1;fill:#006CE2;}
	.st2{fill:none;stroke:#31ECFF;stroke-width:0.6677;stroke-miterlimit:10;}
	.st3{fill:#31ECFF;}
	.st4{opacity:0.75;fill:#31ECFF;}
	.st5{opacity:0.5;fill:#31ECFF;}
	.st6{opacity:0.25;fill:#31ECFF;}
	.st7{opacity:0.25;fill:#006CE2;}
</style>
<rect x="2743.8" y="-1695.4" class="st0" width="1920" height="1080"/>
<g>
	<polygon class="st1" points="453,284.6 1.2,284.6 1.2,1 36.7,1 77.2,45.1 453,45.1 	"/>
	<polygon class="st1" points="44.1,1 81,40.5 453,40.5 453,1 	"/>
	<polygon class="st2" points="453,284.6 1.2,284.6 1.2,1 36.7,1 77.2,45.1 453,45.1 	"/>
	<polygon class="st2" points="44.1,1 81,40.5 453,40.5 453,1 	"/>
	<g>
		<rect x="442.2" y="283.4" class="st3" width="12" height="2.4"/>
		
			<rect x="447" y="278.6" transform="matrix(-1.836970e-16 1 -1 -1.836970e-16 732.7397 -173.2045)" class="st3" width="12" height="2.4"/>
	</g>
	<g>
		
			<rect x="-4.8" y="278.6" transform="matrix(-1.836970e-16 1 -1 -1.836970e-16 280.9546 278.5807)" class="st3" width="12" height="2.4"/>
		<rect y="283.4" transform="matrix(-1 -1.224647e-16 1.224647e-16 -1 11.9622 569.1235)" class="st3" width="12" height="2.4"/>
	</g>
	<g>
		
			<rect x="446.6" y="4.8" transform="matrix(6.123234e-17 -1 1 6.123234e-17 446.6108 458.573)" class="st3" width="12" height="2.4"/>
		<rect x="441.8" class="st3" width="12" height="2.4"/>
	</g>
	<g>
		<rect x="0.3" transform="matrix(-1 -1.224647e-16 1.224647e-16 -1 12.6206 2.3739)" class="st3" width="12" height="2.4"/>
		<rect x="-4.5" y="4.8" transform="matrix(6.123234e-17 -1 1 6.123234e-17 -4.465 7.4973)" class="st3" width="12" height="2.4"/>
	</g>
</g>
<g>
	<polygon class="st1" points="823,-1070.1 371.2,-1070.1 371.2,-1338.5 386,-1353.6 823,-1353.6 	"/>
	<polygon class="st2" points="823,-1070.1 371.2,-1070.1 371.2,-1338.5 386,-1353.6 823,-1353.6 	"/>
	<polyline class="st2" points="371.2,-1309.6 802.4,-1309.6 823,-1324.8 	"/>
	<polygon class="st3" points="758.4,-1312.2 750.4,-1312.2 762.8,-1322.1 770.8,-1322.1 	"/>
	<polygon class="st4" points="772.5,-1312.2 764.5,-1312.2 776.8,-1322.1 784.9,-1322.1 	"/>
	<polygon class="st5" points="786.6,-1312.2 778.6,-1312.2 790.9,-1322.1 799,-1322.1 	"/>
	<polygon class="st6" points="800.7,-1312.2 792.7,-1312.2 805,-1322.1 813,-1322.1 	"/>
	<polygon class="st3" points="371,-1341.5 371,-1353.6 382.6,-1353.6 	"/>
</g>
<g>
	<polygon class="st1" points="822.9,-751.5 371.1,-751.5 371.1,-1035 696.3,-1035 718.8,-1018 822.9,-1018 	"/>
	<polygon class="st2" points="822.9,-751.5 371.1,-751.5 371.1,-1035 696.3,-1035 718.8,-1018 822.9,-1018 	"/>
	<g>
		<rect x="812.1" y="-752.7" class="st3" width="12" height="2.4"/>
		
			<rect x="816.9" y="-757.5" transform="matrix(-1.836970e-16 1 -1 -1.836970e-16 66.5642 -1579.1746)" class="st3" width="12" height="2.4"/>
	</g>
	<g>
		
			<rect x="365.1" y="-757.5" transform="matrix(-1.836970e-16 1 -1 -1.836970e-16 -385.2209 -1127.3894)" class="st3" width="12" height="2.4"/>
		
			<rect x="369.9" y="-752.7" transform="matrix(-1 -1.224647e-16 1.224647e-16 -1 751.7568 -1503.022)" class="st3" width="12" height="2.4"/>
	</g>
	<g>
		
			<rect x="370.2" y="-1036.1" transform="matrix(-1 -1.224647e-16 1.224647e-16 -1 752.4152 -2069.7717)" class="st3" width="12" height="2.4"/>
		
			<rect x="365.4" y="-1031.3" transform="matrix(6.123234e-17 -1 1 6.123234e-17 1401.505 -658.6782)" class="st3" width="12" height="2.4"/>
	</g>
	<polygon class="st3" points="752.3,-1021.2 730.9,-1021.2 717.7,-1031.2 739,-1031.2 	"/>
	<polygon class="st4" points="778.4,-1021.2 759.7,-1021.2 746.4,-1031.2 765.1,-1031.2 	"/>
	<polygon class="st5" points="801.8,-1021.2 785.8,-1021.2 772.6,-1031.2 788.6,-1031.2 	"/>
	<polygon class="st6" points="822.6,-1021.2 809.3,-1021.2 796,-1031.2 822.6,-1031.2 	"/>
	<rect x="371.1" y="-988.9" class="st3" width="451.8" height="1.8"/>
</g>
<g>
	<polygon class="st1" points="2182.7,-1070.1 1731,-1070.1 1731,-1338.5 1745.7,-1353.6 2182.7,-1353.6 	"/>
	<polygon class="st2" points="2182.7,-1070.1 1731,-1070.1 1731,-1338.5 1745.7,-1353.6 2182.7,-1353.6 	"/>
	<polyline class="st2" points="1731,-1309.6 2162.1,-1309.6 2182.7,-1324.8 	"/>
	<polygon class="st3" points="2118.2,-1312.2 2110.2,-1312.2 2122.5,-1322.1 2130.5,-1322.1 	"/>
	<polygon class="st4" points="2132.3,-1312.2 2124.3,-1312.2 2136.6,-1322.1 2144.6,-1322.1 	"/>
	<polygon class="st5" points="2146.4,-1312.2 2138.4,-1312.2 2150.7,-1322.1 2158.7,-1322.1 	"/>
	<polygon class="st6" points="2160.5,-1312.2 2152.4,-1312.2 2164.8,-1322.1 2172.8,-1322.1 	"/>
	<polygon class="st3" points="1730.7,-1341.5 1730.7,-1353.6 1742.3,-1353.6 	"/>
</g>
<g>
	<polygon class="st1" points="2182.6,-751.5 1730.8,-751.5 1730.8,-1035 2056,-1035 2078.6,-1018 2182.6,-1018 	"/>
	<polygon class="st2" points="2182.6,-751.5 1730.8,-751.5 1730.8,-1035 2056,-1035 2078.6,-1018 2182.6,-1018 	"/>
	<g>
		<rect x="2171.8" y="-752.7" class="st3" width="12" height="2.4"/>
		
			<rect x="2176.6" y="-757.5" transform="matrix(-1.836970e-16 1 -1 -1.836970e-16 1426.2906 -2938.9009)" class="st3" width="12" height="2.4"/>
	</g>
	<g>
		
			<rect x="1724.8" y="-757.5" transform="matrix(-1.836970e-16 1 -1 -1.836970e-16 974.5054 -2487.1157)" class="st3" width="12" height="2.4"/>
		
			<rect x="1729.6" y="-752.7" transform="matrix(-1 -1.224647e-16 1.224647e-16 -1 3471.2095 -1503.022)" class="st3" width="12" height="2.4"/>
	</g>
	<g>
		
			<rect x="1730" y="-1036.1" transform="matrix(-1 -1.224647e-16 1.224647e-16 -1 3471.8679 -2069.7717)" class="st3" width="12" height="2.4"/>
		
			<rect x="1725.2" y="-1031.3" transform="matrix(6.123234e-17 -1 1 6.123234e-17 2761.2314 701.0482)" class="st3" width="12" height="2.4"/>
	</g>
	<polygon class="st3" points="2112,-1021.2 2090.6,-1021.2 2077.4,-1031.2 2098.7,-1031.2 	"/>
	<polygon class="st4" points="2138.1,-1021.2 2119.4,-1021.2 2106.2,-1031.2 2124.9,-1031.2 	"/>
	<polygon class="st5" points="2161.6,-1021.2 2145.5,-1021.2 2132.3,-1031.2 2148.3,-1031.2 	"/>
	<polygon class="st6" points="2182.3,-1021.2 2169,-1021.2 2155.7,-1031.2 2182.3,-1031.2 	"/>
	<rect x="1730.8" y="-988.9" class="st3" width="451.8" height="1.8"/>
</g>
<g>
	<polygon class="st1" points="1682.5,-751.6 850.3,-751.6 850.3,-1035.1 1555.9,-1035.1 1578.5,-1018.1 1682.5,-1018.1 	"/>
	<polygon class="st2" points="1682.5,-751.6 850.3,-751.6 850.3,-1035.1 1555.9,-1035.1 1578.5,-1018.1 1682.5,-1018.1 	"/>
	<g>
		<rect x="1671.7" y="-752.8" class="st3" width="12" height="2.4"/>
		
			<rect x="1676.5" y="-757.6" transform="matrix(-1.836970e-16 1 -1 -1.836970e-16 926.1119 -2438.8799)" class="st3" width="12" height="2.4"/>
	</g>
	<g>
		
			<rect x="844.3" y="-757.6" transform="matrix(-1.836970e-16 1 -1 -1.836970e-16 93.9218 -1606.6898)" class="st3" width="12" height="2.4"/>
		
			<rect x="849.1" y="-752.8" transform="matrix(-1 -1.224647e-16 1.224647e-16 -1 1710.2 -1503.1797)" class="st3" width="12" height="2.4"/>
	</g>
	<g>
		
			<rect x="849.4" y="-1036.2" transform="matrix(-1 -1.224647e-16 1.224647e-16 -1 1710.8583 -2069.9292)" class="st3" width="12" height="2.4"/>
		
			<rect x="844.7" y="-1031.4" transform="matrix(6.123234e-17 -1 1 6.123234e-17 1880.8054 -179.5355)" class="st3" width="12" height="2.4"/>
	</g>
	<polygon class="st3" points="1611.9,-1021.3 1590.5,-1021.3 1577.3,-1031.2 1598.6,-1031.2 	"/>
	<polygon class="st4" points="1638,-1021.3 1619.3,-1021.3 1606.1,-1031.2 1624.8,-1031.2 	"/>
	<polygon class="st5" points="1661.5,-1021.3 1645.4,-1021.3 1632.2,-1031.2 1648.2,-1031.2 	"/>
	<polygon class="st6" points="1682.2,-1021.3 1668.9,-1021.3 1655.6,-1031.2 1682.2,-1031.2 	"/>
	<rect x="850.2" y="-989" class="st3" width="832.3" height="1.8"/>
</g>
<g>
	<polygon class="st1" points="2172.9,-1379.3 1730.8,-1379.3 1730.8,-1652.7 1740.6,-1662.9 2182.6,-1662.9 2182.6,-1389.5 	"/>
	<polygon class="st3" points="2142.7,-1661.3 1923.3,-1661.3 1920.1,-1664.5 2145.7,-1664.5 	"/>
	<polyline class="st2" points="2182.6,-1614.5 2182.6,-1662.9 2147.2,-1662.9 2143.7,-1659.2 1922.2,-1659.2 1918.7,-1662.9 
		1740.8,-1662.9 1730.8,-1652.5 1730.8,-1646 	"/>
	
		<rect x="1753.9" y="-1381" transform="matrix(-1 -1.224647e-16 1.224647e-16 -1 3771.7532 -2758.8643)" class="st3" width="263.9" height="3.2"/>
	<polyline class="st2" points="1730.8,-1414.5 1730.8,-1379.4 2172.6,-1379.4 2182.6,-1389.8 2182.6,-1396.3 	"/>
	<polygon class="st7" points="2182.6,-1614.5 2182.6,-1662.9 2147.2,-1662.9 2143.7,-1659.2 1922.2,-1659.2 1918.6,-1662.9 
		1740.6,-1662.9 1730.8,-1652.7 1730.8,-1614.5 	"/>
</g>
</svg>
