<?xml version="1.0" encoding="utf-8"?>
<!-- Generator: Adobe Illustrator 23.0.0, SVG Export Plug-In . SVG Version: 6.00 Build 0)  -->
<svg version="1.1" id="图层_1" xmlns="http://www.w3.org/2000/svg" xmlns:xlink="http://www.w3.org/1999/xlink" x="0px" y="0px"
preserveAspectRatio="none meet"
	 viewBox="0 0 454.2 285.7" style="enable-background:new 0 0 454.2 285.7;" xml:space="preserve">
<style type="text/css">
	.st0{fill:#0B101E;}
	.st1{opacity:0.1;fill:#006CE2;}
	.st2{fill:none;stroke:#31ECFF;stroke-width:0.6677;stroke-miterlimit:10;}
	.st3{fill:#31ECFF;}
	.st4{opacity:0.75;fill:#31ECFF;}
	.st5{opacity:0.5;fill:#31ECFF;}
	.st6{opacity:0.25;fill:#31ECFF;}
	.st7{opacity:0.25;fill:#006CE2;}
</style>
<g>
	<polygon class="st1" points="453.1,284.6 1.3,284.6 1.3,16.3 16.1,1.1 453.1,1.1 	"/>
	<polygon class="st2" points="453.1,284.6 1.3,284.6 1.3,16.3 16.1,1.1 453.1,1.1 	"/>
	<polyline class="st2" points="1.3,45.2 432.5,45.2 453.1,30 	"/>
	<polygon class="st3" points="388.6,42.5 380.5,42.5 392.9,32.6 400.9,32.6 	"/>
	<polygon class="st4" points="402.6,42.5 394.6,42.5 407,32.6 415,32.6 	"/>
	<polygon class="st5" points="416.7,42.5 408.7,42.5 421,32.6 429.1,32.6 	"/>
	<polygon class="st6" points="430.8,42.5 422.8,42.5 435.1,32.6 443.2,32.6 	"/>
	<polygon class="st3" points="1.1,13.3 1.1,1.1 12.7,1.1 	"/>
</g>
</svg>
