<?xml version="1.0" encoding="utf-8"?>
<!-- Generator: Adobe Illustrator 23.0.0, SVG Export Plug-In . SVG Version: 6.00 Build 0)  -->
<svg version="1.1" id="图层_1" xmlns="http://www.w3.org/2000/svg" xmlns:xlink="http://www.w3.org/1999/xlink" x="0px" y="0px"
     preserveAspectRatio="none meet" viewBox="0 0 480 300" style="enable-background:new 0 0 480 300;" xml:space="preserve">
<style type="text/css">
	.st0{fill:#1094E5;}
</style>
<g>
	<polygon class="st0" points="3.1,32 0.1,32 0.1,15.7 15.8,0 35.8,0 35.8,3 17,3 3.1,17 	"/>
</g>
<g>
	<polygon class="st0" points="479.9,35.8 476.9,35.8 476.9,17 463,3 447.9,3 447.9,0 464.2,0 479.9,15.7 	"/>
</g>
<g>
	<polygon class="st0" points="464.2,300 444.2,300 444.2,297 463,297 476.9,283 476.9,268 479.9,268 479.9,284.3 	"/>
</g>
<g>
	<polygon class="st0" points="32.1,300 15.8,300 0.1,284.3 0.1,264.3 3.1,264.3 3.1,283 17,297 32.1,297 	"/>
</g>
<g>
	<path class="st0" d="M459.7,293.4h-98.2L359,289H123l-2.5,4.3h-101L7.2,281.1V20.6L19.5,8.3h101l2.5,4.3H359l2.5-4.3h99.2L472,20.6
		v260.4L459.7,293.4z M362.1,292.4h97.2l11.7-11.7V21L460.3,9.3h-98.2l-2.5,4.3H122.4l-2.5-4.3h-100L8.2,21v259.6l11.7,11.7h100
		l2.5-4.3h237.2L362.1,292.4z"/>
</g>
<g>
	<g>
		<polygon class="st0" points="122.7,6.1 125.2,10.4 356.8,10.4 359.3,6.1 		"/>
	</g>
	<g>
		<polygon class="st0" points="359.3,295.6 356.8,291.3 125.2,291.3 122.7,295.6 		"/>
	</g>
</g>
</svg>
