<?xml version="1.0" encoding="utf-8"?>
<!-- Generator: Adobe Illustrator 23.0.0, SVG Export Plug-In . SVG Version: 6.00 Build 0)  -->
<svg version="1.1" id="图层_1" xmlns="http://www.w3.org/2000/svg" xmlns:xlink="http://www.w3.org/1999/xlink" x="0px" y="0px"
     preserveAspectRatio="none meet" viewBox="0 0 480 300" style="enable-background:new 0 0 480 300;" xml:space="preserve">
<style type="text/css">
	.st0{fill:#1094E5;}
</style>
<g>
	<path class="st0" d="M475.8,295.8H4.3V5.3h471.5V295.8z M5.8,294.3h468.5V6.8H5.8V294.3z"/>
</g>
<polygon class="st0" points="43.5,4.7 27.3,4.7 22.9,4.7 8.4,4.7 3.3,4.7 3.3,9.8 3.3,24.3 3.3,28.7 3.3,44.9 6.5,44.9 6.5,26.6
	8.4,25.3 8.4,9.8 23.9,9.8 25.2,7.9 43.5,7.9 "/>
<polygon class="st0" points="3.3,256.1 3.3,272.3 3.3,276.7 3.3,291.2 3.3,296.3 8.4,296.3 22.9,296.3 27.3,296.3 43.5,296.3
	43.5,293.1 25.2,293.1 23.9,291.2 8.4,291.2 8.4,275.7 6.5,274.4 6.5,256.1 "/>
<polygon class="st0" points="436.7,296.3 452.9,296.3 457.3,296.3 471.7,296.3 476.9,296.3 476.9,291.2 476.9,276.7 476.9,272.3
	476.9,256.1 473.7,256.1 473.7,274.4 471.7,275.7 471.7,291.2 456.2,291.2 455,293.1 436.7,293.1 "/>
<polygon class="st0" points="476.9,44.9 476.9,28.7 476.9,24.3 476.9,9.8 476.9,4.7 471.7,4.7 457.3,4.7 452.9,4.7 436.7,4.7
	436.7,7.9 455,7.9 456.2,9.8 471.7,9.8 471.7,25.3 473.7,26.6 473.7,44.9 "/>
</svg>
