<?xml version="1.0" encoding="utf-8"?>
<!-- Generator: Adobe Illustrator 23.0.0, SVG Export Plug-In . SVG Version: 6.00 Build 0)  -->
<svg version="1.1" id="图层_1" xmlns="http://www.w3.org/2000/svg" xmlns:xlink="http://www.w3.org/1999/xlink" x="0px" y="0px"
     preserveAspectRatio="none meet" viewBox="0 0 480 300" style="enable-background:new 0 0 480 300;" xml:space="preserve">
<style type="text/css">
	.st0{fill:#1094E5;}
	.st1{fill:#1094E5;stroke:#231815;stroke-miterlimit:10;}
	.st2{fill:#231815;}
	.st3{fill:none;stroke:#231815;stroke-miterlimit:10;}
</style>
<g>
	<path class="st0" d="M352.7,7l21.9,19.5l0.6,0.5h0.8H473v258.2l-5.8,6.8H13.1L7,286.1V14.3L13.5,7H352.7 M353.4,5H12.6L5,13.5V287
		l7.3,7h455.9l6.8-8V25h-99.1L353.4,5L353.4,5z"/>
</g>
<g>
	<g>
		<polygon class="st0" points="8.9,31.3 3.9,35.4 3.9,11.3 11,4.3 65.4,4.3 59.8,9.3 13,9.3 8.9,13.4 		"/>
	</g>
</g>
<g>
	<g>
		<polygon class="st0" points="8.9,268.7 3.9,264.6 3.9,288.6 11,295.7 65.4,295.7 59.8,290.7 13,290.7 8.9,286.5 		"/>
	</g>
</g>
<g>
	<g>
		<polygon class="st0" points="471.6,268.7 476.6,264.6 476.6,288.6 469.5,295.7 415.1,295.7 420.7,290.7 467.5,290.7 471.6,286.5
					"/>
	</g>
</g>
<g>
	<polygon class="st0" points="476.3,37.7 462.6,23.9 476.3,23.9 	"/>
</g>
<g>
	<polygon class="st0" points="471.3,31.3 435.3,31.3 422.4,23.5 376.6,23.5 360.3,9.1 47.3,9.1 47.3,8.1 360.7,8.1 377,22.5
		422.6,22.5 435.6,30.3 471.3,30.3 	"/>
</g>
<g>
	<polygon class="st0" points="67.9,294 62.6,288.7 15.7,288.7 10.9,283.9 10.9,268.2 9,266.5 9,33.8 12.7,31.3 12.7,14.3 20.8,6.1
		21.5,6.8 13.7,14.7 13.7,31.8 10,34.3 10,266 11.9,267.7 11.9,283.5 16.1,287.7 63,287.7 68.6,293.3 	"/>
</g>
<g>
	<rect x="471.3" y="69.7" class="st0" width="5.3" height="165.7"/>
</g>
</svg>
