<?xml version="1.0" encoding="utf-8"?>
<!-- Generator: Adobe Illustrator 23.0.0, SVG Export Plug-In . SVG Version: 6.00 Build 0)  -->
<svg version="1.1" id="图层_1" xmlns="http://www.w3.org/2000/svg" xmlns:xlink="http://www.w3.org/1999/xlink" x="0px" y="0px"
     preserveAspectRatio="none meet" viewBox="0 0 480 300" style="enable-background:new 0 0 480 300;" xml:space="preserve">
<style type="text/css">
	.st0{fill:#15709E;}
</style>
<g>
	<path class="st0" d="M465.1,295.8H14.9L4.3,285.1V197l6.1-3.7v-86.5L4.3,103V14.9L14.9,4.3h450.1l10.7,10.7v87.7l-6.8,4.1v86.5
		l6.8,4.1v87.7L465.1,295.8z M15.5,294.3h448.9l9.8-9.8v-86.2l-6.8-4.1v-88.2l6.8-4.1V15.6l-9.8-9.8H15.6l-9.8,9.8v86.6l6.1,3.7
		v88.2l-6.1,3.7v86.7L15.5,294.3z"/>
</g>
<g>
	<polygon class="st0" points="2.3,104.2 2.3,195.8 9.1,191.7 9.1,108.3 	"/>
	<polygon class="st0" points="477,195.8 477,104.2 470.2,108.3 470.2,191.7 	"/>
</g>
<polygon class="st0" points="475.7,13.5 466.7,4.5 475.7,4.5 "/>
<polygon class="st0" points="466.7,295.7 475.7,286.7 475.7,295.7 "/>
<polygon class="st0" points="4.3,286.7 13.3,295.7 4.3,295.7 "/>
<polygon class="st0" points="13.3,4.5 4.3,13.5 4.3,4.5 "/>
</svg>
