<?xml version="1.0" standalone="no"?><!DOCTYPE svg PUBLIC "-//W3C//DTD SVG 1.1//EN" "http://www.w3.org/Graphics/SVG/1.1/DTD/svg11.dtd"><svg t="1616054999656" class="icon" viewBox="0 0 1024 1024" version="1.1" xmlns="http://www.w3.org/2000/svg" p-id="2027" xmlns:xlink="http://www.w3.org/1999/xlink" width="200" height="200"><defs><style type="text/css"></style></defs><path d="M268.04419 302.762667H59.879619c-19.114667 0-34.694095 15.579429-34.694095 34.694095v624.469333c0 19.041524 15.60381 34.694095 34.694095 34.694095h208.164571c19.114667 0 34.694095-15.652571 34.694096-34.694095V337.456762c0-19.114667-15.60381-34.694095-34.694096-34.694095z m0 624.469333H59.879619V649.679238h208.164571v277.552762zM614.985143 163.986286h-208.164572c-19.114667 0-34.694095 15.579429-34.694095 34.694095v763.245714c0 19.041524 15.60381 34.694095 34.694095 34.694095h208.164572c19.114667 0 34.694095-15.652571 34.694095-34.694095V198.704762c0-19.114667-15.579429-34.694095-34.694095-34.694095z m0 763.245714h-208.164572v-346.940952h208.164572v346.940952zM961.950476 25.209905h-208.164571c-19.114667 0-34.718476 15.579429-34.718476 34.694095v902.022095c0 19.041524 15.60381 34.694095 34.718476 34.694095h208.164571c19.114667 0 34.694095-15.652571 34.694095-34.694095V59.904c0-19.114667-15.60381-34.694095-34.694095-34.694095z m0 902.022095h-208.164571V510.902857h208.164571v416.329143z" p-id="2028"></path></svg>
