<?xml version="1.0" standalone="no"?><!DOCTYPE svg PUBLIC "-//W3C//DTD SVG 1.1//EN" "http://www.w3.org/Graphics/SVG/1.1/DTD/svg11.dtd"><svg preserveAspectRatio="none meet" t="1660276522368" class="icon" viewBox="0 0 1644 1024" version="1.1" xmlns="http://www.w3.org/2000/svg" p-id="2687" xmlns:xlink="http://www.w3.org/1999/xlink" width="321.09375" height="200"><defs><style type="text/css">@font-face { font-family: feedback-iconfont; src: url("//at.alicdn.com/t/font_1031158_u69w8yhxdu.woff2?t=1630033759944") format("woff2"), url("//at.alicdn.com/t/font_1031158_u69w8yhxdu.woff?t=1630033759944") format("woff"), url("//at.alicdn.com/t/font_1031158_u69w8yhxdu.ttf?t=1630033759944") format("truetype"); }
</style></defs><path d="M1640.887937 1021.823295H2.217725V3.070588h1204.352664l1.02353 0.682352 75.741159 57.317634h357.552859v960.752721zM8.017724 1016.023296h1627.070214V66.870573H1281.629196L1204.523331 8.870586H8.017724v1007.15271z" p-id="2688"></path><path d="M1593.123242 1013.635061h50.152929v9.894116h-50.152929z" p-id="2689"></path><path d="M1643.289819 973.250012v50.152929h-9.894116v-50.152929zM10.276311 973.84707v50.15293h-9.894115v-50.15293z" p-id="2690"></path><path d="M50.436185 1023.447294H0.283255v-9.894115h50.15293zM50.436185 10.620821H0.283255v-9.894115h50.15293z" p-id="2691"></path><path d="M0.000078 50.743165V0.590235h9.894116v50.15293zM1396.264464 54.247046h-73.011748l-45.376461-34.117639h73.011748z" p-id="2692"></path><path d="M1485.311502 54.247046h-63.799985l-45.376461-34.117639H1439.935042z" p-id="2693"></path><path d="M1565.146778 54.247046h-54.588223l-45.37646-34.117639h54.929399z" p-id="2694"></path><path d="M1636.111467 54.247046h-45.717636l-45.035284-34.117639h90.75292z" p-id="2695"></path></svg>
