<svg t="1630391478183" class="icon" viewBox="0 0 1024 1024" version="1.1" xmlns="http://www.w3.org/2000/svg" p-id="839" width="200" height="200"><path d="M64 104.1c0-1.3 0.5-2.6 1.5-3.6s2.3-1.5 3.6-1.5H101c1.3 0 2.6 0.5 3.6 1.5s1.5 2.3 1.5 3.6V883H955c1.3 0 2.6 0.5 3.6 1.5s1.5 2.3 1.5 3.6V920c0 1.3-0.5 2.6-1.5 3.6s-2.3 1.5-3.6 1.5H64v-821z" p-id="840"></path><path d="M792 454.2c0-3.9 1.5-7.7 4.4-10.7s6.8-4.4 10.7-4.4h137.7c3.9 0 7.7 1.5 10.7 4.4 3 3 4.4 6.8 4.4 10.7V827H792V454.2zM601.5 577.6L374.8 378.1 223.9 567.5 162 518.3l203.3-254.5 227.9 201.4L900.1 99l60 50.5-358.6 428.1zM162 648.1c0-3.9 1.5-7.7 4.4-10.7s6.8-4.4 10.7-4.4h137.7c3.9 0 7.7 1.5 10.7 4.4 3 3 4.4 6.8 4.4 10.7V827H162V648.1z" p-id="841"></path><path d="M372 586.8c0-3.9 1.5-7.7 4.4-10.7s6.8-4.4 10.7-4.4h137.7c3.9 0 7.7 1.5 10.7 4.4 3 3 4.4 6.8 4.4 10.7V827H372V586.8zM582 714.4c0-3.9 1.5-7.7 4.4-10.7s6.8-4.4 10.7-4.4h137.7c3.9 0 7.7 1.5 10.7 4.4 3 3 4.4 6.8 4.4 10.7V827H582V714.4z" p-id="842"></path></svg>
