<svg width="881" height="225" viewBox="0 0 881 225" fill="none" xmlns="http://www.w3.org/2000/svg">
<path d="M97.24 3.0199L191.9 57.6599V166.94L97.24 221.59L2.59 166.94V57.6399L97.24 3V3.0199ZM97.24 0L0 56.1399V168.42L97.24 224.56L194.48 168.42V56.1699L97.24 0.0299072V0Z" fill="#426DF2"/>
<path d="M599.14 100.66H629.87L625.87 122.06H599.14V147.27H635.82L637.46 170.42H568.96V53.0599H637.5L635.86 75.7599H599.14V100.66Z" fill="#426DF2"/>
<path d="M409.65 118.75V170.25H387.14L387.04 165.04C379.167 169.133 371.477 171.177 363.97 171.17H361.74C354.027 171.17 347.897 168.207 343.35 162.28C340.339 157.654 338.766 152.239 338.83 146.72V146.11C338.83 135.99 342.38 129.27 349.48 125.95C352.387 124.01 359.77 123.04 371.63 123.04H383.74V120.21C383.74 114.383 382.897 111.05 381.21 110.21C379.37 108.83 376.127 108.14 371.48 108.14H347.34L347.75 87.5L375.54 86.75C392.04 86.75 402.26 90.8399 406.2 99.0199C408.5 103.747 409.65 110.323 409.65 118.75ZM366.31 140.14C365.54 141.05 364.73 144.02 364.73 146.14C364.73 150.74 367.063 153.04 371.73 153.04C374.537 153.04 378.537 151.89 383.73 149.59V138.34C383.73 138.34 369.1 136.81 366.31 140.14Z" fill="#426DF2"/>
<path d="M559.82 118.75V170.25H537.32L537.21 165.04C529.344 169.133 521.654 171.177 514.14 171.17H511.92C504.2 171.17 498.067 168.207 493.52 162.28C490.513 157.652 488.94 152.239 489 146.72V146.11C489 135.99 492.55 129.27 499.65 125.95C502.57 124.01 509.954 123.04 521.8 123.04H533.91V120.21C533.91 114.383 533.067 111.05 531.38 110.21C529.54 108.83 526.297 108.14 521.65 108.14H497.55L497.96 87.5L525.75 86.75C542.264 86.75 552.484 90.8399 556.41 99.0199C558.684 103.747 559.82 110.323 559.82 118.75ZM516.52 140.14C515.75 141.05 514.95 144.02 514.95 146.14C514.95 150.74 517.284 153.04 521.95 153.04C524.764 153.04 528.764 151.89 533.95 149.59V138.34C533.95 138.34 519.32 136.81 516.52 140.14Z" fill="#426DF2"/>
<path d="M716.951 118.75V170.25H694.451L694.341 165.04C686.467 169.133 678.777 171.177 671.271 171.17H669.051C661.331 171.17 655.197 168.207 650.651 162.28C647.643 157.652 646.071 152.239 646.131 146.72V146.11C646.131 135.99 649.684 129.27 656.791 125.95C659.704 124.01 667.087 123.04 678.941 123.04H691.041V120.21C691.041 114.383 690.201 111.05 688.521 110.21C686.681 108.83 683.434 108.14 678.781 108.14H654.641L655.051 87.5L682.841 86.75C699.347 86.75 709.567 90.8399 713.501 99.0199C715.801 103.747 716.951 110.323 716.951 118.75ZM673.611 140.14C672.841 141.05 672.041 144.02 672.041 146.14C672.041 150.74 674.374 153.04 679.041 153.04C681.854 153.04 685.854 151.89 691.041 149.59V138.34C691.041 138.34 676.411 136.81 673.611 140.14Z" fill="#426DF2"/>
<path d="M477.43 170.42H464.43C461.79 170.42 459.53 170.35 457.65 170.19C453.394 170.023 449.206 169.067 445.3 167.37C441.463 165.56 438.331 162.533 436.39 158.76C434.097 154.393 432.953 148.55 432.96 141.23L432.81 108.31H420.31V86.9399H432.82V60.34L458.42 65.2699V86.9399H477.93L475.26 108.35H458.38V139.83C458.38 140.54 458.38 141.15 458.46 141.66C458.518 142.772 458.723 143.872 459.07 144.93C459.478 145.99 460.133 146.937 460.979 147.693C461.826 148.45 462.841 148.994 463.94 149.28C466.57 150.273 469.309 150.944 472.1 151.28C472.71 151.38 473.34 151.46 474 151.51L475.6 151.66L477.43 151.74V170.42Z" fill="#426DF2"/>
<path d="M878.59 121.25V136.05H831.47L831.37 138.74C831.37 144.38 833.62 147.65 837.08 148.87C840.067 149.667 843.149 150.05 846.24 150.01H848.3C857.46 150.01 870.84 147.95 880.45 146.01H880.6L876.73 166.92C876.73 167.18 872.23 169.09 863.48 170.51C857.195 171.161 850.879 171.469 844.56 171.43C826.247 171.43 814.42 165.247 809.08 152.88C807.08 148 805.26 142.88 805.26 137.57V117.57C805.26 102.92 812.26 93.1599 824.57 88.3199C830.215 86.5087 836.112 85.6074 842.04 85.6499C859.294 85.6499 870.487 91.2732 875.62 102.52C877.6 106.913 878.59 113.157 878.59 121.25ZM853.9 117.35C853.9 111.56 852.17 107.68 849.68 106.61C847.8 105.34 844.89 105.15 842.19 105.15C835.33 105.15 831.897 108.38 831.89 114.84L831.47 118.73H853.9V117.35Z" fill="#426DF2"/>
<path fill-rule="evenodd" clip-rule="evenodd" d="M276.98 51.8799H231.71V170.42H276.98C305.82 170.42 329.21 150.88 329.21 126.79V95.5199C329.21 71.4299 305.82 51.9399 276.98 51.8799ZM300.12 127.81C300.12 138.5 289.77 147.16 276.98 147.17H261.87V75.1699H276.98C289.77 75.1699 300.12 83.8499 300.12 94.5299V127.81Z" fill="#426DF2"/>
<path d="M758.75 172.74C753.95 172.74 748.683 172.463 742.95 171.91C740.75 171.69 738.49 171.44 736.17 171.14L730.74 170.37L727.74 147.75L733.57 150L740.76 151.82C743.61 152.22 746.29 152.53 748.82 152.75C751.827 153.01 754.55 153.14 756.99 153.14C765.86 153.14 770.99 152.93 772.37 149.3C773.14 147.79 773.1 143.68 772.25 142.3C771.4 140.92 769.58 139.36 766.82 138.23C765.64 137.75 764.15 137.23 762.36 136.74L757.11 135.31C754.8 134.8 752.72 134.31 750.89 133.77C748.53 133.103 746.373 132.407 744.42 131.68C740.3 130.257 736.475 128.095 733.13 125.3C730.595 122.881 728.87 119.737 728.19 116.3C727.652 113.45 727.591 110.53 728.01 107.66C729.11 98.3266 733.523 91.9266 741.25 88.46C744.558 86.9462 748.073 85.9351 751.68 85.46C753.27 85.24 755.08 85.0599 757.11 84.9099L762.36 84.58H765.9C769.9 84.58 774.333 84.8 779.2 85.24L785.12 85.84L790.12 86.5L792.2 106.83C788.91 106.065 785.568 105.55 782.2 105.29C777.517 104.798 772.807 104.618 768.1 104.75C758.82 104.75 753.37 104.24 751.74 108.02C751.436 108.737 751.29 109.511 751.313 110.289C751.335 111.068 751.525 111.832 751.87 112.53C752.763 114.183 754.713 115.633 757.72 116.88C758.98 117.4 760.567 117.95 762.48 118.53L774.56 121.78C776.88 122.447 778.957 123.113 780.79 123.78C784.479 125.024 787.887 126.981 790.82 129.54C793.484 131.926 795.302 135.112 796 138.62C796.532 142.304 796.596 146.04 796.19 149.74C795.09 158.98 790.673 165.38 782.94 168.94C779.643 170.483 776.123 171.496 772.51 171.94C770.92 172.16 769.11 172.35 767.08 172.49L762.38 172.77L758.75 172.74Z" fill="#426DF2"/>
<path d="M97.2405 36.2899L163.08 74.2899V150.29L97.2405 188.29L31.4105 150.29V74.2899L97.2405 36.2899ZM97.2405 15.8799L13.7305 64.09V160.53L97.2405 208.74L180.76 160.53V64.09L97.2405 15.8799Z" fill="#426DF2"/>
<path d="M56.82 113.31C55.1193 113.318 53.464 112.762 52.1135 111.729C50.7631 110.695 49.7939 109.242 49.3581 107.598C48.9222 105.954 49.0443 104.212 49.7052 102.645C50.3662 101.078 51.5285 99.7752 53.01 98.94L80.22 83.24C81.9814 82.2591 84.0579 82.0102 86.0013 82.547C87.9447 83.0839 89.599 84.3633 90.6072 86.1093C91.6154 87.8553 91.8966 89.9277 91.3901 91.8792C90.8836 93.8307 89.63 95.5047 87.9 96.5399L60.68 112.24C59.5115 112.934 58.179 113.303 56.82 113.31Z" fill="#00BFFF"/>
<path d="M104.99 85.5399C103.3 85.5395 101.657 84.9815 100.316 83.9524C98.9752 82.9233 98.0113 81.4805 97.5737 79.8478C97.1362 78.2151 97.2496 76.4837 97.8962 74.922C98.5428 73.3603 99.6866 72.0555 101.15 71.21L111.15 65.47C112.025 64.9301 112.999 64.5713 114.015 64.4148C115.031 64.2583 116.068 64.3074 117.064 64.5591C118.061 64.8108 118.997 65.2599 119.817 65.8799C120.636 66.4999 121.323 67.2782 121.837 68.1686C122.35 69.059 122.68 70.0434 122.806 71.0635C122.932 72.0836 122.852 73.1187 122.571 74.1073C122.289 75.0959 121.812 76.0181 121.168 76.819C120.524 77.6199 119.726 78.2833 118.82 78.7699L108.82 84.5099C107.657 85.1848 106.335 85.5402 104.99 85.5399Z" fill="#00BFFF"/>
<path d="M68.2004 136.75C66.5092 136.752 64.8648 136.195 63.5222 135.167C62.1796 134.139 61.214 132.696 60.7752 131.063C60.3364 129.429 60.449 127.697 61.0954 126.134C61.7418 124.572 62.886 123.266 64.3504 122.42L64.6104 122.27C66.3687 121.314 68.4306 121.083 70.3571 121.625C72.2835 122.167 73.9223 123.44 74.9246 125.172C75.9269 126.904 76.2135 128.959 75.7233 130.899C75.2332 132.839 74.005 134.512 72.3004 135.56L72.0404 135.71C70.8745 136.389 69.5497 136.748 68.2004 136.75Z" fill="#00BFFF"/>
<path d="M89.1303 124.94C87.4407 124.942 85.7974 124.387 84.455 123.361C83.1127 122.335 82.1463 120.895 81.7054 119.264C81.2646 117.632 81.374 115.901 82.0167 114.339C82.6594 112.776 83.7995 111.469 85.2604 110.62L122.43 88.94C123.303 88.4097 124.272 88.0586 125.281 87.9071C126.291 87.7557 127.32 87.807 128.309 88.058C129.299 88.3091 130.228 88.7549 131.043 89.3693C131.858 89.9837 132.543 90.7544 133.057 91.6364C133.57 92.5184 133.903 93.494 134.036 94.5061C134.168 95.5183 134.097 96.5466 133.828 97.531C133.558 98.5155 133.095 99.4364 132.465 100.24C131.835 101.043 131.052 101.713 130.16 102.21L92.9903 123.86C91.8223 124.556 90.4901 124.929 89.1303 124.94Z" fill="#00BFFF"/>
<path d="M79.5502 160.18C77.8599 160.18 76.217 159.622 74.8761 158.592C73.5352 157.563 72.5713 156.121 72.1338 154.488C71.6963 152.855 71.8096 151.124 72.4562 149.562C73.1028 148 74.2466 146.696 75.7102 145.85L133.82 112.34C135.585 111.323 137.682 111.049 139.649 111.577C141.617 112.106 143.293 113.395 144.31 115.16C145.327 116.925 145.602 119.022 145.073 120.989C144.544 122.956 143.255 124.633 141.49 125.65L83.3902 159.15C82.2237 159.827 80.8987 160.182 79.5502 160.18Z" fill="#426DF2"/>
</svg>
