<svg width="16" height="16" viewBox="0 0 16 16" fill="none" xmlns="http://www.w3.org/2000/svg">
<path d="M5.35408 11.2487H7.62476L14.3788 4.49447C14.6109 4.26241 14.6114 3.88631 14.3799 3.65363L12.3343 1.59723C12.1018 1.36473 11.7248 1.36473 11.4923 1.59723L11.0724 2.01709L11.0741 2.01875L4.75873 8.38268V10.6534C4.75873 10.9822 5.02528 11.2487 5.35408 11.2487ZM11.8944 2.84338L13.1001 4.0554L12.0798 5.07666L10.8804 3.87724L11.8944 2.84338ZM11.2383 5.91901L7.12259 10.0386H7.12077L5.9688 8.88486L10.0466 4.72734L11.2383 5.91901Z" fill="#646A73"/>
<path d="M8.76322 2.31588H2.44348C2.07815 2.31588 1.78198 2.61204 1.78198 2.97737V13.5614C1.78198 13.9267 2.07815 14.2229 2.44348 14.2229H13.0275C13.3928 14.2229 13.689 13.9267 13.689 13.5614V7.16128L12.3577 8.5006V12.898H3.11322V3.64068H7.46248L8.76322 2.31588Z" fill="#646A73"/>
</svg>
