<svg width="12" height="14" viewBox="0 0 12 14" fill="" xmlns="http://www.w3.org/2000/svg">
<path d="M1.33333 4.33334V12.3333H8V4.33334H1.33333ZM9.33333 3.66668V13.0741C9.33333 13.4014 9.05476 13.6667 8.71111 13.6667H0.622222C0.278578 13.6667 0 13.4014 0 13.0741V3.5926C0 3.26532 0.278578 3.00001 0.622222 3.00001H8.66667C9.03486 3.00001 9.33333 3.29849 9.33333 3.66668ZM11.8047 0.528606C11.9254 0.649249 12 0.815915 12 1.00001V9.33334C12 9.51744 11.8508 9.66668 11.6667 9.66668H11C10.8159 9.66668 10.6667 9.51744 10.6667 9.33334V1.66668H4.33333C4.14924 1.66668 4 1.51744 4 1.33334V0.666677C4 0.482582 4.14924 0.333344 4.33333 0.333344H11.3333C11.5174 0.333344 11.6841 0.407963 11.8047 0.528606Z" fill=""/>
</svg>
