<svg width="16" height="16" viewBox="0 0 16 16" fill="" xmlns="http://www.w3.org/2000/svg">
<path d="M8.00008 3.66667C8.46031 3.66667 8.83341 4.03977 8.83341 4.5C8.83341 4.96023 8.46031 5.33333 8.00008 5.33333C7.53985 5.33333 7.16675 4.96023 7.16675 4.5C7.16675 4.03977 7.53985 3.66667 8.00008 3.66667Z" fill=""/>
<path d="M8.16675 6H7.33341C7.05727 6 6.83341 6.22386 6.83341 6.5V6.83333C6.83341 7.10948 7.05727 7.33333 7.33341 7.33333H7.50008V10.6667H6.83341C6.55727 10.6667 6.33341 10.8905 6.33341 11.1667V11.5C6.33341 11.7761 6.55727 12 6.83341 12H9.50008C9.77622 12 10.0001 11.7761 10.0001 11.5V11.1667C10.0001 10.8905 9.77622 10.6667 9.50008 10.6667H8.83341V6.66667C8.83341 6.29848 8.53494 6 8.16675 6Z" fill=""/>
<path fill-rule="evenodd" clip-rule="evenodd" d="M8.00008 15.3332C3.95008 15.3332 0.666748 12.0498 0.666748 7.99984C0.666748 3.94984 3.95008 0.666504 8.00008 0.666504C12.0501 0.666504 15.3334 3.94984 15.3334 7.99984C15.3334 12.0498 12.0501 15.3332 8.00008 15.3332ZM8.00008 13.9998C11.3138 13.9998 14.0001 11.3135 14.0001 7.99984C14.0001 4.68617 11.3138 1.99984 8.00008 1.99984C4.68642 1.99984 2.00008 4.68617 2.00008 7.99984C2.00008 11.3135 4.68642 13.9998 8.00008 13.9998Z" fill=""/>
</svg>
