<svg width="16" height="16" viewBox="0 0 16 16" fill="none" xmlns="http://www.w3.org/2000/svg">
<path d="M10.9823 11.9244C9.89439 12.8051 8.50885 13.3327 7.00008 13.3327C3.50228 13.3327 0.666748 10.4972 0.666748 6.99935C0.666748 3.50155 3.50228 0.666016 7.00008 0.666016C10.4979 0.666016 13.3334 3.50155 13.3334 6.99935C13.3334 8.50811 12.8058 9.89365 11.9251 10.9816L14.6737 13.7301C14.8039 13.8603 14.8039 14.0714 14.6737 14.2015L14.2023 14.673C14.0721 14.8031 13.8611 14.8031 13.7309 14.673L10.9823 11.9244ZM12.0001 6.99935C12.0001 4.23793 9.7615 1.99935 7.00008 1.99935C4.23866 1.99935 2.00008 4.23793 2.00008 6.99935C2.00008 9.76077 4.23866 11.9993 7.00008 11.9993C9.7615 11.9993 12.0001 9.76077 12.0001 6.99935Z" fill="#646A73"/>
</svg>
