<svg width="18" height="18" viewBox="0 0 18 18" fill="none" xmlns="http://www.w3.org/2000/svg">
<path d="M9.69976 6.5C9.86544 6.5 9.99975 6.63431 9.99975 6.8V7.7C9.99975 7.86568 9.86544 8 9.69976 8H7.74975C7.62703 8 7.52495 8.08844 7.50378 8.20506L7.49976 8.25V14.25C7.49976 14.3727 7.58819 14.4748 7.70482 14.496L7.74975 14.5H15.7498C15.8725 14.5 15.9746 14.4116 15.9957 14.2949L15.9998 14.25V8.25C15.9998 8.12727 15.9113 8.0252 15.7947 8.00403L15.7498 8H13.7998C13.6341 8 13.4998 7.86568 13.4998 7.7V6.8C13.4998 6.63431 13.6341 6.5 13.7998 6.5H15.7498C16.684 6.5 17.4473 7.23214 17.4972 8.15398L17.4998 8.25V14.25C17.4998 15.1843 16.7676 15.9476 15.8458 15.9974L15.7498 16H7.74975C6.81547 16 6.05219 15.2679 6.00234 14.346L5.99976 14.25V8.25C5.99976 7.31572 6.73189 6.55244 7.65374 6.50259L7.74975 6.5H9.69976ZM10.7498 2C11.684 2 12.4473 2.73214 12.4972 3.65398L12.4998 3.75V9.75C12.4998 10.6843 11.7676 11.4476 10.8458 11.4974L10.7498 11.5H8.79976C8.63407 11.5 8.49975 11.3657 8.49975 11.2V10.3C8.49975 10.1343 8.63407 10 8.79976 10H10.7498C10.8725 10 10.9746 9.91156 10.9957 9.79494L10.9998 9.75V3.75C10.9998 3.62727 10.9113 3.5252 10.7947 3.50403L10.7498 3.5H2.74976C2.62703 3.5 2.52495 3.58844 2.50378 3.70506L2.49976 3.75V9.75C2.49976 9.87273 2.58819 9.9748 2.70482 9.99597L2.74976 10H4.69976C4.86544 10 4.99976 10.1343 4.99976 10.3V11.2C4.99976 11.3657 4.86544 11.5 4.69976 11.5H2.74976C1.81547 11.5 1.05219 10.7679 1.00235 9.84602L0.999756 9.75V3.75C0.999756 2.81572 1.73189 2.05244 2.65374 2.00259L2.74976 2H10.7498Z" fill="#1F2329"/>
</svg>
