<svg width="16" height="16" viewBox="0 0 16 16" fill="none" xmlns="http://www.w3.org/2000/svg">
<path d="M8.00022 9.99975C7.56203 9.99975 7.13323 9.96523 6.71734 9.89921L6.38535 11.1382C6.33771 11.316 6.15493 11.4216 5.9771 11.3739L5.33315 11.2014C5.15533 11.1537 5.0498 10.9709 5.09745 10.7931L5.42255 9.57985C4.88013 9.39561 4.37096 9.15494 3.90491 8.86629L2.8454 9.9258C2.71522 10.056 2.50417 10.056 2.37399 9.9258L1.90259 9.4544C1.77242 9.32422 1.77242 9.11317 1.90259 8.98299L2.83565 8.04994C2.35424 7.59918 1.95209 7.0852 1.64812 6.52421C1.64492 6.51832 1.64162 6.51215 1.63823 6.50575C1.5136 6.27038 1.56023 5.97574 1.75709 5.79635C1.92051 5.64743 2.03596 5.5461 2.13639 5.44567C2.14538 5.43669 2.15521 5.42666 2.16569 5.41583C2.31108 5.2656 2.55902 5.32152 2.64417 5.51246C3.47427 7.37398 5.46211 8.66641 8.00022 8.66641C10.4321 8.66641 12.4664 7.40872 13.2829 5.68239C13.3042 5.63747 13.328 5.5809 13.3519 5.52084C13.4276 5.33064 13.6741 5.27325 13.8188 5.41801C13.9259 5.52508 14.0687 5.66784 14.2471 5.8463C14.4235 6.0227 14.4713 6.29211 14.356 6.51334C14.3279 6.56715 14.3006 6.61785 14.2774 6.65816C13.9638 7.20109 13.5572 7.69751 13.0754 8.1321L13.9263 8.98299C14.0565 9.11317 14.0565 9.32422 13.9263 9.4544L13.4549 9.9258C13.3247 10.056 13.1136 10.056 12.9835 9.9258L11.9888 8.93112C11.5521 9.19111 11.0792 9.40958 10.5779 9.57985L10.903 10.7931C10.9506 10.9709 10.8451 11.1537 10.6673 11.2014L10.0233 11.3739C9.84552 11.4216 9.66274 11.316 9.61509 11.1382L9.2831 9.89921C8.86721 9.96523 8.43842 9.99975 8.00022 9.99975Z" fill="#BBBFC4"/>
</svg>
