<svg t="1726630203120" class="icon" viewBox="0 0 1024 1024" version="1.1" xmlns="http://www.w3.org/2000/svg" p-id="9498" width="32" height="32"><path d="M901.347556 805.546667c-16.839111 0-30.72 12.970667-32.085334 29.354666v118.328889H106.268444v-119.921778c0.227556-1.592889 0.455111-3.185778 0.455112-5.006222V468.764444c0-1.592889-0.227556-3.413333-0.455112-5.006222V70.314667h552.049778v171.804444s3.185778 30.037333 31.857778 30.037333H869.262222v172.714667c1.820444 16.156444 15.473778 28.899556 32.085334 28.899556 14.791111 0 27.306667-10.012444 31.175111-23.438223V254.862222l-1.137778-1.137778c-1.137778-5.233778-3.640889-14.336-8.192-17.976888l-225.28-227.100445s-4.096-4.551111-16.839111-6.826667c-0.910222-0.682667-2.048-1.365333-2.958222-1.820444H95.573333C66.218667 0 42.552889 23.665778 42.552889 53.020444v463.985778c0.227556 0.455111 0.227556 1.137778 0.455111 1.592889V829.895111c-0.227556 0.682667-0.455111 1.137778-0.455111 1.820445v139.264c0 29.127111 23.665778 53.020444 53.020444 53.020444h783.928889c29.354667 0 53.020444-23.665778 53.020445-53.020444v-141.994667c-3.868444-13.425778-16.384-23.438222-31.175111-23.438222zM836.494222 218.680889l-130.389333 0.910222-0.910222-132.664889 131.299555 131.754667z" p-id="9499"></path><path d="M963.015111 611.214222l-95.573333-114.460444c-20.935111-14.336-34.133333 2.958222-34.133334 2.958222-13.880889 16.611556-0.682667 41.187556-0.682666 41.187556l56.206222 67.356444H604.842667c-16.611556 0-30.037333 16.156444-30.037334 35.953778 0 19.797333 13.425778 35.953778 30.037334 35.953778h282.851555l-58.254222 70.314666c-12.743111 27.989333 5.688889 43.235556 5.688889 43.235556 13.198222 16.611556 33.450667-1.365333 33.450667-1.365334l12.060444-14.563555 8.192-9.102222 83.057778-100.124445c25.713778-31.175111-8.874667-57.344-8.874667-57.344zM178.858667 276.935111c-16.611556 0-29.809778 14.336-29.809778 31.857778s13.425778 31.857778 29.809778 31.857778h370.460444c16.611556 0 29.809778-14.336 29.809778-31.857778s-13.425778-31.857778-29.809778-31.857778H178.858667zM780.743111 435.313778c0-18.887111-19.569778-34.133333-43.463111-34.133334H198.428444c-24.120889 0-43.463111 15.246222-43.463111 34.133334s19.569778 34.133333 43.463111 34.133333h538.624c24.120889 0 43.690667-15.246222 43.690667-34.133333zM544.768 155.420444H174.307556c-16.611556 0-29.809778 14.336-29.809778 31.857778s13.425778 31.857778 29.809778 31.857778h370.460444c16.611556 0 29.809778-14.336 29.809778-31.857778 0.227556-17.521778-13.198222-31.857778-29.809778-31.857778zM427.804444 531.797333l-84.423111 84.423111-84.423111-84.423111H142.222222l142.677334 142.904889-142.677334 142.904889h116.736l84.423111-84.423111 84.423111 84.423111h116.963556l-142.904889-142.904889 142.904889-142.904889z" p-id="9500"></path></svg>
