<svg t="1710150885892" style="vertical-align: middle;overflow: hidden;" viewBox="0 0 1024 1024" version="1.1" xmlns="http://www.w3.org/2000/svg" fill="rgb(100, 106, 115)" width="16" height="16"><path d="M85.333333 384c25.6 0 42.666667-17.066667 42.666667-42.666667V128h213.333333c25.6 0 42.666667-17.066667 42.666667-42.666667s-17.066667-42.666667-42.666667-42.666666H85.333333c-25.6 0-42.666667 17.066667-42.666666 42.666666v256c0 25.6 17.066667 42.666667 42.666666 42.666667zM938.666667 640c-25.6 0-42.666667 17.066667-42.666667 42.666667v213.333333h-213.333333c-25.6 0-42.666667 17.066667-42.666667 42.666667s17.066667 42.666667 42.666667 42.666666h256c25.6 0 42.666667-17.066667 42.666666-42.666666v-256c0-25.6-17.066667-42.666667-42.666666-42.666667zM977.066667 68.266667c-4.266667-8.533333-12.8-17.066667-21.333334-21.333334-4.266667-4.266667-12.8-4.266667-17.066666-4.266666h-256c-25.6 0-42.666667 17.066667-42.666667 42.666666s17.066667 42.666667 42.666667 42.666667h153.6l-226.133334 226.133333c-17.066667 17.066667-17.066667 42.666667 0 59.733334 8.533333 8.533333 17.066667 12.8 29.866667 12.8s21.333333-4.266667 29.866667-12.8L896 187.733333V341.333333c0 25.6 17.066667 42.666667 42.666667 42.666667s42.666667-17.066667 42.666666-42.666667V85.333333c0-4.266667 0-12.8-4.266666-17.066666zM354.133333 610.133333L128 836.266667V682.666667c0-25.6-17.066667-42.666667-42.666667-42.666667s-42.666667 17.066667-42.666666 42.666667v256c0 4.266667 0 12.8 4.266666 17.066666 4.266667 8.533333 12.8 17.066667 21.333334 21.333334 4.266667 4.266667 12.8 4.266667 17.066666 4.266666h256c25.6 0 42.666667-17.066667 42.666667-42.666666s-17.066667-42.666667-42.666667-42.666667H187.733333l226.133334-226.133333c17.066667-17.066667 17.066667-42.666667 0-59.733334s-42.666667-17.066667-59.733334 0z" p-id="8645"></path></svg>
