<svg style="vertical-align: middle;overflow: hidden;" t="1710214539671" viewBox="0 0 1024 1024" version="1.1" xmlns="http://www.w3.org/2000/svg" fill="rgb(100, 106, 115)" width="16" height="16"><path d="M85.333333 384c25.6 0 42.666667-17.066667 42.666667-42.666667V128h213.333333c25.6 0 42.666667-17.066667 42.666667-42.666667s-17.066667-42.666667-42.666667-42.666666H85.333333c-25.6 0-42.666667 17.066667-42.666666 42.666666v256c0 25.6 17.066667 42.666667 42.666666 42.666667zM938.666667 640c-25.6 0-42.666667 17.066667-42.666667 42.666667v213.333333h-213.333333c-25.6 0-42.666667 17.066667-42.666667 42.666667s17.066667 42.666667 42.666667 42.666666h256c25.6 0 42.666667-17.066667 42.666666-42.666666v-256c0-25.6-17.066667-42.666667-42.666666-42.666667zM601.6 401.066667c4.266667 8.533333 12.8 17.066667 21.333333 21.333333 4.266667 4.266667 12.8 4.266667 17.066667 4.266667h256c25.6 0 42.666667-17.066667 42.666667-42.666667s-17.066667-42.666667-42.666667-42.666667h-153.6l226.133333-226.133333c17.066667-17.066667 17.066667-42.666667 0-59.733333-8.533333-8.533333-17.066667-12.8-29.866666-12.8s-21.333333 4.266667-29.866667 12.8L682.666667 281.6V128c0-25.6-17.066667-42.666667-42.666667-42.666667s-42.666667 17.066667-42.666667 42.666667v256c0 4.266667 0 12.8 4.266667 17.066667zM115.2 968.533333L341.333333 742.4V896c0 25.6 17.066667 42.666667 42.666667 42.666667s42.666667-17.066667 42.666667-42.666667v-256c0-4.266667 0-12.8-4.266667-17.066667-4.266667-8.533333-12.8-17.066667-21.333333-21.333333-4.266667-4.266667-12.8-4.266667-17.066667-4.266667H128c-25.6 0-42.666667 17.066667-42.666667 42.666667s17.066667 42.666667 42.666667 42.666667h153.6l-226.133333 226.133333c-17.066667 17.066667-17.066667 42.666667 0 59.733333s42.666667 17.066667 59.733333 0z" p-id="10189"></path></svg>
