<svg width="16" height="16" viewBox="0 0 16 16" xmlns="http://www.w3.org/2000/svg">
<path d="M6.25 3.55664C6.11193 3.55664 6 3.66857 6 3.80664V4.63997C6 4.77805 6.11193 4.88997 6.25 4.88997H11.0833C11.2214 4.88997 11.3333 4.77805 11.3333 4.63997V3.80664C11.3333 3.66857 11.2214 3.55664 11.0833 3.55664H6.25Z" />
<path d="M6 8.02878C6 7.89071 6.11193 7.77878 6.25 7.77878H13.0833C13.2214 7.77878 13.3333 7.89071 13.3333 8.02878V8.86211C13.3333 9.00018 13.2214 9.11211 13.0833 9.11211H6.25C6.11193 9.11211 6 9.00018 6 8.86211V8.02878Z" />
<path d="M6.25 12.0009C6.11193 12.0009 6 12.1128 6 12.2509V13.0842C6 13.2223 6.11193 13.3342 6.25 13.3342H15.0833C15.2214 13.3342 15.3333 13.2223 15.3333 13.0842V12.2509C15.3333 12.1128 15.2214 12.0009 15.0833 12.0009H6.25Z" />
<path d="M5.03981 14.5684C4.9773 14.6309 4.89251 14.666 4.80411 14.666H4.19677C4.153 14.666 4.10965 14.6574 4.06921 14.6406C4.02877 14.6239 3.99202 14.5993 3.96107 14.5684C3.93012 14.5374 3.90557 14.5007 3.88881 14.4602C3.87206 14.4198 3.86344 14.3765 3.86344 14.3327L3.86344 3.83902L2.39244 5.37235C2.33134 5.43523 2.24792 5.47151 2.16026 5.47332C2.0726 5.47513 1.98775 5.44232 1.92411 5.38202L1.43711 4.92068C1.40532 4.89057 1.37977 4.85449 1.36193 4.8145C1.34409 4.77452 1.3343 4.73141 1.33313 4.68764C1.33195 4.64387 1.33941 4.6003 1.35508 4.55941C1.37075 4.51852 1.39432 4.48112 1.42444 4.44935L3.98677 1.70768C4.40144 1.27001 5.13744 1.56335 5.13744 2.16602L5.13744 14.3327C5.13744 14.4211 5.10232 14.5059 5.03981 14.5684Z" />
</svg>
