<svg width="16" height="16" viewBox="0 0 16 16" xmlns="http://www.w3.org/2000/svg">
<path d="M6.25 11.1222C6.11193 11.1222 6 11.2341 6 11.3722V12.2055C6 12.3436 6.11193 12.4555 6.25 12.4555H11.0833C11.2214 12.4555 11.3333 12.3436 11.3333 12.2055V11.3722C11.3333 11.2341 11.2214 11.1222 11.0833 11.1222H6.25Z" />
<path d="M6 7.1478C6 7.00973 6.11193 6.8978 6.25 6.8978H13.0833C13.2214 6.8978 13.3333 7.00973 13.3333 7.1478V7.98113C13.3333 8.1192 13.2214 8.23113 13.0833 8.23113H6.25C6.11193 8.23113 6 8.1192 6 7.98113V7.1478Z" />
<path d="M6.25 2.67773C6.11193 2.67773 6 2.78966 6 2.92773V3.76107C6 3.89914 6.11193 4.01107 6.25 4.01107H15.0833C15.2214 4.01107 15.3333 3.89914 15.3333 3.76107V2.92773C15.3333 2.78966 15.2214 2.67773 15.0833 2.67773H6.25Z" />
<path d="M3.98898 14.4564C4.40365 14.8941 5.13965 14.6007 5.13965 13.9981L5.13965 1.83139C5.13965 1.74298 5.10453 1.6582 5.04202 1.59569C4.9795 1.53317 4.89472 1.49806 4.80632 1.49806H4.13965C4.05124 1.49806 3.96646 1.53317 3.90395 1.59569C3.84143 1.6582 3.80632 1.74298 3.80632 1.83139L3.80632 12.3247L2.39432 10.7977C2.36423 10.7659 2.32816 10.7403 2.28819 10.7225C2.24822 10.7046 2.20511 10.6948 2.16134 10.6936C2.11757 10.6924 2.07399 10.6998 2.03309 10.7154C1.9922 10.7311 1.95478 10.7546 1.92298 10.7847L1.43932 11.2434C1.4075 11.2735 1.38193 11.3095 1.36406 11.3495C1.34619 11.3895 1.33637 11.4326 1.33517 11.4764C1.33396 11.5201 1.34139 11.5637 1.35703 11.6046C1.37267 11.6455 1.39621 11.6829 1.42631 11.7147L3.98898 14.4564Z" />
</svg>
