<svg width="16" height="16" viewBox="0 0 16 16" xmlns="http://www.w3.org/2000/svg">
<path d="M1.90488 12.7618L6.65937 8.00732L1.90488 3.25284C1.77471 3.12266 1.77471 2.9116 1.90488 2.78143L2.37629 2.31003C2.50646 2.17985 2.71752 2.17985 2.84769 2.31003L8.07358 7.53592C8.33393 7.79627 8.33393 8.21838 8.07358 8.47873L2.84769 13.7046C2.71752 13.8348 2.50646 13.8348 2.37629 13.7046L1.90488 13.2332C1.77471 13.103 1.77471 12.892 1.90488 12.7618Z"/>
<path d="M7.82871 12.7618L12.5832 8.00732L7.82871 3.25284C7.69854 3.12266 7.69854 2.9116 7.82871 2.78143L8.30012 2.31003C8.43029 2.17985 8.64134 2.17985 8.77152 2.31003L13.9974 7.53592C14.2578 7.79627 14.2578 8.21838 13.9974 8.47873L8.77152 13.7046C8.64134 13.8348 8.43029 13.8348 8.30012 13.7046L7.82871 13.2332C7.69854 13.103 7.69854 12.892 7.82871 12.7618Z"/>
</svg>
