<svg width="16" height="16" viewBox="0 0 16 16" xmlns="http://www.w3.org/2000/svg">
<path d="M8.16645 3.24307L3.41197 7.99755L8.16645 12.752C8.29663 12.8822 8.29663 13.0933 8.16645 13.2234L7.69505 13.6948C7.56487 13.825 7.35382 13.825 7.22364 13.6948L1.99775 8.46896C1.7374 8.20861 1.7374 7.7865 1.99775 7.52615L7.22364 2.30026C7.35382 2.17009 7.56487 2.17009 7.69505 2.30026L8.16645 2.77166C8.29663 2.90184 8.29663 3.11289 8.16645 3.24307Z"/>
<path d="M14.0999 3.24307L9.3454 7.99755L14.0999 12.752C14.2301 12.8822 14.2301 13.0933 14.0999 13.2234L13.6285 13.6948C13.4983 13.825 13.2872 13.825 13.1571 13.6948L7.93118 8.46896C7.67083 8.20861 7.67083 7.7865 7.93118 7.52615L13.1571 2.30026C13.2872 2.17009 13.4983 2.17009 13.6285 2.30026L14.0999 2.77166C14.2301 2.90184 14.2301 3.11289 14.0999 3.24307Z"/>
</svg>
