<svg width="16" height="16" viewBox="0 0 16 16" fill="none" xmlns="http://www.w3.org/2000/svg">
<path d="M4.83334 1.33301C5.10949 1.33301 5.33334 1.55687 5.33334 1.83301V1.99967H10.6667V1.83301C10.6667 1.55687 10.8905 1.33301 11.1667 1.33301H11.5C11.7762 1.33301 12 1.55687 12 1.83301V1.99967H14C14.3682 1.99967 14.6667 2.29815 14.6667 2.66634V13.9997C14.6667 14.3679 14.3682 14.6663 14 14.6663H2.00001C1.63182 14.6663 1.33334 14.3679 1.33334 13.9997L1.33334 2.66634C1.33334 2.29815 1.63182 1.99967 2.00001 1.99967H4.00001V1.83301C4.00001 1.55687 4.22387 1.33301 4.50001 1.33301H4.83334ZM10.6667 3.33301H5.33334V3.49967C5.33334 3.77582 5.10949 3.99967 4.83334 3.99967H4.50001C4.22387 3.99967 4.00001 3.77582 4.00001 3.49967V3.33301H2.66668V13.333H13.3333V3.33301H12V3.49967C12 3.77582 11.7762 3.99967 11.5 3.99967H11.1667C10.8905 3.99967 10.6667 3.77582 10.6667 3.49967V3.33301ZM6.00001 6.83301C6.00001 6.55687 5.77615 6.33301 5.50001 6.33301H4.50001C4.22387 6.33301 4.00001 6.55687 4.00001 6.83301V7.83301C4.00001 8.10915 4.22387 8.33301 4.50001 8.33301H5.50001C5.77615 8.33301 6.00001 8.10915 6.00001 7.83301V6.83301ZM7.00001 6.83301C7.00001 6.55687 7.22387 6.33301 7.50001 6.33301H8.50001C8.77615 6.33301 9.00001 6.55687 9.00001 6.83301V7.83301C9.00001 8.10915 8.77615 8.33301 8.50001 8.33301H7.50001C7.22387 8.33301 7.00001 8.10915 7.00001 7.83301V6.83301ZM6.00001 9.83301C6.00001 9.55687 5.77615 9.33301 5.50001 9.33301H4.50001C4.22387 9.33301 4.00001 9.55687 4.00001 9.83301V10.833C4.00001 11.1092 4.22387 11.333 4.50001 11.333H5.50001C5.77615 11.333 6.00001 11.1092 6.00001 10.833V9.83301ZM7.00001 9.83301C7.00001 9.55687 7.22387 9.33301 7.50001 9.33301H8.50001C8.77615 9.33301 9.00001 9.55687 9.00001 9.83301V10.833C9.00001 11.1092 8.77615 11.333 8.50001 11.333H7.50001C7.22387 11.333 7.00001 11.1092 7.00001 10.833V9.83301ZM12 6.83301C12 6.55687 11.7762 6.33301 11.5 6.33301H10.5C10.2239 6.33301 10 6.55687 10 6.83301V7.83301C10 8.10915 10.2239 8.33301 10.5 8.33301H11.5C11.7762 8.33301 12 8.10915 12 7.83301V6.83301Z" fill="#646A73"/>
<path d="M12 9.83301C12 9.55687 11.7762 9.33301 11.5 9.33301H10.5C10.2239 9.33301 10 9.55687 10 9.83301V10.833C10 11.1092 10.2239 11.333 10.5 11.333H11.5C11.7762 11.333 12 11.1092 12 10.833V9.83301Z" fill="#646A73"/>
</svg>
