<svg width="20" height="20" viewBox="0 0 20 20" fill="none" xmlns="http://www.w3.org/2000/svg">
<path d="M15 8.75L16.6667 8.75C16.7214 8.75 16.7756 8.76078 16.8261 8.78172C16.8767 8.80266 16.9226 8.83335 16.9613 8.87204C17 8.91073 17.0307 8.95666 17.0516 9.00721C17.0726 9.05777 17.0833 9.11195 17.0833 9.16667L17.0833 10.8333C17.0833 10.888 17.0726 10.9422 17.0516 10.9928C17.0307 11.0433 17 11.0893 16.9613 11.128C16.9226 11.1667 16.8767 11.1973 16.8261 11.2183C16.7756 11.2392 16.7214 11.25 16.6667 11.25L15 11.25C14.8895 11.25 14.7835 11.2061 14.7054 11.128C14.6272 11.0498 14.5833 10.9438 14.5833 10.8333L14.5833 9.16667C14.5833 9.11195 14.5941 9.05777 14.615 9.00721C14.636 8.95666 14.6667 8.91073 14.7054 8.87204C14.7441 8.83335 14.79 8.80266 14.8405 8.78172C14.8911 8.76078 14.9453 8.75 15 8.75V8.75ZM3.33333 8.75L5 8.75C5.05471 8.75 5.1089 8.76078 5.15945 8.78172C5.21 8.80266 5.25593 8.83335 5.29462 8.87204C5.33332 8.91073 5.36401 8.95666 5.38495 9.00722C5.40589 9.05777 5.41666 9.11195 5.41666 9.16667L5.41666 10.8333C5.41666 10.9438 5.37277 11.0498 5.29463 11.128C5.21648 11.2061 5.1105 11.25 5 11.25L3.33333 11.25C3.27861 11.25 3.22443 11.2392 3.17388 11.2183C3.12333 11.1973 3.07739 11.1667 3.0387 11.128C3.00001 11.0893 2.96932 11.0433 2.94838 10.9928C2.92744 10.9422 2.91666 10.8881 2.91666 10.8333L2.91666 9.16667C2.91666 9.11195 2.92744 9.05777 2.94838 9.00722C2.96932 8.95666 3.00001 8.91073 3.0387 8.87204C3.07739 8.83335 3.12333 8.80266 3.17388 8.78172C3.22443 8.76078 3.27861 8.75 3.33333 8.75V8.75ZM9.16666 8.75L10.8333 8.75C10.888 8.75 10.9422 8.76078 10.9928 8.78172C11.0433 8.80266 11.0893 8.83335 11.128 8.87204C11.1666 8.91073 11.1973 8.95666 11.2183 9.00721C11.2392 9.05777 11.25 9.11195 11.25 9.16667L11.25 10.8333C11.25 10.8881 11.2392 10.9422 11.2183 10.9928C11.1973 11.0433 11.1666 11.0893 11.128 11.128C11.0893 11.1667 11.0433 11.1973 10.9928 11.2183C10.9422 11.2392 10.888 11.25 10.8333 11.25L9.16666 11.25C9.05616 11.25 8.95018 11.2061 8.87204 11.128C8.7939 11.0498 8.75 10.9438 8.75 10.8333L8.75 9.16667C8.75 9.11195 8.76078 9.05777 8.78171 9.00722C8.80265 8.95666 8.83334 8.91073 8.87204 8.87204C8.91073 8.83335 8.95666 8.80266 9.00721 8.78172C9.05777 8.76078 9.11195 8.75 9.16666 8.75Z" fill="#1F2329"/>
</svg>
