<svg width="16" height="16" viewBox="0 0 16 16" fill="none" xmlns="http://www.w3.org/2000/svg">
<g clip-path="url(#clip0_8693_4607)">
<path d="M7.99999 15.3337C12.0501 15.3337 15.3333 12.0504 15.3333 8.00033C15.3333 3.95024 12.0501 0.666992 7.99999 0.666992C3.9499 0.666992 0.666656 3.95024 0.666656 8.00033C0.666656 12.0504 3.9499 15.3337 7.99999 15.3337ZM7.99999 14.0003C4.68628 14.0003 1.99999 11.314 1.99999 8.00033C1.99999 4.68662 4.68628 2.00033 7.99999 2.00033C11.3137 2.00033 14 4.68662 14 8.00033C14 11.314 11.3137 14.0003 7.99999 14.0003Z" fill="#646A73"/>
<path fill-rule="evenodd" clip-rule="evenodd" d="M8.00001 10.6663C9.47277 10.6663 10.6667 9.47243 10.6667 7.99967C10.6667 6.52692 9.47277 5.33301 8.00001 5.33301C6.52725 5.33301 5.33334 6.52692 5.33334 7.99967C5.33334 9.47243 6.52725 10.6663 8.00001 10.6663Z" fill="#646A73"/>
</g>
<defs>
<clipPath id="clip0_8693_4607">
<rect width="16" height="16" fill="white"/>
</clipPath>
</defs>
</svg>
