<svg width="12" height="12" viewBox="0 0 12 12"  xmlns="http://www.w3.org/2000/svg">
<path fill-rule="evenodd" clip-rule="evenodd" d="M8 5.71552V10.75C8 10.8881 7.88807 11 7.75 11H7.25C7.11193 11 7 10.8881 7 10.75V5.5C7 5.42652 7.01585 5.35674 7.04432 5.2939C7.08231 5.19959 7.15031 5.11653 7.24423 5.06046L10 3.41546V2H2V3.4329L4.67252 5.03056C4.86366 5.10083 5 5.28449 5 5.5V9C5 9.13807 4.88807 9.25 4.75 9.25H4.25C4.11193 9.25 4 9.13807 4 9V5.73259L1.23691 4.08079C1.17489 4.04371 1.12421 3.99484 1.08604 3.93873C1.03333 3.8929 1 3.82534 1 3.75V1.5C1 1.22386 1.22386 1 1.5 1H10.5C10.6381 1 10.7631 1.05596 10.8536 1.14645C10.944 1.23693 11 1.36193 11 1.5V3.59655C11.0039 3.63166 11.0038 3.6669 11 3.70162V3.75C11 3.83421 10.9584 3.90869 10.8946 3.95399C10.86 3.99642 10.8176 4.03363 10.7679 4.06329L8 5.71552Z" />
</svg>
