<svg width="24" height="24" viewBox="0 0 24 24" fill="none" xmlns="http://www.w3.org/2000/svg">
<path d="M2.49999 8.41356C2.49999 8.54617 2.55267 8.67334 2.64643 8.76711C2.7402 8.86088 2.86738 8.91356 2.99999 8.91356H21.25C22.154 8.91356 22.594 7.80956 21.9375 7.18756L16.825 2.34406C16.7773 2.29887 16.7212 2.26352 16.6599 2.24001C16.5986 2.21651 16.5332 2.20533 16.4676 2.20709C16.4019 2.20885 16.3372 2.22354 16.2773 2.2503C16.2173 2.27706 16.1632 2.31538 16.118 2.36306L15.426 3.09356C15.3355 3.18903 15.2863 3.31629 15.289 3.44778C15.2918 3.57928 15.3462 3.7044 15.4405 3.79606L18.7405 7.00256H2.99999C2.93433 7.00256 2.86931 7.01549 2.80865 7.04062C2.74798 7.06575 2.69286 7.10257 2.64643 7.149C2.60001 7.19543 2.56318 7.25055 2.53805 7.31122C2.51292 7.37188 2.49999 7.4369 2.49999 7.50256V8.41356ZM2.74999 15.0001C1.84599 15.0001 1.40599 16.1041 2.06249 16.7261L7.17499 21.5701C7.22268 21.6152 7.27881 21.6505 7.34016 21.674C7.4015 21.6974 7.46687 21.7086 7.53253 21.7068C7.59818 21.705 7.66284 21.6902 7.7228 21.6634C7.78276 21.6366 7.83685 21.5983 7.88199 21.5506L8.56999 20.8251C8.61514 20.7774 8.65046 20.7212 8.67392 20.6599C8.69738 20.5985 8.70852 20.5332 8.70671 20.4675C8.7049 20.4019 8.69017 20.3372 8.66336 20.2772C8.63656 20.2173 8.5982 20.1632 8.55049 20.1181L5.25999 17.0001H21C21.1326 17.0001 21.2598 16.9474 21.3535 16.8536C21.4473 16.7598 21.5 16.6327 21.5 16.5001V15.5001C21.5 15.3674 21.4473 15.2403 21.3535 15.1465C21.2598 15.0527 21.1326 15.0001 21 15.0001H2.74999Z" fill="CurrentColor"/>
</svg>
