<svg width="16" height="16" viewBox="0 0 16 16" fill="none" xmlns="http://www.w3.org/2000/svg">
<path d="M5.3335 2.66634V1.99967C5.3335 1.63148 5.63197 1.33301 6.00016 1.33301H10.0002C10.3684 1.33301 10.6668 1.63148 10.6668 1.99967V2.66634H14.2395C14.3881 2.66634 14.442 2.68181 14.4963 2.71086C14.5506 2.73991 14.5933 2.78255 14.6223 2.83687C14.6514 2.89119 14.6668 2.94507 14.6668 3.09366V3.57236C14.6668 3.72095 14.6514 3.77483 14.6223 3.82915C14.5933 3.88347 14.5506 3.9261 14.4963 3.95515C14.442 3.9842 14.3881 3.99967 14.2395 3.99967H13.3335V13.9997C13.3335 14.3679 13.035 14.6663 12.6668 14.6663H3.3335C2.96531 14.6663 2.66683 14.3679 2.66683 13.9997V3.99967H1.76081C1.61222 3.99967 1.55834 3.9842 1.50402 3.95515C1.4497 3.9261 1.40707 3.88347 1.37802 3.82915C1.34897 3.77483 1.3335 3.72095 1.3335 3.57236V3.09366C1.3335 2.94507 1.34897 2.89119 1.37802 2.83687C1.40707 2.78255 1.4497 2.73991 1.50402 2.71086C1.55834 2.68181 1.61222 2.66634 1.76081 2.66634H5.3335ZM4.00016 3.99967V13.333H12.0002V3.99967H4.00016ZM6.3335 5.33301H7.00016C7.18426 5.33301 7.3335 5.48225 7.3335 5.66634V11.6663C7.3335 11.8504 7.18426 11.9997 7.00016 11.9997H6.3335C6.1494 11.9997 6.00016 11.8504 6.00016 11.6663V5.66634C6.00016 5.48225 6.1494 5.33301 6.3335 5.33301ZM9.00016 5.33301H9.66683C9.85092 5.33301 10.0002 5.48225 10.0002 5.66634V11.6663C10.0002 11.8504 9.85092 11.9997 9.66683 11.9997H9.00016C8.81607 11.9997 8.66683 11.8504 8.66683 11.6663V5.66634C8.66683 5.48225 8.81607 5.33301 9.00016 5.33301Z" fill="#646A73"/>
</svg>
