<?xml version="1.0" standalone="no"?><!DOCTYPE svg PUBLIC "-//W3C//DTD SVG 1.1//EN" "http://www.w3.org/Graphics/SVG/1.1/DTD/svg11.dtd"><svg t="1698901715032" class="icon" viewBox="0 0 1024 1024" version="1.1" xmlns="http://www.w3.org/2000/svg" p-id="4099" xmlns:xlink="http://www.w3.org/1999/xlink" width="200" height="200"><path d="M960.605 932.345v-240.231c0.045-7.2-2.723-14.445-8.213-19.98-11.115-11.047-29.002-11.047-40.071 0-5.535 5.535-8.303 12.757-8.303 19.98v171.923l-351.99-352.035 351.99-352.013v171.855c0 7.245 2.767 14.49 8.303 20.002 11.070 11.070 28.957 11.070 40.071 0 5.49-5.511 8.257-12.78 8.213-20.002v-240.187c0.045-7.223-2.723-14.468-8.213-20.003-5.58-5.511-12.803-8.279-20.025-8.302h-240.233c-7.222 0-14.467 2.79-19.98 8.302-11.115 11.049-11.115 28.957 0 40.050 5.511 5.535 12.735 8.302 19.98 8.279h171.9l-352.013 352.013-352.012-352.035h171.855c7.268 0.022 14.49-2.745 20.025-8.279 11.070-11.047 11.070-29.002 0-40.050-5.49-5.511-12.758-8.279-20.025-8.303h-240.187c-7.268 0-14.513 2.79-20.025 8.303-5.513 5.558-8.279 12.803-8.279 20.048v240.165c0 7.245 2.79 14.512 8.279 20.002 11.070 11.070 28.98 11.070 40.028 0 5.513-5.511 8.279-12.713 8.279-20.002v-171.855l352.058 352.012-352.035 352.035v-171.922c0-7.2-2.745-14.445-8.279-19.98-11.070-11.047-29.002-11.047-40.028 0-5.558 5.535-8.279 12.757-8.279 19.98v240.231c0 7.223 2.79 14.468 8.279 20.048 5.535 5.468 12.757 8.279 20.025 8.279h240.188c7.268 0 14.49-2.745 20.025-8.279 11.070-11.047 11.070-29.002 0-40.050-5.535-5.535-12.78-8.257-20.025-8.257h-171.877l352.012-352.035 352.013 352.035h-171.9c-7.222 0-14.467 2.768-19.98 8.257-11.115 11.049-11.115 29.002 0 40.050 5.511 5.468 12.735 8.279 19.98 8.279h240.255c7.2 0 14.445-2.813 20.025-8.279 5.467-5.602 8.19-12.825 8.19-20.048z" p-id="4100" fill="#646A73"></path></svg>
