<svg width="24" height="24" viewBox="0 0 24 24" fill="none" xmlns="http://www.w3.org/2000/svg">
<path fill-rule="evenodd" clip-rule="evenodd" d="M4.32881 19.7336L4.01769 19.3947C2.92844 18.2083 2.11122 16.7932 1.63213 15.2477L1.49707 14.8121L3.54513 12L1.49707 9.18788L1.63213 8.7522C2.11122 7.20676 2.92844 5.79166 4.01769 4.60522L4.32881 4.26634L7.77063 4.64253L9.16859 1.4557L9.61685 1.35478C10.3936 1.17991 11.1916 1.09088 12.0005 1.09088C12.8093 1.09088 13.6073 1.17991 14.3841 1.35478L14.8323 1.4557L16.2303 4.64253L19.6721 4.26634L19.9832 4.60522C21.0725 5.79166 21.8897 7.20676 22.3688 8.7522L22.5038 9.18788L20.4558 12L22.5038 14.8121L22.3688 15.2477C21.8897 16.7932 21.0725 18.2083 19.9832 19.3947L19.6721 19.7336L16.2303 19.3574L14.8323 22.5442L14.3841 22.6452C13.6073 22.82 12.8093 22.9091 12.0005 22.9091C11.1916 22.9091 10.3936 22.82 9.61685 22.6452L9.16859 22.5442L7.77063 19.3574L4.32881 19.7336ZM7.8139 17.5236C8.46003 17.453 9.07723 17.8099 9.33833 18.4051L10.4588 20.9593C10.9641 21.0466 11.4792 21.0908 12.0005 21.0908C12.5217 21.0908 13.0368 21.0466 13.5421 20.9593L14.6626 18.4051C14.9237 17.8099 15.5409 17.453 16.187 17.5236L18.9412 17.8247C19.6064 17.024 20.1309 16.1142 20.4889 15.1338L18.8445 12.876C18.4643 12.3538 18.4643 11.646 18.8445 11.1239L20.4889 8.86603C20.1309 7.88562 19.6064 6.97584 18.9412 6.17518L16.187 6.47621C15.5409 6.54684 14.9237 6.18994 14.6626 5.59472L13.5421 3.04054C13.0368 2.95327 12.5217 2.90901 12.0005 2.90901C11.4792 2.90901 10.9641 2.95327 10.4588 3.04054L9.33833 5.59472C9.07723 6.18994 8.46003 6.54684 7.8139 6.47621L5.05969 6.17518C4.39449 6.97584 3.87002 7.88562 3.51199 8.86603L5.15637 11.1239C5.53664 11.646 5.53664 12.3538 5.15637 12.876L3.51199 15.1338C3.87002 16.1142 4.39449 17.024 5.05969 17.8247L7.8139 17.5236ZM12.0005 16.5454C9.49866 16.5454 7.47232 14.5094 7.47232 12C7.47232 9.49055 9.49866 7.45451 12.0005 7.45451C14.5023 7.45451 16.5286 9.49055 16.5286 12C16.5286 14.5094 14.5023 16.5454 12.0005 16.5454ZM12.0005 14.7273C13.4961 14.7273 14.7104 13.5072 14.7104 12C14.7104 10.4928 13.4961 9.27275 12.0005 9.27275C10.5048 9.27275 9.2905 10.4928 9.2905 12C9.2905 13.5072 10.5048 14.7273 12.0005 14.7273Z" fill="CurrentColor"/>
</svg>
