<svg width="16" height="16" viewBox="0 0 16 16" fill="none" xmlns="http://www.w3.org/2000/svg">
<g clip-path="url(#clip0_8693_7580)">
<path d="M1.33332 2H14.6667C15.0348 2 15.3333 2.29848 15.3333 2.66667V13.3333C15.3333 13.7015 15.0348 14 14.6667 14H1.33332C0.965133 14 0.666656 13.7015 0.666656 13.3333V2.66667C0.666656 2.29848 0.965133 2 1.33332 2ZM1.99999 3.33333V12.6667H14V3.33333H1.99999Z" fill="#646A73"/>
<path d="M4.66667 5.02255C4.66667 4.82618 4.50748 4.66699 4.31112 4.66699H3.68889C3.49253 4.66699 3.33334 4.82618 3.33334 5.02255L3.33325 7.00033C3.33325 7.19669 3.49244 7.35588 3.68881 7.35588H4.31103C4.5074 7.35588 4.66659 7.19669 4.66659 7.00033L4.66667 5.02255Z" fill="#646A73"/>
</g>
<defs>
<clipPath id="clip0_8693_7580">
<rect width="16" height="16" fill="white"/>
</clipPath>
</defs>
</svg>
