<svg width="16" height="16" viewBox="0 0 16 16" xmlns="http://www.w3.org/2000/svg">
<path d="M6.00555 9.33163C6.18964 9.33163 6.35631 9.40625 6.47695 9.5269C6.5976 9.64754 6.67222 9.81421 6.67222 9.9983V13.4381C6.67222 13.6222 6.52298 13.7715 6.33888 13.7715H5.67222C5.48812 13.7715 5.33888 13.6222 5.33888 13.4381V11.665L2.72855 14.2744C2.59838 14.4046 2.38732 14.4046 2.25715 14.2744L1.78574 13.803C1.65557 13.6729 1.65557 13.4618 1.78574 13.3316L4.4533 10.665H2.55702C2.37293 10.665 2.22369 10.5157 2.22369 10.3316V9.66497C2.22369 9.48087 2.37293 9.33163 2.55702 9.33163H6.00555ZM13.2793 1.7258C13.4094 1.59563 13.6205 1.59563 13.7507 1.7258L14.2221 2.19721C14.3522 2.32738 14.3522 2.53844 14.2221 2.66861L11.5545 5.33528H13.4508C13.6349 5.33528 13.7841 5.48452 13.7841 5.66861V6.33528C13.7841 6.51938 13.6349 6.66861 13.4508 6.66861H10.0023C9.81817 6.66861 9.65151 6.594 9.53086 6.47335C9.41022 6.35271 9.3356 6.18604 9.3356 6.00195V2.5621C9.3356 2.37801 9.48484 2.22877 9.66893 2.22877H10.3356C10.5197 2.22877 10.6689 2.37801 10.6689 2.5621V4.33525L13.2793 1.7258Z"/>
</svg>
