<svg width="16" height="16" viewBox="0 0 16 16" fill="none" xmlns="http://www.w3.org/2000/svg">
<path d="M4.83301 1.33398C5.10915 1.33398 5.33301 1.55784 5.33301 1.83398V2.00065H10.6663V1.83398C10.6663 1.55784 10.8902 1.33398 11.1663 1.33398H11.4997C11.7758 1.33398 11.9997 1.55784 11.9997 1.83398V2.00065H13.9997C14.3679 2.00065 14.6663 2.29913 14.6663 2.66732V14.0007C14.6663 14.3688 14.3679 14.6673 13.9997 14.6673H1.99967C1.63148 14.6673 1.33301 14.3688 1.33301 14.0007L1.33301 2.66732C1.33301 2.29913 1.63148 2.00065 1.99967 2.00065H3.99967V1.83398C3.99967 1.55784 4.22353 1.33398 4.49967 1.33398H4.83301ZM10.6663 3.33398H5.33301V3.50065C5.33301 3.77679 5.10915 4.00065 4.83301 4.00065H4.49967C4.22353 4.00065 3.99967 3.77679 3.99967 3.50065V3.33398H2.66634V13.334H13.333V3.33398H11.9997V3.50065C11.9997 3.77679 11.7758 4.00065 11.4997 4.00065H11.1663C10.8902 4.00065 10.6663 3.77679 10.6663 3.50065V3.33398ZM5.99967 6.83398C5.99967 6.55784 5.77582 6.33398 5.49967 6.33398H4.49967C4.22353 6.33398 3.99967 6.55784 3.99967 6.83398V7.83398C3.99967 8.11013 4.22353 8.33398 4.49967 8.33398H5.49967C5.77582 8.33398 5.99967 8.11013 5.99967 7.83398V6.83398ZM6.99967 6.83398C6.99967 6.55784 7.22353 6.33398 7.49967 6.33398H8.49967C8.77582 6.33398 8.99967 6.55784 8.99967 6.83398V7.83398C8.99967 8.11013 8.77582 8.33398 8.49967 8.33398H7.49967C7.22353 8.33398 6.99967 8.11013 6.99967 7.83398V6.83398ZM5.99967 9.83398C5.99967 9.55784 5.77582 9.33398 5.49967 9.33398H4.49967C4.22353 9.33398 3.99967 9.55784 3.99967 9.83398V10.834C3.99967 11.1101 4.22353 11.334 4.49967 11.334H5.49967C5.77582 11.334 5.99967 11.1101 5.99967 10.834V9.83398ZM6.99967 9.83398C6.99967 9.55784 7.22353 9.33398 7.49967 9.33398H8.49967C8.77582 9.33398 8.99967 9.55784 8.99967 9.83398V10.834C8.99967 11.1101 8.77582 11.334 8.49967 11.334H7.49967C7.22353 11.334 6.99967 11.1101 6.99967 10.834V9.83398ZM11.9997 6.83398C11.9997 6.55784 11.7758 6.33398 11.4997 6.33398H10.4997C10.2235 6.33398 9.99967 6.55784 9.99967 6.83398V7.83398C9.99967 8.11013 10.2235 8.33398 10.4997 8.33398H11.4997C11.7758 8.33398 11.9997 8.11013 11.9997 7.83398V6.83398Z" fill="#646A73"/>
<path d="M11.9997 9.83398C11.9997 9.55784 11.7758 9.33398 11.4997 9.33398H10.4997C10.2235 9.33398 9.99967 9.55784 9.99967 9.83398V10.834C9.99967 11.1101 10.2235 11.334 10.4997 11.334H11.4997C11.7758 11.334 11.9997 11.1101 11.9997 10.834V9.83398Z" fill="#646A73"/>
</svg>
