<svg width="16" height="16" viewBox="0 0 16 16" fill="none" xmlns="http://www.w3.org/2000/svg">
<path d="M2.66666 1.77734H13.3333C13.8242 1.77734 14.2222 2.17531 14.2222 2.66623V13.3329C14.2222 13.8238 13.8242 14.2218 13.3333 14.2218H2.66666C2.17574 14.2218 1.77777 13.8238 1.77777 13.3329V2.66623C1.77777 2.17531 2.17574 1.77734 2.66666 1.77734ZM3.1111 3.11068V12.8885H12.8889V3.11068H3.1111ZM10.5524 5.52146C10.6566 5.41732 10.8254 5.41732 10.9296 5.52146L11.4952 6.08715C11.5994 6.19129 11.5994 6.36013 11.4952 6.46427L7.47259 10.4869C7.463 10.4965 7.45285 10.5052 7.44226 10.5131L7.35921 10.5961C7.25571 10.6996 7.08815 10.7003 6.98375 10.5978L4.63634 8.29133C4.53063 8.18747 4.52988 8.01734 4.63467 7.91255L5.20034 7.34688C5.30383 7.24339 5.47139 7.24265 5.57579 7.34523L7.16611 8.90778L10.5524 5.52146Z" fill="#646A73"/>
</svg>
