<svg width="24" height="24" viewBox="0 0 24 24" xmlns="http://www.w3.org/2000/svg">
<path d="M12 21C16.9706 21 21 16.9706 21 12C21 7.02944 16.9706 3 12 3C7.02944 3 3 7.02944 3 12C3 16.9706 7.02944 21 12 21ZM12 23C5.92487 23 1 18.0751 1 12C1 5.92487 5.92487 1 12 1C18.0751 1 23 5.92487 23 12C23 18.0751 18.0751 23 12 23ZM10.84 14.2799L16.1433 8.97665C16.3386 8.78138 16.6551 8.78138 16.8504 8.97665L17.5575 9.68375C17.7528 9.87901 17.7528 10.1956 17.5575 10.3909L11.1936 16.7548C10.9983 16.9501 10.6817 16.9501 10.4864 16.7548L6.82603 13.0944C6.63077 12.8991 6.63077 12.5826 6.82603 12.3873L7.53314 11.6802C7.7284 11.4849 8.04498 11.4849 8.24024 11.6802L10.84 14.2799Z"/>
</svg>
