<svg width="16" height="16" viewBox="0 0 16 16" xmlns="http://www.w3.org/2000/svg">
<path d="M14 12.3334V14.0001C14 14.3683 13.7015 14.6667 13.3333 14.6667H2.66667C2.29848 14.6667 2 14.3683 2 14.0001V12.3334C2 12.1493 2.14924 12.0001 2.33333 12.0001H3C3.18409 12.0001 3.33333 12.1493 3.33333 12.3334V13.3334H12.6667V12.3334C12.6667 12.1493 12.8159 12.0001 13 12.0001H13.6667C13.8508 12.0001 14 12.1493 14 12.3334ZM8.66667 9.35723L10.6736 7.35025C10.8038 7.22007 11.0149 7.22007 11.1451 7.35025L11.6165 7.82165C11.7466 7.95183 11.7466 8.16288 11.6165 8.29306L8.31663 11.5929C8.25154 11.658 8.16623 11.6905 8.08092 11.6905C7.99562 11.6905 7.91031 11.658 7.84522 11.5929L4.54539 8.29306C4.41521 8.16288 4.41521 7.95183 4.54539 7.82165L5.01679 7.35025C5.14697 7.22007 5.35802 7.22007 5.4882 7.35025L7.33334 9.19539V2.00008C7.33334 1.81599 7.48257 1.66675 7.66667 1.66675H8.33334C8.51743 1.66675 8.66667 1.81599 8.66667 2.00008V9.35723Z"/>
</svg>
