<svg width="16" height="16" viewBox="0 0 16 16" fill="none" xmlns="http://www.w3.org/2000/svg">
<path fill-rule="evenodd" clip-rule="evenodd" d="M8.00008 13.9993C11.3138 13.9993 14.0001 11.3131 14.0001 7.99935C14.0001 4.68564 11.3138 1.99935 8.00008 1.99935C4.68637 1.99935 2.00008 4.68564 2.00008 7.99935C2.00008 11.3131 4.68637 13.9993 8.00008 13.9993ZM8.00008 15.3327C3.94999 15.3327 0.666748 12.0494 0.666748 7.99935C0.666748 3.94926 3.94999 0.666016 8.00008 0.666016C12.0502 0.666016 15.3334 3.94926 15.3334 7.99935C15.3334 12.0494 12.0502 15.3327 8.00008 15.3327ZM7.66675 10.666H8.33341C8.51751 10.666 8.66675 10.8153 8.66675 10.9993V11.666C8.66675 11.8501 8.51751 11.9993 8.33341 11.9993H7.66675C7.48265 11.9993 7.33341 11.8501 7.33341 11.666V10.9993C7.33341 10.8153 7.48265 10.666 7.66675 10.666ZM5.36665 6.18716C5.37512 6.11264 5.3838 6.05066 5.39268 6.00119C5.52264 5.27747 5.85178 4.74524 6.38009 4.40449C6.79386 4.13439 7.30229 3.99935 7.9054 3.99935C8.69787 3.99935 9.3562 4.19126 9.88042 4.57508C10.4046 4.9589 10.6667 5.52751 10.6667 6.28094C10.6667 6.74295 10.5528 7.13209 10.3249 7.44839C10.1916 7.6403 9.93565 7.88552 9.55695 8.18405L9.18351 8.47724C8.98013 8.63717 8.84514 8.82374 8.77851 9.03698C8.76038 9.09517 8.74445 9.20335 8.73071 9.36151C8.71576 9.53379 8.57155 9.66601 8.39863 9.66601H7.65236C7.46826 9.66601 7.31903 9.51678 7.31903 9.33268C7.31903 9.32243 7.3195 9.31218 7.32044 9.30197C7.36337 8.83804 7.40933 8.54447 7.45833 8.42127C7.5495 8.19204 7.78443 7.92817 8.16313 7.62964L8.54709 7.32578C8.67332 7.22983 9.32379 6.77178 9.32379 6.36623C9.32379 5.96069 9.25314 5.81152 9.04952 5.58895C8.8459 5.36638 8.38755 5.29474 7.97378 5.29474C7.56703 5.29474 7.21945 5.40276 7.04938 5.67641C6.97061 5.80315 6.90621 5.93836 6.85975 6.07631C6.84148 6.13058 6.82528 6.19886 6.81118 6.28115C6.78373 6.44117 6.64499 6.55814 6.48264 6.55814H5.69786C5.51376 6.55815 5.36452 6.40891 5.36452 6.22481C5.36452 6.21223 5.36523 6.19966 5.36665 6.18716Z" fill="#646A73"/>
</svg>
