<svg width="16" height="16" viewBox="0 0 16 16" xmlns="http://www.w3.org/2000/svg">
<path d="M1.66683 13.9999C1.48273 13.9999 1.3335 13.8506 1.3335 13.6665V12.9999C1.3335 12.8158 1.48273 12.6665 1.66683 12.6665H14.3335C14.5176 12.6665 14.6668 12.8158 14.6668 12.9999V13.6665C14.6668 13.8506 14.5176 13.9999 14.3335 13.9999H1.66683Z"/>
<path d="M4.12772 6.36885L7.33349 9.57463V1.68856C7.33349 1.4922 7.49268 1.33301 7.68905 1.33301H8.31127C8.50764 1.33301 8.66683 1.4922 8.66683 1.68856V9.5902L11.8882 6.36885C12.027 6.23 12.2521 6.23 12.391 6.36886L12.831 6.80883C12.9698 6.94769 12.9698 7.17281 12.831 7.31166L8.3055 11.8371C8.22431 11.9183 8.11363 11.9521 8.00795 11.9383C7.90226 11.9521 7.79158 11.9183 7.71039 11.8371L3.18491 7.31166C3.04606 7.17281 3.04606 6.94769 3.18491 6.80883L3.62489 6.36886C3.76374 6.23 3.98887 6.23 4.12772 6.36885Z"/>
</svg>
