<svg t="1631072907294" class="icon" viewBox="0 0 1024 1024" version="1.1" xmlns="http://www.w3.org/2000/svg" p-id="3122" width="200" height="200"><path d="M512 51.2C257.504 51.2 51.2 257.504 51.2 512S257.504 972.8 512 972.8 972.8 766.496 972.8 512 766.496 51.2 512 51.2m0 42.624c230.592 0 418.176 187.584 418.176 418.176 0 230.592-187.584 418.176-418.176 418.176-230.592 0-418.176-187.584-418.176-418.176C93.824 281.408 281.408 93.824 512 93.824" p-id="3123"></path><path d="M757.92 598.88c-56.704 0-113.856-13.6-164.352-39.296-37.408-19.04-70.016-46.016-100.224-74.848-29.536-28.16-58.944-52.8-98.944-64.992-17.472-5.312-69.76-20.448-129.472 1.024a190.624 190.624 0 0 0-75.872 50.304A187.264 187.264 0 0 0 153.6 528.96c10.88 190.304 168.32 341.44 361.536 341.44 175.328 0 321.568-124.32 355.264-289.504a362.048 362.048 0 0 1-112.48 17.984" p-id="3124"></path></svg>
