<svg width="16" height="16" viewBox="0 0 16 16" fill="none" xmlns="http://www.w3.org/2000/svg">
<path d="M0 2C0 0.895431 0.895431 0 2 0H14C15.1046 0 16 0.895431 16 2V14C16 15.1046 15.1046 16 14 16H2C0.895431 16 0 15.1046 0 14V2Z" fill="#3370FF"/>
<path d="M11.5886 4.90283L12.3971 5.71133C12.4296 5.74383 12.4554 5.78242 12.473 5.82488C12.4906 5.86735 12.4996 5.91287 12.4996 5.95883C12.4996 6.0048 12.4906 6.05031 12.473 6.09278C12.4554 6.13524 12.4296 6.17383 12.3971 6.20633L7.17862 11.4248C7.14612 11.4573 7.10754 11.4831 7.06507 11.5007C7.0226 11.5183 6.97709 11.5274 6.93112 11.5274C6.88516 11.5274 6.83964 11.5183 6.79718 11.5007C6.75471 11.4831 6.71612 11.4573 6.68362 11.4248L3.70262 8.44383C3.67012 8.41133 3.64433 8.37275 3.62674 8.33028C3.60915 8.28781 3.6001 8.2423 3.6001 8.19633C3.6001 8.15037 3.60915 8.10485 3.62674 8.06239C3.64433 8.01992 3.67012 7.98133 3.70262 7.94883L4.51112 7.14083C4.54362 7.10833 4.58221 7.08254 4.62468 7.06495C4.66714 7.04736 4.71266 7.03831 4.75862 7.03831C4.80459 7.03831 4.8501 7.04736 4.89257 7.06495C4.93504 7.08254 4.97362 7.10833 5.00612 7.14083L6.93112 9.06533L11.0941 4.90233C11.1266 4.86983 11.1652 4.84404 11.2077 4.82645C11.2501 4.80886 11.2957 4.7998 11.3416 4.7998C11.3876 4.7998 11.4331 4.80886 11.4756 4.82645C11.518 4.84404 11.5561 4.87033 11.5886 4.90283Z" fill="white"/>
</svg>
