<svg width="20" height="20" viewBox="0 0 20 20" xmlns="http://www.w3.org/2000/svg">
<path d="M13.3333 2.49967H4.16667V17.4997H15.8333V5.01592H13.75C13.6395 5.01592 13.5335 4.97203 13.4554 4.89389C13.3772 4.81575 13.3333 4.70976 13.3333 4.59926V2.49967ZM3.33333 0.833008H14.2379C14.3474 0.832976 14.4558 0.854524 14.557 0.89642C14.6582 0.938316 14.7501 0.999737 14.8275 1.07717L17.2563 3.50676C17.4124 3.66307 17.5001 3.87499 17.5 4.09592V18.333C17.5 18.554 17.4122 18.766 17.2559 18.9223C17.0996 19.0785 16.8877 19.1663 16.6667 19.1663H3.33333C3.11232 19.1663 2.90036 19.0785 2.74408 18.9223C2.5878 18.766 2.5 18.554 2.5 18.333V1.66634C2.5 1.44533 2.5878 1.23337 2.74408 1.07709C2.90036 0.920805 3.11232 0.833008 3.33333 0.833008ZM6.66667 8.33301H13.3333C13.4438 8.33301 13.5498 8.37691 13.628 8.45505C13.7061 8.53319 13.75 8.63917 13.75 8.74967V9.58301C13.75 9.69351 13.7061 9.7995 13.628 9.87764C13.5498 9.95578 13.4438 9.99967 13.3333 9.99967H6.66667C6.55616 9.99967 6.45018 9.95578 6.37204 9.87764C6.2939 9.7995 6.25 9.69351 6.25 9.58301V8.74967C6.25 8.63917 6.2939 8.53319 6.37204 8.45505C6.45018 8.37691 6.55616 8.33301 6.66667 8.33301ZM6.66667 12.4997H10.4167C10.4714 12.4997 10.5256 12.5105 10.5761 12.5314C10.6267 12.5523 10.6726 12.583 10.7113 12.6217C10.75 12.6604 10.7807 12.7063 10.8016 12.7569C10.8226 12.8074 10.8333 12.8616 10.8333 12.9163V13.7497C10.8333 13.8044 10.8226 13.8586 10.8016 13.9091C10.7807 13.9597 10.75 14.0056 10.7113 14.0443C10.6726 14.083 10.6267 14.1137 10.5761 14.1346C10.5256 14.1556 10.4714 14.1663 10.4167 14.1663H6.66667C6.55616 14.1663 6.45018 14.1224 6.37204 14.0443C6.2939 13.9662 6.25 13.8602 6.25 13.7497V12.9163C6.25 12.8058 6.2939 12.6999 6.37204 12.6217C6.45018 12.5436 6.55616 12.4997 6.66667 12.4997Z"/>
</svg>
