<?xml version="1.0" standalone="no"?><!DOCTYPE svg PUBLIC "-//W3C//DTD SVG 1.1//EN" "http://www.w3.org/Graphics/SVG/1.1/DTD/svg11.dtd"><svg t="1625803255741" class="icon" viewBox="0 0 1024 1024" version="1.1" xmlns="http://www.w3.org/2000/svg" p-id="2522" xmlns:xlink="http://www.w3.org/1999/xlink" width="200" height="200"><defs><style type="text/css"></style></defs><path d="M692.8 557.8c-49.3 0-89.4 40-89.4 89.1s40.1 89.1 89.4 89.1c49.3 0 89.4-40 89.4-89.1 0-49.2-40-89.1-89.4-89.1zM693 681c-18.2-0.8-32.6-15.9-32.6-34.1 0-18.3 14.4-33.3 32.6-34.1 18.5 0.5 33.2 15.6 33.2 34.1S711.5 680.5 693 681z" p-id="2523"></path><path d="M955.1 593.9c-2.9-15.2-12.1-24.9-23.3-24.7h-2.3c-38.5 0-69.9-31-69.9-69.1 0-12.5 6-26.3 6.1-26.4 5.9-13.6 1.4-29.3-10.7-37.8l-0.7-0.5-67.3-36.8-0.7-0.3c-13-5.3-28-2.3-38.1 7.5-8.2 8.4-34 30.1-54.9 30.1-21.1 0-47.2-22.1-55.4-30.7-10-9.9-24.9-13-38.1-7.8l-0.7 0.3-69.6 37.8-0.7 0.5c-12.1 8.4-16.6 24.2-10.7 37.8 0.1 0.1 6.1 13.9 6.1 26.4 0 38.1-31.3 69.1-69.9 69.1H452c-11.2-0.2-20.4 9.5-23.3 24.7-0.2 1.1-5.6 29.6-5.6 52.1 0 22.4 5.4 50.8 5.6 52.1 2.8 15 11.9 24.7 22.9 24.7l0.4-0.1h2.3c38.5 0 69.9 31 69.9 69.1 0 12.5-6 26.3-6.1 26.4-5.9 13.6-1.4 29.3 10.6 37.8l0.6 0.5 66 36.4 0.7 0.3c13.1 5.4 28.3 2.3 38.2-7.9 7.8-8.4 34.6-32.1 56.2-32.1 21.7 0 48.2 23.5 56.6 32.6 6.6 6.9 15.8 10.8 25.4 10.7 4.3 0.1 8.7-0.8 12.7-2.5l0.7-0.3 68.4-37.4 0.7-0.5c12-8.5 16.5-24.3 10.7-37.8-0.1-0.1-6.1-13.9-6.1-26.4 0-38.1 31.3-69.1 69.9-69.1h2.3c11.2 0.3 20.4-9.5 23.3-24.6 0.2-1.1 5.6-29.6 5.6-52.1 0.1-22.3-5.2-50.4-5.5-52z m-62.2 92.2c-46.1 2.3-82.9 40-82.9 86 0 15.4 6.1 30.1 7.4 33.1l-55 29.9h-0.1c-0.6 0-1.3-0.2-1.8-0.5-1-1.1-9-9.4-20.5-17.9-17.1-12.6-33.4-18.9-48.4-18.9-14.8 0-31 6.2-48 18.5-11.4 8.2-19.3 16.5-20.3 17.6-0.5 0.3-1.1 0.4-1.7 0.4h-0.1l-53-29.2c1.3-3 7.4-17.8 7.4-33.2 0-45.9-36.8-83.6-82.9-86-0.7-3.6-4.3-23.8-4.3-39.1 0-15.2 3.6-35.5 4.3-39.1 46.1-2.4 82.9-40 82.9-86 0-15.3-6-30.1-7.4-33.1l56.1-30.3h0.2c0.7 0 1.4 0.2 2.1 0.5 6.2 6.2 12.9 11.8 20.1 16.9 16.8 11.8 32.7 17.7 47.3 17.7 14.4 0 30.2-5.9 46.8-17.4 7.2-5 13.9-10.5 20-16.6 0.6-0.4 1.3-0.5 2.1-0.5h0.2l54.1 29.6c-1.3 3.1-7.4 17.8-7.4 33.2 0 45.9 36.8 83.6 82.9 86 0.7 3.6 4.3 23.9 4.3 39.1s-3.8 35.7-4.4 39.3z" p-id="2524"></path><path d="M426 831.2H198.1c-30.8 0-67.3-35.9-67.3-66V348.6l248.4 168.9v-80.1L130.8 268.5v-30c0-30 14.3-43.9 44.9-43.9h672.5c30.6 0 44.6 13.9 44.6 43.9v9.5h0.2v111.5c0 18.4 15.1 33.5 33.5 33.5s33.5-15.1 33.5-33.5V248v-2.5-7.1c0-66.6-43.7-109.7-111.8-109.7H175.7c-68.1 0-112.1 43-112.1 109.7v526.8c0 66.5 66.6 131.8 134.5 131.8H426c18.1 0 32.9-14.8 32.9-32.9 0-18.1-14.8-32.9-32.9-32.9z" p-id="2525"></path></svg>