<svg width="125" height="125" viewBox="0 0 125 125" fill="none" xmlns="http://www.w3.org/2000/svg">
<rect width="125" height="125" rx="62.5" fill="#EBEBEB"/>
<path d="M82.625 48.1813H71.125V36.6252H42.375V88.3752H56.75V94.1252H39.5C38.7375 94.1252 38.0062 93.8223 37.4671 93.2831C36.9279 92.744 36.625 92.0127 36.625 91.2502V33.7502C36.625 32.9877 36.9279 32.2564 37.4671 31.7173C38.0062 31.1781 38.7375 30.8752 39.5 30.8752H75.4375L88.375 44.4294V56.7502H82.625V48.1813Z" fill="#BBBFC4"/>
<path d="M75.4375 91.25C78.4004 91.25 81.154 90.3536 83.4417 88.8172L88.8204 94.1958C89.3817 94.7572 90.2919 94.7572 90.8533 94.1958L93.2928 91.7563C93.8542 91.1949 93.8542 90.2847 93.2928 89.7233L87.7941 84.2247C89.0761 82.0741 89.8125 79.5605 89.8125 76.875C89.8125 68.9359 83.3766 62.5 75.4375 62.5C67.4984 62.5 61.0625 68.9359 61.0625 76.875C61.0625 84.8141 67.4984 91.25 75.4375 91.25ZM84.0625 76.875C84.0625 81.6384 80.201 85.5 75.4375 85.5C70.674 85.5 66.8125 81.6384 66.8125 76.875C66.8125 72.1115 70.674 68.25 75.4375 68.25C80.201 68.25 84.0625 72.1115 84.0625 76.875Z" fill="#BBBFC4"/>
</svg>
