<svg t="1665397084381" class="icon" viewBox="0 0 1024 1024" version="1.1" xmlns="http://www.w3.org/2000/svg" p-id="3560" data-darkreader-inline-fill="" width="200" height="200"><path d="M300.4928 595.6096a161.92 161.92 0 0 1 2.2016-176.3072L187.136 303.3088A285.3376 285.3376 0 0 0 102.4 505.8048a285.5936 285.5936 0 0 0 83.8912 202.8032l114.2016-112.9984z" p-id="3561" data-darkreader-inline-fill="" style="--darkreader-inline-fill:#4a5a75;"></path><path d="M116.8128 827.5968A404.5568 404.5568 0 0 0 405.4016 947.2V668.2112a163.9168 163.9168 0 0 1-82.0992-45.312l-206.4896 204.6976z" p-id="3562" data-darkreader-inline-fill="" style="--darkreader-inline-fill:#0954b8;"></path><path d="M443.392 671.104v192.512a278.3232 278.3232 0 0 0 197.7088-81.7152l-128.512-128.512a159.232 159.232 0 0 1-69.1968 17.7152z" p-id="3563" data-darkreader-inline-fill="" style="--darkreader-inline-fill:#62daaa;"></path><path d="M547.2 628.8128l153.4976 154.1888a367.9744 367.9744 0 0 0 110.4128-262.784h-211.712a161.536 161.536 0 0 1-52.1984 108.5952zM596.8896 479.3088h306.6112a429.0048 429.0048 0 0 0-124.8-303.0016A426.9568 426.9568 0 0 0 475.392 51.2v300.416a162.1248 162.1248 0 0 1 121.4976 127.6928z" p-id="3564" data-darkreader-inline-fill="" style="--darkreader-inline-fill:#4a5a75;"></path><path d="M327.0144 391.0144a160.1792 160.1792 0 0 1 106.7776-45.312V130.304a368.2048 368.2048 0 0 0-259.8912 107.52l153.088 153.1904z" p-id="3565" data-darkreader-inline-fill="" style="--darkreader-inline-fill:#0954b8;"></path></svg>
