<svg t="1638772679320" class="icon" viewBox="0 0 1024 1024" version="1.1" xmlns="http://www.w3.org/2000/svg" p-id="3731" width="200" height="200"><path d="M88.127 137.283h85.725v510.997h-42.862v-460.75h-68.99l26.127-50.247zM382.903 297.803h-41.81c2.093-52.686 16.717-94.347 43.902-126.217 27.185-31.869 61.663-47.795 101.39-47.795 38.673 0 71.087 14.706 96.174 44.118 26.127 30.632 39.726 68.617 38.673 112.73-1.053 29.412-8.365 58.82-21.955 84.56-14.638 26.968-36.59 58.82-64.795 95.58l-108.72 139.702h201.744v49.018h-296.856l166.203-210.776c29.263-36.76 50.175-66.172 62.722-88.232 12.541-20.84 18.815-45.337 18.815-72.288 0-28.192-9.41-52.69-27.18-73.526-18.819-20.84-40.77-31.869-66.897-31.869-28.22 0-51.215 11.030-70.028 31.869-17.793 22.055-28.242 53.919-31.379 93.123zM729.944 256.146h-44.947c8.352-41.678 24.048-74.764 46.004-96.803 22.99-22.058 50.17-34.308 81.531-34.308 34.497 0 63.76 12.249 88.848 37.985 24.035 25.731 36.576 56.38 36.576 93.145 0 44.113-18.819 79.642-56.448 104.157 25.087 12.267 44.96 30.632 59.598 55.148 13.572 24.498 20.898 51.453 20.898 79.642 0 45.337-13.585 84.56-41.81 116.42-28.22 33.093-63.756 49.018-106.618 49.018-37.628 0-68.99-12.254-94.077-37.998-25.088-25.735-40.77-62.5-49.122-111.51h42.862c7.313 34.304 19.853 58.824 35.532 74.745 15.678 15.925 37.634 24.512 65.858 24.512 30.303 0 55.403-11.030 75.263-33.088 19.859-22.055 29.268-47.79 29.268-78.426 0-34.304-10.449-61.277-32.4-80.879-21.951-19.602-53.312-30.632-95.135-30.632v-46.553c30.316 0 54.351-8.59 73.165-24.517 18.819-15.93 28.224-36.765 28.224-61.263 0-23.292-7.313-42.894-22.99-58.82-15.678-15.926-34.497-23.279-56.448-23.279-19.872 0-36.59 7.353-50.175 20.84-13.604 14.67-24.057 34.272-33.457 62.465z" p-id="3732"></path><path d="M62 837.203h900v63h-900z" p-id="3733"></path></svg>
