<?xml version="1.0" standalone="no"?><!DOCTYPE svg PUBLIC "-//W3C//DTD SVG 1.1//EN" "http://www.w3.org/Graphics/SVG/1.1/DTD/svg11.dtd"><svg t="1700022592729" class="icon" viewBox="0 0 1024 1024" version="1.1" xmlns="http://www.w3.org/2000/svg" p-id="1436" xmlns:xlink="http://www.w3.org/1999/xlink" width="200" height="200"><path d="M797.866667 490.666667L571.733333 266.666667 533.333333 228.266667c-6.4-6.4-14.933333-8.533333-23.466666-8.533334-8.533333 0-17.066667 2.133333-23.466667 8.533334L448 266.666667 226.133333 490.666667c-8.533333 8.533333-8.533333 21.333333 0 29.866666l29.866667 29.866667c8.533333 8.533333 21.333333 8.533333 29.866667 0l183.466666-183.466667V874.666667c0 10.666667 8.533333 21.333333 21.333334 21.333333h42.666666c10.666667 0 21.333333-8.533333 21.333334-21.333333V369.066667l183.466666 183.466666c8.533333 8.533333 21.333333 8.533333 29.866667 0l29.866667-29.866666c8.533333-8.533333 8.533333-23.466667 0-32zM874.666667 215.466667H149.333333c-10.666667 0-21.333333-8.533333-21.333333-21.333334v-42.666666c0-10.666667 8.533333-21.333333 21.333333-21.333334h725.333334c10.666667 0 21.333333 8.533333 21.333333 21.333334v42.666666c0 12.8-8.533333 21.333333-21.333333 21.333334z" fill="#297AFF" p-id="1437"></path></svg>