<svg width="160" height="190" viewBox="0 0 160 190" fill="none" xmlns="http://www.w3.org/2000/svg">
<g opacity="0.9">
<path d="M64.7415 83.2426C65.0559 83.2302 65.3703 83.2666 65.6735 83.3507L132.113 102.287C133.774 102.76 134.72 104.624 134.652 106.947L122.186 103.395H121.956H121.591L121.308 103.287C120.82 103.371 120.358 103.565 119.957 103.854C119.822 103.936 119.696 104.031 119.579 104.137L119.268 104.421C118.975 104.723 118.713 105.054 118.485 105.407L115.527 110.04C115.031 110.857 114.315 111.517 113.46 111.944C113.14 112.087 112.797 112.169 112.447 112.187H112.137H111.839L71.4949 100.585C71.2936 100.553 71.0884 100.553 70.8871 100.585H70.617C69.9876 100.746 69.3995 101.038 68.8918 101.443C68.3842 101.849 67.9685 102.357 67.6725 102.935C67.578 103.111 67.4834 103.273 67.4024 103.462C67.2917 103.671 67.1969 103.888 67.1187 104.11L41.0508 138.526C41.1523 137.984 41.2968 137.451 41.483 136.932L59.0417 88.6318C60.1358 85.4982 62.5535 83.2831 64.7415 83.2426Z" fill="#BC770A"/>
<g opacity="0.9">
<path d="M138.405 82.7308L110.567 136.393L61.7812 111.081L89.6186 57.3652L138.405 82.7308ZM113.62 123.994L115.727 119.942L119.063 113.513L134.096 84.5272L90.7802 62.0521L73.5591 95.184L70.304 101.465L80.6906 106.867L113.62 123.994Z" fill="white"/>
<path d="M112.499 128.112L114.849 123.574L118.577 116.389L135.379 84.0129L90.3345 60.6328L71.1009 97.7357L67.4541 104.746L78.2595 110.351L112.499 128.112Z" fill="#FBFBFF"/>
<path d="M76.6533 103.29L106.449 118.728L107.975 115.783L108.273 115.23L100.06 110.975L78.6253 99.8184L76.6533 103.29Z" fill="#CCCCCC"/>
<path d="M112.229 108.338L108.447 106.38L82.5273 92.873L80.3662 96.709L110.27 112.296C110.918 110.972 111.567 109.648 112.229 108.338Z" fill="#D8D8D8"/>
<path d="M115.309 102.249L107.556 98.1967L85.8507 86.9727L83.9463 90.4169L113.526 105.76L115.309 102.249Z" fill="#D8D8D8"/>
<path d="M87.5391 83.8903L120.185 100.828C120.874 99.477 121.535 98.2209 122.224 96.9107L115.903 93.6421L89.6461 80.0273L87.5391 83.8903Z" fill="#D8D8D8"/>
</g>
<path d="M69.6975 104.135C69.603 104.297 69.5084 104.473 69.4274 104.648L67.4014 103.406C67.4824 103.217 67.577 103.054 67.6715 102.879L69.6975 104.135Z" fill="#F1C270"/>
<path d="M69.4268 104.639C69.3186 104.849 69.2238 105.065 69.1432 105.287L67.1172 104.045C67.1953 103.822 67.2901 103.605 67.4008 103.396L69.4268 104.639Z" fill="#F1C270"/>
<path d="M67.1187 104.057L69.1447 105.299L43.0768 139.768L41.0508 138.526L67.1187 104.057Z" fill="#F1C270"/>
<path d="M72.6832 101.788C72.0516 101.944 71.4614 102.234 70.953 102.64C70.4447 103.046 70.0304 103.557 69.7387 104.138L68.6312 103.517L68.361 103.355L68.1044 103.193L67.8478 103.031L67.6182 102.882C67.9259 102.308 68.3526 101.806 68.8696 101.41C69.3867 101.015 69.9823 100.733 70.6167 100.586L72.6832 101.788Z" fill="#F1C270"/>
<path d="M72.9114 101.76H72.6412L72.3981 101.612L72.155 101.45L71.8849 101.301L71.6282 101.125L71.3311 100.99L71.0745 100.842L70.8178 100.68L70.6152 100.585H70.8854L72.8979 101.828L72.6818 101.612L72.4251 101.463L72.1685 101.301L71.8984 101.139L71.6417 100.977L71.3311 100.815L71.0745 100.653L70.8448 100.518L72.8709 101.76H72.9114Z" fill="#F1C270"/>
<path d="M73.5181 101.842C73.3192 101.792 73.1153 101.765 72.9103 101.761L72.6807 101.612L72.4375 101.464L72.1674 101.301L71.9108 101.139L71.6406 100.977L71.33 100.815L71.0734 100.653L70.8438 100.518C71.0451 100.486 71.2502 100.486 71.4516 100.518L73.5181 101.842Z" fill="#F1C270"/>
<path d="M111.853 112.094L113.866 113.35L73.5211 101.842L71.4951 100.586L111.853 112.094Z" fill="#F1C270"/>
<path d="M114.161 113.404H113.864L111.852 112.094H112.149L114.161 113.404Z" fill="#F1C270"/>
<path d="M113.676 113.108L113.932 113.256L112.136 112.162L113.676 113.108Z" fill="#F1C270"/>
<path d="M114.162 113.405H114.094H114.027L113.838 113.283L113.635 113.162L113.081 112.743L112.892 112.621L112.69 112.5L112.5 112.378L112.311 112.27L112.136 112.162H112.446L114.472 113.405H114.162Z" fill="#F1C270"/>
<path d="M115.484 113.174C115.167 113.323 114.822 113.406 114.471 113.417L112.445 112.175C112.795 112.157 113.138 112.074 113.458 111.932L115.484 113.174Z" fill="#F1C270"/>
<path d="M117.551 111.268C117.063 112.092 116.344 112.754 115.484 113.173L113.458 111.93C114.311 111.506 115.027 110.851 115.525 110.039L117.551 111.268Z" fill="#F1C270"/>
<path d="M118.456 105.461L120.482 106.704L117.551 111.269L115.525 110.026L118.456 105.461Z" fill="#F1C270"/>
<path d="M121.307 105.729C121.012 106.029 120.749 106.359 120.524 106.715L118.498 105.459C118.73 105.108 118.992 104.778 119.281 104.473L121.307 105.716L119.281 104.473L119.592 104.189L121.618 105.446C121.508 105.533 121.404 105.627 121.307 105.729V105.729Z" fill="#F1C270"/>
<path d="M121.955 105.149L121.577 105.446L119.551 104.19C119.668 104.084 119.794 103.989 119.929 103.906L121.955 105.149Z" fill="#F1C270"/>
<path d="M123.265 104.638C122.778 104.717 122.316 104.906 121.914 105.192L121.671 105.043L121.414 104.894L121.198 104.638L120.942 104.476L120.672 104.314L120.415 104.152L120.158 103.989L119.929 103.854C120.338 103.561 120.809 103.367 121.306 103.287L123.265 104.638Z" fill="#F1C270"/>
<path d="M123.562 104.638C123.464 104.624 123.364 104.624 123.265 104.638L123.035 104.489L122.779 104.327L122.522 104.165L122.252 104.003L121.982 103.841L121.725 103.679L121.482 103.53L121.307 103.287H121.604L123.63 104.53L123.387 104.395L123.144 104.233L122.887 104.071L122.617 103.908L122.36 103.746L122.09 103.584L121.847 103.436L121.536 103.287H121.901L123.927 104.53C123.802 104.552 123.679 104.588 123.562 104.638V104.638Z" fill="#F1C270"/>
<path d="M124.156 104.638H123.926L123.697 104.503L123.44 104.341L123.184 104.179L122.913 104.016L122.657 103.8L122.387 103.638L122.144 103.49L121.9 103.287H122.13L124.156 104.638Z" fill="#F1C270"/>
<path d="M134.598 106.949L136.624 108.205L124.157 104.639L122.131 103.396L134.598 106.949Z" fill="#F1C270"/>
<path d="M107.746 120.035L32 116.158L36.5112 28L97.8722 31.1471L111.528 46.2746L107.746 120.035Z" fill="white"/>
<path d="M49.6396 56.1357L49.9367 50.1793L45.1284 49.9362L44.8177 55.8926L42.0488 55.744L42.7647 41.5215L45.5471 41.6566L45.2499 47.4779L50.0718 47.7211L50.369 41.9132L53.1378 42.0482L52.422 56.2843L49.6396 56.1357Z" fill="#8F959E"/>
<path d="M55.7314 56.4472L56.4743 42.2246L65.848 42.6973L65.7129 45.2096L59.1757 44.8449L59.0136 48.1811L64.6189 48.4647L64.4973 50.9364L58.811 50.6123L58.6354 54.07L65.2267 54.4077L65.1051 56.8929L55.7314 56.4472Z" fill="#8F959E"/>
<path d="M67.8203 57.0661L68.5497 42.8301L71.3321 42.9787L70.7243 54.7295L77.1805 55.0537L77.0589 57.5389L67.8203 57.0661Z" fill="#8F959E"/>
<path d="M89.6196 50.0851C89.3808 50.598 89.0408 51.0574 88.6201 51.4358C88.1759 51.8285 87.6567 52.1271 87.0938 52.3137C86.4563 52.5334 85.7807 52.6207 85.1084 52.5703L82.407 52.4353L82.1369 57.8379L79.3545 57.7029L80.0839 43.4668L85.5946 43.7504C86.2693 43.7772 86.9332 43.9283 87.5531 44.1962C88.061 44.4427 88.5154 44.7869 88.8902 45.2092C89.2771 45.6349 89.5714 46.1362 89.7547 46.6814C90.121 47.803 90.0584 49.0205 89.5791 50.0986L89.6196 50.0851ZM86.7697 46.803C86.5772 46.604 86.3462 46.4463 86.0907 46.3394C85.8353 46.2326 85.5608 46.1789 85.2839 46.1816L82.6907 46.0466L82.488 49.95L85.0948 50.0716C85.3662 50.1048 85.6415 50.0825 85.9039 50.0058C86.1663 49.9292 86.4103 49.7999 86.6211 49.6259C86.9941 49.259 87.2163 48.7657 87.2438 48.2433C87.2713 47.7208 87.1021 47.207 86.7697 46.803V46.803Z" fill="#8F959E"/>
<path d="M100.414 64.3116L40.9404 61.2676L40.7292 65.3952L100.202 68.4392L100.414 64.3116Z" fill="#DEE0E3"/>
<path d="M99.8697 74.9717L40.3965 71.9277L40.1852 76.0554L99.6585 79.0994L99.8697 74.9717Z" fill="#DEE0E3"/>
<path d="M99.3394 85.6358L39.8662 82.5918L39.6549 86.7194L99.1282 89.7634L99.3394 85.6358Z" fill="#DEE0E3"/>
<path d="M98.7808 96.3213L39.3076 93.2773L39.0964 97.405L98.5696 100.449L98.7808 96.3213Z" fill="#DEE0E3"/>
<path d="M98.2359 106.989L38.7627 103.945L38.5514 108.073L98.0247 111.117L98.2359 106.989Z" fill="#DEE0E3"/>
<path d="M111.527 46.276L97.1289 45.5331L97.8718 31.1484L111.527 46.276Z" fill="#DEE0E3"/>
<path d="M70.8846 100.586C71.0324 100.565 71.1826 100.565 71.3304 100.586L111.85 112.135H112.148C112.61 112.162 113.072 112.084 113.498 111.905C114.333 111.483 115.034 110.838 115.524 110.041L118.455 105.476C118.68 105.124 118.943 104.798 119.239 104.503L119.549 104.206C119.666 104.1 119.793 104.005 119.928 103.923C120.33 103.605 120.802 103.388 121.305 103.288H121.602H121.967L134.663 106.894L144.267 109.717C145.82 110.163 146.387 112.418 145.617 114.741L115.794 160.232C115.052 162.312 113.458 163.784 112.013 163.811C111.816 163.845 111.615 163.845 111.418 163.811L42.2369 144.01C41.6014 143.266 41.1603 142.375 40.9529 141.418C40.7455 140.461 40.7783 139.468 41.0483 138.527L67.1163 104.058C67.1944 103.835 67.2892 103.618 67.3999 103.409C67.481 103.22 67.5755 103.058 67.6701 102.883C67.972 102.314 68.3903 101.816 68.8976 101.421C69.4049 101.025 69.99 100.741 70.6145 100.586H70.8846Z" fill="#F4C04C"/>
</g>
</svg>
