<svg width="64" height="64" viewBox="0 0 64 64" fill="none" xmlns="http://www.w3.org/2000/svg">
<path d="M32.0679 1.13275L58.8743 16.606V47.5582L32.0679 63.0344L5.26156 47.5469V16.5947L32.0679 1.13275ZM32.0679 0.283188L4.53094 16.1728V47.9688L32.0679 63.8697L59.6049 47.9688V16.1728L32.0679 0.283188Z" fill="#426DF2"/>
<path d="M32.068 10.5458L50.7129 21.3069V42.829L32.068 53.5901L13.4259 42.829V21.3069L32.068 10.5458ZM32.068 4.7632L8.41913 18.4071V45.7147L32.068 59.3699L55.7197 45.7147V18.4071L32.068 4.75186V4.7632Z" fill="#426DF2"/>
<path d="M20.6301 32.354C20.1514 32.3538 19.6862 32.1958 19.3064 31.9044C18.9267 31.6129 18.6538 31.2044 18.5299 30.742C18.406 30.2797 18.4381 29.7894 18.6212 29.3471C18.8043 28.9049 19.1282 28.5353 19.5427 28.2959L27.2481 23.8499C27.747 23.5721 28.335 23.5017 28.8853 23.6537C29.4357 23.8057 29.9042 24.168 30.1897 24.6625C30.4752 25.1569 30.5548 25.7437 30.4114 26.2964C30.2679 26.849 29.9129 27.3231 29.423 27.6163L21.7147 32.0623C21.3852 32.2534 21.011 32.354 20.6301 32.354Z" fill="#00BFFF"/>
<path d="M34.2626 24.4927C33.7831 24.4937 33.3166 24.3361 32.9359 24.0445C32.5551 23.7529 32.2814 23.3437 32.1574 22.8804C32.0333 22.4172 32.0659 21.9259 32.25 21.483C32.434 21.0402 32.7593 20.6706 33.1752 20.4318L36.0071 18.8063C36.2548 18.6534 36.5306 18.5518 36.8183 18.5075C37.106 18.4632 37.3996 18.4771 37.6819 18.5484C37.9641 18.6196 38.2291 18.7468 38.4613 18.9224C38.6934 19.098 38.888 19.3184 39.0334 19.5706C39.1788 19.8227 39.2721 20.1015 39.3078 20.3904C39.3435 20.6793 39.3209 20.9724 39.2412 21.2523C39.1615 21.5323 39.0265 21.7934 38.844 22.0202C38.6616 22.247 38.4355 22.4349 38.1791 22.5727L35.3472 24.201C35.0172 24.3909 34.6434 24.4915 34.2626 24.4927Z" fill="#00BFFF"/>
<path d="M23.8442 38.9919C23.3653 38.9924 22.8996 38.8348 22.5194 38.5436C22.1392 38.2524 21.8658 37.8438 21.7415 37.3813C21.6173 36.9188 21.6492 36.4282 21.8322 35.9857C22.0153 35.5432 22.3393 35.1734 22.754 34.9339L22.8276 34.8913C23.0751 34.7392 23.3505 34.6381 23.6377 34.5941C23.9248 34.5501 24.2179 34.5642 24.4996 34.6353C24.7812 34.7065 25.0458 34.8333 25.2776 35.0084C25.5094 35.1835 25.7038 35.4032 25.8493 35.6547C25.9948 35.9061 26.0885 36.1842 26.1247 36.4724C26.161 36.7607 26.1392 37.0533 26.0605 37.3329C25.9818 37.6126 25.8479 37.8736 25.6667 38.1007C25.4854 38.3277 25.2606 38.5162 25.0053 38.6549L24.9317 38.6973C24.6015 38.8897 24.2263 38.9913 23.8442 38.9919Z" fill="#00BFFF"/>
<path d="M29.7712 35.6333C29.2936 35.6329 28.8295 35.4753 28.4503 35.1849C28.0712 34.8944 27.7982 34.4872 27.6736 34.0262C27.5489 33.5652 27.5794 33.0759 27.7605 32.6339C27.9415 32.192 28.263 31.8219 28.6753 31.5809L39.2013 25.4471C39.4483 25.2969 39.7228 25.1975 40.0086 25.1546C40.2945 25.1117 40.586 25.1262 40.8662 25.1973C41.1464 25.2684 41.4096 25.3947 41.6404 25.5687C41.8712 25.7427 42.065 25.9609 42.2105 26.2107C42.356 26.4604 42.4503 26.7367 42.4878 27.0233C42.5252 27.3099 42.5052 27.6012 42.4289 27.88C42.3525 28.1588 42.2213 28.4195 42.043 28.647C41.8647 28.8745 41.6428 29.0642 41.3904 29.2049L30.8643 35.3359C30.5327 35.5301 30.1555 35.6328 29.7712 35.6333Z" fill="#00BFFF"/>
<path d="M27.067 45.6297C26.5874 45.6307 26.1209 45.4732 25.7402 45.1816C25.3595 44.89 25.0858 44.4807 24.9617 44.0174C24.8377 43.5542 24.8702 43.0629 25.0543 42.6201C25.2384 42.1773 25.5636 41.8077 25.9795 41.5689L42.4326 32.0822C42.9308 31.8144 43.5136 31.7512 44.0576 31.906C44.6016 32.0608 45.0638 32.4214 45.3464 32.9113C45.6289 33.4012 45.7095 33.982 45.571 34.5303C45.4325 35.0786 45.0859 35.5515 44.6047 35.8485L28.1431 45.3381C27.8156 45.5266 27.4448 45.627 27.067 45.6297Z" fill="#426DF2"/>
</svg>
