<svg width="16" height="16" viewBox="0 0 16 16" fill="none" xmlns="http://www.w3.org/2000/svg">
<path d="M7.98994 12.333C10.1486 12.333 12.1472 10.9599 14.0001 7.99101C12.1949 5.03272 10.2008 3.66634 7.98994 3.66634C5.77984 3.66634 3.7929 5.0321 2.00009 7.99099C3.84053 10.9605 5.83206 12.333 7.98994 12.333ZM1.00172 8.59304C0.787049 8.22763 0.785596 7.77336 0.995302 7.40508C1.00277 7.39196 1.00993 7.37945 1.01672 7.36768C2.9521 4.01123 5.27627 2.33301 7.98923 2.33301C10.7133 2.33301 13.0518 4.02495 15.0049 7.40884C15.0107 7.41898 15.0168 7.42969 15.0232 7.44089C15.2208 7.7869 15.2193 8.21401 15.0172 8.55738C13.0127 11.9634 10.67 13.6663 7.98923 13.6663C5.31784 13.6663 2.98867 11.9752 1.00172 8.59304ZM8.00009 10.6663C6.52733 10.6663 5.33342 9.47243 5.33342 7.99967C5.33342 6.52692 6.52733 5.33301 8.00009 5.33301C9.47285 5.33301 10.6668 6.52692 10.6668 7.99967C10.6668 9.47243 9.47285 10.6663 8.00009 10.6663ZM8.00009 9.33301C8.73647 9.33301 9.33342 8.73605 9.33342 7.99967C9.33342 7.26329 8.73647 6.66634 8.00009 6.66634C7.26371 6.66634 6.66675 7.26329 6.66675 7.99967C6.66675 8.73605 7.26371 9.33301 8.00009 9.33301Z" fill="#BBBFC4"/>
</svg>
