<svg xmlns="http://www.w3.org/2000/svg" viewBox="0 0 64 64"><defs><style>.cls-1{isolation:isolate;}.cls-2{fill:#f2f4f5;}.cls-3{fill:#0a7be0;}.cls-4{fill:#53baf9;}.cls-5,.cls-6{fill:#a2a2ba;}.cls-6{mix-blend-mode:multiply;}.cls-7{fill:#fff;}</style></defs><title>【icon】人大金仓</title><g class="cls-1"><g id="图层_1" data-name="图层 1"><circle class="cls-2" cx="32" cy="32" r="32"/><path class="cls-3" d="M25.76,44.82l6.79-11.56H44.4V12.36A2.36,2.36,0,0,0,42,10H13.87a2.58,2.58,0,0,0-2.58,2.57V44.7A3.68,3.68,0,0,0,15,48.37H27.84Z"/><path class="cls-4" d="M25.76,44.82,27,42.73H14.11a2.83,2.83,0,0,0-2.82,2.82h0a2.83,2.83,0,0,0,2.82,2.82H27.84Z"/><polygon class="cls-5" points="33.96 54 28.57 44.82 33.96 35.64 52.71 35.64 52.71 54 33.96 54"/><polygon class="cls-6" points="33.96 54 28.57 44.82 52.71 44.75 52.71 54 33.96 54"/><polygon class="cls-7" points="20.76 13.76 20.76 20.14 16.48 22.22 20.76 24.36 20.76 30.81 24.3 30.81 24.3 26.01 34.36 30.81 34.36 27.03 24.3 22.33 34.49 17.4 34.49 13.64 24.3 18.59 24.3 13.76 20.76 13.76"/><path class="cls-7" d="M42.9,43.06c-3,0-5.5-.76-5.5-1.7v3.39c0,.93,2.47,1.69,5.5,1.69s5.5-.76,5.5-1.69V41.36c0,.94-2.46,1.7-5.5,1.7Zm0,0"/><path class="cls-7" d="M42.9,47.29c-3,0-5.5-.76-5.5-1.7V49c0,.93,2.47,1.69,5.5,1.69s5.5-.76,5.5-1.69V45.59c0,.94-2.46,1.7-5.5,1.7Z"/><path class="cls-7" d="M42.9,42.21c3,0,5.5-.76,5.5-1.69s-2.46-1.69-5.5-1.69-5.5.75-5.5,1.69,2.47,1.69,5.5,1.69Z"/></g></g></svg>