<?xml version="1.0" encoding="UTF-8" standalone="no"?>
<svg width="17px" height="15px" viewBox="0 0 17 15" version="1.1" xmlns="http://www.w3.org/2000/svg" xmlns:xlink="http://www.w3.org/1999/xlink">
    <!-- Generator: Sketch 3.6.1 (26313) - http://www.bohemiancoding.com/sketch -->
    <title>set_as_An_Input_of_hover</title>
    <desc>Created with Sketch.</desc>
    <defs></defs>
    <g id="specification" stroke="none" stroke-width="1" fill="none" fill-rule="evenodd">
        <g id="spec" transform="translate(-1022.000000, -425.000000)">
            <g id="set_as_An_Input_of_hover" transform="translate(1022.000000, 425.000000)">
                <path d="M8.02735411,12 L1.2,12 C0.54,12 0,11.325 0,10.5 L0,1.5 C0,0.675 0.54,0 1.2,0 L4.8,0 L6,1.5 L10.8,1.5 C11.46,1.5 12,2.175 12,3 L12,4.06199326 C11.7371621,4.02226326 11.4413159,4 11.1074535,4 C8.64462262,4 8.86645224,6.01872326 8.86645224,6.01872326 C8.86645224,6.01872326 8.71980533,7.62066476 10.928379,7.98197823 C10.916351,8.02254685 10.928379,8.88655732 10.928379,8.88655732 C10.928379,8.88655732 10.2087084,8.75443874 9.48290499,8.9226001 C9.45716165,8.65508805 9.34185421,8.39456851 9.13698266,8.18969696 C8.82290746,7.87562176 8.37804857,7.77203972 7.97770841,7.87895085 L5.59821086,5.49945329 C5.91779999,4.8303347 5.80049302,4.00467918 5.24628993,3.45047609 C4.69205827,2.89624443 3.86634617,2.77895394 3.19720923,3.09860461 L4.60983647,4.51123186 L3.76123186,5.35983647 L2.34860461,3.94720923 C2.02895394,4.61634617 2.14624443,5.44205827 2.70047609,5.99628993 C3.25473633,6.55055017 4.080505,6.66782418 4.7496603,6.34811196 L4.7496603,6.34811196 L7.12914804,8.72759971 C7.02228997,9.12790857 7.12588275,9.5727096 7.43992639,9.88675324 C7.61810674,10.0649336 7.83837972,10.1753669 8.06873672,10.2180532 C8.02439679,10.3963833 8,10.5971043 8,10.822915 C8,11.3292501 8.00664532,11.7077247 8.02735411,12 Z M8.8788132,9.14875232 C8.91405142,8.96068711 8.8582958,8.75953823 8.71271859,8.61396103 C8.47677042,8.37801286 8.09848791,8.37966358 7.86415222,8.61399927 C7.62818278,8.84996871 7.62979941,9.22825107 7.86411398,9.46256564 C7.99202573,9.59047739 8.16176839,9.64856075 8.32773047,9.63759862 C8.47754374,9.42431979 8.66853733,9.26579437 8.8788132,9.14875232 Z" id="Combined-Shape" fill="#000000"></path>
                <g id="Group-2" transform="translate(13.000000, 10.000000) rotate(-270.000000) translate(-13.000000, -10.000000) translate(9.000000, 7.000000)" stroke="#000000" stroke-width="2" stroke-linecap="round" stroke-linejoin="round">
                    <path d="M8,0 L5,3 L8,6" id="Shape" transform="translate(6.500000, 3.000000) scale(-1, 1) translate(-6.500000, -3.000000) "></path>
                    <path d="M0,3 L4.2,3 C5.1942,3 6,3.89533333 6,5" id="Shape" transform="translate(3.000000, 4.000000) scale(-1, 1) translate(-3.000000, -4.000000) "></path>
                </g>
            </g>
        </g>
    </g>
</svg>