<svg t="1629878140490" class="icon" viewBox="0 0 1027 1024" version="1.1" xmlns="http://www.w3.org/2000/svg" p-id="7553" width="200" height="200"><path d="M892.8 854.4c-3.2 0 0-6.4-6.4-6.4v-3.2h-6.4s0-3.2-3.2-3.2-3.2-3.2-3.2-3.2l-3.2-3.2c0-3.2 3.2-6.4 3.2-12.8 0 0 0-3.2-3.2-3.2 0-6.4 3.2-12.8 6.4-19.2v-9.6l3.2-3.2v-6.4c0-3.2 6.4-3.2 6.4-6.4 3.2 0 3.2 0 6.4-3.2h6.4s3.2 3.2 6.4 3.2c3.2 12.8 0 28.8 0 44.8-3.2 6.4 0 16-6.4 22.4-3.2 3.2 0 6.4 0 12.8 0 3.2 0 3.2-3.2 6.4 0-6.4 0-6.4-3.2-6.4zM646.4 960s-3.2-3.2-6.4-3.2h-6.4l-3.2-3.2v-6.4-9.6s3.2-3.2 3.2-6.4c3.2-3.2 9.6-9.6 16-12.8 3.2 0 6.4 0 9.6-3.2 3.2 0 3.2 3.2 6.4 3.2h3.2v-3.2s-3.2 0-6.4-3.2l-3.2-3.2c0-3.2-3.2-6.4-3.2-9.6l-6.4-3.2v-6.4H643.2l-3.2-3.2c-3.2 0-6.4-3.2-12.8 0-3.2 0-3.2 3.2-6.4 3.2H611.2c-3.2 0-6.4-3.2-12.8-6.4h-9.6l-9.6-9.6s0-3.2-3.2-6.4v-12.8h-3.2-6.4c-6.4-3.2-12.8-6.4-16-9.6 0 3.2-3.2 3.2-6.4 6.4 0 3.2-6.4 3.2-6.4 6.4-3.2 3.2-6.4 0-9.6 0-3.2 0-3.2 3.2-6.4 3.2-6.4-3.2-16 0-22.4-3.2-3.2 0-3.2 0-6.4 3.2v3.2H483.2h-3.2c0 6.4 3.2 16 0 25.6-3.2 0-3.2 3.2-6.4 3.2h-6.4c-3.2 0-3.2-3.2-6.4-6.4 0-3.2 0-3.2-3.2-6.4-3.2 0-3.2 3.2-6.4 3.2h-6.4c0-3.2-3.2-3.2-3.2-3.2s0-3.2-3.2-3.2c0 0-3.2 0-3.2-3.2 0 0-3.2-3.2-6.4-3.2l-3.2-3.2s-3.2-3.2-3.2-6.4v-9.6c3.2 0 0-3.2 3.2-6.4 0-3.2-3.2-3.2-6.4-3.2 0-3.2-3.2-3.2-6.4-6.4v-12.8c-3.2-3.2-12.8 0-19.2 0h-3.2c0-6.4-3.2-12.8 0-22.4 0-3.2 3.2-3.2 6.4-6.4v-3.2c3.2-3.2 3.2-6.4 9.6-9.6 3.2-3.2 3.2-6.4 6.4-6.4V768c0-3.2 3.2-3.2 3.2-6.4v-9.6c3.2-6.4 0-6.4 0-9.6l-3.2-3.2h-3.2c-3.2-6.4-6.4-12.8-6.4-16h-3.2s-3.2 6.4-6.4 6.4c-3.2 3.2-9.6 0-12.8 0-6.4-3.2-9.6-6.4-16-9.6h-6.4l-3.2 3.2c-3.2 0-3.2 3.2-6.4 3.2h-6.4c-3.2 0-3.2 3.2-9.6 6.4-3.2 3.2-9.6 3.2-12.8 6.4-3.2 0-3.2 3.2-6.4 3.2h3.2c-3.2 0-3.2 3.2-6.4 3.2H291.2l-3.2-3.2v-9.6c-3.2-3.2-6.4-6.4-9.6-6.4 0-3.2-3.2-3.2-6.4-6.4v-3.2l-3.2-12.8-3.2-3.2c-3.2-3.2-6.4-3.2-12.8-3.2l-3.2-3.2h-6.4c-3.2 3.2-6.4 3.2-6.4 6.4s-3.2 3.2-3.2 6.4c0 0-3.2 0-6.4 3.2 0 0-3.2 0-6.4-3.2s0-12.8-3.2-16c-3.2 0-3.2 3.2-9.6 3.2-3.2 0-3.2-3.2-6.4-3.2h-3.2l-6.4-3.2c-3.2 0-9.6-3.2-16-6.4-3.2 0-3.2-3.2-6.4-3.2h-12.8c0-3.2-3.2-3.2-3.2-6.4-3.2 0-6.4-3.2-9.6-3.2 0 0 0-3.2-3.2-3.2v-3.2c-3.2 0-3.2 0-6.4-3.2l-3.2-3.2-3.2-3.2V640h-3.2c-3.2 0-6.4 0-9.6-3.2-6.4-12.8-12.8-22.4-25.6-28.8h-6.4c-3.2 0-3.2 3.2-6.4 6.4 0 0-3.2 0-6.4-3.2-3.2-6.4-6.4-9.6-9.6-12.8-3.2-3.2-3.2-6.4-3.2-9.6-3.2-3.2-6.4-6.4-9.6-12.8h-3.2c0-3.2-3.2-6.4-6.4-6.4-3.2-9.6 0-19.2 0-28.8v-6.4c3.2 0 3.2-3.2 6.4-3.2s3.2 3.2 6.4 3.2l3.2-3.2c0-9.6-3.2-16-3.2-25.6 0-3.2 3.2-3.2 3.2-9.6-3.2-9.6-6.4-16-6.4-25.6 0-3.2-3.2 0-6.4-3.2h3.2c-6.4-3.2-9.6-9.6-12.8-12.8-3.2 0-3.2-3.2-6.4-3.2-3.2-6.4 0-16-3.2-25.6-3.2 0-3.2-6.4-6.4-6.4s-6.4-3.2-9.6-6.4v-6.4c3.2-3.2 6.4-3.2 9.6-3.2v-6.4c0-3.2 3.2-3.2 3.2-9.6v-6.4s0-3.2-3.2-6.4-6.4 0-12.8-3.2l-3.2-3.2v-6.4l6.4-6.4v-12.8c3.2 0 3.2 0 3.2-3.2 3.2 0 6.4-3.2 9.6-6.4 3.2-3.2 9.6 0 12.8 0l3.2-3.2c3.2 0 9.6 3.2 12.8 3.2 3.2 0 3.2 3.2 6.4 3.2h9.6c3.2 0 3.2-3.2 9.6-3.2v-3.2s3.2 0 3.2-3.2c3.2 0 9.6 0 9.6-3.2 9.6-3.2 19.2 0 28.8 0 9.6-3.2 12.8-3.2 19.2-3.2h3.2c3.2-3.2 6.4-9.6 6.4-16l3.2-3.2c3.2 0 3.2-3.2 3.2-3.2V262.4c3.2 0 0-3.2 3.2-6.4 3.2 0 3.2-3.2 6.4-3.2 6.4 0 16-3.2 22.4 3.2H195.2v-3.2c0-3.2 0-6.4 3.2-12.8l3.2-3.2v-3.2c0-3.2 3.2-3.2 3.2-3.2 3.2-6.4 6.4-6.4 6.4-9.6 3.2 0 0-3.2 3.2-6.4 3.2 0 3.2-3.2 6.4-3.2 6.4 0 6.4 3.2 12.8 3.2 3.2 0 3.2 3.2 6.4 3.2h6.4c3.2 0 6.4 0 9.6-3.2 3.2 0 0-3.2 3.2-6.4 0-3.2 0-9.6 3.2-16 0 0 3.2 0 3.2-3.2h6.4c3.2 3.2 6.4 3.2 6.4 3.2v-3.2s0-3.2 3.2-3.2c9.6-3.2 19.2-6.4 25.6-3.2 3.2 6.4 0 12.8 3.2 19.2 3.2 0 3.2 3.2 6.4 6.4 3.2 0 3.2 3.2 3.2 6.4 0 0 3.2 3.2 6.4 3.2h3.2c3.2 0 3.2 3.2 6.4 3.2 0 0 0 3.2 3.2 3.2v16h3.2c3.2 6.4 0 12.8 3.2 19.2 0 3.2-3.2 9.6-6.4 12.8v12.8c6.4 3.2 9.6 3.2 16 3.2v3.2c6.4 0 12.8 3.2 19.2 6.4h3.2c3.2 0 6.4 6.4 12.8 6.4v6.4c3.2 0 3.2 6.4 6.4 6.4 0 0 3.2 0 3.2 3.2 3.2 3.2 0 6.4 3.2 12.8l3.2 3.2c0 3.2 3.2 3.2 3.2 6.4 0 0 0 3.2 3.2 3.2v6.4s3.2 0 3.2 3.2c0 0 3.2 3.2 6.4 3.2s3.2 3.2 6.4 3.2c6.4 0 16 0 22.4 3.2l3.2 3.2c12.8 0 22.4 3.2 38.4 3.2 3.2 0 3.2 3.2 6.4 3.2h6.4c3.2 3.2 3.2 3.2 6.4 3.2v3.2c3.2 3.2 9.6 0 12.8 3.2 0 3.2 6.4 3.2 6.4 9.6h19.2c3.2 0 3.2 3.2 6.4 3.2 6.4-3.2 9.6-3.2 16-9.6h6.4V384c3.2 0 6.4 0 9.6-3.2l3.2-3.2c9.6-3.2 16-3.2 25.6-6.4h32c3.2 0 3.2-3.2 3.2-6.4 3.2-3.2 6.4-6.4 9.6-6.4h3.2c3.2 0 3.2-3.2 3.2-6.4 3.2 0 3.2-3.2 3.2-3.2v-3.2l-3.2-3.2c-3.2-3.2-6.4-6.4-6.4-12.8v-12.8c3.2 0 3.2 0 3.2-3.2 3.2 0 3.2-3.2 6.4-3.2 9.6 0 19.2 3.2 28.8 0 3.2 0 3.2 0 6.4-3.2v-3.2h3.2l9.6-9.6c3.2 0 6.4 0 9.6-3.2l3.2-3.2c3.2 0 6.4 0 9.6-3.2 0-3.2 3.2-6.4 3.2-12.8l3.2-3.2h6.4c3.2-3.2 6.4-6.4 12.8-9.6h3.2l3.2-3.2h16l3.2-3.2c0-3.2-3.2-3.2-3.2-6.4-3.2 0-3.2-3.2-3.2-3.2-3.2 0-3.2-3.2-6.4-6.4h-3.2l-3.2-3.2h-9.6l-3.2 3.2c-3.2 0-3.2 3.2-6.4 3.2h-6.4l-3.2-3.2H739.2v12.8c-3.2 0-6.4 3.2-9.6 3.2l-3.2-3.2-3.2-3.2c0-6.4 0-12.8 3.2-19.2h3.2c0-6.4 3.2-9.6 3.2-12.8h3.2c0-6.4 3.2-9.6 6.4-12.8h19.2c3.2 0 3.2 0 3.2-3.2l9.6-9.6c3.2-3.2 0-9.6 3.2-12.8 3.2-3.2 3.2-9.6 6.4-12.8h3.2v-6.4l3.2-3.2 3.2-3.2v-9.6h-9.6l-3.2-3.2v-16c0-3.2 3.2-3.2 3.2-6.4h3.2c3.2 0 3.2 0 3.2-3.2 0 0 0-3.2 3.2-3.2h3.2c3.2 0 6.4-3.2 9.6 0 3.2 0 3.2-3.2 6.4-3.2s3.2-3.2 6.4-3.2h9.6c6.4-6.4 6.4-6.4 12.8-6.4 3.2 0 6.4 3.2 9.6 6.4 3.2 0 3.2 0 3.2-3.2h9.6c0 3.2 3.2 3.2 6.4 3.2 0 0 0 3.2 3.2 3.2 3.2 3.2 3.2 6.4 6.4 9.6 0 3.2 0 6.4 3.2 6.4h3.2s0 6.4 3.2 6.4c3.2 3.2 6.4 3.2 6.4 6.4s3.2 3.2 3.2 6.4h6.4s0 3.2 3.2 3.2c0 3.2 3.2 9.6 3.2 12.8l3.2 3.2 3.2 3.2c6.4 3.2 16 0 22.4 3.2 3.2 3.2 6.4 3.2 9.6 6.4h9.6c0 3.2 3.2 3.2 6.4 6.4 0 0 0 3.2 3.2 3.2-6.4 6.4-6.4 9.6-6.4 12.8v3.2h3.2c3.2 0 3.2 3.2 6.4 3.2 6.4 0 9.6-3.2 16-3.2 3.2-3.2 3.2-6.4 6.4-6.4 0-3.2 3.2-3.2 3.2-6.4 3.2-3.2 3.2-3.2 9.6-3.2l9.6-9.6h3.2l3.2-3.2 3.2 3.2v6.4l-3.2 3.2V192c3.2 3.2 3.2 9.6 0 12.8h-3.2c-3.2 16 0 35.2-3.2 51.2 0 0 0 3.2-3.2 6.4 0 0-3.2 0-3.2 3.2-6.4 0-12.8 0-19.2 3.2v3.2c-3.2 3.2-6.4 3.2-6.4 6.4v6.4c6.4 3.2 9.6 6.4 9.6 12.8 3.2 6.4 3.2 12.8 3.2 22.4-3.2 3.2-3.2 6.4-6.4 6.4 0 3.2 0 9.6-3.2 12.8h-3.2v-3.2s-3.2-3.2-6.4-3.2c-3.2 3.2-3.2 6.4-6.4 12.8-3.2 3.2-9.6 6.4-12.8 12.8 0 3.2 3.2 3.2 3.2 3.2 0 3.2-3.2 3.2-3.2 6.4l-3.2 3.2c-6.4 3.2-16 0-22.4 0-3.2 0-3.2 0-3.2 3.2s-3.2 3.2-3.2 6.4l-3.2 3.2-3.2 3.2c0 3.2-3.2 3.2-6.4 9.6v3.2c-3.2 3.2-3.2 6.4-3.2 6.4-3.2 0-6.4 3.2-6.4 6.4-6.4 6.4-12.8 9.6-22.4 6.4-3.2 0-3.2 0-6.4 3.2 0 3.2 0 3.2-3.2 6.4 0 0 0 3.2-3.2 3.2v6.4l-6.4 9.6s0 3.2-3.2 3.2h-3.2l-3.2 3.2c-3.2 0-6.4 3.2-9.6 3.2 0-3.2-3.2-3.2-3.2-6.4v-6.4l3.2-3.2c3.2-6.4 0-16 3.2-25.6l3.2-3.2c3.2 0 0-3.2 3.2-6.4v-9.6c-3.2 0-3.2 3.2-6.4 3.2h-6.4c-3.2 3.2-3.2 6.4-3.2 9.6 0 3.2-3.2 3.2-3.2 3.2s0 3.2-3.2 6.4c-3.2 0-6.4 3.2-9.6 6.4-3.2 3.2-6.4 9.6-9.6 12.8 0 3.2-3.2 3.2 0 3.2l-6.4 6.4c-3.2 0-3.2 0-6.4 3.2h-6.4-3.2c-3.2 0 0 3.2 0 6.4s3.2 6.4 6.4 6.4h12.8c3.2 0 9.6 3.2 12.8 6.4v6.4h-3.2l3.2 3.2h6.4l9.6-9.6h3.2c3.2-3.2 12.8-9.6 19.2-9.6l3.2 3.2c3.2 0 3.2 0 9.6 3.2h3.2c3.2 0 3.2 3.2 9.6 3.2h3.2c3.2 0 3.2 0 6.4 3.2v3.2c-3.2 6.4-9.6 9.6-19.2 12.8 0 0-6.4 0-9.6 3.2 0 3.2 0 6.4-3.2 6.4h-3.2c0 3.2-3.2 3.2-3.2 6.4-3.2 3.2-9.6 6.4-12.8 12.8-3.2 0-3.2 3.2-3.2 6.4-3.2 0-3.2 3.2-3.2 6.4s3.2 3.2 3.2 6.4c3.2 3.2 6.4 0 9.6 0 3.2 3.2 6.4 0 6.4 3.2h3.2c3.2 0 0 6.4 3.2 9.6l3.2 3.2c0 6.4 3.2 16 3.2 22.4 3.2 3.2 6.4 3.2 9.6 6.4 3.2 3.2 3.2 6.4 6.4 9.6l3.2 3.2c0 3.2 3.2 6.4 3.2 9.6 3.2 3.2 3.2 6.4 6.4 6.4l3.2 3.2-9.6 9.6c-3.2 0-3.2 3.2-6.4 3.2h-3.2l-3.2 3.2h12.8l9.6 9.6c0 6.4 3.2 12.8 3.2 19.2l-3.2 3.2c-3.2 3.2 0 9.6 0 16 0 0-3.2 3.2-6.4 3.2-3.2 3.2-3.2 6.4-6.4 9.6 0 6.4-3.2 9.6-6.4 16 0 3.2-3.2 3.2-3.2 9.6 0 3.2-3.2 3.2-3.2 6.4v6.4s-3.2 0-3.2 3.2c0 0 0 3.2-3.2 3.2v12.8c0 3.2-3.2 6.4-3.2 9.6v6.4l-3.2 3.2c-3.2 0-3.2 6.4-6.4 9.6l-3.2 3.2h-6.4l-3.2 3.2v6.4l-3.2 3.2c-3.2 3.2-3.2 6.4-9.6 9.6h-3.2c0 3.2 3.2 0 3.2 3.2h-6.4c0 3.2-6.4 3.2-6.4 6.4s-3.2 6.4-6.4 9.6h-3.2c-3.2 3.2-9.6 6.4-16 6.4l-3.2 3.2h-12.8c-3.2 0-6.4 6.4-12.8 6.4h-3.2c-3.2 0-3.2 3.2-6.4 3.2v-3.2h-3.2s0 3.2-3.2 3.2l-12.8 22.4h-6.4c-3.2 0-6.4 3.2-6.4 3.2 0 3.2-3.2 3.2-3.2 6.4-3.2 3.2-9.6 0-12.8 3.2v3.2h-6.4c-3.2 0-3.2 3.2-9.6 6.4h-9.6c-3.2 0-3.2 3.2-3.2 3.2h-6.4l-3.2 6.4h3.2s3.2 3.2 3.2 6.4-3.2 6.4-3.2 9.6c0 0-3.2 0-6.4 3.2 6.4 3.2 12.8 0 19.2 3.2l3.2 3.2v6.4h-3.2c-3.2 0-3.2 3.2-6.4 6.4 0 3.2 3.2 9.6 0 12.8H675.2v3.2c-3.2 3.2-6.4 3.2-9.6 3.2 0 3.2-3.2 0-3.2 3.2l-16 3.2z m0 0" p-id="7554"></path><path d="m385.74,554.85a13.78,13.78 0 0 1 -10.55,-5.14c-0.49,-0.57 -1.09,-1.19 -1.71,-1.96a295.67,295.67 0 0 1 -17.98,-22.83a185.66,185.66 0 0 1 -11.04,-17.4c-5.73,-10.44 -8.64,-19.11 -8.64,-25.76c0,-6.42 1.31,-12.64 3.91,-18.52c2.51,-5.65 6.13,-10.75 10.69,-15.12c4.57,-4.36 9.93,-7.79 15.87,-10.18a51.81,51.81 0 0 1 38.91,0c5.93,2.39 11.27,5.82 15.86,10.18c4.57,4.37 8.19,9.47 10.7,15.12c2.57,5.88 3.91,12.1 3.91,18.55c0,6.62 -2.91,15.29 -8.65,25.73a182.98,182.98 0 0 1 -11.01,17.4a287.77,287.77 0 0 1 -17.97,22.83l-1.66,1.85a13.92,13.92 0 0 1 -10.58,5.25l-0.06,0l0,0l0,0zm162.27,144.84a10.13,10.13 0 0 1 -7.93,-4.11l-1.28,-1.57a235.48,235.48 0 0 1 -13.49,-18.26a150.26,150.26 0 0 1 -8.28,-13.92c-4.28,-8.36 -6.47,-15.29 -6.47,-20.63a38.31,38.31 0 0 1 22.85,-35.06c4.62,-1.99 9.53,-2.99 14.58,-3.02l0.02,0a36.74,36.74 0 0 1 26.48,11.18a38,38 0 0 1 10.95,26.9c0,5.34 -2.16,12.27 -6.47,20.63c-2.23,4.28 -4.99,8.96 -8.28,13.92a229.2,229.2 0 0 1 -13.49,18.26l-1.23,1.48a10.21,10.21 0 0 1 -7.93,4.2l-0.05,0l0.02,0l0,0zm137.28,-72.41a21.25,21.25 0 0 1 -15.8,-7.19l-2.6,-2.76a418.6,418.6 0 0 1 -26.98,-31.96a258.13,258.13 0 0 1 -16.55,-24.36c-8.59,-14.63 -12.95,-26.76 -12.95,-36.06c0,-8.99 1.99,-17.69 5.87,-25.9a66.76,66.76 0 0 1 16.04,-21.2c6.87,-6.11 14.89,-10.93 23.82,-14.26a82.62,82.62 0 0 1 29.15,-5.28l0.03,0c10.13,0 19.92,1.77 29.16,5.28c8.93,3.33 16.92,8.15 23.79,14.26c6.85,6.13 12.27,13.24 16.06,21.2c3.88,8.18 5.85,16.91 5.85,25.9c0,9.3 -4.36,21.43 -12.95,36.06c-4.42,7.5 -9.99,15.69 -16.55,24.34a407.42,407.42 0 0 1 -26.98,31.98l-2.43,2.59a21.45,21.45 0 0 1 -15.89,7.36l-0.09,0l0,0z" fill="#8A90A2" id="svg_3"/></svg>
