<svg xmlns="http://www.w3.org/2000/svg" viewBox="0 0 64 64"><defs><style>.cls-1{isolation:isolate;}.cls-2{fill:#f2f4f5;}.cls-3{fill:#0a7be0;}.cls-4{fill:#53baf9;}.cls-5,.cls-6{fill:#a2a2ba;}.cls-6{mix-blend-mode:multiply;}.cls-7,.cls-8,.cls-9{fill:#fff;}.cls-7{opacity:0.75;}.cls-8{opacity:0.8;}.cls-10{fill:none;stroke:#0a7be0;stroke-miterlimit:10;stroke-width:1.5px;}</style></defs><title>【icon】插件管理-导出</title><g class="cls-1"><g id="图层_1" data-name="图层 1"><circle class="cls-2" cx="32" cy="32" r="32"/><path class="cls-3" d="M25.76,44.82l6.79-11.56H44.4V12.36A2.36,2.36,0,0,0,42,10H13.87a2.58,2.58,0,0,0-2.58,2.57V44.7A3.68,3.68,0,0,0,15,48.37H27.84Z"/><path class="cls-4" d="M25.76,44.82,27,42.73H14.11a2.83,2.83,0,0,0-2.82,2.82h0a2.83,2.83,0,0,0,2.82,2.82H27.84Z"/><polygon class="cls-5" points="33.96 54 28.57 44.82 33.96 35.64 52.71 35.64 52.71 54 33.96 54"/><polygon class="cls-6" points="33.96 54 28.57 44.82 52.71 44.75 52.71 54 33.96 54"/><circle class="cls-7" cx="41.97" cy="46.73" r="5.49"/><circle class="cls-7" cx="38.37" cy="42.73" r="3.96"/><circle class="cls-7" cx="48.74" cy="48.37" r="2.84"/><path class="cls-8" d="M18.7,16.06H38.53a0,0,0,0,1,0,0v15.4a0,0,0,0,1,0,0H21.32a2.62,2.62,0,0,1-2.62-2.62V16.06A0,0,0,0,1,18.7,16.06Z"/><path class="cls-9" d="M21,12.54a2.32,2.32,0,0,0-2.32,2.32V28.93a2.32,2.32,0,0,1,4.64,0V14.86A2.32,2.32,0,0,0,21,12.54Z"/><line class="cls-10" x1="25.15" y1="32.4" x2="40.65" y2="16.9"/><line class="cls-10" x1="27" y1="14.47" x2="34.76" y2="22.22"/></g></g></svg>