<svg xmlns="http://www.w3.org/2000/svg" viewBox="0 0 64 64"><defs><style>.cls-1{isolation:isolate;}.cls-2{fill:#f2f4f5;}.cls-3{fill:#0a7be0;}.cls-4{fill:#53baf9;}.cls-5,.cls-6{fill:#a2a2ba;}.cls-6{mix-blend-mode:multiply;}.cls-7{fill:#fff;}</style></defs><title>【icon】插件管理-导出</title><g class="cls-1"><g id="图层_1" data-name="图层 1"><circle class="cls-2" cx="31.9" cy="32" r="32"/><path class="cls-3" d="M25.94,44.24l6.49-11H43.74V13.26A2.26,2.26,0,0,0,41.49,11H14.6a2.46,2.46,0,0,0-2.46,2.46V44.12a3.5,3.5,0,0,0,3.5,3.5H27.93Z"/><path class="cls-4" d="M25.94,44.24l1.18-2H14.83a2.7,2.7,0,0,0-2.69,2.69h0a2.7,2.7,0,0,0,2.69,2.69h13.1Z"/><polygon class="cls-5" points="33.78 53 28.63 44.24 33.78 35.47 51.67 35.47 51.67 53 33.78 53"/><polygon class="cls-6" points="33.78 53 28.63 44.24 51.67 44.17 51.67 53 33.78 53"/><path class="cls-7" d="M38.59,43.4a4.27,4.27,0,0,1-.88-2.7c-.27.19-.53.38-.78.58a3.21,3.21,0,0,0,.67,2.33c.91.82,1.69.35,2.76,1.16.79.6.46,2,.16,2.87.27-.1.55-.21.83-.34.25-1,.51-2.4-.05-2.89C40.42,43.64,39.3,44.08,38.59,43.4Z"/><path class="cls-7" d="M40.14,45.11c-.87-.77-2.12-.54-2.86-1.3a3.5,3.5,0,0,1-.82-2.13c-1.86,1.71-2.71,3.73-1.94,5.12s3.07,1.74,5.59,1C40.4,46.86,40.68,45.58,40.14,45.11Z"/><path class="cls-7" d="M43.72,43.66c-.88-.77-2.37-.86-2.93-1.44-.72-.73-.48-2.17-.29-2.93-.31.11-.63.23-1,.38-.1.73-.24,2.4.46,3,.92.81,1.7.27,2.77,1.09a2.48,2.48,0,0,1,.71,2.3c.24-.17.46-.34.68-.52A2.39,2.39,0,0,0,43.72,43.66Z"/><path class="cls-7" d="M46.49,40.13c-.78-1.38-3-1.73-5.38-1-.29.83-.7,2.36,0,2.94.91.82,2,.54,3.09,1.3a1.84,1.84,0,0,1,.6,1.71C46.47,43.38,47.23,41.46,46.49,40.13Z"/><path class="cls-7" d="M42.62,44c-.88-.77-2.2-.44-2.88-1.16a4.22,4.22,0,0,1-.66-3l-.44.23-.43.25c0,.67,0,2.18.56,2.77.87.87,1.62.21,2.69,1,.81.61.65,2,.47,2.86l.43-.23c.19-.1.37-.21.55-.32C43.06,45.7,43.18,44.52,42.62,44Z"/><rect class="cls-7" x="18.81" y="15.56" width="18.8" height="3.02" rx="1.51"/><rect class="cls-4" x="18.81" y="21.05" width="9.39" height="3.02" rx="1.51"/><rect class="cls-7" x="18.81" y="25.84" width="20.18" height="3.02" rx="1.51"/><circle class="cls-7" cx="15.85" cy="17.07" r="1.51"/><circle class="cls-4" cx="15.85" cy="22.56" r="1.51"/><circle class="cls-7" cx="15.85" cy="27.35" r="1.51"/></g></g></svg>
