<?xml version="1.0" encoding="utf-8"?>
<svg version="1.1" xmlns:xlink="http://www.w3.org/1999/xlink" width="50px" height="50px" xmlns="http://www.w3.org/2000/svg">
  <g transform="matrix(1 0 0 1 -320 -47 )">
    <path d="M 14.2299107142857 2.46655518394649  C 17.6339285714286 0.859345968041619  21.1960565476191 0.0464511334076489  24.9162946428571 0.0278706800445949  C 29.3805803571429 -0.00929022668153534  33.5751488095238 1.10553697510219  37.5 3.37235228539576  C 41.8154761904762 5.86213303604608  45.0892857142857 9.31809736157562  47.3214285714286 13.7402452619844  L 26.6183035714286 12.6532887402453  C 23.6421130952381 12.4860646599777  20.9077380952381 13.1781865477518  18.4151785714286 14.7296544035674  C 15.922619047619 16.2811222593831  14.2020089285714 18.4132292827945  13.2533482142857 21.1259754738016  L 5.55245535714286 9.30880713489409  C 7.93340773809524 6.35451505016723  10.8258928571429 4.07376439985135  14.2299107142857 2.46655518394649  Z M 0 25  C 0 20.0390189520624  1.35788690476191 15.4775176514307  4.07366071428571 11.3154960981048  L 13.4765625 29.79375696767  C 14.8158482142857 32.4507617985879  16.7782738095238 34.4667409884801  19.3638392857143 35.8416945373467  C 21.9494047619048 37.2166480862133  24.6744791666667 37.6347082868822  27.5390625 37.0958751393534  L 21.1216517857143 49.6655518394649  C 17.1781994047619 49.0523968784838  13.5974702380952 47.5891861761427  10.3794642857143 45.2759197324415  C 7.16145833333333 42.9626532887402  4.62704613095238 40.0269416573764  2.77622767857143 36.4687848383501  C 0.925409226190476 32.9106280193237  0 29.0876997398737  0 25  Z M 34.2354910714286 16.7502787068004  L 48.3258928571429 16.025641025641  C 49.4047619047619 18.8127090301003  49.9581473214286 21.6973244147157  49.9860491071429 24.6794871794872  C 50.0139508928571 27.6616499442586  49.5628720238095 30.5044593088071  48.6328125 33.2079152731327  C 47.7027529761905 35.9113712374582  46.2797619047619 38.4383128948346  44.3638392857143 40.788740245262  C 42.4479166666667 43.1391675956893  40.1599702380952 45.0854700854701  37.5 46.6276477146042  C 33.2217261904762 49.0988480118915  28.5900297619048 50.2043849869937  23.6049107142857 49.9442586399108  L 34.9051339285714 32.5808249721293  C 36.5420386904762 30.1467855815682  37.3093377976191 27.4479747305834  37.20703125 24.484392419175  C 37.104724702381 21.5208101077666  36.1142113095238 18.9427722036418  34.2354910714286 16.7502787068004  Z M 19.04296875 19.0496098104794  C 20.6891741071429 17.4052396878484  22.6748511904762 16.5830546265329  25 16.5830546265329  C 27.3251488095238 16.5830546265329  29.3108258928571 17.4052396878484  30.95703125 19.0496098104794  C 32.6032366071429 20.6939799331104  33.4263392857143 22.6774433296172  33.4263392857143 25  C 33.4263392857143 27.3225566703828  32.6032366071429 29.3060200668896  30.95703125 30.9503901895206  C 29.3108258928571 32.5947603121516  27.3251488095238 33.4169453734671  25 33.4169453734671  C 22.6748511904762 33.4169453734671  20.6891741071429 32.5947603121516  19.04296875 30.9503901895206  C 17.3967633928571 29.3060200668896  16.5736607142857 27.3225566703828  16.5736607142857 25  C 16.5736607142857 22.6774433296172  17.3967633928571 20.6939799331104  19.04296875 19.0496098104794  Z " fill-rule="nonzero" fill="#000000" stroke="none" transform="matrix(1 0 0 1 320 47 )" />
  </g>
</svg>