<?xml version="1.0" encoding="utf-8"?>
<svg version="1.1" xmlns:xlink="http://www.w3.org/1999/xlink" width="50px" height="50px" xmlns="http://www.w3.org/2000/svg">
  <g transform="matrix(1 0 0 1 -420 -47 )">
    <path d="M 33.2264361405466 48.5751295336788  C 30.633017289459 49.5250431778929  27.9512920617215 50  25.1812604573341 50  C 19.9200594906116 50  15.2305261200967 48.5559393590482  11.1126603457892 45.6678180771445  C 6.99479457148169 42.7796967952408  3.93195761293921 38.956054500096  1.92414947016174 34.1968911917098  C 0.845882134225693 31.6829783151027  0.223089793641941 28.794857033199  0.0557724484104852 25.5325273459988  C -0.11154489682097 22.2701976587987  0.130135712957799 19.0798311264632  0.780814277746793 15.9614277489925  C 1.43149284253579 12.8430243715218  2.46328313812976 9.84935712914987  3.87618516452872 6.9804260218768  C 5.28908719092768 4.11149491460372  6.95296523517382 1.78468624064479  8.86781929726715 0  L 8.56107083100948 8.08865860679332  C 8.76556980851459 7.81999616196507  9.39765755716676 7.67127230857801  10.457334076966 7.64248704663212  C 11.5170105967652 7.61370178468624  12.1676891615542 7.7624256380733  12.409369771333 8.08865860679332  C 13.1901840490798 6.5342544617156  14.6820970440602 5.21013241220495  16.8851087562744 4.11629245826137  C 19.0881204684886 3.02245250431779  21.2678936605317 2.45634235271541  23.4244283324038 2.41796200345423  C 22.4205242610151 3.28151986183074  21.3097229968396 4.70639032815199  20.0920245398773 6.69257340241796  C 18.874326082915 8.67875647668393  18.3305447109128 10.2475532527346  18.4606804238706 11.3989637305699  C 18.9254508272913 11.5524851276147  19.5064138315672 11.6820188063711  20.2035694366983 11.7875647668394  C 20.9007250418293 11.8931107273076  21.4863357501394 11.9650738821723  21.9604015616286 12.0034542314335  C 22.4344673731177 12.0418345806947  23.0665551217698 12.0802149299559  23.8566648075851 12.118595279217  C 24.6467744934003 12.1569756284782  25.1161926008552 12.1857608904241  25.2649191299498 12.2049510650547  C 25.5437813720022 12.3009019382076  25.6320877486522 12.7374784110535  25.5298382598996 13.5146804835924  C 25.4275887711471 14.2918825561313  25.1440788250604 15.016311648436  24.6793084216397 15.6879677605066  C 24.5863543409556 15.8222989829207  24.4329801078267 15.9998080982537  24.2191857222532 16.2204951065055  C 24.0053913366797 16.4411821147572  23.4802007808143 16.7818077144502  22.643614054657 17.2423719055843  C 21.8070273284997 17.7029360967185  20.8681911135899 18.0291690654385  19.8271054099275 18.2210708117444  L 20.2453987730061 23.6614853195164  L 16.3692136084774 21.7328727691422  C 16.0345789180145 22.5580502782575  15.9648633575014 23.340049894454  16.1600669269381 24.0788716177317  C 16.3552704963748 24.8176933410094  16.6899051868377 25.4557666474765  17.1639709983268 25.993091537133  C 17.638036809816 26.5304164267895  18.2468860382971 26.9286125503742  18.9905186837702 27.1876799078872  C 19.7341513292434 27.4467472654001  20.4870793827849 27.5091153329495  21.2493028443949 27.3747841105354  C 22.1974344673731 27.2020725388601  23.1083844580777 26.8710420264824  23.9821528165086 26.3816925734024  C 24.8559211749396 25.8923431203224  25.6320877486522 25.4605641911341  26.3106525376464 25.0863557858377  C 26.9892173266406 24.7121473805412  27.6724298196691 24.5442333525235  28.3602900167317 24.5826137017847  C 29.4943298010783 24.659374400307  30.3262688232013 24.9760122817118  30.8561070831009 25.5325273459988  C 31.3859453430006 26.0890424102859  31.5672058003346 26.7127230857801  31.3998884551032 27.4035693724813  C 31.3812976389664 27.4419497217425  31.3580591187953 27.4947227019766  31.3301728945901 27.5618883131836  C 31.3022866703848 27.6290539243907  31.2232757018033 27.7489925158319  31.0931399888455 27.9217040875072  C 30.9630042758877 28.0944156591825  30.7956869306563 28.2431395125696  30.5911879531511 28.3678756476684  C 30.386688975646 28.4926117827672  30.093883621491 28.5933601995778  29.712771890686 28.6701208981002  C 29.331660159881 28.7468815966225  28.8994236846998 28.7564766839378  28.4160624651422 28.6989061600461  C 27.3006134969325 30.521972749952  25.9574270310467 31.8221070811744  24.3865030674847 32.5993091537133  C 22.8155791039227 33.3765112262522  20.8681911135899 33.6595663020533  18.5443390964863 33.4484743811169  C 19.9200594906116 34.6190750335828  21.4305633017289 35.4106697370946  23.0758505298383 35.8232584916523  C 24.7211377579476 36.2358472462099  26.2874140174754 36.2934177701017  27.7746793084216 35.9959700633276  C 29.2619445993679 35.6985223565534  30.6980851459379 35.1995778161581  32.0831009481316 34.4991364421416  C 33.4681167503253 33.7986950681251  34.6579289830824 32.9591249280368  35.6525376464027 31.9804260218768  C 36.647146309723 31.0017271157168  37.3954266592303 30.0038380349261  37.8973786949247 28.9867587795049  C 38.6967837888083 27.2404528881213  39.0593047034765 25.3933985799271  38.9849414389292 23.4455958549223  C 38.9105781743819 21.4977931299175  38.5620003718163 19.6891191709845  37.9392080312326 18.0195739781232  C 37.3164156906488 16.3500287852619  36.5867261572783 15.1506428708501  35.750139431121 14.4214162348877  C 37.3675404350251 15.1506428708501  38.6410113403978 15.913452312416  39.5705521472393 16.7098445595855  C 40.5000929540807 17.5062368067549  41.2158393753486 18.5856841297256  41.7177914110429 19.9481865284974  C 41.9966536530954 16.6858568412973  41.4621676891616 13.3947418921512  40.1143335192415 10.0748416810593  C 38.7664993493214 6.75494146996737  36.8191113589887 4.02993667242372  34.2721695482432 1.89982728842832  C 39.1987358245027 3.37747073498368  43.0284439486894 6.05929763960852  45.7612939208031 9.94530800230282  C 48.4941438929169 13.8313183649971  49.8977505112474 18.7967760506621  49.9721137757948 24.8416810592976  C 50.0092954080684 27.2788332373825  49.6328313812976 29.7255805027826  48.8427216954824 32.181922855498  C 48.0526120096672 34.6382652082134  46.9046291132181 36.9218959892535  45.398773006135 39.0328151986183  C 43.8929168990519 41.1437344079831  42.1360847741216 43.0243715217809  40.1282766313441 44.6747265400115  C 38.1204684885667 46.3250815582422  35.8198549916341 47.6252158894646  33.2264361405466 48.5751295336788  Z " fill-rule="nonzero" fill="#000000" stroke="none" transform="matrix(1 0 0 1 420 47 )" />
  </g>
</svg>