<?xml version="1.0" encoding="utf-8"?>
<svg version="1.1" xmlns:xlink="http://www.w3.org/1999/xlink" width="50px" height="50px" xmlns="http://www.w3.org/2000/svg">
  <g transform="matrix(1 0 0 1 -520 -47 )">
    <path d="M 47.1819196428571 15.0852272727273  C 49.0606398809524 18.532196969697  50 22.2253787878788  50 26.1647727272727  C 50 27.2253787878788  49.9348958333333 28.2102272727273  49.8046875 29  L 17.6897321428571 29  C 17.6897321428571 31.8844696969697  18.7081473214286 34.1998106060606  20.7449776785714 36.0653409090909  C 22.7818080357143 37.9308712121212  25.1767113095238 38.8636363636364  27.9296875 38.8636363636364  C 29.7712053571429 38.8636363636364  31.4964657738095 38.4232954545455  33.10546875 37.5426136363636  C 34.7144717261905 36.6619318181818  35.9840029761905 35.4261363636364  36.9140625 33  L 48.7165178571429 33  C 47.6748511904762 36.8465909090909  46.089099702381 39.5075757575758  43.9592633928571 41.8181818181818  C 41.8294270833333 44.1287878787879  39.3415178571429 45.9138257575758  36.4955357142857 47.1732954545455  C 33.6495535714286 48.4327651515152  30.6640625 49.0625  27.5390625 49.0625  C 24.0606398809524 49.0625  20.7496279761905 48.2765151515152  17.6060267857143 46.7045454545455  C 13.3649553571429 48.9015151515152  9.70052083333333 50  6.61272321428571 50  C 2.20424107142857 50  0 47.5094696969697  0 42.5284090909091  C 0 40.3503787878788  0.418526785714286 37.7462121212121  1.25558035714286 34.7159090909091  C 1.5718005952381 33.5795454545455  2.58556547619048 31.4109848484848  4.296875 28.2102272727273  C 7.99851190476191 21.3920454545455  12.4162946428571 15.6534090909091  17.5502232142857 10.9943181818182  C 14.1276041666667 12.4905303030303  10.15625 15.842803030303  5.63616071428571 21.0511363636364  C 6.80803571428571 15.8617424242424  9.44475446428571 11.6051136363636  13.5463169642857 8.28125  C 17.6478794642857 4.95738636363636  22.3121279761905 3.29545454545455  27.5390625 3.29545454545455  C 28.0970982142857 3.29545454545455  28.515625 3.30492424242424  28.7946428571429 3.32386363636364  C 33.5379464285714 1.10795454545455  37.5651041666667 0  40.8761160714286 0  C 42.0665922619048 0  43.1454613095238 0.12310606060606  44.1127232142857 0.369318181818185  C 45.0799851190476 0.615530303030298  45.9588913690476 0.999053030303027  46.7494419642857 1.51988636363636  C 47.5399925595238 2.0407196969697  48.1584821428571 2.76515151515151  48.6049107142857 3.69318181818182  C 49.0513392857143 4.62121212121211  49.2745535714286 5.71022727272728  49.2745535714286 6.96022727272727  C 49.2745535714286 9.15719696969697  48.5770089285714 11.8655303030303  47.1819196428571 15.0852272727273  Z M 46.6238839285714 14.1193181818182  C 47.5725446428572 11.5625  48.046875 9.51704545454545  48.046875 7.98295454545455  C 48.046875 6.41098484848485  47.553943452381 5.16098484848485  46.5680803571429 4.23295454545455  C 45.5822172619048 3.30492424242424  44.3080357142857 2.84090909090909  42.7455357142857 2.84090909090909  C 40.7366071428571 2.84090909090909  38.374255952381 3.50378787878788  35.6584821428571 4.82954545454545  C 37.9092261904762 5.71969696969697  39.9786086309524 6.96496212121211  41.8666294642857 8.56534090909091  C 43.7546502976191 10.1657196969697  45.3404017857143 12.0170454545455  46.6238839285714 14.1193181818182  Z M 6.30580357142857 33.6931818181818  C 4.48288690476191 37.5757575757576  3.57142857142857 40.719696969697  3.57142857142857 43.125  C 3.57142857142857 44.7537878787879  4.02250744047619 46.0085227272727  4.92466517857143 46.8892045454545  C 5.82682291666667 47.7698863636364  7.07775297619048 48.2102272727273  8.67745535714286 48.2102272727273  C 10.8165922619048 48.2102272727273  13.2905505952381 47.4242424242424  16.0993303571429 45.8522727272727  C 13.8299851190476 44.4886363636364  11.8443080357143 42.7556818181818  10.1422991071429 40.6534090909091  C 8.44029017857143 38.5511363636364  7.16145833333333 36.2310606060606  6.30580357142857 33.6931818181818  Z M 20.7728794642857 16.1363636363636  C 18.7732514880952 17.9356060606061  17.7269345238095 20.1799242424242  17.6339285714286 23  L 37.9464285714286 23  C 37.8534226190476 20.1799242424242  36.8024553571429 17.9356060606061  34.7935267857143 16.1363636363636  C 32.7845982142857 14.3371212121212  30.4501488095238 13.4375  27.7901785714286 13.4375  C 25.1116071428571 13.4375  22.7725074404762 14.3371212121212  20.7728794642857 16.1363636363636  Z " fill-rule="nonzero" fill="#000000" stroke="none" transform="matrix(1 0 0 1 520 47 )" />
  </g>
</svg>