<?xml version="1.0" encoding="utf-8"?>
<svg version="1.1" xmlns:xlink="http://www.w3.org/1999/xlink" width="50px" height="50px" xmlns="http://www.w3.org/2000/svg">
  <g transform="matrix(1 0 0 1 -620 -47 )">
    <path d="M 34.0262276785714 1.68805803571428  C 36.8629092261905 2.79482886904762  39.4066220238095 4.35267857142857  41.6573660714286 6.36160714285715  C 38.5881696428571 4.31547619047619  35.249255952381 3.29241071428572  31.640625 3.29241071428572  C 28.7574404761905 3.29241071428572  26.0323660714286 3.97135416666666  23.4654017857143 5.32924107142857  C 20.8984375 6.68712797619047  18.6662946428571 8.54724702380952  16.7689732142857 10.9095982142857  C 15.3738839285714 12.6395089285714  14.262462797619 14.6670386904762  13.4347098214286 16.9921875  C 12.6069568452381 19.3173363095238  12.1558779761905 21.7912946428571  12.0814732142857 24.4140625  L 12.0814732142857 25.5859375  C 12.1558779761905 28.2087053571429  12.6069568452381 30.6826636904762  13.4347098214286 33.0078125  C 14.262462797619 35.3329613095238  15.3738839285714 37.3604910714286  16.7689732142857 39.0904017857143  C 18.6662946428571 41.4527529761905  20.8984375 43.3128720238095  23.4654017857143 44.6707589285714  C 26.0323660714286 46.0286458333333  28.7574404761905 46.7075892857143  31.640625 46.7075892857143  C 35.249255952381 46.7075892857143  38.5881696428571 45.6845238095238  41.6573660714286 43.6383928571429  C 39.4066220238095 45.6473214285714  36.8536086309524 47.2098214285714  33.9983258928571 48.3258928571429  C 31.1430431547619 49.4419642857143  28.1436011904762 50  25 50  C 24.4605654761905 50  24.0606398809524 49.9906994047619  23.8002232142857 49.9720982142857  C 20.5450148809524 49.8232886904762  17.4479166666667 49.0606398809524  14.5089285714286 47.6841517857143  C 11.5699404761905 46.3076636904762  9.04017857142857 44.5126488095238  6.91964285714286 42.2991071428571  C 4.79910714285714 40.0855654761905  3.1156994047619 37.4720982142857  1.86941964285714 34.4587053571429  C 0.623139880952381 31.4453125  0 28.2924107142857  0 25  C 0 21.6145833333333  0.660342261904762 18.3779761904762  1.98102678571429 15.2901785714286  C 3.30171130952381 12.2023809523809  5.078125 9.54241071428572  7.31026785714286 7.31026785714285  C 9.54241071428571 5.078125  12.202380952381 3.30171130952381  15.2901785714286 1.98102678571428  C 18.3779761904762 0.660342261904762  21.6145833333333 0  25 0  L 25.0837053571429 0  C 28.2087053571429 0.0186011904761862  31.1895461309524 0.581287202380948  34.0262276785714 1.68805803571428  Z M 47.8934151785714 14.9274553571429  C 49.2978050595238 18.0896577380952  50 21.4471726190476  50 25  C 50 28.5714285714286  49.2838541666667 31.9428943452381  47.8515625 35.1143973214286  C 46.4192708333333 38.285900297619  44.4382440476191 41.0435267857143  41.9084821428571 43.3872767857143  C 39.9739583333333 44.5591517857143  37.9092261904762 45.1450892857143  35.7142857142857 45.1450892857143  C 33.1659226190476 45.1450892857143  30.7942708333333 44.3638392857143  28.5993303571429 42.8013392857143  C 31.4639136904762 41.7596726190476  33.8216145833333 39.5926339285714  35.6724330357143 36.3002232142857  C 37.5232514880952 33.0078125  38.4486607142857 29.2410714285714  38.4486607142857 25  C 38.4486607142857 20.7775297619048  37.5279017857143 17.0200892857143  35.6863839285714 13.7276785714286  C 33.8448660714286 10.4352678571429  31.4918154761905 8.25892857142857  28.6272321428571 7.19866071428572  C 30.8407738095238 5.6547619047619  33.203125 4.8828125  35.7142857142857 4.8828125  C 37.9278273809524 4.8828125  40.0297619047619 5.48735119047619  42.0200892857143 6.69642857142857  C 44.53125 9.02157738095238  46.4890252976191 11.7652529761905  47.8934151785714 14.9274553571429  Z " fill-rule="nonzero" fill="#000000" stroke="none" transform="matrix(1 0 0 1 620 47 )" />
  </g>
</svg>