<?xml version="1.0" encoding="utf-8"?>
<!-- Generator: Adobe Illustrator 19.1.0, SVG Export Plug-In . SVG Version: 6.00 Build 0)  -->
<svg version="1.1" id="Icons" xmlns="http://www.w3.org/2000/svg" xmlns:xlink="http://www.w3.org/1999/xlink" x="0px" y="0px"
	 viewBox="0 0 32 32" enable-background="new 0 0 32 32" xml:space="preserve">
<path fill="#6E6F72" d="M24,7.1616211V7h-4V4h4V3.8383789V0.9306641L30.5,5.5L24,10.0692749V7.1616211z M22.4677887,15
	L12,10.5531998L1.5331887,15C4.7362885,18.5,5,24,5,24s2.9442883-2.0424995,7,2c4.0565891-4.0424995,7-2,7-2
	S19.2645874,18.5,22.4677887,15z M18.3789062,11.6333008L12,8.9228516l-6.3779297,2.7099609L7,7h1.2000122L9,3h2V1h2v2h2
	l0.7999878,4H17L18.3789062,11.6333008z M10,7h4l-1-2h-2L10,7z"/>
<path fill="#CCCCCC" d="M3.2479999,28.2485008c3.9345887-2.3779011,7.5712881,0.7753983,8.7530003,1.9916992
	c1.1805878-1.2157993,4.8163881-4.3710995,8.7518873-1.9925995l-0.7304001,0.7299004
	c-3.9473-2.1464005-7.4941988,2.1420994-7.6513996,2.3364983l-0.0038996-0.0029984
	c-0.0108004,0.0121994-0.0146999,0.0268993-0.0274,0.038599C12.2401886,31.4496994,12.121088,31.5,11.9901886,31.5
	c-0.1297998,0-0.2596998-0.0503006-0.3593006-0.1401005c-0.0419998-0.0502987-0.0712996-0.1030998-0.0956993-0.1577988
	c-0.5967007-0.6918011-3.9063001-4.2207012-7.5606003-2.2270012L3.2479999,28.2485008z M2.3534887,27.3530006
	c0.1689999-0.1669998,4.1602001-4.0512009,9.2968998,1.0033989l0.0038996-0.0038986
	C11.7440882,28.4501991,11.8720884,28.5,12.0010004,28.5c0.1259995,0,0.2509995-0.0492992,0.3495884-0.1439991l0.0009995,0.0003986
	c0.0009003-0.0014,0.0018997-0.0023994,0.0039005-0.0038986c0.0008993-0.0014,0.0028992-0.0014,0.0049-0.0029011
	c0-0.0004997,0-0.0014992,0.0008993-0.0023994c5.1075001-5.0171013,9.1152992-1.1641006,9.2852001-0.9937l0.7070007-0.706501
	c-0.0459003-0.0468998-4.6767006-4.5507984-10.3524885,0.6689014c-5.6748118-5.2202015-10.3076115-0.716301-10.3545113-0.6689014
	L2.3534887,27.3530006z"/>
</svg>
