<?xml version="1.0" encoding="utf-8"?>
<!-- Generator: Adobe Illustrator 19.1.0, SVG Export Plug-In . SVG Version: 6.00 Build 0)  -->
<svg version="1.1" id="Icons" xmlns="http://www.w3.org/2000/svg" xmlns:xlink="http://www.w3.org/1999/xlink" x="0px" y="0px"
	 viewBox="0 0 24 24" enable-background="new 0 0 24 24" xml:space="preserve">
<path fill="#CCCCCC" d="M9.0078125,23.9003906c-0.0722656,0-0.1357422-0.0283203-0.1923828-0.0839844L8.7988281,23.796875
	c-0.0742188-0.0908203-1.84375-2.2382812-4.0996094-2.2382812c-0.5830078,0-1.1533203,0.1435547-1.6972656,0.4267578
	l-0.4042969-0.4042969c0.6738281-0.3837891,1.3808594-0.578125,2.1054688-0.578125
	c2.0029297,0,3.6210938,1.4453125,4.2236328,2.0664062l0.0722656,0.0742188l0.0712891-0.0742188
	c0.6044922-0.6210938,2.2246094-2.0654297,4.2255859-2.0654297c0.7246094,0,1.4326172,0.1943359,2.1064453,0.578125L15,21.9833984
	c-0.5449219-0.2851562-1.1171875-0.4296875-1.7011719-0.4296875c-2.0615234,0-3.7148438,1.796875-4.0263672,2.1572266
	c-0.0283203,0.0537109-0.0458984,0.0878906-0.0712891,0.1181641C9.1533203,23.8710938,9.0800781,23.9003906,9.0078125,23.9003906z
	 M9.1845703,21.3994484l0.0732422-0.0742188l0.0048828,0.0039062c1.3046875-1.2597656,2.6513672-1.8984375,4.0039062-1.8984375
	c1.5712891,0,2.6650391,0.875,2.9667969,1.1474609l0.3867188-0.3876953c-0.3125-0.2744141-1.5888672-1.2900391-3.390625-1.2900391
	c-1.4179688,0-2.8193359,0.6269531-4.1630859,1.8623047l-0.0673828,0.0625l-0.0673828-0.0625
	c-1.3447266-1.2353516-2.7451172-1.8623047-4.1630859-1.8623047c-1.8144531,0-3.0810661,1.015625-3.3886719,1.2900391
	l0.3867188,0.3886719c0.2880859-0.2587891,1.3886719-1.1416016,2.9707031-1.1416016
	c1.3759766,0,2.7421875,0.6582031,4.0693359,1.9599609c0.0537109,0.0517578,0.1220703,0.0800781,0.1923828,0.0800781
	C9.0722656,21.4775734,9.1396484,21.4492531,9.1845703,21.3994484z"/>
<path fill="#6E6F72" d="M18,7V5h-3V3h3V1l5,3L18,7z M13.7885132,8.1541138L9.5390625,6.515625
	C9.3652344,6.4487305,9.1816406,6.4150391,8.9990234,6.4150391S8.6328125,6.4487305,8.4589844,6.515625L4.2115479,8.1536865L5,5
	h0.9992676L7,2h1V0h2v2h1l0.9992676,3H13L13.7885132,8.1541138z M10,5V4H8v1H10z M4,18c0,0,1.9575424-2.0318747,4.9992504,1
	C12.0417671,15.9681253,14,18,14,18s0.5976753-4.375,3-7L8.9992504,7.9148998L1,11C3.4024,13.625,4,18,4,18z"/>
</svg>
