<?xml version="1.0" encoding="utf-8"?>
<!-- Generator: Adobe Illustrator 19.1.0, SVG Export Plug-In . SVG Version: 6.00 Build 0)  -->
<svg version="1.1" id="Icons" xmlns="http://www.w3.org/2000/svg" xmlns:xlink="http://www.w3.org/1999/xlink" x="0px" y="0px"
	 viewBox="0 0 32 32" enable-background="new 0 0 32 32" xml:space="preserve">
<path fill="#6E6F72" d="M6,7.1616211V7H2V4h4V3.8383789V0.9306641L12.5,5.5L6,10.0692749V7.1616211z M12.9989996,24
	c0,0,2.9443903-2.0424995,7.000001,2c4.0566883-4.0424995,7-2,7-2s0.2646885-5.5,3.4677887-9l-10.4677887-4.4468002L9.5321903,15
	C12.7353897,18.5,12.9989996,24,12.9989996,24z M26.3778687,11.6328125L20,8.9228516l-6.3789062,2.7104492L14.9990234,7h1.2000122
	l0.7999878-4h2V1h2v2h2l0.7999878,4h1.2000122L26.3778687,11.6328125z M17.9990234,7h4l-1-2h-2L17.9990234,7z"/>
<path fill="#CCCCCC" d="M28.0253887,28.9750996c-3.6542988-1.9937-6.9638996,1.5352001-7.5605984,2.2270012
	c-0.0244007,0.0546989-0.0537014,0.1075001-0.0957012,0.1577988C20.2694893,31.4496994,20.1395893,31.5,20.0097904,31.5
	c-0.1309013,0-0.25-0.0503006-0.3495998-0.1504002c-0.012701-0.0116997-0.0166016-0.0263996-0.027401-0.038599l-0.0039005,0.0029984
	c-0.1571999-0.1943989-3.7040997-4.4828987-7.6513987-2.3364983l-0.7304001-0.7299004
	c3.9354992-2.3785,7.5712996,0.7768002,8.7519102,1.9925995c1.1816883-1.216301,4.8183899-4.3696003,8.7530003-1.9916992
	L28.0253887,28.9750996z M30.3534889,26.6469994c-0.0468998-0.0473995-4.6796989-4.5513-10.3544884,0.6689014
	c-5.6758108-5.2196999-10.3066101-0.7158012-10.3525105-0.6689014l0.7069998,0.706501
	c0.1698999-0.1704006,4.1778002-4.0234013,9.2851992,0.9937c0.0009003,0.0009003,0.0009003,0.0018997,0.0009003,0.0023994
	c0.0020008,0.0015011,0.0039997,0.0015011,0.0049,0.0029011c0.0020008,0.0014992,0.0030003,0.0024986,0.0039005,0.0038986
	l0.0009995-0.0003986C19.7479992,28.4507008,19.8729992,28.5,19.9990005,28.5c0.1288891,0,0.2568893-0.0498009,0.3466892-0.1474991
	l0.0039005,0.0038986c5.1366997-5.0545998,9.1278992-1.1703987,9.2968998-1.0033989L30.3534889,26.6469994z"/>
</svg>
