<?xml version="1.0" encoding="utf-8"?>
<!-- Generator: Adobe Illustrator 19.1.0, SVG Export Plug-In . SVG Version: 6.00 Build 0)  -->
<svg version="1.1" id="Icons" xmlns="http://www.w3.org/2000/svg" xmlns:xlink="http://www.w3.org/1999/xlink" x="0px" y="0px"
	 viewBox="0 0 24 24" enable-background="new 0 0 24 24" xml:space="preserve">
<path fill="#CCCCCC" d="M15.0078125,24c-0.0722656,0-0.1357422-0.0283203-0.1923828-0.0839844l-0.0166016-0.0195312
	c-0.0742188-0.0908203-1.84375-2.2382812-4.0996094-2.2382812c-0.5830078,0-1.1533203,0.1435547-1.6972656,0.4267578
	l-0.4042969-0.4042969c0.6738281-0.3837891,1.3808594-0.578125,2.1054688-0.578125
	c2.0029297,0,3.6210938,1.4453125,4.2236328,2.0664062l0.0722656,0.0742188l0.0712891-0.0742188
	c0.6044922-0.6210938,2.2246094-2.0654297,4.2255859-2.0654297c0.7246094,0,1.4326172,0.1943359,2.1064453,0.578125L21,22.0830078
	c-0.5449219-0.2851562-1.1171875-0.4296875-1.7011719-0.4296875c-2.0615234,0-3.7148438,1.796875-4.0263672,2.1572266
	c-0.0283203,0.0537109-0.0458984,0.0878906-0.0712891,0.1181641C15.1533203,23.9707031,15.0800781,24,15.0078125,24z
	 M15.1845703,21.3994484l0.0732422-0.0742188l0.0048828,0.0039062c1.3046875-1.2597656,2.6513672-1.8984375,4.0039062-1.8984375
	c1.5712891,0,2.6650391,0.875,2.9667969,1.1474609l0.3867188-0.3876953c-0.3125-0.2744141-1.5888672-1.2900391-3.390625-1.2900391
	c-1.4179688,0-2.8193359,0.6269531-4.1630859,1.8623047l-0.0673828,0.0625l-0.0673828-0.0625
	c-1.3447266-1.2353516-2.7451172-1.8623047-4.1630859-1.8623047c-1.8144531,0-3.0810647,1.015625-3.3886719,1.2900391
	l0.3867188,0.3886719c0.2880859-0.2587891,1.3886719-1.1416016,2.9707031-1.1416016
	c1.3759766,0,2.7421875,0.6582031,4.0693359,1.9599609c0.0537109,0.0517578,0.1220703,0.0800781,0.1923828,0.0800781
	C15.0722656,21.4775734,15.1396484,21.4492531,15.1845703,21.3994484z"/>
<path fill="#6E6F72" d="M4,7V5H1V3h3V1l5,3L4,7z M19.7885132,8.1541138L15.5390625,6.515625
	c-0.1738281-0.0668945-0.3574219-0.1005859-0.5400391-0.1005859s-0.3662109,0.0336914-0.5400391,0.1005859l-4.2474365,1.6380615
	L11,5h0.9992676L13,2h1V0h2v2h1l0.9992676,3H19L19.7885132,8.1541138z M16,5V4h-2v1H16z M10,18c0,0,1.9575424-2.0318747,4.9992504,1
	C18.0417671,15.9681253,20,18,20,18s0.5976753-4.375,3-7l-8.0007496-3.0851002L7,11C9.4024,13.625,10,18,10,18z"/>
</svg>
