<?xml version="1.0" encoding="utf-8"?>
<!-- Generator: Adobe Illustrator 19.1.0, SVG Export Plug-In . SVG Version: 6.00 Build 0)  -->
<svg version="1.1" id="Icons" xmlns="http://www.w3.org/2000/svg" xmlns:xlink="http://www.w3.org/1999/xlink" x="0px" y="0px"
	 viewBox="0 0 32 32" enable-background="new 0 0 32 32" xml:space="preserve">
<path fill="#6E6F72" d="M18,18v14h-4V18c0-1.4717407-0.559082-2.8125-1.4428711-3.8564453l0.006897-0.0048828L8.8432007,9.5653687
	L6,11.5604858V6.1953125L6.0039062,2L15,5.2470703l-2.8657227,2.0097046l0,0l3.6386108,4.5147095l0.0040283-0.0029297
	C17.1431274,13.4784546,18,15.6416016,18,18z"/>
<path fill="#CCCCCC" d="M16.9326,10.8114996l6.0401001-7.5223999l3.3696003,2.2187002l-6.9911995,8.6308994l0.0492992,0.0049009
	c-0.1518993,0.1795998-0.277401,0.3788996-0.4071999,0.5751991c-0.4267998-1.3945999-1.1119003-2.7198-2.0440006-3.8867998
	L16.9326,10.8114996z"/>
</svg>
