<?xml version="1.0" encoding="utf-8"?>
<!-- Generator: Adobe Illustrator 19.1.0, SVG Export Plug-In . SVG Version: 6.00 Build 0)  -->
<svg version="1.1" id="Icons" xmlns="http://www.w3.org/2000/svg" xmlns:xlink="http://www.w3.org/1999/xlink" x="0px" y="0px"
	 viewBox="0 0 32 32" enable-background="new 0 0 32 32" xml:space="preserve">
<path fill="#6E6F72" d="M23.1567383,9.5654297l-3.7207642,4.5732422l0.006897,0.0048828C18.559082,15.1875,18,16.5282593,18,18v14
	h-4V18c0-2.3583984,0.8563843-4.5215454,2.2230835-6.2314453l0.0040283,0.0029297l3.6386108-4.5147095l0,0L17,5.2470703
	L25.9960938,2L26,6.1953125v5.3651733L23.1567383,9.5654297z"/>
<path fill="#CCCCCC" d="M15.0507965,10.8319998c-0.9321003,1.1669998-1.6171999,2.4921999-2.0439997,3.8867998
	c-0.129797-0.1962996-0.2553005-0.3955994-0.4072008-0.5751991l0.0493002-0.0049009L5.6576967,5.5078001l3.3695993-2.2187002
	l6.0401001,7.5223999L15.0507965,10.8319998z"/>
</svg>
