<?xml version="1.0" encoding="utf-8"?>
<!-- Generator: Adobe Illustrator 19.1.0, SVG Export Plug-In . SVG Version: 6.00 Build 0)  -->
<svg version="1.1" id="Icons" xmlns="http://www.w3.org/2000/svg" xmlns:xlink="http://www.w3.org/1999/xlink" x="0px" y="0px"
	 viewBox="0 0 32 32" enable-background="new 0 0 32 32" xml:space="preserve">
<path fill="#6E6F72" d="M26,26.0244141V32h-3.9951172l0.0106812-6.2607422
	c0.0010376-0.0087891,0.1104126-2.3163452-1.2675781-3.8233032c-0.8994141-0.9833984-2.2958984-1.4823608-4.2752686-1.4823608
	C8.3701172,20.4335938,6,13.8876953,6,10.4267578V10H2.5L8,2.1757812L13.5,10H10v0.3681641
	c0,0.5576172,0.3643188,6.0654297,6.4727173,6.0654297c3.1747437,0,5.6463623,0.9501953,7.3348999,2.8251953
	C26.1436157,21.8515625,26,25.3017578,26,26.0244141z M6,16.1464996V32h4V20.3027
	C8.1942883,19.2392998,6.8837886,17.7577991,6,16.1464996z"/>
<path fill="#CCCCCC" d="M22,16.0830002V2h4v17.7275009c-0.3125114-0.5254002-0.6689129-1.0185013-1.0781116-1.4726009
	C24.0966873,17.3388996,23.1151886,16.6221008,22,16.0830002z"/>
</svg>
