<?xml version="1.0" encoding="utf-8"?>
<!-- Generator: Adobe Illustrator 19.1.0, SVG Export Plug-In . SVG Version: 6.00 Build 0)  -->
<svg version="1.1" id="Icons" xmlns="http://www.w3.org/2000/svg" xmlns:xlink="http://www.w3.org/1999/xlink" x="0px" y="0px"
	 viewBox="0 0 24 24" enable-background="new 0 0 24 24" xml:space="preserve">
<path fill="#6E6F72" d="M19.9987183,19.5183105V24h-2.9963379l0.0079956-4.6955566
	c0.0007935-0.0065918,0.0828247-1.7373047-0.9506836-2.8674316c-0.6745605-0.7375488-1.7219238-1.1118164-3.2064819-1.1118164
	c-6.0769043,0-7.8544922-4.9094238-7.8544922-7.505127V7H2.375L6.5,1l4.125,6H7.9987183v0.776123
	c0,0.4182129,0.2731934,4.5490723,4.8544922,4.5490723c2.3811035,0,4.2348022,0.7126465,5.5011597,2.1188965
	C20.1063843,16.3886719,19.9987183,18.9763184,19.9987183,19.5183105z M5,13v11h3v-7.8828506
	C6.6457162,15.3196001,5.6628413,14.2084751,5,13z"/>
<path fill="#CCCCCC" d="M17,11.5622501V2h3v12.2956247c-0.2343845-0.3940496-0.5016842-0.763875-0.8085842-1.1044493
	C18.5725155,12.5041752,17.8363914,11.9665747,17,11.5622501z"/>
</svg>
