<?xml version="1.0" encoding="utf-8"?>
<!-- Generator: Adobe Illustrator 19.1.0, SVG Export Plug-In . SVG Version: 6.00 Build 0)  -->
<svg version="1.1" id="Icons" xmlns="http://www.w3.org/2000/svg" xmlns:xlink="http://www.w3.org/1999/xlink" x="0px" y="0px"
	 viewBox="0 0 32 32" enable-background="new 0 0 32 32" xml:space="preserve">
<path fill="#57A6D9" d="M24,6.5473599v16.8969402L15.5,32L7,23.4442997V6.5429702l0,0C7,1.81738,10.8062,0,15.5,0
	S24,1.81738,24,6.5429702C24,6.5444298,24,6.5458999,24,6.5473599z"/>
<path fill="#6DB5E3" d="M8,23.0317001V6.5429702C8,1.96143,12.0785999,1,15.5,1S23,1.96143,23,6.5429702v16.4887295l-7.5,7.5494003
	L8,23.0317001z"/>
<path fill="#57A6D9" d="M22,6.5429702v16.0766296l-6,6.0391006V2.0170901C21.9818993,2.19434,22,5.4502001,22,6.5429702z"/>
<path fill="#F8F8F8" d="M20.1000996,10.5c0,2.5415001-2.0585995,4.6000996-4.6000996,4.6000996
	S10.8999004,13.0415001,10.8999004,10.5S12.9584999,5.8999,15.5,5.8999S20.1000996,7.9584999,20.1000996,10.5z"/>
</svg>
