<?xml version="1.0" encoding="utf-8"?>
<!-- Generator: Adobe Illustrator 19.1.0, SVG Export Plug-In . SVG Version: 6.00 Build 0)  -->
<svg version="1.1" id="Icons" xmlns="http://www.w3.org/2000/svg" xmlns:xlink="http://www.w3.org/1999/xlink" x="0px" y="0px"
	 viewBox="0 0 32 32" enable-background="new 0 0 32 32" xml:space="preserve">
<path fill="#C7552E" d="M24,6.5473599v16.8969402L15.5,32L7,23.4442997V6.5429702l0,0C7,1.81738,10.8061962,0,15.5,0
	C20.1937962,0,24,1.81738,24,6.5429702C24,6.5444298,24,6.5458999,24,6.5473599z"/>
<path fill="#C96B4B" d="M8,23.0317001V6.5429702C8,1.96143,12.0785961,1,15.5,1C18.9213963,1,23,1.96143,23,6.5429702v16.4887295
	l-7.5,7.5494003L8,23.0317001z"/>
<path fill="#C7552E" d="M22,6.5429702v16.0766296l-6,6.0391006V2.0170901C21.9818954,2.19434,22,5.4502001,22,6.5429702z"/>
</svg>
