<?xml version="1.0" encoding="utf-8"?>
<!-- Generator: Adobe Illustrator 19.1.0, SVG Export Plug-In . SVG Version: 6.00 Build 0)  -->
<svg version="1.1" id="Icons" xmlns="http://www.w3.org/2000/svg" xmlns:xlink="http://www.w3.org/1999/xlink" x="0px" y="0px"
	 viewBox="0 0 32 32" enable-background="new 0 0 32 32" xml:space="preserve">
<path fill="#CCCCCC" d="M5.1796885,27.0576l2.4678001-2.4678001C5.4032884,22.4092007,4,19.3691006,4,16
	c0-2.25,0.6337886-4.3506002,1.7157884-6.1513996l3.6377006,1.7051001C8.5,12.8261995,8,14.3555002,8,16
	c0,2.2665997,0.9589996,4.3017998,2.4794884,5.7577991l0.0038996-0.0038986l2.4746122-2.4745998l1.6435881,9.4218998
	L5.1796885,27.0576z"/>
<path fill="#6E6F72" d="M25.1942749,8.3026733l-2.4256592,3.4522095C21.3515625,9.5039062,18.8505859,8,16,8
	c-0.9434204,0-1.8480835,0.1655884-2.6885986,0.4672852l0.0236206,0.1342773l0.6063843,3.4463501L5.2821655,7.9882812
	l6.7530518-6.7734985l0.5766602,3.2783813C13.6868896,4.1751099,14.8226929,4,16,4
	C19.6895142,4,22.9921875,5.6757812,25.1942749,8.3026733z M31.218811,18l-5.5-7.8242188L20.218811,18h3.5h0.0178833
	C22.8450928,21.4446411,19.7194214,24,16,24c-0.2373047,0-0.4707031-0.015625-0.7020874-0.0352173L16.0020142,28
	c5.9334106-0.0009155,10.8607788-4.3344116,11.8173218-10H31.218811z"/>
</svg>
