<?xml version="1.0" encoding="utf-8"?>
<!-- Generator: Adobe Illustrator 19.1.0, SVG Export Plug-In . SVG Version: 6.00 Build 0)  -->
<svg version="1.1" id="Icons" xmlns="http://www.w3.org/2000/svg" xmlns:xlink="http://www.w3.org/1999/xlink" x="0px" y="0px"
	 viewBox="0 0 24 24" enable-background="new 0 0 24 24" xml:space="preserve">
<path fill="#6E6F72" d="M19.9401245,13c-0.4862061,4.3675537-4.1100464,7.7943115-8.5615234,7.980835
	C11.3786011,20.980835,10.9517822,18,11,18c2.9669189,0,5.4313354-2.1670532,5.909668-5H14l4.5-6l4.5,6H19.9401245z M11,3
	c-0.8832397,0-1.7339478,0.1350708-2.5404053,0.3737183L8.0263672,0.9110718L2.9616699,5.9912109l6.4943848,3.0446777
	l-0.454834-2.5847168L8.9836426,6.3513794C9.6140747,6.125061,10.2923584,6,11,6
	c1.8936157,0,3.5787354,0.8870239,4.6782227,2.2623901l1.8344727-2.4459839C15.8726196,4.0888672,13.5654297,3,11,3z"/>
<path fill="#CCCCCC" d="M8.7185059,14.4594727l1.232666,7.0664062L2.8847656,20l1.8508301-1.5576782
	C3.0524902,16.8068848,2,14.5267944,2,12c0-1.5540161,0.4173584-3.0043945,1.1148682-4.2802734l2.713562,1.2723389
	C5.3106689,9.8787231,5,10.9008789,5,12c0,1.6999512,0.7192383,3.2263184,1.8596191,4.3183594l0.0029297-0.0029297
	L8.7185059,14.4594727z"/>
</svg>
