<?xml version="1.0" encoding="utf-8"?>
<!-- Generator: Adobe Illustrator 19.1.0, SVG Export Plug-In . SVG Version: 6.00 Build 0)  -->
<svg version="1.1" id="Icons" xmlns="http://www.w3.org/2000/svg" xmlns:xlink="http://www.w3.org/1999/xlink" x="0px" y="0px"
	 viewBox="0 0 24 24" enable-background="new 0 0 24 24" xml:space="preserve">
<path fill="#68AA67" d="M18,4.9105201v12.6727047L11.5,24L5,17.5832253V4.9072275l0,0C5,1.363035,7.9106236,0,11.5,0
	S18,1.363035,18,4.9072275C18,4.9083223,18,4.9094248,18,4.9105201z"/>
<path fill="#9BC29C" d="M6,17.1650391V4.9072266C6,1.6777344,8.9907227,1,11.5,1S17,1.6777344,17,4.9072266v12.2578125
	l-5.5,5.4296875L6,17.1650391z"/>
<path fill="#68AA67" d="M16,4.9072266v11.8398438l-4,3.9487915V2.015625C15.9880981,2.1759644,16,4.2163696,16,4.9072266z"/>
<path fill="#F8F8F8" d="M14.8000002,7.5c0,1.8232107-1.4767895,3.3000002-3.3000002,3.3000002S8.1999998,9.3232107,8.1999998,7.5
	S9.6767893,4.1999998,11.5,4.1999998S14.8000002,5.6767898,14.8000002,7.5z"/>
</svg>
