<?xml version="1.0" encoding="utf-8"?>
<!-- Generator: Adobe Illustrator 19.1.0, SVG Export Plug-In . SVG Version: 6.00 Build 0)  -->
<svg version="1.1" id="Icons" xmlns="http://www.w3.org/2000/svg" xmlns:xlink="http://www.w3.org/1999/xlink" x="0px" y="0px"
	 viewBox="0 0 32 32" enable-background="new 0 0 32 32" xml:space="preserve">
<path fill="#E1E1E1" d="M30,21v11H2v-4L30,21z"/>
<path fill="#6E6F72" d="M13,2.1210999c1.0819998-0.2764,2.1854887,0.3779001,2.4608879,1.46
	C15.7372885,4.665,15.0830002,5.7686,14,6.0439C12.9169998,6.3193002,11.8144884,5.665,11.5390882,4.5830002
	C11.2626886,3.4979999,11.9160004,2.3965001,13,2.1210999z M20.9970875,20.9531002
	c-0.0185986-0.0692997-0.0273991-0.1014996-0.0712986-0.1972008c-0.0517883-0.1075001-1.0166016-5.1620998-1.0166016-5.1620998
	l-3.4413986-2.085c0,0-1.1114006-4.3632994-1.4405003-5.6454997c-0.3261003-1.2831998-2.8670998-1.5274-3.0917997-1.2686
	c-0.1484003,0.1670003-3.8348999,4.1338005-3.8348999,4.1338005l0.8534994,1.8163996L10.0653887,14.8652
	c0.2206993,0.2167997,0.5352001,0.3282003,0.8575001,0.2461004c0.4862995-0.125,0.7811995-0.6211004,0.6571999-1.1084003
	l-1.5606003-3.0439005l2.0370998-1.5946999l1.2588005,4.9316006l4.6484995,2.6474991L19,21.8710995
	c0.2606888,0.3682003,0.7274876,0.5576,1.1903877,0.4393997C20.7860889,22.1581993,21.1483879,21.5498009,20.9970875,20.9531002z
	 M13.188488,15.1288996l-0.5409994,2.5801001l-2.0557003,5.0957012c-0.1122999,0.2304993-0.1475,0.5009995-0.0790997,0.7675991
	c0.1523113,0.5976009,0.7598,0.9598999,1.3583994,0.8076c0.3809118-0.0967007,0.6660004-0.3827991,0.7821999-0.7294998
	l2.2188005-5.1279011l0.3915997-2.2119999L13.188488,15.1288996z M16.7831879,11.915L19,12.6953001
	c0.0028877,0.0019999,0.0194874,0.0087996,0.0370884,0.0176001l1.2343998,0.4453001
	c0.3339996,0.0225,0.6679993-0.1299,0.8495998-0.4375c0.253912-0.4336004,0.1123009-0.9921999-0.3223-1.2480001l-4.5096989-1.5
	C16.4589996,10.6426001,16.6347885,11.3319998,16.7831879,11.915z M2,30.5l28-7v-3.6366997l-28,7V30.5z"/>
</svg>
