<?xml version="1.0" encoding="utf-8"?>
<!-- Generator: Adobe Illustrator 19.1.0, SVG Export Plug-In . SVG Version: 6.00 Build 0)  -->
<svg version="1.1" id="Icons" xmlns="http://www.w3.org/2000/svg" xmlns:xlink="http://www.w3.org/1999/xlink" x="0px" y="0px"
	 viewBox="0 0 24 24" enable-background="new 0 0 24 24" xml:space="preserve">
<path fill="#E1E1E1" d="M23,16v8H1v-2.75L23,16z"/>
<path fill="#6E6F72" d="M1,20.1474743l22-5.249999V17.625l-22,5.25V20.1474743z M8.6543159,3.4372499
	C8.8608665,4.2487502,9.6877499,4.7394748,10.5,4.5329251c0.8122501-0.2064753,1.3029661-1.0341752,1.0956659-1.8471
	C11.3891163,1.8742501,10.5614996,1.383525,9.75,1.590825C8.9370003,1.797375,8.4470167,2.6235001,8.6543159,3.4372499z
	 M15.1427908,16.7328758c-0.3471746,0.0886497-0.6972742-0.0534-0.8927908-0.3295517L13.4729166,12.70755l-3.4863758-1.9856253
	l-0.9440994-3.6987L7.5146165,8.2192497l1.1704497,2.2829256c0.0930004,0.3654747-0.1281748,0.7375498-0.4928999,0.8312998
	C7.9504414,11.39505,7.7145662,11.3114996,7.5490413,11.1489L6.7155662,9.4086752L6.0754414,8.0463753
	c0,0,2.7648745-2.9751,2.8761749-3.1003504c0.1685247-0.1940999,2.074275-0.0109501,2.3188496,0.9514499
	c0.2468252,0.9616504,1.0803757,4.2341256,1.0803757,4.2341256l2.5810499,1.5637493c0,0,0.723609,3.7909508,0.7624493,3.8715754
	c0.0329256,0.0717745,0.039525,0.0959253,0.0534754,0.1478996C15.8612909,16.1623497,15.5895662,16.6186504,15.1427908,16.7328758z
	 M12.2168159,7.2796216l3.3822756,1.1249995c0.3259497,0.1918507,0.4321585,0.6108007,0.241725,0.9359999
	c-0.1362,0.2307005-0.3867006,0.3450003-0.6372004,0.328125l-0.9258003-0.3339748
	C14.264616,9.3281717,14.2521658,9.3230715,14.25,9.3215714l-1.6626091-0.5852251
	C12.4760914,8.2990961,12.3442497,7.7820463,12.2168159,7.2796216z M11.3717651,12.6620483l-0.2177124,1.2297974
	L9.4899902,17.737793c-0.0871582,0.2600098-0.3009644,0.4746094-0.5866699,0.5471191
	c-0.4489746,0.1141968-0.904541-0.1575317-1.0187988-0.6057129c-0.0513306-0.1999512-0.0249023-0.402832,0.0593262-0.5756836
	l1.541748-3.8217773l0.3173828-1.5136108L11.3717651,12.6620483z"/>
</svg>
