<?xml version="1.0" encoding="utf-8"?>
<!-- Generator: Adobe Illustrator 19.1.0, SVG Export Plug-In . SVG Version: 6.00 Build 0)  -->
<svg version="1.1" id="Icons" xmlns="http://www.w3.org/2000/svg" xmlns:xlink="http://www.w3.org/1999/xlink" x="0px" y="0px"
	 viewBox="0 0 24 24" enable-background="new 0 0 24 24" xml:space="preserve">
<path fill="#6E6F72" d="M11.9999962,21.7999992C6.5961666,21.7999992,2.2,17.4034615,2.2,12S6.5961666,2.2,11.9999962,2.2
	S21.7999992,6.596539,21.7999992,12S17.4038277,21.7999992,11.9999962,21.7999992z"/>
<path fill="#F8F8F8" d="M13,19.333334C13,19.6998672,12.6998644,20,12.333333,20h-0.666666
	C11.3001308,20,11,19.6998672,11,19.333334V18.666666C11,18.3001328,11.3001308,18,11.666667,18h0.666666
	C12.6998644,18,13,18.3001328,13,18.666666V19.333334z M16.3129997,8.7441502c0-2.4294753-1.4509525-3.9316502-4.0979271-3.9316502
	C9.7907724,4.8125,8,6.3125,8,8.5625V9h2V8.4958248c0.2695475-1.265625,1.0666723-1.8104997,2.1930971-1.8104997
	c1.2510004,0,2.0595751,0.8334746,2.0595751,2.1240001c0,1.1125498-0.5463753,1.8456745-1.3227749,2.620575l-0.4116001,0.3896999
	C11.453372,12.8845253,11,13.2836752,11,14.9279747V16h2v-0.7043753c0-1.1630249,0.1344748-1.4135246,1.0500002-2.2836752
	C15.3200502,11.8268747,16.3129997,10.7084751,16.3129997,8.7441502z"/>
</svg>
