<?xml version="1.0" encoding="utf-8"?>
<!-- Generator: Adobe Illustrator 19.1.0, SVG Export Plug-In . SVG Version: 6.00 Build 0)  -->
<svg version="1.1" id="Icons" xmlns="http://www.w3.org/2000/svg" xmlns:xlink="http://www.w3.org/1999/xlink" x="0px" y="0px"
	 viewBox="0 0 32 32" enable-background="new 0 0 32 32" xml:space="preserve">
<path fill="#6E6F72" d="M16.5,28.7999992C9.1662264,28.7999992,3.2,22.8332691,3.2,15.5S9.1662264,2.2,16.5,2.2
	S29.7999992,8.1667309,29.7999992,15.5S23.8337669,28.7999992,16.5,28.7999992z"/>
<path fill="#F8F8F8" d="M18,25c0,0.5498009-0.4502029,1-1,1h-1c-0.5498037,0-1-0.4501991-1-1v-1c0-0.5498009,0.4501963-1,1-1h1
	c0.5497971,0,1,0.4501991,1,1V25z M22.6005955,11.4921999c0-3.2392998-2.2011986-5.2421999-5.7304993-5.2421999
	C13.6376963,6.25,11,8.25,11,11.25V12h3v-0.8388996c0.359396-1.6875,1.3388968-2.4140005,2.8407955-2.4140005
	c1.6680012,0,2.7461014,1.1113005,2.7461014,2.8319998c0,1.4834003-0.9785004,2.4609003-2.0137005,3.4941006l-0.5487995,0.5195999
	C15.604496,17.0126991,15,17.5449009,15,19.7373009V21h3v-0.7724991c0-1.5507011,0.229496-1.8847008,1.4501972-3.0449009
	C21.1435966,15.6025,22.6005955,14.1113005,22.6005955,11.4921999z"/>
</svg>
